M48
; DRILL file {KiCad (5.1.10)-1} date 10/17/21 00:38:24
; FORMAT={-:-/ absolute / inch / decimal}
; #@! TF.CreationDate,2021-10-17T00:38:24+10:00
; #@! TF.GenerationSoftware,Kicad,Pcbnew,(5.1.10)-1
; #@! TF.FileFunction,Plated,1,4,PTH
FMAT,2
INCH
T1C0.0157
T2C0.0276
T3C0.0300
%
G90
G05
T1
X1.0Y-1.833
X1.0Y-2.8062
X1.045Y-1.958
X1.045Y-2.9312
X1.0938Y-5.8062
X1.1387Y-5.9312
X1.188Y-3.5565
X1.233Y-3.6815
X1.2797Y-4.3072
X1.3247Y-4.4322
X1.4688Y-5.0557
X1.5137Y-5.1807
X1.75Y-2.8062
X1.795Y-2.9312
X2.0312Y-5.8062
X2.0762Y-5.9312
X2.125Y-3.5562
X2.17Y-3.6812
X2.3125Y-4.3062
X2.3575Y-4.4312
X2.5Y-2.8062
X2.5075Y-1.8325
X2.545Y-2.9312
X2.5525Y-1.9575
X2.6875Y-5.0562
X2.7325Y-5.1812
X2.875Y-3.5562
X2.92Y-3.6812
X2.9688Y-5.8062
X3.0137Y-5.9312
X3.0625Y-4.3062
X3.1075Y-4.4312
X3.25Y-2.8062
X3.2575Y-1.8325
X3.295Y-2.9312
X3.3025Y-1.9575
X3.432Y-5.0562
X3.477Y-5.1812
X3.625Y-3.5562
X3.67Y-3.6812
X3.8125Y-4.3062
X3.8575Y-4.4312
X4.0Y-2.8062
X4.0075Y-1.8325
X4.045Y-2.9312
X4.0525Y-1.9575
X4.1875Y-5.0562
X4.2325Y-5.1812
X4.375Y-3.5562
X4.42Y-3.6812
X4.4203Y-5.8057
X4.4653Y-5.9307
X4.5625Y-4.3062
X4.6075Y-4.4312
X4.75Y-2.8062
X4.7575Y-1.8325
X4.795Y-2.9312
X4.8025Y-1.9575
X4.9375Y-5.0562
X4.9825Y-5.1812
X5.125Y-3.5562
X5.17Y-3.6812
X5.3125Y-4.3062
X5.3575Y-4.4312
X5.5Y-2.8062
X5.545Y-2.9312
X5.6875Y-5.0562
X5.7325Y-5.1812
X5.7812Y-5.8062
X5.8262Y-5.9312
X5.875Y-3.5562
X5.8825Y-1.8325
X5.92Y-3.6812
X5.9275Y-1.9575
X6.0625Y-4.3062
X6.1075Y-4.4312
X6.25Y-2.8062
X6.295Y-2.9312
X6.4375Y-5.0562
X6.4825Y-5.1812
X6.625Y-3.5562
X6.6325Y-1.8325
X6.67Y-3.6812
X6.6775Y-1.9575
X6.8125Y-4.3062
X6.8575Y-4.4312
X6.9437Y-5.8053
X6.9887Y-5.9303
X7.0Y-2.8062
X7.045Y-2.9312
X7.1875Y-5.0562
X7.2325Y-5.1812
X7.375Y-3.5562
X7.3825Y-1.8325
X7.42Y-3.6812
X7.4275Y-1.9575
X7.5625Y-4.3062
X7.6075Y-4.4312
X7.75Y-2.8062
X7.795Y-2.9312
X7.9375Y-5.0562
X7.9825Y-5.1812
X8.125Y-3.5562
X8.1325Y-1.8325
X8.17Y-3.6812
X8.1775Y-1.9575
X8.3125Y-4.3062
X8.3575Y-4.4312
X8.5Y-2.8062
X8.545Y-2.9312
X8.5947Y-5.8062
X8.6397Y-5.9312
X8.6875Y-5.0562
X8.7325Y-5.1812
X8.875Y-3.5562
X8.92Y-3.6812
X9.0625Y-4.3062
X9.1075Y-4.4312
X9.2263Y-1.8325
X9.25Y-2.8062
X9.2713Y-1.9575
X9.295Y-2.9312
X9.4375Y-5.0562
X9.4825Y-5.1812
X9.5312Y-5.8062
X9.5762Y-5.9312
X9.625Y-3.5562
X9.67Y-3.6812
X9.8125Y-4.3062
X9.8575Y-4.4312
X9.9763Y-1.8325
X10.0Y-2.8062
X10.0213Y-1.9575
X10.045Y-2.9312
X10.375Y-3.5562
X10.42Y-3.6812
X10.4688Y-5.8062
X10.5137Y-5.9312
X10.7263Y-1.8325
X10.7713Y-1.9575
X10.8438Y-5.0583
X10.8887Y-5.1833
X11.0303Y-4.3068
X11.0753Y-4.4318
X11.125Y-2.8083
X11.17Y-2.9333
X11.312Y-3.5568
X11.357Y-3.6818
X11.4062Y-5.8062
X11.4512Y-5.9312
X11.4525Y-1.6845
X11.4763Y-1.8325
X11.5213Y-1.9575
X11.9425Y-1.7825
X11.958Y-2.5335
X12.4375Y-2.8062
X12.4375Y-3.5562
X12.4375Y-5.8062
X12.445Y-1.8325
X12.4825Y-2.9312
X12.4825Y-3.6812
X12.4825Y-5.9312
X12.49Y-1.9575
X12.897Y-2.5305
X13.1875Y-2.8062
X13.1875Y-3.5562
X13.1875Y-5.0542
X13.1875Y-5.8062
X13.195Y-1.8325
X13.2325Y-2.9312
X13.2325Y-3.6812
X13.2325Y-5.1792
X13.2325Y-5.9312
X13.24Y-1.9575
X13.5375Y-1.7745
X13.554Y-0.8581
X13.554Y-1.0569
X13.654Y-0.8581
X13.654Y-1.0569
X13.7164Y-1.8056
X13.754Y-0.8581
X13.754Y-1.0569
X13.781Y-1.794
X13.854Y-1.0569
X13.855Y-0.8595
X13.9375Y-3.5562
X13.9375Y-5.8062
X13.9406Y-2.8072
X13.945Y-1.8325
X13.955Y-0.8595
X13.955Y-1.0595
X13.9825Y-3.6812
X13.9825Y-5.9312
X13.9856Y-2.9322
X13.99Y-1.9575
X14.055Y-0.8595
X14.055Y-1.0595
X14.155Y-0.8595
X14.155Y-1.0595
X14.255Y-0.8595
X14.255Y-1.0545
X14.355Y-0.8595
X14.355Y-1.0595
X14.455Y-0.8595
X14.455Y-1.0595
X14.554Y-0.8581
X14.554Y-1.0569
X14.655Y-0.8595
X14.655Y-1.0595
X14.755Y-0.8595
X14.755Y-1.0595
X14.8125Y-2.5555
X14.855Y-0.8595
X14.855Y-1.0595
X14.9038Y-2.5775
X14.9057Y-1.833
X14.9062Y-2.8062
X14.9062Y-3.5522
X14.9062Y-4.3062
X14.9162Y-5.0562
X14.9488Y-2.7025
X14.9507Y-1.958
X14.9512Y-2.9312
X14.9512Y-3.6772
X14.9512Y-4.4312
X14.955Y-0.8595
X14.955Y-1.0595
X14.9612Y-5.1812
X14.979Y-2.533
X15.0535Y-0.8585
X15.0535Y-1.058
X15.1535Y-0.858
X15.1535Y-1.0575
X15.216Y-1.726
X15.2912Y-5.8062
X15.3362Y-5.9312
X15.454Y-0.8581
X15.454Y-1.0569
X15.6557Y-1.8335
X15.6562Y-2.8062
X15.6562Y-3.5522
X15.6562Y-4.3062
X15.6562Y-5.0562
X15.6662Y-2.576
X15.7007Y-1.9585
X15.7012Y-2.9312
X15.7012Y-3.6772
X15.7012Y-4.4312
X15.7012Y-5.1812
X15.7112Y-2.701
X15.997Y-1.797
X16.4058Y-1.833
X16.4062Y-2.8068
X16.4062Y-3.5522
X16.4062Y-4.3062
X16.4062Y-5.0562
X16.4062Y-5.8062
X16.4162Y-2.5755
X16.4507Y-1.958
X16.4512Y-2.9318
X16.4512Y-3.6772
X16.4512Y-4.4312
X16.4512Y-5.1812
X16.4512Y-5.9312
X16.4612Y-2.7005
X17.0472Y-2.5689
X17.1562Y-1.833
X17.1562Y-2.8062
X17.1562Y-3.9412
X17.1662Y-2.5775
X17.1662Y-5.5112
X17.1797Y-2.4955
X17.2012Y-1.958
X17.2012Y-2.9312
X17.2012Y-4.0663
X17.2112Y-2.7025
X17.2112Y-5.6362
T2
X0.7Y-2.084
X0.7Y-2.391
X0.7Y-3.0527
X0.7Y-3.3598
X0.7937Y-6.0527
X0.7937Y-6.3598
X0.88Y-3.801
X0.88Y-4.1081
X0.9798Y-4.5537
X0.9798Y-4.8608
X1.1687Y-5.3027
X1.1687Y-5.6098
X1.4535Y-3.0527
X1.4535Y-3.3598
X1.7237Y-6.0507
X1.7237Y-6.3578
X1.8175Y-3.8007
X1.8175Y-4.1078
X2.005Y-4.5507
X2.005Y-4.8578
X2.1925Y-2.084
X2.1925Y-2.391
X2.1925Y-3.0507
X2.1925Y-3.3578
X2.38Y-5.3007
X2.38Y-5.6078
X2.5675Y-3.8007
X2.5675Y-4.1078
X2.6612Y-6.0507
X2.6612Y-6.3578
X2.755Y-4.5507
X2.755Y-4.8578
X2.9425Y-2.082
X2.9425Y-2.389
X2.9425Y-3.0507
X2.9425Y-3.3578
X3.13Y-5.3007
X3.13Y-5.6078
X3.3175Y-3.8007
X3.3175Y-4.1078
X3.505Y-4.5507
X3.505Y-4.8578
X3.6925Y-2.082
X3.6925Y-2.389
X3.6925Y-3.0507
X3.6925Y-3.3578
X3.88Y-5.3007
X3.88Y-5.6078
X4.0675Y-3.8007
X4.0675Y-4.1078
X4.255Y-4.5507
X4.255Y-4.8578
X4.4425Y-2.082
X4.4425Y-2.389
X4.4425Y-3.0507
X4.4425Y-3.3578
X4.63Y-5.3007
X4.63Y-5.6078
X4.8175Y-3.8007
X4.8175Y-4.1078
X5.005Y-4.5527
X5.005Y-4.8598
X5.1925Y-3.0507
X5.1925Y-3.3578
X5.38Y-5.3027
X5.38Y-5.6098
X5.4737Y-6.0507
X5.4737Y-6.3578
X5.5675Y-2.082
X5.5675Y-2.389
X5.5675Y-3.8007
X5.5675Y-4.1078
X5.755Y-4.5507
X5.755Y-4.8578
X5.9425Y-3.0507
X5.9425Y-3.3578
X6.13Y-5.3007
X6.13Y-5.6078
X6.3175Y-2.082
X6.3175Y-2.389
X6.3175Y-3.8027
X6.3175Y-4.1098
X6.505Y-4.5507
X6.505Y-4.8578
X6.6925Y-3.0507
X6.6925Y-3.3578
X6.88Y-5.3027
X6.88Y-5.6098
X7.0675Y-2.082
X7.0675Y-2.389
X7.0675Y-3.8007
X7.0675Y-4.1078
X7.255Y-4.5507
X7.255Y-4.8578
X7.4425Y-3.0527
X7.4425Y-3.3598
X7.63Y-5.3007
X7.63Y-5.6078
X7.8175Y-2.084
X7.8175Y-2.391
X7.8175Y-3.8007
X7.8175Y-4.1078
X8.005Y-4.5507
X8.005Y-4.8578
X8.1925Y-3.0507
X8.1925Y-3.3578
X8.2873Y-6.0532
X8.2873Y-6.3603
X8.38Y-5.3007
X8.38Y-5.6078
X8.5675Y-3.8027
X8.5675Y-4.1098
X8.755Y-4.5507
X8.755Y-4.8578
X8.9112Y-2.082
X8.9112Y-2.389
X8.9425Y-3.0507
X8.9425Y-3.3578
X9.13Y-5.3027
X9.13Y-5.6098
X9.2237Y-6.0507
X9.2237Y-6.3578
X9.3175Y-3.8007
X9.3175Y-4.1078
X9.505Y-4.5507
X9.505Y-4.8578
X9.6612Y-2.082
X9.6612Y-2.389
X9.6925Y-3.0527
X9.6925Y-3.3598
X10.0675Y-3.8007
X10.0675Y-4.1078
X10.1612Y-6.0507
X10.1612Y-6.3578
X10.4112Y-2.082
X10.4112Y-2.389
X10.5437Y-5.3027
X10.5437Y-5.6098
X10.7312Y-4.5527
X10.7312Y-4.8598
X10.825Y-3.0527
X10.825Y-3.3598
X11.0Y-3.8027
X11.0Y-4.1098
X11.0987Y-6.0507
X11.0987Y-6.3578
X11.1612Y-2.082
X11.1612Y-2.389
X12.13Y-2.082
X12.13Y-2.389
X12.13Y-3.0507
X12.13Y-3.3578
X12.13Y-6.0507
X12.13Y-6.3578
X12.14Y-3.8007
X12.14Y-4.1078
X12.88Y-3.0507
X12.88Y-3.3578
X12.88Y-3.8007
X12.88Y-4.1078
X12.88Y-5.3007
X12.88Y-5.6078
X12.88Y-6.0507
X12.88Y-6.3578
X12.89Y-2.082
X12.89Y-2.389
X13.63Y-2.082
X13.63Y-2.389
X13.63Y-3.0507
X13.63Y-3.3578
X13.63Y-6.0507
X13.63Y-6.3578
X13.64Y-3.8007
X13.64Y-4.1078
X14.5887Y-5.3007
X14.5887Y-5.6078
X14.5987Y-2.082
X14.5987Y-2.389
X14.5987Y-3.0507
X14.5987Y-3.3578
X14.5987Y-3.8007
X14.5987Y-4.1078
X14.5987Y-4.5507
X14.5987Y-4.8578
X14.9837Y-6.0527
X14.9837Y-6.3598
X15.3487Y-2.0825
X15.3487Y-2.3895
X15.3487Y-3.0527
X15.3487Y-3.3598
X15.3487Y-3.8007
X15.3487Y-4.1078
X15.3487Y-4.5507
X15.3487Y-4.8578
X15.3487Y-5.3007
X15.3487Y-5.6078
X16.0987Y-2.082
X16.0987Y-2.389
X16.0987Y-3.0507
X16.0987Y-3.3578
X16.0987Y-3.8007
X16.0987Y-4.1078
X16.0987Y-4.5507
X16.0987Y-4.8578
X16.0987Y-5.3007
X16.0987Y-5.6078
X16.0987Y-6.0507
X16.0987Y-6.3578
X16.8487Y-2.084
X16.8487Y-2.391
X16.8487Y-3.0507
X16.8487Y-3.3578
X16.8487Y-4.1677
X16.8487Y-4.4748
X16.8588Y-5.6757
X16.8588Y-5.9828
T3
X15.255Y-0.8591
X15.255Y-1.0595
X15.355Y-0.8595
X15.355Y-1.0559
X16.775Y-0.9995
X16.775Y-1.2245
X17.1Y-0.9995
X17.1Y-1.2195
T0
M30
