%TF.GenerationSoftware,KiCad,Pcbnew,(5.1.10)-1*%
%TF.CreationDate,2021-09-26T02:52:38+10:00*%
%TF.ProjectId,RedPyKeeb_mainboard,52656450-794b-4656-9562-5f6d61696e62,rev?*%
%TF.SameCoordinates,Original*%
%TF.FileFunction,Other,User*%
%FSLAX46Y46*%
G04 Gerber Fmt 4.6, Leading zero omitted, Abs format (unit mm)*
G04 Created by KiCad (PCBNEW (5.1.10)-1) date 2021-09-26 02:52:38*
%MOMM*%
%LPD*%
G01*
G04 APERTURE LIST*
%ADD10C,0.050000*%
G04 APERTURE END LIST*
D10*
%TO.C,C6*%
X435688700Y-19974600D02*
X435688700Y-23874600D01*
X435688700Y-23874600D02*
X436538700Y-23874600D01*
X436538700Y-23874600D02*
X436538700Y-26874600D01*
X436538700Y-26874600D02*
X435688700Y-26874600D01*
X435688700Y-26874600D02*
X435688700Y-30774600D01*
X426038700Y-30774600D02*
X435688700Y-30774600D01*
X426038700Y-19974600D02*
X435688700Y-19974600D01*
X424888700Y-29624600D02*
X426038700Y-30774600D01*
X424888700Y-21124600D02*
X426038700Y-19974600D01*
X424888700Y-21124600D02*
X424888700Y-23874600D01*
X424888700Y-26874600D02*
X424888700Y-29624600D01*
X424888700Y-23874600D02*
X424038700Y-23874600D01*
X424038700Y-23874600D02*
X424038700Y-26874600D01*
X424038700Y-26874600D02*
X424888700Y-26874600D01*
%TO.C,LD0\u002C0*%
X24738200Y-47114000D02*
X25738200Y-47114000D01*
X26738200Y-47114000D02*
X27738200Y-47114000D01*
X27738200Y-49914000D02*
X26738200Y-49914000D01*
X25738200Y-49914000D02*
X24738200Y-49914000D01*
X25738200Y-50094000D02*
X25738200Y-49914000D01*
X26738200Y-50094000D02*
X25738200Y-50094000D01*
X26738200Y-49914000D02*
X26738200Y-50094000D01*
X25738200Y-46934000D02*
X25738200Y-47114000D01*
X26738200Y-46934000D02*
X25738200Y-46934000D01*
X26738200Y-47114000D02*
X26738200Y-46934000D01*
X27738200Y-49914000D02*
X27738200Y-47114000D01*
X24738200Y-49914000D02*
X24738200Y-47114000D01*
%TO.C,LD3\u002C5\u002C1*%
X177455700Y-150949200D02*
X178455700Y-150949200D01*
X179455700Y-150949200D02*
X180455700Y-150949200D01*
X180455700Y-153749200D02*
X179455700Y-153749200D01*
X178455700Y-153749200D02*
X177455700Y-153749200D01*
X178455700Y-153929200D02*
X178455700Y-153749200D01*
X179455700Y-153929200D02*
X178455700Y-153929200D01*
X179455700Y-153749200D02*
X179455700Y-153929200D01*
X178455700Y-150769200D02*
X178455700Y-150949200D01*
X179455700Y-150769200D02*
X178455700Y-150769200D01*
X179455700Y-150949200D02*
X179455700Y-150769200D01*
X180455700Y-153749200D02*
X180455700Y-150949200D01*
X177455700Y-153749200D02*
X177455700Y-150949200D01*
%TO.C,LD3\u002C5\u002C0*%
X113358800Y-150961900D02*
X114358800Y-150961900D01*
X115358800Y-150961900D02*
X116358800Y-150961900D01*
X116358800Y-153761900D02*
X115358800Y-153761900D01*
X114358800Y-153761900D02*
X113358800Y-153761900D01*
X114358800Y-153941900D02*
X114358800Y-153761900D01*
X115358800Y-153941900D02*
X114358800Y-153941900D01*
X115358800Y-153761900D02*
X115358800Y-153941900D01*
X114358800Y-150781900D02*
X114358800Y-150961900D01*
X115358800Y-150781900D02*
X114358800Y-150781900D01*
X115358800Y-150961900D02*
X115358800Y-150781900D01*
X116358800Y-153761900D02*
X116358800Y-150961900D01*
X113358800Y-153761900D02*
X113358800Y-150961900D01*
%TO.C,LD20\u002C7*%
X437831100Y-66075100D02*
X438831100Y-66075100D01*
X439831100Y-66075100D02*
X440831100Y-66075100D01*
X440831100Y-68875100D02*
X439831100Y-68875100D01*
X438831100Y-68875100D02*
X437831100Y-68875100D01*
X438831100Y-69055100D02*
X438831100Y-68875100D01*
X439831100Y-69055100D02*
X438831100Y-69055100D01*
X439831100Y-68875100D02*
X439831100Y-69055100D01*
X438831100Y-65895100D02*
X438831100Y-66075100D01*
X439831100Y-65895100D02*
X438831100Y-65895100D01*
X439831100Y-66075100D02*
X439831100Y-65895100D01*
X440831100Y-68875100D02*
X440831100Y-66075100D01*
X437831100Y-68875100D02*
X437831100Y-66075100D01*
%TO.C,LD20\u002C0*%
X437577100Y-47164800D02*
X438577100Y-47164800D01*
X439577100Y-47164800D02*
X440577100Y-47164800D01*
X440577100Y-49964800D02*
X439577100Y-49964800D01*
X438577100Y-49964800D02*
X437577100Y-49964800D01*
X438577100Y-50144800D02*
X438577100Y-49964800D01*
X439577100Y-50144800D02*
X438577100Y-50144800D01*
X439577100Y-49964800D02*
X439577100Y-50144800D01*
X438577100Y-46984800D02*
X438577100Y-47164800D01*
X439577100Y-46984800D02*
X438577100Y-46984800D01*
X439577100Y-47164800D02*
X439577100Y-46984800D01*
X440577100Y-49964800D02*
X440577100Y-47164800D01*
X437577100Y-49964800D02*
X437577100Y-47164800D01*
%TO.C,LD20\u002C1*%
X437640600Y-73060100D02*
X438640600Y-73060100D01*
X439640600Y-73060100D02*
X440640600Y-73060100D01*
X440640600Y-75860100D02*
X439640600Y-75860100D01*
X438640600Y-75860100D02*
X437640600Y-75860100D01*
X438640600Y-76040100D02*
X438640600Y-75860100D01*
X439640600Y-76040100D02*
X438640600Y-76040100D01*
X439640600Y-75860100D02*
X439640600Y-76040100D01*
X438640600Y-72880100D02*
X438640600Y-73060100D01*
X439640600Y-72880100D02*
X438640600Y-72880100D01*
X439640600Y-73060100D02*
X439640600Y-72880100D01*
X440640600Y-75860100D02*
X440640600Y-73060100D01*
X437640600Y-75860100D02*
X437640600Y-73060100D01*
%TO.C,LD19\u002C6*%
X437894600Y-142719600D02*
X438894600Y-142719600D01*
X439894600Y-142719600D02*
X440894600Y-142719600D01*
X440894600Y-145519600D02*
X439894600Y-145519600D01*
X438894600Y-145519600D02*
X437894600Y-145519600D01*
X438894600Y-145699600D02*
X438894600Y-145519600D01*
X439894600Y-145699600D02*
X438894600Y-145699600D01*
X439894600Y-145519600D02*
X439894600Y-145699600D01*
X438894600Y-142539600D02*
X438894600Y-142719600D01*
X439894600Y-142539600D02*
X438894600Y-142539600D01*
X439894600Y-142719600D02*
X439894600Y-142539600D01*
X440894600Y-145519600D02*
X440894600Y-142719600D01*
X437894600Y-145519600D02*
X437894600Y-142719600D01*
%TO.C,LD19\u002C3*%
X418336600Y-92326000D02*
X419336600Y-92326000D01*
X420336600Y-92326000D02*
X421336600Y-92326000D01*
X421336600Y-95126000D02*
X420336600Y-95126000D01*
X419336600Y-95126000D02*
X418336600Y-95126000D01*
X419336600Y-95306000D02*
X419336600Y-95126000D01*
X420336600Y-95306000D02*
X419336600Y-95306000D01*
X420336600Y-95126000D02*
X420336600Y-95306000D01*
X419336600Y-92146000D02*
X419336600Y-92326000D01*
X420336600Y-92146000D02*
X419336600Y-92146000D01*
X420336600Y-92326000D02*
X420336600Y-92146000D01*
X421336600Y-95126000D02*
X421336600Y-92326000D01*
X418336600Y-95126000D02*
X418336600Y-92326000D01*
%TO.C,LD19\u002C4*%
X437640600Y-102206600D02*
X438640600Y-102206600D01*
X439640600Y-102206600D02*
X440640600Y-102206600D01*
X440640600Y-105006600D02*
X439640600Y-105006600D01*
X438640600Y-105006600D02*
X437640600Y-105006600D01*
X438640600Y-105186600D02*
X438640600Y-105006600D01*
X439640600Y-105186600D02*
X438640600Y-105186600D01*
X439640600Y-105006600D02*
X439640600Y-105186600D01*
X438640600Y-102026600D02*
X438640600Y-102206600D01*
X439640600Y-102026600D02*
X438640600Y-102026600D01*
X439640600Y-102206600D02*
X439640600Y-102026600D01*
X440640600Y-105006600D02*
X440640600Y-102206600D01*
X437640600Y-105006600D02*
X437640600Y-102206600D01*
%TO.C,LD19\u002C1*%
X418336600Y-73072800D02*
X419336600Y-73072800D01*
X420336600Y-73072800D02*
X421336600Y-73072800D01*
X421336600Y-75872800D02*
X420336600Y-75872800D01*
X419336600Y-75872800D02*
X418336600Y-75872800D01*
X419336600Y-76052800D02*
X419336600Y-75872800D01*
X420336600Y-76052800D02*
X419336600Y-76052800D01*
X420336600Y-75872800D02*
X420336600Y-76052800D01*
X419336600Y-72892800D02*
X419336600Y-73072800D01*
X420336600Y-72892800D02*
X419336600Y-72892800D01*
X420336600Y-73072800D02*
X420336600Y-72892800D01*
X421336600Y-75872800D02*
X421336600Y-73072800D01*
X418336600Y-75872800D02*
X418336600Y-73072800D01*
%TO.C,LD19\u002C0*%
X418260400Y-47164800D02*
X419260400Y-47164800D01*
X420260400Y-47164800D02*
X421260400Y-47164800D01*
X421260400Y-49964800D02*
X420260400Y-49964800D01*
X419260400Y-49964800D02*
X418260400Y-49964800D01*
X419260400Y-50144800D02*
X419260400Y-49964800D01*
X420260400Y-50144800D02*
X419260400Y-50144800D01*
X420260400Y-49964800D02*
X420260400Y-50144800D01*
X419260400Y-46984800D02*
X419260400Y-47164800D01*
X420260400Y-46984800D02*
X419260400Y-46984800D01*
X420260400Y-47164800D02*
X420260400Y-46984800D01*
X421260400Y-49964800D02*
X421260400Y-47164800D01*
X418260400Y-49964800D02*
X418260400Y-47164800D01*
%TO.C,LD19\u002C7*%
X418527100Y-66024300D02*
X419527100Y-66024300D01*
X420527100Y-66024300D02*
X421527100Y-66024300D01*
X421527100Y-68824300D02*
X420527100Y-68824300D01*
X419527100Y-68824300D02*
X418527100Y-68824300D01*
X419527100Y-69004300D02*
X419527100Y-68824300D01*
X420527100Y-69004300D02*
X419527100Y-69004300D01*
X420527100Y-68824300D02*
X420527100Y-69004300D01*
X419527100Y-65844300D02*
X419527100Y-66024300D01*
X420527100Y-65844300D02*
X419527100Y-65844300D01*
X420527100Y-66024300D02*
X420527100Y-65844300D01*
X421527100Y-68824300D02*
X421527100Y-66024300D01*
X418527100Y-68824300D02*
X418527100Y-66024300D01*
%TO.C,LD18\u002C0*%
X398956400Y-47164800D02*
X399956400Y-47164800D01*
X400956400Y-47164800D02*
X401956400Y-47164800D01*
X401956400Y-49964800D02*
X400956400Y-49964800D01*
X399956400Y-49964800D02*
X398956400Y-49964800D01*
X399956400Y-50144800D02*
X399956400Y-49964800D01*
X400956400Y-50144800D02*
X399956400Y-50144800D01*
X400956400Y-49964800D02*
X400956400Y-50144800D01*
X399956400Y-46984800D02*
X399956400Y-47164800D01*
X400956400Y-46984800D02*
X399956400Y-46984800D01*
X400956400Y-47164800D02*
X400956400Y-46984800D01*
X401956400Y-49964800D02*
X401956400Y-47164800D01*
X398956400Y-49964800D02*
X398956400Y-47164800D01*
%TO.C,LD18\u002C3*%
X399032600Y-92326000D02*
X400032600Y-92326000D01*
X401032600Y-92326000D02*
X402032600Y-92326000D01*
X402032600Y-95126000D02*
X401032600Y-95126000D01*
X400032600Y-95126000D02*
X399032600Y-95126000D01*
X400032600Y-95306000D02*
X400032600Y-95126000D01*
X401032600Y-95306000D02*
X400032600Y-95306000D01*
X401032600Y-95126000D02*
X401032600Y-95306000D01*
X400032600Y-92146000D02*
X400032600Y-92326000D01*
X401032600Y-92146000D02*
X400032600Y-92146000D01*
X401032600Y-92326000D02*
X401032600Y-92146000D01*
X402032600Y-95126000D02*
X402032600Y-92326000D01*
X399032600Y-95126000D02*
X399032600Y-92326000D01*
%TO.C,LD18\u002C4*%
X418336600Y-111668100D02*
X419336600Y-111668100D01*
X420336600Y-111668100D02*
X421336600Y-111668100D01*
X421336600Y-114468100D02*
X420336600Y-114468100D01*
X419336600Y-114468100D02*
X418336600Y-114468100D01*
X419336600Y-114648100D02*
X419336600Y-114468100D01*
X420336600Y-114648100D02*
X419336600Y-114648100D01*
X420336600Y-114468100D02*
X420336600Y-114648100D01*
X419336600Y-111488100D02*
X419336600Y-111668100D01*
X420336600Y-111488100D02*
X419336600Y-111488100D01*
X420336600Y-111668100D02*
X420336600Y-111488100D01*
X421336600Y-114468100D02*
X421336600Y-111668100D01*
X418336600Y-114468100D02*
X418336600Y-111668100D01*
%TO.C,LD18\u002C5*%
X418336600Y-131035600D02*
X419336600Y-131035600D01*
X420336600Y-131035600D02*
X421336600Y-131035600D01*
X421336600Y-133835600D02*
X420336600Y-133835600D01*
X419336600Y-133835600D02*
X418336600Y-133835600D01*
X419336600Y-134015600D02*
X419336600Y-133835600D01*
X420336600Y-134015600D02*
X419336600Y-134015600D01*
X420336600Y-133835600D02*
X420336600Y-134015600D01*
X419336600Y-130855600D02*
X419336600Y-131035600D01*
X420336600Y-130855600D02*
X419336600Y-130855600D01*
X420336600Y-131035600D02*
X420336600Y-130855600D01*
X421336600Y-133835600D02*
X421336600Y-131035600D01*
X418336600Y-133835600D02*
X418336600Y-131035600D01*
%TO.C,LD18\u002C7*%
X399223100Y-66024300D02*
X400223100Y-66024300D01*
X401223100Y-66024300D02*
X402223100Y-66024300D01*
X402223100Y-68824300D02*
X401223100Y-68824300D01*
X400223100Y-68824300D02*
X399223100Y-68824300D01*
X400223100Y-69004300D02*
X400223100Y-68824300D01*
X401223100Y-69004300D02*
X400223100Y-69004300D01*
X401223100Y-68824300D02*
X401223100Y-69004300D01*
X400223100Y-65844300D02*
X400223100Y-66024300D01*
X401223100Y-65844300D02*
X400223100Y-65844300D01*
X401223100Y-66024300D02*
X401223100Y-65844300D01*
X402223100Y-68824300D02*
X402223100Y-66024300D01*
X399223100Y-68824300D02*
X399223100Y-66024300D01*
%TO.C,LD18\u002C1*%
X399032600Y-73060100D02*
X400032600Y-73060100D01*
X401032600Y-73060100D02*
X402032600Y-73060100D01*
X402032600Y-75860100D02*
X401032600Y-75860100D01*
X400032600Y-75860100D02*
X399032600Y-75860100D01*
X400032600Y-76040100D02*
X400032600Y-75860100D01*
X401032600Y-76040100D02*
X400032600Y-76040100D01*
X401032600Y-75860100D02*
X401032600Y-76040100D01*
X400032600Y-72880100D02*
X400032600Y-73060100D01*
X401032600Y-72880100D02*
X400032600Y-72880100D01*
X401032600Y-73060100D02*
X401032600Y-72880100D01*
X402032600Y-75860100D02*
X402032600Y-73060100D01*
X399032600Y-75860100D02*
X399032600Y-73060100D01*
%TO.C,LD18\u002C6*%
X418336600Y-150339600D02*
X419336600Y-150339600D01*
X420336600Y-150339600D02*
X421336600Y-150339600D01*
X421336600Y-153139600D02*
X420336600Y-153139600D01*
X419336600Y-153139600D02*
X418336600Y-153139600D01*
X419336600Y-153319600D02*
X419336600Y-153139600D01*
X420336600Y-153319600D02*
X419336600Y-153319600D01*
X420336600Y-153139600D02*
X420336600Y-153319600D01*
X419336600Y-150159600D02*
X419336600Y-150339600D01*
X420336600Y-150159600D02*
X419336600Y-150159600D01*
X420336600Y-150339600D02*
X420336600Y-150159600D01*
X421336600Y-153139600D02*
X421336600Y-150339600D01*
X418336600Y-153139600D02*
X418336600Y-150339600D01*
%TO.C,LD17\u002C4*%
X399032600Y-111731600D02*
X400032600Y-111731600D01*
X401032600Y-111731600D02*
X402032600Y-111731600D01*
X402032600Y-114531600D02*
X401032600Y-114531600D01*
X400032600Y-114531600D02*
X399032600Y-114531600D01*
X400032600Y-114711600D02*
X400032600Y-114531600D01*
X401032600Y-114711600D02*
X400032600Y-114711600D01*
X401032600Y-114531600D02*
X401032600Y-114711600D01*
X400032600Y-111551600D02*
X400032600Y-111731600D01*
X401032600Y-111551600D02*
X400032600Y-111551600D01*
X401032600Y-111731600D02*
X401032600Y-111551600D01*
X402032600Y-114531600D02*
X402032600Y-111731600D01*
X399032600Y-114531600D02*
X399032600Y-111731600D01*
%TO.C,LD17\u002C3*%
X379728600Y-92326000D02*
X380728600Y-92326000D01*
X381728600Y-92326000D02*
X382728600Y-92326000D01*
X382728600Y-95126000D02*
X381728600Y-95126000D01*
X380728600Y-95126000D02*
X379728600Y-95126000D01*
X380728600Y-95306000D02*
X380728600Y-95126000D01*
X381728600Y-95306000D02*
X380728600Y-95306000D01*
X381728600Y-95126000D02*
X381728600Y-95306000D01*
X380728600Y-92146000D02*
X380728600Y-92326000D01*
X381728600Y-92146000D02*
X380728600Y-92146000D01*
X381728600Y-92326000D02*
X381728600Y-92146000D01*
X382728600Y-95126000D02*
X382728600Y-92326000D01*
X379728600Y-95126000D02*
X379728600Y-92326000D01*
%TO.C,LD17\u002C6*%
X389507600Y-150339600D02*
X390507600Y-150339600D01*
X391507600Y-150339600D02*
X392507600Y-150339600D01*
X392507600Y-153139600D02*
X391507600Y-153139600D01*
X390507600Y-153139600D02*
X389507600Y-153139600D01*
X390507600Y-153319600D02*
X390507600Y-153139600D01*
X391507600Y-153319600D02*
X390507600Y-153319600D01*
X391507600Y-153139600D02*
X391507600Y-153319600D01*
X390507600Y-150159600D02*
X390507600Y-150339600D01*
X391507600Y-150159600D02*
X390507600Y-150159600D01*
X391507600Y-150339600D02*
X391507600Y-150159600D01*
X392507600Y-153139600D02*
X392507600Y-150339600D01*
X389507600Y-153139600D02*
X389507600Y-150339600D01*
%TO.C,LD17\u002C5*%
X399032600Y-131035600D02*
X400032600Y-131035600D01*
X401032600Y-131035600D02*
X402032600Y-131035600D01*
X402032600Y-133835600D02*
X401032600Y-133835600D01*
X400032600Y-133835600D02*
X399032600Y-133835600D01*
X400032600Y-134015600D02*
X400032600Y-133835600D01*
X401032600Y-134015600D02*
X400032600Y-134015600D01*
X401032600Y-133835600D02*
X401032600Y-134015600D01*
X400032600Y-130855600D02*
X400032600Y-131035600D01*
X401032600Y-130855600D02*
X400032600Y-130855600D01*
X401032600Y-131035600D02*
X401032600Y-130855600D01*
X402032600Y-133835600D02*
X402032600Y-131035600D01*
X399032600Y-133835600D02*
X399032600Y-131035600D01*
%TO.C,LD17\u002C1*%
X379728600Y-73060100D02*
X380728600Y-73060100D01*
X381728600Y-73060100D02*
X382728600Y-73060100D01*
X382728600Y-75860100D02*
X381728600Y-75860100D01*
X380728600Y-75860100D02*
X379728600Y-75860100D01*
X380728600Y-76040100D02*
X380728600Y-75860100D01*
X381728600Y-76040100D02*
X380728600Y-76040100D01*
X381728600Y-75860100D02*
X381728600Y-76040100D01*
X380728600Y-72880100D02*
X380728600Y-73060100D01*
X381728600Y-72880100D02*
X380728600Y-72880100D01*
X381728600Y-73060100D02*
X381728600Y-72880100D01*
X382728600Y-75860100D02*
X382728600Y-73060100D01*
X379728600Y-75860100D02*
X379728600Y-73060100D01*
%TO.C,LD17\u002C0*%
X379652400Y-47164800D02*
X380652400Y-47164800D01*
X381652400Y-47164800D02*
X382652400Y-47164800D01*
X382652400Y-49964800D02*
X381652400Y-49964800D01*
X380652400Y-49964800D02*
X379652400Y-49964800D01*
X380652400Y-50144800D02*
X380652400Y-49964800D01*
X381652400Y-50144800D02*
X380652400Y-50144800D01*
X381652400Y-49964800D02*
X381652400Y-50144800D01*
X380652400Y-46984800D02*
X380652400Y-47164800D01*
X381652400Y-46984800D02*
X380652400Y-46984800D01*
X381652400Y-47164800D02*
X381652400Y-46984800D01*
X382652400Y-49964800D02*
X382652400Y-47164800D01*
X379652400Y-49964800D02*
X379652400Y-47164800D01*
%TO.C,LD17\u002C7*%
X379601600Y-66075100D02*
X380601600Y-66075100D01*
X381601600Y-66075100D02*
X382601600Y-66075100D01*
X382601600Y-68875100D02*
X381601600Y-68875100D01*
X380601600Y-68875100D02*
X379601600Y-68875100D01*
X380601600Y-69055100D02*
X380601600Y-68875100D01*
X381601600Y-69055100D02*
X380601600Y-69055100D01*
X381601600Y-68875100D02*
X381601600Y-69055100D01*
X380601600Y-65895100D02*
X380601600Y-66075100D01*
X381601600Y-65895100D02*
X380601600Y-65895100D01*
X381601600Y-66075100D02*
X381601600Y-65895100D01*
X382601600Y-68875100D02*
X382601600Y-66075100D01*
X379601600Y-68875100D02*
X379601600Y-66075100D01*
%TO.C,LD16\u002C5*%
X379982600Y-131035600D02*
X380982600Y-131035600D01*
X381982600Y-131035600D02*
X382982600Y-131035600D01*
X382982600Y-133835600D02*
X381982600Y-133835600D01*
X380982600Y-133835600D02*
X379982600Y-133835600D01*
X380982600Y-134015600D02*
X380982600Y-133835600D01*
X381982600Y-134015600D02*
X380982600Y-134015600D01*
X381982600Y-133835600D02*
X381982600Y-134015600D01*
X380982600Y-130855600D02*
X380982600Y-131035600D01*
X381982600Y-130855600D02*
X380982600Y-130855600D01*
X381982600Y-131035600D02*
X381982600Y-130855600D01*
X382982600Y-133835600D02*
X382982600Y-131035600D01*
X379982600Y-133835600D02*
X379982600Y-131035600D01*
%TO.C,LD16\u002C3*%
X355852600Y-92300600D02*
X356852600Y-92300600D01*
X357852600Y-92300600D02*
X358852600Y-92300600D01*
X358852600Y-95100600D02*
X357852600Y-95100600D01*
X356852600Y-95100600D02*
X355852600Y-95100600D01*
X356852600Y-95280600D02*
X356852600Y-95100600D01*
X357852600Y-95280600D02*
X356852600Y-95280600D01*
X357852600Y-95100600D02*
X357852600Y-95280600D01*
X356852600Y-92120600D02*
X356852600Y-92300600D01*
X357852600Y-92120600D02*
X356852600Y-92120600D01*
X357852600Y-92300600D02*
X357852600Y-92120600D01*
X358852600Y-95100600D02*
X358852600Y-92300600D01*
X355852600Y-95100600D02*
X355852600Y-92300600D01*
%TO.C,LD16\u002C1*%
X355930800Y-73085500D02*
X356930800Y-73085500D01*
X357930800Y-73085500D02*
X358930800Y-73085500D01*
X358930800Y-75885500D02*
X357930800Y-75885500D01*
X356930800Y-75885500D02*
X355930800Y-75885500D01*
X356930800Y-76065500D02*
X356930800Y-75885500D01*
X357930800Y-76065500D02*
X356930800Y-76065500D01*
X357930800Y-75885500D02*
X357930800Y-76065500D01*
X356930800Y-72905500D02*
X356930800Y-73085500D01*
X357930800Y-72905500D02*
X356930800Y-72905500D01*
X357930800Y-73085500D02*
X357930800Y-72905500D01*
X358930800Y-75885500D02*
X358930800Y-73085500D01*
X355930800Y-75885500D02*
X355930800Y-73085500D01*
%TO.C,LD16\u002C6*%
X355789100Y-150847600D02*
X356789100Y-150847600D01*
X357789100Y-150847600D02*
X358789100Y-150847600D01*
X358789100Y-153647600D02*
X357789100Y-153647600D01*
X356789100Y-153647600D02*
X355789100Y-153647600D01*
X356789100Y-153827600D02*
X356789100Y-153647600D01*
X357789100Y-153827600D02*
X356789100Y-153827600D01*
X357789100Y-153647600D02*
X357789100Y-153827600D01*
X356789100Y-150667600D02*
X356789100Y-150847600D01*
X357789100Y-150667600D02*
X356789100Y-150667600D01*
X357789100Y-150847600D02*
X357789100Y-150667600D01*
X358789100Y-153647600D02*
X358789100Y-150847600D01*
X355789100Y-153647600D02*
X355789100Y-150847600D01*
%TO.C,LD16\u002C0*%
X356347900Y-47152100D02*
X357347900Y-47152100D01*
X358347900Y-47152100D02*
X359347900Y-47152100D01*
X359347900Y-49952100D02*
X358347900Y-49952100D01*
X357347900Y-49952100D02*
X356347900Y-49952100D01*
X357347900Y-50132100D02*
X357347900Y-49952100D01*
X358347900Y-50132100D02*
X357347900Y-50132100D01*
X358347900Y-49952100D02*
X358347900Y-50132100D01*
X357347900Y-46972100D02*
X357347900Y-47152100D01*
X358347900Y-46972100D02*
X357347900Y-46972100D01*
X358347900Y-47152100D02*
X358347900Y-46972100D01*
X359347900Y-49952100D02*
X359347900Y-47152100D01*
X356347900Y-49952100D02*
X356347900Y-47152100D01*
%TO.C,LD16\u002C4*%
X379728600Y-111731600D02*
X380728600Y-111731600D01*
X381728600Y-111731600D02*
X382728600Y-111731600D01*
X382728600Y-114531600D02*
X381728600Y-114531600D01*
X380728600Y-114531600D02*
X379728600Y-114531600D01*
X380728600Y-114711600D02*
X380728600Y-114531600D01*
X381728600Y-114711600D02*
X380728600Y-114711600D01*
X381728600Y-114531600D02*
X381728600Y-114711600D01*
X380728600Y-111551600D02*
X380728600Y-111731600D01*
X381728600Y-111551600D02*
X380728600Y-111551600D01*
X381728600Y-111731600D02*
X381728600Y-111551600D01*
X382728600Y-114531600D02*
X382728600Y-111731600D01*
X379728600Y-114531600D02*
X379728600Y-111731600D01*
%TO.C,LD15\u002C0*%
X337043900Y-47152100D02*
X338043900Y-47152100D01*
X339043900Y-47152100D02*
X340043900Y-47152100D01*
X340043900Y-49952100D02*
X339043900Y-49952100D01*
X338043900Y-49952100D02*
X337043900Y-49952100D01*
X338043900Y-50132100D02*
X338043900Y-49952100D01*
X339043900Y-50132100D02*
X338043900Y-50132100D01*
X339043900Y-49952100D02*
X339043900Y-50132100D01*
X338043900Y-46972100D02*
X338043900Y-47152100D01*
X339043900Y-46972100D02*
X338043900Y-46972100D01*
X339043900Y-47152100D02*
X339043900Y-46972100D01*
X340043900Y-49952100D02*
X340043900Y-47152100D01*
X337043900Y-49952100D02*
X337043900Y-47152100D01*
%TO.C,LD15\u002C5*%
X336485100Y-131492800D02*
X337485100Y-131492800D01*
X338485100Y-131492800D02*
X339485100Y-131492800D01*
X339485100Y-134292800D02*
X338485100Y-134292800D01*
X337485100Y-134292800D02*
X336485100Y-134292800D01*
X337485100Y-134472800D02*
X337485100Y-134292800D01*
X338485100Y-134472800D02*
X337485100Y-134472800D01*
X338485100Y-134292800D02*
X338485100Y-134472800D01*
X337485100Y-131312800D02*
X337485100Y-131492800D01*
X338485100Y-131312800D02*
X337485100Y-131312800D01*
X338485100Y-131492800D02*
X338485100Y-131312800D01*
X339485100Y-134292800D02*
X339485100Y-131492800D01*
X336485100Y-134292800D02*
X336485100Y-131492800D01*
%TO.C,LD15\u002C6*%
X336485100Y-150847600D02*
X337485100Y-150847600D01*
X338485100Y-150847600D02*
X339485100Y-150847600D01*
X339485100Y-153647600D02*
X338485100Y-153647600D01*
X337485100Y-153647600D02*
X336485100Y-153647600D01*
X337485100Y-153827600D02*
X337485100Y-153647600D01*
X338485100Y-153827600D02*
X337485100Y-153827600D01*
X338485100Y-153647600D02*
X338485100Y-153827600D01*
X337485100Y-150667600D02*
X337485100Y-150847600D01*
X338485100Y-150667600D02*
X337485100Y-150667600D01*
X338485100Y-150847600D02*
X338485100Y-150667600D01*
X339485100Y-153647600D02*
X339485100Y-150847600D01*
X336485100Y-153647600D02*
X336485100Y-150847600D01*
%TO.C,LD15\u002C3*%
X336548600Y-92300600D02*
X337548600Y-92300600D01*
X338548600Y-92300600D02*
X339548600Y-92300600D01*
X339548600Y-95100600D02*
X338548600Y-95100600D01*
X337548600Y-95100600D02*
X336548600Y-95100600D01*
X337548600Y-95280600D02*
X337548600Y-95100600D01*
X338548600Y-95280600D02*
X337548600Y-95280600D01*
X338548600Y-95100600D02*
X338548600Y-95280600D01*
X337548600Y-92120600D02*
X337548600Y-92300600D01*
X338548600Y-92120600D02*
X337548600Y-92120600D01*
X338548600Y-92300600D02*
X338548600Y-92120600D01*
X339548600Y-95100600D02*
X339548600Y-92300600D01*
X336548600Y-95100600D02*
X336548600Y-92300600D01*
%TO.C,LD15\u002C1*%
X336548600Y-73060100D02*
X337548600Y-73060100D01*
X338548600Y-73060100D02*
X339548600Y-73060100D01*
X339548600Y-75860100D02*
X338548600Y-75860100D01*
X337548600Y-75860100D02*
X336548600Y-75860100D01*
X337548600Y-76040100D02*
X337548600Y-75860100D01*
X338548600Y-76040100D02*
X337548600Y-76040100D01*
X338548600Y-75860100D02*
X338548600Y-76040100D01*
X337548600Y-72880100D02*
X337548600Y-73060100D01*
X338548600Y-72880100D02*
X337548600Y-72880100D01*
X338548600Y-73060100D02*
X338548600Y-72880100D01*
X339548600Y-75860100D02*
X339548600Y-73060100D01*
X336548600Y-75860100D02*
X336548600Y-73060100D01*
%TO.C,LD14\u002C1*%
X317244600Y-73060100D02*
X318244600Y-73060100D01*
X319244600Y-73060100D02*
X320244600Y-73060100D01*
X320244600Y-75860100D02*
X319244600Y-75860100D01*
X318244600Y-75860100D02*
X317244600Y-75860100D01*
X318244600Y-76040100D02*
X318244600Y-75860100D01*
X319244600Y-76040100D02*
X318244600Y-76040100D01*
X319244600Y-75860100D02*
X319244600Y-76040100D01*
X318244600Y-72880100D02*
X318244600Y-73060100D01*
X319244600Y-72880100D02*
X318244600Y-72880100D01*
X319244600Y-73060100D02*
X319244600Y-72880100D01*
X320244600Y-75860100D02*
X320244600Y-73060100D01*
X317244600Y-75860100D02*
X317244600Y-73060100D01*
%TO.C,LD14\u002C3*%
X317244600Y-92300600D02*
X318244600Y-92300600D01*
X319244600Y-92300600D02*
X320244600Y-92300600D01*
X320244600Y-95100600D02*
X319244600Y-95100600D01*
X318244600Y-95100600D02*
X317244600Y-95100600D01*
X318244600Y-95280600D02*
X318244600Y-95100600D01*
X319244600Y-95280600D02*
X318244600Y-95280600D01*
X319244600Y-95100600D02*
X319244600Y-95280600D01*
X318244600Y-92120600D02*
X318244600Y-92300600D01*
X319244600Y-92120600D02*
X318244600Y-92120600D01*
X319244600Y-92300600D02*
X319244600Y-92120600D01*
X320244600Y-95100600D02*
X320244600Y-92300600D01*
X317244600Y-95100600D02*
X317244600Y-92300600D01*
%TO.C,LD14\u002C0*%
X317485900Y-47152100D02*
X318485900Y-47152100D01*
X319485900Y-47152100D02*
X320485900Y-47152100D01*
X320485900Y-49952100D02*
X319485900Y-49952100D01*
X318485900Y-49952100D02*
X317485900Y-49952100D01*
X318485900Y-50132100D02*
X318485900Y-49952100D01*
X319485900Y-50132100D02*
X318485900Y-50132100D01*
X319485900Y-49952100D02*
X319485900Y-50132100D01*
X318485900Y-46972100D02*
X318485900Y-47152100D01*
X319485900Y-46972100D02*
X318485900Y-46972100D01*
X319485900Y-47152100D02*
X319485900Y-46972100D01*
X320485900Y-49952100D02*
X320485900Y-47152100D01*
X317485900Y-49952100D02*
X317485900Y-47152100D01*
%TO.C,LD14\u002C6*%
X317181100Y-150847600D02*
X318181100Y-150847600D01*
X319181100Y-150847600D02*
X320181100Y-150847600D01*
X320181100Y-153647600D02*
X319181100Y-153647600D01*
X318181100Y-153647600D02*
X317181100Y-153647600D01*
X318181100Y-153827600D02*
X318181100Y-153647600D01*
X319181100Y-153827600D02*
X318181100Y-153827600D01*
X319181100Y-153647600D02*
X319181100Y-153827600D01*
X318181100Y-150667600D02*
X318181100Y-150847600D01*
X319181100Y-150667600D02*
X318181100Y-150667600D01*
X319181100Y-150847600D02*
X319181100Y-150667600D01*
X320181100Y-153647600D02*
X320181100Y-150847600D01*
X317181100Y-153647600D02*
X317181100Y-150847600D01*
%TO.C,LD13\u002C1*%
X284389700Y-73060100D02*
X285389700Y-73060100D01*
X286389700Y-73060100D02*
X287389700Y-73060100D01*
X287389700Y-75860100D02*
X286389700Y-75860100D01*
X285389700Y-75860100D02*
X284389700Y-75860100D01*
X285389700Y-76040100D02*
X285389700Y-75860100D01*
X286389700Y-76040100D02*
X285389700Y-76040100D01*
X286389700Y-75860100D02*
X286389700Y-76040100D01*
X285389700Y-72880100D02*
X285389700Y-73060100D01*
X286389700Y-72880100D02*
X285389700Y-72880100D01*
X286389700Y-73060100D02*
X286389700Y-72880100D01*
X287389700Y-75860100D02*
X287389700Y-73060100D01*
X284389700Y-75860100D02*
X284389700Y-73060100D01*
%TO.C,LD13\u002C2*%
X289584000Y-92326000D02*
X290584000Y-92326000D01*
X291584000Y-92326000D02*
X292584000Y-92326000D01*
X292584000Y-95126000D02*
X291584000Y-95126000D01*
X290584000Y-95126000D02*
X289584000Y-95126000D01*
X290584000Y-95306000D02*
X290584000Y-95126000D01*
X291584000Y-95306000D02*
X290584000Y-95306000D01*
X291584000Y-95126000D02*
X291584000Y-95306000D01*
X290584000Y-92146000D02*
X290584000Y-92326000D01*
X291584000Y-92146000D02*
X290584000Y-92146000D01*
X291584000Y-92326000D02*
X291584000Y-92146000D01*
X292584000Y-95126000D02*
X292584000Y-92326000D01*
X289584000Y-95126000D02*
X289584000Y-92326000D01*
%TO.C,LD12\u002C0*%
X294915460Y-47152100D02*
X295915460Y-47152100D01*
X296915460Y-47152100D02*
X297915460Y-47152100D01*
X297915460Y-49952100D02*
X296915460Y-49952100D01*
X295915460Y-49952100D02*
X294915460Y-49952100D01*
X295915460Y-50132100D02*
X295915460Y-49952100D01*
X296915460Y-50132100D02*
X295915460Y-50132100D01*
X296915460Y-49952100D02*
X296915460Y-50132100D01*
X295915460Y-46972100D02*
X295915460Y-47152100D01*
X296915460Y-46972100D02*
X295915460Y-46972100D01*
X296915460Y-47152100D02*
X296915460Y-46972100D01*
X297915460Y-49952100D02*
X297915460Y-47152100D01*
X294915460Y-49952100D02*
X294915460Y-47152100D01*
%TO.C,LD12\u002C1*%
X255624200Y-73060100D02*
X256624200Y-73060100D01*
X257624200Y-73060100D02*
X258624200Y-73060100D01*
X258624200Y-75860100D02*
X257624200Y-75860100D01*
X256624200Y-75860100D02*
X255624200Y-75860100D01*
X256624200Y-76040100D02*
X256624200Y-75860100D01*
X257624200Y-76040100D02*
X256624200Y-76040100D01*
X257624200Y-75860100D02*
X257624200Y-76040100D01*
X256624200Y-72880100D02*
X256624200Y-73060100D01*
X257624200Y-72880100D02*
X256624200Y-72880100D01*
X257624200Y-73060100D02*
X257624200Y-72880100D01*
X258624200Y-75860100D02*
X258624200Y-73060100D01*
X255624200Y-75860100D02*
X255624200Y-73060100D01*
%TO.C,LD12\u002C3*%
X282522800Y-111757000D02*
X283522800Y-111757000D01*
X284522800Y-111757000D02*
X285522800Y-111757000D01*
X285522800Y-114557000D02*
X284522800Y-114557000D01*
X283522800Y-114557000D02*
X282522800Y-114557000D01*
X283522800Y-114737000D02*
X283522800Y-114557000D01*
X284522800Y-114737000D02*
X283522800Y-114737000D01*
X284522800Y-114557000D02*
X284522800Y-114737000D01*
X283522800Y-111577000D02*
X283522800Y-111757000D01*
X284522800Y-111577000D02*
X283522800Y-111577000D01*
X284522800Y-111757000D02*
X284522800Y-111577000D01*
X285522800Y-114557000D02*
X285522800Y-111757000D01*
X282522800Y-114557000D02*
X282522800Y-111757000D01*
%TO.C,LD12\u002C2*%
X265657200Y-92300600D02*
X266657200Y-92300600D01*
X267657200Y-92300600D02*
X268657200Y-92300600D01*
X268657200Y-95100600D02*
X267657200Y-95100600D01*
X266657200Y-95100600D02*
X265657200Y-95100600D01*
X266657200Y-95280600D02*
X266657200Y-95100600D01*
X267657200Y-95280600D02*
X266657200Y-95280600D01*
X267657200Y-95100600D02*
X267657200Y-95280600D01*
X266657200Y-92120600D02*
X266657200Y-92300600D01*
X267657200Y-92120600D02*
X266657200Y-92120600D01*
X267657200Y-92300600D02*
X267657200Y-92120600D01*
X268657200Y-95100600D02*
X268657200Y-92300600D01*
X265657200Y-95100600D02*
X265657200Y-92300600D01*
%TO.C,LD11\u002C4*%
X277722200Y-131543600D02*
X278722200Y-131543600D01*
X279722200Y-131543600D02*
X280722200Y-131543600D01*
X280722200Y-134343600D02*
X279722200Y-134343600D01*
X278722200Y-134343600D02*
X277722200Y-134343600D01*
X278722200Y-134523600D02*
X278722200Y-134343600D01*
X279722200Y-134523600D02*
X278722200Y-134523600D01*
X279722200Y-134343600D02*
X279722200Y-134523600D01*
X278722200Y-131363600D02*
X278722200Y-131543600D01*
X279722200Y-131363600D02*
X278722200Y-131363600D01*
X279722200Y-131543600D02*
X279722200Y-131363600D01*
X280722200Y-134343600D02*
X280722200Y-131543600D01*
X277722200Y-134343600D02*
X277722200Y-131543600D01*
%TO.C,LD11\u002C2*%
X246353200Y-92300600D02*
X247353200Y-92300600D01*
X248353200Y-92300600D02*
X249353200Y-92300600D01*
X249353200Y-95100600D02*
X248353200Y-95100600D01*
X247353200Y-95100600D02*
X246353200Y-95100600D01*
X247353200Y-95280600D02*
X247353200Y-95100600D01*
X248353200Y-95280600D02*
X247353200Y-95280600D01*
X248353200Y-95100600D02*
X248353200Y-95280600D01*
X247353200Y-92120600D02*
X247353200Y-92300600D01*
X248353200Y-92120600D02*
X247353200Y-92120600D01*
X248353200Y-92300600D02*
X248353200Y-92120600D01*
X249353200Y-95100600D02*
X249353200Y-92300600D01*
X246353200Y-95100600D02*
X246353200Y-92300600D01*
%TO.C,LD11\u002C5*%
X292073200Y-150974600D02*
X293073200Y-150974600D01*
X294073200Y-150974600D02*
X295073200Y-150974600D01*
X295073200Y-153774600D02*
X294073200Y-153774600D01*
X293073200Y-153774600D02*
X292073200Y-153774600D01*
X293073200Y-153954600D02*
X293073200Y-153774600D01*
X294073200Y-153954600D02*
X293073200Y-153954600D01*
X294073200Y-153774600D02*
X294073200Y-153954600D01*
X293073200Y-150794600D02*
X293073200Y-150974600D01*
X294073200Y-150794600D02*
X293073200Y-150794600D01*
X294073200Y-150974600D02*
X294073200Y-150794600D01*
X295073200Y-153774600D02*
X295073200Y-150974600D01*
X292073200Y-153774600D02*
X292073200Y-150974600D01*
%TO.C,LD11\u002C0*%
X275611460Y-47152100D02*
X276611460Y-47152100D01*
X277611460Y-47152100D02*
X278611460Y-47152100D01*
X278611460Y-49952100D02*
X277611460Y-49952100D01*
X276611460Y-49952100D02*
X275611460Y-49952100D01*
X276611460Y-50132100D02*
X276611460Y-49952100D01*
X277611460Y-50132100D02*
X276611460Y-50132100D01*
X277611460Y-49952100D02*
X277611460Y-50132100D01*
X276611460Y-46972100D02*
X276611460Y-47152100D01*
X277611460Y-46972100D02*
X276611460Y-46972100D01*
X277611460Y-47152100D02*
X277611460Y-46972100D01*
X278611460Y-49952100D02*
X278611460Y-47152100D01*
X275611460Y-49952100D02*
X275611460Y-47152100D01*
%TO.C,LD11\u002C3*%
X251242700Y-111731600D02*
X252242700Y-111731600D01*
X253242700Y-111731600D02*
X254242700Y-111731600D01*
X254242700Y-114531600D02*
X253242700Y-114531600D01*
X252242700Y-114531600D02*
X251242700Y-114531600D01*
X252242700Y-114711600D02*
X252242700Y-114531600D01*
X253242700Y-114711600D02*
X252242700Y-114711600D01*
X253242700Y-114531600D02*
X253242700Y-114711600D01*
X252242700Y-111551600D02*
X252242700Y-111731600D01*
X253242700Y-111551600D02*
X252242700Y-111551600D01*
X253242700Y-111731600D02*
X253242700Y-111551600D01*
X254242700Y-114531600D02*
X254242700Y-111731600D01*
X251242700Y-114531600D02*
X251242700Y-111731600D01*
%TO.C,LD11\u002C1*%
X236320200Y-73060100D02*
X237320200Y-73060100D01*
X238320200Y-73060100D02*
X239320200Y-73060100D01*
X239320200Y-75860100D02*
X238320200Y-75860100D01*
X237320200Y-75860100D02*
X236320200Y-75860100D01*
X237320200Y-76040100D02*
X237320200Y-75860100D01*
X238320200Y-76040100D02*
X237320200Y-76040100D01*
X238320200Y-75860100D02*
X238320200Y-76040100D01*
X237320200Y-72880100D02*
X237320200Y-73060100D01*
X238320200Y-72880100D02*
X237320200Y-72880100D01*
X238320200Y-73060100D02*
X238320200Y-72880100D01*
X239320200Y-75860100D02*
X239320200Y-73060100D01*
X236320200Y-75860100D02*
X236320200Y-73060100D01*
%TO.C,LD10\u002C3*%
X231938700Y-111731600D02*
X232938700Y-111731600D01*
X233938700Y-111731600D02*
X234938700Y-111731600D01*
X234938700Y-114531600D02*
X233938700Y-114531600D01*
X232938700Y-114531600D02*
X231938700Y-114531600D01*
X232938700Y-114711600D02*
X232938700Y-114531600D01*
X233938700Y-114711600D02*
X232938700Y-114711600D01*
X233938700Y-114531600D02*
X233938700Y-114711600D01*
X232938700Y-111551600D02*
X232938700Y-111731600D01*
X233938700Y-111551600D02*
X232938700Y-111551600D01*
X233938700Y-111731600D02*
X233938700Y-111551600D01*
X234938700Y-114531600D02*
X234938700Y-111731600D01*
X231938700Y-114531600D02*
X231938700Y-111731600D01*
%TO.C,LD10\u002C4*%
X241336700Y-131543600D02*
X242336700Y-131543600D01*
X243336700Y-131543600D02*
X244336700Y-131543600D01*
X244336700Y-134343600D02*
X243336700Y-134343600D01*
X242336700Y-134343600D02*
X241336700Y-134343600D01*
X242336700Y-134523600D02*
X242336700Y-134343600D01*
X243336700Y-134523600D02*
X242336700Y-134523600D01*
X243336700Y-134343600D02*
X243336700Y-134523600D01*
X242336700Y-131363600D02*
X242336700Y-131543600D01*
X243336700Y-131363600D02*
X242336700Y-131363600D01*
X243336700Y-131543600D02*
X243336700Y-131363600D01*
X244336700Y-134343600D02*
X244336700Y-131543600D01*
X241336700Y-134343600D02*
X241336700Y-131543600D01*
%TO.C,LD10\u002C2*%
X227049200Y-92300600D02*
X228049200Y-92300600D01*
X229049200Y-92300600D02*
X230049200Y-92300600D01*
X230049200Y-95100600D02*
X229049200Y-95100600D01*
X228049200Y-95100600D02*
X227049200Y-95100600D01*
X228049200Y-95280600D02*
X228049200Y-95100600D01*
X229049200Y-95280600D02*
X228049200Y-95280600D01*
X229049200Y-95100600D02*
X229049200Y-95280600D01*
X228049200Y-92120600D02*
X228049200Y-92300600D01*
X229049200Y-92120600D02*
X228049200Y-92120600D01*
X229049200Y-92300600D02*
X229049200Y-92120600D01*
X230049200Y-95100600D02*
X230049200Y-92300600D01*
X227049200Y-95100600D02*
X227049200Y-92300600D01*
%TO.C,LD10\u002C1*%
X217016200Y-73060100D02*
X218016200Y-73060100D01*
X219016200Y-73060100D02*
X220016200Y-73060100D01*
X220016200Y-75860100D02*
X219016200Y-75860100D01*
X218016200Y-75860100D02*
X217016200Y-75860100D01*
X218016200Y-76040100D02*
X218016200Y-75860100D01*
X219016200Y-76040100D02*
X218016200Y-76040100D01*
X219016200Y-75860100D02*
X219016200Y-76040100D01*
X218016200Y-72880100D02*
X218016200Y-73060100D01*
X219016200Y-72880100D02*
X218016200Y-72880100D01*
X219016200Y-73060100D02*
X219016200Y-72880100D01*
X220016200Y-75860100D02*
X220016200Y-73060100D01*
X217016200Y-75860100D02*
X217016200Y-73060100D01*
%TO.C,LD10\u002C5*%
X268006700Y-150974600D02*
X269006700Y-150974600D01*
X270006700Y-150974600D02*
X271006700Y-150974600D01*
X271006700Y-153774600D02*
X270006700Y-153774600D01*
X269006700Y-153774600D02*
X268006700Y-153774600D01*
X269006700Y-153954600D02*
X269006700Y-153774600D01*
X270006700Y-153954600D02*
X269006700Y-153954600D01*
X270006700Y-153774600D02*
X270006700Y-153954600D01*
X269006700Y-150794600D02*
X269006700Y-150974600D01*
X270006700Y-150794600D02*
X269006700Y-150794600D01*
X270006700Y-150974600D02*
X270006700Y-150794600D01*
X271006700Y-153774600D02*
X271006700Y-150974600D01*
X268006700Y-153774600D02*
X268006700Y-150974600D01*
%TO.C,LD10\u002C0*%
X256307460Y-47152100D02*
X257307460Y-47152100D01*
X258307460Y-47152100D02*
X259307460Y-47152100D01*
X259307460Y-49952100D02*
X258307460Y-49952100D01*
X257307460Y-49952100D02*
X256307460Y-49952100D01*
X257307460Y-50132100D02*
X257307460Y-49952100D01*
X258307460Y-50132100D02*
X257307460Y-50132100D01*
X258307460Y-49952100D02*
X258307460Y-50132100D01*
X257307460Y-46972100D02*
X257307460Y-47152100D01*
X258307460Y-46972100D02*
X257307460Y-46972100D01*
X258307460Y-47152100D02*
X258307460Y-46972100D01*
X259307460Y-49952100D02*
X259307460Y-47152100D01*
X256307460Y-49952100D02*
X256307460Y-47152100D01*
%TO.C,LD9\u002C2*%
X207745200Y-92300600D02*
X208745200Y-92300600D01*
X209745200Y-92300600D02*
X210745200Y-92300600D01*
X210745200Y-95100600D02*
X209745200Y-95100600D01*
X208745200Y-95100600D02*
X207745200Y-95100600D01*
X208745200Y-95280600D02*
X208745200Y-95100600D01*
X209745200Y-95280600D02*
X208745200Y-95280600D01*
X209745200Y-95100600D02*
X209745200Y-95280600D01*
X208745200Y-92120600D02*
X208745200Y-92300600D01*
X209745200Y-92120600D02*
X208745200Y-92120600D01*
X209745200Y-92300600D02*
X209745200Y-92120600D01*
X210745200Y-95100600D02*
X210745200Y-92300600D01*
X207745200Y-95100600D02*
X207745200Y-92300600D01*
%TO.C,LD9\u002C5*%
X243813200Y-150974600D02*
X244813200Y-150974600D01*
X245813200Y-150974600D02*
X246813200Y-150974600D01*
X246813200Y-153774600D02*
X245813200Y-153774600D01*
X244813200Y-153774600D02*
X243813200Y-153774600D01*
X244813200Y-153954600D02*
X244813200Y-153774600D01*
X245813200Y-153954600D02*
X244813200Y-153954600D01*
X245813200Y-153774600D02*
X245813200Y-153954600D01*
X244813200Y-150794600D02*
X244813200Y-150974600D01*
X245813200Y-150794600D02*
X244813200Y-150794600D01*
X245813200Y-150974600D02*
X245813200Y-150794600D01*
X246813200Y-153774600D02*
X246813200Y-150974600D01*
X243813200Y-153774600D02*
X243813200Y-150974600D01*
%TO.C,LD9\u002C3*%
X212634700Y-111731600D02*
X213634700Y-111731600D01*
X214634700Y-111731600D02*
X215634700Y-111731600D01*
X215634700Y-114531600D02*
X214634700Y-114531600D01*
X213634700Y-114531600D02*
X212634700Y-114531600D01*
X213634700Y-114711600D02*
X213634700Y-114531600D01*
X214634700Y-114711600D02*
X213634700Y-114711600D01*
X214634700Y-114531600D02*
X214634700Y-114711600D01*
X213634700Y-111551600D02*
X213634700Y-111731600D01*
X214634700Y-111551600D02*
X213634700Y-111551600D01*
X214634700Y-111731600D02*
X214634700Y-111551600D01*
X215634700Y-114531600D02*
X215634700Y-111731600D01*
X212634700Y-114531600D02*
X212634700Y-111731600D01*
%TO.C,LD9\u002C4*%
X222032700Y-131543600D02*
X223032700Y-131543600D01*
X224032700Y-131543600D02*
X225032700Y-131543600D01*
X225032700Y-134343600D02*
X224032700Y-134343600D01*
X223032700Y-134343600D02*
X222032700Y-134343600D01*
X223032700Y-134523600D02*
X223032700Y-134343600D01*
X224032700Y-134523600D02*
X223032700Y-134523600D01*
X224032700Y-134343600D02*
X224032700Y-134523600D01*
X223032700Y-131363600D02*
X223032700Y-131543600D01*
X224032700Y-131363600D02*
X223032700Y-131363600D01*
X224032700Y-131543600D02*
X224032700Y-131363600D01*
X225032700Y-134343600D02*
X225032700Y-131543600D01*
X222032700Y-134343600D02*
X222032700Y-131543600D01*
%TO.C,LD9\u002C1*%
X197712200Y-73060100D02*
X198712200Y-73060100D01*
X199712200Y-73060100D02*
X200712200Y-73060100D01*
X200712200Y-75860100D02*
X199712200Y-75860100D01*
X198712200Y-75860100D02*
X197712200Y-75860100D01*
X198712200Y-76040100D02*
X198712200Y-75860100D01*
X199712200Y-76040100D02*
X198712200Y-76040100D01*
X199712200Y-75860100D02*
X199712200Y-76040100D01*
X198712200Y-72880100D02*
X198712200Y-73060100D01*
X199712200Y-72880100D02*
X198712200Y-72880100D01*
X199712200Y-73060100D02*
X199712200Y-72880100D01*
X200712200Y-75860100D02*
X200712200Y-73060100D01*
X197712200Y-75860100D02*
X197712200Y-73060100D01*
%TO.C,LD9\u002C0*%
X237003460Y-47152100D02*
X238003460Y-47152100D01*
X239003460Y-47152100D02*
X240003460Y-47152100D01*
X240003460Y-49952100D02*
X239003460Y-49952100D01*
X238003460Y-49952100D02*
X237003460Y-49952100D01*
X238003460Y-50132100D02*
X238003460Y-49952100D01*
X239003460Y-50132100D02*
X238003460Y-50132100D01*
X239003460Y-49952100D02*
X239003460Y-50132100D01*
X238003460Y-46972100D02*
X238003460Y-47152100D01*
X239003460Y-46972100D02*
X238003460Y-46972100D01*
X239003460Y-47152100D02*
X239003460Y-46972100D01*
X240003460Y-49952100D02*
X240003460Y-47152100D01*
X237003460Y-49952100D02*
X237003460Y-47152100D01*
%TO.C,LD8\u002C5*%
X219683200Y-150974600D02*
X220683200Y-150974600D01*
X221683200Y-150974600D02*
X222683200Y-150974600D01*
X222683200Y-153774600D02*
X221683200Y-153774600D01*
X220683200Y-153774600D02*
X219683200Y-153774600D01*
X220683200Y-153954600D02*
X220683200Y-153774600D01*
X221683200Y-153954600D02*
X220683200Y-153954600D01*
X221683200Y-153774600D02*
X221683200Y-153954600D01*
X220683200Y-150794600D02*
X220683200Y-150974600D01*
X221683200Y-150794600D02*
X220683200Y-150794600D01*
X221683200Y-150974600D02*
X221683200Y-150794600D01*
X222683200Y-153774600D02*
X222683200Y-150974600D01*
X219683200Y-153774600D02*
X219683200Y-150974600D01*
%TO.C,LD8\u002C1*%
X178408200Y-73060100D02*
X179408200Y-73060100D01*
X180408200Y-73060100D02*
X181408200Y-73060100D01*
X181408200Y-75860100D02*
X180408200Y-75860100D01*
X179408200Y-75860100D02*
X178408200Y-75860100D01*
X179408200Y-76040100D02*
X179408200Y-75860100D01*
X180408200Y-76040100D02*
X179408200Y-76040100D01*
X180408200Y-75860100D02*
X180408200Y-76040100D01*
X179408200Y-72880100D02*
X179408200Y-73060100D01*
X180408200Y-72880100D02*
X179408200Y-72880100D01*
X180408200Y-73060100D02*
X180408200Y-72880100D01*
X181408200Y-75860100D02*
X181408200Y-73060100D01*
X178408200Y-75860100D02*
X178408200Y-73060100D01*
%TO.C,LD8\u002C2*%
X188441200Y-92300600D02*
X189441200Y-92300600D01*
X190441200Y-92300600D02*
X191441200Y-92300600D01*
X191441200Y-95100600D02*
X190441200Y-95100600D01*
X189441200Y-95100600D02*
X188441200Y-95100600D01*
X189441200Y-95280600D02*
X189441200Y-95100600D01*
X190441200Y-95280600D02*
X189441200Y-95280600D01*
X190441200Y-95100600D02*
X190441200Y-95280600D01*
X189441200Y-92120600D02*
X189441200Y-92300600D01*
X190441200Y-92120600D02*
X189441200Y-92120600D01*
X190441200Y-92300600D02*
X190441200Y-92120600D01*
X191441200Y-95100600D02*
X191441200Y-92300600D01*
X188441200Y-95100600D02*
X188441200Y-92300600D01*
%TO.C,LD8\u002C0*%
X210587460Y-47152100D02*
X211587460Y-47152100D01*
X212587460Y-47152100D02*
X213587460Y-47152100D01*
X213587460Y-49952100D02*
X212587460Y-49952100D01*
X211587460Y-49952100D02*
X210587460Y-49952100D01*
X211587460Y-50132100D02*
X211587460Y-49952100D01*
X212587460Y-50132100D02*
X211587460Y-50132100D01*
X212587460Y-49952100D02*
X212587460Y-50132100D01*
X211587460Y-46972100D02*
X211587460Y-47152100D01*
X212587460Y-46972100D02*
X211587460Y-46972100D01*
X212587460Y-47152100D02*
X212587460Y-46972100D01*
X213587460Y-49952100D02*
X213587460Y-47152100D01*
X210587460Y-49952100D02*
X210587460Y-47152100D01*
%TO.C,LD8\u002C4*%
X202728700Y-131543600D02*
X203728700Y-131543600D01*
X204728700Y-131543600D02*
X205728700Y-131543600D01*
X205728700Y-134343600D02*
X204728700Y-134343600D01*
X203728700Y-134343600D02*
X202728700Y-134343600D01*
X203728700Y-134523600D02*
X203728700Y-134343600D01*
X204728700Y-134523600D02*
X203728700Y-134523600D01*
X204728700Y-134343600D02*
X204728700Y-134523600D01*
X203728700Y-131363600D02*
X203728700Y-131543600D01*
X204728700Y-131363600D02*
X203728700Y-131363600D01*
X204728700Y-131543600D02*
X204728700Y-131363600D01*
X205728700Y-134343600D02*
X205728700Y-131543600D01*
X202728700Y-134343600D02*
X202728700Y-131543600D01*
%TO.C,LD8\u002C3*%
X193330700Y-111731600D02*
X194330700Y-111731600D01*
X195330700Y-111731600D02*
X196330700Y-111731600D01*
X196330700Y-114531600D02*
X195330700Y-114531600D01*
X194330700Y-114531600D02*
X193330700Y-114531600D01*
X194330700Y-114711600D02*
X194330700Y-114531600D01*
X195330700Y-114711600D02*
X194330700Y-114711600D01*
X195330700Y-114531600D02*
X195330700Y-114711600D01*
X194330700Y-111551600D02*
X194330700Y-111731600D01*
X195330700Y-111551600D02*
X194330700Y-111551600D01*
X195330700Y-111731600D02*
X195330700Y-111551600D01*
X196330700Y-114531600D02*
X196330700Y-111731600D01*
X193330700Y-114531600D02*
X193330700Y-111731600D01*
%TO.C,LD7\u002C2*%
X169137200Y-92300600D02*
X170137200Y-92300600D01*
X171137200Y-92300600D02*
X172137200Y-92300600D01*
X172137200Y-95100600D02*
X171137200Y-95100600D01*
X170137200Y-95100600D02*
X169137200Y-95100600D01*
X170137200Y-95280600D02*
X170137200Y-95100600D01*
X171137200Y-95280600D02*
X170137200Y-95280600D01*
X171137200Y-95100600D02*
X171137200Y-95280600D01*
X170137200Y-92120600D02*
X170137200Y-92300600D01*
X171137200Y-92120600D02*
X170137200Y-92120600D01*
X171137200Y-92300600D02*
X171137200Y-92120600D01*
X172137200Y-95100600D02*
X172137200Y-92300600D01*
X169137200Y-95100600D02*
X169137200Y-92300600D01*
%TO.C,LD7\u002C1*%
X159104200Y-73060100D02*
X160104200Y-73060100D01*
X161104200Y-73060100D02*
X162104200Y-73060100D01*
X162104200Y-75860100D02*
X161104200Y-75860100D01*
X160104200Y-75860100D02*
X159104200Y-75860100D01*
X160104200Y-76040100D02*
X160104200Y-75860100D01*
X161104200Y-76040100D02*
X160104200Y-76040100D01*
X161104200Y-75860100D02*
X161104200Y-76040100D01*
X160104200Y-72880100D02*
X160104200Y-73060100D01*
X161104200Y-72880100D02*
X160104200Y-72880100D01*
X161104200Y-73060100D02*
X161104200Y-72880100D01*
X162104200Y-75860100D02*
X162104200Y-73060100D01*
X159104200Y-75860100D02*
X159104200Y-73060100D01*
%TO.C,LD7\u002C3*%
X174026700Y-111731600D02*
X175026700Y-111731600D01*
X176026700Y-111731600D02*
X177026700Y-111731600D01*
X177026700Y-114531600D02*
X176026700Y-114531600D01*
X175026700Y-114531600D02*
X174026700Y-114531600D01*
X175026700Y-114711600D02*
X175026700Y-114531600D01*
X176026700Y-114711600D02*
X175026700Y-114711600D01*
X176026700Y-114531600D02*
X176026700Y-114711600D01*
X175026700Y-111551600D02*
X175026700Y-111731600D01*
X176026700Y-111551600D02*
X175026700Y-111551600D01*
X176026700Y-111731600D02*
X176026700Y-111551600D01*
X177026700Y-114531600D02*
X177026700Y-111731600D01*
X174026700Y-114531600D02*
X174026700Y-111731600D01*
%TO.C,LD7\u002C4*%
X183424700Y-131543600D02*
X184424700Y-131543600D01*
X185424700Y-131543600D02*
X186424700Y-131543600D01*
X186424700Y-134343600D02*
X185424700Y-134343600D01*
X184424700Y-134343600D02*
X183424700Y-134343600D01*
X184424700Y-134523600D02*
X184424700Y-134343600D01*
X185424700Y-134523600D02*
X184424700Y-134523600D01*
X185424700Y-134343600D02*
X185424700Y-134523600D01*
X184424700Y-131363600D02*
X184424700Y-131543600D01*
X185424700Y-131363600D02*
X184424700Y-131363600D01*
X185424700Y-131543600D02*
X185424700Y-131363600D01*
X186424700Y-134343600D02*
X186424700Y-131543600D01*
X183424700Y-134343600D02*
X183424700Y-131543600D01*
%TO.C,LD7\u002C0*%
X191283460Y-47152100D02*
X192283460Y-47152100D01*
X193283460Y-47152100D02*
X194283460Y-47152100D01*
X194283460Y-49952100D02*
X193283460Y-49952100D01*
X192283460Y-49952100D02*
X191283460Y-49952100D01*
X192283460Y-50132100D02*
X192283460Y-49952100D01*
X193283460Y-50132100D02*
X192283460Y-50132100D01*
X193283460Y-49952100D02*
X193283460Y-50132100D01*
X192283460Y-46972100D02*
X192283460Y-47152100D01*
X193283460Y-46972100D02*
X192283460Y-46972100D01*
X193283460Y-47152100D02*
X193283460Y-46972100D01*
X194283460Y-49952100D02*
X194283460Y-47152100D01*
X191283460Y-49952100D02*
X191283460Y-47152100D01*
%TO.C,LD6\u002C1*%
X139800200Y-73060100D02*
X140800200Y-73060100D01*
X141800200Y-73060100D02*
X142800200Y-73060100D01*
X142800200Y-75860100D02*
X141800200Y-75860100D01*
X140800200Y-75860100D02*
X139800200Y-75860100D01*
X140800200Y-76040100D02*
X140800200Y-75860100D01*
X141800200Y-76040100D02*
X140800200Y-76040100D01*
X141800200Y-75860100D02*
X141800200Y-76040100D01*
X140800200Y-72880100D02*
X140800200Y-73060100D01*
X141800200Y-72880100D02*
X140800200Y-72880100D01*
X141800200Y-73060100D02*
X141800200Y-72880100D01*
X142800200Y-75860100D02*
X142800200Y-73060100D01*
X139800200Y-75860100D02*
X139800200Y-73060100D01*
%TO.C,LD6\u002C3*%
X154722700Y-111731600D02*
X155722700Y-111731600D01*
X156722700Y-111731600D02*
X157722700Y-111731600D01*
X157722700Y-114531600D02*
X156722700Y-114531600D01*
X155722700Y-114531600D02*
X154722700Y-114531600D01*
X155722700Y-114711600D02*
X155722700Y-114531600D01*
X156722700Y-114711600D02*
X155722700Y-114711600D01*
X156722700Y-114531600D02*
X156722700Y-114711600D01*
X155722700Y-111551600D02*
X155722700Y-111731600D01*
X156722700Y-111551600D02*
X155722700Y-111551600D01*
X156722700Y-111731600D02*
X156722700Y-111551600D01*
X157722700Y-114531600D02*
X157722700Y-111731600D01*
X154722700Y-114531600D02*
X154722700Y-111731600D01*
%TO.C,LD6\u002C4*%
X164120700Y-131543600D02*
X165120700Y-131543600D01*
X166120700Y-131543600D02*
X167120700Y-131543600D01*
X167120700Y-134343600D02*
X166120700Y-134343600D01*
X165120700Y-134343600D02*
X164120700Y-134343600D01*
X165120700Y-134523600D02*
X165120700Y-134343600D01*
X166120700Y-134523600D02*
X165120700Y-134523600D01*
X166120700Y-134343600D02*
X166120700Y-134523600D01*
X165120700Y-131363600D02*
X165120700Y-131543600D01*
X166120700Y-131363600D02*
X165120700Y-131363600D01*
X166120700Y-131543600D02*
X166120700Y-131363600D01*
X167120700Y-134343600D02*
X167120700Y-131543600D01*
X164120700Y-134343600D02*
X164120700Y-131543600D01*
%TO.C,LD6\u002C0*%
X171979460Y-47152100D02*
X172979460Y-47152100D01*
X173979460Y-47152100D02*
X174979460Y-47152100D01*
X174979460Y-49952100D02*
X173979460Y-49952100D01*
X172979460Y-49952100D02*
X171979460Y-49952100D01*
X172979460Y-50132100D02*
X172979460Y-49952100D01*
X173979460Y-50132100D02*
X172979460Y-50132100D01*
X173979460Y-49952100D02*
X173979460Y-50132100D01*
X172979460Y-46972100D02*
X172979460Y-47152100D01*
X173979460Y-46972100D02*
X172979460Y-46972100D01*
X173979460Y-47152100D02*
X173979460Y-46972100D01*
X174979460Y-49952100D02*
X174979460Y-47152100D01*
X171979460Y-49952100D02*
X171979460Y-47152100D01*
%TO.C,LD6\u002C2*%
X149833200Y-92300600D02*
X150833200Y-92300600D01*
X151833200Y-92300600D02*
X152833200Y-92300600D01*
X152833200Y-95100600D02*
X151833200Y-95100600D01*
X150833200Y-95100600D02*
X149833200Y-95100600D01*
X150833200Y-95280600D02*
X150833200Y-95100600D01*
X151833200Y-95280600D02*
X150833200Y-95280600D01*
X151833200Y-95100600D02*
X151833200Y-95280600D01*
X150833200Y-92120600D02*
X150833200Y-92300600D01*
X151833200Y-92120600D02*
X150833200Y-92120600D01*
X151833200Y-92300600D02*
X151833200Y-92120600D01*
X152833200Y-95100600D02*
X152833200Y-92300600D01*
X149833200Y-95100600D02*
X149833200Y-92300600D01*
%TO.C,LD5\u002C1*%
X120496200Y-73060100D02*
X121496200Y-73060100D01*
X122496200Y-73060100D02*
X123496200Y-73060100D01*
X123496200Y-75860100D02*
X122496200Y-75860100D01*
X121496200Y-75860100D02*
X120496200Y-75860100D01*
X121496200Y-76040100D02*
X121496200Y-75860100D01*
X122496200Y-76040100D02*
X121496200Y-76040100D01*
X122496200Y-75860100D02*
X122496200Y-76040100D01*
X121496200Y-72880100D02*
X121496200Y-73060100D01*
X122496200Y-72880100D02*
X121496200Y-72880100D01*
X122496200Y-73060100D02*
X122496200Y-72880100D01*
X123496200Y-75860100D02*
X123496200Y-73060100D01*
X120496200Y-75860100D02*
X120496200Y-73060100D01*
%TO.C,LD5\u002C2*%
X130529200Y-92300600D02*
X131529200Y-92300600D01*
X132529200Y-92300600D02*
X133529200Y-92300600D01*
X133529200Y-95100600D02*
X132529200Y-95100600D01*
X131529200Y-95100600D02*
X130529200Y-95100600D01*
X131529200Y-95280600D02*
X131529200Y-95100600D01*
X132529200Y-95280600D02*
X131529200Y-95280600D01*
X132529200Y-95100600D02*
X132529200Y-95280600D01*
X131529200Y-92120600D02*
X131529200Y-92300600D01*
X132529200Y-92120600D02*
X131529200Y-92120600D01*
X132529200Y-92300600D02*
X132529200Y-92120600D01*
X133529200Y-95100600D02*
X133529200Y-92300600D01*
X130529200Y-95100600D02*
X130529200Y-92300600D01*
%TO.C,LD5\u002C4*%
X144816700Y-131543600D02*
X145816700Y-131543600D01*
X146816700Y-131543600D02*
X147816700Y-131543600D01*
X147816700Y-134343600D02*
X146816700Y-134343600D01*
X145816700Y-134343600D02*
X144816700Y-134343600D01*
X145816700Y-134523600D02*
X145816700Y-134343600D01*
X146816700Y-134523600D02*
X145816700Y-134523600D01*
X146816700Y-134343600D02*
X146816700Y-134523600D01*
X145816700Y-131363600D02*
X145816700Y-131543600D01*
X146816700Y-131363600D02*
X145816700Y-131363600D01*
X146816700Y-131543600D02*
X146816700Y-131363600D01*
X147816700Y-134343600D02*
X147816700Y-131543600D01*
X144816700Y-134343600D02*
X144816700Y-131543600D01*
%TO.C,LD5\u002C0*%
X152675460Y-47152100D02*
X153675460Y-47152100D01*
X154675460Y-47152100D02*
X155675460Y-47152100D01*
X155675460Y-49952100D02*
X154675460Y-49952100D01*
X153675460Y-49952100D02*
X152675460Y-49952100D01*
X153675460Y-50132100D02*
X153675460Y-49952100D01*
X154675460Y-50132100D02*
X153675460Y-50132100D01*
X154675460Y-49952100D02*
X154675460Y-50132100D01*
X153675460Y-46972100D02*
X153675460Y-47152100D01*
X154675460Y-46972100D02*
X153675460Y-46972100D01*
X154675460Y-47152100D02*
X154675460Y-46972100D01*
X155675460Y-49952100D02*
X155675460Y-47152100D01*
X152675460Y-49952100D02*
X152675460Y-47152100D01*
%TO.C,LD5\u002C3*%
X135418700Y-111731600D02*
X136418700Y-111731600D01*
X137418700Y-111731600D02*
X138418700Y-111731600D01*
X138418700Y-114531600D02*
X137418700Y-114531600D01*
X136418700Y-114531600D02*
X135418700Y-114531600D01*
X136418700Y-114711600D02*
X136418700Y-114531600D01*
X137418700Y-114711600D02*
X136418700Y-114711600D01*
X137418700Y-114531600D02*
X137418700Y-114711600D01*
X136418700Y-111551600D02*
X136418700Y-111731600D01*
X137418700Y-111551600D02*
X136418700Y-111551600D01*
X137418700Y-111731600D02*
X137418700Y-111551600D01*
X138418700Y-114531600D02*
X138418700Y-111731600D01*
X135418700Y-114531600D02*
X135418700Y-111731600D01*
%TO.C,LD4\u002C3*%
X116114700Y-111731600D02*
X117114700Y-111731600D01*
X118114700Y-111731600D02*
X119114700Y-111731600D01*
X119114700Y-114531600D02*
X118114700Y-114531600D01*
X117114700Y-114531600D02*
X116114700Y-114531600D01*
X117114700Y-114711600D02*
X117114700Y-114531600D01*
X118114700Y-114711600D02*
X117114700Y-114711600D01*
X118114700Y-114531600D02*
X118114700Y-114711600D01*
X117114700Y-111551600D02*
X117114700Y-111731600D01*
X118114700Y-111551600D02*
X117114700Y-111551600D01*
X118114700Y-111731600D02*
X118114700Y-111551600D01*
X119114700Y-114531600D02*
X119114700Y-111731600D01*
X116114700Y-114531600D02*
X116114700Y-111731600D01*
%TO.C,LD4\u002C4*%
X125512700Y-131543600D02*
X126512700Y-131543600D01*
X127512700Y-131543600D02*
X128512700Y-131543600D01*
X128512700Y-134343600D02*
X127512700Y-134343600D01*
X126512700Y-134343600D02*
X125512700Y-134343600D01*
X126512700Y-134523600D02*
X126512700Y-134343600D01*
X127512700Y-134523600D02*
X126512700Y-134523600D01*
X127512700Y-134343600D02*
X127512700Y-134523600D01*
X126512700Y-131363600D02*
X126512700Y-131543600D01*
X127512700Y-131363600D02*
X126512700Y-131363600D01*
X127512700Y-131543600D02*
X127512700Y-131363600D01*
X128512700Y-134343600D02*
X128512700Y-131543600D01*
X125512700Y-134343600D02*
X125512700Y-131543600D01*
%TO.C,LD4\u002C0*%
X121179460Y-47152100D02*
X122179460Y-47152100D01*
X123179460Y-47152100D02*
X124179460Y-47152100D01*
X124179460Y-49952100D02*
X123179460Y-49952100D01*
X122179460Y-49952100D02*
X121179460Y-49952100D01*
X122179460Y-50132100D02*
X122179460Y-49952100D01*
X123179460Y-50132100D02*
X122179460Y-50132100D01*
X123179460Y-49952100D02*
X123179460Y-50132100D01*
X122179460Y-46972100D02*
X122179460Y-47152100D01*
X123179460Y-46972100D02*
X122179460Y-46972100D01*
X123179460Y-47152100D02*
X123179460Y-46972100D01*
X124179460Y-49952100D02*
X124179460Y-47152100D01*
X121179460Y-49952100D02*
X121179460Y-47152100D01*
%TO.C,LD4\u002C2*%
X111225200Y-92300600D02*
X112225200Y-92300600D01*
X113225200Y-92300600D02*
X114225200Y-92300600D01*
X114225200Y-95100600D02*
X113225200Y-95100600D01*
X112225200Y-95100600D02*
X111225200Y-95100600D01*
X112225200Y-95280600D02*
X112225200Y-95100600D01*
X113225200Y-95280600D02*
X112225200Y-95280600D01*
X113225200Y-95100600D02*
X113225200Y-95280600D01*
X112225200Y-92120600D02*
X112225200Y-92300600D01*
X113225200Y-92120600D02*
X112225200Y-92120600D01*
X113225200Y-92300600D02*
X113225200Y-92120600D01*
X114225200Y-95100600D02*
X114225200Y-92300600D01*
X111225200Y-95100600D02*
X111225200Y-92300600D01*
%TO.C,LD4\u002C1*%
X101192200Y-73060100D02*
X102192200Y-73060100D01*
X103192200Y-73060100D02*
X104192200Y-73060100D01*
X104192200Y-75860100D02*
X103192200Y-75860100D01*
X102192200Y-75860100D02*
X101192200Y-75860100D01*
X102192200Y-76040100D02*
X102192200Y-75860100D01*
X103192200Y-76040100D02*
X102192200Y-76040100D01*
X103192200Y-75860100D02*
X103192200Y-76040100D01*
X102192200Y-72880100D02*
X102192200Y-73060100D01*
X103192200Y-72880100D02*
X102192200Y-72880100D01*
X103192200Y-73060100D02*
X103192200Y-72880100D01*
X104192200Y-75860100D02*
X104192200Y-73060100D01*
X101192200Y-75860100D02*
X101192200Y-73060100D01*
%TO.C,LD3\u002C0*%
X101875460Y-47152100D02*
X102875460Y-47152100D01*
X103875460Y-47152100D02*
X104875460Y-47152100D01*
X104875460Y-49952100D02*
X103875460Y-49952100D01*
X102875460Y-49952100D02*
X101875460Y-49952100D01*
X102875460Y-50132100D02*
X102875460Y-49952100D01*
X103875460Y-50132100D02*
X102875460Y-50132100D01*
X103875460Y-49952100D02*
X103875460Y-50132100D01*
X102875460Y-46972100D02*
X102875460Y-47152100D01*
X103875460Y-46972100D02*
X102875460Y-46972100D01*
X103875460Y-47152100D02*
X103875460Y-46972100D01*
X104875460Y-49952100D02*
X104875460Y-47152100D01*
X101875460Y-49952100D02*
X101875460Y-47152100D01*
%TO.C,LD3\u002C1*%
X81888200Y-73060100D02*
X82888200Y-73060100D01*
X83888200Y-73060100D02*
X84888200Y-73060100D01*
X84888200Y-75860100D02*
X83888200Y-75860100D01*
X82888200Y-75860100D02*
X81888200Y-75860100D01*
X82888200Y-76040100D02*
X82888200Y-75860100D01*
X83888200Y-76040100D02*
X82888200Y-76040100D01*
X83888200Y-75860100D02*
X83888200Y-76040100D01*
X82888200Y-72880100D02*
X82888200Y-73060100D01*
X83888200Y-72880100D02*
X82888200Y-72880100D01*
X83888200Y-73060100D02*
X83888200Y-72880100D01*
X84888200Y-75860100D02*
X84888200Y-73060100D01*
X81888200Y-75860100D02*
X81888200Y-73060100D01*
%TO.C,LD3\u002C2*%
X91921200Y-92300600D02*
X92921200Y-92300600D01*
X93921200Y-92300600D02*
X94921200Y-92300600D01*
X94921200Y-95100600D02*
X93921200Y-95100600D01*
X92921200Y-95100600D02*
X91921200Y-95100600D01*
X92921200Y-95280600D02*
X92921200Y-95100600D01*
X93921200Y-95280600D02*
X92921200Y-95280600D01*
X93921200Y-95100600D02*
X93921200Y-95280600D01*
X92921200Y-92120600D02*
X92921200Y-92300600D01*
X93921200Y-92120600D02*
X92921200Y-92120600D01*
X93921200Y-92300600D02*
X93921200Y-92120600D01*
X94921200Y-95100600D02*
X94921200Y-92300600D01*
X91921200Y-95100600D02*
X91921200Y-92300600D01*
%TO.C,LD3\u002C4*%
X106208700Y-131543600D02*
X107208700Y-131543600D01*
X108208700Y-131543600D02*
X109208700Y-131543600D01*
X109208700Y-134343600D02*
X108208700Y-134343600D01*
X107208700Y-134343600D02*
X106208700Y-134343600D01*
X107208700Y-134523600D02*
X107208700Y-134343600D01*
X108208700Y-134523600D02*
X107208700Y-134523600D01*
X108208700Y-134343600D02*
X108208700Y-134523600D01*
X107208700Y-131363600D02*
X107208700Y-131543600D01*
X108208700Y-131363600D02*
X107208700Y-131363600D01*
X108208700Y-131543600D02*
X108208700Y-131363600D01*
X109208700Y-134343600D02*
X109208700Y-131543600D01*
X106208700Y-134343600D02*
X106208700Y-131543600D01*
%TO.C,LD3\u002C5*%
X147928200Y-150974600D02*
X148928200Y-150974600D01*
X149928200Y-150974600D02*
X150928200Y-150974600D01*
X150928200Y-153774600D02*
X149928200Y-153774600D01*
X148928200Y-153774600D02*
X147928200Y-153774600D01*
X148928200Y-153954600D02*
X148928200Y-153774600D01*
X149928200Y-153954600D02*
X148928200Y-153954600D01*
X149928200Y-153774600D02*
X149928200Y-153954600D01*
X148928200Y-150794600D02*
X148928200Y-150974600D01*
X149928200Y-150794600D02*
X148928200Y-150794600D01*
X149928200Y-150974600D02*
X149928200Y-150794600D01*
X150928200Y-153774600D02*
X150928200Y-150974600D01*
X147928200Y-153774600D02*
X147928200Y-150974600D01*
%TO.C,LD3\u002C3*%
X96810700Y-111731600D02*
X97810700Y-111731600D01*
X98810700Y-111731600D02*
X99810700Y-111731600D01*
X99810700Y-114531600D02*
X98810700Y-114531600D01*
X97810700Y-114531600D02*
X96810700Y-114531600D01*
X97810700Y-114711600D02*
X97810700Y-114531600D01*
X98810700Y-114711600D02*
X97810700Y-114711600D01*
X98810700Y-114531600D02*
X98810700Y-114711600D01*
X97810700Y-111551600D02*
X97810700Y-111731600D01*
X98810700Y-111551600D02*
X97810700Y-111551600D01*
X98810700Y-111731600D02*
X98810700Y-111551600D01*
X99810700Y-114531600D02*
X99810700Y-111731600D01*
X96810700Y-114531600D02*
X96810700Y-111731600D01*
%TO.C,LD2\u002C3*%
X77506700Y-111731600D02*
X78506700Y-111731600D01*
X79506700Y-111731600D02*
X80506700Y-111731600D01*
X80506700Y-114531600D02*
X79506700Y-114531600D01*
X78506700Y-114531600D02*
X77506700Y-114531600D01*
X78506700Y-114711600D02*
X78506700Y-114531600D01*
X79506700Y-114711600D02*
X78506700Y-114711600D01*
X79506700Y-114531600D02*
X79506700Y-114711600D01*
X78506700Y-111551600D02*
X78506700Y-111731600D01*
X79506700Y-111551600D02*
X78506700Y-111551600D01*
X79506700Y-111731600D02*
X79506700Y-111551600D01*
X80506700Y-114531600D02*
X80506700Y-111731600D01*
X77506700Y-114531600D02*
X77506700Y-111731600D01*
%TO.C,LD2\u002C5*%
X76046200Y-150974600D02*
X77046200Y-150974600D01*
X78046200Y-150974600D02*
X79046200Y-150974600D01*
X79046200Y-153774600D02*
X78046200Y-153774600D01*
X77046200Y-153774600D02*
X76046200Y-153774600D01*
X77046200Y-153954600D02*
X77046200Y-153774600D01*
X78046200Y-153954600D02*
X77046200Y-153954600D01*
X78046200Y-153774600D02*
X78046200Y-153954600D01*
X77046200Y-150794600D02*
X77046200Y-150974600D01*
X78046200Y-150794600D02*
X77046200Y-150794600D01*
X78046200Y-150974600D02*
X78046200Y-150794600D01*
X79046200Y-153774600D02*
X79046200Y-150974600D01*
X76046200Y-153774600D02*
X76046200Y-150974600D01*
%TO.C,LD2\u002C4*%
X86764700Y-131543600D02*
X87764700Y-131543600D01*
X88764700Y-131543600D02*
X89764700Y-131543600D01*
X89764700Y-134343600D02*
X88764700Y-134343600D01*
X87764700Y-134343600D02*
X86764700Y-134343600D01*
X87764700Y-134523600D02*
X87764700Y-134343600D01*
X88764700Y-134523600D02*
X87764700Y-134523600D01*
X88764700Y-134343600D02*
X88764700Y-134523600D01*
X87764700Y-131363600D02*
X87764700Y-131543600D01*
X88764700Y-131363600D02*
X87764700Y-131363600D01*
X88764700Y-131543600D02*
X88764700Y-131363600D01*
X89764700Y-134343600D02*
X89764700Y-131543600D01*
X86764700Y-134343600D02*
X86764700Y-131543600D01*
%TO.C,LD2\u002C0*%
X82571460Y-47152100D02*
X83571460Y-47152100D01*
X84571460Y-47152100D02*
X85571460Y-47152100D01*
X85571460Y-49952100D02*
X84571460Y-49952100D01*
X83571460Y-49952100D02*
X82571460Y-49952100D01*
X83571460Y-50132100D02*
X83571460Y-49952100D01*
X84571460Y-50132100D02*
X83571460Y-50132100D01*
X84571460Y-49952100D02*
X84571460Y-50132100D01*
X83571460Y-46972100D02*
X83571460Y-47152100D01*
X84571460Y-46972100D02*
X83571460Y-46972100D01*
X84571460Y-47152100D02*
X84571460Y-46972100D01*
X85571460Y-49952100D02*
X85571460Y-47152100D01*
X82571460Y-49952100D02*
X82571460Y-47152100D01*
%TO.C,LD2\u002C1*%
X63092200Y-73060100D02*
X64092200Y-73060100D01*
X65092200Y-73060100D02*
X66092200Y-73060100D01*
X66092200Y-75860100D02*
X65092200Y-75860100D01*
X64092200Y-75860100D02*
X63092200Y-75860100D01*
X64092200Y-76040100D02*
X64092200Y-75860100D01*
X65092200Y-76040100D02*
X64092200Y-76040100D01*
X65092200Y-75860100D02*
X65092200Y-76040100D01*
X64092200Y-72880100D02*
X64092200Y-73060100D01*
X65092200Y-72880100D02*
X64092200Y-72880100D01*
X65092200Y-73060100D02*
X65092200Y-72880100D01*
X66092200Y-75860100D02*
X66092200Y-73060100D01*
X63092200Y-75860100D02*
X63092200Y-73060100D01*
%TO.C,LD2\u002C2*%
X72617200Y-92300600D02*
X73617200Y-92300600D01*
X74617200Y-92300600D02*
X75617200Y-92300600D01*
X75617200Y-95100600D02*
X74617200Y-95100600D01*
X73617200Y-95100600D02*
X72617200Y-95100600D01*
X73617200Y-95280600D02*
X73617200Y-95100600D01*
X74617200Y-95280600D02*
X73617200Y-95280600D01*
X74617200Y-95100600D02*
X74617200Y-95280600D01*
X73617200Y-92120600D02*
X73617200Y-92300600D01*
X74617200Y-92120600D02*
X73617200Y-92120600D01*
X74617200Y-92300600D02*
X74617200Y-92120600D01*
X75617200Y-95100600D02*
X75617200Y-92300600D01*
X72617200Y-95100600D02*
X72617200Y-92300600D01*
%TO.C,LD1\u002C0*%
X63267460Y-47152100D02*
X64267460Y-47152100D01*
X65267460Y-47152100D02*
X66267460Y-47152100D01*
X66267460Y-49952100D02*
X65267460Y-49952100D01*
X64267460Y-49952100D02*
X63267460Y-49952100D01*
X64267460Y-50132100D02*
X64267460Y-49952100D01*
X65267460Y-50132100D02*
X64267460Y-50132100D01*
X65267460Y-49952100D02*
X65267460Y-50132100D01*
X64267460Y-46972100D02*
X64267460Y-47152100D01*
X65267460Y-46972100D02*
X64267460Y-46972100D01*
X65267460Y-47152100D02*
X65267460Y-46972100D01*
X66267460Y-49952100D02*
X66267460Y-47152100D01*
X63267460Y-49952100D02*
X63267460Y-47152100D01*
%TO.C,LD1\u002C4*%
X67600700Y-131543600D02*
X68600700Y-131543600D01*
X69600700Y-131543600D02*
X70600700Y-131543600D01*
X70600700Y-134343600D02*
X69600700Y-134343600D01*
X68600700Y-134343600D02*
X67600700Y-134343600D01*
X68600700Y-134523600D02*
X68600700Y-134343600D01*
X69600700Y-134523600D02*
X68600700Y-134523600D01*
X69600700Y-134343600D02*
X69600700Y-134523600D01*
X68600700Y-131363600D02*
X68600700Y-131543600D01*
X69600700Y-131363600D02*
X68600700Y-131363600D01*
X69600700Y-131543600D02*
X69600700Y-131363600D01*
X70600700Y-134343600D02*
X70600700Y-131543600D01*
X67600700Y-134343600D02*
X67600700Y-131543600D01*
%TO.C,LD1\u002C1*%
X43889800Y-73072800D02*
X44889800Y-73072800D01*
X45889800Y-73072800D02*
X46889800Y-73072800D01*
X46889800Y-75872800D02*
X45889800Y-75872800D01*
X44889800Y-75872800D02*
X43889800Y-75872800D01*
X44889800Y-76052800D02*
X44889800Y-75872800D01*
X45889800Y-76052800D02*
X44889800Y-76052800D01*
X45889800Y-75872800D02*
X45889800Y-76052800D01*
X44889800Y-72892800D02*
X44889800Y-73072800D01*
X45889800Y-72892800D02*
X44889800Y-72892800D01*
X45889800Y-73072800D02*
X45889800Y-72892800D01*
X46889800Y-75872800D02*
X46889800Y-73072800D01*
X43889800Y-75872800D02*
X43889800Y-73072800D01*
%TO.C,LD1\u002C3*%
X58202700Y-111731600D02*
X59202700Y-111731600D01*
X60202700Y-111731600D02*
X61202700Y-111731600D01*
X61202700Y-114531600D02*
X60202700Y-114531600D01*
X59202700Y-114531600D02*
X58202700Y-114531600D01*
X59202700Y-114711600D02*
X59202700Y-114531600D01*
X60202700Y-114711600D02*
X59202700Y-114711600D01*
X60202700Y-114531600D02*
X60202700Y-114711600D01*
X59202700Y-111551600D02*
X59202700Y-111731600D01*
X60202700Y-111551600D02*
X59202700Y-111551600D01*
X60202700Y-111731600D02*
X60202700Y-111551600D01*
X61202700Y-114531600D02*
X61202700Y-111731600D01*
X58202700Y-114531600D02*
X58202700Y-111731600D01*
%TO.C,LD1\u002C5*%
X51662200Y-150974600D02*
X52662200Y-150974600D01*
X53662200Y-150974600D02*
X54662200Y-150974600D01*
X54662200Y-153774600D02*
X53662200Y-153774600D01*
X52662200Y-153774600D02*
X51662200Y-153774600D01*
X52662200Y-153954600D02*
X52662200Y-153774600D01*
X53662200Y-153954600D02*
X52662200Y-153954600D01*
X53662200Y-153774600D02*
X53662200Y-153954600D01*
X52662200Y-150794600D02*
X52662200Y-150974600D01*
X53662200Y-150794600D02*
X52662200Y-150794600D01*
X53662200Y-150974600D02*
X53662200Y-150794600D01*
X54662200Y-153774600D02*
X54662200Y-150974600D01*
X51662200Y-153774600D02*
X51662200Y-150974600D01*
%TO.C,LD1\u002C2*%
X53313200Y-92300600D02*
X54313200Y-92300600D01*
X55313200Y-92300600D02*
X56313200Y-92300600D01*
X56313200Y-95100600D02*
X55313200Y-95100600D01*
X54313200Y-95100600D02*
X53313200Y-95100600D01*
X54313200Y-95280600D02*
X54313200Y-95100600D01*
X55313200Y-95280600D02*
X54313200Y-95280600D01*
X55313200Y-95100600D02*
X55313200Y-95280600D01*
X54313200Y-92120600D02*
X54313200Y-92300600D01*
X55313200Y-92120600D02*
X54313200Y-92120600D01*
X55313200Y-92300600D02*
X55313200Y-92120600D01*
X56313200Y-95100600D02*
X56313200Y-92300600D01*
X53313200Y-95100600D02*
X53313200Y-92300600D01*
%TO.C,LD0\u002C2*%
X29386400Y-92275200D02*
X30386400Y-92275200D01*
X31386400Y-92275200D02*
X32386400Y-92275200D01*
X32386400Y-95075200D02*
X31386400Y-95075200D01*
X30386400Y-95075200D02*
X29386400Y-95075200D01*
X30386400Y-95255200D02*
X30386400Y-95075200D01*
X31386400Y-95255200D02*
X30386400Y-95255200D01*
X31386400Y-95075200D02*
X31386400Y-95255200D01*
X30386400Y-92095200D02*
X30386400Y-92275200D01*
X31386400Y-92095200D02*
X30386400Y-92095200D01*
X31386400Y-92275200D02*
X31386400Y-92095200D01*
X32386400Y-95075200D02*
X32386400Y-92275200D01*
X29386400Y-95075200D02*
X29386400Y-92275200D01*
%TO.C,LD0\u002C1*%
X24674700Y-73072800D02*
X25674700Y-73072800D01*
X26674700Y-73072800D02*
X27674700Y-73072800D01*
X27674700Y-75872800D02*
X26674700Y-75872800D01*
X25674700Y-75872800D02*
X24674700Y-75872800D01*
X25674700Y-76052800D02*
X25674700Y-75872800D01*
X26674700Y-76052800D02*
X25674700Y-76052800D01*
X26674700Y-75872800D02*
X26674700Y-76052800D01*
X25674700Y-72892800D02*
X25674700Y-73072800D01*
X26674700Y-72892800D02*
X25674700Y-72892800D01*
X26674700Y-73072800D02*
X26674700Y-72892800D01*
X27674700Y-75872800D02*
X27674700Y-73072800D01*
X24674700Y-75872800D02*
X24674700Y-73072800D01*
%TO.C,LD0\u002C5*%
X27087700Y-150923800D02*
X28087700Y-150923800D01*
X29087700Y-150923800D02*
X30087700Y-150923800D01*
X30087700Y-153723800D02*
X29087700Y-153723800D01*
X28087700Y-153723800D02*
X27087700Y-153723800D01*
X28087700Y-153903800D02*
X28087700Y-153723800D01*
X29087700Y-153903800D02*
X28087700Y-153903800D01*
X29087700Y-153723800D02*
X29087700Y-153903800D01*
X28087700Y-150743800D02*
X28087700Y-150923800D01*
X29087700Y-150743800D02*
X28087700Y-150743800D01*
X29087700Y-150923800D02*
X29087700Y-150743800D01*
X30087700Y-153723800D02*
X30087700Y-150923800D01*
X27087700Y-153723800D02*
X27087700Y-150923800D01*
%TO.C,LD0\u002C3*%
X31723200Y-111807800D02*
X32723200Y-111807800D01*
X33723200Y-111807800D02*
X34723200Y-111807800D01*
X34723200Y-114607800D02*
X33723200Y-114607800D01*
X32723200Y-114607800D02*
X31723200Y-114607800D01*
X32723200Y-114787800D02*
X32723200Y-114607800D01*
X33723200Y-114787800D02*
X32723200Y-114787800D01*
X33723200Y-114607800D02*
X33723200Y-114787800D01*
X32723200Y-111627800D02*
X32723200Y-111807800D01*
X33723200Y-111627800D02*
X32723200Y-111627800D01*
X33723200Y-111807800D02*
X33723200Y-111627800D01*
X34723200Y-114607800D02*
X34723200Y-111807800D01*
X31723200Y-114607800D02*
X31723200Y-111807800D01*
%TO.C,LD0\u002C4*%
X36485700Y-131543600D02*
X37485700Y-131543600D01*
X38485700Y-131543600D02*
X39485700Y-131543600D01*
X39485700Y-134343600D02*
X38485700Y-134343600D01*
X37485700Y-134343600D02*
X36485700Y-134343600D01*
X37485700Y-134523600D02*
X37485700Y-134343600D01*
X38485700Y-134523600D02*
X37485700Y-134523600D01*
X38485700Y-134343600D02*
X38485700Y-134523600D01*
X37485700Y-131363600D02*
X37485700Y-131543600D01*
X38485700Y-131363600D02*
X37485700Y-131363600D01*
X38485700Y-131543600D02*
X38485700Y-131363600D01*
X39485700Y-134343600D02*
X39485700Y-131543600D01*
X36485700Y-134343600D02*
X36485700Y-131543600D01*
%TO.C,K19\u002C6*%
X431890600Y-156195600D02*
X446390600Y-156195600D01*
X431890600Y-141695600D02*
X431890600Y-156195600D01*
X446390600Y-141695600D02*
X431890600Y-141695600D01*
X446390600Y-156195600D02*
X446390600Y-141695600D01*
%TO.C,K7\u002C0*%
X185342960Y-62787100D02*
X199842960Y-62787100D01*
X185342960Y-48287100D02*
X185342960Y-62787100D01*
X199842960Y-48287100D02*
X185342960Y-48287100D01*
X199842960Y-62787100D02*
X199842960Y-48287100D01*
%TO.C,K12\u002C3*%
X276798200Y-127252300D02*
X291298200Y-127252300D01*
X276798200Y-112752300D02*
X276798200Y-127252300D01*
X291298200Y-112752300D02*
X276798200Y-112752300D01*
X291298200Y-127252300D02*
X291298200Y-112752300D01*
%TO.C,K16\u002C1*%
X350102600Y-88568100D02*
X364602600Y-88568100D01*
X350102600Y-74068100D02*
X350102600Y-88568100D01*
X364602600Y-74068100D02*
X350102600Y-74068100D01*
X364602600Y-88568100D02*
X364602600Y-74068100D01*
%TO.C,K14\u002C1*%
X311494600Y-88568100D02*
X325994600Y-88568100D01*
X311494600Y-74068100D02*
X311494600Y-88568100D01*
X325994600Y-74068100D02*
X311494600Y-74068100D01*
X325994600Y-88568100D02*
X325994600Y-74068100D01*
%TO.C,K3\u002C2*%
X86171200Y-107808600D02*
X100671200Y-107808600D01*
X86171200Y-93308600D02*
X86171200Y-107808600D01*
X100671200Y-93308600D02*
X86171200Y-93308600D01*
X100671200Y-107808600D02*
X100671200Y-93308600D01*
%TO.C,K8\u002C0*%
X204646960Y-62787100D02*
X219146960Y-62787100D01*
X204646960Y-48287100D02*
X204646960Y-62787100D01*
X219146960Y-48287100D02*
X204646960Y-48287100D01*
X219146960Y-62787100D02*
X219146960Y-48287100D01*
%TO.C,K0\u002C2*%
X23623700Y-107783200D02*
X38123700Y-107783200D01*
X23623700Y-93283200D02*
X23623700Y-107783200D01*
X38123700Y-93283200D02*
X23623700Y-93283200D01*
X38123700Y-107783200D02*
X38123700Y-93283200D01*
%TO.C,K18\u002C4*%
X412586600Y-127176100D02*
X427086600Y-127176100D01*
X412586600Y-112676100D02*
X412586600Y-127176100D01*
X427086600Y-112676100D02*
X412586600Y-112676100D01*
X427086600Y-127176100D02*
X427086600Y-112676100D01*
%TO.C,K10\u002C3*%
X226188700Y-127239600D02*
X240688700Y-127239600D01*
X226188700Y-112739600D02*
X226188700Y-127239600D01*
X240688700Y-112739600D02*
X226188700Y-112739600D01*
X240688700Y-127239600D02*
X240688700Y-112739600D01*
%TO.C,K13\u002C1*%
X278639700Y-88517300D02*
X293139700Y-88517300D01*
X278639700Y-74017300D02*
X278639700Y-88517300D01*
X293139700Y-74017300D02*
X278639700Y-74017300D01*
X293139700Y-88517300D02*
X293139700Y-74017300D01*
%TO.C,K19\u002C4*%
X431890600Y-117460600D02*
X446390600Y-117460600D01*
X431890600Y-102960600D02*
X431890600Y-117460600D01*
X446390600Y-102960600D02*
X431890600Y-102960600D01*
X446390600Y-117460600D02*
X446390600Y-102960600D01*
%TO.C,K11\u002C4*%
X271972200Y-147000800D02*
X286472200Y-147000800D01*
X271972200Y-132500800D02*
X271972200Y-147000800D01*
X286472200Y-132500800D02*
X271972200Y-132500800D01*
X286472200Y-147000800D02*
X286472200Y-132500800D01*
%TO.C,K0\u002C0*%
X18988200Y-62736300D02*
X33488200Y-62736300D01*
X18988200Y-48236300D02*
X18988200Y-62736300D01*
X33488200Y-48236300D02*
X18988200Y-48236300D01*
X33488200Y-62736300D02*
X33488200Y-48236300D01*
%TO.C,K0\u002C1*%
X18924700Y-88580800D02*
X33424700Y-88580800D01*
X18924700Y-74080800D02*
X18924700Y-88580800D01*
X33424700Y-74080800D02*
X18924700Y-74080800D01*
X33424700Y-88580800D02*
X33424700Y-74080800D01*
%TO.C,K0\u002C5*%
X21337700Y-166431800D02*
X35837700Y-166431800D01*
X21337700Y-151931800D02*
X21337700Y-166431800D01*
X35837700Y-151931800D02*
X21337700Y-151931800D01*
X35837700Y-166431800D02*
X35837700Y-151931800D01*
%TO.C,K0\u002C4*%
X30735700Y-147064300D02*
X45235700Y-147064300D01*
X30735700Y-132564300D02*
X30735700Y-147064300D01*
X45235700Y-132564300D02*
X30735700Y-132564300D01*
X45235700Y-147064300D02*
X45235700Y-132564300D01*
%TO.C,K0\u002C3*%
X26011300Y-127290400D02*
X40511300Y-127290400D01*
X26011300Y-112790400D02*
X26011300Y-127290400D01*
X40511300Y-112790400D02*
X26011300Y-112790400D01*
X40511300Y-127290400D02*
X40511300Y-112790400D01*
%TO.C,K1\u002C4*%
X61850700Y-147051600D02*
X76350700Y-147051600D01*
X61850700Y-132551600D02*
X61850700Y-147051600D01*
X76350700Y-132551600D02*
X61850700Y-132551600D01*
X76350700Y-147051600D02*
X76350700Y-132551600D01*
%TO.C,K1\u002C5*%
X45912200Y-166482600D02*
X60412200Y-166482600D01*
X45912200Y-151982600D02*
X45912200Y-166482600D01*
X60412200Y-151982600D02*
X45912200Y-151982600D01*
X60412200Y-166482600D02*
X60412200Y-151982600D01*
%TO.C,K1\u002C3*%
X52452700Y-127239600D02*
X66952700Y-127239600D01*
X52452700Y-112739600D02*
X52452700Y-127239600D01*
X66952700Y-112739600D02*
X52452700Y-112739600D01*
X66952700Y-127239600D02*
X66952700Y-112739600D01*
%TO.C,K1\u002C2*%
X47563200Y-107808600D02*
X62063200Y-107808600D01*
X47563200Y-93308600D02*
X47563200Y-107808600D01*
X62063200Y-93308600D02*
X47563200Y-93308600D01*
X62063200Y-107808600D02*
X62063200Y-93308600D01*
%TO.C,K1\u002C1*%
X38139800Y-88580800D02*
X52639800Y-88580800D01*
X38139800Y-74080800D02*
X38139800Y-88580800D01*
X52639800Y-74080800D02*
X38139800Y-74080800D01*
X52639800Y-88580800D02*
X52639800Y-74080800D01*
%TO.C,K1\u002C0*%
X57326960Y-62787100D02*
X71826960Y-62787100D01*
X57326960Y-48287100D02*
X57326960Y-62787100D01*
X71826960Y-48287100D02*
X57326960Y-48287100D01*
X71826960Y-62787100D02*
X71826960Y-48287100D01*
%TO.C,K2\u002C5*%
X70296200Y-166482600D02*
X84796200Y-166482600D01*
X70296200Y-151982600D02*
X70296200Y-166482600D01*
X84796200Y-151982600D02*
X70296200Y-151982600D01*
X84796200Y-166482600D02*
X84796200Y-151982600D01*
%TO.C,K2\u002C3*%
X71756700Y-127239600D02*
X86256700Y-127239600D01*
X71756700Y-112739600D02*
X71756700Y-127239600D01*
X86256700Y-112739600D02*
X71756700Y-112739600D01*
X86256700Y-127239600D02*
X86256700Y-112739600D01*
%TO.C,K2\u002C1*%
X57342200Y-88568100D02*
X71842200Y-88568100D01*
X57342200Y-74068100D02*
X57342200Y-88568100D01*
X71842200Y-74068100D02*
X57342200Y-74068100D01*
X71842200Y-88568100D02*
X71842200Y-74068100D01*
%TO.C,K2\u002C4*%
X81154700Y-147051600D02*
X95654700Y-147051600D01*
X81154700Y-132551600D02*
X81154700Y-147051600D01*
X95654700Y-132551600D02*
X81154700Y-132551600D01*
X95654700Y-147051600D02*
X95654700Y-132551600D01*
%TO.C,K2\u002C2*%
X66867200Y-107808600D02*
X81367200Y-107808600D01*
X66867200Y-93308600D02*
X66867200Y-107808600D01*
X81367200Y-93308600D02*
X66867200Y-93308600D01*
X81367200Y-107808600D02*
X81367200Y-93308600D01*
%TO.C,K2\u002C0*%
X76630960Y-62787100D02*
X91130960Y-62787100D01*
X76630960Y-48287100D02*
X76630960Y-62787100D01*
X91130960Y-48287100D02*
X76630960Y-48287100D01*
X91130960Y-62787100D02*
X91130960Y-48287100D01*
%TO.C,K3\u002C5*%
X142178200Y-166482600D02*
X156678200Y-166482600D01*
X142178200Y-151982600D02*
X142178200Y-166482600D01*
X156678200Y-151982600D02*
X142178200Y-151982600D01*
X156678200Y-166482600D02*
X156678200Y-151982600D01*
%TO.C,K3\u002C4*%
X100458700Y-147051600D02*
X114958700Y-147051600D01*
X100458700Y-132551600D02*
X100458700Y-147051600D01*
X114958700Y-132551600D02*
X100458700Y-132551600D01*
X114958700Y-147051600D02*
X114958700Y-132551600D01*
%TO.C,K3\u002C1*%
X76138200Y-88568100D02*
X90638200Y-88568100D01*
X76138200Y-74068100D02*
X76138200Y-88568100D01*
X90638200Y-74068100D02*
X76138200Y-74068100D01*
X90638200Y-88568100D02*
X90638200Y-74068100D01*
%TO.C,K3\u002C0*%
X95934960Y-62787100D02*
X110434960Y-62787100D01*
X95934960Y-48287100D02*
X95934960Y-62787100D01*
X110434960Y-48287100D02*
X95934960Y-48287100D01*
X110434960Y-62787100D02*
X110434960Y-48287100D01*
%TO.C,K3\u002C3*%
X91060700Y-127239600D02*
X105560700Y-127239600D01*
X91060700Y-112739600D02*
X91060700Y-127239600D01*
X105560700Y-112739600D02*
X91060700Y-112739600D01*
X105560700Y-127239600D02*
X105560700Y-112739600D01*
%TO.C,K4\u002C1*%
X95442200Y-88568100D02*
X109942200Y-88568100D01*
X95442200Y-74068100D02*
X95442200Y-88568100D01*
X109942200Y-74068100D02*
X95442200Y-74068100D01*
X109942200Y-88568100D02*
X109942200Y-74068100D01*
%TO.C,K4\u002C2*%
X105475200Y-107808600D02*
X119975200Y-107808600D01*
X105475200Y-93308600D02*
X105475200Y-107808600D01*
X119975200Y-93308600D02*
X105475200Y-93308600D01*
X119975200Y-107808600D02*
X119975200Y-93308600D01*
%TO.C,K4\u002C3*%
X110364700Y-127239600D02*
X124864700Y-127239600D01*
X110364700Y-112739600D02*
X110364700Y-127239600D01*
X124864700Y-112739600D02*
X110364700Y-112739600D01*
X124864700Y-127239600D02*
X124864700Y-112739600D01*
%TO.C,K4\u002C4*%
X119762700Y-147051600D02*
X134262700Y-147051600D01*
X119762700Y-132551600D02*
X119762700Y-147051600D01*
X134262700Y-132551600D02*
X119762700Y-132551600D01*
X134262700Y-147051600D02*
X134262700Y-132551600D01*
%TO.C,K4\u002C0*%
X115238960Y-62787100D02*
X129738960Y-62787100D01*
X115238960Y-48287100D02*
X115238960Y-62787100D01*
X129738960Y-48287100D02*
X115238960Y-48287100D01*
X129738960Y-62787100D02*
X129738960Y-48287100D01*
%TO.C,K5\u002C0*%
X146734960Y-62787100D02*
X161234960Y-62787100D01*
X146734960Y-48287100D02*
X146734960Y-62787100D01*
X161234960Y-48287100D02*
X146734960Y-48287100D01*
X161234960Y-62787100D02*
X161234960Y-48287100D01*
%TO.C,K5\u002C2*%
X124779200Y-107808600D02*
X139279200Y-107808600D01*
X124779200Y-93308600D02*
X124779200Y-107808600D01*
X139279200Y-93308600D02*
X124779200Y-93308600D01*
X139279200Y-107808600D02*
X139279200Y-93308600D01*
%TO.C,K5\u002C1*%
X114746200Y-88568100D02*
X129246200Y-88568100D01*
X114746200Y-74068100D02*
X114746200Y-88568100D01*
X129246200Y-74068100D02*
X114746200Y-74068100D01*
X129246200Y-88568100D02*
X129246200Y-74068100D01*
%TO.C,K5\u002C3*%
X129668700Y-127239600D02*
X144168700Y-127239600D01*
X129668700Y-112739600D02*
X129668700Y-127239600D01*
X144168700Y-112739600D02*
X129668700Y-112739600D01*
X144168700Y-127239600D02*
X144168700Y-112739600D01*
%TO.C,K5\u002C4*%
X139066700Y-147051600D02*
X153566700Y-147051600D01*
X139066700Y-132551600D02*
X139066700Y-147051600D01*
X153566700Y-132551600D02*
X139066700Y-132551600D01*
X153566700Y-147051600D02*
X153566700Y-132551600D01*
%TO.C,K6\u002C3*%
X148972700Y-127239600D02*
X163472700Y-127239600D01*
X148972700Y-112739600D02*
X148972700Y-127239600D01*
X163472700Y-112739600D02*
X148972700Y-112739600D01*
X163472700Y-127239600D02*
X163472700Y-112739600D01*
%TO.C,K6\u002C4*%
X158370700Y-147051600D02*
X172870700Y-147051600D01*
X158370700Y-132551600D02*
X158370700Y-147051600D01*
X172870700Y-132551600D02*
X158370700Y-132551600D01*
X172870700Y-147051600D02*
X172870700Y-132551600D01*
%TO.C,K6\u002C1*%
X134050200Y-88568100D02*
X148550200Y-88568100D01*
X134050200Y-74068100D02*
X134050200Y-88568100D01*
X148550200Y-74068100D02*
X134050200Y-74068100D01*
X148550200Y-88568100D02*
X148550200Y-74068100D01*
%TO.C,K6\u002C2*%
X144083200Y-107808600D02*
X158583200Y-107808600D01*
X144083200Y-93308600D02*
X144083200Y-107808600D01*
X158583200Y-93308600D02*
X144083200Y-93308600D01*
X158583200Y-107808600D02*
X158583200Y-93308600D01*
%TO.C,K6\u002C0*%
X166038960Y-62787100D02*
X180538960Y-62787100D01*
X166038960Y-48287100D02*
X166038960Y-62787100D01*
X180538960Y-48287100D02*
X166038960Y-48287100D01*
X180538960Y-62787100D02*
X180538960Y-48287100D01*
%TO.C,K7\u002C2*%
X163387200Y-107808600D02*
X177887200Y-107808600D01*
X163387200Y-93308600D02*
X163387200Y-107808600D01*
X177887200Y-93308600D02*
X163387200Y-93308600D01*
X177887200Y-107808600D02*
X177887200Y-93308600D01*
%TO.C,K7\u002C1*%
X153354200Y-88568100D02*
X167854200Y-88568100D01*
X153354200Y-74068100D02*
X153354200Y-88568100D01*
X167854200Y-74068100D02*
X153354200Y-74068100D01*
X167854200Y-88568100D02*
X167854200Y-74068100D01*
%TO.C,K7\u002C3*%
X168276700Y-127239600D02*
X182776700Y-127239600D01*
X168276700Y-112739600D02*
X168276700Y-127239600D01*
X182776700Y-112739600D02*
X168276700Y-112739600D01*
X182776700Y-127239600D02*
X182776700Y-112739600D01*
%TO.C,K7\u002C4*%
X177674700Y-147051600D02*
X192174700Y-147051600D01*
X177674700Y-132551600D02*
X177674700Y-147051600D01*
X192174700Y-132551600D02*
X177674700Y-132551600D01*
X192174700Y-147051600D02*
X192174700Y-132551600D01*
%TO.C,K8\u002C1*%
X172658200Y-88568100D02*
X187158200Y-88568100D01*
X172658200Y-74068100D02*
X172658200Y-88568100D01*
X187158200Y-74068100D02*
X172658200Y-74068100D01*
X187158200Y-88568100D02*
X187158200Y-74068100D01*
%TO.C,K8\u002C3*%
X187580700Y-127239600D02*
X202080700Y-127239600D01*
X187580700Y-112739600D02*
X187580700Y-127239600D01*
X202080700Y-112739600D02*
X187580700Y-112739600D01*
X202080700Y-127239600D02*
X202080700Y-112739600D01*
%TO.C,K8\u002C4*%
X196978700Y-147051600D02*
X211478700Y-147051600D01*
X196978700Y-132551600D02*
X196978700Y-147051600D01*
X211478700Y-132551600D02*
X196978700Y-132551600D01*
X211478700Y-147051600D02*
X211478700Y-132551600D01*
%TO.C,K8\u002C5*%
X213907800Y-166482600D02*
X228407800Y-166482600D01*
X213907800Y-151982600D02*
X213907800Y-166482600D01*
X228407800Y-151982600D02*
X213907800Y-151982600D01*
X228407800Y-166482600D02*
X228407800Y-151982600D01*
%TO.C,K8\u002C2*%
X182691200Y-107808600D02*
X197191200Y-107808600D01*
X182691200Y-93308600D02*
X182691200Y-107808600D01*
X197191200Y-93308600D02*
X182691200Y-93308600D01*
X197191200Y-107808600D02*
X197191200Y-93308600D01*
%TO.C,K9\u002C0*%
X231062960Y-62787100D02*
X245562960Y-62787100D01*
X231062960Y-48287100D02*
X231062960Y-62787100D01*
X245562960Y-48287100D02*
X231062960Y-48287100D01*
X245562960Y-62787100D02*
X245562960Y-48287100D01*
%TO.C,K9\u002C5*%
X238063200Y-166482600D02*
X252563200Y-166482600D01*
X238063200Y-151982600D02*
X238063200Y-166482600D01*
X252563200Y-151982600D02*
X238063200Y-151982600D01*
X252563200Y-166482600D02*
X252563200Y-151982600D01*
%TO.C,K9\u002C1*%
X191962200Y-88568100D02*
X206462200Y-88568100D01*
X191962200Y-74068100D02*
X191962200Y-88568100D01*
X206462200Y-74068100D02*
X191962200Y-74068100D01*
X206462200Y-88568100D02*
X206462200Y-74068100D01*
%TO.C,K9\u002C2*%
X201995200Y-107808600D02*
X216495200Y-107808600D01*
X201995200Y-93308600D02*
X201995200Y-107808600D01*
X216495200Y-93308600D02*
X201995200Y-93308600D01*
X216495200Y-107808600D02*
X216495200Y-93308600D01*
%TO.C,K9\u002C4*%
X216282700Y-147051600D02*
X230782700Y-147051600D01*
X216282700Y-132551600D02*
X216282700Y-147051600D01*
X230782700Y-132551600D02*
X216282700Y-132551600D01*
X230782700Y-147051600D02*
X230782700Y-132551600D01*
%TO.C,K9\u002C3*%
X206884700Y-127239600D02*
X221384700Y-127239600D01*
X206884700Y-112739600D02*
X206884700Y-127239600D01*
X221384700Y-112739600D02*
X206884700Y-112739600D01*
X221384700Y-127239600D02*
X221384700Y-112739600D01*
%TO.C,K10\u002C2*%
X221299200Y-107808600D02*
X235799200Y-107808600D01*
X221299200Y-93308600D02*
X221299200Y-107808600D01*
X235799200Y-93308600D02*
X221299200Y-93308600D01*
X235799200Y-107808600D02*
X235799200Y-93308600D01*
%TO.C,K10\u002C0*%
X250366960Y-62787100D02*
X264866960Y-62787100D01*
X250366960Y-48287100D02*
X250366960Y-62787100D01*
X264866960Y-48287100D02*
X250366960Y-48287100D01*
X264866960Y-62787100D02*
X264866960Y-48287100D01*
%TO.C,K10\u002C5*%
X262256700Y-166482600D02*
X276756700Y-166482600D01*
X262256700Y-151982600D02*
X262256700Y-166482600D01*
X276756700Y-151982600D02*
X262256700Y-151982600D01*
X276756700Y-166482600D02*
X276756700Y-151982600D01*
%TO.C,K10\u002C1*%
X211266200Y-88568100D02*
X225766200Y-88568100D01*
X211266200Y-74068100D02*
X211266200Y-88568100D01*
X225766200Y-74068100D02*
X211266200Y-74068100D01*
X225766200Y-88568100D02*
X225766200Y-74068100D01*
%TO.C,K10\u002C4*%
X235586700Y-147051600D02*
X250086700Y-147051600D01*
X235586700Y-132551600D02*
X235586700Y-147051600D01*
X250086700Y-132551600D02*
X235586700Y-132551600D01*
X250086700Y-147051600D02*
X250086700Y-132551600D01*
%TO.C,K11\u002C3*%
X245492700Y-127239600D02*
X259992700Y-127239600D01*
X245492700Y-112739600D02*
X245492700Y-127239600D01*
X259992700Y-112739600D02*
X245492700Y-112739600D01*
X259992700Y-127239600D02*
X259992700Y-112739600D01*
%TO.C,K11\u002C2*%
X240603200Y-107808600D02*
X255103200Y-107808600D01*
X240603200Y-93308600D02*
X240603200Y-107808600D01*
X255103200Y-93308600D02*
X240603200Y-93308600D01*
X255103200Y-107808600D02*
X255103200Y-93308600D01*
%TO.C,K11\u002C5*%
X286323200Y-166482600D02*
X300823200Y-166482600D01*
X286323200Y-151982600D02*
X286323200Y-166482600D01*
X300823200Y-151982600D02*
X286323200Y-151982600D01*
X300823200Y-166482600D02*
X300823200Y-151982600D01*
%TO.C,K11\u002C1*%
X230570200Y-88568100D02*
X245070200Y-88568100D01*
X230570200Y-74068100D02*
X230570200Y-88568100D01*
X245070200Y-74068100D02*
X230570200Y-74068100D01*
X245070200Y-88568100D02*
X245070200Y-74068100D01*
%TO.C,K11\u002C0*%
X269670960Y-62787100D02*
X284170960Y-62787100D01*
X269670960Y-48287100D02*
X269670960Y-62787100D01*
X284170960Y-48287100D02*
X269670960Y-48287100D01*
X284170960Y-62787100D02*
X284170960Y-48287100D01*
%TO.C,K12\u002C2*%
X259907200Y-107808600D02*
X274407200Y-107808600D01*
X259907200Y-93308600D02*
X259907200Y-107808600D01*
X274407200Y-93308600D02*
X259907200Y-93308600D01*
X274407200Y-107808600D02*
X274407200Y-93308600D01*
%TO.C,K12\u002C0*%
X288974960Y-62787100D02*
X303474960Y-62787100D01*
X288974960Y-48287100D02*
X288974960Y-62787100D01*
X303474960Y-48287100D02*
X288974960Y-48287100D01*
X303474960Y-62787100D02*
X303474960Y-48287100D01*
%TO.C,K12\u002C1*%
X249874200Y-88568100D02*
X264374200Y-88568100D01*
X249874200Y-74068100D02*
X249874200Y-88568100D01*
X264374200Y-74068100D02*
X249874200Y-74068100D01*
X264374200Y-88568100D02*
X264374200Y-74068100D01*
%TO.C,K13\u002C2*%
X283846700Y-107821300D02*
X298346700Y-107821300D01*
X283846700Y-93321300D02*
X283846700Y-107821300D01*
X298346700Y-93321300D02*
X283846700Y-93321300D01*
X298346700Y-107821300D02*
X298346700Y-93321300D01*
%TO.C,K14\u002C6*%
X311431100Y-166355600D02*
X325931100Y-166355600D01*
X311431100Y-151855600D02*
X311431100Y-166355600D01*
X325931100Y-151855600D02*
X311431100Y-151855600D01*
X325931100Y-166355600D02*
X325931100Y-151855600D01*
%TO.C,K14\u002C3*%
X311494600Y-107808600D02*
X325994600Y-107808600D01*
X311494600Y-93308600D02*
X311494600Y-107808600D01*
X325994600Y-93308600D02*
X311494600Y-93308600D01*
X325994600Y-107808600D02*
X325994600Y-93308600D01*
%TO.C,K14\u002C0*%
X311545400Y-62787100D02*
X326045400Y-62787100D01*
X311545400Y-48287100D02*
X311545400Y-62787100D01*
X326045400Y-48287100D02*
X311545400Y-48287100D01*
X326045400Y-62787100D02*
X326045400Y-48287100D01*
%TO.C,K15\u002C6*%
X330735100Y-166355600D02*
X345235100Y-166355600D01*
X330735100Y-151855600D02*
X330735100Y-166355600D01*
X345235100Y-151855600D02*
X330735100Y-151855600D01*
X345235100Y-166355600D02*
X345235100Y-151855600D01*
%TO.C,K15\u002C3*%
X330798600Y-107808600D02*
X345298600Y-107808600D01*
X330798600Y-93308600D02*
X330798600Y-107808600D01*
X345298600Y-93308600D02*
X330798600Y-93308600D01*
X345298600Y-107808600D02*
X345298600Y-93308600D01*
%TO.C,K15\u002C5*%
X330735100Y-147051600D02*
X345235100Y-147051600D01*
X330735100Y-132551600D02*
X330735100Y-147051600D01*
X345235100Y-132551600D02*
X330735100Y-132551600D01*
X345235100Y-147051600D02*
X345235100Y-132551600D01*
%TO.C,K15\u002C1*%
X330798600Y-88568100D02*
X345298600Y-88568100D01*
X330798600Y-74068100D02*
X330798600Y-88568100D01*
X345298600Y-74068100D02*
X330798600Y-74068100D01*
X345298600Y-88568100D02*
X345298600Y-74068100D01*
%TO.C,K15\u002C0*%
X331103400Y-62787100D02*
X345603400Y-62787100D01*
X331103400Y-48287100D02*
X331103400Y-62787100D01*
X345603400Y-48287100D02*
X331103400Y-48287100D01*
X345603400Y-62787100D02*
X345603400Y-48287100D01*
%TO.C,K16\u002C4*%
X373978600Y-127239600D02*
X388478600Y-127239600D01*
X373978600Y-112739600D02*
X373978600Y-127239600D01*
X388478600Y-112739600D02*
X373978600Y-112739600D01*
X388478600Y-127239600D02*
X388478600Y-112739600D01*
%TO.C,K16\u002C5*%
X373978600Y-146543600D02*
X388478600Y-146543600D01*
X373978600Y-132043600D02*
X373978600Y-146543600D01*
X388478600Y-132043600D02*
X373978600Y-132043600D01*
X388478600Y-146543600D02*
X388478600Y-132043600D01*
%TO.C,K16\u002C3*%
X350102600Y-107808600D02*
X364602600Y-107808600D01*
X350102600Y-93308600D02*
X350102600Y-107808600D01*
X364602600Y-93308600D02*
X350102600Y-93308600D01*
X364602600Y-107808600D02*
X364602600Y-93308600D01*
%TO.C,K16\u002C0*%
X350407400Y-62787100D02*
X364907400Y-62787100D01*
X350407400Y-48287100D02*
X350407400Y-62787100D01*
X364907400Y-48287100D02*
X350407400Y-48287100D01*
X364907400Y-62787100D02*
X364907400Y-48287100D01*
%TO.C,K16\u002C6*%
X350039100Y-166355600D02*
X364539100Y-166355600D01*
X350039100Y-151855600D02*
X350039100Y-166355600D01*
X364539100Y-151855600D02*
X350039100Y-151855600D01*
X364539100Y-166355600D02*
X364539100Y-151855600D01*
%TO.C,K17\u002C6*%
X383503600Y-165847600D02*
X398003600Y-165847600D01*
X383503600Y-151347600D02*
X383503600Y-165847600D01*
X398003600Y-151347600D02*
X383503600Y-151347600D01*
X398003600Y-165847600D02*
X398003600Y-151347600D01*
%TO.C,K17\u002C5*%
X393282600Y-146543600D02*
X407782600Y-146543600D01*
X393282600Y-132043600D02*
X393282600Y-146543600D01*
X407782600Y-132043600D02*
X393282600Y-132043600D01*
X407782600Y-146543600D02*
X407782600Y-132043600D01*
%TO.C,K17\u002C4*%
X393282600Y-127239600D02*
X407782600Y-127239600D01*
X393282600Y-112739600D02*
X393282600Y-127239600D01*
X407782600Y-112739600D02*
X393282600Y-112739600D01*
X407782600Y-127239600D02*
X407782600Y-112739600D01*
%TO.C,K17\u002C3*%
X373978600Y-107935600D02*
X388478600Y-107935600D01*
X373978600Y-93435600D02*
X373978600Y-107935600D01*
X388478600Y-93435600D02*
X373978600Y-93435600D01*
X388478600Y-107935600D02*
X388478600Y-93435600D01*
%TO.C,K17\u002C1*%
X373978600Y-88568100D02*
X388478600Y-88568100D01*
X373978600Y-74068100D02*
X373978600Y-88568100D01*
X388478600Y-74068100D02*
X373978600Y-74068100D01*
X388478600Y-88568100D02*
X388478600Y-74068100D01*
%TO.C,K17\u002C0*%
X373915100Y-62787100D02*
X388415100Y-62787100D01*
X373915100Y-48287100D02*
X373915100Y-62787100D01*
X388415100Y-48287100D02*
X373915100Y-48287100D01*
X388415100Y-62787100D02*
X388415100Y-48287100D01*
%TO.C,K18\u002C6*%
X412586600Y-165847600D02*
X427086600Y-165847600D01*
X412586600Y-151347600D02*
X412586600Y-165847600D01*
X427086600Y-151347600D02*
X412586600Y-151347600D01*
X427086600Y-165847600D02*
X427086600Y-151347600D01*
%TO.C,K18\u002C3*%
X393282600Y-107935600D02*
X407782600Y-107935600D01*
X393282600Y-93435600D02*
X393282600Y-107935600D01*
X407782600Y-93435600D02*
X393282600Y-93435600D01*
X407782600Y-107935600D02*
X407782600Y-93435600D01*
%TO.C,K18\u002C1*%
X393282600Y-88568100D02*
X407782600Y-88568100D01*
X393282600Y-74068100D02*
X393282600Y-88568100D01*
X407782600Y-74068100D02*
X393282600Y-74068100D01*
X407782600Y-88568100D02*
X407782600Y-74068100D01*
%TO.C,K18\u002C5*%
X412586600Y-146543600D02*
X427086600Y-146543600D01*
X412586600Y-132043600D02*
X412586600Y-146543600D01*
X427086600Y-132043600D02*
X412586600Y-132043600D01*
X427086600Y-146543600D02*
X427086600Y-132043600D01*
%TO.C,K19\u002C0*%
X412523100Y-62787100D02*
X427023100Y-62787100D01*
X412523100Y-48287100D02*
X412523100Y-62787100D01*
X427023100Y-48287100D02*
X412523100Y-48287100D01*
X427023100Y-62787100D02*
X427023100Y-48287100D01*
%TO.C,K19\u002C3*%
X412586600Y-107935600D02*
X427086600Y-107935600D01*
X412586600Y-93435600D02*
X412586600Y-107935600D01*
X427086600Y-93435600D02*
X412586600Y-93435600D01*
X427086600Y-107935600D02*
X427086600Y-93435600D01*
%TO.C,K19\u002C1*%
X412586600Y-88568100D02*
X427086600Y-88568100D01*
X412586600Y-74068100D02*
X412586600Y-88568100D01*
X427086600Y-74068100D02*
X412586600Y-74068100D01*
X427086600Y-88568100D02*
X427086600Y-74068100D01*
%TO.C,K20\u002C0*%
X431827100Y-62787100D02*
X446327100Y-62787100D01*
X431827100Y-48287100D02*
X431827100Y-62787100D01*
X446327100Y-48287100D02*
X431827100Y-48287100D01*
X446327100Y-62787100D02*
X446327100Y-48287100D01*
%TO.C,K20\u002C1*%
X431890600Y-88568100D02*
X446390600Y-88568100D01*
X431890600Y-74068100D02*
X431890600Y-88568100D01*
X446390600Y-74068100D02*
X431890600Y-74068100D01*
X446390600Y-88568100D02*
X446390600Y-74068100D01*
%TO.C,J1*%
X342501600Y-18433200D02*
X342501600Y-30233200D01*
X394301600Y-18433200D02*
X342501600Y-18433200D01*
X394301600Y-30233200D02*
X394301600Y-18433200D01*
X342501600Y-30233200D02*
X394301600Y-30233200D01*
%TO.C,K18\u002C0*%
X393219100Y-62774400D02*
X407719100Y-62774400D01*
X393219100Y-48274400D02*
X393219100Y-62774400D01*
X407719100Y-48274400D02*
X393219100Y-48274400D01*
X407719100Y-62774400D02*
X407719100Y-48274400D01*
%TD*%
M02*
