%TF.GenerationSoftware,KiCad,Pcbnew,(5.1.9)-1*%
%TF.CreationDate,2021-06-08T21:52:20+10:00*%
%TF.ProjectId,RedPyKeeb_mainboard,52656450-794b-4656-9562-5f6d61696e62,rev?*%
%TF.SameCoordinates,Original*%
%TF.FileFunction,Soldermask,Top*%
%TF.FilePolarity,Negative*%
%FSLAX46Y46*%
G04 Gerber Fmt 4.6, Leading zero omitted, Abs format (unit mm)*
G04 Created by KiCad (PCBNEW (5.1.9)-1) date 2021-06-08 21:52:20*
%MOMM*%
%LPD*%
G01*
G04 APERTURE LIST*
%ADD10C,1.750000*%
%ADD11C,4.000000*%
%ADD12C,3.000000*%
%ADD13O,1.350000X1.350000*%
%ADD14R,1.350000X1.350000*%
%ADD15R,0.800000X0.500000*%
%ADD16R,0.800000X0.300000*%
%ADD17R,0.500000X1.000000*%
%ADD18R,0.500000X1.580000*%
%ADD19C,1.600000*%
%ADD20R,1.600000X1.600000*%
G04 APERTURE END LIST*
D10*
%TO.C,K7\u002C0*%
X187512960Y-55537100D03*
X197672960Y-55537100D03*
D11*
X192592960Y-55537100D03*
D12*
X190052960Y-60617100D03*
X196402960Y-58077100D03*
%TD*%
D13*
%TO.C,J1*%
X412036400Y-31445200D03*
X410036400Y-31445200D03*
X408036400Y-31445200D03*
X406036400Y-31445200D03*
X404036400Y-31445200D03*
X402036400Y-31445200D03*
X400036400Y-31445200D03*
X398036400Y-31445200D03*
X396036400Y-31445200D03*
X394036400Y-31445200D03*
X392036400Y-31445200D03*
X390036400Y-31445200D03*
X388036400Y-31445200D03*
X386036400Y-31445200D03*
X384036400Y-31445200D03*
X382036400Y-31445200D03*
X380036400Y-31445200D03*
X378036400Y-31445200D03*
X376036400Y-31445200D03*
X374036400Y-31445200D03*
X372036400Y-31445200D03*
X370036400Y-31445200D03*
X368036400Y-31445200D03*
X366036400Y-31445200D03*
X364036400Y-31445200D03*
X362036400Y-31445200D03*
X360036400Y-31445200D03*
X358036400Y-31445200D03*
X356036400Y-31445200D03*
X354036400Y-31445200D03*
X352036400Y-31445200D03*
X350036400Y-31445200D03*
X348036400Y-31445200D03*
X346036400Y-31445200D03*
X344036400Y-31445200D03*
D14*
X342036400Y-31445200D03*
%TD*%
D15*
%TO.C,LD3\u002C5\u002C1*%
X179805700Y-153249200D03*
D16*
X179805700Y-152349200D03*
D15*
X179805700Y-151449200D03*
D16*
X178105700Y-152349200D03*
D15*
X178105700Y-151449200D03*
X178105700Y-153249200D03*
D17*
X178955700Y-153179200D03*
D18*
X178955700Y-151659200D03*
%TD*%
D15*
%TO.C,LD3\u002C5\u002C0*%
X115708800Y-153261900D03*
D16*
X115708800Y-152361900D03*
D15*
X115708800Y-151461900D03*
D16*
X114008800Y-152361900D03*
D15*
X114008800Y-151461900D03*
X114008800Y-153261900D03*
D17*
X114858800Y-153191900D03*
D18*
X114858800Y-151671900D03*
%TD*%
D15*
%TO.C,LD20\u002C7*%
X440181100Y-68375100D03*
D16*
X440181100Y-67475100D03*
D15*
X440181100Y-66575100D03*
D16*
X438481100Y-67475100D03*
D15*
X438481100Y-66575100D03*
X438481100Y-68375100D03*
D17*
X439331100Y-68305100D03*
D18*
X439331100Y-66785100D03*
%TD*%
D15*
%TO.C,LD20\u002C0*%
X439927100Y-49464800D03*
D16*
X439927100Y-48564800D03*
D15*
X439927100Y-47664800D03*
D16*
X438227100Y-48564800D03*
D15*
X438227100Y-47664800D03*
X438227100Y-49464800D03*
D17*
X439077100Y-49394800D03*
D18*
X439077100Y-47874800D03*
%TD*%
D15*
%TO.C,LD20\u002C1*%
X439990600Y-75360100D03*
D16*
X439990600Y-74460100D03*
D15*
X439990600Y-73560100D03*
D16*
X438290600Y-74460100D03*
D15*
X438290600Y-73560100D03*
X438290600Y-75360100D03*
D17*
X439140600Y-75290100D03*
D18*
X439140600Y-73770100D03*
%TD*%
D15*
%TO.C,LD19\u002C6*%
X440244600Y-145019600D03*
D16*
X440244600Y-144119600D03*
D15*
X440244600Y-143219600D03*
D16*
X438544600Y-144119600D03*
D15*
X438544600Y-143219600D03*
X438544600Y-145019600D03*
D17*
X439394600Y-144949600D03*
D18*
X439394600Y-143429600D03*
%TD*%
D15*
%TO.C,LD19\u002C3*%
X420686600Y-94626000D03*
D16*
X420686600Y-93726000D03*
D15*
X420686600Y-92826000D03*
D16*
X418986600Y-93726000D03*
D15*
X418986600Y-92826000D03*
X418986600Y-94626000D03*
D17*
X419836600Y-94556000D03*
D18*
X419836600Y-93036000D03*
%TD*%
D15*
%TO.C,LD19\u002C4*%
X439990600Y-104506600D03*
D16*
X439990600Y-103606600D03*
D15*
X439990600Y-102706600D03*
D16*
X438290600Y-103606600D03*
D15*
X438290600Y-102706600D03*
X438290600Y-104506600D03*
D17*
X439140600Y-104436600D03*
D18*
X439140600Y-102916600D03*
%TD*%
D15*
%TO.C,LD19\u002C1*%
X420686600Y-75372800D03*
D16*
X420686600Y-74472800D03*
D15*
X420686600Y-73572800D03*
D16*
X418986600Y-74472800D03*
D15*
X418986600Y-73572800D03*
X418986600Y-75372800D03*
D17*
X419836600Y-75302800D03*
D18*
X419836600Y-73782800D03*
%TD*%
D15*
%TO.C,LD19\u002C0*%
X420610400Y-49464800D03*
D16*
X420610400Y-48564800D03*
D15*
X420610400Y-47664800D03*
D16*
X418910400Y-48564800D03*
D15*
X418910400Y-47664800D03*
X418910400Y-49464800D03*
D17*
X419760400Y-49394800D03*
D18*
X419760400Y-47874800D03*
%TD*%
D15*
%TO.C,LD19\u002C7*%
X420877100Y-68324300D03*
D16*
X420877100Y-67424300D03*
D15*
X420877100Y-66524300D03*
D16*
X419177100Y-67424300D03*
D15*
X419177100Y-66524300D03*
X419177100Y-68324300D03*
D17*
X420027100Y-68254300D03*
D18*
X420027100Y-66734300D03*
%TD*%
D15*
%TO.C,LD18\u002C0*%
X401306400Y-49464800D03*
D16*
X401306400Y-48564800D03*
D15*
X401306400Y-47664800D03*
D16*
X399606400Y-48564800D03*
D15*
X399606400Y-47664800D03*
X399606400Y-49464800D03*
D17*
X400456400Y-49394800D03*
D18*
X400456400Y-47874800D03*
%TD*%
D15*
%TO.C,LD18\u002C3*%
X401382600Y-94626000D03*
D16*
X401382600Y-93726000D03*
D15*
X401382600Y-92826000D03*
D16*
X399682600Y-93726000D03*
D15*
X399682600Y-92826000D03*
X399682600Y-94626000D03*
D17*
X400532600Y-94556000D03*
D18*
X400532600Y-93036000D03*
%TD*%
D15*
%TO.C,LD18\u002C4*%
X420686600Y-113968100D03*
D16*
X420686600Y-113068100D03*
D15*
X420686600Y-112168100D03*
D16*
X418986600Y-113068100D03*
D15*
X418986600Y-112168100D03*
X418986600Y-113968100D03*
D17*
X419836600Y-113898100D03*
D18*
X419836600Y-112378100D03*
%TD*%
D15*
%TO.C,LD18\u002C5*%
X420686600Y-133335600D03*
D16*
X420686600Y-132435600D03*
D15*
X420686600Y-131535600D03*
D16*
X418986600Y-132435600D03*
D15*
X418986600Y-131535600D03*
X418986600Y-133335600D03*
D17*
X419836600Y-133265600D03*
D18*
X419836600Y-131745600D03*
%TD*%
D15*
%TO.C,LD18\u002C7*%
X401573100Y-68324300D03*
D16*
X401573100Y-67424300D03*
D15*
X401573100Y-66524300D03*
D16*
X399873100Y-67424300D03*
D15*
X399873100Y-66524300D03*
X399873100Y-68324300D03*
D17*
X400723100Y-68254300D03*
D18*
X400723100Y-66734300D03*
%TD*%
D15*
%TO.C,LD18\u002C1*%
X401382600Y-75360100D03*
D16*
X401382600Y-74460100D03*
D15*
X401382600Y-73560100D03*
D16*
X399682600Y-74460100D03*
D15*
X399682600Y-73560100D03*
X399682600Y-75360100D03*
D17*
X400532600Y-75290100D03*
D18*
X400532600Y-73770100D03*
%TD*%
D15*
%TO.C,LD18\u002C6*%
X420686600Y-152639600D03*
D16*
X420686600Y-151739600D03*
D15*
X420686600Y-150839600D03*
D16*
X418986600Y-151739600D03*
D15*
X418986600Y-150839600D03*
X418986600Y-152639600D03*
D17*
X419836600Y-152569600D03*
D18*
X419836600Y-151049600D03*
%TD*%
D15*
%TO.C,LD17\u002C4*%
X401382600Y-114031600D03*
D16*
X401382600Y-113131600D03*
D15*
X401382600Y-112231600D03*
D16*
X399682600Y-113131600D03*
D15*
X399682600Y-112231600D03*
X399682600Y-114031600D03*
D17*
X400532600Y-113961600D03*
D18*
X400532600Y-112441600D03*
%TD*%
D15*
%TO.C,LD17\u002C3*%
X382078600Y-94626000D03*
D16*
X382078600Y-93726000D03*
D15*
X382078600Y-92826000D03*
D16*
X380378600Y-93726000D03*
D15*
X380378600Y-92826000D03*
X380378600Y-94626000D03*
D17*
X381228600Y-94556000D03*
D18*
X381228600Y-93036000D03*
%TD*%
D15*
%TO.C,LD17\u002C6*%
X391857600Y-152639600D03*
D16*
X391857600Y-151739600D03*
D15*
X391857600Y-150839600D03*
D16*
X390157600Y-151739600D03*
D15*
X390157600Y-150839600D03*
X390157600Y-152639600D03*
D17*
X391007600Y-152569600D03*
D18*
X391007600Y-151049600D03*
%TD*%
D15*
%TO.C,LD17\u002C5*%
X401382600Y-133335600D03*
D16*
X401382600Y-132435600D03*
D15*
X401382600Y-131535600D03*
D16*
X399682600Y-132435600D03*
D15*
X399682600Y-131535600D03*
X399682600Y-133335600D03*
D17*
X400532600Y-133265600D03*
D18*
X400532600Y-131745600D03*
%TD*%
D15*
%TO.C,LD17\u002C1*%
X382078600Y-75360100D03*
D16*
X382078600Y-74460100D03*
D15*
X382078600Y-73560100D03*
D16*
X380378600Y-74460100D03*
D15*
X380378600Y-73560100D03*
X380378600Y-75360100D03*
D17*
X381228600Y-75290100D03*
D18*
X381228600Y-73770100D03*
%TD*%
D15*
%TO.C,LD17\u002C0*%
X382002400Y-49464800D03*
D16*
X382002400Y-48564800D03*
D15*
X382002400Y-47664800D03*
D16*
X380302400Y-48564800D03*
D15*
X380302400Y-47664800D03*
X380302400Y-49464800D03*
D17*
X381152400Y-49394800D03*
D18*
X381152400Y-47874800D03*
%TD*%
D15*
%TO.C,LD17\u002C7*%
X381951600Y-68375100D03*
D16*
X381951600Y-67475100D03*
D15*
X381951600Y-66575100D03*
D16*
X380251600Y-67475100D03*
D15*
X380251600Y-66575100D03*
X380251600Y-68375100D03*
D17*
X381101600Y-68305100D03*
D18*
X381101600Y-66785100D03*
%TD*%
D15*
%TO.C,LD16\u002C5*%
X382332600Y-133335600D03*
D16*
X382332600Y-132435600D03*
D15*
X382332600Y-131535600D03*
D16*
X380632600Y-132435600D03*
D15*
X380632600Y-131535600D03*
X380632600Y-133335600D03*
D17*
X381482600Y-133265600D03*
D18*
X381482600Y-131745600D03*
%TD*%
D15*
%TO.C,LD16\u002C3*%
X358202600Y-94600600D03*
D16*
X358202600Y-93700600D03*
D15*
X358202600Y-92800600D03*
D16*
X356502600Y-93700600D03*
D15*
X356502600Y-92800600D03*
X356502600Y-94600600D03*
D17*
X357352600Y-94530600D03*
D18*
X357352600Y-93010600D03*
%TD*%
D15*
%TO.C,LD16\u002C1*%
X358280800Y-75385500D03*
D16*
X358280800Y-74485500D03*
D15*
X358280800Y-73585500D03*
D16*
X356580800Y-74485500D03*
D15*
X356580800Y-73585500D03*
X356580800Y-75385500D03*
D17*
X357430800Y-75315500D03*
D18*
X357430800Y-73795500D03*
%TD*%
D15*
%TO.C,LD16\u002C6*%
X358139100Y-153147600D03*
D16*
X358139100Y-152247600D03*
D15*
X358139100Y-151347600D03*
D16*
X356439100Y-152247600D03*
D15*
X356439100Y-151347600D03*
X356439100Y-153147600D03*
D17*
X357289100Y-153077600D03*
D18*
X357289100Y-151557600D03*
%TD*%
D15*
%TO.C,LD16\u002C0*%
X358697900Y-49452100D03*
D16*
X358697900Y-48552100D03*
D15*
X358697900Y-47652100D03*
D16*
X356997900Y-48552100D03*
D15*
X356997900Y-47652100D03*
X356997900Y-49452100D03*
D17*
X357847900Y-49382100D03*
D18*
X357847900Y-47862100D03*
%TD*%
D15*
%TO.C,LD16\u002C4*%
X382078600Y-114031600D03*
D16*
X382078600Y-113131600D03*
D15*
X382078600Y-112231600D03*
D16*
X380378600Y-113131600D03*
D15*
X380378600Y-112231600D03*
X380378600Y-114031600D03*
D17*
X381228600Y-113961600D03*
D18*
X381228600Y-112441600D03*
%TD*%
D15*
%TO.C,LD15\u002C0*%
X339393900Y-49452100D03*
D16*
X339393900Y-48552100D03*
D15*
X339393900Y-47652100D03*
D16*
X337693900Y-48552100D03*
D15*
X337693900Y-47652100D03*
X337693900Y-49452100D03*
D17*
X338543900Y-49382100D03*
D18*
X338543900Y-47862100D03*
%TD*%
D15*
%TO.C,LD15\u002C5*%
X338835100Y-133792800D03*
D16*
X338835100Y-132892800D03*
D15*
X338835100Y-131992800D03*
D16*
X337135100Y-132892800D03*
D15*
X337135100Y-131992800D03*
X337135100Y-133792800D03*
D17*
X337985100Y-133722800D03*
D18*
X337985100Y-132202800D03*
%TD*%
D15*
%TO.C,LD15\u002C6*%
X338835100Y-153147600D03*
D16*
X338835100Y-152247600D03*
D15*
X338835100Y-151347600D03*
D16*
X337135100Y-152247600D03*
D15*
X337135100Y-151347600D03*
X337135100Y-153147600D03*
D17*
X337985100Y-153077600D03*
D18*
X337985100Y-151557600D03*
%TD*%
D15*
%TO.C,LD15\u002C3*%
X338898600Y-94600600D03*
D16*
X338898600Y-93700600D03*
D15*
X338898600Y-92800600D03*
D16*
X337198600Y-93700600D03*
D15*
X337198600Y-92800600D03*
X337198600Y-94600600D03*
D17*
X338048600Y-94530600D03*
D18*
X338048600Y-93010600D03*
%TD*%
D15*
%TO.C,LD15\u002C1*%
X338898600Y-75360100D03*
D16*
X338898600Y-74460100D03*
D15*
X338898600Y-73560100D03*
D16*
X337198600Y-74460100D03*
D15*
X337198600Y-73560100D03*
X337198600Y-75360100D03*
D17*
X338048600Y-75290100D03*
D18*
X338048600Y-73770100D03*
%TD*%
D15*
%TO.C,LD14\u002C1*%
X319594600Y-75360100D03*
D16*
X319594600Y-74460100D03*
D15*
X319594600Y-73560100D03*
D16*
X317894600Y-74460100D03*
D15*
X317894600Y-73560100D03*
X317894600Y-75360100D03*
D17*
X318744600Y-75290100D03*
D18*
X318744600Y-73770100D03*
%TD*%
D15*
%TO.C,LD14\u002C3*%
X319594600Y-94600600D03*
D16*
X319594600Y-93700600D03*
D15*
X319594600Y-92800600D03*
D16*
X317894600Y-93700600D03*
D15*
X317894600Y-92800600D03*
X317894600Y-94600600D03*
D17*
X318744600Y-94530600D03*
D18*
X318744600Y-93010600D03*
%TD*%
D15*
%TO.C,LD14\u002C0*%
X319835900Y-49452100D03*
D16*
X319835900Y-48552100D03*
D15*
X319835900Y-47652100D03*
D16*
X318135900Y-48552100D03*
D15*
X318135900Y-47652100D03*
X318135900Y-49452100D03*
D17*
X318985900Y-49382100D03*
D18*
X318985900Y-47862100D03*
%TD*%
D15*
%TO.C,LD14\u002C6*%
X319531100Y-153147600D03*
D16*
X319531100Y-152247600D03*
D15*
X319531100Y-151347600D03*
D16*
X317831100Y-152247600D03*
D15*
X317831100Y-151347600D03*
X317831100Y-153147600D03*
D17*
X318681100Y-153077600D03*
D18*
X318681100Y-151557600D03*
%TD*%
D15*
%TO.C,LD13\u002C1*%
X286739700Y-75360100D03*
D16*
X286739700Y-74460100D03*
D15*
X286739700Y-73560100D03*
D16*
X285039700Y-74460100D03*
D15*
X285039700Y-73560100D03*
X285039700Y-75360100D03*
D17*
X285889700Y-75290100D03*
D18*
X285889700Y-73770100D03*
%TD*%
D15*
%TO.C,LD13\u002C2*%
X291934000Y-94626000D03*
D16*
X291934000Y-93726000D03*
D15*
X291934000Y-92826000D03*
D16*
X290234000Y-93726000D03*
D15*
X290234000Y-92826000D03*
X290234000Y-94626000D03*
D17*
X291084000Y-94556000D03*
D18*
X291084000Y-93036000D03*
%TD*%
D15*
%TO.C,LD12\u002C0*%
X297265460Y-49452100D03*
D16*
X297265460Y-48552100D03*
D15*
X297265460Y-47652100D03*
D16*
X295565460Y-48552100D03*
D15*
X295565460Y-47652100D03*
X295565460Y-49452100D03*
D17*
X296415460Y-49382100D03*
D18*
X296415460Y-47862100D03*
%TD*%
D15*
%TO.C,LD12\u002C1*%
X257974200Y-75360100D03*
D16*
X257974200Y-74460100D03*
D15*
X257974200Y-73560100D03*
D16*
X256274200Y-74460100D03*
D15*
X256274200Y-73560100D03*
X256274200Y-75360100D03*
D17*
X257124200Y-75290100D03*
D18*
X257124200Y-73770100D03*
%TD*%
D15*
%TO.C,LD12\u002C3*%
X284872800Y-114057000D03*
D16*
X284872800Y-113157000D03*
D15*
X284872800Y-112257000D03*
D16*
X283172800Y-113157000D03*
D15*
X283172800Y-112257000D03*
X283172800Y-114057000D03*
D17*
X284022800Y-113987000D03*
D18*
X284022800Y-112467000D03*
%TD*%
D15*
%TO.C,LD12\u002C2*%
X268007200Y-94600600D03*
D16*
X268007200Y-93700600D03*
D15*
X268007200Y-92800600D03*
D16*
X266307200Y-93700600D03*
D15*
X266307200Y-92800600D03*
X266307200Y-94600600D03*
D17*
X267157200Y-94530600D03*
D18*
X267157200Y-93010600D03*
%TD*%
D15*
%TO.C,LD11\u002C4*%
X280072200Y-133843600D03*
D16*
X280072200Y-132943600D03*
D15*
X280072200Y-132043600D03*
D16*
X278372200Y-132943600D03*
D15*
X278372200Y-132043600D03*
X278372200Y-133843600D03*
D17*
X279222200Y-133773600D03*
D18*
X279222200Y-132253600D03*
%TD*%
D15*
%TO.C,LD11\u002C2*%
X248703200Y-94600600D03*
D16*
X248703200Y-93700600D03*
D15*
X248703200Y-92800600D03*
D16*
X247003200Y-93700600D03*
D15*
X247003200Y-92800600D03*
X247003200Y-94600600D03*
D17*
X247853200Y-94530600D03*
D18*
X247853200Y-93010600D03*
%TD*%
D15*
%TO.C,LD11\u002C5*%
X294423200Y-153274600D03*
D16*
X294423200Y-152374600D03*
D15*
X294423200Y-151474600D03*
D16*
X292723200Y-152374600D03*
D15*
X292723200Y-151474600D03*
X292723200Y-153274600D03*
D17*
X293573200Y-153204600D03*
D18*
X293573200Y-151684600D03*
%TD*%
D15*
%TO.C,LD11\u002C0*%
X277961460Y-49452100D03*
D16*
X277961460Y-48552100D03*
D15*
X277961460Y-47652100D03*
D16*
X276261460Y-48552100D03*
D15*
X276261460Y-47652100D03*
X276261460Y-49452100D03*
D17*
X277111460Y-49382100D03*
D18*
X277111460Y-47862100D03*
%TD*%
D15*
%TO.C,LD11\u002C3*%
X253592700Y-114031600D03*
D16*
X253592700Y-113131600D03*
D15*
X253592700Y-112231600D03*
D16*
X251892700Y-113131600D03*
D15*
X251892700Y-112231600D03*
X251892700Y-114031600D03*
D17*
X252742700Y-113961600D03*
D18*
X252742700Y-112441600D03*
%TD*%
D15*
%TO.C,LD11\u002C1*%
X238670200Y-75360100D03*
D16*
X238670200Y-74460100D03*
D15*
X238670200Y-73560100D03*
D16*
X236970200Y-74460100D03*
D15*
X236970200Y-73560100D03*
X236970200Y-75360100D03*
D17*
X237820200Y-75290100D03*
D18*
X237820200Y-73770100D03*
%TD*%
D15*
%TO.C,LD10\u002C3*%
X234288700Y-114031600D03*
D16*
X234288700Y-113131600D03*
D15*
X234288700Y-112231600D03*
D16*
X232588700Y-113131600D03*
D15*
X232588700Y-112231600D03*
X232588700Y-114031600D03*
D17*
X233438700Y-113961600D03*
D18*
X233438700Y-112441600D03*
%TD*%
D15*
%TO.C,LD10\u002C4*%
X243686700Y-133843600D03*
D16*
X243686700Y-132943600D03*
D15*
X243686700Y-132043600D03*
D16*
X241986700Y-132943600D03*
D15*
X241986700Y-132043600D03*
X241986700Y-133843600D03*
D17*
X242836700Y-133773600D03*
D18*
X242836700Y-132253600D03*
%TD*%
D15*
%TO.C,LD10\u002C2*%
X229399200Y-94600600D03*
D16*
X229399200Y-93700600D03*
D15*
X229399200Y-92800600D03*
D16*
X227699200Y-93700600D03*
D15*
X227699200Y-92800600D03*
X227699200Y-94600600D03*
D17*
X228549200Y-94530600D03*
D18*
X228549200Y-93010600D03*
%TD*%
D15*
%TO.C,LD10\u002C1*%
X219366200Y-75360100D03*
D16*
X219366200Y-74460100D03*
D15*
X219366200Y-73560100D03*
D16*
X217666200Y-74460100D03*
D15*
X217666200Y-73560100D03*
X217666200Y-75360100D03*
D17*
X218516200Y-75290100D03*
D18*
X218516200Y-73770100D03*
%TD*%
D15*
%TO.C,LD10\u002C5*%
X270356700Y-153274600D03*
D16*
X270356700Y-152374600D03*
D15*
X270356700Y-151474600D03*
D16*
X268656700Y-152374600D03*
D15*
X268656700Y-151474600D03*
X268656700Y-153274600D03*
D17*
X269506700Y-153204600D03*
D18*
X269506700Y-151684600D03*
%TD*%
D15*
%TO.C,LD10\u002C0*%
X258657460Y-49452100D03*
D16*
X258657460Y-48552100D03*
D15*
X258657460Y-47652100D03*
D16*
X256957460Y-48552100D03*
D15*
X256957460Y-47652100D03*
X256957460Y-49452100D03*
D17*
X257807460Y-49382100D03*
D18*
X257807460Y-47862100D03*
%TD*%
D15*
%TO.C,LD9\u002C2*%
X210095200Y-94600600D03*
D16*
X210095200Y-93700600D03*
D15*
X210095200Y-92800600D03*
D16*
X208395200Y-93700600D03*
D15*
X208395200Y-92800600D03*
X208395200Y-94600600D03*
D17*
X209245200Y-94530600D03*
D18*
X209245200Y-93010600D03*
%TD*%
D15*
%TO.C,LD9\u002C5*%
X246163200Y-153274600D03*
D16*
X246163200Y-152374600D03*
D15*
X246163200Y-151474600D03*
D16*
X244463200Y-152374600D03*
D15*
X244463200Y-151474600D03*
X244463200Y-153274600D03*
D17*
X245313200Y-153204600D03*
D18*
X245313200Y-151684600D03*
%TD*%
D15*
%TO.C,LD9\u002C3*%
X214984700Y-114031600D03*
D16*
X214984700Y-113131600D03*
D15*
X214984700Y-112231600D03*
D16*
X213284700Y-113131600D03*
D15*
X213284700Y-112231600D03*
X213284700Y-114031600D03*
D17*
X214134700Y-113961600D03*
D18*
X214134700Y-112441600D03*
%TD*%
D15*
%TO.C,LD9\u002C4*%
X224382700Y-133843600D03*
D16*
X224382700Y-132943600D03*
D15*
X224382700Y-132043600D03*
D16*
X222682700Y-132943600D03*
D15*
X222682700Y-132043600D03*
X222682700Y-133843600D03*
D17*
X223532700Y-133773600D03*
D18*
X223532700Y-132253600D03*
%TD*%
D15*
%TO.C,LD9\u002C1*%
X200062200Y-75360100D03*
D16*
X200062200Y-74460100D03*
D15*
X200062200Y-73560100D03*
D16*
X198362200Y-74460100D03*
D15*
X198362200Y-73560100D03*
X198362200Y-75360100D03*
D17*
X199212200Y-75290100D03*
D18*
X199212200Y-73770100D03*
%TD*%
D15*
%TO.C,LD9\u002C0*%
X239353460Y-49452100D03*
D16*
X239353460Y-48552100D03*
D15*
X239353460Y-47652100D03*
D16*
X237653460Y-48552100D03*
D15*
X237653460Y-47652100D03*
X237653460Y-49452100D03*
D17*
X238503460Y-49382100D03*
D18*
X238503460Y-47862100D03*
%TD*%
D15*
%TO.C,LD8\u002C5*%
X222033200Y-153274600D03*
D16*
X222033200Y-152374600D03*
D15*
X222033200Y-151474600D03*
D16*
X220333200Y-152374600D03*
D15*
X220333200Y-151474600D03*
X220333200Y-153274600D03*
D17*
X221183200Y-153204600D03*
D18*
X221183200Y-151684600D03*
%TD*%
D15*
%TO.C,LD8\u002C1*%
X180758200Y-75360100D03*
D16*
X180758200Y-74460100D03*
D15*
X180758200Y-73560100D03*
D16*
X179058200Y-74460100D03*
D15*
X179058200Y-73560100D03*
X179058200Y-75360100D03*
D17*
X179908200Y-75290100D03*
D18*
X179908200Y-73770100D03*
%TD*%
D15*
%TO.C,LD8\u002C2*%
X190791200Y-94600600D03*
D16*
X190791200Y-93700600D03*
D15*
X190791200Y-92800600D03*
D16*
X189091200Y-93700600D03*
D15*
X189091200Y-92800600D03*
X189091200Y-94600600D03*
D17*
X189941200Y-94530600D03*
D18*
X189941200Y-93010600D03*
%TD*%
D15*
%TO.C,LD8\u002C0*%
X212937460Y-49452100D03*
D16*
X212937460Y-48552100D03*
D15*
X212937460Y-47652100D03*
D16*
X211237460Y-48552100D03*
D15*
X211237460Y-47652100D03*
X211237460Y-49452100D03*
D17*
X212087460Y-49382100D03*
D18*
X212087460Y-47862100D03*
%TD*%
D15*
%TO.C,LD8\u002C4*%
X205078700Y-133843600D03*
D16*
X205078700Y-132943600D03*
D15*
X205078700Y-132043600D03*
D16*
X203378700Y-132943600D03*
D15*
X203378700Y-132043600D03*
X203378700Y-133843600D03*
D17*
X204228700Y-133773600D03*
D18*
X204228700Y-132253600D03*
%TD*%
D15*
%TO.C,LD8\u002C3*%
X195680700Y-114031600D03*
D16*
X195680700Y-113131600D03*
D15*
X195680700Y-112231600D03*
D16*
X193980700Y-113131600D03*
D15*
X193980700Y-112231600D03*
X193980700Y-114031600D03*
D17*
X194830700Y-113961600D03*
D18*
X194830700Y-112441600D03*
%TD*%
D15*
%TO.C,LD7\u002C2*%
X171487200Y-94600600D03*
D16*
X171487200Y-93700600D03*
D15*
X171487200Y-92800600D03*
D16*
X169787200Y-93700600D03*
D15*
X169787200Y-92800600D03*
X169787200Y-94600600D03*
D17*
X170637200Y-94530600D03*
D18*
X170637200Y-93010600D03*
%TD*%
D15*
%TO.C,LD7\u002C1*%
X161454200Y-75360100D03*
D16*
X161454200Y-74460100D03*
D15*
X161454200Y-73560100D03*
D16*
X159754200Y-74460100D03*
D15*
X159754200Y-73560100D03*
X159754200Y-75360100D03*
D17*
X160604200Y-75290100D03*
D18*
X160604200Y-73770100D03*
%TD*%
D15*
%TO.C,LD7\u002C3*%
X176376700Y-114031600D03*
D16*
X176376700Y-113131600D03*
D15*
X176376700Y-112231600D03*
D16*
X174676700Y-113131600D03*
D15*
X174676700Y-112231600D03*
X174676700Y-114031600D03*
D17*
X175526700Y-113961600D03*
D18*
X175526700Y-112441600D03*
%TD*%
D15*
%TO.C,LD7\u002C4*%
X185774700Y-133843600D03*
D16*
X185774700Y-132943600D03*
D15*
X185774700Y-132043600D03*
D16*
X184074700Y-132943600D03*
D15*
X184074700Y-132043600D03*
X184074700Y-133843600D03*
D17*
X184924700Y-133773600D03*
D18*
X184924700Y-132253600D03*
%TD*%
D15*
%TO.C,LD7\u002C0*%
X193633460Y-49452100D03*
D16*
X193633460Y-48552100D03*
D15*
X193633460Y-47652100D03*
D16*
X191933460Y-48552100D03*
D15*
X191933460Y-47652100D03*
X191933460Y-49452100D03*
D17*
X192783460Y-49382100D03*
D18*
X192783460Y-47862100D03*
%TD*%
D15*
%TO.C,LD6\u002C1*%
X142150200Y-75360100D03*
D16*
X142150200Y-74460100D03*
D15*
X142150200Y-73560100D03*
D16*
X140450200Y-74460100D03*
D15*
X140450200Y-73560100D03*
X140450200Y-75360100D03*
D17*
X141300200Y-75290100D03*
D18*
X141300200Y-73770100D03*
%TD*%
D15*
%TO.C,LD6\u002C3*%
X157072700Y-114031600D03*
D16*
X157072700Y-113131600D03*
D15*
X157072700Y-112231600D03*
D16*
X155372700Y-113131600D03*
D15*
X155372700Y-112231600D03*
X155372700Y-114031600D03*
D17*
X156222700Y-113961600D03*
D18*
X156222700Y-112441600D03*
%TD*%
D15*
%TO.C,LD6\u002C4*%
X166470700Y-133843600D03*
D16*
X166470700Y-132943600D03*
D15*
X166470700Y-132043600D03*
D16*
X164770700Y-132943600D03*
D15*
X164770700Y-132043600D03*
X164770700Y-133843600D03*
D17*
X165620700Y-133773600D03*
D18*
X165620700Y-132253600D03*
%TD*%
D15*
%TO.C,LD6\u002C0*%
X174329460Y-49452100D03*
D16*
X174329460Y-48552100D03*
D15*
X174329460Y-47652100D03*
D16*
X172629460Y-48552100D03*
D15*
X172629460Y-47652100D03*
X172629460Y-49452100D03*
D17*
X173479460Y-49382100D03*
D18*
X173479460Y-47862100D03*
%TD*%
D15*
%TO.C,LD6\u002C2*%
X152183200Y-94600600D03*
D16*
X152183200Y-93700600D03*
D15*
X152183200Y-92800600D03*
D16*
X150483200Y-93700600D03*
D15*
X150483200Y-92800600D03*
X150483200Y-94600600D03*
D17*
X151333200Y-94530600D03*
D18*
X151333200Y-93010600D03*
%TD*%
D15*
%TO.C,LD5\u002C1*%
X122846200Y-75360100D03*
D16*
X122846200Y-74460100D03*
D15*
X122846200Y-73560100D03*
D16*
X121146200Y-74460100D03*
D15*
X121146200Y-73560100D03*
X121146200Y-75360100D03*
D17*
X121996200Y-75290100D03*
D18*
X121996200Y-73770100D03*
%TD*%
D15*
%TO.C,LD5\u002C2*%
X132879200Y-94600600D03*
D16*
X132879200Y-93700600D03*
D15*
X132879200Y-92800600D03*
D16*
X131179200Y-93700600D03*
D15*
X131179200Y-92800600D03*
X131179200Y-94600600D03*
D17*
X132029200Y-94530600D03*
D18*
X132029200Y-93010600D03*
%TD*%
D15*
%TO.C,LD5\u002C4*%
X147166700Y-133843600D03*
D16*
X147166700Y-132943600D03*
D15*
X147166700Y-132043600D03*
D16*
X145466700Y-132943600D03*
D15*
X145466700Y-132043600D03*
X145466700Y-133843600D03*
D17*
X146316700Y-133773600D03*
D18*
X146316700Y-132253600D03*
%TD*%
D15*
%TO.C,LD5\u002C0*%
X155025460Y-49452100D03*
D16*
X155025460Y-48552100D03*
D15*
X155025460Y-47652100D03*
D16*
X153325460Y-48552100D03*
D15*
X153325460Y-47652100D03*
X153325460Y-49452100D03*
D17*
X154175460Y-49382100D03*
D18*
X154175460Y-47862100D03*
%TD*%
D15*
%TO.C,LD5\u002C3*%
X137768700Y-114031600D03*
D16*
X137768700Y-113131600D03*
D15*
X137768700Y-112231600D03*
D16*
X136068700Y-113131600D03*
D15*
X136068700Y-112231600D03*
X136068700Y-114031600D03*
D17*
X136918700Y-113961600D03*
D18*
X136918700Y-112441600D03*
%TD*%
D15*
%TO.C,LD4\u002C3*%
X118464700Y-114031600D03*
D16*
X118464700Y-113131600D03*
D15*
X118464700Y-112231600D03*
D16*
X116764700Y-113131600D03*
D15*
X116764700Y-112231600D03*
X116764700Y-114031600D03*
D17*
X117614700Y-113961600D03*
D18*
X117614700Y-112441600D03*
%TD*%
D15*
%TO.C,LD4\u002C4*%
X127862700Y-133843600D03*
D16*
X127862700Y-132943600D03*
D15*
X127862700Y-132043600D03*
D16*
X126162700Y-132943600D03*
D15*
X126162700Y-132043600D03*
X126162700Y-133843600D03*
D17*
X127012700Y-133773600D03*
D18*
X127012700Y-132253600D03*
%TD*%
D15*
%TO.C,LD4\u002C0*%
X123529460Y-49452100D03*
D16*
X123529460Y-48552100D03*
D15*
X123529460Y-47652100D03*
D16*
X121829460Y-48552100D03*
D15*
X121829460Y-47652100D03*
X121829460Y-49452100D03*
D17*
X122679460Y-49382100D03*
D18*
X122679460Y-47862100D03*
%TD*%
D15*
%TO.C,LD4\u002C2*%
X113575200Y-94600600D03*
D16*
X113575200Y-93700600D03*
D15*
X113575200Y-92800600D03*
D16*
X111875200Y-93700600D03*
D15*
X111875200Y-92800600D03*
X111875200Y-94600600D03*
D17*
X112725200Y-94530600D03*
D18*
X112725200Y-93010600D03*
%TD*%
D15*
%TO.C,LD4\u002C1*%
X103542200Y-75360100D03*
D16*
X103542200Y-74460100D03*
D15*
X103542200Y-73560100D03*
D16*
X101842200Y-74460100D03*
D15*
X101842200Y-73560100D03*
X101842200Y-75360100D03*
D17*
X102692200Y-75290100D03*
D18*
X102692200Y-73770100D03*
%TD*%
D15*
%TO.C,LD3\u002C0*%
X104225460Y-49452100D03*
D16*
X104225460Y-48552100D03*
D15*
X104225460Y-47652100D03*
D16*
X102525460Y-48552100D03*
D15*
X102525460Y-47652100D03*
X102525460Y-49452100D03*
D17*
X103375460Y-49382100D03*
D18*
X103375460Y-47862100D03*
%TD*%
D15*
%TO.C,LD3\u002C1*%
X84238200Y-75360100D03*
D16*
X84238200Y-74460100D03*
D15*
X84238200Y-73560100D03*
D16*
X82538200Y-74460100D03*
D15*
X82538200Y-73560100D03*
X82538200Y-75360100D03*
D17*
X83388200Y-75290100D03*
D18*
X83388200Y-73770100D03*
%TD*%
D15*
%TO.C,LD3\u002C2*%
X94271200Y-94600600D03*
D16*
X94271200Y-93700600D03*
D15*
X94271200Y-92800600D03*
D16*
X92571200Y-93700600D03*
D15*
X92571200Y-92800600D03*
X92571200Y-94600600D03*
D17*
X93421200Y-94530600D03*
D18*
X93421200Y-93010600D03*
%TD*%
D15*
%TO.C,LD3\u002C4*%
X108558700Y-133843600D03*
D16*
X108558700Y-132943600D03*
D15*
X108558700Y-132043600D03*
D16*
X106858700Y-132943600D03*
D15*
X106858700Y-132043600D03*
X106858700Y-133843600D03*
D17*
X107708700Y-133773600D03*
D18*
X107708700Y-132253600D03*
%TD*%
D15*
%TO.C,LD3\u002C5*%
X150278200Y-153274600D03*
D16*
X150278200Y-152374600D03*
D15*
X150278200Y-151474600D03*
D16*
X148578200Y-152374600D03*
D15*
X148578200Y-151474600D03*
X148578200Y-153274600D03*
D17*
X149428200Y-153204600D03*
D18*
X149428200Y-151684600D03*
%TD*%
D15*
%TO.C,LD3\u002C3*%
X99160700Y-114031600D03*
D16*
X99160700Y-113131600D03*
D15*
X99160700Y-112231600D03*
D16*
X97460700Y-113131600D03*
D15*
X97460700Y-112231600D03*
X97460700Y-114031600D03*
D17*
X98310700Y-113961600D03*
D18*
X98310700Y-112441600D03*
%TD*%
D15*
%TO.C,LD2\u002C3*%
X79856700Y-114031600D03*
D16*
X79856700Y-113131600D03*
D15*
X79856700Y-112231600D03*
D16*
X78156700Y-113131600D03*
D15*
X78156700Y-112231600D03*
X78156700Y-114031600D03*
D17*
X79006700Y-113961600D03*
D18*
X79006700Y-112441600D03*
%TD*%
D15*
%TO.C,LD2\u002C5*%
X78396200Y-153274600D03*
D16*
X78396200Y-152374600D03*
D15*
X78396200Y-151474600D03*
D16*
X76696200Y-152374600D03*
D15*
X76696200Y-151474600D03*
X76696200Y-153274600D03*
D17*
X77546200Y-153204600D03*
D18*
X77546200Y-151684600D03*
%TD*%
D15*
%TO.C,LD2\u002C4*%
X89114700Y-133843600D03*
D16*
X89114700Y-132943600D03*
D15*
X89114700Y-132043600D03*
D16*
X87414700Y-132943600D03*
D15*
X87414700Y-132043600D03*
X87414700Y-133843600D03*
D17*
X88264700Y-133773600D03*
D18*
X88264700Y-132253600D03*
%TD*%
D15*
%TO.C,LD2\u002C0*%
X84921460Y-49452100D03*
D16*
X84921460Y-48552100D03*
D15*
X84921460Y-47652100D03*
D16*
X83221460Y-48552100D03*
D15*
X83221460Y-47652100D03*
X83221460Y-49452100D03*
D17*
X84071460Y-49382100D03*
D18*
X84071460Y-47862100D03*
%TD*%
D15*
%TO.C,LD2\u002C1*%
X65442200Y-75360100D03*
D16*
X65442200Y-74460100D03*
D15*
X65442200Y-73560100D03*
D16*
X63742200Y-74460100D03*
D15*
X63742200Y-73560100D03*
X63742200Y-75360100D03*
D17*
X64592200Y-75290100D03*
D18*
X64592200Y-73770100D03*
%TD*%
D15*
%TO.C,LD2\u002C2*%
X74967200Y-94600600D03*
D16*
X74967200Y-93700600D03*
D15*
X74967200Y-92800600D03*
D16*
X73267200Y-93700600D03*
D15*
X73267200Y-92800600D03*
X73267200Y-94600600D03*
D17*
X74117200Y-94530600D03*
D18*
X74117200Y-93010600D03*
%TD*%
D15*
%TO.C,LD1\u002C0*%
X65617460Y-49452100D03*
D16*
X65617460Y-48552100D03*
D15*
X65617460Y-47652100D03*
D16*
X63917460Y-48552100D03*
D15*
X63917460Y-47652100D03*
X63917460Y-49452100D03*
D17*
X64767460Y-49382100D03*
D18*
X64767460Y-47862100D03*
%TD*%
D15*
%TO.C,LD1\u002C4*%
X69950700Y-133843600D03*
D16*
X69950700Y-132943600D03*
D15*
X69950700Y-132043600D03*
D16*
X68250700Y-132943600D03*
D15*
X68250700Y-132043600D03*
X68250700Y-133843600D03*
D17*
X69100700Y-133773600D03*
D18*
X69100700Y-132253600D03*
%TD*%
D15*
%TO.C,LD1\u002C1*%
X46239800Y-75372800D03*
D16*
X46239800Y-74472800D03*
D15*
X46239800Y-73572800D03*
D16*
X44539800Y-74472800D03*
D15*
X44539800Y-73572800D03*
X44539800Y-75372800D03*
D17*
X45389800Y-75302800D03*
D18*
X45389800Y-73782800D03*
%TD*%
D15*
%TO.C,LD1\u002C3*%
X60552700Y-114031600D03*
D16*
X60552700Y-113131600D03*
D15*
X60552700Y-112231600D03*
D16*
X58852700Y-113131600D03*
D15*
X58852700Y-112231600D03*
X58852700Y-114031600D03*
D17*
X59702700Y-113961600D03*
D18*
X59702700Y-112441600D03*
%TD*%
D15*
%TO.C,LD1\u002C5*%
X54012200Y-153274600D03*
D16*
X54012200Y-152374600D03*
D15*
X54012200Y-151474600D03*
D16*
X52312200Y-152374600D03*
D15*
X52312200Y-151474600D03*
X52312200Y-153274600D03*
D17*
X53162200Y-153204600D03*
D18*
X53162200Y-151684600D03*
%TD*%
D15*
%TO.C,LD1\u002C2*%
X55663200Y-94600600D03*
D16*
X55663200Y-93700600D03*
D15*
X55663200Y-92800600D03*
D16*
X53963200Y-93700600D03*
D15*
X53963200Y-92800600D03*
X53963200Y-94600600D03*
D17*
X54813200Y-94530600D03*
D18*
X54813200Y-93010600D03*
%TD*%
D15*
%TO.C,LD0\u002C2*%
X31736400Y-94575200D03*
D16*
X31736400Y-93675200D03*
D15*
X31736400Y-92775200D03*
D16*
X30036400Y-93675200D03*
D15*
X30036400Y-92775200D03*
X30036400Y-94575200D03*
D17*
X30886400Y-94505200D03*
D18*
X30886400Y-92985200D03*
%TD*%
D15*
%TO.C,LD0\u002C1*%
X27024700Y-75372800D03*
D16*
X27024700Y-74472800D03*
D15*
X27024700Y-73572800D03*
D16*
X25324700Y-74472800D03*
D15*
X25324700Y-73572800D03*
X25324700Y-75372800D03*
D17*
X26174700Y-75302800D03*
D18*
X26174700Y-73782800D03*
%TD*%
D15*
%TO.C,LD0\u002C5*%
X29437700Y-153223800D03*
D16*
X29437700Y-152323800D03*
D15*
X29437700Y-151423800D03*
D16*
X27737700Y-152323800D03*
D15*
X27737700Y-151423800D03*
X27737700Y-153223800D03*
D17*
X28587700Y-153153800D03*
D18*
X28587700Y-151633800D03*
%TD*%
D15*
%TO.C,LD0\u002C3*%
X34073200Y-114107800D03*
D16*
X34073200Y-113207800D03*
D15*
X34073200Y-112307800D03*
D16*
X32373200Y-113207800D03*
D15*
X32373200Y-112307800D03*
X32373200Y-114107800D03*
D17*
X33223200Y-114037800D03*
D18*
X33223200Y-112517800D03*
%TD*%
D15*
%TO.C,LD0\u002C0*%
X27088200Y-49414000D03*
D16*
X27088200Y-48514000D03*
D15*
X27088200Y-47614000D03*
D16*
X25388200Y-48514000D03*
D15*
X25388200Y-47614000D03*
X25388200Y-49414000D03*
D17*
X26238200Y-49344000D03*
D18*
X26238200Y-47824000D03*
%TD*%
D15*
%TO.C,LD0\u002C4*%
X38835700Y-133843600D03*
D16*
X38835700Y-132943600D03*
D15*
X38835700Y-132043600D03*
D16*
X37135700Y-132943600D03*
D15*
X37135700Y-132043600D03*
X37135700Y-133843600D03*
D17*
X37985700Y-133773600D03*
D18*
X37985700Y-132253600D03*
%TD*%
D10*
%TO.C,K12\u002C3*%
X278968200Y-120002300D03*
X289128200Y-120002300D03*
D11*
X284048200Y-120002300D03*
D12*
X281508200Y-125082300D03*
X287858200Y-122542300D03*
%TD*%
D10*
%TO.C,K16\u002C1*%
X352272600Y-81318100D03*
X362432600Y-81318100D03*
D11*
X357352600Y-81318100D03*
D12*
X354812600Y-86398100D03*
X361162600Y-83858100D03*
%TD*%
D10*
%TO.C,K14\u002C1*%
X313664600Y-81318100D03*
X323824600Y-81318100D03*
D11*
X318744600Y-81318100D03*
D12*
X316204600Y-86398100D03*
X322554600Y-83858100D03*
%TD*%
D10*
%TO.C,K3\u002C2*%
X88341200Y-100558600D03*
X98501200Y-100558600D03*
D11*
X93421200Y-100558600D03*
D12*
X90881200Y-105638600D03*
X97231200Y-103098600D03*
%TD*%
D10*
%TO.C,K8\u002C0*%
X206816960Y-55537100D03*
X216976960Y-55537100D03*
D11*
X211896960Y-55537100D03*
D12*
X209356960Y-60617100D03*
X215706960Y-58077100D03*
%TD*%
D10*
%TO.C,K0\u002C2*%
X25793700Y-100533200D03*
X35953700Y-100533200D03*
D11*
X30873700Y-100533200D03*
D12*
X28333700Y-105613200D03*
X34683700Y-103073200D03*
%TD*%
D10*
%TO.C,K18\u002C4*%
X414756600Y-119926100D03*
X424916600Y-119926100D03*
D11*
X419836600Y-119926100D03*
D12*
X417296600Y-125006100D03*
X423646600Y-122466100D03*
%TD*%
D10*
%TO.C,K10\u002C3*%
X228358700Y-119989600D03*
X238518700Y-119989600D03*
D11*
X233438700Y-119989600D03*
D12*
X230898700Y-125069600D03*
X237248700Y-122529600D03*
%TD*%
D10*
%TO.C,K13\u002C1*%
X280809700Y-81267300D03*
X290969700Y-81267300D03*
D11*
X285889700Y-81267300D03*
D12*
X283349700Y-86347300D03*
X289699700Y-83807300D03*
%TD*%
D10*
%TO.C,K19\u002C4*%
X434060600Y-110210600D03*
X444220600Y-110210600D03*
D11*
X439140600Y-110210600D03*
D12*
X436600600Y-115290600D03*
X442950600Y-112750600D03*
%TD*%
D10*
%TO.C,K11\u002C4*%
X274142200Y-139750800D03*
X284302200Y-139750800D03*
D11*
X279222200Y-139750800D03*
D12*
X276682200Y-144830800D03*
X283032200Y-142290800D03*
%TD*%
D19*
%TO.C,D0\u002C3*%
X25603200Y-125235800D03*
D20*
X25603200Y-117435800D03*
%TD*%
D19*
%TO.C,D0\u002C5*%
X20967700Y-164351800D03*
D20*
X20967700Y-156551800D03*
%TD*%
D19*
%TO.C,D0\u002C4*%
X30365700Y-144984300D03*
D20*
X30365700Y-137184300D03*
%TD*%
D19*
%TO.C,D0\u002C0*%
X18618200Y-60656300D03*
D20*
X18618200Y-52856300D03*
%TD*%
D19*
%TO.C,D0\u002C2*%
X23063200Y-105677800D03*
D20*
X23063200Y-97877800D03*
%TD*%
D19*
%TO.C,D0\u002C1*%
X18554700Y-86500800D03*
D20*
X18554700Y-78700800D03*
%TD*%
D19*
%TO.C,D1\u002C3*%
X51892200Y-125108800D03*
D20*
X51892200Y-117308800D03*
%TD*%
D19*
%TO.C,D1\u002C0*%
X56766460Y-60707100D03*
D20*
X56766460Y-52907100D03*
%TD*%
D19*
%TO.C,D1\u002C4*%
X61290200Y-144920800D03*
D20*
X61290200Y-137120800D03*
%TD*%
D19*
%TO.C,D1\u002C5*%
X45351700Y-164351800D03*
D20*
X45351700Y-156551800D03*
%TD*%
D19*
%TO.C,D1\u002C1*%
X37858700Y-86500800D03*
D20*
X37858700Y-78700800D03*
%TD*%
D19*
%TO.C,D1\u002C2*%
X47002700Y-105677800D03*
D20*
X47002700Y-97877800D03*
%TD*%
D19*
%TO.C,D2\u002C4*%
X80594200Y-144920800D03*
D20*
X80594200Y-137120800D03*
%TD*%
D19*
%TO.C,D2\u002C5*%
X69735700Y-164351800D03*
D20*
X69735700Y-156551800D03*
%TD*%
D19*
%TO.C,D2\u002C0*%
X76070460Y-60656300D03*
D20*
X76070460Y-52856300D03*
%TD*%
D19*
%TO.C,D2\u002C2*%
X66306700Y-105677800D03*
D20*
X66306700Y-97877800D03*
%TD*%
D19*
%TO.C,D2\u002C1*%
X56781700Y-86437300D03*
D20*
X56781700Y-78637300D03*
%TD*%
D19*
%TO.C,D2\u002C3*%
X71196200Y-125108800D03*
D20*
X71196200Y-117308800D03*
%TD*%
D19*
%TO.C,D3\u002C0*%
X95374460Y-60656300D03*
D20*
X95374460Y-52856300D03*
%TD*%
D19*
%TO.C,D3\u002C1*%
X75577700Y-86437300D03*
D20*
X75577700Y-78637300D03*
%TD*%
D19*
%TO.C,D3\u002C4*%
X99898200Y-144920800D03*
D20*
X99898200Y-137120800D03*
%TD*%
D19*
%TO.C,D3\u002C2*%
X85610700Y-105677800D03*
D20*
X85610700Y-97877800D03*
%TD*%
D19*
%TO.C,D3\u002C5*%
X141617700Y-164351800D03*
D20*
X141617700Y-156551800D03*
%TD*%
D19*
%TO.C,D3\u002C3*%
X90500200Y-125108800D03*
D20*
X90500200Y-117308800D03*
%TD*%
D19*
%TO.C,D4\u002C4*%
X119202200Y-144920800D03*
D20*
X119202200Y-137120800D03*
%TD*%
D19*
%TO.C,D4\u002C3*%
X109804200Y-125108800D03*
D20*
X109804200Y-117308800D03*
%TD*%
D19*
%TO.C,D4\u002C1*%
X94881700Y-86437300D03*
D20*
X94881700Y-78637300D03*
%TD*%
D19*
%TO.C,D4\u002C0*%
X114678460Y-60656300D03*
D20*
X114678460Y-52856300D03*
%TD*%
D19*
%TO.C,D4\u002C2*%
X104914700Y-105677800D03*
D20*
X104914700Y-97877800D03*
%TD*%
D19*
%TO.C,D5\u002C0*%
X146174460Y-60656300D03*
D20*
X146174460Y-52856300D03*
%TD*%
D19*
%TO.C,D5\u002C2*%
X124218700Y-105677800D03*
D20*
X124218700Y-97877800D03*
%TD*%
D19*
%TO.C,D5\u002C1*%
X114185700Y-86437300D03*
D20*
X114185700Y-78637300D03*
%TD*%
D19*
%TO.C,D5\u002C3*%
X129108200Y-125159600D03*
D20*
X129108200Y-117359600D03*
%TD*%
D19*
%TO.C,D5\u002C4*%
X138506200Y-144971600D03*
D20*
X138506200Y-137171600D03*
%TD*%
D19*
%TO.C,D6\u002C0*%
X165478460Y-60656300D03*
D20*
X165478460Y-52856300D03*
%TD*%
D19*
%TO.C,D6\u002C3*%
X148412200Y-125108800D03*
D20*
X148412200Y-117308800D03*
%TD*%
D19*
%TO.C,D6\u002C4*%
X157810200Y-144920800D03*
D20*
X157810200Y-137120800D03*
%TD*%
D19*
%TO.C,D6\u002C1*%
X133489700Y-86437300D03*
D20*
X133489700Y-78637300D03*
%TD*%
D19*
%TO.C,D6\u002C2*%
X143522700Y-105677800D03*
D20*
X143522700Y-97877800D03*
%TD*%
D19*
%TO.C,D7\u002C4*%
X177114200Y-144971600D03*
D20*
X177114200Y-137171600D03*
%TD*%
D19*
%TO.C,D7\u002C2*%
X162826700Y-105728600D03*
D20*
X162826700Y-97928600D03*
%TD*%
D19*
%TO.C,D7\u002C1*%
X152793700Y-86437300D03*
D20*
X152793700Y-78637300D03*
%TD*%
D19*
%TO.C,D7\u002C0*%
X184782460Y-60656300D03*
D20*
X184782460Y-52856300D03*
%TD*%
D19*
%TO.C,D7\u002C3*%
X167716200Y-125108800D03*
D20*
X167716200Y-117308800D03*
%TD*%
D19*
%TO.C,D8\u002C0*%
X204086460Y-60707100D03*
D20*
X204086460Y-52907100D03*
%TD*%
D19*
%TO.C,D8\u002C3*%
X187020200Y-125108800D03*
D20*
X187020200Y-117308800D03*
%TD*%
D19*
%TO.C,D8\u002C1*%
X172097700Y-86437300D03*
D20*
X172097700Y-78637300D03*
%TD*%
D19*
%TO.C,D8\u002C2*%
X182130700Y-105677800D03*
D20*
X182130700Y-97877800D03*
%TD*%
D19*
%TO.C,D8\u002C5*%
X213372700Y-164415300D03*
D20*
X213372700Y-156615300D03*
%TD*%
D19*
%TO.C,D8\u002C4*%
X196418200Y-144920800D03*
D20*
X196418200Y-137120800D03*
%TD*%
D19*
%TO.C,D9\u002C2*%
X201434700Y-105677800D03*
D20*
X201434700Y-97877800D03*
%TD*%
D19*
%TO.C,D9\u002C1*%
X191401700Y-86488100D03*
D20*
X191401700Y-78688100D03*
%TD*%
D19*
%TO.C,D9\u002C3*%
X206324200Y-125108800D03*
D20*
X206324200Y-117308800D03*
%TD*%
D19*
%TO.C,D9\u002C4*%
X215722200Y-144920800D03*
D20*
X215722200Y-137120800D03*
%TD*%
D19*
%TO.C,D9\u002C5*%
X237502700Y-164351800D03*
D20*
X237502700Y-156551800D03*
%TD*%
D19*
%TO.C,D9\u002C0*%
X230502460Y-60656300D03*
D20*
X230502460Y-52856300D03*
%TD*%
D19*
%TO.C,D10\u002C4*%
X235026200Y-144971600D03*
D20*
X235026200Y-137171600D03*
%TD*%
D19*
%TO.C,D10\u002C5*%
X261696200Y-164351800D03*
D20*
X261696200Y-156551800D03*
%TD*%
D19*
%TO.C,D10\u002C1*%
X210705700Y-86437300D03*
D20*
X210705700Y-78637300D03*
%TD*%
D19*
%TO.C,D10\u002C0*%
X249806460Y-60656300D03*
D20*
X249806460Y-52856300D03*
%TD*%
D19*
%TO.C,D10\u002C2*%
X220738700Y-105728600D03*
D20*
X220738700Y-97928600D03*
%TD*%
D19*
%TO.C,D10\u002C3*%
X225628200Y-125108800D03*
D20*
X225628200Y-117308800D03*
%TD*%
D19*
%TO.C,D11\u002C0*%
X269110460Y-60656300D03*
D20*
X269110460Y-52856300D03*
%TD*%
D19*
%TO.C,D11\u002C1*%
X230009700Y-86437300D03*
D20*
X230009700Y-78637300D03*
%TD*%
D19*
%TO.C,D11\u002C3*%
X244932200Y-125108800D03*
D20*
X244932200Y-117308800D03*
%TD*%
D19*
%TO.C,D11\u002C2*%
X240042700Y-105677800D03*
D20*
X240042700Y-97877800D03*
%TD*%
D19*
%TO.C,D11\u002C4*%
X271602200Y-144920800D03*
D20*
X271602200Y-137120800D03*
%TD*%
D19*
%TO.C,D11\u002C5*%
X285762700Y-164351800D03*
D20*
X285762700Y-156551800D03*
%TD*%
D19*
%TO.C,D12\u002C3*%
X276428200Y-125172300D03*
D20*
X276428200Y-117372300D03*
%TD*%
D19*
%TO.C,D12\u002C2*%
X259346700Y-105677800D03*
D20*
X259346700Y-97877800D03*
%TD*%
D19*
%TO.C,D12\u002C1*%
X249313700Y-86488100D03*
D20*
X249313700Y-78688100D03*
%TD*%
D19*
%TO.C,D12\u002C0*%
X288414460Y-60656300D03*
D20*
X288414460Y-52856300D03*
%TD*%
D19*
%TO.C,D13\u002C2*%
X283159200Y-105741300D03*
D20*
X283159200Y-97941300D03*
%TD*%
D19*
%TO.C,D13\u002C1*%
X278269700Y-86437300D03*
D20*
X278269700Y-78637300D03*
%TD*%
D19*
%TO.C,D14\u002C1*%
X310934100Y-86437300D03*
D20*
X310934100Y-78637300D03*
%TD*%
D19*
%TO.C,D14\u002C3*%
X311188100Y-105677800D03*
D20*
X311188100Y-97877800D03*
%TD*%
D19*
%TO.C,D14\u002C0*%
X310984900Y-60656300D03*
D20*
X310984900Y-52856300D03*
%TD*%
D19*
%TO.C,D14\u002C6*%
X310870600Y-164224800D03*
D20*
X310870600Y-156424800D03*
%TD*%
D19*
%TO.C,D15\u002C0*%
X330796900Y-60656300D03*
D20*
X330796900Y-52856300D03*
%TD*%
D19*
%TO.C,D15\u002C1*%
X330238100Y-86437300D03*
D20*
X330238100Y-78637300D03*
%TD*%
D19*
%TO.C,D15\u002C3*%
X330238100Y-105677800D03*
D20*
X330238100Y-97877800D03*
%TD*%
D19*
%TO.C,D15\u002C5*%
X330174600Y-144920800D03*
D20*
X330174600Y-137120800D03*
%TD*%
D19*
%TO.C,D15\u002C6*%
X330174600Y-164224800D03*
D20*
X330174600Y-156424800D03*
%TD*%
D19*
%TO.C,D16\u002C6*%
X349478600Y-164224800D03*
D20*
X349478600Y-156424800D03*
%TD*%
D19*
%TO.C,D16\u002C0*%
X349846900Y-60656300D03*
D20*
X349846900Y-52856300D03*
%TD*%
D19*
%TO.C,D16\u002C1*%
X349542100Y-86437300D03*
D20*
X349542100Y-78637300D03*
%TD*%
D19*
%TO.C,D16\u002C5*%
X373164100Y-144412800D03*
D20*
X373164100Y-136612800D03*
%TD*%
D19*
%TO.C,D16\u002C3*%
X349796100Y-105677800D03*
D20*
X349796100Y-97877800D03*
%TD*%
D19*
%TO.C,D16\u002C4*%
X373418100Y-125108800D03*
D20*
X373418100Y-117308800D03*
%TD*%
D19*
%TO.C,D17\u002C3*%
X373418100Y-105804800D03*
D20*
X373418100Y-98004800D03*
%TD*%
D19*
%TO.C,D17\u002C1*%
X373418100Y-86437300D03*
D20*
X373418100Y-78637300D03*
%TD*%
D19*
%TO.C,D17\u002C6*%
X383197100Y-163767600D03*
D20*
X383197100Y-155967600D03*
%TD*%
D19*
%TO.C,D17\u002C4*%
X392722100Y-125108800D03*
D20*
X392722100Y-117308800D03*
%TD*%
D19*
%TO.C,D17\u002C0*%
X373354600Y-60656300D03*
D20*
X373354600Y-52856300D03*
%TD*%
D19*
%TO.C,D17\u002C5*%
X392722100Y-144412800D03*
D20*
X392722100Y-136612800D03*
%TD*%
D19*
%TO.C,D18\u002C1*%
X392722100Y-86488100D03*
D20*
X392722100Y-78688100D03*
%TD*%
D19*
%TO.C,D18\u002C6*%
X412026100Y-163716800D03*
D20*
X412026100Y-155916800D03*
%TD*%
D19*
%TO.C,D18\u002C3*%
X392722100Y-105804800D03*
D20*
X392722100Y-98004800D03*
%TD*%
D19*
%TO.C,D18\u002C0*%
X392658600Y-60656300D03*
D20*
X392658600Y-52856300D03*
%TD*%
D19*
%TO.C,D18\u002C5*%
X412026100Y-144412800D03*
D20*
X412026100Y-136612800D03*
%TD*%
D19*
%TO.C,D18\u002C4*%
X412026100Y-125045300D03*
D20*
X412026100Y-117245300D03*
%TD*%
D19*
%TO.C,D19\u002C4*%
X431330100Y-115126600D03*
D20*
X431330100Y-107326600D03*
%TD*%
D19*
%TO.C,D19\u002C0*%
X411962600Y-60656300D03*
D20*
X411962600Y-52856300D03*
%TD*%
D19*
%TO.C,D19\u002C3*%
X412026100Y-105804800D03*
D20*
X412026100Y-98004800D03*
%TD*%
D19*
%TO.C,D19\u002C1*%
X412026100Y-86437300D03*
D20*
X412026100Y-78637300D03*
%TD*%
D19*
%TO.C,D19\u002C6*%
X431584100Y-154064800D03*
D20*
X431584100Y-146264800D03*
%TD*%
D19*
%TO.C,D20\u002C1*%
X431330100Y-86437300D03*
D20*
X431330100Y-78637300D03*
%TD*%
D19*
%TO.C,D20\u002C0*%
X431266600Y-60707100D03*
D20*
X431266600Y-52907100D03*
%TD*%
D10*
%TO.C,K0\u002C0*%
X21158200Y-55486300D03*
X31318200Y-55486300D03*
D11*
X26238200Y-55486300D03*
D12*
X23698200Y-60566300D03*
X30048200Y-58026300D03*
%TD*%
D10*
%TO.C,K0\u002C1*%
X21094700Y-81330800D03*
X31254700Y-81330800D03*
D11*
X26174700Y-81330800D03*
D12*
X23634700Y-86410800D03*
X29984700Y-83870800D03*
%TD*%
D10*
%TO.C,K0\u002C5*%
X23507700Y-159181800D03*
X33667700Y-159181800D03*
D11*
X28587700Y-159181800D03*
D12*
X26047700Y-164261800D03*
X32397700Y-161721800D03*
%TD*%
D10*
%TO.C,K0\u002C4*%
X32905700Y-139814300D03*
X43065700Y-139814300D03*
D11*
X37985700Y-139814300D03*
D12*
X35445700Y-144894300D03*
X41795700Y-142354300D03*
%TD*%
D10*
%TO.C,K0\u002C3*%
X28181300Y-120040400D03*
X38341300Y-120040400D03*
D11*
X33261300Y-120040400D03*
D12*
X30721300Y-125120400D03*
X37071300Y-122580400D03*
%TD*%
D10*
%TO.C,K1\u002C4*%
X64020700Y-139801600D03*
X74180700Y-139801600D03*
D11*
X69100700Y-139801600D03*
D12*
X66560700Y-144881600D03*
X72910700Y-142341600D03*
%TD*%
D10*
%TO.C,K1\u002C5*%
X48082200Y-159232600D03*
X58242200Y-159232600D03*
D11*
X53162200Y-159232600D03*
D12*
X50622200Y-164312600D03*
X56972200Y-161772600D03*
%TD*%
D10*
%TO.C,K1\u002C3*%
X54622700Y-119989600D03*
X64782700Y-119989600D03*
D11*
X59702700Y-119989600D03*
D12*
X57162700Y-125069600D03*
X63512700Y-122529600D03*
%TD*%
D10*
%TO.C,K1\u002C2*%
X49733200Y-100558600D03*
X59893200Y-100558600D03*
D11*
X54813200Y-100558600D03*
D12*
X52273200Y-105638600D03*
X58623200Y-103098600D03*
%TD*%
D10*
%TO.C,K1\u002C1*%
X40309800Y-81330800D03*
X50469800Y-81330800D03*
D11*
X45389800Y-81330800D03*
D12*
X42849800Y-86410800D03*
X49199800Y-83870800D03*
%TD*%
D10*
%TO.C,K1\u002C0*%
X59496960Y-55537100D03*
X69656960Y-55537100D03*
D11*
X64576960Y-55537100D03*
D12*
X62036960Y-60617100D03*
X68386960Y-58077100D03*
%TD*%
D10*
%TO.C,K2\u002C5*%
X72466200Y-159232600D03*
X82626200Y-159232600D03*
D11*
X77546200Y-159232600D03*
D12*
X75006200Y-164312600D03*
X81356200Y-161772600D03*
%TD*%
D10*
%TO.C,K2\u002C3*%
X73926700Y-119989600D03*
X84086700Y-119989600D03*
D11*
X79006700Y-119989600D03*
D12*
X76466700Y-125069600D03*
X82816700Y-122529600D03*
%TD*%
D10*
%TO.C,K2\u002C1*%
X59512200Y-81318100D03*
X69672200Y-81318100D03*
D11*
X64592200Y-81318100D03*
D12*
X62052200Y-86398100D03*
X68402200Y-83858100D03*
%TD*%
D10*
%TO.C,K2\u002C4*%
X83324700Y-139801600D03*
X93484700Y-139801600D03*
D11*
X88404700Y-139801600D03*
D12*
X85864700Y-144881600D03*
X92214700Y-142341600D03*
%TD*%
D10*
%TO.C,K2\u002C2*%
X69037200Y-100558600D03*
X79197200Y-100558600D03*
D11*
X74117200Y-100558600D03*
D12*
X71577200Y-105638600D03*
X77927200Y-103098600D03*
%TD*%
D10*
%TO.C,K2\u002C0*%
X78800960Y-55537100D03*
X88960960Y-55537100D03*
D11*
X83880960Y-55537100D03*
D12*
X81340960Y-60617100D03*
X87690960Y-58077100D03*
%TD*%
D10*
%TO.C,K3\u002C5*%
X144348200Y-159232600D03*
X154508200Y-159232600D03*
D11*
X149428200Y-159232600D03*
D12*
X146888200Y-164312600D03*
X153238200Y-161772600D03*
%TD*%
D10*
%TO.C,K3\u002C4*%
X102628700Y-139801600D03*
X112788700Y-139801600D03*
D11*
X107708700Y-139801600D03*
D12*
X105168700Y-144881600D03*
X111518700Y-142341600D03*
%TD*%
D10*
%TO.C,K3\u002C1*%
X78308200Y-81318100D03*
X88468200Y-81318100D03*
D11*
X83388200Y-81318100D03*
D12*
X80848200Y-86398100D03*
X87198200Y-83858100D03*
%TD*%
D10*
%TO.C,K3\u002C0*%
X98104960Y-55537100D03*
X108264960Y-55537100D03*
D11*
X103184960Y-55537100D03*
D12*
X100644960Y-60617100D03*
X106994960Y-58077100D03*
%TD*%
D10*
%TO.C,K3\u002C3*%
X93230700Y-119989600D03*
X103390700Y-119989600D03*
D11*
X98310700Y-119989600D03*
D12*
X95770700Y-125069600D03*
X102120700Y-122529600D03*
%TD*%
D10*
%TO.C,K4\u002C1*%
X97612200Y-81318100D03*
X107772200Y-81318100D03*
D11*
X102692200Y-81318100D03*
D12*
X100152200Y-86398100D03*
X106502200Y-83858100D03*
%TD*%
D10*
%TO.C,K4\u002C2*%
X107645200Y-100558600D03*
X117805200Y-100558600D03*
D11*
X112725200Y-100558600D03*
D12*
X110185200Y-105638600D03*
X116535200Y-103098600D03*
%TD*%
D10*
%TO.C,K4\u002C3*%
X112534700Y-119989600D03*
X122694700Y-119989600D03*
D11*
X117614700Y-119989600D03*
D12*
X115074700Y-125069600D03*
X121424700Y-122529600D03*
%TD*%
D10*
%TO.C,K4\u002C4*%
X121932700Y-139801600D03*
X132092700Y-139801600D03*
D11*
X127012700Y-139801600D03*
D12*
X124472700Y-144881600D03*
X130822700Y-142341600D03*
%TD*%
D10*
%TO.C,K4\u002C0*%
X117408960Y-55537100D03*
X127568960Y-55537100D03*
D11*
X122488960Y-55537100D03*
D12*
X119948960Y-60617100D03*
X126298960Y-58077100D03*
%TD*%
D10*
%TO.C,K5\u002C0*%
X148904960Y-55537100D03*
X159064960Y-55537100D03*
D11*
X153984960Y-55537100D03*
D12*
X151444960Y-60617100D03*
X157794960Y-58077100D03*
%TD*%
D10*
%TO.C,K5\u002C2*%
X126949200Y-100558600D03*
X137109200Y-100558600D03*
D11*
X132029200Y-100558600D03*
D12*
X129489200Y-105638600D03*
X135839200Y-103098600D03*
%TD*%
D10*
%TO.C,K5\u002C1*%
X116916200Y-81318100D03*
X127076200Y-81318100D03*
D11*
X121996200Y-81318100D03*
D12*
X119456200Y-86398100D03*
X125806200Y-83858100D03*
%TD*%
D10*
%TO.C,K5\u002C3*%
X131838700Y-119989600D03*
X141998700Y-119989600D03*
D11*
X136918700Y-119989600D03*
D12*
X134378700Y-125069600D03*
X140728700Y-122529600D03*
%TD*%
D10*
%TO.C,K5\u002C4*%
X141236700Y-139801600D03*
X151396700Y-139801600D03*
D11*
X146316700Y-139801600D03*
D12*
X143776700Y-144881600D03*
X150126700Y-142341600D03*
%TD*%
D10*
%TO.C,K6\u002C3*%
X151142700Y-119989600D03*
X161302700Y-119989600D03*
D11*
X156222700Y-119989600D03*
D12*
X153682700Y-125069600D03*
X160032700Y-122529600D03*
%TD*%
D10*
%TO.C,K6\u002C4*%
X160540700Y-139801600D03*
X170700700Y-139801600D03*
D11*
X165620700Y-139801600D03*
D12*
X163080700Y-144881600D03*
X169430700Y-142341600D03*
%TD*%
D10*
%TO.C,K6\u002C1*%
X136220200Y-81318100D03*
X146380200Y-81318100D03*
D11*
X141300200Y-81318100D03*
D12*
X138760200Y-86398100D03*
X145110200Y-83858100D03*
%TD*%
D10*
%TO.C,K6\u002C2*%
X146253200Y-100558600D03*
X156413200Y-100558600D03*
D11*
X151333200Y-100558600D03*
D12*
X148793200Y-105638600D03*
X155143200Y-103098600D03*
%TD*%
D10*
%TO.C,K6\u002C0*%
X168208960Y-55537100D03*
X178368960Y-55537100D03*
D11*
X173288960Y-55537100D03*
D12*
X170748960Y-60617100D03*
X177098960Y-58077100D03*
%TD*%
D10*
%TO.C,K7\u002C2*%
X165557200Y-100558600D03*
X175717200Y-100558600D03*
D11*
X170637200Y-100558600D03*
D12*
X168097200Y-105638600D03*
X174447200Y-103098600D03*
%TD*%
D10*
%TO.C,K7\u002C1*%
X155524200Y-81318100D03*
X165684200Y-81318100D03*
D11*
X160604200Y-81318100D03*
D12*
X158064200Y-86398100D03*
X164414200Y-83858100D03*
%TD*%
D10*
%TO.C,K7\u002C3*%
X170446700Y-119989600D03*
X180606700Y-119989600D03*
D11*
X175526700Y-119989600D03*
D12*
X172986700Y-125069600D03*
X179336700Y-122529600D03*
%TD*%
D10*
%TO.C,K7\u002C4*%
X179844700Y-139801600D03*
X190004700Y-139801600D03*
D11*
X184924700Y-139801600D03*
D12*
X182384700Y-144881600D03*
X188734700Y-142341600D03*
%TD*%
D10*
%TO.C,K8\u002C1*%
X174828200Y-81318100D03*
X184988200Y-81318100D03*
D11*
X179908200Y-81318100D03*
D12*
X177368200Y-86398100D03*
X183718200Y-83858100D03*
%TD*%
D10*
%TO.C,K8\u002C3*%
X189750700Y-119989600D03*
X199910700Y-119989600D03*
D11*
X194830700Y-119989600D03*
D12*
X192290700Y-125069600D03*
X198640700Y-122529600D03*
%TD*%
D10*
%TO.C,K8\u002C4*%
X199148700Y-139801600D03*
X209308700Y-139801600D03*
D11*
X204228700Y-139801600D03*
D12*
X201688700Y-144881600D03*
X208038700Y-142341600D03*
%TD*%
D10*
%TO.C,K8\u002C5*%
X216077800Y-159232600D03*
X226237800Y-159232600D03*
D11*
X221157800Y-159232600D03*
D12*
X218617800Y-164312600D03*
X224967800Y-161772600D03*
%TD*%
D10*
%TO.C,K8\u002C2*%
X184861200Y-100558600D03*
X195021200Y-100558600D03*
D11*
X189941200Y-100558600D03*
D12*
X187401200Y-105638600D03*
X193751200Y-103098600D03*
%TD*%
D10*
%TO.C,K9\u002C0*%
X233232960Y-55537100D03*
X243392960Y-55537100D03*
D11*
X238312960Y-55537100D03*
D12*
X235772960Y-60617100D03*
X242122960Y-58077100D03*
%TD*%
D10*
%TO.C,K9\u002C5*%
X240233200Y-159232600D03*
X250393200Y-159232600D03*
D11*
X245313200Y-159232600D03*
D12*
X242773200Y-164312600D03*
X249123200Y-161772600D03*
%TD*%
D10*
%TO.C,K9\u002C1*%
X194132200Y-81318100D03*
X204292200Y-81318100D03*
D11*
X199212200Y-81318100D03*
D12*
X196672200Y-86398100D03*
X203022200Y-83858100D03*
%TD*%
D10*
%TO.C,K9\u002C2*%
X204165200Y-100558600D03*
X214325200Y-100558600D03*
D11*
X209245200Y-100558600D03*
D12*
X206705200Y-105638600D03*
X213055200Y-103098600D03*
%TD*%
D10*
%TO.C,K9\u002C4*%
X218452700Y-139801600D03*
X228612700Y-139801600D03*
D11*
X223532700Y-139801600D03*
D12*
X220992700Y-144881600D03*
X227342700Y-142341600D03*
%TD*%
D10*
%TO.C,K9\u002C3*%
X209054700Y-119989600D03*
X219214700Y-119989600D03*
D11*
X214134700Y-119989600D03*
D12*
X211594700Y-125069600D03*
X217944700Y-122529600D03*
%TD*%
D10*
%TO.C,K10\u002C2*%
X223469200Y-100558600D03*
X233629200Y-100558600D03*
D11*
X228549200Y-100558600D03*
D12*
X226009200Y-105638600D03*
X232359200Y-103098600D03*
%TD*%
D10*
%TO.C,K10\u002C0*%
X252536960Y-55537100D03*
X262696960Y-55537100D03*
D11*
X257616960Y-55537100D03*
D12*
X255076960Y-60617100D03*
X261426960Y-58077100D03*
%TD*%
D10*
%TO.C,K10\u002C5*%
X264426700Y-159232600D03*
X274586700Y-159232600D03*
D11*
X269506700Y-159232600D03*
D12*
X266966700Y-164312600D03*
X273316700Y-161772600D03*
%TD*%
D10*
%TO.C,K10\u002C1*%
X213436200Y-81318100D03*
X223596200Y-81318100D03*
D11*
X218516200Y-81318100D03*
D12*
X215976200Y-86398100D03*
X222326200Y-83858100D03*
%TD*%
D10*
%TO.C,K10\u002C4*%
X237756700Y-139801600D03*
X247916700Y-139801600D03*
D11*
X242836700Y-139801600D03*
D12*
X240296700Y-144881600D03*
X246646700Y-142341600D03*
%TD*%
D10*
%TO.C,K11\u002C3*%
X247662700Y-119989600D03*
X257822700Y-119989600D03*
D11*
X252742700Y-119989600D03*
D12*
X250202700Y-125069600D03*
X256552700Y-122529600D03*
%TD*%
D10*
%TO.C,K11\u002C2*%
X242773200Y-100558600D03*
X252933200Y-100558600D03*
D11*
X247853200Y-100558600D03*
D12*
X245313200Y-105638600D03*
X251663200Y-103098600D03*
%TD*%
D10*
%TO.C,K11\u002C5*%
X288493200Y-159232600D03*
X298653200Y-159232600D03*
D11*
X293573200Y-159232600D03*
D12*
X291033200Y-164312600D03*
X297383200Y-161772600D03*
%TD*%
D10*
%TO.C,K11\u002C1*%
X232740200Y-81318100D03*
X242900200Y-81318100D03*
D11*
X237820200Y-81318100D03*
D12*
X235280200Y-86398100D03*
X241630200Y-83858100D03*
%TD*%
D10*
%TO.C,K11\u002C0*%
X271840960Y-55537100D03*
X282000960Y-55537100D03*
D11*
X276920960Y-55537100D03*
D12*
X274380960Y-60617100D03*
X280730960Y-58077100D03*
%TD*%
D10*
%TO.C,K12\u002C2*%
X262077200Y-100558600D03*
X272237200Y-100558600D03*
D11*
X267157200Y-100558600D03*
D12*
X264617200Y-105638600D03*
X270967200Y-103098600D03*
%TD*%
D10*
%TO.C,K12\u002C0*%
X291144960Y-55537100D03*
X301304960Y-55537100D03*
D11*
X296224960Y-55537100D03*
D12*
X293684960Y-60617100D03*
X300034960Y-58077100D03*
%TD*%
D10*
%TO.C,K12\u002C1*%
X252044200Y-81318100D03*
X262204200Y-81318100D03*
D11*
X257124200Y-81318100D03*
D12*
X254584200Y-86398100D03*
X260934200Y-83858100D03*
%TD*%
D10*
%TO.C,K13\u002C2*%
X286016700Y-100571300D03*
X296176700Y-100571300D03*
D11*
X291096700Y-100571300D03*
D12*
X288556700Y-105651300D03*
X294906700Y-103111300D03*
%TD*%
D10*
%TO.C,K14\u002C6*%
X313601100Y-159105600D03*
X323761100Y-159105600D03*
D11*
X318681100Y-159105600D03*
D12*
X316141100Y-164185600D03*
X322491100Y-161645600D03*
%TD*%
D10*
%TO.C,K14\u002C3*%
X313664600Y-100558600D03*
X323824600Y-100558600D03*
D11*
X318744600Y-100558600D03*
D12*
X316204600Y-105638600D03*
X322554600Y-103098600D03*
%TD*%
D10*
%TO.C,K14\u002C0*%
X313715400Y-55537100D03*
X323875400Y-55537100D03*
D11*
X318795400Y-55537100D03*
D12*
X316255400Y-60617100D03*
X322605400Y-58077100D03*
%TD*%
D10*
%TO.C,K15\u002C6*%
X332905100Y-159105600D03*
X343065100Y-159105600D03*
D11*
X337985100Y-159105600D03*
D12*
X335445100Y-164185600D03*
X341795100Y-161645600D03*
%TD*%
D10*
%TO.C,K15\u002C3*%
X332968600Y-100558600D03*
X343128600Y-100558600D03*
D11*
X338048600Y-100558600D03*
D12*
X335508600Y-105638600D03*
X341858600Y-103098600D03*
%TD*%
D10*
%TO.C,K15\u002C5*%
X332905100Y-139801600D03*
X343065100Y-139801600D03*
D11*
X337985100Y-139801600D03*
D12*
X335445100Y-144881600D03*
X341795100Y-142341600D03*
%TD*%
D10*
%TO.C,K15\u002C1*%
X332968600Y-81318100D03*
X343128600Y-81318100D03*
D11*
X338048600Y-81318100D03*
D12*
X335508600Y-86398100D03*
X341858600Y-83858100D03*
%TD*%
D10*
%TO.C,K15\u002C0*%
X333273400Y-55537100D03*
X343433400Y-55537100D03*
D11*
X338353400Y-55537100D03*
D12*
X335813400Y-60617100D03*
X342163400Y-58077100D03*
%TD*%
D10*
%TO.C,K16\u002C4*%
X376148600Y-119989600D03*
X386308600Y-119989600D03*
D11*
X381228600Y-119989600D03*
D12*
X378688600Y-125069600D03*
X385038600Y-122529600D03*
%TD*%
D10*
%TO.C,K16\u002C5*%
X376148600Y-139293600D03*
X386308600Y-139293600D03*
D11*
X381228600Y-139293600D03*
D12*
X378688600Y-144373600D03*
X385038600Y-141833600D03*
%TD*%
D10*
%TO.C,K16\u002C3*%
X352272600Y-100558600D03*
X362432600Y-100558600D03*
D11*
X357352600Y-100558600D03*
D12*
X354812600Y-105638600D03*
X361162600Y-103098600D03*
%TD*%
D10*
%TO.C,K16\u002C0*%
X352577400Y-55537100D03*
X362737400Y-55537100D03*
D11*
X357657400Y-55537100D03*
D12*
X355117400Y-60617100D03*
X361467400Y-58077100D03*
%TD*%
D10*
%TO.C,K16\u002C6*%
X352209100Y-159105600D03*
X362369100Y-159105600D03*
D11*
X357289100Y-159105600D03*
D12*
X354749100Y-164185600D03*
X361099100Y-161645600D03*
%TD*%
D10*
%TO.C,K17\u002C6*%
X385673600Y-158597600D03*
X395833600Y-158597600D03*
D11*
X390753600Y-158597600D03*
D12*
X388213600Y-163677600D03*
X394563600Y-161137600D03*
%TD*%
D10*
%TO.C,K17\u002C5*%
X395452600Y-139293600D03*
X405612600Y-139293600D03*
D11*
X400532600Y-139293600D03*
D12*
X397992600Y-144373600D03*
X404342600Y-141833600D03*
%TD*%
D10*
%TO.C,K17\u002C4*%
X395452600Y-119989600D03*
X405612600Y-119989600D03*
D11*
X400532600Y-119989600D03*
D12*
X397992600Y-125069600D03*
X404342600Y-122529600D03*
%TD*%
D10*
%TO.C,K17\u002C3*%
X376148600Y-100685600D03*
X386308600Y-100685600D03*
D11*
X381228600Y-100685600D03*
D12*
X378688600Y-105765600D03*
X385038600Y-103225600D03*
%TD*%
D10*
%TO.C,K17\u002C1*%
X376148600Y-81318100D03*
X386308600Y-81318100D03*
D11*
X381228600Y-81318100D03*
D12*
X378688600Y-86398100D03*
X385038600Y-83858100D03*
%TD*%
D10*
%TO.C,K17\u002C0*%
X376085100Y-55537100D03*
X386245100Y-55537100D03*
D11*
X381165100Y-55537100D03*
D12*
X378625100Y-60617100D03*
X384975100Y-58077100D03*
%TD*%
D10*
%TO.C,K18\u002C6*%
X414756600Y-158597600D03*
X424916600Y-158597600D03*
D11*
X419836600Y-158597600D03*
D12*
X417296600Y-163677600D03*
X423646600Y-161137600D03*
%TD*%
D10*
%TO.C,K18\u002C3*%
X395452600Y-100685600D03*
X405612600Y-100685600D03*
D11*
X400532600Y-100685600D03*
D12*
X397992600Y-105765600D03*
X404342600Y-103225600D03*
%TD*%
D10*
%TO.C,K18\u002C1*%
X395452600Y-81318100D03*
X405612600Y-81318100D03*
D11*
X400532600Y-81318100D03*
D12*
X397992600Y-86398100D03*
X404342600Y-83858100D03*
%TD*%
D10*
%TO.C,K18\u002C5*%
X414756600Y-139293600D03*
X424916600Y-139293600D03*
D11*
X419836600Y-139293600D03*
D12*
X417296600Y-144373600D03*
X423646600Y-141833600D03*
%TD*%
D10*
%TO.C,K18\u002C0*%
X395389100Y-55537100D03*
X405549100Y-55537100D03*
D11*
X400469100Y-55537100D03*
D12*
X397929100Y-60617100D03*
X404279100Y-58077100D03*
%TD*%
D10*
%TO.C,K19\u002C6*%
X434060600Y-148945600D03*
X444220600Y-148945600D03*
D11*
X439140600Y-148945600D03*
D12*
X436600600Y-154025600D03*
X442950600Y-151485600D03*
%TD*%
D10*
%TO.C,K19\u002C0*%
X414693100Y-55537100D03*
X424853100Y-55537100D03*
D11*
X419773100Y-55537100D03*
D12*
X417233100Y-60617100D03*
X423583100Y-58077100D03*
%TD*%
D10*
%TO.C,K19\u002C3*%
X414756600Y-100685600D03*
X424916600Y-100685600D03*
D11*
X419836600Y-100685600D03*
D12*
X417296600Y-105765600D03*
X423646600Y-103225600D03*
%TD*%
D10*
%TO.C,K19\u002C1*%
X414756600Y-81318100D03*
X424916600Y-81318100D03*
D11*
X419836600Y-81318100D03*
D12*
X417296600Y-86398100D03*
X423646600Y-83858100D03*
%TD*%
D10*
%TO.C,K20\u002C0*%
X433997100Y-55537100D03*
X444157100Y-55537100D03*
D11*
X439077100Y-55537100D03*
D12*
X436537100Y-60617100D03*
X442887100Y-58077100D03*
%TD*%
D10*
%TO.C,K20\u002C1*%
X434060600Y-81318100D03*
X444220600Y-81318100D03*
D11*
X439140600Y-81318100D03*
D12*
X436600600Y-86398100D03*
X442950600Y-83858100D03*
%TD*%
M02*
