%TF.GenerationSoftware,KiCad,Pcbnew,(5.1.10)-1*%
%TF.CreationDate,2021-09-26T01:53:15+10:00*%
%TF.ProjectId,RedPyKeeb_mainboard,52656450-794b-4656-9562-5f6d61696e62,rev?*%
%TF.SameCoordinates,Original*%
%TF.FileFunction,Paste,Top*%
%TF.FilePolarity,Positive*%
%FSLAX46Y46*%
G04 Gerber Fmt 4.6, Leading zero omitted, Abs format (unit mm)*
G04 Created by KiCad (PCBNEW (5.1.10)-1) date 2021-09-26 01:53:15*
%MOMM*%
%LPD*%
G01*
G04 APERTURE LIST*
%ADD10R,0.500000X2.180000*%
%ADD11R,0.500000X1.000000*%
%ADD12R,0.800000X0.500000*%
%ADD13R,0.800000X0.300000*%
%ADD14R,1.000000X3.150000*%
G04 APERTURE END LIST*
%TO.C,C6*%
G36*
G01*
X424288700Y-26374600D02*
X424288700Y-24374600D01*
G75*
G02*
X424538700Y-24124600I250000J0D01*
G01*
X428038700Y-24124600D01*
G75*
G02*
X428288700Y-24374600I0J-250000D01*
G01*
X428288700Y-26374600D01*
G75*
G02*
X428038700Y-26624600I-250000J0D01*
G01*
X424538700Y-26624600D01*
G75*
G02*
X424288700Y-26374600I0J250000D01*
G01*
G37*
G36*
G01*
X432288700Y-26374600D02*
X432288700Y-24374600D01*
G75*
G02*
X432538700Y-24124600I250000J0D01*
G01*
X436038700Y-24124600D01*
G75*
G02*
X436288700Y-24374600I0J-250000D01*
G01*
X436288700Y-26374600D01*
G75*
G02*
X436038700Y-26624600I-250000J0D01*
G01*
X432538700Y-26624600D01*
G75*
G02*
X432288700Y-26374600I0J250000D01*
G01*
G37*
%TD*%
D10*
%TO.C,LD0\u002C0*%
X26238200Y-47524000D03*
D11*
X26238200Y-49344000D03*
D12*
X25388200Y-49414000D03*
X25388200Y-47614000D03*
D13*
X25388200Y-48514000D03*
D12*
X27088200Y-47614000D03*
D13*
X27088200Y-48514000D03*
D12*
X27088200Y-49414000D03*
%TD*%
D10*
%TO.C,LD3\u002C5\u002C1*%
X178955700Y-151359200D03*
D11*
X178955700Y-153179200D03*
D12*
X178105700Y-153249200D03*
X178105700Y-151449200D03*
D13*
X178105700Y-152349200D03*
D12*
X179805700Y-151449200D03*
D13*
X179805700Y-152349200D03*
D12*
X179805700Y-153249200D03*
%TD*%
D10*
%TO.C,LD3\u002C5\u002C0*%
X114858800Y-151371900D03*
D11*
X114858800Y-153191900D03*
D12*
X114008800Y-153261900D03*
X114008800Y-151461900D03*
D13*
X114008800Y-152361900D03*
D12*
X115708800Y-151461900D03*
D13*
X115708800Y-152361900D03*
D12*
X115708800Y-153261900D03*
%TD*%
D10*
%TO.C,LD20\u002C7*%
X439331100Y-66485100D03*
D11*
X439331100Y-68305100D03*
D12*
X438481100Y-68375100D03*
X438481100Y-66575100D03*
D13*
X438481100Y-67475100D03*
D12*
X440181100Y-66575100D03*
D13*
X440181100Y-67475100D03*
D12*
X440181100Y-68375100D03*
%TD*%
D10*
%TO.C,LD20\u002C0*%
X439077100Y-47574800D03*
D11*
X439077100Y-49394800D03*
D12*
X438227100Y-49464800D03*
X438227100Y-47664800D03*
D13*
X438227100Y-48564800D03*
D12*
X439927100Y-47664800D03*
D13*
X439927100Y-48564800D03*
D12*
X439927100Y-49464800D03*
%TD*%
D10*
%TO.C,LD20\u002C1*%
X439140600Y-73470100D03*
D11*
X439140600Y-75290100D03*
D12*
X438290600Y-75360100D03*
X438290600Y-73560100D03*
D13*
X438290600Y-74460100D03*
D12*
X439990600Y-73560100D03*
D13*
X439990600Y-74460100D03*
D12*
X439990600Y-75360100D03*
%TD*%
D10*
%TO.C,LD19\u002C6*%
X439394600Y-143129600D03*
D11*
X439394600Y-144949600D03*
D12*
X438544600Y-145019600D03*
X438544600Y-143219600D03*
D13*
X438544600Y-144119600D03*
D12*
X440244600Y-143219600D03*
D13*
X440244600Y-144119600D03*
D12*
X440244600Y-145019600D03*
%TD*%
D10*
%TO.C,LD19\u002C3*%
X419836600Y-92736000D03*
D11*
X419836600Y-94556000D03*
D12*
X418986600Y-94626000D03*
X418986600Y-92826000D03*
D13*
X418986600Y-93726000D03*
D12*
X420686600Y-92826000D03*
D13*
X420686600Y-93726000D03*
D12*
X420686600Y-94626000D03*
%TD*%
D10*
%TO.C,LD19\u002C4*%
X439140600Y-102616600D03*
D11*
X439140600Y-104436600D03*
D12*
X438290600Y-104506600D03*
X438290600Y-102706600D03*
D13*
X438290600Y-103606600D03*
D12*
X439990600Y-102706600D03*
D13*
X439990600Y-103606600D03*
D12*
X439990600Y-104506600D03*
%TD*%
D10*
%TO.C,LD19\u002C1*%
X419836600Y-73482800D03*
D11*
X419836600Y-75302800D03*
D12*
X418986600Y-75372800D03*
X418986600Y-73572800D03*
D13*
X418986600Y-74472800D03*
D12*
X420686600Y-73572800D03*
D13*
X420686600Y-74472800D03*
D12*
X420686600Y-75372800D03*
%TD*%
D10*
%TO.C,LD19\u002C0*%
X419760400Y-47574800D03*
D11*
X419760400Y-49394800D03*
D12*
X418910400Y-49464800D03*
X418910400Y-47664800D03*
D13*
X418910400Y-48564800D03*
D12*
X420610400Y-47664800D03*
D13*
X420610400Y-48564800D03*
D12*
X420610400Y-49464800D03*
%TD*%
D10*
%TO.C,LD19\u002C7*%
X420027100Y-66434300D03*
D11*
X420027100Y-68254300D03*
D12*
X419177100Y-68324300D03*
X419177100Y-66524300D03*
D13*
X419177100Y-67424300D03*
D12*
X420877100Y-66524300D03*
D13*
X420877100Y-67424300D03*
D12*
X420877100Y-68324300D03*
%TD*%
D10*
%TO.C,LD18\u002C0*%
X400456400Y-47574800D03*
D11*
X400456400Y-49394800D03*
D12*
X399606400Y-49464800D03*
X399606400Y-47664800D03*
D13*
X399606400Y-48564800D03*
D12*
X401306400Y-47664800D03*
D13*
X401306400Y-48564800D03*
D12*
X401306400Y-49464800D03*
%TD*%
D10*
%TO.C,LD18\u002C3*%
X400532600Y-92736000D03*
D11*
X400532600Y-94556000D03*
D12*
X399682600Y-94626000D03*
X399682600Y-92826000D03*
D13*
X399682600Y-93726000D03*
D12*
X401382600Y-92826000D03*
D13*
X401382600Y-93726000D03*
D12*
X401382600Y-94626000D03*
%TD*%
D10*
%TO.C,LD18\u002C4*%
X419836600Y-112078100D03*
D11*
X419836600Y-113898100D03*
D12*
X418986600Y-113968100D03*
X418986600Y-112168100D03*
D13*
X418986600Y-113068100D03*
D12*
X420686600Y-112168100D03*
D13*
X420686600Y-113068100D03*
D12*
X420686600Y-113968100D03*
%TD*%
D10*
%TO.C,LD18\u002C5*%
X419836600Y-131445600D03*
D11*
X419836600Y-133265600D03*
D12*
X418986600Y-133335600D03*
X418986600Y-131535600D03*
D13*
X418986600Y-132435600D03*
D12*
X420686600Y-131535600D03*
D13*
X420686600Y-132435600D03*
D12*
X420686600Y-133335600D03*
%TD*%
D10*
%TO.C,LD18\u002C7*%
X400723100Y-66434300D03*
D11*
X400723100Y-68254300D03*
D12*
X399873100Y-68324300D03*
X399873100Y-66524300D03*
D13*
X399873100Y-67424300D03*
D12*
X401573100Y-66524300D03*
D13*
X401573100Y-67424300D03*
D12*
X401573100Y-68324300D03*
%TD*%
D10*
%TO.C,LD18\u002C1*%
X400532600Y-73470100D03*
D11*
X400532600Y-75290100D03*
D12*
X399682600Y-75360100D03*
X399682600Y-73560100D03*
D13*
X399682600Y-74460100D03*
D12*
X401382600Y-73560100D03*
D13*
X401382600Y-74460100D03*
D12*
X401382600Y-75360100D03*
%TD*%
D10*
%TO.C,LD18\u002C6*%
X419836600Y-150749600D03*
D11*
X419836600Y-152569600D03*
D12*
X418986600Y-152639600D03*
X418986600Y-150839600D03*
D13*
X418986600Y-151739600D03*
D12*
X420686600Y-150839600D03*
D13*
X420686600Y-151739600D03*
D12*
X420686600Y-152639600D03*
%TD*%
D10*
%TO.C,LD17\u002C4*%
X400532600Y-112141600D03*
D11*
X400532600Y-113961600D03*
D12*
X399682600Y-114031600D03*
X399682600Y-112231600D03*
D13*
X399682600Y-113131600D03*
D12*
X401382600Y-112231600D03*
D13*
X401382600Y-113131600D03*
D12*
X401382600Y-114031600D03*
%TD*%
D10*
%TO.C,LD17\u002C3*%
X381228600Y-92736000D03*
D11*
X381228600Y-94556000D03*
D12*
X380378600Y-94626000D03*
X380378600Y-92826000D03*
D13*
X380378600Y-93726000D03*
D12*
X382078600Y-92826000D03*
D13*
X382078600Y-93726000D03*
D12*
X382078600Y-94626000D03*
%TD*%
D10*
%TO.C,LD17\u002C6*%
X391007600Y-150749600D03*
D11*
X391007600Y-152569600D03*
D12*
X390157600Y-152639600D03*
X390157600Y-150839600D03*
D13*
X390157600Y-151739600D03*
D12*
X391857600Y-150839600D03*
D13*
X391857600Y-151739600D03*
D12*
X391857600Y-152639600D03*
%TD*%
D10*
%TO.C,LD17\u002C5*%
X400532600Y-131445600D03*
D11*
X400532600Y-133265600D03*
D12*
X399682600Y-133335600D03*
X399682600Y-131535600D03*
D13*
X399682600Y-132435600D03*
D12*
X401382600Y-131535600D03*
D13*
X401382600Y-132435600D03*
D12*
X401382600Y-133335600D03*
%TD*%
D10*
%TO.C,LD17\u002C1*%
X381228600Y-73470100D03*
D11*
X381228600Y-75290100D03*
D12*
X380378600Y-75360100D03*
X380378600Y-73560100D03*
D13*
X380378600Y-74460100D03*
D12*
X382078600Y-73560100D03*
D13*
X382078600Y-74460100D03*
D12*
X382078600Y-75360100D03*
%TD*%
D10*
%TO.C,LD17\u002C0*%
X381152400Y-47574800D03*
D11*
X381152400Y-49394800D03*
D12*
X380302400Y-49464800D03*
X380302400Y-47664800D03*
D13*
X380302400Y-48564800D03*
D12*
X382002400Y-47664800D03*
D13*
X382002400Y-48564800D03*
D12*
X382002400Y-49464800D03*
%TD*%
D10*
%TO.C,LD17\u002C7*%
X381101600Y-66485100D03*
D11*
X381101600Y-68305100D03*
D12*
X380251600Y-68375100D03*
X380251600Y-66575100D03*
D13*
X380251600Y-67475100D03*
D12*
X381951600Y-66575100D03*
D13*
X381951600Y-67475100D03*
D12*
X381951600Y-68375100D03*
%TD*%
D10*
%TO.C,LD16\u002C5*%
X381482600Y-131445600D03*
D11*
X381482600Y-133265600D03*
D12*
X380632600Y-133335600D03*
X380632600Y-131535600D03*
D13*
X380632600Y-132435600D03*
D12*
X382332600Y-131535600D03*
D13*
X382332600Y-132435600D03*
D12*
X382332600Y-133335600D03*
%TD*%
D10*
%TO.C,LD16\u002C3*%
X357352600Y-92710600D03*
D11*
X357352600Y-94530600D03*
D12*
X356502600Y-94600600D03*
X356502600Y-92800600D03*
D13*
X356502600Y-93700600D03*
D12*
X358202600Y-92800600D03*
D13*
X358202600Y-93700600D03*
D12*
X358202600Y-94600600D03*
%TD*%
D10*
%TO.C,LD16\u002C1*%
X357430800Y-73495500D03*
D11*
X357430800Y-75315500D03*
D12*
X356580800Y-75385500D03*
X356580800Y-73585500D03*
D13*
X356580800Y-74485500D03*
D12*
X358280800Y-73585500D03*
D13*
X358280800Y-74485500D03*
D12*
X358280800Y-75385500D03*
%TD*%
D10*
%TO.C,LD16\u002C6*%
X357289100Y-151257600D03*
D11*
X357289100Y-153077600D03*
D12*
X356439100Y-153147600D03*
X356439100Y-151347600D03*
D13*
X356439100Y-152247600D03*
D12*
X358139100Y-151347600D03*
D13*
X358139100Y-152247600D03*
D12*
X358139100Y-153147600D03*
%TD*%
D10*
%TO.C,LD16\u002C0*%
X357847900Y-47562100D03*
D11*
X357847900Y-49382100D03*
D12*
X356997900Y-49452100D03*
X356997900Y-47652100D03*
D13*
X356997900Y-48552100D03*
D12*
X358697900Y-47652100D03*
D13*
X358697900Y-48552100D03*
D12*
X358697900Y-49452100D03*
%TD*%
D10*
%TO.C,LD16\u002C4*%
X381228600Y-112141600D03*
D11*
X381228600Y-113961600D03*
D12*
X380378600Y-114031600D03*
X380378600Y-112231600D03*
D13*
X380378600Y-113131600D03*
D12*
X382078600Y-112231600D03*
D13*
X382078600Y-113131600D03*
D12*
X382078600Y-114031600D03*
%TD*%
D10*
%TO.C,LD15\u002C0*%
X338543900Y-47562100D03*
D11*
X338543900Y-49382100D03*
D12*
X337693900Y-49452100D03*
X337693900Y-47652100D03*
D13*
X337693900Y-48552100D03*
D12*
X339393900Y-47652100D03*
D13*
X339393900Y-48552100D03*
D12*
X339393900Y-49452100D03*
%TD*%
D10*
%TO.C,LD15\u002C5*%
X337985100Y-131902800D03*
D11*
X337985100Y-133722800D03*
D12*
X337135100Y-133792800D03*
X337135100Y-131992800D03*
D13*
X337135100Y-132892800D03*
D12*
X338835100Y-131992800D03*
D13*
X338835100Y-132892800D03*
D12*
X338835100Y-133792800D03*
%TD*%
D10*
%TO.C,LD15\u002C6*%
X337985100Y-151257600D03*
D11*
X337985100Y-153077600D03*
D12*
X337135100Y-153147600D03*
X337135100Y-151347600D03*
D13*
X337135100Y-152247600D03*
D12*
X338835100Y-151347600D03*
D13*
X338835100Y-152247600D03*
D12*
X338835100Y-153147600D03*
%TD*%
D10*
%TO.C,LD15\u002C3*%
X338048600Y-92710600D03*
D11*
X338048600Y-94530600D03*
D12*
X337198600Y-94600600D03*
X337198600Y-92800600D03*
D13*
X337198600Y-93700600D03*
D12*
X338898600Y-92800600D03*
D13*
X338898600Y-93700600D03*
D12*
X338898600Y-94600600D03*
%TD*%
D10*
%TO.C,LD15\u002C1*%
X338048600Y-73470100D03*
D11*
X338048600Y-75290100D03*
D12*
X337198600Y-75360100D03*
X337198600Y-73560100D03*
D13*
X337198600Y-74460100D03*
D12*
X338898600Y-73560100D03*
D13*
X338898600Y-74460100D03*
D12*
X338898600Y-75360100D03*
%TD*%
D10*
%TO.C,LD14\u002C1*%
X318744600Y-73470100D03*
D11*
X318744600Y-75290100D03*
D12*
X317894600Y-75360100D03*
X317894600Y-73560100D03*
D13*
X317894600Y-74460100D03*
D12*
X319594600Y-73560100D03*
D13*
X319594600Y-74460100D03*
D12*
X319594600Y-75360100D03*
%TD*%
D10*
%TO.C,LD14\u002C3*%
X318744600Y-92710600D03*
D11*
X318744600Y-94530600D03*
D12*
X317894600Y-94600600D03*
X317894600Y-92800600D03*
D13*
X317894600Y-93700600D03*
D12*
X319594600Y-92800600D03*
D13*
X319594600Y-93700600D03*
D12*
X319594600Y-94600600D03*
%TD*%
D10*
%TO.C,LD14\u002C0*%
X318985900Y-47562100D03*
D11*
X318985900Y-49382100D03*
D12*
X318135900Y-49452100D03*
X318135900Y-47652100D03*
D13*
X318135900Y-48552100D03*
D12*
X319835900Y-47652100D03*
D13*
X319835900Y-48552100D03*
D12*
X319835900Y-49452100D03*
%TD*%
D10*
%TO.C,LD14\u002C6*%
X318681100Y-151257600D03*
D11*
X318681100Y-153077600D03*
D12*
X317831100Y-153147600D03*
X317831100Y-151347600D03*
D13*
X317831100Y-152247600D03*
D12*
X319531100Y-151347600D03*
D13*
X319531100Y-152247600D03*
D12*
X319531100Y-153147600D03*
%TD*%
D10*
%TO.C,LD13\u002C1*%
X285889700Y-73470100D03*
D11*
X285889700Y-75290100D03*
D12*
X285039700Y-75360100D03*
X285039700Y-73560100D03*
D13*
X285039700Y-74460100D03*
D12*
X286739700Y-73560100D03*
D13*
X286739700Y-74460100D03*
D12*
X286739700Y-75360100D03*
%TD*%
D10*
%TO.C,LD13\u002C2*%
X291084000Y-92736000D03*
D11*
X291084000Y-94556000D03*
D12*
X290234000Y-94626000D03*
X290234000Y-92826000D03*
D13*
X290234000Y-93726000D03*
D12*
X291934000Y-92826000D03*
D13*
X291934000Y-93726000D03*
D12*
X291934000Y-94626000D03*
%TD*%
D10*
%TO.C,LD12\u002C0*%
X296415460Y-47562100D03*
D11*
X296415460Y-49382100D03*
D12*
X295565460Y-49452100D03*
X295565460Y-47652100D03*
D13*
X295565460Y-48552100D03*
D12*
X297265460Y-47652100D03*
D13*
X297265460Y-48552100D03*
D12*
X297265460Y-49452100D03*
%TD*%
D10*
%TO.C,LD12\u002C1*%
X257124200Y-73470100D03*
D11*
X257124200Y-75290100D03*
D12*
X256274200Y-75360100D03*
X256274200Y-73560100D03*
D13*
X256274200Y-74460100D03*
D12*
X257974200Y-73560100D03*
D13*
X257974200Y-74460100D03*
D12*
X257974200Y-75360100D03*
%TD*%
D10*
%TO.C,LD12\u002C3*%
X284022800Y-112167000D03*
D11*
X284022800Y-113987000D03*
D12*
X283172800Y-114057000D03*
X283172800Y-112257000D03*
D13*
X283172800Y-113157000D03*
D12*
X284872800Y-112257000D03*
D13*
X284872800Y-113157000D03*
D12*
X284872800Y-114057000D03*
%TD*%
D10*
%TO.C,LD12\u002C2*%
X267157200Y-92710600D03*
D11*
X267157200Y-94530600D03*
D12*
X266307200Y-94600600D03*
X266307200Y-92800600D03*
D13*
X266307200Y-93700600D03*
D12*
X268007200Y-92800600D03*
D13*
X268007200Y-93700600D03*
D12*
X268007200Y-94600600D03*
%TD*%
D10*
%TO.C,LD11\u002C4*%
X279222200Y-131953600D03*
D11*
X279222200Y-133773600D03*
D12*
X278372200Y-133843600D03*
X278372200Y-132043600D03*
D13*
X278372200Y-132943600D03*
D12*
X280072200Y-132043600D03*
D13*
X280072200Y-132943600D03*
D12*
X280072200Y-133843600D03*
%TD*%
D10*
%TO.C,LD11\u002C2*%
X247853200Y-92710600D03*
D11*
X247853200Y-94530600D03*
D12*
X247003200Y-94600600D03*
X247003200Y-92800600D03*
D13*
X247003200Y-93700600D03*
D12*
X248703200Y-92800600D03*
D13*
X248703200Y-93700600D03*
D12*
X248703200Y-94600600D03*
%TD*%
D10*
%TO.C,LD11\u002C5*%
X293573200Y-151384600D03*
D11*
X293573200Y-153204600D03*
D12*
X292723200Y-153274600D03*
X292723200Y-151474600D03*
D13*
X292723200Y-152374600D03*
D12*
X294423200Y-151474600D03*
D13*
X294423200Y-152374600D03*
D12*
X294423200Y-153274600D03*
%TD*%
D10*
%TO.C,LD11\u002C0*%
X277111460Y-47562100D03*
D11*
X277111460Y-49382100D03*
D12*
X276261460Y-49452100D03*
X276261460Y-47652100D03*
D13*
X276261460Y-48552100D03*
D12*
X277961460Y-47652100D03*
D13*
X277961460Y-48552100D03*
D12*
X277961460Y-49452100D03*
%TD*%
D10*
%TO.C,LD11\u002C3*%
X252742700Y-112141600D03*
D11*
X252742700Y-113961600D03*
D12*
X251892700Y-114031600D03*
X251892700Y-112231600D03*
D13*
X251892700Y-113131600D03*
D12*
X253592700Y-112231600D03*
D13*
X253592700Y-113131600D03*
D12*
X253592700Y-114031600D03*
%TD*%
D10*
%TO.C,LD11\u002C1*%
X237820200Y-73470100D03*
D11*
X237820200Y-75290100D03*
D12*
X236970200Y-75360100D03*
X236970200Y-73560100D03*
D13*
X236970200Y-74460100D03*
D12*
X238670200Y-73560100D03*
D13*
X238670200Y-74460100D03*
D12*
X238670200Y-75360100D03*
%TD*%
D10*
%TO.C,LD10\u002C3*%
X233438700Y-112141600D03*
D11*
X233438700Y-113961600D03*
D12*
X232588700Y-114031600D03*
X232588700Y-112231600D03*
D13*
X232588700Y-113131600D03*
D12*
X234288700Y-112231600D03*
D13*
X234288700Y-113131600D03*
D12*
X234288700Y-114031600D03*
%TD*%
D10*
%TO.C,LD10\u002C4*%
X242836700Y-131953600D03*
D11*
X242836700Y-133773600D03*
D12*
X241986700Y-133843600D03*
X241986700Y-132043600D03*
D13*
X241986700Y-132943600D03*
D12*
X243686700Y-132043600D03*
D13*
X243686700Y-132943600D03*
D12*
X243686700Y-133843600D03*
%TD*%
D10*
%TO.C,LD10\u002C2*%
X228549200Y-92710600D03*
D11*
X228549200Y-94530600D03*
D12*
X227699200Y-94600600D03*
X227699200Y-92800600D03*
D13*
X227699200Y-93700600D03*
D12*
X229399200Y-92800600D03*
D13*
X229399200Y-93700600D03*
D12*
X229399200Y-94600600D03*
%TD*%
D10*
%TO.C,LD10\u002C1*%
X218516200Y-73470100D03*
D11*
X218516200Y-75290100D03*
D12*
X217666200Y-75360100D03*
X217666200Y-73560100D03*
D13*
X217666200Y-74460100D03*
D12*
X219366200Y-73560100D03*
D13*
X219366200Y-74460100D03*
D12*
X219366200Y-75360100D03*
%TD*%
D10*
%TO.C,LD10\u002C5*%
X269506700Y-151384600D03*
D11*
X269506700Y-153204600D03*
D12*
X268656700Y-153274600D03*
X268656700Y-151474600D03*
D13*
X268656700Y-152374600D03*
D12*
X270356700Y-151474600D03*
D13*
X270356700Y-152374600D03*
D12*
X270356700Y-153274600D03*
%TD*%
D10*
%TO.C,LD10\u002C0*%
X257807460Y-47562100D03*
D11*
X257807460Y-49382100D03*
D12*
X256957460Y-49452100D03*
X256957460Y-47652100D03*
D13*
X256957460Y-48552100D03*
D12*
X258657460Y-47652100D03*
D13*
X258657460Y-48552100D03*
D12*
X258657460Y-49452100D03*
%TD*%
D10*
%TO.C,LD9\u002C2*%
X209245200Y-92710600D03*
D11*
X209245200Y-94530600D03*
D12*
X208395200Y-94600600D03*
X208395200Y-92800600D03*
D13*
X208395200Y-93700600D03*
D12*
X210095200Y-92800600D03*
D13*
X210095200Y-93700600D03*
D12*
X210095200Y-94600600D03*
%TD*%
D10*
%TO.C,LD9\u002C5*%
X245313200Y-151384600D03*
D11*
X245313200Y-153204600D03*
D12*
X244463200Y-153274600D03*
X244463200Y-151474600D03*
D13*
X244463200Y-152374600D03*
D12*
X246163200Y-151474600D03*
D13*
X246163200Y-152374600D03*
D12*
X246163200Y-153274600D03*
%TD*%
D10*
%TO.C,LD9\u002C3*%
X214134700Y-112141600D03*
D11*
X214134700Y-113961600D03*
D12*
X213284700Y-114031600D03*
X213284700Y-112231600D03*
D13*
X213284700Y-113131600D03*
D12*
X214984700Y-112231600D03*
D13*
X214984700Y-113131600D03*
D12*
X214984700Y-114031600D03*
%TD*%
D10*
%TO.C,LD9\u002C4*%
X223532700Y-131953600D03*
D11*
X223532700Y-133773600D03*
D12*
X222682700Y-133843600D03*
X222682700Y-132043600D03*
D13*
X222682700Y-132943600D03*
D12*
X224382700Y-132043600D03*
D13*
X224382700Y-132943600D03*
D12*
X224382700Y-133843600D03*
%TD*%
D10*
%TO.C,LD9\u002C1*%
X199212200Y-73470100D03*
D11*
X199212200Y-75290100D03*
D12*
X198362200Y-75360100D03*
X198362200Y-73560100D03*
D13*
X198362200Y-74460100D03*
D12*
X200062200Y-73560100D03*
D13*
X200062200Y-74460100D03*
D12*
X200062200Y-75360100D03*
%TD*%
D10*
%TO.C,LD9\u002C0*%
X238503460Y-47562100D03*
D11*
X238503460Y-49382100D03*
D12*
X237653460Y-49452100D03*
X237653460Y-47652100D03*
D13*
X237653460Y-48552100D03*
D12*
X239353460Y-47652100D03*
D13*
X239353460Y-48552100D03*
D12*
X239353460Y-49452100D03*
%TD*%
D10*
%TO.C,LD8\u002C5*%
X221183200Y-151384600D03*
D11*
X221183200Y-153204600D03*
D12*
X220333200Y-153274600D03*
X220333200Y-151474600D03*
D13*
X220333200Y-152374600D03*
D12*
X222033200Y-151474600D03*
D13*
X222033200Y-152374600D03*
D12*
X222033200Y-153274600D03*
%TD*%
D10*
%TO.C,LD8\u002C1*%
X179908200Y-73470100D03*
D11*
X179908200Y-75290100D03*
D12*
X179058200Y-75360100D03*
X179058200Y-73560100D03*
D13*
X179058200Y-74460100D03*
D12*
X180758200Y-73560100D03*
D13*
X180758200Y-74460100D03*
D12*
X180758200Y-75360100D03*
%TD*%
D10*
%TO.C,LD8\u002C2*%
X189941200Y-92710600D03*
D11*
X189941200Y-94530600D03*
D12*
X189091200Y-94600600D03*
X189091200Y-92800600D03*
D13*
X189091200Y-93700600D03*
D12*
X190791200Y-92800600D03*
D13*
X190791200Y-93700600D03*
D12*
X190791200Y-94600600D03*
%TD*%
D10*
%TO.C,LD8\u002C0*%
X212087460Y-47562100D03*
D11*
X212087460Y-49382100D03*
D12*
X211237460Y-49452100D03*
X211237460Y-47652100D03*
D13*
X211237460Y-48552100D03*
D12*
X212937460Y-47652100D03*
D13*
X212937460Y-48552100D03*
D12*
X212937460Y-49452100D03*
%TD*%
D10*
%TO.C,LD8\u002C4*%
X204228700Y-131953600D03*
D11*
X204228700Y-133773600D03*
D12*
X203378700Y-133843600D03*
X203378700Y-132043600D03*
D13*
X203378700Y-132943600D03*
D12*
X205078700Y-132043600D03*
D13*
X205078700Y-132943600D03*
D12*
X205078700Y-133843600D03*
%TD*%
D10*
%TO.C,LD8\u002C3*%
X194830700Y-112141600D03*
D11*
X194830700Y-113961600D03*
D12*
X193980700Y-114031600D03*
X193980700Y-112231600D03*
D13*
X193980700Y-113131600D03*
D12*
X195680700Y-112231600D03*
D13*
X195680700Y-113131600D03*
D12*
X195680700Y-114031600D03*
%TD*%
D10*
%TO.C,LD7\u002C2*%
X170637200Y-92710600D03*
D11*
X170637200Y-94530600D03*
D12*
X169787200Y-94600600D03*
X169787200Y-92800600D03*
D13*
X169787200Y-93700600D03*
D12*
X171487200Y-92800600D03*
D13*
X171487200Y-93700600D03*
D12*
X171487200Y-94600600D03*
%TD*%
D10*
%TO.C,LD7\u002C1*%
X160604200Y-73470100D03*
D11*
X160604200Y-75290100D03*
D12*
X159754200Y-75360100D03*
X159754200Y-73560100D03*
D13*
X159754200Y-74460100D03*
D12*
X161454200Y-73560100D03*
D13*
X161454200Y-74460100D03*
D12*
X161454200Y-75360100D03*
%TD*%
D10*
%TO.C,LD7\u002C3*%
X175526700Y-112141600D03*
D11*
X175526700Y-113961600D03*
D12*
X174676700Y-114031600D03*
X174676700Y-112231600D03*
D13*
X174676700Y-113131600D03*
D12*
X176376700Y-112231600D03*
D13*
X176376700Y-113131600D03*
D12*
X176376700Y-114031600D03*
%TD*%
D10*
%TO.C,LD7\u002C4*%
X184924700Y-131953600D03*
D11*
X184924700Y-133773600D03*
D12*
X184074700Y-133843600D03*
X184074700Y-132043600D03*
D13*
X184074700Y-132943600D03*
D12*
X185774700Y-132043600D03*
D13*
X185774700Y-132943600D03*
D12*
X185774700Y-133843600D03*
%TD*%
D10*
%TO.C,LD7\u002C0*%
X192783460Y-47562100D03*
D11*
X192783460Y-49382100D03*
D12*
X191933460Y-49452100D03*
X191933460Y-47652100D03*
D13*
X191933460Y-48552100D03*
D12*
X193633460Y-47652100D03*
D13*
X193633460Y-48552100D03*
D12*
X193633460Y-49452100D03*
%TD*%
D10*
%TO.C,LD6\u002C1*%
X141300200Y-73470100D03*
D11*
X141300200Y-75290100D03*
D12*
X140450200Y-75360100D03*
X140450200Y-73560100D03*
D13*
X140450200Y-74460100D03*
D12*
X142150200Y-73560100D03*
D13*
X142150200Y-74460100D03*
D12*
X142150200Y-75360100D03*
%TD*%
D10*
%TO.C,LD6\u002C3*%
X156222700Y-112141600D03*
D11*
X156222700Y-113961600D03*
D12*
X155372700Y-114031600D03*
X155372700Y-112231600D03*
D13*
X155372700Y-113131600D03*
D12*
X157072700Y-112231600D03*
D13*
X157072700Y-113131600D03*
D12*
X157072700Y-114031600D03*
%TD*%
D10*
%TO.C,LD6\u002C4*%
X165620700Y-131953600D03*
D11*
X165620700Y-133773600D03*
D12*
X164770700Y-133843600D03*
X164770700Y-132043600D03*
D13*
X164770700Y-132943600D03*
D12*
X166470700Y-132043600D03*
D13*
X166470700Y-132943600D03*
D12*
X166470700Y-133843600D03*
%TD*%
D10*
%TO.C,LD6\u002C0*%
X173479460Y-47562100D03*
D11*
X173479460Y-49382100D03*
D12*
X172629460Y-49452100D03*
X172629460Y-47652100D03*
D13*
X172629460Y-48552100D03*
D12*
X174329460Y-47652100D03*
D13*
X174329460Y-48552100D03*
D12*
X174329460Y-49452100D03*
%TD*%
D10*
%TO.C,LD6\u002C2*%
X151333200Y-92710600D03*
D11*
X151333200Y-94530600D03*
D12*
X150483200Y-94600600D03*
X150483200Y-92800600D03*
D13*
X150483200Y-93700600D03*
D12*
X152183200Y-92800600D03*
D13*
X152183200Y-93700600D03*
D12*
X152183200Y-94600600D03*
%TD*%
D10*
%TO.C,LD5\u002C1*%
X121996200Y-73470100D03*
D11*
X121996200Y-75290100D03*
D12*
X121146200Y-75360100D03*
X121146200Y-73560100D03*
D13*
X121146200Y-74460100D03*
D12*
X122846200Y-73560100D03*
D13*
X122846200Y-74460100D03*
D12*
X122846200Y-75360100D03*
%TD*%
D10*
%TO.C,LD5\u002C2*%
X132029200Y-92710600D03*
D11*
X132029200Y-94530600D03*
D12*
X131179200Y-94600600D03*
X131179200Y-92800600D03*
D13*
X131179200Y-93700600D03*
D12*
X132879200Y-92800600D03*
D13*
X132879200Y-93700600D03*
D12*
X132879200Y-94600600D03*
%TD*%
D10*
%TO.C,LD5\u002C4*%
X146316700Y-131953600D03*
D11*
X146316700Y-133773600D03*
D12*
X145466700Y-133843600D03*
X145466700Y-132043600D03*
D13*
X145466700Y-132943600D03*
D12*
X147166700Y-132043600D03*
D13*
X147166700Y-132943600D03*
D12*
X147166700Y-133843600D03*
%TD*%
D10*
%TO.C,LD5\u002C0*%
X154175460Y-47562100D03*
D11*
X154175460Y-49382100D03*
D12*
X153325460Y-49452100D03*
X153325460Y-47652100D03*
D13*
X153325460Y-48552100D03*
D12*
X155025460Y-47652100D03*
D13*
X155025460Y-48552100D03*
D12*
X155025460Y-49452100D03*
%TD*%
D10*
%TO.C,LD5\u002C3*%
X136918700Y-112141600D03*
D11*
X136918700Y-113961600D03*
D12*
X136068700Y-114031600D03*
X136068700Y-112231600D03*
D13*
X136068700Y-113131600D03*
D12*
X137768700Y-112231600D03*
D13*
X137768700Y-113131600D03*
D12*
X137768700Y-114031600D03*
%TD*%
D10*
%TO.C,LD4\u002C3*%
X117614700Y-112141600D03*
D11*
X117614700Y-113961600D03*
D12*
X116764700Y-114031600D03*
X116764700Y-112231600D03*
D13*
X116764700Y-113131600D03*
D12*
X118464700Y-112231600D03*
D13*
X118464700Y-113131600D03*
D12*
X118464700Y-114031600D03*
%TD*%
D10*
%TO.C,LD4\u002C4*%
X127012700Y-131953600D03*
D11*
X127012700Y-133773600D03*
D12*
X126162700Y-133843600D03*
X126162700Y-132043600D03*
D13*
X126162700Y-132943600D03*
D12*
X127862700Y-132043600D03*
D13*
X127862700Y-132943600D03*
D12*
X127862700Y-133843600D03*
%TD*%
D10*
%TO.C,LD4\u002C0*%
X122679460Y-47562100D03*
D11*
X122679460Y-49382100D03*
D12*
X121829460Y-49452100D03*
X121829460Y-47652100D03*
D13*
X121829460Y-48552100D03*
D12*
X123529460Y-47652100D03*
D13*
X123529460Y-48552100D03*
D12*
X123529460Y-49452100D03*
%TD*%
D10*
%TO.C,LD4\u002C2*%
X112725200Y-92710600D03*
D11*
X112725200Y-94530600D03*
D12*
X111875200Y-94600600D03*
X111875200Y-92800600D03*
D13*
X111875200Y-93700600D03*
D12*
X113575200Y-92800600D03*
D13*
X113575200Y-93700600D03*
D12*
X113575200Y-94600600D03*
%TD*%
D10*
%TO.C,LD4\u002C1*%
X102692200Y-73470100D03*
D11*
X102692200Y-75290100D03*
D12*
X101842200Y-75360100D03*
X101842200Y-73560100D03*
D13*
X101842200Y-74460100D03*
D12*
X103542200Y-73560100D03*
D13*
X103542200Y-74460100D03*
D12*
X103542200Y-75360100D03*
%TD*%
D10*
%TO.C,LD3\u002C0*%
X103375460Y-47562100D03*
D11*
X103375460Y-49382100D03*
D12*
X102525460Y-49452100D03*
X102525460Y-47652100D03*
D13*
X102525460Y-48552100D03*
D12*
X104225460Y-47652100D03*
D13*
X104225460Y-48552100D03*
D12*
X104225460Y-49452100D03*
%TD*%
D10*
%TO.C,LD3\u002C1*%
X83388200Y-73470100D03*
D11*
X83388200Y-75290100D03*
D12*
X82538200Y-75360100D03*
X82538200Y-73560100D03*
D13*
X82538200Y-74460100D03*
D12*
X84238200Y-73560100D03*
D13*
X84238200Y-74460100D03*
D12*
X84238200Y-75360100D03*
%TD*%
D10*
%TO.C,LD3\u002C2*%
X93421200Y-92710600D03*
D11*
X93421200Y-94530600D03*
D12*
X92571200Y-94600600D03*
X92571200Y-92800600D03*
D13*
X92571200Y-93700600D03*
D12*
X94271200Y-92800600D03*
D13*
X94271200Y-93700600D03*
D12*
X94271200Y-94600600D03*
%TD*%
D10*
%TO.C,LD3\u002C4*%
X107708700Y-131953600D03*
D11*
X107708700Y-133773600D03*
D12*
X106858700Y-133843600D03*
X106858700Y-132043600D03*
D13*
X106858700Y-132943600D03*
D12*
X108558700Y-132043600D03*
D13*
X108558700Y-132943600D03*
D12*
X108558700Y-133843600D03*
%TD*%
D10*
%TO.C,LD3\u002C5*%
X149428200Y-151384600D03*
D11*
X149428200Y-153204600D03*
D12*
X148578200Y-153274600D03*
X148578200Y-151474600D03*
D13*
X148578200Y-152374600D03*
D12*
X150278200Y-151474600D03*
D13*
X150278200Y-152374600D03*
D12*
X150278200Y-153274600D03*
%TD*%
D10*
%TO.C,LD3\u002C3*%
X98310700Y-112141600D03*
D11*
X98310700Y-113961600D03*
D12*
X97460700Y-114031600D03*
X97460700Y-112231600D03*
D13*
X97460700Y-113131600D03*
D12*
X99160700Y-112231600D03*
D13*
X99160700Y-113131600D03*
D12*
X99160700Y-114031600D03*
%TD*%
D10*
%TO.C,LD2\u002C3*%
X79006700Y-112141600D03*
D11*
X79006700Y-113961600D03*
D12*
X78156700Y-114031600D03*
X78156700Y-112231600D03*
D13*
X78156700Y-113131600D03*
D12*
X79856700Y-112231600D03*
D13*
X79856700Y-113131600D03*
D12*
X79856700Y-114031600D03*
%TD*%
D10*
%TO.C,LD2\u002C5*%
X77546200Y-151384600D03*
D11*
X77546200Y-153204600D03*
D12*
X76696200Y-153274600D03*
X76696200Y-151474600D03*
D13*
X76696200Y-152374600D03*
D12*
X78396200Y-151474600D03*
D13*
X78396200Y-152374600D03*
D12*
X78396200Y-153274600D03*
%TD*%
D10*
%TO.C,LD2\u002C4*%
X88264700Y-131953600D03*
D11*
X88264700Y-133773600D03*
D12*
X87414700Y-133843600D03*
X87414700Y-132043600D03*
D13*
X87414700Y-132943600D03*
D12*
X89114700Y-132043600D03*
D13*
X89114700Y-132943600D03*
D12*
X89114700Y-133843600D03*
%TD*%
D10*
%TO.C,LD2\u002C0*%
X84071460Y-47562100D03*
D11*
X84071460Y-49382100D03*
D12*
X83221460Y-49452100D03*
X83221460Y-47652100D03*
D13*
X83221460Y-48552100D03*
D12*
X84921460Y-47652100D03*
D13*
X84921460Y-48552100D03*
D12*
X84921460Y-49452100D03*
%TD*%
D10*
%TO.C,LD2\u002C1*%
X64592200Y-73470100D03*
D11*
X64592200Y-75290100D03*
D12*
X63742200Y-75360100D03*
X63742200Y-73560100D03*
D13*
X63742200Y-74460100D03*
D12*
X65442200Y-73560100D03*
D13*
X65442200Y-74460100D03*
D12*
X65442200Y-75360100D03*
%TD*%
D10*
%TO.C,LD2\u002C2*%
X74117200Y-92710600D03*
D11*
X74117200Y-94530600D03*
D12*
X73267200Y-94600600D03*
X73267200Y-92800600D03*
D13*
X73267200Y-93700600D03*
D12*
X74967200Y-92800600D03*
D13*
X74967200Y-93700600D03*
D12*
X74967200Y-94600600D03*
%TD*%
D10*
%TO.C,LD1\u002C0*%
X64767460Y-47562100D03*
D11*
X64767460Y-49382100D03*
D12*
X63917460Y-49452100D03*
X63917460Y-47652100D03*
D13*
X63917460Y-48552100D03*
D12*
X65617460Y-47652100D03*
D13*
X65617460Y-48552100D03*
D12*
X65617460Y-49452100D03*
%TD*%
D10*
%TO.C,LD1\u002C4*%
X69100700Y-131953600D03*
D11*
X69100700Y-133773600D03*
D12*
X68250700Y-133843600D03*
X68250700Y-132043600D03*
D13*
X68250700Y-132943600D03*
D12*
X69950700Y-132043600D03*
D13*
X69950700Y-132943600D03*
D12*
X69950700Y-133843600D03*
%TD*%
D10*
%TO.C,LD1\u002C1*%
X45389800Y-73482800D03*
D11*
X45389800Y-75302800D03*
D12*
X44539800Y-75372800D03*
X44539800Y-73572800D03*
D13*
X44539800Y-74472800D03*
D12*
X46239800Y-73572800D03*
D13*
X46239800Y-74472800D03*
D12*
X46239800Y-75372800D03*
%TD*%
D10*
%TO.C,LD1\u002C3*%
X59702700Y-112141600D03*
D11*
X59702700Y-113961600D03*
D12*
X58852700Y-114031600D03*
X58852700Y-112231600D03*
D13*
X58852700Y-113131600D03*
D12*
X60552700Y-112231600D03*
D13*
X60552700Y-113131600D03*
D12*
X60552700Y-114031600D03*
%TD*%
D10*
%TO.C,LD1\u002C5*%
X53162200Y-151384600D03*
D11*
X53162200Y-153204600D03*
D12*
X52312200Y-153274600D03*
X52312200Y-151474600D03*
D13*
X52312200Y-152374600D03*
D12*
X54012200Y-151474600D03*
D13*
X54012200Y-152374600D03*
D12*
X54012200Y-153274600D03*
%TD*%
D10*
%TO.C,LD1\u002C2*%
X54813200Y-92710600D03*
D11*
X54813200Y-94530600D03*
D12*
X53963200Y-94600600D03*
X53963200Y-92800600D03*
D13*
X53963200Y-93700600D03*
D12*
X55663200Y-92800600D03*
D13*
X55663200Y-93700600D03*
D12*
X55663200Y-94600600D03*
%TD*%
D10*
%TO.C,LD0\u002C2*%
X30886400Y-92685200D03*
D11*
X30886400Y-94505200D03*
D12*
X30036400Y-94575200D03*
X30036400Y-92775200D03*
D13*
X30036400Y-93675200D03*
D12*
X31736400Y-92775200D03*
D13*
X31736400Y-93675200D03*
D12*
X31736400Y-94575200D03*
%TD*%
D10*
%TO.C,LD0\u002C1*%
X26174700Y-73482800D03*
D11*
X26174700Y-75302800D03*
D12*
X25324700Y-75372800D03*
X25324700Y-73572800D03*
D13*
X25324700Y-74472800D03*
D12*
X27024700Y-73572800D03*
D13*
X27024700Y-74472800D03*
D12*
X27024700Y-75372800D03*
%TD*%
D10*
%TO.C,LD0\u002C5*%
X28587700Y-151333800D03*
D11*
X28587700Y-153153800D03*
D12*
X27737700Y-153223800D03*
X27737700Y-151423800D03*
D13*
X27737700Y-152323800D03*
D12*
X29437700Y-151423800D03*
D13*
X29437700Y-152323800D03*
D12*
X29437700Y-153223800D03*
%TD*%
D10*
%TO.C,LD0\u002C3*%
X33223200Y-112217800D03*
D11*
X33223200Y-114037800D03*
D12*
X32373200Y-114107800D03*
X32373200Y-112307800D03*
D13*
X32373200Y-113207800D03*
D12*
X34073200Y-112307800D03*
D13*
X34073200Y-113207800D03*
D12*
X34073200Y-114107800D03*
%TD*%
D10*
%TO.C,LD0\u002C4*%
X37985700Y-131953600D03*
D11*
X37985700Y-133773600D03*
D12*
X37135700Y-133843600D03*
X37135700Y-132043600D03*
D13*
X37135700Y-132943600D03*
D12*
X38835700Y-132043600D03*
D13*
X38835700Y-132943600D03*
D12*
X38835700Y-133843600D03*
%TD*%
D14*
%TO.C,J1*%
X344271600Y-26858200D03*
X344271600Y-21808200D03*
X346811600Y-26858200D03*
X346811600Y-21808200D03*
X349351600Y-26858200D03*
X349351600Y-21808200D03*
X351891600Y-26858200D03*
X351891600Y-21808200D03*
X354431600Y-26858200D03*
X354431600Y-21808200D03*
X356971600Y-26858200D03*
X356971600Y-21808200D03*
X359511600Y-26858200D03*
X359511600Y-21808200D03*
X362051600Y-26858200D03*
X362051600Y-21808200D03*
X364591600Y-26858200D03*
X364591600Y-21808200D03*
X367131600Y-26858200D03*
X367131600Y-21808200D03*
X369671600Y-26858200D03*
X369671600Y-21808200D03*
X372211600Y-26858200D03*
X372211600Y-21808200D03*
X374751600Y-26858200D03*
X374751600Y-21808200D03*
X377291600Y-26858200D03*
X377291600Y-21808200D03*
X379831600Y-26858200D03*
X379831600Y-21808200D03*
X382371600Y-26858200D03*
X382371600Y-21808200D03*
X384911600Y-26858200D03*
X384911600Y-21808200D03*
X387451600Y-26858200D03*
X387451600Y-21808200D03*
X389991600Y-26858200D03*
X389991600Y-21808200D03*
X392531600Y-26858200D03*
X392531600Y-21808200D03*
%TD*%
M02*
