%TF.GenerationSoftware,KiCad,Pcbnew,(5.1.9)-1*%
%TF.CreationDate,2021-05-01T00:42:49+10:00*%
%TF.ProjectId,RedPyKeeb_mainboard,52656450-794b-4656-9562-5f6d61696e62,rev?*%
%TF.SameCoordinates,Original*%
%TF.FileFunction,Paste,Top*%
%TF.FilePolarity,Positive*%
%FSLAX46Y46*%
G04 Gerber Fmt 4.6, Leading zero omitted, Abs format (unit mm)*
G04 Created by KiCad (PCBNEW (5.1.9)-1) date 2021-05-01 00:42:49*
%MOMM*%
%LPD*%
G01*
G04 APERTURE LIST*
%ADD10R,0.800000X0.500000*%
%ADD11R,0.800000X0.300000*%
%ADD12R,0.500000X1.000000*%
%ADD13R,0.500000X1.580000*%
G04 APERTURE END LIST*
D10*
%TO.C,LD3\u002C5\u002C1*%
X179805700Y-153249200D03*
D11*
X179805700Y-152349200D03*
D10*
X179805700Y-151449200D03*
D11*
X178105700Y-152349200D03*
D10*
X178105700Y-151449200D03*
X178105700Y-153249200D03*
D12*
X178955700Y-153179200D03*
D13*
X178955700Y-151659200D03*
%TD*%
D10*
%TO.C,LD3\u002C5\u002C0*%
X115708800Y-153261900D03*
D11*
X115708800Y-152361900D03*
D10*
X115708800Y-151461900D03*
D11*
X114008800Y-152361900D03*
D10*
X114008800Y-151461900D03*
X114008800Y-153261900D03*
D12*
X114858800Y-153191900D03*
D13*
X114858800Y-151671900D03*
%TD*%
D10*
%TO.C,LD20\u002C7*%
X440181100Y-68375100D03*
D11*
X440181100Y-67475100D03*
D10*
X440181100Y-66575100D03*
D11*
X438481100Y-67475100D03*
D10*
X438481100Y-66575100D03*
X438481100Y-68375100D03*
D12*
X439331100Y-68305100D03*
D13*
X439331100Y-66785100D03*
%TD*%
D10*
%TO.C,LD20\u002C0*%
X439927100Y-49464800D03*
D11*
X439927100Y-48564800D03*
D10*
X439927100Y-47664800D03*
D11*
X438227100Y-48564800D03*
D10*
X438227100Y-47664800D03*
X438227100Y-49464800D03*
D12*
X439077100Y-49394800D03*
D13*
X439077100Y-47874800D03*
%TD*%
D10*
%TO.C,LD20\u002C1*%
X439990600Y-75360100D03*
D11*
X439990600Y-74460100D03*
D10*
X439990600Y-73560100D03*
D11*
X438290600Y-74460100D03*
D10*
X438290600Y-73560100D03*
X438290600Y-75360100D03*
D12*
X439140600Y-75290100D03*
D13*
X439140600Y-73770100D03*
%TD*%
D10*
%TO.C,LD19\u002C6*%
X440244600Y-145019600D03*
D11*
X440244600Y-144119600D03*
D10*
X440244600Y-143219600D03*
D11*
X438544600Y-144119600D03*
D10*
X438544600Y-143219600D03*
X438544600Y-145019600D03*
D12*
X439394600Y-144949600D03*
D13*
X439394600Y-143429600D03*
%TD*%
D10*
%TO.C,LD19\u002C3*%
X420686600Y-94626000D03*
D11*
X420686600Y-93726000D03*
D10*
X420686600Y-92826000D03*
D11*
X418986600Y-93726000D03*
D10*
X418986600Y-92826000D03*
X418986600Y-94626000D03*
D12*
X419836600Y-94556000D03*
D13*
X419836600Y-93036000D03*
%TD*%
D10*
%TO.C,LD19\u002C4*%
X439990600Y-104506600D03*
D11*
X439990600Y-103606600D03*
D10*
X439990600Y-102706600D03*
D11*
X438290600Y-103606600D03*
D10*
X438290600Y-102706600D03*
X438290600Y-104506600D03*
D12*
X439140600Y-104436600D03*
D13*
X439140600Y-102916600D03*
%TD*%
D10*
%TO.C,LD19\u002C1*%
X420686600Y-75372800D03*
D11*
X420686600Y-74472800D03*
D10*
X420686600Y-73572800D03*
D11*
X418986600Y-74472800D03*
D10*
X418986600Y-73572800D03*
X418986600Y-75372800D03*
D12*
X419836600Y-75302800D03*
D13*
X419836600Y-73782800D03*
%TD*%
D10*
%TO.C,LD19\u002C0*%
X420610400Y-49464800D03*
D11*
X420610400Y-48564800D03*
D10*
X420610400Y-47664800D03*
D11*
X418910400Y-48564800D03*
D10*
X418910400Y-47664800D03*
X418910400Y-49464800D03*
D12*
X419760400Y-49394800D03*
D13*
X419760400Y-47874800D03*
%TD*%
D10*
%TO.C,LD19\u002C7*%
X420877100Y-68324300D03*
D11*
X420877100Y-67424300D03*
D10*
X420877100Y-66524300D03*
D11*
X419177100Y-67424300D03*
D10*
X419177100Y-66524300D03*
X419177100Y-68324300D03*
D12*
X420027100Y-68254300D03*
D13*
X420027100Y-66734300D03*
%TD*%
D10*
%TO.C,LD18\u002C0*%
X401306400Y-49464800D03*
D11*
X401306400Y-48564800D03*
D10*
X401306400Y-47664800D03*
D11*
X399606400Y-48564800D03*
D10*
X399606400Y-47664800D03*
X399606400Y-49464800D03*
D12*
X400456400Y-49394800D03*
D13*
X400456400Y-47874800D03*
%TD*%
D10*
%TO.C,LD18\u002C3*%
X401382600Y-94626000D03*
D11*
X401382600Y-93726000D03*
D10*
X401382600Y-92826000D03*
D11*
X399682600Y-93726000D03*
D10*
X399682600Y-92826000D03*
X399682600Y-94626000D03*
D12*
X400532600Y-94556000D03*
D13*
X400532600Y-93036000D03*
%TD*%
D10*
%TO.C,LD18\u002C4*%
X420686600Y-113968100D03*
D11*
X420686600Y-113068100D03*
D10*
X420686600Y-112168100D03*
D11*
X418986600Y-113068100D03*
D10*
X418986600Y-112168100D03*
X418986600Y-113968100D03*
D12*
X419836600Y-113898100D03*
D13*
X419836600Y-112378100D03*
%TD*%
D10*
%TO.C,LD18\u002C5*%
X420686600Y-133335600D03*
D11*
X420686600Y-132435600D03*
D10*
X420686600Y-131535600D03*
D11*
X418986600Y-132435600D03*
D10*
X418986600Y-131535600D03*
X418986600Y-133335600D03*
D12*
X419836600Y-133265600D03*
D13*
X419836600Y-131745600D03*
%TD*%
D10*
%TO.C,LD18\u002C7*%
X401573100Y-68324300D03*
D11*
X401573100Y-67424300D03*
D10*
X401573100Y-66524300D03*
D11*
X399873100Y-67424300D03*
D10*
X399873100Y-66524300D03*
X399873100Y-68324300D03*
D12*
X400723100Y-68254300D03*
D13*
X400723100Y-66734300D03*
%TD*%
D10*
%TO.C,LD18\u002C1*%
X401382600Y-75360100D03*
D11*
X401382600Y-74460100D03*
D10*
X401382600Y-73560100D03*
D11*
X399682600Y-74460100D03*
D10*
X399682600Y-73560100D03*
X399682600Y-75360100D03*
D12*
X400532600Y-75290100D03*
D13*
X400532600Y-73770100D03*
%TD*%
D10*
%TO.C,LD18\u002C6*%
X420686600Y-152639600D03*
D11*
X420686600Y-151739600D03*
D10*
X420686600Y-150839600D03*
D11*
X418986600Y-151739600D03*
D10*
X418986600Y-150839600D03*
X418986600Y-152639600D03*
D12*
X419836600Y-152569600D03*
D13*
X419836600Y-151049600D03*
%TD*%
D10*
%TO.C,LD17\u002C4*%
X401382600Y-114031600D03*
D11*
X401382600Y-113131600D03*
D10*
X401382600Y-112231600D03*
D11*
X399682600Y-113131600D03*
D10*
X399682600Y-112231600D03*
X399682600Y-114031600D03*
D12*
X400532600Y-113961600D03*
D13*
X400532600Y-112441600D03*
%TD*%
D10*
%TO.C,LD17\u002C3*%
X382078600Y-94626000D03*
D11*
X382078600Y-93726000D03*
D10*
X382078600Y-92826000D03*
D11*
X380378600Y-93726000D03*
D10*
X380378600Y-92826000D03*
X380378600Y-94626000D03*
D12*
X381228600Y-94556000D03*
D13*
X381228600Y-93036000D03*
%TD*%
D10*
%TO.C,LD17\u002C6*%
X391857600Y-152639600D03*
D11*
X391857600Y-151739600D03*
D10*
X391857600Y-150839600D03*
D11*
X390157600Y-151739600D03*
D10*
X390157600Y-150839600D03*
X390157600Y-152639600D03*
D12*
X391007600Y-152569600D03*
D13*
X391007600Y-151049600D03*
%TD*%
D10*
%TO.C,LD17\u002C5*%
X401382600Y-133335600D03*
D11*
X401382600Y-132435600D03*
D10*
X401382600Y-131535600D03*
D11*
X399682600Y-132435600D03*
D10*
X399682600Y-131535600D03*
X399682600Y-133335600D03*
D12*
X400532600Y-133265600D03*
D13*
X400532600Y-131745600D03*
%TD*%
D10*
%TO.C,LD17\u002C1*%
X382078600Y-75360100D03*
D11*
X382078600Y-74460100D03*
D10*
X382078600Y-73560100D03*
D11*
X380378600Y-74460100D03*
D10*
X380378600Y-73560100D03*
X380378600Y-75360100D03*
D12*
X381228600Y-75290100D03*
D13*
X381228600Y-73770100D03*
%TD*%
D10*
%TO.C,LD17\u002C0*%
X382002400Y-49464800D03*
D11*
X382002400Y-48564800D03*
D10*
X382002400Y-47664800D03*
D11*
X380302400Y-48564800D03*
D10*
X380302400Y-47664800D03*
X380302400Y-49464800D03*
D12*
X381152400Y-49394800D03*
D13*
X381152400Y-47874800D03*
%TD*%
D10*
%TO.C,LD17\u002C7*%
X381951600Y-68375100D03*
D11*
X381951600Y-67475100D03*
D10*
X381951600Y-66575100D03*
D11*
X380251600Y-67475100D03*
D10*
X380251600Y-66575100D03*
X380251600Y-68375100D03*
D12*
X381101600Y-68305100D03*
D13*
X381101600Y-66785100D03*
%TD*%
D10*
%TO.C,LD16\u002C5*%
X382332600Y-133335600D03*
D11*
X382332600Y-132435600D03*
D10*
X382332600Y-131535600D03*
D11*
X380632600Y-132435600D03*
D10*
X380632600Y-131535600D03*
X380632600Y-133335600D03*
D12*
X381482600Y-133265600D03*
D13*
X381482600Y-131745600D03*
%TD*%
D10*
%TO.C,LD16\u002C3*%
X358202600Y-94600600D03*
D11*
X358202600Y-93700600D03*
D10*
X358202600Y-92800600D03*
D11*
X356502600Y-93700600D03*
D10*
X356502600Y-92800600D03*
X356502600Y-94600600D03*
D12*
X357352600Y-94530600D03*
D13*
X357352600Y-93010600D03*
%TD*%
D10*
%TO.C,LD16\u002C1*%
X358280800Y-75385500D03*
D11*
X358280800Y-74485500D03*
D10*
X358280800Y-73585500D03*
D11*
X356580800Y-74485500D03*
D10*
X356580800Y-73585500D03*
X356580800Y-75385500D03*
D12*
X357430800Y-75315500D03*
D13*
X357430800Y-73795500D03*
%TD*%
D10*
%TO.C,LD16\u002C6*%
X358139100Y-153147600D03*
D11*
X358139100Y-152247600D03*
D10*
X358139100Y-151347600D03*
D11*
X356439100Y-152247600D03*
D10*
X356439100Y-151347600D03*
X356439100Y-153147600D03*
D12*
X357289100Y-153077600D03*
D13*
X357289100Y-151557600D03*
%TD*%
D10*
%TO.C,LD16\u002C0*%
X358697900Y-49452100D03*
D11*
X358697900Y-48552100D03*
D10*
X358697900Y-47652100D03*
D11*
X356997900Y-48552100D03*
D10*
X356997900Y-47652100D03*
X356997900Y-49452100D03*
D12*
X357847900Y-49382100D03*
D13*
X357847900Y-47862100D03*
%TD*%
D10*
%TO.C,LD16\u002C4*%
X382078600Y-114031600D03*
D11*
X382078600Y-113131600D03*
D10*
X382078600Y-112231600D03*
D11*
X380378600Y-113131600D03*
D10*
X380378600Y-112231600D03*
X380378600Y-114031600D03*
D12*
X381228600Y-113961600D03*
D13*
X381228600Y-112441600D03*
%TD*%
D10*
%TO.C,LD15\u002C0*%
X339393900Y-49452100D03*
D11*
X339393900Y-48552100D03*
D10*
X339393900Y-47652100D03*
D11*
X337693900Y-48552100D03*
D10*
X337693900Y-47652100D03*
X337693900Y-49452100D03*
D12*
X338543900Y-49382100D03*
D13*
X338543900Y-47862100D03*
%TD*%
D10*
%TO.C,LD15\u002C5*%
X338835100Y-133792800D03*
D11*
X338835100Y-132892800D03*
D10*
X338835100Y-131992800D03*
D11*
X337135100Y-132892800D03*
D10*
X337135100Y-131992800D03*
X337135100Y-133792800D03*
D12*
X337985100Y-133722800D03*
D13*
X337985100Y-132202800D03*
%TD*%
D10*
%TO.C,LD15\u002C6*%
X338835100Y-153147600D03*
D11*
X338835100Y-152247600D03*
D10*
X338835100Y-151347600D03*
D11*
X337135100Y-152247600D03*
D10*
X337135100Y-151347600D03*
X337135100Y-153147600D03*
D12*
X337985100Y-153077600D03*
D13*
X337985100Y-151557600D03*
%TD*%
D10*
%TO.C,LD15\u002C3*%
X338898600Y-94600600D03*
D11*
X338898600Y-93700600D03*
D10*
X338898600Y-92800600D03*
D11*
X337198600Y-93700600D03*
D10*
X337198600Y-92800600D03*
X337198600Y-94600600D03*
D12*
X338048600Y-94530600D03*
D13*
X338048600Y-93010600D03*
%TD*%
D10*
%TO.C,LD15\u002C1*%
X338898600Y-75360100D03*
D11*
X338898600Y-74460100D03*
D10*
X338898600Y-73560100D03*
D11*
X337198600Y-74460100D03*
D10*
X337198600Y-73560100D03*
X337198600Y-75360100D03*
D12*
X338048600Y-75290100D03*
D13*
X338048600Y-73770100D03*
%TD*%
D10*
%TO.C,LD14\u002C1*%
X319594600Y-75360100D03*
D11*
X319594600Y-74460100D03*
D10*
X319594600Y-73560100D03*
D11*
X317894600Y-74460100D03*
D10*
X317894600Y-73560100D03*
X317894600Y-75360100D03*
D12*
X318744600Y-75290100D03*
D13*
X318744600Y-73770100D03*
%TD*%
D10*
%TO.C,LD14\u002C3*%
X319594600Y-94600600D03*
D11*
X319594600Y-93700600D03*
D10*
X319594600Y-92800600D03*
D11*
X317894600Y-93700600D03*
D10*
X317894600Y-92800600D03*
X317894600Y-94600600D03*
D12*
X318744600Y-94530600D03*
D13*
X318744600Y-93010600D03*
%TD*%
D10*
%TO.C,LD14\u002C0*%
X319835900Y-49452100D03*
D11*
X319835900Y-48552100D03*
D10*
X319835900Y-47652100D03*
D11*
X318135900Y-48552100D03*
D10*
X318135900Y-47652100D03*
X318135900Y-49452100D03*
D12*
X318985900Y-49382100D03*
D13*
X318985900Y-47862100D03*
%TD*%
D10*
%TO.C,LD14\u002C6*%
X319531100Y-153147600D03*
D11*
X319531100Y-152247600D03*
D10*
X319531100Y-151347600D03*
D11*
X317831100Y-152247600D03*
D10*
X317831100Y-151347600D03*
X317831100Y-153147600D03*
D12*
X318681100Y-153077600D03*
D13*
X318681100Y-151557600D03*
%TD*%
D10*
%TO.C,LD13\u002C1*%
X286739700Y-75360100D03*
D11*
X286739700Y-74460100D03*
D10*
X286739700Y-73560100D03*
D11*
X285039700Y-74460100D03*
D10*
X285039700Y-73560100D03*
X285039700Y-75360100D03*
D12*
X285889700Y-75290100D03*
D13*
X285889700Y-73770100D03*
%TD*%
D10*
%TO.C,LD13\u002C2*%
X291934000Y-94626000D03*
D11*
X291934000Y-93726000D03*
D10*
X291934000Y-92826000D03*
D11*
X290234000Y-93726000D03*
D10*
X290234000Y-92826000D03*
X290234000Y-94626000D03*
D12*
X291084000Y-94556000D03*
D13*
X291084000Y-93036000D03*
%TD*%
D10*
%TO.C,LD12\u002C0*%
X297265460Y-49452100D03*
D11*
X297265460Y-48552100D03*
D10*
X297265460Y-47652100D03*
D11*
X295565460Y-48552100D03*
D10*
X295565460Y-47652100D03*
X295565460Y-49452100D03*
D12*
X296415460Y-49382100D03*
D13*
X296415460Y-47862100D03*
%TD*%
D10*
%TO.C,LD12\u002C1*%
X257974200Y-75360100D03*
D11*
X257974200Y-74460100D03*
D10*
X257974200Y-73560100D03*
D11*
X256274200Y-74460100D03*
D10*
X256274200Y-73560100D03*
X256274200Y-75360100D03*
D12*
X257124200Y-75290100D03*
D13*
X257124200Y-73770100D03*
%TD*%
D10*
%TO.C,LD12\u002C3*%
X284872800Y-114057000D03*
D11*
X284872800Y-113157000D03*
D10*
X284872800Y-112257000D03*
D11*
X283172800Y-113157000D03*
D10*
X283172800Y-112257000D03*
X283172800Y-114057000D03*
D12*
X284022800Y-113987000D03*
D13*
X284022800Y-112467000D03*
%TD*%
D10*
%TO.C,LD12\u002C2*%
X268007200Y-94600600D03*
D11*
X268007200Y-93700600D03*
D10*
X268007200Y-92800600D03*
D11*
X266307200Y-93700600D03*
D10*
X266307200Y-92800600D03*
X266307200Y-94600600D03*
D12*
X267157200Y-94530600D03*
D13*
X267157200Y-93010600D03*
%TD*%
D10*
%TO.C,LD11\u002C4*%
X280072200Y-133843600D03*
D11*
X280072200Y-132943600D03*
D10*
X280072200Y-132043600D03*
D11*
X278372200Y-132943600D03*
D10*
X278372200Y-132043600D03*
X278372200Y-133843600D03*
D12*
X279222200Y-133773600D03*
D13*
X279222200Y-132253600D03*
%TD*%
D10*
%TO.C,LD11\u002C2*%
X248703200Y-94600600D03*
D11*
X248703200Y-93700600D03*
D10*
X248703200Y-92800600D03*
D11*
X247003200Y-93700600D03*
D10*
X247003200Y-92800600D03*
X247003200Y-94600600D03*
D12*
X247853200Y-94530600D03*
D13*
X247853200Y-93010600D03*
%TD*%
D10*
%TO.C,LD11\u002C5*%
X294423200Y-153274600D03*
D11*
X294423200Y-152374600D03*
D10*
X294423200Y-151474600D03*
D11*
X292723200Y-152374600D03*
D10*
X292723200Y-151474600D03*
X292723200Y-153274600D03*
D12*
X293573200Y-153204600D03*
D13*
X293573200Y-151684600D03*
%TD*%
D10*
%TO.C,LD11\u002C0*%
X277961460Y-49452100D03*
D11*
X277961460Y-48552100D03*
D10*
X277961460Y-47652100D03*
D11*
X276261460Y-48552100D03*
D10*
X276261460Y-47652100D03*
X276261460Y-49452100D03*
D12*
X277111460Y-49382100D03*
D13*
X277111460Y-47862100D03*
%TD*%
D10*
%TO.C,LD11\u002C3*%
X253592700Y-114031600D03*
D11*
X253592700Y-113131600D03*
D10*
X253592700Y-112231600D03*
D11*
X251892700Y-113131600D03*
D10*
X251892700Y-112231600D03*
X251892700Y-114031600D03*
D12*
X252742700Y-113961600D03*
D13*
X252742700Y-112441600D03*
%TD*%
D10*
%TO.C,LD11\u002C1*%
X238670200Y-75360100D03*
D11*
X238670200Y-74460100D03*
D10*
X238670200Y-73560100D03*
D11*
X236970200Y-74460100D03*
D10*
X236970200Y-73560100D03*
X236970200Y-75360100D03*
D12*
X237820200Y-75290100D03*
D13*
X237820200Y-73770100D03*
%TD*%
D10*
%TO.C,LD10\u002C3*%
X234288700Y-114031600D03*
D11*
X234288700Y-113131600D03*
D10*
X234288700Y-112231600D03*
D11*
X232588700Y-113131600D03*
D10*
X232588700Y-112231600D03*
X232588700Y-114031600D03*
D12*
X233438700Y-113961600D03*
D13*
X233438700Y-112441600D03*
%TD*%
D10*
%TO.C,LD10\u002C4*%
X243686700Y-133843600D03*
D11*
X243686700Y-132943600D03*
D10*
X243686700Y-132043600D03*
D11*
X241986700Y-132943600D03*
D10*
X241986700Y-132043600D03*
X241986700Y-133843600D03*
D12*
X242836700Y-133773600D03*
D13*
X242836700Y-132253600D03*
%TD*%
D10*
%TO.C,LD10\u002C2*%
X229399200Y-94600600D03*
D11*
X229399200Y-93700600D03*
D10*
X229399200Y-92800600D03*
D11*
X227699200Y-93700600D03*
D10*
X227699200Y-92800600D03*
X227699200Y-94600600D03*
D12*
X228549200Y-94530600D03*
D13*
X228549200Y-93010600D03*
%TD*%
D10*
%TO.C,LD10\u002C1*%
X219366200Y-75360100D03*
D11*
X219366200Y-74460100D03*
D10*
X219366200Y-73560100D03*
D11*
X217666200Y-74460100D03*
D10*
X217666200Y-73560100D03*
X217666200Y-75360100D03*
D12*
X218516200Y-75290100D03*
D13*
X218516200Y-73770100D03*
%TD*%
D10*
%TO.C,LD10\u002C5*%
X270356700Y-153274600D03*
D11*
X270356700Y-152374600D03*
D10*
X270356700Y-151474600D03*
D11*
X268656700Y-152374600D03*
D10*
X268656700Y-151474600D03*
X268656700Y-153274600D03*
D12*
X269506700Y-153204600D03*
D13*
X269506700Y-151684600D03*
%TD*%
D10*
%TO.C,LD10\u002C0*%
X258657460Y-49452100D03*
D11*
X258657460Y-48552100D03*
D10*
X258657460Y-47652100D03*
D11*
X256957460Y-48552100D03*
D10*
X256957460Y-47652100D03*
X256957460Y-49452100D03*
D12*
X257807460Y-49382100D03*
D13*
X257807460Y-47862100D03*
%TD*%
D10*
%TO.C,LD9\u002C2*%
X210095200Y-94600600D03*
D11*
X210095200Y-93700600D03*
D10*
X210095200Y-92800600D03*
D11*
X208395200Y-93700600D03*
D10*
X208395200Y-92800600D03*
X208395200Y-94600600D03*
D12*
X209245200Y-94530600D03*
D13*
X209245200Y-93010600D03*
%TD*%
D10*
%TO.C,LD9\u002C5*%
X246163200Y-153274600D03*
D11*
X246163200Y-152374600D03*
D10*
X246163200Y-151474600D03*
D11*
X244463200Y-152374600D03*
D10*
X244463200Y-151474600D03*
X244463200Y-153274600D03*
D12*
X245313200Y-153204600D03*
D13*
X245313200Y-151684600D03*
%TD*%
D10*
%TO.C,LD9\u002C3*%
X214984700Y-114031600D03*
D11*
X214984700Y-113131600D03*
D10*
X214984700Y-112231600D03*
D11*
X213284700Y-113131600D03*
D10*
X213284700Y-112231600D03*
X213284700Y-114031600D03*
D12*
X214134700Y-113961600D03*
D13*
X214134700Y-112441600D03*
%TD*%
D10*
%TO.C,LD9\u002C4*%
X224382700Y-133843600D03*
D11*
X224382700Y-132943600D03*
D10*
X224382700Y-132043600D03*
D11*
X222682700Y-132943600D03*
D10*
X222682700Y-132043600D03*
X222682700Y-133843600D03*
D12*
X223532700Y-133773600D03*
D13*
X223532700Y-132253600D03*
%TD*%
D10*
%TO.C,LD9\u002C1*%
X200062200Y-75360100D03*
D11*
X200062200Y-74460100D03*
D10*
X200062200Y-73560100D03*
D11*
X198362200Y-74460100D03*
D10*
X198362200Y-73560100D03*
X198362200Y-75360100D03*
D12*
X199212200Y-75290100D03*
D13*
X199212200Y-73770100D03*
%TD*%
D10*
%TO.C,LD9\u002C0*%
X239353460Y-49452100D03*
D11*
X239353460Y-48552100D03*
D10*
X239353460Y-47652100D03*
D11*
X237653460Y-48552100D03*
D10*
X237653460Y-47652100D03*
X237653460Y-49452100D03*
D12*
X238503460Y-49382100D03*
D13*
X238503460Y-47862100D03*
%TD*%
D10*
%TO.C,LD8\u002C5*%
X222033200Y-153274600D03*
D11*
X222033200Y-152374600D03*
D10*
X222033200Y-151474600D03*
D11*
X220333200Y-152374600D03*
D10*
X220333200Y-151474600D03*
X220333200Y-153274600D03*
D12*
X221183200Y-153204600D03*
D13*
X221183200Y-151684600D03*
%TD*%
D10*
%TO.C,LD8\u002C1*%
X180758200Y-75360100D03*
D11*
X180758200Y-74460100D03*
D10*
X180758200Y-73560100D03*
D11*
X179058200Y-74460100D03*
D10*
X179058200Y-73560100D03*
X179058200Y-75360100D03*
D12*
X179908200Y-75290100D03*
D13*
X179908200Y-73770100D03*
%TD*%
D10*
%TO.C,LD8\u002C2*%
X190791200Y-94600600D03*
D11*
X190791200Y-93700600D03*
D10*
X190791200Y-92800600D03*
D11*
X189091200Y-93700600D03*
D10*
X189091200Y-92800600D03*
X189091200Y-94600600D03*
D12*
X189941200Y-94530600D03*
D13*
X189941200Y-93010600D03*
%TD*%
D10*
%TO.C,LD8\u002C0*%
X212937460Y-49452100D03*
D11*
X212937460Y-48552100D03*
D10*
X212937460Y-47652100D03*
D11*
X211237460Y-48552100D03*
D10*
X211237460Y-47652100D03*
X211237460Y-49452100D03*
D12*
X212087460Y-49382100D03*
D13*
X212087460Y-47862100D03*
%TD*%
D10*
%TO.C,LD8\u002C4*%
X205078700Y-133843600D03*
D11*
X205078700Y-132943600D03*
D10*
X205078700Y-132043600D03*
D11*
X203378700Y-132943600D03*
D10*
X203378700Y-132043600D03*
X203378700Y-133843600D03*
D12*
X204228700Y-133773600D03*
D13*
X204228700Y-132253600D03*
%TD*%
D10*
%TO.C,LD8\u002C3*%
X195680700Y-114031600D03*
D11*
X195680700Y-113131600D03*
D10*
X195680700Y-112231600D03*
D11*
X193980700Y-113131600D03*
D10*
X193980700Y-112231600D03*
X193980700Y-114031600D03*
D12*
X194830700Y-113961600D03*
D13*
X194830700Y-112441600D03*
%TD*%
D10*
%TO.C,LD7\u002C2*%
X171487200Y-94600600D03*
D11*
X171487200Y-93700600D03*
D10*
X171487200Y-92800600D03*
D11*
X169787200Y-93700600D03*
D10*
X169787200Y-92800600D03*
X169787200Y-94600600D03*
D12*
X170637200Y-94530600D03*
D13*
X170637200Y-93010600D03*
%TD*%
D10*
%TO.C,LD7\u002C1*%
X161454200Y-75360100D03*
D11*
X161454200Y-74460100D03*
D10*
X161454200Y-73560100D03*
D11*
X159754200Y-74460100D03*
D10*
X159754200Y-73560100D03*
X159754200Y-75360100D03*
D12*
X160604200Y-75290100D03*
D13*
X160604200Y-73770100D03*
%TD*%
D10*
%TO.C,LD7\u002C3*%
X176376700Y-114031600D03*
D11*
X176376700Y-113131600D03*
D10*
X176376700Y-112231600D03*
D11*
X174676700Y-113131600D03*
D10*
X174676700Y-112231600D03*
X174676700Y-114031600D03*
D12*
X175526700Y-113961600D03*
D13*
X175526700Y-112441600D03*
%TD*%
D10*
%TO.C,LD7\u002C4*%
X185774700Y-133843600D03*
D11*
X185774700Y-132943600D03*
D10*
X185774700Y-132043600D03*
D11*
X184074700Y-132943600D03*
D10*
X184074700Y-132043600D03*
X184074700Y-133843600D03*
D12*
X184924700Y-133773600D03*
D13*
X184924700Y-132253600D03*
%TD*%
D10*
%TO.C,LD7\u002C0*%
X193633460Y-49452100D03*
D11*
X193633460Y-48552100D03*
D10*
X193633460Y-47652100D03*
D11*
X191933460Y-48552100D03*
D10*
X191933460Y-47652100D03*
X191933460Y-49452100D03*
D12*
X192783460Y-49382100D03*
D13*
X192783460Y-47862100D03*
%TD*%
D10*
%TO.C,LD6\u002C1*%
X142150200Y-75360100D03*
D11*
X142150200Y-74460100D03*
D10*
X142150200Y-73560100D03*
D11*
X140450200Y-74460100D03*
D10*
X140450200Y-73560100D03*
X140450200Y-75360100D03*
D12*
X141300200Y-75290100D03*
D13*
X141300200Y-73770100D03*
%TD*%
D10*
%TO.C,LD6\u002C3*%
X157072700Y-114031600D03*
D11*
X157072700Y-113131600D03*
D10*
X157072700Y-112231600D03*
D11*
X155372700Y-113131600D03*
D10*
X155372700Y-112231600D03*
X155372700Y-114031600D03*
D12*
X156222700Y-113961600D03*
D13*
X156222700Y-112441600D03*
%TD*%
D10*
%TO.C,LD6\u002C4*%
X166470700Y-133843600D03*
D11*
X166470700Y-132943600D03*
D10*
X166470700Y-132043600D03*
D11*
X164770700Y-132943600D03*
D10*
X164770700Y-132043600D03*
X164770700Y-133843600D03*
D12*
X165620700Y-133773600D03*
D13*
X165620700Y-132253600D03*
%TD*%
D10*
%TO.C,LD6\u002C0*%
X174329460Y-49452100D03*
D11*
X174329460Y-48552100D03*
D10*
X174329460Y-47652100D03*
D11*
X172629460Y-48552100D03*
D10*
X172629460Y-47652100D03*
X172629460Y-49452100D03*
D12*
X173479460Y-49382100D03*
D13*
X173479460Y-47862100D03*
%TD*%
D10*
%TO.C,LD6\u002C2*%
X152183200Y-94600600D03*
D11*
X152183200Y-93700600D03*
D10*
X152183200Y-92800600D03*
D11*
X150483200Y-93700600D03*
D10*
X150483200Y-92800600D03*
X150483200Y-94600600D03*
D12*
X151333200Y-94530600D03*
D13*
X151333200Y-93010600D03*
%TD*%
D10*
%TO.C,LD5\u002C1*%
X122846200Y-75360100D03*
D11*
X122846200Y-74460100D03*
D10*
X122846200Y-73560100D03*
D11*
X121146200Y-74460100D03*
D10*
X121146200Y-73560100D03*
X121146200Y-75360100D03*
D12*
X121996200Y-75290100D03*
D13*
X121996200Y-73770100D03*
%TD*%
D10*
%TO.C,LD5\u002C2*%
X132879200Y-94600600D03*
D11*
X132879200Y-93700600D03*
D10*
X132879200Y-92800600D03*
D11*
X131179200Y-93700600D03*
D10*
X131179200Y-92800600D03*
X131179200Y-94600600D03*
D12*
X132029200Y-94530600D03*
D13*
X132029200Y-93010600D03*
%TD*%
D10*
%TO.C,LD5\u002C4*%
X147166700Y-133843600D03*
D11*
X147166700Y-132943600D03*
D10*
X147166700Y-132043600D03*
D11*
X145466700Y-132943600D03*
D10*
X145466700Y-132043600D03*
X145466700Y-133843600D03*
D12*
X146316700Y-133773600D03*
D13*
X146316700Y-132253600D03*
%TD*%
D10*
%TO.C,LD5\u002C0*%
X155025460Y-49452100D03*
D11*
X155025460Y-48552100D03*
D10*
X155025460Y-47652100D03*
D11*
X153325460Y-48552100D03*
D10*
X153325460Y-47652100D03*
X153325460Y-49452100D03*
D12*
X154175460Y-49382100D03*
D13*
X154175460Y-47862100D03*
%TD*%
D10*
%TO.C,LD5\u002C3*%
X137768700Y-114031600D03*
D11*
X137768700Y-113131600D03*
D10*
X137768700Y-112231600D03*
D11*
X136068700Y-113131600D03*
D10*
X136068700Y-112231600D03*
X136068700Y-114031600D03*
D12*
X136918700Y-113961600D03*
D13*
X136918700Y-112441600D03*
%TD*%
D10*
%TO.C,LD4\u002C3*%
X118464700Y-114031600D03*
D11*
X118464700Y-113131600D03*
D10*
X118464700Y-112231600D03*
D11*
X116764700Y-113131600D03*
D10*
X116764700Y-112231600D03*
X116764700Y-114031600D03*
D12*
X117614700Y-113961600D03*
D13*
X117614700Y-112441600D03*
%TD*%
D10*
%TO.C,LD4\u002C4*%
X127862700Y-133843600D03*
D11*
X127862700Y-132943600D03*
D10*
X127862700Y-132043600D03*
D11*
X126162700Y-132943600D03*
D10*
X126162700Y-132043600D03*
X126162700Y-133843600D03*
D12*
X127012700Y-133773600D03*
D13*
X127012700Y-132253600D03*
%TD*%
D10*
%TO.C,LD4\u002C0*%
X123529460Y-49452100D03*
D11*
X123529460Y-48552100D03*
D10*
X123529460Y-47652100D03*
D11*
X121829460Y-48552100D03*
D10*
X121829460Y-47652100D03*
X121829460Y-49452100D03*
D12*
X122679460Y-49382100D03*
D13*
X122679460Y-47862100D03*
%TD*%
D10*
%TO.C,LD4\u002C2*%
X113575200Y-94600600D03*
D11*
X113575200Y-93700600D03*
D10*
X113575200Y-92800600D03*
D11*
X111875200Y-93700600D03*
D10*
X111875200Y-92800600D03*
X111875200Y-94600600D03*
D12*
X112725200Y-94530600D03*
D13*
X112725200Y-93010600D03*
%TD*%
D10*
%TO.C,LD4\u002C1*%
X103542200Y-75360100D03*
D11*
X103542200Y-74460100D03*
D10*
X103542200Y-73560100D03*
D11*
X101842200Y-74460100D03*
D10*
X101842200Y-73560100D03*
X101842200Y-75360100D03*
D12*
X102692200Y-75290100D03*
D13*
X102692200Y-73770100D03*
%TD*%
D10*
%TO.C,LD3\u002C0*%
X104225460Y-49452100D03*
D11*
X104225460Y-48552100D03*
D10*
X104225460Y-47652100D03*
D11*
X102525460Y-48552100D03*
D10*
X102525460Y-47652100D03*
X102525460Y-49452100D03*
D12*
X103375460Y-49382100D03*
D13*
X103375460Y-47862100D03*
%TD*%
D10*
%TO.C,LD3\u002C1*%
X84238200Y-75360100D03*
D11*
X84238200Y-74460100D03*
D10*
X84238200Y-73560100D03*
D11*
X82538200Y-74460100D03*
D10*
X82538200Y-73560100D03*
X82538200Y-75360100D03*
D12*
X83388200Y-75290100D03*
D13*
X83388200Y-73770100D03*
%TD*%
D10*
%TO.C,LD3\u002C2*%
X94271200Y-94600600D03*
D11*
X94271200Y-93700600D03*
D10*
X94271200Y-92800600D03*
D11*
X92571200Y-93700600D03*
D10*
X92571200Y-92800600D03*
X92571200Y-94600600D03*
D12*
X93421200Y-94530600D03*
D13*
X93421200Y-93010600D03*
%TD*%
D10*
%TO.C,LD3\u002C4*%
X108558700Y-133843600D03*
D11*
X108558700Y-132943600D03*
D10*
X108558700Y-132043600D03*
D11*
X106858700Y-132943600D03*
D10*
X106858700Y-132043600D03*
X106858700Y-133843600D03*
D12*
X107708700Y-133773600D03*
D13*
X107708700Y-132253600D03*
%TD*%
D10*
%TO.C,LD3\u002C5*%
X150278200Y-153274600D03*
D11*
X150278200Y-152374600D03*
D10*
X150278200Y-151474600D03*
D11*
X148578200Y-152374600D03*
D10*
X148578200Y-151474600D03*
X148578200Y-153274600D03*
D12*
X149428200Y-153204600D03*
D13*
X149428200Y-151684600D03*
%TD*%
D10*
%TO.C,LD3\u002C3*%
X99160700Y-114031600D03*
D11*
X99160700Y-113131600D03*
D10*
X99160700Y-112231600D03*
D11*
X97460700Y-113131600D03*
D10*
X97460700Y-112231600D03*
X97460700Y-114031600D03*
D12*
X98310700Y-113961600D03*
D13*
X98310700Y-112441600D03*
%TD*%
D10*
%TO.C,LD2\u002C3*%
X79856700Y-114031600D03*
D11*
X79856700Y-113131600D03*
D10*
X79856700Y-112231600D03*
D11*
X78156700Y-113131600D03*
D10*
X78156700Y-112231600D03*
X78156700Y-114031600D03*
D12*
X79006700Y-113961600D03*
D13*
X79006700Y-112441600D03*
%TD*%
D10*
%TO.C,LD2\u002C5*%
X78396200Y-153274600D03*
D11*
X78396200Y-152374600D03*
D10*
X78396200Y-151474600D03*
D11*
X76696200Y-152374600D03*
D10*
X76696200Y-151474600D03*
X76696200Y-153274600D03*
D12*
X77546200Y-153204600D03*
D13*
X77546200Y-151684600D03*
%TD*%
D10*
%TO.C,LD2\u002C4*%
X89114700Y-133843600D03*
D11*
X89114700Y-132943600D03*
D10*
X89114700Y-132043600D03*
D11*
X87414700Y-132943600D03*
D10*
X87414700Y-132043600D03*
X87414700Y-133843600D03*
D12*
X88264700Y-133773600D03*
D13*
X88264700Y-132253600D03*
%TD*%
D10*
%TO.C,LD2\u002C0*%
X84921460Y-49452100D03*
D11*
X84921460Y-48552100D03*
D10*
X84921460Y-47652100D03*
D11*
X83221460Y-48552100D03*
D10*
X83221460Y-47652100D03*
X83221460Y-49452100D03*
D12*
X84071460Y-49382100D03*
D13*
X84071460Y-47862100D03*
%TD*%
D10*
%TO.C,LD2\u002C1*%
X65442200Y-75360100D03*
D11*
X65442200Y-74460100D03*
D10*
X65442200Y-73560100D03*
D11*
X63742200Y-74460100D03*
D10*
X63742200Y-73560100D03*
X63742200Y-75360100D03*
D12*
X64592200Y-75290100D03*
D13*
X64592200Y-73770100D03*
%TD*%
D10*
%TO.C,LD2\u002C2*%
X74967200Y-94600600D03*
D11*
X74967200Y-93700600D03*
D10*
X74967200Y-92800600D03*
D11*
X73267200Y-93700600D03*
D10*
X73267200Y-92800600D03*
X73267200Y-94600600D03*
D12*
X74117200Y-94530600D03*
D13*
X74117200Y-93010600D03*
%TD*%
D10*
%TO.C,LD1\u002C0*%
X65617460Y-49452100D03*
D11*
X65617460Y-48552100D03*
D10*
X65617460Y-47652100D03*
D11*
X63917460Y-48552100D03*
D10*
X63917460Y-47652100D03*
X63917460Y-49452100D03*
D12*
X64767460Y-49382100D03*
D13*
X64767460Y-47862100D03*
%TD*%
D10*
%TO.C,LD1\u002C4*%
X69950700Y-133843600D03*
D11*
X69950700Y-132943600D03*
D10*
X69950700Y-132043600D03*
D11*
X68250700Y-132943600D03*
D10*
X68250700Y-132043600D03*
X68250700Y-133843600D03*
D12*
X69100700Y-133773600D03*
D13*
X69100700Y-132253600D03*
%TD*%
D10*
%TO.C,LD1\u002C1*%
X46239800Y-75372800D03*
D11*
X46239800Y-74472800D03*
D10*
X46239800Y-73572800D03*
D11*
X44539800Y-74472800D03*
D10*
X44539800Y-73572800D03*
X44539800Y-75372800D03*
D12*
X45389800Y-75302800D03*
D13*
X45389800Y-73782800D03*
%TD*%
D10*
%TO.C,LD1\u002C3*%
X60552700Y-114031600D03*
D11*
X60552700Y-113131600D03*
D10*
X60552700Y-112231600D03*
D11*
X58852700Y-113131600D03*
D10*
X58852700Y-112231600D03*
X58852700Y-114031600D03*
D12*
X59702700Y-113961600D03*
D13*
X59702700Y-112441600D03*
%TD*%
D10*
%TO.C,LD1\u002C5*%
X54012200Y-153274600D03*
D11*
X54012200Y-152374600D03*
D10*
X54012200Y-151474600D03*
D11*
X52312200Y-152374600D03*
D10*
X52312200Y-151474600D03*
X52312200Y-153274600D03*
D12*
X53162200Y-153204600D03*
D13*
X53162200Y-151684600D03*
%TD*%
D10*
%TO.C,LD1\u002C2*%
X55663200Y-94600600D03*
D11*
X55663200Y-93700600D03*
D10*
X55663200Y-92800600D03*
D11*
X53963200Y-93700600D03*
D10*
X53963200Y-92800600D03*
X53963200Y-94600600D03*
D12*
X54813200Y-94530600D03*
D13*
X54813200Y-93010600D03*
%TD*%
D10*
%TO.C,LD0\u002C2*%
X31736400Y-94575200D03*
D11*
X31736400Y-93675200D03*
D10*
X31736400Y-92775200D03*
D11*
X30036400Y-93675200D03*
D10*
X30036400Y-92775200D03*
X30036400Y-94575200D03*
D12*
X30886400Y-94505200D03*
D13*
X30886400Y-92985200D03*
%TD*%
D10*
%TO.C,LD0\u002C1*%
X27024700Y-75372800D03*
D11*
X27024700Y-74472800D03*
D10*
X27024700Y-73572800D03*
D11*
X25324700Y-74472800D03*
D10*
X25324700Y-73572800D03*
X25324700Y-75372800D03*
D12*
X26174700Y-75302800D03*
D13*
X26174700Y-73782800D03*
%TD*%
D10*
%TO.C,LD0\u002C5*%
X29437700Y-153223800D03*
D11*
X29437700Y-152323800D03*
D10*
X29437700Y-151423800D03*
D11*
X27737700Y-152323800D03*
D10*
X27737700Y-151423800D03*
X27737700Y-153223800D03*
D12*
X28587700Y-153153800D03*
D13*
X28587700Y-151633800D03*
%TD*%
D10*
%TO.C,LD0\u002C3*%
X34073200Y-114107800D03*
D11*
X34073200Y-113207800D03*
D10*
X34073200Y-112307800D03*
D11*
X32373200Y-113207800D03*
D10*
X32373200Y-112307800D03*
X32373200Y-114107800D03*
D12*
X33223200Y-114037800D03*
D13*
X33223200Y-112517800D03*
%TD*%
D10*
%TO.C,LD0\u002C0*%
X27088200Y-49414000D03*
D11*
X27088200Y-48514000D03*
D10*
X27088200Y-47614000D03*
D11*
X25388200Y-48514000D03*
D10*
X25388200Y-47614000D03*
X25388200Y-49414000D03*
D12*
X26238200Y-49344000D03*
D13*
X26238200Y-47824000D03*
%TD*%
D10*
%TO.C,LD0\u002C4*%
X38835700Y-133843600D03*
D11*
X38835700Y-132943600D03*
D10*
X38835700Y-132043600D03*
D11*
X37135700Y-132943600D03*
D10*
X37135700Y-132043600D03*
X37135700Y-133843600D03*
D12*
X37985700Y-133773600D03*
D13*
X37985700Y-132253600D03*
%TD*%
M02*
