%TF.GenerationSoftware,KiCad,Pcbnew,(5.1.10)-1*%
%TF.CreationDate,2021-09-26T01:53:14+10:00*%
%TF.ProjectId,RedPyKeeb_mainboard,52656450-794b-4656-9562-5f6d61696e62,rev?*%
%TF.SameCoordinates,Original*%
%TF.FileFunction,Copper,L1,Top*%
%TF.FilePolarity,Positive*%
%FSLAX46Y46*%
G04 Gerber Fmt 4.6, Leading zero omitted, Abs format (unit mm)*
G04 Created by KiCad (PCBNEW (5.1.10)-1) date 2021-09-26 01:53:14*
%MOMM*%
%LPD*%
G01*
G04 APERTURE LIST*
%TA.AperFunction,ComponentPad*%
%ADD10C,0.800000*%
%TD*%
%TA.AperFunction,SMDPad,CuDef*%
%ADD11R,0.500000X2.180000*%
%TD*%
%TA.AperFunction,SMDPad,CuDef*%
%ADD12R,0.500000X1.000000*%
%TD*%
%TA.AperFunction,SMDPad,CuDef*%
%ADD13R,0.800000X0.500000*%
%TD*%
%TA.AperFunction,SMDPad,CuDef*%
%ADD14R,0.800000X0.300000*%
%TD*%
%TA.AperFunction,ComponentPad*%
%ADD15C,1.600000*%
%TD*%
%TA.AperFunction,ComponentPad*%
%ADD16R,1.600000X1.600000*%
%TD*%
%TA.AperFunction,SMDPad,CuDef*%
%ADD17R,1.000000X3.150000*%
%TD*%
%TA.AperFunction,ViaPad*%
%ADD18C,0.800000*%
%TD*%
%TA.AperFunction,ViaPad*%
%ADD19C,1.524000*%
%TD*%
%TA.AperFunction,Conductor*%
%ADD20C,0.500000*%
%TD*%
%TA.AperFunction,Conductor*%
%ADD21C,0.508000*%
%TD*%
%TA.AperFunction,Conductor*%
%ADD22C,1.016000*%
%TD*%
%TA.AperFunction,Conductor*%
%ADD23C,0.381000*%
%TD*%
G04 APERTURE END LIST*
%TO.P,C6,1*%
%TO.N,MAIN_VBUS*%
%TA.AperFunction,SMDPad,CuDef*%
G36*
G01*
X424288700Y-26374600D02*
X424288700Y-24374600D01*
G75*
G02*
X424538700Y-24124600I250000J0D01*
G01*
X428038700Y-24124600D01*
G75*
G02*
X428288700Y-24374600I0J-250000D01*
G01*
X428288700Y-26374600D01*
G75*
G02*
X428038700Y-26624600I-250000J0D01*
G01*
X424538700Y-26624600D01*
G75*
G02*
X424288700Y-26374600I0J250000D01*
G01*
G37*
%TD.AperFunction*%
%TO.P,C6,2*%
%TO.N,GNDPWR*%
%TA.AperFunction,SMDPad,CuDef*%
G36*
G01*
X432288700Y-26374600D02*
X432288700Y-24374600D01*
G75*
G02*
X432538700Y-24124600I250000J0D01*
G01*
X436038700Y-24124600D01*
G75*
G02*
X436288700Y-24374600I0J-250000D01*
G01*
X436288700Y-26374600D01*
G75*
G02*
X436038700Y-26624600I-250000J0D01*
G01*
X432538700Y-26624600D01*
G75*
G02*
X432288700Y-26374600I0J250000D01*
G01*
G37*
%TD.AperFunction*%
%TD*%
D10*
%TO.P,LD0\u002C0,1*%
%TO.N,MAIN_VBUS*%
X27381200Y-49657000D03*
%TO.P,LD0\u002C0,6*%
%TO.N,GNDPWR*%
X26238200Y-46482000D03*
D11*
X26238200Y-47524000D03*
D12*
%TO.P,LD0\u002C0,8*%
%TO.N,N/C*%
X26238200Y-49344000D03*
D13*
%TO.P,LD0\u002C0,7*%
X25388200Y-49414000D03*
%TO.P,LD0\u002C0,4*%
%TO.N,LED_SDA_ROW0*%
X25388200Y-47614000D03*
D14*
%TO.P,LD0\u002C0,5*%
%TO.N,LED_SCL_ROW0*%
X25388200Y-48514000D03*
D13*
%TO.P,LD0\u002C0,3*%
%TO.N,Net-(LD0\u002C0-Pad3)*%
X27088200Y-47614000D03*
D14*
%TO.P,LD0\u002C0,2*%
%TO.N,Net-(LD0\u002C0-Pad2)*%
X27088200Y-48514000D03*
D13*
%TO.P,LD0\u002C0,1*%
%TO.N,MAIN_VBUS*%
X27088200Y-49414000D03*
%TD*%
D10*
%TO.P,LD3\u002C5\u002C1,1*%
%TO.N,MAIN_VBUS*%
X180098700Y-153492200D03*
%TO.P,LD3\u002C5\u002C1,6*%
%TO.N,GNDPWR*%
X178955700Y-150317200D03*
D11*
X178955700Y-151359200D03*
D12*
%TO.P,LD3\u002C5\u002C1,8*%
%TO.N,N/C*%
X178955700Y-153179200D03*
D13*
%TO.P,LD3\u002C5\u002C1,7*%
X178105700Y-153249200D03*
%TO.P,LD3\u002C5\u002C1,4*%
%TO.N,Net-(LD3\u002C5\u002C1-Pad4)*%
X178105700Y-151449200D03*
D14*
%TO.P,LD3\u002C5\u002C1,5*%
%TO.N,Net-(LD3\u002C5\u002C1-Pad5)*%
X178105700Y-152349200D03*
D13*
%TO.P,LD3\u002C5\u002C1,3*%
%TO.N,Net-(LD3\u002C5\u002C1-Pad3)*%
X179805700Y-151449200D03*
D14*
%TO.P,LD3\u002C5\u002C1,2*%
%TO.N,Net-(LD3\u002C5\u002C1-Pad2)*%
X179805700Y-152349200D03*
D13*
%TO.P,LD3\u002C5\u002C1,1*%
%TO.N,MAIN_VBUS*%
X179805700Y-153249200D03*
%TD*%
D10*
%TO.P,LD3\u002C5\u002C0,1*%
%TO.N,MAIN_VBUS*%
X116001800Y-153504900D03*
%TO.P,LD3\u002C5\u002C0,6*%
%TO.N,GNDPWR*%
X114858800Y-150329900D03*
D11*
X114858800Y-151371900D03*
D12*
%TO.P,LD3\u002C5\u002C0,8*%
%TO.N,N/C*%
X114858800Y-153191900D03*
D13*
%TO.P,LD3\u002C5\u002C0,7*%
X114008800Y-153261900D03*
%TO.P,LD3\u002C5\u002C0,4*%
%TO.N,Net-(LD2\u002C5-Pad3)*%
X114008800Y-151461900D03*
D14*
%TO.P,LD3\u002C5\u002C0,5*%
%TO.N,Net-(LD2\u002C5-Pad2)*%
X114008800Y-152361900D03*
D13*
%TO.P,LD3\u002C5\u002C0,3*%
%TO.N,Net-(LD3\u002C5\u002C0-Pad3)*%
X115708800Y-151461900D03*
D14*
%TO.P,LD3\u002C5\u002C0,2*%
%TO.N,Net-(LD3\u002C5\u002C0-Pad2)*%
X115708800Y-152361900D03*
D13*
%TO.P,LD3\u002C5\u002C0,1*%
%TO.N,MAIN_VBUS*%
X115708800Y-153261900D03*
%TD*%
D10*
%TO.P,LD20\u002C7,1*%
%TO.N,MAIN_VBUS*%
X440474100Y-68618100D03*
%TO.P,LD20\u002C7,6*%
%TO.N,GNDPWR*%
X439331100Y-65443100D03*
D11*
X439331100Y-66485100D03*
D12*
%TO.P,LD20\u002C7,8*%
%TO.N,N/C*%
X439331100Y-68305100D03*
D13*
%TO.P,LD20\u002C7,7*%
X438481100Y-68375100D03*
%TO.P,LD20\u002C7,4*%
%TO.N,Net-(LD19\u002C7-Pad3)*%
X438481100Y-66575100D03*
D14*
%TO.P,LD20\u002C7,5*%
%TO.N,Net-(LD19\u002C7-Pad2)*%
X438481100Y-67475100D03*
D13*
%TO.P,LD20\u002C7,3*%
%TO.N,Net-(LD20\u002C7-Pad3)*%
X440181100Y-66575100D03*
D14*
%TO.P,LD20\u002C7,2*%
%TO.N,Net-(LD20\u002C7-Pad2)*%
X440181100Y-67475100D03*
D13*
%TO.P,LD20\u002C7,1*%
%TO.N,MAIN_VBUS*%
X440181100Y-68375100D03*
%TD*%
D10*
%TO.P,LD20\u002C0,1*%
%TO.N,MAIN_VBUS*%
X440220100Y-49707800D03*
%TO.P,LD20\u002C0,6*%
%TO.N,GNDPWR*%
X439077100Y-46532800D03*
D11*
X439077100Y-47574800D03*
D12*
%TO.P,LD20\u002C0,8*%
%TO.N,N/C*%
X439077100Y-49394800D03*
D13*
%TO.P,LD20\u002C0,7*%
X438227100Y-49464800D03*
%TO.P,LD20\u002C0,4*%
%TO.N,Net-(LD19\u002C0-Pad3)*%
X438227100Y-47664800D03*
D14*
%TO.P,LD20\u002C0,5*%
%TO.N,Net-(LD19\u002C0-Pad2)*%
X438227100Y-48564800D03*
D13*
%TO.P,LD20\u002C0,3*%
%TO.N,Net-(LD0\u002C1-Pad4)*%
X439927100Y-47664800D03*
D14*
%TO.P,LD20\u002C0,2*%
%TO.N,Net-(LD0\u002C1-Pad5)*%
X439927100Y-48564800D03*
D13*
%TO.P,LD20\u002C0,1*%
%TO.N,MAIN_VBUS*%
X439927100Y-49464800D03*
%TD*%
D10*
%TO.P,LD20\u002C1,1*%
%TO.N,MAIN_VBUS*%
X440283600Y-75603100D03*
%TO.P,LD20\u002C1,6*%
%TO.N,GNDPWR*%
X439140600Y-72428100D03*
D11*
X439140600Y-73470100D03*
D12*
%TO.P,LD20\u002C1,8*%
%TO.N,N/C*%
X439140600Y-75290100D03*
D13*
%TO.P,LD20\u002C1,7*%
X438290600Y-75360100D03*
%TO.P,LD20\u002C1,4*%
%TO.N,Net-(LD19\u002C1-Pad3)*%
X438290600Y-73560100D03*
D14*
%TO.P,LD20\u002C1,5*%
%TO.N,Net-(LD19\u002C1-Pad2)*%
X438290600Y-74460100D03*
D13*
%TO.P,LD20\u002C1,3*%
%TO.N,Net-(LD0\u002C2-Pad4)*%
X439990600Y-73560100D03*
D14*
%TO.P,LD20\u002C1,2*%
%TO.N,Net-(LD0\u002C2-Pad5)*%
X439990600Y-74460100D03*
D13*
%TO.P,LD20\u002C1,1*%
%TO.N,MAIN_VBUS*%
X439990600Y-75360100D03*
%TD*%
D10*
%TO.P,LD19\u002C6,1*%
%TO.N,MAIN_VBUS*%
X440537600Y-145262600D03*
%TO.P,LD19\u002C6,6*%
%TO.N,GNDPWR*%
X439394600Y-142087600D03*
D11*
X439394600Y-143129600D03*
D12*
%TO.P,LD19\u002C6,8*%
%TO.N,N/C*%
X439394600Y-144949600D03*
D13*
%TO.P,LD19\u002C6,7*%
X438544600Y-145019600D03*
%TO.P,LD19\u002C6,4*%
%TO.N,Net-(LD18\u002C6-Pad3)*%
X438544600Y-143219600D03*
D14*
%TO.P,LD19\u002C6,5*%
%TO.N,Net-(LD18\u002C6-Pad2)*%
X438544600Y-144119600D03*
D13*
%TO.P,LD19\u002C6,3*%
%TO.N,Net-(LD19\u002C6-Pad3)*%
X440244600Y-143219600D03*
D14*
%TO.P,LD19\u002C6,2*%
%TO.N,Net-(LD19\u002C6-Pad2)*%
X440244600Y-144119600D03*
D13*
%TO.P,LD19\u002C6,1*%
%TO.N,MAIN_VBUS*%
X440244600Y-145019600D03*
%TD*%
D10*
%TO.P,LD19\u002C3,1*%
%TO.N,MAIN_VBUS*%
X420979600Y-94869000D03*
%TO.P,LD19\u002C3,6*%
%TO.N,GNDPWR*%
X419836600Y-91694000D03*
D11*
X419836600Y-92736000D03*
D12*
%TO.P,LD19\u002C3,8*%
%TO.N,N/C*%
X419836600Y-94556000D03*
D13*
%TO.P,LD19\u002C3,7*%
X418986600Y-94626000D03*
%TO.P,LD19\u002C3,4*%
%TO.N,Net-(LD18\u002C3-Pad3)*%
X418986600Y-92826000D03*
D14*
%TO.P,LD19\u002C3,5*%
%TO.N,Net-(LD18\u002C3-Pad2)*%
X418986600Y-93726000D03*
D13*
%TO.P,LD19\u002C3,3*%
%TO.N,Net-(LD0\u002C4-Pad4)*%
X420686600Y-92826000D03*
D14*
%TO.P,LD19\u002C3,2*%
%TO.N,Net-(LD0\u002C4-Pad5)*%
X420686600Y-93726000D03*
D13*
%TO.P,LD19\u002C3,1*%
%TO.N,MAIN_VBUS*%
X420686600Y-94626000D03*
%TD*%
D10*
%TO.P,LD19\u002C4,1*%
%TO.N,MAIN_VBUS*%
X440283600Y-104749600D03*
%TO.P,LD19\u002C4,6*%
%TO.N,GNDPWR*%
X439140600Y-101574600D03*
D11*
X439140600Y-102616600D03*
D12*
%TO.P,LD19\u002C4,8*%
%TO.N,N/C*%
X439140600Y-104436600D03*
D13*
%TO.P,LD19\u002C4,7*%
X438290600Y-104506600D03*
%TO.P,LD19\u002C4,4*%
%TO.N,Net-(LD18\u002C4-Pad3)*%
X438290600Y-102706600D03*
D14*
%TO.P,LD19\u002C4,5*%
%TO.N,Net-(LD18\u002C4-Pad2)*%
X438290600Y-103606600D03*
D13*
%TO.P,LD19\u002C4,3*%
%TO.N,Net-(LD0\u002C5-Pad4)*%
X439990600Y-102706600D03*
D14*
%TO.P,LD19\u002C4,2*%
%TO.N,Net-(LD0\u002C5-Pad5)*%
X439990600Y-103606600D03*
D13*
%TO.P,LD19\u002C4,1*%
%TO.N,MAIN_VBUS*%
X439990600Y-104506600D03*
%TD*%
D10*
%TO.P,LD19\u002C1,1*%
%TO.N,MAIN_VBUS*%
X420979600Y-75615800D03*
%TO.P,LD19\u002C1,6*%
%TO.N,GNDPWR*%
X419836600Y-72440800D03*
D11*
X419836600Y-73482800D03*
D12*
%TO.P,LD19\u002C1,8*%
%TO.N,N/C*%
X419836600Y-75302800D03*
D13*
%TO.P,LD19\u002C1,7*%
X418986600Y-75372800D03*
%TO.P,LD19\u002C1,4*%
%TO.N,Net-(LD18\u002C1-Pad3)*%
X418986600Y-73572800D03*
D14*
%TO.P,LD19\u002C1,5*%
%TO.N,Net-(LD18\u002C1-Pad2)*%
X418986600Y-74472800D03*
D13*
%TO.P,LD19\u002C1,3*%
%TO.N,Net-(LD19\u002C1-Pad3)*%
X420686600Y-73572800D03*
D14*
%TO.P,LD19\u002C1,2*%
%TO.N,Net-(LD19\u002C1-Pad2)*%
X420686600Y-74472800D03*
D13*
%TO.P,LD19\u002C1,1*%
%TO.N,MAIN_VBUS*%
X420686600Y-75372800D03*
%TD*%
D10*
%TO.P,LD19\u002C0,1*%
%TO.N,MAIN_VBUS*%
X420903400Y-49707800D03*
%TO.P,LD19\u002C0,6*%
%TO.N,GNDPWR*%
X419760400Y-46532800D03*
D11*
X419760400Y-47574800D03*
D12*
%TO.P,LD19\u002C0,8*%
%TO.N,N/C*%
X419760400Y-49394800D03*
D13*
%TO.P,LD19\u002C0,7*%
X418910400Y-49464800D03*
%TO.P,LD19\u002C0,4*%
%TO.N,Net-(LD18\u002C0-Pad3)*%
X418910400Y-47664800D03*
D14*
%TO.P,LD19\u002C0,5*%
%TO.N,Net-(LD18\u002C0-Pad2)*%
X418910400Y-48564800D03*
D13*
%TO.P,LD19\u002C0,3*%
%TO.N,Net-(LD19\u002C0-Pad3)*%
X420610400Y-47664800D03*
D14*
%TO.P,LD19\u002C0,2*%
%TO.N,Net-(LD19\u002C0-Pad2)*%
X420610400Y-48564800D03*
D13*
%TO.P,LD19\u002C0,1*%
%TO.N,MAIN_VBUS*%
X420610400Y-49464800D03*
%TD*%
D10*
%TO.P,LD19\u002C7,1*%
%TO.N,MAIN_VBUS*%
X421170100Y-68567300D03*
%TO.P,LD19\u002C7,6*%
%TO.N,GNDPWR*%
X420027100Y-65392300D03*
D11*
X420027100Y-66434300D03*
D12*
%TO.P,LD19\u002C7,8*%
%TO.N,N/C*%
X420027100Y-68254300D03*
D13*
%TO.P,LD19\u002C7,7*%
X419177100Y-68324300D03*
%TO.P,LD19\u002C7,4*%
%TO.N,Net-(LD18\u002C7-Pad3)*%
X419177100Y-66524300D03*
D14*
%TO.P,LD19\u002C7,5*%
%TO.N,Net-(LD18\u002C7-Pad2)*%
X419177100Y-67424300D03*
D13*
%TO.P,LD19\u002C7,3*%
%TO.N,Net-(LD19\u002C7-Pad3)*%
X420877100Y-66524300D03*
D14*
%TO.P,LD19\u002C7,2*%
%TO.N,Net-(LD19\u002C7-Pad2)*%
X420877100Y-67424300D03*
D13*
%TO.P,LD19\u002C7,1*%
%TO.N,MAIN_VBUS*%
X420877100Y-68324300D03*
%TD*%
D10*
%TO.P,LD18\u002C0,1*%
%TO.N,MAIN_VBUS*%
X401599400Y-49707800D03*
%TO.P,LD18\u002C0,6*%
%TO.N,GNDPWR*%
X400456400Y-46532800D03*
D11*
X400456400Y-47574800D03*
D12*
%TO.P,LD18\u002C0,8*%
%TO.N,N/C*%
X400456400Y-49394800D03*
D13*
%TO.P,LD18\u002C0,7*%
X399606400Y-49464800D03*
%TO.P,LD18\u002C0,4*%
%TO.N,Net-(LD17\u002C0-Pad3)*%
X399606400Y-47664800D03*
D14*
%TO.P,LD18\u002C0,5*%
%TO.N,Net-(LD17\u002C0-Pad2)*%
X399606400Y-48564800D03*
D13*
%TO.P,LD18\u002C0,3*%
%TO.N,Net-(LD18\u002C0-Pad3)*%
X401306400Y-47664800D03*
D14*
%TO.P,LD18\u002C0,2*%
%TO.N,Net-(LD18\u002C0-Pad2)*%
X401306400Y-48564800D03*
D13*
%TO.P,LD18\u002C0,1*%
%TO.N,MAIN_VBUS*%
X401306400Y-49464800D03*
%TD*%
D10*
%TO.P,LD18\u002C3,1*%
%TO.N,MAIN_VBUS*%
X401675600Y-94869000D03*
%TO.P,LD18\u002C3,6*%
%TO.N,GNDPWR*%
X400532600Y-91694000D03*
D11*
X400532600Y-92736000D03*
D12*
%TO.P,LD18\u002C3,8*%
%TO.N,N/C*%
X400532600Y-94556000D03*
D13*
%TO.P,LD18\u002C3,7*%
X399682600Y-94626000D03*
%TO.P,LD18\u002C3,4*%
%TO.N,Net-(LD17\u002C3-Pad3)*%
X399682600Y-92826000D03*
D14*
%TO.P,LD18\u002C3,5*%
%TO.N,Net-(LD17\u002C3-Pad2)*%
X399682600Y-93726000D03*
D13*
%TO.P,LD18\u002C3,3*%
%TO.N,Net-(LD18\u002C3-Pad3)*%
X401382600Y-92826000D03*
D14*
%TO.P,LD18\u002C3,2*%
%TO.N,Net-(LD18\u002C3-Pad2)*%
X401382600Y-93726000D03*
D13*
%TO.P,LD18\u002C3,1*%
%TO.N,MAIN_VBUS*%
X401382600Y-94626000D03*
%TD*%
D10*
%TO.P,LD18\u002C4,1*%
%TO.N,MAIN_VBUS*%
X420979600Y-114211100D03*
%TO.P,LD18\u002C4,6*%
%TO.N,GNDPWR*%
X419836600Y-111036100D03*
D11*
X419836600Y-112078100D03*
D12*
%TO.P,LD18\u002C4,8*%
%TO.N,N/C*%
X419836600Y-113898100D03*
D13*
%TO.P,LD18\u002C4,7*%
X418986600Y-113968100D03*
%TO.P,LD18\u002C4,4*%
%TO.N,Net-(LD17\u002C4-Pad3)*%
X418986600Y-112168100D03*
D14*
%TO.P,LD18\u002C4,5*%
%TO.N,Net-(LD17\u002C4-Pad2)*%
X418986600Y-113068100D03*
D13*
%TO.P,LD18\u002C4,3*%
%TO.N,Net-(LD18\u002C4-Pad3)*%
X420686600Y-112168100D03*
D14*
%TO.P,LD18\u002C4,2*%
%TO.N,Net-(LD18\u002C4-Pad2)*%
X420686600Y-113068100D03*
D13*
%TO.P,LD18\u002C4,1*%
%TO.N,MAIN_VBUS*%
X420686600Y-113968100D03*
%TD*%
D10*
%TO.P,LD18\u002C5,1*%
%TO.N,MAIN_VBUS*%
X420979600Y-133578600D03*
%TO.P,LD18\u002C5,6*%
%TO.N,GNDPWR*%
X419836600Y-130403600D03*
D11*
X419836600Y-131445600D03*
D12*
%TO.P,LD18\u002C5,8*%
%TO.N,N/C*%
X419836600Y-133265600D03*
D13*
%TO.P,LD18\u002C5,7*%
X418986600Y-133335600D03*
%TO.P,LD18\u002C5,4*%
%TO.N,Net-(LD17\u002C5-Pad3)*%
X418986600Y-131535600D03*
D14*
%TO.P,LD18\u002C5,5*%
%TO.N,Net-(LD17\u002C5-Pad2)*%
X418986600Y-132435600D03*
D13*
%TO.P,LD18\u002C5,3*%
%TO.N,Net-(LD14\u002C6-Pad4)*%
X420686600Y-131535600D03*
D14*
%TO.P,LD18\u002C5,2*%
%TO.N,Net-(LD14\u002C6-Pad5)*%
X420686600Y-132435600D03*
D13*
%TO.P,LD18\u002C5,1*%
%TO.N,MAIN_VBUS*%
X420686600Y-133335600D03*
%TD*%
D10*
%TO.P,LD18\u002C7,1*%
%TO.N,MAIN_VBUS*%
X401866100Y-68567300D03*
%TO.P,LD18\u002C7,6*%
%TO.N,GNDPWR*%
X400723100Y-65392300D03*
D11*
X400723100Y-66434300D03*
D12*
%TO.P,LD18\u002C7,8*%
%TO.N,N/C*%
X400723100Y-68254300D03*
D13*
%TO.P,LD18\u002C7,7*%
X399873100Y-68324300D03*
%TO.P,LD18\u002C7,4*%
%TO.N,Net-(LD17\u002C7-Pad3)*%
X399873100Y-66524300D03*
D14*
%TO.P,LD18\u002C7,5*%
%TO.N,Net-(LD17\u002C7-Pad2)*%
X399873100Y-67424300D03*
D13*
%TO.P,LD18\u002C7,3*%
%TO.N,Net-(LD18\u002C7-Pad3)*%
X401573100Y-66524300D03*
D14*
%TO.P,LD18\u002C7,2*%
%TO.N,Net-(LD18\u002C7-Pad2)*%
X401573100Y-67424300D03*
D13*
%TO.P,LD18\u002C7,1*%
%TO.N,MAIN_VBUS*%
X401573100Y-68324300D03*
%TD*%
D10*
%TO.P,LD18\u002C1,1*%
%TO.N,MAIN_VBUS*%
X401675600Y-75603100D03*
%TO.P,LD18\u002C1,6*%
%TO.N,GNDPWR*%
X400532600Y-72428100D03*
D11*
X400532600Y-73470100D03*
D12*
%TO.P,LD18\u002C1,8*%
%TO.N,N/C*%
X400532600Y-75290100D03*
D13*
%TO.P,LD18\u002C1,7*%
X399682600Y-75360100D03*
%TO.P,LD18\u002C1,4*%
%TO.N,Net-(LD17\u002C1-Pad3)*%
X399682600Y-73560100D03*
D14*
%TO.P,LD18\u002C1,5*%
%TO.N,Net-(LD17\u002C1-Pad2)*%
X399682600Y-74460100D03*
D13*
%TO.P,LD18\u002C1,3*%
%TO.N,Net-(LD18\u002C1-Pad3)*%
X401382600Y-73560100D03*
D14*
%TO.P,LD18\u002C1,2*%
%TO.N,Net-(LD18\u002C1-Pad2)*%
X401382600Y-74460100D03*
D13*
%TO.P,LD18\u002C1,1*%
%TO.N,MAIN_VBUS*%
X401382600Y-75360100D03*
%TD*%
D10*
%TO.P,LD18\u002C6,1*%
%TO.N,MAIN_VBUS*%
X420979600Y-152882600D03*
%TO.P,LD18\u002C6,6*%
%TO.N,GNDPWR*%
X419836600Y-149707600D03*
D11*
X419836600Y-150749600D03*
D12*
%TO.P,LD18\u002C6,8*%
%TO.N,N/C*%
X419836600Y-152569600D03*
D13*
%TO.P,LD18\u002C6,7*%
X418986600Y-152639600D03*
%TO.P,LD18\u002C6,4*%
%TO.N,Net-(LD17\u002C6-Pad3)*%
X418986600Y-150839600D03*
D14*
%TO.P,LD18\u002C6,5*%
%TO.N,Net-(LD17\u002C6-Pad2)*%
X418986600Y-151739600D03*
D13*
%TO.P,LD18\u002C6,3*%
%TO.N,Net-(LD18\u002C6-Pad3)*%
X420686600Y-150839600D03*
D14*
%TO.P,LD18\u002C6,2*%
%TO.N,Net-(LD18\u002C6-Pad2)*%
X420686600Y-151739600D03*
D13*
%TO.P,LD18\u002C6,1*%
%TO.N,MAIN_VBUS*%
X420686600Y-152639600D03*
%TD*%
D10*
%TO.P,LD17\u002C4,1*%
%TO.N,MAIN_VBUS*%
X401675600Y-114274600D03*
%TO.P,LD17\u002C4,6*%
%TO.N,GNDPWR*%
X400532600Y-111099600D03*
D11*
X400532600Y-112141600D03*
D12*
%TO.P,LD17\u002C4,8*%
%TO.N,N/C*%
X400532600Y-113961600D03*
D13*
%TO.P,LD17\u002C4,7*%
X399682600Y-114031600D03*
%TO.P,LD17\u002C4,4*%
%TO.N,Net-(LD16\u002C4-Pad3)*%
X399682600Y-112231600D03*
D14*
%TO.P,LD17\u002C4,5*%
%TO.N,Net-(LD16\u002C4-Pad2)*%
X399682600Y-113131600D03*
D13*
%TO.P,LD17\u002C4,3*%
%TO.N,Net-(LD17\u002C4-Pad3)*%
X401382600Y-112231600D03*
D14*
%TO.P,LD17\u002C4,2*%
%TO.N,Net-(LD17\u002C4-Pad2)*%
X401382600Y-113131600D03*
D13*
%TO.P,LD17\u002C4,1*%
%TO.N,MAIN_VBUS*%
X401382600Y-114031600D03*
%TD*%
D10*
%TO.P,LD17\u002C3,1*%
%TO.N,MAIN_VBUS*%
X382371600Y-94869000D03*
%TO.P,LD17\u002C3,6*%
%TO.N,GNDPWR*%
X381228600Y-91694000D03*
D11*
X381228600Y-92736000D03*
D12*
%TO.P,LD17\u002C3,8*%
%TO.N,N/C*%
X381228600Y-94556000D03*
D13*
%TO.P,LD17\u002C3,7*%
X380378600Y-94626000D03*
%TO.P,LD17\u002C3,4*%
%TO.N,Net-(LD16\u002C3-Pad3)*%
X380378600Y-92826000D03*
D14*
%TO.P,LD17\u002C3,5*%
%TO.N,Net-(LD16\u002C3-Pad2)*%
X380378600Y-93726000D03*
D13*
%TO.P,LD17\u002C3,3*%
%TO.N,Net-(LD17\u002C3-Pad3)*%
X382078600Y-92826000D03*
D14*
%TO.P,LD17\u002C3,2*%
%TO.N,Net-(LD17\u002C3-Pad2)*%
X382078600Y-93726000D03*
D13*
%TO.P,LD17\u002C3,1*%
%TO.N,MAIN_VBUS*%
X382078600Y-94626000D03*
%TD*%
D10*
%TO.P,LD17\u002C6,1*%
%TO.N,MAIN_VBUS*%
X392150600Y-152882600D03*
%TO.P,LD17\u002C6,6*%
%TO.N,GNDPWR*%
X391007600Y-149707600D03*
D11*
X391007600Y-150749600D03*
D12*
%TO.P,LD17\u002C6,8*%
%TO.N,N/C*%
X391007600Y-152569600D03*
D13*
%TO.P,LD17\u002C6,7*%
X390157600Y-152639600D03*
%TO.P,LD17\u002C6,4*%
%TO.N,Net-(LD16\u002C6-Pad3)*%
X390157600Y-150839600D03*
D14*
%TO.P,LD17\u002C6,5*%
%TO.N,Net-(LD16\u002C6-Pad2)*%
X390157600Y-151739600D03*
D13*
%TO.P,LD17\u002C6,3*%
%TO.N,Net-(LD17\u002C6-Pad3)*%
X391857600Y-150839600D03*
D14*
%TO.P,LD17\u002C6,2*%
%TO.N,Net-(LD17\u002C6-Pad2)*%
X391857600Y-151739600D03*
D13*
%TO.P,LD17\u002C6,1*%
%TO.N,MAIN_VBUS*%
X391857600Y-152639600D03*
%TD*%
D10*
%TO.P,LD17\u002C5,1*%
%TO.N,MAIN_VBUS*%
X401675600Y-133578600D03*
%TO.P,LD17\u002C5,6*%
%TO.N,GNDPWR*%
X400532600Y-130403600D03*
D11*
X400532600Y-131445600D03*
D12*
%TO.P,LD17\u002C5,8*%
%TO.N,N/C*%
X400532600Y-133265600D03*
D13*
%TO.P,LD17\u002C5,7*%
X399682600Y-133335600D03*
%TO.P,LD17\u002C5,4*%
%TO.N,Net-(LD16\u002C5-Pad3)*%
X399682600Y-131535600D03*
D14*
%TO.P,LD17\u002C5,5*%
%TO.N,Net-(LD16\u002C5-Pad2)*%
X399682600Y-132435600D03*
D13*
%TO.P,LD17\u002C5,3*%
%TO.N,Net-(LD17\u002C5-Pad3)*%
X401382600Y-131535600D03*
D14*
%TO.P,LD17\u002C5,2*%
%TO.N,Net-(LD17\u002C5-Pad2)*%
X401382600Y-132435600D03*
D13*
%TO.P,LD17\u002C5,1*%
%TO.N,MAIN_VBUS*%
X401382600Y-133335600D03*
%TD*%
D10*
%TO.P,LD17\u002C1,1*%
%TO.N,MAIN_VBUS*%
X382371600Y-75603100D03*
%TO.P,LD17\u002C1,6*%
%TO.N,GNDPWR*%
X381228600Y-72428100D03*
D11*
X381228600Y-73470100D03*
D12*
%TO.P,LD17\u002C1,8*%
%TO.N,N/C*%
X381228600Y-75290100D03*
D13*
%TO.P,LD17\u002C1,7*%
X380378600Y-75360100D03*
%TO.P,LD17\u002C1,4*%
%TO.N,Net-(LD16\u002C1-Pad3)*%
X380378600Y-73560100D03*
D14*
%TO.P,LD17\u002C1,5*%
%TO.N,Net-(LD16\u002C1-Pad2)*%
X380378600Y-74460100D03*
D13*
%TO.P,LD17\u002C1,3*%
%TO.N,Net-(LD17\u002C1-Pad3)*%
X382078600Y-73560100D03*
D14*
%TO.P,LD17\u002C1,2*%
%TO.N,Net-(LD17\u002C1-Pad2)*%
X382078600Y-74460100D03*
D13*
%TO.P,LD17\u002C1,1*%
%TO.N,MAIN_VBUS*%
X382078600Y-75360100D03*
%TD*%
D10*
%TO.P,LD17\u002C0,1*%
%TO.N,MAIN_VBUS*%
X382295400Y-49707800D03*
%TO.P,LD17\u002C0,6*%
%TO.N,GNDPWR*%
X381152400Y-46532800D03*
D11*
X381152400Y-47574800D03*
D12*
%TO.P,LD17\u002C0,8*%
%TO.N,N/C*%
X381152400Y-49394800D03*
D13*
%TO.P,LD17\u002C0,7*%
X380302400Y-49464800D03*
%TO.P,LD17\u002C0,4*%
%TO.N,Net-(LD16\u002C0-Pad3)*%
X380302400Y-47664800D03*
D14*
%TO.P,LD17\u002C0,5*%
%TO.N,Net-(LD16\u002C0-Pad2)*%
X380302400Y-48564800D03*
D13*
%TO.P,LD17\u002C0,3*%
%TO.N,Net-(LD17\u002C0-Pad3)*%
X382002400Y-47664800D03*
D14*
%TO.P,LD17\u002C0,2*%
%TO.N,Net-(LD17\u002C0-Pad2)*%
X382002400Y-48564800D03*
D13*
%TO.P,LD17\u002C0,1*%
%TO.N,MAIN_VBUS*%
X382002400Y-49464800D03*
%TD*%
D10*
%TO.P,LD17\u002C7,1*%
%TO.N,MAIN_VBUS*%
X382244600Y-68618100D03*
%TO.P,LD17\u002C7,6*%
%TO.N,GNDPWR*%
X381101600Y-65443100D03*
D11*
X381101600Y-66485100D03*
D12*
%TO.P,LD17\u002C7,8*%
%TO.N,N/C*%
X381101600Y-68305100D03*
D13*
%TO.P,LD17\u002C7,7*%
X380251600Y-68375100D03*
%TO.P,LD17\u002C7,4*%
%TO.N,LED_SDA_STATUS0*%
X380251600Y-66575100D03*
D14*
%TO.P,LD17\u002C7,5*%
%TO.N,LED_SCL_STATUS0*%
X380251600Y-67475100D03*
D13*
%TO.P,LD17\u002C7,3*%
%TO.N,Net-(LD17\u002C7-Pad3)*%
X381951600Y-66575100D03*
D14*
%TO.P,LD17\u002C7,2*%
%TO.N,Net-(LD17\u002C7-Pad2)*%
X381951600Y-67475100D03*
D13*
%TO.P,LD17\u002C7,1*%
%TO.N,MAIN_VBUS*%
X381951600Y-68375100D03*
%TD*%
D10*
%TO.P,LD16\u002C5,1*%
%TO.N,MAIN_VBUS*%
X382625600Y-133578600D03*
%TO.P,LD16\u002C5,6*%
%TO.N,GNDPWR*%
X381482600Y-130403600D03*
D11*
X381482600Y-131445600D03*
D12*
%TO.P,LD16\u002C5,8*%
%TO.N,N/C*%
X381482600Y-133265600D03*
D13*
%TO.P,LD16\u002C5,7*%
X380632600Y-133335600D03*
%TO.P,LD16\u002C5,4*%
%TO.N,Net-(LD15\u002C5-Pad3)*%
X380632600Y-131535600D03*
D14*
%TO.P,LD16\u002C5,5*%
%TO.N,Net-(LD15\u002C5-Pad2)*%
X380632600Y-132435600D03*
D13*
%TO.P,LD16\u002C5,3*%
%TO.N,Net-(LD16\u002C5-Pad3)*%
X382332600Y-131535600D03*
D14*
%TO.P,LD16\u002C5,2*%
%TO.N,Net-(LD16\u002C5-Pad2)*%
X382332600Y-132435600D03*
D13*
%TO.P,LD16\u002C5,1*%
%TO.N,MAIN_VBUS*%
X382332600Y-133335600D03*
%TD*%
D10*
%TO.P,LD16\u002C3,1*%
%TO.N,MAIN_VBUS*%
X358495600Y-94843600D03*
%TO.P,LD16\u002C3,6*%
%TO.N,GNDPWR*%
X357352600Y-91668600D03*
D11*
X357352600Y-92710600D03*
D12*
%TO.P,LD16\u002C3,8*%
%TO.N,N/C*%
X357352600Y-94530600D03*
D13*
%TO.P,LD16\u002C3,7*%
X356502600Y-94600600D03*
%TO.P,LD16\u002C3,4*%
%TO.N,Net-(LD15\u002C3-Pad3)*%
X356502600Y-92800600D03*
D14*
%TO.P,LD16\u002C3,5*%
%TO.N,Net-(LD15\u002C3-Pad2)*%
X356502600Y-93700600D03*
D13*
%TO.P,LD16\u002C3,3*%
%TO.N,Net-(LD16\u002C3-Pad3)*%
X358202600Y-92800600D03*
D14*
%TO.P,LD16\u002C3,2*%
%TO.N,Net-(LD16\u002C3-Pad2)*%
X358202600Y-93700600D03*
D13*
%TO.P,LD16\u002C3,1*%
%TO.N,MAIN_VBUS*%
X358202600Y-94600600D03*
%TD*%
D10*
%TO.P,LD16\u002C1,1*%
%TO.N,MAIN_VBUS*%
X358573800Y-75628500D03*
%TO.P,LD16\u002C1,6*%
%TO.N,GNDPWR*%
X357430800Y-72453500D03*
D11*
X357430800Y-73495500D03*
D12*
%TO.P,LD16\u002C1,8*%
%TO.N,N/C*%
X357430800Y-75315500D03*
D13*
%TO.P,LD16\u002C1,7*%
X356580800Y-75385500D03*
%TO.P,LD16\u002C1,4*%
%TO.N,Net-(LD15\u002C1-Pad3)*%
X356580800Y-73585500D03*
D14*
%TO.P,LD16\u002C1,5*%
%TO.N,Net-(LD15\u002C1-Pad2)*%
X356580800Y-74485500D03*
D13*
%TO.P,LD16\u002C1,3*%
%TO.N,Net-(LD16\u002C1-Pad3)*%
X358280800Y-73585500D03*
D14*
%TO.P,LD16\u002C1,2*%
%TO.N,Net-(LD16\u002C1-Pad2)*%
X358280800Y-74485500D03*
D13*
%TO.P,LD16\u002C1,1*%
%TO.N,MAIN_VBUS*%
X358280800Y-75385500D03*
%TD*%
D10*
%TO.P,LD16\u002C6,1*%
%TO.N,MAIN_VBUS*%
X358432100Y-153390600D03*
%TO.P,LD16\u002C6,6*%
%TO.N,GNDPWR*%
X357289100Y-150215600D03*
D11*
X357289100Y-151257600D03*
D12*
%TO.P,LD16\u002C6,8*%
%TO.N,N/C*%
X357289100Y-153077600D03*
D13*
%TO.P,LD16\u002C6,7*%
X356439100Y-153147600D03*
%TO.P,LD16\u002C6,4*%
%TO.N,Net-(LD15\u002C6-Pad3)*%
X356439100Y-151347600D03*
D14*
%TO.P,LD16\u002C6,5*%
%TO.N,Net-(LD15\u002C6-Pad2)*%
X356439100Y-152247600D03*
D13*
%TO.P,LD16\u002C6,3*%
%TO.N,Net-(LD16\u002C6-Pad3)*%
X358139100Y-151347600D03*
D14*
%TO.P,LD16\u002C6,2*%
%TO.N,Net-(LD16\u002C6-Pad2)*%
X358139100Y-152247600D03*
D13*
%TO.P,LD16\u002C6,1*%
%TO.N,MAIN_VBUS*%
X358139100Y-153147600D03*
%TD*%
D10*
%TO.P,LD16\u002C0,1*%
%TO.N,MAIN_VBUS*%
X358990900Y-49695100D03*
%TO.P,LD16\u002C0,6*%
%TO.N,GNDPWR*%
X357847900Y-46520100D03*
D11*
X357847900Y-47562100D03*
D12*
%TO.P,LD16\u002C0,8*%
%TO.N,N/C*%
X357847900Y-49382100D03*
D13*
%TO.P,LD16\u002C0,7*%
X356997900Y-49452100D03*
%TO.P,LD16\u002C0,4*%
%TO.N,Net-(LD15\u002C0-Pad3)*%
X356997900Y-47652100D03*
D14*
%TO.P,LD16\u002C0,5*%
%TO.N,Net-(LD15\u002C0-Pad2)*%
X356997900Y-48552100D03*
D13*
%TO.P,LD16\u002C0,3*%
%TO.N,Net-(LD16\u002C0-Pad3)*%
X358697900Y-47652100D03*
D14*
%TO.P,LD16\u002C0,2*%
%TO.N,Net-(LD16\u002C0-Pad2)*%
X358697900Y-48552100D03*
D13*
%TO.P,LD16\u002C0,1*%
%TO.N,MAIN_VBUS*%
X358697900Y-49452100D03*
%TD*%
D10*
%TO.P,LD16\u002C4,1*%
%TO.N,MAIN_VBUS*%
X382371600Y-114274600D03*
%TO.P,LD16\u002C4,6*%
%TO.N,GNDPWR*%
X381228600Y-111099600D03*
D11*
X381228600Y-112141600D03*
D12*
%TO.P,LD16\u002C4,8*%
%TO.N,N/C*%
X381228600Y-113961600D03*
D13*
%TO.P,LD16\u002C4,7*%
X380378600Y-114031600D03*
%TO.P,LD16\u002C4,4*%
%TO.N,Net-(LD11\u002C4-Pad3)*%
X380378600Y-112231600D03*
D14*
%TO.P,LD16\u002C4,5*%
%TO.N,Net-(LD11\u002C4-Pad2)*%
X380378600Y-113131600D03*
D13*
%TO.P,LD16\u002C4,3*%
%TO.N,Net-(LD16\u002C4-Pad3)*%
X382078600Y-112231600D03*
D14*
%TO.P,LD16\u002C4,2*%
%TO.N,Net-(LD16\u002C4-Pad2)*%
X382078600Y-113131600D03*
D13*
%TO.P,LD16\u002C4,1*%
%TO.N,MAIN_VBUS*%
X382078600Y-114031600D03*
%TD*%
D10*
%TO.P,LD15\u002C0,1*%
%TO.N,MAIN_VBUS*%
X339686900Y-49695100D03*
%TO.P,LD15\u002C0,6*%
%TO.N,GNDPWR*%
X338543900Y-46520100D03*
D11*
X338543900Y-47562100D03*
D12*
%TO.P,LD15\u002C0,8*%
%TO.N,N/C*%
X338543900Y-49382100D03*
D13*
%TO.P,LD15\u002C0,7*%
X337693900Y-49452100D03*
%TO.P,LD15\u002C0,4*%
%TO.N,Net-(LD14\u002C0-Pad3)*%
X337693900Y-47652100D03*
D14*
%TO.P,LD15\u002C0,5*%
%TO.N,Net-(LD14\u002C0-Pad2)*%
X337693900Y-48552100D03*
D13*
%TO.P,LD15\u002C0,3*%
%TO.N,Net-(LD15\u002C0-Pad3)*%
X339393900Y-47652100D03*
D14*
%TO.P,LD15\u002C0,2*%
%TO.N,Net-(LD15\u002C0-Pad2)*%
X339393900Y-48552100D03*
D13*
%TO.P,LD15\u002C0,1*%
%TO.N,MAIN_VBUS*%
X339393900Y-49452100D03*
%TD*%
D10*
%TO.P,LD15\u002C5,1*%
%TO.N,MAIN_VBUS*%
X339128100Y-134035800D03*
%TO.P,LD15\u002C5,6*%
%TO.N,GNDPWR*%
X337985100Y-130860800D03*
D11*
X337985100Y-131902800D03*
D12*
%TO.P,LD15\u002C5,8*%
%TO.N,N/C*%
X337985100Y-133722800D03*
D13*
%TO.P,LD15\u002C5,7*%
X337135100Y-133792800D03*
%TO.P,LD15\u002C5,4*%
%TO.N,Net-(LD11\u002C5-Pad3)*%
X337135100Y-131992800D03*
D14*
%TO.P,LD15\u002C5,5*%
%TO.N,Net-(LD11\u002C5-Pad2)*%
X337135100Y-132892800D03*
D13*
%TO.P,LD15\u002C5,3*%
%TO.N,Net-(LD15\u002C5-Pad3)*%
X338835100Y-131992800D03*
D14*
%TO.P,LD15\u002C5,2*%
%TO.N,Net-(LD15\u002C5-Pad2)*%
X338835100Y-132892800D03*
D13*
%TO.P,LD15\u002C5,1*%
%TO.N,MAIN_VBUS*%
X338835100Y-133792800D03*
%TD*%
D10*
%TO.P,LD15\u002C6,1*%
%TO.N,MAIN_VBUS*%
X339128100Y-153390600D03*
%TO.P,LD15\u002C6,6*%
%TO.N,GNDPWR*%
X337985100Y-150215600D03*
D11*
X337985100Y-151257600D03*
D12*
%TO.P,LD15\u002C6,8*%
%TO.N,N/C*%
X337985100Y-153077600D03*
D13*
%TO.P,LD15\u002C6,7*%
X337135100Y-153147600D03*
%TO.P,LD15\u002C6,4*%
%TO.N,Net-(LD14\u002C6-Pad3)*%
X337135100Y-151347600D03*
D14*
%TO.P,LD15\u002C6,5*%
%TO.N,Net-(LD14\u002C6-Pad2)*%
X337135100Y-152247600D03*
D13*
%TO.P,LD15\u002C6,3*%
%TO.N,Net-(LD15\u002C6-Pad3)*%
X338835100Y-151347600D03*
D14*
%TO.P,LD15\u002C6,2*%
%TO.N,Net-(LD15\u002C6-Pad2)*%
X338835100Y-152247600D03*
D13*
%TO.P,LD15\u002C6,1*%
%TO.N,MAIN_VBUS*%
X338835100Y-153147600D03*
%TD*%
D10*
%TO.P,LD15\u002C3,1*%
%TO.N,MAIN_VBUS*%
X339191600Y-94843600D03*
%TO.P,LD15\u002C3,6*%
%TO.N,GNDPWR*%
X338048600Y-91668600D03*
D11*
X338048600Y-92710600D03*
D12*
%TO.P,LD15\u002C3,8*%
%TO.N,N/C*%
X338048600Y-94530600D03*
D13*
%TO.P,LD15\u002C3,7*%
X337198600Y-94600600D03*
%TO.P,LD15\u002C3,4*%
%TO.N,Net-(LD14\u002C3-Pad3)*%
X337198600Y-92800600D03*
D14*
%TO.P,LD15\u002C3,5*%
%TO.N,Net-(LD14\u002C3-Pad2)*%
X337198600Y-93700600D03*
D13*
%TO.P,LD15\u002C3,3*%
%TO.N,Net-(LD15\u002C3-Pad3)*%
X338898600Y-92800600D03*
D14*
%TO.P,LD15\u002C3,2*%
%TO.N,Net-(LD15\u002C3-Pad2)*%
X338898600Y-93700600D03*
D13*
%TO.P,LD15\u002C3,1*%
%TO.N,MAIN_VBUS*%
X338898600Y-94600600D03*
%TD*%
D10*
%TO.P,LD15\u002C1,1*%
%TO.N,MAIN_VBUS*%
X339191600Y-75603100D03*
%TO.P,LD15\u002C1,6*%
%TO.N,GNDPWR*%
X338048600Y-72428100D03*
D11*
X338048600Y-73470100D03*
D12*
%TO.P,LD15\u002C1,8*%
%TO.N,N/C*%
X338048600Y-75290100D03*
D13*
%TO.P,LD15\u002C1,7*%
X337198600Y-75360100D03*
%TO.P,LD15\u002C1,4*%
%TO.N,Net-(LD14\u002C1-Pad3)*%
X337198600Y-73560100D03*
D14*
%TO.P,LD15\u002C1,5*%
%TO.N,Net-(LD14\u002C1-Pad2)*%
X337198600Y-74460100D03*
D13*
%TO.P,LD15\u002C1,3*%
%TO.N,Net-(LD15\u002C1-Pad3)*%
X338898600Y-73560100D03*
D14*
%TO.P,LD15\u002C1,2*%
%TO.N,Net-(LD15\u002C1-Pad2)*%
X338898600Y-74460100D03*
D13*
%TO.P,LD15\u002C1,1*%
%TO.N,MAIN_VBUS*%
X338898600Y-75360100D03*
%TD*%
D10*
%TO.P,LD14\u002C1,1*%
%TO.N,MAIN_VBUS*%
X319887600Y-75603100D03*
%TO.P,LD14\u002C1,6*%
%TO.N,GNDPWR*%
X318744600Y-72428100D03*
D11*
X318744600Y-73470100D03*
D12*
%TO.P,LD14\u002C1,8*%
%TO.N,N/C*%
X318744600Y-75290100D03*
D13*
%TO.P,LD14\u002C1,7*%
X317894600Y-75360100D03*
%TO.P,LD14\u002C1,4*%
%TO.N,Net-(LD13\u002C1-Pad3)*%
X317894600Y-73560100D03*
D14*
%TO.P,LD14\u002C1,5*%
%TO.N,Net-(LD13\u002C1-Pad2)*%
X317894600Y-74460100D03*
D13*
%TO.P,LD14\u002C1,3*%
%TO.N,Net-(LD14\u002C1-Pad3)*%
X319594600Y-73560100D03*
D14*
%TO.P,LD14\u002C1,2*%
%TO.N,Net-(LD14\u002C1-Pad2)*%
X319594600Y-74460100D03*
D13*
%TO.P,LD14\u002C1,1*%
%TO.N,MAIN_VBUS*%
X319594600Y-75360100D03*
%TD*%
D10*
%TO.P,LD14\u002C3,1*%
%TO.N,MAIN_VBUS*%
X319887600Y-94843600D03*
%TO.P,LD14\u002C3,6*%
%TO.N,GNDPWR*%
X318744600Y-91668600D03*
D11*
X318744600Y-92710600D03*
D12*
%TO.P,LD14\u002C3,8*%
%TO.N,N/C*%
X318744600Y-94530600D03*
D13*
%TO.P,LD14\u002C3,7*%
X317894600Y-94600600D03*
%TO.P,LD14\u002C3,4*%
%TO.N,Net-(LD12\u002C3-Pad3)*%
X317894600Y-92800600D03*
D14*
%TO.P,LD14\u002C3,5*%
%TO.N,Net-(LD12\u002C3-Pad2)*%
X317894600Y-93700600D03*
D13*
%TO.P,LD14\u002C3,3*%
%TO.N,Net-(LD14\u002C3-Pad3)*%
X319594600Y-92800600D03*
D14*
%TO.P,LD14\u002C3,2*%
%TO.N,Net-(LD14\u002C3-Pad2)*%
X319594600Y-93700600D03*
D13*
%TO.P,LD14\u002C3,1*%
%TO.N,MAIN_VBUS*%
X319594600Y-94600600D03*
%TD*%
D10*
%TO.P,LD14\u002C0,1*%
%TO.N,MAIN_VBUS*%
X320128900Y-49695100D03*
%TO.P,LD14\u002C0,6*%
%TO.N,GNDPWR*%
X318985900Y-46520100D03*
D11*
X318985900Y-47562100D03*
D12*
%TO.P,LD14\u002C0,8*%
%TO.N,N/C*%
X318985900Y-49382100D03*
D13*
%TO.P,LD14\u002C0,7*%
X318135900Y-49452100D03*
%TO.P,LD14\u002C0,4*%
%TO.N,Net-(LD12\u002C0-Pad3)*%
X318135900Y-47652100D03*
D14*
%TO.P,LD14\u002C0,5*%
%TO.N,Net-(LD12\u002C0-Pad2)*%
X318135900Y-48552100D03*
D13*
%TO.P,LD14\u002C0,3*%
%TO.N,Net-(LD14\u002C0-Pad3)*%
X319835900Y-47652100D03*
D14*
%TO.P,LD14\u002C0,2*%
%TO.N,Net-(LD14\u002C0-Pad2)*%
X319835900Y-48552100D03*
D13*
%TO.P,LD14\u002C0,1*%
%TO.N,MAIN_VBUS*%
X319835900Y-49452100D03*
%TD*%
D10*
%TO.P,LD14\u002C6,1*%
%TO.N,MAIN_VBUS*%
X319824100Y-153390600D03*
%TO.P,LD14\u002C6,6*%
%TO.N,GNDPWR*%
X318681100Y-150215600D03*
D11*
X318681100Y-151257600D03*
D12*
%TO.P,LD14\u002C6,8*%
%TO.N,N/C*%
X318681100Y-153077600D03*
D13*
%TO.P,LD14\u002C6,7*%
X317831100Y-153147600D03*
%TO.P,LD14\u002C6,4*%
%TO.N,Net-(LD14\u002C6-Pad4)*%
X317831100Y-151347600D03*
D14*
%TO.P,LD14\u002C6,5*%
%TO.N,Net-(LD14\u002C6-Pad5)*%
X317831100Y-152247600D03*
D13*
%TO.P,LD14\u002C6,3*%
%TO.N,Net-(LD14\u002C6-Pad3)*%
X319531100Y-151347600D03*
D14*
%TO.P,LD14\u002C6,2*%
%TO.N,Net-(LD14\u002C6-Pad2)*%
X319531100Y-152247600D03*
D13*
%TO.P,LD14\u002C6,1*%
%TO.N,MAIN_VBUS*%
X319531100Y-153147600D03*
%TD*%
D10*
%TO.P,LD13\u002C1,1*%
%TO.N,MAIN_VBUS*%
X287032700Y-75603100D03*
%TO.P,LD13\u002C1,6*%
%TO.N,GNDPWR*%
X285889700Y-72428100D03*
D11*
X285889700Y-73470100D03*
D12*
%TO.P,LD13\u002C1,8*%
%TO.N,N/C*%
X285889700Y-75290100D03*
D13*
%TO.P,LD13\u002C1,7*%
X285039700Y-75360100D03*
%TO.P,LD13\u002C1,4*%
%TO.N,Net-(LD12\u002C1-Pad3)*%
X285039700Y-73560100D03*
D14*
%TO.P,LD13\u002C1,5*%
%TO.N,Net-(LD12\u002C1-Pad2)*%
X285039700Y-74460100D03*
D13*
%TO.P,LD13\u002C1,3*%
%TO.N,Net-(LD13\u002C1-Pad3)*%
X286739700Y-73560100D03*
D14*
%TO.P,LD13\u002C1,2*%
%TO.N,Net-(LD13\u002C1-Pad2)*%
X286739700Y-74460100D03*
D13*
%TO.P,LD13\u002C1,1*%
%TO.N,MAIN_VBUS*%
X286739700Y-75360100D03*
%TD*%
D10*
%TO.P,LD13\u002C2,1*%
%TO.N,MAIN_VBUS*%
X292227000Y-94869000D03*
%TO.P,LD13\u002C2,6*%
%TO.N,GNDPWR*%
X291084000Y-91694000D03*
D11*
X291084000Y-92736000D03*
D12*
%TO.P,LD13\u002C2,8*%
%TO.N,N/C*%
X291084000Y-94556000D03*
D13*
%TO.P,LD13\u002C2,7*%
X290234000Y-94626000D03*
%TO.P,LD13\u002C2,4*%
%TO.N,Net-(LD12\u002C2-Pad3)*%
X290234000Y-92826000D03*
D14*
%TO.P,LD13\u002C2,5*%
%TO.N,Net-(LD12\u002C2-Pad2)*%
X290234000Y-93726000D03*
D13*
%TO.P,LD13\u002C2,3*%
%TO.N,Net-(LD0\u002C3-Pad4)*%
X291934000Y-92826000D03*
D14*
%TO.P,LD13\u002C2,2*%
%TO.N,Net-(LD0\u002C3-Pad5)*%
X291934000Y-93726000D03*
D13*
%TO.P,LD13\u002C2,1*%
%TO.N,MAIN_VBUS*%
X291934000Y-94626000D03*
%TD*%
D10*
%TO.P,LD12\u002C0,1*%
%TO.N,MAIN_VBUS*%
X297558460Y-49695100D03*
%TO.P,LD12\u002C0,6*%
%TO.N,GNDPWR*%
X296415460Y-46520100D03*
D11*
X296415460Y-47562100D03*
D12*
%TO.P,LD12\u002C0,8*%
%TO.N,N/C*%
X296415460Y-49382100D03*
D13*
%TO.P,LD12\u002C0,7*%
X295565460Y-49452100D03*
%TO.P,LD12\u002C0,4*%
%TO.N,Net-(LD11\u002C0-Pad3)*%
X295565460Y-47652100D03*
D14*
%TO.P,LD12\u002C0,5*%
%TO.N,Net-(LD11\u002C0-Pad2)*%
X295565460Y-48552100D03*
D13*
%TO.P,LD12\u002C0,3*%
%TO.N,Net-(LD12\u002C0-Pad3)*%
X297265460Y-47652100D03*
D14*
%TO.P,LD12\u002C0,2*%
%TO.N,Net-(LD12\u002C0-Pad2)*%
X297265460Y-48552100D03*
D13*
%TO.P,LD12\u002C0,1*%
%TO.N,MAIN_VBUS*%
X297265460Y-49452100D03*
%TD*%
D10*
%TO.P,LD12\u002C1,1*%
%TO.N,MAIN_VBUS*%
X258267200Y-75603100D03*
%TO.P,LD12\u002C1,6*%
%TO.N,GNDPWR*%
X257124200Y-72428100D03*
D11*
X257124200Y-73470100D03*
D12*
%TO.P,LD12\u002C1,8*%
%TO.N,N/C*%
X257124200Y-75290100D03*
D13*
%TO.P,LD12\u002C1,7*%
X256274200Y-75360100D03*
%TO.P,LD12\u002C1,4*%
%TO.N,Net-(LD11\u002C1-Pad3)*%
X256274200Y-73560100D03*
D14*
%TO.P,LD12\u002C1,5*%
%TO.N,Net-(LD11\u002C1-Pad2)*%
X256274200Y-74460100D03*
D13*
%TO.P,LD12\u002C1,3*%
%TO.N,Net-(LD12\u002C1-Pad3)*%
X257974200Y-73560100D03*
D14*
%TO.P,LD12\u002C1,2*%
%TO.N,Net-(LD12\u002C1-Pad2)*%
X257974200Y-74460100D03*
D13*
%TO.P,LD12\u002C1,1*%
%TO.N,MAIN_VBUS*%
X257974200Y-75360100D03*
%TD*%
D10*
%TO.P,LD12\u002C3,1*%
%TO.N,MAIN_VBUS*%
X285165800Y-114300000D03*
%TO.P,LD12\u002C3,6*%
%TO.N,GNDPWR*%
X284022800Y-111125000D03*
D11*
X284022800Y-112167000D03*
D12*
%TO.P,LD12\u002C3,8*%
%TO.N,N/C*%
X284022800Y-113987000D03*
D13*
%TO.P,LD12\u002C3,7*%
X283172800Y-114057000D03*
%TO.P,LD12\u002C3,4*%
%TO.N,Net-(LD11\u002C3-Pad3)*%
X283172800Y-112257000D03*
D14*
%TO.P,LD12\u002C3,5*%
%TO.N,Net-(LD11\u002C3-Pad2)*%
X283172800Y-113157000D03*
D13*
%TO.P,LD12\u002C3,3*%
%TO.N,Net-(LD12\u002C3-Pad3)*%
X284872800Y-112257000D03*
D14*
%TO.P,LD12\u002C3,2*%
%TO.N,Net-(LD12\u002C3-Pad2)*%
X284872800Y-113157000D03*
D13*
%TO.P,LD12\u002C3,1*%
%TO.N,MAIN_VBUS*%
X284872800Y-114057000D03*
%TD*%
D10*
%TO.P,LD12\u002C2,1*%
%TO.N,MAIN_VBUS*%
X268300200Y-94843600D03*
%TO.P,LD12\u002C2,6*%
%TO.N,GNDPWR*%
X267157200Y-91668600D03*
D11*
X267157200Y-92710600D03*
D12*
%TO.P,LD12\u002C2,8*%
%TO.N,N/C*%
X267157200Y-94530600D03*
D13*
%TO.P,LD12\u002C2,7*%
X266307200Y-94600600D03*
%TO.P,LD12\u002C2,4*%
%TO.N,Net-(LD11\u002C2-Pad3)*%
X266307200Y-92800600D03*
D14*
%TO.P,LD12\u002C2,5*%
%TO.N,Net-(LD11\u002C2-Pad2)*%
X266307200Y-93700600D03*
D13*
%TO.P,LD12\u002C2,3*%
%TO.N,Net-(LD12\u002C2-Pad3)*%
X268007200Y-92800600D03*
D14*
%TO.P,LD12\u002C2,2*%
%TO.N,Net-(LD12\u002C2-Pad2)*%
X268007200Y-93700600D03*
D13*
%TO.P,LD12\u002C2,1*%
%TO.N,MAIN_VBUS*%
X268007200Y-94600600D03*
%TD*%
D10*
%TO.P,LD11\u002C4,1*%
%TO.N,MAIN_VBUS*%
X280365200Y-134086600D03*
%TO.P,LD11\u002C4,6*%
%TO.N,GNDPWR*%
X279222200Y-130911600D03*
D11*
X279222200Y-131953600D03*
D12*
%TO.P,LD11\u002C4,8*%
%TO.N,N/C*%
X279222200Y-133773600D03*
D13*
%TO.P,LD11\u002C4,7*%
X278372200Y-133843600D03*
%TO.P,LD11\u002C4,4*%
%TO.N,Net-(LD10\u002C4-Pad3)*%
X278372200Y-132043600D03*
D14*
%TO.P,LD11\u002C4,5*%
%TO.N,Net-(LD10\u002C4-Pad2)*%
X278372200Y-132943600D03*
D13*
%TO.P,LD11\u002C4,3*%
%TO.N,Net-(LD11\u002C4-Pad3)*%
X280072200Y-132043600D03*
D14*
%TO.P,LD11\u002C4,2*%
%TO.N,Net-(LD11\u002C4-Pad2)*%
X280072200Y-132943600D03*
D13*
%TO.P,LD11\u002C4,1*%
%TO.N,MAIN_VBUS*%
X280072200Y-133843600D03*
%TD*%
D10*
%TO.P,LD11\u002C2,1*%
%TO.N,MAIN_VBUS*%
X248996200Y-94843600D03*
%TO.P,LD11\u002C2,6*%
%TO.N,GNDPWR*%
X247853200Y-91668600D03*
D11*
X247853200Y-92710600D03*
D12*
%TO.P,LD11\u002C2,8*%
%TO.N,N/C*%
X247853200Y-94530600D03*
D13*
%TO.P,LD11\u002C2,7*%
X247003200Y-94600600D03*
%TO.P,LD11\u002C2,4*%
%TO.N,Net-(LD10\u002C2-Pad3)*%
X247003200Y-92800600D03*
D14*
%TO.P,LD11\u002C2,5*%
%TO.N,Net-(LD10\u002C2-Pad2)*%
X247003200Y-93700600D03*
D13*
%TO.P,LD11\u002C2,3*%
%TO.N,Net-(LD11\u002C2-Pad3)*%
X248703200Y-92800600D03*
D14*
%TO.P,LD11\u002C2,2*%
%TO.N,Net-(LD11\u002C2-Pad2)*%
X248703200Y-93700600D03*
D13*
%TO.P,LD11\u002C2,1*%
%TO.N,MAIN_VBUS*%
X248703200Y-94600600D03*
%TD*%
D10*
%TO.P,LD11\u002C5,1*%
%TO.N,MAIN_VBUS*%
X294716200Y-153517600D03*
%TO.P,LD11\u002C5,6*%
%TO.N,GNDPWR*%
X293573200Y-150342600D03*
D11*
X293573200Y-151384600D03*
D12*
%TO.P,LD11\u002C5,8*%
%TO.N,N/C*%
X293573200Y-153204600D03*
D13*
%TO.P,LD11\u002C5,7*%
X292723200Y-153274600D03*
%TO.P,LD11\u002C5,4*%
%TO.N,Net-(LD10\u002C5-Pad3)*%
X292723200Y-151474600D03*
D14*
%TO.P,LD11\u002C5,5*%
%TO.N,Net-(LD10\u002C5-Pad2)*%
X292723200Y-152374600D03*
D13*
%TO.P,LD11\u002C5,3*%
%TO.N,Net-(LD11\u002C5-Pad3)*%
X294423200Y-151474600D03*
D14*
%TO.P,LD11\u002C5,2*%
%TO.N,Net-(LD11\u002C5-Pad2)*%
X294423200Y-152374600D03*
D13*
%TO.P,LD11\u002C5,1*%
%TO.N,MAIN_VBUS*%
X294423200Y-153274600D03*
%TD*%
D10*
%TO.P,LD11\u002C0,1*%
%TO.N,MAIN_VBUS*%
X278254460Y-49695100D03*
%TO.P,LD11\u002C0,6*%
%TO.N,GNDPWR*%
X277111460Y-46520100D03*
D11*
X277111460Y-47562100D03*
D12*
%TO.P,LD11\u002C0,8*%
%TO.N,N/C*%
X277111460Y-49382100D03*
D13*
%TO.P,LD11\u002C0,7*%
X276261460Y-49452100D03*
%TO.P,LD11\u002C0,4*%
%TO.N,Net-(LD10\u002C0-Pad3)*%
X276261460Y-47652100D03*
D14*
%TO.P,LD11\u002C0,5*%
%TO.N,Net-(LD10\u002C0-Pad2)*%
X276261460Y-48552100D03*
D13*
%TO.P,LD11\u002C0,3*%
%TO.N,Net-(LD11\u002C0-Pad3)*%
X277961460Y-47652100D03*
D14*
%TO.P,LD11\u002C0,2*%
%TO.N,Net-(LD11\u002C0-Pad2)*%
X277961460Y-48552100D03*
D13*
%TO.P,LD11\u002C0,1*%
%TO.N,MAIN_VBUS*%
X277961460Y-49452100D03*
%TD*%
D10*
%TO.P,LD11\u002C3,1*%
%TO.N,MAIN_VBUS*%
X253885700Y-114274600D03*
%TO.P,LD11\u002C3,6*%
%TO.N,GNDPWR*%
X252742700Y-111099600D03*
D11*
X252742700Y-112141600D03*
D12*
%TO.P,LD11\u002C3,8*%
%TO.N,N/C*%
X252742700Y-113961600D03*
D13*
%TO.P,LD11\u002C3,7*%
X251892700Y-114031600D03*
%TO.P,LD11\u002C3,4*%
%TO.N,Net-(LD10\u002C3-Pad3)*%
X251892700Y-112231600D03*
D14*
%TO.P,LD11\u002C3,5*%
%TO.N,Net-(LD10\u002C3-Pad2)*%
X251892700Y-113131600D03*
D13*
%TO.P,LD11\u002C3,3*%
%TO.N,Net-(LD11\u002C3-Pad3)*%
X253592700Y-112231600D03*
D14*
%TO.P,LD11\u002C3,2*%
%TO.N,Net-(LD11\u002C3-Pad2)*%
X253592700Y-113131600D03*
D13*
%TO.P,LD11\u002C3,1*%
%TO.N,MAIN_VBUS*%
X253592700Y-114031600D03*
%TD*%
D10*
%TO.P,LD11\u002C1,1*%
%TO.N,MAIN_VBUS*%
X238963200Y-75603100D03*
%TO.P,LD11\u002C1,6*%
%TO.N,GNDPWR*%
X237820200Y-72428100D03*
D11*
X237820200Y-73470100D03*
D12*
%TO.P,LD11\u002C1,8*%
%TO.N,N/C*%
X237820200Y-75290100D03*
D13*
%TO.P,LD11\u002C1,7*%
X236970200Y-75360100D03*
%TO.P,LD11\u002C1,4*%
%TO.N,Net-(LD10\u002C1-Pad3)*%
X236970200Y-73560100D03*
D14*
%TO.P,LD11\u002C1,5*%
%TO.N,Net-(LD10\u002C1-Pad2)*%
X236970200Y-74460100D03*
D13*
%TO.P,LD11\u002C1,3*%
%TO.N,Net-(LD11\u002C1-Pad3)*%
X238670200Y-73560100D03*
D14*
%TO.P,LD11\u002C1,2*%
%TO.N,Net-(LD11\u002C1-Pad2)*%
X238670200Y-74460100D03*
D13*
%TO.P,LD11\u002C1,1*%
%TO.N,MAIN_VBUS*%
X238670200Y-75360100D03*
%TD*%
D10*
%TO.P,LD10\u002C3,1*%
%TO.N,MAIN_VBUS*%
X234581700Y-114274600D03*
%TO.P,LD10\u002C3,6*%
%TO.N,GNDPWR*%
X233438700Y-111099600D03*
D11*
X233438700Y-112141600D03*
D12*
%TO.P,LD10\u002C3,8*%
%TO.N,N/C*%
X233438700Y-113961600D03*
D13*
%TO.P,LD10\u002C3,7*%
X232588700Y-114031600D03*
%TO.P,LD10\u002C3,4*%
%TO.N,Net-(LD10\u002C3-Pad4)*%
X232588700Y-112231600D03*
D14*
%TO.P,LD10\u002C3,5*%
%TO.N,Net-(LD10\u002C3-Pad5)*%
X232588700Y-113131600D03*
D13*
%TO.P,LD10\u002C3,3*%
%TO.N,Net-(LD10\u002C3-Pad3)*%
X234288700Y-112231600D03*
D14*
%TO.P,LD10\u002C3,2*%
%TO.N,Net-(LD10\u002C3-Pad2)*%
X234288700Y-113131600D03*
D13*
%TO.P,LD10\u002C3,1*%
%TO.N,MAIN_VBUS*%
X234288700Y-114031600D03*
%TD*%
D10*
%TO.P,LD10\u002C4,1*%
%TO.N,MAIN_VBUS*%
X243979700Y-134086600D03*
%TO.P,LD10\u002C4,6*%
%TO.N,GNDPWR*%
X242836700Y-130911600D03*
D11*
X242836700Y-131953600D03*
D12*
%TO.P,LD10\u002C4,8*%
%TO.N,N/C*%
X242836700Y-133773600D03*
D13*
%TO.P,LD10\u002C4,7*%
X241986700Y-133843600D03*
%TO.P,LD10\u002C4,4*%
%TO.N,Net-(LD10\u002C4-Pad4)*%
X241986700Y-132043600D03*
D14*
%TO.P,LD10\u002C4,5*%
%TO.N,Net-(LD10\u002C4-Pad5)*%
X241986700Y-132943600D03*
D13*
%TO.P,LD10\u002C4,3*%
%TO.N,Net-(LD10\u002C4-Pad3)*%
X243686700Y-132043600D03*
D14*
%TO.P,LD10\u002C4,2*%
%TO.N,Net-(LD10\u002C4-Pad2)*%
X243686700Y-132943600D03*
D13*
%TO.P,LD10\u002C4,1*%
%TO.N,MAIN_VBUS*%
X243686700Y-133843600D03*
%TD*%
D10*
%TO.P,LD10\u002C2,1*%
%TO.N,MAIN_VBUS*%
X229692200Y-94843600D03*
%TO.P,LD10\u002C2,6*%
%TO.N,GNDPWR*%
X228549200Y-91668600D03*
D11*
X228549200Y-92710600D03*
D12*
%TO.P,LD10\u002C2,8*%
%TO.N,N/C*%
X228549200Y-94530600D03*
D13*
%TO.P,LD10\u002C2,7*%
X227699200Y-94600600D03*
%TO.P,LD10\u002C2,4*%
%TO.N,Net-(LD10\u002C2-Pad4)*%
X227699200Y-92800600D03*
D14*
%TO.P,LD10\u002C2,5*%
%TO.N,Net-(LD10\u002C2-Pad5)*%
X227699200Y-93700600D03*
D13*
%TO.P,LD10\u002C2,3*%
%TO.N,Net-(LD10\u002C2-Pad3)*%
X229399200Y-92800600D03*
D14*
%TO.P,LD10\u002C2,2*%
%TO.N,Net-(LD10\u002C2-Pad2)*%
X229399200Y-93700600D03*
D13*
%TO.P,LD10\u002C2,1*%
%TO.N,MAIN_VBUS*%
X229399200Y-94600600D03*
%TD*%
D10*
%TO.P,LD10\u002C1,1*%
%TO.N,MAIN_VBUS*%
X219659200Y-75603100D03*
%TO.P,LD10\u002C1,6*%
%TO.N,GNDPWR*%
X218516200Y-72428100D03*
D11*
X218516200Y-73470100D03*
D12*
%TO.P,LD10\u002C1,8*%
%TO.N,N/C*%
X218516200Y-75290100D03*
D13*
%TO.P,LD10\u002C1,7*%
X217666200Y-75360100D03*
%TO.P,LD10\u002C1,4*%
%TO.N,Net-(LD10\u002C1-Pad4)*%
X217666200Y-73560100D03*
D14*
%TO.P,LD10\u002C1,5*%
%TO.N,Net-(LD10\u002C1-Pad5)*%
X217666200Y-74460100D03*
D13*
%TO.P,LD10\u002C1,3*%
%TO.N,Net-(LD10\u002C1-Pad3)*%
X219366200Y-73560100D03*
D14*
%TO.P,LD10\u002C1,2*%
%TO.N,Net-(LD10\u002C1-Pad2)*%
X219366200Y-74460100D03*
D13*
%TO.P,LD10\u002C1,1*%
%TO.N,MAIN_VBUS*%
X219366200Y-75360100D03*
%TD*%
D10*
%TO.P,LD10\u002C5,1*%
%TO.N,MAIN_VBUS*%
X270649700Y-153517600D03*
%TO.P,LD10\u002C5,6*%
%TO.N,GNDPWR*%
X269506700Y-150342600D03*
D11*
X269506700Y-151384600D03*
D12*
%TO.P,LD10\u002C5,8*%
%TO.N,N/C*%
X269506700Y-153204600D03*
D13*
%TO.P,LD10\u002C5,7*%
X268656700Y-153274600D03*
%TO.P,LD10\u002C5,4*%
%TO.N,Net-(LD10\u002C5-Pad4)*%
X268656700Y-151474600D03*
D14*
%TO.P,LD10\u002C5,5*%
%TO.N,Net-(LD10\u002C5-Pad5)*%
X268656700Y-152374600D03*
D13*
%TO.P,LD10\u002C5,3*%
%TO.N,Net-(LD10\u002C5-Pad3)*%
X270356700Y-151474600D03*
D14*
%TO.P,LD10\u002C5,2*%
%TO.N,Net-(LD10\u002C5-Pad2)*%
X270356700Y-152374600D03*
D13*
%TO.P,LD10\u002C5,1*%
%TO.N,MAIN_VBUS*%
X270356700Y-153274600D03*
%TD*%
D10*
%TO.P,LD10\u002C0,1*%
%TO.N,MAIN_VBUS*%
X258950460Y-49695100D03*
%TO.P,LD10\u002C0,6*%
%TO.N,GNDPWR*%
X257807460Y-46520100D03*
D11*
X257807460Y-47562100D03*
D12*
%TO.P,LD10\u002C0,8*%
%TO.N,N/C*%
X257807460Y-49382100D03*
D13*
%TO.P,LD10\u002C0,7*%
X256957460Y-49452100D03*
%TO.P,LD10\u002C0,4*%
%TO.N,Net-(LD10\u002C0-Pad4)*%
X256957460Y-47652100D03*
D14*
%TO.P,LD10\u002C0,5*%
%TO.N,Net-(LD10\u002C0-Pad5)*%
X256957460Y-48552100D03*
D13*
%TO.P,LD10\u002C0,3*%
%TO.N,Net-(LD10\u002C0-Pad3)*%
X258657460Y-47652100D03*
D14*
%TO.P,LD10\u002C0,2*%
%TO.N,Net-(LD10\u002C0-Pad2)*%
X258657460Y-48552100D03*
D13*
%TO.P,LD10\u002C0,1*%
%TO.N,MAIN_VBUS*%
X258657460Y-49452100D03*
%TD*%
D10*
%TO.P,LD9\u002C2,1*%
%TO.N,MAIN_VBUS*%
X210388200Y-94843600D03*
%TO.P,LD9\u002C2,6*%
%TO.N,GNDPWR*%
X209245200Y-91668600D03*
D11*
X209245200Y-92710600D03*
D12*
%TO.P,LD9\u002C2,8*%
%TO.N,N/C*%
X209245200Y-94530600D03*
D13*
%TO.P,LD9\u002C2,7*%
X208395200Y-94600600D03*
%TO.P,LD9\u002C2,4*%
%TO.N,Net-(LD8\u002C2-Pad3)*%
X208395200Y-92800600D03*
D14*
%TO.P,LD9\u002C2,5*%
%TO.N,Net-(LD8\u002C2-Pad2)*%
X208395200Y-93700600D03*
D13*
%TO.P,LD9\u002C2,3*%
%TO.N,Net-(LD10\u002C2-Pad4)*%
X210095200Y-92800600D03*
D14*
%TO.P,LD9\u002C2,2*%
%TO.N,Net-(LD10\u002C2-Pad5)*%
X210095200Y-93700600D03*
D13*
%TO.P,LD9\u002C2,1*%
%TO.N,MAIN_VBUS*%
X210095200Y-94600600D03*
%TD*%
D10*
%TO.P,LD9\u002C5,1*%
%TO.N,MAIN_VBUS*%
X246456200Y-153517600D03*
%TO.P,LD9\u002C5,6*%
%TO.N,GNDPWR*%
X245313200Y-150342600D03*
D11*
X245313200Y-151384600D03*
D12*
%TO.P,LD9\u002C5,8*%
%TO.N,N/C*%
X245313200Y-153204600D03*
D13*
%TO.P,LD9\u002C5,7*%
X244463200Y-153274600D03*
%TO.P,LD9\u002C5,4*%
%TO.N,Net-(LD8\u002C5-Pad3)*%
X244463200Y-151474600D03*
D14*
%TO.P,LD9\u002C5,5*%
%TO.N,Net-(LD8\u002C5-Pad2)*%
X244463200Y-152374600D03*
D13*
%TO.P,LD9\u002C5,3*%
%TO.N,Net-(LD10\u002C5-Pad4)*%
X246163200Y-151474600D03*
D14*
%TO.P,LD9\u002C5,2*%
%TO.N,Net-(LD10\u002C5-Pad5)*%
X246163200Y-152374600D03*
D13*
%TO.P,LD9\u002C5,1*%
%TO.N,MAIN_VBUS*%
X246163200Y-153274600D03*
%TD*%
D10*
%TO.P,LD9\u002C3,1*%
%TO.N,MAIN_VBUS*%
X215277700Y-114274600D03*
%TO.P,LD9\u002C3,6*%
%TO.N,GNDPWR*%
X214134700Y-111099600D03*
D11*
X214134700Y-112141600D03*
D12*
%TO.P,LD9\u002C3,8*%
%TO.N,N/C*%
X214134700Y-113961600D03*
D13*
%TO.P,LD9\u002C3,7*%
X213284700Y-114031600D03*
%TO.P,LD9\u002C3,4*%
%TO.N,Net-(LD8\u002C3-Pad3)*%
X213284700Y-112231600D03*
D14*
%TO.P,LD9\u002C3,5*%
%TO.N,Net-(LD8\u002C3-Pad2)*%
X213284700Y-113131600D03*
D13*
%TO.P,LD9\u002C3,3*%
%TO.N,Net-(LD10\u002C3-Pad4)*%
X214984700Y-112231600D03*
D14*
%TO.P,LD9\u002C3,2*%
%TO.N,Net-(LD10\u002C3-Pad5)*%
X214984700Y-113131600D03*
D13*
%TO.P,LD9\u002C3,1*%
%TO.N,MAIN_VBUS*%
X214984700Y-114031600D03*
%TD*%
D10*
%TO.P,LD9\u002C4,1*%
%TO.N,MAIN_VBUS*%
X224675700Y-134086600D03*
%TO.P,LD9\u002C4,6*%
%TO.N,GNDPWR*%
X223532700Y-130911600D03*
D11*
X223532700Y-131953600D03*
D12*
%TO.P,LD9\u002C4,8*%
%TO.N,N/C*%
X223532700Y-133773600D03*
D13*
%TO.P,LD9\u002C4,7*%
X222682700Y-133843600D03*
%TO.P,LD9\u002C4,4*%
%TO.N,Net-(LD8\u002C4-Pad3)*%
X222682700Y-132043600D03*
D14*
%TO.P,LD9\u002C4,5*%
%TO.N,Net-(LD8\u002C4-Pad2)*%
X222682700Y-132943600D03*
D13*
%TO.P,LD9\u002C4,3*%
%TO.N,Net-(LD10\u002C4-Pad4)*%
X224382700Y-132043600D03*
D14*
%TO.P,LD9\u002C4,2*%
%TO.N,Net-(LD10\u002C4-Pad5)*%
X224382700Y-132943600D03*
D13*
%TO.P,LD9\u002C4,1*%
%TO.N,MAIN_VBUS*%
X224382700Y-133843600D03*
%TD*%
D10*
%TO.P,LD9\u002C1,1*%
%TO.N,MAIN_VBUS*%
X200355200Y-75603100D03*
%TO.P,LD9\u002C1,6*%
%TO.N,GNDPWR*%
X199212200Y-72428100D03*
D11*
X199212200Y-73470100D03*
D12*
%TO.P,LD9\u002C1,8*%
%TO.N,N/C*%
X199212200Y-75290100D03*
D13*
%TO.P,LD9\u002C1,7*%
X198362200Y-75360100D03*
%TO.P,LD9\u002C1,4*%
%TO.N,Net-(LD8\u002C1-Pad3)*%
X198362200Y-73560100D03*
D14*
%TO.P,LD9\u002C1,5*%
%TO.N,Net-(LD8\u002C1-Pad2)*%
X198362200Y-74460100D03*
D13*
%TO.P,LD9\u002C1,3*%
%TO.N,Net-(LD10\u002C1-Pad4)*%
X200062200Y-73560100D03*
D14*
%TO.P,LD9\u002C1,2*%
%TO.N,Net-(LD10\u002C1-Pad5)*%
X200062200Y-74460100D03*
D13*
%TO.P,LD9\u002C1,1*%
%TO.N,MAIN_VBUS*%
X200062200Y-75360100D03*
%TD*%
D10*
%TO.P,LD9\u002C0,1*%
%TO.N,MAIN_VBUS*%
X239646460Y-49695100D03*
%TO.P,LD9\u002C0,6*%
%TO.N,GNDPWR*%
X238503460Y-46520100D03*
D11*
X238503460Y-47562100D03*
D12*
%TO.P,LD9\u002C0,8*%
%TO.N,N/C*%
X238503460Y-49382100D03*
D13*
%TO.P,LD9\u002C0,7*%
X237653460Y-49452100D03*
%TO.P,LD9\u002C0,4*%
%TO.N,Net-(LD8\u002C0-Pad3)*%
X237653460Y-47652100D03*
D14*
%TO.P,LD9\u002C0,5*%
%TO.N,Net-(LD8\u002C0-Pad2)*%
X237653460Y-48552100D03*
D13*
%TO.P,LD9\u002C0,3*%
%TO.N,Net-(LD10\u002C0-Pad4)*%
X239353460Y-47652100D03*
D14*
%TO.P,LD9\u002C0,2*%
%TO.N,Net-(LD10\u002C0-Pad5)*%
X239353460Y-48552100D03*
D13*
%TO.P,LD9\u002C0,1*%
%TO.N,MAIN_VBUS*%
X239353460Y-49452100D03*
%TD*%
D10*
%TO.P,LD8\u002C5,1*%
%TO.N,MAIN_VBUS*%
X222326200Y-153517600D03*
%TO.P,LD8\u002C5,6*%
%TO.N,GNDPWR*%
X221183200Y-150342600D03*
D11*
X221183200Y-151384600D03*
D12*
%TO.P,LD8\u002C5,8*%
%TO.N,N/C*%
X221183200Y-153204600D03*
D13*
%TO.P,LD8\u002C5,7*%
X220333200Y-153274600D03*
%TO.P,LD8\u002C5,4*%
%TO.N,Net-(LD3\u002C5\u002C1-Pad3)*%
X220333200Y-151474600D03*
D14*
%TO.P,LD8\u002C5,5*%
%TO.N,Net-(LD3\u002C5\u002C1-Pad2)*%
X220333200Y-152374600D03*
D13*
%TO.P,LD8\u002C5,3*%
%TO.N,Net-(LD8\u002C5-Pad3)*%
X222033200Y-151474600D03*
D14*
%TO.P,LD8\u002C5,2*%
%TO.N,Net-(LD8\u002C5-Pad2)*%
X222033200Y-152374600D03*
D13*
%TO.P,LD8\u002C5,1*%
%TO.N,MAIN_VBUS*%
X222033200Y-153274600D03*
%TD*%
D10*
%TO.P,LD8\u002C1,1*%
%TO.N,MAIN_VBUS*%
X181051200Y-75603100D03*
%TO.P,LD8\u002C1,6*%
%TO.N,GNDPWR*%
X179908200Y-72428100D03*
D11*
X179908200Y-73470100D03*
D12*
%TO.P,LD8\u002C1,8*%
%TO.N,N/C*%
X179908200Y-75290100D03*
D13*
%TO.P,LD8\u002C1,7*%
X179058200Y-75360100D03*
%TO.P,LD8\u002C1,4*%
%TO.N,Net-(LD7\u002C1-Pad3)*%
X179058200Y-73560100D03*
D14*
%TO.P,LD8\u002C1,5*%
%TO.N,Net-(LD7\u002C1-Pad2)*%
X179058200Y-74460100D03*
D13*
%TO.P,LD8\u002C1,3*%
%TO.N,Net-(LD8\u002C1-Pad3)*%
X180758200Y-73560100D03*
D14*
%TO.P,LD8\u002C1,2*%
%TO.N,Net-(LD8\u002C1-Pad2)*%
X180758200Y-74460100D03*
D13*
%TO.P,LD8\u002C1,1*%
%TO.N,MAIN_VBUS*%
X180758200Y-75360100D03*
%TD*%
D10*
%TO.P,LD8\u002C2,1*%
%TO.N,MAIN_VBUS*%
X191084200Y-94843600D03*
%TO.P,LD8\u002C2,6*%
%TO.N,GNDPWR*%
X189941200Y-91668600D03*
D11*
X189941200Y-92710600D03*
D12*
%TO.P,LD8\u002C2,8*%
%TO.N,N/C*%
X189941200Y-94530600D03*
D13*
%TO.P,LD8\u002C2,7*%
X189091200Y-94600600D03*
%TO.P,LD8\u002C2,4*%
%TO.N,Net-(LD7\u002C2-Pad3)*%
X189091200Y-92800600D03*
D14*
%TO.P,LD8\u002C2,5*%
%TO.N,Net-(LD7\u002C2-Pad2)*%
X189091200Y-93700600D03*
D13*
%TO.P,LD8\u002C2,3*%
%TO.N,Net-(LD8\u002C2-Pad3)*%
X190791200Y-92800600D03*
D14*
%TO.P,LD8\u002C2,2*%
%TO.N,Net-(LD8\u002C2-Pad2)*%
X190791200Y-93700600D03*
D13*
%TO.P,LD8\u002C2,1*%
%TO.N,MAIN_VBUS*%
X190791200Y-94600600D03*
%TD*%
D10*
%TO.P,LD8\u002C0,1*%
%TO.N,MAIN_VBUS*%
X213230460Y-49695100D03*
%TO.P,LD8\u002C0,6*%
%TO.N,GNDPWR*%
X212087460Y-46520100D03*
D11*
X212087460Y-47562100D03*
D12*
%TO.P,LD8\u002C0,8*%
%TO.N,N/C*%
X212087460Y-49382100D03*
D13*
%TO.P,LD8\u002C0,7*%
X211237460Y-49452100D03*
%TO.P,LD8\u002C0,4*%
%TO.N,Net-(LD7\u002C0-Pad3)*%
X211237460Y-47652100D03*
D14*
%TO.P,LD8\u002C0,5*%
%TO.N,Net-(LD7\u002C0-Pad2)*%
X211237460Y-48552100D03*
D13*
%TO.P,LD8\u002C0,3*%
%TO.N,Net-(LD8\u002C0-Pad3)*%
X212937460Y-47652100D03*
D14*
%TO.P,LD8\u002C0,2*%
%TO.N,Net-(LD8\u002C0-Pad2)*%
X212937460Y-48552100D03*
D13*
%TO.P,LD8\u002C0,1*%
%TO.N,MAIN_VBUS*%
X212937460Y-49452100D03*
%TD*%
D10*
%TO.P,LD8\u002C4,1*%
%TO.N,MAIN_VBUS*%
X205371700Y-134086600D03*
%TO.P,LD8\u002C4,6*%
%TO.N,GNDPWR*%
X204228700Y-130911600D03*
D11*
X204228700Y-131953600D03*
D12*
%TO.P,LD8\u002C4,8*%
%TO.N,N/C*%
X204228700Y-133773600D03*
D13*
%TO.P,LD8\u002C4,7*%
X203378700Y-133843600D03*
%TO.P,LD8\u002C4,4*%
%TO.N,Net-(LD7\u002C4-Pad3)*%
X203378700Y-132043600D03*
D14*
%TO.P,LD8\u002C4,5*%
%TO.N,Net-(LD7\u002C4-Pad2)*%
X203378700Y-132943600D03*
D13*
%TO.P,LD8\u002C4,3*%
%TO.N,Net-(LD8\u002C4-Pad3)*%
X205078700Y-132043600D03*
D14*
%TO.P,LD8\u002C4,2*%
%TO.N,Net-(LD8\u002C4-Pad2)*%
X205078700Y-132943600D03*
D13*
%TO.P,LD8\u002C4,1*%
%TO.N,MAIN_VBUS*%
X205078700Y-133843600D03*
%TD*%
D10*
%TO.P,LD8\u002C3,1*%
%TO.N,MAIN_VBUS*%
X195973700Y-114274600D03*
%TO.P,LD8\u002C3,6*%
%TO.N,GNDPWR*%
X194830700Y-111099600D03*
D11*
X194830700Y-112141600D03*
D12*
%TO.P,LD8\u002C3,8*%
%TO.N,N/C*%
X194830700Y-113961600D03*
D13*
%TO.P,LD8\u002C3,7*%
X193980700Y-114031600D03*
%TO.P,LD8\u002C3,4*%
%TO.N,Net-(LD7\u002C3-Pad3)*%
X193980700Y-112231600D03*
D14*
%TO.P,LD8\u002C3,5*%
%TO.N,Net-(LD7\u002C3-Pad2)*%
X193980700Y-113131600D03*
D13*
%TO.P,LD8\u002C3,3*%
%TO.N,Net-(LD8\u002C3-Pad3)*%
X195680700Y-112231600D03*
D14*
%TO.P,LD8\u002C3,2*%
%TO.N,Net-(LD8\u002C3-Pad2)*%
X195680700Y-113131600D03*
D13*
%TO.P,LD8\u002C3,1*%
%TO.N,MAIN_VBUS*%
X195680700Y-114031600D03*
%TD*%
D10*
%TO.P,LD7\u002C2,1*%
%TO.N,MAIN_VBUS*%
X171780200Y-94843600D03*
%TO.P,LD7\u002C2,6*%
%TO.N,GNDPWR*%
X170637200Y-91668600D03*
D11*
X170637200Y-92710600D03*
D12*
%TO.P,LD7\u002C2,8*%
%TO.N,N/C*%
X170637200Y-94530600D03*
D13*
%TO.P,LD7\u002C2,7*%
X169787200Y-94600600D03*
%TO.P,LD7\u002C2,4*%
%TO.N,Net-(LD6\u002C2-Pad3)*%
X169787200Y-92800600D03*
D14*
%TO.P,LD7\u002C2,5*%
%TO.N,Net-(LD6\u002C2-Pad2)*%
X169787200Y-93700600D03*
D13*
%TO.P,LD7\u002C2,3*%
%TO.N,Net-(LD7\u002C2-Pad3)*%
X171487200Y-92800600D03*
D14*
%TO.P,LD7\u002C2,2*%
%TO.N,Net-(LD7\u002C2-Pad2)*%
X171487200Y-93700600D03*
D13*
%TO.P,LD7\u002C2,1*%
%TO.N,MAIN_VBUS*%
X171487200Y-94600600D03*
%TD*%
D10*
%TO.P,LD7\u002C1,1*%
%TO.N,MAIN_VBUS*%
X161747200Y-75603100D03*
%TO.P,LD7\u002C1,6*%
%TO.N,GNDPWR*%
X160604200Y-72428100D03*
D11*
X160604200Y-73470100D03*
D12*
%TO.P,LD7\u002C1,8*%
%TO.N,N/C*%
X160604200Y-75290100D03*
D13*
%TO.P,LD7\u002C1,7*%
X159754200Y-75360100D03*
%TO.P,LD7\u002C1,4*%
%TO.N,Net-(LD6\u002C1-Pad3)*%
X159754200Y-73560100D03*
D14*
%TO.P,LD7\u002C1,5*%
%TO.N,Net-(LD6\u002C1-Pad2)*%
X159754200Y-74460100D03*
D13*
%TO.P,LD7\u002C1,3*%
%TO.N,Net-(LD7\u002C1-Pad3)*%
X161454200Y-73560100D03*
D14*
%TO.P,LD7\u002C1,2*%
%TO.N,Net-(LD7\u002C1-Pad2)*%
X161454200Y-74460100D03*
D13*
%TO.P,LD7\u002C1,1*%
%TO.N,MAIN_VBUS*%
X161454200Y-75360100D03*
%TD*%
D10*
%TO.P,LD7\u002C3,1*%
%TO.N,MAIN_VBUS*%
X176669700Y-114274600D03*
%TO.P,LD7\u002C3,6*%
%TO.N,GNDPWR*%
X175526700Y-111099600D03*
D11*
X175526700Y-112141600D03*
D12*
%TO.P,LD7\u002C3,8*%
%TO.N,N/C*%
X175526700Y-113961600D03*
D13*
%TO.P,LD7\u002C3,7*%
X174676700Y-114031600D03*
%TO.P,LD7\u002C3,4*%
%TO.N,Net-(LD6\u002C3-Pad3)*%
X174676700Y-112231600D03*
D14*
%TO.P,LD7\u002C3,5*%
%TO.N,Net-(LD6\u002C3-Pad2)*%
X174676700Y-113131600D03*
D13*
%TO.P,LD7\u002C3,3*%
%TO.N,Net-(LD7\u002C3-Pad3)*%
X176376700Y-112231600D03*
D14*
%TO.P,LD7\u002C3,2*%
%TO.N,Net-(LD7\u002C3-Pad2)*%
X176376700Y-113131600D03*
D13*
%TO.P,LD7\u002C3,1*%
%TO.N,MAIN_VBUS*%
X176376700Y-114031600D03*
%TD*%
D10*
%TO.P,LD7\u002C4,1*%
%TO.N,MAIN_VBUS*%
X186067700Y-134086600D03*
%TO.P,LD7\u002C4,6*%
%TO.N,GNDPWR*%
X184924700Y-130911600D03*
D11*
X184924700Y-131953600D03*
D12*
%TO.P,LD7\u002C4,8*%
%TO.N,N/C*%
X184924700Y-133773600D03*
D13*
%TO.P,LD7\u002C4,7*%
X184074700Y-133843600D03*
%TO.P,LD7\u002C4,4*%
%TO.N,Net-(LD6\u002C4-Pad3)*%
X184074700Y-132043600D03*
D14*
%TO.P,LD7\u002C4,5*%
%TO.N,Net-(LD6\u002C4-Pad2)*%
X184074700Y-132943600D03*
D13*
%TO.P,LD7\u002C4,3*%
%TO.N,Net-(LD7\u002C4-Pad3)*%
X185774700Y-132043600D03*
D14*
%TO.P,LD7\u002C4,2*%
%TO.N,Net-(LD7\u002C4-Pad2)*%
X185774700Y-132943600D03*
D13*
%TO.P,LD7\u002C4,1*%
%TO.N,MAIN_VBUS*%
X185774700Y-133843600D03*
%TD*%
D10*
%TO.P,LD7\u002C0,1*%
%TO.N,MAIN_VBUS*%
X193926460Y-49695100D03*
%TO.P,LD7\u002C0,6*%
%TO.N,GNDPWR*%
X192783460Y-46520100D03*
D11*
X192783460Y-47562100D03*
D12*
%TO.P,LD7\u002C0,8*%
%TO.N,N/C*%
X192783460Y-49382100D03*
D13*
%TO.P,LD7\u002C0,7*%
X191933460Y-49452100D03*
%TO.P,LD7\u002C0,4*%
%TO.N,Net-(LD6\u002C0-Pad3)*%
X191933460Y-47652100D03*
D14*
%TO.P,LD7\u002C0,5*%
%TO.N,Net-(LD6\u002C0-Pad2)*%
X191933460Y-48552100D03*
D13*
%TO.P,LD7\u002C0,3*%
%TO.N,Net-(LD7\u002C0-Pad3)*%
X193633460Y-47652100D03*
D14*
%TO.P,LD7\u002C0,2*%
%TO.N,Net-(LD7\u002C0-Pad2)*%
X193633460Y-48552100D03*
D13*
%TO.P,LD7\u002C0,1*%
%TO.N,MAIN_VBUS*%
X193633460Y-49452100D03*
%TD*%
D10*
%TO.P,LD6\u002C1,1*%
%TO.N,MAIN_VBUS*%
X142443200Y-75603100D03*
%TO.P,LD6\u002C1,6*%
%TO.N,GNDPWR*%
X141300200Y-72428100D03*
D11*
X141300200Y-73470100D03*
D12*
%TO.P,LD6\u002C1,8*%
%TO.N,N/C*%
X141300200Y-75290100D03*
D13*
%TO.P,LD6\u002C1,7*%
X140450200Y-75360100D03*
%TO.P,LD6\u002C1,4*%
%TO.N,Net-(LD5\u002C1-Pad3)*%
X140450200Y-73560100D03*
D14*
%TO.P,LD6\u002C1,5*%
%TO.N,Net-(LD5\u002C1-Pad2)*%
X140450200Y-74460100D03*
D13*
%TO.P,LD6\u002C1,3*%
%TO.N,Net-(LD6\u002C1-Pad3)*%
X142150200Y-73560100D03*
D14*
%TO.P,LD6\u002C1,2*%
%TO.N,Net-(LD6\u002C1-Pad2)*%
X142150200Y-74460100D03*
D13*
%TO.P,LD6\u002C1,1*%
%TO.N,MAIN_VBUS*%
X142150200Y-75360100D03*
%TD*%
D10*
%TO.P,LD6\u002C3,1*%
%TO.N,MAIN_VBUS*%
X157365700Y-114274600D03*
%TO.P,LD6\u002C3,6*%
%TO.N,GNDPWR*%
X156222700Y-111099600D03*
D11*
X156222700Y-112141600D03*
D12*
%TO.P,LD6\u002C3,8*%
%TO.N,N/C*%
X156222700Y-113961600D03*
D13*
%TO.P,LD6\u002C3,7*%
X155372700Y-114031600D03*
%TO.P,LD6\u002C3,4*%
%TO.N,Net-(LD5\u002C3-Pad3)*%
X155372700Y-112231600D03*
D14*
%TO.P,LD6\u002C3,5*%
%TO.N,Net-(LD5\u002C3-Pad2)*%
X155372700Y-113131600D03*
D13*
%TO.P,LD6\u002C3,3*%
%TO.N,Net-(LD6\u002C3-Pad3)*%
X157072700Y-112231600D03*
D14*
%TO.P,LD6\u002C3,2*%
%TO.N,Net-(LD6\u002C3-Pad2)*%
X157072700Y-113131600D03*
D13*
%TO.P,LD6\u002C3,1*%
%TO.N,MAIN_VBUS*%
X157072700Y-114031600D03*
%TD*%
D10*
%TO.P,LD6\u002C4,1*%
%TO.N,MAIN_VBUS*%
X166763700Y-134086600D03*
%TO.P,LD6\u002C4,6*%
%TO.N,GNDPWR*%
X165620700Y-130911600D03*
D11*
X165620700Y-131953600D03*
D12*
%TO.P,LD6\u002C4,8*%
%TO.N,N/C*%
X165620700Y-133773600D03*
D13*
%TO.P,LD6\u002C4,7*%
X164770700Y-133843600D03*
%TO.P,LD6\u002C4,4*%
%TO.N,Net-(LD5\u002C4-Pad3)*%
X164770700Y-132043600D03*
D14*
%TO.P,LD6\u002C4,5*%
%TO.N,Net-(LD5\u002C4-Pad2)*%
X164770700Y-132943600D03*
D13*
%TO.P,LD6\u002C4,3*%
%TO.N,Net-(LD6\u002C4-Pad3)*%
X166470700Y-132043600D03*
D14*
%TO.P,LD6\u002C4,2*%
%TO.N,Net-(LD6\u002C4-Pad2)*%
X166470700Y-132943600D03*
D13*
%TO.P,LD6\u002C4,1*%
%TO.N,MAIN_VBUS*%
X166470700Y-133843600D03*
%TD*%
D10*
%TO.P,LD6\u002C0,1*%
%TO.N,MAIN_VBUS*%
X174622460Y-49695100D03*
%TO.P,LD6\u002C0,6*%
%TO.N,GNDPWR*%
X173479460Y-46520100D03*
D11*
X173479460Y-47562100D03*
D12*
%TO.P,LD6\u002C0,8*%
%TO.N,N/C*%
X173479460Y-49382100D03*
D13*
%TO.P,LD6\u002C0,7*%
X172629460Y-49452100D03*
%TO.P,LD6\u002C0,4*%
%TO.N,Net-(LD5\u002C0-Pad3)*%
X172629460Y-47652100D03*
D14*
%TO.P,LD6\u002C0,5*%
%TO.N,Net-(LD5\u002C0-Pad2)*%
X172629460Y-48552100D03*
D13*
%TO.P,LD6\u002C0,3*%
%TO.N,Net-(LD6\u002C0-Pad3)*%
X174329460Y-47652100D03*
D14*
%TO.P,LD6\u002C0,2*%
%TO.N,Net-(LD6\u002C0-Pad2)*%
X174329460Y-48552100D03*
D13*
%TO.P,LD6\u002C0,1*%
%TO.N,MAIN_VBUS*%
X174329460Y-49452100D03*
%TD*%
D10*
%TO.P,LD6\u002C2,1*%
%TO.N,MAIN_VBUS*%
X152476200Y-94843600D03*
%TO.P,LD6\u002C2,6*%
%TO.N,GNDPWR*%
X151333200Y-91668600D03*
D11*
X151333200Y-92710600D03*
D12*
%TO.P,LD6\u002C2,8*%
%TO.N,N/C*%
X151333200Y-94530600D03*
D13*
%TO.P,LD6\u002C2,7*%
X150483200Y-94600600D03*
%TO.P,LD6\u002C2,4*%
%TO.N,Net-(LD5\u002C2-Pad3)*%
X150483200Y-92800600D03*
D14*
%TO.P,LD6\u002C2,5*%
%TO.N,Net-(LD5\u002C2-Pad2)*%
X150483200Y-93700600D03*
D13*
%TO.P,LD6\u002C2,3*%
%TO.N,Net-(LD6\u002C2-Pad3)*%
X152183200Y-92800600D03*
D14*
%TO.P,LD6\u002C2,2*%
%TO.N,Net-(LD6\u002C2-Pad2)*%
X152183200Y-93700600D03*
D13*
%TO.P,LD6\u002C2,1*%
%TO.N,MAIN_VBUS*%
X152183200Y-94600600D03*
%TD*%
D10*
%TO.P,LD5\u002C1,1*%
%TO.N,MAIN_VBUS*%
X123139200Y-75603100D03*
%TO.P,LD5\u002C1,6*%
%TO.N,GNDPWR*%
X121996200Y-72428100D03*
D11*
X121996200Y-73470100D03*
D12*
%TO.P,LD5\u002C1,8*%
%TO.N,N/C*%
X121996200Y-75290100D03*
D13*
%TO.P,LD5\u002C1,7*%
X121146200Y-75360100D03*
%TO.P,LD5\u002C1,4*%
%TO.N,Net-(LD4\u002C1-Pad3)*%
X121146200Y-73560100D03*
D14*
%TO.P,LD5\u002C1,5*%
%TO.N,Net-(LD4\u002C1-Pad2)*%
X121146200Y-74460100D03*
D13*
%TO.P,LD5\u002C1,3*%
%TO.N,Net-(LD5\u002C1-Pad3)*%
X122846200Y-73560100D03*
D14*
%TO.P,LD5\u002C1,2*%
%TO.N,Net-(LD5\u002C1-Pad2)*%
X122846200Y-74460100D03*
D13*
%TO.P,LD5\u002C1,1*%
%TO.N,MAIN_VBUS*%
X122846200Y-75360100D03*
%TD*%
D10*
%TO.P,LD5\u002C2,1*%
%TO.N,MAIN_VBUS*%
X133172200Y-94843600D03*
%TO.P,LD5\u002C2,6*%
%TO.N,GNDPWR*%
X132029200Y-91668600D03*
D11*
X132029200Y-92710600D03*
D12*
%TO.P,LD5\u002C2,8*%
%TO.N,N/C*%
X132029200Y-94530600D03*
D13*
%TO.P,LD5\u002C2,7*%
X131179200Y-94600600D03*
%TO.P,LD5\u002C2,4*%
%TO.N,Net-(LD4\u002C2-Pad3)*%
X131179200Y-92800600D03*
D14*
%TO.P,LD5\u002C2,5*%
%TO.N,Net-(LD4\u002C2-Pad2)*%
X131179200Y-93700600D03*
D13*
%TO.P,LD5\u002C2,3*%
%TO.N,Net-(LD5\u002C2-Pad3)*%
X132879200Y-92800600D03*
D14*
%TO.P,LD5\u002C2,2*%
%TO.N,Net-(LD5\u002C2-Pad2)*%
X132879200Y-93700600D03*
D13*
%TO.P,LD5\u002C2,1*%
%TO.N,MAIN_VBUS*%
X132879200Y-94600600D03*
%TD*%
D10*
%TO.P,LD5\u002C4,1*%
%TO.N,MAIN_VBUS*%
X147459700Y-134086600D03*
%TO.P,LD5\u002C4,6*%
%TO.N,GNDPWR*%
X146316700Y-130911600D03*
D11*
X146316700Y-131953600D03*
D12*
%TO.P,LD5\u002C4,8*%
%TO.N,N/C*%
X146316700Y-133773600D03*
D13*
%TO.P,LD5\u002C4,7*%
X145466700Y-133843600D03*
%TO.P,LD5\u002C4,4*%
%TO.N,Net-(LD4\u002C4-Pad3)*%
X145466700Y-132043600D03*
D14*
%TO.P,LD5\u002C4,5*%
%TO.N,Net-(LD4\u002C4-Pad2)*%
X145466700Y-132943600D03*
D13*
%TO.P,LD5\u002C4,3*%
%TO.N,Net-(LD5\u002C4-Pad3)*%
X147166700Y-132043600D03*
D14*
%TO.P,LD5\u002C4,2*%
%TO.N,Net-(LD5\u002C4-Pad2)*%
X147166700Y-132943600D03*
D13*
%TO.P,LD5\u002C4,1*%
%TO.N,MAIN_VBUS*%
X147166700Y-133843600D03*
%TD*%
D10*
%TO.P,LD5\u002C0,1*%
%TO.N,MAIN_VBUS*%
X155318460Y-49695100D03*
%TO.P,LD5\u002C0,6*%
%TO.N,GNDPWR*%
X154175460Y-46520100D03*
D11*
X154175460Y-47562100D03*
D12*
%TO.P,LD5\u002C0,8*%
%TO.N,N/C*%
X154175460Y-49382100D03*
D13*
%TO.P,LD5\u002C0,7*%
X153325460Y-49452100D03*
%TO.P,LD5\u002C0,4*%
%TO.N,Net-(LD4\u002C0-Pad3)*%
X153325460Y-47652100D03*
D14*
%TO.P,LD5\u002C0,5*%
%TO.N,Net-(LD4\u002C0-Pad2)*%
X153325460Y-48552100D03*
D13*
%TO.P,LD5\u002C0,3*%
%TO.N,Net-(LD5\u002C0-Pad3)*%
X155025460Y-47652100D03*
D14*
%TO.P,LD5\u002C0,2*%
%TO.N,Net-(LD5\u002C0-Pad2)*%
X155025460Y-48552100D03*
D13*
%TO.P,LD5\u002C0,1*%
%TO.N,MAIN_VBUS*%
X155025460Y-49452100D03*
%TD*%
D10*
%TO.P,LD5\u002C3,1*%
%TO.N,MAIN_VBUS*%
X138061700Y-114274600D03*
%TO.P,LD5\u002C3,6*%
%TO.N,GNDPWR*%
X136918700Y-111099600D03*
D11*
X136918700Y-112141600D03*
D12*
%TO.P,LD5\u002C3,8*%
%TO.N,N/C*%
X136918700Y-113961600D03*
D13*
%TO.P,LD5\u002C3,7*%
X136068700Y-114031600D03*
%TO.P,LD5\u002C3,4*%
%TO.N,Net-(LD4\u002C3-Pad3)*%
X136068700Y-112231600D03*
D14*
%TO.P,LD5\u002C3,5*%
%TO.N,Net-(LD4\u002C3-Pad2)*%
X136068700Y-113131600D03*
D13*
%TO.P,LD5\u002C3,3*%
%TO.N,Net-(LD5\u002C3-Pad3)*%
X137768700Y-112231600D03*
D14*
%TO.P,LD5\u002C3,2*%
%TO.N,Net-(LD5\u002C3-Pad2)*%
X137768700Y-113131600D03*
D13*
%TO.P,LD5\u002C3,1*%
%TO.N,MAIN_VBUS*%
X137768700Y-114031600D03*
%TD*%
D10*
%TO.P,LD4\u002C3,1*%
%TO.N,MAIN_VBUS*%
X118757700Y-114274600D03*
%TO.P,LD4\u002C3,6*%
%TO.N,GNDPWR*%
X117614700Y-111099600D03*
D11*
X117614700Y-112141600D03*
D12*
%TO.P,LD4\u002C3,8*%
%TO.N,N/C*%
X117614700Y-113961600D03*
D13*
%TO.P,LD4\u002C3,7*%
X116764700Y-114031600D03*
%TO.P,LD4\u002C3,4*%
%TO.N,Net-(LD3\u002C3-Pad3)*%
X116764700Y-112231600D03*
D14*
%TO.P,LD4\u002C3,5*%
%TO.N,Net-(LD3\u002C3-Pad2)*%
X116764700Y-113131600D03*
D13*
%TO.P,LD4\u002C3,3*%
%TO.N,Net-(LD4\u002C3-Pad3)*%
X118464700Y-112231600D03*
D14*
%TO.P,LD4\u002C3,2*%
%TO.N,Net-(LD4\u002C3-Pad2)*%
X118464700Y-113131600D03*
D13*
%TO.P,LD4\u002C3,1*%
%TO.N,MAIN_VBUS*%
X118464700Y-114031600D03*
%TD*%
D10*
%TO.P,LD4\u002C4,1*%
%TO.N,MAIN_VBUS*%
X128155700Y-134086600D03*
%TO.P,LD4\u002C4,6*%
%TO.N,GNDPWR*%
X127012700Y-130911600D03*
D11*
X127012700Y-131953600D03*
D12*
%TO.P,LD4\u002C4,8*%
%TO.N,N/C*%
X127012700Y-133773600D03*
D13*
%TO.P,LD4\u002C4,7*%
X126162700Y-133843600D03*
%TO.P,LD4\u002C4,4*%
%TO.N,Net-(LD3\u002C4-Pad3)*%
X126162700Y-132043600D03*
D14*
%TO.P,LD4\u002C4,5*%
%TO.N,Net-(LD3\u002C4-Pad2)*%
X126162700Y-132943600D03*
D13*
%TO.P,LD4\u002C4,3*%
%TO.N,Net-(LD4\u002C4-Pad3)*%
X127862700Y-132043600D03*
D14*
%TO.P,LD4\u002C4,2*%
%TO.N,Net-(LD4\u002C4-Pad2)*%
X127862700Y-132943600D03*
D13*
%TO.P,LD4\u002C4,1*%
%TO.N,MAIN_VBUS*%
X127862700Y-133843600D03*
%TD*%
D10*
%TO.P,LD4\u002C0,1*%
%TO.N,MAIN_VBUS*%
X123822460Y-49695100D03*
%TO.P,LD4\u002C0,6*%
%TO.N,GNDPWR*%
X122679460Y-46520100D03*
D11*
X122679460Y-47562100D03*
D12*
%TO.P,LD4\u002C0,8*%
%TO.N,N/C*%
X122679460Y-49382100D03*
D13*
%TO.P,LD4\u002C0,7*%
X121829460Y-49452100D03*
%TO.P,LD4\u002C0,4*%
%TO.N,Net-(LD3\u002C0-Pad3)*%
X121829460Y-47652100D03*
D14*
%TO.P,LD4\u002C0,5*%
%TO.N,Net-(LD3\u002C0-Pad2)*%
X121829460Y-48552100D03*
D13*
%TO.P,LD4\u002C0,3*%
%TO.N,Net-(LD4\u002C0-Pad3)*%
X123529460Y-47652100D03*
D14*
%TO.P,LD4\u002C0,2*%
%TO.N,Net-(LD4\u002C0-Pad2)*%
X123529460Y-48552100D03*
D13*
%TO.P,LD4\u002C0,1*%
%TO.N,MAIN_VBUS*%
X123529460Y-49452100D03*
%TD*%
D10*
%TO.P,LD4\u002C2,1*%
%TO.N,MAIN_VBUS*%
X113868200Y-94843600D03*
%TO.P,LD4\u002C2,6*%
%TO.N,GNDPWR*%
X112725200Y-91668600D03*
D11*
X112725200Y-92710600D03*
D12*
%TO.P,LD4\u002C2,8*%
%TO.N,N/C*%
X112725200Y-94530600D03*
D13*
%TO.P,LD4\u002C2,7*%
X111875200Y-94600600D03*
%TO.P,LD4\u002C2,4*%
%TO.N,Net-(LD3\u002C2-Pad3)*%
X111875200Y-92800600D03*
D14*
%TO.P,LD4\u002C2,5*%
%TO.N,Net-(LD3\u002C2-Pad2)*%
X111875200Y-93700600D03*
D13*
%TO.P,LD4\u002C2,3*%
%TO.N,Net-(LD4\u002C2-Pad3)*%
X113575200Y-92800600D03*
D14*
%TO.P,LD4\u002C2,2*%
%TO.N,Net-(LD4\u002C2-Pad2)*%
X113575200Y-93700600D03*
D13*
%TO.P,LD4\u002C2,1*%
%TO.N,MAIN_VBUS*%
X113575200Y-94600600D03*
%TD*%
D10*
%TO.P,LD4\u002C1,1*%
%TO.N,MAIN_VBUS*%
X103835200Y-75603100D03*
%TO.P,LD4\u002C1,6*%
%TO.N,GNDPWR*%
X102692200Y-72428100D03*
D11*
X102692200Y-73470100D03*
D12*
%TO.P,LD4\u002C1,8*%
%TO.N,N/C*%
X102692200Y-75290100D03*
D13*
%TO.P,LD4\u002C1,7*%
X101842200Y-75360100D03*
%TO.P,LD4\u002C1,4*%
%TO.N,Net-(LD3\u002C1-Pad3)*%
X101842200Y-73560100D03*
D14*
%TO.P,LD4\u002C1,5*%
%TO.N,Net-(LD3\u002C1-Pad2)*%
X101842200Y-74460100D03*
D13*
%TO.P,LD4\u002C1,3*%
%TO.N,Net-(LD4\u002C1-Pad3)*%
X103542200Y-73560100D03*
D14*
%TO.P,LD4\u002C1,2*%
%TO.N,Net-(LD4\u002C1-Pad2)*%
X103542200Y-74460100D03*
D13*
%TO.P,LD4\u002C1,1*%
%TO.N,MAIN_VBUS*%
X103542200Y-75360100D03*
%TD*%
D10*
%TO.P,LD3\u002C0,1*%
%TO.N,MAIN_VBUS*%
X104518460Y-49695100D03*
%TO.P,LD3\u002C0,6*%
%TO.N,GNDPWR*%
X103375460Y-46520100D03*
D11*
X103375460Y-47562100D03*
D12*
%TO.P,LD3\u002C0,8*%
%TO.N,N/C*%
X103375460Y-49382100D03*
D13*
%TO.P,LD3\u002C0,7*%
X102525460Y-49452100D03*
%TO.P,LD3\u002C0,4*%
%TO.N,Net-(LD2\u002C0-Pad3)*%
X102525460Y-47652100D03*
D14*
%TO.P,LD3\u002C0,5*%
%TO.N,Net-(LD2\u002C0-Pad2)*%
X102525460Y-48552100D03*
D13*
%TO.P,LD3\u002C0,3*%
%TO.N,Net-(LD3\u002C0-Pad3)*%
X104225460Y-47652100D03*
D14*
%TO.P,LD3\u002C0,2*%
%TO.N,Net-(LD3\u002C0-Pad2)*%
X104225460Y-48552100D03*
D13*
%TO.P,LD3\u002C0,1*%
%TO.N,MAIN_VBUS*%
X104225460Y-49452100D03*
%TD*%
D10*
%TO.P,LD3\u002C1,1*%
%TO.N,MAIN_VBUS*%
X84531200Y-75603100D03*
%TO.P,LD3\u002C1,6*%
%TO.N,GNDPWR*%
X83388200Y-72428100D03*
D11*
X83388200Y-73470100D03*
D12*
%TO.P,LD3\u002C1,8*%
%TO.N,N/C*%
X83388200Y-75290100D03*
D13*
%TO.P,LD3\u002C1,7*%
X82538200Y-75360100D03*
%TO.P,LD3\u002C1,4*%
%TO.N,Net-(LD2\u002C1-Pad3)*%
X82538200Y-73560100D03*
D14*
%TO.P,LD3\u002C1,5*%
%TO.N,Net-(LD2\u002C1-Pad2)*%
X82538200Y-74460100D03*
D13*
%TO.P,LD3\u002C1,3*%
%TO.N,Net-(LD3\u002C1-Pad3)*%
X84238200Y-73560100D03*
D14*
%TO.P,LD3\u002C1,2*%
%TO.N,Net-(LD3\u002C1-Pad2)*%
X84238200Y-74460100D03*
D13*
%TO.P,LD3\u002C1,1*%
%TO.N,MAIN_VBUS*%
X84238200Y-75360100D03*
%TD*%
D10*
%TO.P,LD3\u002C2,1*%
%TO.N,MAIN_VBUS*%
X94564200Y-94843600D03*
%TO.P,LD3\u002C2,6*%
%TO.N,GNDPWR*%
X93421200Y-91668600D03*
D11*
X93421200Y-92710600D03*
D12*
%TO.P,LD3\u002C2,8*%
%TO.N,N/C*%
X93421200Y-94530600D03*
D13*
%TO.P,LD3\u002C2,7*%
X92571200Y-94600600D03*
%TO.P,LD3\u002C2,4*%
%TO.N,Net-(LD2\u002C2-Pad3)*%
X92571200Y-92800600D03*
D14*
%TO.P,LD3\u002C2,5*%
%TO.N,Net-(LD2\u002C2-Pad2)*%
X92571200Y-93700600D03*
D13*
%TO.P,LD3\u002C2,3*%
%TO.N,Net-(LD3\u002C2-Pad3)*%
X94271200Y-92800600D03*
D14*
%TO.P,LD3\u002C2,2*%
%TO.N,Net-(LD3\u002C2-Pad2)*%
X94271200Y-93700600D03*
D13*
%TO.P,LD3\u002C2,1*%
%TO.N,MAIN_VBUS*%
X94271200Y-94600600D03*
%TD*%
D10*
%TO.P,LD3\u002C4,1*%
%TO.N,MAIN_VBUS*%
X108851700Y-134086600D03*
%TO.P,LD3\u002C4,6*%
%TO.N,GNDPWR*%
X107708700Y-130911600D03*
D11*
X107708700Y-131953600D03*
D12*
%TO.P,LD3\u002C4,8*%
%TO.N,N/C*%
X107708700Y-133773600D03*
D13*
%TO.P,LD3\u002C4,7*%
X106858700Y-133843600D03*
%TO.P,LD3\u002C4,4*%
%TO.N,Net-(LD2\u002C4-Pad3)*%
X106858700Y-132043600D03*
D14*
%TO.P,LD3\u002C4,5*%
%TO.N,Net-(LD2\u002C4-Pad2)*%
X106858700Y-132943600D03*
D13*
%TO.P,LD3\u002C4,3*%
%TO.N,Net-(LD3\u002C4-Pad3)*%
X108558700Y-132043600D03*
D14*
%TO.P,LD3\u002C4,2*%
%TO.N,Net-(LD3\u002C4-Pad2)*%
X108558700Y-132943600D03*
D13*
%TO.P,LD3\u002C4,1*%
%TO.N,MAIN_VBUS*%
X108558700Y-133843600D03*
%TD*%
D10*
%TO.P,LD3\u002C5,1*%
%TO.N,MAIN_VBUS*%
X150571200Y-153517600D03*
%TO.P,LD3\u002C5,6*%
%TO.N,GNDPWR*%
X149428200Y-150342600D03*
D11*
X149428200Y-151384600D03*
D12*
%TO.P,LD3\u002C5,8*%
%TO.N,N/C*%
X149428200Y-153204600D03*
D13*
%TO.P,LD3\u002C5,7*%
X148578200Y-153274600D03*
%TO.P,LD3\u002C5,4*%
%TO.N,Net-(LD3\u002C5\u002C0-Pad3)*%
X148578200Y-151474600D03*
D14*
%TO.P,LD3\u002C5,5*%
%TO.N,Net-(LD3\u002C5\u002C0-Pad2)*%
X148578200Y-152374600D03*
D13*
%TO.P,LD3\u002C5,3*%
%TO.N,Net-(LD3\u002C5\u002C1-Pad4)*%
X150278200Y-151474600D03*
D14*
%TO.P,LD3\u002C5,2*%
%TO.N,Net-(LD3\u002C5\u002C1-Pad5)*%
X150278200Y-152374600D03*
D13*
%TO.P,LD3\u002C5,1*%
%TO.N,MAIN_VBUS*%
X150278200Y-153274600D03*
%TD*%
D10*
%TO.P,LD3\u002C3,1*%
%TO.N,MAIN_VBUS*%
X99453700Y-114274600D03*
%TO.P,LD3\u002C3,6*%
%TO.N,GNDPWR*%
X98310700Y-111099600D03*
D11*
X98310700Y-112141600D03*
D12*
%TO.P,LD3\u002C3,8*%
%TO.N,N/C*%
X98310700Y-113961600D03*
D13*
%TO.P,LD3\u002C3,7*%
X97460700Y-114031600D03*
%TO.P,LD3\u002C3,4*%
%TO.N,Net-(LD2\u002C3-Pad3)*%
X97460700Y-112231600D03*
D14*
%TO.P,LD3\u002C3,5*%
%TO.N,Net-(LD2\u002C3-Pad2)*%
X97460700Y-113131600D03*
D13*
%TO.P,LD3\u002C3,3*%
%TO.N,Net-(LD3\u002C3-Pad3)*%
X99160700Y-112231600D03*
D14*
%TO.P,LD3\u002C3,2*%
%TO.N,Net-(LD3\u002C3-Pad2)*%
X99160700Y-113131600D03*
D13*
%TO.P,LD3\u002C3,1*%
%TO.N,MAIN_VBUS*%
X99160700Y-114031600D03*
%TD*%
D10*
%TO.P,LD2\u002C3,1*%
%TO.N,MAIN_VBUS*%
X80149700Y-114274600D03*
%TO.P,LD2\u002C3,6*%
%TO.N,GNDPWR*%
X79006700Y-111099600D03*
D11*
X79006700Y-112141600D03*
D12*
%TO.P,LD2\u002C3,8*%
%TO.N,N/C*%
X79006700Y-113961600D03*
D13*
%TO.P,LD2\u002C3,7*%
X78156700Y-114031600D03*
%TO.P,LD2\u002C3,4*%
%TO.N,Net-(LD1\u002C3-Pad3)*%
X78156700Y-112231600D03*
D14*
%TO.P,LD2\u002C3,5*%
%TO.N,Net-(LD1\u002C3-Pad2)*%
X78156700Y-113131600D03*
D13*
%TO.P,LD2\u002C3,3*%
%TO.N,Net-(LD2\u002C3-Pad3)*%
X79856700Y-112231600D03*
D14*
%TO.P,LD2\u002C3,2*%
%TO.N,Net-(LD2\u002C3-Pad2)*%
X79856700Y-113131600D03*
D13*
%TO.P,LD2\u002C3,1*%
%TO.N,MAIN_VBUS*%
X79856700Y-114031600D03*
%TD*%
D10*
%TO.P,LD2\u002C5,1*%
%TO.N,MAIN_VBUS*%
X78689200Y-153517600D03*
%TO.P,LD2\u002C5,6*%
%TO.N,GNDPWR*%
X77546200Y-150342600D03*
D11*
X77546200Y-151384600D03*
D12*
%TO.P,LD2\u002C5,8*%
%TO.N,N/C*%
X77546200Y-153204600D03*
D13*
%TO.P,LD2\u002C5,7*%
X76696200Y-153274600D03*
%TO.P,LD2\u002C5,4*%
%TO.N,Net-(LD1\u002C5-Pad3)*%
X76696200Y-151474600D03*
D14*
%TO.P,LD2\u002C5,5*%
%TO.N,Net-(LD1\u002C5-Pad2)*%
X76696200Y-152374600D03*
D13*
%TO.P,LD2\u002C5,3*%
%TO.N,Net-(LD2\u002C5-Pad3)*%
X78396200Y-151474600D03*
D14*
%TO.P,LD2\u002C5,2*%
%TO.N,Net-(LD2\u002C5-Pad2)*%
X78396200Y-152374600D03*
D13*
%TO.P,LD2\u002C5,1*%
%TO.N,MAIN_VBUS*%
X78396200Y-153274600D03*
%TD*%
D10*
%TO.P,LD2\u002C4,1*%
%TO.N,MAIN_VBUS*%
X89407700Y-134086600D03*
%TO.P,LD2\u002C4,6*%
%TO.N,GNDPWR*%
X88264700Y-130911600D03*
D11*
X88264700Y-131953600D03*
D12*
%TO.P,LD2\u002C4,8*%
%TO.N,N/C*%
X88264700Y-133773600D03*
D13*
%TO.P,LD2\u002C4,7*%
X87414700Y-133843600D03*
%TO.P,LD2\u002C4,4*%
%TO.N,Net-(LD1\u002C4-Pad3)*%
X87414700Y-132043600D03*
D14*
%TO.P,LD2\u002C4,5*%
%TO.N,Net-(LD1\u002C4-Pad2)*%
X87414700Y-132943600D03*
D13*
%TO.P,LD2\u002C4,3*%
%TO.N,Net-(LD2\u002C4-Pad3)*%
X89114700Y-132043600D03*
D14*
%TO.P,LD2\u002C4,2*%
%TO.N,Net-(LD2\u002C4-Pad2)*%
X89114700Y-132943600D03*
D13*
%TO.P,LD2\u002C4,1*%
%TO.N,MAIN_VBUS*%
X89114700Y-133843600D03*
%TD*%
D10*
%TO.P,LD2\u002C0,1*%
%TO.N,MAIN_VBUS*%
X85214460Y-49695100D03*
%TO.P,LD2\u002C0,6*%
%TO.N,GNDPWR*%
X84071460Y-46520100D03*
D11*
X84071460Y-47562100D03*
D12*
%TO.P,LD2\u002C0,8*%
%TO.N,N/C*%
X84071460Y-49382100D03*
D13*
%TO.P,LD2\u002C0,7*%
X83221460Y-49452100D03*
%TO.P,LD2\u002C0,4*%
%TO.N,Net-(LD1\u002C0-Pad3)*%
X83221460Y-47652100D03*
D14*
%TO.P,LD2\u002C0,5*%
%TO.N,Net-(LD1\u002C0-Pad2)*%
X83221460Y-48552100D03*
D13*
%TO.P,LD2\u002C0,3*%
%TO.N,Net-(LD2\u002C0-Pad3)*%
X84921460Y-47652100D03*
D14*
%TO.P,LD2\u002C0,2*%
%TO.N,Net-(LD2\u002C0-Pad2)*%
X84921460Y-48552100D03*
D13*
%TO.P,LD2\u002C0,1*%
%TO.N,MAIN_VBUS*%
X84921460Y-49452100D03*
%TD*%
D10*
%TO.P,LD2\u002C1,1*%
%TO.N,MAIN_VBUS*%
X65735200Y-75603100D03*
%TO.P,LD2\u002C1,6*%
%TO.N,GNDPWR*%
X64592200Y-72428100D03*
D11*
X64592200Y-73470100D03*
D12*
%TO.P,LD2\u002C1,8*%
%TO.N,N/C*%
X64592200Y-75290100D03*
D13*
%TO.P,LD2\u002C1,7*%
X63742200Y-75360100D03*
%TO.P,LD2\u002C1,4*%
%TO.N,Net-(LD1\u002C1-Pad3)*%
X63742200Y-73560100D03*
D14*
%TO.P,LD2\u002C1,5*%
%TO.N,Net-(LD1\u002C1-Pad2)*%
X63742200Y-74460100D03*
D13*
%TO.P,LD2\u002C1,3*%
%TO.N,Net-(LD2\u002C1-Pad3)*%
X65442200Y-73560100D03*
D14*
%TO.P,LD2\u002C1,2*%
%TO.N,Net-(LD2\u002C1-Pad2)*%
X65442200Y-74460100D03*
D13*
%TO.P,LD2\u002C1,1*%
%TO.N,MAIN_VBUS*%
X65442200Y-75360100D03*
%TD*%
D10*
%TO.P,LD2\u002C2,1*%
%TO.N,MAIN_VBUS*%
X75260200Y-94843600D03*
%TO.P,LD2\u002C2,6*%
%TO.N,GNDPWR*%
X74117200Y-91668600D03*
D11*
X74117200Y-92710600D03*
D12*
%TO.P,LD2\u002C2,8*%
%TO.N,N/C*%
X74117200Y-94530600D03*
D13*
%TO.P,LD2\u002C2,7*%
X73267200Y-94600600D03*
%TO.P,LD2\u002C2,4*%
%TO.N,Net-(LD1\u002C2-Pad3)*%
X73267200Y-92800600D03*
D14*
%TO.P,LD2\u002C2,5*%
%TO.N,Net-(LD1\u002C2-Pad2)*%
X73267200Y-93700600D03*
D13*
%TO.P,LD2\u002C2,3*%
%TO.N,Net-(LD2\u002C2-Pad3)*%
X74967200Y-92800600D03*
D14*
%TO.P,LD2\u002C2,2*%
%TO.N,Net-(LD2\u002C2-Pad2)*%
X74967200Y-93700600D03*
D13*
%TO.P,LD2\u002C2,1*%
%TO.N,MAIN_VBUS*%
X74967200Y-94600600D03*
%TD*%
D10*
%TO.P,LD1\u002C0,1*%
%TO.N,MAIN_VBUS*%
X65910460Y-49695100D03*
%TO.P,LD1\u002C0,6*%
%TO.N,GNDPWR*%
X64767460Y-46520100D03*
D11*
X64767460Y-47562100D03*
D12*
%TO.P,LD1\u002C0,8*%
%TO.N,N/C*%
X64767460Y-49382100D03*
D13*
%TO.P,LD1\u002C0,7*%
X63917460Y-49452100D03*
%TO.P,LD1\u002C0,4*%
%TO.N,Net-(LD0\u002C0-Pad3)*%
X63917460Y-47652100D03*
D14*
%TO.P,LD1\u002C0,5*%
%TO.N,Net-(LD0\u002C0-Pad2)*%
X63917460Y-48552100D03*
D13*
%TO.P,LD1\u002C0,3*%
%TO.N,Net-(LD1\u002C0-Pad3)*%
X65617460Y-47652100D03*
D14*
%TO.P,LD1\u002C0,2*%
%TO.N,Net-(LD1\u002C0-Pad2)*%
X65617460Y-48552100D03*
D13*
%TO.P,LD1\u002C0,1*%
%TO.N,MAIN_VBUS*%
X65617460Y-49452100D03*
%TD*%
D10*
%TO.P,LD1\u002C4,1*%
%TO.N,MAIN_VBUS*%
X70243700Y-134086600D03*
%TO.P,LD1\u002C4,6*%
%TO.N,GNDPWR*%
X69100700Y-130911600D03*
D11*
X69100700Y-131953600D03*
D12*
%TO.P,LD1\u002C4,8*%
%TO.N,N/C*%
X69100700Y-133773600D03*
D13*
%TO.P,LD1\u002C4,7*%
X68250700Y-133843600D03*
%TO.P,LD1\u002C4,4*%
%TO.N,Net-(LD0\u002C4-Pad3)*%
X68250700Y-132043600D03*
D14*
%TO.P,LD1\u002C4,5*%
%TO.N,Net-(LD0\u002C4-Pad2)*%
X68250700Y-132943600D03*
D13*
%TO.P,LD1\u002C4,3*%
%TO.N,Net-(LD1\u002C4-Pad3)*%
X69950700Y-132043600D03*
D14*
%TO.P,LD1\u002C4,2*%
%TO.N,Net-(LD1\u002C4-Pad2)*%
X69950700Y-132943600D03*
D13*
%TO.P,LD1\u002C4,1*%
%TO.N,MAIN_VBUS*%
X69950700Y-133843600D03*
%TD*%
D10*
%TO.P,LD1\u002C1,1*%
%TO.N,MAIN_VBUS*%
X46532800Y-75615800D03*
%TO.P,LD1\u002C1,6*%
%TO.N,GNDPWR*%
X45389800Y-72440800D03*
D11*
X45389800Y-73482800D03*
D12*
%TO.P,LD1\u002C1,8*%
%TO.N,N/C*%
X45389800Y-75302800D03*
D13*
%TO.P,LD1\u002C1,7*%
X44539800Y-75372800D03*
%TO.P,LD1\u002C1,4*%
%TO.N,Net-(LD0\u002C1-Pad3)*%
X44539800Y-73572800D03*
D14*
%TO.P,LD1\u002C1,5*%
%TO.N,Net-(LD0\u002C1-Pad2)*%
X44539800Y-74472800D03*
D13*
%TO.P,LD1\u002C1,3*%
%TO.N,Net-(LD1\u002C1-Pad3)*%
X46239800Y-73572800D03*
D14*
%TO.P,LD1\u002C1,2*%
%TO.N,Net-(LD1\u002C1-Pad2)*%
X46239800Y-74472800D03*
D13*
%TO.P,LD1\u002C1,1*%
%TO.N,MAIN_VBUS*%
X46239800Y-75372800D03*
%TD*%
D10*
%TO.P,LD1\u002C3,1*%
%TO.N,MAIN_VBUS*%
X60845700Y-114274600D03*
%TO.P,LD1\u002C3,6*%
%TO.N,GNDPWR*%
X59702700Y-111099600D03*
D11*
X59702700Y-112141600D03*
D12*
%TO.P,LD1\u002C3,8*%
%TO.N,N/C*%
X59702700Y-113961600D03*
D13*
%TO.P,LD1\u002C3,7*%
X58852700Y-114031600D03*
%TO.P,LD1\u002C3,4*%
%TO.N,Net-(LD0\u002C3-Pad3)*%
X58852700Y-112231600D03*
D14*
%TO.P,LD1\u002C3,5*%
%TO.N,Net-(LD0\u002C3-Pad2)*%
X58852700Y-113131600D03*
D13*
%TO.P,LD1\u002C3,3*%
%TO.N,Net-(LD1\u002C3-Pad3)*%
X60552700Y-112231600D03*
D14*
%TO.P,LD1\u002C3,2*%
%TO.N,Net-(LD1\u002C3-Pad2)*%
X60552700Y-113131600D03*
D13*
%TO.P,LD1\u002C3,1*%
%TO.N,MAIN_VBUS*%
X60552700Y-114031600D03*
%TD*%
D10*
%TO.P,LD1\u002C5,1*%
%TO.N,MAIN_VBUS*%
X54305200Y-153517600D03*
%TO.P,LD1\u002C5,6*%
%TO.N,GNDPWR*%
X53162200Y-150342600D03*
D11*
X53162200Y-151384600D03*
D12*
%TO.P,LD1\u002C5,8*%
%TO.N,N/C*%
X53162200Y-153204600D03*
D13*
%TO.P,LD1\u002C5,7*%
X52312200Y-153274600D03*
%TO.P,LD1\u002C5,4*%
%TO.N,Net-(LD0\u002C5-Pad3)*%
X52312200Y-151474600D03*
D14*
%TO.P,LD1\u002C5,5*%
%TO.N,Net-(LD0\u002C5-Pad2)*%
X52312200Y-152374600D03*
D13*
%TO.P,LD1\u002C5,3*%
%TO.N,Net-(LD1\u002C5-Pad3)*%
X54012200Y-151474600D03*
D14*
%TO.P,LD1\u002C5,2*%
%TO.N,Net-(LD1\u002C5-Pad2)*%
X54012200Y-152374600D03*
D13*
%TO.P,LD1\u002C5,1*%
%TO.N,MAIN_VBUS*%
X54012200Y-153274600D03*
%TD*%
D10*
%TO.P,LD1\u002C2,1*%
%TO.N,MAIN_VBUS*%
X55956200Y-94843600D03*
%TO.P,LD1\u002C2,6*%
%TO.N,GNDPWR*%
X54813200Y-91668600D03*
D11*
X54813200Y-92710600D03*
D12*
%TO.P,LD1\u002C2,8*%
%TO.N,N/C*%
X54813200Y-94530600D03*
D13*
%TO.P,LD1\u002C2,7*%
X53963200Y-94600600D03*
%TO.P,LD1\u002C2,4*%
%TO.N,Net-(LD0\u002C2-Pad3)*%
X53963200Y-92800600D03*
D14*
%TO.P,LD1\u002C2,5*%
%TO.N,Net-(LD0\u002C2-Pad2)*%
X53963200Y-93700600D03*
D13*
%TO.P,LD1\u002C2,3*%
%TO.N,Net-(LD1\u002C2-Pad3)*%
X55663200Y-92800600D03*
D14*
%TO.P,LD1\u002C2,2*%
%TO.N,Net-(LD1\u002C2-Pad2)*%
X55663200Y-93700600D03*
D13*
%TO.P,LD1\u002C2,1*%
%TO.N,MAIN_VBUS*%
X55663200Y-94600600D03*
%TD*%
D10*
%TO.P,LD0\u002C2,1*%
%TO.N,MAIN_VBUS*%
X32029400Y-94818200D03*
%TO.P,LD0\u002C2,6*%
%TO.N,GNDPWR*%
X30886400Y-91643200D03*
D11*
X30886400Y-92685200D03*
D12*
%TO.P,LD0\u002C2,8*%
%TO.N,N/C*%
X30886400Y-94505200D03*
D13*
%TO.P,LD0\u002C2,7*%
X30036400Y-94575200D03*
%TO.P,LD0\u002C2,4*%
%TO.N,Net-(LD0\u002C2-Pad4)*%
X30036400Y-92775200D03*
D14*
%TO.P,LD0\u002C2,5*%
%TO.N,Net-(LD0\u002C2-Pad5)*%
X30036400Y-93675200D03*
D13*
%TO.P,LD0\u002C2,3*%
%TO.N,Net-(LD0\u002C2-Pad3)*%
X31736400Y-92775200D03*
D14*
%TO.P,LD0\u002C2,2*%
%TO.N,Net-(LD0\u002C2-Pad2)*%
X31736400Y-93675200D03*
D13*
%TO.P,LD0\u002C2,1*%
%TO.N,MAIN_VBUS*%
X31736400Y-94575200D03*
%TD*%
D10*
%TO.P,LD0\u002C1,1*%
%TO.N,MAIN_VBUS*%
X27317700Y-75615800D03*
%TO.P,LD0\u002C1,6*%
%TO.N,GNDPWR*%
X26174700Y-72440800D03*
D11*
X26174700Y-73482800D03*
D12*
%TO.P,LD0\u002C1,8*%
%TO.N,N/C*%
X26174700Y-75302800D03*
D13*
%TO.P,LD0\u002C1,7*%
X25324700Y-75372800D03*
%TO.P,LD0\u002C1,4*%
%TO.N,Net-(LD0\u002C1-Pad4)*%
X25324700Y-73572800D03*
D14*
%TO.P,LD0\u002C1,5*%
%TO.N,Net-(LD0\u002C1-Pad5)*%
X25324700Y-74472800D03*
D13*
%TO.P,LD0\u002C1,3*%
%TO.N,Net-(LD0\u002C1-Pad3)*%
X27024700Y-73572800D03*
D14*
%TO.P,LD0\u002C1,2*%
%TO.N,Net-(LD0\u002C1-Pad2)*%
X27024700Y-74472800D03*
D13*
%TO.P,LD0\u002C1,1*%
%TO.N,MAIN_VBUS*%
X27024700Y-75372800D03*
%TD*%
D10*
%TO.P,LD0\u002C5,1*%
%TO.N,MAIN_VBUS*%
X29730700Y-153466800D03*
%TO.P,LD0\u002C5,6*%
%TO.N,GNDPWR*%
X28587700Y-150291800D03*
D11*
X28587700Y-151333800D03*
D12*
%TO.P,LD0\u002C5,8*%
%TO.N,N/C*%
X28587700Y-153153800D03*
D13*
%TO.P,LD0\u002C5,7*%
X27737700Y-153223800D03*
%TO.P,LD0\u002C5,4*%
%TO.N,Net-(LD0\u002C5-Pad4)*%
X27737700Y-151423800D03*
D14*
%TO.P,LD0\u002C5,5*%
%TO.N,Net-(LD0\u002C5-Pad5)*%
X27737700Y-152323800D03*
D13*
%TO.P,LD0\u002C5,3*%
%TO.N,Net-(LD0\u002C5-Pad3)*%
X29437700Y-151423800D03*
D14*
%TO.P,LD0\u002C5,2*%
%TO.N,Net-(LD0\u002C5-Pad2)*%
X29437700Y-152323800D03*
D13*
%TO.P,LD0\u002C5,1*%
%TO.N,MAIN_VBUS*%
X29437700Y-153223800D03*
%TD*%
D10*
%TO.P,LD0\u002C3,1*%
%TO.N,MAIN_VBUS*%
X34366200Y-114350800D03*
%TO.P,LD0\u002C3,6*%
%TO.N,GNDPWR*%
X33223200Y-111175800D03*
D11*
X33223200Y-112217800D03*
D12*
%TO.P,LD0\u002C3,8*%
%TO.N,N/C*%
X33223200Y-114037800D03*
D13*
%TO.P,LD0\u002C3,7*%
X32373200Y-114107800D03*
%TO.P,LD0\u002C3,4*%
%TO.N,Net-(LD0\u002C3-Pad4)*%
X32373200Y-112307800D03*
D14*
%TO.P,LD0\u002C3,5*%
%TO.N,Net-(LD0\u002C3-Pad5)*%
X32373200Y-113207800D03*
D13*
%TO.P,LD0\u002C3,3*%
%TO.N,Net-(LD0\u002C3-Pad3)*%
X34073200Y-112307800D03*
D14*
%TO.P,LD0\u002C3,2*%
%TO.N,Net-(LD0\u002C3-Pad2)*%
X34073200Y-113207800D03*
D13*
%TO.P,LD0\u002C3,1*%
%TO.N,MAIN_VBUS*%
X34073200Y-114107800D03*
%TD*%
D10*
%TO.P,LD0\u002C4,1*%
%TO.N,MAIN_VBUS*%
X39128700Y-134086600D03*
%TO.P,LD0\u002C4,6*%
%TO.N,GNDPWR*%
X37985700Y-130911600D03*
D11*
X37985700Y-131953600D03*
D12*
%TO.P,LD0\u002C4,8*%
%TO.N,N/C*%
X37985700Y-133773600D03*
D13*
%TO.P,LD0\u002C4,7*%
X37135700Y-133843600D03*
%TO.P,LD0\u002C4,4*%
%TO.N,Net-(LD0\u002C4-Pad4)*%
X37135700Y-132043600D03*
D14*
%TO.P,LD0\u002C4,5*%
%TO.N,Net-(LD0\u002C4-Pad5)*%
X37135700Y-132943600D03*
D13*
%TO.P,LD0\u002C4,3*%
%TO.N,Net-(LD0\u002C4-Pad3)*%
X38835700Y-132043600D03*
D14*
%TO.P,LD0\u002C4,2*%
%TO.N,Net-(LD0\u002C4-Pad2)*%
X38835700Y-132943600D03*
D13*
%TO.P,LD0\u002C4,1*%
%TO.N,MAIN_VBUS*%
X38835700Y-133843600D03*
%TD*%
D15*
%TO.P,D0\u002C3,2*%
%TO.N,Net-(D0\u002C3-Pad2)*%
X25603200Y-125235800D03*
D16*
%TO.P,D0\u002C3,1*%
%TO.N,KEY_ROW3*%
X25603200Y-117435800D03*
%TD*%
D15*
%TO.P,D0\u002C5,2*%
%TO.N,Net-(D0\u002C5-Pad2)*%
X20967700Y-164351800D03*
D16*
%TO.P,D0\u002C5,1*%
%TO.N,KEY_ROW5*%
X20967700Y-156551800D03*
%TD*%
D15*
%TO.P,D0\u002C4,2*%
%TO.N,Net-(D0\u002C4-Pad2)*%
X30365700Y-144984300D03*
D16*
%TO.P,D0\u002C4,1*%
%TO.N,KEY_ROW4*%
X30365700Y-137184300D03*
%TD*%
D15*
%TO.P,D0\u002C0,2*%
%TO.N,Net-(D0\u002C0-Pad2)*%
X18618200Y-60656300D03*
D16*
%TO.P,D0\u002C0,1*%
%TO.N,KEY_ROW0*%
X18618200Y-52856300D03*
%TD*%
D15*
%TO.P,D0\u002C2,2*%
%TO.N,Net-(D0\u002C2-Pad2)*%
X23063200Y-105677800D03*
D16*
%TO.P,D0\u002C2,1*%
%TO.N,KEY_ROW2*%
X23063200Y-97877800D03*
%TD*%
D15*
%TO.P,D0\u002C1,2*%
%TO.N,Net-(D0\u002C1-Pad2)*%
X18554700Y-86500800D03*
D16*
%TO.P,D0\u002C1,1*%
%TO.N,KEY_ROW1*%
X18554700Y-78700800D03*
%TD*%
D15*
%TO.P,D1\u002C3,2*%
%TO.N,Net-(D1\u002C3-Pad2)*%
X51892200Y-125108800D03*
D16*
%TO.P,D1\u002C3,1*%
%TO.N,KEY_ROW3*%
X51892200Y-117308800D03*
%TD*%
D15*
%TO.P,D1\u002C0,2*%
%TO.N,Net-(D1\u002C0-Pad2)*%
X56766460Y-60707100D03*
D16*
%TO.P,D1\u002C0,1*%
%TO.N,KEY_ROW0*%
X56766460Y-52907100D03*
%TD*%
D15*
%TO.P,D1\u002C4,2*%
%TO.N,Net-(D1\u002C4-Pad2)*%
X61290200Y-144920800D03*
D16*
%TO.P,D1\u002C4,1*%
%TO.N,KEY_ROW4*%
X61290200Y-137120800D03*
%TD*%
D15*
%TO.P,D1\u002C5,2*%
%TO.N,Net-(D1\u002C5-Pad2)*%
X45351700Y-164351800D03*
D16*
%TO.P,D1\u002C5,1*%
%TO.N,KEY_ROW5*%
X45351700Y-156551800D03*
%TD*%
D15*
%TO.P,D1\u002C1,2*%
%TO.N,Net-(D1\u002C1-Pad2)*%
X37858700Y-86500800D03*
D16*
%TO.P,D1\u002C1,1*%
%TO.N,KEY_ROW1*%
X37858700Y-78700800D03*
%TD*%
D15*
%TO.P,D1\u002C2,2*%
%TO.N,Net-(D1\u002C2-Pad2)*%
X47002700Y-105677800D03*
D16*
%TO.P,D1\u002C2,1*%
%TO.N,KEY_ROW2*%
X47002700Y-97877800D03*
%TD*%
D15*
%TO.P,D2\u002C4,2*%
%TO.N,Net-(D2\u002C4-Pad2)*%
X80594200Y-144920800D03*
D16*
%TO.P,D2\u002C4,1*%
%TO.N,KEY_ROW4*%
X80594200Y-137120800D03*
%TD*%
D15*
%TO.P,D2\u002C5,2*%
%TO.N,Net-(D2\u002C5-Pad2)*%
X69735700Y-164351800D03*
D16*
%TO.P,D2\u002C5,1*%
%TO.N,KEY_ROW5*%
X69735700Y-156551800D03*
%TD*%
D15*
%TO.P,D2\u002C0,2*%
%TO.N,Net-(D2\u002C0-Pad2)*%
X76070460Y-60656300D03*
D16*
%TO.P,D2\u002C0,1*%
%TO.N,KEY_ROW0*%
X76070460Y-52856300D03*
%TD*%
D15*
%TO.P,D2\u002C2,2*%
%TO.N,Net-(D2\u002C2-Pad2)*%
X66306700Y-105677800D03*
D16*
%TO.P,D2\u002C2,1*%
%TO.N,KEY_ROW2*%
X66306700Y-97877800D03*
%TD*%
D15*
%TO.P,D2\u002C1,2*%
%TO.N,Net-(D2\u002C1-Pad2)*%
X56781700Y-86437300D03*
D16*
%TO.P,D2\u002C1,1*%
%TO.N,KEY_ROW1*%
X56781700Y-78637300D03*
%TD*%
D15*
%TO.P,D2\u002C3,2*%
%TO.N,Net-(D2\u002C3-Pad2)*%
X71196200Y-125108800D03*
D16*
%TO.P,D2\u002C3,1*%
%TO.N,KEY_ROW3*%
X71196200Y-117308800D03*
%TD*%
D15*
%TO.P,D3\u002C0,2*%
%TO.N,Net-(D3\u002C0-Pad2)*%
X95374460Y-60656300D03*
D16*
%TO.P,D3\u002C0,1*%
%TO.N,KEY_ROW0*%
X95374460Y-52856300D03*
%TD*%
D15*
%TO.P,D3\u002C1,2*%
%TO.N,Net-(D3\u002C1-Pad2)*%
X75577700Y-86437300D03*
D16*
%TO.P,D3\u002C1,1*%
%TO.N,KEY_ROW1*%
X75577700Y-78637300D03*
%TD*%
D15*
%TO.P,D3\u002C4,2*%
%TO.N,Net-(D3\u002C4-Pad2)*%
X99898200Y-144920800D03*
D16*
%TO.P,D3\u002C4,1*%
%TO.N,KEY_ROW4*%
X99898200Y-137120800D03*
%TD*%
D15*
%TO.P,D3\u002C2,2*%
%TO.N,Net-(D3\u002C2-Pad2)*%
X85610700Y-105677800D03*
D16*
%TO.P,D3\u002C2,1*%
%TO.N,KEY_ROW2*%
X85610700Y-97877800D03*
%TD*%
D15*
%TO.P,D3\u002C5,2*%
%TO.N,Net-(D3\u002C5-Pad2)*%
X141617700Y-164351800D03*
D16*
%TO.P,D3\u002C5,1*%
%TO.N,KEY_ROW5*%
X141617700Y-156551800D03*
%TD*%
D15*
%TO.P,D3\u002C3,2*%
%TO.N,Net-(D3\u002C3-Pad2)*%
X90500200Y-125108800D03*
D16*
%TO.P,D3\u002C3,1*%
%TO.N,KEY_ROW3*%
X90500200Y-117308800D03*
%TD*%
D15*
%TO.P,D4\u002C4,2*%
%TO.N,Net-(D4\u002C4-Pad2)*%
X119202200Y-144920800D03*
D16*
%TO.P,D4\u002C4,1*%
%TO.N,KEY_ROW4*%
X119202200Y-137120800D03*
%TD*%
D15*
%TO.P,D4\u002C3,2*%
%TO.N,Net-(D4\u002C3-Pad2)*%
X109804200Y-125108800D03*
D16*
%TO.P,D4\u002C3,1*%
%TO.N,KEY_ROW3*%
X109804200Y-117308800D03*
%TD*%
D15*
%TO.P,D4\u002C1,2*%
%TO.N,Net-(D4\u002C1-Pad2)*%
X94881700Y-86437300D03*
D16*
%TO.P,D4\u002C1,1*%
%TO.N,KEY_ROW1*%
X94881700Y-78637300D03*
%TD*%
D15*
%TO.P,D4\u002C0,2*%
%TO.N,Net-(D4\u002C0-Pad2)*%
X114678460Y-60656300D03*
D16*
%TO.P,D4\u002C0,1*%
%TO.N,KEY_ROW0*%
X114678460Y-52856300D03*
%TD*%
D15*
%TO.P,D4\u002C2,2*%
%TO.N,Net-(D4\u002C2-Pad2)*%
X104914700Y-105677800D03*
D16*
%TO.P,D4\u002C2,1*%
%TO.N,KEY_ROW2*%
X104914700Y-97877800D03*
%TD*%
D15*
%TO.P,D5\u002C0,2*%
%TO.N,Net-(D5\u002C0-Pad2)*%
X146174460Y-60656300D03*
D16*
%TO.P,D5\u002C0,1*%
%TO.N,KEY_ROW0*%
X146174460Y-52856300D03*
%TD*%
D15*
%TO.P,D5\u002C2,2*%
%TO.N,Net-(D5\u002C2-Pad2)*%
X124218700Y-105677800D03*
D16*
%TO.P,D5\u002C2,1*%
%TO.N,KEY_ROW2*%
X124218700Y-97877800D03*
%TD*%
D15*
%TO.P,D5\u002C1,2*%
%TO.N,Net-(D5\u002C1-Pad2)*%
X114185700Y-86437300D03*
D16*
%TO.P,D5\u002C1,1*%
%TO.N,KEY_ROW1*%
X114185700Y-78637300D03*
%TD*%
D15*
%TO.P,D5\u002C3,2*%
%TO.N,Net-(D5\u002C3-Pad2)*%
X129108200Y-125159600D03*
D16*
%TO.P,D5\u002C3,1*%
%TO.N,KEY_ROW3*%
X129108200Y-117359600D03*
%TD*%
D15*
%TO.P,D5\u002C4,2*%
%TO.N,Net-(D5\u002C4-Pad2)*%
X138506200Y-144971600D03*
D16*
%TO.P,D5\u002C4,1*%
%TO.N,KEY_ROW4*%
X138506200Y-137171600D03*
%TD*%
D15*
%TO.P,D6\u002C0,2*%
%TO.N,Net-(D6\u002C0-Pad2)*%
X165478460Y-60656300D03*
D16*
%TO.P,D6\u002C0,1*%
%TO.N,KEY_ROW0*%
X165478460Y-52856300D03*
%TD*%
D15*
%TO.P,D6\u002C3,2*%
%TO.N,Net-(D6\u002C3-Pad2)*%
X148412200Y-125108800D03*
D16*
%TO.P,D6\u002C3,1*%
%TO.N,KEY_ROW3*%
X148412200Y-117308800D03*
%TD*%
D15*
%TO.P,D6\u002C4,2*%
%TO.N,Net-(D6\u002C4-Pad2)*%
X157810200Y-144920800D03*
D16*
%TO.P,D6\u002C4,1*%
%TO.N,KEY_ROW4*%
X157810200Y-137120800D03*
%TD*%
D15*
%TO.P,D6\u002C1,2*%
%TO.N,Net-(D6\u002C1-Pad2)*%
X133489700Y-86437300D03*
D16*
%TO.P,D6\u002C1,1*%
%TO.N,KEY_ROW1*%
X133489700Y-78637300D03*
%TD*%
D15*
%TO.P,D6\u002C2,2*%
%TO.N,Net-(D6\u002C2-Pad2)*%
X143522700Y-105677800D03*
D16*
%TO.P,D6\u002C2,1*%
%TO.N,KEY_ROW2*%
X143522700Y-97877800D03*
%TD*%
D15*
%TO.P,D7\u002C4,2*%
%TO.N,Net-(D7\u002C4-Pad2)*%
X177114200Y-144971600D03*
D16*
%TO.P,D7\u002C4,1*%
%TO.N,KEY_ROW4*%
X177114200Y-137171600D03*
%TD*%
D15*
%TO.P,D7\u002C2,2*%
%TO.N,Net-(D7\u002C2-Pad2)*%
X162826700Y-105728600D03*
D16*
%TO.P,D7\u002C2,1*%
%TO.N,KEY_ROW2*%
X162826700Y-97928600D03*
%TD*%
D15*
%TO.P,D7\u002C1,2*%
%TO.N,Net-(D7\u002C1-Pad2)*%
X152793700Y-86437300D03*
D16*
%TO.P,D7\u002C1,1*%
%TO.N,KEY_ROW1*%
X152793700Y-78637300D03*
%TD*%
D15*
%TO.P,D7\u002C0,2*%
%TO.N,Net-(D7\u002C0-Pad2)*%
X184782460Y-60656300D03*
D16*
%TO.P,D7\u002C0,1*%
%TO.N,KEY_ROW0*%
X184782460Y-52856300D03*
%TD*%
D15*
%TO.P,D7\u002C3,2*%
%TO.N,Net-(D7\u002C3-Pad2)*%
X167716200Y-125108800D03*
D16*
%TO.P,D7\u002C3,1*%
%TO.N,KEY_ROW3*%
X167716200Y-117308800D03*
%TD*%
D15*
%TO.P,D8\u002C0,2*%
%TO.N,Net-(D8\u002C0-Pad2)*%
X204086460Y-60707100D03*
D16*
%TO.P,D8\u002C0,1*%
%TO.N,KEY_ROW0*%
X204086460Y-52907100D03*
%TD*%
D15*
%TO.P,D8\u002C3,2*%
%TO.N,Net-(D8\u002C3-Pad2)*%
X187020200Y-125108800D03*
D16*
%TO.P,D8\u002C3,1*%
%TO.N,KEY_ROW3*%
X187020200Y-117308800D03*
%TD*%
D15*
%TO.P,D8\u002C1,2*%
%TO.N,Net-(D8\u002C1-Pad2)*%
X172097700Y-86437300D03*
D16*
%TO.P,D8\u002C1,1*%
%TO.N,KEY_ROW1*%
X172097700Y-78637300D03*
%TD*%
D15*
%TO.P,D8\u002C2,2*%
%TO.N,Net-(D8\u002C2-Pad2)*%
X182130700Y-105677800D03*
D16*
%TO.P,D8\u002C2,1*%
%TO.N,KEY_ROW2*%
X182130700Y-97877800D03*
%TD*%
D15*
%TO.P,D8\u002C5,2*%
%TO.N,Net-(D8\u002C5-Pad2)*%
X213372700Y-164415300D03*
D16*
%TO.P,D8\u002C5,1*%
%TO.N,KEY_ROW5*%
X213372700Y-156615300D03*
%TD*%
D15*
%TO.P,D8\u002C4,2*%
%TO.N,Net-(D8\u002C4-Pad2)*%
X196418200Y-144920800D03*
D16*
%TO.P,D8\u002C4,1*%
%TO.N,KEY_ROW4*%
X196418200Y-137120800D03*
%TD*%
D15*
%TO.P,D9\u002C2,2*%
%TO.N,Net-(D9\u002C2-Pad2)*%
X201434700Y-105677800D03*
D16*
%TO.P,D9\u002C2,1*%
%TO.N,KEY_ROW2*%
X201434700Y-97877800D03*
%TD*%
D15*
%TO.P,D9\u002C1,2*%
%TO.N,Net-(D9\u002C1-Pad2)*%
X191401700Y-86488100D03*
D16*
%TO.P,D9\u002C1,1*%
%TO.N,KEY_ROW1*%
X191401700Y-78688100D03*
%TD*%
D15*
%TO.P,D9\u002C3,2*%
%TO.N,Net-(D9\u002C3-Pad2)*%
X206324200Y-125108800D03*
D16*
%TO.P,D9\u002C3,1*%
%TO.N,KEY_ROW3*%
X206324200Y-117308800D03*
%TD*%
D15*
%TO.P,D9\u002C4,2*%
%TO.N,Net-(D9\u002C4-Pad2)*%
X215722200Y-144920800D03*
D16*
%TO.P,D9\u002C4,1*%
%TO.N,KEY_ROW4*%
X215722200Y-137120800D03*
%TD*%
D15*
%TO.P,D9\u002C5,2*%
%TO.N,Net-(D9\u002C5-Pad2)*%
X237502700Y-164351800D03*
D16*
%TO.P,D9\u002C5,1*%
%TO.N,KEY_ROW5*%
X237502700Y-156551800D03*
%TD*%
D15*
%TO.P,D9\u002C0,2*%
%TO.N,Net-(D9\u002C0-Pad2)*%
X230502460Y-60656300D03*
D16*
%TO.P,D9\u002C0,1*%
%TO.N,KEY_ROW0*%
X230502460Y-52856300D03*
%TD*%
D15*
%TO.P,D10\u002C4,2*%
%TO.N,Net-(D10\u002C4-Pad2)*%
X235026200Y-144971600D03*
D16*
%TO.P,D10\u002C4,1*%
%TO.N,KEY_ROW4*%
X235026200Y-137171600D03*
%TD*%
D15*
%TO.P,D10\u002C5,2*%
%TO.N,Net-(D10\u002C5-Pad2)*%
X261696200Y-164351800D03*
D16*
%TO.P,D10\u002C5,1*%
%TO.N,KEY_ROW5*%
X261696200Y-156551800D03*
%TD*%
D15*
%TO.P,D10\u002C1,2*%
%TO.N,Net-(D10\u002C1-Pad2)*%
X210705700Y-86437300D03*
D16*
%TO.P,D10\u002C1,1*%
%TO.N,KEY_ROW1*%
X210705700Y-78637300D03*
%TD*%
D15*
%TO.P,D10\u002C0,2*%
%TO.N,Net-(D10\u002C0-Pad2)*%
X249806460Y-60656300D03*
D16*
%TO.P,D10\u002C0,1*%
%TO.N,KEY_ROW0*%
X249806460Y-52856300D03*
%TD*%
D15*
%TO.P,D10\u002C2,2*%
%TO.N,Net-(D10\u002C2-Pad2)*%
X220738700Y-105728600D03*
D16*
%TO.P,D10\u002C2,1*%
%TO.N,KEY_ROW2*%
X220738700Y-97928600D03*
%TD*%
D15*
%TO.P,D10\u002C3,2*%
%TO.N,Net-(D10\u002C3-Pad2)*%
X225628200Y-125108800D03*
D16*
%TO.P,D10\u002C3,1*%
%TO.N,KEY_ROW3*%
X225628200Y-117308800D03*
%TD*%
D15*
%TO.P,D11\u002C0,2*%
%TO.N,Net-(D11\u002C0-Pad2)*%
X269110460Y-60656300D03*
D16*
%TO.P,D11\u002C0,1*%
%TO.N,KEY_ROW0*%
X269110460Y-52856300D03*
%TD*%
D15*
%TO.P,D11\u002C1,2*%
%TO.N,Net-(D11\u002C1-Pad2)*%
X230009700Y-86437300D03*
D16*
%TO.P,D11\u002C1,1*%
%TO.N,KEY_ROW1*%
X230009700Y-78637300D03*
%TD*%
D15*
%TO.P,D11\u002C3,2*%
%TO.N,Net-(D11\u002C3-Pad2)*%
X244932200Y-125108800D03*
D16*
%TO.P,D11\u002C3,1*%
%TO.N,KEY_ROW3*%
X244932200Y-117308800D03*
%TD*%
D15*
%TO.P,D11\u002C2,2*%
%TO.N,Net-(D11\u002C2-Pad2)*%
X240042700Y-105677800D03*
D16*
%TO.P,D11\u002C2,1*%
%TO.N,KEY_ROW2*%
X240042700Y-97877800D03*
%TD*%
D15*
%TO.P,D11\u002C4,2*%
%TO.N,Net-(D11\u002C4-Pad2)*%
X271602200Y-144920800D03*
D16*
%TO.P,D11\u002C4,1*%
%TO.N,KEY_ROW4*%
X271602200Y-137120800D03*
%TD*%
D15*
%TO.P,D11\u002C5,2*%
%TO.N,Net-(D11\u002C5-Pad2)*%
X285762700Y-164351800D03*
D16*
%TO.P,D11\u002C5,1*%
%TO.N,KEY_ROW5*%
X285762700Y-156551800D03*
%TD*%
D15*
%TO.P,D12\u002C3,2*%
%TO.N,Net-(D12\u002C3-Pad2)*%
X276428200Y-125172300D03*
D16*
%TO.P,D12\u002C3,1*%
%TO.N,KEY_ROW3*%
X276428200Y-117372300D03*
%TD*%
D15*
%TO.P,D12\u002C2,2*%
%TO.N,Net-(D12\u002C2-Pad2)*%
X259346700Y-105677800D03*
D16*
%TO.P,D12\u002C2,1*%
%TO.N,KEY_ROW2*%
X259346700Y-97877800D03*
%TD*%
D15*
%TO.P,D12\u002C1,2*%
%TO.N,Net-(D12\u002C1-Pad2)*%
X249313700Y-86488100D03*
D16*
%TO.P,D12\u002C1,1*%
%TO.N,KEY_ROW1*%
X249313700Y-78688100D03*
%TD*%
D15*
%TO.P,D12\u002C0,2*%
%TO.N,Net-(D12\u002C0-Pad2)*%
X288414460Y-60656300D03*
D16*
%TO.P,D12\u002C0,1*%
%TO.N,KEY_ROW0*%
X288414460Y-52856300D03*
%TD*%
D15*
%TO.P,D13\u002C2,2*%
%TO.N,Net-(D13\u002C2-Pad2)*%
X283159200Y-105741300D03*
D16*
%TO.P,D13\u002C2,1*%
%TO.N,KEY_ROW2*%
X283159200Y-97941300D03*
%TD*%
D15*
%TO.P,D13\u002C1,2*%
%TO.N,Net-(D13\u002C1-Pad2)*%
X278269700Y-86437300D03*
D16*
%TO.P,D13\u002C1,1*%
%TO.N,KEY_ROW1*%
X278269700Y-78637300D03*
%TD*%
D15*
%TO.P,D14\u002C1,2*%
%TO.N,Net-(D14\u002C1-Pad2)*%
X310934100Y-86437300D03*
D16*
%TO.P,D14\u002C1,1*%
%TO.N,KEY_ROW1*%
X310934100Y-78637300D03*
%TD*%
D15*
%TO.P,D14\u002C3,2*%
%TO.N,Net-(D14\u002C3-Pad2)*%
X311188100Y-105677800D03*
D16*
%TO.P,D14\u002C3,1*%
%TO.N,KEY_ROW3*%
X311188100Y-97877800D03*
%TD*%
D15*
%TO.P,D14\u002C0,2*%
%TO.N,Net-(D14\u002C0-Pad2)*%
X310984900Y-60656300D03*
D16*
%TO.P,D14\u002C0,1*%
%TO.N,KEY_ROW0*%
X310984900Y-52856300D03*
%TD*%
D15*
%TO.P,D14\u002C6,2*%
%TO.N,Net-(D14\u002C6-Pad2)*%
X310870600Y-164224800D03*
D16*
%TO.P,D14\u002C6,1*%
%TO.N,KEY_ROW6*%
X310870600Y-156424800D03*
%TD*%
D15*
%TO.P,D15\u002C0,2*%
%TO.N,Net-(D15\u002C0-Pad2)*%
X330796900Y-60656300D03*
D16*
%TO.P,D15\u002C0,1*%
%TO.N,KEY_ROW0*%
X330796900Y-52856300D03*
%TD*%
D15*
%TO.P,D15\u002C1,2*%
%TO.N,Net-(D15\u002C1-Pad2)*%
X330238100Y-86437300D03*
D16*
%TO.P,D15\u002C1,1*%
%TO.N,KEY_ROW1*%
X330238100Y-78637300D03*
%TD*%
D15*
%TO.P,D15\u002C3,2*%
%TO.N,Net-(D15\u002C3-Pad2)*%
X330238100Y-105677800D03*
D16*
%TO.P,D15\u002C3,1*%
%TO.N,KEY_ROW3*%
X330238100Y-97877800D03*
%TD*%
D15*
%TO.P,D15\u002C5,2*%
%TO.N,Net-(D15\u002C5-Pad2)*%
X330174600Y-144920800D03*
D16*
%TO.P,D15\u002C5,1*%
%TO.N,KEY_ROW5*%
X330174600Y-137120800D03*
%TD*%
D15*
%TO.P,D15\u002C6,2*%
%TO.N,Net-(D15\u002C6-Pad2)*%
X330174600Y-164224800D03*
D16*
%TO.P,D15\u002C6,1*%
%TO.N,KEY_ROW6*%
X330174600Y-156424800D03*
%TD*%
D15*
%TO.P,D16\u002C6,2*%
%TO.N,Net-(D16\u002C6-Pad2)*%
X349478600Y-164224800D03*
D16*
%TO.P,D16\u002C6,1*%
%TO.N,KEY_ROW6*%
X349478600Y-156424800D03*
%TD*%
D15*
%TO.P,D16\u002C0,2*%
%TO.N,Net-(D16\u002C0-Pad2)*%
X349846900Y-60656300D03*
D16*
%TO.P,D16\u002C0,1*%
%TO.N,KEY_ROW0*%
X349846900Y-52856300D03*
%TD*%
D15*
%TO.P,D16\u002C1,2*%
%TO.N,Net-(D16\u002C1-Pad2)*%
X349542100Y-86437300D03*
D16*
%TO.P,D16\u002C1,1*%
%TO.N,KEY_ROW1*%
X349542100Y-78637300D03*
%TD*%
D15*
%TO.P,D16\u002C5,2*%
%TO.N,Net-(D16\u002C5-Pad2)*%
X373164100Y-144412800D03*
D16*
%TO.P,D16\u002C5,1*%
%TO.N,KEY_ROW5*%
X373164100Y-136612800D03*
%TD*%
D15*
%TO.P,D16\u002C3,2*%
%TO.N,Net-(D16\u002C3-Pad2)*%
X349796100Y-105677800D03*
D16*
%TO.P,D16\u002C3,1*%
%TO.N,KEY_ROW3*%
X349796100Y-97877800D03*
%TD*%
D15*
%TO.P,D16\u002C4,2*%
%TO.N,Net-(D16\u002C4-Pad2)*%
X373418100Y-125108800D03*
D16*
%TO.P,D16\u002C4,1*%
%TO.N,KEY_ROW4*%
X373418100Y-117308800D03*
%TD*%
D15*
%TO.P,D17\u002C3,2*%
%TO.N,Net-(D17\u002C3-Pad2)*%
X373418100Y-105804800D03*
D16*
%TO.P,D17\u002C3,1*%
%TO.N,KEY_ROW3*%
X373418100Y-98004800D03*
%TD*%
D15*
%TO.P,D17\u002C1,2*%
%TO.N,Net-(D17\u002C1-Pad2)*%
X373418100Y-86437300D03*
D16*
%TO.P,D17\u002C1,1*%
%TO.N,KEY_ROW1*%
X373418100Y-78637300D03*
%TD*%
D15*
%TO.P,D17\u002C6,2*%
%TO.N,Net-(D17\u002C6-Pad2)*%
X383197100Y-163767600D03*
D16*
%TO.P,D17\u002C6,1*%
%TO.N,KEY_ROW6*%
X383197100Y-155967600D03*
%TD*%
D15*
%TO.P,D17\u002C4,2*%
%TO.N,Net-(D17\u002C4-Pad2)*%
X392722100Y-125108800D03*
D16*
%TO.P,D17\u002C4,1*%
%TO.N,KEY_ROW4*%
X392722100Y-117308800D03*
%TD*%
D15*
%TO.P,D17\u002C0,2*%
%TO.N,Net-(D17\u002C0-Pad2)*%
X373354600Y-60656300D03*
D16*
%TO.P,D17\u002C0,1*%
%TO.N,KEY_ROW0*%
X373354600Y-52856300D03*
%TD*%
D15*
%TO.P,D17\u002C5,2*%
%TO.N,Net-(D17\u002C5-Pad2)*%
X392722100Y-144412800D03*
D16*
%TO.P,D17\u002C5,1*%
%TO.N,KEY_ROW5*%
X392722100Y-136612800D03*
%TD*%
D15*
%TO.P,D18\u002C1,2*%
%TO.N,Net-(D18\u002C1-Pad2)*%
X392722100Y-86488100D03*
D16*
%TO.P,D18\u002C1,1*%
%TO.N,KEY_ROW1*%
X392722100Y-78688100D03*
%TD*%
D15*
%TO.P,D18\u002C6,2*%
%TO.N,Net-(D18\u002C6-Pad2)*%
X412026100Y-163716800D03*
D16*
%TO.P,D18\u002C6,1*%
%TO.N,KEY_ROW6*%
X412026100Y-155916800D03*
%TD*%
D15*
%TO.P,D18\u002C3,2*%
%TO.N,Net-(D18\u002C3-Pad2)*%
X392722100Y-105804800D03*
D16*
%TO.P,D18\u002C3,1*%
%TO.N,KEY_ROW3*%
X392722100Y-98004800D03*
%TD*%
D15*
%TO.P,D18\u002C0,2*%
%TO.N,Net-(D18\u002C0-Pad2)*%
X392658600Y-60656300D03*
D16*
%TO.P,D18\u002C0,1*%
%TO.N,KEY_ROW0*%
X392658600Y-52856300D03*
%TD*%
D15*
%TO.P,D18\u002C5,2*%
%TO.N,Net-(D18\u002C5-Pad2)*%
X412026100Y-144412800D03*
D16*
%TO.P,D18\u002C5,1*%
%TO.N,KEY_ROW5*%
X412026100Y-136612800D03*
%TD*%
D15*
%TO.P,D18\u002C4,2*%
%TO.N,Net-(D18\u002C4-Pad2)*%
X412026100Y-125045300D03*
D16*
%TO.P,D18\u002C4,1*%
%TO.N,KEY_ROW4*%
X412026100Y-117245300D03*
%TD*%
D15*
%TO.P,D19\u002C4,2*%
%TO.N,Net-(D19\u002C4-Pad2)*%
X431330100Y-115126600D03*
D16*
%TO.P,D19\u002C4,1*%
%TO.N,KEY_ROW4*%
X431330100Y-107326600D03*
%TD*%
D15*
%TO.P,D19\u002C0,2*%
%TO.N,Net-(D19\u002C0-Pad2)*%
X411962600Y-60656300D03*
D16*
%TO.P,D19\u002C0,1*%
%TO.N,KEY_ROW0*%
X411962600Y-52856300D03*
%TD*%
D15*
%TO.P,D19\u002C3,2*%
%TO.N,Net-(D19\u002C3-Pad2)*%
X412026100Y-105804800D03*
D16*
%TO.P,D19\u002C3,1*%
%TO.N,KEY_ROW3*%
X412026100Y-98004800D03*
%TD*%
D15*
%TO.P,D19\u002C1,2*%
%TO.N,Net-(D19\u002C1-Pad2)*%
X412026100Y-86437300D03*
D16*
%TO.P,D19\u002C1,1*%
%TO.N,KEY_ROW1*%
X412026100Y-78637300D03*
%TD*%
D15*
%TO.P,D19\u002C6,2*%
%TO.N,Net-(D19\u002C6-Pad2)*%
X431584100Y-154064800D03*
D16*
%TO.P,D19\u002C6,1*%
%TO.N,KEY_ROW6*%
X431584100Y-146264800D03*
%TD*%
D15*
%TO.P,D20\u002C1,2*%
%TO.N,Net-(D20\u002C1-Pad2)*%
X431330100Y-86437300D03*
D16*
%TO.P,D20\u002C1,1*%
%TO.N,KEY_ROW1*%
X431330100Y-78637300D03*
%TD*%
D15*
%TO.P,D20\u002C0,2*%
%TO.N,Net-(D20\u002C0-Pad2)*%
X431266600Y-60707100D03*
D16*
%TO.P,D20\u002C0,1*%
%TO.N,KEY_ROW0*%
X431266600Y-52907100D03*
%TD*%
D17*
%TO.P,J1,1*%
%TO.N,KEY_ROW0*%
X344271600Y-26858200D03*
%TO.P,J1,2*%
%TO.N,KEY_ROW1*%
X344271600Y-21808200D03*
%TO.P,J1,3*%
%TO.N,KEY_ROW2*%
X346811600Y-26858200D03*
%TO.P,J1,4*%
%TO.N,KEY_ROW3*%
X346811600Y-21808200D03*
%TO.P,J1,5*%
%TO.N,KEY_ROW4*%
X349351600Y-26858200D03*
%TO.P,J1,6*%
%TO.N,KEY_ROW5*%
X349351600Y-21808200D03*
%TO.P,J1,7*%
%TO.N,KEY_ROW6*%
X351891600Y-26858200D03*
%TO.P,J1,8*%
%TO.N,KEY_COL0*%
X351891600Y-21808200D03*
%TO.P,J1,9*%
%TO.N,KEY_COL1*%
X354431600Y-26858200D03*
%TO.P,J1,10*%
%TO.N,KEY_COL2*%
X354431600Y-21808200D03*
%TO.P,J1,11*%
%TO.N,KEY_COL3*%
X356971600Y-26858200D03*
%TO.P,J1,12*%
%TO.N,KEY_COL4*%
X356971600Y-21808200D03*
%TO.P,J1,13*%
%TO.N,KEY_COL5*%
X359511600Y-26858200D03*
%TO.P,J1,14*%
%TO.N,KEY_COL6*%
X359511600Y-21808200D03*
%TO.P,J1,15*%
%TO.N,KEY_COL7*%
X362051600Y-26858200D03*
%TO.P,J1,16*%
%TO.N,KEY_COL8*%
X362051600Y-21808200D03*
%TO.P,J1,17*%
%TO.N,KEY_COL9*%
X364591600Y-26858200D03*
%TO.P,J1,18*%
%TO.N,KEY_COL10*%
X364591600Y-21808200D03*
%TO.P,J1,19*%
%TO.N,KEY_COL11*%
X367131600Y-26858200D03*
%TO.P,J1,20*%
%TO.N,KEY_COL12*%
X367131600Y-21808200D03*
%TO.P,J1,21*%
%TO.N,LED_SDA_ROW0*%
X369671600Y-26858200D03*
%TO.P,J1,22*%
%TO.N,LED_SCL_ROW0*%
X369671600Y-21808200D03*
%TO.P,J1,23*%
%TO.N,KEY_COL13*%
X372211600Y-26858200D03*
%TO.P,J1,24*%
%TO.N,KEY_COL14*%
X372211600Y-21808200D03*
%TO.P,J1,25*%
%TO.N,KEY_COL15*%
X374751600Y-26858200D03*
%TO.P,J1,26*%
%TO.N,KEY_COL16*%
X374751600Y-21808200D03*
%TO.P,J1,27*%
%TO.N,KEY_COL17*%
X377291600Y-26858200D03*
%TO.P,J1,28*%
%TO.N,KEY_COL18*%
X377291600Y-21808200D03*
%TO.P,J1,29*%
%TO.N,KEY_COL19*%
X379831600Y-26858200D03*
%TO.P,J1,30*%
%TO.N,KEY_COL20*%
X379831600Y-21808200D03*
%TO.P,J1,31*%
%TO.N,Net-(J1-Pad31)*%
X382371600Y-26858200D03*
%TO.P,J1,32*%
%TO.N,Net-(J1-Pad32)*%
X382371600Y-21808200D03*
%TO.P,J1,33*%
%TO.N,Net-(J1-Pad33)*%
X384911600Y-26858200D03*
%TO.P,J1,34*%
%TO.N,Net-(J1-Pad34)*%
X384911600Y-21808200D03*
%TO.P,J1,35*%
%TO.N,GNDPWR*%
X387451600Y-26858200D03*
%TO.P,J1,36*%
X387451600Y-21808200D03*
%TO.P,J1,37*%
%TO.N,MAIN_VBUS*%
X389991600Y-26858200D03*
%TO.P,J1,38*%
X389991600Y-21808200D03*
%TO.P,J1,39*%
%TO.N,LED_SDA_STATUS0*%
X392531600Y-26858200D03*
%TO.P,J1,40*%
%TO.N,LED_SCL_STATUS0*%
X392531600Y-21808200D03*
%TD*%
D18*
%TO.N,KEY_ROW6*%
X409130500Y-54483000D03*
X402463000Y-45720000D03*
X405384000Y-53784500D03*
D19*
%TO.N,GNDPWR*%
X434340000Y-25400000D03*
D18*
X387477000Y-21844000D03*
X387477000Y-26924000D03*
D19*
X434340000Y-30988000D03*
D18*
%TO.N,KEY_COL6*%
X359537000Y-21844000D03*
%TO.N,KEY_COL5*%
X359537000Y-26924000D03*
%TO.N,KEY_COL4*%
X356997000Y-21844000D03*
%TO.N,KEY_COL3*%
X356997000Y-26924000D03*
%TO.N,KEY_COL2*%
X354457000Y-21844000D03*
%TO.N,KEY_COL1*%
X354457000Y-26924000D03*
%TO.N,KEY_COL0*%
X351917000Y-21844000D03*
%TO.N,KEY_COL7*%
X362077000Y-26797000D03*
%TO.N,KEY_COL8*%
X362077000Y-21844000D03*
%TO.N,KEY_COL9*%
X364617000Y-26924000D03*
%TO.N,KEY_COL10*%
X364617000Y-21844000D03*
%TO.N,KEY_COL11*%
X367157000Y-26924000D03*
%TO.N,KEY_COL12*%
X367157000Y-21844000D03*
%TO.N,KEY_COL13*%
X372237000Y-26924000D03*
%TO.N,KEY_COL19*%
X379857000Y-26924000D03*
X426858100Y-58077100D03*
%TO.N,KEY_COL18*%
X377317000Y-21844000D03*
X407554100Y-58077100D03*
%TO.N,KEY_COL17*%
X377317000Y-26924000D03*
X388250100Y-58077100D03*
%TO.N,KEY_COL16*%
X374777000Y-21844000D03*
%TO.N,KEY_COL15*%
X374777000Y-26924000D03*
X345438400Y-58077100D03*
%TO.N,KEY_COL14*%
X372237000Y-21844000D03*
X325880400Y-58077100D03*
D19*
%TO.N,MAIN_VBUS*%
X426085000Y-25400000D03*
D18*
X390017000Y-26924000D03*
X390017000Y-21844000D03*
D19*
X426085000Y-31115000D03*
D18*
%TO.N,KEY_ROW5*%
X396049500Y-71183500D03*
X371221000Y-68770500D03*
X367379250Y-46196250D03*
%TO.N,KEY_ROW4*%
X350837500Y-46037500D03*
%TO.N,KEY_ROW3*%
X346646500Y-46101000D03*
%TO.N,KEY_ROW2*%
X306197000Y-46101000D03*
%TO.N,KEY_ROW1*%
X292544500Y-42799000D03*
%TO.N,KEY_ROW0*%
X426224700Y-111696500D03*
X290893500Y-42799000D03*
%TO.N,KEY_COL20*%
X379857000Y-21844000D03*
X446162100Y-58077100D03*
%TO.N,LED_SCL_STATUS0*%
X377190000Y-67437000D03*
X378091700Y-65468500D03*
%TD*%
D20*
%TO.N,KEY_ROW6*%
X382739900Y-156424800D02*
X383197100Y-155967600D01*
X411975300Y-155967600D02*
X412026100Y-155916800D01*
X383197100Y-155967600D02*
X411975300Y-155967600D01*
X412026100Y-155916800D02*
X422847600Y-155916800D01*
X431584100Y-147180300D02*
X431584100Y-146264800D01*
X422847600Y-155916800D02*
X431584100Y-147180300D01*
D21*
X349474600Y-156428800D02*
X349478600Y-156424800D01*
X332802333Y-156428800D02*
X349474600Y-156428800D01*
X332798333Y-156424800D02*
X332802333Y-156428800D01*
X310870600Y-156424800D02*
X332798333Y-156424800D01*
X351562323Y-156424800D02*
X351566323Y-156428800D01*
X351566323Y-156428800D02*
X380146200Y-156428800D01*
X349478600Y-156424800D02*
X351562323Y-156424800D01*
X380607400Y-155967600D02*
X383197100Y-155967600D01*
X380146200Y-156428800D02*
X380607400Y-155967600D01*
X409130500Y-54483000D02*
X408432000Y-53784500D01*
X408432000Y-53784500D02*
X405384000Y-53784500D01*
X402113750Y-45370750D02*
X402463000Y-45720000D01*
X375951750Y-45370750D02*
X402113750Y-45370750D01*
X370078000Y-39497000D02*
X375951750Y-45370750D01*
X370078000Y-31369000D02*
X370078000Y-39497000D01*
X369189000Y-30480000D02*
X370078000Y-31369000D01*
X352615500Y-30480000D02*
X369189000Y-30480000D01*
X351891600Y-29756100D02*
X352615500Y-30480000D01*
X351891600Y-26858200D02*
X351891600Y-29756100D01*
D22*
%TO.N,GNDPWR*%
X387477000Y-21833600D02*
X387451600Y-21808200D01*
X387477000Y-26924000D02*
X387477000Y-21833600D01*
D21*
%TO.N,Net-(LD0\u002C1-Pad2)*%
X27024700Y-74472800D02*
X44539800Y-74472800D01*
%TO.N,Net-(LD0\u002C1-Pad3)*%
X27024700Y-73572800D02*
X44539800Y-73572800D01*
%TO.N,Net-(LD0\u002C5-Pad3)*%
X52261400Y-151423800D02*
X52312200Y-151474600D01*
X29437700Y-151423800D02*
X52261400Y-151423800D01*
%TO.N,Net-(LD0\u002C5-Pad2)*%
X52261400Y-152323800D02*
X52312200Y-152374600D01*
X29437700Y-152323800D02*
X52261400Y-152323800D01*
%TO.N,Net-(LD0\u002C3-Pad2)*%
X58776500Y-113207800D02*
X58852700Y-113131600D01*
X34073200Y-113207800D02*
X58776500Y-113207800D01*
%TO.N,Net-(LD0\u002C3-Pad3)*%
X58776500Y-112307800D02*
X58852700Y-112231600D01*
X34073200Y-112307800D02*
X58776500Y-112307800D01*
%TO.N,Net-(LD0\u002C4-Pad3)*%
X38835700Y-132043600D02*
X68250700Y-132043600D01*
%TO.N,Net-(LD0\u002C4-Pad2)*%
X38835700Y-132943600D02*
X68250700Y-132943600D01*
%TO.N,Net-(LD0\u002C2-Pad2)*%
X53937800Y-93675200D02*
X53963200Y-93700600D01*
X31736400Y-93675200D02*
X53937800Y-93675200D01*
%TO.N,Net-(LD0\u002C2-Pad3)*%
X53937800Y-92775200D02*
X53963200Y-92800600D01*
X31736400Y-92775200D02*
X53937800Y-92775200D01*
%TO.N,Net-(LD0\u002C0-Pad2)*%
X63879360Y-48514000D02*
X63917460Y-48552100D01*
X27088200Y-48514000D02*
X63879360Y-48514000D01*
%TO.N,Net-(LD0\u002C0-Pad3)*%
X63879360Y-47614000D02*
X63917460Y-47652100D01*
X27088200Y-47614000D02*
X63879360Y-47614000D01*
D23*
%TO.N,LED_SCL_ROW0*%
X25388200Y-48514000D02*
X24130000Y-48514000D01*
D21*
X24028400Y-48514000D02*
X24130000Y-48514000D01*
X23622000Y-39765723D02*
X23622000Y-48107600D01*
X31583733Y-31803990D02*
X23622000Y-39765723D01*
X289419134Y-31803990D02*
X31583733Y-31803990D01*
X338686730Y-30832470D02*
X290390652Y-30832470D01*
X339191600Y-30327600D02*
X338686730Y-30832470D01*
X339191600Y-20370800D02*
X339191600Y-30327600D01*
X341833200Y-17729200D02*
X339191600Y-20370800D01*
X290390652Y-30832470D02*
X289419134Y-31803990D01*
X368503200Y-17729200D02*
X341833200Y-17729200D01*
X369671600Y-18897600D02*
X368503200Y-17729200D01*
X23622000Y-48107600D02*
X24028400Y-48514000D01*
X369671600Y-21808200D02*
X369671600Y-18897600D01*
%TO.N,LED_SDA_ROW0*%
X24804800Y-47614000D02*
X25388200Y-47614000D01*
X24330010Y-47139210D02*
X24804800Y-47614000D01*
X289712400Y-32512000D02*
X31877000Y-32512000D01*
X368300000Y-26517600D02*
X368300000Y-19761200D01*
X341680800Y-30988000D02*
X341128320Y-31540480D01*
X368300000Y-19761200D02*
X367284000Y-18745200D01*
X31877000Y-32512000D02*
X24330010Y-40058990D01*
X369671600Y-26858200D02*
X368640600Y-26858200D01*
X367284000Y-18745200D02*
X343204800Y-18745200D01*
X368640600Y-26858200D02*
X368300000Y-26517600D01*
X341680800Y-20269200D02*
X341680800Y-30988000D01*
X341128320Y-31540480D02*
X290683920Y-31540480D01*
X290683920Y-31540480D02*
X289712400Y-32512000D01*
X343204800Y-18745200D02*
X341680800Y-20269200D01*
X24330010Y-40058990D02*
X24330010Y-47139210D01*
%TO.N,Net-(LD1\u002C4-Pad2)*%
X69950700Y-132943600D02*
X87414700Y-132943600D01*
%TO.N,Net-(LD1\u002C4-Pad3)*%
X69950700Y-132043600D02*
X87414700Y-132043600D01*
%TO.N,Net-(LD1\u002C2-Pad3)*%
X55663200Y-92800600D02*
X73267200Y-92800600D01*
%TO.N,Net-(LD1\u002C2-Pad2)*%
X55663200Y-93700600D02*
X73267200Y-93700600D01*
%TO.N,Net-(LD1\u002C0-Pad2)*%
X65617460Y-48552100D02*
X83221460Y-48552100D01*
%TO.N,Net-(LD1\u002C0-Pad3)*%
X65617460Y-47652100D02*
X83221460Y-47652100D01*
%TO.N,Net-(LD2\u002C0-Pad3)*%
X84921460Y-47652100D02*
X102525460Y-47652100D01*
%TO.N,Net-(LD2\u002C0-Pad2)*%
X84921460Y-48552100D02*
X102525460Y-48552100D01*
%TO.N,Net-(LD2\u002C2-Pad2)*%
X74967200Y-93700600D02*
X92571200Y-93700600D01*
%TO.N,Net-(LD2\u002C2-Pad3)*%
X75042600Y-92800600D02*
X92571200Y-92800600D01*
X74967200Y-92800600D02*
X75042600Y-92800600D01*
%TO.N,Net-(LD2\u002C4-Pad3)*%
X89114700Y-132043600D02*
X106858700Y-132043600D01*
%TO.N,Net-(LD2\u002C4-Pad2)*%
X89114700Y-132943600D02*
X106858700Y-132943600D01*
%TO.N,Net-(LD3\u002C2-Pad3)*%
X94271200Y-92800600D02*
X111875200Y-92800600D01*
%TO.N,Net-(LD3\u002C2-Pad2)*%
X94271200Y-93700600D02*
X111875200Y-93700600D01*
%TO.N,Net-(LD3\u002C4-Pad3)*%
X108558700Y-132043600D02*
X126162700Y-132043600D01*
%TO.N,Net-(LD3\u002C4-Pad2)*%
X108558700Y-132943600D02*
X126162700Y-132943600D01*
%TO.N,Net-(LD3\u002C0-Pad2)*%
X104225460Y-48552100D02*
X121829460Y-48552100D01*
%TO.N,Net-(LD3\u002C0-Pad3)*%
X104225460Y-47652100D02*
X121829460Y-47652100D01*
%TO.N,Net-(LD4\u002C2-Pad2)*%
X113575200Y-93700600D02*
X131179200Y-93700600D01*
%TO.N,Net-(LD4\u002C2-Pad3)*%
X113575200Y-92800600D02*
X131179200Y-92800600D01*
%TO.N,Net-(LD4\u002C4-Pad3)*%
X127862700Y-132043600D02*
X145466700Y-132043600D01*
%TO.N,Net-(LD4\u002C4-Pad2)*%
X127862700Y-132943600D02*
X145466700Y-132943600D01*
%TO.N,Net-(LD4\u002C0-Pad3)*%
X123529460Y-47652100D02*
X153325460Y-47652100D01*
%TO.N,Net-(LD4\u002C0-Pad2)*%
X123529460Y-48552100D02*
X153325460Y-48552100D01*
%TO.N,Net-(LD5\u002C0-Pad2)*%
X155025460Y-48552100D02*
X172629460Y-48552100D01*
%TO.N,Net-(LD5\u002C0-Pad3)*%
X155025460Y-47652100D02*
X172629460Y-47652100D01*
%TO.N,Net-(LD5\u002C4-Pad2)*%
X147166700Y-132943600D02*
X164770700Y-132943600D01*
%TO.N,Net-(LD5\u002C4-Pad3)*%
X147166700Y-132043600D02*
X164770700Y-132043600D01*
%TO.N,Net-(LD5\u002C2-Pad3)*%
X132879200Y-92800600D02*
X150483200Y-92800600D01*
%TO.N,Net-(LD5\u002C2-Pad2)*%
X132879200Y-93700600D02*
X150483200Y-93700600D01*
%TO.N,Net-(LD6\u002C0-Pad3)*%
X174329460Y-47652100D02*
X191933460Y-47652100D01*
%TO.N,Net-(LD6\u002C0-Pad2)*%
X174329460Y-48552100D02*
X191933460Y-48552100D01*
%TO.N,Net-(LD6\u002C2-Pad3)*%
X152183200Y-92800600D02*
X169787200Y-92800600D01*
%TO.N,Net-(LD6\u002C2-Pad2)*%
X152183200Y-93700600D02*
X169787200Y-93700600D01*
%TO.N,Net-(LD6\u002C4-Pad3)*%
X166470700Y-132043600D02*
X184074700Y-132043600D01*
%TO.N,Net-(LD6\u002C4-Pad2)*%
X166470700Y-132943600D02*
X184074700Y-132943600D01*
%TO.N,Net-(LD7\u002C4-Pad2)*%
X185774700Y-132943600D02*
X203378700Y-132943600D01*
%TO.N,Net-(LD7\u002C4-Pad3)*%
X185774700Y-132043600D02*
X203378700Y-132043600D01*
%TO.N,Net-(LD7\u002C2-Pad2)*%
X171487200Y-93700600D02*
X189091200Y-93700600D01*
%TO.N,Net-(LD7\u002C2-Pad3)*%
X171487200Y-92800600D02*
X189091200Y-92800600D01*
%TO.N,Net-(LD7\u002C0-Pad2)*%
X193633460Y-48552100D02*
X211237460Y-48552100D01*
%TO.N,Net-(LD7\u002C0-Pad3)*%
X193633460Y-47652100D02*
X211237460Y-47652100D01*
%TO.N,Net-(LD8\u002C4-Pad3)*%
X205078700Y-132043600D02*
X222682700Y-132043600D01*
%TO.N,Net-(LD8\u002C4-Pad2)*%
X205078700Y-132943600D02*
X222682700Y-132943600D01*
%TO.N,Net-(LD8\u002C2-Pad2)*%
X190791200Y-93700600D02*
X208395200Y-93700600D01*
%TO.N,Net-(LD8\u002C2-Pad3)*%
X190791200Y-92800600D02*
X208395200Y-92800600D01*
%TO.N,Net-(LD8\u002C0-Pad3)*%
X212937460Y-47652100D02*
X237653460Y-47652100D01*
%TO.N,Net-(LD8\u002C0-Pad2)*%
X212937460Y-48552100D02*
X237653460Y-48552100D01*
%TO.N,Net-(LD10\u002C0-Pad5)*%
X239353460Y-48552100D02*
X256957460Y-48552100D01*
%TO.N,Net-(LD10\u002C0-Pad4)*%
X239353460Y-47652100D02*
X256957460Y-47652100D01*
%TO.N,Net-(LD10\u002C3-Pad4)*%
X214984700Y-112231600D02*
X232588700Y-112231600D01*
%TO.N,Net-(LD10\u002C3-Pad5)*%
X214984700Y-113131600D02*
X232588700Y-113131600D01*
%TO.N,Net-(LD10\u002C2-Pad4)*%
X210095200Y-92800600D02*
X227699200Y-92800600D01*
%TO.N,Net-(LD10\u002C2-Pad5)*%
X210095200Y-93700600D02*
X227699200Y-93700600D01*
%TO.N,Net-(LD10\u002C1-Pad5)*%
X200062200Y-74460100D02*
X217666200Y-74460100D01*
%TO.N,Net-(LD10\u002C1-Pad4)*%
X200062200Y-73560100D02*
X217666200Y-73560100D01*
%TO.N,Net-(LD10\u002C4-Pad5)*%
X224382700Y-132943600D02*
X241986700Y-132943600D01*
%TO.N,Net-(LD10\u002C4-Pad4)*%
X224382700Y-132043600D02*
X241986700Y-132043600D01*
%TO.N,Net-(LD10\u002C5-Pad4)*%
X246163200Y-151474600D02*
X268656700Y-151474600D01*
%TO.N,Net-(LD10\u002C5-Pad5)*%
X246163200Y-152374600D02*
X268656700Y-152374600D01*
%TO.N,Net-(LD10\u002C1-Pad3)*%
X219366200Y-73560100D02*
X236970200Y-73560100D01*
%TO.N,Net-(LD10\u002C1-Pad2)*%
X219366200Y-74460100D02*
X236970200Y-74460100D01*
%TO.N,Net-(LD10\u002C4-Pad3)*%
X243686700Y-132043600D02*
X278372200Y-132043600D01*
%TO.N,Net-(LD10\u002C4-Pad2)*%
X243686700Y-132943600D02*
X278372200Y-132943600D01*
%TO.N,Net-(LD10\u002C5-Pad2)*%
X270356700Y-152374600D02*
X292723200Y-152374600D01*
%TO.N,Net-(LD10\u002C5-Pad3)*%
X270356700Y-151474600D02*
X292723200Y-151474600D01*
%TO.N,Net-(LD10\u002C3-Pad2)*%
X234288700Y-113131600D02*
X251892700Y-113131600D01*
%TO.N,Net-(LD10\u002C3-Pad3)*%
X234288700Y-112231600D02*
X251892700Y-112231600D01*
%TO.N,Net-(LD10\u002C2-Pad2)*%
X229399200Y-93700600D02*
X247003200Y-93700600D01*
%TO.N,Net-(LD10\u002C2-Pad3)*%
X229399200Y-92800600D02*
X247003200Y-92800600D01*
%TO.N,Net-(LD10\u002C0-Pad3)*%
X258657460Y-47652100D02*
X276261460Y-47652100D01*
%TO.N,Net-(LD10\u002C0-Pad2)*%
X258657460Y-48552100D02*
X276261460Y-48552100D01*
%TO.N,Net-(LD11\u002C2-Pad3)*%
X248703200Y-92800600D02*
X266307200Y-92800600D01*
%TO.N,Net-(LD11\u002C2-Pad2)*%
X248703200Y-93700600D02*
X266307200Y-93700600D01*
%TO.N,Net-(LD11\u002C0-Pad2)*%
X277961460Y-48552100D02*
X295565460Y-48552100D01*
%TO.N,Net-(LD11\u002C0-Pad3)*%
X277961460Y-47652100D02*
X295565460Y-47652100D01*
%TO.N,Net-(LD11\u002C4-Pad2)*%
X308467966Y-112185480D02*
X377056680Y-112185480D01*
X287709847Y-132943600D02*
X308467966Y-112185480D01*
X280072200Y-132943600D02*
X287709847Y-132943600D01*
X378002800Y-113131600D02*
X380378600Y-113131600D01*
X377056680Y-112185480D02*
X378002800Y-113131600D01*
%TO.N,Net-(LD11\u002C4-Pad3)*%
X308174699Y-111477470D02*
X378075870Y-111477470D01*
X287608570Y-132043600D02*
X308174699Y-111477470D01*
X280072200Y-132043600D02*
X287608570Y-132043600D01*
X378830000Y-112231600D02*
X380378600Y-112231600D01*
X378075870Y-111477470D02*
X378830000Y-112231600D01*
%TO.N,Net-(LD12\u002C0-Pad2)*%
X297265460Y-48552100D02*
X318135900Y-48552100D01*
%TO.N,Net-(LD12\u002C0-Pad3)*%
X297265460Y-47652100D02*
X318135900Y-47652100D01*
%TO.N,Net-(LD12\u002C2-Pad2)*%
X290208600Y-93700600D02*
X290234000Y-93726000D01*
X268007200Y-93700600D02*
X290208600Y-93700600D01*
%TO.N,Net-(LD12\u002C2-Pad3)*%
X290208600Y-92800600D02*
X290234000Y-92826000D01*
X268007200Y-92800600D02*
X290208600Y-92800600D01*
%TO.N,Net-(LD14\u002C6-Pad3)*%
X319531100Y-151347600D02*
X337135100Y-151347600D01*
%TO.N,Net-(LD14\u002C6-Pad2)*%
X319531100Y-152247600D02*
X337135100Y-152247600D01*
%TO.N,Net-(LD14\u002C0-Pad3)*%
X319835900Y-47652100D02*
X337693900Y-47652100D01*
%TO.N,Net-(LD14\u002C0-Pad2)*%
X319835900Y-48552100D02*
X337693900Y-48552100D01*
%TO.N,Net-(LD14\u002C3-Pad3)*%
X319594600Y-92800600D02*
X337198600Y-92800600D01*
%TO.N,Net-(LD14\u002C3-Pad2)*%
X319594600Y-93700600D02*
X337198600Y-93700600D01*
%TO.N,Net-(LD15\u002C6-Pad3)*%
X338835100Y-151347600D02*
X356439100Y-151347600D01*
%TO.N,Net-(LD15\u002C6-Pad2)*%
X338835100Y-152247600D02*
X356439100Y-152247600D01*
%TO.N,Net-(LD15\u002C0-Pad2)*%
X339393900Y-48552100D02*
X356997900Y-48552100D01*
%TO.N,Net-(LD15\u002C0-Pad3)*%
X339393900Y-47652100D02*
X356997900Y-47652100D01*
%TO.N,Net-(LD16\u002C0-Pad3)*%
X380289700Y-47652100D02*
X380302400Y-47664800D01*
X358697900Y-47652100D02*
X380289700Y-47652100D01*
%TO.N,Net-(LD16\u002C0-Pad2)*%
X380289700Y-48552100D02*
X380302400Y-48564800D01*
X358697900Y-48552100D02*
X380289700Y-48552100D01*
%TO.N,Net-(LD16\u002C6-Pad2)*%
X358139100Y-152247600D02*
X387654800Y-152247600D01*
X388162800Y-151739600D02*
X390157600Y-151739600D01*
X387654800Y-152247600D02*
X388162800Y-151739600D01*
%TO.N,Net-(LD16\u002C6-Pad3)*%
X358139100Y-151347600D02*
X387335600Y-151347600D01*
X387843600Y-150839600D02*
X390157600Y-150839600D01*
X387335600Y-151347600D02*
X387843600Y-150839600D01*
%TO.N,Net-(LD16\u002C4-Pad3)*%
X382078600Y-112231600D02*
X399682600Y-112231600D01*
%TO.N,Net-(LD16\u002C4-Pad2)*%
X382078600Y-113131600D02*
X399682600Y-113131600D01*
%TO.N,Net-(LD17\u002C0-Pad2)*%
X382002400Y-48564800D02*
X399606400Y-48564800D01*
%TO.N,Net-(LD17\u002C0-Pad3)*%
X382002400Y-47664800D02*
X399606400Y-47664800D01*
%TO.N,Net-(LD17\u002C6-Pad3)*%
X391857600Y-150839600D02*
X418986600Y-150839600D01*
%TO.N,Net-(LD17\u002C6-Pad2)*%
X391857600Y-151739600D02*
X418986600Y-151739600D01*
%TO.N,Net-(LD17\u002C4-Pad2)*%
X418923100Y-113131600D02*
X418986600Y-113068100D01*
X401382600Y-113131600D02*
X418923100Y-113131600D01*
%TO.N,Net-(LD17\u002C4-Pad3)*%
X418923100Y-112231600D02*
X418986600Y-112168100D01*
X401382600Y-112231600D02*
X418923100Y-112231600D01*
%TO.N,Net-(LD18\u002C6-Pad2)*%
X430310822Y-144119600D02*
X438544600Y-144119600D01*
X422690822Y-151739600D02*
X430310822Y-144119600D01*
X420686600Y-151739600D02*
X422690822Y-151739600D01*
%TO.N,Net-(LD18\u002C6-Pad3)*%
X420686600Y-150839600D02*
X422589546Y-150839600D01*
X430209546Y-143219600D02*
X438544600Y-143219600D01*
X422589546Y-150839600D02*
X430209546Y-143219600D01*
%TO.N,Net-(LD18\u002C0-Pad3)*%
X401306400Y-47664800D02*
X418910400Y-47664800D01*
%TO.N,Net-(LD18\u002C0-Pad2)*%
X401306400Y-48564800D02*
X418910400Y-48564800D01*
%TO.N,Net-(LD18\u002C4-Pad3)*%
X420686600Y-112168100D02*
X422068856Y-112168100D01*
X431530356Y-102706600D02*
X438290600Y-102706600D01*
X422068856Y-112168100D02*
X431530356Y-102706600D01*
%TO.N,Net-(LD18\u002C4-Pad2)*%
X431631632Y-103606600D02*
X438290600Y-103606600D01*
X422170132Y-113068100D02*
X431631632Y-103606600D01*
X420686600Y-113068100D02*
X422170132Y-113068100D01*
%TO.N,Net-(LD19\u002C0-Pad2)*%
X420610400Y-48564800D02*
X438227100Y-48564800D01*
%TO.N,Net-(LD19\u002C0-Pad3)*%
X420610400Y-47664800D02*
X438227100Y-47664800D01*
D22*
%TO.N,MAIN_VBUS*%
X390017000Y-26832800D02*
X389991600Y-26858200D01*
X390017000Y-21844000D02*
X390017000Y-26832800D01*
D20*
%TO.N,KEY_ROW5*%
X20967700Y-156551800D02*
X285762700Y-156551800D01*
X373164100Y-136612800D02*
X412026100Y-136612800D01*
X372656100Y-137120800D02*
X373164100Y-136612800D01*
D21*
X308326398Y-156551800D02*
X327757398Y-137120800D01*
X327757398Y-137120800D02*
X330174600Y-137120800D01*
X285762700Y-156551800D02*
X308326398Y-156551800D01*
X371641200Y-136612800D02*
X373164100Y-136612800D01*
X371133200Y-137120800D02*
X371641200Y-136612800D01*
X330174600Y-137120800D02*
X371133200Y-137120800D01*
X396049500Y-71183500D02*
X373634000Y-71183500D01*
X373634000Y-71183500D02*
X371221000Y-68770500D01*
X366849099Y-45666099D02*
X367379250Y-46196250D01*
X352447299Y-45666099D02*
X366849099Y-45666099D01*
X352051600Y-45270400D02*
X352447299Y-45666099D01*
X352036400Y-31445200D02*
X352036400Y-45270400D01*
X350672400Y-22352000D02*
X350672400Y-30081200D01*
X352036400Y-45270400D02*
X352051600Y-45270400D01*
X350128600Y-21808200D02*
X350672400Y-22352000D01*
X350672400Y-30081200D02*
X352036400Y-31445200D01*
X349351600Y-21808200D02*
X350128600Y-21808200D01*
D20*
%TO.N,KEY_ROW4*%
X411962600Y-117308800D02*
X412026100Y-117245300D01*
X373418100Y-117308800D02*
X411962600Y-117308800D01*
X431330100Y-108318300D02*
X431330100Y-107326600D01*
X422403100Y-117245300D02*
X431330100Y-108318300D01*
X412026100Y-117245300D02*
X422403100Y-117245300D01*
D21*
X271538700Y-137184300D02*
X271602200Y-137120800D01*
X30365700Y-137184300D02*
X271538700Y-137184300D01*
X368274600Y-113601500D02*
X371981900Y-117308800D01*
X371981900Y-117308800D02*
X373418100Y-117308800D01*
X309054500Y-113601500D02*
X368274600Y-113601500D01*
X285535200Y-137120800D02*
X309054500Y-113601500D01*
X271602200Y-137120800D02*
X285535200Y-137120800D01*
X350036400Y-31445200D02*
X350036400Y-45236400D01*
X350036400Y-45236400D02*
X350837500Y-46037500D01*
X349351600Y-30760400D02*
X350036400Y-31445200D01*
X349351600Y-26858200D02*
X349351600Y-30760400D01*
D20*
%TO.N,KEY_ROW3*%
X411899100Y-97877800D02*
X412026100Y-98004800D01*
X51765200Y-117435800D02*
X51892200Y-117308800D01*
X25603200Y-117435800D02*
X51765200Y-117435800D01*
X51892200Y-117308800D02*
X71196200Y-117308800D01*
X276364700Y-117308800D02*
X276428200Y-117372300D01*
X71196200Y-117308800D02*
X276364700Y-117308800D01*
X276428200Y-117372300D02*
X276579201Y-117523301D01*
D21*
X373418100Y-98004800D02*
X412026100Y-98004800D01*
X311188100Y-97877800D02*
X349796100Y-97877800D01*
X373291100Y-97877800D02*
X373418100Y-98004800D01*
X349796100Y-97877800D02*
X373291100Y-97877800D01*
X276428200Y-117372300D02*
X292964700Y-117372300D01*
X311188100Y-99148900D02*
X311188100Y-97877800D01*
X292964700Y-117372300D02*
X311188100Y-99148900D01*
X346811600Y-21808200D02*
X347626700Y-21808200D01*
X348397599Y-22579099D02*
X348397599Y-45873901D01*
X347626700Y-21808200D02*
X348397599Y-22579099D01*
X348170500Y-46101000D02*
X346646500Y-46101000D01*
X348397599Y-45873901D02*
X348170500Y-46101000D01*
%TO.N,KEY_ROW2*%
X283099700Y-97881800D02*
X283159200Y-97941300D01*
X23067200Y-97881800D02*
X283099700Y-97881800D01*
X23063200Y-97877800D02*
X23067200Y-97881800D01*
X346811600Y-30670000D02*
X344461600Y-33020000D01*
X346811600Y-26858200D02*
X346811600Y-30670000D01*
X336931000Y-45085000D02*
X340893400Y-45085000D01*
X322262500Y-44704000D02*
X323659500Y-46101000D01*
X314261500Y-44704000D02*
X322262500Y-44704000D01*
X335915000Y-46101000D02*
X336931000Y-45085000D01*
X312864500Y-46101000D02*
X314261500Y-44704000D01*
X323659500Y-46101000D02*
X335915000Y-46101000D01*
X306197000Y-46101000D02*
X312864500Y-46101000D01*
X343852500Y-45085000D02*
X344461600Y-44475900D01*
X344461600Y-33020000D02*
X344461600Y-44475900D01*
X340893400Y-45085000D02*
X343852500Y-45085000D01*
D20*
%TO.N,KEY_ROW1*%
X431266600Y-78700800D02*
X431330100Y-78637300D01*
D21*
X278206200Y-78700800D02*
X278269700Y-78637300D01*
X18554700Y-78700800D02*
X278206200Y-78700800D01*
X278269700Y-78637300D02*
X310934100Y-78637300D01*
X310934100Y-78637300D02*
X349542100Y-78637300D01*
X349542100Y-78637300D02*
X373418100Y-78637300D01*
X373418100Y-78637300D02*
X431330100Y-78637300D01*
X292544500Y-33337500D02*
X292544500Y-42799000D01*
X343268300Y-32956500D02*
X292925500Y-32956500D01*
X345490800Y-30734000D02*
X343268300Y-32956500D01*
X345490800Y-22280400D02*
X345490800Y-30734000D01*
X292925500Y-32956500D02*
X292544500Y-33337500D01*
X345018600Y-21808200D02*
X345490800Y-22280400D01*
X344271600Y-21808200D02*
X345018600Y-21808200D01*
%TO.N,KEY_ROW0*%
X18618200Y-52856300D02*
X431215800Y-52856300D01*
X431215800Y-52856300D02*
X431266600Y-52907100D01*
X290893500Y-33362900D02*
X290893500Y-42799000D01*
X292007910Y-32248490D02*
X290893500Y-33362900D01*
X342706310Y-32248490D02*
X292007910Y-32248490D01*
X344271600Y-30683200D02*
X342706310Y-32248490D01*
X344271600Y-26858200D02*
X344271600Y-30683200D01*
%TO.N,Net-(LD17\u002C7-Pad2)*%
X399822300Y-67475100D02*
X399873100Y-67424300D01*
X381951600Y-67475100D02*
X399822300Y-67475100D01*
%TO.N,Net-(LD17\u002C7-Pad3)*%
X399822300Y-66575100D02*
X399873100Y-66524300D01*
X381951600Y-66575100D02*
X399822300Y-66575100D01*
%TO.N,Net-(LD18\u002C7-Pad3)*%
X401573100Y-66524300D02*
X419177100Y-66524300D01*
%TO.N,Net-(LD18\u002C7-Pad2)*%
X401573100Y-67424300D02*
X419177100Y-67424300D01*
%TO.N,Net-(LD19\u002C7-Pad2)*%
X438430300Y-67424300D02*
X438481100Y-67475100D01*
X420877100Y-67424300D02*
X438430300Y-67424300D01*
%TO.N,Net-(LD19\u002C7-Pad3)*%
X438430300Y-66524300D02*
X438481100Y-66575100D01*
X420877100Y-66524300D02*
X438430300Y-66524300D01*
%TO.N,Net-(LD0\u002C5-Pad5)*%
X24866600Y-152323800D02*
X24183990Y-151641190D01*
X27737700Y-152323800D02*
X24866600Y-152323800D01*
X440557802Y-103606600D02*
X439990600Y-103606600D01*
X441259344Y-105704256D02*
X441259344Y-104308142D01*
X440591590Y-106372010D02*
X441259344Y-105704256D01*
X441259344Y-104308142D02*
X440557802Y-103606600D01*
X437746790Y-106372010D02*
X440591590Y-106372010D01*
X435389601Y-110848521D02*
X435389601Y-108729199D01*
X435389601Y-108729199D02*
X437746790Y-106372010D01*
X434698521Y-111539601D02*
X435389601Y-110848521D01*
X430953599Y-111539601D02*
X434698521Y-111539601D01*
D22*
X428450390Y-114042810D02*
X430953599Y-111539601D01*
X423672000Y-127508000D02*
X428450390Y-122729610D01*
X330004304Y-127508000D02*
X423672000Y-127508000D01*
X309376314Y-148135990D02*
X330004304Y-127508000D01*
X296364010Y-148135990D02*
X309376314Y-148135990D01*
X294887620Y-146659600D02*
X296364010Y-148135990D01*
X272894410Y-148135990D02*
X291588810Y-148135990D01*
X293065200Y-146659600D02*
X294887620Y-146659600D01*
X271570420Y-146812000D02*
X272894410Y-148135990D01*
X269595600Y-146812000D02*
X271570420Y-146812000D01*
X268277990Y-148129610D02*
X269595600Y-146812000D01*
X268277990Y-148135990D02*
X268277990Y-148129610D01*
X248205610Y-148135990D02*
X268277990Y-148135990D01*
X246780020Y-146710400D02*
X248205610Y-148135990D01*
X244506780Y-146710400D02*
X246780020Y-146710400D01*
X243081190Y-148135990D02*
X244506780Y-146710400D01*
X79851220Y-146608800D02*
X81378410Y-148135990D01*
X76555600Y-146608800D02*
X79851220Y-146608800D01*
X24183990Y-149915113D02*
X27134703Y-146964400D01*
X291588810Y-148135990D02*
X293065200Y-146659600D01*
X75028410Y-148135990D02*
X76555600Y-146608800D01*
X56842010Y-148135990D02*
X75028410Y-148135990D01*
X81378410Y-148135990D02*
X112112410Y-148135990D01*
X51000010Y-148135990D02*
X52628800Y-146507200D01*
X29924390Y-148135990D02*
X51000010Y-148135990D01*
X55213220Y-146507200D02*
X56842010Y-148135990D01*
X28752800Y-146964400D02*
X29924390Y-148135990D01*
X27134703Y-146964400D02*
X28752800Y-146964400D01*
X147929600Y-146354800D02*
X150971220Y-146354800D01*
X52628800Y-146507200D02*
X55213220Y-146507200D01*
X218239990Y-148135990D02*
X219286379Y-147089601D01*
X428450390Y-122729610D02*
X428450390Y-114042810D01*
X24183990Y-151641190D02*
X24183990Y-149915113D01*
X112112410Y-148135990D02*
X114096800Y-146151600D01*
X120145190Y-148135990D02*
X146148410Y-148135990D01*
X114096800Y-146151600D02*
X118160800Y-146151600D01*
X118160800Y-146151600D02*
X120145190Y-148135990D01*
X146148410Y-148135990D02*
X147929600Y-146354800D01*
X150971220Y-146354800D02*
X152752410Y-148135990D01*
X152752410Y-148135990D02*
X175561610Y-148135990D01*
X175561610Y-148135990D02*
X176530000Y-147167600D01*
X176530000Y-147167600D02*
X181457600Y-147167600D01*
X181457600Y-147167600D02*
X182425990Y-148135990D01*
X182425990Y-148135990D02*
X218239990Y-148135990D01*
X219286379Y-147089601D02*
X222984801Y-147089601D01*
X224031190Y-148135990D02*
X243081190Y-148135990D01*
X222984801Y-147089601D02*
X224031190Y-148135990D01*
D21*
%TO.N,Net-(LD0\u002C5-Pad4)*%
X25693800Y-151423800D02*
X25400000Y-151130000D01*
X27737700Y-151423800D02*
X25693800Y-151423800D01*
X436097611Y-109341989D02*
X436097611Y-111141788D01*
X440208278Y-107756599D02*
X437683001Y-107756599D01*
X436097611Y-111141788D02*
X433650599Y-113588800D01*
X437683001Y-107756599D02*
X436097611Y-109341989D01*
X441967354Y-105997523D02*
X440208278Y-107756599D01*
X441967354Y-104014875D02*
X441967354Y-105997523D01*
X433650599Y-113588800D02*
X430784000Y-113588800D01*
X440659079Y-102706600D02*
X441967354Y-104014875D01*
X439990600Y-102706600D02*
X440659079Y-102706600D01*
D22*
X430636058Y-113588800D02*
X430784000Y-113588800D01*
X429666400Y-114558458D02*
X430636058Y-113588800D01*
X424129200Y-128778000D02*
X429666400Y-123240800D01*
X330454000Y-128778000D02*
X424129200Y-128778000D01*
X295860324Y-149352000D02*
X309880000Y-149352000D01*
X294383934Y-147875610D02*
X295860324Y-149352000D01*
X293568886Y-147875610D02*
X294383934Y-147875610D01*
X292092497Y-149352000D02*
X293568886Y-147875610D01*
X272390724Y-149352000D02*
X292092497Y-149352000D01*
X269544800Y-148588877D02*
X269544800Y-148582496D01*
X247701924Y-149352000D02*
X268781677Y-149352000D01*
X246276334Y-147926410D02*
X247701924Y-149352000D01*
X243584877Y-149352000D02*
X245010467Y-147926410D01*
X224789998Y-149351998D02*
X224790000Y-149352000D01*
X219790066Y-148305611D02*
X222481115Y-148305611D01*
X218743677Y-149352000D02*
X219790066Y-148305611D01*
X56338324Y-149352000D02*
X75590400Y-149352000D01*
X429666400Y-123240800D02*
X429666400Y-114558458D01*
X51612800Y-149242897D02*
X53132487Y-147723210D01*
X222481115Y-148305611D02*
X223527502Y-149351998D01*
X53132487Y-147723210D02*
X54709534Y-147723210D01*
X269544800Y-148582496D02*
X270099286Y-148028010D01*
X27638389Y-148180410D02*
X27641579Y-148183600D01*
X268781677Y-149352000D02*
X269544800Y-148588877D01*
X27641579Y-148183600D02*
X28252304Y-148183600D01*
X51612800Y-149352000D02*
X51612800Y-149242897D01*
X271066734Y-148028010D02*
X272390724Y-149352000D01*
X54709534Y-147723210D02*
X56338324Y-149352000D01*
X146652097Y-149352000D02*
X148433287Y-147570810D01*
X25400000Y-150418800D02*
X27638389Y-148180410D01*
X309880000Y-149352000D02*
X330454000Y-128778000D01*
X75590400Y-149293697D02*
X77059287Y-147824810D01*
X75590400Y-149352000D02*
X75590400Y-149293697D01*
X25400000Y-151130000D02*
X25400000Y-150418800D01*
X177033687Y-148383610D02*
X180953914Y-148383610D01*
X77059287Y-147824810D02*
X79347534Y-147824810D01*
X245010467Y-147926410D02*
X246276334Y-147926410D01*
X79347534Y-147824810D02*
X80874724Y-149352000D01*
X80874724Y-149352000D02*
X112616097Y-149352000D01*
X223527502Y-149351998D02*
X224789998Y-149351998D01*
X117657114Y-147367610D02*
X119641504Y-149352000D01*
X224790000Y-149352000D02*
X243584877Y-149352000D01*
X119641504Y-149352000D02*
X146652097Y-149352000D01*
X28252304Y-148183600D02*
X29420704Y-149352000D01*
X181922304Y-149352000D02*
X218743677Y-149352000D01*
X148433287Y-147570810D02*
X150467534Y-147570810D01*
X150467534Y-147570810D02*
X152248724Y-149352000D01*
X152248724Y-149352000D02*
X176174400Y-149352000D01*
X112616097Y-149352000D02*
X114600487Y-147367610D01*
X176174400Y-149352000D02*
X176174400Y-149242897D01*
X270099286Y-148028010D02*
X271066734Y-148028010D01*
X176174400Y-149242897D02*
X177033687Y-148383610D01*
X29420704Y-149352000D02*
X51612800Y-149352000D01*
X114600487Y-147367610D02*
X117657114Y-147367610D01*
X180953914Y-148383610D02*
X181922304Y-149352000D01*
D21*
%TO.N,Net-(LD0\u002C1-Pad5)*%
X21285200Y-74472800D02*
X20866100Y-74053700D01*
X25324700Y-74472800D02*
X21285200Y-74472800D01*
X440494302Y-48564800D02*
X439927100Y-48564800D01*
X441325000Y-49395498D02*
X440494302Y-48564800D01*
X441325000Y-51117500D02*
X441325000Y-49395498D01*
X440067411Y-52375089D02*
X441325000Y-51117500D01*
X434190912Y-52375089D02*
X440067411Y-52375089D01*
X426990301Y-59575700D02*
X434190912Y-52375089D01*
X425983400Y-59575700D02*
X426990301Y-59575700D01*
D22*
X425273999Y-60285101D02*
X425983400Y-59575700D01*
X420168943Y-60285101D02*
X425273999Y-60285101D01*
X418292941Y-58409099D02*
X420168943Y-60285101D01*
X408861943Y-58409099D02*
X418292941Y-58409099D01*
X406985941Y-60285101D02*
X408861943Y-58409099D01*
X20866100Y-74053700D02*
X20866100Y-72720200D01*
X398988941Y-58409099D02*
X400864943Y-60285101D01*
X20866100Y-72720200D02*
X24336301Y-69249999D01*
X24336301Y-69249999D02*
X364950301Y-69249999D01*
X364950301Y-69249999D02*
X371373400Y-62826900D01*
X371373400Y-62826900D02*
X371373400Y-60405658D01*
X400864943Y-60285101D02*
X406985941Y-60285101D01*
X371373400Y-60405658D02*
X373369959Y-58409099D01*
X373369959Y-58409099D02*
X379684941Y-58409099D01*
X390078701Y-58409099D02*
X398988941Y-58409099D01*
X379684941Y-58409099D02*
X381560943Y-60285101D01*
X381560943Y-60285101D02*
X388202699Y-60285101D01*
X388202699Y-60285101D02*
X390078701Y-58409099D01*
D21*
%TO.N,Net-(LD0\u002C1-Pad4)*%
X22861700Y-73572800D02*
X22593300Y-73304400D01*
X25324700Y-73572800D02*
X22861700Y-73572800D01*
X22593300Y-73304400D02*
X22593300Y-72712696D01*
X440835100Y-47664800D02*
X439927100Y-47664800D01*
X442468000Y-49297700D02*
X440835100Y-47664800D01*
X442468000Y-51054000D02*
X442468000Y-49297700D01*
X440438901Y-53083099D02*
X442468000Y-51054000D01*
X434484179Y-53083099D02*
X440438901Y-53083099D01*
X426783500Y-60783778D02*
X434484179Y-53083099D01*
D22*
X424606998Y-62960280D02*
X426783500Y-60783778D01*
X372959717Y-62960280D02*
X424606998Y-62960280D01*
X365028597Y-70891400D02*
X372959717Y-62960280D01*
X24452697Y-70891400D02*
X365028597Y-70891400D01*
X23554187Y-71789910D02*
X24452697Y-70891400D01*
X23516086Y-71789910D02*
X23554187Y-71789910D01*
X22593300Y-72712696D02*
X23516086Y-71789910D01*
%TO.N,Net-(LD0\u002C3-Pad5)*%
X283159200Y-101904800D02*
X276250400Y-101904800D01*
X276250400Y-101904800D02*
X270154400Y-108000800D01*
X270154400Y-108000800D02*
X32461200Y-108000800D01*
X32461200Y-108000800D02*
X29362400Y-111099600D01*
D21*
X29743400Y-113207800D02*
X29362400Y-112826800D01*
X32373200Y-113207800D02*
X29743400Y-113207800D01*
X29362400Y-112826800D02*
X29362400Y-111099600D01*
X286650122Y-101904800D02*
X283159200Y-101904800D01*
X289255200Y-96570800D02*
X287345701Y-98480299D01*
X292622724Y-96570800D02*
X289255200Y-96570800D01*
X293878000Y-95315524D02*
X292622724Y-96570800D01*
X293878000Y-94742000D02*
X293878000Y-95315524D01*
X287345701Y-101209221D02*
X286650122Y-101904800D01*
X292862000Y-93726000D02*
X293878000Y-94742000D01*
X287345701Y-98480299D02*
X287345701Y-101209221D01*
X291934000Y-93726000D02*
X292862000Y-93726000D01*
%TO.N,Net-(LD0\u002C3-Pad4)*%
X32370600Y-112307800D02*
X32359600Y-112318800D01*
X32373200Y-112307800D02*
X32370600Y-112307800D01*
D22*
X283362400Y-103835200D02*
X276039696Y-103835200D01*
X276039696Y-103835200D02*
X270658087Y-109216810D01*
D21*
X31078600Y-112307800D02*
X30835600Y-112064800D01*
X32373200Y-112307800D02*
X31078600Y-112307800D01*
D22*
X270658087Y-109216810D02*
X32964886Y-109216810D01*
X32964886Y-109216810D02*
X30835600Y-111346096D01*
D21*
X30835600Y-112064800D02*
X30835600Y-111346096D01*
X285720999Y-103835200D02*
X283362400Y-103835200D01*
X288053711Y-101502488D02*
X285720999Y-103835200D01*
X288053711Y-98788289D02*
X288053711Y-101502488D01*
X292915990Y-97278810D02*
X289563190Y-97278810D01*
X289563190Y-97278810D02*
X288053711Y-98788289D01*
X294589200Y-95605600D02*
X292915990Y-97278810D01*
X294589200Y-94284800D02*
X294589200Y-95605600D01*
X293130400Y-92826000D02*
X294589200Y-94284800D01*
X291934000Y-92826000D02*
X293130400Y-92826000D01*
%TO.N,Net-(LD3\u002C5\u002C1-Pad2)*%
X179805700Y-152349200D02*
X220231600Y-152349200D01*
%TO.N,Net-(LD3\u002C5\u002C1-Pad3)*%
X179805700Y-151449200D02*
X220231600Y-151449200D01*
%TO.N,Net-(LD3\u002C5\u002C1-Pad5)*%
X178080300Y-152374600D02*
X178105700Y-152349200D01*
X150278200Y-152374600D02*
X178080300Y-152374600D01*
%TO.N,Net-(LD3\u002C5\u002C1-Pad4)*%
X178080300Y-151474600D02*
X178105700Y-151449200D01*
X150278200Y-151474600D02*
X178080300Y-151474600D01*
%TO.N,LED_SCL_STATUS0*%
X380251600Y-67475100D02*
X377228100Y-67475100D01*
X377228100Y-67475100D02*
X377190000Y-67437000D01*
X437424077Y-34290000D02*
X411581600Y-34290000D01*
X449119610Y-45985533D02*
X437424077Y-34290000D01*
X411581600Y-34290000D02*
X399099800Y-21808200D01*
X445402867Y-64106410D02*
X449119610Y-60389667D01*
X399099800Y-21808200D02*
X392531600Y-21808200D01*
X438407190Y-64106410D02*
X445402867Y-64106410D01*
X449119610Y-60389667D02*
X449119610Y-45985533D01*
X378091700Y-65468500D02*
X378324920Y-65235280D01*
X378091700Y-65468500D02*
X378929900Y-64630300D01*
X438407190Y-64106410D02*
X437883301Y-64630300D01*
X437883301Y-64630300D02*
X421030400Y-64630300D01*
D23*
X378958401Y-64601799D02*
X378929900Y-64630300D01*
X420406541Y-64601799D02*
X378958401Y-64601799D01*
X420435042Y-64630300D02*
X420406541Y-64601799D01*
X421030400Y-64630300D02*
X420435042Y-64630300D01*
D21*
%TO.N,LED_SDA_STATUS0*%
X401051000Y-26858200D02*
X392531600Y-26858200D01*
X437130809Y-34998009D02*
X409190809Y-34998009D01*
X409190809Y-34998009D02*
X401051000Y-26858200D01*
X445109600Y-63398400D02*
X448411600Y-60096400D01*
X448411600Y-60096400D02*
X448411600Y-46278800D01*
X437590034Y-63922290D02*
X438113924Y-63398400D01*
X438113924Y-63398400D02*
X445109600Y-63398400D01*
X376971100Y-64684100D02*
X377732910Y-63922290D01*
X377732910Y-63922290D02*
X437590034Y-63922290D01*
X376971100Y-66075100D02*
X376971100Y-64684100D01*
X448411600Y-46278800D02*
X437130809Y-34998009D01*
X377471100Y-66575100D02*
X376971100Y-66075100D01*
X380251600Y-66575100D02*
X377471100Y-66575100D01*
D22*
%TO.N,Net-(LD0\u002C2-Pad5)*%
X422166441Y-88606101D02*
X355872441Y-88606101D01*
X429644942Y-81127600D02*
X422166441Y-88606101D01*
X431967123Y-81127600D02*
X429644942Y-81127600D01*
X355859741Y-88618801D02*
X23852399Y-88618801D01*
X355872441Y-88606101D02*
X355859741Y-88618801D01*
X23852399Y-88618801D02*
X22504400Y-89966800D01*
X22504400Y-89966800D02*
X22504400Y-92506800D01*
X22504400Y-92506800D02*
X23876000Y-93878400D01*
D21*
X25849487Y-93878400D02*
X23876000Y-93878400D01*
X26052687Y-93675200D02*
X25849487Y-93878400D01*
X30036400Y-93675200D02*
X26052687Y-93675200D01*
X440557802Y-74460100D02*
X439990600Y-74460100D01*
X441137601Y-76013021D02*
X441137601Y-75039899D01*
X439477422Y-77673200D02*
X441137601Y-76013021D01*
X435421523Y-77673200D02*
X439477422Y-77673200D01*
X441137601Y-75039899D02*
X440557802Y-74460100D01*
X431967123Y-81127600D02*
X435421523Y-77673200D01*
%TO.N,Net-(LD0\u002C2-Pad4)*%
X30036400Y-92775200D02*
X25592200Y-92775200D01*
D22*
X24079200Y-91897200D02*
X24957200Y-92775200D01*
X24079200Y-90881200D02*
X24079200Y-91897200D01*
X25095200Y-89865200D02*
X24079200Y-90881200D01*
X24957200Y-92775200D02*
X25592200Y-92775200D01*
X422627038Y-89865200D02*
X25095200Y-89865200D01*
X429434238Y-83058000D02*
X422627038Y-89865200D01*
X431038000Y-83058000D02*
X429434238Y-83058000D01*
D21*
X434287622Y-83058000D02*
X431038000Y-83058000D01*
X435389601Y-81437177D02*
X435389601Y-81956021D01*
X437962679Y-78864099D02*
X435389601Y-81437177D01*
X439499101Y-78864099D02*
X437962679Y-78864099D01*
X441845611Y-76517589D02*
X439499101Y-78864099D01*
X441845611Y-74746632D02*
X441845611Y-76517589D01*
X440659079Y-73560100D02*
X441845611Y-74746632D01*
X435389601Y-81956021D02*
X434287622Y-83058000D01*
X439990600Y-73560100D02*
X440659079Y-73560100D01*
%TO.N,Net-(LD1\u002C1-Pad2)*%
X63729500Y-74472800D02*
X63742200Y-74460100D01*
X46239800Y-74472800D02*
X63729500Y-74472800D01*
%TO.N,Net-(LD1\u002C1-Pad3)*%
X63729500Y-73572800D02*
X63742200Y-73560100D01*
X46239800Y-73572800D02*
X63729500Y-73572800D01*
%TO.N,Net-(LD2\u002C1-Pad2)*%
X65442200Y-74460100D02*
X82538200Y-74460100D01*
%TO.N,Net-(LD2\u002C1-Pad3)*%
X65442200Y-73560100D02*
X82538200Y-73560100D01*
%TO.N,Net-(LD3\u002C1-Pad2)*%
X84238200Y-74460100D02*
X101842200Y-74460100D01*
%TO.N,Net-(LD3\u002C1-Pad3)*%
X84238200Y-73560100D02*
X101842200Y-73560100D01*
%TO.N,Net-(LD4\u002C1-Pad2)*%
X103542200Y-74460100D02*
X121146200Y-74460100D01*
%TO.N,Net-(LD4\u002C1-Pad3)*%
X103542200Y-73560100D02*
X121146200Y-73560100D01*
%TO.N,Net-(LD5\u002C1-Pad2)*%
X122846200Y-74460100D02*
X140450200Y-74460100D01*
%TO.N,Net-(LD5\u002C1-Pad3)*%
X122846200Y-73560100D02*
X140450200Y-73560100D01*
%TO.N,Net-(LD6\u002C1-Pad2)*%
X142150200Y-74460100D02*
X159754200Y-74460100D01*
%TO.N,Net-(LD6\u002C1-Pad3)*%
X142150200Y-73560100D02*
X159754200Y-73560100D01*
%TO.N,Net-(LD7\u002C1-Pad2)*%
X161454200Y-74460100D02*
X179058200Y-74460100D01*
%TO.N,Net-(LD7\u002C1-Pad3)*%
X161454200Y-73560100D02*
X179058200Y-73560100D01*
%TO.N,Net-(LD8\u002C1-Pad2)*%
X180758200Y-74460100D02*
X198362200Y-74460100D01*
%TO.N,Net-(LD8\u002C1-Pad3)*%
X180758200Y-73560100D02*
X198362200Y-73560100D01*
%TO.N,Net-(LD11\u002C1-Pad2)*%
X238670200Y-74460100D02*
X256274200Y-74460100D01*
%TO.N,Net-(LD11\u002C1-Pad3)*%
X238670200Y-73560100D02*
X256274200Y-73560100D01*
%TO.N,Net-(LD12\u002C1-Pad2)*%
X257974200Y-74460100D02*
X285039700Y-74460100D01*
%TO.N,Net-(LD12\u002C1-Pad3)*%
X257974200Y-73560100D02*
X285039700Y-73560100D01*
%TO.N,Net-(LD13\u002C1-Pad2)*%
X286739700Y-74460100D02*
X317894600Y-74460100D01*
%TO.N,Net-(LD13\u002C1-Pad3)*%
X286739700Y-73560100D02*
X317894600Y-73560100D01*
%TO.N,Net-(LD14\u002C1-Pad2)*%
X319594600Y-74460100D02*
X337198600Y-74460100D01*
%TO.N,Net-(LD14\u002C1-Pad3)*%
X319594600Y-73560100D02*
X337198600Y-73560100D01*
%TO.N,Net-(LD15\u002C1-Pad2)*%
X356555400Y-74460100D02*
X356580800Y-74485500D01*
X338898600Y-74460100D02*
X356555400Y-74460100D01*
%TO.N,Net-(LD15\u002C1-Pad3)*%
X356555400Y-73560100D02*
X356580800Y-73585500D01*
X338898600Y-73560100D02*
X356555400Y-73560100D01*
%TO.N,Net-(LD16\u002C1-Pad2)*%
X380353200Y-74485500D02*
X380378600Y-74460100D01*
X358280800Y-74485500D02*
X380353200Y-74485500D01*
%TO.N,Net-(LD16\u002C1-Pad3)*%
X380353200Y-73585500D02*
X380378600Y-73560100D01*
X358280800Y-73585500D02*
X380353200Y-73585500D01*
%TO.N,Net-(LD17\u002C1-Pad2)*%
X382078600Y-74460100D02*
X399682600Y-74460100D01*
%TO.N,Net-(LD17\u002C1-Pad3)*%
X382078600Y-73560100D02*
X399682600Y-73560100D01*
%TO.N,Net-(LD18\u002C1-Pad2)*%
X418973900Y-74460100D02*
X418986600Y-74472800D01*
X401382600Y-74460100D02*
X418973900Y-74460100D01*
%TO.N,Net-(LD18\u002C1-Pad3)*%
X418973900Y-73560100D02*
X418986600Y-73572800D01*
X401382600Y-73560100D02*
X418973900Y-73560100D01*
%TO.N,Net-(LD19\u002C1-Pad2)*%
X438277900Y-74472800D02*
X438290600Y-74460100D01*
X420686600Y-74472800D02*
X438277900Y-74472800D01*
%TO.N,Net-(LD19\u002C1-Pad3)*%
X438277900Y-73572800D02*
X438290600Y-73560100D01*
X420686600Y-73572800D02*
X438277900Y-73572800D01*
D22*
%TO.N,Net-(LD0\u002C4-Pad5)*%
X408728042Y-102108000D02*
X402862441Y-107973601D01*
X412292800Y-102108000D02*
X408728042Y-102108000D01*
X305694741Y-107973601D02*
X286378041Y-127290301D01*
X402862441Y-107973601D02*
X305694741Y-107973601D01*
X286378041Y-127290301D02*
X36234899Y-127290301D01*
X36234899Y-127290301D02*
X33070800Y-130454400D01*
X33070800Y-130454400D02*
X33070800Y-132384800D01*
D21*
X33629600Y-132943600D02*
X33070800Y-132384800D01*
X37135700Y-132943600D02*
X33629600Y-132943600D01*
X421253802Y-93726000D02*
X420686600Y-93726000D01*
X421833601Y-94305799D02*
X421253802Y-93726000D01*
X421833601Y-95278921D02*
X421833601Y-94305799D01*
X420894511Y-96218011D02*
X421833601Y-95278921D01*
X417934411Y-96218011D02*
X420894511Y-96218011D01*
X416085601Y-98066821D02*
X417934411Y-96218011D01*
X416085601Y-101323521D02*
X416085601Y-98066821D01*
X415301122Y-102108000D02*
X416085601Y-101323521D01*
X412292800Y-102108000D02*
X415301122Y-102108000D01*
D22*
%TO.N,Net-(LD0\u002C4-Pad4)*%
X408568138Y-103987600D02*
X403366128Y-109189611D01*
X412089600Y-103987600D02*
X408568138Y-103987600D01*
X306198427Y-109189611D02*
X286881728Y-128506311D01*
X286881728Y-128506311D02*
X37152489Y-128506311D01*
X403366128Y-109189611D02*
X306198427Y-109189611D01*
X37152489Y-128506311D02*
X34899600Y-130759200D01*
D21*
X37135700Y-132043600D02*
X35117200Y-132043600D01*
X34899600Y-131826000D02*
X34899600Y-130759200D01*
X35117200Y-132043600D02*
X34899600Y-131826000D01*
X414422799Y-103987600D02*
X412089600Y-103987600D01*
X416793611Y-101616788D02*
X414422799Y-103987600D01*
X416793611Y-98360087D02*
X416793611Y-101616788D01*
X422541611Y-95572188D02*
X421187778Y-96926021D01*
X421187778Y-96926021D02*
X418227677Y-96926021D01*
X422541611Y-94012532D02*
X422541611Y-95572188D01*
X421547069Y-93017990D02*
X422541611Y-94012532D01*
X420830390Y-93017990D02*
X421547069Y-93017990D01*
X420686600Y-92874200D02*
X420830390Y-93017990D01*
X418227677Y-96926021D02*
X416793611Y-98360087D01*
X420686600Y-92826000D02*
X420686600Y-92874200D01*
%TO.N,Net-(LD1\u002C3-Pad2)*%
X60552700Y-113131600D02*
X78156700Y-113131600D01*
%TO.N,Net-(LD1\u002C3-Pad3)*%
X60552700Y-112231600D02*
X78156700Y-112231600D01*
%TO.N,Net-(LD1\u002C5-Pad2)*%
X54012200Y-152374600D02*
X76696200Y-152374600D01*
%TO.N,Net-(LD1\u002C5-Pad3)*%
X54012200Y-151474600D02*
X76696200Y-151474600D01*
%TO.N,Net-(LD2\u002C3-Pad2)*%
X79856700Y-113131600D02*
X97460700Y-113131600D01*
%TO.N,Net-(LD2\u002C3-Pad3)*%
X79856700Y-112231600D02*
X97460700Y-112231600D01*
%TO.N,Net-(LD2\u002C5-Pad2)*%
X113996100Y-152374600D02*
X114008800Y-152361900D01*
X78396200Y-152374600D02*
X113996100Y-152374600D01*
%TO.N,Net-(LD2\u002C5-Pad3)*%
X113996100Y-151474600D02*
X114008800Y-151461900D01*
X78396200Y-151474600D02*
X113996100Y-151474600D01*
%TO.N,Net-(LD3\u002C5\u002C0-Pad2)*%
X148565500Y-152361900D02*
X148578200Y-152374600D01*
X115708800Y-152361900D02*
X148565500Y-152361900D01*
%TO.N,Net-(LD3\u002C5\u002C0-Pad3)*%
X148565500Y-151461900D02*
X148578200Y-151474600D01*
X115708800Y-151461900D02*
X148565500Y-151461900D01*
%TO.N,Net-(LD3\u002C3-Pad2)*%
X99160700Y-113131600D02*
X116764700Y-113131600D01*
%TO.N,Net-(LD3\u002C3-Pad3)*%
X99160700Y-112231600D02*
X116764700Y-112231600D01*
%TO.N,Net-(LD4\u002C3-Pad2)*%
X118464700Y-113131600D02*
X136068700Y-113131600D01*
%TO.N,Net-(LD4\u002C3-Pad3)*%
X118464700Y-112231600D02*
X136068700Y-112231600D01*
%TO.N,Net-(LD5\u002C3-Pad2)*%
X137768700Y-113131600D02*
X155372700Y-113131600D01*
%TO.N,Net-(LD5\u002C3-Pad3)*%
X137768700Y-112231600D02*
X155372700Y-112231600D01*
%TO.N,Net-(LD6\u002C3-Pad2)*%
X157072700Y-113131600D02*
X174676700Y-113131600D01*
%TO.N,Net-(LD6\u002C3-Pad3)*%
X157072700Y-112231600D02*
X174676700Y-112231600D01*
%TO.N,Net-(LD7\u002C3-Pad2)*%
X176376700Y-113131600D02*
X193980700Y-113131600D01*
%TO.N,Net-(LD7\u002C3-Pad3)*%
X176376700Y-112231600D02*
X193980700Y-112231600D01*
%TO.N,Net-(LD8\u002C5-Pad2)*%
X222033200Y-152374600D02*
X244463200Y-152374600D01*
%TO.N,Net-(LD8\u002C5-Pad3)*%
X222033200Y-151474600D02*
X244463200Y-151474600D01*
%TO.N,Net-(LD8\u002C3-Pad2)*%
X195680700Y-113131600D02*
X213284700Y-113131600D01*
%TO.N,Net-(LD8\u002C3-Pad3)*%
X195680700Y-112231600D02*
X213284700Y-112231600D01*
%TO.N,Net-(LD11\u002C5-Pad2)*%
X329982846Y-132892800D02*
X337135100Y-132892800D01*
X310501046Y-152374600D02*
X329982846Y-132892800D01*
X294423200Y-152374600D02*
X310501046Y-152374600D01*
%TO.N,Net-(LD11\u002C5-Pad3)*%
X294423200Y-151474600D02*
X310399770Y-151474600D01*
X329881570Y-131992800D02*
X337135100Y-131992800D01*
X310399770Y-151474600D02*
X329881570Y-131992800D01*
%TO.N,Net-(LD11\u002C3-Pad2)*%
X283147400Y-113131600D02*
X283172800Y-113157000D01*
X253592700Y-113131600D02*
X283147400Y-113131600D01*
%TO.N,Net-(LD11\u002C3-Pad3)*%
X283112300Y-112231600D02*
X283198200Y-112317500D01*
X283147400Y-112231600D02*
X283172800Y-112257000D01*
X253592700Y-112231600D02*
X283147400Y-112231600D01*
%TO.N,Net-(LD12\u002C3-Pad2)*%
X311946822Y-93700600D02*
X317894600Y-93700600D01*
X292490422Y-113157000D02*
X311946822Y-93700600D01*
X284872800Y-113157000D02*
X292490422Y-113157000D01*
%TO.N,Net-(LD12\u002C3-Pad3)*%
X311845546Y-92800600D02*
X317894600Y-92800600D01*
X292389146Y-112257000D02*
X311845546Y-92800600D01*
X284872800Y-112257000D02*
X292389146Y-112257000D01*
%TO.N,Net-(LD14\u002C6-Pad5)*%
X420686600Y-132435600D02*
X421253802Y-132435600D01*
X416512390Y-140458810D02*
X416306000Y-140665200D01*
X416512390Y-137156810D02*
X416512390Y-140458810D01*
X418541200Y-135128000D02*
X416512390Y-137156810D01*
X416306000Y-140665200D02*
X410362400Y-140665200D01*
D22*
X408778842Y-140665200D02*
X402354441Y-147089601D01*
X410362400Y-140665200D02*
X408778842Y-140665200D01*
X402354441Y-147089601D02*
X319406799Y-147089601D01*
X319406799Y-147089601D02*
X318414400Y-148082000D01*
D21*
X316923100Y-152247600D02*
X316484000Y-151808500D01*
X317831100Y-152247600D02*
X316923100Y-152247600D01*
X316484000Y-150012400D02*
X318414400Y-148082000D01*
X316484000Y-151808500D02*
X316484000Y-150012400D01*
X421253802Y-132435600D02*
X422198800Y-133380598D01*
X421081200Y-135128000D02*
X418541200Y-135128000D01*
X422198800Y-134010400D02*
X421081200Y-135128000D01*
X422198800Y-133380598D02*
X422198800Y-134010400D01*
D22*
%TO.N,Net-(LD14\u002C6-Pad4)*%
X408669738Y-142494000D02*
X402858128Y-148305611D01*
X410565600Y-142494000D02*
X408669738Y-142494000D01*
X402858128Y-148305611D02*
X319910485Y-148305611D01*
D21*
X317831100Y-151347600D02*
X317831100Y-150384996D01*
D23*
X317831100Y-149895658D02*
X318781158Y-148945600D01*
X317831100Y-150384996D02*
X317831100Y-149895658D01*
X319270496Y-148945600D02*
X319910485Y-148305611D01*
X318781158Y-148945600D02*
X319270496Y-148945600D01*
D21*
X421594600Y-131535600D02*
X420686600Y-131535600D01*
X423214800Y-135026400D02*
X423214800Y-133155800D01*
X418658679Y-136839599D02*
X421401601Y-136839599D01*
X423214800Y-133155800D02*
X421594600Y-131535600D01*
X417220400Y-138277878D02*
X418658679Y-136839599D01*
X417220400Y-140766800D02*
X417220400Y-138277878D01*
X421401601Y-136839599D02*
X423214800Y-135026400D01*
X415493200Y-142494000D02*
X417220400Y-140766800D01*
X410565600Y-142494000D02*
X415493200Y-142494000D01*
%TO.N,Net-(LD15\u002C5-Pad2)*%
X379145800Y-132852677D02*
X379145800Y-132892800D01*
X379562877Y-132435600D02*
X379145800Y-132852677D01*
X380632600Y-132435600D02*
X379562877Y-132435600D01*
X338835100Y-132892800D02*
X379145800Y-132892800D01*
%TO.N,Net-(LD15\u002C5-Pad3)*%
X338835100Y-131992800D02*
X379004400Y-131992800D01*
X379461600Y-131535600D02*
X380632600Y-131535600D01*
X379004400Y-131992800D02*
X379461600Y-131535600D01*
%TO.N,Net-(LD15\u002C3-Pad2)*%
X338898600Y-93700600D02*
X356502600Y-93700600D01*
%TO.N,Net-(LD15\u002C3-Pad3)*%
X338898600Y-92800600D02*
X356502600Y-92800600D01*
%TO.N,Net-(LD16\u002C5-Pad2)*%
X382332600Y-132435600D02*
X399682600Y-132435600D01*
%TO.N,Net-(LD16\u002C5-Pad3)*%
X382332600Y-131535600D02*
X399682600Y-131535600D01*
%TO.N,Net-(LD16\u002C3-Pad2)*%
X380353200Y-93700600D02*
X380378600Y-93726000D01*
X358202600Y-93700600D02*
X380353200Y-93700600D01*
%TO.N,Net-(LD16\u002C3-Pad3)*%
X380353200Y-92800600D02*
X380378600Y-92826000D01*
X358202600Y-92800600D02*
X380353200Y-92800600D01*
%TO.N,Net-(LD17\u002C5-Pad2)*%
X401382600Y-132435600D02*
X418986600Y-132435600D01*
%TO.N,Net-(LD17\u002C5-Pad3)*%
X401382600Y-131535600D02*
X418986600Y-131535600D01*
%TO.N,Net-(LD17\u002C3-Pad2)*%
X382078600Y-93726000D02*
X399682600Y-93726000D01*
%TO.N,Net-(LD17\u002C3-Pad3)*%
X382078600Y-92826000D02*
X399682600Y-92826000D01*
%TO.N,Net-(LD18\u002C3-Pad2)*%
X401382600Y-93726000D02*
X418986600Y-93726000D01*
%TO.N,Net-(LD18\u002C3-Pad3)*%
X401382600Y-92826000D02*
X418986600Y-92826000D01*
%TD*%
M02*
