%TF.GenerationSoftware,KiCad,Pcbnew,(5.1.10)-1*%
%TF.CreationDate,2021-09-27T00:49:37+10:00*%
%TF.ProjectId,RedPyKeeb_mainboard,52656450-794b-4656-9562-5f6d61696e62,rev?*%
%TF.SameCoordinates,Original*%
%TF.FileFunction,Other,Fab,Bot*%
%FSLAX46Y46*%
G04 Gerber Fmt 4.6, Leading zero omitted, Abs format (unit mm)*
G04 Created by KiCad (PCBNEW (5.1.10)-1) date 2021-09-27 00:49:37*
%MOMM*%
%LPD*%
G01*
G04 APERTURE LIST*
%ADD10C,0.120000*%
%ADD11C,0.100000*%
%ADD12C,0.150000*%
G04 APERTURE END LIST*
D10*
%TO.C,K19\u002C6*%
X443140600Y-155745600D02*
X434340600Y-155745600D01*
X434340600Y-155745600D02*
X434340600Y-151745600D01*
X439440600Y-151745600D02*
X434340600Y-151745600D01*
X445140600Y-149745600D02*
X441440600Y-149745600D01*
X445140600Y-149745600D02*
X445140600Y-153745600D01*
X441440600Y-149745600D02*
G75*
G02*
X439440600Y-151745600I-2000000J0D01*
G01*
X445140600Y-153745600D02*
G75*
G02*
X443140600Y-155745600I-2000000J0D01*
G01*
D11*
%TO.C,C6*%
X435288700Y-25374600D02*
G75*
G03*
X435288700Y-25374600I-5000000J0D01*
G01*
X435438700Y-30524600D02*
X435438700Y-20224600D01*
X426138700Y-30524600D02*
X435438700Y-30524600D01*
X426138700Y-20224600D02*
X435438700Y-20224600D01*
X425138700Y-29524600D02*
X425138700Y-21224600D01*
X425138700Y-29524600D02*
X426138700Y-30524600D01*
X425138700Y-21224600D02*
X426138700Y-20224600D01*
X425730375Y-27074600D02*
X426730375Y-27074600D01*
X426230375Y-27574600D02*
X426230375Y-26574600D01*
D10*
%TO.C,K7\u002C0*%
X196592960Y-62337100D02*
X187792960Y-62337100D01*
X187792960Y-62337100D02*
X187792960Y-58337100D01*
X192892960Y-58337100D02*
X187792960Y-58337100D01*
X198592960Y-56337100D02*
X194892960Y-56337100D01*
X198592960Y-56337100D02*
X198592960Y-60337100D01*
X194892960Y-56337100D02*
G75*
G02*
X192892960Y-58337100I-2000000J0D01*
G01*
X198592960Y-60337100D02*
G75*
G02*
X196592960Y-62337100I-2000000J0D01*
G01*
%TO.C,K12\u002C3*%
X288048200Y-126802300D02*
X279248200Y-126802300D01*
X279248200Y-126802300D02*
X279248200Y-122802300D01*
X284348200Y-122802300D02*
X279248200Y-122802300D01*
X290048200Y-120802300D02*
X286348200Y-120802300D01*
X290048200Y-120802300D02*
X290048200Y-124802300D01*
X286348200Y-120802300D02*
G75*
G02*
X284348200Y-122802300I-2000000J0D01*
G01*
X290048200Y-124802300D02*
G75*
G02*
X288048200Y-126802300I-2000000J0D01*
G01*
%TO.C,K16\u002C1*%
X361352600Y-88118100D02*
X352552600Y-88118100D01*
X352552600Y-88118100D02*
X352552600Y-84118100D01*
X357652600Y-84118100D02*
X352552600Y-84118100D01*
X363352600Y-82118100D02*
X359652600Y-82118100D01*
X363352600Y-82118100D02*
X363352600Y-86118100D01*
X359652600Y-82118100D02*
G75*
G02*
X357652600Y-84118100I-2000000J0D01*
G01*
X363352600Y-86118100D02*
G75*
G02*
X361352600Y-88118100I-2000000J0D01*
G01*
%TO.C,K14\u002C1*%
X322744600Y-88118100D02*
X313944600Y-88118100D01*
X313944600Y-88118100D02*
X313944600Y-84118100D01*
X319044600Y-84118100D02*
X313944600Y-84118100D01*
X324744600Y-82118100D02*
X321044600Y-82118100D01*
X324744600Y-82118100D02*
X324744600Y-86118100D01*
X321044600Y-82118100D02*
G75*
G02*
X319044600Y-84118100I-2000000J0D01*
G01*
X324744600Y-86118100D02*
G75*
G02*
X322744600Y-88118100I-2000000J0D01*
G01*
%TO.C,K3\u002C2*%
X97421200Y-107358600D02*
X88621200Y-107358600D01*
X88621200Y-107358600D02*
X88621200Y-103358600D01*
X93721200Y-103358600D02*
X88621200Y-103358600D01*
X99421200Y-101358600D02*
X95721200Y-101358600D01*
X99421200Y-101358600D02*
X99421200Y-105358600D01*
X95721200Y-101358600D02*
G75*
G02*
X93721200Y-103358600I-2000000J0D01*
G01*
X99421200Y-105358600D02*
G75*
G02*
X97421200Y-107358600I-2000000J0D01*
G01*
%TO.C,K8\u002C0*%
X215896960Y-62337100D02*
X207096960Y-62337100D01*
X207096960Y-62337100D02*
X207096960Y-58337100D01*
X212196960Y-58337100D02*
X207096960Y-58337100D01*
X217896960Y-56337100D02*
X214196960Y-56337100D01*
X217896960Y-56337100D02*
X217896960Y-60337100D01*
X214196960Y-56337100D02*
G75*
G02*
X212196960Y-58337100I-2000000J0D01*
G01*
X217896960Y-60337100D02*
G75*
G02*
X215896960Y-62337100I-2000000J0D01*
G01*
%TO.C,K0\u002C2*%
X34873700Y-107333200D02*
X26073700Y-107333200D01*
X26073700Y-107333200D02*
X26073700Y-103333200D01*
X31173700Y-103333200D02*
X26073700Y-103333200D01*
X36873700Y-101333200D02*
X33173700Y-101333200D01*
X36873700Y-101333200D02*
X36873700Y-105333200D01*
X33173700Y-101333200D02*
G75*
G02*
X31173700Y-103333200I-2000000J0D01*
G01*
X36873700Y-105333200D02*
G75*
G02*
X34873700Y-107333200I-2000000J0D01*
G01*
%TO.C,K18\u002C4*%
X423836600Y-126726100D02*
X415036600Y-126726100D01*
X415036600Y-126726100D02*
X415036600Y-122726100D01*
X420136600Y-122726100D02*
X415036600Y-122726100D01*
X425836600Y-120726100D02*
X422136600Y-120726100D01*
X425836600Y-120726100D02*
X425836600Y-124726100D01*
X422136600Y-120726100D02*
G75*
G02*
X420136600Y-122726100I-2000000J0D01*
G01*
X425836600Y-124726100D02*
G75*
G02*
X423836600Y-126726100I-2000000J0D01*
G01*
%TO.C,K10\u002C3*%
X237438700Y-126789600D02*
X228638700Y-126789600D01*
X228638700Y-126789600D02*
X228638700Y-122789600D01*
X233738700Y-122789600D02*
X228638700Y-122789600D01*
X239438700Y-120789600D02*
X235738700Y-120789600D01*
X239438700Y-120789600D02*
X239438700Y-124789600D01*
X235738700Y-120789600D02*
G75*
G02*
X233738700Y-122789600I-2000000J0D01*
G01*
X239438700Y-124789600D02*
G75*
G02*
X237438700Y-126789600I-2000000J0D01*
G01*
%TO.C,K13\u002C1*%
X289889700Y-88067300D02*
X281089700Y-88067300D01*
X281089700Y-88067300D02*
X281089700Y-84067300D01*
X286189700Y-84067300D02*
X281089700Y-84067300D01*
X291889700Y-82067300D02*
X288189700Y-82067300D01*
X291889700Y-82067300D02*
X291889700Y-86067300D01*
X288189700Y-82067300D02*
G75*
G02*
X286189700Y-84067300I-2000000J0D01*
G01*
X291889700Y-86067300D02*
G75*
G02*
X289889700Y-88067300I-2000000J0D01*
G01*
%TO.C,K19\u002C4*%
X443140600Y-117010600D02*
X434340600Y-117010600D01*
X434340600Y-117010600D02*
X434340600Y-113010600D01*
X439440600Y-113010600D02*
X434340600Y-113010600D01*
X445140600Y-111010600D02*
X441440600Y-111010600D01*
X445140600Y-111010600D02*
X445140600Y-115010600D01*
X441440600Y-111010600D02*
G75*
G02*
X439440600Y-113010600I-2000000J0D01*
G01*
X445140600Y-115010600D02*
G75*
G02*
X443140600Y-117010600I-2000000J0D01*
G01*
%TO.C,K11\u002C4*%
X283222200Y-146550800D02*
X274422200Y-146550800D01*
X274422200Y-146550800D02*
X274422200Y-142550800D01*
X279522200Y-142550800D02*
X274422200Y-142550800D01*
X285222200Y-140550800D02*
X281522200Y-140550800D01*
X285222200Y-140550800D02*
X285222200Y-144550800D01*
X281522200Y-140550800D02*
G75*
G02*
X279522200Y-142550800I-2000000J0D01*
G01*
X285222200Y-144550800D02*
G75*
G02*
X283222200Y-146550800I-2000000J0D01*
G01*
%TO.C,K0\u002C0*%
X30238200Y-62286300D02*
X21438200Y-62286300D01*
X21438200Y-62286300D02*
X21438200Y-58286300D01*
X26538200Y-58286300D02*
X21438200Y-58286300D01*
X32238200Y-56286300D02*
X28538200Y-56286300D01*
X32238200Y-56286300D02*
X32238200Y-60286300D01*
X28538200Y-56286300D02*
G75*
G02*
X26538200Y-58286300I-2000000J0D01*
G01*
X32238200Y-60286300D02*
G75*
G02*
X30238200Y-62286300I-2000000J0D01*
G01*
%TO.C,K0\u002C1*%
X30174700Y-88130800D02*
X21374700Y-88130800D01*
X21374700Y-88130800D02*
X21374700Y-84130800D01*
X26474700Y-84130800D02*
X21374700Y-84130800D01*
X32174700Y-82130800D02*
X28474700Y-82130800D01*
X32174700Y-82130800D02*
X32174700Y-86130800D01*
X28474700Y-82130800D02*
G75*
G02*
X26474700Y-84130800I-2000000J0D01*
G01*
X32174700Y-86130800D02*
G75*
G02*
X30174700Y-88130800I-2000000J0D01*
G01*
%TO.C,K0\u002C5*%
X32587700Y-165981800D02*
X23787700Y-165981800D01*
X23787700Y-165981800D02*
X23787700Y-161981800D01*
X28887700Y-161981800D02*
X23787700Y-161981800D01*
X34587700Y-159981800D02*
X30887700Y-159981800D01*
X34587700Y-159981800D02*
X34587700Y-163981800D01*
X30887700Y-159981800D02*
G75*
G02*
X28887700Y-161981800I-2000000J0D01*
G01*
X34587700Y-163981800D02*
G75*
G02*
X32587700Y-165981800I-2000000J0D01*
G01*
%TO.C,K0\u002C4*%
X41985700Y-146614300D02*
X33185700Y-146614300D01*
X33185700Y-146614300D02*
X33185700Y-142614300D01*
X38285700Y-142614300D02*
X33185700Y-142614300D01*
X43985700Y-140614300D02*
X40285700Y-140614300D01*
X43985700Y-140614300D02*
X43985700Y-144614300D01*
X40285700Y-140614300D02*
G75*
G02*
X38285700Y-142614300I-2000000J0D01*
G01*
X43985700Y-144614300D02*
G75*
G02*
X41985700Y-146614300I-2000000J0D01*
G01*
%TO.C,K0\u002C3*%
X37261300Y-126840400D02*
X28461300Y-126840400D01*
X28461300Y-126840400D02*
X28461300Y-122840400D01*
X33561300Y-122840400D02*
X28461300Y-122840400D01*
X39261300Y-120840400D02*
X35561300Y-120840400D01*
X39261300Y-120840400D02*
X39261300Y-124840400D01*
X35561300Y-120840400D02*
G75*
G02*
X33561300Y-122840400I-2000000J0D01*
G01*
X39261300Y-124840400D02*
G75*
G02*
X37261300Y-126840400I-2000000J0D01*
G01*
%TO.C,K1\u002C4*%
X73100700Y-146601600D02*
X64300700Y-146601600D01*
X64300700Y-146601600D02*
X64300700Y-142601600D01*
X69400700Y-142601600D02*
X64300700Y-142601600D01*
X75100700Y-140601600D02*
X71400700Y-140601600D01*
X75100700Y-140601600D02*
X75100700Y-144601600D01*
X71400700Y-140601600D02*
G75*
G02*
X69400700Y-142601600I-2000000J0D01*
G01*
X75100700Y-144601600D02*
G75*
G02*
X73100700Y-146601600I-2000000J0D01*
G01*
%TO.C,K1\u002C5*%
X57162200Y-166032600D02*
X48362200Y-166032600D01*
X48362200Y-166032600D02*
X48362200Y-162032600D01*
X53462200Y-162032600D02*
X48362200Y-162032600D01*
X59162200Y-160032600D02*
X55462200Y-160032600D01*
X59162200Y-160032600D02*
X59162200Y-164032600D01*
X55462200Y-160032600D02*
G75*
G02*
X53462200Y-162032600I-2000000J0D01*
G01*
X59162200Y-164032600D02*
G75*
G02*
X57162200Y-166032600I-2000000J0D01*
G01*
%TO.C,K1\u002C3*%
X63702700Y-126789600D02*
X54902700Y-126789600D01*
X54902700Y-126789600D02*
X54902700Y-122789600D01*
X60002700Y-122789600D02*
X54902700Y-122789600D01*
X65702700Y-120789600D02*
X62002700Y-120789600D01*
X65702700Y-120789600D02*
X65702700Y-124789600D01*
X62002700Y-120789600D02*
G75*
G02*
X60002700Y-122789600I-2000000J0D01*
G01*
X65702700Y-124789600D02*
G75*
G02*
X63702700Y-126789600I-2000000J0D01*
G01*
%TO.C,K1\u002C2*%
X58813200Y-107358600D02*
X50013200Y-107358600D01*
X50013200Y-107358600D02*
X50013200Y-103358600D01*
X55113200Y-103358600D02*
X50013200Y-103358600D01*
X60813200Y-101358600D02*
X57113200Y-101358600D01*
X60813200Y-101358600D02*
X60813200Y-105358600D01*
X57113200Y-101358600D02*
G75*
G02*
X55113200Y-103358600I-2000000J0D01*
G01*
X60813200Y-105358600D02*
G75*
G02*
X58813200Y-107358600I-2000000J0D01*
G01*
%TO.C,K1\u002C1*%
X49389800Y-88130800D02*
X40589800Y-88130800D01*
X40589800Y-88130800D02*
X40589800Y-84130800D01*
X45689800Y-84130800D02*
X40589800Y-84130800D01*
X51389800Y-82130800D02*
X47689800Y-82130800D01*
X51389800Y-82130800D02*
X51389800Y-86130800D01*
X47689800Y-82130800D02*
G75*
G02*
X45689800Y-84130800I-2000000J0D01*
G01*
X51389800Y-86130800D02*
G75*
G02*
X49389800Y-88130800I-2000000J0D01*
G01*
%TO.C,K1\u002C0*%
X68576960Y-62337100D02*
X59776960Y-62337100D01*
X59776960Y-62337100D02*
X59776960Y-58337100D01*
X64876960Y-58337100D02*
X59776960Y-58337100D01*
X70576960Y-56337100D02*
X66876960Y-56337100D01*
X70576960Y-56337100D02*
X70576960Y-60337100D01*
X66876960Y-56337100D02*
G75*
G02*
X64876960Y-58337100I-2000000J0D01*
G01*
X70576960Y-60337100D02*
G75*
G02*
X68576960Y-62337100I-2000000J0D01*
G01*
%TO.C,K2\u002C5*%
X81546200Y-166032600D02*
X72746200Y-166032600D01*
X72746200Y-166032600D02*
X72746200Y-162032600D01*
X77846200Y-162032600D02*
X72746200Y-162032600D01*
X83546200Y-160032600D02*
X79846200Y-160032600D01*
X83546200Y-160032600D02*
X83546200Y-164032600D01*
X79846200Y-160032600D02*
G75*
G02*
X77846200Y-162032600I-2000000J0D01*
G01*
X83546200Y-164032600D02*
G75*
G02*
X81546200Y-166032600I-2000000J0D01*
G01*
%TO.C,K2\u002C3*%
X83006700Y-126789600D02*
X74206700Y-126789600D01*
X74206700Y-126789600D02*
X74206700Y-122789600D01*
X79306700Y-122789600D02*
X74206700Y-122789600D01*
X85006700Y-120789600D02*
X81306700Y-120789600D01*
X85006700Y-120789600D02*
X85006700Y-124789600D01*
X81306700Y-120789600D02*
G75*
G02*
X79306700Y-122789600I-2000000J0D01*
G01*
X85006700Y-124789600D02*
G75*
G02*
X83006700Y-126789600I-2000000J0D01*
G01*
%TO.C,K2\u002C1*%
X68592200Y-88118100D02*
X59792200Y-88118100D01*
X59792200Y-88118100D02*
X59792200Y-84118100D01*
X64892200Y-84118100D02*
X59792200Y-84118100D01*
X70592200Y-82118100D02*
X66892200Y-82118100D01*
X70592200Y-82118100D02*
X70592200Y-86118100D01*
X66892200Y-82118100D02*
G75*
G02*
X64892200Y-84118100I-2000000J0D01*
G01*
X70592200Y-86118100D02*
G75*
G02*
X68592200Y-88118100I-2000000J0D01*
G01*
%TO.C,K2\u002C4*%
X92404700Y-146601600D02*
X83604700Y-146601600D01*
X83604700Y-146601600D02*
X83604700Y-142601600D01*
X88704700Y-142601600D02*
X83604700Y-142601600D01*
X94404700Y-140601600D02*
X90704700Y-140601600D01*
X94404700Y-140601600D02*
X94404700Y-144601600D01*
X90704700Y-140601600D02*
G75*
G02*
X88704700Y-142601600I-2000000J0D01*
G01*
X94404700Y-144601600D02*
G75*
G02*
X92404700Y-146601600I-2000000J0D01*
G01*
%TO.C,K2\u002C2*%
X78117200Y-107358600D02*
X69317200Y-107358600D01*
X69317200Y-107358600D02*
X69317200Y-103358600D01*
X74417200Y-103358600D02*
X69317200Y-103358600D01*
X80117200Y-101358600D02*
X76417200Y-101358600D01*
X80117200Y-101358600D02*
X80117200Y-105358600D01*
X76417200Y-101358600D02*
G75*
G02*
X74417200Y-103358600I-2000000J0D01*
G01*
X80117200Y-105358600D02*
G75*
G02*
X78117200Y-107358600I-2000000J0D01*
G01*
%TO.C,K2\u002C0*%
X87880960Y-62337100D02*
X79080960Y-62337100D01*
X79080960Y-62337100D02*
X79080960Y-58337100D01*
X84180960Y-58337100D02*
X79080960Y-58337100D01*
X89880960Y-56337100D02*
X86180960Y-56337100D01*
X89880960Y-56337100D02*
X89880960Y-60337100D01*
X86180960Y-56337100D02*
G75*
G02*
X84180960Y-58337100I-2000000J0D01*
G01*
X89880960Y-60337100D02*
G75*
G02*
X87880960Y-62337100I-2000000J0D01*
G01*
%TO.C,K3\u002C5*%
X153428200Y-166032600D02*
X144628200Y-166032600D01*
X144628200Y-166032600D02*
X144628200Y-162032600D01*
X149728200Y-162032600D02*
X144628200Y-162032600D01*
X155428200Y-160032600D02*
X151728200Y-160032600D01*
X155428200Y-160032600D02*
X155428200Y-164032600D01*
X151728200Y-160032600D02*
G75*
G02*
X149728200Y-162032600I-2000000J0D01*
G01*
X155428200Y-164032600D02*
G75*
G02*
X153428200Y-166032600I-2000000J0D01*
G01*
%TO.C,K3\u002C4*%
X111708700Y-146601600D02*
X102908700Y-146601600D01*
X102908700Y-146601600D02*
X102908700Y-142601600D01*
X108008700Y-142601600D02*
X102908700Y-142601600D01*
X113708700Y-140601600D02*
X110008700Y-140601600D01*
X113708700Y-140601600D02*
X113708700Y-144601600D01*
X110008700Y-140601600D02*
G75*
G02*
X108008700Y-142601600I-2000000J0D01*
G01*
X113708700Y-144601600D02*
G75*
G02*
X111708700Y-146601600I-2000000J0D01*
G01*
%TO.C,K3\u002C1*%
X87388200Y-88118100D02*
X78588200Y-88118100D01*
X78588200Y-88118100D02*
X78588200Y-84118100D01*
X83688200Y-84118100D02*
X78588200Y-84118100D01*
X89388200Y-82118100D02*
X85688200Y-82118100D01*
X89388200Y-82118100D02*
X89388200Y-86118100D01*
X85688200Y-82118100D02*
G75*
G02*
X83688200Y-84118100I-2000000J0D01*
G01*
X89388200Y-86118100D02*
G75*
G02*
X87388200Y-88118100I-2000000J0D01*
G01*
%TO.C,K3\u002C0*%
X107184960Y-62337100D02*
X98384960Y-62337100D01*
X98384960Y-62337100D02*
X98384960Y-58337100D01*
X103484960Y-58337100D02*
X98384960Y-58337100D01*
X109184960Y-56337100D02*
X105484960Y-56337100D01*
X109184960Y-56337100D02*
X109184960Y-60337100D01*
X105484960Y-56337100D02*
G75*
G02*
X103484960Y-58337100I-2000000J0D01*
G01*
X109184960Y-60337100D02*
G75*
G02*
X107184960Y-62337100I-2000000J0D01*
G01*
%TO.C,K3\u002C3*%
X102310700Y-126789600D02*
X93510700Y-126789600D01*
X93510700Y-126789600D02*
X93510700Y-122789600D01*
X98610700Y-122789600D02*
X93510700Y-122789600D01*
X104310700Y-120789600D02*
X100610700Y-120789600D01*
X104310700Y-120789600D02*
X104310700Y-124789600D01*
X100610700Y-120789600D02*
G75*
G02*
X98610700Y-122789600I-2000000J0D01*
G01*
X104310700Y-124789600D02*
G75*
G02*
X102310700Y-126789600I-2000000J0D01*
G01*
%TO.C,K4\u002C1*%
X106692200Y-88118100D02*
X97892200Y-88118100D01*
X97892200Y-88118100D02*
X97892200Y-84118100D01*
X102992200Y-84118100D02*
X97892200Y-84118100D01*
X108692200Y-82118100D02*
X104992200Y-82118100D01*
X108692200Y-82118100D02*
X108692200Y-86118100D01*
X104992200Y-82118100D02*
G75*
G02*
X102992200Y-84118100I-2000000J0D01*
G01*
X108692200Y-86118100D02*
G75*
G02*
X106692200Y-88118100I-2000000J0D01*
G01*
%TO.C,K4\u002C2*%
X116725200Y-107358600D02*
X107925200Y-107358600D01*
X107925200Y-107358600D02*
X107925200Y-103358600D01*
X113025200Y-103358600D02*
X107925200Y-103358600D01*
X118725200Y-101358600D02*
X115025200Y-101358600D01*
X118725200Y-101358600D02*
X118725200Y-105358600D01*
X115025200Y-101358600D02*
G75*
G02*
X113025200Y-103358600I-2000000J0D01*
G01*
X118725200Y-105358600D02*
G75*
G02*
X116725200Y-107358600I-2000000J0D01*
G01*
%TO.C,K4\u002C3*%
X121614700Y-126789600D02*
X112814700Y-126789600D01*
X112814700Y-126789600D02*
X112814700Y-122789600D01*
X117914700Y-122789600D02*
X112814700Y-122789600D01*
X123614700Y-120789600D02*
X119914700Y-120789600D01*
X123614700Y-120789600D02*
X123614700Y-124789600D01*
X119914700Y-120789600D02*
G75*
G02*
X117914700Y-122789600I-2000000J0D01*
G01*
X123614700Y-124789600D02*
G75*
G02*
X121614700Y-126789600I-2000000J0D01*
G01*
%TO.C,K4\u002C4*%
X131012700Y-146601600D02*
X122212700Y-146601600D01*
X122212700Y-146601600D02*
X122212700Y-142601600D01*
X127312700Y-142601600D02*
X122212700Y-142601600D01*
X133012700Y-140601600D02*
X129312700Y-140601600D01*
X133012700Y-140601600D02*
X133012700Y-144601600D01*
X129312700Y-140601600D02*
G75*
G02*
X127312700Y-142601600I-2000000J0D01*
G01*
X133012700Y-144601600D02*
G75*
G02*
X131012700Y-146601600I-2000000J0D01*
G01*
%TO.C,K4\u002C0*%
X126488960Y-62337100D02*
X117688960Y-62337100D01*
X117688960Y-62337100D02*
X117688960Y-58337100D01*
X122788960Y-58337100D02*
X117688960Y-58337100D01*
X128488960Y-56337100D02*
X124788960Y-56337100D01*
X128488960Y-56337100D02*
X128488960Y-60337100D01*
X124788960Y-56337100D02*
G75*
G02*
X122788960Y-58337100I-2000000J0D01*
G01*
X128488960Y-60337100D02*
G75*
G02*
X126488960Y-62337100I-2000000J0D01*
G01*
%TO.C,K5\u002C0*%
X157984960Y-62337100D02*
X149184960Y-62337100D01*
X149184960Y-62337100D02*
X149184960Y-58337100D01*
X154284960Y-58337100D02*
X149184960Y-58337100D01*
X159984960Y-56337100D02*
X156284960Y-56337100D01*
X159984960Y-56337100D02*
X159984960Y-60337100D01*
X156284960Y-56337100D02*
G75*
G02*
X154284960Y-58337100I-2000000J0D01*
G01*
X159984960Y-60337100D02*
G75*
G02*
X157984960Y-62337100I-2000000J0D01*
G01*
%TO.C,K5\u002C2*%
X136029200Y-107358600D02*
X127229200Y-107358600D01*
X127229200Y-107358600D02*
X127229200Y-103358600D01*
X132329200Y-103358600D02*
X127229200Y-103358600D01*
X138029200Y-101358600D02*
X134329200Y-101358600D01*
X138029200Y-101358600D02*
X138029200Y-105358600D01*
X134329200Y-101358600D02*
G75*
G02*
X132329200Y-103358600I-2000000J0D01*
G01*
X138029200Y-105358600D02*
G75*
G02*
X136029200Y-107358600I-2000000J0D01*
G01*
%TO.C,K5\u002C1*%
X125996200Y-88118100D02*
X117196200Y-88118100D01*
X117196200Y-88118100D02*
X117196200Y-84118100D01*
X122296200Y-84118100D02*
X117196200Y-84118100D01*
X127996200Y-82118100D02*
X124296200Y-82118100D01*
X127996200Y-82118100D02*
X127996200Y-86118100D01*
X124296200Y-82118100D02*
G75*
G02*
X122296200Y-84118100I-2000000J0D01*
G01*
X127996200Y-86118100D02*
G75*
G02*
X125996200Y-88118100I-2000000J0D01*
G01*
%TO.C,K5\u002C3*%
X140918700Y-126789600D02*
X132118700Y-126789600D01*
X132118700Y-126789600D02*
X132118700Y-122789600D01*
X137218700Y-122789600D02*
X132118700Y-122789600D01*
X142918700Y-120789600D02*
X139218700Y-120789600D01*
X142918700Y-120789600D02*
X142918700Y-124789600D01*
X139218700Y-120789600D02*
G75*
G02*
X137218700Y-122789600I-2000000J0D01*
G01*
X142918700Y-124789600D02*
G75*
G02*
X140918700Y-126789600I-2000000J0D01*
G01*
%TO.C,K5\u002C4*%
X150316700Y-146601600D02*
X141516700Y-146601600D01*
X141516700Y-146601600D02*
X141516700Y-142601600D01*
X146616700Y-142601600D02*
X141516700Y-142601600D01*
X152316700Y-140601600D02*
X148616700Y-140601600D01*
X152316700Y-140601600D02*
X152316700Y-144601600D01*
X148616700Y-140601600D02*
G75*
G02*
X146616700Y-142601600I-2000000J0D01*
G01*
X152316700Y-144601600D02*
G75*
G02*
X150316700Y-146601600I-2000000J0D01*
G01*
%TO.C,K6\u002C3*%
X160222700Y-126789600D02*
X151422700Y-126789600D01*
X151422700Y-126789600D02*
X151422700Y-122789600D01*
X156522700Y-122789600D02*
X151422700Y-122789600D01*
X162222700Y-120789600D02*
X158522700Y-120789600D01*
X162222700Y-120789600D02*
X162222700Y-124789600D01*
X158522700Y-120789600D02*
G75*
G02*
X156522700Y-122789600I-2000000J0D01*
G01*
X162222700Y-124789600D02*
G75*
G02*
X160222700Y-126789600I-2000000J0D01*
G01*
%TO.C,K6\u002C4*%
X169620700Y-146601600D02*
X160820700Y-146601600D01*
X160820700Y-146601600D02*
X160820700Y-142601600D01*
X165920700Y-142601600D02*
X160820700Y-142601600D01*
X171620700Y-140601600D02*
X167920700Y-140601600D01*
X171620700Y-140601600D02*
X171620700Y-144601600D01*
X167920700Y-140601600D02*
G75*
G02*
X165920700Y-142601600I-2000000J0D01*
G01*
X171620700Y-144601600D02*
G75*
G02*
X169620700Y-146601600I-2000000J0D01*
G01*
%TO.C,K6\u002C1*%
X145300200Y-88118100D02*
X136500200Y-88118100D01*
X136500200Y-88118100D02*
X136500200Y-84118100D01*
X141600200Y-84118100D02*
X136500200Y-84118100D01*
X147300200Y-82118100D02*
X143600200Y-82118100D01*
X147300200Y-82118100D02*
X147300200Y-86118100D01*
X143600200Y-82118100D02*
G75*
G02*
X141600200Y-84118100I-2000000J0D01*
G01*
X147300200Y-86118100D02*
G75*
G02*
X145300200Y-88118100I-2000000J0D01*
G01*
%TO.C,K6\u002C2*%
X155333200Y-107358600D02*
X146533200Y-107358600D01*
X146533200Y-107358600D02*
X146533200Y-103358600D01*
X151633200Y-103358600D02*
X146533200Y-103358600D01*
X157333200Y-101358600D02*
X153633200Y-101358600D01*
X157333200Y-101358600D02*
X157333200Y-105358600D01*
X153633200Y-101358600D02*
G75*
G02*
X151633200Y-103358600I-2000000J0D01*
G01*
X157333200Y-105358600D02*
G75*
G02*
X155333200Y-107358600I-2000000J0D01*
G01*
%TO.C,K6\u002C0*%
X177288960Y-62337100D02*
X168488960Y-62337100D01*
X168488960Y-62337100D02*
X168488960Y-58337100D01*
X173588960Y-58337100D02*
X168488960Y-58337100D01*
X179288960Y-56337100D02*
X175588960Y-56337100D01*
X179288960Y-56337100D02*
X179288960Y-60337100D01*
X175588960Y-56337100D02*
G75*
G02*
X173588960Y-58337100I-2000000J0D01*
G01*
X179288960Y-60337100D02*
G75*
G02*
X177288960Y-62337100I-2000000J0D01*
G01*
%TO.C,K7\u002C2*%
X174637200Y-107358600D02*
X165837200Y-107358600D01*
X165837200Y-107358600D02*
X165837200Y-103358600D01*
X170937200Y-103358600D02*
X165837200Y-103358600D01*
X176637200Y-101358600D02*
X172937200Y-101358600D01*
X176637200Y-101358600D02*
X176637200Y-105358600D01*
X172937200Y-101358600D02*
G75*
G02*
X170937200Y-103358600I-2000000J0D01*
G01*
X176637200Y-105358600D02*
G75*
G02*
X174637200Y-107358600I-2000000J0D01*
G01*
%TO.C,K7\u002C1*%
X164604200Y-88118100D02*
X155804200Y-88118100D01*
X155804200Y-88118100D02*
X155804200Y-84118100D01*
X160904200Y-84118100D02*
X155804200Y-84118100D01*
X166604200Y-82118100D02*
X162904200Y-82118100D01*
X166604200Y-82118100D02*
X166604200Y-86118100D01*
X162904200Y-82118100D02*
G75*
G02*
X160904200Y-84118100I-2000000J0D01*
G01*
X166604200Y-86118100D02*
G75*
G02*
X164604200Y-88118100I-2000000J0D01*
G01*
%TO.C,K7\u002C3*%
X179526700Y-126789600D02*
X170726700Y-126789600D01*
X170726700Y-126789600D02*
X170726700Y-122789600D01*
X175826700Y-122789600D02*
X170726700Y-122789600D01*
X181526700Y-120789600D02*
X177826700Y-120789600D01*
X181526700Y-120789600D02*
X181526700Y-124789600D01*
X177826700Y-120789600D02*
G75*
G02*
X175826700Y-122789600I-2000000J0D01*
G01*
X181526700Y-124789600D02*
G75*
G02*
X179526700Y-126789600I-2000000J0D01*
G01*
%TO.C,K7\u002C4*%
X188924700Y-146601600D02*
X180124700Y-146601600D01*
X180124700Y-146601600D02*
X180124700Y-142601600D01*
X185224700Y-142601600D02*
X180124700Y-142601600D01*
X190924700Y-140601600D02*
X187224700Y-140601600D01*
X190924700Y-140601600D02*
X190924700Y-144601600D01*
X187224700Y-140601600D02*
G75*
G02*
X185224700Y-142601600I-2000000J0D01*
G01*
X190924700Y-144601600D02*
G75*
G02*
X188924700Y-146601600I-2000000J0D01*
G01*
%TO.C,K8\u002C1*%
X183908200Y-88118100D02*
X175108200Y-88118100D01*
X175108200Y-88118100D02*
X175108200Y-84118100D01*
X180208200Y-84118100D02*
X175108200Y-84118100D01*
X185908200Y-82118100D02*
X182208200Y-82118100D01*
X185908200Y-82118100D02*
X185908200Y-86118100D01*
X182208200Y-82118100D02*
G75*
G02*
X180208200Y-84118100I-2000000J0D01*
G01*
X185908200Y-86118100D02*
G75*
G02*
X183908200Y-88118100I-2000000J0D01*
G01*
%TO.C,K8\u002C3*%
X198830700Y-126789600D02*
X190030700Y-126789600D01*
X190030700Y-126789600D02*
X190030700Y-122789600D01*
X195130700Y-122789600D02*
X190030700Y-122789600D01*
X200830700Y-120789600D02*
X197130700Y-120789600D01*
X200830700Y-120789600D02*
X200830700Y-124789600D01*
X197130700Y-120789600D02*
G75*
G02*
X195130700Y-122789600I-2000000J0D01*
G01*
X200830700Y-124789600D02*
G75*
G02*
X198830700Y-126789600I-2000000J0D01*
G01*
%TO.C,K8\u002C4*%
X208228700Y-146601600D02*
X199428700Y-146601600D01*
X199428700Y-146601600D02*
X199428700Y-142601600D01*
X204528700Y-142601600D02*
X199428700Y-142601600D01*
X210228700Y-140601600D02*
X206528700Y-140601600D01*
X210228700Y-140601600D02*
X210228700Y-144601600D01*
X206528700Y-140601600D02*
G75*
G02*
X204528700Y-142601600I-2000000J0D01*
G01*
X210228700Y-144601600D02*
G75*
G02*
X208228700Y-146601600I-2000000J0D01*
G01*
%TO.C,K8\u002C5*%
X225157800Y-166032600D02*
X216357800Y-166032600D01*
X216357800Y-166032600D02*
X216357800Y-162032600D01*
X221457800Y-162032600D02*
X216357800Y-162032600D01*
X227157800Y-160032600D02*
X223457800Y-160032600D01*
X227157800Y-160032600D02*
X227157800Y-164032600D01*
X223457800Y-160032600D02*
G75*
G02*
X221457800Y-162032600I-2000000J0D01*
G01*
X227157800Y-164032600D02*
G75*
G02*
X225157800Y-166032600I-2000000J0D01*
G01*
%TO.C,K8\u002C2*%
X193941200Y-107358600D02*
X185141200Y-107358600D01*
X185141200Y-107358600D02*
X185141200Y-103358600D01*
X190241200Y-103358600D02*
X185141200Y-103358600D01*
X195941200Y-101358600D02*
X192241200Y-101358600D01*
X195941200Y-101358600D02*
X195941200Y-105358600D01*
X192241200Y-101358600D02*
G75*
G02*
X190241200Y-103358600I-2000000J0D01*
G01*
X195941200Y-105358600D02*
G75*
G02*
X193941200Y-107358600I-2000000J0D01*
G01*
%TO.C,K9\u002C0*%
X242312960Y-62337100D02*
X233512960Y-62337100D01*
X233512960Y-62337100D02*
X233512960Y-58337100D01*
X238612960Y-58337100D02*
X233512960Y-58337100D01*
X244312960Y-56337100D02*
X240612960Y-56337100D01*
X244312960Y-56337100D02*
X244312960Y-60337100D01*
X240612960Y-56337100D02*
G75*
G02*
X238612960Y-58337100I-2000000J0D01*
G01*
X244312960Y-60337100D02*
G75*
G02*
X242312960Y-62337100I-2000000J0D01*
G01*
%TO.C,K9\u002C5*%
X249313200Y-166032600D02*
X240513200Y-166032600D01*
X240513200Y-166032600D02*
X240513200Y-162032600D01*
X245613200Y-162032600D02*
X240513200Y-162032600D01*
X251313200Y-160032600D02*
X247613200Y-160032600D01*
X251313200Y-160032600D02*
X251313200Y-164032600D01*
X247613200Y-160032600D02*
G75*
G02*
X245613200Y-162032600I-2000000J0D01*
G01*
X251313200Y-164032600D02*
G75*
G02*
X249313200Y-166032600I-2000000J0D01*
G01*
%TO.C,K9\u002C1*%
X203212200Y-88118100D02*
X194412200Y-88118100D01*
X194412200Y-88118100D02*
X194412200Y-84118100D01*
X199512200Y-84118100D02*
X194412200Y-84118100D01*
X205212200Y-82118100D02*
X201512200Y-82118100D01*
X205212200Y-82118100D02*
X205212200Y-86118100D01*
X201512200Y-82118100D02*
G75*
G02*
X199512200Y-84118100I-2000000J0D01*
G01*
X205212200Y-86118100D02*
G75*
G02*
X203212200Y-88118100I-2000000J0D01*
G01*
%TO.C,K9\u002C2*%
X213245200Y-107358600D02*
X204445200Y-107358600D01*
X204445200Y-107358600D02*
X204445200Y-103358600D01*
X209545200Y-103358600D02*
X204445200Y-103358600D01*
X215245200Y-101358600D02*
X211545200Y-101358600D01*
X215245200Y-101358600D02*
X215245200Y-105358600D01*
X211545200Y-101358600D02*
G75*
G02*
X209545200Y-103358600I-2000000J0D01*
G01*
X215245200Y-105358600D02*
G75*
G02*
X213245200Y-107358600I-2000000J0D01*
G01*
%TO.C,K9\u002C4*%
X227532700Y-146601600D02*
X218732700Y-146601600D01*
X218732700Y-146601600D02*
X218732700Y-142601600D01*
X223832700Y-142601600D02*
X218732700Y-142601600D01*
X229532700Y-140601600D02*
X225832700Y-140601600D01*
X229532700Y-140601600D02*
X229532700Y-144601600D01*
X225832700Y-140601600D02*
G75*
G02*
X223832700Y-142601600I-2000000J0D01*
G01*
X229532700Y-144601600D02*
G75*
G02*
X227532700Y-146601600I-2000000J0D01*
G01*
%TO.C,K9\u002C3*%
X218134700Y-126789600D02*
X209334700Y-126789600D01*
X209334700Y-126789600D02*
X209334700Y-122789600D01*
X214434700Y-122789600D02*
X209334700Y-122789600D01*
X220134700Y-120789600D02*
X216434700Y-120789600D01*
X220134700Y-120789600D02*
X220134700Y-124789600D01*
X216434700Y-120789600D02*
G75*
G02*
X214434700Y-122789600I-2000000J0D01*
G01*
X220134700Y-124789600D02*
G75*
G02*
X218134700Y-126789600I-2000000J0D01*
G01*
%TO.C,K10\u002C2*%
X232549200Y-107358600D02*
X223749200Y-107358600D01*
X223749200Y-107358600D02*
X223749200Y-103358600D01*
X228849200Y-103358600D02*
X223749200Y-103358600D01*
X234549200Y-101358600D02*
X230849200Y-101358600D01*
X234549200Y-101358600D02*
X234549200Y-105358600D01*
X230849200Y-101358600D02*
G75*
G02*
X228849200Y-103358600I-2000000J0D01*
G01*
X234549200Y-105358600D02*
G75*
G02*
X232549200Y-107358600I-2000000J0D01*
G01*
%TO.C,K10\u002C0*%
X261616960Y-62337100D02*
X252816960Y-62337100D01*
X252816960Y-62337100D02*
X252816960Y-58337100D01*
X257916960Y-58337100D02*
X252816960Y-58337100D01*
X263616960Y-56337100D02*
X259916960Y-56337100D01*
X263616960Y-56337100D02*
X263616960Y-60337100D01*
X259916960Y-56337100D02*
G75*
G02*
X257916960Y-58337100I-2000000J0D01*
G01*
X263616960Y-60337100D02*
G75*
G02*
X261616960Y-62337100I-2000000J0D01*
G01*
%TO.C,K10\u002C5*%
X273506700Y-166032600D02*
X264706700Y-166032600D01*
X264706700Y-166032600D02*
X264706700Y-162032600D01*
X269806700Y-162032600D02*
X264706700Y-162032600D01*
X275506700Y-160032600D02*
X271806700Y-160032600D01*
X275506700Y-160032600D02*
X275506700Y-164032600D01*
X271806700Y-160032600D02*
G75*
G02*
X269806700Y-162032600I-2000000J0D01*
G01*
X275506700Y-164032600D02*
G75*
G02*
X273506700Y-166032600I-2000000J0D01*
G01*
%TO.C,K10\u002C1*%
X222516200Y-88118100D02*
X213716200Y-88118100D01*
X213716200Y-88118100D02*
X213716200Y-84118100D01*
X218816200Y-84118100D02*
X213716200Y-84118100D01*
X224516200Y-82118100D02*
X220816200Y-82118100D01*
X224516200Y-82118100D02*
X224516200Y-86118100D01*
X220816200Y-82118100D02*
G75*
G02*
X218816200Y-84118100I-2000000J0D01*
G01*
X224516200Y-86118100D02*
G75*
G02*
X222516200Y-88118100I-2000000J0D01*
G01*
%TO.C,K10\u002C4*%
X246836700Y-146601600D02*
X238036700Y-146601600D01*
X238036700Y-146601600D02*
X238036700Y-142601600D01*
X243136700Y-142601600D02*
X238036700Y-142601600D01*
X248836700Y-140601600D02*
X245136700Y-140601600D01*
X248836700Y-140601600D02*
X248836700Y-144601600D01*
X245136700Y-140601600D02*
G75*
G02*
X243136700Y-142601600I-2000000J0D01*
G01*
X248836700Y-144601600D02*
G75*
G02*
X246836700Y-146601600I-2000000J0D01*
G01*
%TO.C,K11\u002C3*%
X256742700Y-126789600D02*
X247942700Y-126789600D01*
X247942700Y-126789600D02*
X247942700Y-122789600D01*
X253042700Y-122789600D02*
X247942700Y-122789600D01*
X258742700Y-120789600D02*
X255042700Y-120789600D01*
X258742700Y-120789600D02*
X258742700Y-124789600D01*
X255042700Y-120789600D02*
G75*
G02*
X253042700Y-122789600I-2000000J0D01*
G01*
X258742700Y-124789600D02*
G75*
G02*
X256742700Y-126789600I-2000000J0D01*
G01*
%TO.C,K11\u002C2*%
X251853200Y-107358600D02*
X243053200Y-107358600D01*
X243053200Y-107358600D02*
X243053200Y-103358600D01*
X248153200Y-103358600D02*
X243053200Y-103358600D01*
X253853200Y-101358600D02*
X250153200Y-101358600D01*
X253853200Y-101358600D02*
X253853200Y-105358600D01*
X250153200Y-101358600D02*
G75*
G02*
X248153200Y-103358600I-2000000J0D01*
G01*
X253853200Y-105358600D02*
G75*
G02*
X251853200Y-107358600I-2000000J0D01*
G01*
%TO.C,K11\u002C5*%
X297573200Y-166032600D02*
X288773200Y-166032600D01*
X288773200Y-166032600D02*
X288773200Y-162032600D01*
X293873200Y-162032600D02*
X288773200Y-162032600D01*
X299573200Y-160032600D02*
X295873200Y-160032600D01*
X299573200Y-160032600D02*
X299573200Y-164032600D01*
X295873200Y-160032600D02*
G75*
G02*
X293873200Y-162032600I-2000000J0D01*
G01*
X299573200Y-164032600D02*
G75*
G02*
X297573200Y-166032600I-2000000J0D01*
G01*
%TO.C,K11\u002C1*%
X241820200Y-88118100D02*
X233020200Y-88118100D01*
X233020200Y-88118100D02*
X233020200Y-84118100D01*
X238120200Y-84118100D02*
X233020200Y-84118100D01*
X243820200Y-82118100D02*
X240120200Y-82118100D01*
X243820200Y-82118100D02*
X243820200Y-86118100D01*
X240120200Y-82118100D02*
G75*
G02*
X238120200Y-84118100I-2000000J0D01*
G01*
X243820200Y-86118100D02*
G75*
G02*
X241820200Y-88118100I-2000000J0D01*
G01*
%TO.C,K11\u002C0*%
X280920960Y-62337100D02*
X272120960Y-62337100D01*
X272120960Y-62337100D02*
X272120960Y-58337100D01*
X277220960Y-58337100D02*
X272120960Y-58337100D01*
X282920960Y-56337100D02*
X279220960Y-56337100D01*
X282920960Y-56337100D02*
X282920960Y-60337100D01*
X279220960Y-56337100D02*
G75*
G02*
X277220960Y-58337100I-2000000J0D01*
G01*
X282920960Y-60337100D02*
G75*
G02*
X280920960Y-62337100I-2000000J0D01*
G01*
%TO.C,K12\u002C2*%
X271157200Y-107358600D02*
X262357200Y-107358600D01*
X262357200Y-107358600D02*
X262357200Y-103358600D01*
X267457200Y-103358600D02*
X262357200Y-103358600D01*
X273157200Y-101358600D02*
X269457200Y-101358600D01*
X273157200Y-101358600D02*
X273157200Y-105358600D01*
X269457200Y-101358600D02*
G75*
G02*
X267457200Y-103358600I-2000000J0D01*
G01*
X273157200Y-105358600D02*
G75*
G02*
X271157200Y-107358600I-2000000J0D01*
G01*
%TO.C,K12\u002C0*%
X300224960Y-62337100D02*
X291424960Y-62337100D01*
X291424960Y-62337100D02*
X291424960Y-58337100D01*
X296524960Y-58337100D02*
X291424960Y-58337100D01*
X302224960Y-56337100D02*
X298524960Y-56337100D01*
X302224960Y-56337100D02*
X302224960Y-60337100D01*
X298524960Y-56337100D02*
G75*
G02*
X296524960Y-58337100I-2000000J0D01*
G01*
X302224960Y-60337100D02*
G75*
G02*
X300224960Y-62337100I-2000000J0D01*
G01*
%TO.C,K12\u002C1*%
X261124200Y-88118100D02*
X252324200Y-88118100D01*
X252324200Y-88118100D02*
X252324200Y-84118100D01*
X257424200Y-84118100D02*
X252324200Y-84118100D01*
X263124200Y-82118100D02*
X259424200Y-82118100D01*
X263124200Y-82118100D02*
X263124200Y-86118100D01*
X259424200Y-82118100D02*
G75*
G02*
X257424200Y-84118100I-2000000J0D01*
G01*
X263124200Y-86118100D02*
G75*
G02*
X261124200Y-88118100I-2000000J0D01*
G01*
%TO.C,K13\u002C2*%
X295096700Y-107371300D02*
X286296700Y-107371300D01*
X286296700Y-107371300D02*
X286296700Y-103371300D01*
X291396700Y-103371300D02*
X286296700Y-103371300D01*
X297096700Y-101371300D02*
X293396700Y-101371300D01*
X297096700Y-101371300D02*
X297096700Y-105371300D01*
X293396700Y-101371300D02*
G75*
G02*
X291396700Y-103371300I-2000000J0D01*
G01*
X297096700Y-105371300D02*
G75*
G02*
X295096700Y-107371300I-2000000J0D01*
G01*
%TO.C,K14\u002C6*%
X322681100Y-165905600D02*
X313881100Y-165905600D01*
X313881100Y-165905600D02*
X313881100Y-161905600D01*
X318981100Y-161905600D02*
X313881100Y-161905600D01*
X324681100Y-159905600D02*
X320981100Y-159905600D01*
X324681100Y-159905600D02*
X324681100Y-163905600D01*
X320981100Y-159905600D02*
G75*
G02*
X318981100Y-161905600I-2000000J0D01*
G01*
X324681100Y-163905600D02*
G75*
G02*
X322681100Y-165905600I-2000000J0D01*
G01*
%TO.C,K14\u002C3*%
X322744600Y-107358600D02*
X313944600Y-107358600D01*
X313944600Y-107358600D02*
X313944600Y-103358600D01*
X319044600Y-103358600D02*
X313944600Y-103358600D01*
X324744600Y-101358600D02*
X321044600Y-101358600D01*
X324744600Y-101358600D02*
X324744600Y-105358600D01*
X321044600Y-101358600D02*
G75*
G02*
X319044600Y-103358600I-2000000J0D01*
G01*
X324744600Y-105358600D02*
G75*
G02*
X322744600Y-107358600I-2000000J0D01*
G01*
%TO.C,K14\u002C0*%
X322795400Y-62337100D02*
X313995400Y-62337100D01*
X313995400Y-62337100D02*
X313995400Y-58337100D01*
X319095400Y-58337100D02*
X313995400Y-58337100D01*
X324795400Y-56337100D02*
X321095400Y-56337100D01*
X324795400Y-56337100D02*
X324795400Y-60337100D01*
X321095400Y-56337100D02*
G75*
G02*
X319095400Y-58337100I-2000000J0D01*
G01*
X324795400Y-60337100D02*
G75*
G02*
X322795400Y-62337100I-2000000J0D01*
G01*
%TO.C,K15\u002C6*%
X341985100Y-165905600D02*
X333185100Y-165905600D01*
X333185100Y-165905600D02*
X333185100Y-161905600D01*
X338285100Y-161905600D02*
X333185100Y-161905600D01*
X343985100Y-159905600D02*
X340285100Y-159905600D01*
X343985100Y-159905600D02*
X343985100Y-163905600D01*
X340285100Y-159905600D02*
G75*
G02*
X338285100Y-161905600I-2000000J0D01*
G01*
X343985100Y-163905600D02*
G75*
G02*
X341985100Y-165905600I-2000000J0D01*
G01*
%TO.C,K15\u002C3*%
X342048600Y-107358600D02*
X333248600Y-107358600D01*
X333248600Y-107358600D02*
X333248600Y-103358600D01*
X338348600Y-103358600D02*
X333248600Y-103358600D01*
X344048600Y-101358600D02*
X340348600Y-101358600D01*
X344048600Y-101358600D02*
X344048600Y-105358600D01*
X340348600Y-101358600D02*
G75*
G02*
X338348600Y-103358600I-2000000J0D01*
G01*
X344048600Y-105358600D02*
G75*
G02*
X342048600Y-107358600I-2000000J0D01*
G01*
%TO.C,K15\u002C5*%
X341985100Y-146601600D02*
X333185100Y-146601600D01*
X333185100Y-146601600D02*
X333185100Y-142601600D01*
X338285100Y-142601600D02*
X333185100Y-142601600D01*
X343985100Y-140601600D02*
X340285100Y-140601600D01*
X343985100Y-140601600D02*
X343985100Y-144601600D01*
X340285100Y-140601600D02*
G75*
G02*
X338285100Y-142601600I-2000000J0D01*
G01*
X343985100Y-144601600D02*
G75*
G02*
X341985100Y-146601600I-2000000J0D01*
G01*
%TO.C,K15\u002C1*%
X342048600Y-88118100D02*
X333248600Y-88118100D01*
X333248600Y-88118100D02*
X333248600Y-84118100D01*
X338348600Y-84118100D02*
X333248600Y-84118100D01*
X344048600Y-82118100D02*
X340348600Y-82118100D01*
X344048600Y-82118100D02*
X344048600Y-86118100D01*
X340348600Y-82118100D02*
G75*
G02*
X338348600Y-84118100I-2000000J0D01*
G01*
X344048600Y-86118100D02*
G75*
G02*
X342048600Y-88118100I-2000000J0D01*
G01*
%TO.C,K15\u002C0*%
X342353400Y-62337100D02*
X333553400Y-62337100D01*
X333553400Y-62337100D02*
X333553400Y-58337100D01*
X338653400Y-58337100D02*
X333553400Y-58337100D01*
X344353400Y-56337100D02*
X340653400Y-56337100D01*
X344353400Y-56337100D02*
X344353400Y-60337100D01*
X340653400Y-56337100D02*
G75*
G02*
X338653400Y-58337100I-2000000J0D01*
G01*
X344353400Y-60337100D02*
G75*
G02*
X342353400Y-62337100I-2000000J0D01*
G01*
%TO.C,K16\u002C4*%
X385228600Y-126789600D02*
X376428600Y-126789600D01*
X376428600Y-126789600D02*
X376428600Y-122789600D01*
X381528600Y-122789600D02*
X376428600Y-122789600D01*
X387228600Y-120789600D02*
X383528600Y-120789600D01*
X387228600Y-120789600D02*
X387228600Y-124789600D01*
X383528600Y-120789600D02*
G75*
G02*
X381528600Y-122789600I-2000000J0D01*
G01*
X387228600Y-124789600D02*
G75*
G02*
X385228600Y-126789600I-2000000J0D01*
G01*
%TO.C,K16\u002C5*%
X385228600Y-146093600D02*
X376428600Y-146093600D01*
X376428600Y-146093600D02*
X376428600Y-142093600D01*
X381528600Y-142093600D02*
X376428600Y-142093600D01*
X387228600Y-140093600D02*
X383528600Y-140093600D01*
X387228600Y-140093600D02*
X387228600Y-144093600D01*
X383528600Y-140093600D02*
G75*
G02*
X381528600Y-142093600I-2000000J0D01*
G01*
X387228600Y-144093600D02*
G75*
G02*
X385228600Y-146093600I-2000000J0D01*
G01*
%TO.C,K16\u002C3*%
X361352600Y-107358600D02*
X352552600Y-107358600D01*
X352552600Y-107358600D02*
X352552600Y-103358600D01*
X357652600Y-103358600D02*
X352552600Y-103358600D01*
X363352600Y-101358600D02*
X359652600Y-101358600D01*
X363352600Y-101358600D02*
X363352600Y-105358600D01*
X359652600Y-101358600D02*
G75*
G02*
X357652600Y-103358600I-2000000J0D01*
G01*
X363352600Y-105358600D02*
G75*
G02*
X361352600Y-107358600I-2000000J0D01*
G01*
%TO.C,K16\u002C0*%
X361657400Y-62337100D02*
X352857400Y-62337100D01*
X352857400Y-62337100D02*
X352857400Y-58337100D01*
X357957400Y-58337100D02*
X352857400Y-58337100D01*
X363657400Y-56337100D02*
X359957400Y-56337100D01*
X363657400Y-56337100D02*
X363657400Y-60337100D01*
X359957400Y-56337100D02*
G75*
G02*
X357957400Y-58337100I-2000000J0D01*
G01*
X363657400Y-60337100D02*
G75*
G02*
X361657400Y-62337100I-2000000J0D01*
G01*
%TO.C,K16\u002C6*%
X361289100Y-165905600D02*
X352489100Y-165905600D01*
X352489100Y-165905600D02*
X352489100Y-161905600D01*
X357589100Y-161905600D02*
X352489100Y-161905600D01*
X363289100Y-159905600D02*
X359589100Y-159905600D01*
X363289100Y-159905600D02*
X363289100Y-163905600D01*
X359589100Y-159905600D02*
G75*
G02*
X357589100Y-161905600I-2000000J0D01*
G01*
X363289100Y-163905600D02*
G75*
G02*
X361289100Y-165905600I-2000000J0D01*
G01*
%TO.C,K17\u002C6*%
X394753600Y-165397600D02*
X385953600Y-165397600D01*
X385953600Y-165397600D02*
X385953600Y-161397600D01*
X391053600Y-161397600D02*
X385953600Y-161397600D01*
X396753600Y-159397600D02*
X393053600Y-159397600D01*
X396753600Y-159397600D02*
X396753600Y-163397600D01*
X393053600Y-159397600D02*
G75*
G02*
X391053600Y-161397600I-2000000J0D01*
G01*
X396753600Y-163397600D02*
G75*
G02*
X394753600Y-165397600I-2000000J0D01*
G01*
%TO.C,K17\u002C5*%
X404532600Y-146093600D02*
X395732600Y-146093600D01*
X395732600Y-146093600D02*
X395732600Y-142093600D01*
X400832600Y-142093600D02*
X395732600Y-142093600D01*
X406532600Y-140093600D02*
X402832600Y-140093600D01*
X406532600Y-140093600D02*
X406532600Y-144093600D01*
X402832600Y-140093600D02*
G75*
G02*
X400832600Y-142093600I-2000000J0D01*
G01*
X406532600Y-144093600D02*
G75*
G02*
X404532600Y-146093600I-2000000J0D01*
G01*
%TO.C,K17\u002C4*%
X404532600Y-126789600D02*
X395732600Y-126789600D01*
X395732600Y-126789600D02*
X395732600Y-122789600D01*
X400832600Y-122789600D02*
X395732600Y-122789600D01*
X406532600Y-120789600D02*
X402832600Y-120789600D01*
X406532600Y-120789600D02*
X406532600Y-124789600D01*
X402832600Y-120789600D02*
G75*
G02*
X400832600Y-122789600I-2000000J0D01*
G01*
X406532600Y-124789600D02*
G75*
G02*
X404532600Y-126789600I-2000000J0D01*
G01*
%TO.C,K17\u002C3*%
X385228600Y-107485600D02*
X376428600Y-107485600D01*
X376428600Y-107485600D02*
X376428600Y-103485600D01*
X381528600Y-103485600D02*
X376428600Y-103485600D01*
X387228600Y-101485600D02*
X383528600Y-101485600D01*
X387228600Y-101485600D02*
X387228600Y-105485600D01*
X383528600Y-101485600D02*
G75*
G02*
X381528600Y-103485600I-2000000J0D01*
G01*
X387228600Y-105485600D02*
G75*
G02*
X385228600Y-107485600I-2000000J0D01*
G01*
%TO.C,K17\u002C1*%
X385228600Y-88118100D02*
X376428600Y-88118100D01*
X376428600Y-88118100D02*
X376428600Y-84118100D01*
X381528600Y-84118100D02*
X376428600Y-84118100D01*
X387228600Y-82118100D02*
X383528600Y-82118100D01*
X387228600Y-82118100D02*
X387228600Y-86118100D01*
X383528600Y-82118100D02*
G75*
G02*
X381528600Y-84118100I-2000000J0D01*
G01*
X387228600Y-86118100D02*
G75*
G02*
X385228600Y-88118100I-2000000J0D01*
G01*
%TO.C,K17\u002C0*%
X385165100Y-62337100D02*
X376365100Y-62337100D01*
X376365100Y-62337100D02*
X376365100Y-58337100D01*
X381465100Y-58337100D02*
X376365100Y-58337100D01*
X387165100Y-56337100D02*
X383465100Y-56337100D01*
X387165100Y-56337100D02*
X387165100Y-60337100D01*
X383465100Y-56337100D02*
G75*
G02*
X381465100Y-58337100I-2000000J0D01*
G01*
X387165100Y-60337100D02*
G75*
G02*
X385165100Y-62337100I-2000000J0D01*
G01*
%TO.C,K18\u002C6*%
X423836600Y-165397600D02*
X415036600Y-165397600D01*
X415036600Y-165397600D02*
X415036600Y-161397600D01*
X420136600Y-161397600D02*
X415036600Y-161397600D01*
X425836600Y-159397600D02*
X422136600Y-159397600D01*
X425836600Y-159397600D02*
X425836600Y-163397600D01*
X422136600Y-159397600D02*
G75*
G02*
X420136600Y-161397600I-2000000J0D01*
G01*
X425836600Y-163397600D02*
G75*
G02*
X423836600Y-165397600I-2000000J0D01*
G01*
%TO.C,K18\u002C3*%
X404532600Y-107485600D02*
X395732600Y-107485600D01*
X395732600Y-107485600D02*
X395732600Y-103485600D01*
X400832600Y-103485600D02*
X395732600Y-103485600D01*
X406532600Y-101485600D02*
X402832600Y-101485600D01*
X406532600Y-101485600D02*
X406532600Y-105485600D01*
X402832600Y-101485600D02*
G75*
G02*
X400832600Y-103485600I-2000000J0D01*
G01*
X406532600Y-105485600D02*
G75*
G02*
X404532600Y-107485600I-2000000J0D01*
G01*
%TO.C,K18\u002C1*%
X404532600Y-88118100D02*
X395732600Y-88118100D01*
X395732600Y-88118100D02*
X395732600Y-84118100D01*
X400832600Y-84118100D02*
X395732600Y-84118100D01*
X406532600Y-82118100D02*
X402832600Y-82118100D01*
X406532600Y-82118100D02*
X406532600Y-86118100D01*
X402832600Y-82118100D02*
G75*
G02*
X400832600Y-84118100I-2000000J0D01*
G01*
X406532600Y-86118100D02*
G75*
G02*
X404532600Y-88118100I-2000000J0D01*
G01*
%TO.C,K18\u002C5*%
X423836600Y-146093600D02*
X415036600Y-146093600D01*
X415036600Y-146093600D02*
X415036600Y-142093600D01*
X420136600Y-142093600D02*
X415036600Y-142093600D01*
X425836600Y-140093600D02*
X422136600Y-140093600D01*
X425836600Y-140093600D02*
X425836600Y-144093600D01*
X422136600Y-140093600D02*
G75*
G02*
X420136600Y-142093600I-2000000J0D01*
G01*
X425836600Y-144093600D02*
G75*
G02*
X423836600Y-146093600I-2000000J0D01*
G01*
%TO.C,K19\u002C0*%
X423773100Y-62337100D02*
X414973100Y-62337100D01*
X414973100Y-62337100D02*
X414973100Y-58337100D01*
X420073100Y-58337100D02*
X414973100Y-58337100D01*
X425773100Y-56337100D02*
X422073100Y-56337100D01*
X425773100Y-56337100D02*
X425773100Y-60337100D01*
X422073100Y-56337100D02*
G75*
G02*
X420073100Y-58337100I-2000000J0D01*
G01*
X425773100Y-60337100D02*
G75*
G02*
X423773100Y-62337100I-2000000J0D01*
G01*
%TO.C,K19\u002C3*%
X423836600Y-107485600D02*
X415036600Y-107485600D01*
X415036600Y-107485600D02*
X415036600Y-103485600D01*
X420136600Y-103485600D02*
X415036600Y-103485600D01*
X425836600Y-101485600D02*
X422136600Y-101485600D01*
X425836600Y-101485600D02*
X425836600Y-105485600D01*
X422136600Y-101485600D02*
G75*
G02*
X420136600Y-103485600I-2000000J0D01*
G01*
X425836600Y-105485600D02*
G75*
G02*
X423836600Y-107485600I-2000000J0D01*
G01*
%TO.C,K19\u002C1*%
X423836600Y-88118100D02*
X415036600Y-88118100D01*
X415036600Y-88118100D02*
X415036600Y-84118100D01*
X420136600Y-84118100D02*
X415036600Y-84118100D01*
X425836600Y-82118100D02*
X422136600Y-82118100D01*
X425836600Y-82118100D02*
X425836600Y-86118100D01*
X422136600Y-82118100D02*
G75*
G02*
X420136600Y-84118100I-2000000J0D01*
G01*
X425836600Y-86118100D02*
G75*
G02*
X423836600Y-88118100I-2000000J0D01*
G01*
%TO.C,K20\u002C0*%
X443077100Y-62337100D02*
X434277100Y-62337100D01*
X434277100Y-62337100D02*
X434277100Y-58337100D01*
X439377100Y-58337100D02*
X434277100Y-58337100D01*
X445077100Y-56337100D02*
X441377100Y-56337100D01*
X445077100Y-56337100D02*
X445077100Y-60337100D01*
X441377100Y-56337100D02*
G75*
G02*
X439377100Y-58337100I-2000000J0D01*
G01*
X445077100Y-60337100D02*
G75*
G02*
X443077100Y-62337100I-2000000J0D01*
G01*
%TO.C,K20\u002C1*%
X443140600Y-88118100D02*
X434340600Y-88118100D01*
X434340600Y-88118100D02*
X434340600Y-84118100D01*
X439440600Y-84118100D02*
X434340600Y-84118100D01*
X445140600Y-82118100D02*
X441440600Y-82118100D01*
X445140600Y-82118100D02*
X445140600Y-86118100D01*
X441440600Y-82118100D02*
G75*
G02*
X439440600Y-84118100I-2000000J0D01*
G01*
X445140600Y-86118100D02*
G75*
G02*
X443140600Y-88118100I-2000000J0D01*
G01*
%TO.C,K18\u002C0*%
X404469100Y-62324400D02*
X395669100Y-62324400D01*
X395669100Y-62324400D02*
X395669100Y-58324400D01*
X400769100Y-58324400D02*
X395669100Y-58324400D01*
X406469100Y-56324400D02*
X402769100Y-56324400D01*
X406469100Y-56324400D02*
X406469100Y-60324400D01*
X406469100Y-60324400D02*
G75*
G02*
X404469100Y-62324400I-2000000J0D01*
G01*
X402769100Y-56324400D02*
G75*
G02*
X400769100Y-58324400I-2000000J0D01*
G01*
%TD*%
%TO.C,K19\u002C6*%
D12*
X441069171Y-154147980D02*
X441069171Y-153147980D01*
X440497742Y-154147980D02*
X440926314Y-153576552D01*
X440497742Y-153147980D02*
X441069171Y-153719409D01*
X439545361Y-154147980D02*
X440116790Y-154147980D01*
X439831076Y-154147980D02*
X439831076Y-153147980D01*
X439926314Y-153290838D01*
X440021552Y-153386076D01*
X440116790Y-153433695D01*
X439069171Y-154147980D02*
X438878695Y-154147980D01*
X438783457Y-154100361D01*
X438735838Y-154052742D01*
X438640600Y-153909885D01*
X438592980Y-153719409D01*
X438592980Y-153338457D01*
X438640600Y-153243219D01*
X438688219Y-153195600D01*
X438783457Y-153147980D01*
X438973933Y-153147980D01*
X439069171Y-153195600D01*
X439116790Y-153243219D01*
X439164409Y-153338457D01*
X439164409Y-153576552D01*
X439116790Y-153671790D01*
X439069171Y-153719409D01*
X438973933Y-153767028D01*
X438783457Y-153767028D01*
X438688219Y-153719409D01*
X438640600Y-153671790D01*
X438592980Y-153576552D01*
X438116790Y-154100361D02*
X438116790Y-154147980D01*
X438164409Y-154243219D01*
X438212028Y-154290838D01*
X437259647Y-153147980D02*
X437450123Y-153147980D01*
X437545361Y-153195600D01*
X437592980Y-153243219D01*
X437688219Y-153386076D01*
X437735838Y-153576552D01*
X437735838Y-153957504D01*
X437688219Y-154052742D01*
X437640600Y-154100361D01*
X437545361Y-154147980D01*
X437354885Y-154147980D01*
X437259647Y-154100361D01*
X437212028Y-154052742D01*
X437164409Y-153957504D01*
X437164409Y-153719409D01*
X437212028Y-153624171D01*
X437259647Y-153576552D01*
X437354885Y-153528933D01*
X437545361Y-153528933D01*
X437640600Y-153576552D01*
X437688219Y-153624171D01*
X437735838Y-153719409D01*
%TO.C,C6*%
X436336319Y-19103171D02*
X436002985Y-19103171D01*
X435860128Y-19626980D02*
X436336319Y-19626980D01*
X436336319Y-18626980D01*
X435860128Y-18626980D01*
X435431557Y-19103171D02*
X435098223Y-19103171D01*
X434955366Y-19626980D02*
X435431557Y-19626980D01*
X435431557Y-18626980D01*
X434955366Y-18626980D01*
X434526795Y-19103171D02*
X434193461Y-19103171D01*
X434050604Y-19626980D02*
X434526795Y-19626980D01*
X434526795Y-18626980D01*
X434050604Y-18626980D01*
X433622033Y-19246028D02*
X432860128Y-19246028D01*
X432050604Y-19103171D02*
X432383938Y-19103171D01*
X432383938Y-19626980D02*
X432383938Y-18626980D01*
X431907747Y-18626980D01*
X431526795Y-19626980D02*
X431526795Y-18626980D01*
X430955366Y-19626980D01*
X430955366Y-18626980D01*
X429955366Y-19626980D02*
X430526795Y-19626980D01*
X430241080Y-19626980D02*
X430241080Y-18626980D01*
X430336319Y-18769838D01*
X430431557Y-18865076D01*
X430526795Y-18912695D01*
X428955366Y-19531742D02*
X429002985Y-19579361D01*
X429145842Y-19626980D01*
X429241080Y-19626980D01*
X429383938Y-19579361D01*
X429479176Y-19484123D01*
X429526795Y-19388885D01*
X429574414Y-19198409D01*
X429574414Y-19055552D01*
X429526795Y-18865076D01*
X429479176Y-18769838D01*
X429383938Y-18674600D01*
X429241080Y-18626980D01*
X429145842Y-18626980D01*
X429002985Y-18674600D01*
X428955366Y-18722219D01*
X428002985Y-19626980D02*
X428574414Y-19626980D01*
X428288700Y-19626980D02*
X428288700Y-18626980D01*
X428383938Y-18769838D01*
X428479176Y-18865076D01*
X428574414Y-18912695D01*
X427383938Y-18626980D02*
X427288700Y-18626980D01*
X427193461Y-18674600D01*
X427145842Y-18722219D01*
X427098223Y-18817457D01*
X427050604Y-19007933D01*
X427050604Y-19246028D01*
X427098223Y-19436504D01*
X427145842Y-19531742D01*
X427193461Y-19579361D01*
X427288700Y-19626980D01*
X427383938Y-19626980D01*
X427479176Y-19579361D01*
X427526795Y-19531742D01*
X427574414Y-19436504D01*
X427622033Y-19246028D01*
X427622033Y-19007933D01*
X427574414Y-18817457D01*
X427526795Y-18722219D01*
X427479176Y-18674600D01*
X427383938Y-18626980D01*
X426669652Y-18722219D02*
X426622033Y-18674600D01*
X426526795Y-18626980D01*
X426288700Y-18626980D01*
X426193461Y-18674600D01*
X426145842Y-18722219D01*
X426098223Y-18817457D01*
X426098223Y-18912695D01*
X426145842Y-19055552D01*
X426717271Y-19626980D01*
X426098223Y-19626980D01*
X425669652Y-18626980D02*
X425669652Y-19436504D01*
X425622033Y-19531742D01*
X425574414Y-19579361D01*
X425479176Y-19626980D01*
X425288700Y-19626980D01*
X425193461Y-19579361D01*
X425145842Y-19531742D01*
X425098223Y-19436504D01*
X425098223Y-18626980D01*
X424764890Y-18626980D02*
X424431557Y-19626980D01*
X424098223Y-18626980D01*
X430455366Y-25731742D02*
X430502985Y-25779361D01*
X430645842Y-25826980D01*
X430741080Y-25826980D01*
X430883938Y-25779361D01*
X430979176Y-25684123D01*
X431026795Y-25588885D01*
X431074414Y-25398409D01*
X431074414Y-25255552D01*
X431026795Y-25065076D01*
X430979176Y-24969838D01*
X430883938Y-24874600D01*
X430741080Y-24826980D01*
X430645842Y-24826980D01*
X430502985Y-24874600D01*
X430455366Y-24922219D01*
X429598223Y-24826980D02*
X429788700Y-24826980D01*
X429883938Y-24874600D01*
X429931557Y-24922219D01*
X430026795Y-25065076D01*
X430074414Y-25255552D01*
X430074414Y-25636504D01*
X430026795Y-25731742D01*
X429979176Y-25779361D01*
X429883938Y-25826980D01*
X429693461Y-25826980D01*
X429598223Y-25779361D01*
X429550604Y-25731742D01*
X429502985Y-25636504D01*
X429502985Y-25398409D01*
X429550604Y-25303171D01*
X429598223Y-25255552D01*
X429693461Y-25207933D01*
X429883938Y-25207933D01*
X429979176Y-25255552D01*
X430026795Y-25303171D01*
X430074414Y-25398409D01*
%TO.C,K7\u002C0*%
X194045340Y-60739480D02*
X194045340Y-59739480D01*
X193473912Y-60739480D02*
X193902483Y-60168052D01*
X193473912Y-59739480D02*
X194045340Y-60310909D01*
X193140579Y-59739480D02*
X192473912Y-59739480D01*
X192902483Y-60739480D01*
X192045340Y-60691861D02*
X192045340Y-60739480D01*
X192092960Y-60834719D01*
X192140579Y-60882338D01*
X191426293Y-59739480D02*
X191331055Y-59739480D01*
X191235817Y-59787100D01*
X191188198Y-59834719D01*
X191140579Y-59929957D01*
X191092960Y-60120433D01*
X191092960Y-60358528D01*
X191140579Y-60549004D01*
X191188198Y-60644242D01*
X191235817Y-60691861D01*
X191331055Y-60739480D01*
X191426293Y-60739480D01*
X191521531Y-60691861D01*
X191569150Y-60644242D01*
X191616769Y-60549004D01*
X191664388Y-60358528D01*
X191664388Y-60120433D01*
X191616769Y-59929957D01*
X191569150Y-59834719D01*
X191521531Y-59787100D01*
X191426293Y-59739480D01*
%TO.C,K12\u002C3*%
X285976771Y-125204680D02*
X285976771Y-124204680D01*
X285405342Y-125204680D02*
X285833914Y-124633252D01*
X285405342Y-124204680D02*
X285976771Y-124776109D01*
X284452961Y-125204680D02*
X285024390Y-125204680D01*
X284738676Y-125204680D02*
X284738676Y-124204680D01*
X284833914Y-124347538D01*
X284929152Y-124442776D01*
X285024390Y-124490395D01*
X284072009Y-124299919D02*
X284024390Y-124252300D01*
X283929152Y-124204680D01*
X283691057Y-124204680D01*
X283595819Y-124252300D01*
X283548200Y-124299919D01*
X283500580Y-124395157D01*
X283500580Y-124490395D01*
X283548200Y-124633252D01*
X284119628Y-125204680D01*
X283500580Y-125204680D01*
X283024390Y-125157061D02*
X283024390Y-125204680D01*
X283072009Y-125299919D01*
X283119628Y-125347538D01*
X282691057Y-124204680D02*
X282072009Y-124204680D01*
X282405342Y-124585633D01*
X282262485Y-124585633D01*
X282167247Y-124633252D01*
X282119628Y-124680871D01*
X282072009Y-124776109D01*
X282072009Y-125014204D01*
X282119628Y-125109442D01*
X282167247Y-125157061D01*
X282262485Y-125204680D01*
X282548200Y-125204680D01*
X282643438Y-125157061D01*
X282691057Y-125109442D01*
%TO.C,K16\u002C1*%
X359281171Y-86520480D02*
X359281171Y-85520480D01*
X358709742Y-86520480D02*
X359138314Y-85949052D01*
X358709742Y-85520480D02*
X359281171Y-86091909D01*
X357757361Y-86520480D02*
X358328790Y-86520480D01*
X358043076Y-86520480D02*
X358043076Y-85520480D01*
X358138314Y-85663338D01*
X358233552Y-85758576D01*
X358328790Y-85806195D01*
X356900219Y-85520480D02*
X357090695Y-85520480D01*
X357185933Y-85568100D01*
X357233552Y-85615719D01*
X357328790Y-85758576D01*
X357376409Y-85949052D01*
X357376409Y-86330004D01*
X357328790Y-86425242D01*
X357281171Y-86472861D01*
X357185933Y-86520480D01*
X356995457Y-86520480D01*
X356900219Y-86472861D01*
X356852600Y-86425242D01*
X356804980Y-86330004D01*
X356804980Y-86091909D01*
X356852600Y-85996671D01*
X356900219Y-85949052D01*
X356995457Y-85901433D01*
X357185933Y-85901433D01*
X357281171Y-85949052D01*
X357328790Y-85996671D01*
X357376409Y-86091909D01*
X356328790Y-86472861D02*
X356328790Y-86520480D01*
X356376409Y-86615719D01*
X356424028Y-86663338D01*
X355376409Y-86520480D02*
X355947838Y-86520480D01*
X355662123Y-86520480D02*
X355662123Y-85520480D01*
X355757361Y-85663338D01*
X355852600Y-85758576D01*
X355947838Y-85806195D01*
%TO.C,K14\u002C1*%
X320673171Y-86520480D02*
X320673171Y-85520480D01*
X320101742Y-86520480D02*
X320530314Y-85949052D01*
X320101742Y-85520480D02*
X320673171Y-86091909D01*
X319149361Y-86520480D02*
X319720790Y-86520480D01*
X319435076Y-86520480D02*
X319435076Y-85520480D01*
X319530314Y-85663338D01*
X319625552Y-85758576D01*
X319720790Y-85806195D01*
X318292219Y-85853814D02*
X318292219Y-86520480D01*
X318530314Y-85472861D02*
X318768409Y-86187147D01*
X318149361Y-86187147D01*
X317720790Y-86472861D02*
X317720790Y-86520480D01*
X317768409Y-86615719D01*
X317816028Y-86663338D01*
X316768409Y-86520480D02*
X317339838Y-86520480D01*
X317054123Y-86520480D02*
X317054123Y-85520480D01*
X317149361Y-85663338D01*
X317244600Y-85758576D01*
X317339838Y-85806195D01*
%TO.C,K3\u002C2*%
X94873580Y-105760980D02*
X94873580Y-104760980D01*
X94302152Y-105760980D02*
X94730723Y-105189552D01*
X94302152Y-104760980D02*
X94873580Y-105332409D01*
X93968819Y-104760980D02*
X93349771Y-104760980D01*
X93683104Y-105141933D01*
X93540247Y-105141933D01*
X93445009Y-105189552D01*
X93397390Y-105237171D01*
X93349771Y-105332409D01*
X93349771Y-105570504D01*
X93397390Y-105665742D01*
X93445009Y-105713361D01*
X93540247Y-105760980D01*
X93825961Y-105760980D01*
X93921200Y-105713361D01*
X93968819Y-105665742D01*
X92873580Y-105713361D02*
X92873580Y-105760980D01*
X92921200Y-105856219D01*
X92968819Y-105903838D01*
X92492628Y-104856219D02*
X92445009Y-104808600D01*
X92349771Y-104760980D01*
X92111676Y-104760980D01*
X92016438Y-104808600D01*
X91968819Y-104856219D01*
X91921200Y-104951457D01*
X91921200Y-105046695D01*
X91968819Y-105189552D01*
X92540247Y-105760980D01*
X91921200Y-105760980D01*
%TO.C,K8\u002C0*%
X213349340Y-60739480D02*
X213349340Y-59739480D01*
X212777912Y-60739480D02*
X213206483Y-60168052D01*
X212777912Y-59739480D02*
X213349340Y-60310909D01*
X212206483Y-60168052D02*
X212301721Y-60120433D01*
X212349340Y-60072814D01*
X212396960Y-59977576D01*
X212396960Y-59929957D01*
X212349340Y-59834719D01*
X212301721Y-59787100D01*
X212206483Y-59739480D01*
X212016007Y-59739480D01*
X211920769Y-59787100D01*
X211873150Y-59834719D01*
X211825531Y-59929957D01*
X211825531Y-59977576D01*
X211873150Y-60072814D01*
X211920769Y-60120433D01*
X212016007Y-60168052D01*
X212206483Y-60168052D01*
X212301721Y-60215671D01*
X212349340Y-60263290D01*
X212396960Y-60358528D01*
X212396960Y-60549004D01*
X212349340Y-60644242D01*
X212301721Y-60691861D01*
X212206483Y-60739480D01*
X212016007Y-60739480D01*
X211920769Y-60691861D01*
X211873150Y-60644242D01*
X211825531Y-60549004D01*
X211825531Y-60358528D01*
X211873150Y-60263290D01*
X211920769Y-60215671D01*
X212016007Y-60168052D01*
X211349340Y-60691861D02*
X211349340Y-60739480D01*
X211396960Y-60834719D01*
X211444579Y-60882338D01*
X210730293Y-59739480D02*
X210635055Y-59739480D01*
X210539817Y-59787100D01*
X210492198Y-59834719D01*
X210444579Y-59929957D01*
X210396960Y-60120433D01*
X210396960Y-60358528D01*
X210444579Y-60549004D01*
X210492198Y-60644242D01*
X210539817Y-60691861D01*
X210635055Y-60739480D01*
X210730293Y-60739480D01*
X210825531Y-60691861D01*
X210873150Y-60644242D01*
X210920769Y-60549004D01*
X210968388Y-60358528D01*
X210968388Y-60120433D01*
X210920769Y-59929957D01*
X210873150Y-59834719D01*
X210825531Y-59787100D01*
X210730293Y-59739480D01*
%TO.C,K0\u002C2*%
X32326080Y-105735580D02*
X32326080Y-104735580D01*
X31754652Y-105735580D02*
X32183223Y-105164152D01*
X31754652Y-104735580D02*
X32326080Y-105307009D01*
X31135604Y-104735580D02*
X31040366Y-104735580D01*
X30945128Y-104783200D01*
X30897509Y-104830819D01*
X30849890Y-104926057D01*
X30802271Y-105116533D01*
X30802271Y-105354628D01*
X30849890Y-105545104D01*
X30897509Y-105640342D01*
X30945128Y-105687961D01*
X31040366Y-105735580D01*
X31135604Y-105735580D01*
X31230842Y-105687961D01*
X31278461Y-105640342D01*
X31326080Y-105545104D01*
X31373700Y-105354628D01*
X31373700Y-105116533D01*
X31326080Y-104926057D01*
X31278461Y-104830819D01*
X31230842Y-104783200D01*
X31135604Y-104735580D01*
X30326080Y-105687961D02*
X30326080Y-105735580D01*
X30373700Y-105830819D01*
X30421319Y-105878438D01*
X29945128Y-104830819D02*
X29897509Y-104783200D01*
X29802271Y-104735580D01*
X29564176Y-104735580D01*
X29468938Y-104783200D01*
X29421319Y-104830819D01*
X29373700Y-104926057D01*
X29373700Y-105021295D01*
X29421319Y-105164152D01*
X29992747Y-105735580D01*
X29373700Y-105735580D01*
%TO.C,K18\u002C4*%
X421765171Y-125128480D02*
X421765171Y-124128480D01*
X421193742Y-125128480D02*
X421622314Y-124557052D01*
X421193742Y-124128480D02*
X421765171Y-124699909D01*
X420241361Y-125128480D02*
X420812790Y-125128480D01*
X420527076Y-125128480D02*
X420527076Y-124128480D01*
X420622314Y-124271338D01*
X420717552Y-124366576D01*
X420812790Y-124414195D01*
X419669933Y-124557052D02*
X419765171Y-124509433D01*
X419812790Y-124461814D01*
X419860409Y-124366576D01*
X419860409Y-124318957D01*
X419812790Y-124223719D01*
X419765171Y-124176100D01*
X419669933Y-124128480D01*
X419479457Y-124128480D01*
X419384219Y-124176100D01*
X419336600Y-124223719D01*
X419288980Y-124318957D01*
X419288980Y-124366576D01*
X419336600Y-124461814D01*
X419384219Y-124509433D01*
X419479457Y-124557052D01*
X419669933Y-124557052D01*
X419765171Y-124604671D01*
X419812790Y-124652290D01*
X419860409Y-124747528D01*
X419860409Y-124938004D01*
X419812790Y-125033242D01*
X419765171Y-125080861D01*
X419669933Y-125128480D01*
X419479457Y-125128480D01*
X419384219Y-125080861D01*
X419336600Y-125033242D01*
X419288980Y-124938004D01*
X419288980Y-124747528D01*
X419336600Y-124652290D01*
X419384219Y-124604671D01*
X419479457Y-124557052D01*
X418812790Y-125080861D02*
X418812790Y-125128480D01*
X418860409Y-125223719D01*
X418908028Y-125271338D01*
X417955647Y-124461814D02*
X417955647Y-125128480D01*
X418193742Y-124080861D02*
X418431838Y-124795147D01*
X417812790Y-124795147D01*
%TO.C,K10\u002C3*%
X235367271Y-125191980D02*
X235367271Y-124191980D01*
X234795842Y-125191980D02*
X235224414Y-124620552D01*
X234795842Y-124191980D02*
X235367271Y-124763409D01*
X233843461Y-125191980D02*
X234414890Y-125191980D01*
X234129176Y-125191980D02*
X234129176Y-124191980D01*
X234224414Y-124334838D01*
X234319652Y-124430076D01*
X234414890Y-124477695D01*
X233224414Y-124191980D02*
X233129176Y-124191980D01*
X233033938Y-124239600D01*
X232986319Y-124287219D01*
X232938700Y-124382457D01*
X232891080Y-124572933D01*
X232891080Y-124811028D01*
X232938700Y-125001504D01*
X232986319Y-125096742D01*
X233033938Y-125144361D01*
X233129176Y-125191980D01*
X233224414Y-125191980D01*
X233319652Y-125144361D01*
X233367271Y-125096742D01*
X233414890Y-125001504D01*
X233462509Y-124811028D01*
X233462509Y-124572933D01*
X233414890Y-124382457D01*
X233367271Y-124287219D01*
X233319652Y-124239600D01*
X233224414Y-124191980D01*
X232414890Y-125144361D02*
X232414890Y-125191980D01*
X232462509Y-125287219D01*
X232510128Y-125334838D01*
X232081557Y-124191980D02*
X231462509Y-124191980D01*
X231795842Y-124572933D01*
X231652985Y-124572933D01*
X231557747Y-124620552D01*
X231510128Y-124668171D01*
X231462509Y-124763409D01*
X231462509Y-125001504D01*
X231510128Y-125096742D01*
X231557747Y-125144361D01*
X231652985Y-125191980D01*
X231938700Y-125191980D01*
X232033938Y-125144361D01*
X232081557Y-125096742D01*
%TO.C,K13\u002C1*%
X287818271Y-86469680D02*
X287818271Y-85469680D01*
X287246842Y-86469680D02*
X287675414Y-85898252D01*
X287246842Y-85469680D02*
X287818271Y-86041109D01*
X286294461Y-86469680D02*
X286865890Y-86469680D01*
X286580176Y-86469680D02*
X286580176Y-85469680D01*
X286675414Y-85612538D01*
X286770652Y-85707776D01*
X286865890Y-85755395D01*
X285961128Y-85469680D02*
X285342080Y-85469680D01*
X285675414Y-85850633D01*
X285532557Y-85850633D01*
X285437319Y-85898252D01*
X285389700Y-85945871D01*
X285342080Y-86041109D01*
X285342080Y-86279204D01*
X285389700Y-86374442D01*
X285437319Y-86422061D01*
X285532557Y-86469680D01*
X285818271Y-86469680D01*
X285913509Y-86422061D01*
X285961128Y-86374442D01*
X284865890Y-86422061D02*
X284865890Y-86469680D01*
X284913509Y-86564919D01*
X284961128Y-86612538D01*
X283913509Y-86469680D02*
X284484938Y-86469680D01*
X284199223Y-86469680D02*
X284199223Y-85469680D01*
X284294461Y-85612538D01*
X284389700Y-85707776D01*
X284484938Y-85755395D01*
%TO.C,K19\u002C4*%
X441069171Y-115412980D02*
X441069171Y-114412980D01*
X440497742Y-115412980D02*
X440926314Y-114841552D01*
X440497742Y-114412980D02*
X441069171Y-114984409D01*
X439545361Y-115412980D02*
X440116790Y-115412980D01*
X439831076Y-115412980D02*
X439831076Y-114412980D01*
X439926314Y-114555838D01*
X440021552Y-114651076D01*
X440116790Y-114698695D01*
X439069171Y-115412980D02*
X438878695Y-115412980D01*
X438783457Y-115365361D01*
X438735838Y-115317742D01*
X438640600Y-115174885D01*
X438592980Y-114984409D01*
X438592980Y-114603457D01*
X438640600Y-114508219D01*
X438688219Y-114460600D01*
X438783457Y-114412980D01*
X438973933Y-114412980D01*
X439069171Y-114460600D01*
X439116790Y-114508219D01*
X439164409Y-114603457D01*
X439164409Y-114841552D01*
X439116790Y-114936790D01*
X439069171Y-114984409D01*
X438973933Y-115032028D01*
X438783457Y-115032028D01*
X438688219Y-114984409D01*
X438640600Y-114936790D01*
X438592980Y-114841552D01*
X438116790Y-115365361D02*
X438116790Y-115412980D01*
X438164409Y-115508219D01*
X438212028Y-115555838D01*
X437259647Y-114746314D02*
X437259647Y-115412980D01*
X437497742Y-114365361D02*
X437735838Y-115079647D01*
X437116790Y-115079647D01*
%TO.C,K11\u002C4*%
X281150771Y-144953180D02*
X281150771Y-143953180D01*
X280579342Y-144953180D02*
X281007914Y-144381752D01*
X280579342Y-143953180D02*
X281150771Y-144524609D01*
X279626961Y-144953180D02*
X280198390Y-144953180D01*
X279912676Y-144953180D02*
X279912676Y-143953180D01*
X280007914Y-144096038D01*
X280103152Y-144191276D01*
X280198390Y-144238895D01*
X278674580Y-144953180D02*
X279246009Y-144953180D01*
X278960295Y-144953180D02*
X278960295Y-143953180D01*
X279055533Y-144096038D01*
X279150771Y-144191276D01*
X279246009Y-144238895D01*
X278198390Y-144905561D02*
X278198390Y-144953180D01*
X278246009Y-145048419D01*
X278293628Y-145096038D01*
X277341247Y-144286514D02*
X277341247Y-144953180D01*
X277579342Y-143905561D02*
X277817438Y-144619847D01*
X277198390Y-144619847D01*
%TO.C,K0\u002C0*%
X27690580Y-60688680D02*
X27690580Y-59688680D01*
X27119152Y-60688680D02*
X27547723Y-60117252D01*
X27119152Y-59688680D02*
X27690580Y-60260109D01*
X26500104Y-59688680D02*
X26404866Y-59688680D01*
X26309628Y-59736300D01*
X26262009Y-59783919D01*
X26214390Y-59879157D01*
X26166771Y-60069633D01*
X26166771Y-60307728D01*
X26214390Y-60498204D01*
X26262009Y-60593442D01*
X26309628Y-60641061D01*
X26404866Y-60688680D01*
X26500104Y-60688680D01*
X26595342Y-60641061D01*
X26642961Y-60593442D01*
X26690580Y-60498204D01*
X26738200Y-60307728D01*
X26738200Y-60069633D01*
X26690580Y-59879157D01*
X26642961Y-59783919D01*
X26595342Y-59736300D01*
X26500104Y-59688680D01*
X25690580Y-60641061D02*
X25690580Y-60688680D01*
X25738200Y-60783919D01*
X25785819Y-60831538D01*
X25071533Y-59688680D02*
X24976295Y-59688680D01*
X24881057Y-59736300D01*
X24833438Y-59783919D01*
X24785819Y-59879157D01*
X24738200Y-60069633D01*
X24738200Y-60307728D01*
X24785819Y-60498204D01*
X24833438Y-60593442D01*
X24881057Y-60641061D01*
X24976295Y-60688680D01*
X25071533Y-60688680D01*
X25166771Y-60641061D01*
X25214390Y-60593442D01*
X25262009Y-60498204D01*
X25309628Y-60307728D01*
X25309628Y-60069633D01*
X25262009Y-59879157D01*
X25214390Y-59783919D01*
X25166771Y-59736300D01*
X25071533Y-59688680D01*
%TO.C,K0\u002C1*%
X27627080Y-86533180D02*
X27627080Y-85533180D01*
X27055652Y-86533180D02*
X27484223Y-85961752D01*
X27055652Y-85533180D02*
X27627080Y-86104609D01*
X26436604Y-85533180D02*
X26341366Y-85533180D01*
X26246128Y-85580800D01*
X26198509Y-85628419D01*
X26150890Y-85723657D01*
X26103271Y-85914133D01*
X26103271Y-86152228D01*
X26150890Y-86342704D01*
X26198509Y-86437942D01*
X26246128Y-86485561D01*
X26341366Y-86533180D01*
X26436604Y-86533180D01*
X26531842Y-86485561D01*
X26579461Y-86437942D01*
X26627080Y-86342704D01*
X26674700Y-86152228D01*
X26674700Y-85914133D01*
X26627080Y-85723657D01*
X26579461Y-85628419D01*
X26531842Y-85580800D01*
X26436604Y-85533180D01*
X25627080Y-86485561D02*
X25627080Y-86533180D01*
X25674700Y-86628419D01*
X25722319Y-86676038D01*
X24674700Y-86533180D02*
X25246128Y-86533180D01*
X24960414Y-86533180D02*
X24960414Y-85533180D01*
X25055652Y-85676038D01*
X25150890Y-85771276D01*
X25246128Y-85818895D01*
%TO.C,K0\u002C5*%
X30040080Y-164384180D02*
X30040080Y-163384180D01*
X29468652Y-164384180D02*
X29897223Y-163812752D01*
X29468652Y-163384180D02*
X30040080Y-163955609D01*
X28849604Y-163384180D02*
X28754366Y-163384180D01*
X28659128Y-163431800D01*
X28611509Y-163479419D01*
X28563890Y-163574657D01*
X28516271Y-163765133D01*
X28516271Y-164003228D01*
X28563890Y-164193704D01*
X28611509Y-164288942D01*
X28659128Y-164336561D01*
X28754366Y-164384180D01*
X28849604Y-164384180D01*
X28944842Y-164336561D01*
X28992461Y-164288942D01*
X29040080Y-164193704D01*
X29087700Y-164003228D01*
X29087700Y-163765133D01*
X29040080Y-163574657D01*
X28992461Y-163479419D01*
X28944842Y-163431800D01*
X28849604Y-163384180D01*
X28040080Y-164336561D02*
X28040080Y-164384180D01*
X28087700Y-164479419D01*
X28135319Y-164527038D01*
X27135319Y-163384180D02*
X27611509Y-163384180D01*
X27659128Y-163860371D01*
X27611509Y-163812752D01*
X27516271Y-163765133D01*
X27278176Y-163765133D01*
X27182938Y-163812752D01*
X27135319Y-163860371D01*
X27087700Y-163955609D01*
X27087700Y-164193704D01*
X27135319Y-164288942D01*
X27182938Y-164336561D01*
X27278176Y-164384180D01*
X27516271Y-164384180D01*
X27611509Y-164336561D01*
X27659128Y-164288942D01*
%TO.C,K0\u002C4*%
X39438080Y-145016680D02*
X39438080Y-144016680D01*
X38866652Y-145016680D02*
X39295223Y-144445252D01*
X38866652Y-144016680D02*
X39438080Y-144588109D01*
X38247604Y-144016680D02*
X38152366Y-144016680D01*
X38057128Y-144064300D01*
X38009509Y-144111919D01*
X37961890Y-144207157D01*
X37914271Y-144397633D01*
X37914271Y-144635728D01*
X37961890Y-144826204D01*
X38009509Y-144921442D01*
X38057128Y-144969061D01*
X38152366Y-145016680D01*
X38247604Y-145016680D01*
X38342842Y-144969061D01*
X38390461Y-144921442D01*
X38438080Y-144826204D01*
X38485700Y-144635728D01*
X38485700Y-144397633D01*
X38438080Y-144207157D01*
X38390461Y-144111919D01*
X38342842Y-144064300D01*
X38247604Y-144016680D01*
X37438080Y-144969061D02*
X37438080Y-145016680D01*
X37485699Y-145111919D01*
X37533319Y-145159538D01*
X36580938Y-144350014D02*
X36580938Y-145016680D01*
X36819033Y-143969061D02*
X37057128Y-144683347D01*
X36438080Y-144683347D01*
%TO.C,K0\u002C3*%
X34713680Y-125242780D02*
X34713680Y-124242780D01*
X34142252Y-125242780D02*
X34570823Y-124671352D01*
X34142252Y-124242780D02*
X34713680Y-124814209D01*
X33523204Y-124242780D02*
X33427966Y-124242780D01*
X33332728Y-124290400D01*
X33285109Y-124338019D01*
X33237490Y-124433257D01*
X33189871Y-124623733D01*
X33189871Y-124861828D01*
X33237490Y-125052304D01*
X33285109Y-125147542D01*
X33332728Y-125195161D01*
X33427966Y-125242780D01*
X33523204Y-125242780D01*
X33618442Y-125195161D01*
X33666061Y-125147542D01*
X33713680Y-125052304D01*
X33761300Y-124861828D01*
X33761300Y-124623733D01*
X33713680Y-124433257D01*
X33666061Y-124338019D01*
X33618442Y-124290400D01*
X33523204Y-124242780D01*
X32713680Y-125195161D02*
X32713680Y-125242780D01*
X32761300Y-125338019D01*
X32808919Y-125385638D01*
X32380347Y-124242780D02*
X31761300Y-124242780D01*
X32094633Y-124623733D01*
X31951776Y-124623733D01*
X31856538Y-124671352D01*
X31808919Y-124718971D01*
X31761300Y-124814209D01*
X31761300Y-125052304D01*
X31808919Y-125147542D01*
X31856538Y-125195161D01*
X31951776Y-125242780D01*
X32237490Y-125242780D01*
X32332728Y-125195161D01*
X32380347Y-125147542D01*
%TO.C,K1\u002C4*%
X70553080Y-145003980D02*
X70553080Y-144003980D01*
X69981652Y-145003980D02*
X70410223Y-144432552D01*
X69981652Y-144003980D02*
X70553080Y-144575409D01*
X69029271Y-145003980D02*
X69600700Y-145003980D01*
X69314985Y-145003980D02*
X69314985Y-144003980D01*
X69410223Y-144146838D01*
X69505461Y-144242076D01*
X69600700Y-144289695D01*
X68553080Y-144956361D02*
X68553080Y-145003980D01*
X68600700Y-145099219D01*
X68648319Y-145146838D01*
X67695938Y-144337314D02*
X67695938Y-145003980D01*
X67934033Y-143956361D02*
X68172128Y-144670647D01*
X67553080Y-144670647D01*
%TO.C,K1\u002C5*%
X54614580Y-164434980D02*
X54614580Y-163434980D01*
X54043152Y-164434980D02*
X54471723Y-163863552D01*
X54043152Y-163434980D02*
X54614580Y-164006409D01*
X53090771Y-164434980D02*
X53662200Y-164434980D01*
X53376485Y-164434980D02*
X53376485Y-163434980D01*
X53471723Y-163577838D01*
X53566961Y-163673076D01*
X53662200Y-163720695D01*
X52614580Y-164387361D02*
X52614580Y-164434980D01*
X52662199Y-164530219D01*
X52709819Y-164577838D01*
X51709819Y-163434980D02*
X52186009Y-163434980D01*
X52233628Y-163911171D01*
X52186009Y-163863552D01*
X52090771Y-163815933D01*
X51852676Y-163815933D01*
X51757438Y-163863552D01*
X51709819Y-163911171D01*
X51662199Y-164006409D01*
X51662199Y-164244504D01*
X51709819Y-164339742D01*
X51757438Y-164387361D01*
X51852676Y-164434980D01*
X52090771Y-164434980D01*
X52186009Y-164387361D01*
X52233628Y-164339742D01*
%TO.C,K1\u002C3*%
X61155080Y-125191980D02*
X61155080Y-124191980D01*
X60583652Y-125191980D02*
X61012223Y-124620552D01*
X60583652Y-124191980D02*
X61155080Y-124763409D01*
X59631271Y-125191980D02*
X60202700Y-125191980D01*
X59916985Y-125191980D02*
X59916985Y-124191980D01*
X60012223Y-124334838D01*
X60107461Y-124430076D01*
X60202700Y-124477695D01*
X59155080Y-125144361D02*
X59155080Y-125191980D01*
X59202699Y-125287219D01*
X59250319Y-125334838D01*
X58821747Y-124191980D02*
X58202699Y-124191980D01*
X58536033Y-124572933D01*
X58393176Y-124572933D01*
X58297938Y-124620552D01*
X58250319Y-124668171D01*
X58202699Y-124763409D01*
X58202699Y-125001504D01*
X58250319Y-125096742D01*
X58297938Y-125144361D01*
X58393176Y-125191980D01*
X58678890Y-125191980D01*
X58774128Y-125144361D01*
X58821747Y-125096742D01*
%TO.C,K1\u002C2*%
X56265580Y-105760980D02*
X56265580Y-104760980D01*
X55694152Y-105760980D02*
X56122723Y-105189552D01*
X55694152Y-104760980D02*
X56265580Y-105332409D01*
X54741771Y-105760980D02*
X55313200Y-105760980D01*
X55027485Y-105760980D02*
X55027485Y-104760980D01*
X55122723Y-104903838D01*
X55217961Y-104999076D01*
X55313200Y-105046695D01*
X54265580Y-105713361D02*
X54265580Y-105760980D01*
X54313199Y-105856219D01*
X54360819Y-105903838D01*
X53884628Y-104856219D02*
X53837009Y-104808600D01*
X53741771Y-104760980D01*
X53503676Y-104760980D01*
X53408438Y-104808600D01*
X53360819Y-104856219D01*
X53313199Y-104951457D01*
X53313199Y-105046695D01*
X53360819Y-105189552D01*
X53932247Y-105760980D01*
X53313199Y-105760980D01*
%TO.C,K1\u002C1*%
X46842180Y-86533180D02*
X46842180Y-85533180D01*
X46270752Y-86533180D02*
X46699323Y-85961752D01*
X46270752Y-85533180D02*
X46842180Y-86104609D01*
X45318371Y-86533180D02*
X45889800Y-86533180D01*
X45604085Y-86533180D02*
X45604085Y-85533180D01*
X45699323Y-85676038D01*
X45794561Y-85771276D01*
X45889800Y-85818895D01*
X44842180Y-86485561D02*
X44842180Y-86533180D01*
X44889799Y-86628419D01*
X44937419Y-86676038D01*
X43889799Y-86533180D02*
X44461228Y-86533180D01*
X44175514Y-86533180D02*
X44175514Y-85533180D01*
X44270752Y-85676038D01*
X44365990Y-85771276D01*
X44461228Y-85818895D01*
%TO.C,K1\u002C0*%
X66029340Y-60739480D02*
X66029340Y-59739480D01*
X65457912Y-60739480D02*
X65886483Y-60168052D01*
X65457912Y-59739480D02*
X66029340Y-60310909D01*
X64505531Y-60739480D02*
X65076960Y-60739480D01*
X64791245Y-60739480D02*
X64791245Y-59739480D01*
X64886483Y-59882338D01*
X64981721Y-59977576D01*
X65076960Y-60025195D01*
X64029340Y-60691861D02*
X64029340Y-60739480D01*
X64076959Y-60834719D01*
X64124579Y-60882338D01*
X63410293Y-59739480D02*
X63315055Y-59739480D01*
X63219817Y-59787100D01*
X63172198Y-59834719D01*
X63124579Y-59929957D01*
X63076959Y-60120433D01*
X63076959Y-60358528D01*
X63124579Y-60549004D01*
X63172198Y-60644242D01*
X63219817Y-60691861D01*
X63315055Y-60739480D01*
X63410293Y-60739480D01*
X63505531Y-60691861D01*
X63553150Y-60644242D01*
X63600769Y-60549004D01*
X63648388Y-60358528D01*
X63648388Y-60120433D01*
X63600769Y-59929957D01*
X63553150Y-59834719D01*
X63505531Y-59787100D01*
X63410293Y-59739480D01*
%TO.C,K2\u002C5*%
X78998580Y-164434980D02*
X78998580Y-163434980D01*
X78427152Y-164434980D02*
X78855723Y-163863552D01*
X78427152Y-163434980D02*
X78998580Y-164006409D01*
X78046200Y-163530219D02*
X77998580Y-163482600D01*
X77903342Y-163434980D01*
X77665247Y-163434980D01*
X77570009Y-163482600D01*
X77522390Y-163530219D01*
X77474771Y-163625457D01*
X77474771Y-163720695D01*
X77522390Y-163863552D01*
X78093819Y-164434980D01*
X77474771Y-164434980D01*
X76998580Y-164387361D02*
X76998580Y-164434980D01*
X77046200Y-164530219D01*
X77093819Y-164577838D01*
X76093819Y-163434980D02*
X76570009Y-163434980D01*
X76617628Y-163911171D01*
X76570009Y-163863552D01*
X76474771Y-163815933D01*
X76236676Y-163815933D01*
X76141438Y-163863552D01*
X76093819Y-163911171D01*
X76046200Y-164006409D01*
X76046200Y-164244504D01*
X76093819Y-164339742D01*
X76141438Y-164387361D01*
X76236676Y-164434980D01*
X76474771Y-164434980D01*
X76570009Y-164387361D01*
X76617628Y-164339742D01*
%TO.C,K2\u002C3*%
X80459080Y-125191980D02*
X80459080Y-124191980D01*
X79887652Y-125191980D02*
X80316223Y-124620552D01*
X79887652Y-124191980D02*
X80459080Y-124763409D01*
X79506700Y-124287219D02*
X79459080Y-124239600D01*
X79363842Y-124191980D01*
X79125747Y-124191980D01*
X79030509Y-124239600D01*
X78982890Y-124287219D01*
X78935271Y-124382457D01*
X78935271Y-124477695D01*
X78982890Y-124620552D01*
X79554319Y-125191980D01*
X78935271Y-125191980D01*
X78459080Y-125144361D02*
X78459080Y-125191980D01*
X78506700Y-125287219D01*
X78554319Y-125334838D01*
X78125747Y-124191980D02*
X77506700Y-124191980D01*
X77840033Y-124572933D01*
X77697176Y-124572933D01*
X77601938Y-124620552D01*
X77554319Y-124668171D01*
X77506700Y-124763409D01*
X77506700Y-125001504D01*
X77554319Y-125096742D01*
X77601938Y-125144361D01*
X77697176Y-125191980D01*
X77982890Y-125191980D01*
X78078128Y-125144361D01*
X78125747Y-125096742D01*
%TO.C,K2\u002C1*%
X66044580Y-86520480D02*
X66044580Y-85520480D01*
X65473152Y-86520480D02*
X65901723Y-85949052D01*
X65473152Y-85520480D02*
X66044580Y-86091909D01*
X65092200Y-85615719D02*
X65044580Y-85568100D01*
X64949342Y-85520480D01*
X64711247Y-85520480D01*
X64616009Y-85568100D01*
X64568390Y-85615719D01*
X64520771Y-85710957D01*
X64520771Y-85806195D01*
X64568390Y-85949052D01*
X65139819Y-86520480D01*
X64520771Y-86520480D01*
X64044580Y-86472861D02*
X64044580Y-86520480D01*
X64092199Y-86615719D01*
X64139819Y-86663338D01*
X63092199Y-86520480D02*
X63663628Y-86520480D01*
X63377914Y-86520480D02*
X63377914Y-85520480D01*
X63473152Y-85663338D01*
X63568390Y-85758576D01*
X63663628Y-85806195D01*
%TO.C,K2\u002C4*%
X89857080Y-145003980D02*
X89857080Y-144003980D01*
X89285652Y-145003980D02*
X89714223Y-144432552D01*
X89285652Y-144003980D02*
X89857080Y-144575409D01*
X88904700Y-144099219D02*
X88857080Y-144051600D01*
X88761842Y-144003980D01*
X88523747Y-144003980D01*
X88428509Y-144051600D01*
X88380890Y-144099219D01*
X88333271Y-144194457D01*
X88333271Y-144289695D01*
X88380890Y-144432552D01*
X88952319Y-145003980D01*
X88333271Y-145003980D01*
X87857080Y-144956361D02*
X87857080Y-145003980D01*
X87904700Y-145099219D01*
X87952319Y-145146838D01*
X86999938Y-144337314D02*
X86999938Y-145003980D01*
X87238033Y-143956361D02*
X87476128Y-144670647D01*
X86857080Y-144670647D01*
%TO.C,K2\u002C2*%
X75569580Y-105760980D02*
X75569580Y-104760980D01*
X74998152Y-105760980D02*
X75426723Y-105189552D01*
X74998152Y-104760980D02*
X75569580Y-105332409D01*
X74617200Y-104856219D02*
X74569580Y-104808600D01*
X74474342Y-104760980D01*
X74236247Y-104760980D01*
X74141009Y-104808600D01*
X74093390Y-104856219D01*
X74045771Y-104951457D01*
X74045771Y-105046695D01*
X74093390Y-105189552D01*
X74664819Y-105760980D01*
X74045771Y-105760980D01*
X73569580Y-105713361D02*
X73569580Y-105760980D01*
X73617200Y-105856219D01*
X73664819Y-105903838D01*
X73188628Y-104856219D02*
X73141009Y-104808600D01*
X73045771Y-104760980D01*
X72807676Y-104760980D01*
X72712438Y-104808600D01*
X72664819Y-104856219D01*
X72617200Y-104951457D01*
X72617200Y-105046695D01*
X72664819Y-105189552D01*
X73236247Y-105760980D01*
X72617200Y-105760980D01*
%TO.C,K2\u002C0*%
X85333340Y-60739480D02*
X85333340Y-59739480D01*
X84761912Y-60739480D02*
X85190483Y-60168052D01*
X84761912Y-59739480D02*
X85333340Y-60310909D01*
X84380960Y-59834719D02*
X84333340Y-59787100D01*
X84238102Y-59739480D01*
X84000007Y-59739480D01*
X83904769Y-59787100D01*
X83857150Y-59834719D01*
X83809531Y-59929957D01*
X83809531Y-60025195D01*
X83857150Y-60168052D01*
X84428579Y-60739480D01*
X83809531Y-60739480D01*
X83333340Y-60691861D02*
X83333340Y-60739480D01*
X83380960Y-60834719D01*
X83428579Y-60882338D01*
X82714293Y-59739480D02*
X82619055Y-59739480D01*
X82523817Y-59787100D01*
X82476198Y-59834719D01*
X82428579Y-59929957D01*
X82380960Y-60120433D01*
X82380960Y-60358528D01*
X82428579Y-60549004D01*
X82476198Y-60644242D01*
X82523817Y-60691861D01*
X82619055Y-60739480D01*
X82714293Y-60739480D01*
X82809531Y-60691861D01*
X82857150Y-60644242D01*
X82904769Y-60549004D01*
X82952388Y-60358528D01*
X82952388Y-60120433D01*
X82904769Y-59929957D01*
X82857150Y-59834719D01*
X82809531Y-59787100D01*
X82714293Y-59739480D01*
%TO.C,K3\u002C5*%
X150880580Y-164434980D02*
X150880580Y-163434980D01*
X150309152Y-164434980D02*
X150737723Y-163863552D01*
X150309152Y-163434980D02*
X150880580Y-164006409D01*
X149975819Y-163434980D02*
X149356771Y-163434980D01*
X149690104Y-163815933D01*
X149547247Y-163815933D01*
X149452009Y-163863552D01*
X149404390Y-163911171D01*
X149356771Y-164006409D01*
X149356771Y-164244504D01*
X149404390Y-164339742D01*
X149452009Y-164387361D01*
X149547247Y-164434980D01*
X149832961Y-164434980D01*
X149928200Y-164387361D01*
X149975819Y-164339742D01*
X148880580Y-164387361D02*
X148880580Y-164434980D01*
X148928200Y-164530219D01*
X148975819Y-164577838D01*
X147975819Y-163434980D02*
X148452009Y-163434980D01*
X148499628Y-163911171D01*
X148452009Y-163863552D01*
X148356771Y-163815933D01*
X148118676Y-163815933D01*
X148023438Y-163863552D01*
X147975819Y-163911171D01*
X147928200Y-164006409D01*
X147928200Y-164244504D01*
X147975819Y-164339742D01*
X148023438Y-164387361D01*
X148118676Y-164434980D01*
X148356771Y-164434980D01*
X148452009Y-164387361D01*
X148499628Y-164339742D01*
%TO.C,K3\u002C4*%
X109161080Y-145003980D02*
X109161080Y-144003980D01*
X108589652Y-145003980D02*
X109018223Y-144432552D01*
X108589652Y-144003980D02*
X109161080Y-144575409D01*
X108256319Y-144003980D02*
X107637271Y-144003980D01*
X107970604Y-144384933D01*
X107827747Y-144384933D01*
X107732509Y-144432552D01*
X107684890Y-144480171D01*
X107637271Y-144575409D01*
X107637271Y-144813504D01*
X107684890Y-144908742D01*
X107732509Y-144956361D01*
X107827747Y-145003980D01*
X108113461Y-145003980D01*
X108208700Y-144956361D01*
X108256319Y-144908742D01*
X107161080Y-144956361D02*
X107161080Y-145003980D01*
X107208700Y-145099219D01*
X107256319Y-145146838D01*
X106303938Y-144337314D02*
X106303938Y-145003980D01*
X106542033Y-143956361D02*
X106780128Y-144670647D01*
X106161080Y-144670647D01*
%TO.C,K3\u002C1*%
X84840580Y-86520480D02*
X84840580Y-85520480D01*
X84269152Y-86520480D02*
X84697723Y-85949052D01*
X84269152Y-85520480D02*
X84840580Y-86091909D01*
X83935819Y-85520480D02*
X83316771Y-85520480D01*
X83650104Y-85901433D01*
X83507247Y-85901433D01*
X83412009Y-85949052D01*
X83364390Y-85996671D01*
X83316771Y-86091909D01*
X83316771Y-86330004D01*
X83364390Y-86425242D01*
X83412009Y-86472861D01*
X83507247Y-86520480D01*
X83792961Y-86520480D01*
X83888200Y-86472861D01*
X83935819Y-86425242D01*
X82840580Y-86472861D02*
X82840580Y-86520480D01*
X82888200Y-86615719D01*
X82935819Y-86663338D01*
X81888200Y-86520480D02*
X82459628Y-86520480D01*
X82173914Y-86520480D02*
X82173914Y-85520480D01*
X82269152Y-85663338D01*
X82364390Y-85758576D01*
X82459628Y-85806195D01*
%TO.C,K3\u002C0*%
X104637340Y-60739480D02*
X104637340Y-59739480D01*
X104065912Y-60739480D02*
X104494483Y-60168052D01*
X104065912Y-59739480D02*
X104637340Y-60310909D01*
X103732579Y-59739480D02*
X103113531Y-59739480D01*
X103446864Y-60120433D01*
X103304007Y-60120433D01*
X103208769Y-60168052D01*
X103161150Y-60215671D01*
X103113531Y-60310909D01*
X103113531Y-60549004D01*
X103161150Y-60644242D01*
X103208769Y-60691861D01*
X103304007Y-60739480D01*
X103589721Y-60739480D01*
X103684960Y-60691861D01*
X103732579Y-60644242D01*
X102637340Y-60691861D02*
X102637340Y-60739480D01*
X102684960Y-60834719D01*
X102732579Y-60882338D01*
X102018293Y-59739480D02*
X101923055Y-59739480D01*
X101827817Y-59787100D01*
X101780198Y-59834719D01*
X101732579Y-59929957D01*
X101684960Y-60120433D01*
X101684960Y-60358528D01*
X101732579Y-60549004D01*
X101780198Y-60644242D01*
X101827817Y-60691861D01*
X101923055Y-60739480D01*
X102018293Y-60739480D01*
X102113531Y-60691861D01*
X102161150Y-60644242D01*
X102208769Y-60549004D01*
X102256388Y-60358528D01*
X102256388Y-60120433D01*
X102208769Y-59929957D01*
X102161150Y-59834719D01*
X102113531Y-59787100D01*
X102018293Y-59739480D01*
%TO.C,K3\u002C3*%
X99763080Y-125191980D02*
X99763080Y-124191980D01*
X99191652Y-125191980D02*
X99620223Y-124620552D01*
X99191652Y-124191980D02*
X99763080Y-124763409D01*
X98858319Y-124191980D02*
X98239271Y-124191980D01*
X98572604Y-124572933D01*
X98429747Y-124572933D01*
X98334509Y-124620552D01*
X98286890Y-124668171D01*
X98239271Y-124763409D01*
X98239271Y-125001504D01*
X98286890Y-125096742D01*
X98334509Y-125144361D01*
X98429747Y-125191980D01*
X98715461Y-125191980D01*
X98810700Y-125144361D01*
X98858319Y-125096742D01*
X97763080Y-125144361D02*
X97763080Y-125191980D01*
X97810700Y-125287219D01*
X97858319Y-125334838D01*
X97429747Y-124191980D02*
X96810700Y-124191980D01*
X97144033Y-124572933D01*
X97001176Y-124572933D01*
X96905938Y-124620552D01*
X96858319Y-124668171D01*
X96810700Y-124763409D01*
X96810700Y-125001504D01*
X96858319Y-125096742D01*
X96905938Y-125144361D01*
X97001176Y-125191980D01*
X97286890Y-125191980D01*
X97382128Y-125144361D01*
X97429747Y-125096742D01*
%TO.C,K4\u002C1*%
X104144580Y-86520480D02*
X104144580Y-85520480D01*
X103573152Y-86520480D02*
X104001723Y-85949052D01*
X103573152Y-85520480D02*
X104144580Y-86091909D01*
X102716009Y-85853814D02*
X102716009Y-86520480D01*
X102954104Y-85472861D02*
X103192200Y-86187147D01*
X102573152Y-86187147D01*
X102144580Y-86472861D02*
X102144580Y-86520480D01*
X102192200Y-86615719D01*
X102239819Y-86663338D01*
X101192200Y-86520480D02*
X101763628Y-86520480D01*
X101477914Y-86520480D02*
X101477914Y-85520480D01*
X101573152Y-85663338D01*
X101668390Y-85758576D01*
X101763628Y-85806195D01*
%TO.C,K4\u002C2*%
X114177580Y-105760980D02*
X114177580Y-104760980D01*
X113606152Y-105760980D02*
X114034723Y-105189552D01*
X113606152Y-104760980D02*
X114177580Y-105332409D01*
X112749009Y-105094314D02*
X112749009Y-105760980D01*
X112987104Y-104713361D02*
X113225200Y-105427647D01*
X112606152Y-105427647D01*
X112177580Y-105713361D02*
X112177580Y-105760980D01*
X112225200Y-105856219D01*
X112272819Y-105903838D01*
X111796628Y-104856219D02*
X111749009Y-104808600D01*
X111653771Y-104760980D01*
X111415676Y-104760980D01*
X111320438Y-104808600D01*
X111272819Y-104856219D01*
X111225200Y-104951457D01*
X111225200Y-105046695D01*
X111272819Y-105189552D01*
X111844247Y-105760980D01*
X111225200Y-105760980D01*
%TO.C,K4\u002C3*%
X119067080Y-125191980D02*
X119067080Y-124191980D01*
X118495652Y-125191980D02*
X118924223Y-124620552D01*
X118495652Y-124191980D02*
X119067080Y-124763409D01*
X117638509Y-124525314D02*
X117638509Y-125191980D01*
X117876604Y-124144361D02*
X118114700Y-124858647D01*
X117495652Y-124858647D01*
X117067080Y-125144361D02*
X117067080Y-125191980D01*
X117114700Y-125287219D01*
X117162319Y-125334838D01*
X116733747Y-124191980D02*
X116114700Y-124191980D01*
X116448033Y-124572933D01*
X116305176Y-124572933D01*
X116209938Y-124620552D01*
X116162319Y-124668171D01*
X116114700Y-124763409D01*
X116114700Y-125001504D01*
X116162319Y-125096742D01*
X116209938Y-125144361D01*
X116305176Y-125191980D01*
X116590890Y-125191980D01*
X116686128Y-125144361D01*
X116733747Y-125096742D01*
%TO.C,K4\u002C4*%
X128465080Y-145003980D02*
X128465080Y-144003980D01*
X127893652Y-145003980D02*
X128322223Y-144432552D01*
X127893652Y-144003980D02*
X128465080Y-144575409D01*
X127036509Y-144337314D02*
X127036509Y-145003980D01*
X127274604Y-143956361D02*
X127512700Y-144670647D01*
X126893652Y-144670647D01*
X126465080Y-144956361D02*
X126465080Y-145003980D01*
X126512700Y-145099219D01*
X126560319Y-145146838D01*
X125607938Y-144337314D02*
X125607938Y-145003980D01*
X125846033Y-143956361D02*
X126084128Y-144670647D01*
X125465080Y-144670647D01*
%TO.C,K4\u002C0*%
X123941340Y-60739480D02*
X123941340Y-59739480D01*
X123369912Y-60739480D02*
X123798483Y-60168052D01*
X123369912Y-59739480D02*
X123941340Y-60310909D01*
X122512769Y-60072814D02*
X122512769Y-60739480D01*
X122750864Y-59691861D02*
X122988960Y-60406147D01*
X122369912Y-60406147D01*
X121941340Y-60691861D02*
X121941340Y-60739480D01*
X121988960Y-60834719D01*
X122036579Y-60882338D01*
X121322293Y-59739480D02*
X121227055Y-59739480D01*
X121131817Y-59787100D01*
X121084198Y-59834719D01*
X121036579Y-59929957D01*
X120988960Y-60120433D01*
X120988960Y-60358528D01*
X121036579Y-60549004D01*
X121084198Y-60644242D01*
X121131817Y-60691861D01*
X121227055Y-60739480D01*
X121322293Y-60739480D01*
X121417531Y-60691861D01*
X121465150Y-60644242D01*
X121512769Y-60549004D01*
X121560388Y-60358528D01*
X121560388Y-60120433D01*
X121512769Y-59929957D01*
X121465150Y-59834719D01*
X121417531Y-59787100D01*
X121322293Y-59739480D01*
%TO.C,K5\u002C0*%
X155437340Y-60739480D02*
X155437340Y-59739480D01*
X154865912Y-60739480D02*
X155294483Y-60168052D01*
X154865912Y-59739480D02*
X155437340Y-60310909D01*
X153961150Y-59739480D02*
X154437340Y-59739480D01*
X154484960Y-60215671D01*
X154437340Y-60168052D01*
X154342102Y-60120433D01*
X154104007Y-60120433D01*
X154008769Y-60168052D01*
X153961150Y-60215671D01*
X153913531Y-60310909D01*
X153913531Y-60549004D01*
X153961150Y-60644242D01*
X154008769Y-60691861D01*
X154104007Y-60739480D01*
X154342102Y-60739480D01*
X154437340Y-60691861D01*
X154484960Y-60644242D01*
X153437340Y-60691861D02*
X153437340Y-60739480D01*
X153484960Y-60834719D01*
X153532579Y-60882338D01*
X152818293Y-59739480D02*
X152723055Y-59739480D01*
X152627817Y-59787100D01*
X152580198Y-59834719D01*
X152532579Y-59929957D01*
X152484960Y-60120433D01*
X152484960Y-60358528D01*
X152532579Y-60549004D01*
X152580198Y-60644242D01*
X152627817Y-60691861D01*
X152723055Y-60739480D01*
X152818293Y-60739480D01*
X152913531Y-60691861D01*
X152961150Y-60644242D01*
X153008769Y-60549004D01*
X153056388Y-60358528D01*
X153056388Y-60120433D01*
X153008769Y-59929957D01*
X152961150Y-59834719D01*
X152913531Y-59787100D01*
X152818293Y-59739480D01*
%TO.C,K5\u002C2*%
X133481580Y-105760980D02*
X133481580Y-104760980D01*
X132910152Y-105760980D02*
X133338723Y-105189552D01*
X132910152Y-104760980D02*
X133481580Y-105332409D01*
X132005390Y-104760980D02*
X132481580Y-104760980D01*
X132529200Y-105237171D01*
X132481580Y-105189552D01*
X132386342Y-105141933D01*
X132148247Y-105141933D01*
X132053009Y-105189552D01*
X132005390Y-105237171D01*
X131957771Y-105332409D01*
X131957771Y-105570504D01*
X132005390Y-105665742D01*
X132053009Y-105713361D01*
X132148247Y-105760980D01*
X132386342Y-105760980D01*
X132481580Y-105713361D01*
X132529200Y-105665742D01*
X131481580Y-105713361D02*
X131481580Y-105760980D01*
X131529200Y-105856219D01*
X131576819Y-105903838D01*
X131100628Y-104856219D02*
X131053009Y-104808600D01*
X130957771Y-104760980D01*
X130719676Y-104760980D01*
X130624438Y-104808600D01*
X130576819Y-104856219D01*
X130529200Y-104951457D01*
X130529200Y-105046695D01*
X130576819Y-105189552D01*
X131148247Y-105760980D01*
X130529200Y-105760980D01*
%TO.C,K5\u002C1*%
X123448580Y-86520480D02*
X123448580Y-85520480D01*
X122877152Y-86520480D02*
X123305723Y-85949052D01*
X122877152Y-85520480D02*
X123448580Y-86091909D01*
X121972390Y-85520480D02*
X122448580Y-85520480D01*
X122496200Y-85996671D01*
X122448580Y-85949052D01*
X122353342Y-85901433D01*
X122115247Y-85901433D01*
X122020009Y-85949052D01*
X121972390Y-85996671D01*
X121924771Y-86091909D01*
X121924771Y-86330004D01*
X121972390Y-86425242D01*
X122020009Y-86472861D01*
X122115247Y-86520480D01*
X122353342Y-86520480D01*
X122448580Y-86472861D01*
X122496200Y-86425242D01*
X121448580Y-86472861D02*
X121448580Y-86520480D01*
X121496200Y-86615719D01*
X121543819Y-86663338D01*
X120496200Y-86520480D02*
X121067628Y-86520480D01*
X120781914Y-86520480D02*
X120781914Y-85520480D01*
X120877152Y-85663338D01*
X120972390Y-85758576D01*
X121067628Y-85806195D01*
%TO.C,K5\u002C3*%
X138371080Y-125191980D02*
X138371080Y-124191980D01*
X137799652Y-125191980D02*
X138228223Y-124620552D01*
X137799652Y-124191980D02*
X138371080Y-124763409D01*
X136894890Y-124191980D02*
X137371080Y-124191980D01*
X137418700Y-124668171D01*
X137371080Y-124620552D01*
X137275842Y-124572933D01*
X137037747Y-124572933D01*
X136942509Y-124620552D01*
X136894890Y-124668171D01*
X136847271Y-124763409D01*
X136847271Y-125001504D01*
X136894890Y-125096742D01*
X136942509Y-125144361D01*
X137037747Y-125191980D01*
X137275842Y-125191980D01*
X137371080Y-125144361D01*
X137418700Y-125096742D01*
X136371080Y-125144361D02*
X136371080Y-125191980D01*
X136418700Y-125287219D01*
X136466319Y-125334838D01*
X136037747Y-124191980D02*
X135418700Y-124191980D01*
X135752033Y-124572933D01*
X135609176Y-124572933D01*
X135513938Y-124620552D01*
X135466319Y-124668171D01*
X135418700Y-124763409D01*
X135418700Y-125001504D01*
X135466319Y-125096742D01*
X135513938Y-125144361D01*
X135609176Y-125191980D01*
X135894890Y-125191980D01*
X135990128Y-125144361D01*
X136037747Y-125096742D01*
%TO.C,K5\u002C4*%
X147769080Y-145003980D02*
X147769080Y-144003980D01*
X147197652Y-145003980D02*
X147626223Y-144432552D01*
X147197652Y-144003980D02*
X147769080Y-144575409D01*
X146292890Y-144003980D02*
X146769080Y-144003980D01*
X146816700Y-144480171D01*
X146769080Y-144432552D01*
X146673842Y-144384933D01*
X146435747Y-144384933D01*
X146340509Y-144432552D01*
X146292890Y-144480171D01*
X146245271Y-144575409D01*
X146245271Y-144813504D01*
X146292890Y-144908742D01*
X146340509Y-144956361D01*
X146435747Y-145003980D01*
X146673842Y-145003980D01*
X146769080Y-144956361D01*
X146816700Y-144908742D01*
X145769080Y-144956361D02*
X145769080Y-145003980D01*
X145816700Y-145099219D01*
X145864319Y-145146838D01*
X144911938Y-144337314D02*
X144911938Y-145003980D01*
X145150033Y-143956361D02*
X145388128Y-144670647D01*
X144769080Y-144670647D01*
%TO.C,K6\u002C3*%
X157675080Y-125191980D02*
X157675080Y-124191980D01*
X157103652Y-125191980D02*
X157532223Y-124620552D01*
X157103652Y-124191980D02*
X157675080Y-124763409D01*
X156246509Y-124191980D02*
X156436985Y-124191980D01*
X156532223Y-124239600D01*
X156579842Y-124287219D01*
X156675080Y-124430076D01*
X156722700Y-124620552D01*
X156722700Y-125001504D01*
X156675080Y-125096742D01*
X156627461Y-125144361D01*
X156532223Y-125191980D01*
X156341747Y-125191980D01*
X156246509Y-125144361D01*
X156198890Y-125096742D01*
X156151271Y-125001504D01*
X156151271Y-124763409D01*
X156198890Y-124668171D01*
X156246509Y-124620552D01*
X156341747Y-124572933D01*
X156532223Y-124572933D01*
X156627461Y-124620552D01*
X156675080Y-124668171D01*
X156722700Y-124763409D01*
X155675080Y-125144361D02*
X155675080Y-125191980D01*
X155722700Y-125287219D01*
X155770319Y-125334838D01*
X155341747Y-124191980D02*
X154722700Y-124191980D01*
X155056033Y-124572933D01*
X154913176Y-124572933D01*
X154817938Y-124620552D01*
X154770319Y-124668171D01*
X154722700Y-124763409D01*
X154722700Y-125001504D01*
X154770319Y-125096742D01*
X154817938Y-125144361D01*
X154913176Y-125191980D01*
X155198890Y-125191980D01*
X155294128Y-125144361D01*
X155341747Y-125096742D01*
%TO.C,K6\u002C4*%
X167073080Y-145003980D02*
X167073080Y-144003980D01*
X166501652Y-145003980D02*
X166930223Y-144432552D01*
X166501652Y-144003980D02*
X167073080Y-144575409D01*
X165644509Y-144003980D02*
X165834985Y-144003980D01*
X165930223Y-144051600D01*
X165977842Y-144099219D01*
X166073080Y-144242076D01*
X166120700Y-144432552D01*
X166120700Y-144813504D01*
X166073080Y-144908742D01*
X166025461Y-144956361D01*
X165930223Y-145003980D01*
X165739747Y-145003980D01*
X165644509Y-144956361D01*
X165596890Y-144908742D01*
X165549271Y-144813504D01*
X165549271Y-144575409D01*
X165596890Y-144480171D01*
X165644509Y-144432552D01*
X165739747Y-144384933D01*
X165930223Y-144384933D01*
X166025461Y-144432552D01*
X166073080Y-144480171D01*
X166120700Y-144575409D01*
X165073080Y-144956361D02*
X165073080Y-145003980D01*
X165120700Y-145099219D01*
X165168319Y-145146838D01*
X164215938Y-144337314D02*
X164215938Y-145003980D01*
X164454033Y-143956361D02*
X164692128Y-144670647D01*
X164073080Y-144670647D01*
%TO.C,K6\u002C1*%
X142752580Y-86520480D02*
X142752580Y-85520480D01*
X142181152Y-86520480D02*
X142609723Y-85949052D01*
X142181152Y-85520480D02*
X142752580Y-86091909D01*
X141324009Y-85520480D02*
X141514485Y-85520480D01*
X141609723Y-85568100D01*
X141657342Y-85615719D01*
X141752580Y-85758576D01*
X141800200Y-85949052D01*
X141800200Y-86330004D01*
X141752580Y-86425242D01*
X141704961Y-86472861D01*
X141609723Y-86520480D01*
X141419247Y-86520480D01*
X141324009Y-86472861D01*
X141276390Y-86425242D01*
X141228771Y-86330004D01*
X141228771Y-86091909D01*
X141276390Y-85996671D01*
X141324009Y-85949052D01*
X141419247Y-85901433D01*
X141609723Y-85901433D01*
X141704961Y-85949052D01*
X141752580Y-85996671D01*
X141800200Y-86091909D01*
X140752580Y-86472861D02*
X140752580Y-86520480D01*
X140800200Y-86615719D01*
X140847819Y-86663338D01*
X139800200Y-86520480D02*
X140371628Y-86520480D01*
X140085914Y-86520480D02*
X140085914Y-85520480D01*
X140181152Y-85663338D01*
X140276390Y-85758576D01*
X140371628Y-85806195D01*
%TO.C,K6\u002C2*%
X152785580Y-105760980D02*
X152785580Y-104760980D01*
X152214152Y-105760980D02*
X152642723Y-105189552D01*
X152214152Y-104760980D02*
X152785580Y-105332409D01*
X151357009Y-104760980D02*
X151547485Y-104760980D01*
X151642723Y-104808600D01*
X151690342Y-104856219D01*
X151785580Y-104999076D01*
X151833200Y-105189552D01*
X151833200Y-105570504D01*
X151785580Y-105665742D01*
X151737961Y-105713361D01*
X151642723Y-105760980D01*
X151452247Y-105760980D01*
X151357009Y-105713361D01*
X151309390Y-105665742D01*
X151261771Y-105570504D01*
X151261771Y-105332409D01*
X151309390Y-105237171D01*
X151357009Y-105189552D01*
X151452247Y-105141933D01*
X151642723Y-105141933D01*
X151737961Y-105189552D01*
X151785580Y-105237171D01*
X151833200Y-105332409D01*
X150785580Y-105713361D02*
X150785580Y-105760980D01*
X150833200Y-105856219D01*
X150880819Y-105903838D01*
X150404628Y-104856219D02*
X150357009Y-104808600D01*
X150261771Y-104760980D01*
X150023676Y-104760980D01*
X149928438Y-104808600D01*
X149880819Y-104856219D01*
X149833200Y-104951457D01*
X149833200Y-105046695D01*
X149880819Y-105189552D01*
X150452247Y-105760980D01*
X149833200Y-105760980D01*
%TO.C,K6\u002C0*%
X174741340Y-60739480D02*
X174741340Y-59739480D01*
X174169912Y-60739480D02*
X174598483Y-60168052D01*
X174169912Y-59739480D02*
X174741340Y-60310909D01*
X173312769Y-59739480D02*
X173503245Y-59739480D01*
X173598483Y-59787100D01*
X173646102Y-59834719D01*
X173741340Y-59977576D01*
X173788960Y-60168052D01*
X173788960Y-60549004D01*
X173741340Y-60644242D01*
X173693721Y-60691861D01*
X173598483Y-60739480D01*
X173408007Y-60739480D01*
X173312769Y-60691861D01*
X173265150Y-60644242D01*
X173217531Y-60549004D01*
X173217531Y-60310909D01*
X173265150Y-60215671D01*
X173312769Y-60168052D01*
X173408007Y-60120433D01*
X173598483Y-60120433D01*
X173693721Y-60168052D01*
X173741340Y-60215671D01*
X173788960Y-60310909D01*
X172741340Y-60691861D02*
X172741340Y-60739480D01*
X172788960Y-60834719D01*
X172836579Y-60882338D01*
X172122293Y-59739480D02*
X172027055Y-59739480D01*
X171931817Y-59787100D01*
X171884198Y-59834719D01*
X171836579Y-59929957D01*
X171788960Y-60120433D01*
X171788960Y-60358528D01*
X171836579Y-60549004D01*
X171884198Y-60644242D01*
X171931817Y-60691861D01*
X172027055Y-60739480D01*
X172122293Y-60739480D01*
X172217531Y-60691861D01*
X172265150Y-60644242D01*
X172312769Y-60549004D01*
X172360388Y-60358528D01*
X172360388Y-60120433D01*
X172312769Y-59929957D01*
X172265150Y-59834719D01*
X172217531Y-59787100D01*
X172122293Y-59739480D01*
%TO.C,K7\u002C2*%
X172089580Y-105760980D02*
X172089580Y-104760980D01*
X171518152Y-105760980D02*
X171946723Y-105189552D01*
X171518152Y-104760980D02*
X172089580Y-105332409D01*
X171184819Y-104760980D02*
X170518152Y-104760980D01*
X170946723Y-105760980D01*
X170089580Y-105713361D02*
X170089580Y-105760980D01*
X170137200Y-105856219D01*
X170184819Y-105903838D01*
X169708628Y-104856219D02*
X169661009Y-104808600D01*
X169565771Y-104760980D01*
X169327676Y-104760980D01*
X169232438Y-104808600D01*
X169184819Y-104856219D01*
X169137200Y-104951457D01*
X169137200Y-105046695D01*
X169184819Y-105189552D01*
X169756247Y-105760980D01*
X169137200Y-105760980D01*
%TO.C,K7\u002C1*%
X162056580Y-86520480D02*
X162056580Y-85520480D01*
X161485152Y-86520480D02*
X161913723Y-85949052D01*
X161485152Y-85520480D02*
X162056580Y-86091909D01*
X161151819Y-85520480D02*
X160485152Y-85520480D01*
X160913723Y-86520480D01*
X160056580Y-86472861D02*
X160056580Y-86520480D01*
X160104200Y-86615719D01*
X160151819Y-86663338D01*
X159104200Y-86520480D02*
X159675628Y-86520480D01*
X159389914Y-86520480D02*
X159389914Y-85520480D01*
X159485152Y-85663338D01*
X159580390Y-85758576D01*
X159675628Y-85806195D01*
%TO.C,K7\u002C3*%
X176979080Y-125191980D02*
X176979080Y-124191980D01*
X176407652Y-125191980D02*
X176836223Y-124620552D01*
X176407652Y-124191980D02*
X176979080Y-124763409D01*
X176074319Y-124191980D02*
X175407652Y-124191980D01*
X175836223Y-125191980D01*
X174979080Y-125144361D02*
X174979080Y-125191980D01*
X175026700Y-125287219D01*
X175074319Y-125334838D01*
X174645747Y-124191980D02*
X174026700Y-124191980D01*
X174360033Y-124572933D01*
X174217176Y-124572933D01*
X174121938Y-124620552D01*
X174074319Y-124668171D01*
X174026700Y-124763409D01*
X174026700Y-125001504D01*
X174074319Y-125096742D01*
X174121938Y-125144361D01*
X174217176Y-125191980D01*
X174502890Y-125191980D01*
X174598128Y-125144361D01*
X174645747Y-125096742D01*
%TO.C,K7\u002C4*%
X186377080Y-145003980D02*
X186377080Y-144003980D01*
X185805652Y-145003980D02*
X186234223Y-144432552D01*
X185805652Y-144003980D02*
X186377080Y-144575409D01*
X185472319Y-144003980D02*
X184805652Y-144003980D01*
X185234223Y-145003980D01*
X184377080Y-144956361D02*
X184377080Y-145003980D01*
X184424700Y-145099219D01*
X184472319Y-145146838D01*
X183519938Y-144337314D02*
X183519938Y-145003980D01*
X183758033Y-143956361D02*
X183996128Y-144670647D01*
X183377080Y-144670647D01*
%TO.C,K8\u002C1*%
X181360580Y-86520480D02*
X181360580Y-85520480D01*
X180789152Y-86520480D02*
X181217723Y-85949052D01*
X180789152Y-85520480D02*
X181360580Y-86091909D01*
X180217723Y-85949052D02*
X180312961Y-85901433D01*
X180360580Y-85853814D01*
X180408200Y-85758576D01*
X180408200Y-85710957D01*
X180360580Y-85615719D01*
X180312961Y-85568100D01*
X180217723Y-85520480D01*
X180027247Y-85520480D01*
X179932009Y-85568100D01*
X179884390Y-85615719D01*
X179836771Y-85710957D01*
X179836771Y-85758576D01*
X179884390Y-85853814D01*
X179932009Y-85901433D01*
X180027247Y-85949052D01*
X180217723Y-85949052D01*
X180312961Y-85996671D01*
X180360580Y-86044290D01*
X180408200Y-86139528D01*
X180408200Y-86330004D01*
X180360580Y-86425242D01*
X180312961Y-86472861D01*
X180217723Y-86520480D01*
X180027247Y-86520480D01*
X179932009Y-86472861D01*
X179884390Y-86425242D01*
X179836771Y-86330004D01*
X179836771Y-86139528D01*
X179884390Y-86044290D01*
X179932009Y-85996671D01*
X180027247Y-85949052D01*
X179360580Y-86472861D02*
X179360580Y-86520480D01*
X179408200Y-86615719D01*
X179455819Y-86663338D01*
X178408200Y-86520480D02*
X178979628Y-86520480D01*
X178693914Y-86520480D02*
X178693914Y-85520480D01*
X178789152Y-85663338D01*
X178884390Y-85758576D01*
X178979628Y-85806195D01*
%TO.C,K8\u002C3*%
X196283080Y-125191980D02*
X196283080Y-124191980D01*
X195711652Y-125191980D02*
X196140223Y-124620552D01*
X195711652Y-124191980D02*
X196283080Y-124763409D01*
X195140223Y-124620552D02*
X195235461Y-124572933D01*
X195283080Y-124525314D01*
X195330700Y-124430076D01*
X195330700Y-124382457D01*
X195283080Y-124287219D01*
X195235461Y-124239600D01*
X195140223Y-124191980D01*
X194949747Y-124191980D01*
X194854509Y-124239600D01*
X194806890Y-124287219D01*
X194759271Y-124382457D01*
X194759271Y-124430076D01*
X194806890Y-124525314D01*
X194854509Y-124572933D01*
X194949747Y-124620552D01*
X195140223Y-124620552D01*
X195235461Y-124668171D01*
X195283080Y-124715790D01*
X195330700Y-124811028D01*
X195330700Y-125001504D01*
X195283080Y-125096742D01*
X195235461Y-125144361D01*
X195140223Y-125191980D01*
X194949747Y-125191980D01*
X194854509Y-125144361D01*
X194806890Y-125096742D01*
X194759271Y-125001504D01*
X194759271Y-124811028D01*
X194806890Y-124715790D01*
X194854509Y-124668171D01*
X194949747Y-124620552D01*
X194283080Y-125144361D02*
X194283080Y-125191980D01*
X194330700Y-125287219D01*
X194378319Y-125334838D01*
X193949747Y-124191980D02*
X193330700Y-124191980D01*
X193664033Y-124572933D01*
X193521176Y-124572933D01*
X193425938Y-124620552D01*
X193378319Y-124668171D01*
X193330700Y-124763409D01*
X193330700Y-125001504D01*
X193378319Y-125096742D01*
X193425938Y-125144361D01*
X193521176Y-125191980D01*
X193806890Y-125191980D01*
X193902128Y-125144361D01*
X193949747Y-125096742D01*
%TO.C,K8\u002C4*%
X205681080Y-145003980D02*
X205681080Y-144003980D01*
X205109652Y-145003980D02*
X205538223Y-144432552D01*
X205109652Y-144003980D02*
X205681080Y-144575409D01*
X204538223Y-144432552D02*
X204633461Y-144384933D01*
X204681080Y-144337314D01*
X204728700Y-144242076D01*
X204728700Y-144194457D01*
X204681080Y-144099219D01*
X204633461Y-144051600D01*
X204538223Y-144003980D01*
X204347747Y-144003980D01*
X204252509Y-144051600D01*
X204204890Y-144099219D01*
X204157271Y-144194457D01*
X204157271Y-144242076D01*
X204204890Y-144337314D01*
X204252509Y-144384933D01*
X204347747Y-144432552D01*
X204538223Y-144432552D01*
X204633461Y-144480171D01*
X204681080Y-144527790D01*
X204728700Y-144623028D01*
X204728700Y-144813504D01*
X204681080Y-144908742D01*
X204633461Y-144956361D01*
X204538223Y-145003980D01*
X204347747Y-145003980D01*
X204252509Y-144956361D01*
X204204890Y-144908742D01*
X204157271Y-144813504D01*
X204157271Y-144623028D01*
X204204890Y-144527790D01*
X204252509Y-144480171D01*
X204347747Y-144432552D01*
X203681080Y-144956361D02*
X203681080Y-145003980D01*
X203728700Y-145099219D01*
X203776319Y-145146838D01*
X202823938Y-144337314D02*
X202823938Y-145003980D01*
X203062033Y-143956361D02*
X203300128Y-144670647D01*
X202681080Y-144670647D01*
%TO.C,K8\u002C5*%
X222610180Y-164434980D02*
X222610180Y-163434980D01*
X222038752Y-164434980D02*
X222467323Y-163863552D01*
X222038752Y-163434980D02*
X222610180Y-164006409D01*
X221467323Y-163863552D02*
X221562561Y-163815933D01*
X221610180Y-163768314D01*
X221657800Y-163673076D01*
X221657800Y-163625457D01*
X221610180Y-163530219D01*
X221562561Y-163482600D01*
X221467323Y-163434980D01*
X221276847Y-163434980D01*
X221181609Y-163482600D01*
X221133990Y-163530219D01*
X221086371Y-163625457D01*
X221086371Y-163673076D01*
X221133990Y-163768314D01*
X221181609Y-163815933D01*
X221276847Y-163863552D01*
X221467323Y-163863552D01*
X221562561Y-163911171D01*
X221610180Y-163958790D01*
X221657800Y-164054028D01*
X221657800Y-164244504D01*
X221610180Y-164339742D01*
X221562561Y-164387361D01*
X221467323Y-164434980D01*
X221276847Y-164434980D01*
X221181609Y-164387361D01*
X221133990Y-164339742D01*
X221086371Y-164244504D01*
X221086371Y-164054028D01*
X221133990Y-163958790D01*
X221181609Y-163911171D01*
X221276847Y-163863552D01*
X220610180Y-164387361D02*
X220610180Y-164434980D01*
X220657800Y-164530219D01*
X220705419Y-164577838D01*
X219705419Y-163434980D02*
X220181609Y-163434980D01*
X220229228Y-163911171D01*
X220181609Y-163863552D01*
X220086371Y-163815933D01*
X219848276Y-163815933D01*
X219753038Y-163863552D01*
X219705419Y-163911171D01*
X219657800Y-164006409D01*
X219657800Y-164244504D01*
X219705419Y-164339742D01*
X219753038Y-164387361D01*
X219848276Y-164434980D01*
X220086371Y-164434980D01*
X220181609Y-164387361D01*
X220229228Y-164339742D01*
%TO.C,K8\u002C2*%
X191393580Y-105760980D02*
X191393580Y-104760980D01*
X190822152Y-105760980D02*
X191250723Y-105189552D01*
X190822152Y-104760980D02*
X191393580Y-105332409D01*
X190250723Y-105189552D02*
X190345961Y-105141933D01*
X190393580Y-105094314D01*
X190441200Y-104999076D01*
X190441200Y-104951457D01*
X190393580Y-104856219D01*
X190345961Y-104808600D01*
X190250723Y-104760980D01*
X190060247Y-104760980D01*
X189965009Y-104808600D01*
X189917390Y-104856219D01*
X189869771Y-104951457D01*
X189869771Y-104999076D01*
X189917390Y-105094314D01*
X189965009Y-105141933D01*
X190060247Y-105189552D01*
X190250723Y-105189552D01*
X190345961Y-105237171D01*
X190393580Y-105284790D01*
X190441200Y-105380028D01*
X190441200Y-105570504D01*
X190393580Y-105665742D01*
X190345961Y-105713361D01*
X190250723Y-105760980D01*
X190060247Y-105760980D01*
X189965009Y-105713361D01*
X189917390Y-105665742D01*
X189869771Y-105570504D01*
X189869771Y-105380028D01*
X189917390Y-105284790D01*
X189965009Y-105237171D01*
X190060247Y-105189552D01*
X189393580Y-105713361D02*
X189393580Y-105760980D01*
X189441200Y-105856219D01*
X189488819Y-105903838D01*
X189012628Y-104856219D02*
X188965009Y-104808600D01*
X188869771Y-104760980D01*
X188631676Y-104760980D01*
X188536438Y-104808600D01*
X188488819Y-104856219D01*
X188441200Y-104951457D01*
X188441200Y-105046695D01*
X188488819Y-105189552D01*
X189060247Y-105760980D01*
X188441200Y-105760980D01*
%TO.C,K9\u002C0*%
X239765340Y-60739480D02*
X239765340Y-59739480D01*
X239193912Y-60739480D02*
X239622483Y-60168052D01*
X239193912Y-59739480D02*
X239765340Y-60310909D01*
X238717721Y-60739480D02*
X238527245Y-60739480D01*
X238432007Y-60691861D01*
X238384388Y-60644242D01*
X238289150Y-60501385D01*
X238241531Y-60310909D01*
X238241531Y-59929957D01*
X238289150Y-59834719D01*
X238336769Y-59787100D01*
X238432007Y-59739480D01*
X238622483Y-59739480D01*
X238717721Y-59787100D01*
X238765340Y-59834719D01*
X238812960Y-59929957D01*
X238812960Y-60168052D01*
X238765340Y-60263290D01*
X238717721Y-60310909D01*
X238622483Y-60358528D01*
X238432007Y-60358528D01*
X238336769Y-60310909D01*
X238289150Y-60263290D01*
X238241531Y-60168052D01*
X237765340Y-60691861D02*
X237765340Y-60739480D01*
X237812960Y-60834719D01*
X237860579Y-60882338D01*
X237146293Y-59739480D02*
X237051055Y-59739480D01*
X236955817Y-59787100D01*
X236908198Y-59834719D01*
X236860579Y-59929957D01*
X236812960Y-60120433D01*
X236812960Y-60358528D01*
X236860579Y-60549004D01*
X236908198Y-60644242D01*
X236955817Y-60691861D01*
X237051055Y-60739480D01*
X237146293Y-60739480D01*
X237241531Y-60691861D01*
X237289150Y-60644242D01*
X237336769Y-60549004D01*
X237384388Y-60358528D01*
X237384388Y-60120433D01*
X237336769Y-59929957D01*
X237289150Y-59834719D01*
X237241531Y-59787100D01*
X237146293Y-59739480D01*
%TO.C,K9\u002C5*%
X246765580Y-164434980D02*
X246765580Y-163434980D01*
X246194152Y-164434980D02*
X246622723Y-163863552D01*
X246194152Y-163434980D02*
X246765580Y-164006409D01*
X245717961Y-164434980D02*
X245527485Y-164434980D01*
X245432247Y-164387361D01*
X245384628Y-164339742D01*
X245289390Y-164196885D01*
X245241771Y-164006409D01*
X245241771Y-163625457D01*
X245289390Y-163530219D01*
X245337009Y-163482600D01*
X245432247Y-163434980D01*
X245622723Y-163434980D01*
X245717961Y-163482600D01*
X245765580Y-163530219D01*
X245813200Y-163625457D01*
X245813200Y-163863552D01*
X245765580Y-163958790D01*
X245717961Y-164006409D01*
X245622723Y-164054028D01*
X245432247Y-164054028D01*
X245337009Y-164006409D01*
X245289390Y-163958790D01*
X245241771Y-163863552D01*
X244765580Y-164387361D02*
X244765580Y-164434980D01*
X244813200Y-164530219D01*
X244860819Y-164577838D01*
X243860819Y-163434980D02*
X244337009Y-163434980D01*
X244384628Y-163911171D01*
X244337009Y-163863552D01*
X244241771Y-163815933D01*
X244003676Y-163815933D01*
X243908438Y-163863552D01*
X243860819Y-163911171D01*
X243813200Y-164006409D01*
X243813200Y-164244504D01*
X243860819Y-164339742D01*
X243908438Y-164387361D01*
X244003676Y-164434980D01*
X244241771Y-164434980D01*
X244337009Y-164387361D01*
X244384628Y-164339742D01*
%TO.C,K9\u002C1*%
X200664580Y-86520480D02*
X200664580Y-85520480D01*
X200093152Y-86520480D02*
X200521723Y-85949052D01*
X200093152Y-85520480D02*
X200664580Y-86091909D01*
X199616961Y-86520480D02*
X199426485Y-86520480D01*
X199331247Y-86472861D01*
X199283628Y-86425242D01*
X199188390Y-86282385D01*
X199140771Y-86091909D01*
X199140771Y-85710957D01*
X199188390Y-85615719D01*
X199236009Y-85568100D01*
X199331247Y-85520480D01*
X199521723Y-85520480D01*
X199616961Y-85568100D01*
X199664580Y-85615719D01*
X199712200Y-85710957D01*
X199712200Y-85949052D01*
X199664580Y-86044290D01*
X199616961Y-86091909D01*
X199521723Y-86139528D01*
X199331247Y-86139528D01*
X199236009Y-86091909D01*
X199188390Y-86044290D01*
X199140771Y-85949052D01*
X198664580Y-86472861D02*
X198664580Y-86520480D01*
X198712200Y-86615719D01*
X198759819Y-86663338D01*
X197712200Y-86520480D02*
X198283628Y-86520480D01*
X197997914Y-86520480D02*
X197997914Y-85520480D01*
X198093152Y-85663338D01*
X198188390Y-85758576D01*
X198283628Y-85806195D01*
%TO.C,K9\u002C2*%
X210697580Y-105760980D02*
X210697580Y-104760980D01*
X210126152Y-105760980D02*
X210554723Y-105189552D01*
X210126152Y-104760980D02*
X210697580Y-105332409D01*
X209649961Y-105760980D02*
X209459485Y-105760980D01*
X209364247Y-105713361D01*
X209316628Y-105665742D01*
X209221390Y-105522885D01*
X209173771Y-105332409D01*
X209173771Y-104951457D01*
X209221390Y-104856219D01*
X209269009Y-104808600D01*
X209364247Y-104760980D01*
X209554723Y-104760980D01*
X209649961Y-104808600D01*
X209697580Y-104856219D01*
X209745200Y-104951457D01*
X209745200Y-105189552D01*
X209697580Y-105284790D01*
X209649961Y-105332409D01*
X209554723Y-105380028D01*
X209364247Y-105380028D01*
X209269009Y-105332409D01*
X209221390Y-105284790D01*
X209173771Y-105189552D01*
X208697580Y-105713361D02*
X208697580Y-105760980D01*
X208745200Y-105856219D01*
X208792819Y-105903838D01*
X208316628Y-104856219D02*
X208269009Y-104808600D01*
X208173771Y-104760980D01*
X207935676Y-104760980D01*
X207840438Y-104808600D01*
X207792819Y-104856219D01*
X207745200Y-104951457D01*
X207745200Y-105046695D01*
X207792819Y-105189552D01*
X208364247Y-105760980D01*
X207745200Y-105760980D01*
%TO.C,K9\u002C4*%
X224985080Y-145003980D02*
X224985080Y-144003980D01*
X224413652Y-145003980D02*
X224842223Y-144432552D01*
X224413652Y-144003980D02*
X224985080Y-144575409D01*
X223937461Y-145003980D02*
X223746985Y-145003980D01*
X223651747Y-144956361D01*
X223604128Y-144908742D01*
X223508890Y-144765885D01*
X223461271Y-144575409D01*
X223461271Y-144194457D01*
X223508890Y-144099219D01*
X223556509Y-144051600D01*
X223651747Y-144003980D01*
X223842223Y-144003980D01*
X223937461Y-144051600D01*
X223985080Y-144099219D01*
X224032700Y-144194457D01*
X224032700Y-144432552D01*
X223985080Y-144527790D01*
X223937461Y-144575409D01*
X223842223Y-144623028D01*
X223651747Y-144623028D01*
X223556509Y-144575409D01*
X223508890Y-144527790D01*
X223461271Y-144432552D01*
X222985080Y-144956361D02*
X222985080Y-145003980D01*
X223032700Y-145099219D01*
X223080319Y-145146838D01*
X222127938Y-144337314D02*
X222127938Y-145003980D01*
X222366033Y-143956361D02*
X222604128Y-144670647D01*
X221985080Y-144670647D01*
%TO.C,K9\u002C3*%
X215587080Y-125191980D02*
X215587080Y-124191980D01*
X215015652Y-125191980D02*
X215444223Y-124620552D01*
X215015652Y-124191980D02*
X215587080Y-124763409D01*
X214539461Y-125191980D02*
X214348985Y-125191980D01*
X214253747Y-125144361D01*
X214206128Y-125096742D01*
X214110890Y-124953885D01*
X214063271Y-124763409D01*
X214063271Y-124382457D01*
X214110890Y-124287219D01*
X214158509Y-124239600D01*
X214253747Y-124191980D01*
X214444223Y-124191980D01*
X214539461Y-124239600D01*
X214587080Y-124287219D01*
X214634700Y-124382457D01*
X214634700Y-124620552D01*
X214587080Y-124715790D01*
X214539461Y-124763409D01*
X214444223Y-124811028D01*
X214253747Y-124811028D01*
X214158509Y-124763409D01*
X214110890Y-124715790D01*
X214063271Y-124620552D01*
X213587080Y-125144361D02*
X213587080Y-125191980D01*
X213634700Y-125287219D01*
X213682319Y-125334838D01*
X213253747Y-124191980D02*
X212634700Y-124191980D01*
X212968033Y-124572933D01*
X212825176Y-124572933D01*
X212729938Y-124620552D01*
X212682319Y-124668171D01*
X212634700Y-124763409D01*
X212634700Y-125001504D01*
X212682319Y-125096742D01*
X212729938Y-125144361D01*
X212825176Y-125191980D01*
X213110890Y-125191980D01*
X213206128Y-125144361D01*
X213253747Y-125096742D01*
%TO.C,K10\u002C2*%
X230477771Y-105760980D02*
X230477771Y-104760980D01*
X229906342Y-105760980D02*
X230334914Y-105189552D01*
X229906342Y-104760980D02*
X230477771Y-105332409D01*
X228953961Y-105760980D02*
X229525390Y-105760980D01*
X229239676Y-105760980D02*
X229239676Y-104760980D01*
X229334914Y-104903838D01*
X229430152Y-104999076D01*
X229525390Y-105046695D01*
X228334914Y-104760980D02*
X228239676Y-104760980D01*
X228144438Y-104808600D01*
X228096819Y-104856219D01*
X228049200Y-104951457D01*
X228001580Y-105141933D01*
X228001580Y-105380028D01*
X228049200Y-105570504D01*
X228096819Y-105665742D01*
X228144438Y-105713361D01*
X228239676Y-105760980D01*
X228334914Y-105760980D01*
X228430152Y-105713361D01*
X228477771Y-105665742D01*
X228525390Y-105570504D01*
X228573009Y-105380028D01*
X228573009Y-105141933D01*
X228525390Y-104951457D01*
X228477771Y-104856219D01*
X228430152Y-104808600D01*
X228334914Y-104760980D01*
X227525390Y-105713361D02*
X227525390Y-105760980D01*
X227573009Y-105856219D01*
X227620628Y-105903838D01*
X227144438Y-104856219D02*
X227096819Y-104808600D01*
X227001580Y-104760980D01*
X226763485Y-104760980D01*
X226668247Y-104808600D01*
X226620628Y-104856219D01*
X226573009Y-104951457D01*
X226573009Y-105046695D01*
X226620628Y-105189552D01*
X227192057Y-105760980D01*
X226573009Y-105760980D01*
%TO.C,K10\u002C0*%
X259545531Y-60739480D02*
X259545531Y-59739480D01*
X258974102Y-60739480D02*
X259402674Y-60168052D01*
X258974102Y-59739480D02*
X259545531Y-60310909D01*
X258021721Y-60739480D02*
X258593150Y-60739480D01*
X258307436Y-60739480D02*
X258307436Y-59739480D01*
X258402674Y-59882338D01*
X258497912Y-59977576D01*
X258593150Y-60025195D01*
X257402674Y-59739480D02*
X257307436Y-59739480D01*
X257212198Y-59787100D01*
X257164579Y-59834719D01*
X257116960Y-59929957D01*
X257069340Y-60120433D01*
X257069340Y-60358528D01*
X257116960Y-60549004D01*
X257164579Y-60644242D01*
X257212198Y-60691861D01*
X257307436Y-60739480D01*
X257402674Y-60739480D01*
X257497912Y-60691861D01*
X257545531Y-60644242D01*
X257593150Y-60549004D01*
X257640769Y-60358528D01*
X257640769Y-60120433D01*
X257593150Y-59929957D01*
X257545531Y-59834719D01*
X257497912Y-59787100D01*
X257402674Y-59739480D01*
X256593150Y-60691861D02*
X256593150Y-60739480D01*
X256640769Y-60834719D01*
X256688388Y-60882338D01*
X255974102Y-59739480D02*
X255878864Y-59739480D01*
X255783626Y-59787100D01*
X255736007Y-59834719D01*
X255688388Y-59929957D01*
X255640769Y-60120433D01*
X255640769Y-60358528D01*
X255688388Y-60549004D01*
X255736007Y-60644242D01*
X255783626Y-60691861D01*
X255878864Y-60739480D01*
X255974102Y-60739480D01*
X256069340Y-60691861D01*
X256116960Y-60644242D01*
X256164579Y-60549004D01*
X256212198Y-60358528D01*
X256212198Y-60120433D01*
X256164579Y-59929957D01*
X256116960Y-59834719D01*
X256069340Y-59787100D01*
X255974102Y-59739480D01*
%TO.C,K10\u002C5*%
X271435271Y-164434980D02*
X271435271Y-163434980D01*
X270863842Y-164434980D02*
X271292414Y-163863552D01*
X270863842Y-163434980D02*
X271435271Y-164006409D01*
X269911461Y-164434980D02*
X270482890Y-164434980D01*
X270197176Y-164434980D02*
X270197176Y-163434980D01*
X270292414Y-163577838D01*
X270387652Y-163673076D01*
X270482890Y-163720695D01*
X269292414Y-163434980D02*
X269197176Y-163434980D01*
X269101938Y-163482600D01*
X269054319Y-163530219D01*
X269006700Y-163625457D01*
X268959080Y-163815933D01*
X268959080Y-164054028D01*
X269006700Y-164244504D01*
X269054319Y-164339742D01*
X269101938Y-164387361D01*
X269197176Y-164434980D01*
X269292414Y-164434980D01*
X269387652Y-164387361D01*
X269435271Y-164339742D01*
X269482890Y-164244504D01*
X269530509Y-164054028D01*
X269530509Y-163815933D01*
X269482890Y-163625457D01*
X269435271Y-163530219D01*
X269387652Y-163482600D01*
X269292414Y-163434980D01*
X268482890Y-164387361D02*
X268482890Y-164434980D01*
X268530509Y-164530219D01*
X268578128Y-164577838D01*
X267578128Y-163434980D02*
X268054319Y-163434980D01*
X268101938Y-163911171D01*
X268054319Y-163863552D01*
X267959080Y-163815933D01*
X267720985Y-163815933D01*
X267625747Y-163863552D01*
X267578128Y-163911171D01*
X267530509Y-164006409D01*
X267530509Y-164244504D01*
X267578128Y-164339742D01*
X267625747Y-164387361D01*
X267720985Y-164434980D01*
X267959080Y-164434980D01*
X268054319Y-164387361D01*
X268101938Y-164339742D01*
%TO.C,K10\u002C1*%
X220444771Y-86520480D02*
X220444771Y-85520480D01*
X219873342Y-86520480D02*
X220301914Y-85949052D01*
X219873342Y-85520480D02*
X220444771Y-86091909D01*
X218920961Y-86520480D02*
X219492390Y-86520480D01*
X219206676Y-86520480D02*
X219206676Y-85520480D01*
X219301914Y-85663338D01*
X219397152Y-85758576D01*
X219492390Y-85806195D01*
X218301914Y-85520480D02*
X218206676Y-85520480D01*
X218111438Y-85568100D01*
X218063819Y-85615719D01*
X218016200Y-85710957D01*
X217968580Y-85901433D01*
X217968580Y-86139528D01*
X218016200Y-86330004D01*
X218063819Y-86425242D01*
X218111438Y-86472861D01*
X218206676Y-86520480D01*
X218301914Y-86520480D01*
X218397152Y-86472861D01*
X218444771Y-86425242D01*
X218492390Y-86330004D01*
X218540009Y-86139528D01*
X218540009Y-85901433D01*
X218492390Y-85710957D01*
X218444771Y-85615719D01*
X218397152Y-85568100D01*
X218301914Y-85520480D01*
X217492390Y-86472861D02*
X217492390Y-86520480D01*
X217540009Y-86615719D01*
X217587628Y-86663338D01*
X216540009Y-86520480D02*
X217111438Y-86520480D01*
X216825723Y-86520480D02*
X216825723Y-85520480D01*
X216920961Y-85663338D01*
X217016200Y-85758576D01*
X217111438Y-85806195D01*
%TO.C,K10\u002C4*%
X244765271Y-145003980D02*
X244765271Y-144003980D01*
X244193842Y-145003980D02*
X244622414Y-144432552D01*
X244193842Y-144003980D02*
X244765271Y-144575409D01*
X243241461Y-145003980D02*
X243812890Y-145003980D01*
X243527176Y-145003980D02*
X243527176Y-144003980D01*
X243622414Y-144146838D01*
X243717652Y-144242076D01*
X243812890Y-144289695D01*
X242622414Y-144003980D02*
X242527176Y-144003980D01*
X242431938Y-144051600D01*
X242384319Y-144099219D01*
X242336700Y-144194457D01*
X242289080Y-144384933D01*
X242289080Y-144623028D01*
X242336700Y-144813504D01*
X242384319Y-144908742D01*
X242431938Y-144956361D01*
X242527176Y-145003980D01*
X242622414Y-145003980D01*
X242717652Y-144956361D01*
X242765271Y-144908742D01*
X242812890Y-144813504D01*
X242860509Y-144623028D01*
X242860509Y-144384933D01*
X242812890Y-144194457D01*
X242765271Y-144099219D01*
X242717652Y-144051600D01*
X242622414Y-144003980D01*
X241812890Y-144956361D02*
X241812890Y-145003980D01*
X241860509Y-145099219D01*
X241908128Y-145146838D01*
X240955747Y-144337314D02*
X240955747Y-145003980D01*
X241193842Y-143956361D02*
X241431938Y-144670647D01*
X240812890Y-144670647D01*
%TO.C,K11\u002C3*%
X254671271Y-125191980D02*
X254671271Y-124191980D01*
X254099842Y-125191980D02*
X254528414Y-124620552D01*
X254099842Y-124191980D02*
X254671271Y-124763409D01*
X253147461Y-125191980D02*
X253718890Y-125191980D01*
X253433176Y-125191980D02*
X253433176Y-124191980D01*
X253528414Y-124334838D01*
X253623652Y-124430076D01*
X253718890Y-124477695D01*
X252195080Y-125191980D02*
X252766509Y-125191980D01*
X252480795Y-125191980D02*
X252480795Y-124191980D01*
X252576033Y-124334838D01*
X252671271Y-124430076D01*
X252766509Y-124477695D01*
X251718890Y-125144361D02*
X251718890Y-125191980D01*
X251766509Y-125287219D01*
X251814128Y-125334838D01*
X251385557Y-124191980D02*
X250766509Y-124191980D01*
X251099842Y-124572933D01*
X250956985Y-124572933D01*
X250861747Y-124620552D01*
X250814128Y-124668171D01*
X250766509Y-124763409D01*
X250766509Y-125001504D01*
X250814128Y-125096742D01*
X250861747Y-125144361D01*
X250956985Y-125191980D01*
X251242700Y-125191980D01*
X251337938Y-125144361D01*
X251385557Y-125096742D01*
%TO.C,K11\u002C2*%
X249781771Y-105760980D02*
X249781771Y-104760980D01*
X249210342Y-105760980D02*
X249638914Y-105189552D01*
X249210342Y-104760980D02*
X249781771Y-105332409D01*
X248257961Y-105760980D02*
X248829390Y-105760980D01*
X248543676Y-105760980D02*
X248543676Y-104760980D01*
X248638914Y-104903838D01*
X248734152Y-104999076D01*
X248829390Y-105046695D01*
X247305580Y-105760980D02*
X247877009Y-105760980D01*
X247591295Y-105760980D02*
X247591295Y-104760980D01*
X247686533Y-104903838D01*
X247781771Y-104999076D01*
X247877009Y-105046695D01*
X246829390Y-105713361D02*
X246829390Y-105760980D01*
X246877009Y-105856219D01*
X246924628Y-105903838D01*
X246448438Y-104856219D02*
X246400819Y-104808600D01*
X246305580Y-104760980D01*
X246067485Y-104760980D01*
X245972247Y-104808600D01*
X245924628Y-104856219D01*
X245877009Y-104951457D01*
X245877009Y-105046695D01*
X245924628Y-105189552D01*
X246496057Y-105760980D01*
X245877009Y-105760980D01*
%TO.C,K11\u002C5*%
X295501771Y-164434980D02*
X295501771Y-163434980D01*
X294930342Y-164434980D02*
X295358914Y-163863552D01*
X294930342Y-163434980D02*
X295501771Y-164006409D01*
X293977961Y-164434980D02*
X294549390Y-164434980D01*
X294263676Y-164434980D02*
X294263676Y-163434980D01*
X294358914Y-163577838D01*
X294454152Y-163673076D01*
X294549390Y-163720695D01*
X293025580Y-164434980D02*
X293597009Y-164434980D01*
X293311295Y-164434980D02*
X293311295Y-163434980D01*
X293406533Y-163577838D01*
X293501771Y-163673076D01*
X293597009Y-163720695D01*
X292549390Y-164387361D02*
X292549390Y-164434980D01*
X292597009Y-164530219D01*
X292644628Y-164577838D01*
X291644628Y-163434980D02*
X292120819Y-163434980D01*
X292168438Y-163911171D01*
X292120819Y-163863552D01*
X292025580Y-163815933D01*
X291787485Y-163815933D01*
X291692247Y-163863552D01*
X291644628Y-163911171D01*
X291597009Y-164006409D01*
X291597009Y-164244504D01*
X291644628Y-164339742D01*
X291692247Y-164387361D01*
X291787485Y-164434980D01*
X292025580Y-164434980D01*
X292120819Y-164387361D01*
X292168438Y-164339742D01*
%TO.C,K11\u002C1*%
X239748771Y-86520480D02*
X239748771Y-85520480D01*
X239177342Y-86520480D02*
X239605914Y-85949052D01*
X239177342Y-85520480D02*
X239748771Y-86091909D01*
X238224961Y-86520480D02*
X238796390Y-86520480D01*
X238510676Y-86520480D02*
X238510676Y-85520480D01*
X238605914Y-85663338D01*
X238701152Y-85758576D01*
X238796390Y-85806195D01*
X237272580Y-86520480D02*
X237844009Y-86520480D01*
X237558295Y-86520480D02*
X237558295Y-85520480D01*
X237653533Y-85663338D01*
X237748771Y-85758576D01*
X237844009Y-85806195D01*
X236796390Y-86472861D02*
X236796390Y-86520480D01*
X236844009Y-86615719D01*
X236891628Y-86663338D01*
X235844009Y-86520480D02*
X236415438Y-86520480D01*
X236129723Y-86520480D02*
X236129723Y-85520480D01*
X236224961Y-85663338D01*
X236320200Y-85758576D01*
X236415438Y-85806195D01*
%TO.C,K11\u002C0*%
X278849531Y-60739480D02*
X278849531Y-59739480D01*
X278278102Y-60739480D02*
X278706674Y-60168052D01*
X278278102Y-59739480D02*
X278849531Y-60310909D01*
X277325721Y-60739480D02*
X277897150Y-60739480D01*
X277611436Y-60739480D02*
X277611436Y-59739480D01*
X277706674Y-59882338D01*
X277801912Y-59977576D01*
X277897150Y-60025195D01*
X276373340Y-60739480D02*
X276944769Y-60739480D01*
X276659055Y-60739480D02*
X276659055Y-59739480D01*
X276754293Y-59882338D01*
X276849531Y-59977576D01*
X276944769Y-60025195D01*
X275897150Y-60691861D02*
X275897150Y-60739480D01*
X275944769Y-60834719D01*
X275992388Y-60882338D01*
X275278102Y-59739480D02*
X275182864Y-59739480D01*
X275087626Y-59787100D01*
X275040007Y-59834719D01*
X274992388Y-59929957D01*
X274944769Y-60120433D01*
X274944769Y-60358528D01*
X274992388Y-60549004D01*
X275040007Y-60644242D01*
X275087626Y-60691861D01*
X275182864Y-60739480D01*
X275278102Y-60739480D01*
X275373340Y-60691861D01*
X275420960Y-60644242D01*
X275468579Y-60549004D01*
X275516198Y-60358528D01*
X275516198Y-60120433D01*
X275468579Y-59929957D01*
X275420960Y-59834719D01*
X275373340Y-59787100D01*
X275278102Y-59739480D01*
%TO.C,K12\u002C2*%
X269085771Y-105760980D02*
X269085771Y-104760980D01*
X268514342Y-105760980D02*
X268942914Y-105189552D01*
X268514342Y-104760980D02*
X269085771Y-105332409D01*
X267561961Y-105760980D02*
X268133390Y-105760980D01*
X267847676Y-105760980D02*
X267847676Y-104760980D01*
X267942914Y-104903838D01*
X268038152Y-104999076D01*
X268133390Y-105046695D01*
X267181009Y-104856219D02*
X267133390Y-104808600D01*
X267038152Y-104760980D01*
X266800057Y-104760980D01*
X266704819Y-104808600D01*
X266657200Y-104856219D01*
X266609580Y-104951457D01*
X266609580Y-105046695D01*
X266657200Y-105189552D01*
X267228628Y-105760980D01*
X266609580Y-105760980D01*
X266133390Y-105713361D02*
X266133390Y-105760980D01*
X266181009Y-105856219D01*
X266228628Y-105903838D01*
X265752438Y-104856219D02*
X265704819Y-104808600D01*
X265609580Y-104760980D01*
X265371485Y-104760980D01*
X265276247Y-104808600D01*
X265228628Y-104856219D01*
X265181009Y-104951457D01*
X265181009Y-105046695D01*
X265228628Y-105189552D01*
X265800057Y-105760980D01*
X265181009Y-105760980D01*
%TO.C,K12\u002C0*%
X298153531Y-60739480D02*
X298153531Y-59739480D01*
X297582102Y-60739480D02*
X298010674Y-60168052D01*
X297582102Y-59739480D02*
X298153531Y-60310909D01*
X296629721Y-60739480D02*
X297201150Y-60739480D01*
X296915436Y-60739480D02*
X296915436Y-59739480D01*
X297010674Y-59882338D01*
X297105912Y-59977576D01*
X297201150Y-60025195D01*
X296248769Y-59834719D02*
X296201150Y-59787100D01*
X296105912Y-59739480D01*
X295867817Y-59739480D01*
X295772579Y-59787100D01*
X295724960Y-59834719D01*
X295677340Y-59929957D01*
X295677340Y-60025195D01*
X295724960Y-60168052D01*
X296296388Y-60739480D01*
X295677340Y-60739480D01*
X295201150Y-60691861D02*
X295201150Y-60739480D01*
X295248769Y-60834719D01*
X295296388Y-60882338D01*
X294582102Y-59739480D02*
X294486864Y-59739480D01*
X294391626Y-59787100D01*
X294344007Y-59834719D01*
X294296388Y-59929957D01*
X294248769Y-60120433D01*
X294248769Y-60358528D01*
X294296388Y-60549004D01*
X294344007Y-60644242D01*
X294391626Y-60691861D01*
X294486864Y-60739480D01*
X294582102Y-60739480D01*
X294677340Y-60691861D01*
X294724960Y-60644242D01*
X294772579Y-60549004D01*
X294820198Y-60358528D01*
X294820198Y-60120433D01*
X294772579Y-59929957D01*
X294724960Y-59834719D01*
X294677340Y-59787100D01*
X294582102Y-59739480D01*
%TO.C,K12\u002C1*%
X259052771Y-86520480D02*
X259052771Y-85520480D01*
X258481342Y-86520480D02*
X258909914Y-85949052D01*
X258481342Y-85520480D02*
X259052771Y-86091909D01*
X257528961Y-86520480D02*
X258100390Y-86520480D01*
X257814676Y-86520480D02*
X257814676Y-85520480D01*
X257909914Y-85663338D01*
X258005152Y-85758576D01*
X258100390Y-85806195D01*
X257148009Y-85615719D02*
X257100390Y-85568100D01*
X257005152Y-85520480D01*
X256767057Y-85520480D01*
X256671819Y-85568100D01*
X256624200Y-85615719D01*
X256576580Y-85710957D01*
X256576580Y-85806195D01*
X256624200Y-85949052D01*
X257195628Y-86520480D01*
X256576580Y-86520480D01*
X256100390Y-86472861D02*
X256100390Y-86520480D01*
X256148009Y-86615719D01*
X256195628Y-86663338D01*
X255148009Y-86520480D02*
X255719438Y-86520480D01*
X255433723Y-86520480D02*
X255433723Y-85520480D01*
X255528961Y-85663338D01*
X255624200Y-85758576D01*
X255719438Y-85806195D01*
%TO.C,K13\u002C2*%
X293025271Y-105773680D02*
X293025271Y-104773680D01*
X292453842Y-105773680D02*
X292882414Y-105202252D01*
X292453842Y-104773680D02*
X293025271Y-105345109D01*
X291501461Y-105773680D02*
X292072890Y-105773680D01*
X291787176Y-105773680D02*
X291787176Y-104773680D01*
X291882414Y-104916538D01*
X291977652Y-105011776D01*
X292072890Y-105059395D01*
X291168128Y-104773680D02*
X290549080Y-104773680D01*
X290882414Y-105154633D01*
X290739557Y-105154633D01*
X290644319Y-105202252D01*
X290596700Y-105249871D01*
X290549080Y-105345109D01*
X290549080Y-105583204D01*
X290596700Y-105678442D01*
X290644319Y-105726061D01*
X290739557Y-105773680D01*
X291025271Y-105773680D01*
X291120509Y-105726061D01*
X291168128Y-105678442D01*
X290072890Y-105726061D02*
X290072890Y-105773680D01*
X290120509Y-105868919D01*
X290168128Y-105916538D01*
X289691938Y-104868919D02*
X289644319Y-104821300D01*
X289549080Y-104773680D01*
X289310985Y-104773680D01*
X289215747Y-104821300D01*
X289168128Y-104868919D01*
X289120509Y-104964157D01*
X289120509Y-105059395D01*
X289168128Y-105202252D01*
X289739557Y-105773680D01*
X289120509Y-105773680D01*
%TO.C,K14\u002C6*%
X320609671Y-164307980D02*
X320609671Y-163307980D01*
X320038242Y-164307980D02*
X320466814Y-163736552D01*
X320038242Y-163307980D02*
X320609671Y-163879409D01*
X319085861Y-164307980D02*
X319657290Y-164307980D01*
X319371576Y-164307980D02*
X319371576Y-163307980D01*
X319466814Y-163450838D01*
X319562052Y-163546076D01*
X319657290Y-163593695D01*
X318228719Y-163641314D02*
X318228719Y-164307980D01*
X318466814Y-163260361D02*
X318704909Y-163974647D01*
X318085861Y-163974647D01*
X317657290Y-164260361D02*
X317657290Y-164307980D01*
X317704909Y-164403219D01*
X317752528Y-164450838D01*
X316800147Y-163307980D02*
X316990623Y-163307980D01*
X317085861Y-163355600D01*
X317133480Y-163403219D01*
X317228719Y-163546076D01*
X317276338Y-163736552D01*
X317276338Y-164117504D01*
X317228719Y-164212742D01*
X317181100Y-164260361D01*
X317085861Y-164307980D01*
X316895385Y-164307980D01*
X316800147Y-164260361D01*
X316752528Y-164212742D01*
X316704909Y-164117504D01*
X316704909Y-163879409D01*
X316752528Y-163784171D01*
X316800147Y-163736552D01*
X316895385Y-163688933D01*
X317085861Y-163688933D01*
X317181100Y-163736552D01*
X317228719Y-163784171D01*
X317276338Y-163879409D01*
%TO.C,K14\u002C3*%
X320673171Y-105760980D02*
X320673171Y-104760980D01*
X320101742Y-105760980D02*
X320530314Y-105189552D01*
X320101742Y-104760980D02*
X320673171Y-105332409D01*
X319149361Y-105760980D02*
X319720790Y-105760980D01*
X319435076Y-105760980D02*
X319435076Y-104760980D01*
X319530314Y-104903838D01*
X319625552Y-104999076D01*
X319720790Y-105046695D01*
X318292219Y-105094314D02*
X318292219Y-105760980D01*
X318530314Y-104713361D02*
X318768409Y-105427647D01*
X318149361Y-105427647D01*
X317720790Y-105713361D02*
X317720790Y-105760980D01*
X317768409Y-105856219D01*
X317816028Y-105903838D01*
X317387457Y-104760980D02*
X316768409Y-104760980D01*
X317101742Y-105141933D01*
X316958885Y-105141933D01*
X316863647Y-105189552D01*
X316816028Y-105237171D01*
X316768409Y-105332409D01*
X316768409Y-105570504D01*
X316816028Y-105665742D01*
X316863647Y-105713361D01*
X316958885Y-105760980D01*
X317244600Y-105760980D01*
X317339838Y-105713361D01*
X317387457Y-105665742D01*
%TO.C,K14\u002C0*%
X320723971Y-60739480D02*
X320723971Y-59739480D01*
X320152542Y-60739480D02*
X320581114Y-60168052D01*
X320152542Y-59739480D02*
X320723971Y-60310909D01*
X319200161Y-60739480D02*
X319771590Y-60739480D01*
X319485876Y-60739480D02*
X319485876Y-59739480D01*
X319581114Y-59882338D01*
X319676352Y-59977576D01*
X319771590Y-60025195D01*
X318343019Y-60072814D02*
X318343019Y-60739480D01*
X318581114Y-59691861D02*
X318819209Y-60406147D01*
X318200161Y-60406147D01*
X317771590Y-60691861D02*
X317771590Y-60739480D01*
X317819209Y-60834719D01*
X317866828Y-60882338D01*
X317152542Y-59739480D02*
X317057304Y-59739480D01*
X316962066Y-59787100D01*
X316914447Y-59834719D01*
X316866828Y-59929957D01*
X316819209Y-60120433D01*
X316819209Y-60358528D01*
X316866828Y-60549004D01*
X316914447Y-60644242D01*
X316962066Y-60691861D01*
X317057304Y-60739480D01*
X317152542Y-60739480D01*
X317247780Y-60691861D01*
X317295400Y-60644242D01*
X317343019Y-60549004D01*
X317390638Y-60358528D01*
X317390638Y-60120433D01*
X317343019Y-59929957D01*
X317295400Y-59834719D01*
X317247780Y-59787100D01*
X317152542Y-59739480D01*
%TO.C,K15\u002C6*%
X339913671Y-164307980D02*
X339913671Y-163307980D01*
X339342242Y-164307980D02*
X339770814Y-163736552D01*
X339342242Y-163307980D02*
X339913671Y-163879409D01*
X338389861Y-164307980D02*
X338961290Y-164307980D01*
X338675576Y-164307980D02*
X338675576Y-163307980D01*
X338770814Y-163450838D01*
X338866052Y-163546076D01*
X338961290Y-163593695D01*
X337485100Y-163307980D02*
X337961290Y-163307980D01*
X338008909Y-163784171D01*
X337961290Y-163736552D01*
X337866052Y-163688933D01*
X337627957Y-163688933D01*
X337532719Y-163736552D01*
X337485100Y-163784171D01*
X337437480Y-163879409D01*
X337437480Y-164117504D01*
X337485100Y-164212742D01*
X337532719Y-164260361D01*
X337627957Y-164307980D01*
X337866052Y-164307980D01*
X337961290Y-164260361D01*
X338008909Y-164212742D01*
X336961290Y-164260361D02*
X336961290Y-164307980D01*
X337008909Y-164403219D01*
X337056528Y-164450838D01*
X336104147Y-163307980D02*
X336294623Y-163307980D01*
X336389861Y-163355600D01*
X336437480Y-163403219D01*
X336532719Y-163546076D01*
X336580338Y-163736552D01*
X336580338Y-164117504D01*
X336532719Y-164212742D01*
X336485100Y-164260361D01*
X336389861Y-164307980D01*
X336199385Y-164307980D01*
X336104147Y-164260361D01*
X336056528Y-164212742D01*
X336008909Y-164117504D01*
X336008909Y-163879409D01*
X336056528Y-163784171D01*
X336104147Y-163736552D01*
X336199385Y-163688933D01*
X336389861Y-163688933D01*
X336485100Y-163736552D01*
X336532719Y-163784171D01*
X336580338Y-163879409D01*
%TO.C,K15\u002C3*%
X339977171Y-105760980D02*
X339977171Y-104760980D01*
X339405742Y-105760980D02*
X339834314Y-105189552D01*
X339405742Y-104760980D02*
X339977171Y-105332409D01*
X338453361Y-105760980D02*
X339024790Y-105760980D01*
X338739076Y-105760980D02*
X338739076Y-104760980D01*
X338834314Y-104903838D01*
X338929552Y-104999076D01*
X339024790Y-105046695D01*
X337548600Y-104760980D02*
X338024790Y-104760980D01*
X338072409Y-105237171D01*
X338024790Y-105189552D01*
X337929552Y-105141933D01*
X337691457Y-105141933D01*
X337596219Y-105189552D01*
X337548600Y-105237171D01*
X337500980Y-105332409D01*
X337500980Y-105570504D01*
X337548600Y-105665742D01*
X337596219Y-105713361D01*
X337691457Y-105760980D01*
X337929552Y-105760980D01*
X338024790Y-105713361D01*
X338072409Y-105665742D01*
X337024790Y-105713361D02*
X337024790Y-105760980D01*
X337072409Y-105856219D01*
X337120028Y-105903838D01*
X336691457Y-104760980D02*
X336072409Y-104760980D01*
X336405742Y-105141933D01*
X336262885Y-105141933D01*
X336167647Y-105189552D01*
X336120028Y-105237171D01*
X336072409Y-105332409D01*
X336072409Y-105570504D01*
X336120028Y-105665742D01*
X336167647Y-105713361D01*
X336262885Y-105760980D01*
X336548600Y-105760980D01*
X336643838Y-105713361D01*
X336691457Y-105665742D01*
%TO.C,K15\u002C5*%
X339913671Y-145003980D02*
X339913671Y-144003980D01*
X339342242Y-145003980D02*
X339770814Y-144432552D01*
X339342242Y-144003980D02*
X339913671Y-144575409D01*
X338389861Y-145003980D02*
X338961290Y-145003980D01*
X338675576Y-145003980D02*
X338675576Y-144003980D01*
X338770814Y-144146838D01*
X338866052Y-144242076D01*
X338961290Y-144289695D01*
X337485100Y-144003980D02*
X337961290Y-144003980D01*
X338008909Y-144480171D01*
X337961290Y-144432552D01*
X337866052Y-144384933D01*
X337627957Y-144384933D01*
X337532719Y-144432552D01*
X337485100Y-144480171D01*
X337437480Y-144575409D01*
X337437480Y-144813504D01*
X337485100Y-144908742D01*
X337532719Y-144956361D01*
X337627957Y-145003980D01*
X337866052Y-145003980D01*
X337961290Y-144956361D01*
X338008909Y-144908742D01*
X336961290Y-144956361D02*
X336961290Y-145003980D01*
X337008909Y-145099219D01*
X337056528Y-145146838D01*
X336056528Y-144003980D02*
X336532719Y-144003980D01*
X336580338Y-144480171D01*
X336532719Y-144432552D01*
X336437480Y-144384933D01*
X336199385Y-144384933D01*
X336104147Y-144432552D01*
X336056528Y-144480171D01*
X336008909Y-144575409D01*
X336008909Y-144813504D01*
X336056528Y-144908742D01*
X336104147Y-144956361D01*
X336199385Y-145003980D01*
X336437480Y-145003980D01*
X336532719Y-144956361D01*
X336580338Y-144908742D01*
%TO.C,K15\u002C1*%
X339977171Y-86520480D02*
X339977171Y-85520480D01*
X339405742Y-86520480D02*
X339834314Y-85949052D01*
X339405742Y-85520480D02*
X339977171Y-86091909D01*
X338453361Y-86520480D02*
X339024790Y-86520480D01*
X338739076Y-86520480D02*
X338739076Y-85520480D01*
X338834314Y-85663338D01*
X338929552Y-85758576D01*
X339024790Y-85806195D01*
X337548600Y-85520480D02*
X338024790Y-85520480D01*
X338072409Y-85996671D01*
X338024790Y-85949052D01*
X337929552Y-85901433D01*
X337691457Y-85901433D01*
X337596219Y-85949052D01*
X337548600Y-85996671D01*
X337500980Y-86091909D01*
X337500980Y-86330004D01*
X337548600Y-86425242D01*
X337596219Y-86472861D01*
X337691457Y-86520480D01*
X337929552Y-86520480D01*
X338024790Y-86472861D01*
X338072409Y-86425242D01*
X337024790Y-86472861D02*
X337024790Y-86520480D01*
X337072409Y-86615719D01*
X337120028Y-86663338D01*
X336072409Y-86520480D02*
X336643838Y-86520480D01*
X336358123Y-86520480D02*
X336358123Y-85520480D01*
X336453361Y-85663338D01*
X336548600Y-85758576D01*
X336643838Y-85806195D01*
%TO.C,K15\u002C0*%
X340281971Y-60739480D02*
X340281971Y-59739480D01*
X339710542Y-60739480D02*
X340139114Y-60168052D01*
X339710542Y-59739480D02*
X340281971Y-60310909D01*
X338758161Y-60739480D02*
X339329590Y-60739480D01*
X339043876Y-60739480D02*
X339043876Y-59739480D01*
X339139114Y-59882338D01*
X339234352Y-59977576D01*
X339329590Y-60025195D01*
X337853400Y-59739480D02*
X338329590Y-59739480D01*
X338377209Y-60215671D01*
X338329590Y-60168052D01*
X338234352Y-60120433D01*
X337996257Y-60120433D01*
X337901019Y-60168052D01*
X337853400Y-60215671D01*
X337805780Y-60310909D01*
X337805780Y-60549004D01*
X337853400Y-60644242D01*
X337901019Y-60691861D01*
X337996257Y-60739480D01*
X338234352Y-60739480D01*
X338329590Y-60691861D01*
X338377209Y-60644242D01*
X337329590Y-60691861D02*
X337329590Y-60739480D01*
X337377209Y-60834719D01*
X337424828Y-60882338D01*
X336710542Y-59739480D02*
X336615304Y-59739480D01*
X336520066Y-59787100D01*
X336472447Y-59834719D01*
X336424828Y-59929957D01*
X336377209Y-60120433D01*
X336377209Y-60358528D01*
X336424828Y-60549004D01*
X336472447Y-60644242D01*
X336520066Y-60691861D01*
X336615304Y-60739480D01*
X336710542Y-60739480D01*
X336805780Y-60691861D01*
X336853400Y-60644242D01*
X336901019Y-60549004D01*
X336948638Y-60358528D01*
X336948638Y-60120433D01*
X336901019Y-59929957D01*
X336853400Y-59834719D01*
X336805780Y-59787100D01*
X336710542Y-59739480D01*
%TO.C,K16\u002C4*%
X383157171Y-125191980D02*
X383157171Y-124191980D01*
X382585742Y-125191980D02*
X383014314Y-124620552D01*
X382585742Y-124191980D02*
X383157171Y-124763409D01*
X381633361Y-125191980D02*
X382204790Y-125191980D01*
X381919076Y-125191980D02*
X381919076Y-124191980D01*
X382014314Y-124334838D01*
X382109552Y-124430076D01*
X382204790Y-124477695D01*
X380776219Y-124191980D02*
X380966695Y-124191980D01*
X381061933Y-124239600D01*
X381109552Y-124287219D01*
X381204790Y-124430076D01*
X381252409Y-124620552D01*
X381252409Y-125001504D01*
X381204790Y-125096742D01*
X381157171Y-125144361D01*
X381061933Y-125191980D01*
X380871457Y-125191980D01*
X380776219Y-125144361D01*
X380728600Y-125096742D01*
X380680980Y-125001504D01*
X380680980Y-124763409D01*
X380728600Y-124668171D01*
X380776219Y-124620552D01*
X380871457Y-124572933D01*
X381061933Y-124572933D01*
X381157171Y-124620552D01*
X381204790Y-124668171D01*
X381252409Y-124763409D01*
X380204790Y-125144361D02*
X380204790Y-125191980D01*
X380252409Y-125287219D01*
X380300028Y-125334838D01*
X379347647Y-124525314D02*
X379347647Y-125191980D01*
X379585742Y-124144361D02*
X379823838Y-124858647D01*
X379204790Y-124858647D01*
%TO.C,K16\u002C5*%
X383157171Y-144495980D02*
X383157171Y-143495980D01*
X382585742Y-144495980D02*
X383014314Y-143924552D01*
X382585742Y-143495980D02*
X383157171Y-144067409D01*
X381633361Y-144495980D02*
X382204790Y-144495980D01*
X381919076Y-144495980D02*
X381919076Y-143495980D01*
X382014314Y-143638838D01*
X382109552Y-143734076D01*
X382204790Y-143781695D01*
X380776219Y-143495980D02*
X380966695Y-143495980D01*
X381061933Y-143543600D01*
X381109552Y-143591219D01*
X381204790Y-143734076D01*
X381252409Y-143924552D01*
X381252409Y-144305504D01*
X381204790Y-144400742D01*
X381157171Y-144448361D01*
X381061933Y-144495980D01*
X380871457Y-144495980D01*
X380776219Y-144448361D01*
X380728600Y-144400742D01*
X380680980Y-144305504D01*
X380680980Y-144067409D01*
X380728600Y-143972171D01*
X380776219Y-143924552D01*
X380871457Y-143876933D01*
X381061933Y-143876933D01*
X381157171Y-143924552D01*
X381204790Y-143972171D01*
X381252409Y-144067409D01*
X380204790Y-144448361D02*
X380204790Y-144495980D01*
X380252409Y-144591219D01*
X380300028Y-144638838D01*
X379300028Y-143495980D02*
X379776219Y-143495980D01*
X379823838Y-143972171D01*
X379776219Y-143924552D01*
X379680980Y-143876933D01*
X379442885Y-143876933D01*
X379347647Y-143924552D01*
X379300028Y-143972171D01*
X379252409Y-144067409D01*
X379252409Y-144305504D01*
X379300028Y-144400742D01*
X379347647Y-144448361D01*
X379442885Y-144495980D01*
X379680980Y-144495980D01*
X379776219Y-144448361D01*
X379823838Y-144400742D01*
%TO.C,K16\u002C3*%
X359281171Y-105760980D02*
X359281171Y-104760980D01*
X358709742Y-105760980D02*
X359138314Y-105189552D01*
X358709742Y-104760980D02*
X359281171Y-105332409D01*
X357757361Y-105760980D02*
X358328790Y-105760980D01*
X358043076Y-105760980D02*
X358043076Y-104760980D01*
X358138314Y-104903838D01*
X358233552Y-104999076D01*
X358328790Y-105046695D01*
X356900219Y-104760980D02*
X357090695Y-104760980D01*
X357185933Y-104808600D01*
X357233552Y-104856219D01*
X357328790Y-104999076D01*
X357376409Y-105189552D01*
X357376409Y-105570504D01*
X357328790Y-105665742D01*
X357281171Y-105713361D01*
X357185933Y-105760980D01*
X356995457Y-105760980D01*
X356900219Y-105713361D01*
X356852600Y-105665742D01*
X356804980Y-105570504D01*
X356804980Y-105332409D01*
X356852600Y-105237171D01*
X356900219Y-105189552D01*
X356995457Y-105141933D01*
X357185933Y-105141933D01*
X357281171Y-105189552D01*
X357328790Y-105237171D01*
X357376409Y-105332409D01*
X356328790Y-105713361D02*
X356328790Y-105760980D01*
X356376409Y-105856219D01*
X356424028Y-105903838D01*
X355995457Y-104760980D02*
X355376409Y-104760980D01*
X355709742Y-105141933D01*
X355566885Y-105141933D01*
X355471647Y-105189552D01*
X355424028Y-105237171D01*
X355376409Y-105332409D01*
X355376409Y-105570504D01*
X355424028Y-105665742D01*
X355471647Y-105713361D01*
X355566885Y-105760980D01*
X355852600Y-105760980D01*
X355947838Y-105713361D01*
X355995457Y-105665742D01*
%TO.C,K16\u002C0*%
X359585971Y-60739480D02*
X359585971Y-59739480D01*
X359014542Y-60739480D02*
X359443114Y-60168052D01*
X359014542Y-59739480D02*
X359585971Y-60310909D01*
X358062161Y-60739480D02*
X358633590Y-60739480D01*
X358347876Y-60739480D02*
X358347876Y-59739480D01*
X358443114Y-59882338D01*
X358538352Y-59977576D01*
X358633590Y-60025195D01*
X357205019Y-59739480D02*
X357395495Y-59739480D01*
X357490733Y-59787100D01*
X357538352Y-59834719D01*
X357633590Y-59977576D01*
X357681209Y-60168052D01*
X357681209Y-60549004D01*
X357633590Y-60644242D01*
X357585971Y-60691861D01*
X357490733Y-60739480D01*
X357300257Y-60739480D01*
X357205019Y-60691861D01*
X357157400Y-60644242D01*
X357109780Y-60549004D01*
X357109780Y-60310909D01*
X357157400Y-60215671D01*
X357205019Y-60168052D01*
X357300257Y-60120433D01*
X357490733Y-60120433D01*
X357585971Y-60168052D01*
X357633590Y-60215671D01*
X357681209Y-60310909D01*
X356633590Y-60691861D02*
X356633590Y-60739480D01*
X356681209Y-60834719D01*
X356728828Y-60882338D01*
X356014542Y-59739480D02*
X355919304Y-59739480D01*
X355824066Y-59787100D01*
X355776447Y-59834719D01*
X355728828Y-59929957D01*
X355681209Y-60120433D01*
X355681209Y-60358528D01*
X355728828Y-60549004D01*
X355776447Y-60644242D01*
X355824066Y-60691861D01*
X355919304Y-60739480D01*
X356014542Y-60739480D01*
X356109780Y-60691861D01*
X356157400Y-60644242D01*
X356205019Y-60549004D01*
X356252638Y-60358528D01*
X356252638Y-60120433D01*
X356205019Y-59929957D01*
X356157400Y-59834719D01*
X356109780Y-59787100D01*
X356014542Y-59739480D01*
%TO.C,K16\u002C6*%
X359217671Y-164307980D02*
X359217671Y-163307980D01*
X358646242Y-164307980D02*
X359074814Y-163736552D01*
X358646242Y-163307980D02*
X359217671Y-163879409D01*
X357693861Y-164307980D02*
X358265290Y-164307980D01*
X357979576Y-164307980D02*
X357979576Y-163307980D01*
X358074814Y-163450838D01*
X358170052Y-163546076D01*
X358265290Y-163593695D01*
X356836719Y-163307980D02*
X357027195Y-163307980D01*
X357122433Y-163355600D01*
X357170052Y-163403219D01*
X357265290Y-163546076D01*
X357312909Y-163736552D01*
X357312909Y-164117504D01*
X357265290Y-164212742D01*
X357217671Y-164260361D01*
X357122433Y-164307980D01*
X356931957Y-164307980D01*
X356836719Y-164260361D01*
X356789100Y-164212742D01*
X356741480Y-164117504D01*
X356741480Y-163879409D01*
X356789100Y-163784171D01*
X356836719Y-163736552D01*
X356931957Y-163688933D01*
X357122433Y-163688933D01*
X357217671Y-163736552D01*
X357265290Y-163784171D01*
X357312909Y-163879409D01*
X356265290Y-164260361D02*
X356265290Y-164307980D01*
X356312909Y-164403219D01*
X356360528Y-164450838D01*
X355408147Y-163307980D02*
X355598623Y-163307980D01*
X355693861Y-163355600D01*
X355741480Y-163403219D01*
X355836719Y-163546076D01*
X355884338Y-163736552D01*
X355884338Y-164117504D01*
X355836719Y-164212742D01*
X355789100Y-164260361D01*
X355693861Y-164307980D01*
X355503385Y-164307980D01*
X355408147Y-164260361D01*
X355360528Y-164212742D01*
X355312909Y-164117504D01*
X355312909Y-163879409D01*
X355360528Y-163784171D01*
X355408147Y-163736552D01*
X355503385Y-163688933D01*
X355693861Y-163688933D01*
X355789100Y-163736552D01*
X355836719Y-163784171D01*
X355884338Y-163879409D01*
%TO.C,K17\u002C6*%
X392682171Y-163799980D02*
X392682171Y-162799980D01*
X392110742Y-163799980D02*
X392539314Y-163228552D01*
X392110742Y-162799980D02*
X392682171Y-163371409D01*
X391158361Y-163799980D02*
X391729790Y-163799980D01*
X391444076Y-163799980D02*
X391444076Y-162799980D01*
X391539314Y-162942838D01*
X391634552Y-163038076D01*
X391729790Y-163085695D01*
X390825028Y-162799980D02*
X390158361Y-162799980D01*
X390586933Y-163799980D01*
X389729790Y-163752361D02*
X389729790Y-163799980D01*
X389777409Y-163895219D01*
X389825028Y-163942838D01*
X388872647Y-162799980D02*
X389063123Y-162799980D01*
X389158361Y-162847600D01*
X389205980Y-162895219D01*
X389301219Y-163038076D01*
X389348838Y-163228552D01*
X389348838Y-163609504D01*
X389301219Y-163704742D01*
X389253600Y-163752361D01*
X389158361Y-163799980D01*
X388967885Y-163799980D01*
X388872647Y-163752361D01*
X388825028Y-163704742D01*
X388777409Y-163609504D01*
X388777409Y-163371409D01*
X388825028Y-163276171D01*
X388872647Y-163228552D01*
X388967885Y-163180933D01*
X389158361Y-163180933D01*
X389253600Y-163228552D01*
X389301219Y-163276171D01*
X389348838Y-163371409D01*
%TO.C,K17\u002C5*%
X402461171Y-144495980D02*
X402461171Y-143495980D01*
X401889742Y-144495980D02*
X402318314Y-143924552D01*
X401889742Y-143495980D02*
X402461171Y-144067409D01*
X400937361Y-144495980D02*
X401508790Y-144495980D01*
X401223076Y-144495980D02*
X401223076Y-143495980D01*
X401318314Y-143638838D01*
X401413552Y-143734076D01*
X401508790Y-143781695D01*
X400604028Y-143495980D02*
X399937361Y-143495980D01*
X400365933Y-144495980D01*
X399508790Y-144448361D02*
X399508790Y-144495980D01*
X399556409Y-144591219D01*
X399604028Y-144638838D01*
X398604028Y-143495980D02*
X399080219Y-143495980D01*
X399127838Y-143972171D01*
X399080219Y-143924552D01*
X398984980Y-143876933D01*
X398746885Y-143876933D01*
X398651647Y-143924552D01*
X398604028Y-143972171D01*
X398556409Y-144067409D01*
X398556409Y-144305504D01*
X398604028Y-144400742D01*
X398651647Y-144448361D01*
X398746885Y-144495980D01*
X398984980Y-144495980D01*
X399080219Y-144448361D01*
X399127838Y-144400742D01*
%TO.C,K17\u002C4*%
X402461171Y-125191980D02*
X402461171Y-124191980D01*
X401889742Y-125191980D02*
X402318314Y-124620552D01*
X401889742Y-124191980D02*
X402461171Y-124763409D01*
X400937361Y-125191980D02*
X401508790Y-125191980D01*
X401223076Y-125191980D02*
X401223076Y-124191980D01*
X401318314Y-124334838D01*
X401413552Y-124430076D01*
X401508790Y-124477695D01*
X400604028Y-124191980D02*
X399937361Y-124191980D01*
X400365933Y-125191980D01*
X399508790Y-125144361D02*
X399508790Y-125191980D01*
X399556409Y-125287219D01*
X399604028Y-125334838D01*
X398651647Y-124525314D02*
X398651647Y-125191980D01*
X398889742Y-124144361D02*
X399127838Y-124858647D01*
X398508790Y-124858647D01*
%TO.C,K17\u002C3*%
X383157171Y-105887980D02*
X383157171Y-104887980D01*
X382585742Y-105887980D02*
X383014314Y-105316552D01*
X382585742Y-104887980D02*
X383157171Y-105459409D01*
X381633361Y-105887980D02*
X382204790Y-105887980D01*
X381919076Y-105887980D02*
X381919076Y-104887980D01*
X382014314Y-105030838D01*
X382109552Y-105126076D01*
X382204790Y-105173695D01*
X381300028Y-104887980D02*
X380633361Y-104887980D01*
X381061933Y-105887980D01*
X380204790Y-105840361D02*
X380204790Y-105887980D01*
X380252409Y-105983219D01*
X380300028Y-106030838D01*
X379871457Y-104887980D02*
X379252409Y-104887980D01*
X379585742Y-105268933D01*
X379442885Y-105268933D01*
X379347647Y-105316552D01*
X379300028Y-105364171D01*
X379252409Y-105459409D01*
X379252409Y-105697504D01*
X379300028Y-105792742D01*
X379347647Y-105840361D01*
X379442885Y-105887980D01*
X379728600Y-105887980D01*
X379823838Y-105840361D01*
X379871457Y-105792742D01*
%TO.C,K17\u002C1*%
X383157171Y-86520480D02*
X383157171Y-85520480D01*
X382585742Y-86520480D02*
X383014314Y-85949052D01*
X382585742Y-85520480D02*
X383157171Y-86091909D01*
X381633361Y-86520480D02*
X382204790Y-86520480D01*
X381919076Y-86520480D02*
X381919076Y-85520480D01*
X382014314Y-85663338D01*
X382109552Y-85758576D01*
X382204790Y-85806195D01*
X381300028Y-85520480D02*
X380633361Y-85520480D01*
X381061933Y-86520480D01*
X380204790Y-86472861D02*
X380204790Y-86520480D01*
X380252409Y-86615719D01*
X380300028Y-86663338D01*
X379252409Y-86520480D02*
X379823838Y-86520480D01*
X379538123Y-86520480D02*
X379538123Y-85520480D01*
X379633361Y-85663338D01*
X379728600Y-85758576D01*
X379823838Y-85806195D01*
%TO.C,K17\u002C0*%
X383093671Y-60739480D02*
X383093671Y-59739480D01*
X382522242Y-60739480D02*
X382950814Y-60168052D01*
X382522242Y-59739480D02*
X383093671Y-60310909D01*
X381569861Y-60739480D02*
X382141290Y-60739480D01*
X381855576Y-60739480D02*
X381855576Y-59739480D01*
X381950814Y-59882338D01*
X382046052Y-59977576D01*
X382141290Y-60025195D01*
X381236528Y-59739480D02*
X380569861Y-59739480D01*
X380998433Y-60739480D01*
X380141290Y-60691861D02*
X380141290Y-60739480D01*
X380188909Y-60834719D01*
X380236528Y-60882338D01*
X379522242Y-59739480D02*
X379427004Y-59739480D01*
X379331766Y-59787100D01*
X379284147Y-59834719D01*
X379236528Y-59929957D01*
X379188909Y-60120433D01*
X379188909Y-60358528D01*
X379236528Y-60549004D01*
X379284147Y-60644242D01*
X379331766Y-60691861D01*
X379427004Y-60739480D01*
X379522242Y-60739480D01*
X379617480Y-60691861D01*
X379665100Y-60644242D01*
X379712719Y-60549004D01*
X379760338Y-60358528D01*
X379760338Y-60120433D01*
X379712719Y-59929957D01*
X379665100Y-59834719D01*
X379617480Y-59787100D01*
X379522242Y-59739480D01*
%TO.C,K18\u002C6*%
X421765171Y-163799980D02*
X421765171Y-162799980D01*
X421193742Y-163799980D02*
X421622314Y-163228552D01*
X421193742Y-162799980D02*
X421765171Y-163371409D01*
X420241361Y-163799980D02*
X420812790Y-163799980D01*
X420527076Y-163799980D02*
X420527076Y-162799980D01*
X420622314Y-162942838D01*
X420717552Y-163038076D01*
X420812790Y-163085695D01*
X419669933Y-163228552D02*
X419765171Y-163180933D01*
X419812790Y-163133314D01*
X419860409Y-163038076D01*
X419860409Y-162990457D01*
X419812790Y-162895219D01*
X419765171Y-162847600D01*
X419669933Y-162799980D01*
X419479457Y-162799980D01*
X419384219Y-162847600D01*
X419336600Y-162895219D01*
X419288980Y-162990457D01*
X419288980Y-163038076D01*
X419336600Y-163133314D01*
X419384219Y-163180933D01*
X419479457Y-163228552D01*
X419669933Y-163228552D01*
X419765171Y-163276171D01*
X419812790Y-163323790D01*
X419860409Y-163419028D01*
X419860409Y-163609504D01*
X419812790Y-163704742D01*
X419765171Y-163752361D01*
X419669933Y-163799980D01*
X419479457Y-163799980D01*
X419384219Y-163752361D01*
X419336600Y-163704742D01*
X419288980Y-163609504D01*
X419288980Y-163419028D01*
X419336600Y-163323790D01*
X419384219Y-163276171D01*
X419479457Y-163228552D01*
X418812790Y-163752361D02*
X418812790Y-163799980D01*
X418860409Y-163895219D01*
X418908028Y-163942838D01*
X417955647Y-162799980D02*
X418146123Y-162799980D01*
X418241361Y-162847600D01*
X418288980Y-162895219D01*
X418384219Y-163038076D01*
X418431838Y-163228552D01*
X418431838Y-163609504D01*
X418384219Y-163704742D01*
X418336600Y-163752361D01*
X418241361Y-163799980D01*
X418050885Y-163799980D01*
X417955647Y-163752361D01*
X417908028Y-163704742D01*
X417860409Y-163609504D01*
X417860409Y-163371409D01*
X417908028Y-163276171D01*
X417955647Y-163228552D01*
X418050885Y-163180933D01*
X418241361Y-163180933D01*
X418336600Y-163228552D01*
X418384219Y-163276171D01*
X418431838Y-163371409D01*
%TO.C,K18\u002C3*%
X402461171Y-105887980D02*
X402461171Y-104887980D01*
X401889742Y-105887980D02*
X402318314Y-105316552D01*
X401889742Y-104887980D02*
X402461171Y-105459409D01*
X400937361Y-105887980D02*
X401508790Y-105887980D01*
X401223076Y-105887980D02*
X401223076Y-104887980D01*
X401318314Y-105030838D01*
X401413552Y-105126076D01*
X401508790Y-105173695D01*
X400365933Y-105316552D02*
X400461171Y-105268933D01*
X400508790Y-105221314D01*
X400556409Y-105126076D01*
X400556409Y-105078457D01*
X400508790Y-104983219D01*
X400461171Y-104935600D01*
X400365933Y-104887980D01*
X400175457Y-104887980D01*
X400080219Y-104935600D01*
X400032600Y-104983219D01*
X399984980Y-105078457D01*
X399984980Y-105126076D01*
X400032600Y-105221314D01*
X400080219Y-105268933D01*
X400175457Y-105316552D01*
X400365933Y-105316552D01*
X400461171Y-105364171D01*
X400508790Y-105411790D01*
X400556409Y-105507028D01*
X400556409Y-105697504D01*
X400508790Y-105792742D01*
X400461171Y-105840361D01*
X400365933Y-105887980D01*
X400175457Y-105887980D01*
X400080219Y-105840361D01*
X400032600Y-105792742D01*
X399984980Y-105697504D01*
X399984980Y-105507028D01*
X400032600Y-105411790D01*
X400080219Y-105364171D01*
X400175457Y-105316552D01*
X399508790Y-105840361D02*
X399508790Y-105887980D01*
X399556409Y-105983219D01*
X399604028Y-106030838D01*
X399175457Y-104887980D02*
X398556409Y-104887980D01*
X398889742Y-105268933D01*
X398746885Y-105268933D01*
X398651647Y-105316552D01*
X398604028Y-105364171D01*
X398556409Y-105459409D01*
X398556409Y-105697504D01*
X398604028Y-105792742D01*
X398651647Y-105840361D01*
X398746885Y-105887980D01*
X399032600Y-105887980D01*
X399127838Y-105840361D01*
X399175457Y-105792742D01*
%TO.C,K18\u002C1*%
X402461171Y-86520480D02*
X402461171Y-85520480D01*
X401889742Y-86520480D02*
X402318314Y-85949052D01*
X401889742Y-85520480D02*
X402461171Y-86091909D01*
X400937361Y-86520480D02*
X401508790Y-86520480D01*
X401223076Y-86520480D02*
X401223076Y-85520480D01*
X401318314Y-85663338D01*
X401413552Y-85758576D01*
X401508790Y-85806195D01*
X400365933Y-85949052D02*
X400461171Y-85901433D01*
X400508790Y-85853814D01*
X400556409Y-85758576D01*
X400556409Y-85710957D01*
X400508790Y-85615719D01*
X400461171Y-85568100D01*
X400365933Y-85520480D01*
X400175457Y-85520480D01*
X400080219Y-85568100D01*
X400032600Y-85615719D01*
X399984980Y-85710957D01*
X399984980Y-85758576D01*
X400032600Y-85853814D01*
X400080219Y-85901433D01*
X400175457Y-85949052D01*
X400365933Y-85949052D01*
X400461171Y-85996671D01*
X400508790Y-86044290D01*
X400556409Y-86139528D01*
X400556409Y-86330004D01*
X400508790Y-86425242D01*
X400461171Y-86472861D01*
X400365933Y-86520480D01*
X400175457Y-86520480D01*
X400080219Y-86472861D01*
X400032600Y-86425242D01*
X399984980Y-86330004D01*
X399984980Y-86139528D01*
X400032600Y-86044290D01*
X400080219Y-85996671D01*
X400175457Y-85949052D01*
X399508790Y-86472861D02*
X399508790Y-86520480D01*
X399556409Y-86615719D01*
X399604028Y-86663338D01*
X398556409Y-86520480D02*
X399127838Y-86520480D01*
X398842123Y-86520480D02*
X398842123Y-85520480D01*
X398937361Y-85663338D01*
X399032600Y-85758576D01*
X399127838Y-85806195D01*
%TO.C,K18\u002C5*%
X421765171Y-144495980D02*
X421765171Y-143495980D01*
X421193742Y-144495980D02*
X421622314Y-143924552D01*
X421193742Y-143495980D02*
X421765171Y-144067409D01*
X420241361Y-144495980D02*
X420812790Y-144495980D01*
X420527076Y-144495980D02*
X420527076Y-143495980D01*
X420622314Y-143638838D01*
X420717552Y-143734076D01*
X420812790Y-143781695D01*
X419669933Y-143924552D02*
X419765171Y-143876933D01*
X419812790Y-143829314D01*
X419860409Y-143734076D01*
X419860409Y-143686457D01*
X419812790Y-143591219D01*
X419765171Y-143543600D01*
X419669933Y-143495980D01*
X419479457Y-143495980D01*
X419384219Y-143543600D01*
X419336600Y-143591219D01*
X419288980Y-143686457D01*
X419288980Y-143734076D01*
X419336600Y-143829314D01*
X419384219Y-143876933D01*
X419479457Y-143924552D01*
X419669933Y-143924552D01*
X419765171Y-143972171D01*
X419812790Y-144019790D01*
X419860409Y-144115028D01*
X419860409Y-144305504D01*
X419812790Y-144400742D01*
X419765171Y-144448361D01*
X419669933Y-144495980D01*
X419479457Y-144495980D01*
X419384219Y-144448361D01*
X419336600Y-144400742D01*
X419288980Y-144305504D01*
X419288980Y-144115028D01*
X419336600Y-144019790D01*
X419384219Y-143972171D01*
X419479457Y-143924552D01*
X418812790Y-144448361D02*
X418812790Y-144495980D01*
X418860409Y-144591219D01*
X418908028Y-144638838D01*
X417908028Y-143495980D02*
X418384219Y-143495980D01*
X418431838Y-143972171D01*
X418384219Y-143924552D01*
X418288980Y-143876933D01*
X418050885Y-143876933D01*
X417955647Y-143924552D01*
X417908028Y-143972171D01*
X417860409Y-144067409D01*
X417860409Y-144305504D01*
X417908028Y-144400742D01*
X417955647Y-144448361D01*
X418050885Y-144495980D01*
X418288980Y-144495980D01*
X418384219Y-144448361D01*
X418431838Y-144400742D01*
%TO.C,K19\u002C0*%
X421701671Y-60739480D02*
X421701671Y-59739480D01*
X421130242Y-60739480D02*
X421558814Y-60168052D01*
X421130242Y-59739480D02*
X421701671Y-60310909D01*
X420177861Y-60739480D02*
X420749290Y-60739480D01*
X420463576Y-60739480D02*
X420463576Y-59739480D01*
X420558814Y-59882338D01*
X420654052Y-59977576D01*
X420749290Y-60025195D01*
X419701671Y-60739480D02*
X419511195Y-60739480D01*
X419415957Y-60691861D01*
X419368338Y-60644242D01*
X419273100Y-60501385D01*
X419225480Y-60310909D01*
X419225480Y-59929957D01*
X419273100Y-59834719D01*
X419320719Y-59787100D01*
X419415957Y-59739480D01*
X419606433Y-59739480D01*
X419701671Y-59787100D01*
X419749290Y-59834719D01*
X419796909Y-59929957D01*
X419796909Y-60168052D01*
X419749290Y-60263290D01*
X419701671Y-60310909D01*
X419606433Y-60358528D01*
X419415957Y-60358528D01*
X419320719Y-60310909D01*
X419273100Y-60263290D01*
X419225480Y-60168052D01*
X418749290Y-60691861D02*
X418749290Y-60739480D01*
X418796909Y-60834719D01*
X418844528Y-60882338D01*
X418130242Y-59739480D02*
X418035004Y-59739480D01*
X417939766Y-59787100D01*
X417892147Y-59834719D01*
X417844528Y-59929957D01*
X417796909Y-60120433D01*
X417796909Y-60358528D01*
X417844528Y-60549004D01*
X417892147Y-60644242D01*
X417939766Y-60691861D01*
X418035004Y-60739480D01*
X418130242Y-60739480D01*
X418225480Y-60691861D01*
X418273100Y-60644242D01*
X418320719Y-60549004D01*
X418368338Y-60358528D01*
X418368338Y-60120433D01*
X418320719Y-59929957D01*
X418273100Y-59834719D01*
X418225480Y-59787100D01*
X418130242Y-59739480D01*
%TO.C,K19\u002C3*%
X421765171Y-105887980D02*
X421765171Y-104887980D01*
X421193742Y-105887980D02*
X421622314Y-105316552D01*
X421193742Y-104887980D02*
X421765171Y-105459409D01*
X420241361Y-105887980D02*
X420812790Y-105887980D01*
X420527076Y-105887980D02*
X420527076Y-104887980D01*
X420622314Y-105030838D01*
X420717552Y-105126076D01*
X420812790Y-105173695D01*
X419765171Y-105887980D02*
X419574695Y-105887980D01*
X419479457Y-105840361D01*
X419431838Y-105792742D01*
X419336600Y-105649885D01*
X419288980Y-105459409D01*
X419288980Y-105078457D01*
X419336600Y-104983219D01*
X419384219Y-104935600D01*
X419479457Y-104887980D01*
X419669933Y-104887980D01*
X419765171Y-104935600D01*
X419812790Y-104983219D01*
X419860409Y-105078457D01*
X419860409Y-105316552D01*
X419812790Y-105411790D01*
X419765171Y-105459409D01*
X419669933Y-105507028D01*
X419479457Y-105507028D01*
X419384219Y-105459409D01*
X419336600Y-105411790D01*
X419288980Y-105316552D01*
X418812790Y-105840361D02*
X418812790Y-105887980D01*
X418860409Y-105983219D01*
X418908028Y-106030838D01*
X418479457Y-104887980D02*
X417860409Y-104887980D01*
X418193742Y-105268933D01*
X418050885Y-105268933D01*
X417955647Y-105316552D01*
X417908028Y-105364171D01*
X417860409Y-105459409D01*
X417860409Y-105697504D01*
X417908028Y-105792742D01*
X417955647Y-105840361D01*
X418050885Y-105887980D01*
X418336600Y-105887980D01*
X418431838Y-105840361D01*
X418479457Y-105792742D01*
%TO.C,K19\u002C1*%
X421765171Y-86520480D02*
X421765171Y-85520480D01*
X421193742Y-86520480D02*
X421622314Y-85949052D01*
X421193742Y-85520480D02*
X421765171Y-86091909D01*
X420241361Y-86520480D02*
X420812790Y-86520480D01*
X420527076Y-86520480D02*
X420527076Y-85520480D01*
X420622314Y-85663338D01*
X420717552Y-85758576D01*
X420812790Y-85806195D01*
X419765171Y-86520480D02*
X419574695Y-86520480D01*
X419479457Y-86472861D01*
X419431838Y-86425242D01*
X419336600Y-86282385D01*
X419288980Y-86091909D01*
X419288980Y-85710957D01*
X419336600Y-85615719D01*
X419384219Y-85568100D01*
X419479457Y-85520480D01*
X419669933Y-85520480D01*
X419765171Y-85568100D01*
X419812790Y-85615719D01*
X419860409Y-85710957D01*
X419860409Y-85949052D01*
X419812790Y-86044290D01*
X419765171Y-86091909D01*
X419669933Y-86139528D01*
X419479457Y-86139528D01*
X419384219Y-86091909D01*
X419336600Y-86044290D01*
X419288980Y-85949052D01*
X418812790Y-86472861D02*
X418812790Y-86520480D01*
X418860409Y-86615719D01*
X418908028Y-86663338D01*
X417860409Y-86520480D02*
X418431838Y-86520480D01*
X418146123Y-86520480D02*
X418146123Y-85520480D01*
X418241361Y-85663338D01*
X418336600Y-85758576D01*
X418431838Y-85806195D01*
%TO.C,K20\u002C0*%
X441005671Y-60739480D02*
X441005671Y-59739480D01*
X440434242Y-60739480D02*
X440862814Y-60168052D01*
X440434242Y-59739480D02*
X441005671Y-60310909D01*
X440053290Y-59834719D02*
X440005671Y-59787100D01*
X439910433Y-59739480D01*
X439672338Y-59739480D01*
X439577100Y-59787100D01*
X439529480Y-59834719D01*
X439481861Y-59929957D01*
X439481861Y-60025195D01*
X439529480Y-60168052D01*
X440100909Y-60739480D01*
X439481861Y-60739480D01*
X438862814Y-59739480D02*
X438767576Y-59739480D01*
X438672338Y-59787100D01*
X438624719Y-59834719D01*
X438577100Y-59929957D01*
X438529480Y-60120433D01*
X438529480Y-60358528D01*
X438577100Y-60549004D01*
X438624719Y-60644242D01*
X438672338Y-60691861D01*
X438767576Y-60739480D01*
X438862814Y-60739480D01*
X438958052Y-60691861D01*
X439005671Y-60644242D01*
X439053290Y-60549004D01*
X439100909Y-60358528D01*
X439100909Y-60120433D01*
X439053290Y-59929957D01*
X439005671Y-59834719D01*
X438958052Y-59787100D01*
X438862814Y-59739480D01*
X438053290Y-60691861D02*
X438053290Y-60739480D01*
X438100909Y-60834719D01*
X438148528Y-60882338D01*
X437434242Y-59739480D02*
X437339004Y-59739480D01*
X437243766Y-59787100D01*
X437196147Y-59834719D01*
X437148528Y-59929957D01*
X437100909Y-60120433D01*
X437100909Y-60358528D01*
X437148528Y-60549004D01*
X437196147Y-60644242D01*
X437243766Y-60691861D01*
X437339004Y-60739480D01*
X437434242Y-60739480D01*
X437529480Y-60691861D01*
X437577100Y-60644242D01*
X437624719Y-60549004D01*
X437672338Y-60358528D01*
X437672338Y-60120433D01*
X437624719Y-59929957D01*
X437577100Y-59834719D01*
X437529480Y-59787100D01*
X437434242Y-59739480D01*
%TO.C,K20\u002C1*%
X441069171Y-86520480D02*
X441069171Y-85520480D01*
X440497742Y-86520480D02*
X440926314Y-85949052D01*
X440497742Y-85520480D02*
X441069171Y-86091909D01*
X440116790Y-85615719D02*
X440069171Y-85568100D01*
X439973933Y-85520480D01*
X439735838Y-85520480D01*
X439640600Y-85568100D01*
X439592980Y-85615719D01*
X439545361Y-85710957D01*
X439545361Y-85806195D01*
X439592980Y-85949052D01*
X440164409Y-86520480D01*
X439545361Y-86520480D01*
X438926314Y-85520480D02*
X438831076Y-85520480D01*
X438735838Y-85568100D01*
X438688219Y-85615719D01*
X438640600Y-85710957D01*
X438592980Y-85901433D01*
X438592980Y-86139528D01*
X438640600Y-86330004D01*
X438688219Y-86425242D01*
X438735838Y-86472861D01*
X438831076Y-86520480D01*
X438926314Y-86520480D01*
X439021552Y-86472861D01*
X439069171Y-86425242D01*
X439116790Y-86330004D01*
X439164409Y-86139528D01*
X439164409Y-85901433D01*
X439116790Y-85710957D01*
X439069171Y-85615719D01*
X439021552Y-85568100D01*
X438926314Y-85520480D01*
X438116790Y-86472861D02*
X438116790Y-86520480D01*
X438164409Y-86615719D01*
X438212028Y-86663338D01*
X437164409Y-86520480D02*
X437735838Y-86520480D01*
X437450123Y-86520480D02*
X437450123Y-85520480D01*
X437545361Y-85663338D01*
X437640600Y-85758576D01*
X437735838Y-85806195D01*
%TO.C,K18\u002C0*%
X402397671Y-60726780D02*
X402397671Y-59726780D01*
X401826242Y-60726780D02*
X402254814Y-60155352D01*
X401826242Y-59726780D02*
X402397671Y-60298209D01*
X400873861Y-60726780D02*
X401445290Y-60726780D01*
X401159576Y-60726780D02*
X401159576Y-59726780D01*
X401254814Y-59869638D01*
X401350052Y-59964876D01*
X401445290Y-60012495D01*
X400302433Y-60155352D02*
X400397671Y-60107733D01*
X400445290Y-60060114D01*
X400492909Y-59964876D01*
X400492909Y-59917257D01*
X400445290Y-59822019D01*
X400397671Y-59774400D01*
X400302433Y-59726780D01*
X400111957Y-59726780D01*
X400016719Y-59774400D01*
X399969100Y-59822019D01*
X399921480Y-59917257D01*
X399921480Y-59964876D01*
X399969100Y-60060114D01*
X400016719Y-60107733D01*
X400111957Y-60155352D01*
X400302433Y-60155352D01*
X400397671Y-60202971D01*
X400445290Y-60250590D01*
X400492909Y-60345828D01*
X400492909Y-60536304D01*
X400445290Y-60631542D01*
X400397671Y-60679161D01*
X400302433Y-60726780D01*
X400111957Y-60726780D01*
X400016719Y-60679161D01*
X399969100Y-60631542D01*
X399921480Y-60536304D01*
X399921480Y-60345828D01*
X399969100Y-60250590D01*
X400016719Y-60202971D01*
X400111957Y-60155352D01*
X399445290Y-60679161D02*
X399445290Y-60726780D01*
X399492909Y-60822019D01*
X399540528Y-60869638D01*
X398826242Y-59726780D02*
X398731004Y-59726780D01*
X398635766Y-59774400D01*
X398588147Y-59822019D01*
X398540528Y-59917257D01*
X398492909Y-60107733D01*
X398492909Y-60345828D01*
X398540528Y-60536304D01*
X398588147Y-60631542D01*
X398635766Y-60679161D01*
X398731004Y-60726780D01*
X398826242Y-60726780D01*
X398921480Y-60679161D01*
X398969100Y-60631542D01*
X399016719Y-60536304D01*
X399064338Y-60345828D01*
X399064338Y-60107733D01*
X399016719Y-59917257D01*
X398969100Y-59822019D01*
X398921480Y-59774400D01*
X398826242Y-59726780D01*
%TD*%
M02*
