M48
; DRILL file {KiCad (5.1.10)-1} date 09/26/21 01:53:13
; FORMAT={-:-/ absolute / inch / decimal}
; #@! TF.CreationDate,2021-09-26T01:53:13+10:00
; #@! TF.GenerationSoftware,Kicad,Pcbnew,(5.1.10)-1
; #@! TF.FileFunction,NonPlated,1,4,NPTH
FMAT,2
INCH
T1C0.0689
T2C0.1181
T3C0.1575
%
G90
G05
T1
X0.8305Y-3.202
X0.833Y-2.1845
X0.9255Y-6.267
X1.0155Y-3.958
X1.1095Y-4.726
X1.2305Y-3.202
X1.233Y-2.1845
X1.2955Y-5.5045
X1.3255Y-6.267
X1.4155Y-3.958
X1.5095Y-4.726
X1.587Y-3.202
X1.6955Y-5.5045
X1.893Y-6.269
X1.958Y-3.959
X1.987Y-3.202
X2.1505Y-4.724
X2.293Y-6.269
X2.3424Y-2.1865
X2.343Y-3.2015
X2.358Y-3.959
X2.5205Y-5.504
X2.5505Y-4.724
X2.718Y-3.959
X2.7424Y-2.1865
X2.743Y-3.2015
X2.853Y-6.269
X2.9105Y-4.724
X2.9205Y-5.504
X3.083Y-3.2015
X3.1024Y-2.1865
X3.118Y-3.959
X3.253Y-6.269
X3.2805Y-5.504
X3.3105Y-4.724
X3.478Y-3.959
X3.483Y-3.2015
X3.5024Y-2.1865
X3.6705Y-4.724
X3.6805Y-5.504
X3.843Y-3.2015
X3.8624Y-2.1865
X3.878Y-3.959
X4.0405Y-5.504
X4.0705Y-4.724
X4.238Y-3.959
X4.243Y-3.2015
X4.2624Y-2.1865
X4.4305Y-4.724
X4.4405Y-5.504
X4.603Y-3.2015
X4.6224Y-2.1865
X4.638Y-3.959
X4.8005Y-5.504
X4.8305Y-4.724
X4.998Y-3.959
X5.003Y-3.2015
X5.0224Y-2.1865
X5.1905Y-4.724
X5.2005Y-5.504
X5.363Y-3.2015
X5.398Y-3.959
X5.5605Y-5.504
X5.5905Y-4.724
X5.683Y-6.269
X5.758Y-3.959
X5.763Y-3.2015
X5.8624Y-2.1865
X5.9505Y-4.724
X5.9605Y-5.504
X6.083Y-6.269
X6.123Y-3.2015
X6.158Y-3.959
X6.2624Y-2.1865
X6.3205Y-5.504
X6.3505Y-4.724
X6.518Y-3.959
X6.523Y-3.2015
X6.6224Y-2.1865
X6.7105Y-4.724
X6.7205Y-5.504
X6.883Y-3.2015
X6.918Y-3.959
X7.0224Y-2.1865
X7.0805Y-5.504
X7.1105Y-4.724
X7.278Y-3.959
X7.283Y-3.2015
X7.3824Y-2.1865
X7.4705Y-4.724
X7.4805Y-5.504
X7.643Y-3.2015
X7.678Y-3.959
X7.7824Y-2.1865
X7.8405Y-5.504
X7.8705Y-4.724
X8.038Y-3.959
X8.043Y-3.2015
X8.1424Y-2.1865
X8.2305Y-4.724
X8.2405Y-5.504
X8.403Y-3.2015
X8.438Y-3.959
X8.507Y-6.269
X8.5424Y-2.1865
X8.6005Y-5.504
X8.6305Y-4.724
X8.798Y-3.959
X8.803Y-3.2015
X8.907Y-6.269
X8.9905Y-4.724
X9.0005Y-5.504
X9.163Y-3.2015
X9.1824Y-2.1865
X9.198Y-3.959
X9.3605Y-5.504
X9.3905Y-4.724
X9.458Y-6.269
X9.558Y-3.959
X9.563Y-3.2015
X9.5824Y-2.1865
X9.7505Y-4.724
X9.7605Y-5.504
X9.858Y-6.269
X9.923Y-3.2015
X9.9424Y-2.1865
X9.958Y-3.959
X10.1505Y-4.724
X10.318Y-3.959
X10.323Y-3.2015
X10.3424Y-2.1865
X10.4105Y-6.269
X10.7024Y-2.1865
X10.718Y-3.959
X10.793Y-5.502
X10.8105Y-6.269
X10.983Y-4.7245
X11.0555Y-3.1995
X11.1024Y-2.1865
X11.193Y-5.502
X11.2605Y-3.9595
X11.358Y-6.269
X11.383Y-4.7245
X11.4555Y-3.1995
X11.4624Y-2.1865
X11.6605Y-3.9595
X11.758Y-6.269
X11.8624Y-2.1865
X12.3465Y-6.264
X12.349Y-3.2015
X12.349Y-3.959
X12.351Y-2.1865
X12.7465Y-6.264
X12.749Y-3.2015
X12.749Y-3.959
X12.751Y-2.1865
X13.1065Y-5.504
X13.1065Y-6.264
X13.109Y-3.2015
X13.109Y-3.959
X13.121Y-2.1865
X13.5065Y-5.504
X13.5065Y-6.264
X13.509Y-3.2015
X13.509Y-3.959
X13.521Y-2.1865
X13.8665Y-6.264
X13.869Y-3.2015
X13.869Y-3.959
X13.881Y-2.1865
X14.2665Y-6.264
X14.269Y-3.2015
X14.269Y-3.959
X14.281Y-2.1865
X14.8065Y-2.1865
X14.809Y-3.2015
X14.809Y-3.964
X14.809Y-4.724
X14.809Y-5.484
X15.184Y-6.244
X15.2065Y-2.1865
X15.209Y-3.2015
X15.209Y-3.964
X15.209Y-4.724
X15.209Y-5.484
X15.5665Y-2.186
X15.569Y-3.2015
X15.569Y-3.964
X15.569Y-4.724
X15.569Y-5.484
X15.584Y-6.244
X15.9665Y-2.186
X15.969Y-3.2015
X15.969Y-3.964
X15.969Y-4.724
X15.969Y-5.484
X16.3265Y-2.1865
X16.329Y-3.2015
X16.329Y-3.964
X16.329Y-4.7215
X16.329Y-5.484
X16.329Y-6.244
X16.7265Y-2.1865
X16.729Y-3.2015
X16.729Y-3.964
X16.729Y-4.7215
X16.729Y-5.484
X16.729Y-6.244
X17.0865Y-2.1865
X17.089Y-3.2015
X17.089Y-4.339
X17.089Y-5.864
X17.4865Y-2.1865
X17.489Y-3.2015
X17.489Y-4.339
X17.489Y-5.864
T2
X0.9305Y-3.402
X0.933Y-2.3845
X1.0255Y-6.467
X1.1155Y-4.158
X1.1805Y-3.302
X1.183Y-2.2845
X1.2095Y-4.926
X1.2755Y-6.367
X1.3655Y-4.058
X1.3955Y-5.7045
X1.4595Y-4.826
X1.6455Y-5.6045
X1.687Y-3.402
X1.937Y-3.302
X1.993Y-6.469
X2.058Y-4.159
X2.243Y-6.369
X2.2505Y-4.924
X2.308Y-4.059
X2.4424Y-2.3865
X2.443Y-3.4015
X2.5005Y-4.824
X2.6205Y-5.704
X2.6924Y-2.2865
X2.693Y-3.3015
X2.818Y-4.159
X2.8705Y-5.604
X2.953Y-6.469
X3.0105Y-4.924
X3.068Y-4.059
X3.183Y-3.4015
X3.2024Y-2.3865
X3.203Y-6.369
X3.2605Y-4.824
X3.3805Y-5.704
X3.433Y-3.3015
X3.4524Y-2.2865
X3.578Y-4.159
X3.6305Y-5.604
X3.7705Y-4.924
X3.828Y-4.059
X3.943Y-3.4015
X3.9624Y-2.3865
X4.0205Y-4.824
X4.1405Y-5.704
X4.193Y-3.3015
X4.2124Y-2.2865
X4.338Y-4.159
X4.3905Y-5.604
X4.5305Y-4.924
X4.588Y-4.059
X4.703Y-3.4015
X4.7224Y-2.3865
X4.7805Y-4.824
X4.9005Y-5.704
X4.953Y-3.3015
X4.9724Y-2.2865
X5.098Y-4.159
X5.1505Y-5.604
X5.2905Y-4.924
X5.348Y-4.059
X5.463Y-3.4015
X5.5405Y-4.824
X5.6605Y-5.704
X5.713Y-3.3015
X5.783Y-6.469
X5.858Y-4.159
X5.9105Y-5.604
X5.9624Y-2.3865
X6.033Y-6.369
X6.0505Y-4.924
X6.108Y-4.059
X6.2124Y-2.2865
X6.223Y-3.4015
X6.3005Y-4.824
X6.4205Y-5.704
X6.473Y-3.3015
X6.618Y-4.159
X6.6705Y-5.604
X6.7224Y-2.3865
X6.8105Y-4.924
X6.868Y-4.059
X6.9724Y-2.2865
X6.983Y-3.4015
X7.0605Y-4.824
X7.1805Y-5.704
X7.233Y-3.3015
X7.378Y-4.159
X7.4305Y-5.604
X7.4824Y-2.3865
X7.5705Y-4.924
X7.628Y-4.059
X7.7324Y-2.2865
X7.743Y-3.4015
X7.8205Y-4.824
X7.9405Y-5.704
X7.993Y-3.3015
X8.138Y-4.159
X8.1905Y-5.604
X8.2424Y-2.3865
X8.3305Y-4.924
X8.388Y-4.059
X8.4924Y-2.2865
X8.503Y-3.4015
X8.5805Y-4.824
X8.607Y-6.469
X8.7005Y-5.704
X8.753Y-3.3015
X8.857Y-6.369
X8.898Y-4.159
X8.9505Y-5.604
X9.0905Y-4.924
X9.148Y-4.059
X9.263Y-3.4015
X9.2824Y-2.3865
X9.3405Y-4.824
X9.4605Y-5.704
X9.513Y-3.3015
X9.5324Y-2.2865
X9.558Y-6.469
X9.658Y-4.159
X9.7105Y-5.604
X9.808Y-6.369
X9.8505Y-4.924
X9.908Y-4.059
X10.023Y-3.4015
X10.0424Y-2.3865
X10.1005Y-4.824
X10.273Y-3.3015
X10.2924Y-2.2865
X10.418Y-4.159
X10.5105Y-6.469
X10.668Y-4.059
X10.7605Y-6.369
X10.8024Y-2.3865
X10.893Y-5.702
X11.0524Y-2.2865
X11.083Y-4.9245
X11.143Y-5.602
X11.1555Y-3.3995
X11.333Y-4.8245
X11.3605Y-4.1595
X11.4055Y-3.2995
X11.458Y-6.469
X11.5624Y-2.3865
X11.6105Y-4.0595
X11.708Y-6.369
X11.8124Y-2.2865
X12.4465Y-6.464
X12.449Y-3.4015
X12.449Y-4.159
X12.451Y-2.3865
X12.6965Y-6.364
X12.699Y-3.3015
X12.699Y-4.059
X12.701Y-2.2865
X13.2065Y-5.704
X13.2065Y-6.464
X13.209Y-3.4015
X13.209Y-4.159
X13.221Y-2.3865
X13.4565Y-5.604
X13.4565Y-6.364
X13.459Y-3.3015
X13.459Y-4.059
X13.471Y-2.2865
X13.9665Y-6.464
X13.969Y-3.4015
X13.969Y-4.159
X13.981Y-2.3865
X14.2165Y-6.364
X14.219Y-3.3015
X14.219Y-4.059
X14.231Y-2.2865
X14.9065Y-2.3865
X14.909Y-3.4015
X14.909Y-4.164
X14.909Y-4.924
X14.909Y-5.684
X15.1565Y-2.2865
X15.159Y-3.3015
X15.159Y-4.064
X15.159Y-4.824
X15.159Y-5.584
X15.284Y-6.444
X15.534Y-6.344
X15.6665Y-2.386
X15.669Y-3.4015
X15.669Y-4.164
X15.669Y-4.924
X15.669Y-5.684
X15.9165Y-2.286
X15.919Y-3.3015
X15.919Y-4.064
X15.919Y-4.824
X15.919Y-5.584
X16.4265Y-2.3865
X16.429Y-3.4015
X16.429Y-4.164
X16.429Y-4.9215
X16.429Y-5.684
X16.429Y-6.444
X16.6765Y-2.2865
X16.679Y-3.3015
X16.679Y-4.064
X16.679Y-4.8215
X16.679Y-5.584
X16.679Y-6.344
X17.1865Y-2.3865
X17.189Y-3.4015
X17.189Y-4.539
X17.189Y-6.064
X17.4365Y-2.2865
X17.439Y-3.3015
X17.439Y-4.439
X17.439Y-5.964
T3
X1.0305Y-3.202
X1.033Y-2.1845
X1.1255Y-6.267
X1.2155Y-3.958
X1.3095Y-4.726
X1.4955Y-5.5045
X1.787Y-3.202
X2.093Y-6.269
X2.158Y-3.959
X2.3505Y-4.724
X2.5424Y-2.1865
X2.543Y-3.2015
X2.7205Y-5.504
X2.918Y-3.959
X3.053Y-6.269
X3.1105Y-4.724
X3.283Y-3.2015
X3.3024Y-2.1865
X3.4805Y-5.504
X3.678Y-3.959
X3.8705Y-4.724
X4.043Y-3.2015
X4.0624Y-2.1865
X4.2405Y-5.504
X4.438Y-3.959
X4.6305Y-4.724
X4.803Y-3.2015
X4.8224Y-2.1865
X5.0005Y-5.504
X5.198Y-3.959
X5.3905Y-4.724
X5.563Y-3.2015
X5.7605Y-5.504
X5.883Y-6.269
X5.958Y-3.959
X6.0624Y-2.1865
X6.1505Y-4.724
X6.323Y-3.2015
X6.5205Y-5.504
X6.718Y-3.959
X6.8224Y-2.1865
X6.9105Y-4.724
X7.083Y-3.2015
X7.2805Y-5.504
X7.478Y-3.959
X7.5824Y-2.1865
X7.6705Y-4.724
X7.843Y-3.2015
X8.0405Y-5.504
X8.238Y-3.959
X8.3424Y-2.1865
X8.4305Y-4.724
X8.603Y-3.2015
X8.707Y-6.269
X8.8005Y-5.504
X8.998Y-3.959
X9.1905Y-4.724
X9.363Y-3.2015
X9.3824Y-2.1865
X9.5605Y-5.504
X9.658Y-6.269
X9.758Y-3.959
X9.9505Y-4.724
X10.123Y-3.2015
X10.1424Y-2.1865
X10.518Y-3.959
X10.6105Y-6.269
X10.9024Y-2.1865
X10.993Y-5.502
X11.183Y-4.7245
X11.2555Y-3.1995
X11.4605Y-3.9595
X11.558Y-6.269
X11.6624Y-2.1865
X12.5465Y-6.264
X12.549Y-3.2015
X12.549Y-3.959
X12.551Y-2.1865
X13.3065Y-5.504
X13.3065Y-6.264
X13.309Y-3.2015
X13.309Y-3.959
X13.321Y-2.1865
X14.0665Y-6.264
X14.069Y-3.2015
X14.069Y-3.959
X14.081Y-2.1865
X15.0065Y-2.1865
X15.009Y-3.2015
X15.009Y-3.964
X15.009Y-4.724
X15.009Y-5.484
X15.384Y-6.244
X15.7665Y-2.186
X15.769Y-3.2015
X15.769Y-3.964
X15.769Y-4.724
X15.769Y-5.484
X16.5265Y-2.1865
X16.529Y-3.2015
X16.529Y-3.964
X16.529Y-4.7215
X16.529Y-5.484
X16.529Y-6.244
X17.2865Y-2.1865
X17.289Y-3.2015
X17.289Y-4.339
X17.289Y-5.864
T0
M30
