%TF.GenerationSoftware,KiCad,Pcbnew,(5.1.9)-1*%
%TF.CreationDate,2021-07-27T18:32:46+10:00*%
%TF.ProjectId,RedPyKeeb_mainboard,52656450-794b-4656-9562-5f6d61696e62,rev?*%
%TF.SameCoordinates,Original*%
%TF.FileFunction,Soldermask,Top*%
%TF.FilePolarity,Negative*%
%FSLAX46Y46*%
G04 Gerber Fmt 4.6, Leading zero omitted, Abs format (unit mm)*
G04 Created by KiCad (PCBNEW (5.1.9)-1) date 2021-07-27 18:32:46*
%MOMM*%
%LPD*%
G01*
G04 APERTURE LIST*
%ADD10C,0.800000*%
%ADD11R,0.500000X2.180000*%
%ADD12R,0.500000X1.000000*%
%ADD13R,0.800000X0.500000*%
%ADD14R,0.800000X0.300000*%
%ADD15C,1.750000*%
%ADD16C,4.000000*%
%ADD17C,3.000000*%
%ADD18C,1.600000*%
%ADD19R,1.600000X1.600000*%
%ADD20R,1.000000X3.150000*%
G04 APERTURE END LIST*
D10*
%TO.C,LD0\u002C0*%
X27381200Y-49657000D03*
X26238200Y-46482000D03*
D11*
X26238200Y-47524000D03*
D12*
X26238200Y-49344000D03*
D13*
X25388200Y-49414000D03*
X25388200Y-47614000D03*
D14*
X25388200Y-48514000D03*
D13*
X27088200Y-47614000D03*
D14*
X27088200Y-48514000D03*
D13*
X27088200Y-49414000D03*
%TD*%
D10*
%TO.C,LD3\u002C5\u002C1*%
X180098700Y-153492200D03*
X178955700Y-150317200D03*
D11*
X178955700Y-151359200D03*
D12*
X178955700Y-153179200D03*
D13*
X178105700Y-153249200D03*
X178105700Y-151449200D03*
D14*
X178105700Y-152349200D03*
D13*
X179805700Y-151449200D03*
D14*
X179805700Y-152349200D03*
D13*
X179805700Y-153249200D03*
%TD*%
D10*
%TO.C,LD3\u002C5\u002C0*%
X116001800Y-153504900D03*
X114858800Y-150329900D03*
D11*
X114858800Y-151371900D03*
D12*
X114858800Y-153191900D03*
D13*
X114008800Y-153261900D03*
X114008800Y-151461900D03*
D14*
X114008800Y-152361900D03*
D13*
X115708800Y-151461900D03*
D14*
X115708800Y-152361900D03*
D13*
X115708800Y-153261900D03*
%TD*%
D10*
%TO.C,LD20\u002C7*%
X440474100Y-68618100D03*
X439331100Y-65443100D03*
D11*
X439331100Y-66485100D03*
D12*
X439331100Y-68305100D03*
D13*
X438481100Y-68375100D03*
X438481100Y-66575100D03*
D14*
X438481100Y-67475100D03*
D13*
X440181100Y-66575100D03*
D14*
X440181100Y-67475100D03*
D13*
X440181100Y-68375100D03*
%TD*%
D10*
%TO.C,LD20\u002C0*%
X440220100Y-49707800D03*
X439077100Y-46532800D03*
D11*
X439077100Y-47574800D03*
D12*
X439077100Y-49394800D03*
D13*
X438227100Y-49464800D03*
X438227100Y-47664800D03*
D14*
X438227100Y-48564800D03*
D13*
X439927100Y-47664800D03*
D14*
X439927100Y-48564800D03*
D13*
X439927100Y-49464800D03*
%TD*%
D10*
%TO.C,LD20\u002C1*%
X440283600Y-75603100D03*
X439140600Y-72428100D03*
D11*
X439140600Y-73470100D03*
D12*
X439140600Y-75290100D03*
D13*
X438290600Y-75360100D03*
X438290600Y-73560100D03*
D14*
X438290600Y-74460100D03*
D13*
X439990600Y-73560100D03*
D14*
X439990600Y-74460100D03*
D13*
X439990600Y-75360100D03*
%TD*%
D10*
%TO.C,LD19\u002C6*%
X440537600Y-145262600D03*
X439394600Y-142087600D03*
D11*
X439394600Y-143129600D03*
D12*
X439394600Y-144949600D03*
D13*
X438544600Y-145019600D03*
X438544600Y-143219600D03*
D14*
X438544600Y-144119600D03*
D13*
X440244600Y-143219600D03*
D14*
X440244600Y-144119600D03*
D13*
X440244600Y-145019600D03*
%TD*%
D10*
%TO.C,LD19\u002C3*%
X420979600Y-94869000D03*
X419836600Y-91694000D03*
D11*
X419836600Y-92736000D03*
D12*
X419836600Y-94556000D03*
D13*
X418986600Y-94626000D03*
X418986600Y-92826000D03*
D14*
X418986600Y-93726000D03*
D13*
X420686600Y-92826000D03*
D14*
X420686600Y-93726000D03*
D13*
X420686600Y-94626000D03*
%TD*%
D10*
%TO.C,LD19\u002C4*%
X440283600Y-104749600D03*
X439140600Y-101574600D03*
D11*
X439140600Y-102616600D03*
D12*
X439140600Y-104436600D03*
D13*
X438290600Y-104506600D03*
X438290600Y-102706600D03*
D14*
X438290600Y-103606600D03*
D13*
X439990600Y-102706600D03*
D14*
X439990600Y-103606600D03*
D13*
X439990600Y-104506600D03*
%TD*%
D10*
%TO.C,LD19\u002C1*%
X420979600Y-75615800D03*
X419836600Y-72440800D03*
D11*
X419836600Y-73482800D03*
D12*
X419836600Y-75302800D03*
D13*
X418986600Y-75372800D03*
X418986600Y-73572800D03*
D14*
X418986600Y-74472800D03*
D13*
X420686600Y-73572800D03*
D14*
X420686600Y-74472800D03*
D13*
X420686600Y-75372800D03*
%TD*%
D10*
%TO.C,LD19\u002C0*%
X420903400Y-49707800D03*
X419760400Y-46532800D03*
D11*
X419760400Y-47574800D03*
D12*
X419760400Y-49394800D03*
D13*
X418910400Y-49464800D03*
X418910400Y-47664800D03*
D14*
X418910400Y-48564800D03*
D13*
X420610400Y-47664800D03*
D14*
X420610400Y-48564800D03*
D13*
X420610400Y-49464800D03*
%TD*%
D10*
%TO.C,LD19\u002C7*%
X421170100Y-68567300D03*
X420027100Y-65392300D03*
D11*
X420027100Y-66434300D03*
D12*
X420027100Y-68254300D03*
D13*
X419177100Y-68324300D03*
X419177100Y-66524300D03*
D14*
X419177100Y-67424300D03*
D13*
X420877100Y-66524300D03*
D14*
X420877100Y-67424300D03*
D13*
X420877100Y-68324300D03*
%TD*%
D10*
%TO.C,LD18\u002C0*%
X401599400Y-49707800D03*
X400456400Y-46532800D03*
D11*
X400456400Y-47574800D03*
D12*
X400456400Y-49394800D03*
D13*
X399606400Y-49464800D03*
X399606400Y-47664800D03*
D14*
X399606400Y-48564800D03*
D13*
X401306400Y-47664800D03*
D14*
X401306400Y-48564800D03*
D13*
X401306400Y-49464800D03*
%TD*%
D10*
%TO.C,LD18\u002C3*%
X401675600Y-94869000D03*
X400532600Y-91694000D03*
D11*
X400532600Y-92736000D03*
D12*
X400532600Y-94556000D03*
D13*
X399682600Y-94626000D03*
X399682600Y-92826000D03*
D14*
X399682600Y-93726000D03*
D13*
X401382600Y-92826000D03*
D14*
X401382600Y-93726000D03*
D13*
X401382600Y-94626000D03*
%TD*%
D10*
%TO.C,LD18\u002C4*%
X420979600Y-114211100D03*
X419836600Y-111036100D03*
D11*
X419836600Y-112078100D03*
D12*
X419836600Y-113898100D03*
D13*
X418986600Y-113968100D03*
X418986600Y-112168100D03*
D14*
X418986600Y-113068100D03*
D13*
X420686600Y-112168100D03*
D14*
X420686600Y-113068100D03*
D13*
X420686600Y-113968100D03*
%TD*%
D10*
%TO.C,LD18\u002C5*%
X420979600Y-133578600D03*
X419836600Y-130403600D03*
D11*
X419836600Y-131445600D03*
D12*
X419836600Y-133265600D03*
D13*
X418986600Y-133335600D03*
X418986600Y-131535600D03*
D14*
X418986600Y-132435600D03*
D13*
X420686600Y-131535600D03*
D14*
X420686600Y-132435600D03*
D13*
X420686600Y-133335600D03*
%TD*%
D10*
%TO.C,LD18\u002C7*%
X401866100Y-68567300D03*
X400723100Y-65392300D03*
D11*
X400723100Y-66434300D03*
D12*
X400723100Y-68254300D03*
D13*
X399873100Y-68324300D03*
X399873100Y-66524300D03*
D14*
X399873100Y-67424300D03*
D13*
X401573100Y-66524300D03*
D14*
X401573100Y-67424300D03*
D13*
X401573100Y-68324300D03*
%TD*%
D10*
%TO.C,LD18\u002C1*%
X401675600Y-75603100D03*
X400532600Y-72428100D03*
D11*
X400532600Y-73470100D03*
D12*
X400532600Y-75290100D03*
D13*
X399682600Y-75360100D03*
X399682600Y-73560100D03*
D14*
X399682600Y-74460100D03*
D13*
X401382600Y-73560100D03*
D14*
X401382600Y-74460100D03*
D13*
X401382600Y-75360100D03*
%TD*%
D10*
%TO.C,LD18\u002C6*%
X420979600Y-152882600D03*
X419836600Y-149707600D03*
D11*
X419836600Y-150749600D03*
D12*
X419836600Y-152569600D03*
D13*
X418986600Y-152639600D03*
X418986600Y-150839600D03*
D14*
X418986600Y-151739600D03*
D13*
X420686600Y-150839600D03*
D14*
X420686600Y-151739600D03*
D13*
X420686600Y-152639600D03*
%TD*%
D10*
%TO.C,LD17\u002C4*%
X401675600Y-114274600D03*
X400532600Y-111099600D03*
D11*
X400532600Y-112141600D03*
D12*
X400532600Y-113961600D03*
D13*
X399682600Y-114031600D03*
X399682600Y-112231600D03*
D14*
X399682600Y-113131600D03*
D13*
X401382600Y-112231600D03*
D14*
X401382600Y-113131600D03*
D13*
X401382600Y-114031600D03*
%TD*%
D10*
%TO.C,LD17\u002C3*%
X382371600Y-94869000D03*
X381228600Y-91694000D03*
D11*
X381228600Y-92736000D03*
D12*
X381228600Y-94556000D03*
D13*
X380378600Y-94626000D03*
X380378600Y-92826000D03*
D14*
X380378600Y-93726000D03*
D13*
X382078600Y-92826000D03*
D14*
X382078600Y-93726000D03*
D13*
X382078600Y-94626000D03*
%TD*%
D10*
%TO.C,LD17\u002C6*%
X392150600Y-152882600D03*
X391007600Y-149707600D03*
D11*
X391007600Y-150749600D03*
D12*
X391007600Y-152569600D03*
D13*
X390157600Y-152639600D03*
X390157600Y-150839600D03*
D14*
X390157600Y-151739600D03*
D13*
X391857600Y-150839600D03*
D14*
X391857600Y-151739600D03*
D13*
X391857600Y-152639600D03*
%TD*%
D10*
%TO.C,LD17\u002C5*%
X401675600Y-133578600D03*
X400532600Y-130403600D03*
D11*
X400532600Y-131445600D03*
D12*
X400532600Y-133265600D03*
D13*
X399682600Y-133335600D03*
X399682600Y-131535600D03*
D14*
X399682600Y-132435600D03*
D13*
X401382600Y-131535600D03*
D14*
X401382600Y-132435600D03*
D13*
X401382600Y-133335600D03*
%TD*%
D10*
%TO.C,LD17\u002C1*%
X382371600Y-75603100D03*
X381228600Y-72428100D03*
D11*
X381228600Y-73470100D03*
D12*
X381228600Y-75290100D03*
D13*
X380378600Y-75360100D03*
X380378600Y-73560100D03*
D14*
X380378600Y-74460100D03*
D13*
X382078600Y-73560100D03*
D14*
X382078600Y-74460100D03*
D13*
X382078600Y-75360100D03*
%TD*%
D10*
%TO.C,LD17\u002C0*%
X382295400Y-49707800D03*
X381152400Y-46532800D03*
D11*
X381152400Y-47574800D03*
D12*
X381152400Y-49394800D03*
D13*
X380302400Y-49464800D03*
X380302400Y-47664800D03*
D14*
X380302400Y-48564800D03*
D13*
X382002400Y-47664800D03*
D14*
X382002400Y-48564800D03*
D13*
X382002400Y-49464800D03*
%TD*%
D10*
%TO.C,LD17\u002C7*%
X382244600Y-68618100D03*
X381101600Y-65443100D03*
D11*
X381101600Y-66485100D03*
D12*
X381101600Y-68305100D03*
D13*
X380251600Y-68375100D03*
X380251600Y-66575100D03*
D14*
X380251600Y-67475100D03*
D13*
X381951600Y-66575100D03*
D14*
X381951600Y-67475100D03*
D13*
X381951600Y-68375100D03*
%TD*%
D10*
%TO.C,LD16\u002C5*%
X382625600Y-133578600D03*
X381482600Y-130403600D03*
D11*
X381482600Y-131445600D03*
D12*
X381482600Y-133265600D03*
D13*
X380632600Y-133335600D03*
X380632600Y-131535600D03*
D14*
X380632600Y-132435600D03*
D13*
X382332600Y-131535600D03*
D14*
X382332600Y-132435600D03*
D13*
X382332600Y-133335600D03*
%TD*%
D10*
%TO.C,LD16\u002C3*%
X358495600Y-94843600D03*
X357352600Y-91668600D03*
D11*
X357352600Y-92710600D03*
D12*
X357352600Y-94530600D03*
D13*
X356502600Y-94600600D03*
X356502600Y-92800600D03*
D14*
X356502600Y-93700600D03*
D13*
X358202600Y-92800600D03*
D14*
X358202600Y-93700600D03*
D13*
X358202600Y-94600600D03*
%TD*%
D10*
%TO.C,LD16\u002C1*%
X358573800Y-75628500D03*
X357430800Y-72453500D03*
D11*
X357430800Y-73495500D03*
D12*
X357430800Y-75315500D03*
D13*
X356580800Y-75385500D03*
X356580800Y-73585500D03*
D14*
X356580800Y-74485500D03*
D13*
X358280800Y-73585500D03*
D14*
X358280800Y-74485500D03*
D13*
X358280800Y-75385500D03*
%TD*%
D10*
%TO.C,LD16\u002C6*%
X358432100Y-153390600D03*
X357289100Y-150215600D03*
D11*
X357289100Y-151257600D03*
D12*
X357289100Y-153077600D03*
D13*
X356439100Y-153147600D03*
X356439100Y-151347600D03*
D14*
X356439100Y-152247600D03*
D13*
X358139100Y-151347600D03*
D14*
X358139100Y-152247600D03*
D13*
X358139100Y-153147600D03*
%TD*%
D10*
%TO.C,LD16\u002C0*%
X358990900Y-49695100D03*
X357847900Y-46520100D03*
D11*
X357847900Y-47562100D03*
D12*
X357847900Y-49382100D03*
D13*
X356997900Y-49452100D03*
X356997900Y-47652100D03*
D14*
X356997900Y-48552100D03*
D13*
X358697900Y-47652100D03*
D14*
X358697900Y-48552100D03*
D13*
X358697900Y-49452100D03*
%TD*%
D10*
%TO.C,LD16\u002C4*%
X382371600Y-114274600D03*
X381228600Y-111099600D03*
D11*
X381228600Y-112141600D03*
D12*
X381228600Y-113961600D03*
D13*
X380378600Y-114031600D03*
X380378600Y-112231600D03*
D14*
X380378600Y-113131600D03*
D13*
X382078600Y-112231600D03*
D14*
X382078600Y-113131600D03*
D13*
X382078600Y-114031600D03*
%TD*%
D10*
%TO.C,LD15\u002C0*%
X339686900Y-49695100D03*
X338543900Y-46520100D03*
D11*
X338543900Y-47562100D03*
D12*
X338543900Y-49382100D03*
D13*
X337693900Y-49452100D03*
X337693900Y-47652100D03*
D14*
X337693900Y-48552100D03*
D13*
X339393900Y-47652100D03*
D14*
X339393900Y-48552100D03*
D13*
X339393900Y-49452100D03*
%TD*%
D10*
%TO.C,LD15\u002C5*%
X339128100Y-134035800D03*
X337985100Y-130860800D03*
D11*
X337985100Y-131902800D03*
D12*
X337985100Y-133722800D03*
D13*
X337135100Y-133792800D03*
X337135100Y-131992800D03*
D14*
X337135100Y-132892800D03*
D13*
X338835100Y-131992800D03*
D14*
X338835100Y-132892800D03*
D13*
X338835100Y-133792800D03*
%TD*%
D10*
%TO.C,LD15\u002C6*%
X339128100Y-153390600D03*
X337985100Y-150215600D03*
D11*
X337985100Y-151257600D03*
D12*
X337985100Y-153077600D03*
D13*
X337135100Y-153147600D03*
X337135100Y-151347600D03*
D14*
X337135100Y-152247600D03*
D13*
X338835100Y-151347600D03*
D14*
X338835100Y-152247600D03*
D13*
X338835100Y-153147600D03*
%TD*%
D10*
%TO.C,LD15\u002C3*%
X339191600Y-94843600D03*
X338048600Y-91668600D03*
D11*
X338048600Y-92710600D03*
D12*
X338048600Y-94530600D03*
D13*
X337198600Y-94600600D03*
X337198600Y-92800600D03*
D14*
X337198600Y-93700600D03*
D13*
X338898600Y-92800600D03*
D14*
X338898600Y-93700600D03*
D13*
X338898600Y-94600600D03*
%TD*%
D10*
%TO.C,LD15\u002C1*%
X339191600Y-75603100D03*
X338048600Y-72428100D03*
D11*
X338048600Y-73470100D03*
D12*
X338048600Y-75290100D03*
D13*
X337198600Y-75360100D03*
X337198600Y-73560100D03*
D14*
X337198600Y-74460100D03*
D13*
X338898600Y-73560100D03*
D14*
X338898600Y-74460100D03*
D13*
X338898600Y-75360100D03*
%TD*%
D10*
%TO.C,LD14\u002C1*%
X319887600Y-75603100D03*
X318744600Y-72428100D03*
D11*
X318744600Y-73470100D03*
D12*
X318744600Y-75290100D03*
D13*
X317894600Y-75360100D03*
X317894600Y-73560100D03*
D14*
X317894600Y-74460100D03*
D13*
X319594600Y-73560100D03*
D14*
X319594600Y-74460100D03*
D13*
X319594600Y-75360100D03*
%TD*%
D10*
%TO.C,LD14\u002C3*%
X319887600Y-94843600D03*
X318744600Y-91668600D03*
D11*
X318744600Y-92710600D03*
D12*
X318744600Y-94530600D03*
D13*
X317894600Y-94600600D03*
X317894600Y-92800600D03*
D14*
X317894600Y-93700600D03*
D13*
X319594600Y-92800600D03*
D14*
X319594600Y-93700600D03*
D13*
X319594600Y-94600600D03*
%TD*%
D10*
%TO.C,LD14\u002C0*%
X320128900Y-49695100D03*
X318985900Y-46520100D03*
D11*
X318985900Y-47562100D03*
D12*
X318985900Y-49382100D03*
D13*
X318135900Y-49452100D03*
X318135900Y-47652100D03*
D14*
X318135900Y-48552100D03*
D13*
X319835900Y-47652100D03*
D14*
X319835900Y-48552100D03*
D13*
X319835900Y-49452100D03*
%TD*%
D10*
%TO.C,LD14\u002C6*%
X319824100Y-153390600D03*
X318681100Y-150215600D03*
D11*
X318681100Y-151257600D03*
D12*
X318681100Y-153077600D03*
D13*
X317831100Y-153147600D03*
X317831100Y-151347600D03*
D14*
X317831100Y-152247600D03*
D13*
X319531100Y-151347600D03*
D14*
X319531100Y-152247600D03*
D13*
X319531100Y-153147600D03*
%TD*%
D10*
%TO.C,LD13\u002C1*%
X287032700Y-75603100D03*
X285889700Y-72428100D03*
D11*
X285889700Y-73470100D03*
D12*
X285889700Y-75290100D03*
D13*
X285039700Y-75360100D03*
X285039700Y-73560100D03*
D14*
X285039700Y-74460100D03*
D13*
X286739700Y-73560100D03*
D14*
X286739700Y-74460100D03*
D13*
X286739700Y-75360100D03*
%TD*%
D10*
%TO.C,LD13\u002C2*%
X292227000Y-94869000D03*
X291084000Y-91694000D03*
D11*
X291084000Y-92736000D03*
D12*
X291084000Y-94556000D03*
D13*
X290234000Y-94626000D03*
X290234000Y-92826000D03*
D14*
X290234000Y-93726000D03*
D13*
X291934000Y-92826000D03*
D14*
X291934000Y-93726000D03*
D13*
X291934000Y-94626000D03*
%TD*%
D10*
%TO.C,LD12\u002C0*%
X297558460Y-49695100D03*
X296415460Y-46520100D03*
D11*
X296415460Y-47562100D03*
D12*
X296415460Y-49382100D03*
D13*
X295565460Y-49452100D03*
X295565460Y-47652100D03*
D14*
X295565460Y-48552100D03*
D13*
X297265460Y-47652100D03*
D14*
X297265460Y-48552100D03*
D13*
X297265460Y-49452100D03*
%TD*%
D10*
%TO.C,LD12\u002C1*%
X258267200Y-75603100D03*
X257124200Y-72428100D03*
D11*
X257124200Y-73470100D03*
D12*
X257124200Y-75290100D03*
D13*
X256274200Y-75360100D03*
X256274200Y-73560100D03*
D14*
X256274200Y-74460100D03*
D13*
X257974200Y-73560100D03*
D14*
X257974200Y-74460100D03*
D13*
X257974200Y-75360100D03*
%TD*%
D10*
%TO.C,LD12\u002C3*%
X285165800Y-114300000D03*
X284022800Y-111125000D03*
D11*
X284022800Y-112167000D03*
D12*
X284022800Y-113987000D03*
D13*
X283172800Y-114057000D03*
X283172800Y-112257000D03*
D14*
X283172800Y-113157000D03*
D13*
X284872800Y-112257000D03*
D14*
X284872800Y-113157000D03*
D13*
X284872800Y-114057000D03*
%TD*%
D10*
%TO.C,LD12\u002C2*%
X268300200Y-94843600D03*
X267157200Y-91668600D03*
D11*
X267157200Y-92710600D03*
D12*
X267157200Y-94530600D03*
D13*
X266307200Y-94600600D03*
X266307200Y-92800600D03*
D14*
X266307200Y-93700600D03*
D13*
X268007200Y-92800600D03*
D14*
X268007200Y-93700600D03*
D13*
X268007200Y-94600600D03*
%TD*%
D10*
%TO.C,LD11\u002C4*%
X280365200Y-134086600D03*
X279222200Y-130911600D03*
D11*
X279222200Y-131953600D03*
D12*
X279222200Y-133773600D03*
D13*
X278372200Y-133843600D03*
X278372200Y-132043600D03*
D14*
X278372200Y-132943600D03*
D13*
X280072200Y-132043600D03*
D14*
X280072200Y-132943600D03*
D13*
X280072200Y-133843600D03*
%TD*%
D10*
%TO.C,LD11\u002C2*%
X248996200Y-94843600D03*
X247853200Y-91668600D03*
D11*
X247853200Y-92710600D03*
D12*
X247853200Y-94530600D03*
D13*
X247003200Y-94600600D03*
X247003200Y-92800600D03*
D14*
X247003200Y-93700600D03*
D13*
X248703200Y-92800600D03*
D14*
X248703200Y-93700600D03*
D13*
X248703200Y-94600600D03*
%TD*%
D10*
%TO.C,LD11\u002C5*%
X294716200Y-153517600D03*
X293573200Y-150342600D03*
D11*
X293573200Y-151384600D03*
D12*
X293573200Y-153204600D03*
D13*
X292723200Y-153274600D03*
X292723200Y-151474600D03*
D14*
X292723200Y-152374600D03*
D13*
X294423200Y-151474600D03*
D14*
X294423200Y-152374600D03*
D13*
X294423200Y-153274600D03*
%TD*%
D10*
%TO.C,LD11\u002C0*%
X278254460Y-49695100D03*
X277111460Y-46520100D03*
D11*
X277111460Y-47562100D03*
D12*
X277111460Y-49382100D03*
D13*
X276261460Y-49452100D03*
X276261460Y-47652100D03*
D14*
X276261460Y-48552100D03*
D13*
X277961460Y-47652100D03*
D14*
X277961460Y-48552100D03*
D13*
X277961460Y-49452100D03*
%TD*%
D10*
%TO.C,LD11\u002C3*%
X253885700Y-114274600D03*
X252742700Y-111099600D03*
D11*
X252742700Y-112141600D03*
D12*
X252742700Y-113961600D03*
D13*
X251892700Y-114031600D03*
X251892700Y-112231600D03*
D14*
X251892700Y-113131600D03*
D13*
X253592700Y-112231600D03*
D14*
X253592700Y-113131600D03*
D13*
X253592700Y-114031600D03*
%TD*%
D10*
%TO.C,LD11\u002C1*%
X238963200Y-75603100D03*
X237820200Y-72428100D03*
D11*
X237820200Y-73470100D03*
D12*
X237820200Y-75290100D03*
D13*
X236970200Y-75360100D03*
X236970200Y-73560100D03*
D14*
X236970200Y-74460100D03*
D13*
X238670200Y-73560100D03*
D14*
X238670200Y-74460100D03*
D13*
X238670200Y-75360100D03*
%TD*%
D10*
%TO.C,LD10\u002C3*%
X234581700Y-114274600D03*
X233438700Y-111099600D03*
D11*
X233438700Y-112141600D03*
D12*
X233438700Y-113961600D03*
D13*
X232588700Y-114031600D03*
X232588700Y-112231600D03*
D14*
X232588700Y-113131600D03*
D13*
X234288700Y-112231600D03*
D14*
X234288700Y-113131600D03*
D13*
X234288700Y-114031600D03*
%TD*%
D10*
%TO.C,LD10\u002C4*%
X243979700Y-134086600D03*
X242836700Y-130911600D03*
D11*
X242836700Y-131953600D03*
D12*
X242836700Y-133773600D03*
D13*
X241986700Y-133843600D03*
X241986700Y-132043600D03*
D14*
X241986700Y-132943600D03*
D13*
X243686700Y-132043600D03*
D14*
X243686700Y-132943600D03*
D13*
X243686700Y-133843600D03*
%TD*%
D10*
%TO.C,LD10\u002C2*%
X229692200Y-94843600D03*
X228549200Y-91668600D03*
D11*
X228549200Y-92710600D03*
D12*
X228549200Y-94530600D03*
D13*
X227699200Y-94600600D03*
X227699200Y-92800600D03*
D14*
X227699200Y-93700600D03*
D13*
X229399200Y-92800600D03*
D14*
X229399200Y-93700600D03*
D13*
X229399200Y-94600600D03*
%TD*%
D10*
%TO.C,LD10\u002C1*%
X219659200Y-75603100D03*
X218516200Y-72428100D03*
D11*
X218516200Y-73470100D03*
D12*
X218516200Y-75290100D03*
D13*
X217666200Y-75360100D03*
X217666200Y-73560100D03*
D14*
X217666200Y-74460100D03*
D13*
X219366200Y-73560100D03*
D14*
X219366200Y-74460100D03*
D13*
X219366200Y-75360100D03*
%TD*%
D10*
%TO.C,LD10\u002C5*%
X270649700Y-153517600D03*
X269506700Y-150342600D03*
D11*
X269506700Y-151384600D03*
D12*
X269506700Y-153204600D03*
D13*
X268656700Y-153274600D03*
X268656700Y-151474600D03*
D14*
X268656700Y-152374600D03*
D13*
X270356700Y-151474600D03*
D14*
X270356700Y-152374600D03*
D13*
X270356700Y-153274600D03*
%TD*%
D10*
%TO.C,LD10\u002C0*%
X258950460Y-49695100D03*
X257807460Y-46520100D03*
D11*
X257807460Y-47562100D03*
D12*
X257807460Y-49382100D03*
D13*
X256957460Y-49452100D03*
X256957460Y-47652100D03*
D14*
X256957460Y-48552100D03*
D13*
X258657460Y-47652100D03*
D14*
X258657460Y-48552100D03*
D13*
X258657460Y-49452100D03*
%TD*%
D10*
%TO.C,LD9\u002C2*%
X210388200Y-94843600D03*
X209245200Y-91668600D03*
D11*
X209245200Y-92710600D03*
D12*
X209245200Y-94530600D03*
D13*
X208395200Y-94600600D03*
X208395200Y-92800600D03*
D14*
X208395200Y-93700600D03*
D13*
X210095200Y-92800600D03*
D14*
X210095200Y-93700600D03*
D13*
X210095200Y-94600600D03*
%TD*%
D10*
%TO.C,LD9\u002C5*%
X246456200Y-153517600D03*
X245313200Y-150342600D03*
D11*
X245313200Y-151384600D03*
D12*
X245313200Y-153204600D03*
D13*
X244463200Y-153274600D03*
X244463200Y-151474600D03*
D14*
X244463200Y-152374600D03*
D13*
X246163200Y-151474600D03*
D14*
X246163200Y-152374600D03*
D13*
X246163200Y-153274600D03*
%TD*%
D10*
%TO.C,LD9\u002C3*%
X215277700Y-114274600D03*
X214134700Y-111099600D03*
D11*
X214134700Y-112141600D03*
D12*
X214134700Y-113961600D03*
D13*
X213284700Y-114031600D03*
X213284700Y-112231600D03*
D14*
X213284700Y-113131600D03*
D13*
X214984700Y-112231600D03*
D14*
X214984700Y-113131600D03*
D13*
X214984700Y-114031600D03*
%TD*%
D10*
%TO.C,LD9\u002C4*%
X224675700Y-134086600D03*
X223532700Y-130911600D03*
D11*
X223532700Y-131953600D03*
D12*
X223532700Y-133773600D03*
D13*
X222682700Y-133843600D03*
X222682700Y-132043600D03*
D14*
X222682700Y-132943600D03*
D13*
X224382700Y-132043600D03*
D14*
X224382700Y-132943600D03*
D13*
X224382700Y-133843600D03*
%TD*%
D10*
%TO.C,LD9\u002C1*%
X200355200Y-75603100D03*
X199212200Y-72428100D03*
D11*
X199212200Y-73470100D03*
D12*
X199212200Y-75290100D03*
D13*
X198362200Y-75360100D03*
X198362200Y-73560100D03*
D14*
X198362200Y-74460100D03*
D13*
X200062200Y-73560100D03*
D14*
X200062200Y-74460100D03*
D13*
X200062200Y-75360100D03*
%TD*%
D10*
%TO.C,LD9\u002C0*%
X239646460Y-49695100D03*
X238503460Y-46520100D03*
D11*
X238503460Y-47562100D03*
D12*
X238503460Y-49382100D03*
D13*
X237653460Y-49452100D03*
X237653460Y-47652100D03*
D14*
X237653460Y-48552100D03*
D13*
X239353460Y-47652100D03*
D14*
X239353460Y-48552100D03*
D13*
X239353460Y-49452100D03*
%TD*%
D10*
%TO.C,LD8\u002C5*%
X222326200Y-153517600D03*
X221183200Y-150342600D03*
D11*
X221183200Y-151384600D03*
D12*
X221183200Y-153204600D03*
D13*
X220333200Y-153274600D03*
X220333200Y-151474600D03*
D14*
X220333200Y-152374600D03*
D13*
X222033200Y-151474600D03*
D14*
X222033200Y-152374600D03*
D13*
X222033200Y-153274600D03*
%TD*%
D10*
%TO.C,LD8\u002C1*%
X181051200Y-75603100D03*
X179908200Y-72428100D03*
D11*
X179908200Y-73470100D03*
D12*
X179908200Y-75290100D03*
D13*
X179058200Y-75360100D03*
X179058200Y-73560100D03*
D14*
X179058200Y-74460100D03*
D13*
X180758200Y-73560100D03*
D14*
X180758200Y-74460100D03*
D13*
X180758200Y-75360100D03*
%TD*%
D10*
%TO.C,LD8\u002C2*%
X191084200Y-94843600D03*
X189941200Y-91668600D03*
D11*
X189941200Y-92710600D03*
D12*
X189941200Y-94530600D03*
D13*
X189091200Y-94600600D03*
X189091200Y-92800600D03*
D14*
X189091200Y-93700600D03*
D13*
X190791200Y-92800600D03*
D14*
X190791200Y-93700600D03*
D13*
X190791200Y-94600600D03*
%TD*%
D10*
%TO.C,LD8\u002C0*%
X213230460Y-49695100D03*
X212087460Y-46520100D03*
D11*
X212087460Y-47562100D03*
D12*
X212087460Y-49382100D03*
D13*
X211237460Y-49452100D03*
X211237460Y-47652100D03*
D14*
X211237460Y-48552100D03*
D13*
X212937460Y-47652100D03*
D14*
X212937460Y-48552100D03*
D13*
X212937460Y-49452100D03*
%TD*%
D10*
%TO.C,LD8\u002C4*%
X205371700Y-134086600D03*
X204228700Y-130911600D03*
D11*
X204228700Y-131953600D03*
D12*
X204228700Y-133773600D03*
D13*
X203378700Y-133843600D03*
X203378700Y-132043600D03*
D14*
X203378700Y-132943600D03*
D13*
X205078700Y-132043600D03*
D14*
X205078700Y-132943600D03*
D13*
X205078700Y-133843600D03*
%TD*%
D10*
%TO.C,LD8\u002C3*%
X195973700Y-114274600D03*
X194830700Y-111099600D03*
D11*
X194830700Y-112141600D03*
D12*
X194830700Y-113961600D03*
D13*
X193980700Y-114031600D03*
X193980700Y-112231600D03*
D14*
X193980700Y-113131600D03*
D13*
X195680700Y-112231600D03*
D14*
X195680700Y-113131600D03*
D13*
X195680700Y-114031600D03*
%TD*%
D10*
%TO.C,LD7\u002C2*%
X171780200Y-94843600D03*
X170637200Y-91668600D03*
D11*
X170637200Y-92710600D03*
D12*
X170637200Y-94530600D03*
D13*
X169787200Y-94600600D03*
X169787200Y-92800600D03*
D14*
X169787200Y-93700600D03*
D13*
X171487200Y-92800600D03*
D14*
X171487200Y-93700600D03*
D13*
X171487200Y-94600600D03*
%TD*%
D10*
%TO.C,LD7\u002C1*%
X161747200Y-75603100D03*
X160604200Y-72428100D03*
D11*
X160604200Y-73470100D03*
D12*
X160604200Y-75290100D03*
D13*
X159754200Y-75360100D03*
X159754200Y-73560100D03*
D14*
X159754200Y-74460100D03*
D13*
X161454200Y-73560100D03*
D14*
X161454200Y-74460100D03*
D13*
X161454200Y-75360100D03*
%TD*%
D10*
%TO.C,LD7\u002C3*%
X176669700Y-114274600D03*
X175526700Y-111099600D03*
D11*
X175526700Y-112141600D03*
D12*
X175526700Y-113961600D03*
D13*
X174676700Y-114031600D03*
X174676700Y-112231600D03*
D14*
X174676700Y-113131600D03*
D13*
X176376700Y-112231600D03*
D14*
X176376700Y-113131600D03*
D13*
X176376700Y-114031600D03*
%TD*%
D10*
%TO.C,LD7\u002C4*%
X186067700Y-134086600D03*
X184924700Y-130911600D03*
D11*
X184924700Y-131953600D03*
D12*
X184924700Y-133773600D03*
D13*
X184074700Y-133843600D03*
X184074700Y-132043600D03*
D14*
X184074700Y-132943600D03*
D13*
X185774700Y-132043600D03*
D14*
X185774700Y-132943600D03*
D13*
X185774700Y-133843600D03*
%TD*%
D10*
%TO.C,LD7\u002C0*%
X193926460Y-49695100D03*
X192783460Y-46520100D03*
D11*
X192783460Y-47562100D03*
D12*
X192783460Y-49382100D03*
D13*
X191933460Y-49452100D03*
X191933460Y-47652100D03*
D14*
X191933460Y-48552100D03*
D13*
X193633460Y-47652100D03*
D14*
X193633460Y-48552100D03*
D13*
X193633460Y-49452100D03*
%TD*%
D10*
%TO.C,LD6\u002C1*%
X142443200Y-75603100D03*
X141300200Y-72428100D03*
D11*
X141300200Y-73470100D03*
D12*
X141300200Y-75290100D03*
D13*
X140450200Y-75360100D03*
X140450200Y-73560100D03*
D14*
X140450200Y-74460100D03*
D13*
X142150200Y-73560100D03*
D14*
X142150200Y-74460100D03*
D13*
X142150200Y-75360100D03*
%TD*%
D10*
%TO.C,LD6\u002C3*%
X157365700Y-114274600D03*
X156222700Y-111099600D03*
D11*
X156222700Y-112141600D03*
D12*
X156222700Y-113961600D03*
D13*
X155372700Y-114031600D03*
X155372700Y-112231600D03*
D14*
X155372700Y-113131600D03*
D13*
X157072700Y-112231600D03*
D14*
X157072700Y-113131600D03*
D13*
X157072700Y-114031600D03*
%TD*%
D10*
%TO.C,LD6\u002C4*%
X166763700Y-134086600D03*
X165620700Y-130911600D03*
D11*
X165620700Y-131953600D03*
D12*
X165620700Y-133773600D03*
D13*
X164770700Y-133843600D03*
X164770700Y-132043600D03*
D14*
X164770700Y-132943600D03*
D13*
X166470700Y-132043600D03*
D14*
X166470700Y-132943600D03*
D13*
X166470700Y-133843600D03*
%TD*%
D10*
%TO.C,LD6\u002C0*%
X174622460Y-49695100D03*
X173479460Y-46520100D03*
D11*
X173479460Y-47562100D03*
D12*
X173479460Y-49382100D03*
D13*
X172629460Y-49452100D03*
X172629460Y-47652100D03*
D14*
X172629460Y-48552100D03*
D13*
X174329460Y-47652100D03*
D14*
X174329460Y-48552100D03*
D13*
X174329460Y-49452100D03*
%TD*%
D10*
%TO.C,LD6\u002C2*%
X152476200Y-94843600D03*
X151333200Y-91668600D03*
D11*
X151333200Y-92710600D03*
D12*
X151333200Y-94530600D03*
D13*
X150483200Y-94600600D03*
X150483200Y-92800600D03*
D14*
X150483200Y-93700600D03*
D13*
X152183200Y-92800600D03*
D14*
X152183200Y-93700600D03*
D13*
X152183200Y-94600600D03*
%TD*%
D10*
%TO.C,LD5\u002C1*%
X123139200Y-75603100D03*
X121996200Y-72428100D03*
D11*
X121996200Y-73470100D03*
D12*
X121996200Y-75290100D03*
D13*
X121146200Y-75360100D03*
X121146200Y-73560100D03*
D14*
X121146200Y-74460100D03*
D13*
X122846200Y-73560100D03*
D14*
X122846200Y-74460100D03*
D13*
X122846200Y-75360100D03*
%TD*%
D10*
%TO.C,LD5\u002C2*%
X133172200Y-94843600D03*
X132029200Y-91668600D03*
D11*
X132029200Y-92710600D03*
D12*
X132029200Y-94530600D03*
D13*
X131179200Y-94600600D03*
X131179200Y-92800600D03*
D14*
X131179200Y-93700600D03*
D13*
X132879200Y-92800600D03*
D14*
X132879200Y-93700600D03*
D13*
X132879200Y-94600600D03*
%TD*%
D10*
%TO.C,LD5\u002C4*%
X147459700Y-134086600D03*
X146316700Y-130911600D03*
D11*
X146316700Y-131953600D03*
D12*
X146316700Y-133773600D03*
D13*
X145466700Y-133843600D03*
X145466700Y-132043600D03*
D14*
X145466700Y-132943600D03*
D13*
X147166700Y-132043600D03*
D14*
X147166700Y-132943600D03*
D13*
X147166700Y-133843600D03*
%TD*%
D10*
%TO.C,LD5\u002C0*%
X155318460Y-49695100D03*
X154175460Y-46520100D03*
D11*
X154175460Y-47562100D03*
D12*
X154175460Y-49382100D03*
D13*
X153325460Y-49452100D03*
X153325460Y-47652100D03*
D14*
X153325460Y-48552100D03*
D13*
X155025460Y-47652100D03*
D14*
X155025460Y-48552100D03*
D13*
X155025460Y-49452100D03*
%TD*%
D10*
%TO.C,LD5\u002C3*%
X138061700Y-114274600D03*
X136918700Y-111099600D03*
D11*
X136918700Y-112141600D03*
D12*
X136918700Y-113961600D03*
D13*
X136068700Y-114031600D03*
X136068700Y-112231600D03*
D14*
X136068700Y-113131600D03*
D13*
X137768700Y-112231600D03*
D14*
X137768700Y-113131600D03*
D13*
X137768700Y-114031600D03*
%TD*%
D10*
%TO.C,LD4\u002C3*%
X118757700Y-114274600D03*
X117614700Y-111099600D03*
D11*
X117614700Y-112141600D03*
D12*
X117614700Y-113961600D03*
D13*
X116764700Y-114031600D03*
X116764700Y-112231600D03*
D14*
X116764700Y-113131600D03*
D13*
X118464700Y-112231600D03*
D14*
X118464700Y-113131600D03*
D13*
X118464700Y-114031600D03*
%TD*%
D10*
%TO.C,LD4\u002C4*%
X128155700Y-134086600D03*
X127012700Y-130911600D03*
D11*
X127012700Y-131953600D03*
D12*
X127012700Y-133773600D03*
D13*
X126162700Y-133843600D03*
X126162700Y-132043600D03*
D14*
X126162700Y-132943600D03*
D13*
X127862700Y-132043600D03*
D14*
X127862700Y-132943600D03*
D13*
X127862700Y-133843600D03*
%TD*%
D10*
%TO.C,LD4\u002C0*%
X123822460Y-49695100D03*
X122679460Y-46520100D03*
D11*
X122679460Y-47562100D03*
D12*
X122679460Y-49382100D03*
D13*
X121829460Y-49452100D03*
X121829460Y-47652100D03*
D14*
X121829460Y-48552100D03*
D13*
X123529460Y-47652100D03*
D14*
X123529460Y-48552100D03*
D13*
X123529460Y-49452100D03*
%TD*%
D10*
%TO.C,LD4\u002C2*%
X113868200Y-94843600D03*
X112725200Y-91668600D03*
D11*
X112725200Y-92710600D03*
D12*
X112725200Y-94530600D03*
D13*
X111875200Y-94600600D03*
X111875200Y-92800600D03*
D14*
X111875200Y-93700600D03*
D13*
X113575200Y-92800600D03*
D14*
X113575200Y-93700600D03*
D13*
X113575200Y-94600600D03*
%TD*%
D10*
%TO.C,LD4\u002C1*%
X103835200Y-75603100D03*
X102692200Y-72428100D03*
D11*
X102692200Y-73470100D03*
D12*
X102692200Y-75290100D03*
D13*
X101842200Y-75360100D03*
X101842200Y-73560100D03*
D14*
X101842200Y-74460100D03*
D13*
X103542200Y-73560100D03*
D14*
X103542200Y-74460100D03*
D13*
X103542200Y-75360100D03*
%TD*%
D10*
%TO.C,LD3\u002C0*%
X104518460Y-49695100D03*
X103375460Y-46520100D03*
D11*
X103375460Y-47562100D03*
D12*
X103375460Y-49382100D03*
D13*
X102525460Y-49452100D03*
X102525460Y-47652100D03*
D14*
X102525460Y-48552100D03*
D13*
X104225460Y-47652100D03*
D14*
X104225460Y-48552100D03*
D13*
X104225460Y-49452100D03*
%TD*%
D10*
%TO.C,LD3\u002C1*%
X84531200Y-75603100D03*
X83388200Y-72428100D03*
D11*
X83388200Y-73470100D03*
D12*
X83388200Y-75290100D03*
D13*
X82538200Y-75360100D03*
X82538200Y-73560100D03*
D14*
X82538200Y-74460100D03*
D13*
X84238200Y-73560100D03*
D14*
X84238200Y-74460100D03*
D13*
X84238200Y-75360100D03*
%TD*%
D10*
%TO.C,LD3\u002C2*%
X94564200Y-94843600D03*
X93421200Y-91668600D03*
D11*
X93421200Y-92710600D03*
D12*
X93421200Y-94530600D03*
D13*
X92571200Y-94600600D03*
X92571200Y-92800600D03*
D14*
X92571200Y-93700600D03*
D13*
X94271200Y-92800600D03*
D14*
X94271200Y-93700600D03*
D13*
X94271200Y-94600600D03*
%TD*%
D10*
%TO.C,LD3\u002C4*%
X108851700Y-134086600D03*
X107708700Y-130911600D03*
D11*
X107708700Y-131953600D03*
D12*
X107708700Y-133773600D03*
D13*
X106858700Y-133843600D03*
X106858700Y-132043600D03*
D14*
X106858700Y-132943600D03*
D13*
X108558700Y-132043600D03*
D14*
X108558700Y-132943600D03*
D13*
X108558700Y-133843600D03*
%TD*%
D10*
%TO.C,LD3\u002C5*%
X150571200Y-153517600D03*
X149428200Y-150342600D03*
D11*
X149428200Y-151384600D03*
D12*
X149428200Y-153204600D03*
D13*
X148578200Y-153274600D03*
X148578200Y-151474600D03*
D14*
X148578200Y-152374600D03*
D13*
X150278200Y-151474600D03*
D14*
X150278200Y-152374600D03*
D13*
X150278200Y-153274600D03*
%TD*%
D10*
%TO.C,LD3\u002C3*%
X99453700Y-114274600D03*
X98310700Y-111099600D03*
D11*
X98310700Y-112141600D03*
D12*
X98310700Y-113961600D03*
D13*
X97460700Y-114031600D03*
X97460700Y-112231600D03*
D14*
X97460700Y-113131600D03*
D13*
X99160700Y-112231600D03*
D14*
X99160700Y-113131600D03*
D13*
X99160700Y-114031600D03*
%TD*%
D10*
%TO.C,LD2\u002C3*%
X80149700Y-114274600D03*
X79006700Y-111099600D03*
D11*
X79006700Y-112141600D03*
D12*
X79006700Y-113961600D03*
D13*
X78156700Y-114031600D03*
X78156700Y-112231600D03*
D14*
X78156700Y-113131600D03*
D13*
X79856700Y-112231600D03*
D14*
X79856700Y-113131600D03*
D13*
X79856700Y-114031600D03*
%TD*%
D10*
%TO.C,LD2\u002C5*%
X78689200Y-153517600D03*
X77546200Y-150342600D03*
D11*
X77546200Y-151384600D03*
D12*
X77546200Y-153204600D03*
D13*
X76696200Y-153274600D03*
X76696200Y-151474600D03*
D14*
X76696200Y-152374600D03*
D13*
X78396200Y-151474600D03*
D14*
X78396200Y-152374600D03*
D13*
X78396200Y-153274600D03*
%TD*%
D10*
%TO.C,LD2\u002C4*%
X89407700Y-134086600D03*
X88264700Y-130911600D03*
D11*
X88264700Y-131953600D03*
D12*
X88264700Y-133773600D03*
D13*
X87414700Y-133843600D03*
X87414700Y-132043600D03*
D14*
X87414700Y-132943600D03*
D13*
X89114700Y-132043600D03*
D14*
X89114700Y-132943600D03*
D13*
X89114700Y-133843600D03*
%TD*%
D10*
%TO.C,LD2\u002C0*%
X85214460Y-49695100D03*
X84071460Y-46520100D03*
D11*
X84071460Y-47562100D03*
D12*
X84071460Y-49382100D03*
D13*
X83221460Y-49452100D03*
X83221460Y-47652100D03*
D14*
X83221460Y-48552100D03*
D13*
X84921460Y-47652100D03*
D14*
X84921460Y-48552100D03*
D13*
X84921460Y-49452100D03*
%TD*%
D10*
%TO.C,LD2\u002C1*%
X65735200Y-75603100D03*
X64592200Y-72428100D03*
D11*
X64592200Y-73470100D03*
D12*
X64592200Y-75290100D03*
D13*
X63742200Y-75360100D03*
X63742200Y-73560100D03*
D14*
X63742200Y-74460100D03*
D13*
X65442200Y-73560100D03*
D14*
X65442200Y-74460100D03*
D13*
X65442200Y-75360100D03*
%TD*%
D10*
%TO.C,LD2\u002C2*%
X75260200Y-94843600D03*
X74117200Y-91668600D03*
D11*
X74117200Y-92710600D03*
D12*
X74117200Y-94530600D03*
D13*
X73267200Y-94600600D03*
X73267200Y-92800600D03*
D14*
X73267200Y-93700600D03*
D13*
X74967200Y-92800600D03*
D14*
X74967200Y-93700600D03*
D13*
X74967200Y-94600600D03*
%TD*%
D10*
%TO.C,LD1\u002C0*%
X65910460Y-49695100D03*
X64767460Y-46520100D03*
D11*
X64767460Y-47562100D03*
D12*
X64767460Y-49382100D03*
D13*
X63917460Y-49452100D03*
X63917460Y-47652100D03*
D14*
X63917460Y-48552100D03*
D13*
X65617460Y-47652100D03*
D14*
X65617460Y-48552100D03*
D13*
X65617460Y-49452100D03*
%TD*%
D10*
%TO.C,LD1\u002C4*%
X70243700Y-134086600D03*
X69100700Y-130911600D03*
D11*
X69100700Y-131953600D03*
D12*
X69100700Y-133773600D03*
D13*
X68250700Y-133843600D03*
X68250700Y-132043600D03*
D14*
X68250700Y-132943600D03*
D13*
X69950700Y-132043600D03*
D14*
X69950700Y-132943600D03*
D13*
X69950700Y-133843600D03*
%TD*%
D10*
%TO.C,LD1\u002C1*%
X46532800Y-75615800D03*
X45389800Y-72440800D03*
D11*
X45389800Y-73482800D03*
D12*
X45389800Y-75302800D03*
D13*
X44539800Y-75372800D03*
X44539800Y-73572800D03*
D14*
X44539800Y-74472800D03*
D13*
X46239800Y-73572800D03*
D14*
X46239800Y-74472800D03*
D13*
X46239800Y-75372800D03*
%TD*%
D10*
%TO.C,LD1\u002C3*%
X60845700Y-114274600D03*
X59702700Y-111099600D03*
D11*
X59702700Y-112141600D03*
D12*
X59702700Y-113961600D03*
D13*
X58852700Y-114031600D03*
X58852700Y-112231600D03*
D14*
X58852700Y-113131600D03*
D13*
X60552700Y-112231600D03*
D14*
X60552700Y-113131600D03*
D13*
X60552700Y-114031600D03*
%TD*%
D10*
%TO.C,LD1\u002C5*%
X54305200Y-153517600D03*
X53162200Y-150342600D03*
D11*
X53162200Y-151384600D03*
D12*
X53162200Y-153204600D03*
D13*
X52312200Y-153274600D03*
X52312200Y-151474600D03*
D14*
X52312200Y-152374600D03*
D13*
X54012200Y-151474600D03*
D14*
X54012200Y-152374600D03*
D13*
X54012200Y-153274600D03*
%TD*%
D10*
%TO.C,LD1\u002C2*%
X55956200Y-94843600D03*
X54813200Y-91668600D03*
D11*
X54813200Y-92710600D03*
D12*
X54813200Y-94530600D03*
D13*
X53963200Y-94600600D03*
X53963200Y-92800600D03*
D14*
X53963200Y-93700600D03*
D13*
X55663200Y-92800600D03*
D14*
X55663200Y-93700600D03*
D13*
X55663200Y-94600600D03*
%TD*%
D10*
%TO.C,LD0\u002C2*%
X32029400Y-94818200D03*
X30886400Y-91643200D03*
D11*
X30886400Y-92685200D03*
D12*
X30886400Y-94505200D03*
D13*
X30036400Y-94575200D03*
X30036400Y-92775200D03*
D14*
X30036400Y-93675200D03*
D13*
X31736400Y-92775200D03*
D14*
X31736400Y-93675200D03*
D13*
X31736400Y-94575200D03*
%TD*%
D10*
%TO.C,LD0\u002C1*%
X27317700Y-75615800D03*
X26174700Y-72440800D03*
D11*
X26174700Y-73482800D03*
D12*
X26174700Y-75302800D03*
D13*
X25324700Y-75372800D03*
X25324700Y-73572800D03*
D14*
X25324700Y-74472800D03*
D13*
X27024700Y-73572800D03*
D14*
X27024700Y-74472800D03*
D13*
X27024700Y-75372800D03*
%TD*%
D10*
%TO.C,LD0\u002C5*%
X29730700Y-153466800D03*
X28587700Y-150291800D03*
D11*
X28587700Y-151333800D03*
D12*
X28587700Y-153153800D03*
D13*
X27737700Y-153223800D03*
X27737700Y-151423800D03*
D14*
X27737700Y-152323800D03*
D13*
X29437700Y-151423800D03*
D14*
X29437700Y-152323800D03*
D13*
X29437700Y-153223800D03*
%TD*%
D10*
%TO.C,LD0\u002C3*%
X34366200Y-114350800D03*
X33223200Y-111175800D03*
D11*
X33223200Y-112217800D03*
D12*
X33223200Y-114037800D03*
D13*
X32373200Y-114107800D03*
X32373200Y-112307800D03*
D14*
X32373200Y-113207800D03*
D13*
X34073200Y-112307800D03*
D14*
X34073200Y-113207800D03*
D13*
X34073200Y-114107800D03*
%TD*%
D10*
%TO.C,LD0\u002C4*%
X39128700Y-134086600D03*
X37985700Y-130911600D03*
D11*
X37985700Y-131953600D03*
D12*
X37985700Y-133773600D03*
D13*
X37135700Y-133843600D03*
X37135700Y-132043600D03*
D14*
X37135700Y-132943600D03*
D13*
X38835700Y-132043600D03*
D14*
X38835700Y-132943600D03*
D13*
X38835700Y-133843600D03*
%TD*%
D15*
%TO.C,K19\u002C6*%
X434060600Y-148945600D03*
X444220600Y-148945600D03*
D16*
X439140600Y-148945600D03*
D17*
X436600600Y-154025600D03*
X442950600Y-151485600D03*
%TD*%
D15*
%TO.C,K7\u002C0*%
X187512960Y-55537100D03*
X197672960Y-55537100D03*
D16*
X192592960Y-55537100D03*
D17*
X190052960Y-60617100D03*
X196402960Y-58077100D03*
%TD*%
D15*
%TO.C,K12\u002C3*%
X278968200Y-120002300D03*
X289128200Y-120002300D03*
D16*
X284048200Y-120002300D03*
D17*
X281508200Y-125082300D03*
X287858200Y-122542300D03*
%TD*%
D15*
%TO.C,K16\u002C1*%
X352272600Y-81318100D03*
X362432600Y-81318100D03*
D16*
X357352600Y-81318100D03*
D17*
X354812600Y-86398100D03*
X361162600Y-83858100D03*
%TD*%
D15*
%TO.C,K14\u002C1*%
X313664600Y-81318100D03*
X323824600Y-81318100D03*
D16*
X318744600Y-81318100D03*
D17*
X316204600Y-86398100D03*
X322554600Y-83858100D03*
%TD*%
D15*
%TO.C,K3\u002C2*%
X88341200Y-100558600D03*
X98501200Y-100558600D03*
D16*
X93421200Y-100558600D03*
D17*
X90881200Y-105638600D03*
X97231200Y-103098600D03*
%TD*%
D15*
%TO.C,K8\u002C0*%
X206816960Y-55537100D03*
X216976960Y-55537100D03*
D16*
X211896960Y-55537100D03*
D17*
X209356960Y-60617100D03*
X215706960Y-58077100D03*
%TD*%
D15*
%TO.C,K0\u002C2*%
X25793700Y-100533200D03*
X35953700Y-100533200D03*
D16*
X30873700Y-100533200D03*
D17*
X28333700Y-105613200D03*
X34683700Y-103073200D03*
%TD*%
D15*
%TO.C,K18\u002C4*%
X414756600Y-119926100D03*
X424916600Y-119926100D03*
D16*
X419836600Y-119926100D03*
D17*
X417296600Y-125006100D03*
X423646600Y-122466100D03*
%TD*%
D15*
%TO.C,K10\u002C3*%
X228358700Y-119989600D03*
X238518700Y-119989600D03*
D16*
X233438700Y-119989600D03*
D17*
X230898700Y-125069600D03*
X237248700Y-122529600D03*
%TD*%
D15*
%TO.C,K13\u002C1*%
X280809700Y-81267300D03*
X290969700Y-81267300D03*
D16*
X285889700Y-81267300D03*
D17*
X283349700Y-86347300D03*
X289699700Y-83807300D03*
%TD*%
D15*
%TO.C,K19\u002C4*%
X434060600Y-110210600D03*
X444220600Y-110210600D03*
D16*
X439140600Y-110210600D03*
D17*
X436600600Y-115290600D03*
X442950600Y-112750600D03*
%TD*%
D15*
%TO.C,K11\u002C4*%
X274142200Y-139750800D03*
X284302200Y-139750800D03*
D16*
X279222200Y-139750800D03*
D17*
X276682200Y-144830800D03*
X283032200Y-142290800D03*
%TD*%
D18*
%TO.C,D0\u002C3*%
X25603200Y-125235800D03*
D19*
X25603200Y-117435800D03*
%TD*%
D18*
%TO.C,D0\u002C5*%
X20967700Y-164351800D03*
D19*
X20967700Y-156551800D03*
%TD*%
D18*
%TO.C,D0\u002C4*%
X30365700Y-144984300D03*
D19*
X30365700Y-137184300D03*
%TD*%
D18*
%TO.C,D0\u002C0*%
X18618200Y-60656300D03*
D19*
X18618200Y-52856300D03*
%TD*%
D18*
%TO.C,D0\u002C2*%
X23063200Y-105677800D03*
D19*
X23063200Y-97877800D03*
%TD*%
D18*
%TO.C,D0\u002C1*%
X18554700Y-86500800D03*
D19*
X18554700Y-78700800D03*
%TD*%
D18*
%TO.C,D1\u002C3*%
X51892200Y-125108800D03*
D19*
X51892200Y-117308800D03*
%TD*%
D18*
%TO.C,D1\u002C0*%
X56766460Y-60707100D03*
D19*
X56766460Y-52907100D03*
%TD*%
D18*
%TO.C,D1\u002C4*%
X61290200Y-144920800D03*
D19*
X61290200Y-137120800D03*
%TD*%
D18*
%TO.C,D1\u002C5*%
X45351700Y-164351800D03*
D19*
X45351700Y-156551800D03*
%TD*%
D18*
%TO.C,D1\u002C1*%
X37858700Y-86500800D03*
D19*
X37858700Y-78700800D03*
%TD*%
D18*
%TO.C,D1\u002C2*%
X47002700Y-105677800D03*
D19*
X47002700Y-97877800D03*
%TD*%
D18*
%TO.C,D2\u002C4*%
X80594200Y-144920800D03*
D19*
X80594200Y-137120800D03*
%TD*%
D18*
%TO.C,D2\u002C5*%
X69735700Y-164351800D03*
D19*
X69735700Y-156551800D03*
%TD*%
D18*
%TO.C,D2\u002C0*%
X76070460Y-60656300D03*
D19*
X76070460Y-52856300D03*
%TD*%
D18*
%TO.C,D2\u002C2*%
X66306700Y-105677800D03*
D19*
X66306700Y-97877800D03*
%TD*%
D18*
%TO.C,D2\u002C1*%
X56781700Y-86437300D03*
D19*
X56781700Y-78637300D03*
%TD*%
D18*
%TO.C,D2\u002C3*%
X71196200Y-125108800D03*
D19*
X71196200Y-117308800D03*
%TD*%
D18*
%TO.C,D3\u002C0*%
X95374460Y-60656300D03*
D19*
X95374460Y-52856300D03*
%TD*%
D18*
%TO.C,D3\u002C1*%
X75577700Y-86437300D03*
D19*
X75577700Y-78637300D03*
%TD*%
D18*
%TO.C,D3\u002C4*%
X99898200Y-144920800D03*
D19*
X99898200Y-137120800D03*
%TD*%
D18*
%TO.C,D3\u002C2*%
X85610700Y-105677800D03*
D19*
X85610700Y-97877800D03*
%TD*%
D18*
%TO.C,D3\u002C5*%
X141617700Y-164351800D03*
D19*
X141617700Y-156551800D03*
%TD*%
D18*
%TO.C,D3\u002C3*%
X90500200Y-125108800D03*
D19*
X90500200Y-117308800D03*
%TD*%
D18*
%TO.C,D4\u002C4*%
X119202200Y-144920800D03*
D19*
X119202200Y-137120800D03*
%TD*%
D18*
%TO.C,D4\u002C3*%
X109804200Y-125108800D03*
D19*
X109804200Y-117308800D03*
%TD*%
D18*
%TO.C,D4\u002C1*%
X94881700Y-86437300D03*
D19*
X94881700Y-78637300D03*
%TD*%
D18*
%TO.C,D4\u002C0*%
X114678460Y-60656300D03*
D19*
X114678460Y-52856300D03*
%TD*%
D18*
%TO.C,D4\u002C2*%
X104914700Y-105677800D03*
D19*
X104914700Y-97877800D03*
%TD*%
D18*
%TO.C,D5\u002C0*%
X146174460Y-60656300D03*
D19*
X146174460Y-52856300D03*
%TD*%
D18*
%TO.C,D5\u002C2*%
X124218700Y-105677800D03*
D19*
X124218700Y-97877800D03*
%TD*%
D18*
%TO.C,D5\u002C1*%
X114185700Y-86437300D03*
D19*
X114185700Y-78637300D03*
%TD*%
D18*
%TO.C,D5\u002C3*%
X129108200Y-125159600D03*
D19*
X129108200Y-117359600D03*
%TD*%
D18*
%TO.C,D5\u002C4*%
X138506200Y-144971600D03*
D19*
X138506200Y-137171600D03*
%TD*%
D18*
%TO.C,D6\u002C0*%
X165478460Y-60656300D03*
D19*
X165478460Y-52856300D03*
%TD*%
D18*
%TO.C,D6\u002C3*%
X148412200Y-125108800D03*
D19*
X148412200Y-117308800D03*
%TD*%
D18*
%TO.C,D6\u002C4*%
X157810200Y-144920800D03*
D19*
X157810200Y-137120800D03*
%TD*%
D18*
%TO.C,D6\u002C1*%
X133489700Y-86437300D03*
D19*
X133489700Y-78637300D03*
%TD*%
D18*
%TO.C,D6\u002C2*%
X143522700Y-105677800D03*
D19*
X143522700Y-97877800D03*
%TD*%
D18*
%TO.C,D7\u002C4*%
X177114200Y-144971600D03*
D19*
X177114200Y-137171600D03*
%TD*%
D18*
%TO.C,D7\u002C2*%
X162826700Y-105728600D03*
D19*
X162826700Y-97928600D03*
%TD*%
D18*
%TO.C,D7\u002C1*%
X152793700Y-86437300D03*
D19*
X152793700Y-78637300D03*
%TD*%
D18*
%TO.C,D7\u002C0*%
X184782460Y-60656300D03*
D19*
X184782460Y-52856300D03*
%TD*%
D18*
%TO.C,D7\u002C3*%
X167716200Y-125108800D03*
D19*
X167716200Y-117308800D03*
%TD*%
D18*
%TO.C,D8\u002C0*%
X204086460Y-60707100D03*
D19*
X204086460Y-52907100D03*
%TD*%
D18*
%TO.C,D8\u002C3*%
X187020200Y-125108800D03*
D19*
X187020200Y-117308800D03*
%TD*%
D18*
%TO.C,D8\u002C1*%
X172097700Y-86437300D03*
D19*
X172097700Y-78637300D03*
%TD*%
D18*
%TO.C,D8\u002C2*%
X182130700Y-105677800D03*
D19*
X182130700Y-97877800D03*
%TD*%
D18*
%TO.C,D8\u002C5*%
X213372700Y-164415300D03*
D19*
X213372700Y-156615300D03*
%TD*%
D18*
%TO.C,D8\u002C4*%
X196418200Y-144920800D03*
D19*
X196418200Y-137120800D03*
%TD*%
D18*
%TO.C,D9\u002C2*%
X201434700Y-105677800D03*
D19*
X201434700Y-97877800D03*
%TD*%
D18*
%TO.C,D9\u002C1*%
X191401700Y-86488100D03*
D19*
X191401700Y-78688100D03*
%TD*%
D18*
%TO.C,D9\u002C3*%
X206324200Y-125108800D03*
D19*
X206324200Y-117308800D03*
%TD*%
D18*
%TO.C,D9\u002C4*%
X215722200Y-144920800D03*
D19*
X215722200Y-137120800D03*
%TD*%
D18*
%TO.C,D9\u002C5*%
X237502700Y-164351800D03*
D19*
X237502700Y-156551800D03*
%TD*%
D18*
%TO.C,D9\u002C0*%
X230502460Y-60656300D03*
D19*
X230502460Y-52856300D03*
%TD*%
D18*
%TO.C,D10\u002C4*%
X235026200Y-144971600D03*
D19*
X235026200Y-137171600D03*
%TD*%
D18*
%TO.C,D10\u002C5*%
X261696200Y-164351800D03*
D19*
X261696200Y-156551800D03*
%TD*%
D18*
%TO.C,D10\u002C1*%
X210705700Y-86437300D03*
D19*
X210705700Y-78637300D03*
%TD*%
D18*
%TO.C,D10\u002C0*%
X249806460Y-60656300D03*
D19*
X249806460Y-52856300D03*
%TD*%
D18*
%TO.C,D10\u002C2*%
X220738700Y-105728600D03*
D19*
X220738700Y-97928600D03*
%TD*%
D18*
%TO.C,D10\u002C3*%
X225628200Y-125108800D03*
D19*
X225628200Y-117308800D03*
%TD*%
D18*
%TO.C,D11\u002C0*%
X269110460Y-60656300D03*
D19*
X269110460Y-52856300D03*
%TD*%
D18*
%TO.C,D11\u002C1*%
X230009700Y-86437300D03*
D19*
X230009700Y-78637300D03*
%TD*%
D18*
%TO.C,D11\u002C3*%
X244932200Y-125108800D03*
D19*
X244932200Y-117308800D03*
%TD*%
D18*
%TO.C,D11\u002C2*%
X240042700Y-105677800D03*
D19*
X240042700Y-97877800D03*
%TD*%
D18*
%TO.C,D11\u002C4*%
X271602200Y-144920800D03*
D19*
X271602200Y-137120800D03*
%TD*%
D18*
%TO.C,D11\u002C5*%
X285762700Y-164351800D03*
D19*
X285762700Y-156551800D03*
%TD*%
D18*
%TO.C,D12\u002C3*%
X276428200Y-125172300D03*
D19*
X276428200Y-117372300D03*
%TD*%
D18*
%TO.C,D12\u002C2*%
X259346700Y-105677800D03*
D19*
X259346700Y-97877800D03*
%TD*%
D18*
%TO.C,D12\u002C1*%
X249313700Y-86488100D03*
D19*
X249313700Y-78688100D03*
%TD*%
D18*
%TO.C,D12\u002C0*%
X288414460Y-60656300D03*
D19*
X288414460Y-52856300D03*
%TD*%
D18*
%TO.C,D13\u002C2*%
X283159200Y-105741300D03*
D19*
X283159200Y-97941300D03*
%TD*%
D18*
%TO.C,D13\u002C1*%
X278269700Y-86437300D03*
D19*
X278269700Y-78637300D03*
%TD*%
D18*
%TO.C,D14\u002C1*%
X310934100Y-86437300D03*
D19*
X310934100Y-78637300D03*
%TD*%
D18*
%TO.C,D14\u002C3*%
X311188100Y-105677800D03*
D19*
X311188100Y-97877800D03*
%TD*%
D18*
%TO.C,D14\u002C0*%
X310984900Y-60656300D03*
D19*
X310984900Y-52856300D03*
%TD*%
D18*
%TO.C,D14\u002C6*%
X310870600Y-164224800D03*
D19*
X310870600Y-156424800D03*
%TD*%
D18*
%TO.C,D15\u002C0*%
X330796900Y-60656300D03*
D19*
X330796900Y-52856300D03*
%TD*%
D18*
%TO.C,D15\u002C1*%
X330238100Y-86437300D03*
D19*
X330238100Y-78637300D03*
%TD*%
D18*
%TO.C,D15\u002C3*%
X330238100Y-105677800D03*
D19*
X330238100Y-97877800D03*
%TD*%
D18*
%TO.C,D15\u002C5*%
X330174600Y-144920800D03*
D19*
X330174600Y-137120800D03*
%TD*%
D18*
%TO.C,D15\u002C6*%
X330174600Y-164224800D03*
D19*
X330174600Y-156424800D03*
%TD*%
D18*
%TO.C,D16\u002C6*%
X349478600Y-164224800D03*
D19*
X349478600Y-156424800D03*
%TD*%
D18*
%TO.C,D16\u002C0*%
X349846900Y-60656300D03*
D19*
X349846900Y-52856300D03*
%TD*%
D18*
%TO.C,D16\u002C1*%
X349542100Y-86437300D03*
D19*
X349542100Y-78637300D03*
%TD*%
D18*
%TO.C,D16\u002C5*%
X373164100Y-144412800D03*
D19*
X373164100Y-136612800D03*
%TD*%
D18*
%TO.C,D16\u002C3*%
X349796100Y-105677800D03*
D19*
X349796100Y-97877800D03*
%TD*%
D18*
%TO.C,D16\u002C4*%
X373418100Y-125108800D03*
D19*
X373418100Y-117308800D03*
%TD*%
D18*
%TO.C,D17\u002C3*%
X373418100Y-105804800D03*
D19*
X373418100Y-98004800D03*
%TD*%
D18*
%TO.C,D17\u002C1*%
X373418100Y-86437300D03*
D19*
X373418100Y-78637300D03*
%TD*%
D18*
%TO.C,D17\u002C6*%
X383197100Y-163767600D03*
D19*
X383197100Y-155967600D03*
%TD*%
D18*
%TO.C,D17\u002C4*%
X392722100Y-125108800D03*
D19*
X392722100Y-117308800D03*
%TD*%
D18*
%TO.C,D17\u002C0*%
X373354600Y-60656300D03*
D19*
X373354600Y-52856300D03*
%TD*%
D18*
%TO.C,D17\u002C5*%
X392722100Y-144412800D03*
D19*
X392722100Y-136612800D03*
%TD*%
D18*
%TO.C,D18\u002C1*%
X392722100Y-86488100D03*
D19*
X392722100Y-78688100D03*
%TD*%
D18*
%TO.C,D18\u002C6*%
X412026100Y-163716800D03*
D19*
X412026100Y-155916800D03*
%TD*%
D18*
%TO.C,D18\u002C3*%
X392722100Y-105804800D03*
D19*
X392722100Y-98004800D03*
%TD*%
D18*
%TO.C,D18\u002C0*%
X392658600Y-60656300D03*
D19*
X392658600Y-52856300D03*
%TD*%
D18*
%TO.C,D18\u002C5*%
X412026100Y-144412800D03*
D19*
X412026100Y-136612800D03*
%TD*%
D18*
%TO.C,D18\u002C4*%
X412026100Y-125045300D03*
D19*
X412026100Y-117245300D03*
%TD*%
D18*
%TO.C,D19\u002C4*%
X431330100Y-115126600D03*
D19*
X431330100Y-107326600D03*
%TD*%
D18*
%TO.C,D19\u002C0*%
X411962600Y-60656300D03*
D19*
X411962600Y-52856300D03*
%TD*%
D18*
%TO.C,D19\u002C3*%
X412026100Y-105804800D03*
D19*
X412026100Y-98004800D03*
%TD*%
D18*
%TO.C,D19\u002C1*%
X412026100Y-86437300D03*
D19*
X412026100Y-78637300D03*
%TD*%
D18*
%TO.C,D19\u002C6*%
X431584100Y-154064800D03*
D19*
X431584100Y-146264800D03*
%TD*%
D18*
%TO.C,D20\u002C1*%
X431330100Y-86437300D03*
D19*
X431330100Y-78637300D03*
%TD*%
D18*
%TO.C,D20\u002C0*%
X431266600Y-60707100D03*
D19*
X431266600Y-52907100D03*
%TD*%
D15*
%TO.C,K0\u002C0*%
X21158200Y-55486300D03*
X31318200Y-55486300D03*
D16*
X26238200Y-55486300D03*
D17*
X23698200Y-60566300D03*
X30048200Y-58026300D03*
%TD*%
D15*
%TO.C,K0\u002C1*%
X21094700Y-81330800D03*
X31254700Y-81330800D03*
D16*
X26174700Y-81330800D03*
D17*
X23634700Y-86410800D03*
X29984700Y-83870800D03*
%TD*%
D15*
%TO.C,K0\u002C5*%
X23507700Y-159181800D03*
X33667700Y-159181800D03*
D16*
X28587700Y-159181800D03*
D17*
X26047700Y-164261800D03*
X32397700Y-161721800D03*
%TD*%
D15*
%TO.C,K0\u002C4*%
X32905700Y-139814300D03*
X43065700Y-139814300D03*
D16*
X37985700Y-139814300D03*
D17*
X35445700Y-144894300D03*
X41795700Y-142354300D03*
%TD*%
D15*
%TO.C,K0\u002C3*%
X28181300Y-120040400D03*
X38341300Y-120040400D03*
D16*
X33261300Y-120040400D03*
D17*
X30721300Y-125120400D03*
X37071300Y-122580400D03*
%TD*%
D15*
%TO.C,K1\u002C4*%
X64020700Y-139801600D03*
X74180700Y-139801600D03*
D16*
X69100700Y-139801600D03*
D17*
X66560700Y-144881600D03*
X72910700Y-142341600D03*
%TD*%
D15*
%TO.C,K1\u002C5*%
X48082200Y-159232600D03*
X58242200Y-159232600D03*
D16*
X53162200Y-159232600D03*
D17*
X50622200Y-164312600D03*
X56972200Y-161772600D03*
%TD*%
D15*
%TO.C,K1\u002C3*%
X54622700Y-119989600D03*
X64782700Y-119989600D03*
D16*
X59702700Y-119989600D03*
D17*
X57162700Y-125069600D03*
X63512700Y-122529600D03*
%TD*%
D15*
%TO.C,K1\u002C2*%
X49733200Y-100558600D03*
X59893200Y-100558600D03*
D16*
X54813200Y-100558600D03*
D17*
X52273200Y-105638600D03*
X58623200Y-103098600D03*
%TD*%
D15*
%TO.C,K1\u002C1*%
X40309800Y-81330800D03*
X50469800Y-81330800D03*
D16*
X45389800Y-81330800D03*
D17*
X42849800Y-86410800D03*
X49199800Y-83870800D03*
%TD*%
D15*
%TO.C,K1\u002C0*%
X59496960Y-55537100D03*
X69656960Y-55537100D03*
D16*
X64576960Y-55537100D03*
D17*
X62036960Y-60617100D03*
X68386960Y-58077100D03*
%TD*%
D15*
%TO.C,K2\u002C5*%
X72466200Y-159232600D03*
X82626200Y-159232600D03*
D16*
X77546200Y-159232600D03*
D17*
X75006200Y-164312600D03*
X81356200Y-161772600D03*
%TD*%
D15*
%TO.C,K2\u002C3*%
X73926700Y-119989600D03*
X84086700Y-119989600D03*
D16*
X79006700Y-119989600D03*
D17*
X76466700Y-125069600D03*
X82816700Y-122529600D03*
%TD*%
D15*
%TO.C,K2\u002C1*%
X59512200Y-81318100D03*
X69672200Y-81318100D03*
D16*
X64592200Y-81318100D03*
D17*
X62052200Y-86398100D03*
X68402200Y-83858100D03*
%TD*%
D15*
%TO.C,K2\u002C4*%
X83324700Y-139801600D03*
X93484700Y-139801600D03*
D16*
X88404700Y-139801600D03*
D17*
X85864700Y-144881600D03*
X92214700Y-142341600D03*
%TD*%
D15*
%TO.C,K2\u002C2*%
X69037200Y-100558600D03*
X79197200Y-100558600D03*
D16*
X74117200Y-100558600D03*
D17*
X71577200Y-105638600D03*
X77927200Y-103098600D03*
%TD*%
D15*
%TO.C,K2\u002C0*%
X78800960Y-55537100D03*
X88960960Y-55537100D03*
D16*
X83880960Y-55537100D03*
D17*
X81340960Y-60617100D03*
X87690960Y-58077100D03*
%TD*%
D15*
%TO.C,K3\u002C5*%
X144348200Y-159232600D03*
X154508200Y-159232600D03*
D16*
X149428200Y-159232600D03*
D17*
X146888200Y-164312600D03*
X153238200Y-161772600D03*
%TD*%
D15*
%TO.C,K3\u002C4*%
X102628700Y-139801600D03*
X112788700Y-139801600D03*
D16*
X107708700Y-139801600D03*
D17*
X105168700Y-144881600D03*
X111518700Y-142341600D03*
%TD*%
D15*
%TO.C,K3\u002C1*%
X78308200Y-81318100D03*
X88468200Y-81318100D03*
D16*
X83388200Y-81318100D03*
D17*
X80848200Y-86398100D03*
X87198200Y-83858100D03*
%TD*%
D15*
%TO.C,K3\u002C0*%
X98104960Y-55537100D03*
X108264960Y-55537100D03*
D16*
X103184960Y-55537100D03*
D17*
X100644960Y-60617100D03*
X106994960Y-58077100D03*
%TD*%
D15*
%TO.C,K3\u002C3*%
X93230700Y-119989600D03*
X103390700Y-119989600D03*
D16*
X98310700Y-119989600D03*
D17*
X95770700Y-125069600D03*
X102120700Y-122529600D03*
%TD*%
D15*
%TO.C,K4\u002C1*%
X97612200Y-81318100D03*
X107772200Y-81318100D03*
D16*
X102692200Y-81318100D03*
D17*
X100152200Y-86398100D03*
X106502200Y-83858100D03*
%TD*%
D15*
%TO.C,K4\u002C2*%
X107645200Y-100558600D03*
X117805200Y-100558600D03*
D16*
X112725200Y-100558600D03*
D17*
X110185200Y-105638600D03*
X116535200Y-103098600D03*
%TD*%
D15*
%TO.C,K4\u002C3*%
X112534700Y-119989600D03*
X122694700Y-119989600D03*
D16*
X117614700Y-119989600D03*
D17*
X115074700Y-125069600D03*
X121424700Y-122529600D03*
%TD*%
D15*
%TO.C,K4\u002C4*%
X121932700Y-139801600D03*
X132092700Y-139801600D03*
D16*
X127012700Y-139801600D03*
D17*
X124472700Y-144881600D03*
X130822700Y-142341600D03*
%TD*%
D15*
%TO.C,K4\u002C0*%
X117408960Y-55537100D03*
X127568960Y-55537100D03*
D16*
X122488960Y-55537100D03*
D17*
X119948960Y-60617100D03*
X126298960Y-58077100D03*
%TD*%
D15*
%TO.C,K5\u002C0*%
X148904960Y-55537100D03*
X159064960Y-55537100D03*
D16*
X153984960Y-55537100D03*
D17*
X151444960Y-60617100D03*
X157794960Y-58077100D03*
%TD*%
D15*
%TO.C,K5\u002C2*%
X126949200Y-100558600D03*
X137109200Y-100558600D03*
D16*
X132029200Y-100558600D03*
D17*
X129489200Y-105638600D03*
X135839200Y-103098600D03*
%TD*%
D15*
%TO.C,K5\u002C1*%
X116916200Y-81318100D03*
X127076200Y-81318100D03*
D16*
X121996200Y-81318100D03*
D17*
X119456200Y-86398100D03*
X125806200Y-83858100D03*
%TD*%
D15*
%TO.C,K5\u002C3*%
X131838700Y-119989600D03*
X141998700Y-119989600D03*
D16*
X136918700Y-119989600D03*
D17*
X134378700Y-125069600D03*
X140728700Y-122529600D03*
%TD*%
D15*
%TO.C,K5\u002C4*%
X141236700Y-139801600D03*
X151396700Y-139801600D03*
D16*
X146316700Y-139801600D03*
D17*
X143776700Y-144881600D03*
X150126700Y-142341600D03*
%TD*%
D15*
%TO.C,K6\u002C3*%
X151142700Y-119989600D03*
X161302700Y-119989600D03*
D16*
X156222700Y-119989600D03*
D17*
X153682700Y-125069600D03*
X160032700Y-122529600D03*
%TD*%
D15*
%TO.C,K6\u002C4*%
X160540700Y-139801600D03*
X170700700Y-139801600D03*
D16*
X165620700Y-139801600D03*
D17*
X163080700Y-144881600D03*
X169430700Y-142341600D03*
%TD*%
D15*
%TO.C,K6\u002C1*%
X136220200Y-81318100D03*
X146380200Y-81318100D03*
D16*
X141300200Y-81318100D03*
D17*
X138760200Y-86398100D03*
X145110200Y-83858100D03*
%TD*%
D15*
%TO.C,K6\u002C2*%
X146253200Y-100558600D03*
X156413200Y-100558600D03*
D16*
X151333200Y-100558600D03*
D17*
X148793200Y-105638600D03*
X155143200Y-103098600D03*
%TD*%
D15*
%TO.C,K6\u002C0*%
X168208960Y-55537100D03*
X178368960Y-55537100D03*
D16*
X173288960Y-55537100D03*
D17*
X170748960Y-60617100D03*
X177098960Y-58077100D03*
%TD*%
D15*
%TO.C,K7\u002C2*%
X165557200Y-100558600D03*
X175717200Y-100558600D03*
D16*
X170637200Y-100558600D03*
D17*
X168097200Y-105638600D03*
X174447200Y-103098600D03*
%TD*%
D15*
%TO.C,K7\u002C1*%
X155524200Y-81318100D03*
X165684200Y-81318100D03*
D16*
X160604200Y-81318100D03*
D17*
X158064200Y-86398100D03*
X164414200Y-83858100D03*
%TD*%
D15*
%TO.C,K7\u002C3*%
X170446700Y-119989600D03*
X180606700Y-119989600D03*
D16*
X175526700Y-119989600D03*
D17*
X172986700Y-125069600D03*
X179336700Y-122529600D03*
%TD*%
D15*
%TO.C,K7\u002C4*%
X179844700Y-139801600D03*
X190004700Y-139801600D03*
D16*
X184924700Y-139801600D03*
D17*
X182384700Y-144881600D03*
X188734700Y-142341600D03*
%TD*%
D15*
%TO.C,K8\u002C1*%
X174828200Y-81318100D03*
X184988200Y-81318100D03*
D16*
X179908200Y-81318100D03*
D17*
X177368200Y-86398100D03*
X183718200Y-83858100D03*
%TD*%
D15*
%TO.C,K8\u002C3*%
X189750700Y-119989600D03*
X199910700Y-119989600D03*
D16*
X194830700Y-119989600D03*
D17*
X192290700Y-125069600D03*
X198640700Y-122529600D03*
%TD*%
D15*
%TO.C,K8\u002C4*%
X199148700Y-139801600D03*
X209308700Y-139801600D03*
D16*
X204228700Y-139801600D03*
D17*
X201688700Y-144881600D03*
X208038700Y-142341600D03*
%TD*%
D15*
%TO.C,K8\u002C5*%
X216077800Y-159232600D03*
X226237800Y-159232600D03*
D16*
X221157800Y-159232600D03*
D17*
X218617800Y-164312600D03*
X224967800Y-161772600D03*
%TD*%
D15*
%TO.C,K8\u002C2*%
X184861200Y-100558600D03*
X195021200Y-100558600D03*
D16*
X189941200Y-100558600D03*
D17*
X187401200Y-105638600D03*
X193751200Y-103098600D03*
%TD*%
D15*
%TO.C,K9\u002C0*%
X233232960Y-55537100D03*
X243392960Y-55537100D03*
D16*
X238312960Y-55537100D03*
D17*
X235772960Y-60617100D03*
X242122960Y-58077100D03*
%TD*%
D15*
%TO.C,K9\u002C5*%
X240233200Y-159232600D03*
X250393200Y-159232600D03*
D16*
X245313200Y-159232600D03*
D17*
X242773200Y-164312600D03*
X249123200Y-161772600D03*
%TD*%
D15*
%TO.C,K9\u002C1*%
X194132200Y-81318100D03*
X204292200Y-81318100D03*
D16*
X199212200Y-81318100D03*
D17*
X196672200Y-86398100D03*
X203022200Y-83858100D03*
%TD*%
D15*
%TO.C,K9\u002C2*%
X204165200Y-100558600D03*
X214325200Y-100558600D03*
D16*
X209245200Y-100558600D03*
D17*
X206705200Y-105638600D03*
X213055200Y-103098600D03*
%TD*%
D15*
%TO.C,K9\u002C4*%
X218452700Y-139801600D03*
X228612700Y-139801600D03*
D16*
X223532700Y-139801600D03*
D17*
X220992700Y-144881600D03*
X227342700Y-142341600D03*
%TD*%
D15*
%TO.C,K9\u002C3*%
X209054700Y-119989600D03*
X219214700Y-119989600D03*
D16*
X214134700Y-119989600D03*
D17*
X211594700Y-125069600D03*
X217944700Y-122529600D03*
%TD*%
D15*
%TO.C,K10\u002C2*%
X223469200Y-100558600D03*
X233629200Y-100558600D03*
D16*
X228549200Y-100558600D03*
D17*
X226009200Y-105638600D03*
X232359200Y-103098600D03*
%TD*%
D15*
%TO.C,K10\u002C0*%
X252536960Y-55537100D03*
X262696960Y-55537100D03*
D16*
X257616960Y-55537100D03*
D17*
X255076960Y-60617100D03*
X261426960Y-58077100D03*
%TD*%
D15*
%TO.C,K10\u002C5*%
X264426700Y-159232600D03*
X274586700Y-159232600D03*
D16*
X269506700Y-159232600D03*
D17*
X266966700Y-164312600D03*
X273316700Y-161772600D03*
%TD*%
D15*
%TO.C,K10\u002C1*%
X213436200Y-81318100D03*
X223596200Y-81318100D03*
D16*
X218516200Y-81318100D03*
D17*
X215976200Y-86398100D03*
X222326200Y-83858100D03*
%TD*%
D15*
%TO.C,K10\u002C4*%
X237756700Y-139801600D03*
X247916700Y-139801600D03*
D16*
X242836700Y-139801600D03*
D17*
X240296700Y-144881600D03*
X246646700Y-142341600D03*
%TD*%
D15*
%TO.C,K11\u002C3*%
X247662700Y-119989600D03*
X257822700Y-119989600D03*
D16*
X252742700Y-119989600D03*
D17*
X250202700Y-125069600D03*
X256552700Y-122529600D03*
%TD*%
D15*
%TO.C,K11\u002C2*%
X242773200Y-100558600D03*
X252933200Y-100558600D03*
D16*
X247853200Y-100558600D03*
D17*
X245313200Y-105638600D03*
X251663200Y-103098600D03*
%TD*%
D15*
%TO.C,K11\u002C5*%
X288493200Y-159232600D03*
X298653200Y-159232600D03*
D16*
X293573200Y-159232600D03*
D17*
X291033200Y-164312600D03*
X297383200Y-161772600D03*
%TD*%
D15*
%TO.C,K11\u002C1*%
X232740200Y-81318100D03*
X242900200Y-81318100D03*
D16*
X237820200Y-81318100D03*
D17*
X235280200Y-86398100D03*
X241630200Y-83858100D03*
%TD*%
D15*
%TO.C,K11\u002C0*%
X271840960Y-55537100D03*
X282000960Y-55537100D03*
D16*
X276920960Y-55537100D03*
D17*
X274380960Y-60617100D03*
X280730960Y-58077100D03*
%TD*%
D15*
%TO.C,K12\u002C2*%
X262077200Y-100558600D03*
X272237200Y-100558600D03*
D16*
X267157200Y-100558600D03*
D17*
X264617200Y-105638600D03*
X270967200Y-103098600D03*
%TD*%
D15*
%TO.C,K12\u002C0*%
X291144960Y-55537100D03*
X301304960Y-55537100D03*
D16*
X296224960Y-55537100D03*
D17*
X293684960Y-60617100D03*
X300034960Y-58077100D03*
%TD*%
D15*
%TO.C,K12\u002C1*%
X252044200Y-81318100D03*
X262204200Y-81318100D03*
D16*
X257124200Y-81318100D03*
D17*
X254584200Y-86398100D03*
X260934200Y-83858100D03*
%TD*%
D15*
%TO.C,K13\u002C2*%
X286016700Y-100571300D03*
X296176700Y-100571300D03*
D16*
X291096700Y-100571300D03*
D17*
X288556700Y-105651300D03*
X294906700Y-103111300D03*
%TD*%
D15*
%TO.C,K14\u002C6*%
X313601100Y-159105600D03*
X323761100Y-159105600D03*
D16*
X318681100Y-159105600D03*
D17*
X316141100Y-164185600D03*
X322491100Y-161645600D03*
%TD*%
D15*
%TO.C,K14\u002C3*%
X313664600Y-100558600D03*
X323824600Y-100558600D03*
D16*
X318744600Y-100558600D03*
D17*
X316204600Y-105638600D03*
X322554600Y-103098600D03*
%TD*%
D15*
%TO.C,K14\u002C0*%
X313715400Y-55537100D03*
X323875400Y-55537100D03*
D16*
X318795400Y-55537100D03*
D17*
X316255400Y-60617100D03*
X322605400Y-58077100D03*
%TD*%
D15*
%TO.C,K15\u002C6*%
X332905100Y-159105600D03*
X343065100Y-159105600D03*
D16*
X337985100Y-159105600D03*
D17*
X335445100Y-164185600D03*
X341795100Y-161645600D03*
%TD*%
D15*
%TO.C,K15\u002C3*%
X332968600Y-100558600D03*
X343128600Y-100558600D03*
D16*
X338048600Y-100558600D03*
D17*
X335508600Y-105638600D03*
X341858600Y-103098600D03*
%TD*%
D15*
%TO.C,K15\u002C5*%
X332905100Y-139801600D03*
X343065100Y-139801600D03*
D16*
X337985100Y-139801600D03*
D17*
X335445100Y-144881600D03*
X341795100Y-142341600D03*
%TD*%
D15*
%TO.C,K15\u002C1*%
X332968600Y-81318100D03*
X343128600Y-81318100D03*
D16*
X338048600Y-81318100D03*
D17*
X335508600Y-86398100D03*
X341858600Y-83858100D03*
%TD*%
D15*
%TO.C,K15\u002C0*%
X333273400Y-55537100D03*
X343433400Y-55537100D03*
D16*
X338353400Y-55537100D03*
D17*
X335813400Y-60617100D03*
X342163400Y-58077100D03*
%TD*%
D15*
%TO.C,K16\u002C4*%
X376148600Y-119989600D03*
X386308600Y-119989600D03*
D16*
X381228600Y-119989600D03*
D17*
X378688600Y-125069600D03*
X385038600Y-122529600D03*
%TD*%
D15*
%TO.C,K16\u002C5*%
X376148600Y-139293600D03*
X386308600Y-139293600D03*
D16*
X381228600Y-139293600D03*
D17*
X378688600Y-144373600D03*
X385038600Y-141833600D03*
%TD*%
D15*
%TO.C,K16\u002C3*%
X352272600Y-100558600D03*
X362432600Y-100558600D03*
D16*
X357352600Y-100558600D03*
D17*
X354812600Y-105638600D03*
X361162600Y-103098600D03*
%TD*%
D15*
%TO.C,K16\u002C0*%
X352577400Y-55537100D03*
X362737400Y-55537100D03*
D16*
X357657400Y-55537100D03*
D17*
X355117400Y-60617100D03*
X361467400Y-58077100D03*
%TD*%
D15*
%TO.C,K16\u002C6*%
X352209100Y-159105600D03*
X362369100Y-159105600D03*
D16*
X357289100Y-159105600D03*
D17*
X354749100Y-164185600D03*
X361099100Y-161645600D03*
%TD*%
D15*
%TO.C,K17\u002C6*%
X385673600Y-158597600D03*
X395833600Y-158597600D03*
D16*
X390753600Y-158597600D03*
D17*
X388213600Y-163677600D03*
X394563600Y-161137600D03*
%TD*%
D15*
%TO.C,K17\u002C5*%
X395452600Y-139293600D03*
X405612600Y-139293600D03*
D16*
X400532600Y-139293600D03*
D17*
X397992600Y-144373600D03*
X404342600Y-141833600D03*
%TD*%
D15*
%TO.C,K17\u002C4*%
X395452600Y-119989600D03*
X405612600Y-119989600D03*
D16*
X400532600Y-119989600D03*
D17*
X397992600Y-125069600D03*
X404342600Y-122529600D03*
%TD*%
D15*
%TO.C,K17\u002C3*%
X376148600Y-100685600D03*
X386308600Y-100685600D03*
D16*
X381228600Y-100685600D03*
D17*
X378688600Y-105765600D03*
X385038600Y-103225600D03*
%TD*%
D15*
%TO.C,K17\u002C1*%
X376148600Y-81318100D03*
X386308600Y-81318100D03*
D16*
X381228600Y-81318100D03*
D17*
X378688600Y-86398100D03*
X385038600Y-83858100D03*
%TD*%
D15*
%TO.C,K17\u002C0*%
X376085100Y-55537100D03*
X386245100Y-55537100D03*
D16*
X381165100Y-55537100D03*
D17*
X378625100Y-60617100D03*
X384975100Y-58077100D03*
%TD*%
D15*
%TO.C,K18\u002C6*%
X414756600Y-158597600D03*
X424916600Y-158597600D03*
D16*
X419836600Y-158597600D03*
D17*
X417296600Y-163677600D03*
X423646600Y-161137600D03*
%TD*%
D15*
%TO.C,K18\u002C3*%
X395452600Y-100685600D03*
X405612600Y-100685600D03*
D16*
X400532600Y-100685600D03*
D17*
X397992600Y-105765600D03*
X404342600Y-103225600D03*
%TD*%
D15*
%TO.C,K18\u002C1*%
X395452600Y-81318100D03*
X405612600Y-81318100D03*
D16*
X400532600Y-81318100D03*
D17*
X397992600Y-86398100D03*
X404342600Y-83858100D03*
%TD*%
D15*
%TO.C,K18\u002C5*%
X414756600Y-139293600D03*
X424916600Y-139293600D03*
D16*
X419836600Y-139293600D03*
D17*
X417296600Y-144373600D03*
X423646600Y-141833600D03*
%TD*%
D15*
%TO.C,K19\u002C0*%
X414693100Y-55537100D03*
X424853100Y-55537100D03*
D16*
X419773100Y-55537100D03*
D17*
X417233100Y-60617100D03*
X423583100Y-58077100D03*
%TD*%
D15*
%TO.C,K19\u002C3*%
X414756600Y-100685600D03*
X424916600Y-100685600D03*
D16*
X419836600Y-100685600D03*
D17*
X417296600Y-105765600D03*
X423646600Y-103225600D03*
%TD*%
D15*
%TO.C,K19\u002C1*%
X414756600Y-81318100D03*
X424916600Y-81318100D03*
D16*
X419836600Y-81318100D03*
D17*
X417296600Y-86398100D03*
X423646600Y-83858100D03*
%TD*%
D15*
%TO.C,K20\u002C0*%
X433997100Y-55537100D03*
X444157100Y-55537100D03*
D16*
X439077100Y-55537100D03*
D17*
X436537100Y-60617100D03*
X442887100Y-58077100D03*
%TD*%
D15*
%TO.C,K20\u002C1*%
X434060600Y-81318100D03*
X444220600Y-81318100D03*
D16*
X439140600Y-81318100D03*
D17*
X436600600Y-86398100D03*
X442950600Y-83858100D03*
%TD*%
D20*
%TO.C,J1*%
X344271600Y-26858200D03*
X344271600Y-21808200D03*
X346811600Y-26858200D03*
X346811600Y-21808200D03*
X349351600Y-26858200D03*
X349351600Y-21808200D03*
X351891600Y-26858200D03*
X351891600Y-21808200D03*
X354431600Y-26858200D03*
X354431600Y-21808200D03*
X356971600Y-26858200D03*
X356971600Y-21808200D03*
X359511600Y-26858200D03*
X359511600Y-21808200D03*
X362051600Y-26858200D03*
X362051600Y-21808200D03*
X364591600Y-26858200D03*
X364591600Y-21808200D03*
X367131600Y-26858200D03*
X367131600Y-21808200D03*
X369671600Y-26858200D03*
X369671600Y-21808200D03*
X372211600Y-26858200D03*
X372211600Y-21808200D03*
X374751600Y-26858200D03*
X374751600Y-21808200D03*
X377291600Y-26858200D03*
X377291600Y-21808200D03*
X379831600Y-26858200D03*
X379831600Y-21808200D03*
X382371600Y-26858200D03*
X382371600Y-21808200D03*
X384911600Y-26858200D03*
X384911600Y-21808200D03*
X387451600Y-26858200D03*
X387451600Y-21808200D03*
X389991600Y-26858200D03*
X389991600Y-21808200D03*
X392531600Y-26858200D03*
X392531600Y-21808200D03*
%TD*%
M02*
