M48
; DRILL file {KiCad (5.1.9)-1} date 06/08/21 21:52:22
; FORMAT={-:-/ absolute / inch / decimal}
; #@! TF.CreationDate,2021-06-08T21:52:22+10:00
; #@! TF.GenerationSoftware,Kicad,Pcbnew,(5.1.9)-1
; #@! TF.FileFunction,Plated,1,4,PTH
FMAT,2
INCH
T1C0.0157
T2C0.0276
T3C0.0300
T4C0.0315
%
G90
G05
T1
X1.358Y-3.06
X1.3753Y-3.8107
X1.709Y-6.101
X1.84Y-4.56
X1.84Y-5.364
X1.8595Y-2.0235
X2.89Y-3.04
X3.1Y-5.3403
X3.1842Y-3.7983
X3.3512Y-4.5663
X3.513Y-2.032
X4.4261Y-3.0439
X4.522Y-6.108
X4.6101Y-5.3501
X4.678Y-3.794
X4.8211Y-4.5489
X5.5265Y-2.0285
X5.944Y-3.054
X6.2229Y-3.7991
X6.49Y-4.56
X6.878Y-5.35
X6.878Y-6.112
X7.802Y-3.796
X8.012Y-4.576
X8.1775Y-3.0325
X8.406Y-5.34
X8.927Y-2.024
X9.8567Y-1.9993
X10.112Y-6.126
X10.44Y-5.354
X10.646Y-4.564
X10.705Y-3.049
X10.863Y-3.801
X11.4525Y-1.685
X11.5175Y-1.685
X12.055Y-1.815
X12.8299Y-2.2865
X12.9321Y-3.0379
X12.9321Y-3.7954
X12.9637Y-2.0063
X13.5999Y-2.2865
X13.6475Y-1.815
X13.6887Y-5.3487
X13.8125Y-1.8125
X14.4637Y-1.8187
X14.5637Y-6.0962
X14.615Y-2.7075
X14.85Y-2.655
X14.8855Y-2.5775
X15.2854Y-2.2865
X15.3875Y-2.025
X15.3875Y-2.7675
X15.3875Y-3.04
X15.3875Y-3.7975
X15.3875Y-4.565
X15.5925Y-2.8025
X15.845Y-1.8
X15.96Y-2.1175
X16.0454Y-2.2865
X16.1075Y-2.145
X16.1425Y-5.3275
X16.1425Y-6.0095
X16.392Y-3.726
X16.7805Y-4.3975
X16.8054Y-2.2865
X17.0866Y-2.9674
X17.192Y-4.16
X17.506Y-5.64
X17.5654Y-2.2865
T2
X0.7305Y-3.0985
X0.7305Y-3.4055
X0.733Y-2.081
X0.733Y-2.388
X0.8255Y-6.1635
X0.8255Y-6.4705
X0.908Y-3.8535
X0.908Y-4.1605
X1.008Y-4.6235
X1.008Y-4.9305
X1.1955Y-5.401
X1.1955Y-5.708
X1.4905Y-3.0985
X1.4905Y-3.4055
X1.7855Y-6.1635
X1.7855Y-6.4705
X1.8505Y-3.8535
X1.8505Y-4.1605
X2.043Y-4.6185
X2.043Y-4.9255
X2.2349Y-2.083
X2.2349Y-2.39
X2.2355Y-3.096
X2.2355Y-3.403
X2.413Y-5.3985
X2.413Y-5.7055
X2.6105Y-3.8535
X2.6105Y-4.1605
X2.7455Y-6.1635
X2.7455Y-6.4705
X2.803Y-4.6185
X2.803Y-4.9255
X2.9755Y-3.096
X2.9755Y-3.403
X2.9949Y-2.081
X2.9949Y-2.388
X3.173Y-5.3985
X3.173Y-5.7055
X3.3705Y-3.8535
X3.3705Y-4.1605
X3.563Y-4.6185
X3.563Y-4.9255
X3.7355Y-3.096
X3.7355Y-3.403
X3.7549Y-2.081
X3.7549Y-2.388
X3.933Y-5.3985
X3.933Y-5.7055
X4.1305Y-3.8535
X4.1305Y-4.1605
X4.323Y-4.6185
X4.323Y-4.9255
X4.4955Y-3.096
X4.4955Y-3.403
X4.5149Y-2.081
X4.5149Y-2.388
X4.693Y-5.3985
X4.693Y-5.7055
X4.8905Y-3.8535
X4.8905Y-4.1605
X5.083Y-4.6205
X5.083Y-4.9275
X5.2555Y-3.096
X5.2555Y-3.403
X5.453Y-5.4005
X5.453Y-5.7075
X5.5755Y-6.1635
X5.5755Y-6.4705
X5.6505Y-3.8535
X5.6505Y-4.1605
X5.7549Y-2.081
X5.7549Y-2.388
X5.843Y-4.6185
X5.843Y-4.9255
X6.0155Y-3.096
X6.0155Y-3.403
X6.213Y-5.3985
X6.213Y-5.7055
X6.4105Y-3.8555
X6.4105Y-4.1625
X6.5149Y-2.081
X6.5149Y-2.388
X6.603Y-4.6185
X6.603Y-4.9255
X6.7755Y-3.096
X6.7755Y-3.403
X6.973Y-5.4005
X6.973Y-5.7075
X7.1705Y-3.8535
X7.1705Y-4.1605
X7.2749Y-2.081
X7.2749Y-2.388
X7.363Y-4.6185
X7.363Y-4.9255
X7.5355Y-3.098
X7.5355Y-3.405
X7.733Y-5.3985
X7.733Y-5.7055
X7.9305Y-3.8535
X7.9305Y-4.1605
X8.0349Y-2.083
X8.0349Y-2.39
X8.123Y-4.6185
X8.123Y-4.9255
X8.2955Y-3.096
X8.2955Y-3.403
X8.4005Y-6.166
X8.4005Y-6.473
X8.493Y-5.3985
X8.493Y-5.7055
X8.6905Y-3.8555
X8.6905Y-4.1625
X8.883Y-4.6185
X8.883Y-4.9255
X9.0555Y-3.096
X9.0555Y-3.403
X9.0749Y-2.081
X9.0749Y-2.388
X9.253Y-5.4005
X9.253Y-5.7075
X9.3505Y-6.1635
X9.3505Y-6.4705
X9.4505Y-3.8535
X9.4505Y-4.1605
X9.643Y-4.6185
X9.643Y-4.9255
X9.8155Y-3.098
X9.8155Y-3.405
X9.8349Y-2.081
X9.8349Y-2.388
X10.2105Y-3.8535
X10.2105Y-4.1605
X10.303Y-6.1635
X10.303Y-6.4705
X10.5949Y-2.081
X10.5949Y-2.388
X10.693Y-5.3985
X10.693Y-5.7055
X10.883Y-4.621
X10.883Y-4.928
X10.9555Y-3.096
X10.9555Y-3.403
X11.148Y-3.856
X11.148Y-4.163
X11.2505Y-6.1635
X11.2505Y-6.4705
X11.3549Y-2.081
X11.3549Y-2.388
X12.239Y-6.1585
X12.239Y-6.4655
X12.2415Y-3.096
X12.2415Y-3.403
X12.2435Y-2.081
X12.2435Y-2.388
X12.2515Y-3.8535
X12.2515Y-4.1605
X12.999Y-5.3985
X12.999Y-5.7055
X12.999Y-6.1585
X12.999Y-6.4655
X13.0015Y-3.096
X13.0015Y-3.403
X13.0015Y-3.8535
X13.0015Y-4.1605
X13.0235Y-2.081
X13.0235Y-2.388
X13.759Y-6.1585
X13.759Y-6.4655
X13.7615Y-3.096
X13.7615Y-3.403
X13.7715Y-3.8535
X13.7715Y-4.1605
X13.7735Y-2.081
X13.7735Y-2.388
X14.6915Y-5.3785
X14.6915Y-5.6855
X14.699Y-2.081
X14.699Y-2.388
X14.7015Y-3.096
X14.7015Y-3.403
X14.7015Y-3.8585
X14.7015Y-4.1655
X14.7015Y-4.6185
X14.7015Y-4.9255
X15.0865Y-6.1405
X15.0865Y-6.4475
X15.459Y-2.081
X15.459Y-2.388
X15.4615Y-3.098
X15.4615Y-3.405
X15.4615Y-3.8585
X15.4615Y-4.1655
X15.4615Y-4.6185
X15.4615Y-4.9255
X15.4615Y-5.3785
X15.4615Y-5.6855
X16.219Y-2.081
X16.219Y-2.388
X16.2215Y-3.096
X16.2215Y-3.403
X16.2215Y-3.8585
X16.2215Y-4.1655
X16.2215Y-4.616
X16.2215Y-4.923
X16.2215Y-5.3785
X16.2215Y-5.6855
X16.2215Y-6.1385
X16.2215Y-6.4455
X16.979Y-2.083
X16.979Y-2.39
X16.9815Y-3.096
X16.9815Y-3.403
X16.9815Y-4.2255
X16.9815Y-4.5325
X16.9915Y-5.7585
X16.9915Y-6.0655
T3
X2.0269Y-1.7571
X11.61Y-3.63
X16.783Y-0.999
X17.098Y-0.999
X17.7927Y-5.6273
T4
X13.466Y-1.238
X13.5447Y-1.238
X13.6235Y-1.238
X13.7022Y-1.238
X13.781Y-1.238
X13.8597Y-1.238
X13.9384Y-1.238
X14.0172Y-1.238
X14.0959Y-1.238
X14.1747Y-1.238
X14.2534Y-1.238
X14.3321Y-1.238
X14.4109Y-1.238
X14.4896Y-1.238
X14.5684Y-1.238
X14.6471Y-1.238
X14.7258Y-1.238
X14.8046Y-1.238
X14.8833Y-1.238
X14.9621Y-1.238
X15.0408Y-1.238
X15.1195Y-1.238
X15.1983Y-1.238
X15.277Y-1.238
X15.3558Y-1.238
X15.4345Y-1.238
X15.5132Y-1.238
X15.592Y-1.238
X15.6707Y-1.238
X15.7495Y-1.238
X15.8282Y-1.238
X15.9069Y-1.238
X15.9857Y-1.238
X16.0644Y-1.238
X16.1432Y-1.238
X16.2219Y-1.238
T0
M30
