%TF.GenerationSoftware,KiCad,Pcbnew,(5.1.9)-1*%
%TF.CreationDate,2021-05-01T00:42:49+10:00*%
%TF.ProjectId,RedPyKeeb_mainboard,52656450-794b-4656-9562-5f6d61696e62,rev?*%
%TF.SameCoordinates,Original*%
%TF.FileFunction,Copper,L1,Top*%
%TF.FilePolarity,Positive*%
%FSLAX46Y46*%
G04 Gerber Fmt 4.6, Leading zero omitted, Abs format (unit mm)*
G04 Created by KiCad (PCBNEW (5.1.9)-1) date 2021-05-01 00:42:49*
%MOMM*%
%LPD*%
G01*
G04 APERTURE LIST*
%TA.AperFunction,ComponentPad*%
%ADD10O,1.350000X1.350000*%
%TD*%
%TA.AperFunction,ComponentPad*%
%ADD11R,1.350000X1.350000*%
%TD*%
%TA.AperFunction,SMDPad,CuDef*%
%ADD12R,0.800000X0.500000*%
%TD*%
%TA.AperFunction,SMDPad,CuDef*%
%ADD13R,0.800000X0.300000*%
%TD*%
%TA.AperFunction,SMDPad,CuDef*%
%ADD14R,0.500000X1.000000*%
%TD*%
%TA.AperFunction,SMDPad,CuDef*%
%ADD15R,0.500000X1.580000*%
%TD*%
%TA.AperFunction,ComponentPad*%
%ADD16C,1.600000*%
%TD*%
%TA.AperFunction,ComponentPad*%
%ADD17R,1.600000X1.600000*%
%TD*%
%TA.AperFunction,ViaPad*%
%ADD18C,0.800000*%
%TD*%
%TA.AperFunction,ViaPad*%
%ADD19C,1.524000*%
%TD*%
%TA.AperFunction,Conductor*%
%ADD20C,0.500000*%
%TD*%
%TA.AperFunction,Conductor*%
%ADD21C,0.508000*%
%TD*%
%TA.AperFunction,Conductor*%
%ADD22C,0.381000*%
%TD*%
%TA.AperFunction,Conductor*%
%ADD23C,3.048000*%
%TD*%
%TA.AperFunction,Conductor*%
%ADD24C,1.016000*%
%TD*%
%TA.AperFunction,Conductor*%
%ADD25C,1.524000*%
%TD*%
G04 APERTURE END LIST*
D10*
%TO.P,J1,36*%
%TO.N,GNDPWR*%
X412036400Y-31445200D03*
%TO.P,J1,35*%
%TO.N,LED_SCL_STATUS0*%
X410036400Y-31445200D03*
%TO.P,J1,34*%
%TO.N,LED_SDA_STATUS0*%
X408036400Y-31445200D03*
%TO.P,J1,33*%
%TO.N,MAIN_VBUS*%
X406036400Y-31445200D03*
%TO.P,J1,32*%
%TO.N,KEY_COL20*%
X404036400Y-31445200D03*
%TO.P,J1,31*%
%TO.N,KEY_COL19*%
X402036400Y-31445200D03*
%TO.P,J1,30*%
%TO.N,KEY_COL18*%
X400036400Y-31445200D03*
%TO.P,J1,29*%
%TO.N,KEY_COL17*%
X398036400Y-31445200D03*
%TO.P,J1,28*%
%TO.N,KEY_COL16*%
X396036400Y-31445200D03*
%TO.P,J1,27*%
%TO.N,KEY_COL15*%
X394036400Y-31445200D03*
%TO.P,J1,26*%
%TO.N,KEY_COL14*%
X392036400Y-31445200D03*
%TO.P,J1,25*%
%TO.N,KEY_COL13*%
X390036400Y-31445200D03*
%TO.P,J1,24*%
%TO.N,KEY_COL12*%
X388036400Y-31445200D03*
%TO.P,J1,23*%
%TO.N,KEY_COL11*%
X386036400Y-31445200D03*
%TO.P,J1,22*%
%TO.N,KEY_COL10*%
X384036400Y-31445200D03*
%TO.P,J1,21*%
%TO.N,KEY_COL9*%
X382036400Y-31445200D03*
%TO.P,J1,20*%
%TO.N,KEY_COL8*%
X380036400Y-31445200D03*
%TO.P,J1,19*%
%TO.N,KEY_COL7*%
X378036400Y-31445200D03*
%TO.P,J1,18*%
%TO.N,KEY_COL6*%
X376036400Y-31445200D03*
%TO.P,J1,17*%
%TO.N,KEY_COL5*%
X374036400Y-31445200D03*
%TO.P,J1,16*%
%TO.N,KEY_COL4*%
X372036400Y-31445200D03*
%TO.P,J1,15*%
%TO.N,KEY_COL3*%
X370036400Y-31445200D03*
%TO.P,J1,14*%
%TO.N,KEY_COL2*%
X368036400Y-31445200D03*
%TO.P,J1,13*%
%TO.N,KEY_COL1*%
X366036400Y-31445200D03*
%TO.P,J1,12*%
%TO.N,KEY_COL0*%
X364036400Y-31445200D03*
%TO.P,J1,11*%
%TO.N,GNDPWR*%
X362036400Y-31445200D03*
%TO.P,J1,10*%
%TO.N,LED_SCL_ROW0*%
X360036400Y-31445200D03*
%TO.P,J1,9*%
%TO.N,LED_SDA_ROW0*%
X358036400Y-31445200D03*
%TO.P,J1,8*%
%TO.N,MAIN_VBUS*%
X356036400Y-31445200D03*
%TO.P,J1,7*%
%TO.N,KEY_ROW6*%
X354036400Y-31445200D03*
%TO.P,J1,6*%
%TO.N,KEY_ROW5*%
X352036400Y-31445200D03*
%TO.P,J1,5*%
%TO.N,KEY_ROW4*%
X350036400Y-31445200D03*
%TO.P,J1,4*%
%TO.N,KEY_ROW3*%
X348036400Y-31445200D03*
%TO.P,J1,3*%
%TO.N,KEY_ROW2*%
X346036400Y-31445200D03*
%TO.P,J1,2*%
%TO.N,KEY_ROW1*%
X344036400Y-31445200D03*
D11*
%TO.P,J1,1*%
%TO.N,KEY_ROW0*%
X342036400Y-31445200D03*
%TD*%
D12*
%TO.P,LD3\u002C5\u002C1,1*%
%TO.N,MAIN_VBUS*%
X179805700Y-153249200D03*
D13*
%TO.P,LD3\u002C5\u002C1,2*%
%TO.N,Net-(LD3\u002C5\u002C1-Pad2)*%
X179805700Y-152349200D03*
D12*
%TO.P,LD3\u002C5\u002C1,3*%
%TO.N,Net-(LD3\u002C5\u002C1-Pad3)*%
X179805700Y-151449200D03*
D13*
%TO.P,LD3\u002C5\u002C1,5*%
%TO.N,Net-(LD3\u002C5\u002C1-Pad5)*%
X178105700Y-152349200D03*
D12*
%TO.P,LD3\u002C5\u002C1,4*%
%TO.N,Net-(LD3\u002C5\u002C1-Pad4)*%
X178105700Y-151449200D03*
%TO.P,LD3\u002C5\u002C1,7*%
%TO.N,N/C*%
X178105700Y-153249200D03*
D14*
%TO.P,LD3\u002C5\u002C1,8*%
X178955700Y-153179200D03*
D15*
%TO.P,LD3\u002C5\u002C1,6*%
%TO.N,GNDPWR*%
X178955700Y-151659200D03*
%TD*%
D12*
%TO.P,LD3\u002C5\u002C0,1*%
%TO.N,MAIN_VBUS*%
X115708800Y-153261900D03*
D13*
%TO.P,LD3\u002C5\u002C0,2*%
%TO.N,Net-(LD3\u002C5\u002C0-Pad2)*%
X115708800Y-152361900D03*
D12*
%TO.P,LD3\u002C5\u002C0,3*%
%TO.N,Net-(LD3\u002C5\u002C0-Pad3)*%
X115708800Y-151461900D03*
D13*
%TO.P,LD3\u002C5\u002C0,5*%
%TO.N,Net-(LD2\u002C5-Pad2)*%
X114008800Y-152361900D03*
D12*
%TO.P,LD3\u002C5\u002C0,4*%
%TO.N,Net-(LD2\u002C5-Pad3)*%
X114008800Y-151461900D03*
%TO.P,LD3\u002C5\u002C0,7*%
%TO.N,N/C*%
X114008800Y-153261900D03*
D14*
%TO.P,LD3\u002C5\u002C0,8*%
X114858800Y-153191900D03*
D15*
%TO.P,LD3\u002C5\u002C0,6*%
%TO.N,GNDPWR*%
X114858800Y-151671900D03*
%TD*%
D12*
%TO.P,LD20\u002C7,1*%
%TO.N,MAIN_VBUS*%
X440181100Y-68375100D03*
D13*
%TO.P,LD20\u002C7,2*%
%TO.N,N/C*%
X440181100Y-67475100D03*
D12*
%TO.P,LD20\u002C7,3*%
X440181100Y-66575100D03*
D13*
%TO.P,LD20\u002C7,5*%
%TO.N,Net-(LD19\u002C7-Pad2)*%
X438481100Y-67475100D03*
D12*
%TO.P,LD20\u002C7,4*%
%TO.N,Net-(LD19\u002C7-Pad3)*%
X438481100Y-66575100D03*
%TO.P,LD20\u002C7,7*%
%TO.N,N/C*%
X438481100Y-68375100D03*
D14*
%TO.P,LD20\u002C7,8*%
X439331100Y-68305100D03*
D15*
%TO.P,LD20\u002C7,6*%
%TO.N,GNDPWR*%
X439331100Y-66785100D03*
%TD*%
D12*
%TO.P,LD20\u002C0,1*%
%TO.N,MAIN_VBUS*%
X439927100Y-49464800D03*
D13*
%TO.P,LD20\u002C0,2*%
%TO.N,Net-(LD0\u002C1-Pad5)*%
X439927100Y-48564800D03*
D12*
%TO.P,LD20\u002C0,3*%
%TO.N,Net-(LD0\u002C1-Pad4)*%
X439927100Y-47664800D03*
D13*
%TO.P,LD20\u002C0,5*%
%TO.N,Net-(LD19\u002C0-Pad2)*%
X438227100Y-48564800D03*
D12*
%TO.P,LD20\u002C0,4*%
%TO.N,Net-(LD19\u002C0-Pad3)*%
X438227100Y-47664800D03*
%TO.P,LD20\u002C0,7*%
%TO.N,N/C*%
X438227100Y-49464800D03*
D14*
%TO.P,LD20\u002C0,8*%
X439077100Y-49394800D03*
D15*
%TO.P,LD20\u002C0,6*%
%TO.N,GNDPWR*%
X439077100Y-47874800D03*
%TD*%
D12*
%TO.P,LD20\u002C1,1*%
%TO.N,MAIN_VBUS*%
X439990600Y-75360100D03*
D13*
%TO.P,LD20\u002C1,2*%
%TO.N,Net-(LD0\u002C2-Pad5)*%
X439990600Y-74460100D03*
D12*
%TO.P,LD20\u002C1,3*%
%TO.N,Net-(LD0\u002C2-Pad4)*%
X439990600Y-73560100D03*
D13*
%TO.P,LD20\u002C1,5*%
%TO.N,Net-(LD19\u002C1-Pad2)*%
X438290600Y-74460100D03*
D12*
%TO.P,LD20\u002C1,4*%
%TO.N,Net-(LD19\u002C1-Pad3)*%
X438290600Y-73560100D03*
%TO.P,LD20\u002C1,7*%
%TO.N,N/C*%
X438290600Y-75360100D03*
D14*
%TO.P,LD20\u002C1,8*%
X439140600Y-75290100D03*
D15*
%TO.P,LD20\u002C1,6*%
%TO.N,GNDPWR*%
X439140600Y-73770100D03*
%TD*%
D12*
%TO.P,LD19\u002C6,1*%
%TO.N,MAIN_VBUS*%
X440244600Y-145019600D03*
D13*
%TO.P,LD19\u002C6,2*%
%TO.N,N/C*%
X440244600Y-144119600D03*
D12*
%TO.P,LD19\u002C6,3*%
X440244600Y-143219600D03*
D13*
%TO.P,LD19\u002C6,5*%
%TO.N,Net-(LD18\u002C6-Pad2)*%
X438544600Y-144119600D03*
D12*
%TO.P,LD19\u002C6,4*%
%TO.N,Net-(LD18\u002C6-Pad3)*%
X438544600Y-143219600D03*
%TO.P,LD19\u002C6,7*%
%TO.N,N/C*%
X438544600Y-145019600D03*
D14*
%TO.P,LD19\u002C6,8*%
X439394600Y-144949600D03*
D15*
%TO.P,LD19\u002C6,6*%
%TO.N,GNDPWR*%
X439394600Y-143429600D03*
%TD*%
D12*
%TO.P,LD19\u002C3,1*%
%TO.N,MAIN_VBUS*%
X420686600Y-94626000D03*
D13*
%TO.P,LD19\u002C3,2*%
%TO.N,Net-(LD0\u002C4-Pad5)*%
X420686600Y-93726000D03*
D12*
%TO.P,LD19\u002C3,3*%
%TO.N,Net-(LD0\u002C4-Pad4)*%
X420686600Y-92826000D03*
D13*
%TO.P,LD19\u002C3,5*%
%TO.N,Net-(LD18\u002C3-Pad2)*%
X418986600Y-93726000D03*
D12*
%TO.P,LD19\u002C3,4*%
%TO.N,Net-(LD18\u002C3-Pad3)*%
X418986600Y-92826000D03*
%TO.P,LD19\u002C3,7*%
%TO.N,N/C*%
X418986600Y-94626000D03*
D14*
%TO.P,LD19\u002C3,8*%
X419836600Y-94556000D03*
D15*
%TO.P,LD19\u002C3,6*%
%TO.N,GNDPWR*%
X419836600Y-93036000D03*
%TD*%
D12*
%TO.P,LD19\u002C4,1*%
%TO.N,MAIN_VBUS*%
X439990600Y-104506600D03*
D13*
%TO.P,LD19\u002C4,2*%
%TO.N,Net-(LD0\u002C5-Pad5)*%
X439990600Y-103606600D03*
D12*
%TO.P,LD19\u002C4,3*%
%TO.N,Net-(LD0\u002C5-Pad4)*%
X439990600Y-102706600D03*
D13*
%TO.P,LD19\u002C4,5*%
%TO.N,Net-(LD18\u002C4-Pad2)*%
X438290600Y-103606600D03*
D12*
%TO.P,LD19\u002C4,4*%
%TO.N,Net-(LD18\u002C4-Pad3)*%
X438290600Y-102706600D03*
%TO.P,LD19\u002C4,7*%
%TO.N,N/C*%
X438290600Y-104506600D03*
D14*
%TO.P,LD19\u002C4,8*%
X439140600Y-104436600D03*
D15*
%TO.P,LD19\u002C4,6*%
%TO.N,GNDPWR*%
X439140600Y-102916600D03*
%TD*%
D12*
%TO.P,LD19\u002C1,1*%
%TO.N,MAIN_VBUS*%
X420686600Y-75372800D03*
D13*
%TO.P,LD19\u002C1,2*%
%TO.N,Net-(LD19\u002C1-Pad2)*%
X420686600Y-74472800D03*
D12*
%TO.P,LD19\u002C1,3*%
%TO.N,Net-(LD19\u002C1-Pad3)*%
X420686600Y-73572800D03*
D13*
%TO.P,LD19\u002C1,5*%
%TO.N,Net-(LD18\u002C1-Pad2)*%
X418986600Y-74472800D03*
D12*
%TO.P,LD19\u002C1,4*%
%TO.N,Net-(LD18\u002C1-Pad3)*%
X418986600Y-73572800D03*
%TO.P,LD19\u002C1,7*%
%TO.N,N/C*%
X418986600Y-75372800D03*
D14*
%TO.P,LD19\u002C1,8*%
X419836600Y-75302800D03*
D15*
%TO.P,LD19\u002C1,6*%
%TO.N,GNDPWR*%
X419836600Y-73782800D03*
%TD*%
D12*
%TO.P,LD19\u002C0,1*%
%TO.N,MAIN_VBUS*%
X420610400Y-49464800D03*
D13*
%TO.P,LD19\u002C0,2*%
%TO.N,Net-(LD19\u002C0-Pad2)*%
X420610400Y-48564800D03*
D12*
%TO.P,LD19\u002C0,3*%
%TO.N,Net-(LD19\u002C0-Pad3)*%
X420610400Y-47664800D03*
D13*
%TO.P,LD19\u002C0,5*%
%TO.N,Net-(LD18\u002C0-Pad2)*%
X418910400Y-48564800D03*
D12*
%TO.P,LD19\u002C0,4*%
%TO.N,Net-(LD18\u002C0-Pad3)*%
X418910400Y-47664800D03*
%TO.P,LD19\u002C0,7*%
%TO.N,N/C*%
X418910400Y-49464800D03*
D14*
%TO.P,LD19\u002C0,8*%
X419760400Y-49394800D03*
D15*
%TO.P,LD19\u002C0,6*%
%TO.N,GNDPWR*%
X419760400Y-47874800D03*
%TD*%
D12*
%TO.P,LD19\u002C7,1*%
%TO.N,MAIN_VBUS*%
X420877100Y-68324300D03*
D13*
%TO.P,LD19\u002C7,2*%
%TO.N,Net-(LD19\u002C7-Pad2)*%
X420877100Y-67424300D03*
D12*
%TO.P,LD19\u002C7,3*%
%TO.N,Net-(LD19\u002C7-Pad3)*%
X420877100Y-66524300D03*
D13*
%TO.P,LD19\u002C7,5*%
%TO.N,Net-(LD18\u002C7-Pad2)*%
X419177100Y-67424300D03*
D12*
%TO.P,LD19\u002C7,4*%
%TO.N,Net-(LD18\u002C7-Pad3)*%
X419177100Y-66524300D03*
%TO.P,LD19\u002C7,7*%
%TO.N,N/C*%
X419177100Y-68324300D03*
D14*
%TO.P,LD19\u002C7,8*%
X420027100Y-68254300D03*
D15*
%TO.P,LD19\u002C7,6*%
%TO.N,GNDPWR*%
X420027100Y-66734300D03*
%TD*%
D12*
%TO.P,LD18\u002C0,1*%
%TO.N,MAIN_VBUS*%
X401306400Y-49464800D03*
D13*
%TO.P,LD18\u002C0,2*%
%TO.N,Net-(LD18\u002C0-Pad2)*%
X401306400Y-48564800D03*
D12*
%TO.P,LD18\u002C0,3*%
%TO.N,Net-(LD18\u002C0-Pad3)*%
X401306400Y-47664800D03*
D13*
%TO.P,LD18\u002C0,5*%
%TO.N,Net-(LD17\u002C0-Pad2)*%
X399606400Y-48564800D03*
D12*
%TO.P,LD18\u002C0,4*%
%TO.N,Net-(LD17\u002C0-Pad3)*%
X399606400Y-47664800D03*
%TO.P,LD18\u002C0,7*%
%TO.N,N/C*%
X399606400Y-49464800D03*
D14*
%TO.P,LD18\u002C0,8*%
X400456400Y-49394800D03*
D15*
%TO.P,LD18\u002C0,6*%
%TO.N,GNDPWR*%
X400456400Y-47874800D03*
%TD*%
D12*
%TO.P,LD18\u002C3,1*%
%TO.N,MAIN_VBUS*%
X401382600Y-94626000D03*
D13*
%TO.P,LD18\u002C3,2*%
%TO.N,Net-(LD18\u002C3-Pad2)*%
X401382600Y-93726000D03*
D12*
%TO.P,LD18\u002C3,3*%
%TO.N,Net-(LD18\u002C3-Pad3)*%
X401382600Y-92826000D03*
D13*
%TO.P,LD18\u002C3,5*%
%TO.N,Net-(LD17\u002C3-Pad2)*%
X399682600Y-93726000D03*
D12*
%TO.P,LD18\u002C3,4*%
%TO.N,Net-(LD17\u002C3-Pad3)*%
X399682600Y-92826000D03*
%TO.P,LD18\u002C3,7*%
%TO.N,N/C*%
X399682600Y-94626000D03*
D14*
%TO.P,LD18\u002C3,8*%
X400532600Y-94556000D03*
D15*
%TO.P,LD18\u002C3,6*%
%TO.N,GNDPWR*%
X400532600Y-93036000D03*
%TD*%
D12*
%TO.P,LD18\u002C4,1*%
%TO.N,MAIN_VBUS*%
X420686600Y-113968100D03*
D13*
%TO.P,LD18\u002C4,2*%
%TO.N,Net-(LD18\u002C4-Pad2)*%
X420686600Y-113068100D03*
D12*
%TO.P,LD18\u002C4,3*%
%TO.N,Net-(LD18\u002C4-Pad3)*%
X420686600Y-112168100D03*
D13*
%TO.P,LD18\u002C4,5*%
%TO.N,Net-(LD17\u002C4-Pad2)*%
X418986600Y-113068100D03*
D12*
%TO.P,LD18\u002C4,4*%
%TO.N,Net-(LD17\u002C4-Pad3)*%
X418986600Y-112168100D03*
%TO.P,LD18\u002C4,7*%
%TO.N,N/C*%
X418986600Y-113968100D03*
D14*
%TO.P,LD18\u002C4,8*%
X419836600Y-113898100D03*
D15*
%TO.P,LD18\u002C4,6*%
%TO.N,GNDPWR*%
X419836600Y-112378100D03*
%TD*%
D12*
%TO.P,LD18\u002C5,1*%
%TO.N,MAIN_VBUS*%
X420686600Y-133335600D03*
D13*
%TO.P,LD18\u002C5,2*%
%TO.N,Net-(LD14\u002C6-Pad5)*%
X420686600Y-132435600D03*
D12*
%TO.P,LD18\u002C5,3*%
%TO.N,Net-(LD14\u002C6-Pad4)*%
X420686600Y-131535600D03*
D13*
%TO.P,LD18\u002C5,5*%
%TO.N,Net-(LD17\u002C5-Pad2)*%
X418986600Y-132435600D03*
D12*
%TO.P,LD18\u002C5,4*%
%TO.N,Net-(LD17\u002C5-Pad3)*%
X418986600Y-131535600D03*
%TO.P,LD18\u002C5,7*%
%TO.N,N/C*%
X418986600Y-133335600D03*
D14*
%TO.P,LD18\u002C5,8*%
X419836600Y-133265600D03*
D15*
%TO.P,LD18\u002C5,6*%
%TO.N,GNDPWR*%
X419836600Y-131745600D03*
%TD*%
D12*
%TO.P,LD18\u002C7,1*%
%TO.N,MAIN_VBUS*%
X401573100Y-68324300D03*
D13*
%TO.P,LD18\u002C7,2*%
%TO.N,Net-(LD18\u002C7-Pad2)*%
X401573100Y-67424300D03*
D12*
%TO.P,LD18\u002C7,3*%
%TO.N,Net-(LD18\u002C7-Pad3)*%
X401573100Y-66524300D03*
D13*
%TO.P,LD18\u002C7,5*%
%TO.N,Net-(LD17\u002C7-Pad2)*%
X399873100Y-67424300D03*
D12*
%TO.P,LD18\u002C7,4*%
%TO.N,Net-(LD17\u002C7-Pad3)*%
X399873100Y-66524300D03*
%TO.P,LD18\u002C7,7*%
%TO.N,N/C*%
X399873100Y-68324300D03*
D14*
%TO.P,LD18\u002C7,8*%
X400723100Y-68254300D03*
D15*
%TO.P,LD18\u002C7,6*%
%TO.N,GNDPWR*%
X400723100Y-66734300D03*
%TD*%
D12*
%TO.P,LD18\u002C1,1*%
%TO.N,MAIN_VBUS*%
X401382600Y-75360100D03*
D13*
%TO.P,LD18\u002C1,2*%
%TO.N,Net-(LD18\u002C1-Pad2)*%
X401382600Y-74460100D03*
D12*
%TO.P,LD18\u002C1,3*%
%TO.N,Net-(LD18\u002C1-Pad3)*%
X401382600Y-73560100D03*
D13*
%TO.P,LD18\u002C1,5*%
%TO.N,Net-(LD17\u002C1-Pad2)*%
X399682600Y-74460100D03*
D12*
%TO.P,LD18\u002C1,4*%
%TO.N,Net-(LD17\u002C1-Pad3)*%
X399682600Y-73560100D03*
%TO.P,LD18\u002C1,7*%
%TO.N,N/C*%
X399682600Y-75360100D03*
D14*
%TO.P,LD18\u002C1,8*%
X400532600Y-75290100D03*
D15*
%TO.P,LD18\u002C1,6*%
%TO.N,GNDPWR*%
X400532600Y-73770100D03*
%TD*%
D12*
%TO.P,LD18\u002C6,1*%
%TO.N,MAIN_VBUS*%
X420686600Y-152639600D03*
D13*
%TO.P,LD18\u002C6,2*%
%TO.N,Net-(LD18\u002C6-Pad2)*%
X420686600Y-151739600D03*
D12*
%TO.P,LD18\u002C6,3*%
%TO.N,Net-(LD18\u002C6-Pad3)*%
X420686600Y-150839600D03*
D13*
%TO.P,LD18\u002C6,5*%
%TO.N,Net-(LD17\u002C6-Pad2)*%
X418986600Y-151739600D03*
D12*
%TO.P,LD18\u002C6,4*%
%TO.N,Net-(LD17\u002C6-Pad3)*%
X418986600Y-150839600D03*
%TO.P,LD18\u002C6,7*%
%TO.N,N/C*%
X418986600Y-152639600D03*
D14*
%TO.P,LD18\u002C6,8*%
X419836600Y-152569600D03*
D15*
%TO.P,LD18\u002C6,6*%
%TO.N,GNDPWR*%
X419836600Y-151049600D03*
%TD*%
D12*
%TO.P,LD17\u002C4,1*%
%TO.N,MAIN_VBUS*%
X401382600Y-114031600D03*
D13*
%TO.P,LD17\u002C4,2*%
%TO.N,Net-(LD17\u002C4-Pad2)*%
X401382600Y-113131600D03*
D12*
%TO.P,LD17\u002C4,3*%
%TO.N,Net-(LD17\u002C4-Pad3)*%
X401382600Y-112231600D03*
D13*
%TO.P,LD17\u002C4,5*%
%TO.N,Net-(LD16\u002C4-Pad2)*%
X399682600Y-113131600D03*
D12*
%TO.P,LD17\u002C4,4*%
%TO.N,Net-(LD16\u002C4-Pad3)*%
X399682600Y-112231600D03*
%TO.P,LD17\u002C4,7*%
%TO.N,N/C*%
X399682600Y-114031600D03*
D14*
%TO.P,LD17\u002C4,8*%
X400532600Y-113961600D03*
D15*
%TO.P,LD17\u002C4,6*%
%TO.N,GNDPWR*%
X400532600Y-112441600D03*
%TD*%
D12*
%TO.P,LD17\u002C3,1*%
%TO.N,MAIN_VBUS*%
X382078600Y-94626000D03*
D13*
%TO.P,LD17\u002C3,2*%
%TO.N,Net-(LD17\u002C3-Pad2)*%
X382078600Y-93726000D03*
D12*
%TO.P,LD17\u002C3,3*%
%TO.N,Net-(LD17\u002C3-Pad3)*%
X382078600Y-92826000D03*
D13*
%TO.P,LD17\u002C3,5*%
%TO.N,Net-(LD16\u002C3-Pad2)*%
X380378600Y-93726000D03*
D12*
%TO.P,LD17\u002C3,4*%
%TO.N,Net-(LD16\u002C3-Pad3)*%
X380378600Y-92826000D03*
%TO.P,LD17\u002C3,7*%
%TO.N,N/C*%
X380378600Y-94626000D03*
D14*
%TO.P,LD17\u002C3,8*%
X381228600Y-94556000D03*
D15*
%TO.P,LD17\u002C3,6*%
%TO.N,GNDPWR*%
X381228600Y-93036000D03*
%TD*%
D12*
%TO.P,LD17\u002C6,1*%
%TO.N,MAIN_VBUS*%
X391857600Y-152639600D03*
D13*
%TO.P,LD17\u002C6,2*%
%TO.N,Net-(LD17\u002C6-Pad2)*%
X391857600Y-151739600D03*
D12*
%TO.P,LD17\u002C6,3*%
%TO.N,Net-(LD17\u002C6-Pad3)*%
X391857600Y-150839600D03*
D13*
%TO.P,LD17\u002C6,5*%
%TO.N,Net-(LD16\u002C6-Pad2)*%
X390157600Y-151739600D03*
D12*
%TO.P,LD17\u002C6,4*%
%TO.N,Net-(LD16\u002C6-Pad3)*%
X390157600Y-150839600D03*
%TO.P,LD17\u002C6,7*%
%TO.N,N/C*%
X390157600Y-152639600D03*
D14*
%TO.P,LD17\u002C6,8*%
X391007600Y-152569600D03*
D15*
%TO.P,LD17\u002C6,6*%
%TO.N,GNDPWR*%
X391007600Y-151049600D03*
%TD*%
D12*
%TO.P,LD17\u002C5,1*%
%TO.N,MAIN_VBUS*%
X401382600Y-133335600D03*
D13*
%TO.P,LD17\u002C5,2*%
%TO.N,Net-(LD17\u002C5-Pad2)*%
X401382600Y-132435600D03*
D12*
%TO.P,LD17\u002C5,3*%
%TO.N,Net-(LD17\u002C5-Pad3)*%
X401382600Y-131535600D03*
D13*
%TO.P,LD17\u002C5,5*%
%TO.N,Net-(LD16\u002C5-Pad2)*%
X399682600Y-132435600D03*
D12*
%TO.P,LD17\u002C5,4*%
%TO.N,Net-(LD16\u002C5-Pad3)*%
X399682600Y-131535600D03*
%TO.P,LD17\u002C5,7*%
%TO.N,N/C*%
X399682600Y-133335600D03*
D14*
%TO.P,LD17\u002C5,8*%
X400532600Y-133265600D03*
D15*
%TO.P,LD17\u002C5,6*%
%TO.N,GNDPWR*%
X400532600Y-131745600D03*
%TD*%
D12*
%TO.P,LD17\u002C1,1*%
%TO.N,MAIN_VBUS*%
X382078600Y-75360100D03*
D13*
%TO.P,LD17\u002C1,2*%
%TO.N,Net-(LD17\u002C1-Pad2)*%
X382078600Y-74460100D03*
D12*
%TO.P,LD17\u002C1,3*%
%TO.N,Net-(LD17\u002C1-Pad3)*%
X382078600Y-73560100D03*
D13*
%TO.P,LD17\u002C1,5*%
%TO.N,Net-(LD16\u002C1-Pad2)*%
X380378600Y-74460100D03*
D12*
%TO.P,LD17\u002C1,4*%
%TO.N,Net-(LD16\u002C1-Pad3)*%
X380378600Y-73560100D03*
%TO.P,LD17\u002C1,7*%
%TO.N,N/C*%
X380378600Y-75360100D03*
D14*
%TO.P,LD17\u002C1,8*%
X381228600Y-75290100D03*
D15*
%TO.P,LD17\u002C1,6*%
%TO.N,GNDPWR*%
X381228600Y-73770100D03*
%TD*%
D12*
%TO.P,LD17\u002C0,1*%
%TO.N,MAIN_VBUS*%
X382002400Y-49464800D03*
D13*
%TO.P,LD17\u002C0,2*%
%TO.N,Net-(LD17\u002C0-Pad2)*%
X382002400Y-48564800D03*
D12*
%TO.P,LD17\u002C0,3*%
%TO.N,Net-(LD17\u002C0-Pad3)*%
X382002400Y-47664800D03*
D13*
%TO.P,LD17\u002C0,5*%
%TO.N,Net-(LD16\u002C0-Pad2)*%
X380302400Y-48564800D03*
D12*
%TO.P,LD17\u002C0,4*%
%TO.N,Net-(LD16\u002C0-Pad3)*%
X380302400Y-47664800D03*
%TO.P,LD17\u002C0,7*%
%TO.N,N/C*%
X380302400Y-49464800D03*
D14*
%TO.P,LD17\u002C0,8*%
X381152400Y-49394800D03*
D15*
%TO.P,LD17\u002C0,6*%
%TO.N,GNDPWR*%
X381152400Y-47874800D03*
%TD*%
D12*
%TO.P,LD17\u002C7,1*%
%TO.N,MAIN_VBUS*%
X381951600Y-68375100D03*
D13*
%TO.P,LD17\u002C7,2*%
%TO.N,Net-(LD17\u002C7-Pad2)*%
X381951600Y-67475100D03*
D12*
%TO.P,LD17\u002C7,3*%
%TO.N,Net-(LD17\u002C7-Pad3)*%
X381951600Y-66575100D03*
D13*
%TO.P,LD17\u002C7,5*%
%TO.N,LED_SCL_STATUS0*%
X380251600Y-67475100D03*
D12*
%TO.P,LD17\u002C7,4*%
%TO.N,LED_SDA_STATUS0*%
X380251600Y-66575100D03*
%TO.P,LD17\u002C7,7*%
%TO.N,N/C*%
X380251600Y-68375100D03*
D14*
%TO.P,LD17\u002C7,8*%
X381101600Y-68305100D03*
D15*
%TO.P,LD17\u002C7,6*%
%TO.N,GNDPWR*%
X381101600Y-66785100D03*
%TD*%
D12*
%TO.P,LD16\u002C5,1*%
%TO.N,MAIN_VBUS*%
X382332600Y-133335600D03*
D13*
%TO.P,LD16\u002C5,2*%
%TO.N,Net-(LD16\u002C5-Pad2)*%
X382332600Y-132435600D03*
D12*
%TO.P,LD16\u002C5,3*%
%TO.N,Net-(LD16\u002C5-Pad3)*%
X382332600Y-131535600D03*
D13*
%TO.P,LD16\u002C5,5*%
%TO.N,Net-(LD15\u002C5-Pad2)*%
X380632600Y-132435600D03*
D12*
%TO.P,LD16\u002C5,4*%
%TO.N,Net-(LD15\u002C5-Pad3)*%
X380632600Y-131535600D03*
%TO.P,LD16\u002C5,7*%
%TO.N,N/C*%
X380632600Y-133335600D03*
D14*
%TO.P,LD16\u002C5,8*%
X381482600Y-133265600D03*
D15*
%TO.P,LD16\u002C5,6*%
%TO.N,GNDPWR*%
X381482600Y-131745600D03*
%TD*%
D12*
%TO.P,LD16\u002C3,1*%
%TO.N,MAIN_VBUS*%
X358202600Y-94600600D03*
D13*
%TO.P,LD16\u002C3,2*%
%TO.N,Net-(LD16\u002C3-Pad2)*%
X358202600Y-93700600D03*
D12*
%TO.P,LD16\u002C3,3*%
%TO.N,Net-(LD16\u002C3-Pad3)*%
X358202600Y-92800600D03*
D13*
%TO.P,LD16\u002C3,5*%
%TO.N,Net-(LD15\u002C3-Pad2)*%
X356502600Y-93700600D03*
D12*
%TO.P,LD16\u002C3,4*%
%TO.N,Net-(LD15\u002C3-Pad3)*%
X356502600Y-92800600D03*
%TO.P,LD16\u002C3,7*%
%TO.N,N/C*%
X356502600Y-94600600D03*
D14*
%TO.P,LD16\u002C3,8*%
X357352600Y-94530600D03*
D15*
%TO.P,LD16\u002C3,6*%
%TO.N,GNDPWR*%
X357352600Y-93010600D03*
%TD*%
D12*
%TO.P,LD16\u002C1,1*%
%TO.N,MAIN_VBUS*%
X358280800Y-75385500D03*
D13*
%TO.P,LD16\u002C1,2*%
%TO.N,Net-(LD16\u002C1-Pad2)*%
X358280800Y-74485500D03*
D12*
%TO.P,LD16\u002C1,3*%
%TO.N,Net-(LD16\u002C1-Pad3)*%
X358280800Y-73585500D03*
D13*
%TO.P,LD16\u002C1,5*%
%TO.N,Net-(LD15\u002C1-Pad2)*%
X356580800Y-74485500D03*
D12*
%TO.P,LD16\u002C1,4*%
%TO.N,Net-(LD15\u002C1-Pad3)*%
X356580800Y-73585500D03*
%TO.P,LD16\u002C1,7*%
%TO.N,N/C*%
X356580800Y-75385500D03*
D14*
%TO.P,LD16\u002C1,8*%
X357430800Y-75315500D03*
D15*
%TO.P,LD16\u002C1,6*%
%TO.N,GNDPWR*%
X357430800Y-73795500D03*
%TD*%
D12*
%TO.P,LD16\u002C6,1*%
%TO.N,MAIN_VBUS*%
X358139100Y-153147600D03*
D13*
%TO.P,LD16\u002C6,2*%
%TO.N,Net-(LD16\u002C6-Pad2)*%
X358139100Y-152247600D03*
D12*
%TO.P,LD16\u002C6,3*%
%TO.N,Net-(LD16\u002C6-Pad3)*%
X358139100Y-151347600D03*
D13*
%TO.P,LD16\u002C6,5*%
%TO.N,Net-(LD15\u002C6-Pad2)*%
X356439100Y-152247600D03*
D12*
%TO.P,LD16\u002C6,4*%
%TO.N,Net-(LD15\u002C6-Pad3)*%
X356439100Y-151347600D03*
%TO.P,LD16\u002C6,7*%
%TO.N,N/C*%
X356439100Y-153147600D03*
D14*
%TO.P,LD16\u002C6,8*%
X357289100Y-153077600D03*
D15*
%TO.P,LD16\u002C6,6*%
%TO.N,GNDPWR*%
X357289100Y-151557600D03*
%TD*%
D12*
%TO.P,LD16\u002C0,1*%
%TO.N,MAIN_VBUS*%
X358697900Y-49452100D03*
D13*
%TO.P,LD16\u002C0,2*%
%TO.N,Net-(LD16\u002C0-Pad2)*%
X358697900Y-48552100D03*
D12*
%TO.P,LD16\u002C0,3*%
%TO.N,Net-(LD16\u002C0-Pad3)*%
X358697900Y-47652100D03*
D13*
%TO.P,LD16\u002C0,5*%
%TO.N,Net-(LD15\u002C0-Pad2)*%
X356997900Y-48552100D03*
D12*
%TO.P,LD16\u002C0,4*%
%TO.N,Net-(LD15\u002C0-Pad3)*%
X356997900Y-47652100D03*
%TO.P,LD16\u002C0,7*%
%TO.N,N/C*%
X356997900Y-49452100D03*
D14*
%TO.P,LD16\u002C0,8*%
X357847900Y-49382100D03*
D15*
%TO.P,LD16\u002C0,6*%
%TO.N,GNDPWR*%
X357847900Y-47862100D03*
%TD*%
D12*
%TO.P,LD16\u002C4,1*%
%TO.N,MAIN_VBUS*%
X382078600Y-114031600D03*
D13*
%TO.P,LD16\u002C4,2*%
%TO.N,Net-(LD16\u002C4-Pad2)*%
X382078600Y-113131600D03*
D12*
%TO.P,LD16\u002C4,3*%
%TO.N,Net-(LD16\u002C4-Pad3)*%
X382078600Y-112231600D03*
D13*
%TO.P,LD16\u002C4,5*%
%TO.N,Net-(LD11\u002C4-Pad2)*%
X380378600Y-113131600D03*
D12*
%TO.P,LD16\u002C4,4*%
%TO.N,Net-(LD11\u002C4-Pad3)*%
X380378600Y-112231600D03*
%TO.P,LD16\u002C4,7*%
%TO.N,N/C*%
X380378600Y-114031600D03*
D14*
%TO.P,LD16\u002C4,8*%
X381228600Y-113961600D03*
D15*
%TO.P,LD16\u002C4,6*%
%TO.N,GNDPWR*%
X381228600Y-112441600D03*
%TD*%
D12*
%TO.P,LD15\u002C0,1*%
%TO.N,MAIN_VBUS*%
X339393900Y-49452100D03*
D13*
%TO.P,LD15\u002C0,2*%
%TO.N,Net-(LD15\u002C0-Pad2)*%
X339393900Y-48552100D03*
D12*
%TO.P,LD15\u002C0,3*%
%TO.N,Net-(LD15\u002C0-Pad3)*%
X339393900Y-47652100D03*
D13*
%TO.P,LD15\u002C0,5*%
%TO.N,Net-(LD14\u002C0-Pad2)*%
X337693900Y-48552100D03*
D12*
%TO.P,LD15\u002C0,4*%
%TO.N,Net-(LD14\u002C0-Pad3)*%
X337693900Y-47652100D03*
%TO.P,LD15\u002C0,7*%
%TO.N,N/C*%
X337693900Y-49452100D03*
D14*
%TO.P,LD15\u002C0,8*%
X338543900Y-49382100D03*
D15*
%TO.P,LD15\u002C0,6*%
%TO.N,GNDPWR*%
X338543900Y-47862100D03*
%TD*%
D12*
%TO.P,LD15\u002C5,1*%
%TO.N,MAIN_VBUS*%
X338835100Y-133792800D03*
D13*
%TO.P,LD15\u002C5,2*%
%TO.N,Net-(LD15\u002C5-Pad2)*%
X338835100Y-132892800D03*
D12*
%TO.P,LD15\u002C5,3*%
%TO.N,Net-(LD15\u002C5-Pad3)*%
X338835100Y-131992800D03*
D13*
%TO.P,LD15\u002C5,5*%
%TO.N,Net-(LD11\u002C5-Pad2)*%
X337135100Y-132892800D03*
D12*
%TO.P,LD15\u002C5,4*%
%TO.N,Net-(LD11\u002C5-Pad3)*%
X337135100Y-131992800D03*
%TO.P,LD15\u002C5,7*%
%TO.N,N/C*%
X337135100Y-133792800D03*
D14*
%TO.P,LD15\u002C5,8*%
X337985100Y-133722800D03*
D15*
%TO.P,LD15\u002C5,6*%
%TO.N,GNDPWR*%
X337985100Y-132202800D03*
%TD*%
D12*
%TO.P,LD15\u002C6,1*%
%TO.N,MAIN_VBUS*%
X338835100Y-153147600D03*
D13*
%TO.P,LD15\u002C6,2*%
%TO.N,Net-(LD15\u002C6-Pad2)*%
X338835100Y-152247600D03*
D12*
%TO.P,LD15\u002C6,3*%
%TO.N,Net-(LD15\u002C6-Pad3)*%
X338835100Y-151347600D03*
D13*
%TO.P,LD15\u002C6,5*%
%TO.N,Net-(LD14\u002C6-Pad2)*%
X337135100Y-152247600D03*
D12*
%TO.P,LD15\u002C6,4*%
%TO.N,Net-(LD14\u002C6-Pad3)*%
X337135100Y-151347600D03*
%TO.P,LD15\u002C6,7*%
%TO.N,N/C*%
X337135100Y-153147600D03*
D14*
%TO.P,LD15\u002C6,8*%
X337985100Y-153077600D03*
D15*
%TO.P,LD15\u002C6,6*%
%TO.N,GNDPWR*%
X337985100Y-151557600D03*
%TD*%
D12*
%TO.P,LD15\u002C3,1*%
%TO.N,MAIN_VBUS*%
X338898600Y-94600600D03*
D13*
%TO.P,LD15\u002C3,2*%
%TO.N,Net-(LD15\u002C3-Pad2)*%
X338898600Y-93700600D03*
D12*
%TO.P,LD15\u002C3,3*%
%TO.N,Net-(LD15\u002C3-Pad3)*%
X338898600Y-92800600D03*
D13*
%TO.P,LD15\u002C3,5*%
%TO.N,Net-(LD14\u002C3-Pad2)*%
X337198600Y-93700600D03*
D12*
%TO.P,LD15\u002C3,4*%
%TO.N,Net-(LD14\u002C3-Pad3)*%
X337198600Y-92800600D03*
%TO.P,LD15\u002C3,7*%
%TO.N,N/C*%
X337198600Y-94600600D03*
D14*
%TO.P,LD15\u002C3,8*%
X338048600Y-94530600D03*
D15*
%TO.P,LD15\u002C3,6*%
%TO.N,GNDPWR*%
X338048600Y-93010600D03*
%TD*%
D12*
%TO.P,LD15\u002C1,1*%
%TO.N,MAIN_VBUS*%
X338898600Y-75360100D03*
D13*
%TO.P,LD15\u002C1,2*%
%TO.N,Net-(LD15\u002C1-Pad2)*%
X338898600Y-74460100D03*
D12*
%TO.P,LD15\u002C1,3*%
%TO.N,Net-(LD15\u002C1-Pad3)*%
X338898600Y-73560100D03*
D13*
%TO.P,LD15\u002C1,5*%
%TO.N,Net-(LD14\u002C1-Pad2)*%
X337198600Y-74460100D03*
D12*
%TO.P,LD15\u002C1,4*%
%TO.N,Net-(LD14\u002C1-Pad3)*%
X337198600Y-73560100D03*
%TO.P,LD15\u002C1,7*%
%TO.N,N/C*%
X337198600Y-75360100D03*
D14*
%TO.P,LD15\u002C1,8*%
X338048600Y-75290100D03*
D15*
%TO.P,LD15\u002C1,6*%
%TO.N,GNDPWR*%
X338048600Y-73770100D03*
%TD*%
D12*
%TO.P,LD14\u002C1,1*%
%TO.N,MAIN_VBUS*%
X319594600Y-75360100D03*
D13*
%TO.P,LD14\u002C1,2*%
%TO.N,Net-(LD14\u002C1-Pad2)*%
X319594600Y-74460100D03*
D12*
%TO.P,LD14\u002C1,3*%
%TO.N,Net-(LD14\u002C1-Pad3)*%
X319594600Y-73560100D03*
D13*
%TO.P,LD14\u002C1,5*%
%TO.N,Net-(LD13\u002C1-Pad2)*%
X317894600Y-74460100D03*
D12*
%TO.P,LD14\u002C1,4*%
%TO.N,Net-(LD13\u002C1-Pad3)*%
X317894600Y-73560100D03*
%TO.P,LD14\u002C1,7*%
%TO.N,N/C*%
X317894600Y-75360100D03*
D14*
%TO.P,LD14\u002C1,8*%
X318744600Y-75290100D03*
D15*
%TO.P,LD14\u002C1,6*%
%TO.N,GNDPWR*%
X318744600Y-73770100D03*
%TD*%
D12*
%TO.P,LD14\u002C3,1*%
%TO.N,MAIN_VBUS*%
X319594600Y-94600600D03*
D13*
%TO.P,LD14\u002C3,2*%
%TO.N,Net-(LD14\u002C3-Pad2)*%
X319594600Y-93700600D03*
D12*
%TO.P,LD14\u002C3,3*%
%TO.N,Net-(LD14\u002C3-Pad3)*%
X319594600Y-92800600D03*
D13*
%TO.P,LD14\u002C3,5*%
%TO.N,Net-(LD12\u002C3-Pad2)*%
X317894600Y-93700600D03*
D12*
%TO.P,LD14\u002C3,4*%
%TO.N,Net-(LD12\u002C3-Pad3)*%
X317894600Y-92800600D03*
%TO.P,LD14\u002C3,7*%
%TO.N,N/C*%
X317894600Y-94600600D03*
D14*
%TO.P,LD14\u002C3,8*%
X318744600Y-94530600D03*
D15*
%TO.P,LD14\u002C3,6*%
%TO.N,GNDPWR*%
X318744600Y-93010600D03*
%TD*%
D12*
%TO.P,LD14\u002C0,1*%
%TO.N,MAIN_VBUS*%
X319835900Y-49452100D03*
D13*
%TO.P,LD14\u002C0,2*%
%TO.N,Net-(LD14\u002C0-Pad2)*%
X319835900Y-48552100D03*
D12*
%TO.P,LD14\u002C0,3*%
%TO.N,Net-(LD14\u002C0-Pad3)*%
X319835900Y-47652100D03*
D13*
%TO.P,LD14\u002C0,5*%
%TO.N,Net-(LD12\u002C0-Pad2)*%
X318135900Y-48552100D03*
D12*
%TO.P,LD14\u002C0,4*%
%TO.N,Net-(LD12\u002C0-Pad3)*%
X318135900Y-47652100D03*
%TO.P,LD14\u002C0,7*%
%TO.N,N/C*%
X318135900Y-49452100D03*
D14*
%TO.P,LD14\u002C0,8*%
X318985900Y-49382100D03*
D15*
%TO.P,LD14\u002C0,6*%
%TO.N,GNDPWR*%
X318985900Y-47862100D03*
%TD*%
D12*
%TO.P,LD14\u002C6,1*%
%TO.N,MAIN_VBUS*%
X319531100Y-153147600D03*
D13*
%TO.P,LD14\u002C6,2*%
%TO.N,Net-(LD14\u002C6-Pad2)*%
X319531100Y-152247600D03*
D12*
%TO.P,LD14\u002C6,3*%
%TO.N,Net-(LD14\u002C6-Pad3)*%
X319531100Y-151347600D03*
D13*
%TO.P,LD14\u002C6,5*%
%TO.N,Net-(LD14\u002C6-Pad5)*%
X317831100Y-152247600D03*
D12*
%TO.P,LD14\u002C6,4*%
%TO.N,Net-(LD14\u002C6-Pad4)*%
X317831100Y-151347600D03*
%TO.P,LD14\u002C6,7*%
%TO.N,N/C*%
X317831100Y-153147600D03*
D14*
%TO.P,LD14\u002C6,8*%
X318681100Y-153077600D03*
D15*
%TO.P,LD14\u002C6,6*%
%TO.N,GNDPWR*%
X318681100Y-151557600D03*
%TD*%
D12*
%TO.P,LD13\u002C1,1*%
%TO.N,MAIN_VBUS*%
X286739700Y-75360100D03*
D13*
%TO.P,LD13\u002C1,2*%
%TO.N,Net-(LD13\u002C1-Pad2)*%
X286739700Y-74460100D03*
D12*
%TO.P,LD13\u002C1,3*%
%TO.N,Net-(LD13\u002C1-Pad3)*%
X286739700Y-73560100D03*
D13*
%TO.P,LD13\u002C1,5*%
%TO.N,Net-(LD12\u002C1-Pad2)*%
X285039700Y-74460100D03*
D12*
%TO.P,LD13\u002C1,4*%
%TO.N,Net-(LD12\u002C1-Pad3)*%
X285039700Y-73560100D03*
%TO.P,LD13\u002C1,7*%
%TO.N,N/C*%
X285039700Y-75360100D03*
D14*
%TO.P,LD13\u002C1,8*%
X285889700Y-75290100D03*
D15*
%TO.P,LD13\u002C1,6*%
%TO.N,GNDPWR*%
X285889700Y-73770100D03*
%TD*%
D12*
%TO.P,LD13\u002C2,1*%
%TO.N,MAIN_VBUS*%
X291934000Y-94626000D03*
D13*
%TO.P,LD13\u002C2,2*%
%TO.N,Net-(LD0\u002C3-Pad5)*%
X291934000Y-93726000D03*
D12*
%TO.P,LD13\u002C2,3*%
%TO.N,Net-(LD0\u002C3-Pad4)*%
X291934000Y-92826000D03*
D13*
%TO.P,LD13\u002C2,5*%
%TO.N,Net-(LD12\u002C2-Pad2)*%
X290234000Y-93726000D03*
D12*
%TO.P,LD13\u002C2,4*%
%TO.N,Net-(LD12\u002C2-Pad3)*%
X290234000Y-92826000D03*
%TO.P,LD13\u002C2,7*%
%TO.N,N/C*%
X290234000Y-94626000D03*
D14*
%TO.P,LD13\u002C2,8*%
X291084000Y-94556000D03*
D15*
%TO.P,LD13\u002C2,6*%
%TO.N,GNDPWR*%
X291084000Y-93036000D03*
%TD*%
D12*
%TO.P,LD12\u002C0,1*%
%TO.N,MAIN_VBUS*%
X297265460Y-49452100D03*
D13*
%TO.P,LD12\u002C0,2*%
%TO.N,Net-(LD12\u002C0-Pad2)*%
X297265460Y-48552100D03*
D12*
%TO.P,LD12\u002C0,3*%
%TO.N,Net-(LD12\u002C0-Pad3)*%
X297265460Y-47652100D03*
D13*
%TO.P,LD12\u002C0,5*%
%TO.N,Net-(LD11\u002C0-Pad2)*%
X295565460Y-48552100D03*
D12*
%TO.P,LD12\u002C0,4*%
%TO.N,Net-(LD11\u002C0-Pad3)*%
X295565460Y-47652100D03*
%TO.P,LD12\u002C0,7*%
%TO.N,N/C*%
X295565460Y-49452100D03*
D14*
%TO.P,LD12\u002C0,8*%
X296415460Y-49382100D03*
D15*
%TO.P,LD12\u002C0,6*%
%TO.N,GNDPWR*%
X296415460Y-47862100D03*
%TD*%
D12*
%TO.P,LD12\u002C1,1*%
%TO.N,MAIN_VBUS*%
X257974200Y-75360100D03*
D13*
%TO.P,LD12\u002C1,2*%
%TO.N,Net-(LD12\u002C1-Pad2)*%
X257974200Y-74460100D03*
D12*
%TO.P,LD12\u002C1,3*%
%TO.N,Net-(LD12\u002C1-Pad3)*%
X257974200Y-73560100D03*
D13*
%TO.P,LD12\u002C1,5*%
%TO.N,Net-(LD11\u002C1-Pad2)*%
X256274200Y-74460100D03*
D12*
%TO.P,LD12\u002C1,4*%
%TO.N,Net-(LD11\u002C1-Pad3)*%
X256274200Y-73560100D03*
%TO.P,LD12\u002C1,7*%
%TO.N,N/C*%
X256274200Y-75360100D03*
D14*
%TO.P,LD12\u002C1,8*%
X257124200Y-75290100D03*
D15*
%TO.P,LD12\u002C1,6*%
%TO.N,GNDPWR*%
X257124200Y-73770100D03*
%TD*%
D12*
%TO.P,LD12\u002C3,1*%
%TO.N,MAIN_VBUS*%
X284872800Y-114057000D03*
D13*
%TO.P,LD12\u002C3,2*%
%TO.N,Net-(LD12\u002C3-Pad2)*%
X284872800Y-113157000D03*
D12*
%TO.P,LD12\u002C3,3*%
%TO.N,Net-(LD12\u002C3-Pad3)*%
X284872800Y-112257000D03*
D13*
%TO.P,LD12\u002C3,5*%
%TO.N,Net-(LD11\u002C3-Pad2)*%
X283172800Y-113157000D03*
D12*
%TO.P,LD12\u002C3,4*%
%TO.N,Net-(LD11\u002C3-Pad3)*%
X283172800Y-112257000D03*
%TO.P,LD12\u002C3,7*%
%TO.N,N/C*%
X283172800Y-114057000D03*
D14*
%TO.P,LD12\u002C3,8*%
X284022800Y-113987000D03*
D15*
%TO.P,LD12\u002C3,6*%
%TO.N,GNDPWR*%
X284022800Y-112467000D03*
%TD*%
D12*
%TO.P,LD12\u002C2,1*%
%TO.N,MAIN_VBUS*%
X268007200Y-94600600D03*
D13*
%TO.P,LD12\u002C2,2*%
%TO.N,Net-(LD12\u002C2-Pad2)*%
X268007200Y-93700600D03*
D12*
%TO.P,LD12\u002C2,3*%
%TO.N,Net-(LD12\u002C2-Pad3)*%
X268007200Y-92800600D03*
D13*
%TO.P,LD12\u002C2,5*%
%TO.N,Net-(LD11\u002C2-Pad2)*%
X266307200Y-93700600D03*
D12*
%TO.P,LD12\u002C2,4*%
%TO.N,Net-(LD11\u002C2-Pad3)*%
X266307200Y-92800600D03*
%TO.P,LD12\u002C2,7*%
%TO.N,N/C*%
X266307200Y-94600600D03*
D14*
%TO.P,LD12\u002C2,8*%
X267157200Y-94530600D03*
D15*
%TO.P,LD12\u002C2,6*%
%TO.N,GNDPWR*%
X267157200Y-93010600D03*
%TD*%
D12*
%TO.P,LD11\u002C4,1*%
%TO.N,MAIN_VBUS*%
X280072200Y-133843600D03*
D13*
%TO.P,LD11\u002C4,2*%
%TO.N,Net-(LD11\u002C4-Pad2)*%
X280072200Y-132943600D03*
D12*
%TO.P,LD11\u002C4,3*%
%TO.N,Net-(LD11\u002C4-Pad3)*%
X280072200Y-132043600D03*
D13*
%TO.P,LD11\u002C4,5*%
%TO.N,Net-(LD10\u002C4-Pad2)*%
X278372200Y-132943600D03*
D12*
%TO.P,LD11\u002C4,4*%
%TO.N,Net-(LD10\u002C4-Pad3)*%
X278372200Y-132043600D03*
%TO.P,LD11\u002C4,7*%
%TO.N,N/C*%
X278372200Y-133843600D03*
D14*
%TO.P,LD11\u002C4,8*%
X279222200Y-133773600D03*
D15*
%TO.P,LD11\u002C4,6*%
%TO.N,GNDPWR*%
X279222200Y-132253600D03*
%TD*%
D12*
%TO.P,LD11\u002C2,1*%
%TO.N,MAIN_VBUS*%
X248703200Y-94600600D03*
D13*
%TO.P,LD11\u002C2,2*%
%TO.N,Net-(LD11\u002C2-Pad2)*%
X248703200Y-93700600D03*
D12*
%TO.P,LD11\u002C2,3*%
%TO.N,Net-(LD11\u002C2-Pad3)*%
X248703200Y-92800600D03*
D13*
%TO.P,LD11\u002C2,5*%
%TO.N,Net-(LD10\u002C2-Pad2)*%
X247003200Y-93700600D03*
D12*
%TO.P,LD11\u002C2,4*%
%TO.N,Net-(LD10\u002C2-Pad3)*%
X247003200Y-92800600D03*
%TO.P,LD11\u002C2,7*%
%TO.N,N/C*%
X247003200Y-94600600D03*
D14*
%TO.P,LD11\u002C2,8*%
X247853200Y-94530600D03*
D15*
%TO.P,LD11\u002C2,6*%
%TO.N,GNDPWR*%
X247853200Y-93010600D03*
%TD*%
D12*
%TO.P,LD11\u002C5,1*%
%TO.N,MAIN_VBUS*%
X294423200Y-153274600D03*
D13*
%TO.P,LD11\u002C5,2*%
%TO.N,Net-(LD11\u002C5-Pad2)*%
X294423200Y-152374600D03*
D12*
%TO.P,LD11\u002C5,3*%
%TO.N,Net-(LD11\u002C5-Pad3)*%
X294423200Y-151474600D03*
D13*
%TO.P,LD11\u002C5,5*%
%TO.N,Net-(LD10\u002C5-Pad2)*%
X292723200Y-152374600D03*
D12*
%TO.P,LD11\u002C5,4*%
%TO.N,Net-(LD10\u002C5-Pad3)*%
X292723200Y-151474600D03*
%TO.P,LD11\u002C5,7*%
%TO.N,N/C*%
X292723200Y-153274600D03*
D14*
%TO.P,LD11\u002C5,8*%
X293573200Y-153204600D03*
D15*
%TO.P,LD11\u002C5,6*%
%TO.N,GNDPWR*%
X293573200Y-151684600D03*
%TD*%
D12*
%TO.P,LD11\u002C0,1*%
%TO.N,MAIN_VBUS*%
X277961460Y-49452100D03*
D13*
%TO.P,LD11\u002C0,2*%
%TO.N,Net-(LD11\u002C0-Pad2)*%
X277961460Y-48552100D03*
D12*
%TO.P,LD11\u002C0,3*%
%TO.N,Net-(LD11\u002C0-Pad3)*%
X277961460Y-47652100D03*
D13*
%TO.P,LD11\u002C0,5*%
%TO.N,Net-(LD10\u002C0-Pad2)*%
X276261460Y-48552100D03*
D12*
%TO.P,LD11\u002C0,4*%
%TO.N,Net-(LD10\u002C0-Pad3)*%
X276261460Y-47652100D03*
%TO.P,LD11\u002C0,7*%
%TO.N,N/C*%
X276261460Y-49452100D03*
D14*
%TO.P,LD11\u002C0,8*%
X277111460Y-49382100D03*
D15*
%TO.P,LD11\u002C0,6*%
%TO.N,GNDPWR*%
X277111460Y-47862100D03*
%TD*%
D12*
%TO.P,LD11\u002C3,1*%
%TO.N,MAIN_VBUS*%
X253592700Y-114031600D03*
D13*
%TO.P,LD11\u002C3,2*%
%TO.N,Net-(LD11\u002C3-Pad2)*%
X253592700Y-113131600D03*
D12*
%TO.P,LD11\u002C3,3*%
%TO.N,Net-(LD11\u002C3-Pad3)*%
X253592700Y-112231600D03*
D13*
%TO.P,LD11\u002C3,5*%
%TO.N,Net-(LD10\u002C3-Pad2)*%
X251892700Y-113131600D03*
D12*
%TO.P,LD11\u002C3,4*%
%TO.N,Net-(LD10\u002C3-Pad3)*%
X251892700Y-112231600D03*
%TO.P,LD11\u002C3,7*%
%TO.N,N/C*%
X251892700Y-114031600D03*
D14*
%TO.P,LD11\u002C3,8*%
X252742700Y-113961600D03*
D15*
%TO.P,LD11\u002C3,6*%
%TO.N,GNDPWR*%
X252742700Y-112441600D03*
%TD*%
D12*
%TO.P,LD11\u002C1,1*%
%TO.N,MAIN_VBUS*%
X238670200Y-75360100D03*
D13*
%TO.P,LD11\u002C1,2*%
%TO.N,Net-(LD11\u002C1-Pad2)*%
X238670200Y-74460100D03*
D12*
%TO.P,LD11\u002C1,3*%
%TO.N,Net-(LD11\u002C1-Pad3)*%
X238670200Y-73560100D03*
D13*
%TO.P,LD11\u002C1,5*%
%TO.N,Net-(LD10\u002C1-Pad2)*%
X236970200Y-74460100D03*
D12*
%TO.P,LD11\u002C1,4*%
%TO.N,Net-(LD10\u002C1-Pad3)*%
X236970200Y-73560100D03*
%TO.P,LD11\u002C1,7*%
%TO.N,N/C*%
X236970200Y-75360100D03*
D14*
%TO.P,LD11\u002C1,8*%
X237820200Y-75290100D03*
D15*
%TO.P,LD11\u002C1,6*%
%TO.N,GNDPWR*%
X237820200Y-73770100D03*
%TD*%
D12*
%TO.P,LD10\u002C3,1*%
%TO.N,MAIN_VBUS*%
X234288700Y-114031600D03*
D13*
%TO.P,LD10\u002C3,2*%
%TO.N,Net-(LD10\u002C3-Pad2)*%
X234288700Y-113131600D03*
D12*
%TO.P,LD10\u002C3,3*%
%TO.N,Net-(LD10\u002C3-Pad3)*%
X234288700Y-112231600D03*
D13*
%TO.P,LD10\u002C3,5*%
%TO.N,Net-(LD10\u002C3-Pad5)*%
X232588700Y-113131600D03*
D12*
%TO.P,LD10\u002C3,4*%
%TO.N,Net-(LD10\u002C3-Pad4)*%
X232588700Y-112231600D03*
%TO.P,LD10\u002C3,7*%
%TO.N,N/C*%
X232588700Y-114031600D03*
D14*
%TO.P,LD10\u002C3,8*%
X233438700Y-113961600D03*
D15*
%TO.P,LD10\u002C3,6*%
%TO.N,GNDPWR*%
X233438700Y-112441600D03*
%TD*%
D12*
%TO.P,LD10\u002C4,1*%
%TO.N,MAIN_VBUS*%
X243686700Y-133843600D03*
D13*
%TO.P,LD10\u002C4,2*%
%TO.N,Net-(LD10\u002C4-Pad2)*%
X243686700Y-132943600D03*
D12*
%TO.P,LD10\u002C4,3*%
%TO.N,Net-(LD10\u002C4-Pad3)*%
X243686700Y-132043600D03*
D13*
%TO.P,LD10\u002C4,5*%
%TO.N,Net-(LD10\u002C4-Pad5)*%
X241986700Y-132943600D03*
D12*
%TO.P,LD10\u002C4,4*%
%TO.N,Net-(LD10\u002C4-Pad4)*%
X241986700Y-132043600D03*
%TO.P,LD10\u002C4,7*%
%TO.N,N/C*%
X241986700Y-133843600D03*
D14*
%TO.P,LD10\u002C4,8*%
X242836700Y-133773600D03*
D15*
%TO.P,LD10\u002C4,6*%
%TO.N,GNDPWR*%
X242836700Y-132253600D03*
%TD*%
D12*
%TO.P,LD10\u002C2,1*%
%TO.N,MAIN_VBUS*%
X229399200Y-94600600D03*
D13*
%TO.P,LD10\u002C2,2*%
%TO.N,Net-(LD10\u002C2-Pad2)*%
X229399200Y-93700600D03*
D12*
%TO.P,LD10\u002C2,3*%
%TO.N,Net-(LD10\u002C2-Pad3)*%
X229399200Y-92800600D03*
D13*
%TO.P,LD10\u002C2,5*%
%TO.N,Net-(LD10\u002C2-Pad5)*%
X227699200Y-93700600D03*
D12*
%TO.P,LD10\u002C2,4*%
%TO.N,Net-(LD10\u002C2-Pad4)*%
X227699200Y-92800600D03*
%TO.P,LD10\u002C2,7*%
%TO.N,N/C*%
X227699200Y-94600600D03*
D14*
%TO.P,LD10\u002C2,8*%
X228549200Y-94530600D03*
D15*
%TO.P,LD10\u002C2,6*%
%TO.N,GNDPWR*%
X228549200Y-93010600D03*
%TD*%
D12*
%TO.P,LD10\u002C1,1*%
%TO.N,MAIN_VBUS*%
X219366200Y-75360100D03*
D13*
%TO.P,LD10\u002C1,2*%
%TO.N,Net-(LD10\u002C1-Pad2)*%
X219366200Y-74460100D03*
D12*
%TO.P,LD10\u002C1,3*%
%TO.N,Net-(LD10\u002C1-Pad3)*%
X219366200Y-73560100D03*
D13*
%TO.P,LD10\u002C1,5*%
%TO.N,Net-(LD10\u002C1-Pad5)*%
X217666200Y-74460100D03*
D12*
%TO.P,LD10\u002C1,4*%
%TO.N,Net-(LD10\u002C1-Pad4)*%
X217666200Y-73560100D03*
%TO.P,LD10\u002C1,7*%
%TO.N,N/C*%
X217666200Y-75360100D03*
D14*
%TO.P,LD10\u002C1,8*%
X218516200Y-75290100D03*
D15*
%TO.P,LD10\u002C1,6*%
%TO.N,GNDPWR*%
X218516200Y-73770100D03*
%TD*%
D12*
%TO.P,LD10\u002C5,1*%
%TO.N,MAIN_VBUS*%
X270356700Y-153274600D03*
D13*
%TO.P,LD10\u002C5,2*%
%TO.N,Net-(LD10\u002C5-Pad2)*%
X270356700Y-152374600D03*
D12*
%TO.P,LD10\u002C5,3*%
%TO.N,Net-(LD10\u002C5-Pad3)*%
X270356700Y-151474600D03*
D13*
%TO.P,LD10\u002C5,5*%
%TO.N,Net-(LD10\u002C5-Pad5)*%
X268656700Y-152374600D03*
D12*
%TO.P,LD10\u002C5,4*%
%TO.N,Net-(LD10\u002C5-Pad4)*%
X268656700Y-151474600D03*
%TO.P,LD10\u002C5,7*%
%TO.N,N/C*%
X268656700Y-153274600D03*
D14*
%TO.P,LD10\u002C5,8*%
X269506700Y-153204600D03*
D15*
%TO.P,LD10\u002C5,6*%
%TO.N,GNDPWR*%
X269506700Y-151684600D03*
%TD*%
D12*
%TO.P,LD10\u002C0,1*%
%TO.N,MAIN_VBUS*%
X258657460Y-49452100D03*
D13*
%TO.P,LD10\u002C0,2*%
%TO.N,Net-(LD10\u002C0-Pad2)*%
X258657460Y-48552100D03*
D12*
%TO.P,LD10\u002C0,3*%
%TO.N,Net-(LD10\u002C0-Pad3)*%
X258657460Y-47652100D03*
D13*
%TO.P,LD10\u002C0,5*%
%TO.N,Net-(LD10\u002C0-Pad5)*%
X256957460Y-48552100D03*
D12*
%TO.P,LD10\u002C0,4*%
%TO.N,Net-(LD10\u002C0-Pad4)*%
X256957460Y-47652100D03*
%TO.P,LD10\u002C0,7*%
%TO.N,N/C*%
X256957460Y-49452100D03*
D14*
%TO.P,LD10\u002C0,8*%
X257807460Y-49382100D03*
D15*
%TO.P,LD10\u002C0,6*%
%TO.N,GNDPWR*%
X257807460Y-47862100D03*
%TD*%
D12*
%TO.P,LD9\u002C2,1*%
%TO.N,MAIN_VBUS*%
X210095200Y-94600600D03*
D13*
%TO.P,LD9\u002C2,2*%
%TO.N,Net-(LD10\u002C2-Pad5)*%
X210095200Y-93700600D03*
D12*
%TO.P,LD9\u002C2,3*%
%TO.N,Net-(LD10\u002C2-Pad4)*%
X210095200Y-92800600D03*
D13*
%TO.P,LD9\u002C2,5*%
%TO.N,Net-(LD8\u002C2-Pad2)*%
X208395200Y-93700600D03*
D12*
%TO.P,LD9\u002C2,4*%
%TO.N,Net-(LD8\u002C2-Pad3)*%
X208395200Y-92800600D03*
%TO.P,LD9\u002C2,7*%
%TO.N,N/C*%
X208395200Y-94600600D03*
D14*
%TO.P,LD9\u002C2,8*%
X209245200Y-94530600D03*
D15*
%TO.P,LD9\u002C2,6*%
%TO.N,GNDPWR*%
X209245200Y-93010600D03*
%TD*%
D12*
%TO.P,LD9\u002C5,1*%
%TO.N,MAIN_VBUS*%
X246163200Y-153274600D03*
D13*
%TO.P,LD9\u002C5,2*%
%TO.N,Net-(LD10\u002C5-Pad5)*%
X246163200Y-152374600D03*
D12*
%TO.P,LD9\u002C5,3*%
%TO.N,Net-(LD10\u002C5-Pad4)*%
X246163200Y-151474600D03*
D13*
%TO.P,LD9\u002C5,5*%
%TO.N,Net-(LD8\u002C5-Pad2)*%
X244463200Y-152374600D03*
D12*
%TO.P,LD9\u002C5,4*%
%TO.N,Net-(LD8\u002C5-Pad3)*%
X244463200Y-151474600D03*
%TO.P,LD9\u002C5,7*%
%TO.N,N/C*%
X244463200Y-153274600D03*
D14*
%TO.P,LD9\u002C5,8*%
X245313200Y-153204600D03*
D15*
%TO.P,LD9\u002C5,6*%
%TO.N,GNDPWR*%
X245313200Y-151684600D03*
%TD*%
D12*
%TO.P,LD9\u002C3,1*%
%TO.N,MAIN_VBUS*%
X214984700Y-114031600D03*
D13*
%TO.P,LD9\u002C3,2*%
%TO.N,Net-(LD10\u002C3-Pad5)*%
X214984700Y-113131600D03*
D12*
%TO.P,LD9\u002C3,3*%
%TO.N,Net-(LD10\u002C3-Pad4)*%
X214984700Y-112231600D03*
D13*
%TO.P,LD9\u002C3,5*%
%TO.N,Net-(LD8\u002C3-Pad2)*%
X213284700Y-113131600D03*
D12*
%TO.P,LD9\u002C3,4*%
%TO.N,Net-(LD8\u002C3-Pad3)*%
X213284700Y-112231600D03*
%TO.P,LD9\u002C3,7*%
%TO.N,N/C*%
X213284700Y-114031600D03*
D14*
%TO.P,LD9\u002C3,8*%
X214134700Y-113961600D03*
D15*
%TO.P,LD9\u002C3,6*%
%TO.N,GNDPWR*%
X214134700Y-112441600D03*
%TD*%
D12*
%TO.P,LD9\u002C4,1*%
%TO.N,MAIN_VBUS*%
X224382700Y-133843600D03*
D13*
%TO.P,LD9\u002C4,2*%
%TO.N,Net-(LD10\u002C4-Pad5)*%
X224382700Y-132943600D03*
D12*
%TO.P,LD9\u002C4,3*%
%TO.N,Net-(LD10\u002C4-Pad4)*%
X224382700Y-132043600D03*
D13*
%TO.P,LD9\u002C4,5*%
%TO.N,Net-(LD8\u002C4-Pad2)*%
X222682700Y-132943600D03*
D12*
%TO.P,LD9\u002C4,4*%
%TO.N,Net-(LD8\u002C4-Pad3)*%
X222682700Y-132043600D03*
%TO.P,LD9\u002C4,7*%
%TO.N,N/C*%
X222682700Y-133843600D03*
D14*
%TO.P,LD9\u002C4,8*%
X223532700Y-133773600D03*
D15*
%TO.P,LD9\u002C4,6*%
%TO.N,GNDPWR*%
X223532700Y-132253600D03*
%TD*%
D12*
%TO.P,LD9\u002C1,1*%
%TO.N,MAIN_VBUS*%
X200062200Y-75360100D03*
D13*
%TO.P,LD9\u002C1,2*%
%TO.N,Net-(LD10\u002C1-Pad5)*%
X200062200Y-74460100D03*
D12*
%TO.P,LD9\u002C1,3*%
%TO.N,Net-(LD10\u002C1-Pad4)*%
X200062200Y-73560100D03*
D13*
%TO.P,LD9\u002C1,5*%
%TO.N,Net-(LD8\u002C1-Pad2)*%
X198362200Y-74460100D03*
D12*
%TO.P,LD9\u002C1,4*%
%TO.N,Net-(LD8\u002C1-Pad3)*%
X198362200Y-73560100D03*
%TO.P,LD9\u002C1,7*%
%TO.N,N/C*%
X198362200Y-75360100D03*
D14*
%TO.P,LD9\u002C1,8*%
X199212200Y-75290100D03*
D15*
%TO.P,LD9\u002C1,6*%
%TO.N,GNDPWR*%
X199212200Y-73770100D03*
%TD*%
D12*
%TO.P,LD9\u002C0,1*%
%TO.N,MAIN_VBUS*%
X239353460Y-49452100D03*
D13*
%TO.P,LD9\u002C0,2*%
%TO.N,Net-(LD10\u002C0-Pad5)*%
X239353460Y-48552100D03*
D12*
%TO.P,LD9\u002C0,3*%
%TO.N,Net-(LD10\u002C0-Pad4)*%
X239353460Y-47652100D03*
D13*
%TO.P,LD9\u002C0,5*%
%TO.N,Net-(LD8\u002C0-Pad2)*%
X237653460Y-48552100D03*
D12*
%TO.P,LD9\u002C0,4*%
%TO.N,Net-(LD8\u002C0-Pad3)*%
X237653460Y-47652100D03*
%TO.P,LD9\u002C0,7*%
%TO.N,N/C*%
X237653460Y-49452100D03*
D14*
%TO.P,LD9\u002C0,8*%
X238503460Y-49382100D03*
D15*
%TO.P,LD9\u002C0,6*%
%TO.N,GNDPWR*%
X238503460Y-47862100D03*
%TD*%
D12*
%TO.P,LD8\u002C5,1*%
%TO.N,MAIN_VBUS*%
X222033200Y-153274600D03*
D13*
%TO.P,LD8\u002C5,2*%
%TO.N,Net-(LD8\u002C5-Pad2)*%
X222033200Y-152374600D03*
D12*
%TO.P,LD8\u002C5,3*%
%TO.N,Net-(LD8\u002C5-Pad3)*%
X222033200Y-151474600D03*
D13*
%TO.P,LD8\u002C5,5*%
%TO.N,Net-(LD3\u002C5\u002C1-Pad2)*%
X220333200Y-152374600D03*
D12*
%TO.P,LD8\u002C5,4*%
%TO.N,Net-(LD3\u002C5\u002C1-Pad3)*%
X220333200Y-151474600D03*
%TO.P,LD8\u002C5,7*%
%TO.N,N/C*%
X220333200Y-153274600D03*
D14*
%TO.P,LD8\u002C5,8*%
X221183200Y-153204600D03*
D15*
%TO.P,LD8\u002C5,6*%
%TO.N,GNDPWR*%
X221183200Y-151684600D03*
%TD*%
D12*
%TO.P,LD8\u002C1,1*%
%TO.N,MAIN_VBUS*%
X180758200Y-75360100D03*
D13*
%TO.P,LD8\u002C1,2*%
%TO.N,Net-(LD8\u002C1-Pad2)*%
X180758200Y-74460100D03*
D12*
%TO.P,LD8\u002C1,3*%
%TO.N,Net-(LD8\u002C1-Pad3)*%
X180758200Y-73560100D03*
D13*
%TO.P,LD8\u002C1,5*%
%TO.N,Net-(LD7\u002C1-Pad2)*%
X179058200Y-74460100D03*
D12*
%TO.P,LD8\u002C1,4*%
%TO.N,Net-(LD7\u002C1-Pad3)*%
X179058200Y-73560100D03*
%TO.P,LD8\u002C1,7*%
%TO.N,N/C*%
X179058200Y-75360100D03*
D14*
%TO.P,LD8\u002C1,8*%
X179908200Y-75290100D03*
D15*
%TO.P,LD8\u002C1,6*%
%TO.N,GNDPWR*%
X179908200Y-73770100D03*
%TD*%
D12*
%TO.P,LD8\u002C2,1*%
%TO.N,MAIN_VBUS*%
X190791200Y-94600600D03*
D13*
%TO.P,LD8\u002C2,2*%
%TO.N,Net-(LD8\u002C2-Pad2)*%
X190791200Y-93700600D03*
D12*
%TO.P,LD8\u002C2,3*%
%TO.N,Net-(LD8\u002C2-Pad3)*%
X190791200Y-92800600D03*
D13*
%TO.P,LD8\u002C2,5*%
%TO.N,Net-(LD7\u002C2-Pad2)*%
X189091200Y-93700600D03*
D12*
%TO.P,LD8\u002C2,4*%
%TO.N,Net-(LD7\u002C2-Pad3)*%
X189091200Y-92800600D03*
%TO.P,LD8\u002C2,7*%
%TO.N,N/C*%
X189091200Y-94600600D03*
D14*
%TO.P,LD8\u002C2,8*%
X189941200Y-94530600D03*
D15*
%TO.P,LD8\u002C2,6*%
%TO.N,GNDPWR*%
X189941200Y-93010600D03*
%TD*%
D12*
%TO.P,LD8\u002C0,1*%
%TO.N,MAIN_VBUS*%
X212937460Y-49452100D03*
D13*
%TO.P,LD8\u002C0,2*%
%TO.N,Net-(LD8\u002C0-Pad2)*%
X212937460Y-48552100D03*
D12*
%TO.P,LD8\u002C0,3*%
%TO.N,Net-(LD8\u002C0-Pad3)*%
X212937460Y-47652100D03*
D13*
%TO.P,LD8\u002C0,5*%
%TO.N,Net-(LD7\u002C0-Pad2)*%
X211237460Y-48552100D03*
D12*
%TO.P,LD8\u002C0,4*%
%TO.N,Net-(LD7\u002C0-Pad3)*%
X211237460Y-47652100D03*
%TO.P,LD8\u002C0,7*%
%TO.N,N/C*%
X211237460Y-49452100D03*
D14*
%TO.P,LD8\u002C0,8*%
X212087460Y-49382100D03*
D15*
%TO.P,LD8\u002C0,6*%
%TO.N,GNDPWR*%
X212087460Y-47862100D03*
%TD*%
D12*
%TO.P,LD8\u002C4,1*%
%TO.N,MAIN_VBUS*%
X205078700Y-133843600D03*
D13*
%TO.P,LD8\u002C4,2*%
%TO.N,Net-(LD8\u002C4-Pad2)*%
X205078700Y-132943600D03*
D12*
%TO.P,LD8\u002C4,3*%
%TO.N,Net-(LD8\u002C4-Pad3)*%
X205078700Y-132043600D03*
D13*
%TO.P,LD8\u002C4,5*%
%TO.N,Net-(LD7\u002C4-Pad2)*%
X203378700Y-132943600D03*
D12*
%TO.P,LD8\u002C4,4*%
%TO.N,Net-(LD7\u002C4-Pad3)*%
X203378700Y-132043600D03*
%TO.P,LD8\u002C4,7*%
%TO.N,N/C*%
X203378700Y-133843600D03*
D14*
%TO.P,LD8\u002C4,8*%
X204228700Y-133773600D03*
D15*
%TO.P,LD8\u002C4,6*%
%TO.N,GNDPWR*%
X204228700Y-132253600D03*
%TD*%
D12*
%TO.P,LD8\u002C3,1*%
%TO.N,MAIN_VBUS*%
X195680700Y-114031600D03*
D13*
%TO.P,LD8\u002C3,2*%
%TO.N,Net-(LD8\u002C3-Pad2)*%
X195680700Y-113131600D03*
D12*
%TO.P,LD8\u002C3,3*%
%TO.N,Net-(LD8\u002C3-Pad3)*%
X195680700Y-112231600D03*
D13*
%TO.P,LD8\u002C3,5*%
%TO.N,Net-(LD7\u002C3-Pad2)*%
X193980700Y-113131600D03*
D12*
%TO.P,LD8\u002C3,4*%
%TO.N,Net-(LD7\u002C3-Pad3)*%
X193980700Y-112231600D03*
%TO.P,LD8\u002C3,7*%
%TO.N,N/C*%
X193980700Y-114031600D03*
D14*
%TO.P,LD8\u002C3,8*%
X194830700Y-113961600D03*
D15*
%TO.P,LD8\u002C3,6*%
%TO.N,GNDPWR*%
X194830700Y-112441600D03*
%TD*%
D12*
%TO.P,LD7\u002C2,1*%
%TO.N,MAIN_VBUS*%
X171487200Y-94600600D03*
D13*
%TO.P,LD7\u002C2,2*%
%TO.N,Net-(LD7\u002C2-Pad2)*%
X171487200Y-93700600D03*
D12*
%TO.P,LD7\u002C2,3*%
%TO.N,Net-(LD7\u002C2-Pad3)*%
X171487200Y-92800600D03*
D13*
%TO.P,LD7\u002C2,5*%
%TO.N,Net-(LD6\u002C2-Pad2)*%
X169787200Y-93700600D03*
D12*
%TO.P,LD7\u002C2,4*%
%TO.N,Net-(LD6\u002C2-Pad3)*%
X169787200Y-92800600D03*
%TO.P,LD7\u002C2,7*%
%TO.N,N/C*%
X169787200Y-94600600D03*
D14*
%TO.P,LD7\u002C2,8*%
X170637200Y-94530600D03*
D15*
%TO.P,LD7\u002C2,6*%
%TO.N,GNDPWR*%
X170637200Y-93010600D03*
%TD*%
D12*
%TO.P,LD7\u002C1,1*%
%TO.N,MAIN_VBUS*%
X161454200Y-75360100D03*
D13*
%TO.P,LD7\u002C1,2*%
%TO.N,Net-(LD7\u002C1-Pad2)*%
X161454200Y-74460100D03*
D12*
%TO.P,LD7\u002C1,3*%
%TO.N,Net-(LD7\u002C1-Pad3)*%
X161454200Y-73560100D03*
D13*
%TO.P,LD7\u002C1,5*%
%TO.N,Net-(LD6\u002C1-Pad2)*%
X159754200Y-74460100D03*
D12*
%TO.P,LD7\u002C1,4*%
%TO.N,Net-(LD6\u002C1-Pad3)*%
X159754200Y-73560100D03*
%TO.P,LD7\u002C1,7*%
%TO.N,N/C*%
X159754200Y-75360100D03*
D14*
%TO.P,LD7\u002C1,8*%
X160604200Y-75290100D03*
D15*
%TO.P,LD7\u002C1,6*%
%TO.N,GNDPWR*%
X160604200Y-73770100D03*
%TD*%
D12*
%TO.P,LD7\u002C3,1*%
%TO.N,MAIN_VBUS*%
X176376700Y-114031600D03*
D13*
%TO.P,LD7\u002C3,2*%
%TO.N,Net-(LD7\u002C3-Pad2)*%
X176376700Y-113131600D03*
D12*
%TO.P,LD7\u002C3,3*%
%TO.N,Net-(LD7\u002C3-Pad3)*%
X176376700Y-112231600D03*
D13*
%TO.P,LD7\u002C3,5*%
%TO.N,Net-(LD6\u002C3-Pad2)*%
X174676700Y-113131600D03*
D12*
%TO.P,LD7\u002C3,4*%
%TO.N,Net-(LD6\u002C3-Pad3)*%
X174676700Y-112231600D03*
%TO.P,LD7\u002C3,7*%
%TO.N,N/C*%
X174676700Y-114031600D03*
D14*
%TO.P,LD7\u002C3,8*%
X175526700Y-113961600D03*
D15*
%TO.P,LD7\u002C3,6*%
%TO.N,GNDPWR*%
X175526700Y-112441600D03*
%TD*%
D12*
%TO.P,LD7\u002C4,1*%
%TO.N,MAIN_VBUS*%
X185774700Y-133843600D03*
D13*
%TO.P,LD7\u002C4,2*%
%TO.N,Net-(LD7\u002C4-Pad2)*%
X185774700Y-132943600D03*
D12*
%TO.P,LD7\u002C4,3*%
%TO.N,Net-(LD7\u002C4-Pad3)*%
X185774700Y-132043600D03*
D13*
%TO.P,LD7\u002C4,5*%
%TO.N,Net-(LD6\u002C4-Pad2)*%
X184074700Y-132943600D03*
D12*
%TO.P,LD7\u002C4,4*%
%TO.N,Net-(LD6\u002C4-Pad3)*%
X184074700Y-132043600D03*
%TO.P,LD7\u002C4,7*%
%TO.N,N/C*%
X184074700Y-133843600D03*
D14*
%TO.P,LD7\u002C4,8*%
X184924700Y-133773600D03*
D15*
%TO.P,LD7\u002C4,6*%
%TO.N,GNDPWR*%
X184924700Y-132253600D03*
%TD*%
D12*
%TO.P,LD7\u002C0,1*%
%TO.N,MAIN_VBUS*%
X193633460Y-49452100D03*
D13*
%TO.P,LD7\u002C0,2*%
%TO.N,Net-(LD7\u002C0-Pad2)*%
X193633460Y-48552100D03*
D12*
%TO.P,LD7\u002C0,3*%
%TO.N,Net-(LD7\u002C0-Pad3)*%
X193633460Y-47652100D03*
D13*
%TO.P,LD7\u002C0,5*%
%TO.N,Net-(LD6\u002C0-Pad2)*%
X191933460Y-48552100D03*
D12*
%TO.P,LD7\u002C0,4*%
%TO.N,Net-(LD6\u002C0-Pad3)*%
X191933460Y-47652100D03*
%TO.P,LD7\u002C0,7*%
%TO.N,N/C*%
X191933460Y-49452100D03*
D14*
%TO.P,LD7\u002C0,8*%
X192783460Y-49382100D03*
D15*
%TO.P,LD7\u002C0,6*%
%TO.N,GNDPWR*%
X192783460Y-47862100D03*
%TD*%
D12*
%TO.P,LD6\u002C1,1*%
%TO.N,MAIN_VBUS*%
X142150200Y-75360100D03*
D13*
%TO.P,LD6\u002C1,2*%
%TO.N,Net-(LD6\u002C1-Pad2)*%
X142150200Y-74460100D03*
D12*
%TO.P,LD6\u002C1,3*%
%TO.N,Net-(LD6\u002C1-Pad3)*%
X142150200Y-73560100D03*
D13*
%TO.P,LD6\u002C1,5*%
%TO.N,Net-(LD5\u002C1-Pad2)*%
X140450200Y-74460100D03*
D12*
%TO.P,LD6\u002C1,4*%
%TO.N,Net-(LD5\u002C1-Pad3)*%
X140450200Y-73560100D03*
%TO.P,LD6\u002C1,7*%
%TO.N,N/C*%
X140450200Y-75360100D03*
D14*
%TO.P,LD6\u002C1,8*%
X141300200Y-75290100D03*
D15*
%TO.P,LD6\u002C1,6*%
%TO.N,GNDPWR*%
X141300200Y-73770100D03*
%TD*%
D12*
%TO.P,LD6\u002C3,1*%
%TO.N,MAIN_VBUS*%
X157072700Y-114031600D03*
D13*
%TO.P,LD6\u002C3,2*%
%TO.N,Net-(LD6\u002C3-Pad2)*%
X157072700Y-113131600D03*
D12*
%TO.P,LD6\u002C3,3*%
%TO.N,Net-(LD6\u002C3-Pad3)*%
X157072700Y-112231600D03*
D13*
%TO.P,LD6\u002C3,5*%
%TO.N,Net-(LD5\u002C3-Pad2)*%
X155372700Y-113131600D03*
D12*
%TO.P,LD6\u002C3,4*%
%TO.N,Net-(LD5\u002C3-Pad3)*%
X155372700Y-112231600D03*
%TO.P,LD6\u002C3,7*%
%TO.N,N/C*%
X155372700Y-114031600D03*
D14*
%TO.P,LD6\u002C3,8*%
X156222700Y-113961600D03*
D15*
%TO.P,LD6\u002C3,6*%
%TO.N,GNDPWR*%
X156222700Y-112441600D03*
%TD*%
D12*
%TO.P,LD6\u002C4,1*%
%TO.N,MAIN_VBUS*%
X166470700Y-133843600D03*
D13*
%TO.P,LD6\u002C4,2*%
%TO.N,Net-(LD6\u002C4-Pad2)*%
X166470700Y-132943600D03*
D12*
%TO.P,LD6\u002C4,3*%
%TO.N,Net-(LD6\u002C4-Pad3)*%
X166470700Y-132043600D03*
D13*
%TO.P,LD6\u002C4,5*%
%TO.N,Net-(LD5\u002C4-Pad2)*%
X164770700Y-132943600D03*
D12*
%TO.P,LD6\u002C4,4*%
%TO.N,Net-(LD5\u002C4-Pad3)*%
X164770700Y-132043600D03*
%TO.P,LD6\u002C4,7*%
%TO.N,N/C*%
X164770700Y-133843600D03*
D14*
%TO.P,LD6\u002C4,8*%
X165620700Y-133773600D03*
D15*
%TO.P,LD6\u002C4,6*%
%TO.N,GNDPWR*%
X165620700Y-132253600D03*
%TD*%
D12*
%TO.P,LD6\u002C0,1*%
%TO.N,MAIN_VBUS*%
X174329460Y-49452100D03*
D13*
%TO.P,LD6\u002C0,2*%
%TO.N,Net-(LD6\u002C0-Pad2)*%
X174329460Y-48552100D03*
D12*
%TO.P,LD6\u002C0,3*%
%TO.N,Net-(LD6\u002C0-Pad3)*%
X174329460Y-47652100D03*
D13*
%TO.P,LD6\u002C0,5*%
%TO.N,Net-(LD5\u002C0-Pad2)*%
X172629460Y-48552100D03*
D12*
%TO.P,LD6\u002C0,4*%
%TO.N,Net-(LD5\u002C0-Pad3)*%
X172629460Y-47652100D03*
%TO.P,LD6\u002C0,7*%
%TO.N,N/C*%
X172629460Y-49452100D03*
D14*
%TO.P,LD6\u002C0,8*%
X173479460Y-49382100D03*
D15*
%TO.P,LD6\u002C0,6*%
%TO.N,GNDPWR*%
X173479460Y-47862100D03*
%TD*%
D12*
%TO.P,LD6\u002C2,1*%
%TO.N,MAIN_VBUS*%
X152183200Y-94600600D03*
D13*
%TO.P,LD6\u002C2,2*%
%TO.N,Net-(LD6\u002C2-Pad2)*%
X152183200Y-93700600D03*
D12*
%TO.P,LD6\u002C2,3*%
%TO.N,Net-(LD6\u002C2-Pad3)*%
X152183200Y-92800600D03*
D13*
%TO.P,LD6\u002C2,5*%
%TO.N,Net-(LD5\u002C2-Pad2)*%
X150483200Y-93700600D03*
D12*
%TO.P,LD6\u002C2,4*%
%TO.N,Net-(LD5\u002C2-Pad3)*%
X150483200Y-92800600D03*
%TO.P,LD6\u002C2,7*%
%TO.N,N/C*%
X150483200Y-94600600D03*
D14*
%TO.P,LD6\u002C2,8*%
X151333200Y-94530600D03*
D15*
%TO.P,LD6\u002C2,6*%
%TO.N,GNDPWR*%
X151333200Y-93010600D03*
%TD*%
D12*
%TO.P,LD5\u002C1,1*%
%TO.N,MAIN_VBUS*%
X122846200Y-75360100D03*
D13*
%TO.P,LD5\u002C1,2*%
%TO.N,Net-(LD5\u002C1-Pad2)*%
X122846200Y-74460100D03*
D12*
%TO.P,LD5\u002C1,3*%
%TO.N,Net-(LD5\u002C1-Pad3)*%
X122846200Y-73560100D03*
D13*
%TO.P,LD5\u002C1,5*%
%TO.N,Net-(LD4\u002C1-Pad2)*%
X121146200Y-74460100D03*
D12*
%TO.P,LD5\u002C1,4*%
%TO.N,Net-(LD4\u002C1-Pad3)*%
X121146200Y-73560100D03*
%TO.P,LD5\u002C1,7*%
%TO.N,N/C*%
X121146200Y-75360100D03*
D14*
%TO.P,LD5\u002C1,8*%
X121996200Y-75290100D03*
D15*
%TO.P,LD5\u002C1,6*%
%TO.N,GNDPWR*%
X121996200Y-73770100D03*
%TD*%
D12*
%TO.P,LD5\u002C2,1*%
%TO.N,MAIN_VBUS*%
X132879200Y-94600600D03*
D13*
%TO.P,LD5\u002C2,2*%
%TO.N,Net-(LD5\u002C2-Pad2)*%
X132879200Y-93700600D03*
D12*
%TO.P,LD5\u002C2,3*%
%TO.N,Net-(LD5\u002C2-Pad3)*%
X132879200Y-92800600D03*
D13*
%TO.P,LD5\u002C2,5*%
%TO.N,Net-(LD4\u002C2-Pad2)*%
X131179200Y-93700600D03*
D12*
%TO.P,LD5\u002C2,4*%
%TO.N,Net-(LD4\u002C2-Pad3)*%
X131179200Y-92800600D03*
%TO.P,LD5\u002C2,7*%
%TO.N,N/C*%
X131179200Y-94600600D03*
D14*
%TO.P,LD5\u002C2,8*%
X132029200Y-94530600D03*
D15*
%TO.P,LD5\u002C2,6*%
%TO.N,GNDPWR*%
X132029200Y-93010600D03*
%TD*%
D12*
%TO.P,LD5\u002C4,1*%
%TO.N,MAIN_VBUS*%
X147166700Y-133843600D03*
D13*
%TO.P,LD5\u002C4,2*%
%TO.N,Net-(LD5\u002C4-Pad2)*%
X147166700Y-132943600D03*
D12*
%TO.P,LD5\u002C4,3*%
%TO.N,Net-(LD5\u002C4-Pad3)*%
X147166700Y-132043600D03*
D13*
%TO.P,LD5\u002C4,5*%
%TO.N,Net-(LD4\u002C4-Pad2)*%
X145466700Y-132943600D03*
D12*
%TO.P,LD5\u002C4,4*%
%TO.N,Net-(LD4\u002C4-Pad3)*%
X145466700Y-132043600D03*
%TO.P,LD5\u002C4,7*%
%TO.N,N/C*%
X145466700Y-133843600D03*
D14*
%TO.P,LD5\u002C4,8*%
X146316700Y-133773600D03*
D15*
%TO.P,LD5\u002C4,6*%
%TO.N,GNDPWR*%
X146316700Y-132253600D03*
%TD*%
D12*
%TO.P,LD5\u002C0,1*%
%TO.N,MAIN_VBUS*%
X155025460Y-49452100D03*
D13*
%TO.P,LD5\u002C0,2*%
%TO.N,Net-(LD5\u002C0-Pad2)*%
X155025460Y-48552100D03*
D12*
%TO.P,LD5\u002C0,3*%
%TO.N,Net-(LD5\u002C0-Pad3)*%
X155025460Y-47652100D03*
D13*
%TO.P,LD5\u002C0,5*%
%TO.N,Net-(LD4\u002C0-Pad2)*%
X153325460Y-48552100D03*
D12*
%TO.P,LD5\u002C0,4*%
%TO.N,Net-(LD4\u002C0-Pad3)*%
X153325460Y-47652100D03*
%TO.P,LD5\u002C0,7*%
%TO.N,N/C*%
X153325460Y-49452100D03*
D14*
%TO.P,LD5\u002C0,8*%
X154175460Y-49382100D03*
D15*
%TO.P,LD5\u002C0,6*%
%TO.N,GNDPWR*%
X154175460Y-47862100D03*
%TD*%
D12*
%TO.P,LD5\u002C3,1*%
%TO.N,MAIN_VBUS*%
X137768700Y-114031600D03*
D13*
%TO.P,LD5\u002C3,2*%
%TO.N,Net-(LD5\u002C3-Pad2)*%
X137768700Y-113131600D03*
D12*
%TO.P,LD5\u002C3,3*%
%TO.N,Net-(LD5\u002C3-Pad3)*%
X137768700Y-112231600D03*
D13*
%TO.P,LD5\u002C3,5*%
%TO.N,Net-(LD4\u002C3-Pad2)*%
X136068700Y-113131600D03*
D12*
%TO.P,LD5\u002C3,4*%
%TO.N,Net-(LD4\u002C3-Pad3)*%
X136068700Y-112231600D03*
%TO.P,LD5\u002C3,7*%
%TO.N,N/C*%
X136068700Y-114031600D03*
D14*
%TO.P,LD5\u002C3,8*%
X136918700Y-113961600D03*
D15*
%TO.P,LD5\u002C3,6*%
%TO.N,GNDPWR*%
X136918700Y-112441600D03*
%TD*%
D12*
%TO.P,LD4\u002C3,1*%
%TO.N,MAIN_VBUS*%
X118464700Y-114031600D03*
D13*
%TO.P,LD4\u002C3,2*%
%TO.N,Net-(LD4\u002C3-Pad2)*%
X118464700Y-113131600D03*
D12*
%TO.P,LD4\u002C3,3*%
%TO.N,Net-(LD4\u002C3-Pad3)*%
X118464700Y-112231600D03*
D13*
%TO.P,LD4\u002C3,5*%
%TO.N,Net-(LD3\u002C3-Pad2)*%
X116764700Y-113131600D03*
D12*
%TO.P,LD4\u002C3,4*%
%TO.N,Net-(LD3\u002C3-Pad3)*%
X116764700Y-112231600D03*
%TO.P,LD4\u002C3,7*%
%TO.N,N/C*%
X116764700Y-114031600D03*
D14*
%TO.P,LD4\u002C3,8*%
X117614700Y-113961600D03*
D15*
%TO.P,LD4\u002C3,6*%
%TO.N,GNDPWR*%
X117614700Y-112441600D03*
%TD*%
D12*
%TO.P,LD4\u002C4,1*%
%TO.N,MAIN_VBUS*%
X127862700Y-133843600D03*
D13*
%TO.P,LD4\u002C4,2*%
%TO.N,Net-(LD4\u002C4-Pad2)*%
X127862700Y-132943600D03*
D12*
%TO.P,LD4\u002C4,3*%
%TO.N,Net-(LD4\u002C4-Pad3)*%
X127862700Y-132043600D03*
D13*
%TO.P,LD4\u002C4,5*%
%TO.N,Net-(LD3\u002C4-Pad2)*%
X126162700Y-132943600D03*
D12*
%TO.P,LD4\u002C4,4*%
%TO.N,Net-(LD3\u002C4-Pad3)*%
X126162700Y-132043600D03*
%TO.P,LD4\u002C4,7*%
%TO.N,N/C*%
X126162700Y-133843600D03*
D14*
%TO.P,LD4\u002C4,8*%
X127012700Y-133773600D03*
D15*
%TO.P,LD4\u002C4,6*%
%TO.N,GNDPWR*%
X127012700Y-132253600D03*
%TD*%
D12*
%TO.P,LD4\u002C0,1*%
%TO.N,MAIN_VBUS*%
X123529460Y-49452100D03*
D13*
%TO.P,LD4\u002C0,2*%
%TO.N,Net-(LD4\u002C0-Pad2)*%
X123529460Y-48552100D03*
D12*
%TO.P,LD4\u002C0,3*%
%TO.N,Net-(LD4\u002C0-Pad3)*%
X123529460Y-47652100D03*
D13*
%TO.P,LD4\u002C0,5*%
%TO.N,Net-(LD3\u002C0-Pad2)*%
X121829460Y-48552100D03*
D12*
%TO.P,LD4\u002C0,4*%
%TO.N,Net-(LD3\u002C0-Pad3)*%
X121829460Y-47652100D03*
%TO.P,LD4\u002C0,7*%
%TO.N,N/C*%
X121829460Y-49452100D03*
D14*
%TO.P,LD4\u002C0,8*%
X122679460Y-49382100D03*
D15*
%TO.P,LD4\u002C0,6*%
%TO.N,GNDPWR*%
X122679460Y-47862100D03*
%TD*%
D12*
%TO.P,LD4\u002C2,1*%
%TO.N,MAIN_VBUS*%
X113575200Y-94600600D03*
D13*
%TO.P,LD4\u002C2,2*%
%TO.N,Net-(LD4\u002C2-Pad2)*%
X113575200Y-93700600D03*
D12*
%TO.P,LD4\u002C2,3*%
%TO.N,Net-(LD4\u002C2-Pad3)*%
X113575200Y-92800600D03*
D13*
%TO.P,LD4\u002C2,5*%
%TO.N,Net-(LD3\u002C2-Pad2)*%
X111875200Y-93700600D03*
D12*
%TO.P,LD4\u002C2,4*%
%TO.N,Net-(LD3\u002C2-Pad3)*%
X111875200Y-92800600D03*
%TO.P,LD4\u002C2,7*%
%TO.N,N/C*%
X111875200Y-94600600D03*
D14*
%TO.P,LD4\u002C2,8*%
X112725200Y-94530600D03*
D15*
%TO.P,LD4\u002C2,6*%
%TO.N,GNDPWR*%
X112725200Y-93010600D03*
%TD*%
D12*
%TO.P,LD4\u002C1,1*%
%TO.N,MAIN_VBUS*%
X103542200Y-75360100D03*
D13*
%TO.P,LD4\u002C1,2*%
%TO.N,Net-(LD4\u002C1-Pad2)*%
X103542200Y-74460100D03*
D12*
%TO.P,LD4\u002C1,3*%
%TO.N,Net-(LD4\u002C1-Pad3)*%
X103542200Y-73560100D03*
D13*
%TO.P,LD4\u002C1,5*%
%TO.N,Net-(LD3\u002C1-Pad2)*%
X101842200Y-74460100D03*
D12*
%TO.P,LD4\u002C1,4*%
%TO.N,Net-(LD3\u002C1-Pad3)*%
X101842200Y-73560100D03*
%TO.P,LD4\u002C1,7*%
%TO.N,N/C*%
X101842200Y-75360100D03*
D14*
%TO.P,LD4\u002C1,8*%
X102692200Y-75290100D03*
D15*
%TO.P,LD4\u002C1,6*%
%TO.N,GNDPWR*%
X102692200Y-73770100D03*
%TD*%
D12*
%TO.P,LD3\u002C0,1*%
%TO.N,MAIN_VBUS*%
X104225460Y-49452100D03*
D13*
%TO.P,LD3\u002C0,2*%
%TO.N,Net-(LD3\u002C0-Pad2)*%
X104225460Y-48552100D03*
D12*
%TO.P,LD3\u002C0,3*%
%TO.N,Net-(LD3\u002C0-Pad3)*%
X104225460Y-47652100D03*
D13*
%TO.P,LD3\u002C0,5*%
%TO.N,Net-(LD2\u002C0-Pad2)*%
X102525460Y-48552100D03*
D12*
%TO.P,LD3\u002C0,4*%
%TO.N,Net-(LD2\u002C0-Pad3)*%
X102525460Y-47652100D03*
%TO.P,LD3\u002C0,7*%
%TO.N,N/C*%
X102525460Y-49452100D03*
D14*
%TO.P,LD3\u002C0,8*%
X103375460Y-49382100D03*
D15*
%TO.P,LD3\u002C0,6*%
%TO.N,GNDPWR*%
X103375460Y-47862100D03*
%TD*%
D12*
%TO.P,LD3\u002C1,1*%
%TO.N,MAIN_VBUS*%
X84238200Y-75360100D03*
D13*
%TO.P,LD3\u002C1,2*%
%TO.N,Net-(LD3\u002C1-Pad2)*%
X84238200Y-74460100D03*
D12*
%TO.P,LD3\u002C1,3*%
%TO.N,Net-(LD3\u002C1-Pad3)*%
X84238200Y-73560100D03*
D13*
%TO.P,LD3\u002C1,5*%
%TO.N,Net-(LD2\u002C1-Pad2)*%
X82538200Y-74460100D03*
D12*
%TO.P,LD3\u002C1,4*%
%TO.N,Net-(LD2\u002C1-Pad3)*%
X82538200Y-73560100D03*
%TO.P,LD3\u002C1,7*%
%TO.N,N/C*%
X82538200Y-75360100D03*
D14*
%TO.P,LD3\u002C1,8*%
X83388200Y-75290100D03*
D15*
%TO.P,LD3\u002C1,6*%
%TO.N,GNDPWR*%
X83388200Y-73770100D03*
%TD*%
D12*
%TO.P,LD3\u002C2,1*%
%TO.N,MAIN_VBUS*%
X94271200Y-94600600D03*
D13*
%TO.P,LD3\u002C2,2*%
%TO.N,Net-(LD3\u002C2-Pad2)*%
X94271200Y-93700600D03*
D12*
%TO.P,LD3\u002C2,3*%
%TO.N,Net-(LD3\u002C2-Pad3)*%
X94271200Y-92800600D03*
D13*
%TO.P,LD3\u002C2,5*%
%TO.N,Net-(LD2\u002C2-Pad2)*%
X92571200Y-93700600D03*
D12*
%TO.P,LD3\u002C2,4*%
%TO.N,Net-(LD2\u002C2-Pad3)*%
X92571200Y-92800600D03*
%TO.P,LD3\u002C2,7*%
%TO.N,N/C*%
X92571200Y-94600600D03*
D14*
%TO.P,LD3\u002C2,8*%
X93421200Y-94530600D03*
D15*
%TO.P,LD3\u002C2,6*%
%TO.N,GNDPWR*%
X93421200Y-93010600D03*
%TD*%
D12*
%TO.P,LD3\u002C4,1*%
%TO.N,MAIN_VBUS*%
X108558700Y-133843600D03*
D13*
%TO.P,LD3\u002C4,2*%
%TO.N,Net-(LD3\u002C4-Pad2)*%
X108558700Y-132943600D03*
D12*
%TO.P,LD3\u002C4,3*%
%TO.N,Net-(LD3\u002C4-Pad3)*%
X108558700Y-132043600D03*
D13*
%TO.P,LD3\u002C4,5*%
%TO.N,Net-(LD2\u002C4-Pad2)*%
X106858700Y-132943600D03*
D12*
%TO.P,LD3\u002C4,4*%
%TO.N,Net-(LD2\u002C4-Pad3)*%
X106858700Y-132043600D03*
%TO.P,LD3\u002C4,7*%
%TO.N,N/C*%
X106858700Y-133843600D03*
D14*
%TO.P,LD3\u002C4,8*%
X107708700Y-133773600D03*
D15*
%TO.P,LD3\u002C4,6*%
%TO.N,GNDPWR*%
X107708700Y-132253600D03*
%TD*%
D12*
%TO.P,LD3\u002C5,1*%
%TO.N,MAIN_VBUS*%
X150278200Y-153274600D03*
D13*
%TO.P,LD3\u002C5,2*%
%TO.N,Net-(LD3\u002C5\u002C1-Pad5)*%
X150278200Y-152374600D03*
D12*
%TO.P,LD3\u002C5,3*%
%TO.N,Net-(LD3\u002C5\u002C1-Pad4)*%
X150278200Y-151474600D03*
D13*
%TO.P,LD3\u002C5,5*%
%TO.N,Net-(LD3\u002C5\u002C0-Pad2)*%
X148578200Y-152374600D03*
D12*
%TO.P,LD3\u002C5,4*%
%TO.N,Net-(LD3\u002C5\u002C0-Pad3)*%
X148578200Y-151474600D03*
%TO.P,LD3\u002C5,7*%
%TO.N,N/C*%
X148578200Y-153274600D03*
D14*
%TO.P,LD3\u002C5,8*%
X149428200Y-153204600D03*
D15*
%TO.P,LD3\u002C5,6*%
%TO.N,GNDPWR*%
X149428200Y-151684600D03*
%TD*%
D12*
%TO.P,LD3\u002C3,1*%
%TO.N,MAIN_VBUS*%
X99160700Y-114031600D03*
D13*
%TO.P,LD3\u002C3,2*%
%TO.N,Net-(LD3\u002C3-Pad2)*%
X99160700Y-113131600D03*
D12*
%TO.P,LD3\u002C3,3*%
%TO.N,Net-(LD3\u002C3-Pad3)*%
X99160700Y-112231600D03*
D13*
%TO.P,LD3\u002C3,5*%
%TO.N,Net-(LD2\u002C3-Pad2)*%
X97460700Y-113131600D03*
D12*
%TO.P,LD3\u002C3,4*%
%TO.N,Net-(LD2\u002C3-Pad3)*%
X97460700Y-112231600D03*
%TO.P,LD3\u002C3,7*%
%TO.N,N/C*%
X97460700Y-114031600D03*
D14*
%TO.P,LD3\u002C3,8*%
X98310700Y-113961600D03*
D15*
%TO.P,LD3\u002C3,6*%
%TO.N,GNDPWR*%
X98310700Y-112441600D03*
%TD*%
D12*
%TO.P,LD2\u002C3,1*%
%TO.N,MAIN_VBUS*%
X79856700Y-114031600D03*
D13*
%TO.P,LD2\u002C3,2*%
%TO.N,Net-(LD2\u002C3-Pad2)*%
X79856700Y-113131600D03*
D12*
%TO.P,LD2\u002C3,3*%
%TO.N,Net-(LD2\u002C3-Pad3)*%
X79856700Y-112231600D03*
D13*
%TO.P,LD2\u002C3,5*%
%TO.N,Net-(LD1\u002C3-Pad2)*%
X78156700Y-113131600D03*
D12*
%TO.P,LD2\u002C3,4*%
%TO.N,Net-(LD1\u002C3-Pad3)*%
X78156700Y-112231600D03*
%TO.P,LD2\u002C3,7*%
%TO.N,N/C*%
X78156700Y-114031600D03*
D14*
%TO.P,LD2\u002C3,8*%
X79006700Y-113961600D03*
D15*
%TO.P,LD2\u002C3,6*%
%TO.N,GNDPWR*%
X79006700Y-112441600D03*
%TD*%
D12*
%TO.P,LD2\u002C5,1*%
%TO.N,MAIN_VBUS*%
X78396200Y-153274600D03*
D13*
%TO.P,LD2\u002C5,2*%
%TO.N,Net-(LD2\u002C5-Pad2)*%
X78396200Y-152374600D03*
D12*
%TO.P,LD2\u002C5,3*%
%TO.N,Net-(LD2\u002C5-Pad3)*%
X78396200Y-151474600D03*
D13*
%TO.P,LD2\u002C5,5*%
%TO.N,Net-(LD1\u002C5-Pad2)*%
X76696200Y-152374600D03*
D12*
%TO.P,LD2\u002C5,4*%
%TO.N,Net-(LD1\u002C5-Pad3)*%
X76696200Y-151474600D03*
%TO.P,LD2\u002C5,7*%
%TO.N,N/C*%
X76696200Y-153274600D03*
D14*
%TO.P,LD2\u002C5,8*%
X77546200Y-153204600D03*
D15*
%TO.P,LD2\u002C5,6*%
%TO.N,GNDPWR*%
X77546200Y-151684600D03*
%TD*%
D12*
%TO.P,LD2\u002C4,1*%
%TO.N,MAIN_VBUS*%
X89114700Y-133843600D03*
D13*
%TO.P,LD2\u002C4,2*%
%TO.N,Net-(LD2\u002C4-Pad2)*%
X89114700Y-132943600D03*
D12*
%TO.P,LD2\u002C4,3*%
%TO.N,Net-(LD2\u002C4-Pad3)*%
X89114700Y-132043600D03*
D13*
%TO.P,LD2\u002C4,5*%
%TO.N,Net-(LD1\u002C4-Pad2)*%
X87414700Y-132943600D03*
D12*
%TO.P,LD2\u002C4,4*%
%TO.N,Net-(LD1\u002C4-Pad3)*%
X87414700Y-132043600D03*
%TO.P,LD2\u002C4,7*%
%TO.N,N/C*%
X87414700Y-133843600D03*
D14*
%TO.P,LD2\u002C4,8*%
X88264700Y-133773600D03*
D15*
%TO.P,LD2\u002C4,6*%
%TO.N,GNDPWR*%
X88264700Y-132253600D03*
%TD*%
D12*
%TO.P,LD2\u002C0,1*%
%TO.N,MAIN_VBUS*%
X84921460Y-49452100D03*
D13*
%TO.P,LD2\u002C0,2*%
%TO.N,Net-(LD2\u002C0-Pad2)*%
X84921460Y-48552100D03*
D12*
%TO.P,LD2\u002C0,3*%
%TO.N,Net-(LD2\u002C0-Pad3)*%
X84921460Y-47652100D03*
D13*
%TO.P,LD2\u002C0,5*%
%TO.N,Net-(LD1\u002C0-Pad2)*%
X83221460Y-48552100D03*
D12*
%TO.P,LD2\u002C0,4*%
%TO.N,Net-(LD1\u002C0-Pad3)*%
X83221460Y-47652100D03*
%TO.P,LD2\u002C0,7*%
%TO.N,N/C*%
X83221460Y-49452100D03*
D14*
%TO.P,LD2\u002C0,8*%
X84071460Y-49382100D03*
D15*
%TO.P,LD2\u002C0,6*%
%TO.N,GNDPWR*%
X84071460Y-47862100D03*
%TD*%
D12*
%TO.P,LD2\u002C1,1*%
%TO.N,MAIN_VBUS*%
X65442200Y-75360100D03*
D13*
%TO.P,LD2\u002C1,2*%
%TO.N,Net-(LD2\u002C1-Pad2)*%
X65442200Y-74460100D03*
D12*
%TO.P,LD2\u002C1,3*%
%TO.N,Net-(LD2\u002C1-Pad3)*%
X65442200Y-73560100D03*
D13*
%TO.P,LD2\u002C1,5*%
%TO.N,Net-(LD1\u002C1-Pad2)*%
X63742200Y-74460100D03*
D12*
%TO.P,LD2\u002C1,4*%
%TO.N,Net-(LD1\u002C1-Pad3)*%
X63742200Y-73560100D03*
%TO.P,LD2\u002C1,7*%
%TO.N,N/C*%
X63742200Y-75360100D03*
D14*
%TO.P,LD2\u002C1,8*%
X64592200Y-75290100D03*
D15*
%TO.P,LD2\u002C1,6*%
%TO.N,GNDPWR*%
X64592200Y-73770100D03*
%TD*%
D12*
%TO.P,LD2\u002C2,1*%
%TO.N,MAIN_VBUS*%
X74967200Y-94600600D03*
D13*
%TO.P,LD2\u002C2,2*%
%TO.N,Net-(LD2\u002C2-Pad2)*%
X74967200Y-93700600D03*
D12*
%TO.P,LD2\u002C2,3*%
%TO.N,Net-(LD2\u002C2-Pad3)*%
X74967200Y-92800600D03*
D13*
%TO.P,LD2\u002C2,5*%
%TO.N,Net-(LD1\u002C2-Pad2)*%
X73267200Y-93700600D03*
D12*
%TO.P,LD2\u002C2,4*%
%TO.N,Net-(LD1\u002C2-Pad3)*%
X73267200Y-92800600D03*
%TO.P,LD2\u002C2,7*%
%TO.N,N/C*%
X73267200Y-94600600D03*
D14*
%TO.P,LD2\u002C2,8*%
X74117200Y-94530600D03*
D15*
%TO.P,LD2\u002C2,6*%
%TO.N,GNDPWR*%
X74117200Y-93010600D03*
%TD*%
D12*
%TO.P,LD1\u002C0,1*%
%TO.N,MAIN_VBUS*%
X65617460Y-49452100D03*
D13*
%TO.P,LD1\u002C0,2*%
%TO.N,Net-(LD1\u002C0-Pad2)*%
X65617460Y-48552100D03*
D12*
%TO.P,LD1\u002C0,3*%
%TO.N,Net-(LD1\u002C0-Pad3)*%
X65617460Y-47652100D03*
D13*
%TO.P,LD1\u002C0,5*%
%TO.N,Net-(LD0\u002C0-Pad2)*%
X63917460Y-48552100D03*
D12*
%TO.P,LD1\u002C0,4*%
%TO.N,Net-(LD0\u002C0-Pad3)*%
X63917460Y-47652100D03*
%TO.P,LD1\u002C0,7*%
%TO.N,N/C*%
X63917460Y-49452100D03*
D14*
%TO.P,LD1\u002C0,8*%
X64767460Y-49382100D03*
D15*
%TO.P,LD1\u002C0,6*%
%TO.N,GNDPWR*%
X64767460Y-47862100D03*
%TD*%
D12*
%TO.P,LD1\u002C4,1*%
%TO.N,MAIN_VBUS*%
X69950700Y-133843600D03*
D13*
%TO.P,LD1\u002C4,2*%
%TO.N,Net-(LD1\u002C4-Pad2)*%
X69950700Y-132943600D03*
D12*
%TO.P,LD1\u002C4,3*%
%TO.N,Net-(LD1\u002C4-Pad3)*%
X69950700Y-132043600D03*
D13*
%TO.P,LD1\u002C4,5*%
%TO.N,Net-(LD0\u002C4-Pad2)*%
X68250700Y-132943600D03*
D12*
%TO.P,LD1\u002C4,4*%
%TO.N,Net-(LD0\u002C4-Pad3)*%
X68250700Y-132043600D03*
%TO.P,LD1\u002C4,7*%
%TO.N,N/C*%
X68250700Y-133843600D03*
D14*
%TO.P,LD1\u002C4,8*%
X69100700Y-133773600D03*
D15*
%TO.P,LD1\u002C4,6*%
%TO.N,GNDPWR*%
X69100700Y-132253600D03*
%TD*%
D12*
%TO.P,LD1\u002C1,1*%
%TO.N,MAIN_VBUS*%
X46239800Y-75372800D03*
D13*
%TO.P,LD1\u002C1,2*%
%TO.N,Net-(LD1\u002C1-Pad2)*%
X46239800Y-74472800D03*
D12*
%TO.P,LD1\u002C1,3*%
%TO.N,Net-(LD1\u002C1-Pad3)*%
X46239800Y-73572800D03*
D13*
%TO.P,LD1\u002C1,5*%
%TO.N,Net-(LD0\u002C1-Pad2)*%
X44539800Y-74472800D03*
D12*
%TO.P,LD1\u002C1,4*%
%TO.N,Net-(LD0\u002C1-Pad3)*%
X44539800Y-73572800D03*
%TO.P,LD1\u002C1,7*%
%TO.N,N/C*%
X44539800Y-75372800D03*
D14*
%TO.P,LD1\u002C1,8*%
X45389800Y-75302800D03*
D15*
%TO.P,LD1\u002C1,6*%
%TO.N,GNDPWR*%
X45389800Y-73782800D03*
%TD*%
D12*
%TO.P,LD1\u002C3,1*%
%TO.N,MAIN_VBUS*%
X60552700Y-114031600D03*
D13*
%TO.P,LD1\u002C3,2*%
%TO.N,Net-(LD1\u002C3-Pad2)*%
X60552700Y-113131600D03*
D12*
%TO.P,LD1\u002C3,3*%
%TO.N,Net-(LD1\u002C3-Pad3)*%
X60552700Y-112231600D03*
D13*
%TO.P,LD1\u002C3,5*%
%TO.N,Net-(LD0\u002C3-Pad2)*%
X58852700Y-113131600D03*
D12*
%TO.P,LD1\u002C3,4*%
%TO.N,Net-(LD0\u002C3-Pad3)*%
X58852700Y-112231600D03*
%TO.P,LD1\u002C3,7*%
%TO.N,N/C*%
X58852700Y-114031600D03*
D14*
%TO.P,LD1\u002C3,8*%
X59702700Y-113961600D03*
D15*
%TO.P,LD1\u002C3,6*%
%TO.N,GNDPWR*%
X59702700Y-112441600D03*
%TD*%
D12*
%TO.P,LD1\u002C5,1*%
%TO.N,MAIN_VBUS*%
X54012200Y-153274600D03*
D13*
%TO.P,LD1\u002C5,2*%
%TO.N,Net-(LD1\u002C5-Pad2)*%
X54012200Y-152374600D03*
D12*
%TO.P,LD1\u002C5,3*%
%TO.N,Net-(LD1\u002C5-Pad3)*%
X54012200Y-151474600D03*
D13*
%TO.P,LD1\u002C5,5*%
%TO.N,Net-(LD0\u002C5-Pad2)*%
X52312200Y-152374600D03*
D12*
%TO.P,LD1\u002C5,4*%
%TO.N,Net-(LD0\u002C5-Pad3)*%
X52312200Y-151474600D03*
%TO.P,LD1\u002C5,7*%
%TO.N,N/C*%
X52312200Y-153274600D03*
D14*
%TO.P,LD1\u002C5,8*%
X53162200Y-153204600D03*
D15*
%TO.P,LD1\u002C5,6*%
%TO.N,GNDPWR*%
X53162200Y-151684600D03*
%TD*%
D12*
%TO.P,LD1\u002C2,1*%
%TO.N,MAIN_VBUS*%
X55663200Y-94600600D03*
D13*
%TO.P,LD1\u002C2,2*%
%TO.N,Net-(LD1\u002C2-Pad2)*%
X55663200Y-93700600D03*
D12*
%TO.P,LD1\u002C2,3*%
%TO.N,Net-(LD1\u002C2-Pad3)*%
X55663200Y-92800600D03*
D13*
%TO.P,LD1\u002C2,5*%
%TO.N,Net-(LD0\u002C2-Pad2)*%
X53963200Y-93700600D03*
D12*
%TO.P,LD1\u002C2,4*%
%TO.N,Net-(LD0\u002C2-Pad3)*%
X53963200Y-92800600D03*
%TO.P,LD1\u002C2,7*%
%TO.N,N/C*%
X53963200Y-94600600D03*
D14*
%TO.P,LD1\u002C2,8*%
X54813200Y-94530600D03*
D15*
%TO.P,LD1\u002C2,6*%
%TO.N,GNDPWR*%
X54813200Y-93010600D03*
%TD*%
D12*
%TO.P,LD0\u002C2,1*%
%TO.N,MAIN_VBUS*%
X31736400Y-94575200D03*
D13*
%TO.P,LD0\u002C2,2*%
%TO.N,Net-(LD0\u002C2-Pad2)*%
X31736400Y-93675200D03*
D12*
%TO.P,LD0\u002C2,3*%
%TO.N,Net-(LD0\u002C2-Pad3)*%
X31736400Y-92775200D03*
D13*
%TO.P,LD0\u002C2,5*%
%TO.N,Net-(LD0\u002C2-Pad5)*%
X30036400Y-93675200D03*
D12*
%TO.P,LD0\u002C2,4*%
%TO.N,Net-(LD0\u002C2-Pad4)*%
X30036400Y-92775200D03*
%TO.P,LD0\u002C2,7*%
%TO.N,N/C*%
X30036400Y-94575200D03*
D14*
%TO.P,LD0\u002C2,8*%
X30886400Y-94505200D03*
D15*
%TO.P,LD0\u002C2,6*%
%TO.N,GNDPWR*%
X30886400Y-92985200D03*
%TD*%
D12*
%TO.P,LD0\u002C1,1*%
%TO.N,MAIN_VBUS*%
X27024700Y-75372800D03*
D13*
%TO.P,LD0\u002C1,2*%
%TO.N,Net-(LD0\u002C1-Pad2)*%
X27024700Y-74472800D03*
D12*
%TO.P,LD0\u002C1,3*%
%TO.N,Net-(LD0\u002C1-Pad3)*%
X27024700Y-73572800D03*
D13*
%TO.P,LD0\u002C1,5*%
%TO.N,Net-(LD0\u002C1-Pad5)*%
X25324700Y-74472800D03*
D12*
%TO.P,LD0\u002C1,4*%
%TO.N,Net-(LD0\u002C1-Pad4)*%
X25324700Y-73572800D03*
%TO.P,LD0\u002C1,7*%
%TO.N,N/C*%
X25324700Y-75372800D03*
D14*
%TO.P,LD0\u002C1,8*%
X26174700Y-75302800D03*
D15*
%TO.P,LD0\u002C1,6*%
%TO.N,GNDPWR*%
X26174700Y-73782800D03*
%TD*%
D12*
%TO.P,LD0\u002C5,1*%
%TO.N,MAIN_VBUS*%
X29437700Y-153223800D03*
D13*
%TO.P,LD0\u002C5,2*%
%TO.N,Net-(LD0\u002C5-Pad2)*%
X29437700Y-152323800D03*
D12*
%TO.P,LD0\u002C5,3*%
%TO.N,Net-(LD0\u002C5-Pad3)*%
X29437700Y-151423800D03*
D13*
%TO.P,LD0\u002C5,5*%
%TO.N,Net-(LD0\u002C5-Pad5)*%
X27737700Y-152323800D03*
D12*
%TO.P,LD0\u002C5,4*%
%TO.N,Net-(LD0\u002C5-Pad4)*%
X27737700Y-151423800D03*
%TO.P,LD0\u002C5,7*%
%TO.N,N/C*%
X27737700Y-153223800D03*
D14*
%TO.P,LD0\u002C5,8*%
X28587700Y-153153800D03*
D15*
%TO.P,LD0\u002C5,6*%
%TO.N,GNDPWR*%
X28587700Y-151633800D03*
%TD*%
D12*
%TO.P,LD0\u002C3,1*%
%TO.N,MAIN_VBUS*%
X34073200Y-114107800D03*
D13*
%TO.P,LD0\u002C3,2*%
%TO.N,Net-(LD0\u002C3-Pad2)*%
X34073200Y-113207800D03*
D12*
%TO.P,LD0\u002C3,3*%
%TO.N,Net-(LD0\u002C3-Pad3)*%
X34073200Y-112307800D03*
D13*
%TO.P,LD0\u002C3,5*%
%TO.N,Net-(LD0\u002C3-Pad5)*%
X32373200Y-113207800D03*
D12*
%TO.P,LD0\u002C3,4*%
%TO.N,Net-(LD0\u002C3-Pad4)*%
X32373200Y-112307800D03*
%TO.P,LD0\u002C3,7*%
%TO.N,N/C*%
X32373200Y-114107800D03*
D14*
%TO.P,LD0\u002C3,8*%
X33223200Y-114037800D03*
D15*
%TO.P,LD0\u002C3,6*%
%TO.N,GNDPWR*%
X33223200Y-112517800D03*
%TD*%
D12*
%TO.P,LD0\u002C0,1*%
%TO.N,MAIN_VBUS*%
X27088200Y-49414000D03*
D13*
%TO.P,LD0\u002C0,2*%
%TO.N,Net-(LD0\u002C0-Pad2)*%
X27088200Y-48514000D03*
D12*
%TO.P,LD0\u002C0,3*%
%TO.N,Net-(LD0\u002C0-Pad3)*%
X27088200Y-47614000D03*
D13*
%TO.P,LD0\u002C0,5*%
%TO.N,LED_SCL_ROW0*%
X25388200Y-48514000D03*
D12*
%TO.P,LD0\u002C0,4*%
%TO.N,LED_SDA_ROW0*%
X25388200Y-47614000D03*
%TO.P,LD0\u002C0,7*%
%TO.N,N/C*%
X25388200Y-49414000D03*
D14*
%TO.P,LD0\u002C0,8*%
X26238200Y-49344000D03*
D15*
%TO.P,LD0\u002C0,6*%
%TO.N,GNDPWR*%
X26238200Y-47824000D03*
%TD*%
D12*
%TO.P,LD0\u002C4,1*%
%TO.N,MAIN_VBUS*%
X38835700Y-133843600D03*
D13*
%TO.P,LD0\u002C4,2*%
%TO.N,Net-(LD0\u002C4-Pad2)*%
X38835700Y-132943600D03*
D12*
%TO.P,LD0\u002C4,3*%
%TO.N,Net-(LD0\u002C4-Pad3)*%
X38835700Y-132043600D03*
D13*
%TO.P,LD0\u002C4,5*%
%TO.N,Net-(LD0\u002C4-Pad5)*%
X37135700Y-132943600D03*
D12*
%TO.P,LD0\u002C4,4*%
%TO.N,Net-(LD0\u002C4-Pad4)*%
X37135700Y-132043600D03*
%TO.P,LD0\u002C4,7*%
%TO.N,N/C*%
X37135700Y-133843600D03*
D14*
%TO.P,LD0\u002C4,8*%
X37985700Y-133773600D03*
D15*
%TO.P,LD0\u002C4,6*%
%TO.N,GNDPWR*%
X37985700Y-132253600D03*
%TD*%
D16*
%TO.P,D0\u002C3,2*%
%TO.N,Net-(D0\u002C3-Pad2)*%
X25603200Y-125235800D03*
D17*
%TO.P,D0\u002C3,1*%
%TO.N,KEY_ROW3*%
X25603200Y-117435800D03*
%TD*%
D16*
%TO.P,D0\u002C5,2*%
%TO.N,Net-(D0\u002C5-Pad2)*%
X20967700Y-164351800D03*
D17*
%TO.P,D0\u002C5,1*%
%TO.N,KEY_ROW5*%
X20967700Y-156551800D03*
%TD*%
D16*
%TO.P,D0\u002C4,2*%
%TO.N,Net-(D0\u002C4-Pad2)*%
X30365700Y-144984300D03*
D17*
%TO.P,D0\u002C4,1*%
%TO.N,KEY_ROW4*%
X30365700Y-137184300D03*
%TD*%
D16*
%TO.P,D0\u002C0,2*%
%TO.N,Net-(D0\u002C0-Pad2)*%
X18618200Y-60656300D03*
D17*
%TO.P,D0\u002C0,1*%
%TO.N,KEY_ROW0*%
X18618200Y-52856300D03*
%TD*%
D16*
%TO.P,D0\u002C2,2*%
%TO.N,Net-(D0\u002C2-Pad2)*%
X23063200Y-105677800D03*
D17*
%TO.P,D0\u002C2,1*%
%TO.N,KEY_ROW2*%
X23063200Y-97877800D03*
%TD*%
D16*
%TO.P,D0\u002C1,2*%
%TO.N,Net-(D0\u002C1-Pad2)*%
X18554700Y-86500800D03*
D17*
%TO.P,D0\u002C1,1*%
%TO.N,KEY_ROW1*%
X18554700Y-78700800D03*
%TD*%
D16*
%TO.P,D1\u002C3,2*%
%TO.N,Net-(D1\u002C3-Pad2)*%
X51892200Y-125108800D03*
D17*
%TO.P,D1\u002C3,1*%
%TO.N,KEY_ROW3*%
X51892200Y-117308800D03*
%TD*%
D16*
%TO.P,D1\u002C0,2*%
%TO.N,Net-(D1\u002C0-Pad2)*%
X56766460Y-60707100D03*
D17*
%TO.P,D1\u002C0,1*%
%TO.N,KEY_ROW0*%
X56766460Y-52907100D03*
%TD*%
D16*
%TO.P,D1\u002C4,2*%
%TO.N,Net-(D1\u002C4-Pad2)*%
X61290200Y-144920800D03*
D17*
%TO.P,D1\u002C4,1*%
%TO.N,KEY_ROW4*%
X61290200Y-137120800D03*
%TD*%
D16*
%TO.P,D1\u002C5,2*%
%TO.N,Net-(D1\u002C5-Pad2)*%
X45351700Y-164351800D03*
D17*
%TO.P,D1\u002C5,1*%
%TO.N,KEY_ROW5*%
X45351700Y-156551800D03*
%TD*%
D16*
%TO.P,D1\u002C1,2*%
%TO.N,Net-(D1\u002C1-Pad2)*%
X37858700Y-86500800D03*
D17*
%TO.P,D1\u002C1,1*%
%TO.N,KEY_ROW1*%
X37858700Y-78700800D03*
%TD*%
D16*
%TO.P,D1\u002C2,2*%
%TO.N,Net-(D1\u002C2-Pad2)*%
X47002700Y-105677800D03*
D17*
%TO.P,D1\u002C2,1*%
%TO.N,KEY_ROW2*%
X47002700Y-97877800D03*
%TD*%
D16*
%TO.P,D2\u002C4,2*%
%TO.N,Net-(D2\u002C4-Pad2)*%
X80594200Y-144920800D03*
D17*
%TO.P,D2\u002C4,1*%
%TO.N,KEY_ROW4*%
X80594200Y-137120800D03*
%TD*%
D16*
%TO.P,D2\u002C5,2*%
%TO.N,Net-(D2\u002C5-Pad2)*%
X69735700Y-164351800D03*
D17*
%TO.P,D2\u002C5,1*%
%TO.N,KEY_ROW5*%
X69735700Y-156551800D03*
%TD*%
D16*
%TO.P,D2\u002C0,2*%
%TO.N,Net-(D2\u002C0-Pad2)*%
X76070460Y-60656300D03*
D17*
%TO.P,D2\u002C0,1*%
%TO.N,KEY_ROW0*%
X76070460Y-52856300D03*
%TD*%
D16*
%TO.P,D2\u002C2,2*%
%TO.N,Net-(D2\u002C2-Pad2)*%
X66306700Y-105677800D03*
D17*
%TO.P,D2\u002C2,1*%
%TO.N,KEY_ROW2*%
X66306700Y-97877800D03*
%TD*%
D16*
%TO.P,D2\u002C1,2*%
%TO.N,Net-(D2\u002C1-Pad2)*%
X56781700Y-86437300D03*
D17*
%TO.P,D2\u002C1,1*%
%TO.N,KEY_ROW1*%
X56781700Y-78637300D03*
%TD*%
D16*
%TO.P,D2\u002C3,2*%
%TO.N,Net-(D2\u002C3-Pad2)*%
X71196200Y-125108800D03*
D17*
%TO.P,D2\u002C3,1*%
%TO.N,KEY_ROW3*%
X71196200Y-117308800D03*
%TD*%
D16*
%TO.P,D3\u002C0,2*%
%TO.N,Net-(D3\u002C0-Pad2)*%
X95374460Y-60656300D03*
D17*
%TO.P,D3\u002C0,1*%
%TO.N,KEY_ROW0*%
X95374460Y-52856300D03*
%TD*%
D16*
%TO.P,D3\u002C1,2*%
%TO.N,Net-(D3\u002C1-Pad2)*%
X75577700Y-86437300D03*
D17*
%TO.P,D3\u002C1,1*%
%TO.N,KEY_ROW1*%
X75577700Y-78637300D03*
%TD*%
D16*
%TO.P,D3\u002C4,2*%
%TO.N,Net-(D3\u002C4-Pad2)*%
X99898200Y-144920800D03*
D17*
%TO.P,D3\u002C4,1*%
%TO.N,KEY_ROW4*%
X99898200Y-137120800D03*
%TD*%
D16*
%TO.P,D3\u002C2,2*%
%TO.N,Net-(D3\u002C2-Pad2)*%
X85610700Y-105677800D03*
D17*
%TO.P,D3\u002C2,1*%
%TO.N,KEY_ROW2*%
X85610700Y-97877800D03*
%TD*%
D16*
%TO.P,D3\u002C5,2*%
%TO.N,Net-(D3\u002C5-Pad2)*%
X141617700Y-164351800D03*
D17*
%TO.P,D3\u002C5,1*%
%TO.N,KEY_ROW5*%
X141617700Y-156551800D03*
%TD*%
D16*
%TO.P,D3\u002C3,2*%
%TO.N,Net-(D3\u002C3-Pad2)*%
X90500200Y-125108800D03*
D17*
%TO.P,D3\u002C3,1*%
%TO.N,KEY_ROW3*%
X90500200Y-117308800D03*
%TD*%
D16*
%TO.P,D4\u002C4,2*%
%TO.N,Net-(D4\u002C4-Pad2)*%
X119202200Y-144920800D03*
D17*
%TO.P,D4\u002C4,1*%
%TO.N,KEY_ROW4*%
X119202200Y-137120800D03*
%TD*%
D16*
%TO.P,D4\u002C3,2*%
%TO.N,Net-(D4\u002C3-Pad2)*%
X109804200Y-125108800D03*
D17*
%TO.P,D4\u002C3,1*%
%TO.N,KEY_ROW3*%
X109804200Y-117308800D03*
%TD*%
D16*
%TO.P,D4\u002C1,2*%
%TO.N,Net-(D4\u002C1-Pad2)*%
X94881700Y-86437300D03*
D17*
%TO.P,D4\u002C1,1*%
%TO.N,KEY_ROW1*%
X94881700Y-78637300D03*
%TD*%
D16*
%TO.P,D4\u002C0,2*%
%TO.N,Net-(D4\u002C0-Pad2)*%
X114678460Y-60656300D03*
D17*
%TO.P,D4\u002C0,1*%
%TO.N,KEY_ROW0*%
X114678460Y-52856300D03*
%TD*%
D16*
%TO.P,D4\u002C2,2*%
%TO.N,Net-(D4\u002C2-Pad2)*%
X104914700Y-105677800D03*
D17*
%TO.P,D4\u002C2,1*%
%TO.N,KEY_ROW2*%
X104914700Y-97877800D03*
%TD*%
D16*
%TO.P,D5\u002C0,2*%
%TO.N,Net-(D5\u002C0-Pad2)*%
X146174460Y-60656300D03*
D17*
%TO.P,D5\u002C0,1*%
%TO.N,KEY_ROW0*%
X146174460Y-52856300D03*
%TD*%
D16*
%TO.P,D5\u002C2,2*%
%TO.N,Net-(D5\u002C2-Pad2)*%
X124218700Y-105677800D03*
D17*
%TO.P,D5\u002C2,1*%
%TO.N,KEY_ROW2*%
X124218700Y-97877800D03*
%TD*%
D16*
%TO.P,D5\u002C1,2*%
%TO.N,Net-(D5\u002C1-Pad2)*%
X114185700Y-86437300D03*
D17*
%TO.P,D5\u002C1,1*%
%TO.N,KEY_ROW1*%
X114185700Y-78637300D03*
%TD*%
D16*
%TO.P,D5\u002C3,2*%
%TO.N,Net-(D5\u002C3-Pad2)*%
X129108200Y-125159600D03*
D17*
%TO.P,D5\u002C3,1*%
%TO.N,KEY_ROW3*%
X129108200Y-117359600D03*
%TD*%
D16*
%TO.P,D5\u002C4,2*%
%TO.N,Net-(D5\u002C4-Pad2)*%
X138506200Y-144971600D03*
D17*
%TO.P,D5\u002C4,1*%
%TO.N,KEY_ROW4*%
X138506200Y-137171600D03*
%TD*%
D16*
%TO.P,D6\u002C0,2*%
%TO.N,Net-(D6\u002C0-Pad2)*%
X165478460Y-60656300D03*
D17*
%TO.P,D6\u002C0,1*%
%TO.N,KEY_ROW0*%
X165478460Y-52856300D03*
%TD*%
D16*
%TO.P,D6\u002C3,2*%
%TO.N,Net-(D6\u002C3-Pad2)*%
X148412200Y-125108800D03*
D17*
%TO.P,D6\u002C3,1*%
%TO.N,KEY_ROW3*%
X148412200Y-117308800D03*
%TD*%
D16*
%TO.P,D6\u002C4,2*%
%TO.N,Net-(D6\u002C4-Pad2)*%
X157810200Y-144920800D03*
D17*
%TO.P,D6\u002C4,1*%
%TO.N,KEY_ROW4*%
X157810200Y-137120800D03*
%TD*%
D16*
%TO.P,D6\u002C1,2*%
%TO.N,Net-(D6\u002C1-Pad2)*%
X133489700Y-86437300D03*
D17*
%TO.P,D6\u002C1,1*%
%TO.N,KEY_ROW1*%
X133489700Y-78637300D03*
%TD*%
D16*
%TO.P,D6\u002C2,2*%
%TO.N,Net-(D6\u002C2-Pad2)*%
X143522700Y-105677800D03*
D17*
%TO.P,D6\u002C2,1*%
%TO.N,KEY_ROW2*%
X143522700Y-97877800D03*
%TD*%
D16*
%TO.P,D7\u002C4,2*%
%TO.N,Net-(D7\u002C4-Pad2)*%
X177114200Y-144971600D03*
D17*
%TO.P,D7\u002C4,1*%
%TO.N,KEY_ROW4*%
X177114200Y-137171600D03*
%TD*%
D16*
%TO.P,D7\u002C2,2*%
%TO.N,Net-(D7\u002C2-Pad2)*%
X162826700Y-105728600D03*
D17*
%TO.P,D7\u002C2,1*%
%TO.N,KEY_ROW2*%
X162826700Y-97928600D03*
%TD*%
D16*
%TO.P,D7\u002C1,2*%
%TO.N,Net-(D7\u002C1-Pad2)*%
X152793700Y-86437300D03*
D17*
%TO.P,D7\u002C1,1*%
%TO.N,KEY_ROW1*%
X152793700Y-78637300D03*
%TD*%
D16*
%TO.P,D7\u002C0,2*%
%TO.N,Net-(D7\u002C0-Pad2)*%
X184782460Y-60656300D03*
D17*
%TO.P,D7\u002C0,1*%
%TO.N,KEY_ROW0*%
X184782460Y-52856300D03*
%TD*%
D16*
%TO.P,D7\u002C3,2*%
%TO.N,Net-(D7\u002C3-Pad2)*%
X167716200Y-125108800D03*
D17*
%TO.P,D7\u002C3,1*%
%TO.N,KEY_ROW3*%
X167716200Y-117308800D03*
%TD*%
D16*
%TO.P,D8\u002C0,2*%
%TO.N,Net-(D8\u002C0-Pad2)*%
X204086460Y-60707100D03*
D17*
%TO.P,D8\u002C0,1*%
%TO.N,KEY_ROW0*%
X204086460Y-52907100D03*
%TD*%
D16*
%TO.P,D8\u002C3,2*%
%TO.N,Net-(D8\u002C3-Pad2)*%
X187020200Y-125108800D03*
D17*
%TO.P,D8\u002C3,1*%
%TO.N,KEY_ROW3*%
X187020200Y-117308800D03*
%TD*%
D16*
%TO.P,D8\u002C1,2*%
%TO.N,Net-(D8\u002C1-Pad2)*%
X172097700Y-86437300D03*
D17*
%TO.P,D8\u002C1,1*%
%TO.N,KEY_ROW1*%
X172097700Y-78637300D03*
%TD*%
D16*
%TO.P,D8\u002C2,2*%
%TO.N,Net-(D8\u002C2-Pad2)*%
X182130700Y-105677800D03*
D17*
%TO.P,D8\u002C2,1*%
%TO.N,KEY_ROW2*%
X182130700Y-97877800D03*
%TD*%
D16*
%TO.P,D8\u002C5,2*%
%TO.N,Net-(D8\u002C5-Pad2)*%
X213372700Y-164415300D03*
D17*
%TO.P,D8\u002C5,1*%
%TO.N,KEY_ROW5*%
X213372700Y-156615300D03*
%TD*%
D16*
%TO.P,D8\u002C4,2*%
%TO.N,Net-(D8\u002C4-Pad2)*%
X196418200Y-144920800D03*
D17*
%TO.P,D8\u002C4,1*%
%TO.N,KEY_ROW4*%
X196418200Y-137120800D03*
%TD*%
D16*
%TO.P,D9\u002C2,2*%
%TO.N,Net-(D9\u002C2-Pad2)*%
X201434700Y-105677800D03*
D17*
%TO.P,D9\u002C2,1*%
%TO.N,KEY_ROW2*%
X201434700Y-97877800D03*
%TD*%
D16*
%TO.P,D9\u002C1,2*%
%TO.N,Net-(D9\u002C1-Pad2)*%
X191401700Y-86488100D03*
D17*
%TO.P,D9\u002C1,1*%
%TO.N,KEY_ROW1*%
X191401700Y-78688100D03*
%TD*%
D16*
%TO.P,D9\u002C3,2*%
%TO.N,Net-(D9\u002C3-Pad2)*%
X206324200Y-125108800D03*
D17*
%TO.P,D9\u002C3,1*%
%TO.N,KEY_ROW3*%
X206324200Y-117308800D03*
%TD*%
D16*
%TO.P,D9\u002C4,2*%
%TO.N,Net-(D9\u002C4-Pad2)*%
X215722200Y-144920800D03*
D17*
%TO.P,D9\u002C4,1*%
%TO.N,KEY_ROW4*%
X215722200Y-137120800D03*
%TD*%
D16*
%TO.P,D9\u002C5,2*%
%TO.N,Net-(D9\u002C5-Pad2)*%
X237502700Y-164351800D03*
D17*
%TO.P,D9\u002C5,1*%
%TO.N,KEY_ROW5*%
X237502700Y-156551800D03*
%TD*%
D16*
%TO.P,D9\u002C0,2*%
%TO.N,Net-(D9\u002C0-Pad2)*%
X230502460Y-60656300D03*
D17*
%TO.P,D9\u002C0,1*%
%TO.N,KEY_ROW0*%
X230502460Y-52856300D03*
%TD*%
D16*
%TO.P,D10\u002C4,2*%
%TO.N,Net-(D10\u002C4-Pad2)*%
X235026200Y-144971600D03*
D17*
%TO.P,D10\u002C4,1*%
%TO.N,KEY_ROW4*%
X235026200Y-137171600D03*
%TD*%
D16*
%TO.P,D10\u002C5,2*%
%TO.N,Net-(D10\u002C5-Pad2)*%
X261696200Y-164351800D03*
D17*
%TO.P,D10\u002C5,1*%
%TO.N,KEY_ROW5*%
X261696200Y-156551800D03*
%TD*%
D16*
%TO.P,D10\u002C1,2*%
%TO.N,Net-(D10\u002C1-Pad2)*%
X210705700Y-86437300D03*
D17*
%TO.P,D10\u002C1,1*%
%TO.N,KEY_ROW1*%
X210705700Y-78637300D03*
%TD*%
D16*
%TO.P,D10\u002C0,2*%
%TO.N,Net-(D10\u002C0-Pad2)*%
X249806460Y-60656300D03*
D17*
%TO.P,D10\u002C0,1*%
%TO.N,KEY_ROW0*%
X249806460Y-52856300D03*
%TD*%
D16*
%TO.P,D10\u002C2,2*%
%TO.N,Net-(D10\u002C2-Pad2)*%
X220738700Y-105728600D03*
D17*
%TO.P,D10\u002C2,1*%
%TO.N,KEY_ROW2*%
X220738700Y-97928600D03*
%TD*%
D16*
%TO.P,D10\u002C3,2*%
%TO.N,Net-(D10\u002C3-Pad2)*%
X225628200Y-125108800D03*
D17*
%TO.P,D10\u002C3,1*%
%TO.N,KEY_ROW3*%
X225628200Y-117308800D03*
%TD*%
D16*
%TO.P,D11\u002C0,2*%
%TO.N,Net-(D11\u002C0-Pad2)*%
X269110460Y-60656300D03*
D17*
%TO.P,D11\u002C0,1*%
%TO.N,KEY_ROW0*%
X269110460Y-52856300D03*
%TD*%
D16*
%TO.P,D11\u002C1,2*%
%TO.N,Net-(D11\u002C1-Pad2)*%
X230009700Y-86437300D03*
D17*
%TO.P,D11\u002C1,1*%
%TO.N,KEY_ROW1*%
X230009700Y-78637300D03*
%TD*%
D16*
%TO.P,D11\u002C3,2*%
%TO.N,Net-(D11\u002C3-Pad2)*%
X244932200Y-125108800D03*
D17*
%TO.P,D11\u002C3,1*%
%TO.N,KEY_ROW3*%
X244932200Y-117308800D03*
%TD*%
D16*
%TO.P,D11\u002C2,2*%
%TO.N,Net-(D11\u002C2-Pad2)*%
X240042700Y-105677800D03*
D17*
%TO.P,D11\u002C2,1*%
%TO.N,KEY_ROW2*%
X240042700Y-97877800D03*
%TD*%
D16*
%TO.P,D11\u002C4,2*%
%TO.N,Net-(D11\u002C4-Pad2)*%
X271602200Y-144920800D03*
D17*
%TO.P,D11\u002C4,1*%
%TO.N,KEY_ROW4*%
X271602200Y-137120800D03*
%TD*%
D16*
%TO.P,D11\u002C5,2*%
%TO.N,Net-(D11\u002C5-Pad2)*%
X285762700Y-164351800D03*
D17*
%TO.P,D11\u002C5,1*%
%TO.N,KEY_ROW5*%
X285762700Y-156551800D03*
%TD*%
D16*
%TO.P,D12\u002C3,2*%
%TO.N,Net-(D12\u002C3-Pad2)*%
X276428200Y-125172300D03*
D17*
%TO.P,D12\u002C3,1*%
%TO.N,KEY_ROW3*%
X276428200Y-117372300D03*
%TD*%
D16*
%TO.P,D12\u002C2,2*%
%TO.N,Net-(D12\u002C2-Pad2)*%
X259346700Y-105677800D03*
D17*
%TO.P,D12\u002C2,1*%
%TO.N,KEY_ROW2*%
X259346700Y-97877800D03*
%TD*%
D16*
%TO.P,D12\u002C1,2*%
%TO.N,Net-(D12\u002C1-Pad2)*%
X249313700Y-86488100D03*
D17*
%TO.P,D12\u002C1,1*%
%TO.N,KEY_ROW1*%
X249313700Y-78688100D03*
%TD*%
D16*
%TO.P,D12\u002C0,2*%
%TO.N,Net-(D12\u002C0-Pad2)*%
X288414460Y-60656300D03*
D17*
%TO.P,D12\u002C0,1*%
%TO.N,KEY_ROW0*%
X288414460Y-52856300D03*
%TD*%
D16*
%TO.P,D13\u002C2,2*%
%TO.N,Net-(D13\u002C2-Pad2)*%
X283159200Y-105741300D03*
D17*
%TO.P,D13\u002C2,1*%
%TO.N,KEY_ROW2*%
X283159200Y-97941300D03*
%TD*%
D16*
%TO.P,D13\u002C1,2*%
%TO.N,Net-(D13\u002C1-Pad2)*%
X278269700Y-86437300D03*
D17*
%TO.P,D13\u002C1,1*%
%TO.N,KEY_ROW1*%
X278269700Y-78637300D03*
%TD*%
D16*
%TO.P,D14\u002C1,2*%
%TO.N,Net-(D14\u002C1-Pad2)*%
X310934100Y-86437300D03*
D17*
%TO.P,D14\u002C1,1*%
%TO.N,KEY_ROW1*%
X310934100Y-78637300D03*
%TD*%
D16*
%TO.P,D14\u002C3,2*%
%TO.N,Net-(D14\u002C3-Pad2)*%
X311188100Y-105677800D03*
D17*
%TO.P,D14\u002C3,1*%
%TO.N,KEY_ROW3*%
X311188100Y-97877800D03*
%TD*%
D16*
%TO.P,D14\u002C0,2*%
%TO.N,Net-(D14\u002C0-Pad2)*%
X310984900Y-60656300D03*
D17*
%TO.P,D14\u002C0,1*%
%TO.N,KEY_ROW0*%
X310984900Y-52856300D03*
%TD*%
D16*
%TO.P,D14\u002C6,2*%
%TO.N,Net-(D14\u002C6-Pad2)*%
X310870600Y-164224800D03*
D17*
%TO.P,D14\u002C6,1*%
%TO.N,KEY_ROW6*%
X310870600Y-156424800D03*
%TD*%
D16*
%TO.P,D15\u002C0,2*%
%TO.N,Net-(D15\u002C0-Pad2)*%
X330796900Y-60656300D03*
D17*
%TO.P,D15\u002C0,1*%
%TO.N,KEY_ROW0*%
X330796900Y-52856300D03*
%TD*%
D16*
%TO.P,D15\u002C1,2*%
%TO.N,Net-(D15\u002C1-Pad2)*%
X330238100Y-86437300D03*
D17*
%TO.P,D15\u002C1,1*%
%TO.N,KEY_ROW1*%
X330238100Y-78637300D03*
%TD*%
D16*
%TO.P,D15\u002C3,2*%
%TO.N,Net-(D15\u002C3-Pad2)*%
X330238100Y-105677800D03*
D17*
%TO.P,D15\u002C3,1*%
%TO.N,KEY_ROW3*%
X330238100Y-97877800D03*
%TD*%
D16*
%TO.P,D15\u002C5,2*%
%TO.N,Net-(D15\u002C5-Pad2)*%
X330174600Y-144920800D03*
D17*
%TO.P,D15\u002C5,1*%
%TO.N,KEY_ROW5*%
X330174600Y-137120800D03*
%TD*%
D16*
%TO.P,D15\u002C6,2*%
%TO.N,Net-(D15\u002C6-Pad2)*%
X330174600Y-164224800D03*
D17*
%TO.P,D15\u002C6,1*%
%TO.N,KEY_ROW6*%
X330174600Y-156424800D03*
%TD*%
D16*
%TO.P,D16\u002C6,2*%
%TO.N,Net-(D16\u002C6-Pad2)*%
X349478600Y-164224800D03*
D17*
%TO.P,D16\u002C6,1*%
%TO.N,KEY_ROW6*%
X349478600Y-156424800D03*
%TD*%
D16*
%TO.P,D16\u002C0,2*%
%TO.N,Net-(D16\u002C0-Pad2)*%
X349846900Y-60656300D03*
D17*
%TO.P,D16\u002C0,1*%
%TO.N,KEY_ROW0*%
X349846900Y-52856300D03*
%TD*%
D16*
%TO.P,D16\u002C1,2*%
%TO.N,Net-(D16\u002C1-Pad2)*%
X349542100Y-86437300D03*
D17*
%TO.P,D16\u002C1,1*%
%TO.N,KEY_ROW1*%
X349542100Y-78637300D03*
%TD*%
D16*
%TO.P,D16\u002C5,2*%
%TO.N,Net-(D16\u002C5-Pad2)*%
X373164100Y-144412800D03*
D17*
%TO.P,D16\u002C5,1*%
%TO.N,KEY_ROW5*%
X373164100Y-136612800D03*
%TD*%
D16*
%TO.P,D16\u002C3,2*%
%TO.N,Net-(D16\u002C3-Pad2)*%
X349796100Y-105677800D03*
D17*
%TO.P,D16\u002C3,1*%
%TO.N,KEY_ROW3*%
X349796100Y-97877800D03*
%TD*%
D16*
%TO.P,D16\u002C4,2*%
%TO.N,Net-(D16\u002C4-Pad2)*%
X373418100Y-125108800D03*
D17*
%TO.P,D16\u002C4,1*%
%TO.N,KEY_ROW4*%
X373418100Y-117308800D03*
%TD*%
D16*
%TO.P,D17\u002C3,2*%
%TO.N,Net-(D17\u002C3-Pad2)*%
X373418100Y-105804800D03*
D17*
%TO.P,D17\u002C3,1*%
%TO.N,KEY_ROW3*%
X373418100Y-98004800D03*
%TD*%
D16*
%TO.P,D17\u002C1,2*%
%TO.N,Net-(D17\u002C1-Pad2)*%
X373418100Y-86437300D03*
D17*
%TO.P,D17\u002C1,1*%
%TO.N,KEY_ROW1*%
X373418100Y-78637300D03*
%TD*%
D16*
%TO.P,D17\u002C6,2*%
%TO.N,Net-(D17\u002C6-Pad2)*%
X383197100Y-163767600D03*
D17*
%TO.P,D17\u002C6,1*%
%TO.N,KEY_ROW6*%
X383197100Y-155967600D03*
%TD*%
D16*
%TO.P,D17\u002C4,2*%
%TO.N,Net-(D17\u002C4-Pad2)*%
X392722100Y-125108800D03*
D17*
%TO.P,D17\u002C4,1*%
%TO.N,KEY_ROW4*%
X392722100Y-117308800D03*
%TD*%
D16*
%TO.P,D17\u002C0,2*%
%TO.N,Net-(D17\u002C0-Pad2)*%
X373354600Y-60656300D03*
D17*
%TO.P,D17\u002C0,1*%
%TO.N,KEY_ROW0*%
X373354600Y-52856300D03*
%TD*%
D16*
%TO.P,D17\u002C5,2*%
%TO.N,Net-(D17\u002C5-Pad2)*%
X392722100Y-144412800D03*
D17*
%TO.P,D17\u002C5,1*%
%TO.N,KEY_ROW5*%
X392722100Y-136612800D03*
%TD*%
D16*
%TO.P,D18\u002C1,2*%
%TO.N,Net-(D18\u002C1-Pad2)*%
X392722100Y-86488100D03*
D17*
%TO.P,D18\u002C1,1*%
%TO.N,KEY_ROW1*%
X392722100Y-78688100D03*
%TD*%
D16*
%TO.P,D18\u002C6,2*%
%TO.N,Net-(D18\u002C6-Pad2)*%
X412026100Y-163716800D03*
D17*
%TO.P,D18\u002C6,1*%
%TO.N,KEY_ROW6*%
X412026100Y-155916800D03*
%TD*%
D16*
%TO.P,D18\u002C3,2*%
%TO.N,Net-(D18\u002C3-Pad2)*%
X392722100Y-105804800D03*
D17*
%TO.P,D18\u002C3,1*%
%TO.N,KEY_ROW3*%
X392722100Y-98004800D03*
%TD*%
D16*
%TO.P,D18\u002C0,2*%
%TO.N,Net-(D18\u002C0-Pad2)*%
X392658600Y-60656300D03*
D17*
%TO.P,D18\u002C0,1*%
%TO.N,KEY_ROW0*%
X392658600Y-52856300D03*
%TD*%
D16*
%TO.P,D18\u002C5,2*%
%TO.N,Net-(D18\u002C5-Pad2)*%
X412026100Y-144412800D03*
D17*
%TO.P,D18\u002C5,1*%
%TO.N,KEY_ROW5*%
X412026100Y-136612800D03*
%TD*%
D16*
%TO.P,D18\u002C4,2*%
%TO.N,Net-(D18\u002C4-Pad2)*%
X412026100Y-125045300D03*
D17*
%TO.P,D18\u002C4,1*%
%TO.N,KEY_ROW4*%
X412026100Y-117245300D03*
%TD*%
D16*
%TO.P,D19\u002C4,2*%
%TO.N,Net-(D19\u002C4-Pad2)*%
X431330100Y-115126600D03*
D17*
%TO.P,D19\u002C4,1*%
%TO.N,KEY_ROW4*%
X431330100Y-107326600D03*
%TD*%
D16*
%TO.P,D19\u002C0,2*%
%TO.N,Net-(D19\u002C0-Pad2)*%
X411962600Y-60656300D03*
D17*
%TO.P,D19\u002C0,1*%
%TO.N,KEY_ROW0*%
X411962600Y-52856300D03*
%TD*%
D16*
%TO.P,D19\u002C3,2*%
%TO.N,Net-(D19\u002C3-Pad2)*%
X412026100Y-105804800D03*
D17*
%TO.P,D19\u002C3,1*%
%TO.N,KEY_ROW3*%
X412026100Y-98004800D03*
%TD*%
D16*
%TO.P,D19\u002C1,2*%
%TO.N,Net-(D19\u002C1-Pad2)*%
X412026100Y-86437300D03*
D17*
%TO.P,D19\u002C1,1*%
%TO.N,KEY_ROW1*%
X412026100Y-78637300D03*
%TD*%
D16*
%TO.P,D19\u002C6,2*%
%TO.N,Net-(D19\u002C6-Pad2)*%
X431584100Y-154064800D03*
D17*
%TO.P,D19\u002C6,1*%
%TO.N,KEY_ROW6*%
X431584100Y-146264800D03*
%TD*%
D16*
%TO.P,D20\u002C1,2*%
%TO.N,Net-(D20\u002C1-Pad2)*%
X431330100Y-86437300D03*
D17*
%TO.P,D20\u002C1,1*%
%TO.N,KEY_ROW1*%
X431330100Y-78637300D03*
%TD*%
D16*
%TO.P,D20\u002C0,2*%
%TO.N,Net-(D20\u002C0-Pad2)*%
X431266600Y-60707100D03*
D17*
%TO.P,D20\u002C0,1*%
%TO.N,KEY_ROW0*%
X431266600Y-52907100D03*
%TD*%
D18*
%TO.N,KEY_ROW6*%
X409130500Y-54483000D03*
X402463000Y-45720000D03*
X405384000Y-53784500D03*
D19*
%TO.N,GNDPWR*%
X434288700Y-25374600D03*
X51482609Y-44630991D03*
X294894000Y-92202000D03*
X451935820Y-142932180D03*
D18*
%TO.N,KEY_COL19*%
X426858100Y-58077100D03*
%TO.N,KEY_COL18*%
X407554100Y-58077100D03*
%TO.N,KEY_COL17*%
X388250100Y-58077100D03*
%TO.N,KEY_COL15*%
X345438400Y-58077100D03*
%TO.N,KEY_COL14*%
X325880400Y-58077100D03*
%TO.N,MAIN_VBUS*%
X89230681Y-51612319D03*
X140373100Y-51523900D03*
X226745800Y-51409600D03*
X34493200Y-77724000D03*
X112423699Y-77314301D03*
X150977600Y-77571600D03*
X271907000Y-77444600D03*
X444652400Y-143256000D03*
X34931831Y-96792569D03*
X118821200Y-96367600D03*
X158062649Y-96496151D03*
X275920200Y-96545400D03*
X46736000Y-115824000D03*
X122456699Y-115541301D03*
X164846000Y-115824000D03*
X270408400Y-115925600D03*
X46736000Y-136245600D03*
X117097699Y-135893699D03*
X174701200Y-135890000D03*
X265176000Y-135991600D03*
X256844800Y-155600400D03*
X174701200Y-155244800D03*
X114858800Y-155143200D03*
X43408600Y-154965400D03*
X203504800Y-116230400D03*
X213512400Y-135636000D03*
X198170800Y-96418400D03*
X78740000Y-135643398D03*
X85121750Y-115982750D03*
X80878399Y-96477101D03*
X73406000Y-77216000D03*
X328476099Y-77161901D03*
X328476099Y-96402401D03*
X347694250Y-135858250D03*
X369919250Y-154844750D03*
X410019500Y-135318500D03*
X390842500Y-115951000D03*
X390842500Y-96456500D03*
X390842500Y-77216000D03*
X390842500Y-70294500D03*
X390842500Y-51435000D03*
D19*
X426288700Y-25374600D03*
D18*
X410019500Y-152641300D03*
X207708500Y-77025500D03*
X47231300Y-51396900D03*
X329279199Y-50958801D03*
X250361399Y-50781001D03*
X416356800Y-94640400D03*
X436676800Y-105664000D03*
X433998800Y-75372800D03*
%TO.N,KEY_ROW5*%
X396049500Y-71183500D03*
X371221000Y-68770500D03*
X367379250Y-46196250D03*
%TO.N,KEY_ROW4*%
X350837500Y-46037500D03*
%TO.N,KEY_ROW3*%
X346646500Y-46101000D03*
%TO.N,KEY_ROW2*%
X306197000Y-46101000D03*
%TO.N,KEY_ROW1*%
X292544500Y-42799000D03*
%TO.N,KEY_ROW0*%
X426224700Y-111696500D03*
X290893500Y-42799000D03*
%TO.N,KEY_COL20*%
X446162100Y-58077100D03*
%TO.N,LED_SCL_STATUS0*%
X377190000Y-67437000D03*
X378091700Y-65468500D03*
%TD*%
D20*
%TO.N,KEY_ROW6*%
X382739900Y-156424800D02*
X383197100Y-155967600D01*
X411975300Y-155967600D02*
X412026100Y-155916800D01*
X383197100Y-155967600D02*
X411975300Y-155967600D01*
X412026100Y-155916800D02*
X422847600Y-155916800D01*
X431584100Y-147180300D02*
X431584100Y-146264800D01*
X422847600Y-155916800D02*
X431584100Y-147180300D01*
D21*
X349474600Y-156428800D02*
X349478600Y-156424800D01*
X332802333Y-156428800D02*
X349474600Y-156428800D01*
X332798333Y-156424800D02*
X332802333Y-156428800D01*
X310870600Y-156424800D02*
X332798333Y-156424800D01*
X351562323Y-156424800D02*
X351566323Y-156428800D01*
X351566323Y-156428800D02*
X380146200Y-156428800D01*
X349478600Y-156424800D02*
X351562323Y-156424800D01*
X380607400Y-155967600D02*
X383197100Y-155967600D01*
X380146200Y-156428800D02*
X380607400Y-155967600D01*
X354036400Y-31445200D02*
X354036400Y-45297970D01*
X354036400Y-45297970D02*
X354267930Y-45529500D01*
X354267930Y-45529500D02*
X363029500Y-45529500D01*
X409130500Y-54483000D02*
X408432000Y-53784500D01*
X408432000Y-53784500D02*
X405384000Y-53784500D01*
X363216751Y-45342249D02*
X369065249Y-45342249D01*
X363029500Y-45529500D02*
X363216751Y-45342249D01*
X369065249Y-45342249D02*
X369951000Y-46228000D01*
X369951000Y-46228000D02*
X370014500Y-46291500D01*
X400558000Y-46291500D02*
X401066000Y-45783500D01*
X370014500Y-46291500D02*
X400558000Y-46291500D01*
X401066000Y-45783500D02*
X401129500Y-45720000D01*
X401129500Y-45720000D02*
X402463000Y-45720000D01*
X402463000Y-45720000D02*
X402463000Y-45720000D01*
X405384000Y-53784500D02*
X405384000Y-53784500D01*
D22*
%TO.N,GNDPWR*%
X337906992Y-72915590D02*
X338048600Y-73057198D01*
X318886208Y-72915590D02*
X337906992Y-72915590D01*
X318744600Y-73057198D02*
X318886208Y-72915590D01*
X45248192Y-72928290D02*
X45389800Y-73069898D01*
X26316308Y-72928290D02*
X45248192Y-72928290D01*
X26174700Y-73069898D02*
X26316308Y-72928290D01*
X26174700Y-73782800D02*
X26174700Y-73069898D01*
X64450593Y-72915591D02*
X64592200Y-73057198D01*
X45544107Y-72915591D02*
X64450593Y-72915591D01*
X45389800Y-73069898D02*
X45544107Y-72915591D01*
X45389800Y-73782800D02*
X45389800Y-73069898D01*
X83246592Y-72915590D02*
X83388200Y-73057198D01*
X64733808Y-72915590D02*
X83246592Y-72915590D01*
X64592200Y-73057198D02*
X64733808Y-72915590D01*
X64592200Y-73770100D02*
X64592200Y-73057198D01*
X102692200Y-73057198D02*
X102692200Y-73770100D01*
X102550592Y-72915590D02*
X102692200Y-73057198D01*
X83388200Y-73057198D02*
X83529808Y-72915590D01*
X83529808Y-72915590D02*
X102550592Y-72915590D01*
X83388200Y-73770100D02*
X83388200Y-73057198D01*
X121854592Y-72915590D02*
X121996200Y-73057198D01*
X102833808Y-72915590D02*
X121854592Y-72915590D01*
X102692200Y-73057198D02*
X102833808Y-72915590D01*
X338402292Y-47007590D02*
X338543900Y-47149198D01*
X319127508Y-47007590D02*
X338402292Y-47007590D01*
X318985900Y-47149198D02*
X319127508Y-47007590D01*
X357706292Y-47007590D02*
X357847900Y-47149198D01*
X338543900Y-47149198D02*
X338685508Y-47007590D01*
X338685508Y-47007590D02*
X357706292Y-47007590D01*
X338543900Y-47862100D02*
X338543900Y-47149198D01*
X400314792Y-47020290D02*
X400456400Y-47161898D01*
X381294008Y-47020290D02*
X400314792Y-47020290D01*
X381152400Y-47161898D02*
X381294008Y-47020290D01*
X419618792Y-47020290D02*
X419760400Y-47161898D01*
X400598008Y-47020290D02*
X419618792Y-47020290D01*
X400456400Y-47161898D02*
X400598008Y-47020290D01*
X400456400Y-47874800D02*
X400456400Y-47161898D01*
X438935492Y-47020290D02*
X439077100Y-47161898D01*
X419902008Y-47020290D02*
X438935492Y-47020290D01*
X419760400Y-47161898D02*
X419902008Y-47020290D01*
X439077100Y-47161898D02*
X439077100Y-47874800D01*
X419760400Y-47874800D02*
X419760400Y-47161898D01*
X337843492Y-150703090D02*
X337985100Y-150844698D01*
X318822708Y-150703090D02*
X337843492Y-150703090D01*
X318681100Y-150844698D02*
X318822708Y-150703090D01*
X318681100Y-151557600D02*
X318681100Y-150844698D01*
X357147492Y-150703090D02*
X357289100Y-150844698D01*
X338126708Y-150703090D02*
X357147492Y-150703090D01*
X337985100Y-150844698D02*
X338126708Y-150703090D01*
X337985100Y-151557600D02*
X337985100Y-150844698D01*
X390865992Y-150195090D02*
X391007600Y-150336698D01*
X357938708Y-150195090D02*
X390865992Y-150195090D01*
X357289100Y-150844698D02*
X357938708Y-150195090D01*
X357289100Y-151557600D02*
X357289100Y-150844698D01*
X419694992Y-150195090D02*
X419836600Y-150336698D01*
X391149208Y-150195090D02*
X419694992Y-150195090D01*
X419836600Y-150336698D02*
X419836600Y-151049600D01*
X391007600Y-150336698D02*
X391149208Y-150195090D01*
X391007600Y-151049600D02*
X391007600Y-150336698D01*
X419836600Y-150336698D02*
X420100467Y-150072831D01*
X422444841Y-150072831D02*
X429998272Y-142519400D01*
X420100467Y-150072831D02*
X422444841Y-150072831D01*
X439394600Y-142716698D02*
X439394600Y-143429600D01*
X439197302Y-142519400D02*
X439394600Y-142716698D01*
X429998272Y-142519400D02*
X439197302Y-142519400D01*
X141158592Y-72915590D02*
X141300200Y-73057198D01*
X121996200Y-73057198D02*
X122137808Y-72915590D01*
X122137808Y-72915590D02*
X141158592Y-72915590D01*
X121996200Y-73770100D02*
X121996200Y-73057198D01*
X160462592Y-72915590D02*
X160604200Y-73057198D01*
X141441808Y-72915590D02*
X160462592Y-72915590D01*
X141300200Y-73057198D02*
X141441808Y-72915590D01*
X141300200Y-73770100D02*
X141300200Y-73057198D01*
X179766592Y-72915590D02*
X179908200Y-73057198D01*
X160745808Y-72915590D02*
X179766592Y-72915590D01*
X160604200Y-73057198D02*
X160745808Y-72915590D01*
X160604200Y-73770100D02*
X160604200Y-73057198D01*
X199070592Y-72915590D02*
X199212200Y-73057198D01*
X180049808Y-72915590D02*
X199070592Y-72915590D01*
X179908200Y-73057198D02*
X180049808Y-72915590D01*
X179908200Y-73770100D02*
X179908200Y-73057198D01*
X218374592Y-72915590D02*
X218516200Y-73057198D01*
X199353808Y-72915590D02*
X218374592Y-72915590D01*
X199212200Y-73057198D02*
X199353808Y-72915590D01*
X199212200Y-73770100D02*
X199212200Y-73057198D01*
X218657808Y-72915590D02*
X237678592Y-72915590D01*
X237678592Y-72915590D02*
X237820200Y-73057198D01*
X218516200Y-73057198D02*
X218657808Y-72915590D01*
X218516200Y-73770100D02*
X218516200Y-73057198D01*
X256982592Y-72915590D02*
X257124200Y-73057198D01*
X237961808Y-72915590D02*
X256982592Y-72915590D01*
X237820200Y-73057198D02*
X237961808Y-72915590D01*
X237820200Y-73770100D02*
X237820200Y-73057198D01*
X285748092Y-72915590D02*
X285889700Y-73057198D01*
X257265808Y-72915590D02*
X285748092Y-72915590D01*
X257124200Y-73057198D02*
X257265808Y-72915590D01*
X257124200Y-73770100D02*
X257124200Y-73057198D01*
X318744600Y-73057198D02*
X318744600Y-73770100D01*
X318602992Y-72915590D02*
X318744600Y-73057198D01*
X286031308Y-72915590D02*
X318602992Y-72915590D01*
X285889700Y-73057198D02*
X286031308Y-72915590D01*
X285889700Y-73770100D02*
X285889700Y-73057198D01*
X357263792Y-72915590D02*
X357430800Y-73082598D01*
X338190208Y-72915590D02*
X357263792Y-72915590D01*
X338048600Y-73057198D02*
X338190208Y-72915590D01*
X338048600Y-73770100D02*
X338048600Y-73057198D01*
X400390992Y-72915590D02*
X400532600Y-73057198D01*
X381370208Y-72915590D02*
X400390992Y-72915590D01*
X381228600Y-73057198D02*
X381370208Y-72915590D01*
X400581493Y-65879791D02*
X400723100Y-66021398D01*
X381294007Y-65879791D02*
X400581493Y-65879791D01*
X381101600Y-66072198D02*
X381294007Y-65879791D01*
X381101600Y-66785100D02*
X381101600Y-66072198D01*
X419885492Y-65879790D02*
X420027100Y-66021398D01*
X400864708Y-65879790D02*
X419885492Y-65879790D01*
X400723100Y-66021398D02*
X400864708Y-65879790D01*
X400723100Y-66734300D02*
X400723100Y-66021398D01*
X439138692Y-65879790D02*
X439331100Y-66072198D01*
X420168708Y-65879790D02*
X439138692Y-65879790D01*
X420027100Y-66021398D02*
X420168708Y-65879790D01*
X420027100Y-66734300D02*
X420027100Y-66021398D01*
X419682292Y-72915590D02*
X419836600Y-73069898D01*
X400674208Y-72915590D02*
X419682292Y-72915590D01*
X400532600Y-73057198D02*
X400674208Y-72915590D01*
X400532600Y-73770100D02*
X400532600Y-73057198D01*
X438998993Y-72915591D02*
X439140600Y-73057198D01*
X419836600Y-73069898D02*
X419990907Y-72915591D01*
X419990907Y-72915591D02*
X438998993Y-72915591D01*
X419836600Y-73782800D02*
X419836600Y-73069898D01*
X31028008Y-92130690D02*
X54646192Y-92130690D01*
X54646192Y-92130690D02*
X54813200Y-92297698D01*
X30886400Y-92272298D02*
X31028008Y-92130690D01*
X30886400Y-92985200D02*
X30886400Y-92272298D01*
X74117200Y-92178700D02*
X74117200Y-93010600D01*
X74094590Y-92156090D02*
X74117200Y-92178700D01*
X54954808Y-92156090D02*
X74094590Y-92156090D01*
X54813200Y-92297698D02*
X54954808Y-92156090D01*
X54813200Y-93010600D02*
X54813200Y-92297698D01*
X93279592Y-92156090D02*
X93421200Y-92297698D01*
X74258808Y-92156090D02*
X93279592Y-92156090D01*
X74117200Y-92297698D02*
X74258808Y-92156090D01*
X74117200Y-93010600D02*
X74117200Y-92297698D01*
X112583592Y-92156090D02*
X112725200Y-92297698D01*
X93562808Y-92156090D02*
X112583592Y-92156090D01*
X93421200Y-92297698D02*
X93562808Y-92156090D01*
X93421200Y-93010600D02*
X93421200Y-92297698D01*
X131887592Y-92156090D02*
X132029200Y-92297698D01*
X112866808Y-92156090D02*
X131887592Y-92156090D01*
X112725200Y-92297698D02*
X112866808Y-92156090D01*
X112725200Y-93010600D02*
X112725200Y-92297698D01*
X151191592Y-92156090D02*
X151333200Y-92297698D01*
X132170808Y-92156090D02*
X151191592Y-92156090D01*
X132029200Y-92297698D02*
X132170808Y-92156090D01*
X132029200Y-93010600D02*
X132029200Y-92297698D01*
X170495592Y-92156090D02*
X170637200Y-92297698D01*
X151474808Y-92156090D02*
X170495592Y-92156090D01*
X151333200Y-92297698D02*
X151474808Y-92156090D01*
X151333200Y-93010600D02*
X151333200Y-92297698D01*
X170778808Y-92156090D02*
X189799592Y-92156090D01*
X170637200Y-92297698D02*
X170778808Y-92156090D01*
X189799592Y-92156090D02*
X189941200Y-92297698D01*
X170637200Y-93010600D02*
X170637200Y-92297698D01*
X209103592Y-92156090D02*
X209245200Y-92297698D01*
X190082808Y-92156090D02*
X209103592Y-92156090D01*
X189941200Y-92297698D02*
X190082808Y-92156090D01*
X189941200Y-93010600D02*
X189941200Y-92297698D01*
X228407592Y-92156090D02*
X228549200Y-92297698D01*
X209386808Y-92156090D02*
X228407592Y-92156090D01*
X209245200Y-92297698D02*
X209386808Y-92156090D01*
X209245200Y-93010600D02*
X209245200Y-92297698D01*
X247711592Y-92156090D02*
X247853200Y-92297698D01*
X228690808Y-92156090D02*
X247711592Y-92156090D01*
X228549200Y-92297698D02*
X228690808Y-92156090D01*
X228549200Y-93010600D02*
X228549200Y-92297698D01*
X267015592Y-92156090D02*
X267157200Y-92297698D01*
X247994808Y-92156090D02*
X267015592Y-92156090D01*
X247853200Y-92297698D02*
X247994808Y-92156090D01*
X247853200Y-93010600D02*
X247853200Y-92297698D01*
X290916992Y-92156090D02*
X291084000Y-92323098D01*
X267298808Y-92156090D02*
X290916992Y-92156090D01*
X267157200Y-92297698D02*
X267298808Y-92156090D01*
X267157200Y-93010600D02*
X267157200Y-92297698D01*
X59561093Y-111587091D02*
X59702700Y-111728698D01*
X33441007Y-111587091D02*
X59561093Y-111587091D01*
X33223200Y-111804898D02*
X33441007Y-111587091D01*
X33223200Y-112517800D02*
X33223200Y-111804898D01*
X78865092Y-111587090D02*
X79006700Y-111728698D01*
X59844308Y-111587090D02*
X78865092Y-111587090D01*
X59702700Y-111728698D02*
X59844308Y-111587090D01*
X59702700Y-112441600D02*
X59702700Y-111728698D01*
X98169092Y-111587090D02*
X98310700Y-111728698D01*
X79148308Y-111587090D02*
X98169092Y-111587090D01*
X79006700Y-111728698D02*
X79148308Y-111587090D01*
X79006700Y-112441600D02*
X79006700Y-111728698D01*
X117473092Y-111587090D02*
X117614700Y-111728698D01*
X98452308Y-111587090D02*
X117473092Y-111587090D01*
X98310700Y-111728698D02*
X98452308Y-111587090D01*
X98310700Y-112441600D02*
X98310700Y-111728698D01*
X136777092Y-111587090D02*
X136918700Y-111728698D01*
X117756308Y-111587090D02*
X136777092Y-111587090D01*
X117614700Y-111728698D02*
X117756308Y-111587090D01*
X117614700Y-112441600D02*
X117614700Y-111728698D01*
X156081092Y-111587090D02*
X156222700Y-111728698D01*
X137060308Y-111587090D02*
X156081092Y-111587090D01*
X136918700Y-111728698D02*
X137060308Y-111587090D01*
X136918700Y-112441600D02*
X136918700Y-111728698D01*
X175385092Y-111587090D02*
X175526700Y-111728698D01*
X156364308Y-111587090D02*
X175385092Y-111587090D01*
X156222700Y-111728698D02*
X156364308Y-111587090D01*
X156222700Y-112441600D02*
X156222700Y-111728698D01*
X194689092Y-111587090D02*
X194830700Y-111728698D01*
X175668308Y-111587090D02*
X194689092Y-111587090D01*
X175526700Y-111728698D02*
X175668308Y-111587090D01*
X175526700Y-112441600D02*
X175526700Y-111728698D01*
X213993092Y-111587090D02*
X214134700Y-111728698D01*
X194972308Y-111587090D02*
X213993092Y-111587090D01*
X194830700Y-111728698D02*
X194972308Y-111587090D01*
X194830700Y-112441600D02*
X194830700Y-111728698D01*
X233297092Y-111587090D02*
X233438700Y-111728698D01*
X214276308Y-111587090D02*
X233297092Y-111587090D01*
X214134700Y-111728698D02*
X214276308Y-111587090D01*
X214134700Y-112441600D02*
X214134700Y-111728698D01*
X252601092Y-111587090D02*
X252742700Y-111728698D01*
X233580308Y-111587090D02*
X252601092Y-111587090D01*
X233438700Y-111728698D02*
X233580308Y-111587090D01*
X233438700Y-112441600D02*
X233438700Y-111728698D01*
X284022800Y-111754098D02*
X284022800Y-112467000D01*
X283855792Y-111587090D02*
X284022800Y-111754098D01*
X252884308Y-111587090D02*
X283855792Y-111587090D01*
X252742700Y-111728698D02*
X252884308Y-111587090D01*
X252742700Y-112441600D02*
X252742700Y-111728698D01*
X284022800Y-111754098D02*
X284164408Y-111612490D01*
X311429670Y-92156090D02*
X318602992Y-92156090D01*
X291973270Y-111612490D02*
X311429670Y-92156090D01*
X318602992Y-92156090D02*
X318744600Y-92297698D01*
X284164408Y-111612490D02*
X291973270Y-111612490D01*
X337906992Y-92156090D02*
X338048600Y-92297698D01*
X318886208Y-92156090D02*
X337906992Y-92156090D01*
X318744600Y-92297698D02*
X318886208Y-92156090D01*
X318744600Y-93010600D02*
X318744600Y-92297698D01*
X357210992Y-92156090D02*
X357352600Y-92297698D01*
X338190208Y-92156090D02*
X357210992Y-92156090D01*
X338048600Y-92297698D02*
X338190208Y-92156090D01*
X338048600Y-93010600D02*
X338048600Y-92297698D01*
X400390992Y-92181490D02*
X400532600Y-92323098D01*
X381370208Y-92181490D02*
X400390992Y-92181490D01*
X381228600Y-92323098D02*
X381370208Y-92181490D01*
X419694992Y-92181490D02*
X419836600Y-92323098D01*
X400674208Y-92181490D02*
X419694992Y-92181490D01*
X400532600Y-92323098D02*
X400674208Y-92181490D01*
X400532600Y-93036000D02*
X400532600Y-92323098D01*
X68959092Y-131399090D02*
X69100700Y-131540698D01*
X38127308Y-131399090D02*
X68959092Y-131399090D01*
X37985700Y-131540698D02*
X38127308Y-131399090D01*
X37985700Y-132253600D02*
X37985700Y-131540698D01*
X88123092Y-131399090D02*
X88264700Y-131540698D01*
X69242308Y-131399090D02*
X88123092Y-131399090D01*
X69100700Y-131540698D02*
X69242308Y-131399090D01*
X69100700Y-132253600D02*
X69100700Y-131540698D01*
X107567092Y-131399090D02*
X107708700Y-131540698D01*
X88406308Y-131399090D02*
X107567092Y-131399090D01*
X88264700Y-131540698D02*
X88406308Y-131399090D01*
X88264700Y-132253600D02*
X88264700Y-131540698D01*
X126871092Y-131399090D02*
X127012700Y-131540698D01*
X107850308Y-131399090D02*
X126871092Y-131399090D01*
X107708700Y-131540698D02*
X107850308Y-131399090D01*
X107708700Y-132253600D02*
X107708700Y-131540698D01*
X146175092Y-131399090D02*
X146316700Y-131540698D01*
X127154308Y-131399090D02*
X146175092Y-131399090D01*
X127012700Y-131540698D02*
X127154308Y-131399090D01*
X127012700Y-132253600D02*
X127012700Y-131540698D01*
X165479092Y-131399090D02*
X165620700Y-131540698D01*
X146458308Y-131399090D02*
X165479092Y-131399090D01*
X146316700Y-131540698D02*
X146458308Y-131399090D01*
X146316700Y-132253600D02*
X146316700Y-131540698D01*
X165762308Y-131399090D02*
X184783092Y-131399090D01*
X184783092Y-131399090D02*
X184924700Y-131540698D01*
X165620700Y-131540698D02*
X165762308Y-131399090D01*
X165620700Y-132253600D02*
X165620700Y-131540698D01*
X204087092Y-131399090D02*
X204228700Y-131540698D01*
X185066308Y-131399090D02*
X204087092Y-131399090D01*
X184924700Y-131540698D02*
X185066308Y-131399090D01*
X184924700Y-132253600D02*
X184924700Y-131540698D01*
X223391092Y-131399090D02*
X223532700Y-131540698D01*
X204228700Y-131540698D02*
X204370308Y-131399090D01*
X204370308Y-131399090D02*
X223391092Y-131399090D01*
X204228700Y-132253600D02*
X204228700Y-131540698D01*
X242695092Y-131399090D02*
X242836700Y-131540698D01*
X223674308Y-131399090D02*
X242695092Y-131399090D01*
X223532700Y-131540698D02*
X223674308Y-131399090D01*
X223532700Y-132253600D02*
X223532700Y-131540698D01*
X279222200Y-131540698D02*
X279222200Y-132253600D01*
X242978308Y-131399090D02*
X279080592Y-131399090D01*
X279080592Y-131399090D02*
X279222200Y-131540698D01*
X242836700Y-131540698D02*
X242978308Y-131399090D01*
X242836700Y-132253600D02*
X242836700Y-131540698D01*
X279406798Y-131356100D02*
X287384595Y-131356100D01*
X279222200Y-131540698D02*
X279406798Y-131356100D01*
X381228600Y-111270600D02*
X381228600Y-112441600D01*
X380790960Y-110832960D02*
X381228600Y-111270600D01*
X307907735Y-110832960D02*
X380790960Y-110832960D01*
X287384595Y-131356100D02*
X307907735Y-110832960D01*
X400390992Y-111587090D02*
X400532600Y-111728698D01*
X381370208Y-111587090D02*
X400390992Y-111587090D01*
X381228600Y-111728698D02*
X381370208Y-111587090D01*
X381228600Y-112441600D02*
X381228600Y-111728698D01*
X419836600Y-111665198D02*
X419836600Y-112378100D01*
X419694993Y-111523591D02*
X419836600Y-111665198D01*
X400737707Y-111523591D02*
X419694993Y-111523591D01*
X400532600Y-111728698D02*
X400737707Y-111523591D01*
X400532600Y-112441600D02*
X400532600Y-111728698D01*
X419836600Y-111665198D02*
X420011562Y-111490236D01*
X438998992Y-102062090D02*
X439140600Y-102203698D01*
X430912682Y-102062090D02*
X438998992Y-102062090D01*
X421484536Y-111490236D02*
X430912682Y-102062090D01*
X420011562Y-111490236D02*
X421484536Y-111490236D01*
X52969792Y-150779290D02*
X53162200Y-150971698D01*
X28729308Y-150779290D02*
X52969792Y-150779290D01*
X28587700Y-150920898D02*
X28729308Y-150779290D01*
X28587700Y-151633800D02*
X28587700Y-150920898D01*
X77404592Y-150830090D02*
X77546200Y-150971698D01*
X53303808Y-150830090D02*
X77404592Y-150830090D01*
X53162200Y-150971698D02*
X53303808Y-150830090D01*
X53162200Y-151684600D02*
X53162200Y-150971698D01*
X114717193Y-150817391D02*
X114858800Y-150958998D01*
X77700507Y-150817391D02*
X114717193Y-150817391D01*
X77546200Y-150971698D02*
X77700507Y-150817391D01*
X77546200Y-151684600D02*
X77546200Y-150971698D01*
X149273892Y-150817390D02*
X149428200Y-150971698D01*
X114858800Y-150958998D02*
X115000408Y-150817390D01*
X115000408Y-150817390D02*
X149273892Y-150817390D01*
X114858800Y-151671900D02*
X114858800Y-150958998D01*
X178814093Y-150804691D02*
X178955700Y-150946298D01*
X149595207Y-150804691D02*
X178814093Y-150804691D01*
X149428200Y-150971698D02*
X149595207Y-150804691D01*
X149428200Y-151684600D02*
X149428200Y-150971698D01*
X221016192Y-150804690D02*
X221183200Y-150971698D01*
X179097308Y-150804690D02*
X221016192Y-150804690D01*
X178955700Y-150946298D02*
X179097308Y-150804690D01*
X178955700Y-151659200D02*
X178955700Y-150946298D01*
X245171592Y-150830090D02*
X245313200Y-150971698D01*
X221324808Y-150830090D02*
X245171592Y-150830090D01*
X221183200Y-150971698D02*
X221324808Y-150830090D01*
X221183200Y-151684600D02*
X221183200Y-150971698D01*
X269506700Y-150971698D02*
X269506700Y-151684600D01*
X269365092Y-150830090D02*
X269506700Y-150971698D01*
X245454808Y-150830090D02*
X269365092Y-150830090D01*
X245313200Y-150971698D02*
X245454808Y-150830090D01*
X245313200Y-151684600D02*
X245313200Y-150971698D01*
X293573200Y-150971698D02*
X293573200Y-151684600D01*
X293431592Y-150830090D02*
X293573200Y-150971698D01*
X269648308Y-150830090D02*
X293431592Y-150830090D01*
X269536400Y-150941998D02*
X269648308Y-150830090D01*
X269536400Y-151676100D02*
X269536400Y-150941998D01*
X269527900Y-151684600D02*
X269536400Y-151676100D01*
X269506700Y-151684600D02*
X269527900Y-151684600D01*
X337843492Y-131348290D02*
X337985100Y-131489898D01*
X329614606Y-131348290D02*
X337843492Y-131348290D01*
X310201196Y-150761700D02*
X329614606Y-131348290D01*
X293783198Y-150761700D02*
X310201196Y-150761700D01*
X293573200Y-150971698D02*
X293783198Y-150761700D01*
X381340992Y-130891090D02*
X381482600Y-131032698D01*
X338583908Y-130891090D02*
X381340992Y-130891090D01*
X337985100Y-131489898D02*
X338583908Y-130891090D01*
X337985100Y-132202800D02*
X337985100Y-131489898D01*
X400390992Y-130891090D02*
X400532600Y-131032698D01*
X381624208Y-130891090D02*
X400390992Y-130891090D01*
X381482600Y-131032698D02*
X381624208Y-130891090D01*
X381482600Y-131745600D02*
X381482600Y-131032698D01*
X419694992Y-130891090D02*
X419836600Y-131032698D01*
X400674208Y-130891090D02*
X419694992Y-130891090D01*
X400532600Y-131032698D02*
X400674208Y-130891090D01*
X400532600Y-131745600D02*
X400532600Y-131032698D01*
X64587752Y-46969490D02*
X64767460Y-47149198D01*
X26379808Y-46969490D02*
X64587752Y-46969490D01*
X26238200Y-47111098D02*
X26379808Y-46969490D01*
X26238200Y-47824000D02*
X26238200Y-47111098D01*
X83929852Y-47007590D02*
X84071460Y-47149198D01*
X64909068Y-47007590D02*
X83929852Y-47007590D01*
X64767460Y-47149198D02*
X64909068Y-47007590D01*
X64767460Y-47862100D02*
X64767460Y-47149198D01*
X103233852Y-47007590D02*
X103375460Y-47149198D01*
X84213068Y-47007590D02*
X103233852Y-47007590D01*
X84071460Y-47149198D02*
X84213068Y-47007590D01*
X84071460Y-47862100D02*
X84071460Y-47149198D01*
X122537852Y-47007590D02*
X122679460Y-47149198D01*
X103517068Y-47007590D02*
X122537852Y-47007590D01*
X103375460Y-47149198D02*
X103517068Y-47007590D01*
X103375460Y-47862100D02*
X103375460Y-47149198D01*
X122821068Y-47007590D02*
X154033852Y-47007590D01*
X122679460Y-47149198D02*
X122821068Y-47007590D01*
X154033852Y-47007590D02*
X154175460Y-47149198D01*
X122679460Y-47862100D02*
X122679460Y-47149198D01*
X173337852Y-47007590D02*
X173479460Y-47149198D01*
X154317068Y-47007590D02*
X173337852Y-47007590D01*
X154175460Y-47149198D02*
X154317068Y-47007590D01*
X154175460Y-47862100D02*
X154175460Y-47149198D01*
X192641852Y-47007590D02*
X192783460Y-47149198D01*
X173621068Y-47007590D02*
X192641852Y-47007590D01*
X173479460Y-47149198D02*
X173621068Y-47007590D01*
X173479460Y-47862100D02*
X173479460Y-47149198D01*
X211945852Y-47007590D02*
X212087460Y-47149198D01*
X192925068Y-47007590D02*
X211945852Y-47007590D01*
X192783460Y-47149198D02*
X192925068Y-47007590D01*
X192783460Y-47862100D02*
X192783460Y-47149198D01*
X238361852Y-47007590D02*
X238503460Y-47149198D01*
X212229068Y-47007590D02*
X238361852Y-47007590D01*
X212087460Y-47149198D02*
X212229068Y-47007590D01*
X212087460Y-47862100D02*
X212087460Y-47149198D01*
X257665852Y-47007590D02*
X257807460Y-47149198D01*
X238645068Y-47007590D02*
X257665852Y-47007590D01*
X238503460Y-47149198D02*
X238645068Y-47007590D01*
X238503460Y-47862100D02*
X238503460Y-47149198D01*
X276969852Y-47007590D02*
X277111460Y-47149198D01*
X257949068Y-47007590D02*
X276969852Y-47007590D01*
X257807460Y-47149198D02*
X257949068Y-47007590D01*
X257807460Y-47862100D02*
X257807460Y-47149198D01*
X296273852Y-47007590D02*
X296415460Y-47149198D01*
X277253068Y-47007590D02*
X296273852Y-47007590D01*
X277111460Y-47149198D02*
X277253068Y-47007590D01*
X277111460Y-47862100D02*
X277111460Y-47149198D01*
X318985900Y-47149198D02*
X318985900Y-47862100D01*
X318844292Y-47007590D02*
X318985900Y-47149198D01*
X296557068Y-47007590D02*
X318844292Y-47007590D01*
X296415460Y-47149198D02*
X296557068Y-47007590D01*
X296415460Y-47862100D02*
X296415460Y-47149198D01*
X380998092Y-47007590D02*
X381152400Y-47161898D01*
X381152400Y-47161898D02*
X381152400Y-47874800D01*
X357989508Y-47007590D02*
X380998092Y-47007590D01*
X357847900Y-47149198D02*
X357989508Y-47007590D01*
X357847900Y-47862100D02*
X357847900Y-47149198D01*
X381228600Y-92323098D02*
X381228600Y-93036000D01*
X381061592Y-92156090D02*
X381228600Y-92323098D01*
X357494208Y-92156090D02*
X381061592Y-92156090D01*
X357352600Y-92297698D02*
X357494208Y-92156090D01*
X357352600Y-93010600D02*
X357352600Y-92297698D01*
X381228600Y-73057198D02*
X381228600Y-73770100D01*
X381086993Y-72915591D02*
X381228600Y-73057198D01*
X357430800Y-73082598D02*
X357597807Y-72915591D01*
X357597807Y-72915591D02*
X381086993Y-72915591D01*
X357430800Y-73795500D02*
X357430800Y-73082598D01*
D21*
X51482609Y-46897909D02*
X51490690Y-46905990D01*
X51482609Y-44630991D02*
X51482609Y-46897909D01*
D22*
X439645799Y-142465499D02*
X447925899Y-142465499D01*
X439394600Y-142716698D02*
X439645799Y-142465499D01*
X448392580Y-142932180D02*
X451935820Y-142932180D01*
X447925899Y-142465499D02*
X448392580Y-142932180D01*
X450664331Y-130891091D02*
X451935820Y-132162580D01*
X419978207Y-130891091D02*
X450664331Y-130891091D01*
X419836600Y-131032698D02*
X419978207Y-130891091D01*
X419836600Y-131745600D02*
X419836600Y-131032698D01*
D23*
X451935820Y-132162580D02*
X451935820Y-142932180D01*
D22*
X450550091Y-102062091D02*
X451935820Y-103447820D01*
X439282207Y-102062091D02*
X450550091Y-102062091D01*
X439140600Y-102203698D02*
X439282207Y-102062091D01*
X439140600Y-102916600D02*
X439140600Y-102203698D01*
X419978208Y-92181490D02*
X450664330Y-92181490D01*
X450664330Y-92181490D02*
X451935820Y-93452980D01*
X419836600Y-92323098D02*
X419978208Y-92181490D01*
X419836600Y-93036000D02*
X419836600Y-92323098D01*
D23*
X451935820Y-93452980D02*
X451935820Y-103447820D01*
D22*
X439282207Y-72915591D02*
X451058031Y-72915591D01*
X451058031Y-72915591D02*
X451935820Y-73793380D01*
X439140600Y-73057198D02*
X439282207Y-72915591D01*
X439140600Y-73770100D02*
X439140600Y-73057198D01*
D23*
X451935820Y-73793380D02*
X451935820Y-93452980D01*
D22*
X446324315Y-65934599D02*
X448137896Y-67748180D01*
X439468699Y-65934599D02*
X446324315Y-65934599D01*
X439331100Y-66072198D02*
X439468699Y-65934599D01*
X439331100Y-66785100D02*
X439331100Y-66072198D01*
X448137896Y-67748180D02*
X451935820Y-67748180D01*
D23*
X451935820Y-67748180D02*
X451935820Y-73793380D01*
X451935820Y-45078620D02*
X451935820Y-67748180D01*
D22*
X294873490Y-92181490D02*
X294894000Y-92202000D01*
X291225608Y-92181490D02*
X294873490Y-92181490D01*
X291084000Y-92323098D02*
X291225608Y-92181490D01*
X291084000Y-93036000D02*
X291084000Y-92323098D01*
D21*
X451637400Y-118668800D02*
X451935820Y-118370380D01*
D23*
X451935820Y-118370380D02*
X451935820Y-132162580D01*
X451935820Y-103447820D02*
X451935820Y-118370380D01*
D24*
X434289200Y-21894800D02*
X434288700Y-21895300D01*
D25*
X412036400Y-21909900D02*
X412036400Y-31445200D01*
D23*
X434274100Y-21909900D02*
X412036400Y-21909900D01*
X412036400Y-21909900D02*
X362150800Y-21909900D01*
X362150800Y-29842400D02*
X362036400Y-29956800D01*
X362150800Y-21909900D02*
X362150800Y-29842400D01*
D25*
X362036400Y-29956800D02*
X362036400Y-31445200D01*
D23*
X434288700Y-27431500D02*
X442633100Y-35775900D01*
X434288700Y-25374600D02*
X434288700Y-27431500D01*
X442633100Y-35775900D02*
X451935820Y-45078620D01*
X438200800Y-31343600D02*
X442633100Y-35775900D01*
X434288700Y-21924500D02*
X434274100Y-21909900D01*
X434288700Y-25374600D02*
X434288700Y-21924500D01*
D21*
%TO.N,Net-(LD0\u002C1-Pad2)*%
X27024700Y-74472800D02*
X44539800Y-74472800D01*
%TO.N,Net-(LD0\u002C1-Pad3)*%
X27024700Y-73572800D02*
X44539800Y-73572800D01*
%TO.N,Net-(LD0\u002C5-Pad3)*%
X52261400Y-151423800D02*
X52312200Y-151474600D01*
X29437700Y-151423800D02*
X52261400Y-151423800D01*
%TO.N,Net-(LD0\u002C5-Pad2)*%
X52261400Y-152323800D02*
X52312200Y-152374600D01*
X29437700Y-152323800D02*
X52261400Y-152323800D01*
%TO.N,Net-(LD0\u002C3-Pad2)*%
X58776500Y-113207800D02*
X58852700Y-113131600D01*
X34073200Y-113207800D02*
X58776500Y-113207800D01*
%TO.N,Net-(LD0\u002C3-Pad3)*%
X58776500Y-112307800D02*
X58852700Y-112231600D01*
X34073200Y-112307800D02*
X58776500Y-112307800D01*
%TO.N,Net-(LD0\u002C4-Pad3)*%
X38835700Y-132043600D02*
X68250700Y-132043600D01*
%TO.N,Net-(LD0\u002C4-Pad2)*%
X38835700Y-132943600D02*
X68250700Y-132943600D01*
%TO.N,Net-(LD0\u002C2-Pad2)*%
X53937800Y-93675200D02*
X53963200Y-93700600D01*
X31736400Y-93675200D02*
X53937800Y-93675200D01*
%TO.N,Net-(LD0\u002C2-Pad3)*%
X53937800Y-92775200D02*
X53963200Y-92800600D01*
X31736400Y-92775200D02*
X53937800Y-92775200D01*
%TO.N,Net-(LD0\u002C0-Pad2)*%
X63879360Y-48514000D02*
X63917460Y-48552100D01*
X27088200Y-48514000D02*
X63879360Y-48514000D01*
%TO.N,Net-(LD0\u002C0-Pad3)*%
X63879360Y-47614000D02*
X63917460Y-47652100D01*
X27088200Y-47614000D02*
X63879360Y-47614000D01*
%TO.N,LED_SCL_ROW0*%
X22783800Y-48437800D02*
X22860000Y-48514000D01*
X25388200Y-48514000D02*
X22860000Y-48514000D01*
%TO.N,Net-(LD1\u002C4-Pad2)*%
X69950700Y-132943600D02*
X87414700Y-132943600D01*
%TO.N,Net-(LD1\u002C4-Pad3)*%
X69950700Y-132043600D02*
X87414700Y-132043600D01*
%TO.N,Net-(LD1\u002C2-Pad3)*%
X55663200Y-92800600D02*
X73267200Y-92800600D01*
%TO.N,Net-(LD1\u002C2-Pad2)*%
X55663200Y-93700600D02*
X73267200Y-93700600D01*
%TO.N,Net-(LD1\u002C0-Pad2)*%
X65617460Y-48552100D02*
X83221460Y-48552100D01*
%TO.N,Net-(LD1\u002C0-Pad3)*%
X65617460Y-47652100D02*
X83221460Y-47652100D01*
%TO.N,Net-(LD2\u002C0-Pad3)*%
X84921460Y-47652100D02*
X102525460Y-47652100D01*
%TO.N,Net-(LD2\u002C0-Pad2)*%
X84921460Y-48552100D02*
X102525460Y-48552100D01*
%TO.N,Net-(LD2\u002C2-Pad2)*%
X74967200Y-93700600D02*
X92571200Y-93700600D01*
%TO.N,Net-(LD2\u002C2-Pad3)*%
X75042600Y-92800600D02*
X92571200Y-92800600D01*
X74967200Y-92800600D02*
X75042600Y-92800600D01*
%TO.N,Net-(LD2\u002C4-Pad3)*%
X89114700Y-132043600D02*
X106858700Y-132043600D01*
%TO.N,Net-(LD2\u002C4-Pad2)*%
X89114700Y-132943600D02*
X106858700Y-132943600D01*
%TO.N,Net-(LD3\u002C2-Pad3)*%
X94271200Y-92800600D02*
X111875200Y-92800600D01*
%TO.N,Net-(LD3\u002C2-Pad2)*%
X94271200Y-93700600D02*
X111875200Y-93700600D01*
%TO.N,Net-(LD3\u002C4-Pad3)*%
X108558700Y-132043600D02*
X126162700Y-132043600D01*
%TO.N,Net-(LD3\u002C4-Pad2)*%
X108558700Y-132943600D02*
X126162700Y-132943600D01*
%TO.N,Net-(LD3\u002C0-Pad2)*%
X104225460Y-48552100D02*
X121829460Y-48552100D01*
%TO.N,Net-(LD3\u002C0-Pad3)*%
X104225460Y-47652100D02*
X121829460Y-47652100D01*
%TO.N,Net-(LD4\u002C2-Pad2)*%
X113575200Y-93700600D02*
X131179200Y-93700600D01*
%TO.N,Net-(LD4\u002C2-Pad3)*%
X113575200Y-92800600D02*
X131179200Y-92800600D01*
%TO.N,Net-(LD4\u002C4-Pad3)*%
X127862700Y-132043600D02*
X145466700Y-132043600D01*
%TO.N,Net-(LD4\u002C4-Pad2)*%
X127862700Y-132943600D02*
X145466700Y-132943600D01*
%TO.N,Net-(LD4\u002C0-Pad3)*%
X123529460Y-47652100D02*
X153325460Y-47652100D01*
%TO.N,Net-(LD4\u002C0-Pad2)*%
X123529460Y-48552100D02*
X153325460Y-48552100D01*
%TO.N,Net-(LD5\u002C0-Pad2)*%
X155025460Y-48552100D02*
X172629460Y-48552100D01*
%TO.N,Net-(LD5\u002C0-Pad3)*%
X155025460Y-47652100D02*
X172629460Y-47652100D01*
%TO.N,Net-(LD5\u002C4-Pad2)*%
X147166700Y-132943600D02*
X164770700Y-132943600D01*
%TO.N,Net-(LD5\u002C4-Pad3)*%
X147166700Y-132043600D02*
X164770700Y-132043600D01*
%TO.N,Net-(LD5\u002C2-Pad3)*%
X132879200Y-92800600D02*
X150483200Y-92800600D01*
%TO.N,Net-(LD5\u002C2-Pad2)*%
X132879200Y-93700600D02*
X150483200Y-93700600D01*
%TO.N,Net-(LD6\u002C0-Pad3)*%
X174329460Y-47652100D02*
X191933460Y-47652100D01*
%TO.N,Net-(LD6\u002C0-Pad2)*%
X174329460Y-48552100D02*
X191933460Y-48552100D01*
%TO.N,Net-(LD6\u002C2-Pad3)*%
X152183200Y-92800600D02*
X169787200Y-92800600D01*
%TO.N,Net-(LD6\u002C2-Pad2)*%
X152183200Y-93700600D02*
X169787200Y-93700600D01*
%TO.N,Net-(LD6\u002C4-Pad3)*%
X166470700Y-132043600D02*
X184074700Y-132043600D01*
%TO.N,Net-(LD6\u002C4-Pad2)*%
X166470700Y-132943600D02*
X184074700Y-132943600D01*
%TO.N,Net-(LD7\u002C4-Pad2)*%
X185774700Y-132943600D02*
X203378700Y-132943600D01*
%TO.N,Net-(LD7\u002C4-Pad3)*%
X185774700Y-132043600D02*
X203378700Y-132043600D01*
%TO.N,Net-(LD7\u002C2-Pad2)*%
X171487200Y-93700600D02*
X189091200Y-93700600D01*
%TO.N,Net-(LD7\u002C2-Pad3)*%
X171487200Y-92800600D02*
X189091200Y-92800600D01*
%TO.N,Net-(LD7\u002C0-Pad2)*%
X193633460Y-48552100D02*
X211237460Y-48552100D01*
%TO.N,Net-(LD7\u002C0-Pad3)*%
X193633460Y-47652100D02*
X211237460Y-47652100D01*
%TO.N,Net-(LD8\u002C4-Pad3)*%
X205078700Y-132043600D02*
X222682700Y-132043600D01*
%TO.N,Net-(LD8\u002C4-Pad2)*%
X205078700Y-132943600D02*
X222682700Y-132943600D01*
%TO.N,Net-(LD8\u002C2-Pad2)*%
X190791200Y-93700600D02*
X208395200Y-93700600D01*
%TO.N,Net-(LD8\u002C2-Pad3)*%
X190791200Y-92800600D02*
X208395200Y-92800600D01*
%TO.N,Net-(LD8\u002C0-Pad3)*%
X212937460Y-47652100D02*
X237653460Y-47652100D01*
%TO.N,Net-(LD8\u002C0-Pad2)*%
X212937460Y-48552100D02*
X237653460Y-48552100D01*
%TO.N,Net-(LD10\u002C0-Pad5)*%
X239353460Y-48552100D02*
X256957460Y-48552100D01*
%TO.N,Net-(LD10\u002C0-Pad4)*%
X239353460Y-47652100D02*
X256957460Y-47652100D01*
%TO.N,Net-(LD10\u002C3-Pad4)*%
X214984700Y-112231600D02*
X232588700Y-112231600D01*
%TO.N,Net-(LD10\u002C3-Pad5)*%
X214984700Y-113131600D02*
X232588700Y-113131600D01*
%TO.N,Net-(LD10\u002C2-Pad4)*%
X210095200Y-92800600D02*
X227699200Y-92800600D01*
%TO.N,Net-(LD10\u002C2-Pad5)*%
X210095200Y-93700600D02*
X227699200Y-93700600D01*
%TO.N,Net-(LD10\u002C1-Pad5)*%
X200062200Y-74460100D02*
X217666200Y-74460100D01*
%TO.N,Net-(LD10\u002C1-Pad4)*%
X200062200Y-73560100D02*
X217666200Y-73560100D01*
%TO.N,Net-(LD10\u002C4-Pad5)*%
X224382700Y-132943600D02*
X241986700Y-132943600D01*
%TO.N,Net-(LD10\u002C4-Pad4)*%
X224382700Y-132043600D02*
X241986700Y-132043600D01*
%TO.N,Net-(LD10\u002C5-Pad4)*%
X246163200Y-151474600D02*
X268656700Y-151474600D01*
%TO.N,Net-(LD10\u002C5-Pad5)*%
X246163200Y-152374600D02*
X268656700Y-152374600D01*
%TO.N,Net-(LD10\u002C1-Pad3)*%
X219366200Y-73560100D02*
X236970200Y-73560100D01*
%TO.N,Net-(LD10\u002C1-Pad2)*%
X219366200Y-74460100D02*
X236970200Y-74460100D01*
%TO.N,Net-(LD10\u002C4-Pad3)*%
X243686700Y-132043600D02*
X278372200Y-132043600D01*
%TO.N,Net-(LD10\u002C4-Pad2)*%
X243686700Y-132943600D02*
X278372200Y-132943600D01*
%TO.N,Net-(LD10\u002C5-Pad2)*%
X270356700Y-152374600D02*
X292723200Y-152374600D01*
%TO.N,Net-(LD10\u002C5-Pad3)*%
X270356700Y-151474600D02*
X292723200Y-151474600D01*
%TO.N,Net-(LD10\u002C3-Pad2)*%
X234288700Y-113131600D02*
X251892700Y-113131600D01*
%TO.N,Net-(LD10\u002C3-Pad3)*%
X234288700Y-112231600D02*
X251892700Y-112231600D01*
%TO.N,Net-(LD10\u002C2-Pad2)*%
X229399200Y-93700600D02*
X247003200Y-93700600D01*
%TO.N,Net-(LD10\u002C2-Pad3)*%
X229399200Y-92800600D02*
X247003200Y-92800600D01*
%TO.N,Net-(LD10\u002C0-Pad3)*%
X258657460Y-47652100D02*
X276261460Y-47652100D01*
%TO.N,Net-(LD10\u002C0-Pad2)*%
X258657460Y-48552100D02*
X276261460Y-48552100D01*
%TO.N,Net-(LD11\u002C2-Pad3)*%
X248703200Y-92800600D02*
X266307200Y-92800600D01*
%TO.N,Net-(LD11\u002C2-Pad2)*%
X248703200Y-93700600D02*
X266307200Y-93700600D01*
%TO.N,Net-(LD11\u002C0-Pad2)*%
X277961460Y-48552100D02*
X295565460Y-48552100D01*
%TO.N,Net-(LD11\u002C0-Pad3)*%
X277961460Y-47652100D02*
X295565460Y-47652100D01*
%TO.N,Net-(LD11\u002C4-Pad2)*%
X308467966Y-112185480D02*
X377056680Y-112185480D01*
X287709847Y-132943600D02*
X308467966Y-112185480D01*
X280072200Y-132943600D02*
X287709847Y-132943600D01*
X378002800Y-113131600D02*
X380378600Y-113131600D01*
X377056680Y-112185480D02*
X378002800Y-113131600D01*
%TO.N,Net-(LD11\u002C4-Pad3)*%
X308174699Y-111477470D02*
X378075870Y-111477470D01*
X287608570Y-132043600D02*
X308174699Y-111477470D01*
X280072200Y-132043600D02*
X287608570Y-132043600D01*
X378830000Y-112231600D02*
X380378600Y-112231600D01*
X378075870Y-111477470D02*
X378830000Y-112231600D01*
%TO.N,Net-(LD12\u002C0-Pad2)*%
X297265460Y-48552100D02*
X318135900Y-48552100D01*
%TO.N,Net-(LD12\u002C0-Pad3)*%
X297265460Y-47652100D02*
X318135900Y-47652100D01*
%TO.N,Net-(LD12\u002C2-Pad2)*%
X290208600Y-93700600D02*
X290234000Y-93726000D01*
X268007200Y-93700600D02*
X290208600Y-93700600D01*
%TO.N,Net-(LD12\u002C2-Pad3)*%
X290208600Y-92800600D02*
X290234000Y-92826000D01*
X268007200Y-92800600D02*
X290208600Y-92800600D01*
%TO.N,Net-(LD14\u002C6-Pad3)*%
X319531100Y-151347600D02*
X337135100Y-151347600D01*
%TO.N,Net-(LD14\u002C6-Pad2)*%
X319531100Y-152247600D02*
X337135100Y-152247600D01*
%TO.N,Net-(LD14\u002C0-Pad3)*%
X319835900Y-47652100D02*
X337693900Y-47652100D01*
%TO.N,Net-(LD14\u002C0-Pad2)*%
X319835900Y-48552100D02*
X337693900Y-48552100D01*
%TO.N,Net-(LD14\u002C3-Pad3)*%
X319594600Y-92800600D02*
X337198600Y-92800600D01*
%TO.N,Net-(LD14\u002C3-Pad2)*%
X319594600Y-93700600D02*
X337198600Y-93700600D01*
%TO.N,Net-(LD15\u002C6-Pad3)*%
X338835100Y-151347600D02*
X356439100Y-151347600D01*
%TO.N,Net-(LD15\u002C6-Pad2)*%
X338835100Y-152247600D02*
X356439100Y-152247600D01*
%TO.N,Net-(LD15\u002C0-Pad2)*%
X339393900Y-48552100D02*
X356997900Y-48552100D01*
%TO.N,Net-(LD15\u002C0-Pad3)*%
X339393900Y-47652100D02*
X356997900Y-47652100D01*
%TO.N,Net-(LD16\u002C0-Pad3)*%
X380289700Y-47652100D02*
X380302400Y-47664800D01*
X358697900Y-47652100D02*
X380289700Y-47652100D01*
%TO.N,Net-(LD16\u002C0-Pad2)*%
X380289700Y-48552100D02*
X380302400Y-48564800D01*
X358697900Y-48552100D02*
X380289700Y-48552100D01*
%TO.N,Net-(LD16\u002C6-Pad2)*%
X358139100Y-152247600D02*
X387654800Y-152247600D01*
X388162800Y-151739600D02*
X390157600Y-151739600D01*
X387654800Y-152247600D02*
X388162800Y-151739600D01*
%TO.N,Net-(LD16\u002C6-Pad3)*%
X358139100Y-151347600D02*
X387335600Y-151347600D01*
X387843600Y-150839600D02*
X390157600Y-150839600D01*
X387335600Y-151347600D02*
X387843600Y-150839600D01*
%TO.N,Net-(LD16\u002C4-Pad3)*%
X382078600Y-112231600D02*
X399682600Y-112231600D01*
%TO.N,Net-(LD16\u002C4-Pad2)*%
X382078600Y-113131600D02*
X399682600Y-113131600D01*
%TO.N,Net-(LD17\u002C0-Pad2)*%
X382002400Y-48564800D02*
X399606400Y-48564800D01*
%TO.N,Net-(LD17\u002C0-Pad3)*%
X382002400Y-47664800D02*
X399606400Y-47664800D01*
%TO.N,Net-(LD17\u002C6-Pad3)*%
X391857600Y-150839600D02*
X418986600Y-150839600D01*
%TO.N,Net-(LD17\u002C6-Pad2)*%
X391857600Y-151739600D02*
X418986600Y-151739600D01*
%TO.N,Net-(LD17\u002C4-Pad2)*%
X418923100Y-113131600D02*
X418986600Y-113068100D01*
X401382600Y-113131600D02*
X418923100Y-113131600D01*
%TO.N,Net-(LD17\u002C4-Pad3)*%
X418923100Y-112231600D02*
X418986600Y-112168100D01*
X401382600Y-112231600D02*
X418923100Y-112231600D01*
%TO.N,Net-(LD18\u002C6-Pad2)*%
X430310822Y-144119600D02*
X438544600Y-144119600D01*
X422690822Y-151739600D02*
X430310822Y-144119600D01*
X420686600Y-151739600D02*
X422690822Y-151739600D01*
%TO.N,Net-(LD18\u002C6-Pad3)*%
X420686600Y-150839600D02*
X422589546Y-150839600D01*
X430209546Y-143219600D02*
X438544600Y-143219600D01*
X422589546Y-150839600D02*
X430209546Y-143219600D01*
%TO.N,Net-(LD18\u002C0-Pad3)*%
X401306400Y-47664800D02*
X418910400Y-47664800D01*
%TO.N,Net-(LD18\u002C0-Pad2)*%
X401306400Y-48564800D02*
X418910400Y-48564800D01*
%TO.N,Net-(LD18\u002C4-Pad3)*%
X420686600Y-112168100D02*
X422068856Y-112168100D01*
X431530356Y-102706600D02*
X438290600Y-102706600D01*
X422068856Y-112168100D02*
X431530356Y-102706600D01*
%TO.N,Net-(LD18\u002C4-Pad2)*%
X431631632Y-103606600D02*
X438290600Y-103606600D01*
X422170132Y-113068100D02*
X431631632Y-103606600D01*
X420686600Y-113068100D02*
X422170132Y-113068100D01*
%TO.N,Net-(LD19\u002C0-Pad2)*%
X420610400Y-48564800D02*
X438227100Y-48564800D01*
%TO.N,Net-(LD19\u002C0-Pad3)*%
X420610400Y-47664800D02*
X438227100Y-47664800D01*
%TO.N,MAIN_VBUS*%
X401268300Y-50112002D02*
X401031501Y-50348801D01*
X401268300Y-49464800D02*
X401268300Y-50112002D01*
X398985099Y-50348801D02*
X398142949Y-49506651D01*
X401031501Y-50348801D02*
X398985099Y-50348801D01*
X420572300Y-50112002D02*
X420335501Y-50348801D01*
X420572300Y-49464800D02*
X420572300Y-50112002D01*
X418289099Y-50348801D02*
X417446949Y-49506651D01*
X420335501Y-50348801D02*
X418289099Y-50348801D01*
X401255600Y-49464800D02*
X417405098Y-49464800D01*
X439690301Y-50348801D02*
X437643899Y-50348801D01*
X439927100Y-50112002D02*
X439690301Y-50348801D01*
X439927100Y-49464800D02*
X439927100Y-50112002D01*
X420610400Y-49464800D02*
X436759898Y-49464800D01*
X436759898Y-49464800D02*
X437643899Y-50348801D01*
X339393900Y-49452100D02*
X355445900Y-49452100D01*
X358461101Y-50336101D02*
X358697900Y-50099302D01*
X358697900Y-50099302D02*
X358697900Y-49452100D01*
X356329901Y-50336101D02*
X358461101Y-50336101D01*
X355445900Y-49452100D02*
X356329901Y-50336101D01*
X339157101Y-50336101D02*
X339393900Y-50099302D01*
X339393900Y-50099302D02*
X339393900Y-49452100D01*
X337279901Y-50336101D02*
X339157101Y-50336101D01*
X336395900Y-49452100D02*
X337279901Y-50336101D01*
X54012200Y-154032600D02*
X54012200Y-153274600D01*
X53886199Y-154158601D02*
X54012200Y-154032600D01*
X51847401Y-154158601D02*
X53886199Y-154158601D01*
X50912600Y-153223800D02*
X51847401Y-154158601D01*
X69950700Y-134601600D02*
X69950700Y-133843600D01*
X69824699Y-134727601D02*
X69950700Y-134601600D01*
X67620801Y-134727601D02*
X69824699Y-134727601D01*
X66736800Y-133843600D02*
X67620801Y-134727601D01*
X60552700Y-114789600D02*
X60552700Y-114031600D01*
X60426699Y-114915601D02*
X60552700Y-114789600D01*
X58426001Y-114915601D02*
X60426699Y-114915601D01*
X57618200Y-114107800D02*
X58426001Y-114915601D01*
X55663200Y-95247802D02*
X55663200Y-94600600D01*
X55426401Y-95484601D02*
X55663200Y-95247802D01*
X53219001Y-95484601D02*
X55426401Y-95484601D01*
X52309600Y-94575200D02*
X53219001Y-95484601D01*
X382332600Y-133982802D02*
X382332600Y-133335600D01*
X382095801Y-134219601D02*
X382332600Y-133982802D01*
X380040801Y-134219601D02*
X382095801Y-134219601D01*
X379614000Y-133792800D02*
X380040801Y-134219601D01*
X382332600Y-133335600D02*
X398308400Y-133335600D01*
X401382600Y-133982802D02*
X401382600Y-133335600D01*
X401145801Y-134219601D02*
X401382600Y-133982802D01*
X399192401Y-134219601D02*
X401145801Y-134219601D01*
X398308400Y-133335600D02*
X399192401Y-134219601D01*
X420686600Y-133982802D02*
X420686600Y-133335600D01*
X420449801Y-134219601D02*
X420686600Y-133982802D01*
X418191601Y-134219601D02*
X420449801Y-134219601D01*
X417307600Y-133335600D02*
X418191601Y-134219601D01*
X422271398Y-113968100D02*
X430575498Y-105664000D01*
X420686600Y-113968100D02*
X422271398Y-113968100D01*
X439990600Y-105264600D02*
X439990600Y-104506600D01*
X439591200Y-105664000D02*
X439990600Y-105264600D01*
X430575498Y-105664000D02*
X439591200Y-105664000D01*
X401573100Y-68971502D02*
X401573100Y-68324300D01*
X401336301Y-69208301D02*
X401573100Y-68971502D01*
X399255901Y-69208301D02*
X401336301Y-69208301D01*
X398422700Y-68375100D02*
X399255901Y-69208301D01*
X401573100Y-68324300D02*
X417726700Y-68324300D01*
X420877100Y-68971502D02*
X420877100Y-68324300D01*
X420640301Y-69208301D02*
X420877100Y-68971502D01*
X418610701Y-69208301D02*
X420640301Y-69208301D01*
X417726700Y-68324300D02*
X418610701Y-69208301D01*
X420877100Y-68324300D02*
X437030700Y-68324300D01*
X439944301Y-69259101D02*
X440181100Y-69022302D01*
X437965501Y-69259101D02*
X439944301Y-69259101D01*
X440181100Y-69022302D02*
X440181100Y-68375100D01*
X437030700Y-68324300D02*
X437965501Y-69259101D01*
X55663200Y-94600600D02*
X71740600Y-94600600D01*
X74967200Y-95358600D02*
X74967200Y-94600600D01*
X74841199Y-95484601D02*
X74967200Y-95358600D01*
X72624601Y-95484601D02*
X74841199Y-95484601D01*
X71740600Y-94600600D02*
X72624601Y-95484601D01*
X94271200Y-95247802D02*
X94271200Y-94600600D01*
X94034401Y-95484601D02*
X94271200Y-95247802D01*
X91776201Y-95484601D02*
X94034401Y-95484601D01*
X90892200Y-94600600D02*
X91776201Y-95484601D01*
X94271200Y-94600600D02*
X109840600Y-94600600D01*
X113575200Y-95247802D02*
X113575200Y-94600600D01*
X113338401Y-95484601D02*
X113575200Y-95247802D01*
X110724601Y-95484601D02*
X113338401Y-95484601D01*
X109840600Y-94600600D02*
X110724601Y-95484601D01*
X132879200Y-95247802D02*
X132879200Y-94600600D01*
X132642401Y-95484601D02*
X132879200Y-95247802D01*
X130435001Y-95484601D02*
X132642401Y-95484601D01*
X129551000Y-94600600D02*
X130435001Y-95484601D01*
X401382600Y-114031600D02*
X417307600Y-114031600D01*
X420686600Y-114726100D02*
X420686600Y-113968100D01*
X420560599Y-114852101D02*
X420686600Y-114726100D01*
X418128101Y-114852101D02*
X420560599Y-114852101D01*
X417307600Y-114031600D02*
X418128101Y-114852101D01*
X401382600Y-114678802D02*
X401382600Y-114031600D01*
X401145801Y-114915601D02*
X401382600Y-114678802D01*
X398532001Y-114915601D02*
X401145801Y-114915601D01*
X397648000Y-114031600D02*
X398532001Y-114915601D01*
X132879200Y-94600600D02*
X149007400Y-94600600D01*
X152183200Y-95358600D02*
X152183200Y-94600600D01*
X152057199Y-95484601D02*
X152183200Y-95358600D01*
X149891401Y-95484601D02*
X152057199Y-95484601D01*
X149007400Y-94600600D02*
X149891401Y-95484601D01*
X171487200Y-95247802D02*
X171487200Y-94600600D01*
X171250401Y-95484601D02*
X171487200Y-95247802D01*
X169195401Y-95484601D02*
X171250401Y-95484601D01*
X168311400Y-94600600D02*
X169195401Y-95484601D01*
X171487200Y-94600600D02*
X187564600Y-94600600D01*
X190791200Y-95247802D02*
X190791200Y-94600600D01*
X190554401Y-95484601D02*
X190791200Y-95247802D01*
X188448601Y-95484601D02*
X190554401Y-95484601D01*
X187564600Y-94600600D02*
X188448601Y-95484601D01*
X210095200Y-95247802D02*
X210095200Y-94600600D01*
X209858401Y-95484601D02*
X210095200Y-95247802D01*
X207600201Y-95484601D02*
X209858401Y-95484601D01*
X206716200Y-94600600D02*
X207600201Y-95484601D01*
X210095200Y-94600600D02*
X226223400Y-94600600D01*
X229399200Y-95247802D02*
X229399200Y-94600600D01*
X229162401Y-95484601D02*
X229399200Y-95247802D01*
X227107401Y-95484601D02*
X229162401Y-95484601D01*
X226223400Y-94600600D02*
X227107401Y-95484601D01*
X229399200Y-94600600D02*
X245375000Y-94600600D01*
X248703200Y-95247802D02*
X248703200Y-94600600D01*
X248466401Y-95484601D02*
X248703200Y-95247802D01*
X246259001Y-95484601D02*
X248466401Y-95484601D01*
X245375000Y-94600600D02*
X246259001Y-95484601D01*
X248703200Y-94600600D02*
X264679000Y-94600600D01*
X267770401Y-95484601D02*
X268007200Y-95247802D01*
X268007200Y-95247802D02*
X268007200Y-94600600D01*
X265563001Y-95484601D02*
X267770401Y-95484601D01*
X264679000Y-94600600D02*
X265563001Y-95484601D01*
X291934000Y-95384000D02*
X291934000Y-94626000D01*
X291807999Y-95510001D02*
X291934000Y-95384000D01*
X289413601Y-95510001D02*
X291807999Y-95510001D01*
X288504200Y-94600600D02*
X289413601Y-95510001D01*
X319042800Y-95910400D02*
X319594600Y-95358600D01*
X319594600Y-95358600D02*
X319594600Y-94600600D01*
X310738298Y-95910400D02*
X319042800Y-95910400D01*
X338898600Y-94600600D02*
X354849000Y-94600600D01*
X358202600Y-95247802D02*
X358202600Y-94600600D01*
X357965801Y-95484601D02*
X358202600Y-95247802D01*
X355733001Y-95484601D02*
X357965801Y-95484601D01*
X354849000Y-94600600D02*
X355733001Y-95484601D01*
X338898600Y-95247802D02*
X338898600Y-94600600D01*
X338661801Y-95484601D02*
X338898600Y-95247802D01*
X336479801Y-95484601D02*
X338661801Y-95484601D01*
X335595800Y-94600600D02*
X336479801Y-95484601D01*
X358202600Y-94600600D02*
X378928200Y-94600600D01*
X382078600Y-95273202D02*
X382078600Y-94626000D01*
X381841801Y-95510001D02*
X382078600Y-95273202D01*
X379837601Y-95510001D02*
X381841801Y-95510001D01*
X378928200Y-94600600D02*
X379837601Y-95510001D01*
X401382600Y-95273202D02*
X401382600Y-94626000D01*
X401145801Y-95510001D02*
X401382600Y-95273202D01*
X399243201Y-95510001D02*
X401145801Y-95510001D01*
X398359200Y-94626000D02*
X399243201Y-95510001D01*
X401382600Y-94626000D02*
X417409200Y-94626000D01*
X420449801Y-95510001D02*
X420686600Y-95273202D01*
X420686600Y-95273202D02*
X420686600Y-94626000D01*
X418293201Y-95510001D02*
X420449801Y-95510001D01*
X417409200Y-94626000D02*
X418293201Y-95510001D01*
X308761233Y-112893490D02*
X375478690Y-112893490D01*
X287811124Y-133843600D02*
X308761233Y-112893490D01*
X280072200Y-133843600D02*
X287811124Y-133843600D01*
X381841801Y-114915601D02*
X382078600Y-114678802D01*
X377500801Y-114915601D02*
X381841801Y-114915601D01*
X382078600Y-114678802D02*
X382078600Y-114031600D01*
X375478690Y-112893490D02*
X377500801Y-114915601D01*
X319531100Y-153147600D02*
X335621200Y-153147600D01*
X338835100Y-153905600D02*
X338835100Y-153147600D01*
X338709099Y-154031601D02*
X338835100Y-153905600D01*
X336505201Y-154031601D02*
X338709099Y-154031601D01*
X335621200Y-153147600D02*
X336505201Y-154031601D01*
X391857600Y-153286802D02*
X391857600Y-152639600D01*
X391620801Y-153523601D02*
X391857600Y-153286802D01*
X389184801Y-153523601D02*
X391620801Y-153523601D01*
X388808800Y-153147600D02*
X389184801Y-153523601D01*
X338835100Y-153147600D02*
X354874400Y-153147600D01*
X358139100Y-153794802D02*
X358139100Y-153147600D01*
X357902301Y-154031601D02*
X358139100Y-153794802D01*
X355758401Y-154031601D02*
X357902301Y-154031601D01*
X354874400Y-153147600D02*
X355758401Y-154031601D01*
X391857600Y-152639600D02*
X417256800Y-152639600D01*
X420686600Y-153286802D02*
X420686600Y-152639600D01*
X420449801Y-153523601D02*
X420686600Y-153286802D01*
X418140801Y-153523601D02*
X420449801Y-153523601D01*
X417256800Y-152639600D02*
X418140801Y-153523601D01*
X440244600Y-145666802D02*
X440244600Y-145019600D01*
X440007801Y-145903601D02*
X440244600Y-145666802D01*
X437961399Y-145903601D02*
X440007801Y-145903601D01*
X437068597Y-145010799D02*
X437961399Y-145903601D01*
X430420899Y-145010799D02*
X437068597Y-145010799D01*
X422792098Y-152639600D02*
X430420899Y-145010799D01*
X420686600Y-152639600D02*
X422792098Y-152639600D01*
X60552700Y-114031600D02*
X76744400Y-114031600D01*
X79856700Y-114789600D02*
X79856700Y-114031600D01*
X79730699Y-114915601D02*
X79856700Y-114789600D01*
X77628401Y-114915601D02*
X79730699Y-114915601D01*
X76744400Y-114031600D02*
X77628401Y-114915601D01*
X99160700Y-114789600D02*
X99160700Y-114031600D01*
X99034699Y-114915601D02*
X99160700Y-114789600D01*
X96881601Y-114915601D02*
X99034699Y-114915601D01*
X95997600Y-114031600D02*
X96881601Y-114915601D01*
X99160700Y-114031600D02*
X114946000Y-114031600D01*
X118464700Y-114678802D02*
X118464700Y-114031600D01*
X118227901Y-114915601D02*
X118464700Y-114678802D01*
X115830001Y-114915601D02*
X118227901Y-114915601D01*
X114946000Y-114031600D02*
X115830001Y-114915601D01*
X137768700Y-114678802D02*
X137768700Y-114031600D01*
X137531901Y-114915601D02*
X137768700Y-114678802D01*
X135489601Y-114915601D02*
X137531901Y-114915601D01*
X134605600Y-114031600D02*
X135489601Y-114915601D01*
X137768700Y-114031600D02*
X153655600Y-114031600D01*
X157072700Y-114678802D02*
X157072700Y-114031600D01*
X156835901Y-114915601D02*
X157072700Y-114678802D01*
X154539601Y-114915601D02*
X156835901Y-114915601D01*
X153655600Y-114031600D02*
X154539601Y-114915601D01*
X176376700Y-114678802D02*
X176376700Y-114031600D01*
X176139901Y-114915601D02*
X176376700Y-114678802D01*
X173996001Y-114915601D02*
X176139901Y-114915601D01*
X173112000Y-114031600D02*
X173996001Y-114915601D01*
X176376700Y-114031600D02*
X192212800Y-114031600D01*
X195680700Y-114789600D02*
X195680700Y-114031600D01*
X195554699Y-114915601D02*
X195680700Y-114789600D01*
X193096801Y-114915601D02*
X195554699Y-114915601D01*
X192212800Y-114031600D02*
X193096801Y-114915601D01*
X214984700Y-114789600D02*
X214984700Y-114031600D01*
X214858699Y-114915601D02*
X214984700Y-114789600D01*
X212502401Y-114915601D02*
X214858699Y-114915601D01*
X211618400Y-114031600D02*
X212502401Y-114915601D01*
X214984700Y-114031600D02*
X230973200Y-114031600D01*
X234288700Y-114789600D02*
X234288700Y-114031600D01*
X234162699Y-114915601D02*
X234288700Y-114789600D01*
X231857201Y-114915601D02*
X234162699Y-114915601D01*
X230973200Y-114031600D02*
X231857201Y-114915601D01*
X234288700Y-114031600D02*
X250277200Y-114031600D01*
X253592700Y-114789600D02*
X253592700Y-114031600D01*
X253466699Y-114915601D02*
X253592700Y-114789600D01*
X251161201Y-114915601D02*
X253466699Y-114915601D01*
X250277200Y-114031600D02*
X251161201Y-114915601D01*
X89114700Y-134601600D02*
X89114700Y-133843600D01*
X88988699Y-134727601D02*
X89114700Y-134601600D01*
X86620001Y-134727601D02*
X88988699Y-134727601D01*
X85736000Y-133843600D02*
X86620001Y-134727601D01*
X89114700Y-133843600D02*
X105497200Y-133843600D01*
X108558700Y-134490802D02*
X108558700Y-133843600D01*
X108321901Y-134727601D02*
X108558700Y-134490802D01*
X106381201Y-134727601D02*
X108321901Y-134727601D01*
X105497200Y-133843600D02*
X106381201Y-134727601D01*
X127736699Y-134727601D02*
X127862700Y-134601600D01*
X127862700Y-134601600D02*
X127862700Y-133843600D01*
X125075601Y-134727601D02*
X127736699Y-134727601D01*
X124191600Y-133843600D02*
X125075601Y-134727601D01*
X127862700Y-133843600D02*
X143698800Y-133843600D01*
X147166700Y-134490802D02*
X147166700Y-133843600D01*
X146929901Y-134727601D02*
X147166700Y-134490802D01*
X144582801Y-134727601D02*
X146929901Y-134727601D01*
X143698800Y-133843600D02*
X144582801Y-134727601D01*
X147166700Y-133843600D02*
X163104400Y-133843600D01*
X166470700Y-134601600D02*
X166470700Y-133843600D01*
X166344699Y-134727601D02*
X166470700Y-134601600D01*
X163988401Y-134727601D02*
X166344699Y-134727601D01*
X163104400Y-133843600D02*
X163988401Y-134727601D01*
X185774700Y-134490802D02*
X185774700Y-133843600D01*
X185537901Y-134727601D02*
X185774700Y-134490802D01*
X183495601Y-134727601D02*
X185537901Y-134727601D01*
X182611600Y-133843600D02*
X183495601Y-134727601D01*
X185774700Y-133843600D02*
X201763200Y-133843600D01*
X205078700Y-134490802D02*
X205078700Y-133843600D01*
X204841901Y-134727601D02*
X205078700Y-134490802D01*
X202647201Y-134727601D02*
X204841901Y-134727601D01*
X201763200Y-133843600D02*
X202647201Y-134727601D01*
X224382700Y-134601600D02*
X224382700Y-133843600D01*
X224256699Y-134727601D02*
X224382700Y-134601600D01*
X222052801Y-134727601D02*
X224256699Y-134727601D01*
X221168800Y-133843600D02*
X222052801Y-134727601D01*
X224382700Y-133843600D02*
X240523600Y-133843600D01*
X243686700Y-134601600D02*
X243686700Y-133843600D01*
X243560699Y-134727601D02*
X243686700Y-134601600D01*
X241407601Y-134727601D02*
X243560699Y-134727601D01*
X240523600Y-133843600D02*
X241407601Y-134727601D01*
X280072200Y-134490802D02*
X280072200Y-133843600D01*
X279835401Y-134727601D02*
X280072200Y-134490802D01*
X277678801Y-134727601D02*
X279835401Y-134727601D01*
X276794800Y-133843600D02*
X277678801Y-134727601D01*
X54012200Y-153274600D02*
X75195000Y-153274600D01*
X78396200Y-153921802D02*
X78396200Y-153274600D01*
X78159401Y-154158601D02*
X78396200Y-153921802D01*
X76079001Y-154158601D02*
X78159401Y-154158601D01*
X75195000Y-153274600D02*
X76079001Y-154158601D01*
X270356700Y-154032600D02*
X270356700Y-153274600D01*
X267798201Y-154158601D02*
X270230699Y-154158601D01*
X270230699Y-154158601D02*
X270356700Y-154032600D01*
X266914200Y-153274600D02*
X267798201Y-154158601D01*
X270356700Y-153274600D02*
X291349000Y-153274600D01*
X294423200Y-154032600D02*
X294423200Y-153274600D01*
X294297199Y-154158601D02*
X294423200Y-154032600D01*
X292233001Y-154158601D02*
X294297199Y-154158601D01*
X291349000Y-153274600D02*
X292233001Y-154158601D01*
X310602322Y-153274600D02*
X328799722Y-135077200D01*
X294423200Y-153274600D02*
X310602322Y-153274600D01*
X338835100Y-134440002D02*
X338835100Y-133792800D01*
X338197902Y-135077200D02*
X338835100Y-134440002D01*
X328799722Y-135077200D02*
X338197902Y-135077200D01*
X43408600Y-153238200D02*
X43394200Y-153223800D01*
X43408600Y-154965400D02*
X43408600Y-153238200D01*
X43394200Y-153223800D02*
X50912600Y-153223800D01*
X29437700Y-153223800D02*
X43394200Y-153223800D01*
X256844800Y-155600400D02*
X256844800Y-153285600D01*
X256844800Y-153285600D02*
X256833800Y-153274600D01*
X256833800Y-153274600D02*
X266914200Y-153274600D01*
X246163200Y-153274600D02*
X256833800Y-153274600D01*
X347694250Y-133877050D02*
X347610000Y-133792800D01*
X347694250Y-135858250D02*
X347694250Y-133877050D01*
X347610000Y-133792800D02*
X379614000Y-133792800D01*
X338835100Y-133792800D02*
X347610000Y-133792800D01*
X369919250Y-153168350D02*
X369940000Y-153147600D01*
X369940000Y-153147600D02*
X388808800Y-153147600D01*
X369919250Y-154844750D02*
X369919250Y-153168350D01*
X358139100Y-153147600D02*
X369940000Y-153147600D01*
X442888800Y-145019600D02*
X444652400Y-143256000D01*
X440244600Y-145019600D02*
X442888800Y-145019600D01*
X390842500Y-68414900D02*
X390802700Y-68375100D01*
X390842500Y-70294500D02*
X390842500Y-68414900D01*
X390802700Y-68375100D02*
X398422700Y-68375100D01*
X381951600Y-68375100D02*
X390802700Y-68375100D01*
X390842500Y-75374500D02*
X390828100Y-75360100D01*
X390842500Y-77216000D02*
X390842500Y-75374500D01*
X390842500Y-49539300D02*
X390768000Y-49464800D01*
X390842500Y-51435000D02*
X390842500Y-49539300D01*
X390768000Y-49464800D02*
X398101098Y-49464800D01*
X381951600Y-49464800D02*
X390768000Y-49464800D01*
X410019500Y-133410100D02*
X410094000Y-133335600D01*
X410019500Y-135318500D02*
X410019500Y-133410100D01*
X410094000Y-133335600D02*
X417307600Y-133335600D01*
X401382600Y-133335600D02*
X410094000Y-133335600D01*
X390842500Y-114033300D02*
X390840800Y-114031600D01*
X390840800Y-114031600D02*
X397648000Y-114031600D01*
X390842500Y-115951000D02*
X390842500Y-114033300D01*
X382078600Y-114031600D02*
X390840800Y-114031600D01*
X390842500Y-94627700D02*
X390840800Y-94626000D01*
X390842500Y-96456500D02*
X390842500Y-94627700D01*
X390840800Y-94626000D02*
X398359200Y-94626000D01*
X382078600Y-94626000D02*
X390840800Y-94626000D01*
X319835900Y-49452100D02*
X329363500Y-49452100D01*
X328476099Y-75390499D02*
X328445700Y-75360100D01*
X328476099Y-77161901D02*
X328476099Y-75390499D01*
X328476099Y-94637101D02*
X328512600Y-94600600D01*
X328476099Y-96402401D02*
X328476099Y-94637101D01*
X328512600Y-94600600D02*
X335595800Y-94600600D01*
X319594600Y-94600600D02*
X328512600Y-94600600D01*
X271907000Y-77444600D02*
X271907000Y-75409200D01*
X271907000Y-75409200D02*
X271956100Y-75360100D01*
X275920200Y-94665800D02*
X275855000Y-94600600D01*
X275920200Y-96545400D02*
X275920200Y-94665800D01*
X275855000Y-94600600D02*
X288504200Y-94600600D01*
X268007200Y-94600600D02*
X275855000Y-94600600D01*
X270408400Y-114401600D02*
X270778400Y-114031600D01*
X270408400Y-115925600D02*
X270408400Y-114401600D01*
X270778400Y-114031600D02*
X281366800Y-114031600D01*
X253592700Y-114031600D02*
X270778400Y-114031600D01*
X265176000Y-133858000D02*
X265161600Y-133843600D01*
X265176000Y-135991600D02*
X265176000Y-133858000D01*
X265161600Y-133843600D02*
X276794800Y-133843600D01*
X243686700Y-133843600D02*
X265161600Y-133843600D01*
X207708500Y-77025500D02*
X207708500Y-75450700D01*
X207708500Y-75450700D02*
X207799100Y-75360100D01*
X198170800Y-94691200D02*
X198261400Y-94600600D01*
X198170800Y-96418400D02*
X198170800Y-94691200D01*
X198261400Y-94600600D02*
X206716200Y-94600600D01*
X190791200Y-94600600D02*
X198261400Y-94600600D01*
X203504800Y-114198400D02*
X203338000Y-114031600D01*
X203504800Y-116230400D02*
X203504800Y-114198400D01*
X203338000Y-114031600D02*
X211618400Y-114031600D01*
X195680700Y-114031600D02*
X203338000Y-114031600D01*
X213512400Y-133908800D02*
X213447200Y-133843600D01*
X213512400Y-135636000D02*
X213512400Y-133908800D01*
X213447200Y-133843600D02*
X221168800Y-133843600D01*
X205078700Y-133843600D02*
X213447200Y-133843600D01*
X174701200Y-133981600D02*
X174839200Y-133843600D01*
X174701200Y-135890000D02*
X174701200Y-133981600D01*
X174839200Y-133843600D02*
X182611600Y-133843600D01*
X166470700Y-133843600D02*
X174839200Y-133843600D01*
X164846000Y-114096800D02*
X164911200Y-114031600D01*
X164846000Y-115824000D02*
X164846000Y-114096800D01*
X164911200Y-114031600D02*
X173112000Y-114031600D01*
X157072700Y-114031600D02*
X164911200Y-114031600D01*
X158062649Y-94819751D02*
X158281800Y-94600600D01*
X158062649Y-96496151D02*
X158062649Y-94819751D01*
X158281800Y-94600600D02*
X168311400Y-94600600D01*
X152183200Y-94600600D02*
X158281800Y-94600600D01*
X150977600Y-77571600D02*
X150977600Y-75387200D01*
X150977600Y-75387200D02*
X151004700Y-75360100D01*
X112423699Y-75380501D02*
X112444100Y-75360100D01*
X112423699Y-77314301D02*
X112423699Y-75380501D01*
X118821200Y-94640400D02*
X118861000Y-94600600D01*
X118821200Y-96367600D02*
X118821200Y-94640400D01*
X118861000Y-94600600D02*
X129551000Y-94600600D01*
X113575200Y-94600600D02*
X118861000Y-94600600D01*
X122456699Y-114090101D02*
X122515200Y-114031600D01*
X122456699Y-115541301D02*
X122456699Y-114090101D01*
X122515200Y-114031600D02*
X134605600Y-114031600D01*
X118464700Y-114031600D02*
X122515200Y-114031600D01*
X117097699Y-133854301D02*
X117108400Y-133843600D01*
X117097699Y-135893699D02*
X117097699Y-133854301D01*
X117108400Y-133843600D02*
X124191600Y-133843600D01*
X108558700Y-133843600D02*
X117108400Y-133843600D01*
X78740000Y-133858000D02*
X78754400Y-133843600D01*
X78740000Y-135643398D02*
X78740000Y-133858000D01*
X78754400Y-133843600D02*
X85736000Y-133843600D01*
X69950700Y-133843600D02*
X78754400Y-133843600D01*
X85121750Y-114036250D02*
X85126400Y-114031600D01*
X85121750Y-115982750D02*
X85121750Y-114036250D01*
X85126400Y-114031600D02*
X95997600Y-114031600D01*
X79856700Y-114031600D02*
X85126400Y-114031600D01*
X80878399Y-94606801D02*
X80884600Y-94600600D01*
X80878399Y-96477101D02*
X80878399Y-94606801D01*
X80884600Y-94600600D02*
X90892200Y-94600600D01*
X74967200Y-94600600D02*
X80884600Y-94600600D01*
X73406000Y-75383800D02*
X73429700Y-75360100D01*
X73406000Y-77216000D02*
X73406000Y-75383800D01*
X34931831Y-94643831D02*
X34863200Y-94575200D01*
X34931831Y-96792569D02*
X34931831Y-94643831D01*
X34863200Y-94575200D02*
X52309600Y-94575200D01*
X31736400Y-94575200D02*
X34863200Y-94575200D01*
X46736000Y-114118800D02*
X46747000Y-114107800D01*
X46736000Y-115824000D02*
X46736000Y-114118800D01*
X46747000Y-114107800D02*
X57618200Y-114107800D01*
X34073200Y-114107800D02*
X46747000Y-114107800D01*
X46736000Y-133880000D02*
X46772400Y-133843600D01*
X46736000Y-136245600D02*
X46736000Y-133880000D01*
X46772400Y-133843600D02*
X66736800Y-133843600D01*
X38835700Y-133843600D02*
X46772400Y-133843600D01*
X179805700Y-153896402D02*
X179805700Y-153249200D01*
X179568901Y-154133201D02*
X179805700Y-153896402D01*
X176421701Y-154133201D02*
X179568901Y-154133201D01*
X175563100Y-153274600D02*
X176421701Y-154133201D01*
X115708800Y-153909102D02*
X115708800Y-153261900D01*
X112921701Y-154145901D02*
X115472001Y-154145901D01*
X115472001Y-154145901D02*
X115708800Y-153909102D01*
X112050400Y-153274600D02*
X112921701Y-154145901D01*
X150152199Y-154158601D02*
X150278200Y-154032600D01*
X147961001Y-154158601D02*
X150152199Y-154158601D01*
X150278200Y-154032600D02*
X150278200Y-153274600D01*
X147064300Y-153261900D02*
X147961001Y-154158601D01*
X115708800Y-153261900D02*
X147064300Y-153261900D01*
X114858800Y-155143200D02*
X109093000Y-155143200D01*
X108215000Y-154265200D02*
X108215000Y-153274600D01*
X109093000Y-155143200D02*
X108215000Y-154265200D01*
X108215000Y-153274600D02*
X112050400Y-153274600D01*
X78396200Y-153274600D02*
X108215000Y-153274600D01*
X174701200Y-155244800D02*
X171424600Y-155244800D01*
X170368800Y-154189000D02*
X170368800Y-153274600D01*
X171424600Y-155244800D02*
X170368800Y-154189000D01*
X170368800Y-153274600D02*
X175563100Y-153274600D01*
X150278200Y-153274600D02*
X170368800Y-153274600D01*
X219614401Y-154234801D02*
X221796401Y-154234801D01*
X218628800Y-153249200D02*
X219614401Y-154234801D01*
X222033200Y-153998002D02*
X222033200Y-153350800D01*
X221796401Y-154234801D02*
X222033200Y-153998002D01*
X179805700Y-153249200D02*
X218628800Y-153249200D01*
X27024700Y-75372800D02*
X42314700Y-75372800D01*
X46239800Y-76020002D02*
X46239800Y-75372800D01*
X46003001Y-76256801D02*
X46239800Y-76020002D01*
X43198701Y-76256801D02*
X46003001Y-76256801D01*
X42314700Y-75372800D02*
X43198701Y-76256801D01*
X46239800Y-75372800D02*
X61910800Y-75372800D01*
X65442200Y-76007302D02*
X65442200Y-75360100D01*
X65205401Y-76244101D02*
X65442200Y-76007302D01*
X62782101Y-76244101D02*
X65205401Y-76244101D01*
X61910800Y-75372800D02*
X62782101Y-76244101D01*
X65442200Y-75360100D02*
X73874200Y-75360100D01*
X73429700Y-75360100D02*
X73874200Y-75360100D01*
X84238200Y-76007302D02*
X84238200Y-75360100D01*
X84001401Y-76244101D02*
X84238200Y-76007302D01*
X81832101Y-76244101D02*
X84001401Y-76244101D01*
X80948100Y-75360100D02*
X81832101Y-76244101D01*
X73874200Y-75360100D02*
X80948100Y-75360100D01*
X84238200Y-75360100D02*
X99998100Y-75360100D01*
X103542200Y-76118100D02*
X103542200Y-75360100D01*
X103416199Y-76244101D02*
X103542200Y-76118100D01*
X100882101Y-76244101D02*
X103416199Y-76244101D01*
X99998100Y-75360100D02*
X100882101Y-76244101D01*
X103542200Y-75360100D02*
X119733900Y-75360100D01*
X122720199Y-76244101D02*
X122846200Y-76118100D01*
X122846200Y-76118100D02*
X122846200Y-75360100D01*
X120617901Y-76244101D02*
X122720199Y-76244101D01*
X119733900Y-75360100D02*
X120617901Y-76244101D01*
X122846200Y-75360100D02*
X138695000Y-75360100D01*
X142150200Y-76007302D02*
X142150200Y-75360100D01*
X141913401Y-76244101D02*
X142150200Y-76007302D01*
X139579001Y-76244101D02*
X141913401Y-76244101D01*
X138695000Y-75360100D02*
X139579001Y-76244101D01*
X142150200Y-75360100D02*
X158443500Y-75360100D01*
X161454200Y-76118100D02*
X161454200Y-75360100D01*
X161328199Y-76244101D02*
X161454200Y-76118100D01*
X159327501Y-76244101D02*
X161328199Y-76244101D01*
X158443500Y-75360100D02*
X159327501Y-76244101D01*
X161454200Y-75360100D02*
X177633200Y-75360100D01*
X180521401Y-76244101D02*
X180758200Y-76007302D01*
X178517201Y-76244101D02*
X180521401Y-76244101D01*
X180758200Y-76007302D02*
X180758200Y-75360100D01*
X177633200Y-75360100D02*
X178517201Y-76244101D01*
X180758200Y-75360100D02*
X196683200Y-75360100D01*
X200062200Y-76007302D02*
X200062200Y-75360100D01*
X197567201Y-76244101D02*
X199825401Y-76244101D01*
X199825401Y-76244101D02*
X200062200Y-76007302D01*
X196683200Y-75360100D02*
X197567201Y-76244101D01*
X200062200Y-75360100D02*
X215987200Y-75360100D01*
X219366200Y-76118100D02*
X219366200Y-75360100D01*
X219240199Y-76244101D02*
X219366200Y-76118100D01*
X216871201Y-76244101D02*
X219240199Y-76244101D01*
X215987200Y-75360100D02*
X216871201Y-76244101D01*
X219366200Y-75360100D02*
X235291200Y-75360100D01*
X238670200Y-76007302D02*
X238670200Y-75360100D01*
X238433401Y-76244101D02*
X238670200Y-76007302D01*
X236175201Y-76244101D02*
X238433401Y-76244101D01*
X235291200Y-75360100D02*
X236175201Y-76244101D01*
X238670200Y-75360100D02*
X254811100Y-75360100D01*
X257974200Y-76007302D02*
X257974200Y-75360100D01*
X257737401Y-76244101D02*
X257974200Y-76007302D01*
X255695101Y-76244101D02*
X257737401Y-76244101D01*
X254811100Y-75360100D02*
X255695101Y-76244101D01*
X286502901Y-76244101D02*
X286739700Y-76007302D01*
X286739700Y-76007302D02*
X286739700Y-75360100D01*
X284511401Y-76244101D02*
X286502901Y-76244101D01*
X283627400Y-75360100D02*
X284511401Y-76244101D01*
X257974200Y-75360100D02*
X283627400Y-75360100D01*
X286739700Y-75360100D02*
X315974300Y-75360100D01*
X319594600Y-76007302D02*
X319594600Y-75360100D01*
X319357801Y-76244101D02*
X319594600Y-76007302D01*
X316858301Y-76244101D02*
X319357801Y-76244101D01*
X315974300Y-75360100D02*
X316858301Y-76244101D01*
X338898600Y-76007302D02*
X338898600Y-75360100D01*
X338661801Y-76244101D02*
X338898600Y-76007302D01*
X336441701Y-76244101D02*
X338661801Y-76244101D01*
X335557700Y-75360100D02*
X336441701Y-76244101D01*
X319594600Y-75360100D02*
X335557700Y-75360100D01*
X338898600Y-75360100D02*
X355128400Y-75360100D01*
X358280800Y-76032702D02*
X358280800Y-75385500D01*
X358044001Y-76269501D02*
X358280800Y-76032702D01*
X356037801Y-76269501D02*
X358044001Y-76269501D01*
X355128400Y-75360100D02*
X356037801Y-76269501D01*
X358280800Y-75385500D02*
X378750400Y-75385500D01*
X382078600Y-76007302D02*
X382078600Y-75360100D01*
X381841801Y-76244101D02*
X382078600Y-76007302D01*
X379609001Y-76244101D02*
X381841801Y-76244101D01*
X378750400Y-75385500D02*
X379609001Y-76244101D01*
X382078600Y-75360100D02*
X398206800Y-75360100D01*
X401145801Y-76244101D02*
X401382600Y-76007302D01*
X399090801Y-76244101D02*
X401145801Y-76244101D01*
X401382600Y-76007302D02*
X401382600Y-75360100D01*
X398206800Y-75360100D02*
X399090801Y-76244101D01*
X401382600Y-75360100D02*
X417485400Y-75360100D01*
X420686600Y-76020002D02*
X420686600Y-75372800D01*
X420449801Y-76256801D02*
X420686600Y-76020002D01*
X418382101Y-76256801D02*
X420449801Y-76256801D01*
X417485400Y-75360100D02*
X418382101Y-76256801D01*
X420686600Y-75372800D02*
X433998800Y-75372800D01*
X439990600Y-76007302D02*
X439990600Y-75360100D01*
X439753801Y-76244101D02*
X439990600Y-76007302D01*
X437559101Y-76244101D02*
X439753801Y-76244101D01*
X436687800Y-75372800D02*
X437559101Y-76244101D01*
X47231300Y-51396900D02*
X47231300Y-49463100D01*
X47231300Y-49463100D02*
X47280400Y-49414000D01*
X65617460Y-50099302D02*
X65617460Y-49452100D01*
X65380661Y-50336101D02*
X65617460Y-50099302D01*
X63290101Y-50336101D02*
X65380661Y-50336101D01*
X62368000Y-49414000D02*
X63290101Y-50336101D01*
X27088200Y-49414000D02*
X62368000Y-49414000D01*
X65617460Y-49452100D02*
X81481500Y-49452100D01*
X84921460Y-50099302D02*
X84921460Y-49452100D01*
X84684661Y-50336101D02*
X84921460Y-50099302D01*
X82365501Y-50336101D02*
X84684661Y-50336101D01*
X81481500Y-49452100D02*
X82365501Y-50336101D01*
X84921460Y-49452100D02*
X101001400Y-49452100D01*
X104225460Y-50099302D02*
X104225460Y-49452100D01*
X103988661Y-50336101D02*
X104225460Y-50099302D01*
X101885401Y-50336101D02*
X103988661Y-50336101D01*
X101001400Y-49452100D02*
X101885401Y-50336101D01*
X104225460Y-49452100D02*
X120191100Y-49452100D01*
X123529460Y-50099302D02*
X123529460Y-49452100D01*
X123292661Y-50336101D02*
X123529460Y-50099302D01*
X121075101Y-50336101D02*
X123292661Y-50336101D01*
X120191100Y-49452100D02*
X121075101Y-50336101D01*
X154788661Y-50336101D02*
X155025460Y-50099302D01*
X152761601Y-50336101D02*
X154788661Y-50336101D01*
X151877600Y-49452100D02*
X152761601Y-50336101D01*
X155025460Y-50099302D02*
X155025460Y-49452100D01*
X155025460Y-49452100D02*
X170787900Y-49452100D01*
X174329460Y-50099302D02*
X174329460Y-49452100D01*
X174092661Y-50336101D02*
X174329460Y-50099302D01*
X171671901Y-50336101D02*
X174092661Y-50336101D01*
X170787900Y-49452100D02*
X171671901Y-50336101D01*
X174329460Y-49452100D02*
X190625300Y-49452100D01*
X193633460Y-50099302D02*
X193633460Y-49452100D01*
X193396661Y-50336101D02*
X193633460Y-50099302D01*
X191509301Y-50336101D02*
X193396661Y-50336101D01*
X190625300Y-49452100D02*
X191509301Y-50336101D01*
X193633460Y-49452100D02*
X209789600Y-49452100D01*
X212937460Y-50099302D02*
X212937460Y-49452100D01*
X212700661Y-50336101D02*
X212937460Y-50099302D01*
X210673601Y-50336101D02*
X212700661Y-50336101D01*
X209789600Y-49452100D02*
X210673601Y-50336101D01*
X239353460Y-50099302D02*
X239353460Y-49452100D01*
X239116661Y-50336101D02*
X239353460Y-50099302D01*
X236924501Y-50336101D02*
X239116661Y-50336101D01*
X236040500Y-49452100D02*
X236924501Y-50336101D01*
X258657460Y-50099302D02*
X258657460Y-49452100D01*
X258420661Y-50336101D02*
X258657460Y-50099302D01*
X256177701Y-50336101D02*
X258420661Y-50336101D01*
X255293700Y-49452100D02*
X256177701Y-50336101D01*
X258657460Y-49452100D02*
X274673900Y-49452100D01*
X277961460Y-50099302D02*
X277961460Y-49452100D01*
X277724661Y-50336101D02*
X277961460Y-50099302D01*
X275557901Y-50336101D02*
X277724661Y-50336101D01*
X274673900Y-49452100D02*
X275557901Y-50336101D01*
X277961460Y-49452100D02*
X293876300Y-49452100D01*
X297265460Y-50099302D02*
X297265460Y-49452100D01*
X297028661Y-50336101D02*
X297265460Y-50099302D01*
X294760301Y-50336101D02*
X297028661Y-50336101D01*
X293876300Y-49452100D02*
X294760301Y-50336101D01*
X297265460Y-49452100D02*
X316482300Y-49452100D01*
X319599101Y-50336101D02*
X319835900Y-50099302D01*
X319835900Y-50099302D02*
X319835900Y-49452100D01*
X317366301Y-50336101D02*
X319599101Y-50336101D01*
X316482300Y-49452100D02*
X317366301Y-50336101D01*
X358697900Y-49452100D02*
X378623400Y-49452100D01*
X382002400Y-50112002D02*
X382002400Y-49464800D01*
X381765601Y-50348801D02*
X382002400Y-50112002D01*
X379520101Y-50348801D02*
X381765601Y-50348801D01*
X378623400Y-49452100D02*
X379520101Y-50348801D01*
X140373100Y-49491900D02*
X140333300Y-49452100D01*
X140373100Y-51523900D02*
X140373100Y-49491900D01*
X140333300Y-49452100D02*
X151877600Y-49452100D01*
X123529460Y-49452100D02*
X140333300Y-49452100D01*
X226745800Y-51409600D02*
X226745800Y-49488500D01*
X226745800Y-49488500D02*
X226709400Y-49452100D01*
X226709400Y-49452100D02*
X236040500Y-49452100D01*
X212937460Y-49452100D02*
X226709400Y-49452100D01*
X239353460Y-49452100D02*
X250471100Y-49452100D01*
X284872800Y-114704202D02*
X284872800Y-114057000D01*
X284636001Y-114941001D02*
X284872800Y-114704202D01*
X282276201Y-114941001D02*
X284636001Y-114941001D01*
X281366800Y-114031600D02*
X282276201Y-114941001D01*
X292591698Y-114057000D02*
X310738298Y-95910400D01*
X284872800Y-114057000D02*
X292591698Y-114057000D01*
X222033200Y-153274600D02*
X242606400Y-153274600D01*
X246163200Y-153921802D02*
X246163200Y-153274600D01*
X245926401Y-154158601D02*
X246163200Y-153921802D01*
X243490401Y-154158601D02*
X245926401Y-154158601D01*
X242606400Y-153274600D02*
X243490401Y-154158601D01*
X329279199Y-49536401D02*
X329363500Y-49452100D01*
X329279199Y-50958801D02*
X329279199Y-49536401D01*
X329363500Y-49452100D02*
X336395900Y-49452100D01*
X250361399Y-49561801D02*
X250471100Y-49452100D01*
X250361399Y-50781001D02*
X250361399Y-49561801D01*
X250471100Y-49452100D02*
X255293700Y-49452100D01*
X433998800Y-75372800D02*
X436687800Y-75372800D01*
D20*
%TO.N,KEY_ROW5*%
X20967700Y-156551800D02*
X285762700Y-156551800D01*
X373164100Y-136612800D02*
X412026100Y-136612800D01*
X372656100Y-137120800D02*
X373164100Y-136612800D01*
D21*
X308326398Y-156551800D02*
X327757398Y-137120800D01*
X327757398Y-137120800D02*
X330174600Y-137120800D01*
X285762700Y-156551800D02*
X308326398Y-156551800D01*
X371641200Y-136612800D02*
X373164100Y-136612800D01*
X371133200Y-137120800D02*
X371641200Y-136612800D01*
X330174600Y-137120800D02*
X371133200Y-137120800D01*
X396049500Y-71183500D02*
X373634000Y-71183500D01*
X373634000Y-71183500D02*
X371221000Y-68770500D01*
X371221000Y-68770500D02*
X371221000Y-68770500D01*
X367212420Y-46363080D02*
X367379250Y-46196250D01*
X352433080Y-46363080D02*
X367212420Y-46363080D01*
X352036400Y-45966400D02*
X352433080Y-46363080D01*
X352036400Y-31445200D02*
X352036400Y-45966400D01*
D20*
%TO.N,KEY_ROW4*%
X411962600Y-117308800D02*
X412026100Y-117245300D01*
X373418100Y-117308800D02*
X411962600Y-117308800D01*
X431330100Y-108318300D02*
X431330100Y-107326600D01*
X422403100Y-117245300D02*
X431330100Y-108318300D01*
X412026100Y-117245300D02*
X422403100Y-117245300D01*
D21*
X271538700Y-137184300D02*
X271602200Y-137120800D01*
X30365700Y-137184300D02*
X271538700Y-137184300D01*
X368274600Y-113601500D02*
X371981900Y-117308800D01*
X371981900Y-117308800D02*
X373418100Y-117308800D01*
X309054500Y-113601500D02*
X368274600Y-113601500D01*
X285535200Y-137120800D02*
X309054500Y-113601500D01*
X271602200Y-137120800D02*
X285535200Y-137120800D01*
X350036400Y-31445200D02*
X350036400Y-45236400D01*
X350036400Y-45236400D02*
X350837500Y-46037500D01*
X350837500Y-46037500D02*
X350837500Y-46037500D01*
D20*
%TO.N,KEY_ROW3*%
X411899100Y-97877800D02*
X412026100Y-98004800D01*
X51765200Y-117435800D02*
X51892200Y-117308800D01*
X25603200Y-117435800D02*
X51765200Y-117435800D01*
X51892200Y-117308800D02*
X71196200Y-117308800D01*
X276364700Y-117308800D02*
X276428200Y-117372300D01*
X71196200Y-117308800D02*
X276364700Y-117308800D01*
X276428200Y-117372300D02*
X276579201Y-117523301D01*
D21*
X373418100Y-98004800D02*
X412026100Y-98004800D01*
X311188100Y-97877800D02*
X349796100Y-97877800D01*
X373291100Y-97877800D02*
X373418100Y-98004800D01*
X349796100Y-97877800D02*
X373291100Y-97877800D01*
X276428200Y-117372300D02*
X292964700Y-117372300D01*
X311188100Y-99148900D02*
X311188100Y-97877800D01*
X292964700Y-117372300D02*
X311188100Y-99148900D01*
X348036400Y-31445200D02*
X346202000Y-33279600D01*
X346202000Y-33279600D02*
X346202000Y-45656500D01*
X346202000Y-45656500D02*
X346646500Y-46101000D01*
X346646500Y-46101000D02*
X346646500Y-46101000D01*
%TO.N,KEY_ROW2*%
X283099700Y-97881800D02*
X283159200Y-97941300D01*
X23067200Y-97881800D02*
X283099700Y-97881800D01*
X23063200Y-97877800D02*
X23067200Y-97881800D01*
X331343000Y-46101000D02*
X331343000Y-46101000D01*
X306197000Y-46101000D02*
X306197000Y-46101000D01*
X343462876Y-33020000D02*
X344461600Y-33020000D01*
X342900000Y-33582876D02*
X343462876Y-33020000D01*
X344461600Y-33020000D02*
X346036400Y-31445200D01*
X342900000Y-45339000D02*
X342900000Y-33582876D01*
X342138000Y-46101000D02*
X342900000Y-45339000D01*
X306197000Y-46101000D02*
X342138000Y-46101000D01*
D20*
%TO.N,KEY_ROW1*%
X431266600Y-78700800D02*
X431330100Y-78637300D01*
D21*
X278206200Y-78700800D02*
X278269700Y-78637300D01*
X18554700Y-78700800D02*
X278206200Y-78700800D01*
X278269700Y-78637300D02*
X310934100Y-78637300D01*
X310934100Y-78637300D02*
X349542100Y-78637300D01*
X349542100Y-78637300D02*
X373418100Y-78637300D01*
X373418100Y-78637300D02*
X431330100Y-78637300D01*
X292544500Y-42799000D02*
X292544500Y-42799000D01*
X292544500Y-33337500D02*
X292544500Y-42799000D01*
X292925500Y-32956500D02*
X292544500Y-33337500D01*
X342525100Y-32956500D02*
X292925500Y-32956500D01*
X344036400Y-31445200D02*
X342525100Y-32956500D01*
%TO.N,KEY_ROW0*%
X18618200Y-52856300D02*
X431215800Y-52856300D01*
X431215800Y-52856300D02*
X431266600Y-52907100D01*
X342036400Y-31445200D02*
X303453800Y-31445200D01*
X290893500Y-42799000D02*
X290893500Y-42799000D01*
X290893500Y-42799000D02*
X290893500Y-32893000D01*
X292341300Y-31445200D02*
X303453800Y-31445200D01*
X290893500Y-32893000D02*
X292341300Y-31445200D01*
%TO.N,Net-(LD17\u002C7-Pad2)*%
X399822300Y-67475100D02*
X399873100Y-67424300D01*
X381951600Y-67475100D02*
X399822300Y-67475100D01*
%TO.N,Net-(LD17\u002C7-Pad3)*%
X399822300Y-66575100D02*
X399873100Y-66524300D01*
X381951600Y-66575100D02*
X399822300Y-66575100D01*
%TO.N,Net-(LD18\u002C7-Pad3)*%
X401573100Y-66524300D02*
X419177100Y-66524300D01*
%TO.N,Net-(LD18\u002C7-Pad2)*%
X401573100Y-67424300D02*
X419177100Y-67424300D01*
%TO.N,Net-(LD19\u002C7-Pad2)*%
X438430300Y-67424300D02*
X438481100Y-67475100D01*
X420877100Y-67424300D02*
X438430300Y-67424300D01*
%TO.N,Net-(LD19\u002C7-Pad3)*%
X438430300Y-66524300D02*
X438481100Y-66575100D01*
X420877100Y-66524300D02*
X438430300Y-66524300D01*
%TO.N,Net-(LD0\u002C5-Pad5)*%
X440844601Y-105411875D02*
X439884467Y-106372010D01*
X440844601Y-103893399D02*
X440844601Y-105411875D01*
X440557802Y-103606600D02*
X440844601Y-103893399D01*
X439990600Y-103606600D02*
X440557802Y-103606600D01*
X439884467Y-106372010D02*
X437746790Y-106372010D01*
X435389601Y-108729199D02*
X435389601Y-110848521D01*
X437746790Y-106372010D02*
X435389601Y-108729199D01*
X434698521Y-111539601D02*
X430953599Y-111539601D01*
X435389601Y-110848521D02*
X434698521Y-111539601D01*
D24*
X428450390Y-114042810D02*
X430953599Y-111539601D01*
X428450390Y-122729610D02*
X428450390Y-114042810D01*
X423672000Y-127508000D02*
X428450390Y-122729610D01*
X330004304Y-127508000D02*
X423672000Y-127508000D01*
X309376314Y-148135990D02*
X330004304Y-127508000D01*
X25963113Y-148135990D02*
X309376314Y-148135990D01*
X25963113Y-148135990D02*
X24183990Y-149915113D01*
D21*
X24866600Y-152323800D02*
X24183990Y-151641190D01*
X27737700Y-152323800D02*
X24866600Y-152323800D01*
D24*
X24183990Y-149915113D02*
X24183990Y-151641190D01*
D21*
%TO.N,Net-(LD0\u002C5-Pad4)*%
X437683001Y-107756599D02*
X436097611Y-109341989D01*
X439501154Y-107756599D02*
X437683001Y-107756599D01*
X441552611Y-105705142D02*
X439501154Y-107756599D01*
X441552611Y-103600132D02*
X441552611Y-105705142D01*
X436097611Y-111141788D02*
X433650599Y-113588800D01*
X436097611Y-109341989D02*
X436097611Y-111141788D01*
X440659079Y-102706600D02*
X441552611Y-103600132D01*
X439990600Y-102706600D02*
X440659079Y-102706600D01*
X433650599Y-113588800D02*
X430784000Y-113588800D01*
D24*
X430636058Y-113588800D02*
X429666400Y-114558458D01*
X430784000Y-113588800D02*
X430636058Y-113588800D01*
X429666400Y-114558458D02*
X429666400Y-123240800D01*
X429666400Y-123240800D02*
X424586400Y-128320800D01*
X424578897Y-128320800D02*
X423359697Y-129540000D01*
X424586400Y-128320800D02*
X424578897Y-128320800D01*
X423359697Y-129540000D02*
X329692000Y-129540000D01*
X329692000Y-129540000D02*
X309880000Y-149352000D01*
X309880000Y-149352000D02*
X26466800Y-149352000D01*
X26466800Y-149352000D02*
X25400000Y-150418800D01*
X25400000Y-150418800D02*
X25400000Y-151130000D01*
D21*
X25693800Y-151423800D02*
X25400000Y-151130000D01*
X27737700Y-151423800D02*
X25693800Y-151423800D01*
D24*
%TO.N,Net-(LD0\u002C1-Pad5)*%
X20866100Y-72720200D02*
X20866100Y-74053700D01*
X23012400Y-70573900D02*
X20866100Y-72720200D01*
X46228502Y-70573900D02*
X23012400Y-70573900D01*
X364950301Y-69249999D02*
X47552403Y-69249999D01*
X47552403Y-69249999D02*
X46228502Y-70573900D01*
D21*
X21285200Y-74472800D02*
X20866100Y-74053700D01*
X25324700Y-74472800D02*
X21285200Y-74472800D01*
X440781101Y-50259278D02*
X439414879Y-51625500D01*
X440781101Y-48851599D02*
X440781101Y-50259278D01*
X440494302Y-48564800D02*
X440781101Y-48851599D01*
X439927100Y-48564800D02*
X440494302Y-48564800D01*
X439394600Y-51625500D02*
X438645011Y-52375089D01*
X439414879Y-51625500D02*
X439394600Y-51625500D01*
X434190912Y-52375089D02*
X426990301Y-59575700D01*
X438645011Y-52375089D02*
X434190912Y-52375089D01*
X426990301Y-59575700D02*
X425983400Y-59575700D01*
D24*
X381560943Y-60285101D02*
X379684941Y-58409099D01*
X388202699Y-60285101D02*
X381560943Y-60285101D01*
X398988941Y-58409099D02*
X390078701Y-58409099D01*
X373369959Y-58409099D02*
X371373400Y-60405658D01*
X406985941Y-60285101D02*
X400864943Y-60285101D01*
X408861943Y-58409099D02*
X406985941Y-60285101D01*
X400864943Y-60285101D02*
X398988941Y-58409099D01*
X418292941Y-58409099D02*
X408861943Y-58409099D01*
X390078701Y-58409099D02*
X388202699Y-60285101D01*
X420168943Y-60285101D02*
X418292941Y-58409099D01*
X379684941Y-58409099D02*
X373369959Y-58409099D01*
X425273999Y-60285101D02*
X420168943Y-60285101D01*
X425983400Y-59575700D02*
X425273999Y-60285101D01*
X371373400Y-62826900D02*
X364950301Y-69249999D01*
X371373400Y-60405658D02*
X371373400Y-62826900D01*
D21*
%TO.N,Net-(LD0\u002C1-Pad4)*%
X22861700Y-73572800D02*
X22593300Y-73304400D01*
X25324700Y-73572800D02*
X22861700Y-73572800D01*
X22593300Y-73304400D02*
X22593300Y-72712696D01*
X434484179Y-53083099D02*
X426783500Y-60783778D01*
X438958557Y-53083099D02*
X434484179Y-53083099D01*
X441489111Y-50552545D02*
X438958557Y-53083099D01*
X441489111Y-48318811D02*
X441489111Y-50552545D01*
X440835100Y-47664800D02*
X441489111Y-48318811D01*
X439927100Y-47664800D02*
X440835100Y-47664800D01*
D24*
X53176442Y-70891400D02*
X52277932Y-71789910D01*
X52277932Y-71789910D02*
X23516086Y-71789910D01*
X365028597Y-70891400D02*
X53176442Y-70891400D01*
X23516086Y-71789910D02*
X22593300Y-72712696D01*
X424606998Y-62960280D02*
X372959717Y-62960280D01*
X372959717Y-62960280D02*
X365028597Y-70891400D01*
X424606998Y-62960280D02*
X426783500Y-60783778D01*
D21*
%TO.N,Net-(LD0\u002C3-Pad5)*%
X292788001Y-95531276D02*
X291748477Y-96570800D01*
X292788001Y-94012799D02*
X292788001Y-95531276D01*
X292501202Y-93726000D02*
X292788001Y-94012799D01*
X291934000Y-93726000D02*
X292501202Y-93726000D01*
X291748477Y-96570800D02*
X289255200Y-96570800D01*
X287345701Y-101209221D02*
X286650122Y-101904800D01*
X287345701Y-98480299D02*
X287345701Y-101209221D01*
X289255200Y-96570800D02*
X287345701Y-98480299D01*
X286650122Y-101904800D02*
X283159200Y-101904800D01*
D24*
X283159200Y-101904800D02*
X276250400Y-101904800D01*
X276250400Y-101904800D02*
X270154400Y-108000800D01*
X270154400Y-108000800D02*
X32461200Y-108000800D01*
X32461200Y-108000800D02*
X29362400Y-111099600D01*
D21*
X29743400Y-113207800D02*
X29362400Y-112826800D01*
X32373200Y-113207800D02*
X29743400Y-113207800D01*
X29362400Y-112826800D02*
X29362400Y-111099600D01*
%TO.N,Net-(LD0\u002C3-Pad4)*%
X32370600Y-112307800D02*
X32359600Y-112318800D01*
X32373200Y-112307800D02*
X32370600Y-112307800D01*
X293496011Y-95824543D02*
X292041744Y-97278810D01*
X285720999Y-103835200D02*
X283362400Y-103835200D01*
X288053711Y-101502488D02*
X285720999Y-103835200D01*
X289563190Y-97278810D02*
X288053711Y-98788289D01*
D24*
X283362400Y-103835200D02*
X276039696Y-103835200D01*
D21*
X293496011Y-93719532D02*
X293496011Y-95824543D01*
X292602479Y-92826000D02*
X293496011Y-93719532D01*
X292041744Y-97278810D02*
X289563190Y-97278810D01*
X291934000Y-92826000D02*
X292602479Y-92826000D01*
X288053711Y-98788289D02*
X288053711Y-101502488D01*
D24*
X276039696Y-103835200D02*
X270658087Y-109216810D01*
D21*
X31078600Y-112307800D02*
X30835600Y-112064800D01*
X32373200Y-112307800D02*
X31078600Y-112307800D01*
D24*
X270658087Y-109216810D02*
X32964886Y-109216810D01*
X32964886Y-109216810D02*
X30835600Y-111346096D01*
D21*
X30835600Y-112064800D02*
X30835600Y-111346096D01*
%TO.N,Net-(LD3\u002C5\u002C1-Pad2)*%
X179805700Y-152349200D02*
X220231600Y-152349200D01*
%TO.N,Net-(LD3\u002C5\u002C1-Pad3)*%
X179805700Y-151449200D02*
X220231600Y-151449200D01*
%TO.N,Net-(LD3\u002C5\u002C1-Pad5)*%
X178080300Y-152374600D02*
X178105700Y-152349200D01*
X150278200Y-152374600D02*
X178080300Y-152374600D01*
%TO.N,Net-(LD3\u002C5\u002C1-Pad4)*%
X178080300Y-151474600D02*
X178105700Y-151449200D01*
X150278200Y-151474600D02*
X178080300Y-151474600D01*
%TO.N,LED_SCL_STATUS0*%
X377228100Y-67475100D02*
X377190000Y-67437000D01*
X380251600Y-67475100D02*
X377228100Y-67475100D01*
X378324920Y-65235280D02*
X378091700Y-65468500D01*
X425577000Y-65138300D02*
X425480020Y-65235280D01*
X425480020Y-65235280D02*
X378324920Y-65235280D01*
%TO.N,LED_SDA_STATUS0*%
X376971100Y-66075100D02*
X377471100Y-66575100D01*
X380251600Y-66575100D02*
X377471100Y-66575100D01*
%TO.N,Net-(LD0\u002C2-Pad5)*%
X440844601Y-76154578D02*
X439325979Y-77673200D01*
X440844601Y-74746899D02*
X440844601Y-76154578D01*
X440557802Y-74460100D02*
X440844601Y-74746899D01*
X439990600Y-74460100D02*
X440557802Y-74460100D01*
X439325979Y-77673200D02*
X435421523Y-77673200D01*
X435421523Y-77673200D02*
X431967123Y-81127600D01*
D24*
X422166441Y-88606101D02*
X355872441Y-88606101D01*
X429644942Y-81127600D02*
X422166441Y-88606101D01*
X431967123Y-81127600D02*
X429644942Y-81127600D01*
X355859741Y-88618801D02*
X23852399Y-88618801D01*
X355872441Y-88606101D02*
X355859741Y-88618801D01*
X23852399Y-88618801D02*
X22504400Y-89966800D01*
X22504400Y-89966800D02*
X22504400Y-92506800D01*
X22504400Y-92506800D02*
X23876000Y-93878400D01*
D21*
X25849487Y-93878400D02*
X23876000Y-93878400D01*
X26052687Y-93675200D02*
X25849487Y-93878400D01*
X30036400Y-93675200D02*
X26052687Y-93675200D01*
%TO.N,Net-(LD0\u002C2-Pad4)*%
X30036400Y-92775200D02*
X25592200Y-92775200D01*
X435389601Y-81956021D02*
X434287622Y-83058000D01*
X437962679Y-78864099D02*
X435389601Y-81437177D01*
X439136357Y-78864099D02*
X437962679Y-78864099D01*
X441552611Y-76447845D02*
X439136357Y-78864099D01*
X435389601Y-81437177D02*
X435389601Y-81956021D01*
X440659079Y-73560100D02*
X441552611Y-74453632D01*
X441552611Y-74453632D02*
X441552611Y-76447845D01*
X439990600Y-73560100D02*
X440659079Y-73560100D01*
X434287622Y-83058000D02*
X431038000Y-83058000D01*
D24*
X24079200Y-91897200D02*
X24957200Y-92775200D01*
X24079200Y-90881200D02*
X24079200Y-91897200D01*
X25095200Y-89865200D02*
X24079200Y-90881200D01*
X24957200Y-92775200D02*
X25592200Y-92775200D01*
X422627038Y-89865200D02*
X25095200Y-89865200D01*
X429434238Y-83058000D02*
X422627038Y-89865200D01*
X431038000Y-83058000D02*
X429434238Y-83058000D01*
D21*
%TO.N,Net-(LD1\u002C1-Pad2)*%
X63729500Y-74472800D02*
X63742200Y-74460100D01*
X46239800Y-74472800D02*
X63729500Y-74472800D01*
%TO.N,Net-(LD1\u002C1-Pad3)*%
X63729500Y-73572800D02*
X63742200Y-73560100D01*
X46239800Y-73572800D02*
X63729500Y-73572800D01*
%TO.N,Net-(LD2\u002C1-Pad2)*%
X65442200Y-74460100D02*
X82538200Y-74460100D01*
%TO.N,Net-(LD2\u002C1-Pad3)*%
X65442200Y-73560100D02*
X82538200Y-73560100D01*
%TO.N,Net-(LD3\u002C1-Pad2)*%
X84238200Y-74460100D02*
X101842200Y-74460100D01*
%TO.N,Net-(LD3\u002C1-Pad3)*%
X84238200Y-73560100D02*
X101842200Y-73560100D01*
%TO.N,Net-(LD4\u002C1-Pad2)*%
X103542200Y-74460100D02*
X121146200Y-74460100D01*
%TO.N,Net-(LD4\u002C1-Pad3)*%
X103542200Y-73560100D02*
X121146200Y-73560100D01*
%TO.N,Net-(LD5\u002C1-Pad2)*%
X122846200Y-74460100D02*
X140450200Y-74460100D01*
%TO.N,Net-(LD5\u002C1-Pad3)*%
X122846200Y-73560100D02*
X140450200Y-73560100D01*
%TO.N,Net-(LD6\u002C1-Pad2)*%
X142150200Y-74460100D02*
X159754200Y-74460100D01*
%TO.N,Net-(LD6\u002C1-Pad3)*%
X142150200Y-73560100D02*
X159754200Y-73560100D01*
%TO.N,Net-(LD7\u002C1-Pad2)*%
X161454200Y-74460100D02*
X179058200Y-74460100D01*
%TO.N,Net-(LD7\u002C1-Pad3)*%
X161454200Y-73560100D02*
X179058200Y-73560100D01*
%TO.N,Net-(LD8\u002C1-Pad2)*%
X180758200Y-74460100D02*
X198362200Y-74460100D01*
%TO.N,Net-(LD8\u002C1-Pad3)*%
X180758200Y-73560100D02*
X198362200Y-73560100D01*
%TO.N,Net-(LD11\u002C1-Pad2)*%
X238670200Y-74460100D02*
X256274200Y-74460100D01*
%TO.N,Net-(LD11\u002C1-Pad3)*%
X238670200Y-73560100D02*
X256274200Y-73560100D01*
%TO.N,Net-(LD12\u002C1-Pad2)*%
X257974200Y-74460100D02*
X285039700Y-74460100D01*
%TO.N,Net-(LD12\u002C1-Pad3)*%
X257974200Y-73560100D02*
X285039700Y-73560100D01*
%TO.N,Net-(LD13\u002C1-Pad2)*%
X286739700Y-74460100D02*
X317894600Y-74460100D01*
%TO.N,Net-(LD13\u002C1-Pad3)*%
X286739700Y-73560100D02*
X317894600Y-73560100D01*
%TO.N,Net-(LD14\u002C1-Pad2)*%
X319594600Y-74460100D02*
X337198600Y-74460100D01*
%TO.N,Net-(LD14\u002C1-Pad3)*%
X319594600Y-73560100D02*
X337198600Y-73560100D01*
%TO.N,Net-(LD15\u002C1-Pad2)*%
X356555400Y-74460100D02*
X356580800Y-74485500D01*
X338898600Y-74460100D02*
X356555400Y-74460100D01*
%TO.N,Net-(LD15\u002C1-Pad3)*%
X356555400Y-73560100D02*
X356580800Y-73585500D01*
X338898600Y-73560100D02*
X356555400Y-73560100D01*
%TO.N,Net-(LD16\u002C1-Pad2)*%
X380353200Y-74485500D02*
X380378600Y-74460100D01*
X358280800Y-74485500D02*
X380353200Y-74485500D01*
%TO.N,Net-(LD16\u002C1-Pad3)*%
X380353200Y-73585500D02*
X380378600Y-73560100D01*
X358280800Y-73585500D02*
X380353200Y-73585500D01*
%TO.N,Net-(LD17\u002C1-Pad2)*%
X382078600Y-74460100D02*
X399682600Y-74460100D01*
%TO.N,Net-(LD17\u002C1-Pad3)*%
X382078600Y-73560100D02*
X399682600Y-73560100D01*
%TO.N,Net-(LD18\u002C1-Pad2)*%
X418973900Y-74460100D02*
X418986600Y-74472800D01*
X401382600Y-74460100D02*
X418973900Y-74460100D01*
%TO.N,Net-(LD18\u002C1-Pad3)*%
X418973900Y-73560100D02*
X418986600Y-73572800D01*
X401382600Y-73560100D02*
X418973900Y-73560100D01*
%TO.N,Net-(LD19\u002C1-Pad2)*%
X438277900Y-74472800D02*
X438290600Y-74460100D01*
X420686600Y-74472800D02*
X438277900Y-74472800D01*
%TO.N,Net-(LD19\u002C1-Pad3)*%
X438277900Y-73572800D02*
X438290600Y-73560100D01*
X420686600Y-73572800D02*
X438277900Y-73572800D01*
%TO.N,Net-(LD0\u002C4-Pad5)*%
X420743068Y-96218011D02*
X417934411Y-96218011D01*
X421540601Y-95420478D02*
X420743068Y-96218011D01*
X421540601Y-94012799D02*
X421540601Y-95420478D01*
X421253802Y-93726000D02*
X421540601Y-94012799D01*
X420686600Y-93726000D02*
X421253802Y-93726000D01*
X416085601Y-101323521D02*
X415301122Y-102108000D01*
X416085601Y-98066821D02*
X416085601Y-101323521D01*
X417934411Y-96218011D02*
X416085601Y-98066821D01*
X415301122Y-102108000D02*
X412292800Y-102108000D01*
D24*
X408728042Y-102108000D02*
X402862441Y-107973601D01*
X412292800Y-102108000D02*
X408728042Y-102108000D01*
X305694741Y-107973601D02*
X286378041Y-127290301D01*
X402862441Y-107973601D02*
X305694741Y-107973601D01*
X286378041Y-127290301D02*
X36234899Y-127290301D01*
X36234899Y-127290301D02*
X33070800Y-130454400D01*
X33070800Y-130454400D02*
X33070800Y-132384800D01*
D21*
X33629600Y-132943600D02*
X33070800Y-132384800D01*
X37135700Y-132943600D02*
X33629600Y-132943600D01*
%TO.N,Net-(LD0\u002C4-Pad4)*%
X416793611Y-98360087D02*
X416793611Y-101616788D01*
X418227677Y-96926021D02*
X416793611Y-98360087D01*
X421036335Y-96926021D02*
X418227677Y-96926021D01*
X416793611Y-101616788D02*
X414422799Y-103987600D01*
X421547069Y-93017990D02*
X422248611Y-93719532D01*
X420830390Y-93017990D02*
X421547069Y-93017990D01*
X422248611Y-93719532D02*
X422248611Y-95713745D01*
X420686600Y-92874200D02*
X420830390Y-93017990D01*
X422248611Y-95713745D02*
X421036335Y-96926021D01*
X420686600Y-92826000D02*
X420686600Y-92874200D01*
X414422799Y-103987600D02*
X412089600Y-103987600D01*
D24*
X408568138Y-103987600D02*
X403366128Y-109189611D01*
X412089600Y-103987600D02*
X408568138Y-103987600D01*
X306198427Y-109189611D02*
X286881728Y-128506311D01*
X286881728Y-128506311D02*
X37152489Y-128506311D01*
X403366128Y-109189611D02*
X306198427Y-109189611D01*
X37152489Y-128506311D02*
X34899600Y-130759200D01*
D21*
X37135700Y-132043600D02*
X35117200Y-132043600D01*
X34899600Y-131826000D02*
X34899600Y-130759200D01*
X35117200Y-132043600D02*
X34899600Y-131826000D01*
%TO.N,Net-(LD1\u002C3-Pad2)*%
X60552700Y-113131600D02*
X78156700Y-113131600D01*
%TO.N,Net-(LD1\u002C3-Pad3)*%
X60552700Y-112231600D02*
X78156700Y-112231600D01*
%TO.N,Net-(LD1\u002C5-Pad2)*%
X54012200Y-152374600D02*
X76696200Y-152374600D01*
%TO.N,Net-(LD1\u002C5-Pad3)*%
X54012200Y-151474600D02*
X76696200Y-151474600D01*
%TO.N,Net-(LD2\u002C3-Pad2)*%
X79856700Y-113131600D02*
X97460700Y-113131600D01*
%TO.N,Net-(LD2\u002C3-Pad3)*%
X79856700Y-112231600D02*
X97460700Y-112231600D01*
%TO.N,Net-(LD2\u002C5-Pad2)*%
X113996100Y-152374600D02*
X114008800Y-152361900D01*
X78396200Y-152374600D02*
X113996100Y-152374600D01*
%TO.N,Net-(LD2\u002C5-Pad3)*%
X113996100Y-151474600D02*
X114008800Y-151461900D01*
X78396200Y-151474600D02*
X113996100Y-151474600D01*
%TO.N,Net-(LD3\u002C5\u002C0-Pad2)*%
X148565500Y-152361900D02*
X148578200Y-152374600D01*
X115708800Y-152361900D02*
X148565500Y-152361900D01*
%TO.N,Net-(LD3\u002C5\u002C0-Pad3)*%
X148565500Y-151461900D02*
X148578200Y-151474600D01*
X115708800Y-151461900D02*
X148565500Y-151461900D01*
%TO.N,Net-(LD3\u002C3-Pad2)*%
X99160700Y-113131600D02*
X116764700Y-113131600D01*
%TO.N,Net-(LD3\u002C3-Pad3)*%
X99160700Y-112231600D02*
X116764700Y-112231600D01*
%TO.N,Net-(LD4\u002C3-Pad2)*%
X118464700Y-113131600D02*
X136068700Y-113131600D01*
%TO.N,Net-(LD4\u002C3-Pad3)*%
X118464700Y-112231600D02*
X136068700Y-112231600D01*
%TO.N,Net-(LD5\u002C3-Pad2)*%
X137768700Y-113131600D02*
X155372700Y-113131600D01*
%TO.N,Net-(LD5\u002C3-Pad3)*%
X137768700Y-112231600D02*
X155372700Y-112231600D01*
%TO.N,Net-(LD6\u002C3-Pad2)*%
X157072700Y-113131600D02*
X174676700Y-113131600D01*
%TO.N,Net-(LD6\u002C3-Pad3)*%
X157072700Y-112231600D02*
X174676700Y-112231600D01*
%TO.N,Net-(LD7\u002C3-Pad2)*%
X176376700Y-113131600D02*
X193980700Y-113131600D01*
%TO.N,Net-(LD7\u002C3-Pad3)*%
X176376700Y-112231600D02*
X193980700Y-112231600D01*
%TO.N,Net-(LD8\u002C5-Pad2)*%
X222033200Y-152374600D02*
X244463200Y-152374600D01*
%TO.N,Net-(LD8\u002C5-Pad3)*%
X222033200Y-151474600D02*
X244463200Y-151474600D01*
%TO.N,Net-(LD8\u002C3-Pad2)*%
X195680700Y-113131600D02*
X213284700Y-113131600D01*
%TO.N,Net-(LD8\u002C3-Pad3)*%
X195680700Y-112231600D02*
X213284700Y-112231600D01*
%TO.N,Net-(LD11\u002C5-Pad2)*%
X329982846Y-132892800D02*
X337135100Y-132892800D01*
X310501046Y-152374600D02*
X329982846Y-132892800D01*
X294423200Y-152374600D02*
X310501046Y-152374600D01*
%TO.N,Net-(LD11\u002C5-Pad3)*%
X294423200Y-151474600D02*
X310399770Y-151474600D01*
X329881570Y-131992800D02*
X337135100Y-131992800D01*
X310399770Y-151474600D02*
X329881570Y-131992800D01*
%TO.N,Net-(LD11\u002C3-Pad2)*%
X283147400Y-113131600D02*
X283172800Y-113157000D01*
X253592700Y-113131600D02*
X283147400Y-113131600D01*
%TO.N,Net-(LD11\u002C3-Pad3)*%
X283112300Y-112231600D02*
X283198200Y-112317500D01*
X283147400Y-112231600D02*
X283172800Y-112257000D01*
X253592700Y-112231600D02*
X283147400Y-112231600D01*
%TO.N,Net-(LD12\u002C3-Pad2)*%
X311946822Y-93700600D02*
X317894600Y-93700600D01*
X292490422Y-113157000D02*
X311946822Y-93700600D01*
X284872800Y-113157000D02*
X292490422Y-113157000D01*
%TO.N,Net-(LD12\u002C3-Pad3)*%
X311845546Y-92800600D02*
X317894600Y-92800600D01*
X292389146Y-112257000D02*
X311845546Y-92800600D01*
X284872800Y-112257000D02*
X292389146Y-112257000D01*
%TO.N,Net-(LD14\u002C6-Pad5)*%
X421540601Y-134130078D02*
X420542679Y-135128000D01*
X421540601Y-132722399D02*
X421540601Y-134130078D01*
X421253802Y-132435600D02*
X421540601Y-132722399D01*
X420686600Y-132435600D02*
X421253802Y-132435600D01*
X420542679Y-135128000D02*
X418541200Y-135128000D01*
X416512390Y-140458810D02*
X416306000Y-140665200D01*
X416512390Y-137156810D02*
X416512390Y-140458810D01*
X418541200Y-135128000D02*
X416512390Y-137156810D01*
X416306000Y-140665200D02*
X410362400Y-140665200D01*
D24*
X408778842Y-140665200D02*
X402354441Y-147089601D01*
X410362400Y-140665200D02*
X408778842Y-140665200D01*
X402354441Y-147089601D02*
X319406799Y-147089601D01*
X319406799Y-147089601D02*
X318414400Y-148082000D01*
D21*
X316923100Y-152247600D02*
X316484000Y-151808500D01*
X317831100Y-152247600D02*
X316923100Y-152247600D01*
X316484000Y-150012400D02*
X318414400Y-148082000D01*
X316484000Y-151808500D02*
X316484000Y-150012400D01*
%TO.N,Net-(LD14\u002C6-Pad4)*%
X418658679Y-136839599D02*
X417220400Y-138277878D01*
X422248611Y-132189611D02*
X422248611Y-134423345D01*
X422248611Y-134423345D02*
X419832357Y-136839599D01*
X421594600Y-131535600D02*
X422248611Y-132189611D01*
X419832357Y-136839599D02*
X418658679Y-136839599D01*
X420686600Y-131535600D02*
X421594600Y-131535600D01*
X417220400Y-138277878D02*
X417220400Y-140766800D01*
X417220400Y-140766800D02*
X415493200Y-142494000D01*
X415493200Y-142494000D02*
X410565600Y-142494000D01*
D24*
X408669738Y-142494000D02*
X402858128Y-148305611D01*
X410565600Y-142494000D02*
X408669738Y-142494000D01*
X319910485Y-148305611D02*
X318711696Y-149504400D01*
X402858128Y-148305611D02*
X319910485Y-148305611D01*
D21*
X317831100Y-150384996D02*
X318711696Y-149504400D01*
X317831100Y-151347600D02*
X317831100Y-150384996D01*
%TO.N,Net-(LD15\u002C5-Pad2)*%
X379145800Y-132852677D02*
X379145800Y-132892800D01*
X379562877Y-132435600D02*
X379145800Y-132852677D01*
X380632600Y-132435600D02*
X379562877Y-132435600D01*
X338835100Y-132892800D02*
X379145800Y-132892800D01*
%TO.N,Net-(LD15\u002C5-Pad3)*%
X338835100Y-131992800D02*
X379004400Y-131992800D01*
X379461600Y-131535600D02*
X380632600Y-131535600D01*
X379004400Y-131992800D02*
X379461600Y-131535600D01*
%TO.N,Net-(LD15\u002C3-Pad2)*%
X338898600Y-93700600D02*
X356502600Y-93700600D01*
%TO.N,Net-(LD15\u002C3-Pad3)*%
X338898600Y-92800600D02*
X356502600Y-92800600D01*
%TO.N,Net-(LD16\u002C5-Pad2)*%
X382332600Y-132435600D02*
X399682600Y-132435600D01*
%TO.N,Net-(LD16\u002C5-Pad3)*%
X382332600Y-131535600D02*
X399682600Y-131535600D01*
%TO.N,Net-(LD16\u002C3-Pad2)*%
X380353200Y-93700600D02*
X380378600Y-93726000D01*
X358202600Y-93700600D02*
X380353200Y-93700600D01*
%TO.N,Net-(LD16\u002C3-Pad3)*%
X380353200Y-92800600D02*
X380378600Y-92826000D01*
X358202600Y-92800600D02*
X380353200Y-92800600D01*
%TO.N,Net-(LD17\u002C5-Pad2)*%
X401382600Y-132435600D02*
X418986600Y-132435600D01*
%TO.N,Net-(LD17\u002C5-Pad3)*%
X401382600Y-131535600D02*
X418986600Y-131535600D01*
%TO.N,Net-(LD17\u002C3-Pad2)*%
X382078600Y-93726000D02*
X399682600Y-93726000D01*
%TO.N,Net-(LD17\u002C3-Pad3)*%
X382078600Y-92826000D02*
X399682600Y-92826000D01*
%TO.N,Net-(LD18\u002C3-Pad2)*%
X401382600Y-93726000D02*
X418986600Y-93726000D01*
%TO.N,Net-(LD18\u002C3-Pad3)*%
X401382600Y-92826000D02*
X418986600Y-92826000D01*
%TD*%
M02*
