M48
; DRILL file {KiCad (5.1.9)-1} date 07/27/21 18:32:49
; FORMAT={-:-/ absolute / inch / decimal}
; #@! TF.CreationDate,2021-07-27T18:32:49+10:00
; #@! TF.GenerationSoftware,Kicad,Pcbnew,(5.1.9)-1
; #@! TF.FileFunction,Plated,1,4,PTH
FMAT,2
INCH
T1C0.0157
T2C0.0276
T3C0.0300
%
G90
G05
T1
X1.0305Y-2.852
X1.033Y-1.83
X1.0755Y-2.977
X1.078Y-1.955
X1.1255Y-5.917
X1.1705Y-6.042
X1.216Y-3.608
X1.261Y-3.733
X1.308Y-4.377
X1.353Y-4.502
X1.4955Y-5.154
X1.5405Y-5.279
X1.787Y-2.852
X1.832Y-2.977
X2.093Y-5.919
X2.138Y-6.044
X2.158Y-3.609
X2.203Y-3.734
X2.3505Y-4.374
X2.3955Y-4.499
X2.543Y-2.8515
X2.5499Y-1.8315
X2.588Y-2.9765
X2.5949Y-1.9565
X2.7205Y-5.154
X2.7655Y-5.279
X2.918Y-3.609
X2.963Y-3.734
X3.053Y-5.919
X3.098Y-6.044
X3.1105Y-4.374
X3.1555Y-4.499
X3.283Y-2.8515
X3.3099Y-1.8315
X3.328Y-2.9765
X3.3549Y-1.9565
X3.475Y-5.154
X3.52Y-5.279
X3.678Y-3.609
X3.723Y-3.734
X3.8705Y-4.374
X3.9155Y-4.499
X4.043Y-2.8515
X4.0699Y-1.8315
X4.088Y-2.9765
X4.1149Y-1.9565
X4.2405Y-5.154
X4.2855Y-5.279
X4.438Y-3.609
X4.483Y-3.734
X4.522Y-5.9185
X4.567Y-6.0435
X4.6305Y-4.374
X4.6755Y-4.499
X4.803Y-2.8515
X4.8299Y-1.8315
X4.848Y-2.9765
X4.8749Y-1.9565
X5.0005Y-5.154
X5.0455Y-5.279
X5.198Y-3.609
X5.243Y-3.734
X5.3905Y-4.374
X5.4355Y-4.499
X5.563Y-2.8515
X5.608Y-2.9765
X5.7605Y-5.154
X5.8055Y-5.279
X5.883Y-5.919
X5.928Y-6.044
X5.958Y-3.609
X6.003Y-3.734
X6.0699Y-1.8315
X6.1149Y-1.9565
X6.1505Y-4.374
X6.1955Y-4.499
X6.323Y-2.8515
X6.368Y-2.9765
X6.5205Y-5.154
X6.5655Y-5.279
X6.718Y-3.609
X6.763Y-3.734
X6.8299Y-1.8315
X6.8749Y-1.9565
X6.9105Y-4.374
X6.9555Y-4.499
X7.0455Y-5.918
X7.083Y-2.8515
X7.0905Y-6.043
X7.128Y-2.9765
X7.2805Y-5.154
X7.3255Y-5.279
X7.478Y-3.609
X7.523Y-3.734
X7.5899Y-1.8315
X7.6349Y-1.9565
X7.6705Y-4.374
X7.7155Y-4.499
X7.843Y-2.8515
X7.888Y-2.9765
X8.0405Y-5.154
X8.0855Y-5.279
X8.238Y-3.609
X8.283Y-3.734
X8.3499Y-1.8315
X8.3949Y-1.9565
X8.4305Y-4.374
X8.4755Y-4.499
X8.603Y-2.8515
X8.648Y-2.9765
X8.708Y-5.919
X8.753Y-6.044
X8.8005Y-5.154
X8.8455Y-5.279
X8.998Y-3.609
X9.043Y-3.734
X9.1905Y-4.374
X9.2355Y-4.499
X9.363Y-2.8515
X9.3899Y-1.8315
X9.408Y-2.9765
X9.4349Y-1.9565
X9.5605Y-5.154
X9.6055Y-5.279
X9.658Y-5.919
X9.703Y-6.044
X9.758Y-3.609
X9.803Y-3.734
X9.9505Y-4.374
X9.9955Y-4.499
X10.123Y-2.8515
X10.1499Y-1.8315
X10.168Y-2.9765
X10.1949Y-1.9565
X10.518Y-3.609
X10.563Y-3.734
X10.6105Y-5.919
X10.6555Y-6.044
X10.9099Y-1.8315
X10.9549Y-1.9565
X10.993Y-5.154
X11.038Y-5.279
X11.182Y-4.375
X11.227Y-4.5
X11.2555Y-2.8515
X11.3005Y-2.9765
X11.4525Y-1.685
X11.46Y-3.61
X11.505Y-3.735
X11.5175Y-1.685
X11.558Y-5.919
X11.603Y-6.044
X11.6699Y-1.8315
X11.7149Y-1.9565
X12.055Y-1.815
X12.5465Y-5.914
X12.549Y-2.8515
X12.549Y-3.609
X12.5585Y-1.8315
X12.5915Y-6.039
X12.594Y-2.9765
X12.594Y-3.734
X12.6035Y-1.9565
X12.8299Y-2.2865
X13.3065Y-5.152
X13.3065Y-5.914
X13.309Y-2.8515
X13.309Y-3.609
X13.3285Y-1.8315
X13.3515Y-5.277
X13.3515Y-6.039
X13.354Y-2.9765
X13.354Y-3.734
X13.3735Y-1.9565
X13.5999Y-2.2865
X13.6475Y-1.815
X13.8125Y-1.8125
X13.855Y-0.86
X13.955Y-0.86
X13.955Y-1.06
X14.055Y-0.86
X14.055Y-1.06
X14.0665Y-5.914
X14.069Y-3.609
X14.0721Y-2.8525
X14.0885Y-1.8315
X14.1115Y-6.039
X14.114Y-3.734
X14.1171Y-2.9775
X14.1335Y-1.9565
X14.155Y-0.86
X14.155Y-1.06
X14.255Y-0.86
X14.255Y-1.055
X14.355Y-0.86
X14.355Y-1.06
X14.455Y-0.86
X14.455Y-1.06
X14.4637Y-1.8187
X14.615Y-2.7075
X14.655Y-0.86
X14.655Y-1.06
X14.755Y-0.86
X14.755Y-1.06
X14.85Y-2.655
X14.855Y-0.86
X14.855Y-1.06
X14.8855Y-2.5775
X14.955Y-0.86
X14.955Y-1.06
X15.004Y-2.5765
X15.006Y-1.832
X15.009Y-2.8515
X15.009Y-3.61
X15.009Y-4.374
X15.019Y-5.134
X15.049Y-2.7015
X15.051Y-1.957
X15.054Y-2.9765
X15.054Y-3.735
X15.054Y-4.499
X15.064Y-5.259
X15.255Y-0.86
X15.255Y-1.06
X15.2854Y-2.2865
X15.355Y-0.86
X15.355Y-1.06
X15.394Y-5.894
X15.439Y-6.019
X15.5925Y-2.8025
X15.766Y-1.832
X15.769Y-2.8515
X15.769Y-3.61
X15.769Y-4.374
X15.769Y-5.134
X15.7765Y-2.5745
X15.811Y-1.957
X15.814Y-2.9765
X15.814Y-3.735
X15.814Y-4.499
X15.814Y-5.259
X15.8215Y-2.6995
X15.845Y-1.8
X15.96Y-2.1175
X16.0454Y-2.2865
X16.1075Y-2.145
X16.526Y-1.832
X16.529Y-2.852
X16.529Y-3.61
X16.529Y-4.3715
X16.529Y-5.134
X16.529Y-5.894
X16.5365Y-2.5745
X16.571Y-1.957
X16.574Y-2.977
X16.574Y-3.735
X16.574Y-4.4965
X16.574Y-5.259
X16.574Y-6.019
X16.5815Y-2.6995
X16.7805Y-4.3975
X16.8054Y-2.2865
X17.2865Y-1.832
X17.289Y-2.8515
X17.289Y-3.999
X17.2965Y-2.5765
X17.299Y-5.594
X17.3315Y-1.957
X17.334Y-2.9765
X17.334Y-4.124
X17.3415Y-2.7015
X17.344Y-5.719
X17.5654Y-2.2865
T2
X0.7305Y-3.0985
X0.7305Y-3.4055
X0.733Y-2.081
X0.733Y-2.388
X0.8255Y-6.1635
X0.8255Y-6.4705
X0.908Y-3.8535
X0.908Y-4.1605
X1.008Y-4.6235
X1.008Y-4.9305
X1.1955Y-5.401
X1.1955Y-5.708
X1.4905Y-3.0985
X1.4905Y-3.4055
X1.7855Y-6.1635
X1.7855Y-6.4705
X1.8505Y-3.8535
X1.8505Y-4.1605
X2.043Y-4.6185
X2.043Y-4.9255
X2.2349Y-2.083
X2.2349Y-2.39
X2.2355Y-3.096
X2.2355Y-3.403
X2.413Y-5.3985
X2.413Y-5.7055
X2.6105Y-3.8535
X2.6105Y-4.1605
X2.7455Y-6.1635
X2.7455Y-6.4705
X2.803Y-4.6185
X2.803Y-4.9255
X2.9755Y-3.096
X2.9755Y-3.403
X2.9949Y-2.081
X2.9949Y-2.388
X3.173Y-5.3985
X3.173Y-5.7055
X3.3705Y-3.8535
X3.3705Y-4.1605
X3.563Y-4.6185
X3.563Y-4.9255
X3.7355Y-3.096
X3.7355Y-3.403
X3.7549Y-2.081
X3.7549Y-2.388
X3.933Y-5.3985
X3.933Y-5.7055
X4.1305Y-3.8535
X4.1305Y-4.1605
X4.323Y-4.6185
X4.323Y-4.9255
X4.4955Y-3.096
X4.4955Y-3.403
X4.5149Y-2.081
X4.5149Y-2.388
X4.693Y-5.3985
X4.693Y-5.7055
X4.8905Y-3.8535
X4.8905Y-4.1605
X5.083Y-4.6205
X5.083Y-4.9275
X5.2555Y-3.096
X5.2555Y-3.403
X5.453Y-5.4005
X5.453Y-5.7075
X5.5755Y-6.1635
X5.5755Y-6.4705
X5.6505Y-3.8535
X5.6505Y-4.1605
X5.7549Y-2.081
X5.7549Y-2.388
X5.843Y-4.6185
X5.843Y-4.9255
X6.0155Y-3.096
X6.0155Y-3.403
X6.213Y-5.3985
X6.213Y-5.7055
X6.4105Y-3.8555
X6.4105Y-4.1625
X6.5149Y-2.081
X6.5149Y-2.388
X6.603Y-4.6185
X6.603Y-4.9255
X6.7755Y-3.096
X6.7755Y-3.403
X6.973Y-5.4005
X6.973Y-5.7075
X7.1705Y-3.8535
X7.1705Y-4.1605
X7.2749Y-2.081
X7.2749Y-2.388
X7.363Y-4.6185
X7.363Y-4.9255
X7.5355Y-3.098
X7.5355Y-3.405
X7.733Y-5.3985
X7.733Y-5.7055
X7.9305Y-3.8535
X7.9305Y-4.1605
X8.0349Y-2.083
X8.0349Y-2.39
X8.123Y-4.6185
X8.123Y-4.9255
X8.2955Y-3.096
X8.2955Y-3.403
X8.4005Y-6.166
X8.4005Y-6.473
X8.493Y-5.3985
X8.493Y-5.7055
X8.6905Y-3.8555
X8.6905Y-4.1625
X8.883Y-4.6185
X8.883Y-4.9255
X9.0555Y-3.096
X9.0555Y-3.403
X9.0749Y-2.081
X9.0749Y-2.388
X9.253Y-5.4005
X9.253Y-5.7075
X9.3505Y-6.1635
X9.3505Y-6.4705
X9.4505Y-3.8535
X9.4505Y-4.1605
X9.643Y-4.6185
X9.643Y-4.9255
X9.8155Y-3.098
X9.8155Y-3.405
X9.8349Y-2.081
X9.8349Y-2.388
X10.2105Y-3.8535
X10.2105Y-4.1605
X10.303Y-6.1635
X10.303Y-6.4705
X10.5949Y-2.081
X10.5949Y-2.388
X10.693Y-5.3985
X10.693Y-5.7055
X10.883Y-4.621
X10.883Y-4.928
X10.9555Y-3.096
X10.9555Y-3.403
X11.148Y-3.856
X11.148Y-4.163
X11.2505Y-6.1635
X11.2505Y-6.4705
X11.3549Y-2.081
X11.3549Y-2.388
X12.239Y-6.1585
X12.239Y-6.4655
X12.2415Y-3.096
X12.2415Y-3.403
X12.2435Y-2.081
X12.2435Y-2.388
X12.2515Y-3.8535
X12.2515Y-4.1605
X12.999Y-5.3985
X12.999Y-5.7055
X12.999Y-6.1585
X12.999Y-6.4655
X13.0015Y-3.096
X13.0015Y-3.403
X13.0015Y-3.8535
X13.0015Y-4.1605
X13.0235Y-2.081
X13.0235Y-2.388
X13.759Y-6.1585
X13.759Y-6.4655
X13.7615Y-3.096
X13.7615Y-3.403
X13.7715Y-3.8535
X13.7715Y-4.1605
X13.7735Y-2.081
X13.7735Y-2.388
X14.6915Y-5.3785
X14.6915Y-5.6855
X14.699Y-2.081
X14.699Y-2.388
X14.7015Y-3.096
X14.7015Y-3.403
X14.7015Y-3.8585
X14.7015Y-4.1655
X14.7015Y-4.6185
X14.7015Y-4.9255
X15.0865Y-6.1405
X15.0865Y-6.4475
X15.459Y-2.081
X15.459Y-2.388
X15.4615Y-3.098
X15.4615Y-3.405
X15.4615Y-3.8585
X15.4615Y-4.1655
X15.4615Y-4.6185
X15.4615Y-4.9255
X15.4615Y-5.3785
X15.4615Y-5.6855
X16.219Y-2.081
X16.219Y-2.388
X16.2215Y-3.096
X16.2215Y-3.403
X16.2215Y-3.8585
X16.2215Y-4.1655
X16.2215Y-4.616
X16.2215Y-4.923
X16.2215Y-5.3785
X16.2215Y-5.6855
X16.2215Y-6.1385
X16.2215Y-6.4455
X16.979Y-2.083
X16.979Y-2.39
X16.9815Y-3.096
X16.9815Y-3.403
X16.9815Y-4.2255
X16.9815Y-4.5325
X16.9915Y-5.7585
X16.9915Y-6.0655
T3
X16.775Y-1.0
X16.775Y-1.225
X17.1Y-1.0
X17.1Y-1.22
T0
M30
