G04 #@! TF.GenerationSoftware,KiCad,Pcbnew,(5.1.10)-1*
G04 #@! TF.CreationDate,2021-10-17T16:09:47+10:00*
G04 #@! TF.ProjectId,RedPyKeeb_mainboard,52656450-794b-4656-9562-5f6d61696e62,rev?*
G04 #@! TF.SameCoordinates,Original*
G04 #@! TF.FileFunction,Paste,Bot*
G04 #@! TF.FilePolarity,Positive*
%FSLAX46Y46*%
G04 Gerber Fmt 4.6, Leading zero omitted, Abs format (unit mm)*
G04 Created by KiCad (PCBNEW (5.1.10)-1) date 2021-10-17 16:09:47*
%MOMM*%
%LPD*%
G01*
G04 APERTURE LIST*
%ADD10R,1.000000X3.150000*%
%ADD11R,2.550000X2.500000*%
G04 APERTURE END LIST*
D10*
X387451600Y-21795500D03*
X387451600Y-26845500D03*
X392531600Y-26845260D03*
X389991600Y-26845500D03*
X389991600Y-21795500D03*
X384911600Y-21795500D03*
X379831600Y-21795500D03*
X382371600Y-21795500D03*
X384911600Y-26845500D03*
X392531600Y-21795500D03*
X372211600Y-21795500D03*
X377291600Y-21795500D03*
X377291600Y-26845500D03*
X374751600Y-26845500D03*
X372211600Y-26845500D03*
X351891600Y-26845500D03*
X364591600Y-26845500D03*
X367131600Y-21795500D03*
X356971600Y-21795500D03*
X354431600Y-26845500D03*
X349351600Y-21795500D03*
X367131600Y-26845500D03*
X364591600Y-21795500D03*
X349351600Y-26845500D03*
X362051600Y-26845500D03*
X369671600Y-21795500D03*
X356971600Y-26845500D03*
X369671600Y-26845500D03*
X359511600Y-21795500D03*
X359511600Y-26845500D03*
X346811600Y-21795500D03*
X346811600Y-26845500D03*
X374751600Y-21795500D03*
X354431600Y-21795500D03*
X351891600Y-21795500D03*
X379831600Y-26845500D03*
X344271600Y-21795500D03*
X344271600Y-26845260D03*
X382371600Y-26845500D03*
X362051600Y-21795500D03*
D11*
X95758000Y-60642500D03*
X108685000Y-58102500D03*
X76708000Y-60642500D03*
X89635000Y-58102500D03*
X114808000Y-60642500D03*
X127735000Y-58102500D03*
X70585000Y-58102500D03*
X57658000Y-60642500D03*
G36*
G01*
X432288700Y-26361900D02*
X432288700Y-24361900D01*
G75*
G02*
X432538700Y-24111900I250000J0D01*
G01*
X436038700Y-24111900D01*
G75*
G02*
X436288700Y-24361900I0J-250000D01*
G01*
X436288700Y-26361900D01*
G75*
G02*
X436038700Y-26611900I-250000J0D01*
G01*
X432538700Y-26611900D01*
G75*
G02*
X432288700Y-26361900I0J250000D01*
G01*
G37*
G36*
G01*
X424288700Y-26361900D02*
X424288700Y-24361900D01*
G75*
G02*
X424538700Y-24111900I250000J0D01*
G01*
X428038700Y-24111900D01*
G75*
G02*
X428288700Y-24361900I0J-250000D01*
G01*
X428288700Y-26361900D01*
G75*
G02*
X428038700Y-26611900I-250000J0D01*
G01*
X424538700Y-26611900D01*
G75*
G02*
X424288700Y-26361900I0J250000D01*
G01*
G37*
X429926750Y-151923750D03*
X442853750Y-149383750D03*
X410876750Y-161448750D03*
X423803750Y-158908750D03*
X410876750Y-142398750D03*
X423803750Y-139858750D03*
X391826750Y-142398750D03*
X404753750Y-139858750D03*
X410876750Y-123348750D03*
X423803750Y-120808750D03*
X391826750Y-123348750D03*
X404753750Y-120808750D03*
X382301750Y-161448750D03*
X395228750Y-158908750D03*
X372776750Y-142398750D03*
X385703750Y-139858750D03*
X372776750Y-123348750D03*
X385703750Y-120808750D03*
X429926750Y-113823750D03*
X442853750Y-111283750D03*
X410876750Y-104298750D03*
X423803750Y-101758750D03*
X391826750Y-104298750D03*
X404753750Y-101758750D03*
X372776750Y-104298750D03*
X385703750Y-101758750D03*
X429926750Y-85248750D03*
X442853750Y-82708750D03*
X410876750Y-85248750D03*
X423803750Y-82708750D03*
X404753750Y-82708750D03*
X391826750Y-85248750D03*
X372776750Y-85248750D03*
X385703750Y-82708750D03*
X429926750Y-60642500D03*
X442853750Y-58102500D03*
X410876750Y-60642500D03*
X423803750Y-58102500D03*
X404753750Y-58102500D03*
X391826750Y-60642500D03*
X385703750Y-58102500D03*
X372776750Y-60642500D03*
X322997500Y-58102500D03*
X310070500Y-60642500D03*
X329120500Y-85248750D03*
X342047500Y-82708750D03*
X322997500Y-82708750D03*
X310070500Y-85248750D03*
X361097500Y-58102500D03*
X348170500Y-60642500D03*
X342047500Y-58102500D03*
X329120500Y-60642500D03*
X361097500Y-158908750D03*
X348170500Y-161448750D03*
X342047500Y-139858750D03*
X329120500Y-142398750D03*
X329120500Y-161448750D03*
X342047500Y-158908750D03*
X310070500Y-104298750D03*
X322997500Y-101758750D03*
X322997500Y-158908750D03*
X310070500Y-161448750D03*
X342047500Y-101758750D03*
X329120500Y-104298750D03*
X361097500Y-82708750D03*
X348170500Y-85248750D03*
X348170500Y-104298750D03*
X361097500Y-101758750D03*
X283876750Y-161448750D03*
X296803750Y-158908750D03*
X260064250Y-161448750D03*
X272991250Y-158908750D03*
X236251750Y-161448750D03*
X249178750Y-158908750D03*
X212439250Y-161448750D03*
X225366250Y-158908750D03*
X141001750Y-161448750D03*
X153928750Y-158908750D03*
X69564250Y-161448750D03*
X82491250Y-158908750D03*
X45751750Y-161448750D03*
X58678750Y-158908750D03*
X269589250Y-142398750D03*
X282516250Y-139858750D03*
X233870500Y-142398750D03*
X246797500Y-139858750D03*
X214820500Y-142398750D03*
X227747500Y-139858750D03*
X195770500Y-142398750D03*
X208697500Y-139858750D03*
X176720500Y-142398750D03*
X189647500Y-139858750D03*
X157670500Y-142398750D03*
X170597500Y-139858750D03*
X138620500Y-142398750D03*
X151547500Y-139858750D03*
X119570500Y-142398750D03*
X132497500Y-139858750D03*
X100520500Y-142398750D03*
X113447500Y-139858750D03*
X81470500Y-142398750D03*
X94397500Y-139858750D03*
X62420500Y-142398750D03*
X75347500Y-139858750D03*
X274351750Y-123348750D03*
X287278750Y-120808750D03*
X243395500Y-123348750D03*
X256322500Y-120808750D03*
X224345500Y-123348750D03*
X237272500Y-120808750D03*
X205295500Y-123348750D03*
X218222500Y-120808750D03*
X186245500Y-123348750D03*
X199172500Y-120808750D03*
X167195500Y-123348750D03*
X180122500Y-120808750D03*
X148145500Y-123348750D03*
X161072500Y-120808750D03*
X129095500Y-123348750D03*
X142022500Y-120808750D03*
X110045500Y-123348750D03*
X122972500Y-120808750D03*
X90995500Y-123348750D03*
X103922500Y-120808750D03*
X71945500Y-123348750D03*
X84872500Y-120808750D03*
X52895500Y-123348750D03*
X65822500Y-120808750D03*
X281495500Y-104298750D03*
X294422500Y-101758750D03*
X257683000Y-104298750D03*
X270610000Y-101758750D03*
X238633000Y-104298750D03*
X251560000Y-101758750D03*
X219583000Y-104298750D03*
X232510000Y-101758750D03*
X200533000Y-104298750D03*
X213460000Y-101758750D03*
X181483000Y-104298750D03*
X194410000Y-101758750D03*
X162433000Y-104298750D03*
X175360000Y-101758750D03*
X143383000Y-104298750D03*
X156310000Y-101758750D03*
X124333000Y-104298750D03*
X137260000Y-101758750D03*
X105283000Y-104298750D03*
X118210000Y-101758750D03*
X86233000Y-104298750D03*
X99160000Y-101758750D03*
X67183000Y-104298750D03*
X80110000Y-101758750D03*
X48133000Y-104298750D03*
X61060000Y-101758750D03*
X21939250Y-161448750D03*
X34866250Y-158908750D03*
X31464250Y-142398750D03*
X44391250Y-139858750D03*
X26701750Y-123348750D03*
X39628750Y-120808750D03*
X285464250Y-60642500D03*
X298391250Y-58102500D03*
X266414250Y-60642500D03*
X279341250Y-58102500D03*
X228314250Y-60642500D03*
X241241250Y-58102500D03*
X247364250Y-60642500D03*
X260291250Y-58102500D03*
X213460000Y-58102500D03*
X200533000Y-60642500D03*
X181483000Y-60642500D03*
X194410000Y-58102500D03*
X162433000Y-60642500D03*
X175360000Y-58102500D03*
X156310000Y-58102500D03*
X143383000Y-60642500D03*
X248158000Y-85248750D03*
X261085000Y-82708750D03*
X229108000Y-85248750D03*
X242035000Y-82708750D03*
X210058000Y-85248750D03*
X222985000Y-82708750D03*
X24320500Y-104298750D03*
X37247500Y-101758750D03*
X276733000Y-85248750D03*
X289660000Y-82708750D03*
X114808000Y-85248750D03*
X127735000Y-82708750D03*
X95758000Y-85248750D03*
X108685000Y-82708750D03*
X171958000Y-85248750D03*
X184885000Y-82708750D03*
X152908000Y-85248750D03*
X165835000Y-82708750D03*
X89635000Y-82708750D03*
X76708000Y-85248750D03*
X191008000Y-85248750D03*
X203935000Y-82708750D03*
X133858000Y-85248750D03*
X146785000Y-82708750D03*
X38608000Y-85248750D03*
X51535000Y-82708750D03*
X57658000Y-85248750D03*
X70585000Y-82708750D03*
X19558000Y-85248750D03*
X32485000Y-82708750D03*
X32485000Y-58102500D03*
X19558000Y-60642500D03*
M02*
