G04 #@! TF.GenerationSoftware,KiCad,Pcbnew,(5.1.10)-1*
G04 #@! TF.CreationDate,2021-10-17T00:38:23+10:00*
G04 #@! TF.ProjectId,RedPyKeeb_mainboard,52656450-794b-4656-9562-5f6d61696e62,rev?*
G04 #@! TF.SameCoordinates,Original*
G04 #@! TF.FileFunction,Legend,Bot*
G04 #@! TF.FilePolarity,Positive*
%FSLAX46Y46*%
G04 Gerber Fmt 4.6, Leading zero omitted, Abs format (unit mm)*
G04 Created by KiCad (PCBNEW (5.1.10)-1) date 2021-10-17 00:38:23*
%MOMM*%
%LPD*%
G01*
G04 APERTURE LIST*
%ADD10C,0.120000*%
%ADD11C,0.150000*%
%ADD12R,1.000000X3.150000*%
%ADD13C,0.800000*%
%ADD14C,1.600000*%
%ADD15R,1.600000X1.600000*%
%ADD16R,2.550000X2.500000*%
%ADD17C,1.750000*%
%ADD18C,4.000000*%
%ADD19C,3.000000*%
G04 APERTURE END LIST*
D10*
X101800000Y-58262500D02*
X96700000Y-58262500D01*
X105700000Y-62462500D02*
X100600000Y-62462500D01*
X103800000Y-56262500D02*
G75*
G02*
X101800000Y-58262500I-2000000J0D01*
G01*
X107700000Y-60462500D02*
G75*
G02*
X105700000Y-62462500I-2000000J0D01*
G01*
X82750000Y-58262500D02*
X77650000Y-58262500D01*
X86650000Y-62462500D02*
X81550000Y-62462500D01*
X84750000Y-56262500D02*
G75*
G02*
X82750000Y-58262500I-2000000J0D01*
G01*
X88650000Y-60462500D02*
G75*
G02*
X86650000Y-62462500I-2000000J0D01*
G01*
X120850000Y-58262500D02*
X115750000Y-58262500D01*
X124750000Y-62462500D02*
X119650000Y-62462500D01*
X122850000Y-56262500D02*
G75*
G02*
X120850000Y-58262500I-2000000J0D01*
G01*
X126750000Y-60462500D02*
G75*
G02*
X124750000Y-62462500I-2000000J0D01*
G01*
X67600000Y-62462500D02*
X62500000Y-62462500D01*
X63700000Y-58262500D02*
X58600000Y-58262500D01*
X69600000Y-60462500D02*
G75*
G02*
X67600000Y-62462500I-2000000J0D01*
G01*
X65700000Y-56262500D02*
G75*
G02*
X63700000Y-58262500I-2000000J0D01*
G01*
X424163700Y-28746900D02*
X424163700Y-27496900D01*
X423538700Y-28121900D02*
X424788700Y-28121900D01*
X425028700Y-21166337D02*
X426093137Y-20101900D01*
X425028700Y-29557463D02*
X426093137Y-30621900D01*
X425028700Y-29557463D02*
X425028700Y-26871900D01*
X425028700Y-21166337D02*
X425028700Y-23851900D01*
X426093137Y-20101900D02*
X435548700Y-20101900D01*
X426093137Y-30621900D02*
X435548700Y-30621900D01*
X435548700Y-30621900D02*
X435548700Y-26871900D01*
X435548700Y-20101900D02*
X435548700Y-23851900D01*
X439868750Y-153743750D02*
X434768750Y-153743750D01*
X435968750Y-149543750D02*
X430868750Y-149543750D01*
X437968750Y-147543750D02*
G75*
G02*
X435968750Y-149543750I-2000000J0D01*
G01*
X441868750Y-151743750D02*
G75*
G02*
X439868750Y-153743750I-2000000J0D01*
G01*
X420818750Y-163268750D02*
X415718750Y-163268750D01*
X416918750Y-159068750D02*
X411818750Y-159068750D01*
X418918750Y-157068750D02*
G75*
G02*
X416918750Y-159068750I-2000000J0D01*
G01*
X422818750Y-161268750D02*
G75*
G02*
X420818750Y-163268750I-2000000J0D01*
G01*
X420818750Y-144218750D02*
X415718750Y-144218750D01*
X416918750Y-140018750D02*
X411818750Y-140018750D01*
X418918750Y-138018750D02*
G75*
G02*
X416918750Y-140018750I-2000000J0D01*
G01*
X422818750Y-142218750D02*
G75*
G02*
X420818750Y-144218750I-2000000J0D01*
G01*
X401768750Y-144218750D02*
X396668750Y-144218750D01*
X397868750Y-140018750D02*
X392768750Y-140018750D01*
X399868750Y-138018750D02*
G75*
G02*
X397868750Y-140018750I-2000000J0D01*
G01*
X403768750Y-142218750D02*
G75*
G02*
X401768750Y-144218750I-2000000J0D01*
G01*
X420818750Y-125168750D02*
X415718750Y-125168750D01*
X416918750Y-120968750D02*
X411818750Y-120968750D01*
X418918750Y-118968750D02*
G75*
G02*
X416918750Y-120968750I-2000000J0D01*
G01*
X422818750Y-123168750D02*
G75*
G02*
X420818750Y-125168750I-2000000J0D01*
G01*
X401768750Y-125168750D02*
X396668750Y-125168750D01*
X397868750Y-120968750D02*
X392768750Y-120968750D01*
X399868750Y-118968750D02*
G75*
G02*
X397868750Y-120968750I-2000000J0D01*
G01*
X403768750Y-123168750D02*
G75*
G02*
X401768750Y-125168750I-2000000J0D01*
G01*
X392243750Y-163268750D02*
X387143750Y-163268750D01*
X388343750Y-159068750D02*
X383243750Y-159068750D01*
X390343750Y-157068750D02*
G75*
G02*
X388343750Y-159068750I-2000000J0D01*
G01*
X394243750Y-161268750D02*
G75*
G02*
X392243750Y-163268750I-2000000J0D01*
G01*
X382718750Y-144218750D02*
X377618750Y-144218750D01*
X378818750Y-140018750D02*
X373718750Y-140018750D01*
X380818750Y-138018750D02*
G75*
G02*
X378818750Y-140018750I-2000000J0D01*
G01*
X384718750Y-142218750D02*
G75*
G02*
X382718750Y-144218750I-2000000J0D01*
G01*
X382718750Y-125168750D02*
X377618750Y-125168750D01*
X378818750Y-120968750D02*
X373718750Y-120968750D01*
X380818750Y-118968750D02*
G75*
G02*
X378818750Y-120968750I-2000000J0D01*
G01*
X384718750Y-123168750D02*
G75*
G02*
X382718750Y-125168750I-2000000J0D01*
G01*
X439868750Y-115643750D02*
X434768750Y-115643750D01*
X435968750Y-111443750D02*
X430868750Y-111443750D01*
X437968750Y-109443750D02*
G75*
G02*
X435968750Y-111443750I-2000000J0D01*
G01*
X441868750Y-113643750D02*
G75*
G02*
X439868750Y-115643750I-2000000J0D01*
G01*
X420818750Y-106118750D02*
X415718750Y-106118750D01*
X416918750Y-101918750D02*
X411818750Y-101918750D01*
X418918750Y-99918750D02*
G75*
G02*
X416918750Y-101918750I-2000000J0D01*
G01*
X422818750Y-104118750D02*
G75*
G02*
X420818750Y-106118750I-2000000J0D01*
G01*
X401768750Y-106118750D02*
X396668750Y-106118750D01*
X397868750Y-101918750D02*
X392768750Y-101918750D01*
X399868750Y-99918750D02*
G75*
G02*
X397868750Y-101918750I-2000000J0D01*
G01*
X403768750Y-104118750D02*
G75*
G02*
X401768750Y-106118750I-2000000J0D01*
G01*
X382718750Y-106118750D02*
X377618750Y-106118750D01*
X378818750Y-101918750D02*
X373718750Y-101918750D01*
X380818750Y-99918750D02*
G75*
G02*
X378818750Y-101918750I-2000000J0D01*
G01*
X384718750Y-104118750D02*
G75*
G02*
X382718750Y-106118750I-2000000J0D01*
G01*
X439868750Y-87068750D02*
X434768750Y-87068750D01*
X435968750Y-82868750D02*
X430868750Y-82868750D01*
X437968750Y-80868750D02*
G75*
G02*
X435968750Y-82868750I-2000000J0D01*
G01*
X441868750Y-85068750D02*
G75*
G02*
X439868750Y-87068750I-2000000J0D01*
G01*
X420818750Y-87068750D02*
X415718750Y-87068750D01*
X416918750Y-82868750D02*
X411818750Y-82868750D01*
X418918750Y-80868750D02*
G75*
G02*
X416918750Y-82868750I-2000000J0D01*
G01*
X422818750Y-85068750D02*
G75*
G02*
X420818750Y-87068750I-2000000J0D01*
G01*
X401768750Y-87068750D02*
X396668750Y-87068750D01*
X397868750Y-82868750D02*
X392768750Y-82868750D01*
X403768750Y-85068750D02*
G75*
G02*
X401768750Y-87068750I-2000000J0D01*
G01*
X399868750Y-80868750D02*
G75*
G02*
X397868750Y-82868750I-2000000J0D01*
G01*
X382718750Y-87068750D02*
X377618750Y-87068750D01*
X378818750Y-82868750D02*
X373718750Y-82868750D01*
X380818750Y-80868750D02*
G75*
G02*
X378818750Y-82868750I-2000000J0D01*
G01*
X384718750Y-85068750D02*
G75*
G02*
X382718750Y-87068750I-2000000J0D01*
G01*
X439868750Y-62462500D02*
X434768750Y-62462500D01*
X435968750Y-58262500D02*
X430868750Y-58262500D01*
X437968750Y-56262500D02*
G75*
G02*
X435968750Y-58262500I-2000000J0D01*
G01*
X441868750Y-60462500D02*
G75*
G02*
X439868750Y-62462500I-2000000J0D01*
G01*
X420818750Y-62462500D02*
X415718750Y-62462500D01*
X416918750Y-58262500D02*
X411818750Y-58262500D01*
X418918750Y-56262500D02*
G75*
G02*
X416918750Y-58262500I-2000000J0D01*
G01*
X422818750Y-60462500D02*
G75*
G02*
X420818750Y-62462500I-2000000J0D01*
G01*
X401768750Y-62462500D02*
X396668750Y-62462500D01*
X397868750Y-58262500D02*
X392768750Y-58262500D01*
X403768750Y-60462500D02*
G75*
G02*
X401768750Y-62462500I-2000000J0D01*
G01*
X399868750Y-56262500D02*
G75*
G02*
X397868750Y-58262500I-2000000J0D01*
G01*
X382718750Y-62462500D02*
X377618750Y-62462500D01*
X378818750Y-58262500D02*
X373718750Y-58262500D01*
X384718750Y-60462500D02*
G75*
G02*
X382718750Y-62462500I-2000000J0D01*
G01*
X380818750Y-56262500D02*
G75*
G02*
X378818750Y-58262500I-2000000J0D01*
G01*
X320012500Y-62462500D02*
X314912500Y-62462500D01*
X316112500Y-58262500D02*
X311012500Y-58262500D01*
X322012500Y-60462500D02*
G75*
G02*
X320012500Y-62462500I-2000000J0D01*
G01*
X318112500Y-56262500D02*
G75*
G02*
X316112500Y-58262500I-2000000J0D01*
G01*
X339062500Y-87068750D02*
X333962500Y-87068750D01*
X335162500Y-82868750D02*
X330062500Y-82868750D01*
X337162500Y-80868750D02*
G75*
G02*
X335162500Y-82868750I-2000000J0D01*
G01*
X341062500Y-85068750D02*
G75*
G02*
X339062500Y-87068750I-2000000J0D01*
G01*
X320012500Y-87068750D02*
X314912500Y-87068750D01*
X316112500Y-82868750D02*
X311012500Y-82868750D01*
X322012500Y-85068750D02*
G75*
G02*
X320012500Y-87068750I-2000000J0D01*
G01*
X318112500Y-80868750D02*
G75*
G02*
X316112500Y-82868750I-2000000J0D01*
G01*
X358112500Y-62462500D02*
X353012500Y-62462500D01*
X354212500Y-58262500D02*
X349112500Y-58262500D01*
X360112500Y-60462500D02*
G75*
G02*
X358112500Y-62462500I-2000000J0D01*
G01*
X356212500Y-56262500D02*
G75*
G02*
X354212500Y-58262500I-2000000J0D01*
G01*
X339062500Y-62462500D02*
X333962500Y-62462500D01*
X335162500Y-58262500D02*
X330062500Y-58262500D01*
X341062500Y-60462500D02*
G75*
G02*
X339062500Y-62462500I-2000000J0D01*
G01*
X337162500Y-56262500D02*
G75*
G02*
X335162500Y-58262500I-2000000J0D01*
G01*
X358112500Y-163268750D02*
X353012500Y-163268750D01*
X354212500Y-159068750D02*
X349112500Y-159068750D01*
X360112500Y-161268750D02*
G75*
G02*
X358112500Y-163268750I-2000000J0D01*
G01*
X356212500Y-157068750D02*
G75*
G02*
X354212500Y-159068750I-2000000J0D01*
G01*
X339062500Y-144218750D02*
X333962500Y-144218750D01*
X335162500Y-140018750D02*
X330062500Y-140018750D01*
X341062500Y-142218750D02*
G75*
G02*
X339062500Y-144218750I-2000000J0D01*
G01*
X337162500Y-138018750D02*
G75*
G02*
X335162500Y-140018750I-2000000J0D01*
G01*
X339062500Y-163268750D02*
X333962500Y-163268750D01*
X335162500Y-159068750D02*
X330062500Y-159068750D01*
X337162500Y-157068750D02*
G75*
G02*
X335162500Y-159068750I-2000000J0D01*
G01*
X341062500Y-161268750D02*
G75*
G02*
X339062500Y-163268750I-2000000J0D01*
G01*
X320012500Y-106118750D02*
X314912500Y-106118750D01*
X316112500Y-101918750D02*
X311012500Y-101918750D01*
X318112500Y-99918750D02*
G75*
G02*
X316112500Y-101918750I-2000000J0D01*
G01*
X322012500Y-104118750D02*
G75*
G02*
X320012500Y-106118750I-2000000J0D01*
G01*
X320012500Y-163268750D02*
X314912500Y-163268750D01*
X316112500Y-159068750D02*
X311012500Y-159068750D01*
X322012500Y-161268750D02*
G75*
G02*
X320012500Y-163268750I-2000000J0D01*
G01*
X318112500Y-157068750D02*
G75*
G02*
X316112500Y-159068750I-2000000J0D01*
G01*
X339062500Y-106118750D02*
X333962500Y-106118750D01*
X335162500Y-101918750D02*
X330062500Y-101918750D01*
X341062500Y-104118750D02*
G75*
G02*
X339062500Y-106118750I-2000000J0D01*
G01*
X337162500Y-99918750D02*
G75*
G02*
X335162500Y-101918750I-2000000J0D01*
G01*
X358112500Y-87068750D02*
X353012500Y-87068750D01*
X354212500Y-82868750D02*
X349112500Y-82868750D01*
X360112500Y-85068750D02*
G75*
G02*
X358112500Y-87068750I-2000000J0D01*
G01*
X356212500Y-80868750D02*
G75*
G02*
X354212500Y-82868750I-2000000J0D01*
G01*
X358112500Y-106118750D02*
X353012500Y-106118750D01*
X354212500Y-101918750D02*
X349112500Y-101918750D01*
X356212500Y-99918750D02*
G75*
G02*
X354212500Y-101918750I-2000000J0D01*
G01*
X360112500Y-104118750D02*
G75*
G02*
X358112500Y-106118750I-2000000J0D01*
G01*
X293818750Y-163268750D02*
X288718750Y-163268750D01*
X289918750Y-159068750D02*
X284818750Y-159068750D01*
X291918750Y-157068750D02*
G75*
G02*
X289918750Y-159068750I-2000000J0D01*
G01*
X295818750Y-161268750D02*
G75*
G02*
X293818750Y-163268750I-2000000J0D01*
G01*
X270006250Y-163268750D02*
X264906250Y-163268750D01*
X266106250Y-159068750D02*
X261006250Y-159068750D01*
X268106250Y-157068750D02*
G75*
G02*
X266106250Y-159068750I-2000000J0D01*
G01*
X272006250Y-161268750D02*
G75*
G02*
X270006250Y-163268750I-2000000J0D01*
G01*
X246193750Y-163268750D02*
X241093750Y-163268750D01*
X242293750Y-159068750D02*
X237193750Y-159068750D01*
X244293750Y-157068750D02*
G75*
G02*
X242293750Y-159068750I-2000000J0D01*
G01*
X248193750Y-161268750D02*
G75*
G02*
X246193750Y-163268750I-2000000J0D01*
G01*
X222381250Y-163268750D02*
X217281250Y-163268750D01*
X218481250Y-159068750D02*
X213381250Y-159068750D01*
X220481250Y-157068750D02*
G75*
G02*
X218481250Y-159068750I-2000000J0D01*
G01*
X224381250Y-161268750D02*
G75*
G02*
X222381250Y-163268750I-2000000J0D01*
G01*
X150943750Y-163268750D02*
X145843750Y-163268750D01*
X147043750Y-159068750D02*
X141943750Y-159068750D01*
X149043750Y-157068750D02*
G75*
G02*
X147043750Y-159068750I-2000000J0D01*
G01*
X152943750Y-161268750D02*
G75*
G02*
X150943750Y-163268750I-2000000J0D01*
G01*
X79506250Y-163268750D02*
X74406250Y-163268750D01*
X75606250Y-159068750D02*
X70506250Y-159068750D01*
X77606250Y-157068750D02*
G75*
G02*
X75606250Y-159068750I-2000000J0D01*
G01*
X81506250Y-161268750D02*
G75*
G02*
X79506250Y-163268750I-2000000J0D01*
G01*
X55693750Y-163268750D02*
X50593750Y-163268750D01*
X51793750Y-159068750D02*
X46693750Y-159068750D01*
X53793750Y-157068750D02*
G75*
G02*
X51793750Y-159068750I-2000000J0D01*
G01*
X57693750Y-161268750D02*
G75*
G02*
X55693750Y-163268750I-2000000J0D01*
G01*
X279531250Y-144218750D02*
X274431250Y-144218750D01*
X275631250Y-140018750D02*
X270531250Y-140018750D01*
X277631250Y-138018750D02*
G75*
G02*
X275631250Y-140018750I-2000000J0D01*
G01*
X281531250Y-142218750D02*
G75*
G02*
X279531250Y-144218750I-2000000J0D01*
G01*
X243812500Y-144218750D02*
X238712500Y-144218750D01*
X239912500Y-140018750D02*
X234812500Y-140018750D01*
X241912500Y-138018750D02*
G75*
G02*
X239912500Y-140018750I-2000000J0D01*
G01*
X245812500Y-142218750D02*
G75*
G02*
X243812500Y-144218750I-2000000J0D01*
G01*
X224762500Y-144218750D02*
X219662500Y-144218750D01*
X220862500Y-140018750D02*
X215762500Y-140018750D01*
X222862500Y-138018750D02*
G75*
G02*
X220862500Y-140018750I-2000000J0D01*
G01*
X226762500Y-142218750D02*
G75*
G02*
X224762500Y-144218750I-2000000J0D01*
G01*
X205712500Y-144218750D02*
X200612500Y-144218750D01*
X201812500Y-140018750D02*
X196712500Y-140018750D01*
X203812500Y-138018750D02*
G75*
G02*
X201812500Y-140018750I-2000000J0D01*
G01*
X207712500Y-142218750D02*
G75*
G02*
X205712500Y-144218750I-2000000J0D01*
G01*
X186662500Y-144218750D02*
X181562500Y-144218750D01*
X182762500Y-140018750D02*
X177662500Y-140018750D01*
X184762500Y-138018750D02*
G75*
G02*
X182762500Y-140018750I-2000000J0D01*
G01*
X188662500Y-142218750D02*
G75*
G02*
X186662500Y-144218750I-2000000J0D01*
G01*
X167612500Y-144218750D02*
X162512500Y-144218750D01*
X163712500Y-140018750D02*
X158612500Y-140018750D01*
X165712500Y-138018750D02*
G75*
G02*
X163712500Y-140018750I-2000000J0D01*
G01*
X169612500Y-142218750D02*
G75*
G02*
X167612500Y-144218750I-2000000J0D01*
G01*
X148562500Y-144218750D02*
X143462500Y-144218750D01*
X144662500Y-140018750D02*
X139562500Y-140018750D01*
X146662500Y-138018750D02*
G75*
G02*
X144662500Y-140018750I-2000000J0D01*
G01*
X150562500Y-142218750D02*
G75*
G02*
X148562500Y-144218750I-2000000J0D01*
G01*
X129512500Y-144218750D02*
X124412500Y-144218750D01*
X125612500Y-140018750D02*
X120512500Y-140018750D01*
X127612500Y-138018750D02*
G75*
G02*
X125612500Y-140018750I-2000000J0D01*
G01*
X131512500Y-142218750D02*
G75*
G02*
X129512500Y-144218750I-2000000J0D01*
G01*
X110462500Y-144218750D02*
X105362500Y-144218750D01*
X106562500Y-140018750D02*
X101462500Y-140018750D01*
X108562500Y-138018750D02*
G75*
G02*
X106562500Y-140018750I-2000000J0D01*
G01*
X112462500Y-142218750D02*
G75*
G02*
X110462500Y-144218750I-2000000J0D01*
G01*
X91412500Y-144218750D02*
X86312500Y-144218750D01*
X87512500Y-140018750D02*
X82412500Y-140018750D01*
X89512500Y-138018750D02*
G75*
G02*
X87512500Y-140018750I-2000000J0D01*
G01*
X93412500Y-142218750D02*
G75*
G02*
X91412500Y-144218750I-2000000J0D01*
G01*
X72362500Y-144218750D02*
X67262500Y-144218750D01*
X68462500Y-140018750D02*
X63362500Y-140018750D01*
X70462500Y-138018750D02*
G75*
G02*
X68462500Y-140018750I-2000000J0D01*
G01*
X74362500Y-142218750D02*
G75*
G02*
X72362500Y-144218750I-2000000J0D01*
G01*
X284293750Y-125168750D02*
X279193750Y-125168750D01*
X280393750Y-120968750D02*
X275293750Y-120968750D01*
X282393750Y-118968750D02*
G75*
G02*
X280393750Y-120968750I-2000000J0D01*
G01*
X286293750Y-123168750D02*
G75*
G02*
X284293750Y-125168750I-2000000J0D01*
G01*
X253337500Y-125168750D02*
X248237500Y-125168750D01*
X249437500Y-120968750D02*
X244337500Y-120968750D01*
X251437500Y-118968750D02*
G75*
G02*
X249437500Y-120968750I-2000000J0D01*
G01*
X255337500Y-123168750D02*
G75*
G02*
X253337500Y-125168750I-2000000J0D01*
G01*
X234287500Y-125168750D02*
X229187500Y-125168750D01*
X230387500Y-120968750D02*
X225287500Y-120968750D01*
X232387500Y-118968750D02*
G75*
G02*
X230387500Y-120968750I-2000000J0D01*
G01*
X236287500Y-123168750D02*
G75*
G02*
X234287500Y-125168750I-2000000J0D01*
G01*
X215237500Y-125168750D02*
X210137500Y-125168750D01*
X211337500Y-120968750D02*
X206237500Y-120968750D01*
X213337500Y-118968750D02*
G75*
G02*
X211337500Y-120968750I-2000000J0D01*
G01*
X217237500Y-123168750D02*
G75*
G02*
X215237500Y-125168750I-2000000J0D01*
G01*
X196187500Y-125168750D02*
X191087500Y-125168750D01*
X192287500Y-120968750D02*
X187187500Y-120968750D01*
X194287500Y-118968750D02*
G75*
G02*
X192287500Y-120968750I-2000000J0D01*
G01*
X198187500Y-123168750D02*
G75*
G02*
X196187500Y-125168750I-2000000J0D01*
G01*
X177137500Y-125168750D02*
X172037500Y-125168750D01*
X173237500Y-120968750D02*
X168137500Y-120968750D01*
X175237500Y-118968750D02*
G75*
G02*
X173237500Y-120968750I-2000000J0D01*
G01*
X179137500Y-123168750D02*
G75*
G02*
X177137500Y-125168750I-2000000J0D01*
G01*
X158087500Y-125168750D02*
X152987500Y-125168750D01*
X154187500Y-120968750D02*
X149087500Y-120968750D01*
X156187500Y-118968750D02*
G75*
G02*
X154187500Y-120968750I-2000000J0D01*
G01*
X160087500Y-123168750D02*
G75*
G02*
X158087500Y-125168750I-2000000J0D01*
G01*
X139037500Y-125168750D02*
X133937500Y-125168750D01*
X135137500Y-120968750D02*
X130037500Y-120968750D01*
X137137500Y-118968750D02*
G75*
G02*
X135137500Y-120968750I-2000000J0D01*
G01*
X141037500Y-123168750D02*
G75*
G02*
X139037500Y-125168750I-2000000J0D01*
G01*
X119987500Y-125168750D02*
X114887500Y-125168750D01*
X116087500Y-120968750D02*
X110987500Y-120968750D01*
X118087500Y-118968750D02*
G75*
G02*
X116087500Y-120968750I-2000000J0D01*
G01*
X121987500Y-123168750D02*
G75*
G02*
X119987500Y-125168750I-2000000J0D01*
G01*
X100937500Y-125168750D02*
X95837500Y-125168750D01*
X97037500Y-120968750D02*
X91937500Y-120968750D01*
X99037500Y-118968750D02*
G75*
G02*
X97037500Y-120968750I-2000000J0D01*
G01*
X102937500Y-123168750D02*
G75*
G02*
X100937500Y-125168750I-2000000J0D01*
G01*
X81887500Y-125168750D02*
X76787500Y-125168750D01*
X77987500Y-120968750D02*
X72887500Y-120968750D01*
X79987500Y-118968750D02*
G75*
G02*
X77987500Y-120968750I-2000000J0D01*
G01*
X83887500Y-123168750D02*
G75*
G02*
X81887500Y-125168750I-2000000J0D01*
G01*
X62837500Y-125168750D02*
X57737500Y-125168750D01*
X58937500Y-120968750D02*
X53837500Y-120968750D01*
X60937500Y-118968750D02*
G75*
G02*
X58937500Y-120968750I-2000000J0D01*
G01*
X64837500Y-123168750D02*
G75*
G02*
X62837500Y-125168750I-2000000J0D01*
G01*
X291437500Y-106118750D02*
X286337500Y-106118750D01*
X287537500Y-101918750D02*
X282437500Y-101918750D01*
X289537500Y-99918750D02*
G75*
G02*
X287537500Y-101918750I-2000000J0D01*
G01*
X293437500Y-104118750D02*
G75*
G02*
X291437500Y-106118750I-2000000J0D01*
G01*
X267625000Y-106118750D02*
X262525000Y-106118750D01*
X263725000Y-101918750D02*
X258625000Y-101918750D01*
X265725000Y-99918750D02*
G75*
G02*
X263725000Y-101918750I-2000000J0D01*
G01*
X269625000Y-104118750D02*
G75*
G02*
X267625000Y-106118750I-2000000J0D01*
G01*
X248575000Y-106118750D02*
X243475000Y-106118750D01*
X244675000Y-101918750D02*
X239575000Y-101918750D01*
X246675000Y-99918750D02*
G75*
G02*
X244675000Y-101918750I-2000000J0D01*
G01*
X250575000Y-104118750D02*
G75*
G02*
X248575000Y-106118750I-2000000J0D01*
G01*
X229525000Y-106118750D02*
X224425000Y-106118750D01*
X225625000Y-101918750D02*
X220525000Y-101918750D01*
X227625000Y-99918750D02*
G75*
G02*
X225625000Y-101918750I-2000000J0D01*
G01*
X231525000Y-104118750D02*
G75*
G02*
X229525000Y-106118750I-2000000J0D01*
G01*
X210475000Y-106118750D02*
X205375000Y-106118750D01*
X206575000Y-101918750D02*
X201475000Y-101918750D01*
X208575000Y-99918750D02*
G75*
G02*
X206575000Y-101918750I-2000000J0D01*
G01*
X212475000Y-104118750D02*
G75*
G02*
X210475000Y-106118750I-2000000J0D01*
G01*
X191425000Y-106118750D02*
X186325000Y-106118750D01*
X187525000Y-101918750D02*
X182425000Y-101918750D01*
X189525000Y-99918750D02*
G75*
G02*
X187525000Y-101918750I-2000000J0D01*
G01*
X193425000Y-104118750D02*
G75*
G02*
X191425000Y-106118750I-2000000J0D01*
G01*
X172375000Y-106118750D02*
X167275000Y-106118750D01*
X168475000Y-101918750D02*
X163375000Y-101918750D01*
X170475000Y-99918750D02*
G75*
G02*
X168475000Y-101918750I-2000000J0D01*
G01*
X174375000Y-104118750D02*
G75*
G02*
X172375000Y-106118750I-2000000J0D01*
G01*
X153325000Y-106118750D02*
X148225000Y-106118750D01*
X149425000Y-101918750D02*
X144325000Y-101918750D01*
X151425000Y-99918750D02*
G75*
G02*
X149425000Y-101918750I-2000000J0D01*
G01*
X155325000Y-104118750D02*
G75*
G02*
X153325000Y-106118750I-2000000J0D01*
G01*
X134275000Y-106118750D02*
X129175000Y-106118750D01*
X130375000Y-101918750D02*
X125275000Y-101918750D01*
X132375000Y-99918750D02*
G75*
G02*
X130375000Y-101918750I-2000000J0D01*
G01*
X136275000Y-104118750D02*
G75*
G02*
X134275000Y-106118750I-2000000J0D01*
G01*
X115225000Y-106118750D02*
X110125000Y-106118750D01*
X111325000Y-101918750D02*
X106225000Y-101918750D01*
X113325000Y-99918750D02*
G75*
G02*
X111325000Y-101918750I-2000000J0D01*
G01*
X117225000Y-104118750D02*
G75*
G02*
X115225000Y-106118750I-2000000J0D01*
G01*
X96175000Y-106118750D02*
X91075000Y-106118750D01*
X92275000Y-101918750D02*
X87175000Y-101918750D01*
X94275000Y-99918750D02*
G75*
G02*
X92275000Y-101918750I-2000000J0D01*
G01*
X98175000Y-104118750D02*
G75*
G02*
X96175000Y-106118750I-2000000J0D01*
G01*
X77125000Y-106118750D02*
X72025000Y-106118750D01*
X73225000Y-101918750D02*
X68125000Y-101918750D01*
X75225000Y-99918750D02*
G75*
G02*
X73225000Y-101918750I-2000000J0D01*
G01*
X79125000Y-104118750D02*
G75*
G02*
X77125000Y-106118750I-2000000J0D01*
G01*
X58075000Y-106118750D02*
X52975000Y-106118750D01*
X54175000Y-101918750D02*
X49075000Y-101918750D01*
X56175000Y-99918750D02*
G75*
G02*
X54175000Y-101918750I-2000000J0D01*
G01*
X60075000Y-104118750D02*
G75*
G02*
X58075000Y-106118750I-2000000J0D01*
G01*
X31881250Y-163268750D02*
X26781250Y-163268750D01*
X27981250Y-159068750D02*
X22881250Y-159068750D01*
X29981250Y-157068750D02*
G75*
G02*
X27981250Y-159068750I-2000000J0D01*
G01*
X33881250Y-161268750D02*
G75*
G02*
X31881250Y-163268750I-2000000J0D01*
G01*
X41406250Y-144218750D02*
X36306250Y-144218750D01*
X37506250Y-140018750D02*
X32406250Y-140018750D01*
X39506250Y-138018750D02*
G75*
G02*
X37506250Y-140018750I-2000000J0D01*
G01*
X43406250Y-142218750D02*
G75*
G02*
X41406250Y-144218750I-2000000J0D01*
G01*
X36643750Y-125168750D02*
X31543750Y-125168750D01*
X32743750Y-120968750D02*
X27643750Y-120968750D01*
X34743750Y-118968750D02*
G75*
G02*
X32743750Y-120968750I-2000000J0D01*
G01*
X38643750Y-123168750D02*
G75*
G02*
X36643750Y-125168750I-2000000J0D01*
G01*
X291506250Y-58262500D02*
X286406250Y-58262500D01*
X295406250Y-62462500D02*
X290306250Y-62462500D01*
X293506250Y-56262500D02*
G75*
G02*
X291506250Y-58262500I-2000000J0D01*
G01*
X297406250Y-60462500D02*
G75*
G02*
X295406250Y-62462500I-2000000J0D01*
G01*
X272456250Y-58262500D02*
X267356250Y-58262500D01*
X276356250Y-62462500D02*
X271256250Y-62462500D01*
X274456250Y-56262500D02*
G75*
G02*
X272456250Y-58262500I-2000000J0D01*
G01*
X278356250Y-60462500D02*
G75*
G02*
X276356250Y-62462500I-2000000J0D01*
G01*
X234356250Y-58262500D02*
X229256250Y-58262500D01*
X238256250Y-62462500D02*
X233156250Y-62462500D01*
X236356250Y-56262500D02*
G75*
G02*
X234356250Y-58262500I-2000000J0D01*
G01*
X240256250Y-60462500D02*
G75*
G02*
X238256250Y-62462500I-2000000J0D01*
G01*
X253406250Y-58262500D02*
X248306250Y-58262500D01*
X257306250Y-62462500D02*
X252206250Y-62462500D01*
X255406250Y-56262500D02*
G75*
G02*
X253406250Y-58262500I-2000000J0D01*
G01*
X259306250Y-60462500D02*
G75*
G02*
X257306250Y-62462500I-2000000J0D01*
G01*
X206575000Y-58262500D02*
X201475000Y-58262500D01*
X210475000Y-62462500D02*
X205375000Y-62462500D01*
X212475000Y-60462500D02*
G75*
G02*
X210475000Y-62462500I-2000000J0D01*
G01*
X208575000Y-56262500D02*
G75*
G02*
X206575000Y-58262500I-2000000J0D01*
G01*
X191425000Y-62462500D02*
X186325000Y-62462500D01*
X187525000Y-58262500D02*
X182425000Y-58262500D01*
X189525000Y-56262500D02*
G75*
G02*
X187525000Y-58262500I-2000000J0D01*
G01*
X193425000Y-60462500D02*
G75*
G02*
X191425000Y-62462500I-2000000J0D01*
G01*
X172375000Y-62462500D02*
X167275000Y-62462500D01*
X168475000Y-58262500D02*
X163375000Y-58262500D01*
X170475000Y-56262500D02*
G75*
G02*
X168475000Y-58262500I-2000000J0D01*
G01*
X174375000Y-60462500D02*
G75*
G02*
X172375000Y-62462500I-2000000J0D01*
G01*
X149425000Y-58262500D02*
X144325000Y-58262500D01*
X153325000Y-62462500D02*
X148225000Y-62462500D01*
X155325000Y-60462500D02*
G75*
G02*
X153325000Y-62462500I-2000000J0D01*
G01*
X151425000Y-56262500D02*
G75*
G02*
X149425000Y-58262500I-2000000J0D01*
G01*
X258100000Y-87068750D02*
X253000000Y-87068750D01*
X254200000Y-82868750D02*
X249100000Y-82868750D01*
X256200000Y-80868750D02*
G75*
G02*
X254200000Y-82868750I-2000000J0D01*
G01*
X260100000Y-85068750D02*
G75*
G02*
X258100000Y-87068750I-2000000J0D01*
G01*
X239050000Y-87068750D02*
X233950000Y-87068750D01*
X235150000Y-82868750D02*
X230050000Y-82868750D01*
X237150000Y-80868750D02*
G75*
G02*
X235150000Y-82868750I-2000000J0D01*
G01*
X241050000Y-85068750D02*
G75*
G02*
X239050000Y-87068750I-2000000J0D01*
G01*
X220000000Y-87068750D02*
X214900000Y-87068750D01*
X216100000Y-82868750D02*
X211000000Y-82868750D01*
X218100000Y-80868750D02*
G75*
G02*
X216100000Y-82868750I-2000000J0D01*
G01*
X222000000Y-85068750D02*
G75*
G02*
X220000000Y-87068750I-2000000J0D01*
G01*
X34262500Y-106118750D02*
X29162500Y-106118750D01*
X30362500Y-101918750D02*
X25262500Y-101918750D01*
X32362500Y-99918750D02*
G75*
G02*
X30362500Y-101918750I-2000000J0D01*
G01*
X36262500Y-104118750D02*
G75*
G02*
X34262500Y-106118750I-2000000J0D01*
G01*
X286675000Y-87068750D02*
X281575000Y-87068750D01*
X282775000Y-82868750D02*
X277675000Y-82868750D01*
X284775000Y-80868750D02*
G75*
G02*
X282775000Y-82868750I-2000000J0D01*
G01*
X288675000Y-85068750D02*
G75*
G02*
X286675000Y-87068750I-2000000J0D01*
G01*
X124750000Y-87068750D02*
X119650000Y-87068750D01*
X120850000Y-82868750D02*
X115750000Y-82868750D01*
X122850000Y-80868750D02*
G75*
G02*
X120850000Y-82868750I-2000000J0D01*
G01*
X126750000Y-85068750D02*
G75*
G02*
X124750000Y-87068750I-2000000J0D01*
G01*
X105700000Y-87068750D02*
X100600000Y-87068750D01*
X101800000Y-82868750D02*
X96700000Y-82868750D01*
X103800000Y-80868750D02*
G75*
G02*
X101800000Y-82868750I-2000000J0D01*
G01*
X107700000Y-85068750D02*
G75*
G02*
X105700000Y-87068750I-2000000J0D01*
G01*
X181900000Y-87068750D02*
X176800000Y-87068750D01*
X178000000Y-82868750D02*
X172900000Y-82868750D01*
X180000000Y-80868750D02*
G75*
G02*
X178000000Y-82868750I-2000000J0D01*
G01*
X183900000Y-85068750D02*
G75*
G02*
X181900000Y-87068750I-2000000J0D01*
G01*
X162850000Y-87068750D02*
X157750000Y-87068750D01*
X158950000Y-82868750D02*
X153850000Y-82868750D01*
X160950000Y-80868750D02*
G75*
G02*
X158950000Y-82868750I-2000000J0D01*
G01*
X164850000Y-85068750D02*
G75*
G02*
X162850000Y-87068750I-2000000J0D01*
G01*
X82750000Y-82868750D02*
X77650000Y-82868750D01*
X86650000Y-87068750D02*
X81550000Y-87068750D01*
X88650000Y-85068750D02*
G75*
G02*
X86650000Y-87068750I-2000000J0D01*
G01*
X84750000Y-80868750D02*
G75*
G02*
X82750000Y-82868750I-2000000J0D01*
G01*
X200950000Y-87068750D02*
X195850000Y-87068750D01*
X197050000Y-82868750D02*
X191950000Y-82868750D01*
X199050000Y-80868750D02*
G75*
G02*
X197050000Y-82868750I-2000000J0D01*
G01*
X202950000Y-85068750D02*
G75*
G02*
X200950000Y-87068750I-2000000J0D01*
G01*
X143800000Y-87068750D02*
X138700000Y-87068750D01*
X139900000Y-82868750D02*
X134800000Y-82868750D01*
X141900000Y-80868750D02*
G75*
G02*
X139900000Y-82868750I-2000000J0D01*
G01*
X145800000Y-85068750D02*
G75*
G02*
X143800000Y-87068750I-2000000J0D01*
G01*
X48550000Y-87068750D02*
X43450000Y-87068750D01*
X44650000Y-82868750D02*
X39550000Y-82868750D01*
X46650000Y-80868750D02*
G75*
G02*
X44650000Y-82868750I-2000000J0D01*
G01*
X50550000Y-85068750D02*
G75*
G02*
X48550000Y-87068750I-2000000J0D01*
G01*
X67600000Y-87068750D02*
X62500000Y-87068750D01*
X63700000Y-82868750D02*
X58600000Y-82868750D01*
X65700000Y-80868750D02*
G75*
G02*
X63700000Y-82868750I-2000000J0D01*
G01*
X69600000Y-85068750D02*
G75*
G02*
X67600000Y-87068750I-2000000J0D01*
G01*
X29500000Y-87068750D02*
X24400000Y-87068750D01*
X25600000Y-82868750D02*
X20500000Y-82868750D01*
X27600000Y-80868750D02*
G75*
G02*
X25600000Y-82868750I-2000000J0D01*
G01*
X31500000Y-85068750D02*
G75*
G02*
X29500000Y-87068750I-2000000J0D01*
G01*
X25600000Y-58262500D02*
X20500000Y-58262500D01*
X29500000Y-62462500D02*
X24400000Y-62462500D01*
X31500000Y-60462500D02*
G75*
G02*
X29500000Y-62462500I-2000000J0D01*
G01*
X27600000Y-56262500D02*
G75*
G02*
X25600000Y-58262500I-2000000J0D01*
G01*
D11*
X103052380Y-64014880D02*
X103052380Y-63014880D01*
X102480952Y-64014880D02*
X102909523Y-63443452D01*
X102480952Y-63014880D02*
X103052380Y-63586309D01*
X102147619Y-63014880D02*
X101528571Y-63014880D01*
X101861904Y-63395833D01*
X101719047Y-63395833D01*
X101623809Y-63443452D01*
X101576190Y-63491071D01*
X101528571Y-63586309D01*
X101528571Y-63824404D01*
X101576190Y-63919642D01*
X101623809Y-63967261D01*
X101719047Y-64014880D01*
X102004761Y-64014880D01*
X102100000Y-63967261D01*
X102147619Y-63919642D01*
X101052380Y-63967261D02*
X101052380Y-64014880D01*
X101100000Y-64110119D01*
X101147619Y-64157738D01*
X100433333Y-63014880D02*
X100338095Y-63014880D01*
X100242857Y-63062500D01*
X100195238Y-63110119D01*
X100147619Y-63205357D01*
X100100000Y-63395833D01*
X100100000Y-63633928D01*
X100147619Y-63824404D01*
X100195238Y-63919642D01*
X100242857Y-63967261D01*
X100338095Y-64014880D01*
X100433333Y-64014880D01*
X100528571Y-63967261D01*
X100576190Y-63919642D01*
X100623809Y-63824404D01*
X100671428Y-63633928D01*
X100671428Y-63395833D01*
X100623809Y-63205357D01*
X100576190Y-63110119D01*
X100528571Y-63062500D01*
X100433333Y-63014880D01*
X84002380Y-64014880D02*
X84002380Y-63014880D01*
X83430952Y-64014880D02*
X83859523Y-63443452D01*
X83430952Y-63014880D02*
X84002380Y-63586309D01*
X83050000Y-63110119D02*
X83002380Y-63062500D01*
X82907142Y-63014880D01*
X82669047Y-63014880D01*
X82573809Y-63062500D01*
X82526190Y-63110119D01*
X82478571Y-63205357D01*
X82478571Y-63300595D01*
X82526190Y-63443452D01*
X83097619Y-64014880D01*
X82478571Y-64014880D01*
X82002380Y-63967261D02*
X82002380Y-64014880D01*
X82050000Y-64110119D01*
X82097619Y-64157738D01*
X81383333Y-63014880D02*
X81288095Y-63014880D01*
X81192857Y-63062500D01*
X81145238Y-63110119D01*
X81097619Y-63205357D01*
X81050000Y-63395833D01*
X81050000Y-63633928D01*
X81097619Y-63824404D01*
X81145238Y-63919642D01*
X81192857Y-63967261D01*
X81288095Y-64014880D01*
X81383333Y-64014880D01*
X81478571Y-63967261D01*
X81526190Y-63919642D01*
X81573809Y-63824404D01*
X81621428Y-63633928D01*
X81621428Y-63395833D01*
X81573809Y-63205357D01*
X81526190Y-63110119D01*
X81478571Y-63062500D01*
X81383333Y-63014880D01*
X122102380Y-64014880D02*
X122102380Y-63014880D01*
X121530952Y-64014880D02*
X121959523Y-63443452D01*
X121530952Y-63014880D02*
X122102380Y-63586309D01*
X120673809Y-63348214D02*
X120673809Y-64014880D01*
X120911904Y-62967261D02*
X121150000Y-63681547D01*
X120530952Y-63681547D01*
X120102380Y-63967261D02*
X120102380Y-64014880D01*
X120150000Y-64110119D01*
X120197619Y-64157738D01*
X119483333Y-63014880D02*
X119388095Y-63014880D01*
X119292857Y-63062500D01*
X119245238Y-63110119D01*
X119197619Y-63205357D01*
X119150000Y-63395833D01*
X119150000Y-63633928D01*
X119197619Y-63824404D01*
X119245238Y-63919642D01*
X119292857Y-63967261D01*
X119388095Y-64014880D01*
X119483333Y-64014880D01*
X119578571Y-63967261D01*
X119626190Y-63919642D01*
X119673809Y-63824404D01*
X119721428Y-63633928D01*
X119721428Y-63395833D01*
X119673809Y-63205357D01*
X119626190Y-63110119D01*
X119578571Y-63062500D01*
X119483333Y-63014880D01*
X64952380Y-64014880D02*
X64952380Y-63014880D01*
X64380952Y-64014880D02*
X64809523Y-63443452D01*
X64380952Y-63014880D02*
X64952380Y-63586309D01*
X63428571Y-64014880D02*
X64000000Y-64014880D01*
X63714285Y-64014880D02*
X63714285Y-63014880D01*
X63809523Y-63157738D01*
X63904761Y-63252976D01*
X64000000Y-63300595D01*
X62952380Y-63967261D02*
X62952380Y-64014880D01*
X62999999Y-64110119D01*
X63047619Y-64157738D01*
X62333333Y-63014880D02*
X62238095Y-63014880D01*
X62142857Y-63062500D01*
X62095238Y-63110119D01*
X62047619Y-63205357D01*
X61999999Y-63395833D01*
X61999999Y-63633928D01*
X62047619Y-63824404D01*
X62095238Y-63919642D01*
X62142857Y-63967261D01*
X62238095Y-64014880D01*
X62333333Y-64014880D01*
X62428571Y-63967261D01*
X62476190Y-63919642D01*
X62523809Y-63824404D01*
X62571428Y-63633928D01*
X62571428Y-63395833D01*
X62523809Y-63205357D01*
X62476190Y-63110119D01*
X62428571Y-63062500D01*
X62333333Y-63014880D01*
X430455366Y-31919042D02*
X430502985Y-31966661D01*
X430645842Y-32014280D01*
X430741080Y-32014280D01*
X430883938Y-31966661D01*
X430979176Y-31871423D01*
X431026795Y-31776185D01*
X431074414Y-31585709D01*
X431074414Y-31442852D01*
X431026795Y-31252376D01*
X430979176Y-31157138D01*
X430883938Y-31061900D01*
X430741080Y-31014280D01*
X430645842Y-31014280D01*
X430502985Y-31061900D01*
X430455366Y-31109519D01*
X429598223Y-31014280D02*
X429788700Y-31014280D01*
X429883938Y-31061900D01*
X429931557Y-31109519D01*
X430026795Y-31252376D01*
X430074414Y-31442852D01*
X430074414Y-31823804D01*
X430026795Y-31919042D01*
X429979176Y-31966661D01*
X429883938Y-32014280D01*
X429693461Y-32014280D01*
X429598223Y-31966661D01*
X429550604Y-31919042D01*
X429502985Y-31823804D01*
X429502985Y-31585709D01*
X429550604Y-31490471D01*
X429598223Y-31442852D01*
X429693461Y-31395233D01*
X429883938Y-31395233D01*
X429979176Y-31442852D01*
X430026795Y-31490471D01*
X430074414Y-31585709D01*
X437697321Y-155296130D02*
X437697321Y-154296130D01*
X437125892Y-155296130D02*
X437554464Y-154724702D01*
X437125892Y-154296130D02*
X437697321Y-154867559D01*
X436173511Y-155296130D02*
X436744940Y-155296130D01*
X436459226Y-155296130D02*
X436459226Y-154296130D01*
X436554464Y-154438988D01*
X436649702Y-154534226D01*
X436744940Y-154581845D01*
X435697321Y-155296130D02*
X435506845Y-155296130D01*
X435411607Y-155248511D01*
X435363988Y-155200892D01*
X435268750Y-155058035D01*
X435221130Y-154867559D01*
X435221130Y-154486607D01*
X435268750Y-154391369D01*
X435316369Y-154343750D01*
X435411607Y-154296130D01*
X435602083Y-154296130D01*
X435697321Y-154343750D01*
X435744940Y-154391369D01*
X435792559Y-154486607D01*
X435792559Y-154724702D01*
X435744940Y-154819940D01*
X435697321Y-154867559D01*
X435602083Y-154915178D01*
X435411607Y-154915178D01*
X435316369Y-154867559D01*
X435268750Y-154819940D01*
X435221130Y-154724702D01*
X434744940Y-155248511D02*
X434744940Y-155296130D01*
X434792559Y-155391369D01*
X434840178Y-155438988D01*
X433887797Y-154296130D02*
X434078273Y-154296130D01*
X434173511Y-154343750D01*
X434221130Y-154391369D01*
X434316369Y-154534226D01*
X434363988Y-154724702D01*
X434363988Y-155105654D01*
X434316369Y-155200892D01*
X434268750Y-155248511D01*
X434173511Y-155296130D01*
X433983035Y-155296130D01*
X433887797Y-155248511D01*
X433840178Y-155200892D01*
X433792559Y-155105654D01*
X433792559Y-154867559D01*
X433840178Y-154772321D01*
X433887797Y-154724702D01*
X433983035Y-154677083D01*
X434173511Y-154677083D01*
X434268750Y-154724702D01*
X434316369Y-154772321D01*
X434363988Y-154867559D01*
X418647321Y-164821130D02*
X418647321Y-163821130D01*
X418075892Y-164821130D02*
X418504464Y-164249702D01*
X418075892Y-163821130D02*
X418647321Y-164392559D01*
X417123511Y-164821130D02*
X417694940Y-164821130D01*
X417409226Y-164821130D02*
X417409226Y-163821130D01*
X417504464Y-163963988D01*
X417599702Y-164059226D01*
X417694940Y-164106845D01*
X416552083Y-164249702D02*
X416647321Y-164202083D01*
X416694940Y-164154464D01*
X416742559Y-164059226D01*
X416742559Y-164011607D01*
X416694940Y-163916369D01*
X416647321Y-163868750D01*
X416552083Y-163821130D01*
X416361607Y-163821130D01*
X416266369Y-163868750D01*
X416218750Y-163916369D01*
X416171130Y-164011607D01*
X416171130Y-164059226D01*
X416218750Y-164154464D01*
X416266369Y-164202083D01*
X416361607Y-164249702D01*
X416552083Y-164249702D01*
X416647321Y-164297321D01*
X416694940Y-164344940D01*
X416742559Y-164440178D01*
X416742559Y-164630654D01*
X416694940Y-164725892D01*
X416647321Y-164773511D01*
X416552083Y-164821130D01*
X416361607Y-164821130D01*
X416266369Y-164773511D01*
X416218750Y-164725892D01*
X416171130Y-164630654D01*
X416171130Y-164440178D01*
X416218750Y-164344940D01*
X416266369Y-164297321D01*
X416361607Y-164249702D01*
X415694940Y-164773511D02*
X415694940Y-164821130D01*
X415742559Y-164916369D01*
X415790178Y-164963988D01*
X414837797Y-163821130D02*
X415028273Y-163821130D01*
X415123511Y-163868750D01*
X415171130Y-163916369D01*
X415266369Y-164059226D01*
X415313988Y-164249702D01*
X415313988Y-164630654D01*
X415266369Y-164725892D01*
X415218750Y-164773511D01*
X415123511Y-164821130D01*
X414933035Y-164821130D01*
X414837797Y-164773511D01*
X414790178Y-164725892D01*
X414742559Y-164630654D01*
X414742559Y-164392559D01*
X414790178Y-164297321D01*
X414837797Y-164249702D01*
X414933035Y-164202083D01*
X415123511Y-164202083D01*
X415218750Y-164249702D01*
X415266369Y-164297321D01*
X415313988Y-164392559D01*
X418647321Y-145771130D02*
X418647321Y-144771130D01*
X418075892Y-145771130D02*
X418504464Y-145199702D01*
X418075892Y-144771130D02*
X418647321Y-145342559D01*
X417123511Y-145771130D02*
X417694940Y-145771130D01*
X417409226Y-145771130D02*
X417409226Y-144771130D01*
X417504464Y-144913988D01*
X417599702Y-145009226D01*
X417694940Y-145056845D01*
X416552083Y-145199702D02*
X416647321Y-145152083D01*
X416694940Y-145104464D01*
X416742559Y-145009226D01*
X416742559Y-144961607D01*
X416694940Y-144866369D01*
X416647321Y-144818750D01*
X416552083Y-144771130D01*
X416361607Y-144771130D01*
X416266369Y-144818750D01*
X416218750Y-144866369D01*
X416171130Y-144961607D01*
X416171130Y-145009226D01*
X416218750Y-145104464D01*
X416266369Y-145152083D01*
X416361607Y-145199702D01*
X416552083Y-145199702D01*
X416647321Y-145247321D01*
X416694940Y-145294940D01*
X416742559Y-145390178D01*
X416742559Y-145580654D01*
X416694940Y-145675892D01*
X416647321Y-145723511D01*
X416552083Y-145771130D01*
X416361607Y-145771130D01*
X416266369Y-145723511D01*
X416218750Y-145675892D01*
X416171130Y-145580654D01*
X416171130Y-145390178D01*
X416218750Y-145294940D01*
X416266369Y-145247321D01*
X416361607Y-145199702D01*
X415694940Y-145723511D02*
X415694940Y-145771130D01*
X415742559Y-145866369D01*
X415790178Y-145913988D01*
X414790178Y-144771130D02*
X415266369Y-144771130D01*
X415313988Y-145247321D01*
X415266369Y-145199702D01*
X415171130Y-145152083D01*
X414933035Y-145152083D01*
X414837797Y-145199702D01*
X414790178Y-145247321D01*
X414742559Y-145342559D01*
X414742559Y-145580654D01*
X414790178Y-145675892D01*
X414837797Y-145723511D01*
X414933035Y-145771130D01*
X415171130Y-145771130D01*
X415266369Y-145723511D01*
X415313988Y-145675892D01*
X399597321Y-145771130D02*
X399597321Y-144771130D01*
X399025892Y-145771130D02*
X399454464Y-145199702D01*
X399025892Y-144771130D02*
X399597321Y-145342559D01*
X398073511Y-145771130D02*
X398644940Y-145771130D01*
X398359226Y-145771130D02*
X398359226Y-144771130D01*
X398454464Y-144913988D01*
X398549702Y-145009226D01*
X398644940Y-145056845D01*
X397740178Y-144771130D02*
X397073511Y-144771130D01*
X397502083Y-145771130D01*
X396644940Y-145723511D02*
X396644940Y-145771130D01*
X396692559Y-145866369D01*
X396740178Y-145913988D01*
X395740178Y-144771130D02*
X396216369Y-144771130D01*
X396263988Y-145247321D01*
X396216369Y-145199702D01*
X396121130Y-145152083D01*
X395883035Y-145152083D01*
X395787797Y-145199702D01*
X395740178Y-145247321D01*
X395692559Y-145342559D01*
X395692559Y-145580654D01*
X395740178Y-145675892D01*
X395787797Y-145723511D01*
X395883035Y-145771130D01*
X396121130Y-145771130D01*
X396216369Y-145723511D01*
X396263988Y-145675892D01*
X418647321Y-126721130D02*
X418647321Y-125721130D01*
X418075892Y-126721130D02*
X418504464Y-126149702D01*
X418075892Y-125721130D02*
X418647321Y-126292559D01*
X417123511Y-126721130D02*
X417694940Y-126721130D01*
X417409226Y-126721130D02*
X417409226Y-125721130D01*
X417504464Y-125863988D01*
X417599702Y-125959226D01*
X417694940Y-126006845D01*
X416552083Y-126149702D02*
X416647321Y-126102083D01*
X416694940Y-126054464D01*
X416742559Y-125959226D01*
X416742559Y-125911607D01*
X416694940Y-125816369D01*
X416647321Y-125768750D01*
X416552083Y-125721130D01*
X416361607Y-125721130D01*
X416266369Y-125768750D01*
X416218750Y-125816369D01*
X416171130Y-125911607D01*
X416171130Y-125959226D01*
X416218750Y-126054464D01*
X416266369Y-126102083D01*
X416361607Y-126149702D01*
X416552083Y-126149702D01*
X416647321Y-126197321D01*
X416694940Y-126244940D01*
X416742559Y-126340178D01*
X416742559Y-126530654D01*
X416694940Y-126625892D01*
X416647321Y-126673511D01*
X416552083Y-126721130D01*
X416361607Y-126721130D01*
X416266369Y-126673511D01*
X416218750Y-126625892D01*
X416171130Y-126530654D01*
X416171130Y-126340178D01*
X416218750Y-126244940D01*
X416266369Y-126197321D01*
X416361607Y-126149702D01*
X415694940Y-126673511D02*
X415694940Y-126721130D01*
X415742559Y-126816369D01*
X415790178Y-126863988D01*
X414837797Y-126054464D02*
X414837797Y-126721130D01*
X415075892Y-125673511D02*
X415313988Y-126387797D01*
X414694940Y-126387797D01*
X399597321Y-126721130D02*
X399597321Y-125721130D01*
X399025892Y-126721130D02*
X399454464Y-126149702D01*
X399025892Y-125721130D02*
X399597321Y-126292559D01*
X398073511Y-126721130D02*
X398644940Y-126721130D01*
X398359226Y-126721130D02*
X398359226Y-125721130D01*
X398454464Y-125863988D01*
X398549702Y-125959226D01*
X398644940Y-126006845D01*
X397740178Y-125721130D02*
X397073511Y-125721130D01*
X397502083Y-126721130D01*
X396644940Y-126673511D02*
X396644940Y-126721130D01*
X396692559Y-126816369D01*
X396740178Y-126863988D01*
X395787797Y-126054464D02*
X395787797Y-126721130D01*
X396025892Y-125673511D02*
X396263988Y-126387797D01*
X395644940Y-126387797D01*
X390072321Y-164821130D02*
X390072321Y-163821130D01*
X389500892Y-164821130D02*
X389929464Y-164249702D01*
X389500892Y-163821130D02*
X390072321Y-164392559D01*
X388548511Y-164821130D02*
X389119940Y-164821130D01*
X388834226Y-164821130D02*
X388834226Y-163821130D01*
X388929464Y-163963988D01*
X389024702Y-164059226D01*
X389119940Y-164106845D01*
X388215178Y-163821130D02*
X387548511Y-163821130D01*
X387977083Y-164821130D01*
X387119940Y-164773511D02*
X387119940Y-164821130D01*
X387167559Y-164916369D01*
X387215178Y-164963988D01*
X386262797Y-163821130D02*
X386453273Y-163821130D01*
X386548511Y-163868750D01*
X386596130Y-163916369D01*
X386691369Y-164059226D01*
X386738988Y-164249702D01*
X386738988Y-164630654D01*
X386691369Y-164725892D01*
X386643750Y-164773511D01*
X386548511Y-164821130D01*
X386358035Y-164821130D01*
X386262797Y-164773511D01*
X386215178Y-164725892D01*
X386167559Y-164630654D01*
X386167559Y-164392559D01*
X386215178Y-164297321D01*
X386262797Y-164249702D01*
X386358035Y-164202083D01*
X386548511Y-164202083D01*
X386643750Y-164249702D01*
X386691369Y-164297321D01*
X386738988Y-164392559D01*
X380547321Y-145771130D02*
X380547321Y-144771130D01*
X379975892Y-145771130D02*
X380404464Y-145199702D01*
X379975892Y-144771130D02*
X380547321Y-145342559D01*
X379023511Y-145771130D02*
X379594940Y-145771130D01*
X379309226Y-145771130D02*
X379309226Y-144771130D01*
X379404464Y-144913988D01*
X379499702Y-145009226D01*
X379594940Y-145056845D01*
X378166369Y-144771130D02*
X378356845Y-144771130D01*
X378452083Y-144818750D01*
X378499702Y-144866369D01*
X378594940Y-145009226D01*
X378642559Y-145199702D01*
X378642559Y-145580654D01*
X378594940Y-145675892D01*
X378547321Y-145723511D01*
X378452083Y-145771130D01*
X378261607Y-145771130D01*
X378166369Y-145723511D01*
X378118750Y-145675892D01*
X378071130Y-145580654D01*
X378071130Y-145342559D01*
X378118750Y-145247321D01*
X378166369Y-145199702D01*
X378261607Y-145152083D01*
X378452083Y-145152083D01*
X378547321Y-145199702D01*
X378594940Y-145247321D01*
X378642559Y-145342559D01*
X377594940Y-145723511D02*
X377594940Y-145771130D01*
X377642559Y-145866369D01*
X377690178Y-145913988D01*
X376690178Y-144771130D02*
X377166369Y-144771130D01*
X377213988Y-145247321D01*
X377166369Y-145199702D01*
X377071130Y-145152083D01*
X376833035Y-145152083D01*
X376737797Y-145199702D01*
X376690178Y-145247321D01*
X376642559Y-145342559D01*
X376642559Y-145580654D01*
X376690178Y-145675892D01*
X376737797Y-145723511D01*
X376833035Y-145771130D01*
X377071130Y-145771130D01*
X377166369Y-145723511D01*
X377213988Y-145675892D01*
X380547321Y-126721130D02*
X380547321Y-125721130D01*
X379975892Y-126721130D02*
X380404464Y-126149702D01*
X379975892Y-125721130D02*
X380547321Y-126292559D01*
X379023511Y-126721130D02*
X379594940Y-126721130D01*
X379309226Y-126721130D02*
X379309226Y-125721130D01*
X379404464Y-125863988D01*
X379499702Y-125959226D01*
X379594940Y-126006845D01*
X378166369Y-125721130D02*
X378356845Y-125721130D01*
X378452083Y-125768750D01*
X378499702Y-125816369D01*
X378594940Y-125959226D01*
X378642559Y-126149702D01*
X378642559Y-126530654D01*
X378594940Y-126625892D01*
X378547321Y-126673511D01*
X378452083Y-126721130D01*
X378261607Y-126721130D01*
X378166369Y-126673511D01*
X378118750Y-126625892D01*
X378071130Y-126530654D01*
X378071130Y-126292559D01*
X378118750Y-126197321D01*
X378166369Y-126149702D01*
X378261607Y-126102083D01*
X378452083Y-126102083D01*
X378547321Y-126149702D01*
X378594940Y-126197321D01*
X378642559Y-126292559D01*
X377594940Y-126673511D02*
X377594940Y-126721130D01*
X377642559Y-126816369D01*
X377690178Y-126863988D01*
X376737797Y-126054464D02*
X376737797Y-126721130D01*
X376975892Y-125673511D02*
X377213988Y-126387797D01*
X376594940Y-126387797D01*
X437697321Y-117196130D02*
X437697321Y-116196130D01*
X437125892Y-117196130D02*
X437554464Y-116624702D01*
X437125892Y-116196130D02*
X437697321Y-116767559D01*
X436173511Y-117196130D02*
X436744940Y-117196130D01*
X436459226Y-117196130D02*
X436459226Y-116196130D01*
X436554464Y-116338988D01*
X436649702Y-116434226D01*
X436744940Y-116481845D01*
X435697321Y-117196130D02*
X435506845Y-117196130D01*
X435411607Y-117148511D01*
X435363988Y-117100892D01*
X435268750Y-116958035D01*
X435221130Y-116767559D01*
X435221130Y-116386607D01*
X435268750Y-116291369D01*
X435316369Y-116243750D01*
X435411607Y-116196130D01*
X435602083Y-116196130D01*
X435697321Y-116243750D01*
X435744940Y-116291369D01*
X435792559Y-116386607D01*
X435792559Y-116624702D01*
X435744940Y-116719940D01*
X435697321Y-116767559D01*
X435602083Y-116815178D01*
X435411607Y-116815178D01*
X435316369Y-116767559D01*
X435268750Y-116719940D01*
X435221130Y-116624702D01*
X434744940Y-117148511D02*
X434744940Y-117196130D01*
X434792559Y-117291369D01*
X434840178Y-117338988D01*
X433887797Y-116529464D02*
X433887797Y-117196130D01*
X434125892Y-116148511D02*
X434363988Y-116862797D01*
X433744940Y-116862797D01*
X418647321Y-107671130D02*
X418647321Y-106671130D01*
X418075892Y-107671130D02*
X418504464Y-107099702D01*
X418075892Y-106671130D02*
X418647321Y-107242559D01*
X417123511Y-107671130D02*
X417694940Y-107671130D01*
X417409226Y-107671130D02*
X417409226Y-106671130D01*
X417504464Y-106813988D01*
X417599702Y-106909226D01*
X417694940Y-106956845D01*
X416647321Y-107671130D02*
X416456845Y-107671130D01*
X416361607Y-107623511D01*
X416313988Y-107575892D01*
X416218750Y-107433035D01*
X416171130Y-107242559D01*
X416171130Y-106861607D01*
X416218750Y-106766369D01*
X416266369Y-106718750D01*
X416361607Y-106671130D01*
X416552083Y-106671130D01*
X416647321Y-106718750D01*
X416694940Y-106766369D01*
X416742559Y-106861607D01*
X416742559Y-107099702D01*
X416694940Y-107194940D01*
X416647321Y-107242559D01*
X416552083Y-107290178D01*
X416361607Y-107290178D01*
X416266369Y-107242559D01*
X416218750Y-107194940D01*
X416171130Y-107099702D01*
X415694940Y-107623511D02*
X415694940Y-107671130D01*
X415742559Y-107766369D01*
X415790178Y-107813988D01*
X415361607Y-106671130D02*
X414742559Y-106671130D01*
X415075892Y-107052083D01*
X414933035Y-107052083D01*
X414837797Y-107099702D01*
X414790178Y-107147321D01*
X414742559Y-107242559D01*
X414742559Y-107480654D01*
X414790178Y-107575892D01*
X414837797Y-107623511D01*
X414933035Y-107671130D01*
X415218750Y-107671130D01*
X415313988Y-107623511D01*
X415361607Y-107575892D01*
X399597321Y-107671130D02*
X399597321Y-106671130D01*
X399025892Y-107671130D02*
X399454464Y-107099702D01*
X399025892Y-106671130D02*
X399597321Y-107242559D01*
X398073511Y-107671130D02*
X398644940Y-107671130D01*
X398359226Y-107671130D02*
X398359226Y-106671130D01*
X398454464Y-106813988D01*
X398549702Y-106909226D01*
X398644940Y-106956845D01*
X397502083Y-107099702D02*
X397597321Y-107052083D01*
X397644940Y-107004464D01*
X397692559Y-106909226D01*
X397692559Y-106861607D01*
X397644940Y-106766369D01*
X397597321Y-106718750D01*
X397502083Y-106671130D01*
X397311607Y-106671130D01*
X397216369Y-106718750D01*
X397168750Y-106766369D01*
X397121130Y-106861607D01*
X397121130Y-106909226D01*
X397168750Y-107004464D01*
X397216369Y-107052083D01*
X397311607Y-107099702D01*
X397502083Y-107099702D01*
X397597321Y-107147321D01*
X397644940Y-107194940D01*
X397692559Y-107290178D01*
X397692559Y-107480654D01*
X397644940Y-107575892D01*
X397597321Y-107623511D01*
X397502083Y-107671130D01*
X397311607Y-107671130D01*
X397216369Y-107623511D01*
X397168750Y-107575892D01*
X397121130Y-107480654D01*
X397121130Y-107290178D01*
X397168750Y-107194940D01*
X397216369Y-107147321D01*
X397311607Y-107099702D01*
X396644940Y-107623511D02*
X396644940Y-107671130D01*
X396692559Y-107766369D01*
X396740178Y-107813988D01*
X396311607Y-106671130D02*
X395692559Y-106671130D01*
X396025892Y-107052083D01*
X395883035Y-107052083D01*
X395787797Y-107099702D01*
X395740178Y-107147321D01*
X395692559Y-107242559D01*
X395692559Y-107480654D01*
X395740178Y-107575892D01*
X395787797Y-107623511D01*
X395883035Y-107671130D01*
X396168750Y-107671130D01*
X396263988Y-107623511D01*
X396311607Y-107575892D01*
X380547321Y-107671130D02*
X380547321Y-106671130D01*
X379975892Y-107671130D02*
X380404464Y-107099702D01*
X379975892Y-106671130D02*
X380547321Y-107242559D01*
X379023511Y-107671130D02*
X379594940Y-107671130D01*
X379309226Y-107671130D02*
X379309226Y-106671130D01*
X379404464Y-106813988D01*
X379499702Y-106909226D01*
X379594940Y-106956845D01*
X378690178Y-106671130D02*
X378023511Y-106671130D01*
X378452083Y-107671130D01*
X377594940Y-107623511D02*
X377594940Y-107671130D01*
X377642559Y-107766369D01*
X377690178Y-107813988D01*
X377261607Y-106671130D02*
X376642559Y-106671130D01*
X376975892Y-107052083D01*
X376833035Y-107052083D01*
X376737797Y-107099702D01*
X376690178Y-107147321D01*
X376642559Y-107242559D01*
X376642559Y-107480654D01*
X376690178Y-107575892D01*
X376737797Y-107623511D01*
X376833035Y-107671130D01*
X377118750Y-107671130D01*
X377213988Y-107623511D01*
X377261607Y-107575892D01*
X437697321Y-88621130D02*
X437697321Y-87621130D01*
X437125892Y-88621130D02*
X437554464Y-88049702D01*
X437125892Y-87621130D02*
X437697321Y-88192559D01*
X436744940Y-87716369D02*
X436697321Y-87668750D01*
X436602083Y-87621130D01*
X436363988Y-87621130D01*
X436268750Y-87668750D01*
X436221130Y-87716369D01*
X436173511Y-87811607D01*
X436173511Y-87906845D01*
X436221130Y-88049702D01*
X436792559Y-88621130D01*
X436173511Y-88621130D01*
X435554464Y-87621130D02*
X435459226Y-87621130D01*
X435363988Y-87668750D01*
X435316369Y-87716369D01*
X435268750Y-87811607D01*
X435221130Y-88002083D01*
X435221130Y-88240178D01*
X435268750Y-88430654D01*
X435316369Y-88525892D01*
X435363988Y-88573511D01*
X435459226Y-88621130D01*
X435554464Y-88621130D01*
X435649702Y-88573511D01*
X435697321Y-88525892D01*
X435744940Y-88430654D01*
X435792559Y-88240178D01*
X435792559Y-88002083D01*
X435744940Y-87811607D01*
X435697321Y-87716369D01*
X435649702Y-87668750D01*
X435554464Y-87621130D01*
X434744940Y-88573511D02*
X434744940Y-88621130D01*
X434792559Y-88716369D01*
X434840178Y-88763988D01*
X433792559Y-88621130D02*
X434363988Y-88621130D01*
X434078273Y-88621130D02*
X434078273Y-87621130D01*
X434173511Y-87763988D01*
X434268750Y-87859226D01*
X434363988Y-87906845D01*
X418647321Y-88621130D02*
X418647321Y-87621130D01*
X418075892Y-88621130D02*
X418504464Y-88049702D01*
X418075892Y-87621130D02*
X418647321Y-88192559D01*
X417123511Y-88621130D02*
X417694940Y-88621130D01*
X417409226Y-88621130D02*
X417409226Y-87621130D01*
X417504464Y-87763988D01*
X417599702Y-87859226D01*
X417694940Y-87906845D01*
X416647321Y-88621130D02*
X416456845Y-88621130D01*
X416361607Y-88573511D01*
X416313988Y-88525892D01*
X416218750Y-88383035D01*
X416171130Y-88192559D01*
X416171130Y-87811607D01*
X416218750Y-87716369D01*
X416266369Y-87668750D01*
X416361607Y-87621130D01*
X416552083Y-87621130D01*
X416647321Y-87668750D01*
X416694940Y-87716369D01*
X416742559Y-87811607D01*
X416742559Y-88049702D01*
X416694940Y-88144940D01*
X416647321Y-88192559D01*
X416552083Y-88240178D01*
X416361607Y-88240178D01*
X416266369Y-88192559D01*
X416218750Y-88144940D01*
X416171130Y-88049702D01*
X415694940Y-88573511D02*
X415694940Y-88621130D01*
X415742559Y-88716369D01*
X415790178Y-88763988D01*
X414742559Y-88621130D02*
X415313988Y-88621130D01*
X415028273Y-88621130D02*
X415028273Y-87621130D01*
X415123511Y-87763988D01*
X415218750Y-87859226D01*
X415313988Y-87906845D01*
X399597321Y-88621130D02*
X399597321Y-87621130D01*
X399025892Y-88621130D02*
X399454464Y-88049702D01*
X399025892Y-87621130D02*
X399597321Y-88192559D01*
X398073511Y-88621130D02*
X398644940Y-88621130D01*
X398359226Y-88621130D02*
X398359226Y-87621130D01*
X398454464Y-87763988D01*
X398549702Y-87859226D01*
X398644940Y-87906845D01*
X397502083Y-88049702D02*
X397597321Y-88002083D01*
X397644940Y-87954464D01*
X397692559Y-87859226D01*
X397692559Y-87811607D01*
X397644940Y-87716369D01*
X397597321Y-87668750D01*
X397502083Y-87621130D01*
X397311607Y-87621130D01*
X397216369Y-87668750D01*
X397168750Y-87716369D01*
X397121130Y-87811607D01*
X397121130Y-87859226D01*
X397168750Y-87954464D01*
X397216369Y-88002083D01*
X397311607Y-88049702D01*
X397502083Y-88049702D01*
X397597321Y-88097321D01*
X397644940Y-88144940D01*
X397692559Y-88240178D01*
X397692559Y-88430654D01*
X397644940Y-88525892D01*
X397597321Y-88573511D01*
X397502083Y-88621130D01*
X397311607Y-88621130D01*
X397216369Y-88573511D01*
X397168750Y-88525892D01*
X397121130Y-88430654D01*
X397121130Y-88240178D01*
X397168750Y-88144940D01*
X397216369Y-88097321D01*
X397311607Y-88049702D01*
X396644940Y-88573511D02*
X396644940Y-88621130D01*
X396692559Y-88716369D01*
X396740178Y-88763988D01*
X395692559Y-88621130D02*
X396263988Y-88621130D01*
X395978273Y-88621130D02*
X395978273Y-87621130D01*
X396073511Y-87763988D01*
X396168750Y-87859226D01*
X396263988Y-87906845D01*
X380547321Y-88621130D02*
X380547321Y-87621130D01*
X379975892Y-88621130D02*
X380404464Y-88049702D01*
X379975892Y-87621130D02*
X380547321Y-88192559D01*
X379023511Y-88621130D02*
X379594940Y-88621130D01*
X379309226Y-88621130D02*
X379309226Y-87621130D01*
X379404464Y-87763988D01*
X379499702Y-87859226D01*
X379594940Y-87906845D01*
X378690178Y-87621130D02*
X378023511Y-87621130D01*
X378452083Y-88621130D01*
X377594940Y-88573511D02*
X377594940Y-88621130D01*
X377642559Y-88716369D01*
X377690178Y-88763988D01*
X376642559Y-88621130D02*
X377213988Y-88621130D01*
X376928273Y-88621130D02*
X376928273Y-87621130D01*
X377023511Y-87763988D01*
X377118750Y-87859226D01*
X377213988Y-87906845D01*
X437697321Y-64014880D02*
X437697321Y-63014880D01*
X437125892Y-64014880D02*
X437554464Y-63443452D01*
X437125892Y-63014880D02*
X437697321Y-63586309D01*
X436744940Y-63110119D02*
X436697321Y-63062500D01*
X436602083Y-63014880D01*
X436363988Y-63014880D01*
X436268750Y-63062500D01*
X436221130Y-63110119D01*
X436173511Y-63205357D01*
X436173511Y-63300595D01*
X436221130Y-63443452D01*
X436792559Y-64014880D01*
X436173511Y-64014880D01*
X435554464Y-63014880D02*
X435459226Y-63014880D01*
X435363988Y-63062500D01*
X435316369Y-63110119D01*
X435268750Y-63205357D01*
X435221130Y-63395833D01*
X435221130Y-63633928D01*
X435268750Y-63824404D01*
X435316369Y-63919642D01*
X435363988Y-63967261D01*
X435459226Y-64014880D01*
X435554464Y-64014880D01*
X435649702Y-63967261D01*
X435697321Y-63919642D01*
X435744940Y-63824404D01*
X435792559Y-63633928D01*
X435792559Y-63395833D01*
X435744940Y-63205357D01*
X435697321Y-63110119D01*
X435649702Y-63062500D01*
X435554464Y-63014880D01*
X434744940Y-63967261D02*
X434744940Y-64014880D01*
X434792559Y-64110119D01*
X434840178Y-64157738D01*
X434125892Y-63014880D02*
X434030654Y-63014880D01*
X433935416Y-63062500D01*
X433887797Y-63110119D01*
X433840178Y-63205357D01*
X433792559Y-63395833D01*
X433792559Y-63633928D01*
X433840178Y-63824404D01*
X433887797Y-63919642D01*
X433935416Y-63967261D01*
X434030654Y-64014880D01*
X434125892Y-64014880D01*
X434221130Y-63967261D01*
X434268750Y-63919642D01*
X434316369Y-63824404D01*
X434363988Y-63633928D01*
X434363988Y-63395833D01*
X434316369Y-63205357D01*
X434268750Y-63110119D01*
X434221130Y-63062500D01*
X434125892Y-63014880D01*
X418647321Y-64014880D02*
X418647321Y-63014880D01*
X418075892Y-64014880D02*
X418504464Y-63443452D01*
X418075892Y-63014880D02*
X418647321Y-63586309D01*
X417123511Y-64014880D02*
X417694940Y-64014880D01*
X417409226Y-64014880D02*
X417409226Y-63014880D01*
X417504464Y-63157738D01*
X417599702Y-63252976D01*
X417694940Y-63300595D01*
X416647321Y-64014880D02*
X416456845Y-64014880D01*
X416361607Y-63967261D01*
X416313988Y-63919642D01*
X416218750Y-63776785D01*
X416171130Y-63586309D01*
X416171130Y-63205357D01*
X416218750Y-63110119D01*
X416266369Y-63062500D01*
X416361607Y-63014880D01*
X416552083Y-63014880D01*
X416647321Y-63062500D01*
X416694940Y-63110119D01*
X416742559Y-63205357D01*
X416742559Y-63443452D01*
X416694940Y-63538690D01*
X416647321Y-63586309D01*
X416552083Y-63633928D01*
X416361607Y-63633928D01*
X416266369Y-63586309D01*
X416218750Y-63538690D01*
X416171130Y-63443452D01*
X415694940Y-63967261D02*
X415694940Y-64014880D01*
X415742559Y-64110119D01*
X415790178Y-64157738D01*
X415075892Y-63014880D02*
X414980654Y-63014880D01*
X414885416Y-63062500D01*
X414837797Y-63110119D01*
X414790178Y-63205357D01*
X414742559Y-63395833D01*
X414742559Y-63633928D01*
X414790178Y-63824404D01*
X414837797Y-63919642D01*
X414885416Y-63967261D01*
X414980654Y-64014880D01*
X415075892Y-64014880D01*
X415171130Y-63967261D01*
X415218750Y-63919642D01*
X415266369Y-63824404D01*
X415313988Y-63633928D01*
X415313988Y-63395833D01*
X415266369Y-63205357D01*
X415218750Y-63110119D01*
X415171130Y-63062500D01*
X415075892Y-63014880D01*
X399597321Y-64014880D02*
X399597321Y-63014880D01*
X399025892Y-64014880D02*
X399454464Y-63443452D01*
X399025892Y-63014880D02*
X399597321Y-63586309D01*
X398073511Y-64014880D02*
X398644940Y-64014880D01*
X398359226Y-64014880D02*
X398359226Y-63014880D01*
X398454464Y-63157738D01*
X398549702Y-63252976D01*
X398644940Y-63300595D01*
X397502083Y-63443452D02*
X397597321Y-63395833D01*
X397644940Y-63348214D01*
X397692559Y-63252976D01*
X397692559Y-63205357D01*
X397644940Y-63110119D01*
X397597321Y-63062500D01*
X397502083Y-63014880D01*
X397311607Y-63014880D01*
X397216369Y-63062500D01*
X397168750Y-63110119D01*
X397121130Y-63205357D01*
X397121130Y-63252976D01*
X397168750Y-63348214D01*
X397216369Y-63395833D01*
X397311607Y-63443452D01*
X397502083Y-63443452D01*
X397597321Y-63491071D01*
X397644940Y-63538690D01*
X397692559Y-63633928D01*
X397692559Y-63824404D01*
X397644940Y-63919642D01*
X397597321Y-63967261D01*
X397502083Y-64014880D01*
X397311607Y-64014880D01*
X397216369Y-63967261D01*
X397168750Y-63919642D01*
X397121130Y-63824404D01*
X397121130Y-63633928D01*
X397168750Y-63538690D01*
X397216369Y-63491071D01*
X397311607Y-63443452D01*
X396644940Y-63967261D02*
X396644940Y-64014880D01*
X396692559Y-64110119D01*
X396740178Y-64157738D01*
X396025892Y-63014880D02*
X395930654Y-63014880D01*
X395835416Y-63062500D01*
X395787797Y-63110119D01*
X395740178Y-63205357D01*
X395692559Y-63395833D01*
X395692559Y-63633928D01*
X395740178Y-63824404D01*
X395787797Y-63919642D01*
X395835416Y-63967261D01*
X395930654Y-64014880D01*
X396025892Y-64014880D01*
X396121130Y-63967261D01*
X396168750Y-63919642D01*
X396216369Y-63824404D01*
X396263988Y-63633928D01*
X396263988Y-63395833D01*
X396216369Y-63205357D01*
X396168750Y-63110119D01*
X396121130Y-63062500D01*
X396025892Y-63014880D01*
X380547321Y-64014880D02*
X380547321Y-63014880D01*
X379975892Y-64014880D02*
X380404464Y-63443452D01*
X379975892Y-63014880D02*
X380547321Y-63586309D01*
X379023511Y-64014880D02*
X379594940Y-64014880D01*
X379309226Y-64014880D02*
X379309226Y-63014880D01*
X379404464Y-63157738D01*
X379499702Y-63252976D01*
X379594940Y-63300595D01*
X378690178Y-63014880D02*
X378023511Y-63014880D01*
X378452083Y-64014880D01*
X377594940Y-63967261D02*
X377594940Y-64014880D01*
X377642559Y-64110119D01*
X377690178Y-64157738D01*
X376975892Y-63014880D02*
X376880654Y-63014880D01*
X376785416Y-63062500D01*
X376737797Y-63110119D01*
X376690178Y-63205357D01*
X376642559Y-63395833D01*
X376642559Y-63633928D01*
X376690178Y-63824404D01*
X376737797Y-63919642D01*
X376785416Y-63967261D01*
X376880654Y-64014880D01*
X376975892Y-64014880D01*
X377071130Y-63967261D01*
X377118750Y-63919642D01*
X377166369Y-63824404D01*
X377213988Y-63633928D01*
X377213988Y-63395833D01*
X377166369Y-63205357D01*
X377118750Y-63110119D01*
X377071130Y-63062500D01*
X376975892Y-63014880D01*
X317841071Y-64014880D02*
X317841071Y-63014880D01*
X317269642Y-64014880D02*
X317698214Y-63443452D01*
X317269642Y-63014880D02*
X317841071Y-63586309D01*
X316317261Y-64014880D02*
X316888690Y-64014880D01*
X316602976Y-64014880D02*
X316602976Y-63014880D01*
X316698214Y-63157738D01*
X316793452Y-63252976D01*
X316888690Y-63300595D01*
X315460119Y-63348214D02*
X315460119Y-64014880D01*
X315698214Y-62967261D02*
X315936309Y-63681547D01*
X315317261Y-63681547D01*
X314888690Y-63967261D02*
X314888690Y-64014880D01*
X314936309Y-64110119D01*
X314983928Y-64157738D01*
X314269642Y-63014880D02*
X314174404Y-63014880D01*
X314079166Y-63062500D01*
X314031547Y-63110119D01*
X313983928Y-63205357D01*
X313936309Y-63395833D01*
X313936309Y-63633928D01*
X313983928Y-63824404D01*
X314031547Y-63919642D01*
X314079166Y-63967261D01*
X314174404Y-64014880D01*
X314269642Y-64014880D01*
X314364880Y-63967261D01*
X314412500Y-63919642D01*
X314460119Y-63824404D01*
X314507738Y-63633928D01*
X314507738Y-63395833D01*
X314460119Y-63205357D01*
X314412500Y-63110119D01*
X314364880Y-63062500D01*
X314269642Y-63014880D01*
X336891071Y-88621130D02*
X336891071Y-87621130D01*
X336319642Y-88621130D02*
X336748214Y-88049702D01*
X336319642Y-87621130D02*
X336891071Y-88192559D01*
X335367261Y-88621130D02*
X335938690Y-88621130D01*
X335652976Y-88621130D02*
X335652976Y-87621130D01*
X335748214Y-87763988D01*
X335843452Y-87859226D01*
X335938690Y-87906845D01*
X334462500Y-87621130D02*
X334938690Y-87621130D01*
X334986309Y-88097321D01*
X334938690Y-88049702D01*
X334843452Y-88002083D01*
X334605357Y-88002083D01*
X334510119Y-88049702D01*
X334462500Y-88097321D01*
X334414880Y-88192559D01*
X334414880Y-88430654D01*
X334462500Y-88525892D01*
X334510119Y-88573511D01*
X334605357Y-88621130D01*
X334843452Y-88621130D01*
X334938690Y-88573511D01*
X334986309Y-88525892D01*
X333938690Y-88573511D02*
X333938690Y-88621130D01*
X333986309Y-88716369D01*
X334033928Y-88763988D01*
X332986309Y-88621130D02*
X333557738Y-88621130D01*
X333272023Y-88621130D02*
X333272023Y-87621130D01*
X333367261Y-87763988D01*
X333462500Y-87859226D01*
X333557738Y-87906845D01*
X317841071Y-88621130D02*
X317841071Y-87621130D01*
X317269642Y-88621130D02*
X317698214Y-88049702D01*
X317269642Y-87621130D02*
X317841071Y-88192559D01*
X316317261Y-88621130D02*
X316888690Y-88621130D01*
X316602976Y-88621130D02*
X316602976Y-87621130D01*
X316698214Y-87763988D01*
X316793452Y-87859226D01*
X316888690Y-87906845D01*
X315460119Y-87954464D02*
X315460119Y-88621130D01*
X315698214Y-87573511D02*
X315936309Y-88287797D01*
X315317261Y-88287797D01*
X314888690Y-88573511D02*
X314888690Y-88621130D01*
X314936309Y-88716369D01*
X314983928Y-88763988D01*
X313936309Y-88621130D02*
X314507738Y-88621130D01*
X314222023Y-88621130D02*
X314222023Y-87621130D01*
X314317261Y-87763988D01*
X314412500Y-87859226D01*
X314507738Y-87906845D01*
X355941071Y-64014880D02*
X355941071Y-63014880D01*
X355369642Y-64014880D02*
X355798214Y-63443452D01*
X355369642Y-63014880D02*
X355941071Y-63586309D01*
X354417261Y-64014880D02*
X354988690Y-64014880D01*
X354702976Y-64014880D02*
X354702976Y-63014880D01*
X354798214Y-63157738D01*
X354893452Y-63252976D01*
X354988690Y-63300595D01*
X353560119Y-63014880D02*
X353750595Y-63014880D01*
X353845833Y-63062500D01*
X353893452Y-63110119D01*
X353988690Y-63252976D01*
X354036309Y-63443452D01*
X354036309Y-63824404D01*
X353988690Y-63919642D01*
X353941071Y-63967261D01*
X353845833Y-64014880D01*
X353655357Y-64014880D01*
X353560119Y-63967261D01*
X353512500Y-63919642D01*
X353464880Y-63824404D01*
X353464880Y-63586309D01*
X353512500Y-63491071D01*
X353560119Y-63443452D01*
X353655357Y-63395833D01*
X353845833Y-63395833D01*
X353941071Y-63443452D01*
X353988690Y-63491071D01*
X354036309Y-63586309D01*
X352988690Y-63967261D02*
X352988690Y-64014880D01*
X353036309Y-64110119D01*
X353083928Y-64157738D01*
X352369642Y-63014880D02*
X352274404Y-63014880D01*
X352179166Y-63062500D01*
X352131547Y-63110119D01*
X352083928Y-63205357D01*
X352036309Y-63395833D01*
X352036309Y-63633928D01*
X352083928Y-63824404D01*
X352131547Y-63919642D01*
X352179166Y-63967261D01*
X352274404Y-64014880D01*
X352369642Y-64014880D01*
X352464880Y-63967261D01*
X352512500Y-63919642D01*
X352560119Y-63824404D01*
X352607738Y-63633928D01*
X352607738Y-63395833D01*
X352560119Y-63205357D01*
X352512500Y-63110119D01*
X352464880Y-63062500D01*
X352369642Y-63014880D01*
X336891071Y-64014880D02*
X336891071Y-63014880D01*
X336319642Y-64014880D02*
X336748214Y-63443452D01*
X336319642Y-63014880D02*
X336891071Y-63586309D01*
X335367261Y-64014880D02*
X335938690Y-64014880D01*
X335652976Y-64014880D02*
X335652976Y-63014880D01*
X335748214Y-63157738D01*
X335843452Y-63252976D01*
X335938690Y-63300595D01*
X334462500Y-63014880D02*
X334938690Y-63014880D01*
X334986309Y-63491071D01*
X334938690Y-63443452D01*
X334843452Y-63395833D01*
X334605357Y-63395833D01*
X334510119Y-63443452D01*
X334462500Y-63491071D01*
X334414880Y-63586309D01*
X334414880Y-63824404D01*
X334462500Y-63919642D01*
X334510119Y-63967261D01*
X334605357Y-64014880D01*
X334843452Y-64014880D01*
X334938690Y-63967261D01*
X334986309Y-63919642D01*
X333938690Y-63967261D02*
X333938690Y-64014880D01*
X333986309Y-64110119D01*
X334033928Y-64157738D01*
X333319642Y-63014880D02*
X333224404Y-63014880D01*
X333129166Y-63062500D01*
X333081547Y-63110119D01*
X333033928Y-63205357D01*
X332986309Y-63395833D01*
X332986309Y-63633928D01*
X333033928Y-63824404D01*
X333081547Y-63919642D01*
X333129166Y-63967261D01*
X333224404Y-64014880D01*
X333319642Y-64014880D01*
X333414880Y-63967261D01*
X333462500Y-63919642D01*
X333510119Y-63824404D01*
X333557738Y-63633928D01*
X333557738Y-63395833D01*
X333510119Y-63205357D01*
X333462500Y-63110119D01*
X333414880Y-63062500D01*
X333319642Y-63014880D01*
X355941071Y-164821130D02*
X355941071Y-163821130D01*
X355369642Y-164821130D02*
X355798214Y-164249702D01*
X355369642Y-163821130D02*
X355941071Y-164392559D01*
X354417261Y-164821130D02*
X354988690Y-164821130D01*
X354702976Y-164821130D02*
X354702976Y-163821130D01*
X354798214Y-163963988D01*
X354893452Y-164059226D01*
X354988690Y-164106845D01*
X353560119Y-163821130D02*
X353750595Y-163821130D01*
X353845833Y-163868750D01*
X353893452Y-163916369D01*
X353988690Y-164059226D01*
X354036309Y-164249702D01*
X354036309Y-164630654D01*
X353988690Y-164725892D01*
X353941071Y-164773511D01*
X353845833Y-164821130D01*
X353655357Y-164821130D01*
X353560119Y-164773511D01*
X353512500Y-164725892D01*
X353464880Y-164630654D01*
X353464880Y-164392559D01*
X353512500Y-164297321D01*
X353560119Y-164249702D01*
X353655357Y-164202083D01*
X353845833Y-164202083D01*
X353941071Y-164249702D01*
X353988690Y-164297321D01*
X354036309Y-164392559D01*
X352988690Y-164773511D02*
X352988690Y-164821130D01*
X353036309Y-164916369D01*
X353083928Y-164963988D01*
X352131547Y-163821130D02*
X352322023Y-163821130D01*
X352417261Y-163868750D01*
X352464880Y-163916369D01*
X352560119Y-164059226D01*
X352607738Y-164249702D01*
X352607738Y-164630654D01*
X352560119Y-164725892D01*
X352512500Y-164773511D01*
X352417261Y-164821130D01*
X352226785Y-164821130D01*
X352131547Y-164773511D01*
X352083928Y-164725892D01*
X352036309Y-164630654D01*
X352036309Y-164392559D01*
X352083928Y-164297321D01*
X352131547Y-164249702D01*
X352226785Y-164202083D01*
X352417261Y-164202083D01*
X352512500Y-164249702D01*
X352560119Y-164297321D01*
X352607738Y-164392559D01*
X336891071Y-145771130D02*
X336891071Y-144771130D01*
X336319642Y-145771130D02*
X336748214Y-145199702D01*
X336319642Y-144771130D02*
X336891071Y-145342559D01*
X335367261Y-145771130D02*
X335938690Y-145771130D01*
X335652976Y-145771130D02*
X335652976Y-144771130D01*
X335748214Y-144913988D01*
X335843452Y-145009226D01*
X335938690Y-145056845D01*
X334462500Y-144771130D02*
X334938690Y-144771130D01*
X334986309Y-145247321D01*
X334938690Y-145199702D01*
X334843452Y-145152083D01*
X334605357Y-145152083D01*
X334510119Y-145199702D01*
X334462500Y-145247321D01*
X334414880Y-145342559D01*
X334414880Y-145580654D01*
X334462500Y-145675892D01*
X334510119Y-145723511D01*
X334605357Y-145771130D01*
X334843452Y-145771130D01*
X334938690Y-145723511D01*
X334986309Y-145675892D01*
X333938690Y-145723511D02*
X333938690Y-145771130D01*
X333986309Y-145866369D01*
X334033928Y-145913988D01*
X333033928Y-144771130D02*
X333510119Y-144771130D01*
X333557738Y-145247321D01*
X333510119Y-145199702D01*
X333414880Y-145152083D01*
X333176785Y-145152083D01*
X333081547Y-145199702D01*
X333033928Y-145247321D01*
X332986309Y-145342559D01*
X332986309Y-145580654D01*
X333033928Y-145675892D01*
X333081547Y-145723511D01*
X333176785Y-145771130D01*
X333414880Y-145771130D01*
X333510119Y-145723511D01*
X333557738Y-145675892D01*
X336891071Y-164821130D02*
X336891071Y-163821130D01*
X336319642Y-164821130D02*
X336748214Y-164249702D01*
X336319642Y-163821130D02*
X336891071Y-164392559D01*
X335367261Y-164821130D02*
X335938690Y-164821130D01*
X335652976Y-164821130D02*
X335652976Y-163821130D01*
X335748214Y-163963988D01*
X335843452Y-164059226D01*
X335938690Y-164106845D01*
X334462500Y-163821130D02*
X334938690Y-163821130D01*
X334986309Y-164297321D01*
X334938690Y-164249702D01*
X334843452Y-164202083D01*
X334605357Y-164202083D01*
X334510119Y-164249702D01*
X334462500Y-164297321D01*
X334414880Y-164392559D01*
X334414880Y-164630654D01*
X334462500Y-164725892D01*
X334510119Y-164773511D01*
X334605357Y-164821130D01*
X334843452Y-164821130D01*
X334938690Y-164773511D01*
X334986309Y-164725892D01*
X333938690Y-164773511D02*
X333938690Y-164821130D01*
X333986309Y-164916369D01*
X334033928Y-164963988D01*
X333081547Y-163821130D02*
X333272023Y-163821130D01*
X333367261Y-163868750D01*
X333414880Y-163916369D01*
X333510119Y-164059226D01*
X333557738Y-164249702D01*
X333557738Y-164630654D01*
X333510119Y-164725892D01*
X333462500Y-164773511D01*
X333367261Y-164821130D01*
X333176785Y-164821130D01*
X333081547Y-164773511D01*
X333033928Y-164725892D01*
X332986309Y-164630654D01*
X332986309Y-164392559D01*
X333033928Y-164297321D01*
X333081547Y-164249702D01*
X333176785Y-164202083D01*
X333367261Y-164202083D01*
X333462500Y-164249702D01*
X333510119Y-164297321D01*
X333557738Y-164392559D01*
X317841071Y-107671130D02*
X317841071Y-106671130D01*
X317269642Y-107671130D02*
X317698214Y-107099702D01*
X317269642Y-106671130D02*
X317841071Y-107242559D01*
X316317261Y-107671130D02*
X316888690Y-107671130D01*
X316602976Y-107671130D02*
X316602976Y-106671130D01*
X316698214Y-106813988D01*
X316793452Y-106909226D01*
X316888690Y-106956845D01*
X315460119Y-107004464D02*
X315460119Y-107671130D01*
X315698214Y-106623511D02*
X315936309Y-107337797D01*
X315317261Y-107337797D01*
X314888690Y-107623511D02*
X314888690Y-107671130D01*
X314936309Y-107766369D01*
X314983928Y-107813988D01*
X314555357Y-106671130D02*
X313936309Y-106671130D01*
X314269642Y-107052083D01*
X314126785Y-107052083D01*
X314031547Y-107099702D01*
X313983928Y-107147321D01*
X313936309Y-107242559D01*
X313936309Y-107480654D01*
X313983928Y-107575892D01*
X314031547Y-107623511D01*
X314126785Y-107671130D01*
X314412500Y-107671130D01*
X314507738Y-107623511D01*
X314555357Y-107575892D01*
X317841071Y-164821130D02*
X317841071Y-163821130D01*
X317269642Y-164821130D02*
X317698214Y-164249702D01*
X317269642Y-163821130D02*
X317841071Y-164392559D01*
X316317261Y-164821130D02*
X316888690Y-164821130D01*
X316602976Y-164821130D02*
X316602976Y-163821130D01*
X316698214Y-163963988D01*
X316793452Y-164059226D01*
X316888690Y-164106845D01*
X315460119Y-164154464D02*
X315460119Y-164821130D01*
X315698214Y-163773511D02*
X315936309Y-164487797D01*
X315317261Y-164487797D01*
X314888690Y-164773511D02*
X314888690Y-164821130D01*
X314936309Y-164916369D01*
X314983928Y-164963988D01*
X314031547Y-163821130D02*
X314222023Y-163821130D01*
X314317261Y-163868750D01*
X314364880Y-163916369D01*
X314460119Y-164059226D01*
X314507738Y-164249702D01*
X314507738Y-164630654D01*
X314460119Y-164725892D01*
X314412500Y-164773511D01*
X314317261Y-164821130D01*
X314126785Y-164821130D01*
X314031547Y-164773511D01*
X313983928Y-164725892D01*
X313936309Y-164630654D01*
X313936309Y-164392559D01*
X313983928Y-164297321D01*
X314031547Y-164249702D01*
X314126785Y-164202083D01*
X314317261Y-164202083D01*
X314412500Y-164249702D01*
X314460119Y-164297321D01*
X314507738Y-164392559D01*
X336891071Y-107671130D02*
X336891071Y-106671130D01*
X336319642Y-107671130D02*
X336748214Y-107099702D01*
X336319642Y-106671130D02*
X336891071Y-107242559D01*
X335367261Y-107671130D02*
X335938690Y-107671130D01*
X335652976Y-107671130D02*
X335652976Y-106671130D01*
X335748214Y-106813988D01*
X335843452Y-106909226D01*
X335938690Y-106956845D01*
X334462500Y-106671130D02*
X334938690Y-106671130D01*
X334986309Y-107147321D01*
X334938690Y-107099702D01*
X334843452Y-107052083D01*
X334605357Y-107052083D01*
X334510119Y-107099702D01*
X334462500Y-107147321D01*
X334414880Y-107242559D01*
X334414880Y-107480654D01*
X334462500Y-107575892D01*
X334510119Y-107623511D01*
X334605357Y-107671130D01*
X334843452Y-107671130D01*
X334938690Y-107623511D01*
X334986309Y-107575892D01*
X333938690Y-107623511D02*
X333938690Y-107671130D01*
X333986309Y-107766369D01*
X334033928Y-107813988D01*
X333605357Y-106671130D02*
X332986309Y-106671130D01*
X333319642Y-107052083D01*
X333176785Y-107052083D01*
X333081547Y-107099702D01*
X333033928Y-107147321D01*
X332986309Y-107242559D01*
X332986309Y-107480654D01*
X333033928Y-107575892D01*
X333081547Y-107623511D01*
X333176785Y-107671130D01*
X333462500Y-107671130D01*
X333557738Y-107623511D01*
X333605357Y-107575892D01*
X355941071Y-88621130D02*
X355941071Y-87621130D01*
X355369642Y-88621130D02*
X355798214Y-88049702D01*
X355369642Y-87621130D02*
X355941071Y-88192559D01*
X354417261Y-88621130D02*
X354988690Y-88621130D01*
X354702976Y-88621130D02*
X354702976Y-87621130D01*
X354798214Y-87763988D01*
X354893452Y-87859226D01*
X354988690Y-87906845D01*
X353560119Y-87621130D02*
X353750595Y-87621130D01*
X353845833Y-87668750D01*
X353893452Y-87716369D01*
X353988690Y-87859226D01*
X354036309Y-88049702D01*
X354036309Y-88430654D01*
X353988690Y-88525892D01*
X353941071Y-88573511D01*
X353845833Y-88621130D01*
X353655357Y-88621130D01*
X353560119Y-88573511D01*
X353512500Y-88525892D01*
X353464880Y-88430654D01*
X353464880Y-88192559D01*
X353512500Y-88097321D01*
X353560119Y-88049702D01*
X353655357Y-88002083D01*
X353845833Y-88002083D01*
X353941071Y-88049702D01*
X353988690Y-88097321D01*
X354036309Y-88192559D01*
X352988690Y-88573511D02*
X352988690Y-88621130D01*
X353036309Y-88716369D01*
X353083928Y-88763988D01*
X352036309Y-88621130D02*
X352607738Y-88621130D01*
X352322023Y-88621130D02*
X352322023Y-87621130D01*
X352417261Y-87763988D01*
X352512500Y-87859226D01*
X352607738Y-87906845D01*
X355941071Y-107671130D02*
X355941071Y-106671130D01*
X355369642Y-107671130D02*
X355798214Y-107099702D01*
X355369642Y-106671130D02*
X355941071Y-107242559D01*
X354417261Y-107671130D02*
X354988690Y-107671130D01*
X354702976Y-107671130D02*
X354702976Y-106671130D01*
X354798214Y-106813988D01*
X354893452Y-106909226D01*
X354988690Y-106956845D01*
X353560119Y-106671130D02*
X353750595Y-106671130D01*
X353845833Y-106718750D01*
X353893452Y-106766369D01*
X353988690Y-106909226D01*
X354036309Y-107099702D01*
X354036309Y-107480654D01*
X353988690Y-107575892D01*
X353941071Y-107623511D01*
X353845833Y-107671130D01*
X353655357Y-107671130D01*
X353560119Y-107623511D01*
X353512500Y-107575892D01*
X353464880Y-107480654D01*
X353464880Y-107242559D01*
X353512500Y-107147321D01*
X353560119Y-107099702D01*
X353655357Y-107052083D01*
X353845833Y-107052083D01*
X353941071Y-107099702D01*
X353988690Y-107147321D01*
X354036309Y-107242559D01*
X352988690Y-107623511D02*
X352988690Y-107671130D01*
X353036309Y-107766369D01*
X353083928Y-107813988D01*
X352655357Y-106671130D02*
X352036309Y-106671130D01*
X352369642Y-107052083D01*
X352226785Y-107052083D01*
X352131547Y-107099702D01*
X352083928Y-107147321D01*
X352036309Y-107242559D01*
X352036309Y-107480654D01*
X352083928Y-107575892D01*
X352131547Y-107623511D01*
X352226785Y-107671130D01*
X352512500Y-107671130D01*
X352607738Y-107623511D01*
X352655357Y-107575892D01*
X291647321Y-164821130D02*
X291647321Y-163821130D01*
X291075892Y-164821130D02*
X291504464Y-164249702D01*
X291075892Y-163821130D02*
X291647321Y-164392559D01*
X290123511Y-164821130D02*
X290694940Y-164821130D01*
X290409226Y-164821130D02*
X290409226Y-163821130D01*
X290504464Y-163963988D01*
X290599702Y-164059226D01*
X290694940Y-164106845D01*
X289171130Y-164821130D02*
X289742559Y-164821130D01*
X289456845Y-164821130D02*
X289456845Y-163821130D01*
X289552083Y-163963988D01*
X289647321Y-164059226D01*
X289742559Y-164106845D01*
X288694940Y-164773511D02*
X288694940Y-164821130D01*
X288742559Y-164916369D01*
X288790178Y-164963988D01*
X287790178Y-163821130D02*
X288266369Y-163821130D01*
X288313988Y-164297321D01*
X288266369Y-164249702D01*
X288171130Y-164202083D01*
X287933035Y-164202083D01*
X287837797Y-164249702D01*
X287790178Y-164297321D01*
X287742559Y-164392559D01*
X287742559Y-164630654D01*
X287790178Y-164725892D01*
X287837797Y-164773511D01*
X287933035Y-164821130D01*
X288171130Y-164821130D01*
X288266369Y-164773511D01*
X288313988Y-164725892D01*
X267834821Y-164821130D02*
X267834821Y-163821130D01*
X267263392Y-164821130D02*
X267691964Y-164249702D01*
X267263392Y-163821130D02*
X267834821Y-164392559D01*
X266311011Y-164821130D02*
X266882440Y-164821130D01*
X266596726Y-164821130D02*
X266596726Y-163821130D01*
X266691964Y-163963988D01*
X266787202Y-164059226D01*
X266882440Y-164106845D01*
X265691964Y-163821130D02*
X265596726Y-163821130D01*
X265501488Y-163868750D01*
X265453869Y-163916369D01*
X265406250Y-164011607D01*
X265358630Y-164202083D01*
X265358630Y-164440178D01*
X265406250Y-164630654D01*
X265453869Y-164725892D01*
X265501488Y-164773511D01*
X265596726Y-164821130D01*
X265691964Y-164821130D01*
X265787202Y-164773511D01*
X265834821Y-164725892D01*
X265882440Y-164630654D01*
X265930059Y-164440178D01*
X265930059Y-164202083D01*
X265882440Y-164011607D01*
X265834821Y-163916369D01*
X265787202Y-163868750D01*
X265691964Y-163821130D01*
X264882440Y-164773511D02*
X264882440Y-164821130D01*
X264930059Y-164916369D01*
X264977678Y-164963988D01*
X263977678Y-163821130D02*
X264453869Y-163821130D01*
X264501488Y-164297321D01*
X264453869Y-164249702D01*
X264358630Y-164202083D01*
X264120535Y-164202083D01*
X264025297Y-164249702D01*
X263977678Y-164297321D01*
X263930059Y-164392559D01*
X263930059Y-164630654D01*
X263977678Y-164725892D01*
X264025297Y-164773511D01*
X264120535Y-164821130D01*
X264358630Y-164821130D01*
X264453869Y-164773511D01*
X264501488Y-164725892D01*
X243546130Y-164821130D02*
X243546130Y-163821130D01*
X242974702Y-164821130D02*
X243403273Y-164249702D01*
X242974702Y-163821130D02*
X243546130Y-164392559D01*
X242498511Y-164821130D02*
X242308035Y-164821130D01*
X242212797Y-164773511D01*
X242165178Y-164725892D01*
X242069940Y-164583035D01*
X242022321Y-164392559D01*
X242022321Y-164011607D01*
X242069940Y-163916369D01*
X242117559Y-163868750D01*
X242212797Y-163821130D01*
X242403273Y-163821130D01*
X242498511Y-163868750D01*
X242546130Y-163916369D01*
X242593750Y-164011607D01*
X242593750Y-164249702D01*
X242546130Y-164344940D01*
X242498511Y-164392559D01*
X242403273Y-164440178D01*
X242212797Y-164440178D01*
X242117559Y-164392559D01*
X242069940Y-164344940D01*
X242022321Y-164249702D01*
X241546130Y-164773511D02*
X241546130Y-164821130D01*
X241593750Y-164916369D01*
X241641369Y-164963988D01*
X240641369Y-163821130D02*
X241117559Y-163821130D01*
X241165178Y-164297321D01*
X241117559Y-164249702D01*
X241022321Y-164202083D01*
X240784226Y-164202083D01*
X240688988Y-164249702D01*
X240641369Y-164297321D01*
X240593750Y-164392559D01*
X240593750Y-164630654D01*
X240641369Y-164725892D01*
X240688988Y-164773511D01*
X240784226Y-164821130D01*
X241022321Y-164821130D01*
X241117559Y-164773511D01*
X241165178Y-164725892D01*
X219733630Y-164821130D02*
X219733630Y-163821130D01*
X219162202Y-164821130D02*
X219590773Y-164249702D01*
X219162202Y-163821130D02*
X219733630Y-164392559D01*
X218590773Y-164249702D02*
X218686011Y-164202083D01*
X218733630Y-164154464D01*
X218781250Y-164059226D01*
X218781250Y-164011607D01*
X218733630Y-163916369D01*
X218686011Y-163868750D01*
X218590773Y-163821130D01*
X218400297Y-163821130D01*
X218305059Y-163868750D01*
X218257440Y-163916369D01*
X218209821Y-164011607D01*
X218209821Y-164059226D01*
X218257440Y-164154464D01*
X218305059Y-164202083D01*
X218400297Y-164249702D01*
X218590773Y-164249702D01*
X218686011Y-164297321D01*
X218733630Y-164344940D01*
X218781250Y-164440178D01*
X218781250Y-164630654D01*
X218733630Y-164725892D01*
X218686011Y-164773511D01*
X218590773Y-164821130D01*
X218400297Y-164821130D01*
X218305059Y-164773511D01*
X218257440Y-164725892D01*
X218209821Y-164630654D01*
X218209821Y-164440178D01*
X218257440Y-164344940D01*
X218305059Y-164297321D01*
X218400297Y-164249702D01*
X217733630Y-164773511D02*
X217733630Y-164821130D01*
X217781250Y-164916369D01*
X217828869Y-164963988D01*
X216828869Y-163821130D02*
X217305059Y-163821130D01*
X217352678Y-164297321D01*
X217305059Y-164249702D01*
X217209821Y-164202083D01*
X216971726Y-164202083D01*
X216876488Y-164249702D01*
X216828869Y-164297321D01*
X216781250Y-164392559D01*
X216781250Y-164630654D01*
X216828869Y-164725892D01*
X216876488Y-164773511D01*
X216971726Y-164821130D01*
X217209821Y-164821130D01*
X217305059Y-164773511D01*
X217352678Y-164725892D01*
X148296130Y-164821130D02*
X148296130Y-163821130D01*
X147724702Y-164821130D02*
X148153273Y-164249702D01*
X147724702Y-163821130D02*
X148296130Y-164392559D01*
X147391369Y-163821130D02*
X146772321Y-163821130D01*
X147105654Y-164202083D01*
X146962797Y-164202083D01*
X146867559Y-164249702D01*
X146819940Y-164297321D01*
X146772321Y-164392559D01*
X146772321Y-164630654D01*
X146819940Y-164725892D01*
X146867559Y-164773511D01*
X146962797Y-164821130D01*
X147248511Y-164821130D01*
X147343750Y-164773511D01*
X147391369Y-164725892D01*
X146296130Y-164773511D02*
X146296130Y-164821130D01*
X146343750Y-164916369D01*
X146391369Y-164963988D01*
X145391369Y-163821130D02*
X145867559Y-163821130D01*
X145915178Y-164297321D01*
X145867559Y-164249702D01*
X145772321Y-164202083D01*
X145534226Y-164202083D01*
X145438988Y-164249702D01*
X145391369Y-164297321D01*
X145343750Y-164392559D01*
X145343750Y-164630654D01*
X145391369Y-164725892D01*
X145438988Y-164773511D01*
X145534226Y-164821130D01*
X145772321Y-164821130D01*
X145867559Y-164773511D01*
X145915178Y-164725892D01*
X76858630Y-164821130D02*
X76858630Y-163821130D01*
X76287202Y-164821130D02*
X76715773Y-164249702D01*
X76287202Y-163821130D02*
X76858630Y-164392559D01*
X75906250Y-163916369D02*
X75858630Y-163868750D01*
X75763392Y-163821130D01*
X75525297Y-163821130D01*
X75430059Y-163868750D01*
X75382440Y-163916369D01*
X75334821Y-164011607D01*
X75334821Y-164106845D01*
X75382440Y-164249702D01*
X75953869Y-164821130D01*
X75334821Y-164821130D01*
X74858630Y-164773511D02*
X74858630Y-164821130D01*
X74906250Y-164916369D01*
X74953869Y-164963988D01*
X73953869Y-163821130D02*
X74430059Y-163821130D01*
X74477678Y-164297321D01*
X74430059Y-164249702D01*
X74334821Y-164202083D01*
X74096726Y-164202083D01*
X74001488Y-164249702D01*
X73953869Y-164297321D01*
X73906250Y-164392559D01*
X73906250Y-164630654D01*
X73953869Y-164725892D01*
X74001488Y-164773511D01*
X74096726Y-164821130D01*
X74334821Y-164821130D01*
X74430059Y-164773511D01*
X74477678Y-164725892D01*
X53046130Y-164821130D02*
X53046130Y-163821130D01*
X52474702Y-164821130D02*
X52903273Y-164249702D01*
X52474702Y-163821130D02*
X53046130Y-164392559D01*
X51522321Y-164821130D02*
X52093750Y-164821130D01*
X51808035Y-164821130D02*
X51808035Y-163821130D01*
X51903273Y-163963988D01*
X51998511Y-164059226D01*
X52093750Y-164106845D01*
X51046130Y-164773511D02*
X51046130Y-164821130D01*
X51093749Y-164916369D01*
X51141369Y-164963988D01*
X50141369Y-163821130D02*
X50617559Y-163821130D01*
X50665178Y-164297321D01*
X50617559Y-164249702D01*
X50522321Y-164202083D01*
X50284226Y-164202083D01*
X50188988Y-164249702D01*
X50141369Y-164297321D01*
X50093749Y-164392559D01*
X50093749Y-164630654D01*
X50141369Y-164725892D01*
X50188988Y-164773511D01*
X50284226Y-164821130D01*
X50522321Y-164821130D01*
X50617559Y-164773511D01*
X50665178Y-164725892D01*
X277359821Y-145771130D02*
X277359821Y-144771130D01*
X276788392Y-145771130D02*
X277216964Y-145199702D01*
X276788392Y-144771130D02*
X277359821Y-145342559D01*
X275836011Y-145771130D02*
X276407440Y-145771130D01*
X276121726Y-145771130D02*
X276121726Y-144771130D01*
X276216964Y-144913988D01*
X276312202Y-145009226D01*
X276407440Y-145056845D01*
X274883630Y-145771130D02*
X275455059Y-145771130D01*
X275169345Y-145771130D02*
X275169345Y-144771130D01*
X275264583Y-144913988D01*
X275359821Y-145009226D01*
X275455059Y-145056845D01*
X274407440Y-145723511D02*
X274407440Y-145771130D01*
X274455059Y-145866369D01*
X274502678Y-145913988D01*
X273550297Y-145104464D02*
X273550297Y-145771130D01*
X273788392Y-144723511D02*
X274026488Y-145437797D01*
X273407440Y-145437797D01*
X241641071Y-145771130D02*
X241641071Y-144771130D01*
X241069642Y-145771130D02*
X241498214Y-145199702D01*
X241069642Y-144771130D02*
X241641071Y-145342559D01*
X240117261Y-145771130D02*
X240688690Y-145771130D01*
X240402976Y-145771130D02*
X240402976Y-144771130D01*
X240498214Y-144913988D01*
X240593452Y-145009226D01*
X240688690Y-145056845D01*
X239498214Y-144771130D02*
X239402976Y-144771130D01*
X239307738Y-144818750D01*
X239260119Y-144866369D01*
X239212500Y-144961607D01*
X239164880Y-145152083D01*
X239164880Y-145390178D01*
X239212500Y-145580654D01*
X239260119Y-145675892D01*
X239307738Y-145723511D01*
X239402976Y-145771130D01*
X239498214Y-145771130D01*
X239593452Y-145723511D01*
X239641071Y-145675892D01*
X239688690Y-145580654D01*
X239736309Y-145390178D01*
X239736309Y-145152083D01*
X239688690Y-144961607D01*
X239641071Y-144866369D01*
X239593452Y-144818750D01*
X239498214Y-144771130D01*
X238688690Y-145723511D02*
X238688690Y-145771130D01*
X238736309Y-145866369D01*
X238783928Y-145913988D01*
X237831547Y-145104464D02*
X237831547Y-145771130D01*
X238069642Y-144723511D02*
X238307738Y-145437797D01*
X237688690Y-145437797D01*
X222114880Y-145771130D02*
X222114880Y-144771130D01*
X221543452Y-145771130D02*
X221972023Y-145199702D01*
X221543452Y-144771130D02*
X222114880Y-145342559D01*
X221067261Y-145771130D02*
X220876785Y-145771130D01*
X220781547Y-145723511D01*
X220733928Y-145675892D01*
X220638690Y-145533035D01*
X220591071Y-145342559D01*
X220591071Y-144961607D01*
X220638690Y-144866369D01*
X220686309Y-144818750D01*
X220781547Y-144771130D01*
X220972023Y-144771130D01*
X221067261Y-144818750D01*
X221114880Y-144866369D01*
X221162500Y-144961607D01*
X221162500Y-145199702D01*
X221114880Y-145294940D01*
X221067261Y-145342559D01*
X220972023Y-145390178D01*
X220781547Y-145390178D01*
X220686309Y-145342559D01*
X220638690Y-145294940D01*
X220591071Y-145199702D01*
X220114880Y-145723511D02*
X220114880Y-145771130D01*
X220162500Y-145866369D01*
X220210119Y-145913988D01*
X219257738Y-145104464D02*
X219257738Y-145771130D01*
X219495833Y-144723511D02*
X219733928Y-145437797D01*
X219114880Y-145437797D01*
X203064880Y-145771130D02*
X203064880Y-144771130D01*
X202493452Y-145771130D02*
X202922023Y-145199702D01*
X202493452Y-144771130D02*
X203064880Y-145342559D01*
X201922023Y-145199702D02*
X202017261Y-145152083D01*
X202064880Y-145104464D01*
X202112500Y-145009226D01*
X202112500Y-144961607D01*
X202064880Y-144866369D01*
X202017261Y-144818750D01*
X201922023Y-144771130D01*
X201731547Y-144771130D01*
X201636309Y-144818750D01*
X201588690Y-144866369D01*
X201541071Y-144961607D01*
X201541071Y-145009226D01*
X201588690Y-145104464D01*
X201636309Y-145152083D01*
X201731547Y-145199702D01*
X201922023Y-145199702D01*
X202017261Y-145247321D01*
X202064880Y-145294940D01*
X202112500Y-145390178D01*
X202112500Y-145580654D01*
X202064880Y-145675892D01*
X202017261Y-145723511D01*
X201922023Y-145771130D01*
X201731547Y-145771130D01*
X201636309Y-145723511D01*
X201588690Y-145675892D01*
X201541071Y-145580654D01*
X201541071Y-145390178D01*
X201588690Y-145294940D01*
X201636309Y-145247321D01*
X201731547Y-145199702D01*
X201064880Y-145723511D02*
X201064880Y-145771130D01*
X201112500Y-145866369D01*
X201160119Y-145913988D01*
X200207738Y-145104464D02*
X200207738Y-145771130D01*
X200445833Y-144723511D02*
X200683928Y-145437797D01*
X200064880Y-145437797D01*
X184014880Y-145771130D02*
X184014880Y-144771130D01*
X183443452Y-145771130D02*
X183872023Y-145199702D01*
X183443452Y-144771130D02*
X184014880Y-145342559D01*
X183110119Y-144771130D02*
X182443452Y-144771130D01*
X182872023Y-145771130D01*
X182014880Y-145723511D02*
X182014880Y-145771130D01*
X182062500Y-145866369D01*
X182110119Y-145913988D01*
X181157738Y-145104464D02*
X181157738Y-145771130D01*
X181395833Y-144723511D02*
X181633928Y-145437797D01*
X181014880Y-145437797D01*
X164964880Y-145771130D02*
X164964880Y-144771130D01*
X164393452Y-145771130D02*
X164822023Y-145199702D01*
X164393452Y-144771130D02*
X164964880Y-145342559D01*
X163536309Y-144771130D02*
X163726785Y-144771130D01*
X163822023Y-144818750D01*
X163869642Y-144866369D01*
X163964880Y-145009226D01*
X164012500Y-145199702D01*
X164012500Y-145580654D01*
X163964880Y-145675892D01*
X163917261Y-145723511D01*
X163822023Y-145771130D01*
X163631547Y-145771130D01*
X163536309Y-145723511D01*
X163488690Y-145675892D01*
X163441071Y-145580654D01*
X163441071Y-145342559D01*
X163488690Y-145247321D01*
X163536309Y-145199702D01*
X163631547Y-145152083D01*
X163822023Y-145152083D01*
X163917261Y-145199702D01*
X163964880Y-145247321D01*
X164012500Y-145342559D01*
X162964880Y-145723511D02*
X162964880Y-145771130D01*
X163012500Y-145866369D01*
X163060119Y-145913988D01*
X162107738Y-145104464D02*
X162107738Y-145771130D01*
X162345833Y-144723511D02*
X162583928Y-145437797D01*
X161964880Y-145437797D01*
X145914880Y-145771130D02*
X145914880Y-144771130D01*
X145343452Y-145771130D02*
X145772023Y-145199702D01*
X145343452Y-144771130D02*
X145914880Y-145342559D01*
X144438690Y-144771130D02*
X144914880Y-144771130D01*
X144962500Y-145247321D01*
X144914880Y-145199702D01*
X144819642Y-145152083D01*
X144581547Y-145152083D01*
X144486309Y-145199702D01*
X144438690Y-145247321D01*
X144391071Y-145342559D01*
X144391071Y-145580654D01*
X144438690Y-145675892D01*
X144486309Y-145723511D01*
X144581547Y-145771130D01*
X144819642Y-145771130D01*
X144914880Y-145723511D01*
X144962500Y-145675892D01*
X143914880Y-145723511D02*
X143914880Y-145771130D01*
X143962500Y-145866369D01*
X144010119Y-145913988D01*
X143057738Y-145104464D02*
X143057738Y-145771130D01*
X143295833Y-144723511D02*
X143533928Y-145437797D01*
X142914880Y-145437797D01*
X126864880Y-145771130D02*
X126864880Y-144771130D01*
X126293452Y-145771130D02*
X126722023Y-145199702D01*
X126293452Y-144771130D02*
X126864880Y-145342559D01*
X125436309Y-145104464D02*
X125436309Y-145771130D01*
X125674404Y-144723511D02*
X125912500Y-145437797D01*
X125293452Y-145437797D01*
X124864880Y-145723511D02*
X124864880Y-145771130D01*
X124912500Y-145866369D01*
X124960119Y-145913988D01*
X124007738Y-145104464D02*
X124007738Y-145771130D01*
X124245833Y-144723511D02*
X124483928Y-145437797D01*
X123864880Y-145437797D01*
X107814880Y-145771130D02*
X107814880Y-144771130D01*
X107243452Y-145771130D02*
X107672023Y-145199702D01*
X107243452Y-144771130D02*
X107814880Y-145342559D01*
X106910119Y-144771130D02*
X106291071Y-144771130D01*
X106624404Y-145152083D01*
X106481547Y-145152083D01*
X106386309Y-145199702D01*
X106338690Y-145247321D01*
X106291071Y-145342559D01*
X106291071Y-145580654D01*
X106338690Y-145675892D01*
X106386309Y-145723511D01*
X106481547Y-145771130D01*
X106767261Y-145771130D01*
X106862500Y-145723511D01*
X106910119Y-145675892D01*
X105814880Y-145723511D02*
X105814880Y-145771130D01*
X105862500Y-145866369D01*
X105910119Y-145913988D01*
X104957738Y-145104464D02*
X104957738Y-145771130D01*
X105195833Y-144723511D02*
X105433928Y-145437797D01*
X104814880Y-145437797D01*
X88764880Y-145771130D02*
X88764880Y-144771130D01*
X88193452Y-145771130D02*
X88622023Y-145199702D01*
X88193452Y-144771130D02*
X88764880Y-145342559D01*
X87812500Y-144866369D02*
X87764880Y-144818750D01*
X87669642Y-144771130D01*
X87431547Y-144771130D01*
X87336309Y-144818750D01*
X87288690Y-144866369D01*
X87241071Y-144961607D01*
X87241071Y-145056845D01*
X87288690Y-145199702D01*
X87860119Y-145771130D01*
X87241071Y-145771130D01*
X86764880Y-145723511D02*
X86764880Y-145771130D01*
X86812500Y-145866369D01*
X86860119Y-145913988D01*
X85907738Y-145104464D02*
X85907738Y-145771130D01*
X86145833Y-144723511D02*
X86383928Y-145437797D01*
X85764880Y-145437797D01*
X69714880Y-145771130D02*
X69714880Y-144771130D01*
X69143452Y-145771130D02*
X69572023Y-145199702D01*
X69143452Y-144771130D02*
X69714880Y-145342559D01*
X68191071Y-145771130D02*
X68762500Y-145771130D01*
X68476785Y-145771130D02*
X68476785Y-144771130D01*
X68572023Y-144913988D01*
X68667261Y-145009226D01*
X68762500Y-145056845D01*
X67714880Y-145723511D02*
X67714880Y-145771130D01*
X67762500Y-145866369D01*
X67810119Y-145913988D01*
X66857738Y-145104464D02*
X66857738Y-145771130D01*
X67095833Y-144723511D02*
X67333928Y-145437797D01*
X66714880Y-145437797D01*
X282122321Y-126721130D02*
X282122321Y-125721130D01*
X281550892Y-126721130D02*
X281979464Y-126149702D01*
X281550892Y-125721130D02*
X282122321Y-126292559D01*
X280598511Y-126721130D02*
X281169940Y-126721130D01*
X280884226Y-126721130D02*
X280884226Y-125721130D01*
X280979464Y-125863988D01*
X281074702Y-125959226D01*
X281169940Y-126006845D01*
X280217559Y-125816369D02*
X280169940Y-125768750D01*
X280074702Y-125721130D01*
X279836607Y-125721130D01*
X279741369Y-125768750D01*
X279693750Y-125816369D01*
X279646130Y-125911607D01*
X279646130Y-126006845D01*
X279693750Y-126149702D01*
X280265178Y-126721130D01*
X279646130Y-126721130D01*
X279169940Y-126673511D02*
X279169940Y-126721130D01*
X279217559Y-126816369D01*
X279265178Y-126863988D01*
X278836607Y-125721130D02*
X278217559Y-125721130D01*
X278550892Y-126102083D01*
X278408035Y-126102083D01*
X278312797Y-126149702D01*
X278265178Y-126197321D01*
X278217559Y-126292559D01*
X278217559Y-126530654D01*
X278265178Y-126625892D01*
X278312797Y-126673511D01*
X278408035Y-126721130D01*
X278693750Y-126721130D01*
X278788988Y-126673511D01*
X278836607Y-126625892D01*
X251166071Y-126721130D02*
X251166071Y-125721130D01*
X250594642Y-126721130D02*
X251023214Y-126149702D01*
X250594642Y-125721130D02*
X251166071Y-126292559D01*
X249642261Y-126721130D02*
X250213690Y-126721130D01*
X249927976Y-126721130D02*
X249927976Y-125721130D01*
X250023214Y-125863988D01*
X250118452Y-125959226D01*
X250213690Y-126006845D01*
X248689880Y-126721130D02*
X249261309Y-126721130D01*
X248975595Y-126721130D02*
X248975595Y-125721130D01*
X249070833Y-125863988D01*
X249166071Y-125959226D01*
X249261309Y-126006845D01*
X248213690Y-126673511D02*
X248213690Y-126721130D01*
X248261309Y-126816369D01*
X248308928Y-126863988D01*
X247880357Y-125721130D02*
X247261309Y-125721130D01*
X247594642Y-126102083D01*
X247451785Y-126102083D01*
X247356547Y-126149702D01*
X247308928Y-126197321D01*
X247261309Y-126292559D01*
X247261309Y-126530654D01*
X247308928Y-126625892D01*
X247356547Y-126673511D01*
X247451785Y-126721130D01*
X247737500Y-126721130D01*
X247832738Y-126673511D01*
X247880357Y-126625892D01*
X232116071Y-126721130D02*
X232116071Y-125721130D01*
X231544642Y-126721130D02*
X231973214Y-126149702D01*
X231544642Y-125721130D02*
X232116071Y-126292559D01*
X230592261Y-126721130D02*
X231163690Y-126721130D01*
X230877976Y-126721130D02*
X230877976Y-125721130D01*
X230973214Y-125863988D01*
X231068452Y-125959226D01*
X231163690Y-126006845D01*
X229973214Y-125721130D02*
X229877976Y-125721130D01*
X229782738Y-125768750D01*
X229735119Y-125816369D01*
X229687500Y-125911607D01*
X229639880Y-126102083D01*
X229639880Y-126340178D01*
X229687500Y-126530654D01*
X229735119Y-126625892D01*
X229782738Y-126673511D01*
X229877976Y-126721130D01*
X229973214Y-126721130D01*
X230068452Y-126673511D01*
X230116071Y-126625892D01*
X230163690Y-126530654D01*
X230211309Y-126340178D01*
X230211309Y-126102083D01*
X230163690Y-125911607D01*
X230116071Y-125816369D01*
X230068452Y-125768750D01*
X229973214Y-125721130D01*
X229163690Y-126673511D02*
X229163690Y-126721130D01*
X229211309Y-126816369D01*
X229258928Y-126863988D01*
X228830357Y-125721130D02*
X228211309Y-125721130D01*
X228544642Y-126102083D01*
X228401785Y-126102083D01*
X228306547Y-126149702D01*
X228258928Y-126197321D01*
X228211309Y-126292559D01*
X228211309Y-126530654D01*
X228258928Y-126625892D01*
X228306547Y-126673511D01*
X228401785Y-126721130D01*
X228687500Y-126721130D01*
X228782738Y-126673511D01*
X228830357Y-126625892D01*
X212589880Y-126721130D02*
X212589880Y-125721130D01*
X212018452Y-126721130D02*
X212447023Y-126149702D01*
X212018452Y-125721130D02*
X212589880Y-126292559D01*
X211542261Y-126721130D02*
X211351785Y-126721130D01*
X211256547Y-126673511D01*
X211208928Y-126625892D01*
X211113690Y-126483035D01*
X211066071Y-126292559D01*
X211066071Y-125911607D01*
X211113690Y-125816369D01*
X211161309Y-125768750D01*
X211256547Y-125721130D01*
X211447023Y-125721130D01*
X211542261Y-125768750D01*
X211589880Y-125816369D01*
X211637500Y-125911607D01*
X211637500Y-126149702D01*
X211589880Y-126244940D01*
X211542261Y-126292559D01*
X211447023Y-126340178D01*
X211256547Y-126340178D01*
X211161309Y-126292559D01*
X211113690Y-126244940D01*
X211066071Y-126149702D01*
X210589880Y-126673511D02*
X210589880Y-126721130D01*
X210637500Y-126816369D01*
X210685119Y-126863988D01*
X210256547Y-125721130D02*
X209637500Y-125721130D01*
X209970833Y-126102083D01*
X209827976Y-126102083D01*
X209732738Y-126149702D01*
X209685119Y-126197321D01*
X209637500Y-126292559D01*
X209637500Y-126530654D01*
X209685119Y-126625892D01*
X209732738Y-126673511D01*
X209827976Y-126721130D01*
X210113690Y-126721130D01*
X210208928Y-126673511D01*
X210256547Y-126625892D01*
X193539880Y-126721130D02*
X193539880Y-125721130D01*
X192968452Y-126721130D02*
X193397023Y-126149702D01*
X192968452Y-125721130D02*
X193539880Y-126292559D01*
X192397023Y-126149702D02*
X192492261Y-126102083D01*
X192539880Y-126054464D01*
X192587500Y-125959226D01*
X192587500Y-125911607D01*
X192539880Y-125816369D01*
X192492261Y-125768750D01*
X192397023Y-125721130D01*
X192206547Y-125721130D01*
X192111309Y-125768750D01*
X192063690Y-125816369D01*
X192016071Y-125911607D01*
X192016071Y-125959226D01*
X192063690Y-126054464D01*
X192111309Y-126102083D01*
X192206547Y-126149702D01*
X192397023Y-126149702D01*
X192492261Y-126197321D01*
X192539880Y-126244940D01*
X192587500Y-126340178D01*
X192587500Y-126530654D01*
X192539880Y-126625892D01*
X192492261Y-126673511D01*
X192397023Y-126721130D01*
X192206547Y-126721130D01*
X192111309Y-126673511D01*
X192063690Y-126625892D01*
X192016071Y-126530654D01*
X192016071Y-126340178D01*
X192063690Y-126244940D01*
X192111309Y-126197321D01*
X192206547Y-126149702D01*
X191539880Y-126673511D02*
X191539880Y-126721130D01*
X191587500Y-126816369D01*
X191635119Y-126863988D01*
X191206547Y-125721130D02*
X190587500Y-125721130D01*
X190920833Y-126102083D01*
X190777976Y-126102083D01*
X190682738Y-126149702D01*
X190635119Y-126197321D01*
X190587500Y-126292559D01*
X190587500Y-126530654D01*
X190635119Y-126625892D01*
X190682738Y-126673511D01*
X190777976Y-126721130D01*
X191063690Y-126721130D01*
X191158928Y-126673511D01*
X191206547Y-126625892D01*
X174489880Y-126721130D02*
X174489880Y-125721130D01*
X173918452Y-126721130D02*
X174347023Y-126149702D01*
X173918452Y-125721130D02*
X174489880Y-126292559D01*
X173585119Y-125721130D02*
X172918452Y-125721130D01*
X173347023Y-126721130D01*
X172489880Y-126673511D02*
X172489880Y-126721130D01*
X172537500Y-126816369D01*
X172585119Y-126863988D01*
X172156547Y-125721130D02*
X171537500Y-125721130D01*
X171870833Y-126102083D01*
X171727976Y-126102083D01*
X171632738Y-126149702D01*
X171585119Y-126197321D01*
X171537500Y-126292559D01*
X171537500Y-126530654D01*
X171585119Y-126625892D01*
X171632738Y-126673511D01*
X171727976Y-126721130D01*
X172013690Y-126721130D01*
X172108928Y-126673511D01*
X172156547Y-126625892D01*
X155439880Y-126721130D02*
X155439880Y-125721130D01*
X154868452Y-126721130D02*
X155297023Y-126149702D01*
X154868452Y-125721130D02*
X155439880Y-126292559D01*
X154011309Y-125721130D02*
X154201785Y-125721130D01*
X154297023Y-125768750D01*
X154344642Y-125816369D01*
X154439880Y-125959226D01*
X154487500Y-126149702D01*
X154487500Y-126530654D01*
X154439880Y-126625892D01*
X154392261Y-126673511D01*
X154297023Y-126721130D01*
X154106547Y-126721130D01*
X154011309Y-126673511D01*
X153963690Y-126625892D01*
X153916071Y-126530654D01*
X153916071Y-126292559D01*
X153963690Y-126197321D01*
X154011309Y-126149702D01*
X154106547Y-126102083D01*
X154297023Y-126102083D01*
X154392261Y-126149702D01*
X154439880Y-126197321D01*
X154487500Y-126292559D01*
X153439880Y-126673511D02*
X153439880Y-126721130D01*
X153487500Y-126816369D01*
X153535119Y-126863988D01*
X153106547Y-125721130D02*
X152487500Y-125721130D01*
X152820833Y-126102083D01*
X152677976Y-126102083D01*
X152582738Y-126149702D01*
X152535119Y-126197321D01*
X152487500Y-126292559D01*
X152487500Y-126530654D01*
X152535119Y-126625892D01*
X152582738Y-126673511D01*
X152677976Y-126721130D01*
X152963690Y-126721130D01*
X153058928Y-126673511D01*
X153106547Y-126625892D01*
X136389880Y-126721130D02*
X136389880Y-125721130D01*
X135818452Y-126721130D02*
X136247023Y-126149702D01*
X135818452Y-125721130D02*
X136389880Y-126292559D01*
X134913690Y-125721130D02*
X135389880Y-125721130D01*
X135437500Y-126197321D01*
X135389880Y-126149702D01*
X135294642Y-126102083D01*
X135056547Y-126102083D01*
X134961309Y-126149702D01*
X134913690Y-126197321D01*
X134866071Y-126292559D01*
X134866071Y-126530654D01*
X134913690Y-126625892D01*
X134961309Y-126673511D01*
X135056547Y-126721130D01*
X135294642Y-126721130D01*
X135389880Y-126673511D01*
X135437500Y-126625892D01*
X134389880Y-126673511D02*
X134389880Y-126721130D01*
X134437500Y-126816369D01*
X134485119Y-126863988D01*
X134056547Y-125721130D02*
X133437500Y-125721130D01*
X133770833Y-126102083D01*
X133627976Y-126102083D01*
X133532738Y-126149702D01*
X133485119Y-126197321D01*
X133437500Y-126292559D01*
X133437500Y-126530654D01*
X133485119Y-126625892D01*
X133532738Y-126673511D01*
X133627976Y-126721130D01*
X133913690Y-126721130D01*
X134008928Y-126673511D01*
X134056547Y-126625892D01*
X117339880Y-126721130D02*
X117339880Y-125721130D01*
X116768452Y-126721130D02*
X117197023Y-126149702D01*
X116768452Y-125721130D02*
X117339880Y-126292559D01*
X115911309Y-126054464D02*
X115911309Y-126721130D01*
X116149404Y-125673511D02*
X116387500Y-126387797D01*
X115768452Y-126387797D01*
X115339880Y-126673511D02*
X115339880Y-126721130D01*
X115387500Y-126816369D01*
X115435119Y-126863988D01*
X115006547Y-125721130D02*
X114387500Y-125721130D01*
X114720833Y-126102083D01*
X114577976Y-126102083D01*
X114482738Y-126149702D01*
X114435119Y-126197321D01*
X114387500Y-126292559D01*
X114387500Y-126530654D01*
X114435119Y-126625892D01*
X114482738Y-126673511D01*
X114577976Y-126721130D01*
X114863690Y-126721130D01*
X114958928Y-126673511D01*
X115006547Y-126625892D01*
X98289880Y-126721130D02*
X98289880Y-125721130D01*
X97718452Y-126721130D02*
X98147023Y-126149702D01*
X97718452Y-125721130D02*
X98289880Y-126292559D01*
X97385119Y-125721130D02*
X96766071Y-125721130D01*
X97099404Y-126102083D01*
X96956547Y-126102083D01*
X96861309Y-126149702D01*
X96813690Y-126197321D01*
X96766071Y-126292559D01*
X96766071Y-126530654D01*
X96813690Y-126625892D01*
X96861309Y-126673511D01*
X96956547Y-126721130D01*
X97242261Y-126721130D01*
X97337500Y-126673511D01*
X97385119Y-126625892D01*
X96289880Y-126673511D02*
X96289880Y-126721130D01*
X96337500Y-126816369D01*
X96385119Y-126863988D01*
X95956547Y-125721130D02*
X95337500Y-125721130D01*
X95670833Y-126102083D01*
X95527976Y-126102083D01*
X95432738Y-126149702D01*
X95385119Y-126197321D01*
X95337500Y-126292559D01*
X95337500Y-126530654D01*
X95385119Y-126625892D01*
X95432738Y-126673511D01*
X95527976Y-126721130D01*
X95813690Y-126721130D01*
X95908928Y-126673511D01*
X95956547Y-126625892D01*
X79239880Y-126721130D02*
X79239880Y-125721130D01*
X78668452Y-126721130D02*
X79097023Y-126149702D01*
X78668452Y-125721130D02*
X79239880Y-126292559D01*
X78287500Y-125816369D02*
X78239880Y-125768750D01*
X78144642Y-125721130D01*
X77906547Y-125721130D01*
X77811309Y-125768750D01*
X77763690Y-125816369D01*
X77716071Y-125911607D01*
X77716071Y-126006845D01*
X77763690Y-126149702D01*
X78335119Y-126721130D01*
X77716071Y-126721130D01*
X77239880Y-126673511D02*
X77239880Y-126721130D01*
X77287500Y-126816369D01*
X77335119Y-126863988D01*
X76906547Y-125721130D02*
X76287500Y-125721130D01*
X76620833Y-126102083D01*
X76477976Y-126102083D01*
X76382738Y-126149702D01*
X76335119Y-126197321D01*
X76287500Y-126292559D01*
X76287500Y-126530654D01*
X76335119Y-126625892D01*
X76382738Y-126673511D01*
X76477976Y-126721130D01*
X76763690Y-126721130D01*
X76858928Y-126673511D01*
X76906547Y-126625892D01*
X60189880Y-126721130D02*
X60189880Y-125721130D01*
X59618452Y-126721130D02*
X60047023Y-126149702D01*
X59618452Y-125721130D02*
X60189880Y-126292559D01*
X58666071Y-126721130D02*
X59237500Y-126721130D01*
X58951785Y-126721130D02*
X58951785Y-125721130D01*
X59047023Y-125863988D01*
X59142261Y-125959226D01*
X59237500Y-126006845D01*
X58189880Y-126673511D02*
X58189880Y-126721130D01*
X58237499Y-126816369D01*
X58285119Y-126863988D01*
X57856547Y-125721130D02*
X57237499Y-125721130D01*
X57570833Y-126102083D01*
X57427976Y-126102083D01*
X57332738Y-126149702D01*
X57285119Y-126197321D01*
X57237499Y-126292559D01*
X57237499Y-126530654D01*
X57285119Y-126625892D01*
X57332738Y-126673511D01*
X57427976Y-126721130D01*
X57713690Y-126721130D01*
X57808928Y-126673511D01*
X57856547Y-126625892D01*
X289266071Y-107671130D02*
X289266071Y-106671130D01*
X288694642Y-107671130D02*
X289123214Y-107099702D01*
X288694642Y-106671130D02*
X289266071Y-107242559D01*
X287742261Y-107671130D02*
X288313690Y-107671130D01*
X288027976Y-107671130D02*
X288027976Y-106671130D01*
X288123214Y-106813988D01*
X288218452Y-106909226D01*
X288313690Y-106956845D01*
X287408928Y-106671130D02*
X286789880Y-106671130D01*
X287123214Y-107052083D01*
X286980357Y-107052083D01*
X286885119Y-107099702D01*
X286837500Y-107147321D01*
X286789880Y-107242559D01*
X286789880Y-107480654D01*
X286837500Y-107575892D01*
X286885119Y-107623511D01*
X286980357Y-107671130D01*
X287266071Y-107671130D01*
X287361309Y-107623511D01*
X287408928Y-107575892D01*
X286313690Y-107623511D02*
X286313690Y-107671130D01*
X286361309Y-107766369D01*
X286408928Y-107813988D01*
X285932738Y-106766369D02*
X285885119Y-106718750D01*
X285789880Y-106671130D01*
X285551785Y-106671130D01*
X285456547Y-106718750D01*
X285408928Y-106766369D01*
X285361309Y-106861607D01*
X285361309Y-106956845D01*
X285408928Y-107099702D01*
X285980357Y-107671130D01*
X285361309Y-107671130D01*
X265453571Y-107671130D02*
X265453571Y-106671130D01*
X264882142Y-107671130D02*
X265310714Y-107099702D01*
X264882142Y-106671130D02*
X265453571Y-107242559D01*
X263929761Y-107671130D02*
X264501190Y-107671130D01*
X264215476Y-107671130D02*
X264215476Y-106671130D01*
X264310714Y-106813988D01*
X264405952Y-106909226D01*
X264501190Y-106956845D01*
X263548809Y-106766369D02*
X263501190Y-106718750D01*
X263405952Y-106671130D01*
X263167857Y-106671130D01*
X263072619Y-106718750D01*
X263025000Y-106766369D01*
X262977380Y-106861607D01*
X262977380Y-106956845D01*
X263025000Y-107099702D01*
X263596428Y-107671130D01*
X262977380Y-107671130D01*
X262501190Y-107623511D02*
X262501190Y-107671130D01*
X262548809Y-107766369D01*
X262596428Y-107813988D01*
X262120238Y-106766369D02*
X262072619Y-106718750D01*
X261977380Y-106671130D01*
X261739285Y-106671130D01*
X261644047Y-106718750D01*
X261596428Y-106766369D01*
X261548809Y-106861607D01*
X261548809Y-106956845D01*
X261596428Y-107099702D01*
X262167857Y-107671130D01*
X261548809Y-107671130D01*
X246403571Y-107671130D02*
X246403571Y-106671130D01*
X245832142Y-107671130D02*
X246260714Y-107099702D01*
X245832142Y-106671130D02*
X246403571Y-107242559D01*
X244879761Y-107671130D02*
X245451190Y-107671130D01*
X245165476Y-107671130D02*
X245165476Y-106671130D01*
X245260714Y-106813988D01*
X245355952Y-106909226D01*
X245451190Y-106956845D01*
X243927380Y-107671130D02*
X244498809Y-107671130D01*
X244213095Y-107671130D02*
X244213095Y-106671130D01*
X244308333Y-106813988D01*
X244403571Y-106909226D01*
X244498809Y-106956845D01*
X243451190Y-107623511D02*
X243451190Y-107671130D01*
X243498809Y-107766369D01*
X243546428Y-107813988D01*
X243070238Y-106766369D02*
X243022619Y-106718750D01*
X242927380Y-106671130D01*
X242689285Y-106671130D01*
X242594047Y-106718750D01*
X242546428Y-106766369D01*
X242498809Y-106861607D01*
X242498809Y-106956845D01*
X242546428Y-107099702D01*
X243117857Y-107671130D01*
X242498809Y-107671130D01*
X227353571Y-107671130D02*
X227353571Y-106671130D01*
X226782142Y-107671130D02*
X227210714Y-107099702D01*
X226782142Y-106671130D02*
X227353571Y-107242559D01*
X225829761Y-107671130D02*
X226401190Y-107671130D01*
X226115476Y-107671130D02*
X226115476Y-106671130D01*
X226210714Y-106813988D01*
X226305952Y-106909226D01*
X226401190Y-106956845D01*
X225210714Y-106671130D02*
X225115476Y-106671130D01*
X225020238Y-106718750D01*
X224972619Y-106766369D01*
X224925000Y-106861607D01*
X224877380Y-107052083D01*
X224877380Y-107290178D01*
X224925000Y-107480654D01*
X224972619Y-107575892D01*
X225020238Y-107623511D01*
X225115476Y-107671130D01*
X225210714Y-107671130D01*
X225305952Y-107623511D01*
X225353571Y-107575892D01*
X225401190Y-107480654D01*
X225448809Y-107290178D01*
X225448809Y-107052083D01*
X225401190Y-106861607D01*
X225353571Y-106766369D01*
X225305952Y-106718750D01*
X225210714Y-106671130D01*
X224401190Y-107623511D02*
X224401190Y-107671130D01*
X224448809Y-107766369D01*
X224496428Y-107813988D01*
X224020238Y-106766369D02*
X223972619Y-106718750D01*
X223877380Y-106671130D01*
X223639285Y-106671130D01*
X223544047Y-106718750D01*
X223496428Y-106766369D01*
X223448809Y-106861607D01*
X223448809Y-106956845D01*
X223496428Y-107099702D01*
X224067857Y-107671130D01*
X223448809Y-107671130D01*
X207827380Y-107671130D02*
X207827380Y-106671130D01*
X207255952Y-107671130D02*
X207684523Y-107099702D01*
X207255952Y-106671130D02*
X207827380Y-107242559D01*
X206779761Y-107671130D02*
X206589285Y-107671130D01*
X206494047Y-107623511D01*
X206446428Y-107575892D01*
X206351190Y-107433035D01*
X206303571Y-107242559D01*
X206303571Y-106861607D01*
X206351190Y-106766369D01*
X206398809Y-106718750D01*
X206494047Y-106671130D01*
X206684523Y-106671130D01*
X206779761Y-106718750D01*
X206827380Y-106766369D01*
X206875000Y-106861607D01*
X206875000Y-107099702D01*
X206827380Y-107194940D01*
X206779761Y-107242559D01*
X206684523Y-107290178D01*
X206494047Y-107290178D01*
X206398809Y-107242559D01*
X206351190Y-107194940D01*
X206303571Y-107099702D01*
X205827380Y-107623511D02*
X205827380Y-107671130D01*
X205875000Y-107766369D01*
X205922619Y-107813988D01*
X205446428Y-106766369D02*
X205398809Y-106718750D01*
X205303571Y-106671130D01*
X205065476Y-106671130D01*
X204970238Y-106718750D01*
X204922619Y-106766369D01*
X204875000Y-106861607D01*
X204875000Y-106956845D01*
X204922619Y-107099702D01*
X205494047Y-107671130D01*
X204875000Y-107671130D01*
X188777380Y-107671130D02*
X188777380Y-106671130D01*
X188205952Y-107671130D02*
X188634523Y-107099702D01*
X188205952Y-106671130D02*
X188777380Y-107242559D01*
X187634523Y-107099702D02*
X187729761Y-107052083D01*
X187777380Y-107004464D01*
X187825000Y-106909226D01*
X187825000Y-106861607D01*
X187777380Y-106766369D01*
X187729761Y-106718750D01*
X187634523Y-106671130D01*
X187444047Y-106671130D01*
X187348809Y-106718750D01*
X187301190Y-106766369D01*
X187253571Y-106861607D01*
X187253571Y-106909226D01*
X187301190Y-107004464D01*
X187348809Y-107052083D01*
X187444047Y-107099702D01*
X187634523Y-107099702D01*
X187729761Y-107147321D01*
X187777380Y-107194940D01*
X187825000Y-107290178D01*
X187825000Y-107480654D01*
X187777380Y-107575892D01*
X187729761Y-107623511D01*
X187634523Y-107671130D01*
X187444047Y-107671130D01*
X187348809Y-107623511D01*
X187301190Y-107575892D01*
X187253571Y-107480654D01*
X187253571Y-107290178D01*
X187301190Y-107194940D01*
X187348809Y-107147321D01*
X187444047Y-107099702D01*
X186777380Y-107623511D02*
X186777380Y-107671130D01*
X186825000Y-107766369D01*
X186872619Y-107813988D01*
X186396428Y-106766369D02*
X186348809Y-106718750D01*
X186253571Y-106671130D01*
X186015476Y-106671130D01*
X185920238Y-106718750D01*
X185872619Y-106766369D01*
X185825000Y-106861607D01*
X185825000Y-106956845D01*
X185872619Y-107099702D01*
X186444047Y-107671130D01*
X185825000Y-107671130D01*
X169727380Y-107671130D02*
X169727380Y-106671130D01*
X169155952Y-107671130D02*
X169584523Y-107099702D01*
X169155952Y-106671130D02*
X169727380Y-107242559D01*
X168822619Y-106671130D02*
X168155952Y-106671130D01*
X168584523Y-107671130D01*
X167727380Y-107623511D02*
X167727380Y-107671130D01*
X167775000Y-107766369D01*
X167822619Y-107813988D01*
X167346428Y-106766369D02*
X167298809Y-106718750D01*
X167203571Y-106671130D01*
X166965476Y-106671130D01*
X166870238Y-106718750D01*
X166822619Y-106766369D01*
X166775000Y-106861607D01*
X166775000Y-106956845D01*
X166822619Y-107099702D01*
X167394047Y-107671130D01*
X166775000Y-107671130D01*
X150677380Y-107671130D02*
X150677380Y-106671130D01*
X150105952Y-107671130D02*
X150534523Y-107099702D01*
X150105952Y-106671130D02*
X150677380Y-107242559D01*
X149248809Y-106671130D02*
X149439285Y-106671130D01*
X149534523Y-106718750D01*
X149582142Y-106766369D01*
X149677380Y-106909226D01*
X149725000Y-107099702D01*
X149725000Y-107480654D01*
X149677380Y-107575892D01*
X149629761Y-107623511D01*
X149534523Y-107671130D01*
X149344047Y-107671130D01*
X149248809Y-107623511D01*
X149201190Y-107575892D01*
X149153571Y-107480654D01*
X149153571Y-107242559D01*
X149201190Y-107147321D01*
X149248809Y-107099702D01*
X149344047Y-107052083D01*
X149534523Y-107052083D01*
X149629761Y-107099702D01*
X149677380Y-107147321D01*
X149725000Y-107242559D01*
X148677380Y-107623511D02*
X148677380Y-107671130D01*
X148725000Y-107766369D01*
X148772619Y-107813988D01*
X148296428Y-106766369D02*
X148248809Y-106718750D01*
X148153571Y-106671130D01*
X147915476Y-106671130D01*
X147820238Y-106718750D01*
X147772619Y-106766369D01*
X147725000Y-106861607D01*
X147725000Y-106956845D01*
X147772619Y-107099702D01*
X148344047Y-107671130D01*
X147725000Y-107671130D01*
X131627380Y-107671130D02*
X131627380Y-106671130D01*
X131055952Y-107671130D02*
X131484523Y-107099702D01*
X131055952Y-106671130D02*
X131627380Y-107242559D01*
X130151190Y-106671130D02*
X130627380Y-106671130D01*
X130675000Y-107147321D01*
X130627380Y-107099702D01*
X130532142Y-107052083D01*
X130294047Y-107052083D01*
X130198809Y-107099702D01*
X130151190Y-107147321D01*
X130103571Y-107242559D01*
X130103571Y-107480654D01*
X130151190Y-107575892D01*
X130198809Y-107623511D01*
X130294047Y-107671130D01*
X130532142Y-107671130D01*
X130627380Y-107623511D01*
X130675000Y-107575892D01*
X129627380Y-107623511D02*
X129627380Y-107671130D01*
X129675000Y-107766369D01*
X129722619Y-107813988D01*
X129246428Y-106766369D02*
X129198809Y-106718750D01*
X129103571Y-106671130D01*
X128865476Y-106671130D01*
X128770238Y-106718750D01*
X128722619Y-106766369D01*
X128675000Y-106861607D01*
X128675000Y-106956845D01*
X128722619Y-107099702D01*
X129294047Y-107671130D01*
X128675000Y-107671130D01*
X112577380Y-107671130D02*
X112577380Y-106671130D01*
X112005952Y-107671130D02*
X112434523Y-107099702D01*
X112005952Y-106671130D02*
X112577380Y-107242559D01*
X111148809Y-107004464D02*
X111148809Y-107671130D01*
X111386904Y-106623511D02*
X111625000Y-107337797D01*
X111005952Y-107337797D01*
X110577380Y-107623511D02*
X110577380Y-107671130D01*
X110625000Y-107766369D01*
X110672619Y-107813988D01*
X110196428Y-106766369D02*
X110148809Y-106718750D01*
X110053571Y-106671130D01*
X109815476Y-106671130D01*
X109720238Y-106718750D01*
X109672619Y-106766369D01*
X109625000Y-106861607D01*
X109625000Y-106956845D01*
X109672619Y-107099702D01*
X110244047Y-107671130D01*
X109625000Y-107671130D01*
X93527380Y-107671130D02*
X93527380Y-106671130D01*
X92955952Y-107671130D02*
X93384523Y-107099702D01*
X92955952Y-106671130D02*
X93527380Y-107242559D01*
X92622619Y-106671130D02*
X92003571Y-106671130D01*
X92336904Y-107052083D01*
X92194047Y-107052083D01*
X92098809Y-107099702D01*
X92051190Y-107147321D01*
X92003571Y-107242559D01*
X92003571Y-107480654D01*
X92051190Y-107575892D01*
X92098809Y-107623511D01*
X92194047Y-107671130D01*
X92479761Y-107671130D01*
X92575000Y-107623511D01*
X92622619Y-107575892D01*
X91527380Y-107623511D02*
X91527380Y-107671130D01*
X91575000Y-107766369D01*
X91622619Y-107813988D01*
X91146428Y-106766369D02*
X91098809Y-106718750D01*
X91003571Y-106671130D01*
X90765476Y-106671130D01*
X90670238Y-106718750D01*
X90622619Y-106766369D01*
X90575000Y-106861607D01*
X90575000Y-106956845D01*
X90622619Y-107099702D01*
X91194047Y-107671130D01*
X90575000Y-107671130D01*
X74477380Y-107671130D02*
X74477380Y-106671130D01*
X73905952Y-107671130D02*
X74334523Y-107099702D01*
X73905952Y-106671130D02*
X74477380Y-107242559D01*
X73525000Y-106766369D02*
X73477380Y-106718750D01*
X73382142Y-106671130D01*
X73144047Y-106671130D01*
X73048809Y-106718750D01*
X73001190Y-106766369D01*
X72953571Y-106861607D01*
X72953571Y-106956845D01*
X73001190Y-107099702D01*
X73572619Y-107671130D01*
X72953571Y-107671130D01*
X72477380Y-107623511D02*
X72477380Y-107671130D01*
X72525000Y-107766369D01*
X72572619Y-107813988D01*
X72096428Y-106766369D02*
X72048809Y-106718750D01*
X71953571Y-106671130D01*
X71715476Y-106671130D01*
X71620238Y-106718750D01*
X71572619Y-106766369D01*
X71525000Y-106861607D01*
X71525000Y-106956845D01*
X71572619Y-107099702D01*
X72144047Y-107671130D01*
X71525000Y-107671130D01*
X55427380Y-107671130D02*
X55427380Y-106671130D01*
X54855952Y-107671130D02*
X55284523Y-107099702D01*
X54855952Y-106671130D02*
X55427380Y-107242559D01*
X53903571Y-107671130D02*
X54475000Y-107671130D01*
X54189285Y-107671130D02*
X54189285Y-106671130D01*
X54284523Y-106813988D01*
X54379761Y-106909226D01*
X54475000Y-106956845D01*
X53427380Y-107623511D02*
X53427380Y-107671130D01*
X53474999Y-107766369D01*
X53522619Y-107813988D01*
X53046428Y-106766369D02*
X52998809Y-106718750D01*
X52903571Y-106671130D01*
X52665476Y-106671130D01*
X52570238Y-106718750D01*
X52522619Y-106766369D01*
X52474999Y-106861607D01*
X52474999Y-106956845D01*
X52522619Y-107099702D01*
X53094047Y-107671130D01*
X52474999Y-107671130D01*
X29233630Y-164821130D02*
X29233630Y-163821130D01*
X28662202Y-164821130D02*
X29090773Y-164249702D01*
X28662202Y-163821130D02*
X29233630Y-164392559D01*
X28043154Y-163821130D02*
X27947916Y-163821130D01*
X27852678Y-163868750D01*
X27805059Y-163916369D01*
X27757440Y-164011607D01*
X27709821Y-164202083D01*
X27709821Y-164440178D01*
X27757440Y-164630654D01*
X27805059Y-164725892D01*
X27852678Y-164773511D01*
X27947916Y-164821130D01*
X28043154Y-164821130D01*
X28138392Y-164773511D01*
X28186011Y-164725892D01*
X28233630Y-164630654D01*
X28281250Y-164440178D01*
X28281250Y-164202083D01*
X28233630Y-164011607D01*
X28186011Y-163916369D01*
X28138392Y-163868750D01*
X28043154Y-163821130D01*
X27233630Y-164773511D02*
X27233630Y-164821130D01*
X27281250Y-164916369D01*
X27328869Y-164963988D01*
X26328869Y-163821130D02*
X26805059Y-163821130D01*
X26852678Y-164297321D01*
X26805059Y-164249702D01*
X26709821Y-164202083D01*
X26471726Y-164202083D01*
X26376488Y-164249702D01*
X26328869Y-164297321D01*
X26281250Y-164392559D01*
X26281250Y-164630654D01*
X26328869Y-164725892D01*
X26376488Y-164773511D01*
X26471726Y-164821130D01*
X26709821Y-164821130D01*
X26805059Y-164773511D01*
X26852678Y-164725892D01*
X38758630Y-145771130D02*
X38758630Y-144771130D01*
X38187202Y-145771130D02*
X38615773Y-145199702D01*
X38187202Y-144771130D02*
X38758630Y-145342559D01*
X37568154Y-144771130D02*
X37472916Y-144771130D01*
X37377678Y-144818750D01*
X37330059Y-144866369D01*
X37282440Y-144961607D01*
X37234821Y-145152083D01*
X37234821Y-145390178D01*
X37282440Y-145580654D01*
X37330059Y-145675892D01*
X37377678Y-145723511D01*
X37472916Y-145771130D01*
X37568154Y-145771130D01*
X37663392Y-145723511D01*
X37711011Y-145675892D01*
X37758630Y-145580654D01*
X37806250Y-145390178D01*
X37806250Y-145152083D01*
X37758630Y-144961607D01*
X37711011Y-144866369D01*
X37663392Y-144818750D01*
X37568154Y-144771130D01*
X36758630Y-145723511D02*
X36758630Y-145771130D01*
X36806249Y-145866369D01*
X36853869Y-145913988D01*
X35901488Y-145104464D02*
X35901488Y-145771130D01*
X36139583Y-144723511D02*
X36377678Y-145437797D01*
X35758630Y-145437797D01*
X33996130Y-126721130D02*
X33996130Y-125721130D01*
X33424702Y-126721130D02*
X33853273Y-126149702D01*
X33424702Y-125721130D02*
X33996130Y-126292559D01*
X32805654Y-125721130D02*
X32710416Y-125721130D01*
X32615178Y-125768750D01*
X32567559Y-125816369D01*
X32519940Y-125911607D01*
X32472321Y-126102083D01*
X32472321Y-126340178D01*
X32519940Y-126530654D01*
X32567559Y-126625892D01*
X32615178Y-126673511D01*
X32710416Y-126721130D01*
X32805654Y-126721130D01*
X32900892Y-126673511D01*
X32948511Y-126625892D01*
X32996130Y-126530654D01*
X33043750Y-126340178D01*
X33043750Y-126102083D01*
X32996130Y-125911607D01*
X32948511Y-125816369D01*
X32900892Y-125768750D01*
X32805654Y-125721130D01*
X31996130Y-126673511D02*
X31996130Y-126721130D01*
X32043750Y-126816369D01*
X32091369Y-126863988D01*
X31662797Y-125721130D02*
X31043750Y-125721130D01*
X31377083Y-126102083D01*
X31234226Y-126102083D01*
X31138988Y-126149702D01*
X31091369Y-126197321D01*
X31043750Y-126292559D01*
X31043750Y-126530654D01*
X31091369Y-126625892D01*
X31138988Y-126673511D01*
X31234226Y-126721130D01*
X31519940Y-126721130D01*
X31615178Y-126673511D01*
X31662797Y-126625892D01*
X293234821Y-64014880D02*
X293234821Y-63014880D01*
X292663392Y-64014880D02*
X293091964Y-63443452D01*
X292663392Y-63014880D02*
X293234821Y-63586309D01*
X291711011Y-64014880D02*
X292282440Y-64014880D01*
X291996726Y-64014880D02*
X291996726Y-63014880D01*
X292091964Y-63157738D01*
X292187202Y-63252976D01*
X292282440Y-63300595D01*
X291330059Y-63110119D02*
X291282440Y-63062500D01*
X291187202Y-63014880D01*
X290949107Y-63014880D01*
X290853869Y-63062500D01*
X290806250Y-63110119D01*
X290758630Y-63205357D01*
X290758630Y-63300595D01*
X290806250Y-63443452D01*
X291377678Y-64014880D01*
X290758630Y-64014880D01*
X290282440Y-63967261D02*
X290282440Y-64014880D01*
X290330059Y-64110119D01*
X290377678Y-64157738D01*
X289663392Y-63014880D02*
X289568154Y-63014880D01*
X289472916Y-63062500D01*
X289425297Y-63110119D01*
X289377678Y-63205357D01*
X289330059Y-63395833D01*
X289330059Y-63633928D01*
X289377678Y-63824404D01*
X289425297Y-63919642D01*
X289472916Y-63967261D01*
X289568154Y-64014880D01*
X289663392Y-64014880D01*
X289758630Y-63967261D01*
X289806250Y-63919642D01*
X289853869Y-63824404D01*
X289901488Y-63633928D01*
X289901488Y-63395833D01*
X289853869Y-63205357D01*
X289806250Y-63110119D01*
X289758630Y-63062500D01*
X289663392Y-63014880D01*
X274184821Y-64014880D02*
X274184821Y-63014880D01*
X273613392Y-64014880D02*
X274041964Y-63443452D01*
X273613392Y-63014880D02*
X274184821Y-63586309D01*
X272661011Y-64014880D02*
X273232440Y-64014880D01*
X272946726Y-64014880D02*
X272946726Y-63014880D01*
X273041964Y-63157738D01*
X273137202Y-63252976D01*
X273232440Y-63300595D01*
X271708630Y-64014880D02*
X272280059Y-64014880D01*
X271994345Y-64014880D02*
X271994345Y-63014880D01*
X272089583Y-63157738D01*
X272184821Y-63252976D01*
X272280059Y-63300595D01*
X271232440Y-63967261D02*
X271232440Y-64014880D01*
X271280059Y-64110119D01*
X271327678Y-64157738D01*
X270613392Y-63014880D02*
X270518154Y-63014880D01*
X270422916Y-63062500D01*
X270375297Y-63110119D01*
X270327678Y-63205357D01*
X270280059Y-63395833D01*
X270280059Y-63633928D01*
X270327678Y-63824404D01*
X270375297Y-63919642D01*
X270422916Y-63967261D01*
X270518154Y-64014880D01*
X270613392Y-64014880D01*
X270708630Y-63967261D01*
X270756250Y-63919642D01*
X270803869Y-63824404D01*
X270851488Y-63633928D01*
X270851488Y-63395833D01*
X270803869Y-63205357D01*
X270756250Y-63110119D01*
X270708630Y-63062500D01*
X270613392Y-63014880D01*
X235608630Y-64014880D02*
X235608630Y-63014880D01*
X235037202Y-64014880D02*
X235465773Y-63443452D01*
X235037202Y-63014880D02*
X235608630Y-63586309D01*
X234561011Y-64014880D02*
X234370535Y-64014880D01*
X234275297Y-63967261D01*
X234227678Y-63919642D01*
X234132440Y-63776785D01*
X234084821Y-63586309D01*
X234084821Y-63205357D01*
X234132440Y-63110119D01*
X234180059Y-63062500D01*
X234275297Y-63014880D01*
X234465773Y-63014880D01*
X234561011Y-63062500D01*
X234608630Y-63110119D01*
X234656250Y-63205357D01*
X234656250Y-63443452D01*
X234608630Y-63538690D01*
X234561011Y-63586309D01*
X234465773Y-63633928D01*
X234275297Y-63633928D01*
X234180059Y-63586309D01*
X234132440Y-63538690D01*
X234084821Y-63443452D01*
X233608630Y-63967261D02*
X233608630Y-64014880D01*
X233656250Y-64110119D01*
X233703869Y-64157738D01*
X232989583Y-63014880D02*
X232894345Y-63014880D01*
X232799107Y-63062500D01*
X232751488Y-63110119D01*
X232703869Y-63205357D01*
X232656250Y-63395833D01*
X232656250Y-63633928D01*
X232703869Y-63824404D01*
X232751488Y-63919642D01*
X232799107Y-63967261D01*
X232894345Y-64014880D01*
X232989583Y-64014880D01*
X233084821Y-63967261D01*
X233132440Y-63919642D01*
X233180059Y-63824404D01*
X233227678Y-63633928D01*
X233227678Y-63395833D01*
X233180059Y-63205357D01*
X233132440Y-63110119D01*
X233084821Y-63062500D01*
X232989583Y-63014880D01*
X255134821Y-64014880D02*
X255134821Y-63014880D01*
X254563392Y-64014880D02*
X254991964Y-63443452D01*
X254563392Y-63014880D02*
X255134821Y-63586309D01*
X253611011Y-64014880D02*
X254182440Y-64014880D01*
X253896726Y-64014880D02*
X253896726Y-63014880D01*
X253991964Y-63157738D01*
X254087202Y-63252976D01*
X254182440Y-63300595D01*
X252991964Y-63014880D02*
X252896726Y-63014880D01*
X252801488Y-63062500D01*
X252753869Y-63110119D01*
X252706250Y-63205357D01*
X252658630Y-63395833D01*
X252658630Y-63633928D01*
X252706250Y-63824404D01*
X252753869Y-63919642D01*
X252801488Y-63967261D01*
X252896726Y-64014880D01*
X252991964Y-64014880D01*
X253087202Y-63967261D01*
X253134821Y-63919642D01*
X253182440Y-63824404D01*
X253230059Y-63633928D01*
X253230059Y-63395833D01*
X253182440Y-63205357D01*
X253134821Y-63110119D01*
X253087202Y-63062500D01*
X252991964Y-63014880D01*
X252182440Y-63967261D02*
X252182440Y-64014880D01*
X252230059Y-64110119D01*
X252277678Y-64157738D01*
X251563392Y-63014880D02*
X251468154Y-63014880D01*
X251372916Y-63062500D01*
X251325297Y-63110119D01*
X251277678Y-63205357D01*
X251230059Y-63395833D01*
X251230059Y-63633928D01*
X251277678Y-63824404D01*
X251325297Y-63919642D01*
X251372916Y-63967261D01*
X251468154Y-64014880D01*
X251563392Y-64014880D01*
X251658630Y-63967261D01*
X251706250Y-63919642D01*
X251753869Y-63824404D01*
X251801488Y-63633928D01*
X251801488Y-63395833D01*
X251753869Y-63205357D01*
X251706250Y-63110119D01*
X251658630Y-63062500D01*
X251563392Y-63014880D01*
X207827380Y-64014880D02*
X207827380Y-63014880D01*
X207255952Y-64014880D02*
X207684523Y-63443452D01*
X207255952Y-63014880D02*
X207827380Y-63586309D01*
X206684523Y-63443452D02*
X206779761Y-63395833D01*
X206827380Y-63348214D01*
X206875000Y-63252976D01*
X206875000Y-63205357D01*
X206827380Y-63110119D01*
X206779761Y-63062500D01*
X206684523Y-63014880D01*
X206494047Y-63014880D01*
X206398809Y-63062500D01*
X206351190Y-63110119D01*
X206303571Y-63205357D01*
X206303571Y-63252976D01*
X206351190Y-63348214D01*
X206398809Y-63395833D01*
X206494047Y-63443452D01*
X206684523Y-63443452D01*
X206779761Y-63491071D01*
X206827380Y-63538690D01*
X206875000Y-63633928D01*
X206875000Y-63824404D01*
X206827380Y-63919642D01*
X206779761Y-63967261D01*
X206684523Y-64014880D01*
X206494047Y-64014880D01*
X206398809Y-63967261D01*
X206351190Y-63919642D01*
X206303571Y-63824404D01*
X206303571Y-63633928D01*
X206351190Y-63538690D01*
X206398809Y-63491071D01*
X206494047Y-63443452D01*
X205827380Y-63967261D02*
X205827380Y-64014880D01*
X205875000Y-64110119D01*
X205922619Y-64157738D01*
X205208333Y-63014880D02*
X205113095Y-63014880D01*
X205017857Y-63062500D01*
X204970238Y-63110119D01*
X204922619Y-63205357D01*
X204875000Y-63395833D01*
X204875000Y-63633928D01*
X204922619Y-63824404D01*
X204970238Y-63919642D01*
X205017857Y-63967261D01*
X205113095Y-64014880D01*
X205208333Y-64014880D01*
X205303571Y-63967261D01*
X205351190Y-63919642D01*
X205398809Y-63824404D01*
X205446428Y-63633928D01*
X205446428Y-63395833D01*
X205398809Y-63205357D01*
X205351190Y-63110119D01*
X205303571Y-63062500D01*
X205208333Y-63014880D01*
X188777380Y-64014880D02*
X188777380Y-63014880D01*
X188205952Y-64014880D02*
X188634523Y-63443452D01*
X188205952Y-63014880D02*
X188777380Y-63586309D01*
X187872619Y-63014880D02*
X187205952Y-63014880D01*
X187634523Y-64014880D01*
X186777380Y-63967261D02*
X186777380Y-64014880D01*
X186825000Y-64110119D01*
X186872619Y-64157738D01*
X186158333Y-63014880D02*
X186063095Y-63014880D01*
X185967857Y-63062500D01*
X185920238Y-63110119D01*
X185872619Y-63205357D01*
X185825000Y-63395833D01*
X185825000Y-63633928D01*
X185872619Y-63824404D01*
X185920238Y-63919642D01*
X185967857Y-63967261D01*
X186063095Y-64014880D01*
X186158333Y-64014880D01*
X186253571Y-63967261D01*
X186301190Y-63919642D01*
X186348809Y-63824404D01*
X186396428Y-63633928D01*
X186396428Y-63395833D01*
X186348809Y-63205357D01*
X186301190Y-63110119D01*
X186253571Y-63062500D01*
X186158333Y-63014880D01*
X169727380Y-64014880D02*
X169727380Y-63014880D01*
X169155952Y-64014880D02*
X169584523Y-63443452D01*
X169155952Y-63014880D02*
X169727380Y-63586309D01*
X168298809Y-63014880D02*
X168489285Y-63014880D01*
X168584523Y-63062500D01*
X168632142Y-63110119D01*
X168727380Y-63252976D01*
X168775000Y-63443452D01*
X168775000Y-63824404D01*
X168727380Y-63919642D01*
X168679761Y-63967261D01*
X168584523Y-64014880D01*
X168394047Y-64014880D01*
X168298809Y-63967261D01*
X168251190Y-63919642D01*
X168203571Y-63824404D01*
X168203571Y-63586309D01*
X168251190Y-63491071D01*
X168298809Y-63443452D01*
X168394047Y-63395833D01*
X168584523Y-63395833D01*
X168679761Y-63443452D01*
X168727380Y-63491071D01*
X168775000Y-63586309D01*
X167727380Y-63967261D02*
X167727380Y-64014880D01*
X167775000Y-64110119D01*
X167822619Y-64157738D01*
X167108333Y-63014880D02*
X167013095Y-63014880D01*
X166917857Y-63062500D01*
X166870238Y-63110119D01*
X166822619Y-63205357D01*
X166775000Y-63395833D01*
X166775000Y-63633928D01*
X166822619Y-63824404D01*
X166870238Y-63919642D01*
X166917857Y-63967261D01*
X167013095Y-64014880D01*
X167108333Y-64014880D01*
X167203571Y-63967261D01*
X167251190Y-63919642D01*
X167298809Y-63824404D01*
X167346428Y-63633928D01*
X167346428Y-63395833D01*
X167298809Y-63205357D01*
X167251190Y-63110119D01*
X167203571Y-63062500D01*
X167108333Y-63014880D01*
X150677380Y-64014880D02*
X150677380Y-63014880D01*
X150105952Y-64014880D02*
X150534523Y-63443452D01*
X150105952Y-63014880D02*
X150677380Y-63586309D01*
X149201190Y-63014880D02*
X149677380Y-63014880D01*
X149725000Y-63491071D01*
X149677380Y-63443452D01*
X149582142Y-63395833D01*
X149344047Y-63395833D01*
X149248809Y-63443452D01*
X149201190Y-63491071D01*
X149153571Y-63586309D01*
X149153571Y-63824404D01*
X149201190Y-63919642D01*
X149248809Y-63967261D01*
X149344047Y-64014880D01*
X149582142Y-64014880D01*
X149677380Y-63967261D01*
X149725000Y-63919642D01*
X148677380Y-63967261D02*
X148677380Y-64014880D01*
X148725000Y-64110119D01*
X148772619Y-64157738D01*
X148058333Y-63014880D02*
X147963095Y-63014880D01*
X147867857Y-63062500D01*
X147820238Y-63110119D01*
X147772619Y-63205357D01*
X147725000Y-63395833D01*
X147725000Y-63633928D01*
X147772619Y-63824404D01*
X147820238Y-63919642D01*
X147867857Y-63967261D01*
X147963095Y-64014880D01*
X148058333Y-64014880D01*
X148153571Y-63967261D01*
X148201190Y-63919642D01*
X148248809Y-63824404D01*
X148296428Y-63633928D01*
X148296428Y-63395833D01*
X148248809Y-63205357D01*
X148201190Y-63110119D01*
X148153571Y-63062500D01*
X148058333Y-63014880D01*
X255928571Y-88621130D02*
X255928571Y-87621130D01*
X255357142Y-88621130D02*
X255785714Y-88049702D01*
X255357142Y-87621130D02*
X255928571Y-88192559D01*
X254404761Y-88621130D02*
X254976190Y-88621130D01*
X254690476Y-88621130D02*
X254690476Y-87621130D01*
X254785714Y-87763988D01*
X254880952Y-87859226D01*
X254976190Y-87906845D01*
X254023809Y-87716369D02*
X253976190Y-87668750D01*
X253880952Y-87621130D01*
X253642857Y-87621130D01*
X253547619Y-87668750D01*
X253500000Y-87716369D01*
X253452380Y-87811607D01*
X253452380Y-87906845D01*
X253500000Y-88049702D01*
X254071428Y-88621130D01*
X253452380Y-88621130D01*
X252976190Y-88573511D02*
X252976190Y-88621130D01*
X253023809Y-88716369D01*
X253071428Y-88763988D01*
X252023809Y-88621130D02*
X252595238Y-88621130D01*
X252309523Y-88621130D02*
X252309523Y-87621130D01*
X252404761Y-87763988D01*
X252500000Y-87859226D01*
X252595238Y-87906845D01*
X236878571Y-88621130D02*
X236878571Y-87621130D01*
X236307142Y-88621130D02*
X236735714Y-88049702D01*
X236307142Y-87621130D02*
X236878571Y-88192559D01*
X235354761Y-88621130D02*
X235926190Y-88621130D01*
X235640476Y-88621130D02*
X235640476Y-87621130D01*
X235735714Y-87763988D01*
X235830952Y-87859226D01*
X235926190Y-87906845D01*
X234402380Y-88621130D02*
X234973809Y-88621130D01*
X234688095Y-88621130D02*
X234688095Y-87621130D01*
X234783333Y-87763988D01*
X234878571Y-87859226D01*
X234973809Y-87906845D01*
X233926190Y-88573511D02*
X233926190Y-88621130D01*
X233973809Y-88716369D01*
X234021428Y-88763988D01*
X232973809Y-88621130D02*
X233545238Y-88621130D01*
X233259523Y-88621130D02*
X233259523Y-87621130D01*
X233354761Y-87763988D01*
X233450000Y-87859226D01*
X233545238Y-87906845D01*
X217828571Y-88621130D02*
X217828571Y-87621130D01*
X217257142Y-88621130D02*
X217685714Y-88049702D01*
X217257142Y-87621130D02*
X217828571Y-88192559D01*
X216304761Y-88621130D02*
X216876190Y-88621130D01*
X216590476Y-88621130D02*
X216590476Y-87621130D01*
X216685714Y-87763988D01*
X216780952Y-87859226D01*
X216876190Y-87906845D01*
X215685714Y-87621130D02*
X215590476Y-87621130D01*
X215495238Y-87668750D01*
X215447619Y-87716369D01*
X215400000Y-87811607D01*
X215352380Y-88002083D01*
X215352380Y-88240178D01*
X215400000Y-88430654D01*
X215447619Y-88525892D01*
X215495238Y-88573511D01*
X215590476Y-88621130D01*
X215685714Y-88621130D01*
X215780952Y-88573511D01*
X215828571Y-88525892D01*
X215876190Y-88430654D01*
X215923809Y-88240178D01*
X215923809Y-88002083D01*
X215876190Y-87811607D01*
X215828571Y-87716369D01*
X215780952Y-87668750D01*
X215685714Y-87621130D01*
X214876190Y-88573511D02*
X214876190Y-88621130D01*
X214923809Y-88716369D01*
X214971428Y-88763988D01*
X213923809Y-88621130D02*
X214495238Y-88621130D01*
X214209523Y-88621130D02*
X214209523Y-87621130D01*
X214304761Y-87763988D01*
X214400000Y-87859226D01*
X214495238Y-87906845D01*
X31614880Y-107671130D02*
X31614880Y-106671130D01*
X31043452Y-107671130D02*
X31472023Y-107099702D01*
X31043452Y-106671130D02*
X31614880Y-107242559D01*
X30424404Y-106671130D02*
X30329166Y-106671130D01*
X30233928Y-106718750D01*
X30186309Y-106766369D01*
X30138690Y-106861607D01*
X30091071Y-107052083D01*
X30091071Y-107290178D01*
X30138690Y-107480654D01*
X30186309Y-107575892D01*
X30233928Y-107623511D01*
X30329166Y-107671130D01*
X30424404Y-107671130D01*
X30519642Y-107623511D01*
X30567261Y-107575892D01*
X30614880Y-107480654D01*
X30662500Y-107290178D01*
X30662500Y-107052083D01*
X30614880Y-106861607D01*
X30567261Y-106766369D01*
X30519642Y-106718750D01*
X30424404Y-106671130D01*
X29614880Y-107623511D02*
X29614880Y-107671130D01*
X29662500Y-107766369D01*
X29710119Y-107813988D01*
X29233928Y-106766369D02*
X29186309Y-106718750D01*
X29091071Y-106671130D01*
X28852976Y-106671130D01*
X28757738Y-106718750D01*
X28710119Y-106766369D01*
X28662500Y-106861607D01*
X28662500Y-106956845D01*
X28710119Y-107099702D01*
X29281547Y-107671130D01*
X28662500Y-107671130D01*
X284503571Y-88621130D02*
X284503571Y-87621130D01*
X283932142Y-88621130D02*
X284360714Y-88049702D01*
X283932142Y-87621130D02*
X284503571Y-88192559D01*
X282979761Y-88621130D02*
X283551190Y-88621130D01*
X283265476Y-88621130D02*
X283265476Y-87621130D01*
X283360714Y-87763988D01*
X283455952Y-87859226D01*
X283551190Y-87906845D01*
X282646428Y-87621130D02*
X282027380Y-87621130D01*
X282360714Y-88002083D01*
X282217857Y-88002083D01*
X282122619Y-88049702D01*
X282075000Y-88097321D01*
X282027380Y-88192559D01*
X282027380Y-88430654D01*
X282075000Y-88525892D01*
X282122619Y-88573511D01*
X282217857Y-88621130D01*
X282503571Y-88621130D01*
X282598809Y-88573511D01*
X282646428Y-88525892D01*
X281551190Y-88573511D02*
X281551190Y-88621130D01*
X281598809Y-88716369D01*
X281646428Y-88763988D01*
X280598809Y-88621130D02*
X281170238Y-88621130D01*
X280884523Y-88621130D02*
X280884523Y-87621130D01*
X280979761Y-87763988D01*
X281075000Y-87859226D01*
X281170238Y-87906845D01*
X122102380Y-88621130D02*
X122102380Y-87621130D01*
X121530952Y-88621130D02*
X121959523Y-88049702D01*
X121530952Y-87621130D02*
X122102380Y-88192559D01*
X120626190Y-87621130D02*
X121102380Y-87621130D01*
X121150000Y-88097321D01*
X121102380Y-88049702D01*
X121007142Y-88002083D01*
X120769047Y-88002083D01*
X120673809Y-88049702D01*
X120626190Y-88097321D01*
X120578571Y-88192559D01*
X120578571Y-88430654D01*
X120626190Y-88525892D01*
X120673809Y-88573511D01*
X120769047Y-88621130D01*
X121007142Y-88621130D01*
X121102380Y-88573511D01*
X121150000Y-88525892D01*
X120102380Y-88573511D02*
X120102380Y-88621130D01*
X120150000Y-88716369D01*
X120197619Y-88763988D01*
X119150000Y-88621130D02*
X119721428Y-88621130D01*
X119435714Y-88621130D02*
X119435714Y-87621130D01*
X119530952Y-87763988D01*
X119626190Y-87859226D01*
X119721428Y-87906845D01*
X103052380Y-88621130D02*
X103052380Y-87621130D01*
X102480952Y-88621130D02*
X102909523Y-88049702D01*
X102480952Y-87621130D02*
X103052380Y-88192559D01*
X101623809Y-87954464D02*
X101623809Y-88621130D01*
X101861904Y-87573511D02*
X102100000Y-88287797D01*
X101480952Y-88287797D01*
X101052380Y-88573511D02*
X101052380Y-88621130D01*
X101100000Y-88716369D01*
X101147619Y-88763988D01*
X100100000Y-88621130D02*
X100671428Y-88621130D01*
X100385714Y-88621130D02*
X100385714Y-87621130D01*
X100480952Y-87763988D01*
X100576190Y-87859226D01*
X100671428Y-87906845D01*
X179252380Y-88621130D02*
X179252380Y-87621130D01*
X178680952Y-88621130D02*
X179109523Y-88049702D01*
X178680952Y-87621130D02*
X179252380Y-88192559D01*
X178109523Y-88049702D02*
X178204761Y-88002083D01*
X178252380Y-87954464D01*
X178300000Y-87859226D01*
X178300000Y-87811607D01*
X178252380Y-87716369D01*
X178204761Y-87668750D01*
X178109523Y-87621130D01*
X177919047Y-87621130D01*
X177823809Y-87668750D01*
X177776190Y-87716369D01*
X177728571Y-87811607D01*
X177728571Y-87859226D01*
X177776190Y-87954464D01*
X177823809Y-88002083D01*
X177919047Y-88049702D01*
X178109523Y-88049702D01*
X178204761Y-88097321D01*
X178252380Y-88144940D01*
X178300000Y-88240178D01*
X178300000Y-88430654D01*
X178252380Y-88525892D01*
X178204761Y-88573511D01*
X178109523Y-88621130D01*
X177919047Y-88621130D01*
X177823809Y-88573511D01*
X177776190Y-88525892D01*
X177728571Y-88430654D01*
X177728571Y-88240178D01*
X177776190Y-88144940D01*
X177823809Y-88097321D01*
X177919047Y-88049702D01*
X177252380Y-88573511D02*
X177252380Y-88621130D01*
X177300000Y-88716369D01*
X177347619Y-88763988D01*
X176300000Y-88621130D02*
X176871428Y-88621130D01*
X176585714Y-88621130D02*
X176585714Y-87621130D01*
X176680952Y-87763988D01*
X176776190Y-87859226D01*
X176871428Y-87906845D01*
X160202380Y-88621130D02*
X160202380Y-87621130D01*
X159630952Y-88621130D02*
X160059523Y-88049702D01*
X159630952Y-87621130D02*
X160202380Y-88192559D01*
X159297619Y-87621130D02*
X158630952Y-87621130D01*
X159059523Y-88621130D01*
X158202380Y-88573511D02*
X158202380Y-88621130D01*
X158250000Y-88716369D01*
X158297619Y-88763988D01*
X157250000Y-88621130D02*
X157821428Y-88621130D01*
X157535714Y-88621130D02*
X157535714Y-87621130D01*
X157630952Y-87763988D01*
X157726190Y-87859226D01*
X157821428Y-87906845D01*
X84002380Y-88621130D02*
X84002380Y-87621130D01*
X83430952Y-88621130D02*
X83859523Y-88049702D01*
X83430952Y-87621130D02*
X84002380Y-88192559D01*
X83097619Y-87621130D02*
X82478571Y-87621130D01*
X82811904Y-88002083D01*
X82669047Y-88002083D01*
X82573809Y-88049702D01*
X82526190Y-88097321D01*
X82478571Y-88192559D01*
X82478571Y-88430654D01*
X82526190Y-88525892D01*
X82573809Y-88573511D01*
X82669047Y-88621130D01*
X82954761Y-88621130D01*
X83050000Y-88573511D01*
X83097619Y-88525892D01*
X82002380Y-88573511D02*
X82002380Y-88621130D01*
X82050000Y-88716369D01*
X82097619Y-88763988D01*
X81050000Y-88621130D02*
X81621428Y-88621130D01*
X81335714Y-88621130D02*
X81335714Y-87621130D01*
X81430952Y-87763988D01*
X81526190Y-87859226D01*
X81621428Y-87906845D01*
X198302380Y-88621130D02*
X198302380Y-87621130D01*
X197730952Y-88621130D02*
X198159523Y-88049702D01*
X197730952Y-87621130D02*
X198302380Y-88192559D01*
X197254761Y-88621130D02*
X197064285Y-88621130D01*
X196969047Y-88573511D01*
X196921428Y-88525892D01*
X196826190Y-88383035D01*
X196778571Y-88192559D01*
X196778571Y-87811607D01*
X196826190Y-87716369D01*
X196873809Y-87668750D01*
X196969047Y-87621130D01*
X197159523Y-87621130D01*
X197254761Y-87668750D01*
X197302380Y-87716369D01*
X197350000Y-87811607D01*
X197350000Y-88049702D01*
X197302380Y-88144940D01*
X197254761Y-88192559D01*
X197159523Y-88240178D01*
X196969047Y-88240178D01*
X196873809Y-88192559D01*
X196826190Y-88144940D01*
X196778571Y-88049702D01*
X196302380Y-88573511D02*
X196302380Y-88621130D01*
X196350000Y-88716369D01*
X196397619Y-88763988D01*
X195350000Y-88621130D02*
X195921428Y-88621130D01*
X195635714Y-88621130D02*
X195635714Y-87621130D01*
X195730952Y-87763988D01*
X195826190Y-87859226D01*
X195921428Y-87906845D01*
X141152380Y-88621130D02*
X141152380Y-87621130D01*
X140580952Y-88621130D02*
X141009523Y-88049702D01*
X140580952Y-87621130D02*
X141152380Y-88192559D01*
X139723809Y-87621130D02*
X139914285Y-87621130D01*
X140009523Y-87668750D01*
X140057142Y-87716369D01*
X140152380Y-87859226D01*
X140200000Y-88049702D01*
X140200000Y-88430654D01*
X140152380Y-88525892D01*
X140104761Y-88573511D01*
X140009523Y-88621130D01*
X139819047Y-88621130D01*
X139723809Y-88573511D01*
X139676190Y-88525892D01*
X139628571Y-88430654D01*
X139628571Y-88192559D01*
X139676190Y-88097321D01*
X139723809Y-88049702D01*
X139819047Y-88002083D01*
X140009523Y-88002083D01*
X140104761Y-88049702D01*
X140152380Y-88097321D01*
X140200000Y-88192559D01*
X139152380Y-88573511D02*
X139152380Y-88621130D01*
X139200000Y-88716369D01*
X139247619Y-88763988D01*
X138200000Y-88621130D02*
X138771428Y-88621130D01*
X138485714Y-88621130D02*
X138485714Y-87621130D01*
X138580952Y-87763988D01*
X138676190Y-87859226D01*
X138771428Y-87906845D01*
X45902380Y-88621130D02*
X45902380Y-87621130D01*
X45330952Y-88621130D02*
X45759523Y-88049702D01*
X45330952Y-87621130D02*
X45902380Y-88192559D01*
X44378571Y-88621130D02*
X44950000Y-88621130D01*
X44664285Y-88621130D02*
X44664285Y-87621130D01*
X44759523Y-87763988D01*
X44854761Y-87859226D01*
X44950000Y-87906845D01*
X43902380Y-88573511D02*
X43902380Y-88621130D01*
X43949999Y-88716369D01*
X43997619Y-88763988D01*
X42949999Y-88621130D02*
X43521428Y-88621130D01*
X43235714Y-88621130D02*
X43235714Y-87621130D01*
X43330952Y-87763988D01*
X43426190Y-87859226D01*
X43521428Y-87906845D01*
X64952380Y-88621130D02*
X64952380Y-87621130D01*
X64380952Y-88621130D02*
X64809523Y-88049702D01*
X64380952Y-87621130D02*
X64952380Y-88192559D01*
X64000000Y-87716369D02*
X63952380Y-87668750D01*
X63857142Y-87621130D01*
X63619047Y-87621130D01*
X63523809Y-87668750D01*
X63476190Y-87716369D01*
X63428571Y-87811607D01*
X63428571Y-87906845D01*
X63476190Y-88049702D01*
X64047619Y-88621130D01*
X63428571Y-88621130D01*
X62952380Y-88573511D02*
X62952380Y-88621130D01*
X62999999Y-88716369D01*
X63047619Y-88763988D01*
X61999999Y-88621130D02*
X62571428Y-88621130D01*
X62285714Y-88621130D02*
X62285714Y-87621130D01*
X62380952Y-87763988D01*
X62476190Y-87859226D01*
X62571428Y-87906845D01*
X26852380Y-88621130D02*
X26852380Y-87621130D01*
X26280952Y-88621130D02*
X26709523Y-88049702D01*
X26280952Y-87621130D02*
X26852380Y-88192559D01*
X25661904Y-87621130D02*
X25566666Y-87621130D01*
X25471428Y-87668750D01*
X25423809Y-87716369D01*
X25376190Y-87811607D01*
X25328571Y-88002083D01*
X25328571Y-88240178D01*
X25376190Y-88430654D01*
X25423809Y-88525892D01*
X25471428Y-88573511D01*
X25566666Y-88621130D01*
X25661904Y-88621130D01*
X25757142Y-88573511D01*
X25804761Y-88525892D01*
X25852380Y-88430654D01*
X25900000Y-88240178D01*
X25900000Y-88002083D01*
X25852380Y-87811607D01*
X25804761Y-87716369D01*
X25757142Y-87668750D01*
X25661904Y-87621130D01*
X24852380Y-88573511D02*
X24852380Y-88621130D01*
X24900000Y-88716369D01*
X24947619Y-88763988D01*
X23900000Y-88621130D02*
X24471428Y-88621130D01*
X24185714Y-88621130D02*
X24185714Y-87621130D01*
X24280952Y-87763988D01*
X24376190Y-87859226D01*
X24471428Y-87906845D01*
X26852380Y-64014880D02*
X26852380Y-63014880D01*
X26280952Y-64014880D02*
X26709523Y-63443452D01*
X26280952Y-63014880D02*
X26852380Y-63586309D01*
X25661904Y-63014880D02*
X25566666Y-63014880D01*
X25471428Y-63062500D01*
X25423809Y-63110119D01*
X25376190Y-63205357D01*
X25328571Y-63395833D01*
X25328571Y-63633928D01*
X25376190Y-63824404D01*
X25423809Y-63919642D01*
X25471428Y-63967261D01*
X25566666Y-64014880D01*
X25661904Y-64014880D01*
X25757142Y-63967261D01*
X25804761Y-63919642D01*
X25852380Y-63824404D01*
X25900000Y-63633928D01*
X25900000Y-63395833D01*
X25852380Y-63205357D01*
X25804761Y-63110119D01*
X25757142Y-63062500D01*
X25661904Y-63014880D01*
X24852380Y-63967261D02*
X24852380Y-64014880D01*
X24900000Y-64110119D01*
X24947619Y-64157738D01*
X24233333Y-63014880D02*
X24138095Y-63014880D01*
X24042857Y-63062500D01*
X23995238Y-63110119D01*
X23947619Y-63205357D01*
X23900000Y-63395833D01*
X23900000Y-63633928D01*
X23947619Y-63824404D01*
X23995238Y-63919642D01*
X24042857Y-63967261D01*
X24138095Y-64014880D01*
X24233333Y-64014880D01*
X24328571Y-63967261D01*
X24376190Y-63919642D01*
X24423809Y-63824404D01*
X24471428Y-63633928D01*
X24471428Y-63395833D01*
X24423809Y-63205357D01*
X24376190Y-63110119D01*
X24328571Y-63062500D01*
X24233333Y-63014880D01*
%LPC*%
D12*
X387451600Y-21795500D03*
X387451600Y-26845500D03*
X392531600Y-26845260D03*
X389991600Y-26845500D03*
X389991600Y-21795500D03*
X384911600Y-21795500D03*
X379831600Y-21795500D03*
X382371600Y-21795500D03*
X384911600Y-26845500D03*
X392531600Y-21795500D03*
X372211600Y-21795500D03*
X377291600Y-21795500D03*
X377291600Y-26845500D03*
X374751600Y-26845500D03*
X372211600Y-26845500D03*
X351891600Y-26845500D03*
X364591600Y-26845500D03*
X367131600Y-21795500D03*
X356971600Y-21795500D03*
X354431600Y-26845500D03*
X349351600Y-21795500D03*
X367131600Y-26845500D03*
X364591600Y-21795500D03*
X349351600Y-26845500D03*
X362051600Y-26845500D03*
X369671600Y-21795500D03*
X356971600Y-26845500D03*
X369671600Y-26845500D03*
X359511600Y-21795500D03*
X359511600Y-26845500D03*
X346811600Y-21795500D03*
X346811600Y-26845500D03*
X374751600Y-21795500D03*
X354431600Y-21795500D03*
X351891600Y-21795500D03*
X379831600Y-26845500D03*
X344271600Y-21795500D03*
X344271600Y-26845260D03*
X382371600Y-26845500D03*
X362051600Y-21795500D03*
D13*
X63690500Y-46545500D03*
X64833500Y-49720500D03*
D14*
X93789500Y-60681700D03*
D15*
X93789500Y-52881700D03*
D14*
X74739500Y-60681700D03*
D15*
X74739500Y-52881700D03*
X55689500Y-52932500D03*
D14*
X55689500Y-60732500D03*
D16*
X95758000Y-60642500D03*
X108685000Y-58102500D03*
D17*
X96520000Y-55562500D03*
X106680000Y-55562500D03*
D18*
X101600000Y-55562500D03*
D19*
X99060000Y-60642500D03*
X105410000Y-58102500D03*
D13*
X102933500Y-49720500D03*
X101790500Y-46545500D03*
X121983500Y-49720500D03*
X120840500Y-46545500D03*
D16*
X76708000Y-60642500D03*
X89635000Y-58102500D03*
D17*
X77470000Y-55562500D03*
X87630000Y-55562500D03*
D18*
X82550000Y-55562500D03*
D19*
X80010000Y-60642500D03*
X86360000Y-58102500D03*
D13*
X83883500Y-49720500D03*
X82740500Y-46545500D03*
D14*
X112839500Y-60681700D03*
D15*
X112839500Y-52881700D03*
D16*
X114808000Y-60642500D03*
X127735000Y-58102500D03*
D17*
X115570000Y-55562500D03*
X125730000Y-55562500D03*
D18*
X120650000Y-55562500D03*
D19*
X118110000Y-60642500D03*
X124460000Y-58102500D03*
X67310000Y-58102500D03*
X60960000Y-60642500D03*
D18*
X63500000Y-55562500D03*
D17*
X68580000Y-55562500D03*
X58420000Y-55562500D03*
D16*
X70585000Y-58102500D03*
X57658000Y-60642500D03*
G36*
G01*
X432288700Y-26361900D02*
X432288700Y-24361900D01*
G75*
G02*
X432538700Y-24111900I250000J0D01*
G01*
X436038700Y-24111900D01*
G75*
G02*
X436288700Y-24361900I0J-250000D01*
G01*
X436288700Y-26361900D01*
G75*
G02*
X436038700Y-26611900I-250000J0D01*
G01*
X432538700Y-26611900D01*
G75*
G02*
X432288700Y-26361900I0J250000D01*
G01*
G37*
G36*
G01*
X424288700Y-26361900D02*
X424288700Y-24361900D01*
G75*
G02*
X424538700Y-24111900I250000J0D01*
G01*
X428038700Y-24111900D01*
G75*
G02*
X428288700Y-24361900I0J-250000D01*
G01*
X428288700Y-26361900D01*
G75*
G02*
X428038700Y-26611900I-250000J0D01*
G01*
X424538700Y-26611900D01*
G75*
G02*
X424288700Y-26361900I0J250000D01*
G01*
G37*
X429926750Y-151923750D03*
X442853750Y-149383750D03*
D17*
X430688750Y-146843750D03*
X440848750Y-146843750D03*
D18*
X435768750Y-146843750D03*
D19*
X433228750Y-151923750D03*
X439578750Y-149383750D03*
D13*
X437165750Y-143160750D03*
X436022750Y-139985750D03*
D14*
X428212250Y-151962950D03*
D15*
X428212250Y-144162950D03*
D13*
X417861750Y-150653750D03*
X416718750Y-147478750D03*
D16*
X410876750Y-161448750D03*
X423803750Y-158908750D03*
D17*
X411638750Y-156368750D03*
X421798750Y-156368750D03*
D18*
X416718750Y-156368750D03*
D19*
X414178750Y-161448750D03*
X420528750Y-158908750D03*
D14*
X408908250Y-161487950D03*
D15*
X408908250Y-153687950D03*
D13*
X417861750Y-131603750D03*
X416718750Y-128428750D03*
D16*
X410876750Y-142398750D03*
X423803750Y-139858750D03*
D17*
X411638750Y-137318750D03*
X421798750Y-137318750D03*
D18*
X416718750Y-137318750D03*
D19*
X414178750Y-142398750D03*
X420528750Y-139858750D03*
D14*
X408908250Y-142437950D03*
D15*
X408908250Y-134637950D03*
D16*
X391826750Y-142398750D03*
X404753750Y-139858750D03*
D17*
X392588750Y-137318750D03*
X402748750Y-137318750D03*
D18*
X397668750Y-137318750D03*
D19*
X395128750Y-142398750D03*
X401478750Y-139858750D03*
D14*
X389858250Y-142437950D03*
D15*
X389858250Y-134637950D03*
D13*
X398811750Y-131603750D03*
X397668750Y-128428750D03*
X417861750Y-112553750D03*
X416718750Y-109378750D03*
D16*
X410876750Y-123348750D03*
X423803750Y-120808750D03*
D17*
X411638750Y-118268750D03*
X421798750Y-118268750D03*
D18*
X416718750Y-118268750D03*
D19*
X414178750Y-123348750D03*
X420528750Y-120808750D03*
D14*
X408908250Y-123387950D03*
D15*
X408908250Y-115587950D03*
D13*
X398811750Y-112553750D03*
X397668750Y-109378750D03*
D16*
X391826750Y-123348750D03*
X404753750Y-120808750D03*
D17*
X392588750Y-118268750D03*
X402748750Y-118268750D03*
D18*
X397668750Y-118268750D03*
D19*
X395128750Y-123348750D03*
X401478750Y-120808750D03*
D14*
X389858250Y-123387950D03*
D15*
X389858250Y-115587950D03*
D13*
X389540750Y-150653750D03*
X388397750Y-147478750D03*
D16*
X382301750Y-161448750D03*
X395228750Y-158908750D03*
D17*
X383063750Y-156368750D03*
X393223750Y-156368750D03*
D18*
X388143750Y-156368750D03*
D19*
X385603750Y-161448750D03*
X391953750Y-158908750D03*
D14*
X380587250Y-161538750D03*
D15*
X380587250Y-153738750D03*
D16*
X372776750Y-142398750D03*
X385703750Y-139858750D03*
D17*
X373538750Y-137318750D03*
X383698750Y-137318750D03*
D18*
X378618750Y-137318750D03*
D19*
X376078750Y-142398750D03*
X382428750Y-139858750D03*
D13*
X380015750Y-131603750D03*
X378872750Y-128428750D03*
D14*
X370554250Y-142437950D03*
D15*
X370554250Y-134637950D03*
D16*
X372776750Y-123348750D03*
X385703750Y-120808750D03*
D17*
X373538750Y-118268750D03*
X383698750Y-118268750D03*
D18*
X378618750Y-118268750D03*
D19*
X376078750Y-123348750D03*
X382428750Y-120808750D03*
D13*
X379761750Y-112553750D03*
X378618750Y-109378750D03*
D14*
X370808250Y-123387950D03*
D15*
X370808250Y-115587950D03*
D13*
X436911750Y-103282750D03*
X435768750Y-100107750D03*
D16*
X429926750Y-113823750D03*
X442853750Y-111283750D03*
D17*
X430688750Y-108743750D03*
X440848750Y-108743750D03*
D18*
X435768750Y-108743750D03*
D19*
X433228750Y-113823750D03*
X439578750Y-111283750D03*
D14*
X427958250Y-113659750D03*
D15*
X427958250Y-105859750D03*
D13*
X417861750Y-93402150D03*
X416718750Y-90227150D03*
D16*
X410876750Y-104298750D03*
X423803750Y-101758750D03*
D17*
X411638750Y-99218750D03*
X421798750Y-99218750D03*
D18*
X416718750Y-99218750D03*
D19*
X414178750Y-104298750D03*
X420528750Y-101758750D03*
D14*
X408908250Y-104337950D03*
D15*
X408908250Y-96537950D03*
D16*
X391826750Y-104298750D03*
X404753750Y-101758750D03*
D17*
X392588750Y-99218750D03*
X402748750Y-99218750D03*
D18*
X397668750Y-99218750D03*
D19*
X395128750Y-104298750D03*
X401478750Y-101758750D03*
D13*
X398811750Y-93402150D03*
X397668750Y-90227150D03*
D14*
X389858250Y-104337950D03*
D15*
X389858250Y-96537950D03*
D16*
X372776750Y-104298750D03*
X385703750Y-101758750D03*
D17*
X373538750Y-99218750D03*
X383698750Y-99218750D03*
D18*
X378618750Y-99218750D03*
D19*
X376078750Y-104298750D03*
X382428750Y-101758750D03*
D14*
X370808250Y-104337950D03*
D15*
X370808250Y-96537950D03*
D13*
X379761750Y-93402150D03*
X378618750Y-90227150D03*
X436911750Y-74453750D03*
X435768750Y-71278750D03*
D14*
X427958250Y-85287950D03*
D15*
X427958250Y-77487950D03*
D16*
X429926750Y-85248750D03*
X442853750Y-82708750D03*
D17*
X430688750Y-80168750D03*
X440848750Y-80168750D03*
D18*
X435768750Y-80168750D03*
D19*
X433228750Y-85248750D03*
X439578750Y-82708750D03*
D16*
X410876750Y-85248750D03*
X423803750Y-82708750D03*
D17*
X411638750Y-80168750D03*
X421798750Y-80168750D03*
D18*
X416718750Y-80168750D03*
D19*
X414178750Y-85248750D03*
X420528750Y-82708750D03*
D13*
X417861750Y-74466450D03*
X416718750Y-71291450D03*
D14*
X408908250Y-85287950D03*
D15*
X408908250Y-77487950D03*
D19*
X401478750Y-82708750D03*
X395128750Y-85248750D03*
D18*
X397668750Y-80168750D03*
D17*
X402748750Y-80168750D03*
X392588750Y-80168750D03*
D16*
X404753750Y-82708750D03*
X391826750Y-85248750D03*
D13*
X397668750Y-71278750D03*
X398811750Y-74453750D03*
D15*
X389858250Y-77538750D03*
D14*
X389858250Y-85338750D03*
D16*
X372776750Y-85248750D03*
X385703750Y-82708750D03*
D17*
X373538750Y-80168750D03*
X383698750Y-80168750D03*
D18*
X378618750Y-80168750D03*
D19*
X376078750Y-85248750D03*
X382428750Y-82708750D03*
D14*
X370808250Y-85287950D03*
D15*
X370808250Y-77487950D03*
D13*
X379761750Y-74453750D03*
X378618750Y-71278750D03*
D16*
X429926750Y-60642500D03*
X442853750Y-58102500D03*
D17*
X430688750Y-55562500D03*
X440848750Y-55562500D03*
D18*
X435768750Y-55562500D03*
D19*
X433228750Y-60642500D03*
X439578750Y-58102500D03*
D13*
X436911750Y-49733200D03*
X435768750Y-46558200D03*
X437165750Y-68643500D03*
X436022750Y-65468500D03*
D14*
X427958250Y-60732500D03*
D15*
X427958250Y-52932500D03*
D13*
X418115750Y-68592700D03*
X416972750Y-65417700D03*
X417849050Y-49733200D03*
X416706050Y-46558200D03*
D16*
X410876750Y-60642500D03*
X423803750Y-58102500D03*
D17*
X411638750Y-55562500D03*
X421798750Y-55562500D03*
D18*
X416718750Y-55562500D03*
D19*
X414178750Y-60642500D03*
X420528750Y-58102500D03*
D14*
X408908250Y-60681700D03*
D15*
X408908250Y-52881700D03*
D13*
X399065750Y-68605400D03*
X397922750Y-65430400D03*
X398799050Y-49745900D03*
X397656050Y-46570900D03*
D19*
X401478750Y-58102500D03*
X395128750Y-60642500D03*
D18*
X397668750Y-55562500D03*
D17*
X402748750Y-55562500D03*
X392588750Y-55562500D03*
D16*
X404753750Y-58102500D03*
X391826750Y-60642500D03*
D14*
X389858250Y-60694400D03*
D15*
X389858250Y-52894400D03*
D13*
X378606050Y-46558200D03*
X379749050Y-49733200D03*
D19*
X382428750Y-58102500D03*
X376078750Y-60642500D03*
D18*
X378618750Y-55562500D03*
D17*
X383698750Y-55562500D03*
X373538750Y-55562500D03*
D16*
X385703750Y-58102500D03*
X372776750Y-60642500D03*
D15*
X308102000Y-52881700D03*
D14*
X308102000Y-60681700D03*
D19*
X319722500Y-58102500D03*
X313372500Y-60642500D03*
D18*
X315912500Y-55562500D03*
D17*
X320992500Y-55562500D03*
X310832500Y-55562500D03*
D16*
X322997500Y-58102500D03*
X310070500Y-60642500D03*
D13*
X316103000Y-46545500D03*
X317246000Y-49720500D03*
D16*
X329120500Y-85248750D03*
X342047500Y-82708750D03*
D17*
X329882500Y-80168750D03*
X340042500Y-80168750D03*
D18*
X334962500Y-80168750D03*
D19*
X332422500Y-85248750D03*
X338772500Y-82708750D03*
D13*
X315912500Y-71278750D03*
X317055500Y-74453750D03*
D19*
X319722500Y-82708750D03*
X313372500Y-85248750D03*
D18*
X315912500Y-80168750D03*
D17*
X320992500Y-80168750D03*
X310832500Y-80168750D03*
D16*
X322997500Y-82708750D03*
X310070500Y-85248750D03*
D15*
X308102000Y-77487950D03*
D14*
X308102000Y-85287950D03*
D13*
X336105500Y-74453750D03*
X334962500Y-71278750D03*
X378555250Y-65468500D03*
X379698250Y-68643500D03*
D15*
X370808250Y-52881700D03*
D14*
X370808250Y-60681700D03*
D19*
X357822500Y-58102500D03*
X351472500Y-60642500D03*
D18*
X354012500Y-55562500D03*
D17*
X359092500Y-55562500D03*
X348932500Y-55562500D03*
D16*
X361097500Y-58102500D03*
X348170500Y-60642500D03*
D13*
X354203000Y-46545500D03*
X355346000Y-49720500D03*
D19*
X338772500Y-58102500D03*
X332422500Y-60642500D03*
D18*
X334962500Y-55562500D03*
D17*
X340042500Y-55562500D03*
X329882500Y-55562500D03*
D16*
X342047500Y-58102500D03*
X329120500Y-60642500D03*
D13*
X335153000Y-46545500D03*
X336296000Y-49720500D03*
D15*
X327406000Y-52881700D03*
D14*
X327406000Y-60681700D03*
D19*
X357822500Y-158908750D03*
X351472500Y-161448750D03*
D18*
X354012500Y-156368750D03*
D17*
X359092500Y-156368750D03*
X348932500Y-156368750D03*
D16*
X361097500Y-158908750D03*
X348170500Y-161448750D03*
D13*
X354012500Y-147478750D03*
X355155500Y-150653750D03*
D15*
X346202000Y-153687950D03*
D14*
X346202000Y-161487950D03*
D15*
X327152000Y-134637950D03*
D14*
X327152000Y-142437950D03*
D13*
X334962500Y-128377950D03*
X336105500Y-131552950D03*
D19*
X338772500Y-139858750D03*
X332422500Y-142398750D03*
D18*
X334962500Y-137318750D03*
D17*
X340042500Y-137318750D03*
X329882500Y-137318750D03*
D16*
X342047500Y-139858750D03*
X329120500Y-142398750D03*
X329120500Y-161448750D03*
X342047500Y-158908750D03*
D17*
X329882500Y-156368750D03*
X340042500Y-156368750D03*
D18*
X334962500Y-156368750D03*
D19*
X332422500Y-161448750D03*
X338772500Y-158908750D03*
D14*
X327152000Y-161487950D03*
D15*
X327152000Y-153687950D03*
D16*
X310070500Y-104298750D03*
X322997500Y-101758750D03*
D17*
X310832500Y-99218750D03*
X320992500Y-99218750D03*
D18*
X315912500Y-99218750D03*
D19*
X313372500Y-104298750D03*
X319722500Y-101758750D03*
X319722500Y-158908750D03*
X313372500Y-161448750D03*
D18*
X315912500Y-156368750D03*
D17*
X320992500Y-156368750D03*
X310832500Y-156368750D03*
D16*
X322997500Y-158908750D03*
X310070500Y-161448750D03*
D13*
X334962500Y-90328750D03*
X336105500Y-93503750D03*
X354090700Y-71304150D03*
X355233700Y-74479150D03*
D14*
X308356000Y-104337950D03*
D15*
X308356000Y-96537950D03*
D13*
X317055500Y-93503750D03*
X315912500Y-90328750D03*
D14*
X346456000Y-104337950D03*
D15*
X346456000Y-96537950D03*
X346202000Y-77487950D03*
D14*
X346202000Y-85287950D03*
D15*
X346202000Y-52881700D03*
D14*
X346202000Y-60681700D03*
D15*
X308102000Y-153687950D03*
D14*
X308102000Y-161487950D03*
D19*
X338772500Y-101758750D03*
X332422500Y-104298750D03*
D18*
X334962500Y-99218750D03*
D17*
X340042500Y-99218750D03*
X329882500Y-99218750D03*
D16*
X342047500Y-101758750D03*
X329120500Y-104298750D03*
D19*
X357822500Y-82708750D03*
X351472500Y-85248750D03*
D18*
X354012500Y-80168750D03*
D17*
X359092500Y-80168750D03*
X348932500Y-80168750D03*
D16*
X361097500Y-82708750D03*
X348170500Y-85248750D03*
D13*
X355155500Y-93503750D03*
X354012500Y-90328750D03*
D15*
X327152000Y-96537950D03*
D14*
X327152000Y-104337950D03*
D13*
X315912500Y-147478750D03*
X317055500Y-150653750D03*
D16*
X348170500Y-104298750D03*
X361097500Y-101758750D03*
D17*
X348932500Y-99218750D03*
X359092500Y-99218750D03*
D18*
X354012500Y-99218750D03*
D19*
X351472500Y-104298750D03*
X357822500Y-101758750D03*
D13*
X336105500Y-150653750D03*
X334962500Y-147478750D03*
D14*
X327152000Y-85287950D03*
D15*
X327152000Y-77487950D03*
D16*
X283876750Y-161448750D03*
X296803750Y-158908750D03*
D17*
X284638750Y-156368750D03*
X294798750Y-156368750D03*
D18*
X289718750Y-156368750D03*
D19*
X287178750Y-161448750D03*
X293528750Y-158908750D03*
D14*
X281908250Y-161487950D03*
D15*
X281908250Y-153687950D03*
D13*
X290861750Y-150653750D03*
X289718750Y-147478750D03*
D16*
X260064250Y-161448750D03*
X272991250Y-158908750D03*
D17*
X260826250Y-156368750D03*
X270986250Y-156368750D03*
D18*
X265906250Y-156368750D03*
D19*
X263366250Y-161448750D03*
X269716250Y-158908750D03*
D14*
X258095750Y-161487950D03*
D15*
X258095750Y-153687950D03*
D13*
X267049250Y-150653750D03*
X265906250Y-147478750D03*
D16*
X236251750Y-161448750D03*
X249178750Y-158908750D03*
D17*
X237013750Y-156368750D03*
X247173750Y-156368750D03*
D18*
X242093750Y-156368750D03*
D19*
X239553750Y-161448750D03*
X245903750Y-158908750D03*
D14*
X234283250Y-161487950D03*
D15*
X234283250Y-153687950D03*
D13*
X243236750Y-150653750D03*
X242093750Y-147478750D03*
D14*
X210496150Y-161551450D03*
D15*
X210496150Y-153751450D03*
D16*
X212439250Y-161448750D03*
X225366250Y-158908750D03*
D17*
X213201250Y-156368750D03*
X223361250Y-156368750D03*
D18*
X218281250Y-156368750D03*
D19*
X215741250Y-161448750D03*
X222091250Y-158908750D03*
D13*
X219449650Y-150653750D03*
X218306650Y-147478750D03*
X147986750Y-150653750D03*
X146843750Y-147478750D03*
X113417350Y-150641050D03*
X112274350Y-147466050D03*
D14*
X139033250Y-161487950D03*
D15*
X139033250Y-153687950D03*
D13*
X177514250Y-150628350D03*
X176371250Y-147453350D03*
D16*
X141001750Y-161448750D03*
X153928750Y-158908750D03*
D17*
X141763750Y-156368750D03*
X151923750Y-156368750D03*
D18*
X146843750Y-156368750D03*
D19*
X144303750Y-161448750D03*
X150653750Y-158908750D03*
D13*
X76549250Y-150653750D03*
X75406250Y-147478750D03*
D14*
X67595750Y-161487950D03*
D15*
X67595750Y-153687950D03*
D16*
X69564250Y-161448750D03*
X82491250Y-158908750D03*
D17*
X70326250Y-156368750D03*
X80486250Y-156368750D03*
D18*
X75406250Y-156368750D03*
D19*
X72866250Y-161448750D03*
X79216250Y-158908750D03*
D13*
X52736750Y-150653750D03*
X51593750Y-147478750D03*
D14*
X43783250Y-161487950D03*
D15*
X43783250Y-153687950D03*
D16*
X45751750Y-161448750D03*
X58678750Y-158908750D03*
D17*
X46513750Y-156368750D03*
X56673750Y-156368750D03*
D18*
X51593750Y-156368750D03*
D19*
X49053750Y-161448750D03*
X55403750Y-158908750D03*
D16*
X269589250Y-142398750D03*
X282516250Y-139858750D03*
D17*
X270351250Y-137318750D03*
X280511250Y-137318750D03*
D18*
X275431250Y-137318750D03*
D19*
X272891250Y-142398750D03*
X279241250Y-139858750D03*
D14*
X267811250Y-142488750D03*
D15*
X267811250Y-134688750D03*
D13*
X276574250Y-131654550D03*
X275431250Y-128479550D03*
D16*
X233870500Y-142398750D03*
X246797500Y-139858750D03*
D17*
X234632500Y-137318750D03*
X244792500Y-137318750D03*
D18*
X239712500Y-137318750D03*
D19*
X237172500Y-142398750D03*
X243522500Y-139858750D03*
D14*
X231902000Y-142488750D03*
D15*
X231902000Y-134688750D03*
D13*
X240855500Y-131603750D03*
X239712500Y-128428750D03*
D14*
X212852000Y-142437950D03*
D15*
X212852000Y-134637950D03*
D16*
X214820500Y-142398750D03*
X227747500Y-139858750D03*
D17*
X215582500Y-137318750D03*
X225742500Y-137318750D03*
D18*
X220662500Y-137318750D03*
D19*
X218122500Y-142398750D03*
X224472500Y-139858750D03*
D13*
X221805500Y-131603750D03*
X220662500Y-128428750D03*
D14*
X193802000Y-142437950D03*
D15*
X193802000Y-134637950D03*
D16*
X195770500Y-142398750D03*
X208697500Y-139858750D03*
D17*
X196532500Y-137318750D03*
X206692500Y-137318750D03*
D18*
X201612500Y-137318750D03*
D19*
X199072500Y-142398750D03*
X205422500Y-139858750D03*
D13*
X202755500Y-131603750D03*
X201612500Y-128428750D03*
D14*
X174752000Y-142488750D03*
D15*
X174752000Y-134688750D03*
D16*
X176720500Y-142398750D03*
X189647500Y-139858750D03*
D17*
X177482500Y-137318750D03*
X187642500Y-137318750D03*
D18*
X182562500Y-137318750D03*
D19*
X180022500Y-142398750D03*
X186372500Y-139858750D03*
D13*
X183705500Y-131603750D03*
X182562500Y-128428750D03*
D14*
X155702000Y-142437950D03*
D15*
X155702000Y-134637950D03*
D16*
X157670500Y-142398750D03*
X170597500Y-139858750D03*
D17*
X158432500Y-137318750D03*
X168592500Y-137318750D03*
D18*
X163512500Y-137318750D03*
D19*
X160972500Y-142398750D03*
X167322500Y-139858750D03*
D13*
X164655500Y-131603750D03*
X163512500Y-128428750D03*
D14*
X136652000Y-142488750D03*
D15*
X136652000Y-134688750D03*
D16*
X138620500Y-142398750D03*
X151547500Y-139858750D03*
D17*
X139382500Y-137318750D03*
X149542500Y-137318750D03*
D18*
X144462500Y-137318750D03*
D19*
X141922500Y-142398750D03*
X148272500Y-139858750D03*
D13*
X145605500Y-131603750D03*
X144462500Y-128428750D03*
D14*
X117602000Y-142437950D03*
D15*
X117602000Y-134637950D03*
D16*
X119570500Y-142398750D03*
X132497500Y-139858750D03*
D17*
X120332500Y-137318750D03*
X130492500Y-137318750D03*
D18*
X125412500Y-137318750D03*
D19*
X122872500Y-142398750D03*
X129222500Y-139858750D03*
D13*
X126555500Y-131603750D03*
X125412500Y-128428750D03*
X107505500Y-131603750D03*
X106362500Y-128428750D03*
D14*
X98552000Y-142437950D03*
D15*
X98552000Y-134637950D03*
D16*
X100520500Y-142398750D03*
X113447500Y-139858750D03*
D17*
X101282500Y-137318750D03*
X111442500Y-137318750D03*
D18*
X106362500Y-137318750D03*
D19*
X103822500Y-142398750D03*
X110172500Y-139858750D03*
D13*
X88315500Y-131603750D03*
X87172500Y-128428750D03*
D14*
X79502000Y-142437950D03*
D15*
X79502000Y-134637950D03*
D16*
X81470500Y-142398750D03*
X94397500Y-139858750D03*
D17*
X82232500Y-137318750D03*
X92392500Y-137318750D03*
D18*
X87312500Y-137318750D03*
D19*
X84772500Y-142398750D03*
X91122500Y-139858750D03*
D13*
X69405500Y-131603750D03*
X68262500Y-128428750D03*
D14*
X60452000Y-142437950D03*
D15*
X60452000Y-134637950D03*
D16*
X62420500Y-142398750D03*
X75347500Y-139858750D03*
D17*
X63182500Y-137318750D03*
X73342500Y-137318750D03*
D18*
X68262500Y-137318750D03*
D19*
X65722500Y-142398750D03*
X72072500Y-139858750D03*
D16*
X274351750Y-123348750D03*
X287278750Y-120808750D03*
D17*
X275113750Y-118268750D03*
X285273750Y-118268750D03*
D18*
X280193750Y-118268750D03*
D19*
X277653750Y-123348750D03*
X284003750Y-120808750D03*
D14*
X272573750Y-123438750D03*
D15*
X272573750Y-115638750D03*
D13*
X281311350Y-112566450D03*
X280168350Y-109391450D03*
D16*
X243395500Y-123348750D03*
X256322500Y-120808750D03*
D17*
X244157500Y-118268750D03*
X254317500Y-118268750D03*
D18*
X249237500Y-118268750D03*
D19*
X246697500Y-123348750D03*
X253047500Y-120808750D03*
D14*
X241427000Y-123387950D03*
D15*
X241427000Y-115587950D03*
D13*
X250380500Y-112553750D03*
X249237500Y-109378750D03*
D16*
X224345500Y-123348750D03*
X237272500Y-120808750D03*
D17*
X225107500Y-118268750D03*
X235267500Y-118268750D03*
D18*
X230187500Y-118268750D03*
D19*
X227647500Y-123348750D03*
X233997500Y-120808750D03*
D14*
X222377000Y-123387950D03*
D15*
X222377000Y-115587950D03*
D13*
X231330500Y-112553750D03*
X230187500Y-109378750D03*
D14*
X203327000Y-123387950D03*
D15*
X203327000Y-115587950D03*
D16*
X205295500Y-123348750D03*
X218222500Y-120808750D03*
D17*
X206057500Y-118268750D03*
X216217500Y-118268750D03*
D18*
X211137500Y-118268750D03*
D19*
X208597500Y-123348750D03*
X214947500Y-120808750D03*
D13*
X212280500Y-112553750D03*
X211137500Y-109378750D03*
D14*
X184277000Y-123387950D03*
D15*
X184277000Y-115587950D03*
D16*
X186245500Y-123348750D03*
X199172500Y-120808750D03*
D17*
X187007500Y-118268750D03*
X197167500Y-118268750D03*
D18*
X192087500Y-118268750D03*
D19*
X189547500Y-123348750D03*
X195897500Y-120808750D03*
D13*
X193230500Y-112553750D03*
X192087500Y-109378750D03*
D14*
X165227000Y-123387950D03*
D15*
X165227000Y-115587950D03*
D16*
X167195500Y-123348750D03*
X180122500Y-120808750D03*
D17*
X167957500Y-118268750D03*
X178117500Y-118268750D03*
D18*
X173037500Y-118268750D03*
D19*
X170497500Y-123348750D03*
X176847500Y-120808750D03*
D13*
X174180500Y-112553750D03*
X173037500Y-109378750D03*
D14*
X146177000Y-123387950D03*
D15*
X146177000Y-115587950D03*
D16*
X148145500Y-123348750D03*
X161072500Y-120808750D03*
D17*
X148907500Y-118268750D03*
X159067500Y-118268750D03*
D18*
X153987500Y-118268750D03*
D19*
X151447500Y-123348750D03*
X157797500Y-120808750D03*
D13*
X155130500Y-112553750D03*
X153987500Y-109378750D03*
D14*
X127127000Y-123438750D03*
D15*
X127127000Y-115638750D03*
D16*
X129095500Y-123348750D03*
X142022500Y-120808750D03*
D17*
X129857500Y-118268750D03*
X140017500Y-118268750D03*
D18*
X134937500Y-118268750D03*
D19*
X132397500Y-123348750D03*
X138747500Y-120808750D03*
D13*
X136080500Y-112553750D03*
X134937500Y-109378750D03*
D14*
X108077000Y-123387950D03*
D15*
X108077000Y-115587950D03*
D16*
X110045500Y-123348750D03*
X122972500Y-120808750D03*
D17*
X110807500Y-118268750D03*
X120967500Y-118268750D03*
D18*
X115887500Y-118268750D03*
D19*
X113347500Y-123348750D03*
X119697500Y-120808750D03*
D13*
X117030500Y-112553750D03*
X115887500Y-109378750D03*
X97980500Y-112553750D03*
X96837500Y-109378750D03*
D14*
X89027000Y-123387950D03*
D15*
X89027000Y-115587950D03*
D16*
X90995500Y-123348750D03*
X103922500Y-120808750D03*
D17*
X91757500Y-118268750D03*
X101917500Y-118268750D03*
D18*
X96837500Y-118268750D03*
D19*
X94297500Y-123348750D03*
X100647500Y-120808750D03*
D13*
X78930500Y-112553750D03*
X77787500Y-109378750D03*
D14*
X69977000Y-123387950D03*
D15*
X69977000Y-115587950D03*
D16*
X71945500Y-123348750D03*
X84872500Y-120808750D03*
D17*
X72707500Y-118268750D03*
X82867500Y-118268750D03*
D18*
X77787500Y-118268750D03*
D19*
X75247500Y-123348750D03*
X81597500Y-120808750D03*
D13*
X59880500Y-112553750D03*
X58737500Y-109378750D03*
D14*
X50927000Y-123387950D03*
D15*
X50927000Y-115587950D03*
D16*
X52895500Y-123348750D03*
X65822500Y-120808750D03*
D17*
X53657500Y-118268750D03*
X63817500Y-118268750D03*
D18*
X58737500Y-118268750D03*
D19*
X56197500Y-123348750D03*
X62547500Y-120808750D03*
D16*
X281495500Y-104298750D03*
X294422500Y-101758750D03*
D17*
X282257500Y-99218750D03*
X292417500Y-99218750D03*
D18*
X287337500Y-99218750D03*
D19*
X284797500Y-104298750D03*
X291147500Y-101758750D03*
D14*
X279400000Y-104388750D03*
D15*
X279400000Y-96588750D03*
D13*
X288467800Y-93516450D03*
X287324800Y-90341450D03*
D16*
X257683000Y-104298750D03*
X270610000Y-101758750D03*
D17*
X258445000Y-99218750D03*
X268605000Y-99218750D03*
D18*
X263525000Y-99218750D03*
D19*
X260985000Y-104298750D03*
X267335000Y-101758750D03*
D14*
X255714500Y-104337950D03*
D15*
X255714500Y-96537950D03*
D13*
X264668000Y-93503750D03*
X263525000Y-90328750D03*
D16*
X238633000Y-104298750D03*
X251560000Y-101758750D03*
D17*
X239395000Y-99218750D03*
X249555000Y-99218750D03*
D18*
X244475000Y-99218750D03*
D19*
X241935000Y-104298750D03*
X248285000Y-101758750D03*
D14*
X236664500Y-104337950D03*
D15*
X236664500Y-96537950D03*
D13*
X245618000Y-93503750D03*
X244475000Y-90328750D03*
D16*
X219583000Y-104298750D03*
X232510000Y-101758750D03*
D17*
X220345000Y-99218750D03*
X230505000Y-99218750D03*
D18*
X225425000Y-99218750D03*
D19*
X222885000Y-104298750D03*
X229235000Y-101758750D03*
D14*
X217614500Y-104388750D03*
D15*
X217614500Y-96588750D03*
D13*
X226568000Y-93503750D03*
X225425000Y-90328750D03*
D14*
X198564500Y-104337950D03*
D15*
X198564500Y-96537950D03*
D16*
X200533000Y-104298750D03*
X213460000Y-101758750D03*
D17*
X201295000Y-99218750D03*
X211455000Y-99218750D03*
D18*
X206375000Y-99218750D03*
D19*
X203835000Y-104298750D03*
X210185000Y-101758750D03*
D13*
X207518000Y-93503750D03*
X206375000Y-90328750D03*
D14*
X179514500Y-104337950D03*
D15*
X179514500Y-96537950D03*
D16*
X181483000Y-104298750D03*
X194410000Y-101758750D03*
D17*
X182245000Y-99218750D03*
X192405000Y-99218750D03*
D18*
X187325000Y-99218750D03*
D19*
X184785000Y-104298750D03*
X191135000Y-101758750D03*
D13*
X188468000Y-93503750D03*
X187325000Y-90328750D03*
D14*
X160464500Y-104388750D03*
D15*
X160464500Y-96588750D03*
D16*
X162433000Y-104298750D03*
X175360000Y-101758750D03*
D17*
X163195000Y-99218750D03*
X173355000Y-99218750D03*
D18*
X168275000Y-99218750D03*
D19*
X165735000Y-104298750D03*
X172085000Y-101758750D03*
D13*
X169418000Y-93503750D03*
X168275000Y-90328750D03*
D14*
X141414500Y-104337950D03*
D15*
X141414500Y-96537950D03*
D16*
X143383000Y-104298750D03*
X156310000Y-101758750D03*
D17*
X144145000Y-99218750D03*
X154305000Y-99218750D03*
D18*
X149225000Y-99218750D03*
D19*
X146685000Y-104298750D03*
X153035000Y-101758750D03*
D13*
X150368000Y-93503750D03*
X149225000Y-90328750D03*
D14*
X122364500Y-104337950D03*
D15*
X122364500Y-96537950D03*
D16*
X124333000Y-104298750D03*
X137260000Y-101758750D03*
D17*
X125095000Y-99218750D03*
X135255000Y-99218750D03*
D18*
X130175000Y-99218750D03*
D19*
X127635000Y-104298750D03*
X133985000Y-101758750D03*
D13*
X131318000Y-93503750D03*
X130175000Y-90328750D03*
D14*
X103314500Y-104337950D03*
D15*
X103314500Y-96537950D03*
D16*
X105283000Y-104298750D03*
X118210000Y-101758750D03*
D17*
X106045000Y-99218750D03*
X116205000Y-99218750D03*
D18*
X111125000Y-99218750D03*
D19*
X108585000Y-104298750D03*
X114935000Y-101758750D03*
D13*
X112268000Y-93503750D03*
X111125000Y-90328750D03*
X93218000Y-93503750D03*
X92075000Y-90328750D03*
D14*
X84264500Y-104337950D03*
D15*
X84264500Y-96537950D03*
D16*
X86233000Y-104298750D03*
X99160000Y-101758750D03*
D17*
X86995000Y-99218750D03*
X97155000Y-99218750D03*
D18*
X92075000Y-99218750D03*
D19*
X89535000Y-104298750D03*
X95885000Y-101758750D03*
D13*
X74168000Y-93503750D03*
X73025000Y-90328750D03*
D14*
X65214500Y-104337950D03*
D15*
X65214500Y-96537950D03*
D16*
X67183000Y-104298750D03*
X80110000Y-101758750D03*
D17*
X67945000Y-99218750D03*
X78105000Y-99218750D03*
D18*
X73025000Y-99218750D03*
D19*
X70485000Y-104298750D03*
X76835000Y-101758750D03*
D13*
X55118000Y-93503750D03*
X53975000Y-90328750D03*
D14*
X46164500Y-104337950D03*
D15*
X46164500Y-96537950D03*
D16*
X48133000Y-104298750D03*
X61060000Y-101758750D03*
D17*
X48895000Y-99218750D03*
X59055000Y-99218750D03*
D18*
X53975000Y-99218750D03*
D19*
X51435000Y-104298750D03*
X57785000Y-101758750D03*
D14*
X20161250Y-161538750D03*
D15*
X20161250Y-153738750D03*
D13*
X28924250Y-150653750D03*
X27781250Y-147478750D03*
D16*
X21939250Y-161448750D03*
X34866250Y-158908750D03*
D17*
X22701250Y-156368750D03*
X32861250Y-156368750D03*
D18*
X27781250Y-156368750D03*
D19*
X25241250Y-161448750D03*
X31591250Y-158908750D03*
D14*
X29686250Y-142488750D03*
D15*
X29686250Y-134688750D03*
D13*
X38449250Y-131591050D03*
X37306250Y-128416050D03*
D16*
X31464250Y-142398750D03*
X44391250Y-139858750D03*
D17*
X32226250Y-137318750D03*
X42386250Y-137318750D03*
D18*
X37306250Y-137318750D03*
D19*
X34766250Y-142398750D03*
X41116250Y-139858750D03*
D14*
X24885650Y-123464150D03*
D15*
X24885650Y-115664150D03*
D13*
X33648650Y-112579150D03*
X32505650Y-109404150D03*
D16*
X26701750Y-123348750D03*
X39628750Y-120808750D03*
D17*
X27463750Y-118268750D03*
X37623750Y-118268750D03*
D18*
X32543750Y-118268750D03*
D19*
X30003750Y-123348750D03*
X36353750Y-120808750D03*
D13*
X292639750Y-49720500D03*
X291496750Y-46545500D03*
D14*
X245395750Y-60681700D03*
D15*
X245395750Y-52881700D03*
D16*
X285464250Y-60642500D03*
X298391250Y-58102500D03*
D17*
X286226250Y-55562500D03*
X296386250Y-55562500D03*
D18*
X291306250Y-55562500D03*
D19*
X288766250Y-60642500D03*
X295116250Y-58102500D03*
D16*
X266414250Y-60642500D03*
X279341250Y-58102500D03*
D17*
X267176250Y-55562500D03*
X277336250Y-55562500D03*
D18*
X272256250Y-55562500D03*
D19*
X269716250Y-60642500D03*
X276066250Y-58102500D03*
D14*
X226345750Y-60681700D03*
D15*
X226345750Y-52881700D03*
D13*
X235489750Y-49720500D03*
X234346750Y-46545500D03*
D16*
X228314250Y-60642500D03*
X241241250Y-58102500D03*
D17*
X229076250Y-55562500D03*
X239236250Y-55562500D03*
D18*
X234156250Y-55562500D03*
D19*
X231616250Y-60642500D03*
X237966250Y-58102500D03*
D14*
X264445750Y-60681700D03*
D15*
X264445750Y-52881700D03*
D13*
X273589750Y-49720500D03*
X272446750Y-46545500D03*
D16*
X247364250Y-60642500D03*
X260291250Y-58102500D03*
D17*
X248126250Y-55562500D03*
X258286250Y-55562500D03*
D18*
X253206250Y-55562500D03*
D19*
X250666250Y-60642500D03*
X257016250Y-58102500D03*
D14*
X283495750Y-60681700D03*
D15*
X283495750Y-52881700D03*
D13*
X254539750Y-49720500D03*
X253396750Y-46545500D03*
D15*
X198564500Y-52932500D03*
D14*
X198564500Y-60732500D03*
D15*
X141414500Y-52881700D03*
D14*
X141414500Y-60681700D03*
X160464500Y-60681700D03*
D15*
X160464500Y-52881700D03*
D14*
X179514500Y-60681700D03*
D15*
X179514500Y-52881700D03*
D19*
X210185000Y-58102500D03*
X203835000Y-60642500D03*
D18*
X206375000Y-55562500D03*
D17*
X211455000Y-55562500D03*
X201295000Y-55562500D03*
D16*
X213460000Y-58102500D03*
X200533000Y-60642500D03*
X181483000Y-60642500D03*
X194410000Y-58102500D03*
D17*
X182245000Y-55562500D03*
X192405000Y-55562500D03*
D18*
X187325000Y-55562500D03*
D19*
X184785000Y-60642500D03*
X191135000Y-58102500D03*
D16*
X162433000Y-60642500D03*
X175360000Y-58102500D03*
D17*
X163195000Y-55562500D03*
X173355000Y-55562500D03*
D18*
X168275000Y-55562500D03*
D19*
X165735000Y-60642500D03*
X172085000Y-58102500D03*
X153035000Y-58102500D03*
X146685000Y-60642500D03*
D18*
X149225000Y-55562500D03*
D17*
X154305000Y-55562500D03*
X144145000Y-55562500D03*
D16*
X156310000Y-58102500D03*
X143383000Y-60642500D03*
D13*
X169608500Y-49720500D03*
X168465500Y-46545500D03*
X188658500Y-49720500D03*
X187515500Y-46545500D03*
X149415500Y-46545500D03*
X150558500Y-49720500D03*
X206565500Y-46545500D03*
X207708500Y-49720500D03*
X64643000Y-74453750D03*
X63500000Y-71278750D03*
X45593000Y-74453750D03*
X44450000Y-71278750D03*
X82550000Y-71278750D03*
X83693000Y-74453750D03*
D16*
X248158000Y-85248750D03*
X261085000Y-82708750D03*
D17*
X248920000Y-80168750D03*
X259080000Y-80168750D03*
D18*
X254000000Y-80168750D03*
D19*
X251460000Y-85248750D03*
X257810000Y-82708750D03*
D16*
X229108000Y-85248750D03*
X242035000Y-82708750D03*
D17*
X229870000Y-80168750D03*
X240030000Y-80168750D03*
D18*
X234950000Y-80168750D03*
D19*
X232410000Y-85248750D03*
X238760000Y-82708750D03*
D16*
X210058000Y-85248750D03*
X222985000Y-82708750D03*
D17*
X210820000Y-80168750D03*
X220980000Y-80168750D03*
D18*
X215900000Y-80168750D03*
D19*
X213360000Y-85248750D03*
X219710000Y-82708750D03*
D14*
X93789500Y-85287950D03*
D15*
X93789500Y-77487950D03*
D14*
X112839500Y-85287950D03*
D15*
X112839500Y-77487950D03*
D14*
X150939500Y-85287950D03*
D15*
X150939500Y-77487950D03*
D14*
X169989500Y-85287950D03*
D15*
X169989500Y-77487950D03*
D14*
X189039500Y-85338750D03*
D15*
X189039500Y-77538750D03*
D14*
X131889500Y-85287950D03*
D15*
X131889500Y-77487950D03*
X74739500Y-77487950D03*
D14*
X74739500Y-85287950D03*
X36918900Y-85338750D03*
D15*
X36918900Y-77538750D03*
D14*
X17780000Y-85338750D03*
D15*
X17780000Y-77538750D03*
D14*
X55689500Y-85287950D03*
D15*
X55689500Y-77487950D03*
D16*
X24320500Y-104298750D03*
X37247500Y-101758750D03*
D17*
X25082500Y-99218750D03*
X35242500Y-99218750D03*
D18*
X30162500Y-99218750D03*
D19*
X27622500Y-104298750D03*
X33972500Y-101758750D03*
D16*
X276733000Y-85248750D03*
X289660000Y-82708750D03*
D17*
X277495000Y-80168750D03*
X287655000Y-80168750D03*
D18*
X282575000Y-80168750D03*
D19*
X280035000Y-85248750D03*
X286385000Y-82708750D03*
D13*
X26543000Y-74453750D03*
X25400000Y-71278750D03*
D16*
X114808000Y-85248750D03*
X127735000Y-82708750D03*
D17*
X115570000Y-80168750D03*
X125730000Y-80168750D03*
D18*
X120650000Y-80168750D03*
D19*
X118110000Y-85248750D03*
X124460000Y-82708750D03*
D16*
X95758000Y-85248750D03*
X108685000Y-82708750D03*
D17*
X96520000Y-80168750D03*
X106680000Y-80168750D03*
D18*
X101600000Y-80168750D03*
D19*
X99060000Y-85248750D03*
X105410000Y-82708750D03*
D16*
X171958000Y-85248750D03*
X184885000Y-82708750D03*
D17*
X172720000Y-80168750D03*
X182880000Y-80168750D03*
D18*
X177800000Y-80168750D03*
D19*
X175260000Y-85248750D03*
X181610000Y-82708750D03*
D16*
X152908000Y-85248750D03*
X165835000Y-82708750D03*
D17*
X153670000Y-80168750D03*
X163830000Y-80168750D03*
D18*
X158750000Y-80168750D03*
D19*
X156210000Y-85248750D03*
X162560000Y-82708750D03*
X86360000Y-82708750D03*
X80010000Y-85248750D03*
D18*
X82550000Y-80168750D03*
D17*
X87630000Y-80168750D03*
X77470000Y-80168750D03*
D16*
X89635000Y-82708750D03*
X76708000Y-85248750D03*
X191008000Y-85248750D03*
X203935000Y-82708750D03*
D17*
X191770000Y-80168750D03*
X201930000Y-80168750D03*
D18*
X196850000Y-80168750D03*
D19*
X194310000Y-85248750D03*
X200660000Y-82708750D03*
D16*
X133858000Y-85248750D03*
X146785000Y-82708750D03*
D17*
X134620000Y-80168750D03*
X144780000Y-80168750D03*
D18*
X139700000Y-80168750D03*
D19*
X137160000Y-85248750D03*
X143510000Y-82708750D03*
D14*
X208089500Y-85287950D03*
D15*
X208089500Y-77487950D03*
D14*
X227139500Y-85287950D03*
D15*
X227139500Y-77487950D03*
D14*
X274955000Y-85338750D03*
D15*
X274955000Y-77538750D03*
D14*
X246189500Y-85338750D03*
D15*
X246189500Y-77538750D03*
D13*
X236093000Y-74453750D03*
X234950000Y-71278750D03*
X283718000Y-74504550D03*
X282575000Y-71329550D03*
X255143000Y-74453750D03*
X254000000Y-71278750D03*
D16*
X38608000Y-85248750D03*
X51535000Y-82708750D03*
D17*
X39370000Y-80168750D03*
X49530000Y-80168750D03*
D18*
X44450000Y-80168750D03*
D19*
X41910000Y-85248750D03*
X48260000Y-82708750D03*
D16*
X57658000Y-85248750D03*
X70585000Y-82708750D03*
D17*
X58420000Y-80168750D03*
X68580000Y-80168750D03*
D18*
X63500000Y-80168750D03*
D19*
X60960000Y-85248750D03*
X67310000Y-82708750D03*
D16*
X19558000Y-85248750D03*
X32485000Y-82708750D03*
D17*
X20320000Y-80168750D03*
X30480000Y-80168750D03*
D18*
X25400000Y-80168750D03*
D19*
X22860000Y-85248750D03*
X29210000Y-82708750D03*
D13*
X140843000Y-74453750D03*
X139700000Y-71278750D03*
X102743000Y-74453750D03*
X101600000Y-71278750D03*
X121793000Y-74453750D03*
X120650000Y-71278750D03*
X217043000Y-74453750D03*
X215900000Y-71278750D03*
X197993000Y-74453750D03*
X196850000Y-71278750D03*
X159893000Y-74453750D03*
X158750000Y-71278750D03*
X178943000Y-74453750D03*
X177800000Y-71278750D03*
D15*
X17780000Y-52932500D03*
D14*
X17780000Y-60732500D03*
D13*
X25400000Y-46558200D03*
X26543000Y-49733200D03*
D19*
X29210000Y-58102500D03*
X22860000Y-60642500D03*
D18*
X25400000Y-55562500D03*
D17*
X30480000Y-55562500D03*
X20320000Y-55562500D03*
D16*
X32485000Y-58102500D03*
X19558000Y-60642500D03*
D13*
X30175200Y-90335100D03*
X31318200Y-93510100D03*
D15*
X22352000Y-96545400D03*
D14*
X22352000Y-104345400D03*
M02*
