M48
; DRILL file {KiCad (5.1.10)-1} date 10/17/21 16:09:47
; FORMAT={-:-/ absolute / inch / decimal}
; #@! TF.CreationDate,2021-10-17T16:09:47+10:00
; #@! TF.GenerationSoftware,Kicad,Pcbnew,(5.1.10)-1
; #@! TF.FileFunction,NonPlated,1,4,NPTH
FMAT,2
INCH
T1C0.0689
T2C0.1181
T3C0.1575
%
G90
G05
T1
X0.8Y-2.1875
X0.8Y-3.1562
X0.8937Y-6.1562
X0.9875Y-3.9062
X1.0813Y-4.6562
X1.2Y-2.1875
X1.2Y-3.1562
X1.2688Y-5.4062
X1.2937Y-6.1562
X1.3875Y-3.9062
X1.4812Y-4.6562
X1.55Y-3.1562
X1.6687Y-5.4062
X1.8313Y-6.1562
X1.925Y-3.9062
X1.95Y-3.1562
X2.1125Y-4.6562
X2.2312Y-6.1562
X2.3Y-2.1875
X2.3Y-3.1562
X2.325Y-3.9062
X2.4875Y-5.4062
X2.5125Y-4.6562
X2.675Y-3.9062
X2.7Y-2.1875
X2.7Y-3.1562
X2.7687Y-6.1562
X2.8625Y-4.6562
X2.8875Y-5.4062
X3.05Y-2.1875
X3.05Y-3.1562
X3.075Y-3.9062
X3.1687Y-6.1562
X3.2375Y-5.4062
X3.2625Y-4.6562
X3.425Y-3.9062
X3.45Y-2.1875
X3.45Y-3.1562
X3.6125Y-4.6562
X3.6375Y-5.4062
X3.8Y-2.1875
X3.8Y-3.1562
X3.825Y-3.9062
X3.9875Y-5.4062
X4.0125Y-4.6562
X4.175Y-3.9062
X4.2Y-2.1875
X4.2Y-3.1562
X4.3625Y-4.6562
X4.3875Y-5.4062
X4.55Y-2.1875
X4.55Y-3.1562
X4.575Y-3.9062
X4.7375Y-5.4062
X4.7625Y-4.6562
X4.925Y-3.9062
X4.95Y-2.1875
X4.95Y-3.1562
X5.1125Y-4.6562
X5.1375Y-5.4062
X5.3Y-3.1562
X5.325Y-3.9062
X5.4875Y-5.4062
X5.5125Y-4.6562
X5.5812Y-6.1562
X5.675Y-2.1875
X5.675Y-3.9062
X5.7Y-3.1562
X5.8625Y-4.6562
X5.8875Y-5.4062
X5.9813Y-6.1562
X6.05Y-3.1562
X6.075Y-2.1875
X6.075Y-3.9062
X6.2375Y-5.4062
X6.2625Y-4.6562
X6.425Y-2.1875
X6.425Y-3.9062
X6.45Y-3.1562
X6.6125Y-4.6562
X6.6375Y-5.4062
X6.8Y-3.1562
X6.825Y-2.1875
X6.825Y-3.9062
X6.9875Y-5.4062
X7.0125Y-4.6562
X7.175Y-2.1875
X7.175Y-3.9062
X7.2Y-3.1562
X7.3625Y-4.6562
X7.3875Y-5.4062
X7.55Y-3.1562
X7.575Y-2.1875
X7.575Y-3.9062
X7.7375Y-5.4062
X7.7625Y-4.6562
X7.925Y-2.1875
X7.925Y-3.9062
X7.95Y-3.1562
X8.1125Y-4.6562
X8.1375Y-5.4062
X8.3Y-3.1562
X8.325Y-2.1875
X8.325Y-3.9062
X8.3937Y-6.1562
X8.4875Y-5.4062
X8.5125Y-4.6562
X8.675Y-3.9062
X8.7Y-3.1562
X8.7937Y-6.1562
X8.8625Y-4.6562
X8.8875Y-5.4062
X9.0187Y-2.1875
X9.05Y-3.1562
X9.075Y-3.9062
X9.2375Y-5.4062
X9.2625Y-4.6562
X9.3312Y-6.1562
X9.4187Y-2.1875
X9.425Y-3.9062
X9.45Y-3.1562
X9.6125Y-4.6562
X9.6375Y-5.4062
X9.7312Y-6.1562
X9.7687Y-2.1875
X9.8Y-3.1562
X9.825Y-3.9062
X10.0125Y-4.6562
X10.1687Y-2.1875
X10.175Y-3.9062
X10.2Y-3.1562
X10.2687Y-6.1562
X10.5187Y-2.1875
X10.575Y-3.9062
X10.6437Y-5.4062
X10.6687Y-6.1562
X10.8312Y-4.6562
X10.9187Y-2.1875
X10.925Y-3.1562
X11.0437Y-5.4062
X11.1125Y-3.9062
X11.2062Y-6.1562
X11.2312Y-4.6562
X11.2687Y-2.1875
X11.325Y-3.1562
X11.5125Y-3.9062
X11.6062Y-6.1562
X11.6687Y-2.1875
X12.2375Y-2.1875
X12.2375Y-3.1562
X12.2375Y-3.9062
X12.2375Y-6.1562
X12.6375Y-2.1875
X12.6375Y-3.1562
X12.6375Y-3.9062
X12.6375Y-6.1562
X12.9875Y-2.1875
X12.9875Y-3.1562
X12.9875Y-3.9062
X12.9875Y-5.4062
X12.9875Y-6.1562
X13.3875Y-2.1875
X13.3875Y-3.1562
X13.3875Y-3.9062
X13.3875Y-5.4062
X13.3875Y-6.1562
X13.7375Y-2.1875
X13.7375Y-3.1562
X13.7375Y-3.9062
X13.7375Y-6.1562
X14.1375Y-2.1875
X14.1375Y-3.1562
X14.1375Y-3.9062
X14.1375Y-6.1562
X14.7062Y-2.1875
X14.7062Y-3.1562
X14.7062Y-3.9062
X14.7062Y-4.6562
X14.7062Y-5.4062
X15.0812Y-6.1562
X15.1062Y-2.1875
X15.1062Y-3.1562
X15.1062Y-3.9062
X15.1062Y-4.6562
X15.1062Y-5.4062
X15.4562Y-2.1875
X15.4562Y-3.1562
X15.4562Y-3.9062
X15.4562Y-4.6562
X15.4562Y-5.4062
X15.4812Y-6.1562
X15.8562Y-2.1875
X15.8562Y-3.1562
X15.8562Y-3.9062
X15.8562Y-4.6562
X15.8562Y-5.4062
X16.2063Y-2.1875
X16.2063Y-3.1562
X16.2063Y-3.9062
X16.2063Y-4.6562
X16.2063Y-5.4062
X16.2063Y-6.1562
X16.6062Y-2.1875
X16.6062Y-3.1562
X16.6062Y-3.9062
X16.6062Y-4.6562
X16.6062Y-5.4062
X16.6062Y-6.1562
X16.9563Y-2.1875
X16.9563Y-3.1562
X16.9563Y-4.2812
X16.9563Y-5.7812
X17.3562Y-2.1875
X17.3562Y-3.1562
X17.3562Y-4.2812
X17.3562Y-5.7812
T2
X0.9Y-2.3875
X0.9Y-3.3562
X0.9938Y-6.3563
X1.0875Y-4.1063
X1.15Y-2.2875
X1.15Y-3.2563
X1.1812Y-4.8563
X1.2437Y-6.2562
X1.3375Y-4.0062
X1.3687Y-5.6063
X1.4312Y-4.7562
X1.6187Y-5.5062
X1.65Y-3.3562
X1.9Y-3.2563
X1.9312Y-6.3563
X2.025Y-4.1063
X2.1812Y-6.2562
X2.2125Y-4.8563
X2.275Y-4.0062
X2.4Y-2.3875
X2.4Y-3.3562
X2.4625Y-4.7562
X2.5875Y-5.6063
X2.65Y-2.2875
X2.65Y-3.2563
X2.775Y-4.1063
X2.8375Y-5.5062
X2.8687Y-6.3563
X2.9625Y-4.8563
X3.025Y-4.0062
X3.1187Y-6.2562
X3.15Y-2.3875
X3.15Y-3.3562
X3.2125Y-4.7562
X3.3375Y-5.6063
X3.4Y-2.2875
X3.4Y-3.2563
X3.525Y-4.1063
X3.5875Y-5.5062
X3.7125Y-4.8563
X3.775Y-4.0062
X3.9Y-2.3875
X3.9Y-3.3562
X3.9625Y-4.7562
X4.0875Y-5.6063
X4.15Y-2.2875
X4.15Y-3.2563
X4.275Y-4.1063
X4.3375Y-5.5062
X4.4625Y-4.8563
X4.525Y-4.0062
X4.65Y-2.3875
X4.65Y-3.3562
X4.7125Y-4.7562
X4.8375Y-5.6063
X4.9Y-2.2875
X4.9Y-3.2563
X5.025Y-4.1063
X5.0875Y-5.5062
X5.2125Y-4.8563
X5.275Y-4.0062
X5.4Y-3.3562
X5.4625Y-4.7562
X5.5875Y-5.6063
X5.65Y-3.2563
X5.6812Y-6.3563
X5.775Y-2.3875
X5.775Y-4.1063
X5.8375Y-5.5062
X5.9312Y-6.2562
X5.9625Y-4.8563
X6.025Y-2.2875
X6.025Y-4.0062
X6.15Y-3.3562
X6.2125Y-4.7562
X6.3375Y-5.6063
X6.4Y-3.2563
X6.525Y-2.3875
X6.525Y-4.1063
X6.5875Y-5.5062
X6.7125Y-4.8563
X6.775Y-2.2875
X6.775Y-4.0062
X6.9Y-3.3562
X6.9625Y-4.7562
X7.0875Y-5.6063
X7.15Y-3.2563
X7.275Y-2.3875
X7.275Y-4.1063
X7.3375Y-5.5062
X7.4625Y-4.8563
X7.525Y-2.2875
X7.525Y-4.0062
X7.65Y-3.3562
X7.7125Y-4.7562
X7.8375Y-5.6063
X7.9Y-3.2563
X8.025Y-2.3875
X8.025Y-4.1063
X8.0875Y-5.5062
X8.2125Y-4.8563
X8.275Y-2.2875
X8.275Y-4.0062
X8.4Y-3.3562
X8.4625Y-4.7562
X8.4938Y-6.3563
X8.5875Y-5.6063
X8.65Y-3.2563
X8.7438Y-6.2562
X8.775Y-4.1063
X8.8375Y-5.5062
X8.9625Y-4.8563
X9.025Y-4.0062
X9.1188Y-2.3875
X9.15Y-3.3562
X9.2125Y-4.7562
X9.3375Y-5.6063
X9.3688Y-2.2875
X9.4Y-3.2563
X9.4313Y-6.3563
X9.525Y-4.1063
X9.5875Y-5.5062
X9.6813Y-6.2562
X9.7125Y-4.8563
X9.775Y-4.0062
X9.8688Y-2.3875
X9.9Y-3.3562
X9.9625Y-4.7562
X10.1188Y-2.2875
X10.15Y-3.2563
X10.275Y-4.1063
X10.3688Y-6.3563
X10.525Y-4.0062
X10.6188Y-2.3875
X10.6188Y-6.2562
X10.7438Y-5.6063
X10.8688Y-2.2875
X10.9313Y-4.8563
X10.9938Y-5.5062
X11.025Y-3.3562
X11.1813Y-4.7562
X11.2125Y-4.1063
X11.275Y-3.2563
X11.3063Y-6.3563
X11.3688Y-2.3875
X11.4625Y-4.0062
X11.5563Y-6.2562
X11.6188Y-2.2875
X12.3375Y-2.3875
X12.3375Y-3.3562
X12.3375Y-4.1063
X12.3375Y-6.3563
X12.5875Y-2.2875
X12.5875Y-3.2563
X12.5875Y-4.0062
X12.5875Y-6.2562
X13.0875Y-2.3875
X13.0875Y-3.3562
X13.0875Y-4.1063
X13.0875Y-5.6063
X13.0875Y-6.3563
X13.3375Y-2.2875
X13.3375Y-3.2563
X13.3375Y-4.0062
X13.3375Y-5.5062
X13.3375Y-6.2562
X13.8375Y-2.3875
X13.8375Y-3.3562
X13.8375Y-4.1063
X13.8375Y-6.3563
X14.0875Y-2.2875
X14.0875Y-3.2563
X14.0875Y-4.0062
X14.0875Y-6.2562
X14.8063Y-2.3875
X14.8063Y-3.3562
X14.8063Y-4.1063
X14.8063Y-4.8563
X14.8063Y-5.6063
X15.0563Y-2.2875
X15.0563Y-3.2563
X15.0563Y-4.0062
X15.0563Y-4.7562
X15.0563Y-5.5062
X15.1813Y-6.3563
X15.4313Y-6.2562
X15.5563Y-2.3875
X15.5563Y-3.3562
X15.5563Y-4.1063
X15.5563Y-4.8563
X15.5563Y-5.6063
X15.8063Y-2.2875
X15.8063Y-3.2563
X15.8063Y-4.0062
X15.8063Y-4.7562
X15.8063Y-5.5062
X16.3062Y-2.3875
X16.3062Y-3.3562
X16.3062Y-4.1063
X16.3062Y-4.8563
X16.3062Y-5.6063
X16.3062Y-6.3563
X16.5562Y-2.2875
X16.5562Y-3.2563
X16.5562Y-4.0062
X16.5562Y-4.7562
X16.5562Y-5.5062
X16.5562Y-6.2562
X17.0562Y-2.3875
X17.0562Y-3.3562
X17.0562Y-4.4813
X17.0562Y-5.9813
X17.3062Y-2.2875
X17.3062Y-3.2563
X17.3062Y-4.3812
X17.3062Y-5.8812
T3
X1.0Y-2.1875
X1.0Y-3.1562
X1.0938Y-6.1562
X1.1875Y-3.9062
X1.2812Y-4.6562
X1.4688Y-5.4062
X1.75Y-3.1562
X2.0312Y-6.1562
X2.125Y-3.9062
X2.3125Y-4.6562
X2.5Y-2.1875
X2.5Y-3.1562
X2.6875Y-5.4062
X2.875Y-3.9062
X2.9688Y-6.1562
X3.0625Y-4.6562
X3.25Y-2.1875
X3.25Y-3.1562
X3.4375Y-5.4062
X3.625Y-3.9062
X3.8125Y-4.6562
X4.0Y-2.1875
X4.0Y-3.1562
X4.1875Y-5.4062
X4.375Y-3.9062
X4.5625Y-4.6562
X4.75Y-2.1875
X4.75Y-3.1562
X4.9375Y-5.4062
X5.125Y-3.9062
X5.3125Y-4.6562
X5.5Y-3.1562
X5.6875Y-5.4062
X5.7812Y-6.1562
X5.875Y-2.1875
X5.875Y-3.9062
X6.0625Y-4.6562
X6.25Y-3.1562
X6.4375Y-5.4062
X6.625Y-2.1875
X6.625Y-3.9062
X6.8125Y-4.6562
X7.0Y-3.1562
X7.1875Y-5.4062
X7.375Y-2.1875
X7.375Y-3.9062
X7.5625Y-4.6562
X7.75Y-3.1562
X7.9375Y-5.4062
X8.125Y-2.1875
X8.125Y-3.9062
X8.3125Y-4.6562
X8.5Y-3.1562
X8.5938Y-6.1562
X8.6875Y-5.4062
X8.875Y-3.9062
X9.0625Y-4.6562
X9.2188Y-2.1875
X9.25Y-3.1562
X9.4375Y-5.4062
X9.5312Y-6.1562
X9.625Y-3.9062
X9.8125Y-4.6562
X9.9688Y-2.1875
X10.0Y-3.1562
X10.375Y-3.9062
X10.4688Y-6.1562
X10.7188Y-2.1875
X10.8438Y-5.4062
X11.0312Y-4.6562
X11.125Y-3.1562
X11.3125Y-3.9062
X11.4062Y-6.1562
X11.4688Y-2.1875
X12.4375Y-2.1875
X12.4375Y-3.1562
X12.4375Y-3.9062
X12.4375Y-6.1562
X13.1875Y-2.1875
X13.1875Y-3.1562
X13.1875Y-3.9062
X13.1875Y-5.4062
X13.1875Y-6.1562
X13.9375Y-2.1875
X13.9375Y-3.1562
X13.9375Y-3.9062
X13.9375Y-6.1562
X14.9062Y-2.1875
X14.9062Y-3.1562
X14.9062Y-3.9062
X14.9062Y-4.6562
X14.9062Y-5.4062
X15.2812Y-6.1562
X15.6562Y-2.1875
X15.6562Y-3.1562
X15.6562Y-3.9062
X15.6562Y-4.6562
X15.6562Y-5.4062
X16.4062Y-2.1875
X16.4062Y-3.1562
X16.4062Y-3.9062
X16.4062Y-4.6562
X16.4062Y-5.4062
X16.4062Y-6.1562
X17.1562Y-2.1875
X17.1562Y-3.1562
X17.1562Y-4.2812
X17.1562Y-5.7812
T0
M30
