G04 #@! TF.GenerationSoftware,KiCad,Pcbnew,(5.1.10)-1*
G04 #@! TF.CreationDate,2021-10-17T16:09:46+10:00*
G04 #@! TF.ProjectId,RedPyKeeb_mainboard,52656450-794b-4656-9562-5f6d61696e62,rev?*
G04 #@! TF.SameCoordinates,Original*
G04 #@! TF.FileFunction,Soldermask,Bot*
G04 #@! TF.FilePolarity,Negative*
%FSLAX46Y46*%
G04 Gerber Fmt 4.6, Leading zero omitted, Abs format (unit mm)*
G04 Created by KiCad (PCBNEW (5.1.10)-1) date 2021-10-17 16:09:46*
%MOMM*%
%LPD*%
G01*
G04 APERTURE LIST*
%ADD10R,1.000000X3.150000*%
%ADD11C,0.800000*%
%ADD12C,1.600000*%
%ADD13R,1.600000X1.600000*%
%ADD14R,2.550000X2.500000*%
%ADD15C,1.750000*%
%ADD16C,4.000000*%
%ADD17C,3.000000*%
G04 APERTURE END LIST*
D10*
X387451600Y-21795500D03*
X387451600Y-26845500D03*
X392531600Y-26845260D03*
X389991600Y-26845500D03*
X389991600Y-21795500D03*
X384911600Y-21795500D03*
X379831600Y-21795500D03*
X382371600Y-21795500D03*
X384911600Y-26845500D03*
X392531600Y-21795500D03*
X372211600Y-21795500D03*
X377291600Y-21795500D03*
X377291600Y-26845500D03*
X374751600Y-26845500D03*
X372211600Y-26845500D03*
X351891600Y-26845500D03*
X364591600Y-26845500D03*
X367131600Y-21795500D03*
X356971600Y-21795500D03*
X354431600Y-26845500D03*
X349351600Y-21795500D03*
X367131600Y-26845500D03*
X364591600Y-21795500D03*
X349351600Y-26845500D03*
X362051600Y-26845500D03*
X369671600Y-21795500D03*
X356971600Y-26845500D03*
X369671600Y-26845500D03*
X359511600Y-21795500D03*
X359511600Y-26845500D03*
X346811600Y-21795500D03*
X346811600Y-26845500D03*
X374751600Y-21795500D03*
X354431600Y-21795500D03*
X351891600Y-21795500D03*
X379831600Y-26845500D03*
X344271600Y-21795500D03*
X344271600Y-26845260D03*
X382371600Y-26845500D03*
X362051600Y-21795500D03*
D11*
X63690500Y-46545500D03*
X64833500Y-49720500D03*
D12*
X93789500Y-60681700D03*
D13*
X93789500Y-52881700D03*
D12*
X74739500Y-60681700D03*
D13*
X74739500Y-52881700D03*
X55689500Y-52932500D03*
D12*
X55689500Y-60732500D03*
D14*
X95758000Y-60642500D03*
X108685000Y-58102500D03*
D15*
X96520000Y-55562500D03*
X106680000Y-55562500D03*
D16*
X101600000Y-55562500D03*
D17*
X99060000Y-60642500D03*
X105410000Y-58102500D03*
D11*
X102933500Y-49720500D03*
X101790500Y-46545500D03*
X121983500Y-49720500D03*
X120840500Y-46545500D03*
D14*
X76708000Y-60642500D03*
X89635000Y-58102500D03*
D15*
X77470000Y-55562500D03*
X87630000Y-55562500D03*
D16*
X82550000Y-55562500D03*
D17*
X80010000Y-60642500D03*
X86360000Y-58102500D03*
D11*
X83883500Y-49720500D03*
X82740500Y-46545500D03*
D12*
X112839500Y-60681700D03*
D13*
X112839500Y-52881700D03*
D14*
X114808000Y-60642500D03*
X127735000Y-58102500D03*
D15*
X115570000Y-55562500D03*
X125730000Y-55562500D03*
D16*
X120650000Y-55562500D03*
D17*
X118110000Y-60642500D03*
X124460000Y-58102500D03*
X67310000Y-58102500D03*
X60960000Y-60642500D03*
D16*
X63500000Y-55562500D03*
D15*
X68580000Y-55562500D03*
X58420000Y-55562500D03*
D14*
X70585000Y-58102500D03*
X57658000Y-60642500D03*
G36*
G01*
X432288700Y-26361900D02*
X432288700Y-24361900D01*
G75*
G02*
X432538700Y-24111900I250000J0D01*
G01*
X436038700Y-24111900D01*
G75*
G02*
X436288700Y-24361900I0J-250000D01*
G01*
X436288700Y-26361900D01*
G75*
G02*
X436038700Y-26611900I-250000J0D01*
G01*
X432538700Y-26611900D01*
G75*
G02*
X432288700Y-26361900I0J250000D01*
G01*
G37*
G36*
G01*
X424288700Y-26361900D02*
X424288700Y-24361900D01*
G75*
G02*
X424538700Y-24111900I250000J0D01*
G01*
X428038700Y-24111900D01*
G75*
G02*
X428288700Y-24361900I0J-250000D01*
G01*
X428288700Y-26361900D01*
G75*
G02*
X428038700Y-26611900I-250000J0D01*
G01*
X424538700Y-26611900D01*
G75*
G02*
X424288700Y-26361900I0J250000D01*
G01*
G37*
X429926750Y-151923750D03*
X442853750Y-149383750D03*
D15*
X430688750Y-146843750D03*
X440848750Y-146843750D03*
D16*
X435768750Y-146843750D03*
D17*
X433228750Y-151923750D03*
X439578750Y-149383750D03*
D11*
X437165750Y-143160750D03*
X436022750Y-139985750D03*
D12*
X428212250Y-151962950D03*
D13*
X428212250Y-144162950D03*
D11*
X417861750Y-150653750D03*
X416718750Y-147478750D03*
D14*
X410876750Y-161448750D03*
X423803750Y-158908750D03*
D15*
X411638750Y-156368750D03*
X421798750Y-156368750D03*
D16*
X416718750Y-156368750D03*
D17*
X414178750Y-161448750D03*
X420528750Y-158908750D03*
D12*
X408908250Y-161487950D03*
D13*
X408908250Y-153687950D03*
D11*
X417861750Y-131603750D03*
X416718750Y-128428750D03*
D14*
X410876750Y-142398750D03*
X423803750Y-139858750D03*
D15*
X411638750Y-137318750D03*
X421798750Y-137318750D03*
D16*
X416718750Y-137318750D03*
D17*
X414178750Y-142398750D03*
X420528750Y-139858750D03*
D12*
X408908250Y-142437950D03*
D13*
X408908250Y-134637950D03*
D14*
X391826750Y-142398750D03*
X404753750Y-139858750D03*
D15*
X392588750Y-137318750D03*
X402748750Y-137318750D03*
D16*
X397668750Y-137318750D03*
D17*
X395128750Y-142398750D03*
X401478750Y-139858750D03*
D12*
X389858250Y-142437950D03*
D13*
X389858250Y-134637950D03*
D11*
X398811750Y-131603750D03*
X397668750Y-128428750D03*
X417861750Y-112553750D03*
X416718750Y-109378750D03*
D14*
X410876750Y-123348750D03*
X423803750Y-120808750D03*
D15*
X411638750Y-118268750D03*
X421798750Y-118268750D03*
D16*
X416718750Y-118268750D03*
D17*
X414178750Y-123348750D03*
X420528750Y-120808750D03*
D12*
X408908250Y-123387950D03*
D13*
X408908250Y-115587950D03*
D11*
X398811750Y-112553750D03*
X397668750Y-109378750D03*
D14*
X391826750Y-123348750D03*
X404753750Y-120808750D03*
D15*
X392588750Y-118268750D03*
X402748750Y-118268750D03*
D16*
X397668750Y-118268750D03*
D17*
X395128750Y-123348750D03*
X401478750Y-120808750D03*
D12*
X389858250Y-123387950D03*
D13*
X389858250Y-115587950D03*
D11*
X389540750Y-150653750D03*
X388397750Y-147478750D03*
D14*
X382301750Y-161448750D03*
X395228750Y-158908750D03*
D15*
X383063750Y-156368750D03*
X393223750Y-156368750D03*
D16*
X388143750Y-156368750D03*
D17*
X385603750Y-161448750D03*
X391953750Y-158908750D03*
D12*
X380587250Y-161538750D03*
D13*
X380587250Y-153738750D03*
D14*
X372776750Y-142398750D03*
X385703750Y-139858750D03*
D15*
X373538750Y-137318750D03*
X383698750Y-137318750D03*
D16*
X378618750Y-137318750D03*
D17*
X376078750Y-142398750D03*
X382428750Y-139858750D03*
D11*
X380015750Y-131603750D03*
X378872750Y-128428750D03*
D12*
X370554250Y-142437950D03*
D13*
X370554250Y-134637950D03*
D14*
X372776750Y-123348750D03*
X385703750Y-120808750D03*
D15*
X373538750Y-118268750D03*
X383698750Y-118268750D03*
D16*
X378618750Y-118268750D03*
D17*
X376078750Y-123348750D03*
X382428750Y-120808750D03*
D11*
X379761750Y-112553750D03*
X378618750Y-109378750D03*
D12*
X370808250Y-123387950D03*
D13*
X370808250Y-115587950D03*
D11*
X436911750Y-103282750D03*
X435768750Y-100107750D03*
D14*
X429926750Y-113823750D03*
X442853750Y-111283750D03*
D15*
X430688750Y-108743750D03*
X440848750Y-108743750D03*
D16*
X435768750Y-108743750D03*
D17*
X433228750Y-113823750D03*
X439578750Y-111283750D03*
D12*
X427958250Y-113659750D03*
D13*
X427958250Y-105859750D03*
D11*
X417861750Y-93402150D03*
X416718750Y-90227150D03*
D14*
X410876750Y-104298750D03*
X423803750Y-101758750D03*
D15*
X411638750Y-99218750D03*
X421798750Y-99218750D03*
D16*
X416718750Y-99218750D03*
D17*
X414178750Y-104298750D03*
X420528750Y-101758750D03*
D12*
X408908250Y-104337950D03*
D13*
X408908250Y-96537950D03*
D14*
X391826750Y-104298750D03*
X404753750Y-101758750D03*
D15*
X392588750Y-99218750D03*
X402748750Y-99218750D03*
D16*
X397668750Y-99218750D03*
D17*
X395128750Y-104298750D03*
X401478750Y-101758750D03*
D11*
X398811750Y-93402150D03*
X397668750Y-90227150D03*
D12*
X389858250Y-104337950D03*
D13*
X389858250Y-96537950D03*
D14*
X372776750Y-104298750D03*
X385703750Y-101758750D03*
D15*
X373538750Y-99218750D03*
X383698750Y-99218750D03*
D16*
X378618750Y-99218750D03*
D17*
X376078750Y-104298750D03*
X382428750Y-101758750D03*
D12*
X370808250Y-104337950D03*
D13*
X370808250Y-96537950D03*
D11*
X379761750Y-93402150D03*
X378618750Y-90227150D03*
X436911750Y-74453750D03*
X435768750Y-71278750D03*
D12*
X427958250Y-85287950D03*
D13*
X427958250Y-77487950D03*
D14*
X429926750Y-85248750D03*
X442853750Y-82708750D03*
D15*
X430688750Y-80168750D03*
X440848750Y-80168750D03*
D16*
X435768750Y-80168750D03*
D17*
X433228750Y-85248750D03*
X439578750Y-82708750D03*
D14*
X410876750Y-85248750D03*
X423803750Y-82708750D03*
D15*
X411638750Y-80168750D03*
X421798750Y-80168750D03*
D16*
X416718750Y-80168750D03*
D17*
X414178750Y-85248750D03*
X420528750Y-82708750D03*
D11*
X417861750Y-74466450D03*
X416718750Y-71291450D03*
D12*
X408908250Y-85287950D03*
D13*
X408908250Y-77487950D03*
D17*
X401478750Y-82708750D03*
X395128750Y-85248750D03*
D16*
X397668750Y-80168750D03*
D15*
X402748750Y-80168750D03*
X392588750Y-80168750D03*
D14*
X404753750Y-82708750D03*
X391826750Y-85248750D03*
D11*
X397668750Y-71278750D03*
X398811750Y-74453750D03*
D13*
X389858250Y-77538750D03*
D12*
X389858250Y-85338750D03*
D14*
X372776750Y-85248750D03*
X385703750Y-82708750D03*
D15*
X373538750Y-80168750D03*
X383698750Y-80168750D03*
D16*
X378618750Y-80168750D03*
D17*
X376078750Y-85248750D03*
X382428750Y-82708750D03*
D12*
X370808250Y-85287950D03*
D13*
X370808250Y-77487950D03*
D11*
X379761750Y-74453750D03*
X378618750Y-71278750D03*
D14*
X429926750Y-60642500D03*
X442853750Y-58102500D03*
D15*
X430688750Y-55562500D03*
X440848750Y-55562500D03*
D16*
X435768750Y-55562500D03*
D17*
X433228750Y-60642500D03*
X439578750Y-58102500D03*
D11*
X436911750Y-49733200D03*
X435768750Y-46558200D03*
X437165750Y-68643500D03*
X436022750Y-65468500D03*
D12*
X427958250Y-60732500D03*
D13*
X427958250Y-52932500D03*
D11*
X418115750Y-68592700D03*
X416972750Y-65417700D03*
X417849050Y-49733200D03*
X416706050Y-46558200D03*
D14*
X410876750Y-60642500D03*
X423803750Y-58102500D03*
D15*
X411638750Y-55562500D03*
X421798750Y-55562500D03*
D16*
X416718750Y-55562500D03*
D17*
X414178750Y-60642500D03*
X420528750Y-58102500D03*
D12*
X408908250Y-60681700D03*
D13*
X408908250Y-52881700D03*
D11*
X399065750Y-68605400D03*
X397922750Y-65430400D03*
X398799050Y-49745900D03*
X397656050Y-46570900D03*
D17*
X401478750Y-58102500D03*
X395128750Y-60642500D03*
D16*
X397668750Y-55562500D03*
D15*
X402748750Y-55562500D03*
X392588750Y-55562500D03*
D14*
X404753750Y-58102500D03*
X391826750Y-60642500D03*
D12*
X389858250Y-60694400D03*
D13*
X389858250Y-52894400D03*
D11*
X378606050Y-46558200D03*
X379749050Y-49733200D03*
D17*
X382428750Y-58102500D03*
X376078750Y-60642500D03*
D16*
X378618750Y-55562500D03*
D15*
X383698750Y-55562500D03*
X373538750Y-55562500D03*
D14*
X385703750Y-58102500D03*
X372776750Y-60642500D03*
D13*
X308102000Y-52881700D03*
D12*
X308102000Y-60681700D03*
D17*
X319722500Y-58102500D03*
X313372500Y-60642500D03*
D16*
X315912500Y-55562500D03*
D15*
X320992500Y-55562500D03*
X310832500Y-55562500D03*
D14*
X322997500Y-58102500D03*
X310070500Y-60642500D03*
D11*
X316103000Y-46545500D03*
X317246000Y-49720500D03*
D14*
X329120500Y-85248750D03*
X342047500Y-82708750D03*
D15*
X329882500Y-80168750D03*
X340042500Y-80168750D03*
D16*
X334962500Y-80168750D03*
D17*
X332422500Y-85248750D03*
X338772500Y-82708750D03*
D11*
X315912500Y-71278750D03*
X317055500Y-74453750D03*
D17*
X319722500Y-82708750D03*
X313372500Y-85248750D03*
D16*
X315912500Y-80168750D03*
D15*
X320992500Y-80168750D03*
X310832500Y-80168750D03*
D14*
X322997500Y-82708750D03*
X310070500Y-85248750D03*
D13*
X308102000Y-77487950D03*
D12*
X308102000Y-85287950D03*
D11*
X336105500Y-74453750D03*
X334962500Y-71278750D03*
X378555250Y-65468500D03*
X379698250Y-68643500D03*
D13*
X370808250Y-52881700D03*
D12*
X370808250Y-60681700D03*
D17*
X357822500Y-58102500D03*
X351472500Y-60642500D03*
D16*
X354012500Y-55562500D03*
D15*
X359092500Y-55562500D03*
X348932500Y-55562500D03*
D14*
X361097500Y-58102500D03*
X348170500Y-60642500D03*
D11*
X354203000Y-46545500D03*
X355346000Y-49720500D03*
D17*
X338772500Y-58102500D03*
X332422500Y-60642500D03*
D16*
X334962500Y-55562500D03*
D15*
X340042500Y-55562500D03*
X329882500Y-55562500D03*
D14*
X342047500Y-58102500D03*
X329120500Y-60642500D03*
D11*
X335153000Y-46545500D03*
X336296000Y-49720500D03*
D13*
X327406000Y-52881700D03*
D12*
X327406000Y-60681700D03*
D17*
X357822500Y-158908750D03*
X351472500Y-161448750D03*
D16*
X354012500Y-156368750D03*
D15*
X359092500Y-156368750D03*
X348932500Y-156368750D03*
D14*
X361097500Y-158908750D03*
X348170500Y-161448750D03*
D11*
X354012500Y-147478750D03*
X355155500Y-150653750D03*
D13*
X346202000Y-153687950D03*
D12*
X346202000Y-161487950D03*
D13*
X327152000Y-134637950D03*
D12*
X327152000Y-142437950D03*
D11*
X334962500Y-128377950D03*
X336105500Y-131552950D03*
D17*
X338772500Y-139858750D03*
X332422500Y-142398750D03*
D16*
X334962500Y-137318750D03*
D15*
X340042500Y-137318750D03*
X329882500Y-137318750D03*
D14*
X342047500Y-139858750D03*
X329120500Y-142398750D03*
X329120500Y-161448750D03*
X342047500Y-158908750D03*
D15*
X329882500Y-156368750D03*
X340042500Y-156368750D03*
D16*
X334962500Y-156368750D03*
D17*
X332422500Y-161448750D03*
X338772500Y-158908750D03*
D12*
X327152000Y-161487950D03*
D13*
X327152000Y-153687950D03*
D14*
X310070500Y-104298750D03*
X322997500Y-101758750D03*
D15*
X310832500Y-99218750D03*
X320992500Y-99218750D03*
D16*
X315912500Y-99218750D03*
D17*
X313372500Y-104298750D03*
X319722500Y-101758750D03*
X319722500Y-158908750D03*
X313372500Y-161448750D03*
D16*
X315912500Y-156368750D03*
D15*
X320992500Y-156368750D03*
X310832500Y-156368750D03*
D14*
X322997500Y-158908750D03*
X310070500Y-161448750D03*
D11*
X334962500Y-90328750D03*
X336105500Y-93503750D03*
X354090700Y-71304150D03*
X355233700Y-74479150D03*
D12*
X308356000Y-104337950D03*
D13*
X308356000Y-96537950D03*
D11*
X317055500Y-93503750D03*
X315912500Y-90328750D03*
D12*
X346456000Y-104337950D03*
D13*
X346456000Y-96537950D03*
X346202000Y-77487950D03*
D12*
X346202000Y-85287950D03*
D13*
X346202000Y-52881700D03*
D12*
X346202000Y-60681700D03*
D13*
X308102000Y-153687950D03*
D12*
X308102000Y-161487950D03*
D17*
X338772500Y-101758750D03*
X332422500Y-104298750D03*
D16*
X334962500Y-99218750D03*
D15*
X340042500Y-99218750D03*
X329882500Y-99218750D03*
D14*
X342047500Y-101758750D03*
X329120500Y-104298750D03*
D17*
X357822500Y-82708750D03*
X351472500Y-85248750D03*
D16*
X354012500Y-80168750D03*
D15*
X359092500Y-80168750D03*
X348932500Y-80168750D03*
D14*
X361097500Y-82708750D03*
X348170500Y-85248750D03*
D11*
X355155500Y-93503750D03*
X354012500Y-90328750D03*
D13*
X327152000Y-96537950D03*
D12*
X327152000Y-104337950D03*
D11*
X315912500Y-147478750D03*
X317055500Y-150653750D03*
D14*
X348170500Y-104298750D03*
X361097500Y-101758750D03*
D15*
X348932500Y-99218750D03*
X359092500Y-99218750D03*
D16*
X354012500Y-99218750D03*
D17*
X351472500Y-104298750D03*
X357822500Y-101758750D03*
D11*
X336105500Y-150653750D03*
X334962500Y-147478750D03*
D12*
X327152000Y-85287950D03*
D13*
X327152000Y-77487950D03*
D14*
X283876750Y-161448750D03*
X296803750Y-158908750D03*
D15*
X284638750Y-156368750D03*
X294798750Y-156368750D03*
D16*
X289718750Y-156368750D03*
D17*
X287178750Y-161448750D03*
X293528750Y-158908750D03*
D12*
X281908250Y-161487950D03*
D13*
X281908250Y-153687950D03*
D11*
X290861750Y-150653750D03*
X289718750Y-147478750D03*
D14*
X260064250Y-161448750D03*
X272991250Y-158908750D03*
D15*
X260826250Y-156368750D03*
X270986250Y-156368750D03*
D16*
X265906250Y-156368750D03*
D17*
X263366250Y-161448750D03*
X269716250Y-158908750D03*
D12*
X258095750Y-161487950D03*
D13*
X258095750Y-153687950D03*
D11*
X267049250Y-150653750D03*
X265906250Y-147478750D03*
D14*
X236251750Y-161448750D03*
X249178750Y-158908750D03*
D15*
X237013750Y-156368750D03*
X247173750Y-156368750D03*
D16*
X242093750Y-156368750D03*
D17*
X239553750Y-161448750D03*
X245903750Y-158908750D03*
D12*
X234283250Y-161487950D03*
D13*
X234283250Y-153687950D03*
D11*
X243236750Y-150653750D03*
X242093750Y-147478750D03*
D12*
X210496150Y-161551450D03*
D13*
X210496150Y-153751450D03*
D14*
X212439250Y-161448750D03*
X225366250Y-158908750D03*
D15*
X213201250Y-156368750D03*
X223361250Y-156368750D03*
D16*
X218281250Y-156368750D03*
D17*
X215741250Y-161448750D03*
X222091250Y-158908750D03*
D11*
X219449650Y-150653750D03*
X218306650Y-147478750D03*
X147986750Y-150653750D03*
X146843750Y-147478750D03*
X113417350Y-150641050D03*
X112274350Y-147466050D03*
D12*
X139033250Y-161487950D03*
D13*
X139033250Y-153687950D03*
D11*
X177514250Y-150628350D03*
X176371250Y-147453350D03*
D14*
X141001750Y-161448750D03*
X153928750Y-158908750D03*
D15*
X141763750Y-156368750D03*
X151923750Y-156368750D03*
D16*
X146843750Y-156368750D03*
D17*
X144303750Y-161448750D03*
X150653750Y-158908750D03*
D11*
X76549250Y-150653750D03*
X75406250Y-147478750D03*
D12*
X67595750Y-161487950D03*
D13*
X67595750Y-153687950D03*
D14*
X69564250Y-161448750D03*
X82491250Y-158908750D03*
D15*
X70326250Y-156368750D03*
X80486250Y-156368750D03*
D16*
X75406250Y-156368750D03*
D17*
X72866250Y-161448750D03*
X79216250Y-158908750D03*
D11*
X52736750Y-150653750D03*
X51593750Y-147478750D03*
D12*
X43783250Y-161487950D03*
D13*
X43783250Y-153687950D03*
D14*
X45751750Y-161448750D03*
X58678750Y-158908750D03*
D15*
X46513750Y-156368750D03*
X56673750Y-156368750D03*
D16*
X51593750Y-156368750D03*
D17*
X49053750Y-161448750D03*
X55403750Y-158908750D03*
D14*
X269589250Y-142398750D03*
X282516250Y-139858750D03*
D15*
X270351250Y-137318750D03*
X280511250Y-137318750D03*
D16*
X275431250Y-137318750D03*
D17*
X272891250Y-142398750D03*
X279241250Y-139858750D03*
D12*
X267811250Y-142488750D03*
D13*
X267811250Y-134688750D03*
D11*
X276574250Y-131654550D03*
X275431250Y-128479550D03*
D14*
X233870500Y-142398750D03*
X246797500Y-139858750D03*
D15*
X234632500Y-137318750D03*
X244792500Y-137318750D03*
D16*
X239712500Y-137318750D03*
D17*
X237172500Y-142398750D03*
X243522500Y-139858750D03*
D12*
X231902000Y-142488750D03*
D13*
X231902000Y-134688750D03*
D11*
X240855500Y-131603750D03*
X239712500Y-128428750D03*
D12*
X212852000Y-142437950D03*
D13*
X212852000Y-134637950D03*
D14*
X214820500Y-142398750D03*
X227747500Y-139858750D03*
D15*
X215582500Y-137318750D03*
X225742500Y-137318750D03*
D16*
X220662500Y-137318750D03*
D17*
X218122500Y-142398750D03*
X224472500Y-139858750D03*
D11*
X221805500Y-131603750D03*
X220662500Y-128428750D03*
D12*
X193802000Y-142437950D03*
D13*
X193802000Y-134637950D03*
D14*
X195770500Y-142398750D03*
X208697500Y-139858750D03*
D15*
X196532500Y-137318750D03*
X206692500Y-137318750D03*
D16*
X201612500Y-137318750D03*
D17*
X199072500Y-142398750D03*
X205422500Y-139858750D03*
D11*
X202755500Y-131603750D03*
X201612500Y-128428750D03*
D12*
X174752000Y-142488750D03*
D13*
X174752000Y-134688750D03*
D14*
X176720500Y-142398750D03*
X189647500Y-139858750D03*
D15*
X177482500Y-137318750D03*
X187642500Y-137318750D03*
D16*
X182562500Y-137318750D03*
D17*
X180022500Y-142398750D03*
X186372500Y-139858750D03*
D11*
X183705500Y-131603750D03*
X182562500Y-128428750D03*
D12*
X155702000Y-142437950D03*
D13*
X155702000Y-134637950D03*
D14*
X157670500Y-142398750D03*
X170597500Y-139858750D03*
D15*
X158432500Y-137318750D03*
X168592500Y-137318750D03*
D16*
X163512500Y-137318750D03*
D17*
X160972500Y-142398750D03*
X167322500Y-139858750D03*
D11*
X164655500Y-131603750D03*
X163512500Y-128428750D03*
D12*
X136652000Y-142488750D03*
D13*
X136652000Y-134688750D03*
D14*
X138620500Y-142398750D03*
X151547500Y-139858750D03*
D15*
X139382500Y-137318750D03*
X149542500Y-137318750D03*
D16*
X144462500Y-137318750D03*
D17*
X141922500Y-142398750D03*
X148272500Y-139858750D03*
D11*
X145605500Y-131603750D03*
X144462500Y-128428750D03*
D12*
X117602000Y-142437950D03*
D13*
X117602000Y-134637950D03*
D14*
X119570500Y-142398750D03*
X132497500Y-139858750D03*
D15*
X120332500Y-137318750D03*
X130492500Y-137318750D03*
D16*
X125412500Y-137318750D03*
D17*
X122872500Y-142398750D03*
X129222500Y-139858750D03*
D11*
X126555500Y-131603750D03*
X125412500Y-128428750D03*
X107505500Y-131603750D03*
X106362500Y-128428750D03*
D12*
X98552000Y-142437950D03*
D13*
X98552000Y-134637950D03*
D14*
X100520500Y-142398750D03*
X113447500Y-139858750D03*
D15*
X101282500Y-137318750D03*
X111442500Y-137318750D03*
D16*
X106362500Y-137318750D03*
D17*
X103822500Y-142398750D03*
X110172500Y-139858750D03*
D11*
X88315500Y-131603750D03*
X87172500Y-128428750D03*
D12*
X79502000Y-142437950D03*
D13*
X79502000Y-134637950D03*
D14*
X81470500Y-142398750D03*
X94397500Y-139858750D03*
D15*
X82232500Y-137318750D03*
X92392500Y-137318750D03*
D16*
X87312500Y-137318750D03*
D17*
X84772500Y-142398750D03*
X91122500Y-139858750D03*
D11*
X69405500Y-131603750D03*
X68262500Y-128428750D03*
D12*
X60452000Y-142437950D03*
D13*
X60452000Y-134637950D03*
D14*
X62420500Y-142398750D03*
X75347500Y-139858750D03*
D15*
X63182500Y-137318750D03*
X73342500Y-137318750D03*
D16*
X68262500Y-137318750D03*
D17*
X65722500Y-142398750D03*
X72072500Y-139858750D03*
D14*
X274351750Y-123348750D03*
X287278750Y-120808750D03*
D15*
X275113750Y-118268750D03*
X285273750Y-118268750D03*
D16*
X280193750Y-118268750D03*
D17*
X277653750Y-123348750D03*
X284003750Y-120808750D03*
D12*
X272573750Y-123438750D03*
D13*
X272573750Y-115638750D03*
D11*
X281311350Y-112566450D03*
X280168350Y-109391450D03*
D14*
X243395500Y-123348750D03*
X256322500Y-120808750D03*
D15*
X244157500Y-118268750D03*
X254317500Y-118268750D03*
D16*
X249237500Y-118268750D03*
D17*
X246697500Y-123348750D03*
X253047500Y-120808750D03*
D12*
X241427000Y-123387950D03*
D13*
X241427000Y-115587950D03*
D11*
X250380500Y-112553750D03*
X249237500Y-109378750D03*
D14*
X224345500Y-123348750D03*
X237272500Y-120808750D03*
D15*
X225107500Y-118268750D03*
X235267500Y-118268750D03*
D16*
X230187500Y-118268750D03*
D17*
X227647500Y-123348750D03*
X233997500Y-120808750D03*
D12*
X222377000Y-123387950D03*
D13*
X222377000Y-115587950D03*
D11*
X231330500Y-112553750D03*
X230187500Y-109378750D03*
D12*
X203327000Y-123387950D03*
D13*
X203327000Y-115587950D03*
D14*
X205295500Y-123348750D03*
X218222500Y-120808750D03*
D15*
X206057500Y-118268750D03*
X216217500Y-118268750D03*
D16*
X211137500Y-118268750D03*
D17*
X208597500Y-123348750D03*
X214947500Y-120808750D03*
D11*
X212280500Y-112553750D03*
X211137500Y-109378750D03*
D12*
X184277000Y-123387950D03*
D13*
X184277000Y-115587950D03*
D14*
X186245500Y-123348750D03*
X199172500Y-120808750D03*
D15*
X187007500Y-118268750D03*
X197167500Y-118268750D03*
D16*
X192087500Y-118268750D03*
D17*
X189547500Y-123348750D03*
X195897500Y-120808750D03*
D11*
X193230500Y-112553750D03*
X192087500Y-109378750D03*
D12*
X165227000Y-123387950D03*
D13*
X165227000Y-115587950D03*
D14*
X167195500Y-123348750D03*
X180122500Y-120808750D03*
D15*
X167957500Y-118268750D03*
X178117500Y-118268750D03*
D16*
X173037500Y-118268750D03*
D17*
X170497500Y-123348750D03*
X176847500Y-120808750D03*
D11*
X174180500Y-112553750D03*
X173037500Y-109378750D03*
D12*
X146177000Y-123387950D03*
D13*
X146177000Y-115587950D03*
D14*
X148145500Y-123348750D03*
X161072500Y-120808750D03*
D15*
X148907500Y-118268750D03*
X159067500Y-118268750D03*
D16*
X153987500Y-118268750D03*
D17*
X151447500Y-123348750D03*
X157797500Y-120808750D03*
D11*
X155130500Y-112553750D03*
X153987500Y-109378750D03*
D12*
X127127000Y-123438750D03*
D13*
X127127000Y-115638750D03*
D14*
X129095500Y-123348750D03*
X142022500Y-120808750D03*
D15*
X129857500Y-118268750D03*
X140017500Y-118268750D03*
D16*
X134937500Y-118268750D03*
D17*
X132397500Y-123348750D03*
X138747500Y-120808750D03*
D11*
X136080500Y-112553750D03*
X134937500Y-109378750D03*
D12*
X108077000Y-123387950D03*
D13*
X108077000Y-115587950D03*
D14*
X110045500Y-123348750D03*
X122972500Y-120808750D03*
D15*
X110807500Y-118268750D03*
X120967500Y-118268750D03*
D16*
X115887500Y-118268750D03*
D17*
X113347500Y-123348750D03*
X119697500Y-120808750D03*
D11*
X117030500Y-112553750D03*
X115887500Y-109378750D03*
X97980500Y-112553750D03*
X96837500Y-109378750D03*
D12*
X89027000Y-123387950D03*
D13*
X89027000Y-115587950D03*
D14*
X90995500Y-123348750D03*
X103922500Y-120808750D03*
D15*
X91757500Y-118268750D03*
X101917500Y-118268750D03*
D16*
X96837500Y-118268750D03*
D17*
X94297500Y-123348750D03*
X100647500Y-120808750D03*
D11*
X78930500Y-112553750D03*
X77787500Y-109378750D03*
D12*
X69977000Y-123387950D03*
D13*
X69977000Y-115587950D03*
D14*
X71945500Y-123348750D03*
X84872500Y-120808750D03*
D15*
X72707500Y-118268750D03*
X82867500Y-118268750D03*
D16*
X77787500Y-118268750D03*
D17*
X75247500Y-123348750D03*
X81597500Y-120808750D03*
D11*
X59880500Y-112553750D03*
X58737500Y-109378750D03*
D12*
X50927000Y-123387950D03*
D13*
X50927000Y-115587950D03*
D14*
X52895500Y-123348750D03*
X65822500Y-120808750D03*
D15*
X53657500Y-118268750D03*
X63817500Y-118268750D03*
D16*
X58737500Y-118268750D03*
D17*
X56197500Y-123348750D03*
X62547500Y-120808750D03*
D14*
X281495500Y-104298750D03*
X294422500Y-101758750D03*
D15*
X282257500Y-99218750D03*
X292417500Y-99218750D03*
D16*
X287337500Y-99218750D03*
D17*
X284797500Y-104298750D03*
X291147500Y-101758750D03*
D12*
X279400000Y-104388750D03*
D13*
X279400000Y-96588750D03*
D11*
X288467800Y-93516450D03*
X287324800Y-90341450D03*
D14*
X257683000Y-104298750D03*
X270610000Y-101758750D03*
D15*
X258445000Y-99218750D03*
X268605000Y-99218750D03*
D16*
X263525000Y-99218750D03*
D17*
X260985000Y-104298750D03*
X267335000Y-101758750D03*
D12*
X255714500Y-104337950D03*
D13*
X255714500Y-96537950D03*
D11*
X264668000Y-93503750D03*
X263525000Y-90328750D03*
D14*
X238633000Y-104298750D03*
X251560000Y-101758750D03*
D15*
X239395000Y-99218750D03*
X249555000Y-99218750D03*
D16*
X244475000Y-99218750D03*
D17*
X241935000Y-104298750D03*
X248285000Y-101758750D03*
D12*
X236664500Y-104337950D03*
D13*
X236664500Y-96537950D03*
D11*
X245618000Y-93503750D03*
X244475000Y-90328750D03*
D14*
X219583000Y-104298750D03*
X232510000Y-101758750D03*
D15*
X220345000Y-99218750D03*
X230505000Y-99218750D03*
D16*
X225425000Y-99218750D03*
D17*
X222885000Y-104298750D03*
X229235000Y-101758750D03*
D12*
X217614500Y-104388750D03*
D13*
X217614500Y-96588750D03*
D11*
X226568000Y-93503750D03*
X225425000Y-90328750D03*
D12*
X198564500Y-104337950D03*
D13*
X198564500Y-96537950D03*
D14*
X200533000Y-104298750D03*
X213460000Y-101758750D03*
D15*
X201295000Y-99218750D03*
X211455000Y-99218750D03*
D16*
X206375000Y-99218750D03*
D17*
X203835000Y-104298750D03*
X210185000Y-101758750D03*
D11*
X207518000Y-93503750D03*
X206375000Y-90328750D03*
D12*
X179514500Y-104337950D03*
D13*
X179514500Y-96537950D03*
D14*
X181483000Y-104298750D03*
X194410000Y-101758750D03*
D15*
X182245000Y-99218750D03*
X192405000Y-99218750D03*
D16*
X187325000Y-99218750D03*
D17*
X184785000Y-104298750D03*
X191135000Y-101758750D03*
D11*
X188468000Y-93503750D03*
X187325000Y-90328750D03*
D12*
X160464500Y-104388750D03*
D13*
X160464500Y-96588750D03*
D14*
X162433000Y-104298750D03*
X175360000Y-101758750D03*
D15*
X163195000Y-99218750D03*
X173355000Y-99218750D03*
D16*
X168275000Y-99218750D03*
D17*
X165735000Y-104298750D03*
X172085000Y-101758750D03*
D11*
X169418000Y-93503750D03*
X168275000Y-90328750D03*
D12*
X141414500Y-104337950D03*
D13*
X141414500Y-96537950D03*
D14*
X143383000Y-104298750D03*
X156310000Y-101758750D03*
D15*
X144145000Y-99218750D03*
X154305000Y-99218750D03*
D16*
X149225000Y-99218750D03*
D17*
X146685000Y-104298750D03*
X153035000Y-101758750D03*
D11*
X150368000Y-93503750D03*
X149225000Y-90328750D03*
D12*
X122364500Y-104337950D03*
D13*
X122364500Y-96537950D03*
D14*
X124333000Y-104298750D03*
X137260000Y-101758750D03*
D15*
X125095000Y-99218750D03*
X135255000Y-99218750D03*
D16*
X130175000Y-99218750D03*
D17*
X127635000Y-104298750D03*
X133985000Y-101758750D03*
D11*
X131318000Y-93503750D03*
X130175000Y-90328750D03*
D12*
X103314500Y-104337950D03*
D13*
X103314500Y-96537950D03*
D14*
X105283000Y-104298750D03*
X118210000Y-101758750D03*
D15*
X106045000Y-99218750D03*
X116205000Y-99218750D03*
D16*
X111125000Y-99218750D03*
D17*
X108585000Y-104298750D03*
X114935000Y-101758750D03*
D11*
X112268000Y-93503750D03*
X111125000Y-90328750D03*
X93218000Y-93503750D03*
X92075000Y-90328750D03*
D12*
X84264500Y-104337950D03*
D13*
X84264500Y-96537950D03*
D14*
X86233000Y-104298750D03*
X99160000Y-101758750D03*
D15*
X86995000Y-99218750D03*
X97155000Y-99218750D03*
D16*
X92075000Y-99218750D03*
D17*
X89535000Y-104298750D03*
X95885000Y-101758750D03*
D11*
X74168000Y-93503750D03*
X73025000Y-90328750D03*
D12*
X65214500Y-104337950D03*
D13*
X65214500Y-96537950D03*
D14*
X67183000Y-104298750D03*
X80110000Y-101758750D03*
D15*
X67945000Y-99218750D03*
X78105000Y-99218750D03*
D16*
X73025000Y-99218750D03*
D17*
X70485000Y-104298750D03*
X76835000Y-101758750D03*
D11*
X55118000Y-93503750D03*
X53975000Y-90328750D03*
D12*
X46164500Y-104337950D03*
D13*
X46164500Y-96537950D03*
D14*
X48133000Y-104298750D03*
X61060000Y-101758750D03*
D15*
X48895000Y-99218750D03*
X59055000Y-99218750D03*
D16*
X53975000Y-99218750D03*
D17*
X51435000Y-104298750D03*
X57785000Y-101758750D03*
D12*
X20161250Y-161538750D03*
D13*
X20161250Y-153738750D03*
D11*
X28924250Y-150653750D03*
X27781250Y-147478750D03*
D14*
X21939250Y-161448750D03*
X34866250Y-158908750D03*
D15*
X22701250Y-156368750D03*
X32861250Y-156368750D03*
D16*
X27781250Y-156368750D03*
D17*
X25241250Y-161448750D03*
X31591250Y-158908750D03*
D12*
X29686250Y-142488750D03*
D13*
X29686250Y-134688750D03*
D11*
X38449250Y-131591050D03*
X37306250Y-128416050D03*
D14*
X31464250Y-142398750D03*
X44391250Y-139858750D03*
D15*
X32226250Y-137318750D03*
X42386250Y-137318750D03*
D16*
X37306250Y-137318750D03*
D17*
X34766250Y-142398750D03*
X41116250Y-139858750D03*
D12*
X24885650Y-123464150D03*
D13*
X24885650Y-115664150D03*
D11*
X33648650Y-112579150D03*
X32505650Y-109404150D03*
D14*
X26701750Y-123348750D03*
X39628750Y-120808750D03*
D15*
X27463750Y-118268750D03*
X37623750Y-118268750D03*
D16*
X32543750Y-118268750D03*
D17*
X30003750Y-123348750D03*
X36353750Y-120808750D03*
D11*
X292639750Y-49720500D03*
X291496750Y-46545500D03*
D12*
X245395750Y-60681700D03*
D13*
X245395750Y-52881700D03*
D14*
X285464250Y-60642500D03*
X298391250Y-58102500D03*
D15*
X286226250Y-55562500D03*
X296386250Y-55562500D03*
D16*
X291306250Y-55562500D03*
D17*
X288766250Y-60642500D03*
X295116250Y-58102500D03*
D14*
X266414250Y-60642500D03*
X279341250Y-58102500D03*
D15*
X267176250Y-55562500D03*
X277336250Y-55562500D03*
D16*
X272256250Y-55562500D03*
D17*
X269716250Y-60642500D03*
X276066250Y-58102500D03*
D12*
X226345750Y-60681700D03*
D13*
X226345750Y-52881700D03*
D11*
X235489750Y-49720500D03*
X234346750Y-46545500D03*
D14*
X228314250Y-60642500D03*
X241241250Y-58102500D03*
D15*
X229076250Y-55562500D03*
X239236250Y-55562500D03*
D16*
X234156250Y-55562500D03*
D17*
X231616250Y-60642500D03*
X237966250Y-58102500D03*
D12*
X264445750Y-60681700D03*
D13*
X264445750Y-52881700D03*
D11*
X273589750Y-49720500D03*
X272446750Y-46545500D03*
D14*
X247364250Y-60642500D03*
X260291250Y-58102500D03*
D15*
X248126250Y-55562500D03*
X258286250Y-55562500D03*
D16*
X253206250Y-55562500D03*
D17*
X250666250Y-60642500D03*
X257016250Y-58102500D03*
D12*
X283495750Y-60681700D03*
D13*
X283495750Y-52881700D03*
D11*
X254539750Y-49720500D03*
X253396750Y-46545500D03*
D13*
X198564500Y-52932500D03*
D12*
X198564500Y-60732500D03*
D13*
X141414500Y-52881700D03*
D12*
X141414500Y-60681700D03*
X160464500Y-60681700D03*
D13*
X160464500Y-52881700D03*
D12*
X179514500Y-60681700D03*
D13*
X179514500Y-52881700D03*
D17*
X210185000Y-58102500D03*
X203835000Y-60642500D03*
D16*
X206375000Y-55562500D03*
D15*
X211455000Y-55562500D03*
X201295000Y-55562500D03*
D14*
X213460000Y-58102500D03*
X200533000Y-60642500D03*
X181483000Y-60642500D03*
X194410000Y-58102500D03*
D15*
X182245000Y-55562500D03*
X192405000Y-55562500D03*
D16*
X187325000Y-55562500D03*
D17*
X184785000Y-60642500D03*
X191135000Y-58102500D03*
D14*
X162433000Y-60642500D03*
X175360000Y-58102500D03*
D15*
X163195000Y-55562500D03*
X173355000Y-55562500D03*
D16*
X168275000Y-55562500D03*
D17*
X165735000Y-60642500D03*
X172085000Y-58102500D03*
X153035000Y-58102500D03*
X146685000Y-60642500D03*
D16*
X149225000Y-55562500D03*
D15*
X154305000Y-55562500D03*
X144145000Y-55562500D03*
D14*
X156310000Y-58102500D03*
X143383000Y-60642500D03*
D11*
X169608500Y-49720500D03*
X168465500Y-46545500D03*
X188658500Y-49720500D03*
X187515500Y-46545500D03*
X149415500Y-46545500D03*
X150558500Y-49720500D03*
X206565500Y-46545500D03*
X207708500Y-49720500D03*
X64643000Y-74453750D03*
X63500000Y-71278750D03*
X45593000Y-74453750D03*
X44450000Y-71278750D03*
X82550000Y-71278750D03*
X83693000Y-74453750D03*
D14*
X248158000Y-85248750D03*
X261085000Y-82708750D03*
D15*
X248920000Y-80168750D03*
X259080000Y-80168750D03*
D16*
X254000000Y-80168750D03*
D17*
X251460000Y-85248750D03*
X257810000Y-82708750D03*
D14*
X229108000Y-85248750D03*
X242035000Y-82708750D03*
D15*
X229870000Y-80168750D03*
X240030000Y-80168750D03*
D16*
X234950000Y-80168750D03*
D17*
X232410000Y-85248750D03*
X238760000Y-82708750D03*
D14*
X210058000Y-85248750D03*
X222985000Y-82708750D03*
D15*
X210820000Y-80168750D03*
X220980000Y-80168750D03*
D16*
X215900000Y-80168750D03*
D17*
X213360000Y-85248750D03*
X219710000Y-82708750D03*
D12*
X93789500Y-85287950D03*
D13*
X93789500Y-77487950D03*
D12*
X112839500Y-85287950D03*
D13*
X112839500Y-77487950D03*
D12*
X150939500Y-85287950D03*
D13*
X150939500Y-77487950D03*
D12*
X169989500Y-85287950D03*
D13*
X169989500Y-77487950D03*
D12*
X189039500Y-85338750D03*
D13*
X189039500Y-77538750D03*
D12*
X131889500Y-85287950D03*
D13*
X131889500Y-77487950D03*
X74739500Y-77487950D03*
D12*
X74739500Y-85287950D03*
X36918900Y-85338750D03*
D13*
X36918900Y-77538750D03*
D12*
X17780000Y-85338750D03*
D13*
X17780000Y-77538750D03*
D12*
X55689500Y-85287950D03*
D13*
X55689500Y-77487950D03*
D14*
X24320500Y-104298750D03*
X37247500Y-101758750D03*
D15*
X25082500Y-99218750D03*
X35242500Y-99218750D03*
D16*
X30162500Y-99218750D03*
D17*
X27622500Y-104298750D03*
X33972500Y-101758750D03*
D14*
X276733000Y-85248750D03*
X289660000Y-82708750D03*
D15*
X277495000Y-80168750D03*
X287655000Y-80168750D03*
D16*
X282575000Y-80168750D03*
D17*
X280035000Y-85248750D03*
X286385000Y-82708750D03*
D11*
X26543000Y-74453750D03*
X25400000Y-71278750D03*
D14*
X114808000Y-85248750D03*
X127735000Y-82708750D03*
D15*
X115570000Y-80168750D03*
X125730000Y-80168750D03*
D16*
X120650000Y-80168750D03*
D17*
X118110000Y-85248750D03*
X124460000Y-82708750D03*
D14*
X95758000Y-85248750D03*
X108685000Y-82708750D03*
D15*
X96520000Y-80168750D03*
X106680000Y-80168750D03*
D16*
X101600000Y-80168750D03*
D17*
X99060000Y-85248750D03*
X105410000Y-82708750D03*
D14*
X171958000Y-85248750D03*
X184885000Y-82708750D03*
D15*
X172720000Y-80168750D03*
X182880000Y-80168750D03*
D16*
X177800000Y-80168750D03*
D17*
X175260000Y-85248750D03*
X181610000Y-82708750D03*
D14*
X152908000Y-85248750D03*
X165835000Y-82708750D03*
D15*
X153670000Y-80168750D03*
X163830000Y-80168750D03*
D16*
X158750000Y-80168750D03*
D17*
X156210000Y-85248750D03*
X162560000Y-82708750D03*
X86360000Y-82708750D03*
X80010000Y-85248750D03*
D16*
X82550000Y-80168750D03*
D15*
X87630000Y-80168750D03*
X77470000Y-80168750D03*
D14*
X89635000Y-82708750D03*
X76708000Y-85248750D03*
X191008000Y-85248750D03*
X203935000Y-82708750D03*
D15*
X191770000Y-80168750D03*
X201930000Y-80168750D03*
D16*
X196850000Y-80168750D03*
D17*
X194310000Y-85248750D03*
X200660000Y-82708750D03*
D14*
X133858000Y-85248750D03*
X146785000Y-82708750D03*
D15*
X134620000Y-80168750D03*
X144780000Y-80168750D03*
D16*
X139700000Y-80168750D03*
D17*
X137160000Y-85248750D03*
X143510000Y-82708750D03*
D12*
X208089500Y-85287950D03*
D13*
X208089500Y-77487950D03*
D12*
X227139500Y-85287950D03*
D13*
X227139500Y-77487950D03*
D12*
X274955000Y-85338750D03*
D13*
X274955000Y-77538750D03*
D12*
X246189500Y-85338750D03*
D13*
X246189500Y-77538750D03*
D11*
X236093000Y-74453750D03*
X234950000Y-71278750D03*
X283718000Y-74504550D03*
X282575000Y-71329550D03*
X255143000Y-74453750D03*
X254000000Y-71278750D03*
D14*
X38608000Y-85248750D03*
X51535000Y-82708750D03*
D15*
X39370000Y-80168750D03*
X49530000Y-80168750D03*
D16*
X44450000Y-80168750D03*
D17*
X41910000Y-85248750D03*
X48260000Y-82708750D03*
D14*
X57658000Y-85248750D03*
X70585000Y-82708750D03*
D15*
X58420000Y-80168750D03*
X68580000Y-80168750D03*
D16*
X63500000Y-80168750D03*
D17*
X60960000Y-85248750D03*
X67310000Y-82708750D03*
D14*
X19558000Y-85248750D03*
X32485000Y-82708750D03*
D15*
X20320000Y-80168750D03*
X30480000Y-80168750D03*
D16*
X25400000Y-80168750D03*
D17*
X22860000Y-85248750D03*
X29210000Y-82708750D03*
D11*
X140843000Y-74453750D03*
X139700000Y-71278750D03*
X102743000Y-74453750D03*
X101600000Y-71278750D03*
X121793000Y-74453750D03*
X120650000Y-71278750D03*
X217043000Y-74453750D03*
X215900000Y-71278750D03*
X197993000Y-74453750D03*
X196850000Y-71278750D03*
X159893000Y-74453750D03*
X158750000Y-71278750D03*
X178943000Y-74453750D03*
X177800000Y-71278750D03*
D13*
X17780000Y-52932500D03*
D12*
X17780000Y-60732500D03*
D11*
X25400000Y-46558200D03*
X26543000Y-49733200D03*
D17*
X29210000Y-58102500D03*
X22860000Y-60642500D03*
D16*
X25400000Y-55562500D03*
D15*
X30480000Y-55562500D03*
X20320000Y-55562500D03*
D14*
X32485000Y-58102500D03*
X19558000Y-60642500D03*
D11*
X30175200Y-90335100D03*
X31318200Y-93510100D03*
D13*
X22352000Y-96545400D03*
D12*
X22352000Y-104345400D03*
M02*
