%TF.GenerationSoftware,KiCad,Pcbnew,(5.1.9)-1*%
%TF.CreationDate,2021-05-02T00:53:09+10:00*%
%TF.ProjectId,RedPyKeeb_MCU,52656450-794b-4656-9562-5f4d43552e6b,rev?*%
%TF.SameCoordinates,Original*%
%TF.FileFunction,Soldermask,Bot*%
%TF.FilePolarity,Negative*%
%FSLAX46Y46*%
G04 Gerber Fmt 4.6, Leading zero omitted, Abs format (unit mm)*
G04 Created by KiCad (PCBNEW (5.1.9)-1) date 2021-05-02 00:53:09*
%MOMM*%
%LPD*%
G01*
G04 APERTURE LIST*
%ADD10O,1.700000X1.700000*%
%ADD11R,1.700000X1.700000*%
%ADD12R,1.700000X3.500000*%
%ADD13O,1.800000X1.800000*%
%ADD14O,1.500000X1.500000*%
%ADD15R,3.500000X1.700000*%
%ADD16C,1.500000*%
%ADD17C,0.100000*%
%ADD18O,1.700000X1.950000*%
%ADD19O,1.950000X1.700000*%
%ADD20R,1.350000X1.350000*%
%ADD21O,1.350000X1.350000*%
G04 APERTURE END LIST*
D10*
%TO.C,U0*%
X63628600Y-82089900D03*
X66168600Y-82089900D03*
D11*
X68708600Y-82089900D03*
D10*
X71248600Y-82089900D03*
X73788600Y-82089900D03*
X76328600Y-82089900D03*
X78868600Y-82089900D03*
D11*
X81408600Y-82089900D03*
D10*
X83948600Y-82089900D03*
X86488600Y-82089900D03*
X89028600Y-82089900D03*
X91568600Y-82089900D03*
D11*
X94108600Y-82089900D03*
D10*
X96648600Y-82089900D03*
X99188600Y-82089900D03*
X101728600Y-82089900D03*
X104268600Y-82089900D03*
D11*
X106808600Y-82089900D03*
D10*
X109348600Y-82089900D03*
X111888600Y-82089900D03*
X111888600Y-99869900D03*
X109348600Y-99869900D03*
D11*
X106808600Y-99869900D03*
D10*
X104268600Y-99869900D03*
X101728600Y-99869900D03*
X99188600Y-99869900D03*
X96648600Y-99869900D03*
D11*
X94108600Y-99869900D03*
D10*
X91568600Y-99869900D03*
X89028600Y-99869900D03*
X86488600Y-99869900D03*
X83948600Y-99869900D03*
D11*
X81408600Y-99869900D03*
D10*
X78868600Y-99869900D03*
X76328600Y-99869900D03*
X73788600Y-99869900D03*
X71248600Y-99869900D03*
D11*
X68708600Y-99869900D03*
D10*
X66168600Y-99869900D03*
X63628600Y-99869900D03*
D12*
X63628600Y-81189900D03*
X66168600Y-81189900D03*
X68708600Y-81189900D03*
X71248600Y-81189900D03*
X73788600Y-81189900D03*
X76328600Y-81189900D03*
X78868600Y-81189900D03*
X81408600Y-81189900D03*
X83948600Y-81189900D03*
X86488600Y-81189900D03*
X89028600Y-81189900D03*
X91568600Y-81189900D03*
X94108600Y-81189900D03*
X96648600Y-81189900D03*
X99188600Y-81189900D03*
X101728600Y-81189900D03*
X104268600Y-81189900D03*
X106808600Y-81189900D03*
X109348600Y-81189900D03*
X111888600Y-81189900D03*
X63628600Y-100769900D03*
X66168600Y-100769900D03*
X68708600Y-100769900D03*
X71248600Y-100769900D03*
X73788600Y-100769900D03*
X76328600Y-100769900D03*
X78868600Y-100769900D03*
X81408600Y-100769900D03*
X83948600Y-100769900D03*
X86488600Y-100769900D03*
X89028600Y-100769900D03*
X91568600Y-100769900D03*
X94108600Y-100769900D03*
X96648600Y-100769900D03*
X99188600Y-100769900D03*
X101728600Y-100769900D03*
X104268600Y-100769900D03*
X106808600Y-100769900D03*
X109348600Y-100769900D03*
X111888600Y-100769900D03*
D13*
X63758600Y-88254900D03*
X63758600Y-93704900D03*
D14*
X66788600Y-88554900D03*
X66788600Y-93404900D03*
D15*
X112558600Y-88439900D03*
D10*
X111658600Y-88439900D03*
D15*
X112558600Y-90979900D03*
D11*
X111658600Y-90979900D03*
D15*
X112558600Y-93519900D03*
D10*
X111658600Y-93519900D03*
D16*
X63758600Y-89979900D03*
X63758600Y-91979900D03*
D17*
G36*
X65516718Y-90869852D02*
G01*
X65531077Y-90797665D01*
X65552442Y-90727233D01*
X65580608Y-90659234D01*
X65615304Y-90594323D01*
X65656194Y-90533126D01*
X65702887Y-90476231D01*
X65709817Y-90469301D01*
X65712406Y-90460766D01*
X65717027Y-90452121D01*
X65723245Y-90444545D01*
X65730821Y-90438327D01*
X65739466Y-90433706D01*
X65748001Y-90431117D01*
X65754931Y-90424187D01*
X65811826Y-90377494D01*
X65873023Y-90336604D01*
X65937934Y-90301908D01*
X66005933Y-90273742D01*
X66076365Y-90252377D01*
X66148552Y-90238018D01*
X66221799Y-90230803D01*
X66295401Y-90230803D01*
X66368648Y-90238018D01*
X66440835Y-90252377D01*
X66511267Y-90273742D01*
X66579266Y-90301908D01*
X66644177Y-90336604D01*
X66705374Y-90377494D01*
X66762269Y-90424187D01*
X66769199Y-90431117D01*
X66777734Y-90433706D01*
X66786379Y-90438327D01*
X66793955Y-90444545D01*
X66800173Y-90452121D01*
X66804794Y-90460766D01*
X66807383Y-90469301D01*
X66814313Y-90476231D01*
X66861006Y-90533126D01*
X66901896Y-90594323D01*
X66936592Y-90659234D01*
X66964758Y-90727233D01*
X66986123Y-90797665D01*
X67000482Y-90869852D01*
X67007697Y-90943099D01*
X67007697Y-91016701D01*
X67000482Y-91089948D01*
X66986123Y-91162135D01*
X66964758Y-91232567D01*
X66936592Y-91300566D01*
X66901896Y-91365477D01*
X66861006Y-91426674D01*
X66814313Y-91483569D01*
X66807383Y-91490499D01*
X66804794Y-91499034D01*
X66800173Y-91507679D01*
X66793955Y-91515255D01*
X66786379Y-91521473D01*
X66777734Y-91526094D01*
X66769199Y-91528683D01*
X66762269Y-91535613D01*
X66705374Y-91582306D01*
X66644177Y-91623196D01*
X66579266Y-91657892D01*
X66511267Y-91686058D01*
X66440835Y-91707423D01*
X66368648Y-91721782D01*
X66295401Y-91728997D01*
X66221799Y-91728997D01*
X66148552Y-91721782D01*
X66076365Y-91707423D01*
X66005933Y-91686058D01*
X65937934Y-91657892D01*
X65873023Y-91623196D01*
X65811826Y-91582306D01*
X65754931Y-91535613D01*
X65748001Y-91528683D01*
X65739466Y-91526094D01*
X65730821Y-91521473D01*
X65723245Y-91515255D01*
X65717027Y-91507679D01*
X65712406Y-91499034D01*
X65709817Y-91490499D01*
X65702887Y-91483569D01*
X65656194Y-91426674D01*
X65615304Y-91365477D01*
X65580608Y-91300566D01*
X65552442Y-91232567D01*
X65531077Y-91162135D01*
X65516718Y-91089948D01*
X65509503Y-91016701D01*
X65509503Y-90943099D01*
X65516718Y-90869852D01*
G37*
%TD*%
D18*
%TO.C,J2*%
X115177600Y-96672400D03*
X112677600Y-96672400D03*
X110177600Y-96672400D03*
X107677600Y-96672400D03*
X105177600Y-96672400D03*
X102677600Y-96672400D03*
G36*
G01*
X99327600Y-97397400D02*
X99327600Y-95947400D01*
G75*
G02*
X99577600Y-95697400I250000J0D01*
G01*
X100777600Y-95697400D01*
G75*
G02*
X101027600Y-95947400I0J-250000D01*
G01*
X101027600Y-97397400D01*
G75*
G02*
X100777600Y-97647400I-250000J0D01*
G01*
X99577600Y-97647400D01*
G75*
G02*
X99327600Y-97397400I0J250000D01*
G01*
G37*
%TD*%
%TO.C,U2*%
G36*
G01*
X104820300Y-42344200D02*
X104820300Y-42644200D01*
G75*
G02*
X104670300Y-42794200I-150000J0D01*
G01*
X102920300Y-42794200D01*
G75*
G02*
X102770300Y-42644200I0J150000D01*
G01*
X102770300Y-42344200D01*
G75*
G02*
X102920300Y-42194200I150000J0D01*
G01*
X104670300Y-42194200D01*
G75*
G02*
X104820300Y-42344200I0J-150000D01*
G01*
G37*
G36*
G01*
X104820300Y-43614200D02*
X104820300Y-43914200D01*
G75*
G02*
X104670300Y-44064200I-150000J0D01*
G01*
X102920300Y-44064200D01*
G75*
G02*
X102770300Y-43914200I0J150000D01*
G01*
X102770300Y-43614200D01*
G75*
G02*
X102920300Y-43464200I150000J0D01*
G01*
X104670300Y-43464200D01*
G75*
G02*
X104820300Y-43614200I0J-150000D01*
G01*
G37*
G36*
G01*
X104820300Y-44884200D02*
X104820300Y-45184200D01*
G75*
G02*
X104670300Y-45334200I-150000J0D01*
G01*
X102920300Y-45334200D01*
G75*
G02*
X102770300Y-45184200I0J150000D01*
G01*
X102770300Y-44884200D01*
G75*
G02*
X102920300Y-44734200I150000J0D01*
G01*
X104670300Y-44734200D01*
G75*
G02*
X104820300Y-44884200I0J-150000D01*
G01*
G37*
G36*
G01*
X104820300Y-46154200D02*
X104820300Y-46454200D01*
G75*
G02*
X104670300Y-46604200I-150000J0D01*
G01*
X102920300Y-46604200D01*
G75*
G02*
X102770300Y-46454200I0J150000D01*
G01*
X102770300Y-46154200D01*
G75*
G02*
X102920300Y-46004200I150000J0D01*
G01*
X104670300Y-46004200D01*
G75*
G02*
X104820300Y-46154200I0J-150000D01*
G01*
G37*
G36*
G01*
X104820300Y-47424200D02*
X104820300Y-47724200D01*
G75*
G02*
X104670300Y-47874200I-150000J0D01*
G01*
X102920300Y-47874200D01*
G75*
G02*
X102770300Y-47724200I0J150000D01*
G01*
X102770300Y-47424200D01*
G75*
G02*
X102920300Y-47274200I150000J0D01*
G01*
X104670300Y-47274200D01*
G75*
G02*
X104820300Y-47424200I0J-150000D01*
G01*
G37*
G36*
G01*
X104820300Y-48694200D02*
X104820300Y-48994200D01*
G75*
G02*
X104670300Y-49144200I-150000J0D01*
G01*
X102920300Y-49144200D01*
G75*
G02*
X102770300Y-48994200I0J150000D01*
G01*
X102770300Y-48694200D01*
G75*
G02*
X102920300Y-48544200I150000J0D01*
G01*
X104670300Y-48544200D01*
G75*
G02*
X104820300Y-48694200I0J-150000D01*
G01*
G37*
G36*
G01*
X104820300Y-49964200D02*
X104820300Y-50264200D01*
G75*
G02*
X104670300Y-50414200I-150000J0D01*
G01*
X102920300Y-50414200D01*
G75*
G02*
X102770300Y-50264200I0J150000D01*
G01*
X102770300Y-49964200D01*
G75*
G02*
X102920300Y-49814200I150000J0D01*
G01*
X104670300Y-49814200D01*
G75*
G02*
X104820300Y-49964200I0J-150000D01*
G01*
G37*
G36*
G01*
X104820300Y-51234200D02*
X104820300Y-51534200D01*
G75*
G02*
X104670300Y-51684200I-150000J0D01*
G01*
X102920300Y-51684200D01*
G75*
G02*
X102770300Y-51534200I0J150000D01*
G01*
X102770300Y-51234200D01*
G75*
G02*
X102920300Y-51084200I150000J0D01*
G01*
X104670300Y-51084200D01*
G75*
G02*
X104820300Y-51234200I0J-150000D01*
G01*
G37*
G36*
G01*
X104820300Y-52504200D02*
X104820300Y-52804200D01*
G75*
G02*
X104670300Y-52954200I-150000J0D01*
G01*
X102920300Y-52954200D01*
G75*
G02*
X102770300Y-52804200I0J150000D01*
G01*
X102770300Y-52504200D01*
G75*
G02*
X102920300Y-52354200I150000J0D01*
G01*
X104670300Y-52354200D01*
G75*
G02*
X104820300Y-52504200I0J-150000D01*
G01*
G37*
G36*
G01*
X104820300Y-53774200D02*
X104820300Y-54074200D01*
G75*
G02*
X104670300Y-54224200I-150000J0D01*
G01*
X102920300Y-54224200D01*
G75*
G02*
X102770300Y-54074200I0J150000D01*
G01*
X102770300Y-53774200D01*
G75*
G02*
X102920300Y-53624200I150000J0D01*
G01*
X104670300Y-53624200D01*
G75*
G02*
X104820300Y-53774200I0J-150000D01*
G01*
G37*
G36*
G01*
X104820300Y-55044200D02*
X104820300Y-55344200D01*
G75*
G02*
X104670300Y-55494200I-150000J0D01*
G01*
X102920300Y-55494200D01*
G75*
G02*
X102770300Y-55344200I0J150000D01*
G01*
X102770300Y-55044200D01*
G75*
G02*
X102920300Y-54894200I150000J0D01*
G01*
X104670300Y-54894200D01*
G75*
G02*
X104820300Y-55044200I0J-150000D01*
G01*
G37*
G36*
G01*
X104820300Y-56314200D02*
X104820300Y-56614200D01*
G75*
G02*
X104670300Y-56764200I-150000J0D01*
G01*
X102920300Y-56764200D01*
G75*
G02*
X102770300Y-56614200I0J150000D01*
G01*
X102770300Y-56314200D01*
G75*
G02*
X102920300Y-56164200I150000J0D01*
G01*
X104670300Y-56164200D01*
G75*
G02*
X104820300Y-56314200I0J-150000D01*
G01*
G37*
G36*
G01*
X104820300Y-57584200D02*
X104820300Y-57884200D01*
G75*
G02*
X104670300Y-58034200I-150000J0D01*
G01*
X102920300Y-58034200D01*
G75*
G02*
X102770300Y-57884200I0J150000D01*
G01*
X102770300Y-57584200D01*
G75*
G02*
X102920300Y-57434200I150000J0D01*
G01*
X104670300Y-57434200D01*
G75*
G02*
X104820300Y-57584200I0J-150000D01*
G01*
G37*
G36*
G01*
X104820300Y-58854200D02*
X104820300Y-59154200D01*
G75*
G02*
X104670300Y-59304200I-150000J0D01*
G01*
X102920300Y-59304200D01*
G75*
G02*
X102770300Y-59154200I0J150000D01*
G01*
X102770300Y-58854200D01*
G75*
G02*
X102920300Y-58704200I150000J0D01*
G01*
X104670300Y-58704200D01*
G75*
G02*
X104820300Y-58854200I0J-150000D01*
G01*
G37*
G36*
G01*
X114120300Y-58854200D02*
X114120300Y-59154200D01*
G75*
G02*
X113970300Y-59304200I-150000J0D01*
G01*
X112220300Y-59304200D01*
G75*
G02*
X112070300Y-59154200I0J150000D01*
G01*
X112070300Y-58854200D01*
G75*
G02*
X112220300Y-58704200I150000J0D01*
G01*
X113970300Y-58704200D01*
G75*
G02*
X114120300Y-58854200I0J-150000D01*
G01*
G37*
G36*
G01*
X114120300Y-57584200D02*
X114120300Y-57884200D01*
G75*
G02*
X113970300Y-58034200I-150000J0D01*
G01*
X112220300Y-58034200D01*
G75*
G02*
X112070300Y-57884200I0J150000D01*
G01*
X112070300Y-57584200D01*
G75*
G02*
X112220300Y-57434200I150000J0D01*
G01*
X113970300Y-57434200D01*
G75*
G02*
X114120300Y-57584200I0J-150000D01*
G01*
G37*
G36*
G01*
X114120300Y-56314200D02*
X114120300Y-56614200D01*
G75*
G02*
X113970300Y-56764200I-150000J0D01*
G01*
X112220300Y-56764200D01*
G75*
G02*
X112070300Y-56614200I0J150000D01*
G01*
X112070300Y-56314200D01*
G75*
G02*
X112220300Y-56164200I150000J0D01*
G01*
X113970300Y-56164200D01*
G75*
G02*
X114120300Y-56314200I0J-150000D01*
G01*
G37*
G36*
G01*
X114120300Y-55044200D02*
X114120300Y-55344200D01*
G75*
G02*
X113970300Y-55494200I-150000J0D01*
G01*
X112220300Y-55494200D01*
G75*
G02*
X112070300Y-55344200I0J150000D01*
G01*
X112070300Y-55044200D01*
G75*
G02*
X112220300Y-54894200I150000J0D01*
G01*
X113970300Y-54894200D01*
G75*
G02*
X114120300Y-55044200I0J-150000D01*
G01*
G37*
G36*
G01*
X114120300Y-53774200D02*
X114120300Y-54074200D01*
G75*
G02*
X113970300Y-54224200I-150000J0D01*
G01*
X112220300Y-54224200D01*
G75*
G02*
X112070300Y-54074200I0J150000D01*
G01*
X112070300Y-53774200D01*
G75*
G02*
X112220300Y-53624200I150000J0D01*
G01*
X113970300Y-53624200D01*
G75*
G02*
X114120300Y-53774200I0J-150000D01*
G01*
G37*
G36*
G01*
X114120300Y-52504200D02*
X114120300Y-52804200D01*
G75*
G02*
X113970300Y-52954200I-150000J0D01*
G01*
X112220300Y-52954200D01*
G75*
G02*
X112070300Y-52804200I0J150000D01*
G01*
X112070300Y-52504200D01*
G75*
G02*
X112220300Y-52354200I150000J0D01*
G01*
X113970300Y-52354200D01*
G75*
G02*
X114120300Y-52504200I0J-150000D01*
G01*
G37*
G36*
G01*
X114120300Y-51234200D02*
X114120300Y-51534200D01*
G75*
G02*
X113970300Y-51684200I-150000J0D01*
G01*
X112220300Y-51684200D01*
G75*
G02*
X112070300Y-51534200I0J150000D01*
G01*
X112070300Y-51234200D01*
G75*
G02*
X112220300Y-51084200I150000J0D01*
G01*
X113970300Y-51084200D01*
G75*
G02*
X114120300Y-51234200I0J-150000D01*
G01*
G37*
G36*
G01*
X114120300Y-49964200D02*
X114120300Y-50264200D01*
G75*
G02*
X113970300Y-50414200I-150000J0D01*
G01*
X112220300Y-50414200D01*
G75*
G02*
X112070300Y-50264200I0J150000D01*
G01*
X112070300Y-49964200D01*
G75*
G02*
X112220300Y-49814200I150000J0D01*
G01*
X113970300Y-49814200D01*
G75*
G02*
X114120300Y-49964200I0J-150000D01*
G01*
G37*
G36*
G01*
X114120300Y-48694200D02*
X114120300Y-48994200D01*
G75*
G02*
X113970300Y-49144200I-150000J0D01*
G01*
X112220300Y-49144200D01*
G75*
G02*
X112070300Y-48994200I0J150000D01*
G01*
X112070300Y-48694200D01*
G75*
G02*
X112220300Y-48544200I150000J0D01*
G01*
X113970300Y-48544200D01*
G75*
G02*
X114120300Y-48694200I0J-150000D01*
G01*
G37*
G36*
G01*
X114120300Y-47424200D02*
X114120300Y-47724200D01*
G75*
G02*
X113970300Y-47874200I-150000J0D01*
G01*
X112220300Y-47874200D01*
G75*
G02*
X112070300Y-47724200I0J150000D01*
G01*
X112070300Y-47424200D01*
G75*
G02*
X112220300Y-47274200I150000J0D01*
G01*
X113970300Y-47274200D01*
G75*
G02*
X114120300Y-47424200I0J-150000D01*
G01*
G37*
G36*
G01*
X114120300Y-46154200D02*
X114120300Y-46454200D01*
G75*
G02*
X113970300Y-46604200I-150000J0D01*
G01*
X112220300Y-46604200D01*
G75*
G02*
X112070300Y-46454200I0J150000D01*
G01*
X112070300Y-46154200D01*
G75*
G02*
X112220300Y-46004200I150000J0D01*
G01*
X113970300Y-46004200D01*
G75*
G02*
X114120300Y-46154200I0J-150000D01*
G01*
G37*
G36*
G01*
X114120300Y-44884200D02*
X114120300Y-45184200D01*
G75*
G02*
X113970300Y-45334200I-150000J0D01*
G01*
X112220300Y-45334200D01*
G75*
G02*
X112070300Y-45184200I0J150000D01*
G01*
X112070300Y-44884200D01*
G75*
G02*
X112220300Y-44734200I150000J0D01*
G01*
X113970300Y-44734200D01*
G75*
G02*
X114120300Y-44884200I0J-150000D01*
G01*
G37*
G36*
G01*
X114120300Y-43614200D02*
X114120300Y-43914200D01*
G75*
G02*
X113970300Y-44064200I-150000J0D01*
G01*
X112220300Y-44064200D01*
G75*
G02*
X112070300Y-43914200I0J150000D01*
G01*
X112070300Y-43614200D01*
G75*
G02*
X112220300Y-43464200I150000J0D01*
G01*
X113970300Y-43464200D01*
G75*
G02*
X114120300Y-43614200I0J-150000D01*
G01*
G37*
G36*
G01*
X114120300Y-42344200D02*
X114120300Y-42644200D01*
G75*
G02*
X113970300Y-42794200I-150000J0D01*
G01*
X112220300Y-42794200D01*
G75*
G02*
X112070300Y-42644200I0J150000D01*
G01*
X112070300Y-42344200D01*
G75*
G02*
X112220300Y-42194200I150000J0D01*
G01*
X113970300Y-42194200D01*
G75*
G02*
X114120300Y-42344200I0J-150000D01*
G01*
G37*
%TD*%
D19*
%TO.C,J0*%
X58267600Y-94687400D03*
X58267600Y-92187400D03*
X58267600Y-89687400D03*
G36*
G01*
X57542600Y-86337400D02*
X58992600Y-86337400D01*
G75*
G02*
X59242600Y-86587400I0J-250000D01*
G01*
X59242600Y-87787400D01*
G75*
G02*
X58992600Y-88037400I-250000J0D01*
G01*
X57542600Y-88037400D01*
G75*
G02*
X57292600Y-87787400I0J250000D01*
G01*
X57292600Y-86587400D01*
G75*
G02*
X57542600Y-86337400I250000J0D01*
G01*
G37*
%TD*%
%TO.C,U1*%
G36*
G01*
X89405600Y-46895600D02*
X89105600Y-46895600D01*
G75*
G02*
X88955600Y-46745600I0J150000D01*
G01*
X88955600Y-44995600D01*
G75*
G02*
X89105600Y-44845600I150000J0D01*
G01*
X89405600Y-44845600D01*
G75*
G02*
X89555600Y-44995600I0J-150000D01*
G01*
X89555600Y-46745600D01*
G75*
G02*
X89405600Y-46895600I-150000J0D01*
G01*
G37*
G36*
G01*
X88135600Y-46895600D02*
X87835600Y-46895600D01*
G75*
G02*
X87685600Y-46745600I0J150000D01*
G01*
X87685600Y-44995600D01*
G75*
G02*
X87835600Y-44845600I150000J0D01*
G01*
X88135600Y-44845600D01*
G75*
G02*
X88285600Y-44995600I0J-150000D01*
G01*
X88285600Y-46745600D01*
G75*
G02*
X88135600Y-46895600I-150000J0D01*
G01*
G37*
G36*
G01*
X86865600Y-46895600D02*
X86565600Y-46895600D01*
G75*
G02*
X86415600Y-46745600I0J150000D01*
G01*
X86415600Y-44995600D01*
G75*
G02*
X86565600Y-44845600I150000J0D01*
G01*
X86865600Y-44845600D01*
G75*
G02*
X87015600Y-44995600I0J-150000D01*
G01*
X87015600Y-46745600D01*
G75*
G02*
X86865600Y-46895600I-150000J0D01*
G01*
G37*
G36*
G01*
X85595600Y-46895600D02*
X85295600Y-46895600D01*
G75*
G02*
X85145600Y-46745600I0J150000D01*
G01*
X85145600Y-44995600D01*
G75*
G02*
X85295600Y-44845600I150000J0D01*
G01*
X85595600Y-44845600D01*
G75*
G02*
X85745600Y-44995600I0J-150000D01*
G01*
X85745600Y-46745600D01*
G75*
G02*
X85595600Y-46895600I-150000J0D01*
G01*
G37*
G36*
G01*
X84325600Y-46895600D02*
X84025600Y-46895600D01*
G75*
G02*
X83875600Y-46745600I0J150000D01*
G01*
X83875600Y-44995600D01*
G75*
G02*
X84025600Y-44845600I150000J0D01*
G01*
X84325600Y-44845600D01*
G75*
G02*
X84475600Y-44995600I0J-150000D01*
G01*
X84475600Y-46745600D01*
G75*
G02*
X84325600Y-46895600I-150000J0D01*
G01*
G37*
G36*
G01*
X83055600Y-46895600D02*
X82755600Y-46895600D01*
G75*
G02*
X82605600Y-46745600I0J150000D01*
G01*
X82605600Y-44995600D01*
G75*
G02*
X82755600Y-44845600I150000J0D01*
G01*
X83055600Y-44845600D01*
G75*
G02*
X83205600Y-44995600I0J-150000D01*
G01*
X83205600Y-46745600D01*
G75*
G02*
X83055600Y-46895600I-150000J0D01*
G01*
G37*
G36*
G01*
X81785600Y-46895600D02*
X81485600Y-46895600D01*
G75*
G02*
X81335600Y-46745600I0J150000D01*
G01*
X81335600Y-44995600D01*
G75*
G02*
X81485600Y-44845600I150000J0D01*
G01*
X81785600Y-44845600D01*
G75*
G02*
X81935600Y-44995600I0J-150000D01*
G01*
X81935600Y-46745600D01*
G75*
G02*
X81785600Y-46895600I-150000J0D01*
G01*
G37*
G36*
G01*
X80515600Y-46895600D02*
X80215600Y-46895600D01*
G75*
G02*
X80065600Y-46745600I0J150000D01*
G01*
X80065600Y-44995600D01*
G75*
G02*
X80215600Y-44845600I150000J0D01*
G01*
X80515600Y-44845600D01*
G75*
G02*
X80665600Y-44995600I0J-150000D01*
G01*
X80665600Y-46745600D01*
G75*
G02*
X80515600Y-46895600I-150000J0D01*
G01*
G37*
G36*
G01*
X79245600Y-46895600D02*
X78945600Y-46895600D01*
G75*
G02*
X78795600Y-46745600I0J150000D01*
G01*
X78795600Y-44995600D01*
G75*
G02*
X78945600Y-44845600I150000J0D01*
G01*
X79245600Y-44845600D01*
G75*
G02*
X79395600Y-44995600I0J-150000D01*
G01*
X79395600Y-46745600D01*
G75*
G02*
X79245600Y-46895600I-150000J0D01*
G01*
G37*
G36*
G01*
X77975600Y-46895600D02*
X77675600Y-46895600D01*
G75*
G02*
X77525600Y-46745600I0J150000D01*
G01*
X77525600Y-44995600D01*
G75*
G02*
X77675600Y-44845600I150000J0D01*
G01*
X77975600Y-44845600D01*
G75*
G02*
X78125600Y-44995600I0J-150000D01*
G01*
X78125600Y-46745600D01*
G75*
G02*
X77975600Y-46895600I-150000J0D01*
G01*
G37*
G36*
G01*
X76705600Y-46895600D02*
X76405600Y-46895600D01*
G75*
G02*
X76255600Y-46745600I0J150000D01*
G01*
X76255600Y-44995600D01*
G75*
G02*
X76405600Y-44845600I150000J0D01*
G01*
X76705600Y-44845600D01*
G75*
G02*
X76855600Y-44995600I0J-150000D01*
G01*
X76855600Y-46745600D01*
G75*
G02*
X76705600Y-46895600I-150000J0D01*
G01*
G37*
G36*
G01*
X75435600Y-46895600D02*
X75135600Y-46895600D01*
G75*
G02*
X74985600Y-46745600I0J150000D01*
G01*
X74985600Y-44995600D01*
G75*
G02*
X75135600Y-44845600I150000J0D01*
G01*
X75435600Y-44845600D01*
G75*
G02*
X75585600Y-44995600I0J-150000D01*
G01*
X75585600Y-46745600D01*
G75*
G02*
X75435600Y-46895600I-150000J0D01*
G01*
G37*
G36*
G01*
X74165600Y-46895600D02*
X73865600Y-46895600D01*
G75*
G02*
X73715600Y-46745600I0J150000D01*
G01*
X73715600Y-44995600D01*
G75*
G02*
X73865600Y-44845600I150000J0D01*
G01*
X74165600Y-44845600D01*
G75*
G02*
X74315600Y-44995600I0J-150000D01*
G01*
X74315600Y-46745600D01*
G75*
G02*
X74165600Y-46895600I-150000J0D01*
G01*
G37*
G36*
G01*
X72895600Y-46895600D02*
X72595600Y-46895600D01*
G75*
G02*
X72445600Y-46745600I0J150000D01*
G01*
X72445600Y-44995600D01*
G75*
G02*
X72595600Y-44845600I150000J0D01*
G01*
X72895600Y-44845600D01*
G75*
G02*
X73045600Y-44995600I0J-150000D01*
G01*
X73045600Y-46745600D01*
G75*
G02*
X72895600Y-46895600I-150000J0D01*
G01*
G37*
G36*
G01*
X72895600Y-56195600D02*
X72595600Y-56195600D01*
G75*
G02*
X72445600Y-56045600I0J150000D01*
G01*
X72445600Y-54295600D01*
G75*
G02*
X72595600Y-54145600I150000J0D01*
G01*
X72895600Y-54145600D01*
G75*
G02*
X73045600Y-54295600I0J-150000D01*
G01*
X73045600Y-56045600D01*
G75*
G02*
X72895600Y-56195600I-150000J0D01*
G01*
G37*
G36*
G01*
X74165600Y-56195600D02*
X73865600Y-56195600D01*
G75*
G02*
X73715600Y-56045600I0J150000D01*
G01*
X73715600Y-54295600D01*
G75*
G02*
X73865600Y-54145600I150000J0D01*
G01*
X74165600Y-54145600D01*
G75*
G02*
X74315600Y-54295600I0J-150000D01*
G01*
X74315600Y-56045600D01*
G75*
G02*
X74165600Y-56195600I-150000J0D01*
G01*
G37*
G36*
G01*
X75435600Y-56195600D02*
X75135600Y-56195600D01*
G75*
G02*
X74985600Y-56045600I0J150000D01*
G01*
X74985600Y-54295600D01*
G75*
G02*
X75135600Y-54145600I150000J0D01*
G01*
X75435600Y-54145600D01*
G75*
G02*
X75585600Y-54295600I0J-150000D01*
G01*
X75585600Y-56045600D01*
G75*
G02*
X75435600Y-56195600I-150000J0D01*
G01*
G37*
G36*
G01*
X76705600Y-56195600D02*
X76405600Y-56195600D01*
G75*
G02*
X76255600Y-56045600I0J150000D01*
G01*
X76255600Y-54295600D01*
G75*
G02*
X76405600Y-54145600I150000J0D01*
G01*
X76705600Y-54145600D01*
G75*
G02*
X76855600Y-54295600I0J-150000D01*
G01*
X76855600Y-56045600D01*
G75*
G02*
X76705600Y-56195600I-150000J0D01*
G01*
G37*
G36*
G01*
X77975600Y-56195600D02*
X77675600Y-56195600D01*
G75*
G02*
X77525600Y-56045600I0J150000D01*
G01*
X77525600Y-54295600D01*
G75*
G02*
X77675600Y-54145600I150000J0D01*
G01*
X77975600Y-54145600D01*
G75*
G02*
X78125600Y-54295600I0J-150000D01*
G01*
X78125600Y-56045600D01*
G75*
G02*
X77975600Y-56195600I-150000J0D01*
G01*
G37*
G36*
G01*
X79245600Y-56195600D02*
X78945600Y-56195600D01*
G75*
G02*
X78795600Y-56045600I0J150000D01*
G01*
X78795600Y-54295600D01*
G75*
G02*
X78945600Y-54145600I150000J0D01*
G01*
X79245600Y-54145600D01*
G75*
G02*
X79395600Y-54295600I0J-150000D01*
G01*
X79395600Y-56045600D01*
G75*
G02*
X79245600Y-56195600I-150000J0D01*
G01*
G37*
G36*
G01*
X80515600Y-56195600D02*
X80215600Y-56195600D01*
G75*
G02*
X80065600Y-56045600I0J150000D01*
G01*
X80065600Y-54295600D01*
G75*
G02*
X80215600Y-54145600I150000J0D01*
G01*
X80515600Y-54145600D01*
G75*
G02*
X80665600Y-54295600I0J-150000D01*
G01*
X80665600Y-56045600D01*
G75*
G02*
X80515600Y-56195600I-150000J0D01*
G01*
G37*
G36*
G01*
X81785600Y-56195600D02*
X81485600Y-56195600D01*
G75*
G02*
X81335600Y-56045600I0J150000D01*
G01*
X81335600Y-54295600D01*
G75*
G02*
X81485600Y-54145600I150000J0D01*
G01*
X81785600Y-54145600D01*
G75*
G02*
X81935600Y-54295600I0J-150000D01*
G01*
X81935600Y-56045600D01*
G75*
G02*
X81785600Y-56195600I-150000J0D01*
G01*
G37*
G36*
G01*
X83055600Y-56195600D02*
X82755600Y-56195600D01*
G75*
G02*
X82605600Y-56045600I0J150000D01*
G01*
X82605600Y-54295600D01*
G75*
G02*
X82755600Y-54145600I150000J0D01*
G01*
X83055600Y-54145600D01*
G75*
G02*
X83205600Y-54295600I0J-150000D01*
G01*
X83205600Y-56045600D01*
G75*
G02*
X83055600Y-56195600I-150000J0D01*
G01*
G37*
G36*
G01*
X84325600Y-56195600D02*
X84025600Y-56195600D01*
G75*
G02*
X83875600Y-56045600I0J150000D01*
G01*
X83875600Y-54295600D01*
G75*
G02*
X84025600Y-54145600I150000J0D01*
G01*
X84325600Y-54145600D01*
G75*
G02*
X84475600Y-54295600I0J-150000D01*
G01*
X84475600Y-56045600D01*
G75*
G02*
X84325600Y-56195600I-150000J0D01*
G01*
G37*
G36*
G01*
X85595600Y-56195600D02*
X85295600Y-56195600D01*
G75*
G02*
X85145600Y-56045600I0J150000D01*
G01*
X85145600Y-54295600D01*
G75*
G02*
X85295600Y-54145600I150000J0D01*
G01*
X85595600Y-54145600D01*
G75*
G02*
X85745600Y-54295600I0J-150000D01*
G01*
X85745600Y-56045600D01*
G75*
G02*
X85595600Y-56195600I-150000J0D01*
G01*
G37*
G36*
G01*
X86865600Y-56195600D02*
X86565600Y-56195600D01*
G75*
G02*
X86415600Y-56045600I0J150000D01*
G01*
X86415600Y-54295600D01*
G75*
G02*
X86565600Y-54145600I150000J0D01*
G01*
X86865600Y-54145600D01*
G75*
G02*
X87015600Y-54295600I0J-150000D01*
G01*
X87015600Y-56045600D01*
G75*
G02*
X86865600Y-56195600I-150000J0D01*
G01*
G37*
G36*
G01*
X88135600Y-56195600D02*
X87835600Y-56195600D01*
G75*
G02*
X87685600Y-56045600I0J150000D01*
G01*
X87685600Y-54295600D01*
G75*
G02*
X87835600Y-54145600I150000J0D01*
G01*
X88135600Y-54145600D01*
G75*
G02*
X88285600Y-54295600I0J-150000D01*
G01*
X88285600Y-56045600D01*
G75*
G02*
X88135600Y-56195600I-150000J0D01*
G01*
G37*
G36*
G01*
X89405600Y-56195600D02*
X89105600Y-56195600D01*
G75*
G02*
X88955600Y-56045600I0J150000D01*
G01*
X88955600Y-54295600D01*
G75*
G02*
X89105600Y-54145600I150000J0D01*
G01*
X89405600Y-54145600D01*
G75*
G02*
X89555600Y-54295600I0J-150000D01*
G01*
X89555600Y-56045600D01*
G75*
G02*
X89405600Y-56195600I-150000J0D01*
G01*
G37*
%TD*%
%TO.C,U3*%
G36*
G01*
X91691600Y-67664200D02*
X91391600Y-67664200D01*
G75*
G02*
X91241600Y-67514200I0J150000D01*
G01*
X91241600Y-65864200D01*
G75*
G02*
X91391600Y-65714200I150000J0D01*
G01*
X91691600Y-65714200D01*
G75*
G02*
X91841600Y-65864200I0J-150000D01*
G01*
X91841600Y-67514200D01*
G75*
G02*
X91691600Y-67664200I-150000J0D01*
G01*
G37*
G36*
G01*
X90421600Y-67664200D02*
X90121600Y-67664200D01*
G75*
G02*
X89971600Y-67514200I0J150000D01*
G01*
X89971600Y-65864200D01*
G75*
G02*
X90121600Y-65714200I150000J0D01*
G01*
X90421600Y-65714200D01*
G75*
G02*
X90571600Y-65864200I0J-150000D01*
G01*
X90571600Y-67514200D01*
G75*
G02*
X90421600Y-67664200I-150000J0D01*
G01*
G37*
G36*
G01*
X89151600Y-67664200D02*
X88851600Y-67664200D01*
G75*
G02*
X88701600Y-67514200I0J150000D01*
G01*
X88701600Y-65864200D01*
G75*
G02*
X88851600Y-65714200I150000J0D01*
G01*
X89151600Y-65714200D01*
G75*
G02*
X89301600Y-65864200I0J-150000D01*
G01*
X89301600Y-67514200D01*
G75*
G02*
X89151600Y-67664200I-150000J0D01*
G01*
G37*
G36*
G01*
X87881600Y-67664200D02*
X87581600Y-67664200D01*
G75*
G02*
X87431600Y-67514200I0J150000D01*
G01*
X87431600Y-65864200D01*
G75*
G02*
X87581600Y-65714200I150000J0D01*
G01*
X87881600Y-65714200D01*
G75*
G02*
X88031600Y-65864200I0J-150000D01*
G01*
X88031600Y-67514200D01*
G75*
G02*
X87881600Y-67664200I-150000J0D01*
G01*
G37*
G36*
G01*
X86611600Y-67664200D02*
X86311600Y-67664200D01*
G75*
G02*
X86161600Y-67514200I0J150000D01*
G01*
X86161600Y-65864200D01*
G75*
G02*
X86311600Y-65714200I150000J0D01*
G01*
X86611600Y-65714200D01*
G75*
G02*
X86761600Y-65864200I0J-150000D01*
G01*
X86761600Y-67514200D01*
G75*
G02*
X86611600Y-67664200I-150000J0D01*
G01*
G37*
G36*
G01*
X85341600Y-67664200D02*
X85041600Y-67664200D01*
G75*
G02*
X84891600Y-67514200I0J150000D01*
G01*
X84891600Y-65864200D01*
G75*
G02*
X85041600Y-65714200I150000J0D01*
G01*
X85341600Y-65714200D01*
G75*
G02*
X85491600Y-65864200I0J-150000D01*
G01*
X85491600Y-67514200D01*
G75*
G02*
X85341600Y-67664200I-150000J0D01*
G01*
G37*
G36*
G01*
X84071600Y-67664200D02*
X83771600Y-67664200D01*
G75*
G02*
X83621600Y-67514200I0J150000D01*
G01*
X83621600Y-65864200D01*
G75*
G02*
X83771600Y-65714200I150000J0D01*
G01*
X84071600Y-65714200D01*
G75*
G02*
X84221600Y-65864200I0J-150000D01*
G01*
X84221600Y-67514200D01*
G75*
G02*
X84071600Y-67664200I-150000J0D01*
G01*
G37*
G36*
G01*
X84071600Y-72614200D02*
X83771600Y-72614200D01*
G75*
G02*
X83621600Y-72464200I0J150000D01*
G01*
X83621600Y-70814200D01*
G75*
G02*
X83771600Y-70664200I150000J0D01*
G01*
X84071600Y-70664200D01*
G75*
G02*
X84221600Y-70814200I0J-150000D01*
G01*
X84221600Y-72464200D01*
G75*
G02*
X84071600Y-72614200I-150000J0D01*
G01*
G37*
G36*
G01*
X85341600Y-72614200D02*
X85041600Y-72614200D01*
G75*
G02*
X84891600Y-72464200I0J150000D01*
G01*
X84891600Y-70814200D01*
G75*
G02*
X85041600Y-70664200I150000J0D01*
G01*
X85341600Y-70664200D01*
G75*
G02*
X85491600Y-70814200I0J-150000D01*
G01*
X85491600Y-72464200D01*
G75*
G02*
X85341600Y-72614200I-150000J0D01*
G01*
G37*
G36*
G01*
X86611600Y-72614200D02*
X86311600Y-72614200D01*
G75*
G02*
X86161600Y-72464200I0J150000D01*
G01*
X86161600Y-70814200D01*
G75*
G02*
X86311600Y-70664200I150000J0D01*
G01*
X86611600Y-70664200D01*
G75*
G02*
X86761600Y-70814200I0J-150000D01*
G01*
X86761600Y-72464200D01*
G75*
G02*
X86611600Y-72614200I-150000J0D01*
G01*
G37*
G36*
G01*
X87881600Y-72614200D02*
X87581600Y-72614200D01*
G75*
G02*
X87431600Y-72464200I0J150000D01*
G01*
X87431600Y-70814200D01*
G75*
G02*
X87581600Y-70664200I150000J0D01*
G01*
X87881600Y-70664200D01*
G75*
G02*
X88031600Y-70814200I0J-150000D01*
G01*
X88031600Y-72464200D01*
G75*
G02*
X87881600Y-72614200I-150000J0D01*
G01*
G37*
G36*
G01*
X89151600Y-72614200D02*
X88851600Y-72614200D01*
G75*
G02*
X88701600Y-72464200I0J150000D01*
G01*
X88701600Y-70814200D01*
G75*
G02*
X88851600Y-70664200I150000J0D01*
G01*
X89151600Y-70664200D01*
G75*
G02*
X89301600Y-70814200I0J-150000D01*
G01*
X89301600Y-72464200D01*
G75*
G02*
X89151600Y-72614200I-150000J0D01*
G01*
G37*
G36*
G01*
X90421600Y-72614200D02*
X90121600Y-72614200D01*
G75*
G02*
X89971600Y-72464200I0J150000D01*
G01*
X89971600Y-70814200D01*
G75*
G02*
X90121600Y-70664200I150000J0D01*
G01*
X90421600Y-70664200D01*
G75*
G02*
X90571600Y-70814200I0J-150000D01*
G01*
X90571600Y-72464200D01*
G75*
G02*
X90421600Y-72614200I-150000J0D01*
G01*
G37*
G36*
G01*
X91691600Y-72614200D02*
X91391600Y-72614200D01*
G75*
G02*
X91241600Y-72464200I0J150000D01*
G01*
X91241600Y-70814200D01*
G75*
G02*
X91391600Y-70664200I150000J0D01*
G01*
X91691600Y-70664200D01*
G75*
G02*
X91841600Y-70814200I0J-150000D01*
G01*
X91841600Y-72464200D01*
G75*
G02*
X91691600Y-72614200I-150000J0D01*
G01*
G37*
%TD*%
%TO.C,C5*%
G36*
G01*
X93997800Y-67190200D02*
X93047800Y-67190200D01*
G75*
G02*
X92797800Y-66940200I0J250000D01*
G01*
X92797800Y-66265200D01*
G75*
G02*
X93047800Y-66015200I250000J0D01*
G01*
X93997800Y-66015200D01*
G75*
G02*
X94247800Y-66265200I0J-250000D01*
G01*
X94247800Y-66940200D01*
G75*
G02*
X93997800Y-67190200I-250000J0D01*
G01*
G37*
G36*
G01*
X93997800Y-69265200D02*
X93047800Y-69265200D01*
G75*
G02*
X92797800Y-69015200I0J250000D01*
G01*
X92797800Y-68340200D01*
G75*
G02*
X93047800Y-68090200I250000J0D01*
G01*
X93997800Y-68090200D01*
G75*
G02*
X94247800Y-68340200I0J-250000D01*
G01*
X94247800Y-69015200D01*
G75*
G02*
X93997800Y-69265200I-250000J0D01*
G01*
G37*
%TD*%
%TO.C,C7*%
G36*
G01*
X93934300Y-72460700D02*
X92984300Y-72460700D01*
G75*
G02*
X92734300Y-72210700I0J250000D01*
G01*
X92734300Y-71535700D01*
G75*
G02*
X92984300Y-71285700I250000J0D01*
G01*
X93934300Y-71285700D01*
G75*
G02*
X94184300Y-71535700I0J-250000D01*
G01*
X94184300Y-72210700D01*
G75*
G02*
X93934300Y-72460700I-250000J0D01*
G01*
G37*
G36*
G01*
X93934300Y-74535700D02*
X92984300Y-74535700D01*
G75*
G02*
X92734300Y-74285700I0J250000D01*
G01*
X92734300Y-73610700D01*
G75*
G02*
X92984300Y-73360700I250000J0D01*
G01*
X93934300Y-73360700D01*
G75*
G02*
X94184300Y-73610700I0J-250000D01*
G01*
X94184300Y-74285700D01*
G75*
G02*
X93934300Y-74535700I-250000J0D01*
G01*
G37*
%TD*%
%TO.C,C3*%
G36*
G01*
X78364100Y-67317200D02*
X77414100Y-67317200D01*
G75*
G02*
X77164100Y-67067200I0J250000D01*
G01*
X77164100Y-66392200D01*
G75*
G02*
X77414100Y-66142200I250000J0D01*
G01*
X78364100Y-66142200D01*
G75*
G02*
X78614100Y-66392200I0J-250000D01*
G01*
X78614100Y-67067200D01*
G75*
G02*
X78364100Y-67317200I-250000J0D01*
G01*
G37*
G36*
G01*
X78364100Y-69392200D02*
X77414100Y-69392200D01*
G75*
G02*
X77164100Y-69142200I0J250000D01*
G01*
X77164100Y-68467200D01*
G75*
G02*
X77414100Y-68217200I250000J0D01*
G01*
X78364100Y-68217200D01*
G75*
G02*
X78614100Y-68467200I0J-250000D01*
G01*
X78614100Y-69142200D01*
G75*
G02*
X78364100Y-69392200I-250000J0D01*
G01*
G37*
%TD*%
%TO.C,C4*%
G36*
G01*
X78491100Y-74548400D02*
X77541100Y-74548400D01*
G75*
G02*
X77291100Y-74298400I0J250000D01*
G01*
X77291100Y-73623400D01*
G75*
G02*
X77541100Y-73373400I250000J0D01*
G01*
X78491100Y-73373400D01*
G75*
G02*
X78741100Y-73623400I0J-250000D01*
G01*
X78741100Y-74298400D01*
G75*
G02*
X78491100Y-74548400I-250000J0D01*
G01*
G37*
G36*
G01*
X78491100Y-72473400D02*
X77541100Y-72473400D01*
G75*
G02*
X77291100Y-72223400I0J250000D01*
G01*
X77291100Y-71548400D01*
G75*
G02*
X77541100Y-71298400I250000J0D01*
G01*
X78491100Y-71298400D01*
G75*
G02*
X78741100Y-71548400I0J-250000D01*
G01*
X78741100Y-72223400D01*
G75*
G02*
X78491100Y-72473400I-250000J0D01*
G01*
G37*
%TD*%
%TO.C,C8*%
G36*
G01*
X109110800Y-69112800D02*
X108160800Y-69112800D01*
G75*
G02*
X107910800Y-68862800I0J250000D01*
G01*
X107910800Y-68187800D01*
G75*
G02*
X108160800Y-67937800I250000J0D01*
G01*
X109110800Y-67937800D01*
G75*
G02*
X109360800Y-68187800I0J-250000D01*
G01*
X109360800Y-68862800D01*
G75*
G02*
X109110800Y-69112800I-250000J0D01*
G01*
G37*
G36*
G01*
X109110800Y-67037800D02*
X108160800Y-67037800D01*
G75*
G02*
X107910800Y-66787800I0J250000D01*
G01*
X107910800Y-66112800D01*
G75*
G02*
X108160800Y-65862800I250000J0D01*
G01*
X109110800Y-65862800D01*
G75*
G02*
X109360800Y-66112800I0J-250000D01*
G01*
X109360800Y-66787800D01*
G75*
G02*
X109110800Y-67037800I-250000J0D01*
G01*
G37*
%TD*%
%TO.C,C9*%
G36*
G01*
X108971100Y-72143200D02*
X108021100Y-72143200D01*
G75*
G02*
X107771100Y-71893200I0J250000D01*
G01*
X107771100Y-71218200D01*
G75*
G02*
X108021100Y-70968200I250000J0D01*
G01*
X108971100Y-70968200D01*
G75*
G02*
X109221100Y-71218200I0J-250000D01*
G01*
X109221100Y-71893200D01*
G75*
G02*
X108971100Y-72143200I-250000J0D01*
G01*
G37*
G36*
G01*
X108971100Y-74218200D02*
X108021100Y-74218200D01*
G75*
G02*
X107771100Y-73968200I0J250000D01*
G01*
X107771100Y-73293200D01*
G75*
G02*
X108021100Y-73043200I250000J0D01*
G01*
X108971100Y-73043200D01*
G75*
G02*
X109221100Y-73293200I0J-250000D01*
G01*
X109221100Y-73968200D01*
G75*
G02*
X108971100Y-74218200I-250000J0D01*
G01*
G37*
%TD*%
%TO.C,U4*%
G36*
G01*
X75842000Y-67765800D02*
X75542000Y-67765800D01*
G75*
G02*
X75392000Y-67615800I0J150000D01*
G01*
X75392000Y-65965800D01*
G75*
G02*
X75542000Y-65815800I150000J0D01*
G01*
X75842000Y-65815800D01*
G75*
G02*
X75992000Y-65965800I0J-150000D01*
G01*
X75992000Y-67615800D01*
G75*
G02*
X75842000Y-67765800I-150000J0D01*
G01*
G37*
G36*
G01*
X74572000Y-67765800D02*
X74272000Y-67765800D01*
G75*
G02*
X74122000Y-67615800I0J150000D01*
G01*
X74122000Y-65965800D01*
G75*
G02*
X74272000Y-65815800I150000J0D01*
G01*
X74572000Y-65815800D01*
G75*
G02*
X74722000Y-65965800I0J-150000D01*
G01*
X74722000Y-67615800D01*
G75*
G02*
X74572000Y-67765800I-150000J0D01*
G01*
G37*
G36*
G01*
X73302000Y-67765800D02*
X73002000Y-67765800D01*
G75*
G02*
X72852000Y-67615800I0J150000D01*
G01*
X72852000Y-65965800D01*
G75*
G02*
X73002000Y-65815800I150000J0D01*
G01*
X73302000Y-65815800D01*
G75*
G02*
X73452000Y-65965800I0J-150000D01*
G01*
X73452000Y-67615800D01*
G75*
G02*
X73302000Y-67765800I-150000J0D01*
G01*
G37*
G36*
G01*
X72032000Y-67765800D02*
X71732000Y-67765800D01*
G75*
G02*
X71582000Y-67615800I0J150000D01*
G01*
X71582000Y-65965800D01*
G75*
G02*
X71732000Y-65815800I150000J0D01*
G01*
X72032000Y-65815800D01*
G75*
G02*
X72182000Y-65965800I0J-150000D01*
G01*
X72182000Y-67615800D01*
G75*
G02*
X72032000Y-67765800I-150000J0D01*
G01*
G37*
G36*
G01*
X70762000Y-67765800D02*
X70462000Y-67765800D01*
G75*
G02*
X70312000Y-67615800I0J150000D01*
G01*
X70312000Y-65965800D01*
G75*
G02*
X70462000Y-65815800I150000J0D01*
G01*
X70762000Y-65815800D01*
G75*
G02*
X70912000Y-65965800I0J-150000D01*
G01*
X70912000Y-67615800D01*
G75*
G02*
X70762000Y-67765800I-150000J0D01*
G01*
G37*
G36*
G01*
X69492000Y-67765800D02*
X69192000Y-67765800D01*
G75*
G02*
X69042000Y-67615800I0J150000D01*
G01*
X69042000Y-65965800D01*
G75*
G02*
X69192000Y-65815800I150000J0D01*
G01*
X69492000Y-65815800D01*
G75*
G02*
X69642000Y-65965800I0J-150000D01*
G01*
X69642000Y-67615800D01*
G75*
G02*
X69492000Y-67765800I-150000J0D01*
G01*
G37*
G36*
G01*
X68222000Y-67765800D02*
X67922000Y-67765800D01*
G75*
G02*
X67772000Y-67615800I0J150000D01*
G01*
X67772000Y-65965800D01*
G75*
G02*
X67922000Y-65815800I150000J0D01*
G01*
X68222000Y-65815800D01*
G75*
G02*
X68372000Y-65965800I0J-150000D01*
G01*
X68372000Y-67615800D01*
G75*
G02*
X68222000Y-67765800I-150000J0D01*
G01*
G37*
G36*
G01*
X68222000Y-72715800D02*
X67922000Y-72715800D01*
G75*
G02*
X67772000Y-72565800I0J150000D01*
G01*
X67772000Y-70915800D01*
G75*
G02*
X67922000Y-70765800I150000J0D01*
G01*
X68222000Y-70765800D01*
G75*
G02*
X68372000Y-70915800I0J-150000D01*
G01*
X68372000Y-72565800D01*
G75*
G02*
X68222000Y-72715800I-150000J0D01*
G01*
G37*
G36*
G01*
X69492000Y-72715800D02*
X69192000Y-72715800D01*
G75*
G02*
X69042000Y-72565800I0J150000D01*
G01*
X69042000Y-70915800D01*
G75*
G02*
X69192000Y-70765800I150000J0D01*
G01*
X69492000Y-70765800D01*
G75*
G02*
X69642000Y-70915800I0J-150000D01*
G01*
X69642000Y-72565800D01*
G75*
G02*
X69492000Y-72715800I-150000J0D01*
G01*
G37*
G36*
G01*
X70762000Y-72715800D02*
X70462000Y-72715800D01*
G75*
G02*
X70312000Y-72565800I0J150000D01*
G01*
X70312000Y-70915800D01*
G75*
G02*
X70462000Y-70765800I150000J0D01*
G01*
X70762000Y-70765800D01*
G75*
G02*
X70912000Y-70915800I0J-150000D01*
G01*
X70912000Y-72565800D01*
G75*
G02*
X70762000Y-72715800I-150000J0D01*
G01*
G37*
G36*
G01*
X72032000Y-72715800D02*
X71732000Y-72715800D01*
G75*
G02*
X71582000Y-72565800I0J150000D01*
G01*
X71582000Y-70915800D01*
G75*
G02*
X71732000Y-70765800I150000J0D01*
G01*
X72032000Y-70765800D01*
G75*
G02*
X72182000Y-70915800I0J-150000D01*
G01*
X72182000Y-72565800D01*
G75*
G02*
X72032000Y-72715800I-150000J0D01*
G01*
G37*
G36*
G01*
X73302000Y-72715800D02*
X73002000Y-72715800D01*
G75*
G02*
X72852000Y-72565800I0J150000D01*
G01*
X72852000Y-70915800D01*
G75*
G02*
X73002000Y-70765800I150000J0D01*
G01*
X73302000Y-70765800D01*
G75*
G02*
X73452000Y-70915800I0J-150000D01*
G01*
X73452000Y-72565800D01*
G75*
G02*
X73302000Y-72715800I-150000J0D01*
G01*
G37*
G36*
G01*
X74572000Y-72715800D02*
X74272000Y-72715800D01*
G75*
G02*
X74122000Y-72565800I0J150000D01*
G01*
X74122000Y-70915800D01*
G75*
G02*
X74272000Y-70765800I150000J0D01*
G01*
X74572000Y-70765800D01*
G75*
G02*
X74722000Y-70915800I0J-150000D01*
G01*
X74722000Y-72565800D01*
G75*
G02*
X74572000Y-72715800I-150000J0D01*
G01*
G37*
G36*
G01*
X75842000Y-72715800D02*
X75542000Y-72715800D01*
G75*
G02*
X75392000Y-72565800I0J150000D01*
G01*
X75392000Y-70915800D01*
G75*
G02*
X75542000Y-70765800I150000J0D01*
G01*
X75842000Y-70765800D01*
G75*
G02*
X75992000Y-70915800I0J-150000D01*
G01*
X75992000Y-72565800D01*
G75*
G02*
X75842000Y-72715800I-150000J0D01*
G01*
G37*
%TD*%
%TO.C,U5*%
G36*
G01*
X106563300Y-72398300D02*
X106263300Y-72398300D01*
G75*
G02*
X106113300Y-72248300I0J150000D01*
G01*
X106113300Y-70598300D01*
G75*
G02*
X106263300Y-70448300I150000J0D01*
G01*
X106563300Y-70448300D01*
G75*
G02*
X106713300Y-70598300I0J-150000D01*
G01*
X106713300Y-72248300D01*
G75*
G02*
X106563300Y-72398300I-150000J0D01*
G01*
G37*
G36*
G01*
X105293300Y-72398300D02*
X104993300Y-72398300D01*
G75*
G02*
X104843300Y-72248300I0J150000D01*
G01*
X104843300Y-70598300D01*
G75*
G02*
X104993300Y-70448300I150000J0D01*
G01*
X105293300Y-70448300D01*
G75*
G02*
X105443300Y-70598300I0J-150000D01*
G01*
X105443300Y-72248300D01*
G75*
G02*
X105293300Y-72398300I-150000J0D01*
G01*
G37*
G36*
G01*
X104023300Y-72398300D02*
X103723300Y-72398300D01*
G75*
G02*
X103573300Y-72248300I0J150000D01*
G01*
X103573300Y-70598300D01*
G75*
G02*
X103723300Y-70448300I150000J0D01*
G01*
X104023300Y-70448300D01*
G75*
G02*
X104173300Y-70598300I0J-150000D01*
G01*
X104173300Y-72248300D01*
G75*
G02*
X104023300Y-72398300I-150000J0D01*
G01*
G37*
G36*
G01*
X102753300Y-72398300D02*
X102453300Y-72398300D01*
G75*
G02*
X102303300Y-72248300I0J150000D01*
G01*
X102303300Y-70598300D01*
G75*
G02*
X102453300Y-70448300I150000J0D01*
G01*
X102753300Y-70448300D01*
G75*
G02*
X102903300Y-70598300I0J-150000D01*
G01*
X102903300Y-72248300D01*
G75*
G02*
X102753300Y-72398300I-150000J0D01*
G01*
G37*
G36*
G01*
X101483300Y-72398300D02*
X101183300Y-72398300D01*
G75*
G02*
X101033300Y-72248300I0J150000D01*
G01*
X101033300Y-70598300D01*
G75*
G02*
X101183300Y-70448300I150000J0D01*
G01*
X101483300Y-70448300D01*
G75*
G02*
X101633300Y-70598300I0J-150000D01*
G01*
X101633300Y-72248300D01*
G75*
G02*
X101483300Y-72398300I-150000J0D01*
G01*
G37*
G36*
G01*
X100213300Y-72398300D02*
X99913300Y-72398300D01*
G75*
G02*
X99763300Y-72248300I0J150000D01*
G01*
X99763300Y-70598300D01*
G75*
G02*
X99913300Y-70448300I150000J0D01*
G01*
X100213300Y-70448300D01*
G75*
G02*
X100363300Y-70598300I0J-150000D01*
G01*
X100363300Y-72248300D01*
G75*
G02*
X100213300Y-72398300I-150000J0D01*
G01*
G37*
G36*
G01*
X98943300Y-72398300D02*
X98643300Y-72398300D01*
G75*
G02*
X98493300Y-72248300I0J150000D01*
G01*
X98493300Y-70598300D01*
G75*
G02*
X98643300Y-70448300I150000J0D01*
G01*
X98943300Y-70448300D01*
G75*
G02*
X99093300Y-70598300I0J-150000D01*
G01*
X99093300Y-72248300D01*
G75*
G02*
X98943300Y-72398300I-150000J0D01*
G01*
G37*
G36*
G01*
X98943300Y-67448300D02*
X98643300Y-67448300D01*
G75*
G02*
X98493300Y-67298300I0J150000D01*
G01*
X98493300Y-65648300D01*
G75*
G02*
X98643300Y-65498300I150000J0D01*
G01*
X98943300Y-65498300D01*
G75*
G02*
X99093300Y-65648300I0J-150000D01*
G01*
X99093300Y-67298300D01*
G75*
G02*
X98943300Y-67448300I-150000J0D01*
G01*
G37*
G36*
G01*
X100213300Y-67448300D02*
X99913300Y-67448300D01*
G75*
G02*
X99763300Y-67298300I0J150000D01*
G01*
X99763300Y-65648300D01*
G75*
G02*
X99913300Y-65498300I150000J0D01*
G01*
X100213300Y-65498300D01*
G75*
G02*
X100363300Y-65648300I0J-150000D01*
G01*
X100363300Y-67298300D01*
G75*
G02*
X100213300Y-67448300I-150000J0D01*
G01*
G37*
G36*
G01*
X101483300Y-67448300D02*
X101183300Y-67448300D01*
G75*
G02*
X101033300Y-67298300I0J150000D01*
G01*
X101033300Y-65648300D01*
G75*
G02*
X101183300Y-65498300I150000J0D01*
G01*
X101483300Y-65498300D01*
G75*
G02*
X101633300Y-65648300I0J-150000D01*
G01*
X101633300Y-67298300D01*
G75*
G02*
X101483300Y-67448300I-150000J0D01*
G01*
G37*
G36*
G01*
X102753300Y-67448300D02*
X102453300Y-67448300D01*
G75*
G02*
X102303300Y-67298300I0J150000D01*
G01*
X102303300Y-65648300D01*
G75*
G02*
X102453300Y-65498300I150000J0D01*
G01*
X102753300Y-65498300D01*
G75*
G02*
X102903300Y-65648300I0J-150000D01*
G01*
X102903300Y-67298300D01*
G75*
G02*
X102753300Y-67448300I-150000J0D01*
G01*
G37*
G36*
G01*
X104023300Y-67448300D02*
X103723300Y-67448300D01*
G75*
G02*
X103573300Y-67298300I0J150000D01*
G01*
X103573300Y-65648300D01*
G75*
G02*
X103723300Y-65498300I150000J0D01*
G01*
X104023300Y-65498300D01*
G75*
G02*
X104173300Y-65648300I0J-150000D01*
G01*
X104173300Y-67298300D01*
G75*
G02*
X104023300Y-67448300I-150000J0D01*
G01*
G37*
G36*
G01*
X105293300Y-67448300D02*
X104993300Y-67448300D01*
G75*
G02*
X104843300Y-67298300I0J150000D01*
G01*
X104843300Y-65648300D01*
G75*
G02*
X104993300Y-65498300I150000J0D01*
G01*
X105293300Y-65498300D01*
G75*
G02*
X105443300Y-65648300I0J-150000D01*
G01*
X105443300Y-67298300D01*
G75*
G02*
X105293300Y-67448300I-150000J0D01*
G01*
G37*
G36*
G01*
X106563300Y-67448300D02*
X106263300Y-67448300D01*
G75*
G02*
X106113300Y-67298300I0J150000D01*
G01*
X106113300Y-65648300D01*
G75*
G02*
X106263300Y-65498300I150000J0D01*
G01*
X106563300Y-65498300D01*
G75*
G02*
X106713300Y-65648300I0J-150000D01*
G01*
X106713300Y-67298300D01*
G75*
G02*
X106563300Y-67448300I-150000J0D01*
G01*
G37*
%TD*%
%TO.C,U6*%
G36*
G01*
X55554301Y-47955801D02*
X55854301Y-47955801D01*
G75*
G02*
X56004301Y-48105801I0J-150000D01*
G01*
X56004301Y-49855801D01*
G75*
G02*
X55854301Y-50005801I-150000J0D01*
G01*
X55554301Y-50005801D01*
G75*
G02*
X55404301Y-49855801I0J150000D01*
G01*
X55404301Y-48105801D01*
G75*
G02*
X55554301Y-47955801I150000J0D01*
G01*
G37*
G36*
G01*
X56824301Y-47955801D02*
X57124301Y-47955801D01*
G75*
G02*
X57274301Y-48105801I0J-150000D01*
G01*
X57274301Y-49855801D01*
G75*
G02*
X57124301Y-50005801I-150000J0D01*
G01*
X56824301Y-50005801D01*
G75*
G02*
X56674301Y-49855801I0J150000D01*
G01*
X56674301Y-48105801D01*
G75*
G02*
X56824301Y-47955801I150000J0D01*
G01*
G37*
G36*
G01*
X58094301Y-47955801D02*
X58394301Y-47955801D01*
G75*
G02*
X58544301Y-48105801I0J-150000D01*
G01*
X58544301Y-49855801D01*
G75*
G02*
X58394301Y-50005801I-150000J0D01*
G01*
X58094301Y-50005801D01*
G75*
G02*
X57944301Y-49855801I0J150000D01*
G01*
X57944301Y-48105801D01*
G75*
G02*
X58094301Y-47955801I150000J0D01*
G01*
G37*
G36*
G01*
X59364301Y-47955801D02*
X59664301Y-47955801D01*
G75*
G02*
X59814301Y-48105801I0J-150000D01*
G01*
X59814301Y-49855801D01*
G75*
G02*
X59664301Y-50005801I-150000J0D01*
G01*
X59364301Y-50005801D01*
G75*
G02*
X59214301Y-49855801I0J150000D01*
G01*
X59214301Y-48105801D01*
G75*
G02*
X59364301Y-47955801I150000J0D01*
G01*
G37*
G36*
G01*
X60634301Y-47955801D02*
X60934301Y-47955801D01*
G75*
G02*
X61084301Y-48105801I0J-150000D01*
G01*
X61084301Y-49855801D01*
G75*
G02*
X60934301Y-50005801I-150000J0D01*
G01*
X60634301Y-50005801D01*
G75*
G02*
X60484301Y-49855801I0J150000D01*
G01*
X60484301Y-48105801D01*
G75*
G02*
X60634301Y-47955801I150000J0D01*
G01*
G37*
G36*
G01*
X61904301Y-47955801D02*
X62204301Y-47955801D01*
G75*
G02*
X62354301Y-48105801I0J-150000D01*
G01*
X62354301Y-49855801D01*
G75*
G02*
X62204301Y-50005801I-150000J0D01*
G01*
X61904301Y-50005801D01*
G75*
G02*
X61754301Y-49855801I0J150000D01*
G01*
X61754301Y-48105801D01*
G75*
G02*
X61904301Y-47955801I150000J0D01*
G01*
G37*
G36*
G01*
X63174301Y-47955801D02*
X63474301Y-47955801D01*
G75*
G02*
X63624301Y-48105801I0J-150000D01*
G01*
X63624301Y-49855801D01*
G75*
G02*
X63474301Y-50005801I-150000J0D01*
G01*
X63174301Y-50005801D01*
G75*
G02*
X63024301Y-49855801I0J150000D01*
G01*
X63024301Y-48105801D01*
G75*
G02*
X63174301Y-47955801I150000J0D01*
G01*
G37*
G36*
G01*
X64444301Y-47955801D02*
X64744301Y-47955801D01*
G75*
G02*
X64894301Y-48105801I0J-150000D01*
G01*
X64894301Y-49855801D01*
G75*
G02*
X64744301Y-50005801I-150000J0D01*
G01*
X64444301Y-50005801D01*
G75*
G02*
X64294301Y-49855801I0J150000D01*
G01*
X64294301Y-48105801D01*
G75*
G02*
X64444301Y-47955801I150000J0D01*
G01*
G37*
G36*
G01*
X64444301Y-57255801D02*
X64744301Y-57255801D01*
G75*
G02*
X64894301Y-57405801I0J-150000D01*
G01*
X64894301Y-59155801D01*
G75*
G02*
X64744301Y-59305801I-150000J0D01*
G01*
X64444301Y-59305801D01*
G75*
G02*
X64294301Y-59155801I0J150000D01*
G01*
X64294301Y-57405801D01*
G75*
G02*
X64444301Y-57255801I150000J0D01*
G01*
G37*
G36*
G01*
X63174301Y-57255801D02*
X63474301Y-57255801D01*
G75*
G02*
X63624301Y-57405801I0J-150000D01*
G01*
X63624301Y-59155801D01*
G75*
G02*
X63474301Y-59305801I-150000J0D01*
G01*
X63174301Y-59305801D01*
G75*
G02*
X63024301Y-59155801I0J150000D01*
G01*
X63024301Y-57405801D01*
G75*
G02*
X63174301Y-57255801I150000J0D01*
G01*
G37*
G36*
G01*
X61904301Y-57255801D02*
X62204301Y-57255801D01*
G75*
G02*
X62354301Y-57405801I0J-150000D01*
G01*
X62354301Y-59155801D01*
G75*
G02*
X62204301Y-59305801I-150000J0D01*
G01*
X61904301Y-59305801D01*
G75*
G02*
X61754301Y-59155801I0J150000D01*
G01*
X61754301Y-57405801D01*
G75*
G02*
X61904301Y-57255801I150000J0D01*
G01*
G37*
G36*
G01*
X60634301Y-57255801D02*
X60934301Y-57255801D01*
G75*
G02*
X61084301Y-57405801I0J-150000D01*
G01*
X61084301Y-59155801D01*
G75*
G02*
X60934301Y-59305801I-150000J0D01*
G01*
X60634301Y-59305801D01*
G75*
G02*
X60484301Y-59155801I0J150000D01*
G01*
X60484301Y-57405801D01*
G75*
G02*
X60634301Y-57255801I150000J0D01*
G01*
G37*
G36*
G01*
X59364301Y-57255801D02*
X59664301Y-57255801D01*
G75*
G02*
X59814301Y-57405801I0J-150000D01*
G01*
X59814301Y-59155801D01*
G75*
G02*
X59664301Y-59305801I-150000J0D01*
G01*
X59364301Y-59305801D01*
G75*
G02*
X59214301Y-59155801I0J150000D01*
G01*
X59214301Y-57405801D01*
G75*
G02*
X59364301Y-57255801I150000J0D01*
G01*
G37*
G36*
G01*
X58094301Y-57255801D02*
X58394301Y-57255801D01*
G75*
G02*
X58544301Y-57405801I0J-150000D01*
G01*
X58544301Y-59155801D01*
G75*
G02*
X58394301Y-59305801I-150000J0D01*
G01*
X58094301Y-59305801D01*
G75*
G02*
X57944301Y-59155801I0J150000D01*
G01*
X57944301Y-57405801D01*
G75*
G02*
X58094301Y-57255801I150000J0D01*
G01*
G37*
G36*
G01*
X56824301Y-57255801D02*
X57124301Y-57255801D01*
G75*
G02*
X57274301Y-57405801I0J-150000D01*
G01*
X57274301Y-59155801D01*
G75*
G02*
X57124301Y-59305801I-150000J0D01*
G01*
X56824301Y-59305801D01*
G75*
G02*
X56674301Y-59155801I0J150000D01*
G01*
X56674301Y-57405801D01*
G75*
G02*
X56824301Y-57255801I150000J0D01*
G01*
G37*
G36*
G01*
X55554301Y-57255801D02*
X55854301Y-57255801D01*
G75*
G02*
X56004301Y-57405801I0J-150000D01*
G01*
X56004301Y-59155801D01*
G75*
G02*
X55854301Y-59305801I-150000J0D01*
G01*
X55554301Y-59305801D01*
G75*
G02*
X55404301Y-59155801I0J150000D01*
G01*
X55404301Y-57405801D01*
G75*
G02*
X55554301Y-57255801I150000J0D01*
G01*
G37*
%TD*%
D20*
%TO.C,J1*%
X55905400Y-38366700D03*
D21*
X57905400Y-38366700D03*
X59905400Y-38366700D03*
X61905400Y-38366700D03*
X63905400Y-38366700D03*
X65905400Y-38366700D03*
X67905400Y-38366700D03*
X69905400Y-38366700D03*
X71905400Y-38366700D03*
X73905400Y-38366700D03*
X75905400Y-38366700D03*
X77905400Y-38366700D03*
X79905400Y-38366700D03*
X81905400Y-38366700D03*
X83905400Y-38366700D03*
X85905400Y-38366700D03*
X87905400Y-38366700D03*
X89905400Y-38366700D03*
X91905400Y-38366700D03*
X93905400Y-38366700D03*
X95905400Y-38366700D03*
X97905400Y-38366700D03*
X99905400Y-38366700D03*
X101905400Y-38366700D03*
X103905400Y-38366700D03*
X105905400Y-38366700D03*
X107905400Y-38366700D03*
X109905400Y-38366700D03*
X111905400Y-38366700D03*
X113905400Y-38366700D03*
X115905400Y-38366700D03*
X117905400Y-38366700D03*
X119905400Y-38366700D03*
X121905400Y-38366700D03*
X123905400Y-38366700D03*
X125905400Y-38366700D03*
%TD*%
M02*
