%TF.GenerationSoftware,KiCad,Pcbnew,(5.1.9)-1*%
%TF.CreationDate,2021-04-30T23:03:23+10:00*%
%TF.ProjectId,RedPyKeeb_MCU,52656450-794b-4656-9562-5f4d43552e6b,rev?*%
%TF.SameCoordinates,Original*%
%TF.FileFunction,Soldermask,Top*%
%TF.FilePolarity,Negative*%
%FSLAX46Y46*%
G04 Gerber Fmt 4.6, Leading zero omitted, Abs format (unit mm)*
G04 Created by KiCad (PCBNEW (5.1.9)-1) date 2021-04-30 23:03:23*
%MOMM*%
%LPD*%
G01*
G04 APERTURE LIST*
%ADD10C,0.100000*%
%ADD11O,1.700000X1.700000*%
%ADD12R,1.700000X1.700000*%
%ADD13O,1.800000X1.800000*%
%ADD14O,1.500000X1.500000*%
%ADD15C,1.500000*%
%ADD16O,1.700000X1.950000*%
%ADD17R,1.500000X1.250000*%
%ADD18R,1.250000X1.500000*%
%ADD19O,1.950000X1.700000*%
%ADD20R,1.350000X1.350000*%
%ADD21O,1.350000X1.350000*%
G04 APERTURE END LIST*
D10*
%TO.C,U0*%
G36*
X65504847Y-90868091D02*
G01*
X65519436Y-90794749D01*
X65541143Y-90723190D01*
X65569760Y-90654103D01*
X65605011Y-90588154D01*
X65646556Y-90525977D01*
X65693995Y-90468172D01*
X65746872Y-90415295D01*
X65804677Y-90367856D01*
X65866854Y-90326311D01*
X65932803Y-90291060D01*
X66001890Y-90262443D01*
X66073449Y-90240736D01*
X66146791Y-90226147D01*
X66221210Y-90218818D01*
X66295990Y-90218818D01*
X66370409Y-90226147D01*
X66443751Y-90240736D01*
X66515310Y-90262443D01*
X66584397Y-90291060D01*
X66650346Y-90326311D01*
X66712523Y-90367856D01*
X66770328Y-90415295D01*
X66823205Y-90468172D01*
X66870644Y-90525977D01*
X66912189Y-90588154D01*
X66947440Y-90654103D01*
X66976057Y-90723190D01*
X66997764Y-90794749D01*
X67012353Y-90868091D01*
X67019682Y-90942510D01*
X67019682Y-91017290D01*
X67012353Y-91091709D01*
X66997764Y-91165051D01*
X66976057Y-91236610D01*
X66947440Y-91305697D01*
X66912189Y-91371646D01*
X66870644Y-91433823D01*
X66823205Y-91491628D01*
X66770328Y-91544505D01*
X66712523Y-91591944D01*
X66650346Y-91633489D01*
X66584397Y-91668740D01*
X66515310Y-91697357D01*
X66443751Y-91719064D01*
X66370409Y-91733653D01*
X66295990Y-91740982D01*
X66221210Y-91740982D01*
X66146791Y-91733653D01*
X66073449Y-91719064D01*
X66001890Y-91697357D01*
X65932803Y-91668740D01*
X65866854Y-91633489D01*
X65804677Y-91591944D01*
X65746872Y-91544505D01*
X65693995Y-91491628D01*
X65646556Y-91433823D01*
X65605011Y-91371646D01*
X65569760Y-91305697D01*
X65541143Y-91236610D01*
X65519436Y-91165051D01*
X65504847Y-91091709D01*
X65497518Y-91017290D01*
X65497518Y-90942510D01*
X65504847Y-90868091D01*
G37*
G36*
X63209561Y-91470145D02*
G01*
X63212406Y-91460766D01*
X63217027Y-91452121D01*
X63223245Y-91444545D01*
X63230821Y-91438327D01*
X63239466Y-91433706D01*
X63248845Y-91430861D01*
X63258600Y-91429900D01*
X64258600Y-91429900D01*
X64268355Y-91430861D01*
X64277734Y-91433706D01*
X64286379Y-91438327D01*
X64293955Y-91444545D01*
X64300173Y-91452121D01*
X64304794Y-91460766D01*
X64307639Y-91470145D01*
X64308600Y-91479900D01*
X64308600Y-92479900D01*
X64307639Y-92489655D01*
X64304794Y-92499034D01*
X64300173Y-92507679D01*
X64293955Y-92515255D01*
X64286379Y-92521473D01*
X64277734Y-92526094D01*
X64268355Y-92528939D01*
X64258600Y-92529900D01*
X63258600Y-92529900D01*
X63248845Y-92528939D01*
X63239466Y-92526094D01*
X63230821Y-92521473D01*
X63223245Y-92515255D01*
X63217027Y-92507679D01*
X63212406Y-92499034D01*
X63209561Y-92489655D01*
X63208600Y-92479900D01*
X63208600Y-91479900D01*
X63209561Y-91470145D01*
G37*
G36*
X63209561Y-89470145D02*
G01*
X63212406Y-89460766D01*
X63217027Y-89452121D01*
X63223245Y-89444545D01*
X63230821Y-89438327D01*
X63239466Y-89433706D01*
X63248845Y-89430861D01*
X63258600Y-89429900D01*
X64258600Y-89429900D01*
X64268355Y-89430861D01*
X64277734Y-89433706D01*
X64286379Y-89438327D01*
X64293955Y-89444545D01*
X64300173Y-89452121D01*
X64304794Y-89460766D01*
X64307639Y-89470145D01*
X64308600Y-89479900D01*
X64308600Y-90479900D01*
X64307639Y-90489655D01*
X64304794Y-90499034D01*
X64300173Y-90507679D01*
X64293955Y-90515255D01*
X64286379Y-90521473D01*
X64277734Y-90526094D01*
X64268355Y-90528939D01*
X64258600Y-90529900D01*
X63258600Y-90529900D01*
X63248845Y-90528939D01*
X63239466Y-90526094D01*
X63230821Y-90521473D01*
X63223245Y-90515255D01*
X63217027Y-90507679D01*
X63212406Y-90499034D01*
X63209561Y-90489655D01*
X63208600Y-90479900D01*
X63208600Y-89479900D01*
X63209561Y-89470145D01*
G37*
D11*
X63628600Y-82089900D03*
X66168600Y-82089900D03*
D12*
X68708600Y-82089900D03*
D11*
X71248600Y-82089900D03*
X73788600Y-82089900D03*
X76328600Y-82089900D03*
X78868600Y-82089900D03*
D12*
X81408600Y-82089900D03*
D11*
X83948600Y-82089900D03*
X86488600Y-82089900D03*
X89028600Y-82089900D03*
X91568600Y-82089900D03*
D12*
X94108600Y-82089900D03*
D11*
X96648600Y-82089900D03*
X99188600Y-82089900D03*
X101728600Y-82089900D03*
X104268600Y-82089900D03*
D12*
X106808600Y-82089900D03*
D11*
X109348600Y-82089900D03*
X111888600Y-82089900D03*
X111888600Y-99869900D03*
X109348600Y-99869900D03*
D12*
X106808600Y-99869900D03*
D11*
X104268600Y-99869900D03*
X101728600Y-99869900D03*
X99188600Y-99869900D03*
X96648600Y-99869900D03*
D12*
X94108600Y-99869900D03*
D11*
X91568600Y-99869900D03*
X89028600Y-99869900D03*
X86488600Y-99869900D03*
X83948600Y-99869900D03*
D12*
X81408600Y-99869900D03*
D11*
X78868600Y-99869900D03*
X76328600Y-99869900D03*
X73788600Y-99869900D03*
X71248600Y-99869900D03*
D12*
X68708600Y-99869900D03*
D11*
X66168600Y-99869900D03*
X63628600Y-99869900D03*
D13*
X63758600Y-88254900D03*
X63758600Y-93704900D03*
D14*
X66788600Y-88554900D03*
X66788600Y-93404900D03*
D11*
X111658600Y-88439900D03*
D12*
X111658600Y-90979900D03*
D11*
X111658600Y-93519900D03*
D15*
X63758600Y-89979900D03*
X63758600Y-91979900D03*
D10*
G36*
X65516718Y-90869852D02*
G01*
X65531077Y-90797665D01*
X65552442Y-90727233D01*
X65580608Y-90659234D01*
X65615304Y-90594323D01*
X65656194Y-90533126D01*
X65702887Y-90476231D01*
X65709817Y-90469301D01*
X65712406Y-90460766D01*
X65717027Y-90452121D01*
X65723245Y-90444545D01*
X65730821Y-90438327D01*
X65739466Y-90433706D01*
X65748001Y-90431117D01*
X65754931Y-90424187D01*
X65811826Y-90377494D01*
X65873023Y-90336604D01*
X65937934Y-90301908D01*
X66005933Y-90273742D01*
X66076365Y-90252377D01*
X66148552Y-90238018D01*
X66221799Y-90230803D01*
X66295401Y-90230803D01*
X66368648Y-90238018D01*
X66440835Y-90252377D01*
X66511267Y-90273742D01*
X66579266Y-90301908D01*
X66644177Y-90336604D01*
X66705374Y-90377494D01*
X66762269Y-90424187D01*
X66769199Y-90431117D01*
X66777734Y-90433706D01*
X66786379Y-90438327D01*
X66793955Y-90444545D01*
X66800173Y-90452121D01*
X66804794Y-90460766D01*
X66807383Y-90469301D01*
X66814313Y-90476231D01*
X66861006Y-90533126D01*
X66901896Y-90594323D01*
X66936592Y-90659234D01*
X66964758Y-90727233D01*
X66986123Y-90797665D01*
X67000482Y-90869852D01*
X67007697Y-90943099D01*
X67007697Y-91016701D01*
X67000482Y-91089948D01*
X66986123Y-91162135D01*
X66964758Y-91232567D01*
X66936592Y-91300566D01*
X66901896Y-91365477D01*
X66861006Y-91426674D01*
X66814313Y-91483569D01*
X66807383Y-91490499D01*
X66804794Y-91499034D01*
X66800173Y-91507679D01*
X66793955Y-91515255D01*
X66786379Y-91521473D01*
X66777734Y-91526094D01*
X66769199Y-91528683D01*
X66762269Y-91535613D01*
X66705374Y-91582306D01*
X66644177Y-91623196D01*
X66579266Y-91657892D01*
X66511267Y-91686058D01*
X66440835Y-91707423D01*
X66368648Y-91721782D01*
X66295401Y-91728997D01*
X66221799Y-91728997D01*
X66148552Y-91721782D01*
X66076365Y-91707423D01*
X66005933Y-91686058D01*
X65937934Y-91657892D01*
X65873023Y-91623196D01*
X65811826Y-91582306D01*
X65754931Y-91535613D01*
X65748001Y-91528683D01*
X65739466Y-91526094D01*
X65730821Y-91521473D01*
X65723245Y-91515255D01*
X65717027Y-91507679D01*
X65712406Y-91499034D01*
X65709817Y-91490499D01*
X65702887Y-91483569D01*
X65656194Y-91426674D01*
X65615304Y-91365477D01*
X65580608Y-91300566D01*
X65552442Y-91232567D01*
X65531077Y-91162135D01*
X65516718Y-91089948D01*
X65509503Y-91016701D01*
X65509503Y-90943099D01*
X65516718Y-90869852D01*
G37*
%TD*%
D16*
%TO.C,J2*%
X115177600Y-96672400D03*
X112677600Y-96672400D03*
X110177600Y-96672400D03*
X107677600Y-96672400D03*
X105177600Y-96672400D03*
X102677600Y-96672400D03*
G36*
G01*
X99327600Y-97397400D02*
X99327600Y-95947400D01*
G75*
G02*
X99577600Y-95697400I250000J0D01*
G01*
X100777600Y-95697400D01*
G75*
G02*
X101027600Y-95947400I0J-250000D01*
G01*
X101027600Y-97397400D01*
G75*
G02*
X100777600Y-97647400I-250000J0D01*
G01*
X99577600Y-97647400D01*
G75*
G02*
X99327600Y-97397400I0J250000D01*
G01*
G37*
%TD*%
D17*
%TO.C,C1*%
X77718600Y-50952400D03*
X80218600Y-50952400D03*
%TD*%
D18*
%TO.C,C2*%
X108521500Y-57968200D03*
X108521500Y-55468200D03*
%TD*%
D19*
%TO.C,J0*%
X58267600Y-94687400D03*
X58267600Y-92187400D03*
X58267600Y-89687400D03*
G36*
G01*
X57542600Y-86337400D02*
X58992600Y-86337400D01*
G75*
G02*
X59242600Y-86587400I0J-250000D01*
G01*
X59242600Y-87787400D01*
G75*
G02*
X58992600Y-88037400I-250000J0D01*
G01*
X57542600Y-88037400D01*
G75*
G02*
X57292600Y-87787400I0J250000D01*
G01*
X57292600Y-86587400D01*
G75*
G02*
X57542600Y-86337400I250000J0D01*
G01*
G37*
%TD*%
%TO.C,C10*%
G36*
G01*
X59029000Y-61247000D02*
X59029000Y-62197000D01*
G75*
G02*
X58779000Y-62447000I-250000J0D01*
G01*
X58104000Y-62447000D01*
G75*
G02*
X57854000Y-62197000I0J250000D01*
G01*
X57854000Y-61247000D01*
G75*
G02*
X58104000Y-60997000I250000J0D01*
G01*
X58779000Y-60997000D01*
G75*
G02*
X59029000Y-61247000I0J-250000D01*
G01*
G37*
G36*
G01*
X56954000Y-61247000D02*
X56954000Y-62197000D01*
G75*
G02*
X56704000Y-62447000I-250000J0D01*
G01*
X56029000Y-62447000D01*
G75*
G02*
X55779000Y-62197000I0J250000D01*
G01*
X55779000Y-61247000D01*
G75*
G02*
X56029000Y-60997000I250000J0D01*
G01*
X56704000Y-60997000D01*
G75*
G02*
X56954000Y-61247000I0J-250000D01*
G01*
G37*
%TD*%
%TO.C,C6*%
G36*
G01*
X51783000Y-69493800D02*
X50833000Y-69493800D01*
G75*
G02*
X50583000Y-69243800I0J250000D01*
G01*
X50583000Y-68568800D01*
G75*
G02*
X50833000Y-68318800I250000J0D01*
G01*
X51783000Y-68318800D01*
G75*
G02*
X52033000Y-68568800I0J-250000D01*
G01*
X52033000Y-69243800D01*
G75*
G02*
X51783000Y-69493800I-250000J0D01*
G01*
G37*
G36*
G01*
X51783000Y-67418800D02*
X50833000Y-67418800D01*
G75*
G02*
X50583000Y-67168800I0J250000D01*
G01*
X50583000Y-66493800D01*
G75*
G02*
X50833000Y-66243800I250000J0D01*
G01*
X51783000Y-66243800D01*
G75*
G02*
X52033000Y-66493800I0J-250000D01*
G01*
X52033000Y-67168800D01*
G75*
G02*
X51783000Y-67418800I-250000J0D01*
G01*
G37*
%TD*%
%TO.C,C11*%
G36*
G01*
X51821100Y-72409900D02*
X50871100Y-72409900D01*
G75*
G02*
X50621100Y-72159900I0J250000D01*
G01*
X50621100Y-71484900D01*
G75*
G02*
X50871100Y-71234900I250000J0D01*
G01*
X51821100Y-71234900D01*
G75*
G02*
X52071100Y-71484900I0J-250000D01*
G01*
X52071100Y-72159900D01*
G75*
G02*
X51821100Y-72409900I-250000J0D01*
G01*
G37*
G36*
G01*
X51821100Y-74484900D02*
X50871100Y-74484900D01*
G75*
G02*
X50621100Y-74234900I0J250000D01*
G01*
X50621100Y-73559900D01*
G75*
G02*
X50871100Y-73309900I250000J0D01*
G01*
X51821100Y-73309900D01*
G75*
G02*
X52071100Y-73559900I0J-250000D01*
G01*
X52071100Y-74234900D01*
G75*
G02*
X51821100Y-74484900I-250000J0D01*
G01*
G37*
%TD*%
D20*
%TO.C,J1*%
X55905400Y-38366700D03*
D21*
X57905400Y-38366700D03*
X59905400Y-38366700D03*
X61905400Y-38366700D03*
X63905400Y-38366700D03*
X65905400Y-38366700D03*
X67905400Y-38366700D03*
X69905400Y-38366700D03*
X71905400Y-38366700D03*
X73905400Y-38366700D03*
X75905400Y-38366700D03*
X77905400Y-38366700D03*
X79905400Y-38366700D03*
X81905400Y-38366700D03*
X83905400Y-38366700D03*
X85905400Y-38366700D03*
X87905400Y-38366700D03*
X89905400Y-38366700D03*
X91905400Y-38366700D03*
X93905400Y-38366700D03*
X95905400Y-38366700D03*
X97905400Y-38366700D03*
X99905400Y-38366700D03*
X101905400Y-38366700D03*
X103905400Y-38366700D03*
X105905400Y-38366700D03*
X107905400Y-38366700D03*
X109905400Y-38366700D03*
X111905400Y-38366700D03*
X113905400Y-38366700D03*
X115905400Y-38366700D03*
X117905400Y-38366700D03*
X119905400Y-38366700D03*
X121905400Y-38366700D03*
X123905400Y-38366700D03*
X125905400Y-38366700D03*
%TD*%
%TO.C,U7*%
G36*
G01*
X53764301Y-72762699D02*
X53464301Y-72762699D01*
G75*
G02*
X53314301Y-72612699I0J150000D01*
G01*
X53314301Y-70962699D01*
G75*
G02*
X53464301Y-70812699I150000J0D01*
G01*
X53764301Y-70812699D01*
G75*
G02*
X53914301Y-70962699I0J-150000D01*
G01*
X53914301Y-72612699D01*
G75*
G02*
X53764301Y-72762699I-150000J0D01*
G01*
G37*
G36*
G01*
X55034301Y-72762699D02*
X54734301Y-72762699D01*
G75*
G02*
X54584301Y-72612699I0J150000D01*
G01*
X54584301Y-70962699D01*
G75*
G02*
X54734301Y-70812699I150000J0D01*
G01*
X55034301Y-70812699D01*
G75*
G02*
X55184301Y-70962699I0J-150000D01*
G01*
X55184301Y-72612699D01*
G75*
G02*
X55034301Y-72762699I-150000J0D01*
G01*
G37*
G36*
G01*
X56304301Y-72762699D02*
X56004301Y-72762699D01*
G75*
G02*
X55854301Y-72612699I0J150000D01*
G01*
X55854301Y-70962699D01*
G75*
G02*
X56004301Y-70812699I150000J0D01*
G01*
X56304301Y-70812699D01*
G75*
G02*
X56454301Y-70962699I0J-150000D01*
G01*
X56454301Y-72612699D01*
G75*
G02*
X56304301Y-72762699I-150000J0D01*
G01*
G37*
G36*
G01*
X57574301Y-72762699D02*
X57274301Y-72762699D01*
G75*
G02*
X57124301Y-72612699I0J150000D01*
G01*
X57124301Y-70962699D01*
G75*
G02*
X57274301Y-70812699I150000J0D01*
G01*
X57574301Y-70812699D01*
G75*
G02*
X57724301Y-70962699I0J-150000D01*
G01*
X57724301Y-72612699D01*
G75*
G02*
X57574301Y-72762699I-150000J0D01*
G01*
G37*
G36*
G01*
X58844301Y-72762699D02*
X58544301Y-72762699D01*
G75*
G02*
X58394301Y-72612699I0J150000D01*
G01*
X58394301Y-70962699D01*
G75*
G02*
X58544301Y-70812699I150000J0D01*
G01*
X58844301Y-70812699D01*
G75*
G02*
X58994301Y-70962699I0J-150000D01*
G01*
X58994301Y-72612699D01*
G75*
G02*
X58844301Y-72762699I-150000J0D01*
G01*
G37*
G36*
G01*
X60114301Y-72762699D02*
X59814301Y-72762699D01*
G75*
G02*
X59664301Y-72612699I0J150000D01*
G01*
X59664301Y-70962699D01*
G75*
G02*
X59814301Y-70812699I150000J0D01*
G01*
X60114301Y-70812699D01*
G75*
G02*
X60264301Y-70962699I0J-150000D01*
G01*
X60264301Y-72612699D01*
G75*
G02*
X60114301Y-72762699I-150000J0D01*
G01*
G37*
G36*
G01*
X61384301Y-72762699D02*
X61084301Y-72762699D01*
G75*
G02*
X60934301Y-72612699I0J150000D01*
G01*
X60934301Y-70962699D01*
G75*
G02*
X61084301Y-70812699I150000J0D01*
G01*
X61384301Y-70812699D01*
G75*
G02*
X61534301Y-70962699I0J-150000D01*
G01*
X61534301Y-72612699D01*
G75*
G02*
X61384301Y-72762699I-150000J0D01*
G01*
G37*
G36*
G01*
X61384301Y-67812699D02*
X61084301Y-67812699D01*
G75*
G02*
X60934301Y-67662699I0J150000D01*
G01*
X60934301Y-66012699D01*
G75*
G02*
X61084301Y-65862699I150000J0D01*
G01*
X61384301Y-65862699D01*
G75*
G02*
X61534301Y-66012699I0J-150000D01*
G01*
X61534301Y-67662699D01*
G75*
G02*
X61384301Y-67812699I-150000J0D01*
G01*
G37*
G36*
G01*
X60114301Y-67812699D02*
X59814301Y-67812699D01*
G75*
G02*
X59664301Y-67662699I0J150000D01*
G01*
X59664301Y-66012699D01*
G75*
G02*
X59814301Y-65862699I150000J0D01*
G01*
X60114301Y-65862699D01*
G75*
G02*
X60264301Y-66012699I0J-150000D01*
G01*
X60264301Y-67662699D01*
G75*
G02*
X60114301Y-67812699I-150000J0D01*
G01*
G37*
G36*
G01*
X58844301Y-67812699D02*
X58544301Y-67812699D01*
G75*
G02*
X58394301Y-67662699I0J150000D01*
G01*
X58394301Y-66012699D01*
G75*
G02*
X58544301Y-65862699I150000J0D01*
G01*
X58844301Y-65862699D01*
G75*
G02*
X58994301Y-66012699I0J-150000D01*
G01*
X58994301Y-67662699D01*
G75*
G02*
X58844301Y-67812699I-150000J0D01*
G01*
G37*
G36*
G01*
X57574301Y-67812699D02*
X57274301Y-67812699D01*
G75*
G02*
X57124301Y-67662699I0J150000D01*
G01*
X57124301Y-66012699D01*
G75*
G02*
X57274301Y-65862699I150000J0D01*
G01*
X57574301Y-65862699D01*
G75*
G02*
X57724301Y-66012699I0J-150000D01*
G01*
X57724301Y-67662699D01*
G75*
G02*
X57574301Y-67812699I-150000J0D01*
G01*
G37*
G36*
G01*
X56304301Y-67812699D02*
X56004301Y-67812699D01*
G75*
G02*
X55854301Y-67662699I0J150000D01*
G01*
X55854301Y-66012699D01*
G75*
G02*
X56004301Y-65862699I150000J0D01*
G01*
X56304301Y-65862699D01*
G75*
G02*
X56454301Y-66012699I0J-150000D01*
G01*
X56454301Y-67662699D01*
G75*
G02*
X56304301Y-67812699I-150000J0D01*
G01*
G37*
G36*
G01*
X55034301Y-67812699D02*
X54734301Y-67812699D01*
G75*
G02*
X54584301Y-67662699I0J150000D01*
G01*
X54584301Y-66012699D01*
G75*
G02*
X54734301Y-65862699I150000J0D01*
G01*
X55034301Y-65862699D01*
G75*
G02*
X55184301Y-66012699I0J-150000D01*
G01*
X55184301Y-67662699D01*
G75*
G02*
X55034301Y-67812699I-150000J0D01*
G01*
G37*
G36*
G01*
X53764301Y-67812699D02*
X53464301Y-67812699D01*
G75*
G02*
X53314301Y-67662699I0J150000D01*
G01*
X53314301Y-66012699D01*
G75*
G02*
X53464301Y-65862699I150000J0D01*
G01*
X53764301Y-65862699D01*
G75*
G02*
X53914301Y-66012699I0J-150000D01*
G01*
X53914301Y-67662699D01*
G75*
G02*
X53764301Y-67812699I-150000J0D01*
G01*
G37*
%TD*%
M02*
