%TF.GenerationSoftware,KiCad,Pcbnew,(5.1.9)-1*%
%TF.CreationDate,2021-05-02T00:53:09+10:00*%
%TF.ProjectId,RedPyKeeb_MCU,52656450-794b-4656-9562-5f4d43552e6b,rev?*%
%TF.SameCoordinates,Original*%
%TF.FileFunction,Other,User*%
%FSLAX46Y46*%
G04 Gerber Fmt 4.6, Leading zero omitted, Abs format (unit mm)*
G04 Created by KiCad (PCBNEW (5.1.9)-1) date 2021-05-02 00:53:09*
%MOMM*%
%LPD*%
G01*
G04 APERTURE LIST*
%ADD10C,0.120000*%
%ADD11C,0.050000*%
G04 APERTURE END LIST*
D10*
%TO.C,U0*%
X113758600Y-79979900D02*
X61758600Y-79979900D01*
X113758600Y-101979900D02*
X113758600Y-79979900D01*
X61758600Y-101979900D02*
X113758600Y-101979900D01*
X61758600Y-79979900D02*
X61758600Y-101979900D01*
D11*
%TO.C,U2*%
X102515300Y-41549200D02*
X114375300Y-41549200D01*
X102515300Y-59949200D02*
X102515300Y-41549200D01*
X114375300Y-59949200D02*
X102515300Y-59949200D01*
X114375300Y-41549200D02*
X114375300Y-59949200D01*
%TO.C,J0*%
X51067600Y-97687400D02*
X51067600Y-84187400D01*
X60267600Y-97687400D02*
X51067600Y-97687400D01*
X60267600Y-84187400D02*
X60267600Y-97687400D01*
X51067600Y-84187400D02*
X60267600Y-84187400D01*
%TO.C,U1*%
X90200600Y-44590600D02*
X90200600Y-56450600D01*
X71800600Y-44590600D02*
X90200600Y-44590600D01*
X71800600Y-56450600D02*
X71800600Y-44590600D01*
X90200600Y-56450600D02*
X71800600Y-56450600D01*
%TO.C,U3*%
X92311600Y-65464200D02*
X92311600Y-72864200D01*
X83151600Y-65464200D02*
X92311600Y-65464200D01*
X83151600Y-72864200D02*
X83151600Y-65464200D01*
X92311600Y-72864200D02*
X83151600Y-72864200D01*
%TO.C,C5*%
X92542800Y-65760200D02*
X92542800Y-69520200D01*
X94502800Y-65760200D02*
X92542800Y-65760200D01*
X94502800Y-69520200D02*
X94502800Y-65760200D01*
X92542800Y-69520200D02*
X94502800Y-69520200D01*
%TO.C,C7*%
X92479300Y-71030700D02*
X92479300Y-74790700D01*
X94439300Y-71030700D02*
X92479300Y-71030700D01*
X94439300Y-74790700D02*
X94439300Y-71030700D01*
X92479300Y-74790700D02*
X94439300Y-74790700D01*
%TO.C,C3*%
X76909100Y-65887200D02*
X76909100Y-69647200D01*
X78869100Y-65887200D02*
X76909100Y-65887200D01*
X78869100Y-69647200D02*
X78869100Y-65887200D01*
X76909100Y-69647200D02*
X78869100Y-69647200D01*
%TO.C,C4*%
X77036100Y-74803400D02*
X78996100Y-74803400D01*
X78996100Y-74803400D02*
X78996100Y-71043400D01*
X78996100Y-71043400D02*
X77036100Y-71043400D01*
X77036100Y-71043400D02*
X77036100Y-74803400D01*
%TO.C,C8*%
X107655800Y-69367800D02*
X109615800Y-69367800D01*
X109615800Y-69367800D02*
X109615800Y-65607800D01*
X109615800Y-65607800D02*
X107655800Y-65607800D01*
X107655800Y-65607800D02*
X107655800Y-69367800D01*
%TO.C,C9*%
X107516100Y-70713200D02*
X107516100Y-74473200D01*
X109476100Y-70713200D02*
X107516100Y-70713200D01*
X109476100Y-74473200D02*
X109476100Y-70713200D01*
X107516100Y-74473200D02*
X109476100Y-74473200D01*
%TO.C,U4*%
X76462000Y-65565800D02*
X76462000Y-72965800D01*
X67302000Y-65565800D02*
X76462000Y-65565800D01*
X67302000Y-72965800D02*
X67302000Y-65565800D01*
X76462000Y-72965800D02*
X67302000Y-72965800D01*
%TO.C,U5*%
X107183300Y-72648300D02*
X98023300Y-72648300D01*
X98023300Y-72648300D02*
X98023300Y-65248300D01*
X98023300Y-65248300D02*
X107183300Y-65248300D01*
X107183300Y-65248300D02*
X107183300Y-72648300D01*
%TO.C,U6*%
X54749301Y-59560801D02*
X54749301Y-47700801D01*
X65549301Y-59560801D02*
X54749301Y-59560801D01*
X65549301Y-47700801D02*
X65549301Y-59560801D01*
X54749301Y-47700801D02*
X65549301Y-47700801D01*
%TD*%
M02*
