M48
; DRILL file {KiCad (5.1.9)-1} date 04/30/21 23:03:25
; FORMAT={-:-/ absolute / inch / decimal}
; #@! TF.CreationDate,2021-04-30T23:03:25+10:00
; #@! TF.GenerationSoftware,Kicad,Pcbnew,(5.1.9)-1
; #@! TF.FileFunction,Plated,1,4,PTH
FMAT,2
INCH
T1C0.0157
T2C0.0315
T3C0.0374
T4C0.0402
%
G90
G05
T1
X1.932Y-2.804
X2.0168Y-2.6272
X2.02Y-2.7128
X2.0215Y-2.8277
X2.116Y-2.348
X2.1608Y-3.1648
X2.193Y-2.294
X2.2108Y-3.0648
X2.218Y-2.43
X2.2608Y-2.9868
X2.302Y-2.43
X2.31Y-2.63
X2.3108Y-2.9032
X2.3425Y-2.2945
X2.41Y-2.83
X2.464Y-2.602
X2.493Y-2.2945
X2.508Y-2.602
X2.554Y-2.602
X2.617Y-2.804
X2.93Y-2.628
X2.93Y-2.824
X3.008Y-2.548
X3.064Y-2.005
X3.0665Y-2.6272
X3.0715Y-2.8302
X3.106Y-2.362
X3.154Y-2.858
X3.1585Y-2.0065
X3.27Y-2.066
X3.356Y-2.102
X3.404Y-2.626
X3.454Y-2.626
X3.504Y-2.626
X3.528Y-2.288
X3.554Y-2.626
X3.598Y-2.328
X3.6795Y-2.8297
X3.682Y-2.6222
X3.769Y-2.861
X3.8895Y-2.6171
X3.99Y-2.466
X3.99Y-2.618
X4.0051Y-3.0519
X4.0245Y-2.938
X4.0875Y-2.4205
X4.09Y-2.5
X4.09Y-2.618
X4.14Y-2.616
X4.142Y-2.536
X4.2715Y-2.8172
X4.272Y-2.1845
X4.2725Y-2.2825
X4.308Y-2.99
X4.355Y-2.798
X4.4051Y-3.1009
X4.452Y-2.27
X4.499Y-2.671
T2
X2.201Y-1.5105
X2.2797Y-1.5105
X2.3585Y-1.5105
X2.4372Y-1.5105
X2.516Y-1.5105
X2.5947Y-1.5105
X2.6734Y-1.5105
X2.7522Y-1.5105
X2.8309Y-1.5105
X2.9097Y-1.5105
X2.9884Y-1.5105
X3.0671Y-1.5105
X3.1459Y-1.5105
X3.2246Y-1.5105
X3.3034Y-1.5105
X3.3821Y-1.5105
X3.4608Y-1.5105
X3.5396Y-1.5105
X3.6183Y-1.5105
X3.6971Y-1.5105
X3.7758Y-1.5105
X3.8545Y-1.5105
X3.9333Y-1.5105
X4.012Y-1.5105
X4.0908Y-1.5105
X4.1695Y-1.5105
X4.2482Y-1.5105
X4.327Y-1.5105
X4.4057Y-1.5105
X4.4845Y-1.5105
X4.5632Y-1.5105
X4.6419Y-1.5105
X4.7207Y-1.5105
X4.7994Y-1.5105
X4.8782Y-1.5105
X4.9569Y-1.5105
T3
X2.294Y-3.4326
X2.294Y-3.531
X2.294Y-3.6294
X2.294Y-3.7279
X3.944Y-3.806
X4.0424Y-3.806
X4.1409Y-3.806
X4.2393Y-3.806
X4.3377Y-3.806
X4.4361Y-3.806
X4.5346Y-3.806
T4
X2.5051Y-3.2319
X2.5051Y-3.9319
X2.5102Y-3.5425
X2.5102Y-3.6213
X2.6051Y-3.2319
X2.6051Y-3.9319
X2.6086Y-3.5819
X2.7051Y-3.2319
X2.7051Y-3.9319
X2.8051Y-3.2319
X2.8051Y-3.9319
X2.9051Y-3.2319
X2.9051Y-3.9319
X3.0051Y-3.2319
X3.0051Y-3.9319
X3.1051Y-3.2319
X3.1051Y-3.9319
X3.2051Y-3.2319
X3.2051Y-3.9319
X3.3051Y-3.2319
X3.3051Y-3.9319
X3.4051Y-3.2319
X3.4051Y-3.9319
X3.5051Y-3.2319
X3.5051Y-3.9319
X3.6051Y-3.2319
X3.6051Y-3.9319
X3.7051Y-3.2319
X3.7051Y-3.9319
X3.8051Y-3.2319
X3.8051Y-3.9319
X3.9051Y-3.2319
X3.9051Y-3.9319
X4.0051Y-3.2319
X4.0051Y-3.9319
X4.1051Y-3.2319
X4.1051Y-3.9319
X4.2051Y-3.2319
X4.2051Y-3.9319
X4.3051Y-3.2319
X4.3051Y-3.9319
X4.396Y-3.4819
X4.396Y-3.5819
X4.396Y-3.6819
X4.4051Y-3.2319
X4.4051Y-3.9319
T0
M30
