M48
; DRILL file {KiCad (5.1.9)-1} date 04/16/21 18:36:54
; FORMAT={-:-/ absolute / inch / decimal}
; #@! TF.CreationDate,2021-04-16T18:36:54+10:00
; #@! TF.GenerationSoftware,Kicad,Pcbnew,(5.1.9)-1
; #@! TF.FileFunction,Plated,1,4,PTH
FMAT,2
INCH
T1C0.0157
T2C0.0276
T3C0.0300
T4C0.0374
T5C0.0402
%
G90
G05
T1
X3.2765Y-3.5345
X3.3615Y-3.7005
X3.63Y-4.545
X3.808Y-4.91
X3.8253Y-5.6607
X4.115Y-4.495
X4.12Y-4.545
X4.159Y-7.951
X4.245Y-4.45
X4.245Y-4.5492
X4.29Y-6.41
X4.29Y-7.214
X4.3095Y-3.8735
X4.345Y-4.145
X4.345Y-4.195
X4.345Y-4.245
X4.345Y-4.295
X4.345Y-4.345
X4.345Y-4.395
X4.35Y-4.095
X4.5Y-4.62
X4.8447Y-3.9908
X4.8625Y-3.61
X4.8875Y-3.99
X4.956Y-3.57
X5.11Y-4.25
X5.34Y-4.89
X5.55Y-7.1903
X5.6342Y-5.6483
X5.8012Y-6.4162
X5.963Y-3.882
X6.8761Y-4.8939
X6.972Y-7.958
X7.0601Y-7.2001
X7.128Y-5.644
X7.2711Y-6.3989
X7.9765Y-3.8785
X8.394Y-4.904
X8.6729Y-5.6491
X8.94Y-6.41
X9.328Y-7.2
X9.328Y-7.962
X10.252Y-5.646
X10.462Y-6.426
X10.6275Y-4.8825
X10.856Y-7.19
X11.377Y-3.874
X12.3067Y-3.8493
X12.562Y-7.976
X12.89Y-7.204
X13.096Y-6.414
X13.155Y-4.899
X13.313Y-5.651
X14.275Y-8.46
X14.58Y-8.155
X15.2799Y-4.1365
X15.3821Y-4.8879
X15.3821Y-5.6454
X15.4137Y-3.8563
X15.6475Y-3.2025
X15.6975Y-3.2125
X15.7475Y-3.2125
X15.7975Y-3.2075
X15.8475Y-3.2175
X15.8975Y-3.2125
X15.9475Y-3.2125
X16.0499Y-4.1365
X16.06Y-3.315
X16.1387Y-7.1987
X16.1595Y-3.3155
X16.2Y-3.135
X16.25Y-3.135
X16.8099Y-4.1371
X17.003Y-3.3515
X17.0137Y-7.9463
X17.196Y-3.23
X17.2855Y-3.2048
X17.3Y-4.505
X17.3355Y-4.4275
X17.411Y-3.4795
X17.511Y-3.4795
X17.561Y-3.4845
X17.561Y-3.5635
X17.7354Y-4.1365
X17.76Y-3.456
X17.8375Y-3.875
X17.8375Y-4.6175
X17.8375Y-4.89
X17.8375Y-5.6475
X17.8375Y-6.415
X18.013Y-3.0709
X18.073Y-3.4871
X18.153Y-3.4871
X18.4954Y-4.1365
X18.5925Y-7.1775
X18.5925Y-7.8595
X18.842Y-5.576
X19.2554Y-4.1365
X19.5366Y-4.8174
X19.642Y-6.01
X19.956Y-7.49
X20.0154Y-4.1365
T2
X3.1805Y-4.9485
X3.1805Y-5.2555
X3.183Y-3.931
X3.183Y-4.238
X3.2755Y-8.0135
X3.2755Y-8.3205
X3.358Y-5.7035
X3.358Y-6.0105
X3.458Y-6.4735
X3.458Y-6.7805
X3.6455Y-7.251
X3.6455Y-7.558
X3.9405Y-4.9485
X3.9405Y-5.2555
X4.2355Y-8.0135
X4.2355Y-8.3205
X4.3005Y-5.7035
X4.3005Y-6.0105
X4.493Y-6.4685
X4.493Y-6.7755
X4.6849Y-3.933
X4.6849Y-4.24
X4.6855Y-4.946
X4.6855Y-5.253
X4.863Y-7.2485
X4.863Y-7.5555
X5.0605Y-5.7035
X5.0605Y-6.0105
X5.1955Y-8.0135
X5.1955Y-8.3205
X5.253Y-6.4685
X5.253Y-6.7755
X5.4255Y-4.946
X5.4255Y-5.253
X5.4449Y-3.931
X5.4449Y-4.238
X5.623Y-7.2485
X5.623Y-7.5555
X5.8205Y-5.7035
X5.8205Y-6.0105
X6.013Y-6.4685
X6.013Y-6.7755
X6.1855Y-4.946
X6.1855Y-5.253
X6.2049Y-3.931
X6.2049Y-4.238
X6.383Y-7.2485
X6.383Y-7.5555
X6.5805Y-5.7035
X6.5805Y-6.0105
X6.773Y-6.4685
X6.773Y-6.7755
X6.9455Y-4.946
X6.9455Y-5.253
X6.9649Y-3.931
X6.9649Y-4.238
X7.143Y-7.2485
X7.143Y-7.5555
X7.3405Y-5.7035
X7.3405Y-6.0105
X7.533Y-6.4705
X7.533Y-6.7775
X7.7055Y-4.946
X7.7055Y-5.253
X7.903Y-7.2505
X7.903Y-7.5575
X8.0255Y-8.0135
X8.0255Y-8.3205
X8.1005Y-5.7035
X8.1005Y-6.0105
X8.2049Y-3.931
X8.2049Y-4.238
X8.293Y-6.4685
X8.293Y-6.7755
X8.4655Y-4.946
X8.4655Y-5.253
X8.663Y-7.2485
X8.663Y-7.5555
X8.8605Y-5.7055
X8.8605Y-6.0125
X8.9649Y-3.931
X8.9649Y-4.238
X9.053Y-6.4685
X9.053Y-6.7755
X9.2255Y-4.946
X9.2255Y-5.253
X9.423Y-7.2505
X9.423Y-7.5575
X9.6205Y-5.7035
X9.6205Y-6.0105
X9.7249Y-3.931
X9.7249Y-4.238
X9.813Y-6.4685
X9.813Y-6.7755
X9.9855Y-4.948
X9.9855Y-5.255
X10.183Y-7.2485
X10.183Y-7.5555
X10.3805Y-5.7035
X10.3805Y-6.0105
X10.4849Y-3.933
X10.4849Y-4.24
X10.573Y-6.4685
X10.573Y-6.7755
X10.7455Y-4.946
X10.7455Y-5.253
X10.8505Y-8.016
X10.8505Y-8.323
X10.943Y-7.2485
X10.943Y-7.5555
X11.1405Y-5.7055
X11.1405Y-6.0125
X11.333Y-6.4685
X11.333Y-6.7755
X11.5055Y-4.946
X11.5055Y-5.253
X11.5249Y-3.931
X11.5249Y-4.238
X11.703Y-7.2505
X11.703Y-7.5575
X11.8005Y-8.0135
X11.8005Y-8.3205
X11.9005Y-5.7035
X11.9005Y-6.0105
X12.093Y-6.4685
X12.093Y-6.7755
X12.2655Y-4.948
X12.2655Y-5.255
X12.2849Y-3.931
X12.2849Y-4.238
X12.6605Y-5.7035
X12.6605Y-6.0105
X12.753Y-8.0135
X12.753Y-8.3205
X13.0449Y-3.931
X13.0449Y-4.238
X13.143Y-7.2485
X13.143Y-7.5555
X13.333Y-6.471
X13.333Y-6.778
X13.4055Y-4.946
X13.4055Y-5.253
X13.598Y-5.706
X13.598Y-6.013
X13.7005Y-8.0135
X13.7005Y-8.3205
X13.8049Y-3.931
X13.8049Y-4.238
X14.689Y-8.0085
X14.689Y-8.3155
X14.6915Y-4.946
X14.6915Y-5.253
X14.6935Y-3.931
X14.6935Y-4.238
X14.7015Y-5.7035
X14.7015Y-6.0105
X15.449Y-7.2485
X15.449Y-7.5555
X15.449Y-8.0085
X15.449Y-8.3155
X15.4515Y-4.946
X15.4515Y-5.253
X15.4515Y-5.7035
X15.4515Y-6.0105
X15.4735Y-3.931
X15.4735Y-4.238
X16.209Y-8.0085
X16.209Y-8.3155
X16.2115Y-4.946
X16.2115Y-5.253
X16.2215Y-5.7035
X16.2215Y-6.0105
X16.2235Y-3.931
X16.2235Y-4.238
X17.1415Y-7.2285
X17.1415Y-7.5355
X17.149Y-3.931
X17.149Y-4.238
X17.1515Y-4.946
X17.1515Y-5.253
X17.1515Y-5.7085
X17.1515Y-6.0155
X17.1515Y-6.4685
X17.1515Y-6.7755
X17.5365Y-7.9905
X17.5365Y-8.2975
X17.909Y-3.931
X17.909Y-4.238
X17.9115Y-4.948
X17.9115Y-5.255
X17.9115Y-5.7085
X17.9115Y-6.0155
X17.9115Y-6.4685
X17.9115Y-6.7755
X17.9115Y-7.2285
X17.9115Y-7.5355
X18.669Y-3.931
X18.669Y-4.238
X18.6715Y-4.946
X18.6715Y-5.253
X18.6715Y-5.7085
X18.6715Y-6.0155
X18.6715Y-6.466
X18.6715Y-6.773
X18.6715Y-7.2285
X18.6715Y-7.5355
X18.6715Y-7.9885
X18.6715Y-8.2955
X19.429Y-3.933
X19.429Y-4.24
X19.4315Y-4.946
X19.4315Y-5.253
X19.4315Y-6.0755
X19.4315Y-6.3825
X19.4415Y-7.6085
X19.4415Y-7.9155
T3
X4.4769Y-3.6071
X4.552Y-4.486
X14.06Y-5.48
X16.7012Y-3.0552
X19.228Y-3.084
X19.543Y-3.084
X20.2427Y-5.0113
T4
X16.9674Y-2.2165
X17.0659Y-2.2165
X17.1643Y-2.2165
X17.2627Y-2.2165
X17.3611Y-2.2165
X17.4596Y-2.2165
X17.558Y-2.2165
X18.6677Y-3.3865
X18.7661Y-3.3865
X18.8646Y-3.3865
X18.963Y-3.3865
X19.208Y-2.2946
X19.208Y-2.3931
X19.208Y-2.4915
X19.208Y-2.5899
T5
X17.0969Y-2.0906
X17.0969Y-2.7906
X17.106Y-2.3406
X17.106Y-2.4406
X17.106Y-2.5406
X17.1969Y-2.0906
X17.1969Y-2.7906
X17.2969Y-2.0906
X17.2969Y-2.7906
X17.3969Y-2.0906
X17.3969Y-2.7906
X17.4969Y-2.0906
X17.4969Y-2.7906
X17.5969Y-2.0906
X17.5969Y-2.7906
X17.6969Y-2.0906
X17.6969Y-2.7906
X17.7969Y-2.0906
X17.7969Y-2.7906
X17.8969Y-2.0906
X17.8969Y-2.7906
X17.9969Y-2.0906
X17.9969Y-2.7906
X18.0969Y-2.0906
X18.0969Y-2.7906
X18.1969Y-2.0906
X18.1969Y-2.7906
X18.2969Y-2.0906
X18.2969Y-2.7906
X18.3969Y-2.0906
X18.3969Y-2.7906
X18.4969Y-2.0906
X18.4969Y-2.7906
X18.5969Y-2.0906
X18.5969Y-2.7906
X18.6969Y-2.0906
X18.6969Y-2.7906
X18.7969Y-2.0906
X18.7969Y-2.7906
X18.8934Y-2.4406
X18.8969Y-2.0906
X18.8969Y-2.7906
X18.9918Y-2.4012
X18.9918Y-2.48
X18.9969Y-2.0906
X18.9969Y-2.7906
T0
M30
