M48
; DRILL file {KiCad (5.1.9)-1} date 04/06/21 19:39:44
; FORMAT={-:-/ absolute / inch / decimal}
; #@! TF.CreationDate,2021-04-06T19:39:44+10:00
; #@! TF.GenerationSoftware,Kicad,Pcbnew,(5.1.9)-1
; #@! TF.FileFunction,NonPlated,1,4,NPTH
FMAT,2
INCH
T1C0.0591
T2C0.0689
T3C0.0709
T4C0.1181
T5C0.1575
%
G90
G05
T1
X18.8345Y-2.1336
X18.8345Y-2.3246
T2
X3.2805Y-5.052
X3.283Y-4.0345
X3.3755Y-8.117
X3.4655Y-5.808
X3.5595Y-6.576
X3.6805Y-5.052
X3.683Y-4.0345
X3.7455Y-7.3545
X3.7755Y-8.117
X3.8655Y-5.808
X3.9595Y-6.576
X4.037Y-5.052
X4.1455Y-7.3545
X4.343Y-8.119
X4.408Y-5.809
X4.437Y-5.052
X4.6005Y-6.574
X4.743Y-8.119
X4.793Y-5.0515
X4.808Y-5.809
X4.8505Y-4.0365
X4.9705Y-7.354
X5.0005Y-6.574
X5.168Y-5.809
X5.193Y-5.0515
X5.2505Y-4.0365
X5.303Y-8.119
X5.3605Y-6.574
X5.3705Y-7.354
X5.533Y-5.0515
X5.568Y-5.809
X5.6105Y-4.0365
X5.703Y-8.119
X5.7305Y-7.354
X5.7605Y-6.574
X5.928Y-5.809
X5.933Y-5.0515
X6.0105Y-4.0365
X6.1205Y-6.574
X6.1305Y-7.354
X6.293Y-5.0515
X6.328Y-5.809
X6.3705Y-4.0365
X6.4905Y-7.354
X6.5205Y-6.574
X6.688Y-5.809
X6.693Y-5.0515
X6.7705Y-4.0365
X6.8805Y-6.574
X6.8905Y-7.354
X7.053Y-5.0515
X7.088Y-5.809
X7.1305Y-4.0365
X7.2505Y-7.354
X7.2805Y-6.574
X7.448Y-5.809
X7.453Y-5.0515
X7.5305Y-4.0365
X7.6405Y-6.574
X7.6505Y-7.354
X7.813Y-5.0515
X7.848Y-5.809
X8.0105Y-7.354
X8.0405Y-6.574
X8.133Y-8.119
X8.208Y-5.809
X8.213Y-5.0515
X8.3705Y-4.0365
X8.4005Y-6.574
X8.4105Y-7.354
X8.533Y-8.119
X8.573Y-5.0515
X8.608Y-5.809
X8.7705Y-4.0365
X8.7705Y-7.354
X8.8005Y-6.574
X8.968Y-5.809
X8.973Y-5.0515
X9.1305Y-4.0365
X9.1605Y-6.574
X9.1705Y-7.354
X9.333Y-5.0515
X9.368Y-5.809
X9.5305Y-4.0365
X9.5305Y-7.354
X9.5605Y-6.574
X9.728Y-5.809
X9.733Y-5.0515
X9.8905Y-4.0365
X9.9205Y-6.574
X9.9305Y-7.354
X10.093Y-5.0515
X10.128Y-5.809
X10.2905Y-4.0365
X10.2905Y-7.354
X10.3205Y-6.574
X10.488Y-5.809
X10.493Y-5.0515
X10.6505Y-4.0365
X10.6805Y-6.574
X10.6905Y-7.354
X10.853Y-5.0515
X10.888Y-5.809
X10.958Y-8.1215
X11.0505Y-4.0365
X11.0505Y-7.354
X11.0805Y-6.574
X11.248Y-5.809
X11.253Y-5.0515
X11.358Y-8.1215
X11.4405Y-6.574
X11.4505Y-7.354
X11.613Y-5.0515
X11.648Y-5.809
X11.6905Y-4.0365
X11.8105Y-7.354
X11.8405Y-6.574
X11.908Y-8.119
X12.008Y-5.809
X12.013Y-5.0515
X12.0905Y-4.0365
X12.2005Y-6.574
X12.2105Y-7.354
X12.308Y-8.119
X12.373Y-5.0515
X12.408Y-5.809
X12.4505Y-4.0365
X12.6005Y-6.574
X12.768Y-5.809
X12.773Y-5.0515
X12.8505Y-4.0365
X12.8605Y-8.119
X13.168Y-5.809
X13.2105Y-4.0365
X13.243Y-7.352
X13.2605Y-8.119
X13.433Y-6.5745
X13.5055Y-5.0495
X13.6105Y-4.0365
X13.643Y-7.352
X13.7105Y-5.8095
X13.808Y-8.119
X13.833Y-6.5745
X13.9055Y-5.0495
X13.9705Y-4.0365
X14.1105Y-5.8095
X14.208Y-8.119
X14.3705Y-4.0365
X14.7965Y-8.114
X14.799Y-5.0515
X14.799Y-5.809
X14.854Y-4.0365
X15.1965Y-8.114
X15.199Y-5.0515
X15.199Y-5.809
X15.254Y-4.0365
X15.5565Y-7.354
X15.5565Y-8.114
X15.559Y-5.0515
X15.559Y-5.809
X15.624Y-4.0365
X15.9565Y-7.354
X15.9565Y-8.114
X15.959Y-5.0515
X15.959Y-5.809
X16.024Y-4.0365
X16.3165Y-8.114
X16.319Y-5.0515
X16.319Y-5.809
X16.384Y-4.0365
X16.7165Y-8.114
X16.719Y-5.0515
X16.719Y-5.809
X16.784Y-4.0365
X17.2565Y-4.0365
X17.259Y-5.0515
X17.259Y-5.814
X17.259Y-6.574
X17.259Y-7.334
X17.634Y-8.094
X17.6565Y-4.0365
X17.659Y-5.0515
X17.659Y-5.814
X17.659Y-6.574
X17.659Y-7.334
X18.0165Y-4.0365
X18.019Y-5.0515
X18.019Y-5.814
X18.019Y-6.574
X18.019Y-7.334
X18.034Y-8.094
X18.4165Y-4.0365
X18.419Y-5.0515
X18.419Y-5.814
X18.419Y-6.574
X18.419Y-7.334
X18.7765Y-4.0365
X18.779Y-5.0515
X18.779Y-5.814
X18.779Y-6.5715
X18.779Y-7.334
X18.779Y-8.094
X19.1765Y-4.0365
X19.179Y-5.0515
X19.179Y-5.814
X19.179Y-6.5715
X19.179Y-7.334
X19.179Y-8.094
X19.5365Y-4.0365
X19.539Y-5.0515
X19.539Y-6.189
X19.539Y-7.714
X19.9365Y-4.0365
X19.939Y-5.0515
X19.939Y-6.189
X19.939Y-7.714
T3
X18.9538Y-2.1218
X18.9538Y-2.3364
T4
X3.3805Y-5.252
X3.383Y-4.2345
X3.4755Y-8.317
X3.5655Y-6.008
X3.6305Y-5.152
X3.633Y-4.1345
X3.6595Y-6.776
X3.7255Y-8.217
X3.8155Y-5.908
X3.8455Y-7.5545
X3.9095Y-6.676
X4.0955Y-7.4545
X4.137Y-5.252
X4.387Y-5.152
X4.443Y-8.319
X4.508Y-6.009
X4.693Y-8.219
X4.7005Y-6.774
X4.758Y-5.909
X4.893Y-5.2515
X4.9505Y-4.2365
X4.9505Y-6.674
X5.0705Y-7.554
X5.143Y-5.1515
X5.2005Y-4.1365
X5.268Y-6.009
X5.3205Y-7.454
X5.403Y-8.319
X5.4605Y-6.774
X5.518Y-5.909
X5.633Y-5.2515
X5.653Y-8.219
X5.7105Y-4.2365
X5.7105Y-6.674
X5.8305Y-7.554
X5.883Y-5.1515
X5.9605Y-4.1365
X6.028Y-6.009
X6.0805Y-7.454
X6.2205Y-6.774
X6.278Y-5.909
X6.393Y-5.2515
X6.4705Y-4.2365
X6.4705Y-6.674
X6.5905Y-7.554
X6.643Y-5.1515
X6.7205Y-4.1365
X6.788Y-6.009
X6.8405Y-7.454
X6.9805Y-6.774
X7.038Y-5.909
X7.153Y-5.2515
X7.2305Y-4.2365
X7.2305Y-6.674
X7.3505Y-7.554
X7.403Y-5.1515
X7.4805Y-4.1365
X7.548Y-6.009
X7.6005Y-7.454
X7.7405Y-6.774
X7.798Y-5.909
X7.913Y-5.2515
X7.9905Y-6.674
X8.1105Y-7.554
X8.163Y-5.1515
X8.233Y-8.319
X8.308Y-6.009
X8.3605Y-7.454
X8.4705Y-4.2365
X8.483Y-8.219
X8.5005Y-6.774
X8.558Y-5.909
X8.673Y-5.2515
X8.7205Y-4.1365
X8.7505Y-6.674
X8.8705Y-7.554
X8.923Y-5.1515
X9.068Y-6.009
X9.1205Y-7.454
X9.2305Y-4.2365
X9.2605Y-6.774
X9.318Y-5.909
X9.433Y-5.2515
X9.4805Y-4.1365
X9.5105Y-6.674
X9.6305Y-7.554
X9.683Y-5.1515
X9.828Y-6.009
X9.8805Y-7.454
X9.9905Y-4.2365
X10.0205Y-6.774
X10.078Y-5.909
X10.193Y-5.2515
X10.2405Y-4.1365
X10.2705Y-6.674
X10.3905Y-7.554
X10.443Y-5.1515
X10.588Y-6.009
X10.6405Y-7.454
X10.7505Y-4.2365
X10.7805Y-6.774
X10.838Y-5.909
X10.953Y-5.2515
X11.0005Y-4.1365
X11.0305Y-6.674
X11.058Y-8.3215
X11.1505Y-7.554
X11.203Y-5.1515
X11.308Y-8.2215
X11.348Y-6.009
X11.4005Y-7.454
X11.5405Y-6.774
X11.598Y-5.909
X11.713Y-5.2515
X11.7905Y-4.2365
X11.7905Y-6.674
X11.9105Y-7.554
X11.963Y-5.1515
X12.008Y-8.319
X12.0405Y-4.1365
X12.108Y-6.009
X12.1605Y-7.454
X12.258Y-8.219
X12.3005Y-6.774
X12.358Y-5.909
X12.473Y-5.2515
X12.5505Y-4.2365
X12.5505Y-6.674
X12.723Y-5.1515
X12.8005Y-4.1365
X12.868Y-6.009
X12.9605Y-8.319
X13.118Y-5.909
X13.2105Y-8.219
X13.3105Y-4.2365
X13.343Y-7.552
X13.533Y-6.7745
X13.5605Y-4.1365
X13.593Y-7.452
X13.6055Y-5.2495
X13.783Y-6.6745
X13.8105Y-6.0095
X13.8555Y-5.1495
X13.908Y-8.319
X14.0605Y-5.9095
X14.0705Y-4.2365
X14.158Y-8.219
X14.3205Y-4.1365
X14.8965Y-8.314
X14.899Y-5.2515
X14.899Y-6.009
X14.954Y-4.2365
X15.1465Y-8.214
X15.149Y-5.1515
X15.149Y-5.909
X15.204Y-4.1365
X15.6565Y-7.554
X15.6565Y-8.314
X15.659Y-5.2515
X15.659Y-6.009
X15.724Y-4.2365
X15.9065Y-7.454
X15.9065Y-8.214
X15.909Y-5.1515
X15.909Y-5.909
X15.974Y-4.1365
X16.4165Y-8.314
X16.419Y-5.2515
X16.419Y-6.009
X16.484Y-4.2365
X16.6665Y-8.214
X16.669Y-5.1515
X16.669Y-5.909
X16.734Y-4.1365
X17.3565Y-4.2365
X17.359Y-5.2515
X17.359Y-6.014
X17.359Y-6.774
X17.359Y-7.534
X17.6065Y-4.1365
X17.609Y-5.1515
X17.609Y-5.914
X17.609Y-6.674
X17.609Y-7.434
X17.734Y-8.294
X17.984Y-8.194
X18.1165Y-4.2365
X18.119Y-5.2515
X18.119Y-6.014
X18.119Y-6.774
X18.119Y-7.534
X18.3665Y-4.1365
X18.369Y-5.1515
X18.369Y-5.914
X18.369Y-6.674
X18.369Y-7.434
X18.8765Y-4.2365
X18.879Y-5.2515
X18.879Y-6.014
X18.879Y-6.7715
X18.879Y-7.534
X18.879Y-8.294
X19.1265Y-4.1365
X19.129Y-5.1515
X19.129Y-5.914
X19.129Y-6.6715
X19.129Y-7.434
X19.129Y-8.194
X19.6365Y-4.2365
X19.639Y-5.2515
X19.639Y-6.389
X19.639Y-7.914
X19.8865Y-4.1365
X19.889Y-5.1515
X19.889Y-6.289
X19.889Y-7.814
T5
X3.4805Y-5.052
X3.483Y-4.0345
X3.5755Y-8.117
X3.6655Y-5.808
X3.7595Y-6.576
X3.9455Y-7.3545
X4.237Y-5.052
X4.543Y-8.119
X4.608Y-5.809
X4.8005Y-6.574
X4.993Y-5.0515
X5.0505Y-4.0365
X5.1705Y-7.354
X5.368Y-5.809
X5.503Y-8.119
X5.5605Y-6.574
X5.733Y-5.0515
X5.8105Y-4.0365
X5.9305Y-7.354
X6.128Y-5.809
X6.3205Y-6.574
X6.493Y-5.0515
X6.5705Y-4.0365
X6.6905Y-7.354
X6.888Y-5.809
X7.0805Y-6.574
X7.253Y-5.0515
X7.3305Y-4.0365
X7.4505Y-7.354
X7.648Y-5.809
X7.8405Y-6.574
X8.013Y-5.0515
X8.2105Y-7.354
X8.333Y-8.119
X8.408Y-5.809
X8.5705Y-4.0365
X8.6005Y-6.574
X8.773Y-5.0515
X8.9705Y-7.354
X9.168Y-5.809
X9.3305Y-4.0365
X9.3605Y-6.574
X9.533Y-5.0515
X9.7305Y-7.354
X9.928Y-5.809
X10.0905Y-4.0365
X10.1205Y-6.574
X10.293Y-5.0515
X10.4905Y-7.354
X10.688Y-5.809
X10.8505Y-4.0365
X10.8805Y-6.574
X11.053Y-5.0515
X11.158Y-8.1215
X11.2505Y-7.354
X11.448Y-5.809
X11.6405Y-6.574
X11.813Y-5.0515
X11.8905Y-4.0365
X12.0105Y-7.354
X12.108Y-8.119
X12.208Y-5.809
X12.4005Y-6.574
X12.573Y-5.0515
X12.6505Y-4.0365
X12.968Y-5.809
X13.0605Y-8.119
X13.4105Y-4.0365
X13.443Y-7.352
X13.633Y-6.5745
X13.7055Y-5.0495
X13.9105Y-5.8095
X14.008Y-8.119
X14.1705Y-4.0365
X14.9965Y-8.114
X14.999Y-5.0515
X14.999Y-5.809
X15.054Y-4.0365
X15.7565Y-7.354
X15.7565Y-8.114
X15.759Y-5.0515
X15.759Y-5.809
X15.824Y-4.0365
X16.5165Y-8.114
X16.519Y-5.0515
X16.519Y-5.809
X16.584Y-4.0365
X17.4565Y-4.0365
X17.459Y-5.0515
X17.459Y-5.814
X17.459Y-6.574
X17.459Y-7.334
X17.834Y-8.094
X18.2165Y-4.0365
X18.219Y-5.0515
X18.219Y-5.814
X18.219Y-6.574
X18.219Y-7.334
X18.9765Y-4.0365
X18.979Y-5.0515
X18.979Y-5.814
X18.979Y-6.5715
X18.979Y-7.334
X18.979Y-8.094
X19.7365Y-4.0365
X19.739Y-5.0515
X19.739Y-6.189
X19.739Y-7.714
T0
M30
