%TF.GenerationSoftware,KiCad,Pcbnew,(5.1.9)-1*%
%TF.CreationDate,2021-04-15T00:53:49+10:00*%
%TF.ProjectId,RedPyKeeb,52656450-794b-4656-9562-2e6b69636164,rev?*%
%TF.SameCoordinates,Original*%
%TF.FileFunction,Paste,Bot*%
%TF.FilePolarity,Positive*%
%FSLAX46Y46*%
G04 Gerber Fmt 4.6, Leading zero omitted, Abs format (unit mm)*
G04 Created by KiCad (PCBNEW (5.1.9)-1) date 2021-04-15 00:53:49*
%MOMM*%
%LPD*%
G01*
G04 APERTURE LIST*
%ADD10R,0.400000X1.100000*%
%ADD11R,2.550000X2.500000*%
%ADD12R,1.200000X1.200000*%
%ADD13R,1.300000X1.500000*%
%ADD14R,1.500000X1.300000*%
G04 APERTURE END LIST*
D10*
%TO.C,U10*%
X455361400Y-86897100D03*
X456011400Y-86897100D03*
X456661400Y-86897100D03*
X457311400Y-86897100D03*
X457311400Y-82597100D03*
X456661400Y-82597100D03*
X456011400Y-82597100D03*
X455361400Y-82597100D03*
%TD*%
D11*
%TO.C,K12\u002C3*%
X340436200Y-172072300D03*
X353363200Y-169532300D03*
%TD*%
%TO.C,K16\u002C1*%
X413740600Y-133388100D03*
X426667600Y-130848100D03*
%TD*%
%TO.C,K14\u002C1*%
X375132600Y-133388100D03*
X388059600Y-130848100D03*
%TD*%
%TO.C,K3\u002C2*%
X149809200Y-152628600D03*
X162736200Y-150088600D03*
%TD*%
%TO.C,K8\u002C0*%
X268284960Y-107607100D03*
X281211960Y-105067100D03*
%TD*%
%TO.C,K0\u002C2*%
X87261700Y-152603200D03*
X100188700Y-150063200D03*
%TD*%
%TO.C,K18\u002C4*%
X476224600Y-171996100D03*
X489151600Y-169456100D03*
%TD*%
%TO.C,K10\u002C3*%
X289826700Y-172059600D03*
X302753700Y-169519600D03*
%TD*%
%TO.C,K13\u002C1*%
X342277700Y-133337300D03*
X355204700Y-130797300D03*
%TD*%
%TO.C,K19\u002C4*%
X495528600Y-162280600D03*
X508455600Y-159740600D03*
%TD*%
%TO.C,U2*%
G36*
G01*
X397296500Y-87902200D02*
X397596500Y-87902200D01*
G75*
G02*
X397746500Y-88052200I0J-150000D01*
G01*
X397746500Y-89802200D01*
G75*
G02*
X397596500Y-89952200I-150000J0D01*
G01*
X397296500Y-89952200D01*
G75*
G02*
X397146500Y-89802200I0J150000D01*
G01*
X397146500Y-88052200D01*
G75*
G02*
X397296500Y-87902200I150000J0D01*
G01*
G37*
G36*
G01*
X398566500Y-87902200D02*
X398866500Y-87902200D01*
G75*
G02*
X399016500Y-88052200I0J-150000D01*
G01*
X399016500Y-89802200D01*
G75*
G02*
X398866500Y-89952200I-150000J0D01*
G01*
X398566500Y-89952200D01*
G75*
G02*
X398416500Y-89802200I0J150000D01*
G01*
X398416500Y-88052200D01*
G75*
G02*
X398566500Y-87902200I150000J0D01*
G01*
G37*
G36*
G01*
X399836500Y-87902200D02*
X400136500Y-87902200D01*
G75*
G02*
X400286500Y-88052200I0J-150000D01*
G01*
X400286500Y-89802200D01*
G75*
G02*
X400136500Y-89952200I-150000J0D01*
G01*
X399836500Y-89952200D01*
G75*
G02*
X399686500Y-89802200I0J150000D01*
G01*
X399686500Y-88052200D01*
G75*
G02*
X399836500Y-87902200I150000J0D01*
G01*
G37*
G36*
G01*
X401106500Y-87902200D02*
X401406500Y-87902200D01*
G75*
G02*
X401556500Y-88052200I0J-150000D01*
G01*
X401556500Y-89802200D01*
G75*
G02*
X401406500Y-89952200I-150000J0D01*
G01*
X401106500Y-89952200D01*
G75*
G02*
X400956500Y-89802200I0J150000D01*
G01*
X400956500Y-88052200D01*
G75*
G02*
X401106500Y-87902200I150000J0D01*
G01*
G37*
G36*
G01*
X402376500Y-87902200D02*
X402676500Y-87902200D01*
G75*
G02*
X402826500Y-88052200I0J-150000D01*
G01*
X402826500Y-89802200D01*
G75*
G02*
X402676500Y-89952200I-150000J0D01*
G01*
X402376500Y-89952200D01*
G75*
G02*
X402226500Y-89802200I0J150000D01*
G01*
X402226500Y-88052200D01*
G75*
G02*
X402376500Y-87902200I150000J0D01*
G01*
G37*
G36*
G01*
X403646500Y-87902200D02*
X403946500Y-87902200D01*
G75*
G02*
X404096500Y-88052200I0J-150000D01*
G01*
X404096500Y-89802200D01*
G75*
G02*
X403946500Y-89952200I-150000J0D01*
G01*
X403646500Y-89952200D01*
G75*
G02*
X403496500Y-89802200I0J150000D01*
G01*
X403496500Y-88052200D01*
G75*
G02*
X403646500Y-87902200I150000J0D01*
G01*
G37*
G36*
G01*
X404916500Y-87902200D02*
X405216500Y-87902200D01*
G75*
G02*
X405366500Y-88052200I0J-150000D01*
G01*
X405366500Y-89802200D01*
G75*
G02*
X405216500Y-89952200I-150000J0D01*
G01*
X404916500Y-89952200D01*
G75*
G02*
X404766500Y-89802200I0J150000D01*
G01*
X404766500Y-88052200D01*
G75*
G02*
X404916500Y-87902200I150000J0D01*
G01*
G37*
G36*
G01*
X406186500Y-87902200D02*
X406486500Y-87902200D01*
G75*
G02*
X406636500Y-88052200I0J-150000D01*
G01*
X406636500Y-89802200D01*
G75*
G02*
X406486500Y-89952200I-150000J0D01*
G01*
X406186500Y-89952200D01*
G75*
G02*
X406036500Y-89802200I0J150000D01*
G01*
X406036500Y-88052200D01*
G75*
G02*
X406186500Y-87902200I150000J0D01*
G01*
G37*
G36*
G01*
X407456500Y-87902200D02*
X407756500Y-87902200D01*
G75*
G02*
X407906500Y-88052200I0J-150000D01*
G01*
X407906500Y-89802200D01*
G75*
G02*
X407756500Y-89952200I-150000J0D01*
G01*
X407456500Y-89952200D01*
G75*
G02*
X407306500Y-89802200I0J150000D01*
G01*
X407306500Y-88052200D01*
G75*
G02*
X407456500Y-87902200I150000J0D01*
G01*
G37*
G36*
G01*
X408726500Y-87902200D02*
X409026500Y-87902200D01*
G75*
G02*
X409176500Y-88052200I0J-150000D01*
G01*
X409176500Y-89802200D01*
G75*
G02*
X409026500Y-89952200I-150000J0D01*
G01*
X408726500Y-89952200D01*
G75*
G02*
X408576500Y-89802200I0J150000D01*
G01*
X408576500Y-88052200D01*
G75*
G02*
X408726500Y-87902200I150000J0D01*
G01*
G37*
G36*
G01*
X409996500Y-87902200D02*
X410296500Y-87902200D01*
G75*
G02*
X410446500Y-88052200I0J-150000D01*
G01*
X410446500Y-89802200D01*
G75*
G02*
X410296500Y-89952200I-150000J0D01*
G01*
X409996500Y-89952200D01*
G75*
G02*
X409846500Y-89802200I0J150000D01*
G01*
X409846500Y-88052200D01*
G75*
G02*
X409996500Y-87902200I150000J0D01*
G01*
G37*
G36*
G01*
X411266500Y-87902200D02*
X411566500Y-87902200D01*
G75*
G02*
X411716500Y-88052200I0J-150000D01*
G01*
X411716500Y-89802200D01*
G75*
G02*
X411566500Y-89952200I-150000J0D01*
G01*
X411266500Y-89952200D01*
G75*
G02*
X411116500Y-89802200I0J150000D01*
G01*
X411116500Y-88052200D01*
G75*
G02*
X411266500Y-87902200I150000J0D01*
G01*
G37*
G36*
G01*
X412536500Y-87902200D02*
X412836500Y-87902200D01*
G75*
G02*
X412986500Y-88052200I0J-150000D01*
G01*
X412986500Y-89802200D01*
G75*
G02*
X412836500Y-89952200I-150000J0D01*
G01*
X412536500Y-89952200D01*
G75*
G02*
X412386500Y-89802200I0J150000D01*
G01*
X412386500Y-88052200D01*
G75*
G02*
X412536500Y-87902200I150000J0D01*
G01*
G37*
G36*
G01*
X413806500Y-87902200D02*
X414106500Y-87902200D01*
G75*
G02*
X414256500Y-88052200I0J-150000D01*
G01*
X414256500Y-89802200D01*
G75*
G02*
X414106500Y-89952200I-150000J0D01*
G01*
X413806500Y-89952200D01*
G75*
G02*
X413656500Y-89802200I0J150000D01*
G01*
X413656500Y-88052200D01*
G75*
G02*
X413806500Y-87902200I150000J0D01*
G01*
G37*
G36*
G01*
X413806500Y-78602200D02*
X414106500Y-78602200D01*
G75*
G02*
X414256500Y-78752200I0J-150000D01*
G01*
X414256500Y-80502200D01*
G75*
G02*
X414106500Y-80652200I-150000J0D01*
G01*
X413806500Y-80652200D01*
G75*
G02*
X413656500Y-80502200I0J150000D01*
G01*
X413656500Y-78752200D01*
G75*
G02*
X413806500Y-78602200I150000J0D01*
G01*
G37*
G36*
G01*
X412536500Y-78602200D02*
X412836500Y-78602200D01*
G75*
G02*
X412986500Y-78752200I0J-150000D01*
G01*
X412986500Y-80502200D01*
G75*
G02*
X412836500Y-80652200I-150000J0D01*
G01*
X412536500Y-80652200D01*
G75*
G02*
X412386500Y-80502200I0J150000D01*
G01*
X412386500Y-78752200D01*
G75*
G02*
X412536500Y-78602200I150000J0D01*
G01*
G37*
G36*
G01*
X411266500Y-78602200D02*
X411566500Y-78602200D01*
G75*
G02*
X411716500Y-78752200I0J-150000D01*
G01*
X411716500Y-80502200D01*
G75*
G02*
X411566500Y-80652200I-150000J0D01*
G01*
X411266500Y-80652200D01*
G75*
G02*
X411116500Y-80502200I0J150000D01*
G01*
X411116500Y-78752200D01*
G75*
G02*
X411266500Y-78602200I150000J0D01*
G01*
G37*
G36*
G01*
X409996500Y-78602200D02*
X410296500Y-78602200D01*
G75*
G02*
X410446500Y-78752200I0J-150000D01*
G01*
X410446500Y-80502200D01*
G75*
G02*
X410296500Y-80652200I-150000J0D01*
G01*
X409996500Y-80652200D01*
G75*
G02*
X409846500Y-80502200I0J150000D01*
G01*
X409846500Y-78752200D01*
G75*
G02*
X409996500Y-78602200I150000J0D01*
G01*
G37*
G36*
G01*
X408726500Y-78602200D02*
X409026500Y-78602200D01*
G75*
G02*
X409176500Y-78752200I0J-150000D01*
G01*
X409176500Y-80502200D01*
G75*
G02*
X409026500Y-80652200I-150000J0D01*
G01*
X408726500Y-80652200D01*
G75*
G02*
X408576500Y-80502200I0J150000D01*
G01*
X408576500Y-78752200D01*
G75*
G02*
X408726500Y-78602200I150000J0D01*
G01*
G37*
G36*
G01*
X407456500Y-78602200D02*
X407756500Y-78602200D01*
G75*
G02*
X407906500Y-78752200I0J-150000D01*
G01*
X407906500Y-80502200D01*
G75*
G02*
X407756500Y-80652200I-150000J0D01*
G01*
X407456500Y-80652200D01*
G75*
G02*
X407306500Y-80502200I0J150000D01*
G01*
X407306500Y-78752200D01*
G75*
G02*
X407456500Y-78602200I150000J0D01*
G01*
G37*
G36*
G01*
X406186500Y-78602200D02*
X406486500Y-78602200D01*
G75*
G02*
X406636500Y-78752200I0J-150000D01*
G01*
X406636500Y-80502200D01*
G75*
G02*
X406486500Y-80652200I-150000J0D01*
G01*
X406186500Y-80652200D01*
G75*
G02*
X406036500Y-80502200I0J150000D01*
G01*
X406036500Y-78752200D01*
G75*
G02*
X406186500Y-78602200I150000J0D01*
G01*
G37*
G36*
G01*
X404916500Y-78602200D02*
X405216500Y-78602200D01*
G75*
G02*
X405366500Y-78752200I0J-150000D01*
G01*
X405366500Y-80502200D01*
G75*
G02*
X405216500Y-80652200I-150000J0D01*
G01*
X404916500Y-80652200D01*
G75*
G02*
X404766500Y-80502200I0J150000D01*
G01*
X404766500Y-78752200D01*
G75*
G02*
X404916500Y-78602200I150000J0D01*
G01*
G37*
G36*
G01*
X403646500Y-78602200D02*
X403946500Y-78602200D01*
G75*
G02*
X404096500Y-78752200I0J-150000D01*
G01*
X404096500Y-80502200D01*
G75*
G02*
X403946500Y-80652200I-150000J0D01*
G01*
X403646500Y-80652200D01*
G75*
G02*
X403496500Y-80502200I0J150000D01*
G01*
X403496500Y-78752200D01*
G75*
G02*
X403646500Y-78602200I150000J0D01*
G01*
G37*
G36*
G01*
X402376500Y-78602200D02*
X402676500Y-78602200D01*
G75*
G02*
X402826500Y-78752200I0J-150000D01*
G01*
X402826500Y-80502200D01*
G75*
G02*
X402676500Y-80652200I-150000J0D01*
G01*
X402376500Y-80652200D01*
G75*
G02*
X402226500Y-80502200I0J150000D01*
G01*
X402226500Y-78752200D01*
G75*
G02*
X402376500Y-78602200I150000J0D01*
G01*
G37*
G36*
G01*
X401106500Y-78602200D02*
X401406500Y-78602200D01*
G75*
G02*
X401556500Y-78752200I0J-150000D01*
G01*
X401556500Y-80502200D01*
G75*
G02*
X401406500Y-80652200I-150000J0D01*
G01*
X401106500Y-80652200D01*
G75*
G02*
X400956500Y-80502200I0J150000D01*
G01*
X400956500Y-78752200D01*
G75*
G02*
X401106500Y-78602200I150000J0D01*
G01*
G37*
G36*
G01*
X399836500Y-78602200D02*
X400136500Y-78602200D01*
G75*
G02*
X400286500Y-78752200I0J-150000D01*
G01*
X400286500Y-80502200D01*
G75*
G02*
X400136500Y-80652200I-150000J0D01*
G01*
X399836500Y-80652200D01*
G75*
G02*
X399686500Y-80502200I0J150000D01*
G01*
X399686500Y-78752200D01*
G75*
G02*
X399836500Y-78602200I150000J0D01*
G01*
G37*
G36*
G01*
X398566500Y-78602200D02*
X398866500Y-78602200D01*
G75*
G02*
X399016500Y-78752200I0J-150000D01*
G01*
X399016500Y-80502200D01*
G75*
G02*
X398866500Y-80652200I-150000J0D01*
G01*
X398566500Y-80652200D01*
G75*
G02*
X398416500Y-80502200I0J150000D01*
G01*
X398416500Y-78752200D01*
G75*
G02*
X398566500Y-78602200I150000J0D01*
G01*
G37*
G36*
G01*
X397296500Y-78602200D02*
X397596500Y-78602200D01*
G75*
G02*
X397746500Y-78752200I0J-150000D01*
G01*
X397746500Y-80502200D01*
G75*
G02*
X397596500Y-80652200I-150000J0D01*
G01*
X397296500Y-80652200D01*
G75*
G02*
X397146500Y-80502200I0J150000D01*
G01*
X397146500Y-78752200D01*
G75*
G02*
X397296500Y-78602200I150000J0D01*
G01*
G37*
%TD*%
%TO.C,K11\u002C4*%
X335610200Y-191820800D03*
X348537200Y-189280800D03*
%TD*%
%TO.C,C6*%
G36*
G01*
X494391700Y-79333600D02*
X494391700Y-77333600D01*
G75*
G02*
X494641700Y-77083600I250000J0D01*
G01*
X498141700Y-77083600D01*
G75*
G02*
X498391700Y-77333600I0J-250000D01*
G01*
X498391700Y-79333600D01*
G75*
G02*
X498141700Y-79583600I-250000J0D01*
G01*
X494641700Y-79583600D01*
G75*
G02*
X494391700Y-79333600I0J250000D01*
G01*
G37*
G36*
G01*
X486391700Y-79333600D02*
X486391700Y-77333600D01*
G75*
G02*
X486641700Y-77083600I250000J0D01*
G01*
X490141700Y-77083600D01*
G75*
G02*
X490391700Y-77333600I0J-250000D01*
G01*
X490391700Y-79333600D01*
G75*
G02*
X490141700Y-79583600I-250000J0D01*
G01*
X486641700Y-79583600D01*
G75*
G02*
X486391700Y-79333600I0J250000D01*
G01*
G37*
%TD*%
D12*
%TO.C,D0\u002C3*%
X87833200Y-166750800D03*
X87833200Y-169900800D03*
%TD*%
%TO.C,D0\u002C5*%
X83197700Y-205866800D03*
X83197700Y-209016800D03*
%TD*%
%TO.C,D0\u002C4*%
X92595700Y-186499300D03*
X92595700Y-189649300D03*
%TD*%
%TO.C,D0\u002C0*%
X80848200Y-102171300D03*
X80848200Y-105321300D03*
%TD*%
%TO.C,D0\u002C2*%
X85293200Y-147192800D03*
X85293200Y-150342800D03*
%TD*%
%TO.C,D0\u002C1*%
X80784700Y-128015800D03*
X80784700Y-131165800D03*
%TD*%
%TO.C,D1\u002C3*%
X114122200Y-166623800D03*
X114122200Y-169773800D03*
%TD*%
%TO.C,D1\u002C0*%
X118996460Y-102222100D03*
X118996460Y-105372100D03*
%TD*%
%TO.C,D1\u002C4*%
X123520200Y-186435800D03*
X123520200Y-189585800D03*
%TD*%
%TO.C,D1\u002C5*%
X107581700Y-205866800D03*
X107581700Y-209016800D03*
%TD*%
%TO.C,D1\u002C1*%
X100088700Y-128015800D03*
X100088700Y-131165800D03*
%TD*%
%TO.C,D1\u002C2*%
X109232700Y-147192800D03*
X109232700Y-150342800D03*
%TD*%
%TO.C,D2\u002C4*%
X142824200Y-186435800D03*
X142824200Y-189585800D03*
%TD*%
%TO.C,D2\u002C5*%
X131965700Y-205866800D03*
X131965700Y-209016800D03*
%TD*%
%TO.C,D2\u002C0*%
X138300460Y-102171300D03*
X138300460Y-105321300D03*
%TD*%
%TO.C,D2\u002C2*%
X128536700Y-147192800D03*
X128536700Y-150342800D03*
%TD*%
%TO.C,D2\u002C1*%
X119011700Y-127952300D03*
X119011700Y-131102300D03*
%TD*%
%TO.C,D2\u002C3*%
X133426200Y-166623800D03*
X133426200Y-169773800D03*
%TD*%
%TO.C,D3\u002C0*%
X157604460Y-102171300D03*
X157604460Y-105321300D03*
%TD*%
%TO.C,D3\u002C1*%
X137807700Y-127952300D03*
X137807700Y-131102300D03*
%TD*%
%TO.C,D3\u002C4*%
X162128200Y-186435800D03*
X162128200Y-189585800D03*
%TD*%
%TO.C,D3\u002C2*%
X147840700Y-147192800D03*
X147840700Y-150342800D03*
%TD*%
%TO.C,D3\u002C5*%
X203847700Y-205866800D03*
X203847700Y-209016800D03*
%TD*%
%TO.C,D3\u002C3*%
X152730200Y-166623800D03*
X152730200Y-169773800D03*
%TD*%
%TO.C,D4\u002C4*%
X181432200Y-186435800D03*
X181432200Y-189585800D03*
%TD*%
%TO.C,D4\u002C3*%
X172034200Y-166623800D03*
X172034200Y-169773800D03*
%TD*%
%TO.C,D4\u002C1*%
X157111700Y-127952300D03*
X157111700Y-131102300D03*
%TD*%
%TO.C,D4\u002C0*%
X176908460Y-102171300D03*
X176908460Y-105321300D03*
%TD*%
%TO.C,D4\u002C2*%
X167144700Y-147192800D03*
X167144700Y-150342800D03*
%TD*%
%TO.C,D5\u002C0*%
X208404460Y-102171300D03*
X208404460Y-105321300D03*
%TD*%
%TO.C,D5\u002C2*%
X186448700Y-147192800D03*
X186448700Y-150342800D03*
%TD*%
%TO.C,D5\u002C1*%
X176415700Y-127952300D03*
X176415700Y-131102300D03*
%TD*%
%TO.C,D5\u002C3*%
X191338200Y-166674600D03*
X191338200Y-169824600D03*
%TD*%
%TO.C,D5\u002C4*%
X200736200Y-186486600D03*
X200736200Y-189636600D03*
%TD*%
%TO.C,D6\u002C0*%
X227708460Y-102171300D03*
X227708460Y-105321300D03*
%TD*%
%TO.C,D6\u002C3*%
X210642200Y-166623800D03*
X210642200Y-169773800D03*
%TD*%
%TO.C,D6\u002C4*%
X220040200Y-186435800D03*
X220040200Y-189585800D03*
%TD*%
%TO.C,D6\u002C1*%
X195719700Y-127952300D03*
X195719700Y-131102300D03*
%TD*%
%TO.C,D6\u002C2*%
X205752700Y-147192800D03*
X205752700Y-150342800D03*
%TD*%
%TO.C,D7\u002C4*%
X239344200Y-186486600D03*
X239344200Y-189636600D03*
%TD*%
%TO.C,D7\u002C2*%
X225056700Y-147243600D03*
X225056700Y-150393600D03*
%TD*%
%TO.C,D7\u002C1*%
X215023700Y-127952300D03*
X215023700Y-131102300D03*
%TD*%
%TO.C,D7\u002C0*%
X247012460Y-102171300D03*
X247012460Y-105321300D03*
%TD*%
%TO.C,D7\u002C3*%
X229946200Y-166623800D03*
X229946200Y-169773800D03*
%TD*%
%TO.C,D8\u002C0*%
X266316460Y-102222100D03*
X266316460Y-105372100D03*
%TD*%
%TO.C,D8\u002C3*%
X249250200Y-166623800D03*
X249250200Y-169773800D03*
%TD*%
%TO.C,D8\u002C1*%
X234327700Y-127952300D03*
X234327700Y-131102300D03*
%TD*%
%TO.C,D8\u002C2*%
X244360700Y-147192800D03*
X244360700Y-150342800D03*
%TD*%
%TO.C,D8\u002C5*%
X275602700Y-205930300D03*
X275602700Y-209080300D03*
%TD*%
%TO.C,D8\u002C4*%
X258648200Y-186435800D03*
X258648200Y-189585800D03*
%TD*%
%TO.C,D9\u002C2*%
X263664700Y-147192800D03*
X263664700Y-150342800D03*
%TD*%
%TO.C,D9\u002C1*%
X253631700Y-128003100D03*
X253631700Y-131153100D03*
%TD*%
%TO.C,D9\u002C3*%
X268554200Y-166623800D03*
X268554200Y-169773800D03*
%TD*%
%TO.C,D9\u002C4*%
X277952200Y-186435800D03*
X277952200Y-189585800D03*
%TD*%
%TO.C,D9\u002C5*%
X299732700Y-205866800D03*
X299732700Y-209016800D03*
%TD*%
%TO.C,D9\u002C0*%
X292732460Y-102171300D03*
X292732460Y-105321300D03*
%TD*%
%TO.C,D10\u002C4*%
X297256200Y-186486600D03*
X297256200Y-189636600D03*
%TD*%
%TO.C,D10\u002C5*%
X323926200Y-205866800D03*
X323926200Y-209016800D03*
%TD*%
%TO.C,D10\u002C1*%
X272935700Y-127952300D03*
X272935700Y-131102300D03*
%TD*%
%TO.C,D10\u002C0*%
X312036460Y-102171300D03*
X312036460Y-105321300D03*
%TD*%
%TO.C,D10\u002C2*%
X282968700Y-147243600D03*
X282968700Y-150393600D03*
%TD*%
%TO.C,D10\u002C3*%
X287858200Y-166623800D03*
X287858200Y-169773800D03*
%TD*%
%TO.C,D11\u002C0*%
X331340460Y-102171300D03*
X331340460Y-105321300D03*
%TD*%
%TO.C,D11\u002C1*%
X292239700Y-127952300D03*
X292239700Y-131102300D03*
%TD*%
%TO.C,D11\u002C3*%
X307162200Y-166623800D03*
X307162200Y-169773800D03*
%TD*%
%TO.C,D11\u002C2*%
X302272700Y-147192800D03*
X302272700Y-150342800D03*
%TD*%
%TO.C,D11\u002C4*%
X333832200Y-186435800D03*
X333832200Y-189585800D03*
%TD*%
%TO.C,D11\u002C5*%
X347992700Y-205866800D03*
X347992700Y-209016800D03*
%TD*%
%TO.C,D12\u002C3*%
X338658200Y-166687300D03*
X338658200Y-169837300D03*
%TD*%
%TO.C,D12\u002C2*%
X321576700Y-147192800D03*
X321576700Y-150342800D03*
%TD*%
%TO.C,D12\u002C1*%
X311543700Y-128003100D03*
X311543700Y-131153100D03*
%TD*%
%TO.C,D12\u002C0*%
X350644460Y-102171300D03*
X350644460Y-105321300D03*
%TD*%
%TO.C,D13\u002C2*%
X345389200Y-147256300D03*
X345389200Y-150406300D03*
%TD*%
%TO.C,D13\u002C1*%
X340499700Y-127952300D03*
X340499700Y-131102300D03*
%TD*%
%TO.C,D14\u002C1*%
X373164100Y-127952300D03*
X373164100Y-131102300D03*
%TD*%
%TO.C,D14\u002C3*%
X373418100Y-147192800D03*
X373418100Y-150342800D03*
%TD*%
%TO.C,D14\u002C0*%
X373214900Y-102171300D03*
X373214900Y-105321300D03*
%TD*%
%TO.C,D14\u002C6*%
X373100600Y-205739800D03*
X373100600Y-208889800D03*
%TD*%
%TO.C,D15\u002C0*%
X393026900Y-102171300D03*
X393026900Y-105321300D03*
%TD*%
%TO.C,D15\u002C1*%
X392468100Y-127952300D03*
X392468100Y-131102300D03*
%TD*%
%TO.C,D15\u002C3*%
X392468100Y-147192800D03*
X392468100Y-150342800D03*
%TD*%
%TO.C,D15\u002C5*%
X392404600Y-186435800D03*
X392404600Y-189585800D03*
%TD*%
%TO.C,D15\u002C6*%
X392404600Y-205739800D03*
X392404600Y-208889800D03*
%TD*%
%TO.C,D16\u002C6*%
X411708600Y-205739800D03*
X411708600Y-208889800D03*
%TD*%
%TO.C,D16\u002C0*%
X412076900Y-102171300D03*
X412076900Y-105321300D03*
%TD*%
%TO.C,D16\u002C1*%
X411772100Y-127952300D03*
X411772100Y-131102300D03*
%TD*%
%TO.C,D16\u002C5*%
X435394100Y-185927800D03*
X435394100Y-189077800D03*
%TD*%
%TO.C,D16\u002C3*%
X412026100Y-147192800D03*
X412026100Y-150342800D03*
%TD*%
%TO.C,D16\u002C4*%
X435648100Y-166623800D03*
X435648100Y-169773800D03*
%TD*%
%TO.C,D17\u002C3*%
X435648100Y-147319800D03*
X435648100Y-150469800D03*
%TD*%
%TO.C,D17\u002C1*%
X435648100Y-127952300D03*
X435648100Y-131102300D03*
%TD*%
%TO.C,D17\u002C6*%
X445427100Y-205282600D03*
X445427100Y-208432600D03*
%TD*%
%TO.C,D17\u002C4*%
X454952100Y-166623800D03*
X454952100Y-169773800D03*
%TD*%
%TO.C,D17\u002C0*%
X435584600Y-102171300D03*
X435584600Y-105321300D03*
%TD*%
%TO.C,D17\u002C5*%
X454952100Y-185927800D03*
X454952100Y-189077800D03*
%TD*%
%TO.C,D18\u002C1*%
X454952100Y-128003100D03*
X454952100Y-131153100D03*
%TD*%
%TO.C,D18\u002C6*%
X474256100Y-205231800D03*
X474256100Y-208381800D03*
%TD*%
%TO.C,D18\u002C3*%
X454952100Y-147319800D03*
X454952100Y-150469800D03*
%TD*%
%TO.C,D18\u002C0*%
X454888600Y-102171300D03*
X454888600Y-105321300D03*
%TD*%
%TO.C,D18\u002C5*%
X474256100Y-185927800D03*
X474256100Y-189077800D03*
%TD*%
%TO.C,D18\u002C4*%
X474256100Y-166560300D03*
X474256100Y-169710300D03*
%TD*%
%TO.C,D19\u002C4*%
X493560100Y-156641600D03*
X493560100Y-159791600D03*
%TD*%
%TO.C,D19\u002C0*%
X474192600Y-102171300D03*
X474192600Y-105321300D03*
%TD*%
%TO.C,D19\u002C3*%
X474256100Y-147319800D03*
X474256100Y-150469800D03*
%TD*%
%TO.C,D19\u002C1*%
X474256100Y-127952300D03*
X474256100Y-131102300D03*
%TD*%
%TO.C,D19\u002C6*%
X493814100Y-195579800D03*
X493814100Y-198729800D03*
%TD*%
%TO.C,D20\u002C1*%
X493560100Y-127952300D03*
X493560100Y-131102300D03*
%TD*%
%TO.C,D20\u002C0*%
X493496600Y-102222100D03*
X493496600Y-105372100D03*
%TD*%
D11*
%TO.C,K0\u002C0*%
X82626200Y-107556300D03*
X95553200Y-105016300D03*
%TD*%
%TO.C,K0\u002C1*%
X82562700Y-133400800D03*
X95489700Y-130860800D03*
%TD*%
%TO.C,K0\u002C5*%
X84975700Y-211251800D03*
X97902700Y-208711800D03*
%TD*%
%TO.C,K0\u002C4*%
X94373700Y-191884300D03*
X107300700Y-189344300D03*
%TD*%
%TO.C,K0\u002C3*%
X89649300Y-172110400D03*
X102576300Y-169570400D03*
%TD*%
%TO.C,K1\u002C4*%
X125488700Y-191871600D03*
X138415700Y-189331600D03*
%TD*%
%TO.C,K1\u002C5*%
X109550200Y-211302600D03*
X122477200Y-208762600D03*
%TD*%
%TO.C,K1\u002C3*%
X116090700Y-172059600D03*
X129017700Y-169519600D03*
%TD*%
%TO.C,K1\u002C2*%
X111201200Y-152628600D03*
X124128200Y-150088600D03*
%TD*%
%TO.C,K1\u002C1*%
X101777800Y-133400800D03*
X114704800Y-130860800D03*
%TD*%
%TO.C,K1\u002C0*%
X120964960Y-107607100D03*
X133891960Y-105067100D03*
%TD*%
%TO.C,K2\u002C5*%
X133934200Y-211302600D03*
X146861200Y-208762600D03*
%TD*%
%TO.C,K2\u002C3*%
X135394700Y-172059600D03*
X148321700Y-169519600D03*
%TD*%
%TO.C,K2\u002C1*%
X120980200Y-133388100D03*
X133907200Y-130848100D03*
%TD*%
%TO.C,K2\u002C4*%
X144792700Y-191871600D03*
X157719700Y-189331600D03*
%TD*%
%TO.C,K2\u002C2*%
X130505200Y-152628600D03*
X143432200Y-150088600D03*
%TD*%
%TO.C,K2\u002C0*%
X140268960Y-107607100D03*
X153195960Y-105067100D03*
%TD*%
%TO.C,K3\u002C5*%
X205816200Y-211302600D03*
X218743200Y-208762600D03*
%TD*%
%TO.C,K3\u002C4*%
X164096700Y-191871600D03*
X177023700Y-189331600D03*
%TD*%
%TO.C,K3\u002C1*%
X139776200Y-133388100D03*
X152703200Y-130848100D03*
%TD*%
%TO.C,K3\u002C0*%
X159572960Y-107607100D03*
X172499960Y-105067100D03*
%TD*%
%TO.C,K3\u002C3*%
X154698700Y-172059600D03*
X167625700Y-169519600D03*
%TD*%
%TO.C,K4\u002C1*%
X159080200Y-133388100D03*
X172007200Y-130848100D03*
%TD*%
%TO.C,K4\u002C2*%
X169113200Y-152628600D03*
X182040200Y-150088600D03*
%TD*%
%TO.C,K4\u002C3*%
X174002700Y-172059600D03*
X186929700Y-169519600D03*
%TD*%
%TO.C,K4\u002C4*%
X183400700Y-191871600D03*
X196327700Y-189331600D03*
%TD*%
%TO.C,K4\u002C0*%
X178876960Y-107607100D03*
X191803960Y-105067100D03*
%TD*%
%TO.C,K5\u002C0*%
X210372960Y-107607100D03*
X223299960Y-105067100D03*
%TD*%
%TO.C,K5\u002C2*%
X188417200Y-152628600D03*
X201344200Y-150088600D03*
%TD*%
%TO.C,K5\u002C1*%
X178384200Y-133388100D03*
X191311200Y-130848100D03*
%TD*%
%TO.C,K5\u002C3*%
X193306700Y-172059600D03*
X206233700Y-169519600D03*
%TD*%
%TO.C,K5\u002C4*%
X202704700Y-191871600D03*
X215631700Y-189331600D03*
%TD*%
%TO.C,K6\u002C3*%
X212610700Y-172059600D03*
X225537700Y-169519600D03*
%TD*%
%TO.C,K6\u002C4*%
X222008700Y-191871600D03*
X234935700Y-189331600D03*
%TD*%
%TO.C,K6\u002C1*%
X197688200Y-133388100D03*
X210615200Y-130848100D03*
%TD*%
%TO.C,K6\u002C2*%
X207721200Y-152628600D03*
X220648200Y-150088600D03*
%TD*%
%TO.C,K6\u002C0*%
X229676960Y-107607100D03*
X242603960Y-105067100D03*
%TD*%
%TO.C,K7\u002C2*%
X227025200Y-152628600D03*
X239952200Y-150088600D03*
%TD*%
%TO.C,K7\u002C1*%
X216992200Y-133388100D03*
X229919200Y-130848100D03*
%TD*%
%TO.C,K7\u002C3*%
X231914700Y-172059600D03*
X244841700Y-169519600D03*
%TD*%
%TO.C,K7\u002C4*%
X241312700Y-191871600D03*
X254239700Y-189331600D03*
%TD*%
%TO.C,K7\u002C0*%
X248980960Y-107607100D03*
X261907960Y-105067100D03*
%TD*%
%TO.C,K8\u002C1*%
X236296200Y-133388100D03*
X249223200Y-130848100D03*
%TD*%
%TO.C,K8\u002C3*%
X251218700Y-172059600D03*
X264145700Y-169519600D03*
%TD*%
%TO.C,K8\u002C4*%
X260616700Y-191871600D03*
X273543700Y-189331600D03*
%TD*%
%TO.C,K8\u002C5*%
X277545800Y-211302600D03*
X290472800Y-208762600D03*
%TD*%
%TO.C,K8\u002C2*%
X246329200Y-152628600D03*
X259256200Y-150088600D03*
%TD*%
%TO.C,K9\u002C0*%
X294700960Y-107607100D03*
X307627960Y-105067100D03*
%TD*%
%TO.C,K9\u002C5*%
X301701200Y-211302600D03*
X314628200Y-208762600D03*
%TD*%
%TO.C,K9\u002C1*%
X255600200Y-133388100D03*
X268527200Y-130848100D03*
%TD*%
%TO.C,K9\u002C2*%
X265633200Y-152628600D03*
X278560200Y-150088600D03*
%TD*%
%TO.C,K9\u002C4*%
X279920700Y-191871600D03*
X292847700Y-189331600D03*
%TD*%
%TO.C,K9\u002C3*%
X270522700Y-172059600D03*
X283449700Y-169519600D03*
%TD*%
%TO.C,K10\u002C2*%
X284937200Y-152628600D03*
X297864200Y-150088600D03*
%TD*%
%TO.C,K10\u002C0*%
X314004960Y-107607100D03*
X326931960Y-105067100D03*
%TD*%
%TO.C,K10\u002C5*%
X325894700Y-211302600D03*
X338821700Y-208762600D03*
%TD*%
%TO.C,K10\u002C1*%
X274904200Y-133388100D03*
X287831200Y-130848100D03*
%TD*%
%TO.C,K10\u002C4*%
X299224700Y-191871600D03*
X312151700Y-189331600D03*
%TD*%
%TO.C,K11\u002C3*%
X309130700Y-172059600D03*
X322057700Y-169519600D03*
%TD*%
%TO.C,K11\u002C2*%
X304241200Y-152628600D03*
X317168200Y-150088600D03*
%TD*%
%TO.C,K11\u002C5*%
X349961200Y-211302600D03*
X362888200Y-208762600D03*
%TD*%
%TO.C,K11\u002C1*%
X294208200Y-133388100D03*
X307135200Y-130848100D03*
%TD*%
%TO.C,K11\u002C0*%
X333308960Y-107607100D03*
X346235960Y-105067100D03*
%TD*%
%TO.C,K12\u002C2*%
X323545200Y-152628600D03*
X336472200Y-150088600D03*
%TD*%
%TO.C,K12\u002C0*%
X352612960Y-107607100D03*
X365539960Y-105067100D03*
%TD*%
%TO.C,K12\u002C1*%
X313512200Y-133388100D03*
X326439200Y-130848100D03*
%TD*%
%TO.C,K13\u002C2*%
X347484700Y-152641300D03*
X360411700Y-150101300D03*
%TD*%
%TO.C,K14\u002C6*%
X375069100Y-211175600D03*
X387996100Y-208635600D03*
%TD*%
%TO.C,K14\u002C3*%
X375132600Y-152628600D03*
X388059600Y-150088600D03*
%TD*%
%TO.C,K14\u002C0*%
X375183400Y-107607100D03*
X388110400Y-105067100D03*
%TD*%
%TO.C,K15\u002C6*%
X394373100Y-211175600D03*
X407300100Y-208635600D03*
%TD*%
%TO.C,K15\u002C3*%
X394436600Y-152628600D03*
X407363600Y-150088600D03*
%TD*%
%TO.C,K15\u002C5*%
X394373100Y-191871600D03*
X407300100Y-189331600D03*
%TD*%
%TO.C,K15\u002C1*%
X394436600Y-133388100D03*
X407363600Y-130848100D03*
%TD*%
%TO.C,K15\u002C0*%
X394741400Y-107607100D03*
X407668400Y-105067100D03*
%TD*%
%TO.C,K16\u002C4*%
X437616600Y-172059600D03*
X450543600Y-169519600D03*
%TD*%
%TO.C,K16\u002C5*%
X437616600Y-191363600D03*
X450543600Y-188823600D03*
%TD*%
%TO.C,K16\u002C3*%
X413740600Y-152628600D03*
X426667600Y-150088600D03*
%TD*%
%TO.C,K16\u002C0*%
X414045400Y-107607100D03*
X426972400Y-105067100D03*
%TD*%
%TO.C,K16\u002C6*%
X413677100Y-211175600D03*
X426604100Y-208635600D03*
%TD*%
%TO.C,K17\u002C6*%
X447141600Y-210667600D03*
X460068600Y-208127600D03*
%TD*%
%TO.C,K17\u002C5*%
X456920600Y-191363600D03*
X469847600Y-188823600D03*
%TD*%
%TO.C,K17\u002C4*%
X456920600Y-172059600D03*
X469847600Y-169519600D03*
%TD*%
%TO.C,K17\u002C3*%
X437616600Y-152755600D03*
X450543600Y-150215600D03*
%TD*%
%TO.C,K17\u002C1*%
X437616600Y-133388100D03*
X450543600Y-130848100D03*
%TD*%
%TO.C,K17\u002C0*%
X437553100Y-107607100D03*
X450480100Y-105067100D03*
%TD*%
%TO.C,K18\u002C6*%
X476224600Y-210667600D03*
X489151600Y-208127600D03*
%TD*%
%TO.C,K18\u002C3*%
X456920600Y-152755600D03*
X469847600Y-150215600D03*
%TD*%
%TO.C,K18\u002C1*%
X456920600Y-133388100D03*
X469847600Y-130848100D03*
%TD*%
%TO.C,K18\u002C5*%
X476224600Y-191363600D03*
X489151600Y-188823600D03*
%TD*%
%TO.C,K18\u002C0*%
X456857100Y-107607100D03*
X469784100Y-105067100D03*
%TD*%
%TO.C,K19\u002C6*%
X495528600Y-201015600D03*
X508455600Y-198475600D03*
%TD*%
%TO.C,K19\u002C0*%
X476161100Y-107607100D03*
X489088100Y-105067100D03*
%TD*%
%TO.C,K19\u002C3*%
X476224600Y-152755600D03*
X489151600Y-150215600D03*
%TD*%
%TO.C,K19\u002C1*%
X476224600Y-133388100D03*
X489151600Y-130848100D03*
%TD*%
%TO.C,K20\u002C0*%
X495465100Y-107607100D03*
X508392100Y-105067100D03*
%TD*%
%TO.C,K20\u002C1*%
X495528600Y-133388100D03*
X508455600Y-130848100D03*
%TD*%
%TO.C,U1*%
G36*
G01*
X103766200Y-103863000D02*
X103766200Y-104163000D01*
G75*
G02*
X103616200Y-104313000I-150000J0D01*
G01*
X101866200Y-104313000D01*
G75*
G02*
X101716200Y-104163000I0J150000D01*
G01*
X101716200Y-103863000D01*
G75*
G02*
X101866200Y-103713000I150000J0D01*
G01*
X103616200Y-103713000D01*
G75*
G02*
X103766200Y-103863000I0J-150000D01*
G01*
G37*
G36*
G01*
X103766200Y-105133000D02*
X103766200Y-105433000D01*
G75*
G02*
X103616200Y-105583000I-150000J0D01*
G01*
X101866200Y-105583000D01*
G75*
G02*
X101716200Y-105433000I0J150000D01*
G01*
X101716200Y-105133000D01*
G75*
G02*
X101866200Y-104983000I150000J0D01*
G01*
X103616200Y-104983000D01*
G75*
G02*
X103766200Y-105133000I0J-150000D01*
G01*
G37*
G36*
G01*
X103766200Y-106403000D02*
X103766200Y-106703000D01*
G75*
G02*
X103616200Y-106853000I-150000J0D01*
G01*
X101866200Y-106853000D01*
G75*
G02*
X101716200Y-106703000I0J150000D01*
G01*
X101716200Y-106403000D01*
G75*
G02*
X101866200Y-106253000I150000J0D01*
G01*
X103616200Y-106253000D01*
G75*
G02*
X103766200Y-106403000I0J-150000D01*
G01*
G37*
G36*
G01*
X103766200Y-107673000D02*
X103766200Y-107973000D01*
G75*
G02*
X103616200Y-108123000I-150000J0D01*
G01*
X101866200Y-108123000D01*
G75*
G02*
X101716200Y-107973000I0J150000D01*
G01*
X101716200Y-107673000D01*
G75*
G02*
X101866200Y-107523000I150000J0D01*
G01*
X103616200Y-107523000D01*
G75*
G02*
X103766200Y-107673000I0J-150000D01*
G01*
G37*
G36*
G01*
X103766200Y-108943000D02*
X103766200Y-109243000D01*
G75*
G02*
X103616200Y-109393000I-150000J0D01*
G01*
X101866200Y-109393000D01*
G75*
G02*
X101716200Y-109243000I0J150000D01*
G01*
X101716200Y-108943000D01*
G75*
G02*
X101866200Y-108793000I150000J0D01*
G01*
X103616200Y-108793000D01*
G75*
G02*
X103766200Y-108943000I0J-150000D01*
G01*
G37*
G36*
G01*
X103766200Y-110213000D02*
X103766200Y-110513000D01*
G75*
G02*
X103616200Y-110663000I-150000J0D01*
G01*
X101866200Y-110663000D01*
G75*
G02*
X101716200Y-110513000I0J150000D01*
G01*
X101716200Y-110213000D01*
G75*
G02*
X101866200Y-110063000I150000J0D01*
G01*
X103616200Y-110063000D01*
G75*
G02*
X103766200Y-110213000I0J-150000D01*
G01*
G37*
G36*
G01*
X103766200Y-111483000D02*
X103766200Y-111783000D01*
G75*
G02*
X103616200Y-111933000I-150000J0D01*
G01*
X101866200Y-111933000D01*
G75*
G02*
X101716200Y-111783000I0J150000D01*
G01*
X101716200Y-111483000D01*
G75*
G02*
X101866200Y-111333000I150000J0D01*
G01*
X103616200Y-111333000D01*
G75*
G02*
X103766200Y-111483000I0J-150000D01*
G01*
G37*
G36*
G01*
X103766200Y-112753000D02*
X103766200Y-113053000D01*
G75*
G02*
X103616200Y-113203000I-150000J0D01*
G01*
X101866200Y-113203000D01*
G75*
G02*
X101716200Y-113053000I0J150000D01*
G01*
X101716200Y-112753000D01*
G75*
G02*
X101866200Y-112603000I150000J0D01*
G01*
X103616200Y-112603000D01*
G75*
G02*
X103766200Y-112753000I0J-150000D01*
G01*
G37*
G36*
G01*
X103766200Y-114023000D02*
X103766200Y-114323000D01*
G75*
G02*
X103616200Y-114473000I-150000J0D01*
G01*
X101866200Y-114473000D01*
G75*
G02*
X101716200Y-114323000I0J150000D01*
G01*
X101716200Y-114023000D01*
G75*
G02*
X101866200Y-113873000I150000J0D01*
G01*
X103616200Y-113873000D01*
G75*
G02*
X103766200Y-114023000I0J-150000D01*
G01*
G37*
G36*
G01*
X103766200Y-115293000D02*
X103766200Y-115593000D01*
G75*
G02*
X103616200Y-115743000I-150000J0D01*
G01*
X101866200Y-115743000D01*
G75*
G02*
X101716200Y-115593000I0J150000D01*
G01*
X101716200Y-115293000D01*
G75*
G02*
X101866200Y-115143000I150000J0D01*
G01*
X103616200Y-115143000D01*
G75*
G02*
X103766200Y-115293000I0J-150000D01*
G01*
G37*
G36*
G01*
X103766200Y-116563000D02*
X103766200Y-116863000D01*
G75*
G02*
X103616200Y-117013000I-150000J0D01*
G01*
X101866200Y-117013000D01*
G75*
G02*
X101716200Y-116863000I0J150000D01*
G01*
X101716200Y-116563000D01*
G75*
G02*
X101866200Y-116413000I150000J0D01*
G01*
X103616200Y-116413000D01*
G75*
G02*
X103766200Y-116563000I0J-150000D01*
G01*
G37*
G36*
G01*
X103766200Y-117833000D02*
X103766200Y-118133000D01*
G75*
G02*
X103616200Y-118283000I-150000J0D01*
G01*
X101866200Y-118283000D01*
G75*
G02*
X101716200Y-118133000I0J150000D01*
G01*
X101716200Y-117833000D01*
G75*
G02*
X101866200Y-117683000I150000J0D01*
G01*
X103616200Y-117683000D01*
G75*
G02*
X103766200Y-117833000I0J-150000D01*
G01*
G37*
G36*
G01*
X103766200Y-119103000D02*
X103766200Y-119403000D01*
G75*
G02*
X103616200Y-119553000I-150000J0D01*
G01*
X101866200Y-119553000D01*
G75*
G02*
X101716200Y-119403000I0J150000D01*
G01*
X101716200Y-119103000D01*
G75*
G02*
X101866200Y-118953000I150000J0D01*
G01*
X103616200Y-118953000D01*
G75*
G02*
X103766200Y-119103000I0J-150000D01*
G01*
G37*
G36*
G01*
X103766200Y-120373000D02*
X103766200Y-120673000D01*
G75*
G02*
X103616200Y-120823000I-150000J0D01*
G01*
X101866200Y-120823000D01*
G75*
G02*
X101716200Y-120673000I0J150000D01*
G01*
X101716200Y-120373000D01*
G75*
G02*
X101866200Y-120223000I150000J0D01*
G01*
X103616200Y-120223000D01*
G75*
G02*
X103766200Y-120373000I0J-150000D01*
G01*
G37*
G36*
G01*
X113066200Y-120373000D02*
X113066200Y-120673000D01*
G75*
G02*
X112916200Y-120823000I-150000J0D01*
G01*
X111166200Y-120823000D01*
G75*
G02*
X111016200Y-120673000I0J150000D01*
G01*
X111016200Y-120373000D01*
G75*
G02*
X111166200Y-120223000I150000J0D01*
G01*
X112916200Y-120223000D01*
G75*
G02*
X113066200Y-120373000I0J-150000D01*
G01*
G37*
G36*
G01*
X113066200Y-119103000D02*
X113066200Y-119403000D01*
G75*
G02*
X112916200Y-119553000I-150000J0D01*
G01*
X111166200Y-119553000D01*
G75*
G02*
X111016200Y-119403000I0J150000D01*
G01*
X111016200Y-119103000D01*
G75*
G02*
X111166200Y-118953000I150000J0D01*
G01*
X112916200Y-118953000D01*
G75*
G02*
X113066200Y-119103000I0J-150000D01*
G01*
G37*
G36*
G01*
X113066200Y-117833000D02*
X113066200Y-118133000D01*
G75*
G02*
X112916200Y-118283000I-150000J0D01*
G01*
X111166200Y-118283000D01*
G75*
G02*
X111016200Y-118133000I0J150000D01*
G01*
X111016200Y-117833000D01*
G75*
G02*
X111166200Y-117683000I150000J0D01*
G01*
X112916200Y-117683000D01*
G75*
G02*
X113066200Y-117833000I0J-150000D01*
G01*
G37*
G36*
G01*
X113066200Y-116563000D02*
X113066200Y-116863000D01*
G75*
G02*
X112916200Y-117013000I-150000J0D01*
G01*
X111166200Y-117013000D01*
G75*
G02*
X111016200Y-116863000I0J150000D01*
G01*
X111016200Y-116563000D01*
G75*
G02*
X111166200Y-116413000I150000J0D01*
G01*
X112916200Y-116413000D01*
G75*
G02*
X113066200Y-116563000I0J-150000D01*
G01*
G37*
G36*
G01*
X113066200Y-115293000D02*
X113066200Y-115593000D01*
G75*
G02*
X112916200Y-115743000I-150000J0D01*
G01*
X111166200Y-115743000D01*
G75*
G02*
X111016200Y-115593000I0J150000D01*
G01*
X111016200Y-115293000D01*
G75*
G02*
X111166200Y-115143000I150000J0D01*
G01*
X112916200Y-115143000D01*
G75*
G02*
X113066200Y-115293000I0J-150000D01*
G01*
G37*
G36*
G01*
X113066200Y-114023000D02*
X113066200Y-114323000D01*
G75*
G02*
X112916200Y-114473000I-150000J0D01*
G01*
X111166200Y-114473000D01*
G75*
G02*
X111016200Y-114323000I0J150000D01*
G01*
X111016200Y-114023000D01*
G75*
G02*
X111166200Y-113873000I150000J0D01*
G01*
X112916200Y-113873000D01*
G75*
G02*
X113066200Y-114023000I0J-150000D01*
G01*
G37*
G36*
G01*
X113066200Y-112753000D02*
X113066200Y-113053000D01*
G75*
G02*
X112916200Y-113203000I-150000J0D01*
G01*
X111166200Y-113203000D01*
G75*
G02*
X111016200Y-113053000I0J150000D01*
G01*
X111016200Y-112753000D01*
G75*
G02*
X111166200Y-112603000I150000J0D01*
G01*
X112916200Y-112603000D01*
G75*
G02*
X113066200Y-112753000I0J-150000D01*
G01*
G37*
G36*
G01*
X113066200Y-111483000D02*
X113066200Y-111783000D01*
G75*
G02*
X112916200Y-111933000I-150000J0D01*
G01*
X111166200Y-111933000D01*
G75*
G02*
X111016200Y-111783000I0J150000D01*
G01*
X111016200Y-111483000D01*
G75*
G02*
X111166200Y-111333000I150000J0D01*
G01*
X112916200Y-111333000D01*
G75*
G02*
X113066200Y-111483000I0J-150000D01*
G01*
G37*
G36*
G01*
X113066200Y-110213000D02*
X113066200Y-110513000D01*
G75*
G02*
X112916200Y-110663000I-150000J0D01*
G01*
X111166200Y-110663000D01*
G75*
G02*
X111016200Y-110513000I0J150000D01*
G01*
X111016200Y-110213000D01*
G75*
G02*
X111166200Y-110063000I150000J0D01*
G01*
X112916200Y-110063000D01*
G75*
G02*
X113066200Y-110213000I0J-150000D01*
G01*
G37*
G36*
G01*
X113066200Y-108943000D02*
X113066200Y-109243000D01*
G75*
G02*
X112916200Y-109393000I-150000J0D01*
G01*
X111166200Y-109393000D01*
G75*
G02*
X111016200Y-109243000I0J150000D01*
G01*
X111016200Y-108943000D01*
G75*
G02*
X111166200Y-108793000I150000J0D01*
G01*
X112916200Y-108793000D01*
G75*
G02*
X113066200Y-108943000I0J-150000D01*
G01*
G37*
G36*
G01*
X113066200Y-107673000D02*
X113066200Y-107973000D01*
G75*
G02*
X112916200Y-108123000I-150000J0D01*
G01*
X111166200Y-108123000D01*
G75*
G02*
X111016200Y-107973000I0J150000D01*
G01*
X111016200Y-107673000D01*
G75*
G02*
X111166200Y-107523000I150000J0D01*
G01*
X112916200Y-107523000D01*
G75*
G02*
X113066200Y-107673000I0J-150000D01*
G01*
G37*
G36*
G01*
X113066200Y-106403000D02*
X113066200Y-106703000D01*
G75*
G02*
X112916200Y-106853000I-150000J0D01*
G01*
X111166200Y-106853000D01*
G75*
G02*
X111016200Y-106703000I0J150000D01*
G01*
X111016200Y-106403000D01*
G75*
G02*
X111166200Y-106253000I150000J0D01*
G01*
X112916200Y-106253000D01*
G75*
G02*
X113066200Y-106403000I0J-150000D01*
G01*
G37*
G36*
G01*
X113066200Y-105133000D02*
X113066200Y-105433000D01*
G75*
G02*
X112916200Y-105583000I-150000J0D01*
G01*
X111166200Y-105583000D01*
G75*
G02*
X111016200Y-105433000I0J150000D01*
G01*
X111016200Y-105133000D01*
G75*
G02*
X111166200Y-104983000I150000J0D01*
G01*
X112916200Y-104983000D01*
G75*
G02*
X113066200Y-105133000I0J-150000D01*
G01*
G37*
G36*
G01*
X113066200Y-103863000D02*
X113066200Y-104163000D01*
G75*
G02*
X112916200Y-104313000I-150000J0D01*
G01*
X111166200Y-104313000D01*
G75*
G02*
X111016200Y-104163000I0J150000D01*
G01*
X111016200Y-103863000D01*
G75*
G02*
X111166200Y-103713000I150000J0D01*
G01*
X112916200Y-103713000D01*
G75*
G02*
X113066200Y-103863000I0J-150000D01*
G01*
G37*
%TD*%
%TO.C,U11*%
G36*
G01*
X440819400Y-85612100D02*
X441119400Y-85612100D01*
G75*
G02*
X441269400Y-85762100I0J-150000D01*
G01*
X441269400Y-87412100D01*
G75*
G02*
X441119400Y-87562100I-150000J0D01*
G01*
X440819400Y-87562100D01*
G75*
G02*
X440669400Y-87412100I0J150000D01*
G01*
X440669400Y-85762100D01*
G75*
G02*
X440819400Y-85612100I150000J0D01*
G01*
G37*
G36*
G01*
X442089400Y-85612100D02*
X442389400Y-85612100D01*
G75*
G02*
X442539400Y-85762100I0J-150000D01*
G01*
X442539400Y-87412100D01*
G75*
G02*
X442389400Y-87562100I-150000J0D01*
G01*
X442089400Y-87562100D01*
G75*
G02*
X441939400Y-87412100I0J150000D01*
G01*
X441939400Y-85762100D01*
G75*
G02*
X442089400Y-85612100I150000J0D01*
G01*
G37*
G36*
G01*
X443359400Y-85612100D02*
X443659400Y-85612100D01*
G75*
G02*
X443809400Y-85762100I0J-150000D01*
G01*
X443809400Y-87412100D01*
G75*
G02*
X443659400Y-87562100I-150000J0D01*
G01*
X443359400Y-87562100D01*
G75*
G02*
X443209400Y-87412100I0J150000D01*
G01*
X443209400Y-85762100D01*
G75*
G02*
X443359400Y-85612100I150000J0D01*
G01*
G37*
G36*
G01*
X444629400Y-85612100D02*
X444929400Y-85612100D01*
G75*
G02*
X445079400Y-85762100I0J-150000D01*
G01*
X445079400Y-87412100D01*
G75*
G02*
X444929400Y-87562100I-150000J0D01*
G01*
X444629400Y-87562100D01*
G75*
G02*
X444479400Y-87412100I0J150000D01*
G01*
X444479400Y-85762100D01*
G75*
G02*
X444629400Y-85612100I150000J0D01*
G01*
G37*
G36*
G01*
X445899400Y-85612100D02*
X446199400Y-85612100D01*
G75*
G02*
X446349400Y-85762100I0J-150000D01*
G01*
X446349400Y-87412100D01*
G75*
G02*
X446199400Y-87562100I-150000J0D01*
G01*
X445899400Y-87562100D01*
G75*
G02*
X445749400Y-87412100I0J150000D01*
G01*
X445749400Y-85762100D01*
G75*
G02*
X445899400Y-85612100I150000J0D01*
G01*
G37*
G36*
G01*
X447169400Y-85612100D02*
X447469400Y-85612100D01*
G75*
G02*
X447619400Y-85762100I0J-150000D01*
G01*
X447619400Y-87412100D01*
G75*
G02*
X447469400Y-87562100I-150000J0D01*
G01*
X447169400Y-87562100D01*
G75*
G02*
X447019400Y-87412100I0J150000D01*
G01*
X447019400Y-85762100D01*
G75*
G02*
X447169400Y-85612100I150000J0D01*
G01*
G37*
G36*
G01*
X448439400Y-85612100D02*
X448739400Y-85612100D01*
G75*
G02*
X448889400Y-85762100I0J-150000D01*
G01*
X448889400Y-87412100D01*
G75*
G02*
X448739400Y-87562100I-150000J0D01*
G01*
X448439400Y-87562100D01*
G75*
G02*
X448289400Y-87412100I0J150000D01*
G01*
X448289400Y-85762100D01*
G75*
G02*
X448439400Y-85612100I150000J0D01*
G01*
G37*
G36*
G01*
X448439400Y-80662100D02*
X448739400Y-80662100D01*
G75*
G02*
X448889400Y-80812100I0J-150000D01*
G01*
X448889400Y-82462100D01*
G75*
G02*
X448739400Y-82612100I-150000J0D01*
G01*
X448439400Y-82612100D01*
G75*
G02*
X448289400Y-82462100I0J150000D01*
G01*
X448289400Y-80812100D01*
G75*
G02*
X448439400Y-80662100I150000J0D01*
G01*
G37*
G36*
G01*
X447169400Y-80662100D02*
X447469400Y-80662100D01*
G75*
G02*
X447619400Y-80812100I0J-150000D01*
G01*
X447619400Y-82462100D01*
G75*
G02*
X447469400Y-82612100I-150000J0D01*
G01*
X447169400Y-82612100D01*
G75*
G02*
X447019400Y-82462100I0J150000D01*
G01*
X447019400Y-80812100D01*
G75*
G02*
X447169400Y-80662100I150000J0D01*
G01*
G37*
G36*
G01*
X445899400Y-80662100D02*
X446199400Y-80662100D01*
G75*
G02*
X446349400Y-80812100I0J-150000D01*
G01*
X446349400Y-82462100D01*
G75*
G02*
X446199400Y-82612100I-150000J0D01*
G01*
X445899400Y-82612100D01*
G75*
G02*
X445749400Y-82462100I0J150000D01*
G01*
X445749400Y-80812100D01*
G75*
G02*
X445899400Y-80662100I150000J0D01*
G01*
G37*
G36*
G01*
X444629400Y-80662100D02*
X444929400Y-80662100D01*
G75*
G02*
X445079400Y-80812100I0J-150000D01*
G01*
X445079400Y-82462100D01*
G75*
G02*
X444929400Y-82612100I-150000J0D01*
G01*
X444629400Y-82612100D01*
G75*
G02*
X444479400Y-82462100I0J150000D01*
G01*
X444479400Y-80812100D01*
G75*
G02*
X444629400Y-80662100I150000J0D01*
G01*
G37*
G36*
G01*
X443359400Y-80662100D02*
X443659400Y-80662100D01*
G75*
G02*
X443809400Y-80812100I0J-150000D01*
G01*
X443809400Y-82462100D01*
G75*
G02*
X443659400Y-82612100I-150000J0D01*
G01*
X443359400Y-82612100D01*
G75*
G02*
X443209400Y-82462100I0J150000D01*
G01*
X443209400Y-80812100D01*
G75*
G02*
X443359400Y-80662100I150000J0D01*
G01*
G37*
G36*
G01*
X442089400Y-80662100D02*
X442389400Y-80662100D01*
G75*
G02*
X442539400Y-80812100I0J-150000D01*
G01*
X442539400Y-82462100D01*
G75*
G02*
X442389400Y-82612100I-150000J0D01*
G01*
X442089400Y-82612100D01*
G75*
G02*
X441939400Y-82462100I0J150000D01*
G01*
X441939400Y-80812100D01*
G75*
G02*
X442089400Y-80662100I150000J0D01*
G01*
G37*
G36*
G01*
X440819400Y-80662100D02*
X441119400Y-80662100D01*
G75*
G02*
X441269400Y-80812100I0J-150000D01*
G01*
X441269400Y-82462100D01*
G75*
G02*
X441119400Y-82612100I-150000J0D01*
G01*
X440819400Y-82612100D01*
G75*
G02*
X440669400Y-82462100I0J150000D01*
G01*
X440669400Y-80812100D01*
G75*
G02*
X440819400Y-80662100I150000J0D01*
G01*
G37*
%TD*%
%TO.C,C4*%
G36*
G01*
X454004700Y-87408600D02*
X453054700Y-87408600D01*
G75*
G02*
X452804700Y-87158600I0J250000D01*
G01*
X452804700Y-86483600D01*
G75*
G02*
X453054700Y-86233600I250000J0D01*
G01*
X454004700Y-86233600D01*
G75*
G02*
X454254700Y-86483600I0J-250000D01*
G01*
X454254700Y-87158600D01*
G75*
G02*
X454004700Y-87408600I-250000J0D01*
G01*
G37*
G36*
G01*
X454004700Y-89483600D02*
X453054700Y-89483600D01*
G75*
G02*
X452804700Y-89233600I0J250000D01*
G01*
X452804700Y-88558600D01*
G75*
G02*
X453054700Y-88308600I250000J0D01*
G01*
X454004700Y-88308600D01*
G75*
G02*
X454254700Y-88558600I0J-250000D01*
G01*
X454254700Y-89233600D01*
G75*
G02*
X454004700Y-89483600I-250000J0D01*
G01*
G37*
%TD*%
%TO.C,C5*%
G36*
G01*
X438513200Y-86086100D02*
X439463200Y-86086100D01*
G75*
G02*
X439713200Y-86336100I0J-250000D01*
G01*
X439713200Y-87011100D01*
G75*
G02*
X439463200Y-87261100I-250000J0D01*
G01*
X438513200Y-87261100D01*
G75*
G02*
X438263200Y-87011100I0J250000D01*
G01*
X438263200Y-86336100D01*
G75*
G02*
X438513200Y-86086100I250000J0D01*
G01*
G37*
G36*
G01*
X438513200Y-84011100D02*
X439463200Y-84011100D01*
G75*
G02*
X439713200Y-84261100I0J-250000D01*
G01*
X439713200Y-84936100D01*
G75*
G02*
X439463200Y-85186100I-250000J0D01*
G01*
X438513200Y-85186100D01*
G75*
G02*
X438263200Y-84936100I0J250000D01*
G01*
X438263200Y-84261100D01*
G75*
G02*
X438513200Y-84011100I250000J0D01*
G01*
G37*
%TD*%
%TO.C,C7*%
G36*
G01*
X438576700Y-80815600D02*
X439526700Y-80815600D01*
G75*
G02*
X439776700Y-81065600I0J-250000D01*
G01*
X439776700Y-81740600D01*
G75*
G02*
X439526700Y-81990600I-250000J0D01*
G01*
X438576700Y-81990600D01*
G75*
G02*
X438326700Y-81740600I0J250000D01*
G01*
X438326700Y-81065600D01*
G75*
G02*
X438576700Y-80815600I250000J0D01*
G01*
G37*
G36*
G01*
X438576700Y-78740600D02*
X439526700Y-78740600D01*
G75*
G02*
X439776700Y-78990600I0J-250000D01*
G01*
X439776700Y-79665600D01*
G75*
G02*
X439526700Y-79915600I-250000J0D01*
G01*
X438576700Y-79915600D01*
G75*
G02*
X438326700Y-79665600I0J250000D01*
G01*
X438326700Y-78990600D01*
G75*
G02*
X438576700Y-78740600I250000J0D01*
G01*
G37*
%TD*%
D13*
%TO.C,R1*%
X459054200Y-88573600D03*
X459054200Y-85873600D03*
%TD*%
%TO.C,R2*%
X461086200Y-88573600D03*
X461086200Y-85873600D03*
%TD*%
D14*
%TO.C,R3*%
X459863200Y-83858100D03*
X462563200Y-83858100D03*
%TD*%
D13*
%TO.C,R4*%
X459435200Y-77999600D03*
X459435200Y-80699600D03*
%TD*%
%TO.C,R5*%
X457530200Y-77999600D03*
X457530200Y-80699600D03*
%TD*%
M02*
