M48
; DRILL file {KiCad (5.1.9)-1} date 03/20/21 17:55:28
; FORMAT={-:-/ absolute / inch / decimal}
; #@! TF.CreationDate,2021-03-20T17:55:28+10:00
; #@! TF.GenerationSoftware,Kicad,Pcbnew,(5.1.9)-1
; #@! TF.FileFunction,Plated,1,4,PTH
FMAT,2
INCH
T1C0.0157
T2C0.0276
T3C0.0374
T4C0.0402
%
G90
G05
T1
X2.018Y-3.702
X2.158Y-3.562
X2.1755Y-4.6395
X2.1855Y-4.4895
X2.1855Y-4.5895
X2.1905Y-4.3895
X2.1955Y-4.4395
X2.1955Y-4.5395
X2.238Y-3.862
X2.318Y-4.242
X2.358Y-3.862
X2.3905Y-4.2895
X2.418Y-5.062
X2.588Y-3.232
X2.618Y-3.902
X2.618Y-4.062
X2.638Y-3.462
X2.638Y-3.842
X2.688Y-3.392
X2.738Y-3.382
X2.788Y-3.372
X2.788Y-4.452
X2.808Y-4.152
X2.808Y-4.252
X2.808Y-4.352
X2.8105Y-5.1145
X2.8155Y-4.7645
X2.8155Y-5.0645
X2.8155Y-5.3645
X2.818Y-4.202
X2.818Y-4.302
X2.818Y-4.822
X2.8755Y-5.1645
X2.878Y-3.422
X2.878Y-3.642
X2.8784Y-4.5816
X2.8905Y-5.2145
X2.918Y-4.022
X2.9355Y-5.2645
X2.938Y-3.442
X2.938Y-4.082
X2.958Y-4.122
X2.9754Y-3.1046
X2.978Y-4.582
X2.9847Y-3.6495
X3.0105Y-5.3145
X3.018Y-4.922
X3.018Y-4.982
X3.018Y-8.082
X3.113Y-3.247
X3.118Y-6.262
X3.138Y-6.182
X3.138Y-8.102
X3.1655Y-5.3145
X3.168Y-4.152
X3.168Y-4.252
X3.168Y-4.352
X3.1705Y-5.1145
X3.1705Y-5.2145
X3.1755Y-5.0645
X3.1755Y-5.1645
X3.1755Y-5.2645
X3.178Y-4.102
X3.178Y-4.202
X3.178Y-4.302
X3.178Y-4.402
X3.238Y-4.642
X3.418Y-7.882
X3.438Y-7.822
X3.478Y-4.802
X3.518Y-4.742
X3.678Y-5.542
X3.698Y-5.482
X3.988Y-4.91
X4.0053Y-5.6607
X4.339Y-7.951
X4.398Y-3.857
X4.47Y-6.41
X4.47Y-7.214
X4.487Y-3.391
X4.6959Y-5.152
X5.4519Y-5.1481
X5.5405Y-2.882
X5.8555Y-2.882
X6.1405Y-3.3995
X6.1919Y-5.1481
X6.9519Y-5.1481
X7.0561Y-4.8939
X7.152Y-7.958
X7.2401Y-7.2001
X7.308Y-5.644
X7.4511Y-6.3989
X7.7119Y-5.1515
X8.154Y-3.396
X8.4719Y-5.1481
X8.574Y-4.904
X8.8529Y-5.6491
X9.12Y-6.41
X9.508Y-7.2
X9.508Y-7.962
X10.5469Y-3.654
X11.3069Y-3.654
X11.5545Y-3.3915
X12.3469Y-3.654
X12.742Y-7.976
X13.07Y-7.204
X13.1069Y-3.654
X13.276Y-6.414
X13.335Y-4.899
X13.493Y-5.651
X13.638Y-6.422
X13.8669Y-3.654
X13.874Y-6.4196
X14.1644Y-5.1495
X14.6269Y-3.654
X14.6659Y-8.2099
X14.698Y-8.142
X15.7869Y-3.654
X16.5569Y-3.654
X17.3169Y-3.654
X17.471Y-3.405
X17.558Y-4.896
X17.558Y-5.644
X17.558Y-6.356
X17.558Y-7.202
X17.558Y-7.952
X18.06Y-4.284
X18.0649Y-4.2289
X18.4869Y-3.654
X19.2469Y-3.654
X20.0069Y-3.654
X20.264Y-7.14
X20.694Y-6.016
X20.697Y-3.245
X20.71Y-7.49
X20.72Y-4.288
X20.72Y-4.866
X20.758Y-5.81
X20.7669Y-3.654
T2
X3.3605Y-3.4485
X3.3605Y-3.7555
X3.3605Y-4.9485
X3.3605Y-5.2555
X3.4555Y-8.0135
X3.4555Y-8.3205
X3.538Y-5.7035
X3.538Y-6.0105
X3.638Y-6.4735
X3.638Y-6.7805
X3.8255Y-7.251
X3.8255Y-7.558
X4.1205Y-4.9485
X4.1205Y-5.2555
X4.4155Y-8.0135
X4.4155Y-8.3205
X4.4805Y-5.7035
X4.4805Y-6.0105
X4.673Y-6.4685
X4.673Y-6.7755
X4.8655Y-4.946
X4.8655Y-5.253
X4.9205Y-3.4505
X4.9205Y-3.7575
X5.043Y-7.2485
X5.043Y-7.5555
X5.2405Y-5.7035
X5.2405Y-6.0105
X5.3755Y-8.0135
X5.3755Y-8.3205
X5.433Y-6.4685
X5.433Y-6.7755
X5.6055Y-4.946
X5.6055Y-5.253
X5.6805Y-3.4485
X5.6805Y-3.7555
X5.803Y-7.2485
X5.803Y-7.5555
X6.0005Y-5.7035
X6.0005Y-6.0105
X6.193Y-6.4685
X6.193Y-6.7755
X6.3655Y-4.946
X6.3655Y-5.253
X6.4405Y-3.4485
X6.4405Y-3.7555
X6.563Y-7.2485
X6.563Y-7.5555
X6.7605Y-5.7035
X6.7605Y-6.0105
X6.953Y-6.4685
X6.953Y-6.7755
X7.1255Y-4.946
X7.1255Y-5.253
X7.2005Y-3.4485
X7.2005Y-3.7555
X7.323Y-7.2485
X7.323Y-7.5555
X7.5205Y-5.7035
X7.5205Y-6.0105
X7.713Y-6.4705
X7.713Y-6.7775
X7.8855Y-4.946
X7.8855Y-5.253
X8.083Y-7.2505
X8.083Y-7.5575
X8.2055Y-8.0135
X8.2055Y-8.3205
X8.2805Y-5.7035
X8.2805Y-6.0105
X8.4405Y-3.4485
X8.4405Y-3.7555
X8.473Y-6.4685
X8.473Y-6.7755
X8.6455Y-4.946
X8.6455Y-5.253
X8.843Y-7.2485
X8.843Y-7.5555
X9.0405Y-5.7055
X9.0405Y-6.0125
X9.2005Y-3.4485
X9.2005Y-3.7555
X9.233Y-6.4685
X9.233Y-6.7755
X9.4055Y-4.946
X9.4055Y-5.253
X9.603Y-7.2505
X9.603Y-7.5575
X9.8005Y-5.7035
X9.8005Y-6.0105
X9.9605Y-3.4485
X9.9605Y-3.7555
X9.993Y-6.4685
X9.993Y-6.7755
X10.1655Y-4.948
X10.1655Y-5.255
X10.363Y-7.2485
X10.363Y-7.5555
X10.5605Y-5.7035
X10.5605Y-6.0105
X10.7205Y-3.4505
X10.7205Y-3.7575
X10.753Y-6.4685
X10.753Y-6.7755
X10.9255Y-4.946
X10.9255Y-5.253
X11.0305Y-8.016
X11.0305Y-8.323
X11.123Y-7.2485
X11.123Y-7.5555
X11.3205Y-5.7055
X11.3205Y-6.0125
X11.513Y-6.4685
X11.513Y-6.7755
X11.6855Y-4.946
X11.6855Y-5.253
X11.7605Y-3.4485
X11.7605Y-3.7555
X11.883Y-7.2505
X11.883Y-7.5575
X11.9805Y-8.0135
X11.9805Y-8.3205
X12.0805Y-5.7035
X12.0805Y-6.0105
X12.273Y-6.4685
X12.273Y-6.7755
X12.4455Y-4.948
X12.4455Y-5.255
X12.5205Y-3.4485
X12.5205Y-3.7555
X12.8405Y-5.7035
X12.8405Y-6.0105
X12.933Y-8.0135
X12.933Y-8.3205
X13.2805Y-3.4485
X13.2805Y-3.7555
X13.323Y-7.2485
X13.323Y-7.5555
X13.513Y-6.471
X13.513Y-6.778
X13.5855Y-4.946
X13.5855Y-5.253
X13.778Y-5.706
X13.778Y-6.013
X13.8805Y-8.0135
X13.8805Y-8.3205
X14.0405Y-3.4485
X14.0405Y-3.7555
X15.083Y-8.0085
X15.083Y-8.3155
X15.0855Y-4.946
X15.0855Y-5.253
X15.0955Y-5.7035
X15.0955Y-6.0105
X15.2005Y-3.4485
X15.2005Y-3.7555
X15.843Y-7.2485
X15.843Y-7.5555
X15.843Y-8.0085
X15.843Y-8.3155
X15.8455Y-4.946
X15.8455Y-5.253
X15.8455Y-5.7035
X15.8455Y-6.0105
X15.9805Y-3.4485
X15.9805Y-3.7555
X16.603Y-8.0085
X16.603Y-8.3155
X16.6055Y-4.946
X16.6055Y-5.253
X16.6155Y-5.7035
X16.6155Y-6.0105
X16.7305Y-3.4485
X16.7305Y-3.7555
X17.8955Y-7.2285
X17.8955Y-7.5355
X17.9005Y-3.4485
X17.9005Y-3.7555
X17.9055Y-4.946
X17.9055Y-5.253
X17.9055Y-5.7085
X17.9055Y-6.0155
X17.9055Y-6.4685
X17.9055Y-6.7755
X18.2905Y-7.9905
X18.2905Y-8.2975
X18.6605Y-3.4485
X18.6605Y-3.7555
X18.6655Y-4.948
X18.6655Y-5.255
X18.6655Y-5.7085
X18.6655Y-6.0155
X18.6655Y-6.4685
X18.6655Y-6.7755
X18.6655Y-7.2285
X18.6655Y-7.5355
X19.4205Y-3.4485
X19.4205Y-3.7555
X19.4255Y-4.946
X19.4255Y-5.253
X19.4255Y-5.7085
X19.4255Y-6.0155
X19.4255Y-6.466
X19.4255Y-6.773
X19.4255Y-7.2285
X19.4255Y-7.5355
X19.4255Y-7.9885
X19.4255Y-8.2955
X20.1805Y-3.4505
X20.1805Y-3.7575
X20.1855Y-4.946
X20.1855Y-5.253
X20.1855Y-6.0755
X20.1855Y-6.3825
X20.1955Y-7.6085
X20.1955Y-7.9155
T3
X5.608Y-1.6467
X5.608Y-1.7451
X5.608Y-1.8436
X5.608Y-1.942
X5.608Y-2.1942
X5.608Y-2.2926
X5.608Y-2.3911
X5.608Y-2.4895
T4
X3.3444Y-1.9661
X3.3444Y-2.6661
X3.3535Y-2.2161
X3.3535Y-2.3161
X3.3535Y-2.4161
X3.4444Y-1.9661
X3.4444Y-2.6661
X3.5444Y-1.9661
X3.5444Y-2.6661
X3.6444Y-1.9661
X3.6444Y-2.6661
X3.7444Y-1.9661
X3.7444Y-2.6661
X3.8444Y-1.9661
X3.8444Y-2.6661
X3.9444Y-1.9661
X3.9444Y-2.6661
X4.0444Y-1.9661
X4.0444Y-2.6661
X4.1444Y-1.9661
X4.1444Y-2.6661
X4.2444Y-1.9661
X4.2444Y-2.6661
X4.3444Y-1.9661
X4.3444Y-2.6661
X4.4444Y-1.9661
X4.4444Y-2.6661
X4.5444Y-1.9661
X4.5444Y-2.6661
X4.6444Y-1.9661
X4.6444Y-2.6661
X4.7444Y-1.9661
X4.7444Y-2.6661
X4.8444Y-1.9661
X4.8444Y-2.6661
X4.9444Y-1.9661
X4.9444Y-2.6661
X5.0444Y-1.9661
X5.0444Y-2.6661
X5.1444Y-1.9661
X5.1444Y-2.6661
X5.2444Y-1.9661
X5.2444Y-2.6661
T0
M30
