M48
; DRILL file {KiCad (5.1.9)-1} date 03/19/21 23:51:38
; FORMAT={-:-/ absolute / inch / decimal}
; #@! TF.CreationDate,2021-03-19T23:51:38+10:00
; #@! TF.GenerationSoftware,Kicad,Pcbnew,(5.1.9)-1
; #@! TF.FileFunction,Plated,1,4,PTH
FMAT,2
INCH
T1C0.0157
T2C0.0276
T3C0.0374
T4C0.0402
%
G90
G05
T1
X-0.1267Y-1.48
X-0.1125Y-2.0725
X-0.02Y-1.48
X0.23Y-0.71
X0.26Y-1.38
X0.28Y-0.94
X0.28Y-1.32
X0.33Y-0.87
X0.38Y-0.86
X0.43Y-0.85
X0.43Y-1.93
X0.45Y-1.63
X0.45Y-1.73
X0.45Y-1.83
X0.4525Y-2.5925
X0.4575Y-2.2425
X0.4575Y-2.5425
X0.4575Y-2.8425
X0.46Y-1.68
X0.46Y-1.78
X0.46Y-2.3
X0.5175Y-2.6425
X0.52Y-0.9
X0.52Y-1.12
X0.5204Y-2.0596
X0.5325Y-2.6925
X0.56Y-1.5
X0.5775Y-2.7425
X0.58Y-0.92
X0.58Y-1.56
X0.6Y-1.6
X0.6174Y-0.5826
X0.62Y-2.06
X0.6267Y-1.1275
X0.6525Y-2.7925
X0.66Y-2.4
X0.66Y-2.46
X0.755Y-0.725
X0.8075Y-2.7925
X0.81Y-1.63
X0.81Y-1.73
X0.81Y-1.83
X0.8125Y-2.5925
X0.8125Y-2.6925
X0.8175Y-2.5425
X0.8175Y-2.6425
X0.8175Y-2.7425
X0.82Y-1.58
X0.82Y-1.68
X0.82Y-1.78
X0.82Y-1.88
X0.88Y-2.12
X2.3379Y-2.63
X3.0939Y-2.6261
X3.8339Y-2.6261
X4.5939Y-2.6261
X5.3539Y-2.6261
X6.1139Y-2.6261
X8.1889Y-1.132
X8.9489Y-1.132
X9.9889Y-1.132
X10.7489Y-1.132
X11.28Y-3.9
X11.5089Y-1.132
X11.516Y-3.8976
X11.8064Y-2.6275
X12.2689Y-1.132
X13.4289Y-1.132
X14.1989Y-1.132
X14.9589Y-1.132
X16.1289Y-1.132
X16.8889Y-1.132
X17.6489Y-1.132
X18.4089Y-1.132
T2
X1.0025Y-0.9265
X1.0025Y-1.2335
X1.0025Y-2.4265
X1.0025Y-2.7335
X1.0975Y-5.4915
X1.0975Y-5.7985
X1.18Y-3.1815
X1.18Y-3.4885
X1.28Y-3.9515
X1.28Y-4.2585
X1.4675Y-4.729
X1.4675Y-5.036
X1.7625Y-2.4265
X1.7625Y-2.7335
X2.0575Y-5.4915
X2.0575Y-5.7985
X2.1225Y-3.1815
X2.1225Y-3.4885
X2.315Y-3.9465
X2.315Y-4.2535
X2.5075Y-2.424
X2.5075Y-2.731
X2.5625Y-0.9285
X2.5625Y-1.2355
X2.685Y-4.7265
X2.685Y-5.0335
X2.8825Y-3.1815
X2.8825Y-3.4885
X3.0175Y-5.4915
X3.0175Y-5.7985
X3.075Y-3.9465
X3.075Y-4.2535
X3.2475Y-2.424
X3.2475Y-2.731
X3.3225Y-0.9265
X3.3225Y-1.2335
X3.445Y-4.7265
X3.445Y-5.0335
X3.6425Y-3.1815
X3.6425Y-3.4885
X3.835Y-3.9465
X3.835Y-4.2535
X4.0075Y-2.424
X4.0075Y-2.731
X4.0825Y-0.9265
X4.0825Y-1.2335
X4.205Y-4.7265
X4.205Y-5.0335
X4.4025Y-3.1815
X4.4025Y-3.4885
X4.595Y-3.9465
X4.595Y-4.2535
X4.7675Y-2.424
X4.7675Y-2.731
X4.8425Y-0.9265
X4.8425Y-1.2335
X4.965Y-4.7265
X4.965Y-5.0335
X5.1625Y-3.1815
X5.1625Y-3.4885
X5.355Y-3.9485
X5.355Y-4.2555
X5.5275Y-2.424
X5.5275Y-2.731
X5.725Y-4.7285
X5.725Y-5.0355
X5.8475Y-5.4915
X5.8475Y-5.7985
X5.9225Y-3.1815
X5.9225Y-3.4885
X6.0825Y-0.9265
X6.0825Y-1.2335
X6.115Y-3.9465
X6.115Y-4.2535
X6.2875Y-2.424
X6.2875Y-2.731
X6.485Y-4.7265
X6.485Y-5.0335
X6.6825Y-3.1835
X6.6825Y-3.4905
X6.8425Y-0.9265
X6.8425Y-1.2335
X6.875Y-3.9465
X6.875Y-4.2535
X7.0475Y-2.424
X7.0475Y-2.731
X7.245Y-4.7285
X7.245Y-5.0355
X7.4425Y-3.1815
X7.4425Y-3.4885
X7.6025Y-0.9265
X7.6025Y-1.2335
X7.635Y-3.9465
X7.635Y-4.2535
X7.8075Y-2.426
X7.8075Y-2.733
X8.005Y-4.7265
X8.005Y-5.0335
X8.2025Y-3.1815
X8.2025Y-3.4885
X8.3625Y-0.9285
X8.3625Y-1.2355
X8.395Y-3.9465
X8.395Y-4.2535
X8.5675Y-2.424
X8.5675Y-2.731
X8.6725Y-5.494
X8.6725Y-5.801
X8.765Y-4.7265
X8.765Y-5.0335
X8.9625Y-3.1835
X8.9625Y-3.4905
X9.155Y-3.9465
X9.155Y-4.2535
X9.3275Y-2.424
X9.3275Y-2.731
X9.4025Y-0.9265
X9.4025Y-1.2335
X9.525Y-4.7285
X9.525Y-5.0355
X9.6225Y-5.4915
X9.6225Y-5.7985
X9.7225Y-3.1815
X9.7225Y-3.4885
X9.915Y-3.9465
X9.915Y-4.2535
X10.0875Y-2.426
X10.0875Y-2.733
X10.1625Y-0.9265
X10.1625Y-1.2335
X10.4825Y-3.1815
X10.4825Y-3.4885
X10.575Y-5.4915
X10.575Y-5.7985
X10.9225Y-0.9265
X10.9225Y-1.2335
X10.965Y-4.7265
X10.965Y-5.0335
X11.155Y-3.949
X11.155Y-4.256
X11.2275Y-2.424
X11.2275Y-2.731
X11.42Y-3.184
X11.42Y-3.491
X11.5225Y-5.4915
X11.5225Y-5.7985
X11.6825Y-0.9265
X11.6825Y-1.2335
X12.725Y-5.4865
X12.725Y-5.7935
X12.7275Y-2.424
X12.7275Y-2.731
X12.7375Y-3.1815
X12.7375Y-3.4885
X12.8425Y-0.9265
X12.8425Y-1.2335
X13.485Y-4.7265
X13.485Y-5.0335
X13.485Y-5.4865
X13.485Y-5.7935
X13.4875Y-2.424
X13.4875Y-2.731
X13.4875Y-3.1815
X13.4875Y-3.4885
X13.6225Y-0.9265
X13.6225Y-1.2335
X14.245Y-5.4865
X14.245Y-5.7935
X14.2475Y-2.424
X14.2475Y-2.731
X14.2575Y-3.1815
X14.2575Y-3.4885
X14.3725Y-0.9265
X14.3725Y-1.2335
X15.5375Y-4.7065
X15.5375Y-5.0135
X15.5425Y-0.9265
X15.5425Y-1.2335
X15.5475Y-2.424
X15.5475Y-2.731
X15.5475Y-3.1865
X15.5475Y-3.4935
X15.5475Y-3.9465
X15.5475Y-4.2535
X15.9325Y-5.4685
X15.9325Y-5.7755
X16.3025Y-0.9265
X16.3025Y-1.2335
X16.3075Y-2.426
X16.3075Y-2.733
X16.3075Y-3.1865
X16.3075Y-3.4935
X16.3075Y-3.9465
X16.3075Y-4.2535
X16.3075Y-4.7065
X16.3075Y-5.0135
X17.0625Y-0.9265
X17.0625Y-1.2335
X17.0675Y-2.424
X17.0675Y-2.731
X17.0675Y-3.1865
X17.0675Y-3.4935
X17.0675Y-3.944
X17.0675Y-4.251
X17.0675Y-4.7065
X17.0675Y-5.0135
X17.0675Y-5.4665
X17.0675Y-5.7735
X17.8225Y-0.9285
X17.8225Y-1.2355
X17.8275Y-2.424
X17.8275Y-2.731
X17.8275Y-3.5535
X17.8275Y-3.8605
X17.8375Y-5.0865
X17.8375Y-5.3935
T3
X3.25Y0.3278
X3.25Y0.2294
X3.25Y0.1309
X3.25Y0.0325
X3.25Y-0.215
X3.25Y-0.3134
X3.25Y-0.4119
X3.25Y-0.5103
T4
X0.9864Y0.5559
X0.9864Y-0.1441
X0.9955Y0.3059
X0.9955Y0.2059
X0.9955Y0.1059
X1.0864Y0.5559
X1.0864Y-0.1441
X1.1864Y0.5559
X1.1864Y-0.1441
X1.2864Y0.5559
X1.2864Y-0.1441
X1.3864Y0.5559
X1.3864Y-0.1441
X1.4864Y0.5559
X1.4864Y-0.1441
X1.5864Y0.5559
X1.5864Y-0.1441
X1.6864Y0.5559
X1.6864Y-0.1441
X1.7864Y0.5559
X1.7864Y-0.1441
X1.8864Y0.5559
X1.8864Y-0.1441
X1.9864Y0.5559
X1.9864Y-0.1441
X2.0864Y0.5559
X2.0864Y-0.1441
X2.1864Y0.5559
X2.1864Y-0.1441
X2.2864Y0.5559
X2.2864Y-0.1441
X2.3864Y0.5559
X2.3864Y-0.1441
X2.4864Y0.5559
X2.4864Y-0.1441
X2.5864Y0.5559
X2.5864Y-0.1441
X2.6864Y0.5559
X2.6864Y-0.1441
X2.7864Y0.5559
X2.7864Y-0.1441
X2.8864Y0.5559
X2.8864Y-0.1441
T0
M30
