%TF.GenerationSoftware,KiCad,Pcbnew,(5.1.9)-1*%
%TF.CreationDate,2021-03-17T02:29:25+10:00*%
%TF.ProjectId,RedPyKeeb,52656450-794b-4656-9562-2e6b69636164,rev?*%
%TF.SameCoordinates,Original*%
%TF.FileFunction,Copper,L4,Bot*%
%TF.FilePolarity,Positive*%
%FSLAX46Y46*%
G04 Gerber Fmt 4.6, Leading zero omitted, Abs format (unit mm)*
G04 Created by KiCad (PCBNEW (5.1.9)-1) date 2021-03-17 02:29:25*
%MOMM*%
%LPD*%
G01*
G04 APERTURE LIST*
%TA.AperFunction,ComponentPad*%
%ADD10O,1.700000X1.700000*%
%TD*%
%TA.AperFunction,ComponentPad*%
%ADD11R,1.700000X1.700000*%
%TD*%
%TA.AperFunction,SMDPad,CuDef*%
%ADD12R,2.550000X2.500000*%
%TD*%
%TA.AperFunction,SMDPad,CuDef*%
%ADD13R,1.800000X1.200000*%
%TD*%
%TA.AperFunction,SMDPad,CuDef*%
%ADD14R,1.200000X1.200000*%
%TD*%
%TA.AperFunction,ComponentPad*%
%ADD15R,1.600000X1.600000*%
%TD*%
%TA.AperFunction,ComponentPad*%
%ADD16C,1.600000*%
%TD*%
%TA.AperFunction,SMDPad,CuDef*%
%ADD17R,0.500000X2.500000*%
%TD*%
%TA.AperFunction,ComponentPad*%
%ADD18O,1.950000X1.700000*%
%TD*%
%TA.AperFunction,ComponentPad*%
%ADD19O,1.700000X1.950000*%
%TD*%
%TA.AperFunction,ViaPad*%
%ADD20C,0.800000*%
%TD*%
%TA.AperFunction,Conductor*%
%ADD21C,0.250000*%
%TD*%
%TA.AperFunction,Conductor*%
%ADD22C,0.200000*%
%TD*%
G04 APERTURE END LIST*
D10*
%TO.P,U0,1*%
%TO.N,PICO_SDA0*%
X455776000Y-130642000D03*
%TO.P,U0,2*%
%TO.N,PICO_SCL0*%
X453236000Y-130642000D03*
D11*
%TO.P,U0,3*%
%TO.N,Net-(U0-Pad3)*%
X450696000Y-130642000D03*
D10*
%TO.P,U0,4*%
%TO.N,PICO_33_REF*%
X448156000Y-130642000D03*
%TO.P,U0,5*%
%TO.N,Net-(U0-Pad5)*%
X445616000Y-130642000D03*
%TO.P,U0,6*%
%TO.N,Net-(U0-Pad6)*%
X443076000Y-130642000D03*
%TO.P,U0,7*%
%TO.N,Net-(U0-Pad7)*%
X440536000Y-130642000D03*
D11*
%TO.P,U0,8*%
%TO.N,Net-(U0-Pad8)*%
X437996000Y-130642000D03*
D10*
%TO.P,U0,9*%
%TO.N,Net-(U0-Pad9)*%
X435456000Y-130642000D03*
%TO.P,U0,10*%
%TO.N,Net-(U0-Pad10)*%
X432916000Y-130642000D03*
%TO.P,U0,11*%
%TO.N,Net-(U0-Pad11)*%
X430376000Y-130642000D03*
%TO.P,U0,12*%
%TO.N,Net-(U0-Pad12)*%
X427836000Y-130642000D03*
D11*
%TO.P,U0,13*%
%TO.N,Net-(U0-Pad13)*%
X425296000Y-130642000D03*
D10*
%TO.P,U0,14*%
%TO.N,Net-(U0-Pad14)*%
X422756000Y-130642000D03*
%TO.P,U0,15*%
%TO.N,Net-(U0-Pad15)*%
X420216000Y-130642000D03*
%TO.P,U0,16*%
%TO.N,Net-(U0-Pad16)*%
X417676000Y-130642000D03*
%TO.P,U0,17*%
%TO.N,Net-(U0-Pad17)*%
X415136000Y-130642000D03*
D11*
%TO.P,U0,18*%
%TO.N,Net-(U0-Pad18)*%
X412596000Y-130642000D03*
D10*
%TO.P,U0,19*%
%TO.N,Net-(U0-Pad19)*%
X410056000Y-130642000D03*
%TO.P,U0,20*%
%TO.N,Net-(U0-Pad20)*%
X407516000Y-130642000D03*
%TO.P,U0,21*%
%TO.N,Net-(U0-Pad21)*%
X407516000Y-148422000D03*
%TO.P,U0,22*%
%TO.N,Net-(U0-Pad22)*%
X410056000Y-148422000D03*
D11*
%TO.P,U0,23*%
%TO.N,Net-(U0-Pad23)*%
X412596000Y-148422000D03*
D10*
%TO.P,U0,24*%
%TO.N,Net-(U0-Pad24)*%
X415136000Y-148422000D03*
%TO.P,U0,25*%
%TO.N,Net-(U0-Pad25)*%
X417676000Y-148422000D03*
%TO.P,U0,26*%
%TO.N,Net-(U0-Pad26)*%
X420216000Y-148422000D03*
%TO.P,U0,27*%
%TO.N,Net-(U0-Pad27)*%
X422756000Y-148422000D03*
D11*
%TO.P,U0,28*%
%TO.N,Net-(U0-Pad28)*%
X425296000Y-148422000D03*
D10*
%TO.P,U0,29*%
%TO.N,Net-(U0-Pad29)*%
X427836000Y-148422000D03*
%TO.P,U0,30*%
%TO.N,PICO_RUN*%
X430376000Y-148422000D03*
%TO.P,U0,31*%
%TO.N,Net-(U0-Pad31)*%
X432916000Y-148422000D03*
%TO.P,U0,32*%
%TO.N,Net-(U0-Pad32)*%
X435456000Y-148422000D03*
D11*
%TO.P,U0,33*%
%TO.N,Net-(U0-Pad33)*%
X437996000Y-148422000D03*
D10*
%TO.P,U0,34*%
%TO.N,Net-(U0-Pad34)*%
X440536000Y-148422000D03*
%TO.P,U0,35*%
%TO.N,Net-(U0-Pad35)*%
X443076000Y-148422000D03*
%TO.P,U0,36*%
%TO.N,Net-(U0-Pad36)*%
X445616000Y-148422000D03*
%TO.P,U0,37*%
%TO.N,Net-(U0-Pad37)*%
X448156000Y-148422000D03*
D11*
%TO.P,U0,38*%
%TO.N,Net-(U0-Pad38)*%
X450696000Y-148422000D03*
D10*
%TO.P,U0,39*%
%TO.N,MAIN_VBUS*%
X453236000Y-148422000D03*
%TO.P,U0,40*%
%TO.N,Net-(U0-Pad40)*%
X455776000Y-148422000D03*
%TO.P,U0,41*%
%TO.N,Net-(U0-Pad41)*%
X407746000Y-136992000D03*
D11*
%TO.P,U0,42*%
%TO.N,Net-(U0-Pad42)*%
X407746000Y-139532000D03*
D10*
%TO.P,U0,43*%
%TO.N,Net-(U0-Pad43)*%
X407746000Y-142072000D03*
%TD*%
D12*
%TO.P,K11\u002C4,1*%
%TO.N,KEY_COL11*%
X394689000Y-148590000D03*
%TO.P,K11\u002C4,2*%
%TO.N,Net-(D11\u002C4-Pad2)*%
X381762000Y-151130000D03*
%TD*%
%TO.P,K13\u002C1,1*%
%TO.N,KEY_COL13*%
X401293000Y-71882000D03*
%TO.P,K13\u002C1,2*%
%TO.N,Net-(D13\u002C1-Pad2)*%
X388366000Y-74422000D03*
%TD*%
D13*
%TO.P,LD18\u002C6,6*%
%TO.N,GNDPWR*%
X575704000Y-164516000D03*
%TO.P,LD18\u002C6,1*%
%TO.N,MAIN_VBUS*%
X580504000Y-164516000D03*
%TO.P,LD18\u002C6,2*%
%TO.N,Net-(LD18\u002C6-Pad2)*%
X580504000Y-166116000D03*
%TO.P,LD18\u002C6,5*%
%TO.N,Net-(LD17\u002C6-Pad2)*%
X575704000Y-166116000D03*
%TO.P,LD18\u002C6,4*%
%TO.N,Net-(LD17\u002C6-Pad3)*%
X575704000Y-167716000D03*
%TO.P,LD18\u002C6,3*%
%TO.N,Net-(LD18\u002C6-Pad3)*%
X580504000Y-167716000D03*
%TD*%
D12*
%TO.P,K12\u002C3,1*%
%TO.N,KEY_COL12*%
X399261000Y-122682000D03*
%TO.P,K12\u002C3,2*%
%TO.N,Net-(D12\u002C3-Pad2)*%
X386334000Y-125222000D03*
%TD*%
D14*
%TO.P,D0\u002C3,2*%
%TO.N,Net-(D0\u002C3-Pad2)*%
X52578000Y-122174000D03*
%TO.P,D0\u002C3,1*%
%TO.N,KEY_ROW3*%
X52578000Y-119024000D03*
D15*
X52578000Y-116699000D03*
D16*
%TO.P,D0\u002C3,2*%
%TO.N,Net-(D0\u002C3-Pad2)*%
X52578000Y-124499000D03*
D17*
%TO.P,D0\u002C3,1*%
%TO.N,KEY_ROW3*%
X52578000Y-117899000D03*
%TO.P,D0\u002C3,2*%
%TO.N,Net-(D0\u002C3-Pad2)*%
X52578000Y-123299000D03*
%TD*%
%TO.P,D0\u002C5,2*%
%TO.N,Net-(D0\u002C5-Pad2)*%
X47244000Y-173896000D03*
%TO.P,D0\u002C5,1*%
%TO.N,KEY_ROW5*%
X47244000Y-168496000D03*
D16*
%TO.P,D0\u002C5,2*%
%TO.N,Net-(D0\u002C5-Pad2)*%
X47244000Y-175096000D03*
D15*
%TO.P,D0\u002C5,1*%
%TO.N,KEY_ROW5*%
X47244000Y-167296000D03*
D14*
X47244000Y-169621000D03*
%TO.P,D0\u002C5,2*%
%TO.N,Net-(D0\u002C5-Pad2)*%
X47244000Y-172771000D03*
%TD*%
%TO.P,D0\u002C4,2*%
%TO.N,Net-(D0\u002C4-Pad2)*%
X57404000Y-147879000D03*
%TO.P,D0\u002C4,1*%
%TO.N,KEY_ROW4*%
X57404000Y-144729000D03*
D15*
X57404000Y-142404000D03*
D16*
%TO.P,D0\u002C4,2*%
%TO.N,Net-(D0\u002C4-Pad2)*%
X57404000Y-150204000D03*
D17*
%TO.P,D0\u002C4,1*%
%TO.N,KEY_ROW4*%
X57404000Y-143604000D03*
%TO.P,D0\u002C4,2*%
%TO.N,Net-(D0\u002C4-Pad2)*%
X57404000Y-149004000D03*
%TD*%
D14*
%TO.P,D0\u002C0,2*%
%TO.N,Net-(D0\u002C0-Pad2)*%
X45212000Y-36627000D03*
%TO.P,D0\u002C0,1*%
%TO.N,KEY_ROW0*%
X45212000Y-33477000D03*
D15*
X45212000Y-31152000D03*
D16*
%TO.P,D0\u002C0,2*%
%TO.N,Net-(D0\u002C0-Pad2)*%
X45212000Y-38952000D03*
D17*
%TO.P,D0\u002C0,1*%
%TO.N,KEY_ROW0*%
X45212000Y-32352000D03*
%TO.P,D0\u002C0,2*%
%TO.N,Net-(D0\u002C0-Pad2)*%
X45212000Y-37752000D03*
%TD*%
%TO.P,D0\u002C2,2*%
%TO.N,Net-(D0\u002C2-Pad2)*%
X49784000Y-98712000D03*
%TO.P,D0\u002C2,1*%
%TO.N,KEY_ROW2*%
X49784000Y-93312000D03*
D16*
%TO.P,D0\u002C2,2*%
%TO.N,Net-(D0\u002C2-Pad2)*%
X49784000Y-99912000D03*
D15*
%TO.P,D0\u002C2,1*%
%TO.N,KEY_ROW2*%
X49784000Y-92112000D03*
D14*
X49784000Y-94437000D03*
%TO.P,D0\u002C2,2*%
%TO.N,Net-(D0\u002C2-Pad2)*%
X49784000Y-97587000D03*
%TD*%
D17*
%TO.P,D0\u002C1,2*%
%TO.N,Net-(D0\u002C1-Pad2)*%
X44196000Y-73312000D03*
%TO.P,D0\u002C1,1*%
%TO.N,KEY_ROW1*%
X44196000Y-67912000D03*
D16*
%TO.P,D0\u002C1,2*%
%TO.N,Net-(D0\u002C1-Pad2)*%
X44196000Y-74512000D03*
D15*
%TO.P,D0\u002C1,1*%
%TO.N,KEY_ROW1*%
X44196000Y-66712000D03*
D14*
X44196000Y-69037000D03*
%TO.P,D0\u002C1,2*%
%TO.N,Net-(D0\u002C1-Pad2)*%
X44196000Y-72187000D03*
%TD*%
%TO.P,D1\u002C3,2*%
%TO.N,Net-(D1\u002C3-Pad2)*%
X87884000Y-122733000D03*
%TO.P,D1\u002C3,1*%
%TO.N,KEY_ROW3*%
X87884000Y-119583000D03*
D15*
X87884000Y-117258000D03*
D16*
%TO.P,D1\u002C3,2*%
%TO.N,Net-(D1\u002C3-Pad2)*%
X87884000Y-125058000D03*
D17*
%TO.P,D1\u002C3,1*%
%TO.N,KEY_ROW3*%
X87884000Y-118458000D03*
%TO.P,D1\u002C3,2*%
%TO.N,Net-(D1\u002C3-Pad2)*%
X87884000Y-123858000D03*
%TD*%
D14*
%TO.P,D1\u002C0,2*%
%TO.N,Net-(D1\u002C0-Pad2)*%
X95504000Y-36627000D03*
%TO.P,D1\u002C0,1*%
%TO.N,KEY_ROW0*%
X95504000Y-33477000D03*
D15*
X95504000Y-31152000D03*
D16*
%TO.P,D1\u002C0,2*%
%TO.N,Net-(D1\u002C0-Pad2)*%
X95504000Y-38952000D03*
D17*
%TO.P,D1\u002C0,1*%
%TO.N,KEY_ROW0*%
X95504000Y-32352000D03*
%TO.P,D1\u002C0,2*%
%TO.N,Net-(D1\u002C0-Pad2)*%
X95504000Y-37752000D03*
%TD*%
%TO.P,D1\u002C4,2*%
%TO.N,Net-(D1\u002C4-Pad2)*%
X101092000Y-149512000D03*
%TO.P,D1\u002C4,1*%
%TO.N,KEY_ROW4*%
X101092000Y-144112000D03*
D16*
%TO.P,D1\u002C4,2*%
%TO.N,Net-(D1\u002C4-Pad2)*%
X101092000Y-150712000D03*
D15*
%TO.P,D1\u002C4,1*%
%TO.N,KEY_ROW4*%
X101092000Y-142912000D03*
D14*
X101092000Y-145237000D03*
%TO.P,D1\u002C4,2*%
%TO.N,Net-(D1\u002C4-Pad2)*%
X101092000Y-148387000D03*
%TD*%
%TO.P,D1\u002C5,2*%
%TO.N,Net-(D1\u002C5-Pad2)*%
X77724000Y-173787000D03*
%TO.P,D1\u002C5,1*%
%TO.N,KEY_ROW5*%
X77724000Y-170637000D03*
D15*
X77724000Y-168312000D03*
D16*
%TO.P,D1\u002C5,2*%
%TO.N,Net-(D1\u002C5-Pad2)*%
X77724000Y-176112000D03*
D17*
%TO.P,D1\u002C5,1*%
%TO.N,KEY_ROW5*%
X77724000Y-169512000D03*
%TO.P,D1\u002C5,2*%
%TO.N,Net-(D1\u002C5-Pad2)*%
X77724000Y-174912000D03*
%TD*%
D14*
%TO.P,D1\u002C1,2*%
%TO.N,Net-(D1\u002C1-Pad2)*%
X70104000Y-71679000D03*
%TO.P,D1\u002C1,1*%
%TO.N,KEY_ROW1*%
X70104000Y-68529000D03*
D15*
X70104000Y-66204000D03*
D16*
%TO.P,D1\u002C1,2*%
%TO.N,Net-(D1\u002C1-Pad2)*%
X70104000Y-74004000D03*
D17*
%TO.P,D1\u002C1,1*%
%TO.N,KEY_ROW1*%
X70104000Y-67404000D03*
%TO.P,D1\u002C1,2*%
%TO.N,Net-(D1\u002C1-Pad2)*%
X70104000Y-72804000D03*
%TD*%
%TO.P,D1\u002C2,2*%
%TO.N,Net-(D1\u002C2-Pad2)*%
X79756000Y-98204000D03*
%TO.P,D1\u002C2,1*%
%TO.N,KEY_ROW2*%
X79756000Y-92804000D03*
D16*
%TO.P,D1\u002C2,2*%
%TO.N,Net-(D1\u002C2-Pad2)*%
X79756000Y-99404000D03*
D15*
%TO.P,D1\u002C2,1*%
%TO.N,KEY_ROW2*%
X79756000Y-91604000D03*
D14*
X79756000Y-93929000D03*
%TO.P,D1\u002C2,2*%
%TO.N,Net-(D1\u002C2-Pad2)*%
X79756000Y-97079000D03*
%TD*%
D17*
%TO.P,D2\u002C4,2*%
%TO.N,Net-(D2\u002C4-Pad2)*%
X125984000Y-149004000D03*
%TO.P,D2\u002C4,1*%
%TO.N,KEY_ROW4*%
X125984000Y-143604000D03*
D16*
%TO.P,D2\u002C4,2*%
%TO.N,Net-(D2\u002C4-Pad2)*%
X125984000Y-150204000D03*
D15*
%TO.P,D2\u002C4,1*%
%TO.N,KEY_ROW4*%
X125984000Y-142404000D03*
D14*
X125984000Y-144729000D03*
%TO.P,D2\u002C4,2*%
%TO.N,Net-(D2\u002C4-Pad2)*%
X125984000Y-147879000D03*
%TD*%
D17*
%TO.P,D2\u002C5,2*%
%TO.N,Net-(D2\u002C5-Pad2)*%
X107696000Y-174404000D03*
%TO.P,D2\u002C5,1*%
%TO.N,KEY_ROW5*%
X107696000Y-169004000D03*
D16*
%TO.P,D2\u002C5,2*%
%TO.N,Net-(D2\u002C5-Pad2)*%
X107696000Y-175604000D03*
D15*
%TO.P,D2\u002C5,1*%
%TO.N,KEY_ROW5*%
X107696000Y-167804000D03*
D14*
X107696000Y-170129000D03*
%TO.P,D2\u002C5,2*%
%TO.N,Net-(D2\u002C5-Pad2)*%
X107696000Y-173279000D03*
%TD*%
%TO.P,D2\u002C0,2*%
%TO.N,Net-(D2\u002C0-Pad2)*%
X121412000Y-36119000D03*
%TO.P,D2\u002C0,1*%
%TO.N,KEY_ROW0*%
X121412000Y-32969000D03*
D15*
X121412000Y-30644000D03*
D16*
%TO.P,D2\u002C0,2*%
%TO.N,Net-(D2\u002C0-Pad2)*%
X121412000Y-38444000D03*
D17*
%TO.P,D2\u002C0,1*%
%TO.N,KEY_ROW0*%
X121412000Y-31844000D03*
%TO.P,D2\u002C0,2*%
%TO.N,Net-(D2\u002C0-Pad2)*%
X121412000Y-37244000D03*
%TD*%
D14*
%TO.P,D2\u002C2,2*%
%TO.N,Net-(D2\u002C2-Pad2)*%
X106426000Y-97333000D03*
%TO.P,D2\u002C2,1*%
%TO.N,KEY_ROW2*%
X106426000Y-94183000D03*
D15*
X106426000Y-91858000D03*
D16*
%TO.P,D2\u002C2,2*%
%TO.N,Net-(D2\u002C2-Pad2)*%
X106426000Y-99658000D03*
D17*
%TO.P,D2\u002C2,1*%
%TO.N,KEY_ROW2*%
X106426000Y-93058000D03*
%TO.P,D2\u002C2,2*%
%TO.N,Net-(D2\u002C2-Pad2)*%
X106426000Y-98458000D03*
%TD*%
D14*
%TO.P,D2\u002C1,2*%
%TO.N,Net-(D2\u002C1-Pad2)*%
X93980000Y-73203000D03*
%TO.P,D2\u002C1,1*%
%TO.N,KEY_ROW1*%
X93980000Y-70053000D03*
D15*
X93980000Y-67728000D03*
D16*
%TO.P,D2\u002C1,2*%
%TO.N,Net-(D2\u002C1-Pad2)*%
X93980000Y-75528000D03*
D17*
%TO.P,D2\u002C1,1*%
%TO.N,KEY_ROW1*%
X93980000Y-68928000D03*
%TO.P,D2\u002C1,2*%
%TO.N,Net-(D2\u002C1-Pad2)*%
X93980000Y-74328000D03*
%TD*%
%TO.P,D2\u002C3,2*%
%TO.N,Net-(D2\u002C3-Pad2)*%
X113284000Y-124206000D03*
%TO.P,D2\u002C3,1*%
%TO.N,KEY_ROW3*%
X113284000Y-118806000D03*
D16*
%TO.P,D2\u002C3,2*%
%TO.N,Net-(D2\u002C3-Pad2)*%
X113284000Y-125406000D03*
D15*
%TO.P,D2\u002C3,1*%
%TO.N,KEY_ROW3*%
X113284000Y-117606000D03*
D14*
X113284000Y-119931000D03*
%TO.P,D2\u002C3,2*%
%TO.N,Net-(D2\u002C3-Pad2)*%
X113284000Y-123081000D03*
%TD*%
D17*
%TO.P,D3\u002C0,2*%
%TO.N,Net-(D3\u002C0-Pad2)*%
X146558000Y-37498000D03*
%TO.P,D3\u002C0,1*%
%TO.N,KEY_ROW0*%
X146558000Y-32098000D03*
D16*
%TO.P,D3\u002C0,2*%
%TO.N,Net-(D3\u002C0-Pad2)*%
X146558000Y-38698000D03*
D15*
%TO.P,D3\u002C0,1*%
%TO.N,KEY_ROW0*%
X146558000Y-30898000D03*
D14*
X146558000Y-33223000D03*
%TO.P,D3\u002C0,2*%
%TO.N,Net-(D3\u002C0-Pad2)*%
X146558000Y-36373000D03*
%TD*%
%TO.P,D3\u002C1,2*%
%TO.N,Net-(D3\u002C1-Pad2)*%
X119380000Y-72949000D03*
%TO.P,D3\u002C1,1*%
%TO.N,KEY_ROW1*%
X119380000Y-69799000D03*
D15*
X119380000Y-67474000D03*
D16*
%TO.P,D3\u002C1,2*%
%TO.N,Net-(D3\u002C1-Pad2)*%
X119380000Y-75274000D03*
D17*
%TO.P,D3\u002C1,1*%
%TO.N,KEY_ROW1*%
X119380000Y-68674000D03*
%TO.P,D3\u002C1,2*%
%TO.N,Net-(D3\u002C1-Pad2)*%
X119380000Y-74074000D03*
%TD*%
D14*
%TO.P,D3\u002C4,2*%
%TO.N,Net-(D3\u002C4-Pad2)*%
X151384000Y-148387000D03*
%TO.P,D3\u002C4,1*%
%TO.N,KEY_ROW4*%
X151384000Y-145237000D03*
D15*
X151384000Y-142912000D03*
D16*
%TO.P,D3\u002C4,2*%
%TO.N,Net-(D3\u002C4-Pad2)*%
X151384000Y-150712000D03*
D17*
%TO.P,D3\u002C4,1*%
%TO.N,KEY_ROW4*%
X151384000Y-144112000D03*
%TO.P,D3\u002C4,2*%
%TO.N,Net-(D3\u002C4-Pad2)*%
X151384000Y-149512000D03*
%TD*%
D14*
%TO.P,D3\u002C2,2*%
%TO.N,Net-(D3\u002C2-Pad2)*%
X131064000Y-97587000D03*
%TO.P,D3\u002C2,1*%
%TO.N,KEY_ROW2*%
X131064000Y-94437000D03*
D15*
X131064000Y-92112000D03*
D16*
%TO.P,D3\u002C2,2*%
%TO.N,Net-(D3\u002C2-Pad2)*%
X131064000Y-99912000D03*
D17*
%TO.P,D3\u002C2,1*%
%TO.N,KEY_ROW2*%
X131064000Y-93312000D03*
%TO.P,D3\u002C2,2*%
%TO.N,Net-(D3\u002C2-Pad2)*%
X131064000Y-98712000D03*
%TD*%
D14*
%TO.P,D3\u002C5,2*%
%TO.N,Net-(D3\u002C5-Pad2)*%
X206756000Y-175819000D03*
%TO.P,D3\u002C5,1*%
%TO.N,KEY_ROW5*%
X206756000Y-172669000D03*
D15*
X206756000Y-170344000D03*
D16*
%TO.P,D3\u002C5,2*%
%TO.N,Net-(D3\u002C5-Pad2)*%
X206756000Y-178144000D03*
D17*
%TO.P,D3\u002C5,1*%
%TO.N,KEY_ROW5*%
X206756000Y-171544000D03*
%TO.P,D3\u002C5,2*%
%TO.N,Net-(D3\u002C5-Pad2)*%
X206756000Y-176944000D03*
%TD*%
%TO.P,D3\u002C3,2*%
%TO.N,Net-(D3\u002C3-Pad2)*%
X139192000Y-123604000D03*
%TO.P,D3\u002C3,1*%
%TO.N,KEY_ROW3*%
X139192000Y-118204000D03*
D16*
%TO.P,D3\u002C3,2*%
%TO.N,Net-(D3\u002C3-Pad2)*%
X139192000Y-124804000D03*
D15*
%TO.P,D3\u002C3,1*%
%TO.N,KEY_ROW3*%
X139192000Y-117004000D03*
D14*
X139192000Y-119329000D03*
%TO.P,D3\u002C3,2*%
%TO.N,Net-(D3\u002C3-Pad2)*%
X139192000Y-122479000D03*
%TD*%
D17*
%TO.P,D4\u002C4,2*%
%TO.N,Net-(D4\u002C4-Pad2)*%
X177292000Y-150477000D03*
%TO.P,D4\u002C4,1*%
%TO.N,KEY_ROW4*%
X177292000Y-145077000D03*
D16*
%TO.P,D4\u002C4,2*%
%TO.N,Net-(D4\u002C4-Pad2)*%
X177292000Y-151677000D03*
D15*
%TO.P,D4\u002C4,1*%
%TO.N,KEY_ROW4*%
X177292000Y-143877000D03*
D14*
X177292000Y-146202000D03*
%TO.P,D4\u002C4,2*%
%TO.N,Net-(D4\u002C4-Pad2)*%
X177292000Y-149352000D03*
%TD*%
D17*
%TO.P,D4\u002C3,2*%
%TO.N,Net-(D4\u002C3-Pad2)*%
X164084000Y-123604000D03*
%TO.P,D4\u002C3,1*%
%TO.N,KEY_ROW3*%
X164084000Y-118204000D03*
D16*
%TO.P,D4\u002C3,2*%
%TO.N,Net-(D4\u002C3-Pad2)*%
X164084000Y-124804000D03*
D15*
%TO.P,D4\u002C3,1*%
%TO.N,KEY_ROW3*%
X164084000Y-117004000D03*
D14*
X164084000Y-119329000D03*
%TO.P,D4\u002C3,2*%
%TO.N,Net-(D4\u002C3-Pad2)*%
X164084000Y-122479000D03*
%TD*%
%TO.P,D4\u002C1,2*%
%TO.N,Net-(D4\u002C1-Pad2)*%
X146812000Y-71679000D03*
%TO.P,D4\u002C1,1*%
%TO.N,KEY_ROW1*%
X146812000Y-68529000D03*
D15*
X146812000Y-66204000D03*
D16*
%TO.P,D4\u002C1,2*%
%TO.N,Net-(D4\u002C1-Pad2)*%
X146812000Y-74004000D03*
D17*
%TO.P,D4\u002C1,1*%
%TO.N,KEY_ROW1*%
X146812000Y-67404000D03*
%TO.P,D4\u002C1,2*%
%TO.N,Net-(D4\u002C1-Pad2)*%
X146812000Y-72804000D03*
%TD*%
%TO.P,D4\u002C0,2*%
%TO.N,Net-(D4\u002C0-Pad2)*%
X171704000Y-37244000D03*
%TO.P,D4\u002C0,1*%
%TO.N,KEY_ROW0*%
X171704000Y-31844000D03*
D16*
%TO.P,D4\u002C0,2*%
%TO.N,Net-(D4\u002C0-Pad2)*%
X171704000Y-38444000D03*
D15*
%TO.P,D4\u002C0,1*%
%TO.N,KEY_ROW0*%
X171704000Y-30644000D03*
D14*
X171704000Y-32969000D03*
%TO.P,D4\u002C0,2*%
%TO.N,Net-(D4\u002C0-Pad2)*%
X171704000Y-36119000D03*
%TD*%
%TO.P,D4\u002C2,2*%
%TO.N,Net-(D4\u002C2-Pad2)*%
X156464000Y-97079000D03*
%TO.P,D4\u002C2,1*%
%TO.N,KEY_ROW2*%
X156464000Y-93929000D03*
D15*
X156464000Y-91604000D03*
D16*
%TO.P,D4\u002C2,2*%
%TO.N,Net-(D4\u002C2-Pad2)*%
X156464000Y-99404000D03*
D17*
%TO.P,D4\u002C2,1*%
%TO.N,KEY_ROW2*%
X156464000Y-92804000D03*
%TO.P,D4\u002C2,2*%
%TO.N,Net-(D4\u002C2-Pad2)*%
X156464000Y-98204000D03*
%TD*%
%TO.P,D5\u002C0,2*%
%TO.N,Net-(D5\u002C0-Pad2)*%
X212344000Y-36572000D03*
%TO.P,D5\u002C0,1*%
%TO.N,KEY_ROW0*%
X212344000Y-31172000D03*
D16*
%TO.P,D5\u002C0,2*%
%TO.N,Net-(D5\u002C0-Pad2)*%
X212344000Y-37772000D03*
D15*
%TO.P,D5\u002C0,1*%
%TO.N,KEY_ROW0*%
X212344000Y-29972000D03*
D14*
X212344000Y-32297000D03*
%TO.P,D5\u002C0,2*%
%TO.N,Net-(D5\u002C0-Pad2)*%
X212344000Y-35447000D03*
%TD*%
D17*
%TO.P,D5\u002C2,2*%
%TO.N,Net-(D5\u002C2-Pad2)*%
X180340000Y-97536000D03*
%TO.P,D5\u002C2,1*%
%TO.N,KEY_ROW2*%
X180340000Y-92136000D03*
D16*
%TO.P,D5\u002C2,2*%
%TO.N,Net-(D5\u002C2-Pad2)*%
X180340000Y-98736000D03*
D15*
%TO.P,D5\u002C2,1*%
%TO.N,KEY_ROW2*%
X180340000Y-90936000D03*
D14*
X180340000Y-93261000D03*
%TO.P,D5\u002C2,2*%
%TO.N,Net-(D5\u002C2-Pad2)*%
X180340000Y-96411000D03*
%TD*%
%TO.P,D5\u002C1,2*%
%TO.N,Net-(D5\u002C1-Pad2)*%
X172212000Y-71679000D03*
%TO.P,D5\u002C1,1*%
%TO.N,KEY_ROW1*%
X172212000Y-68529000D03*
D15*
X172212000Y-66204000D03*
D16*
%TO.P,D5\u002C1,2*%
%TO.N,Net-(D5\u002C1-Pad2)*%
X172212000Y-74004000D03*
D17*
%TO.P,D5\u002C1,1*%
%TO.N,KEY_ROW1*%
X172212000Y-67404000D03*
%TO.P,D5\u002C1,2*%
%TO.N,Net-(D5\u002C1-Pad2)*%
X172212000Y-72804000D03*
%TD*%
%TO.P,D5\u002C3,2*%
%TO.N,Net-(D5\u002C3-Pad2)*%
X189484000Y-124112000D03*
%TO.P,D5\u002C3,1*%
%TO.N,KEY_ROW3*%
X189484000Y-118712000D03*
D16*
%TO.P,D5\u002C3,2*%
%TO.N,Net-(D5\u002C3-Pad2)*%
X189484000Y-125312000D03*
D15*
%TO.P,D5\u002C3,1*%
%TO.N,KEY_ROW3*%
X189484000Y-117512000D03*
D14*
X189484000Y-119837000D03*
%TO.P,D5\u002C3,2*%
%TO.N,Net-(D5\u002C3-Pad2)*%
X189484000Y-122987000D03*
%TD*%
%TO.P,D5\u002C4,2*%
%TO.N,Net-(D5\u002C4-Pad2)*%
X202184000Y-148895000D03*
%TO.P,D5\u002C4,1*%
%TO.N,KEY_ROW4*%
X202184000Y-145745000D03*
D15*
X202184000Y-143420000D03*
D16*
%TO.P,D5\u002C4,2*%
%TO.N,Net-(D5\u002C4-Pad2)*%
X202184000Y-151220000D03*
D17*
%TO.P,D5\u002C4,1*%
%TO.N,KEY_ROW4*%
X202184000Y-144620000D03*
%TO.P,D5\u002C4,2*%
%TO.N,Net-(D5\u002C4-Pad2)*%
X202184000Y-150020000D03*
%TD*%
%TO.P,D6\u002C0,2*%
%TO.N,Net-(D6\u002C0-Pad2)*%
X237744000Y-37498000D03*
%TO.P,D6\u002C0,1*%
%TO.N,KEY_ROW0*%
X237744000Y-32098000D03*
D16*
%TO.P,D6\u002C0,2*%
%TO.N,Net-(D6\u002C0-Pad2)*%
X237744000Y-38698000D03*
D15*
%TO.P,D6\u002C0,1*%
%TO.N,KEY_ROW0*%
X237744000Y-30898000D03*
D14*
X237744000Y-33223000D03*
%TO.P,D6\u002C0,2*%
%TO.N,Net-(D6\u002C0-Pad2)*%
X237744000Y-36373000D03*
%TD*%
%TO.P,D6\u002C3,2*%
%TO.N,Net-(D6\u002C3-Pad2)*%
X213360000Y-122174000D03*
%TO.P,D6\u002C3,1*%
%TO.N,KEY_ROW3*%
X213360000Y-119024000D03*
D15*
X213360000Y-116699000D03*
D16*
%TO.P,D6\u002C3,2*%
%TO.N,Net-(D6\u002C3-Pad2)*%
X213360000Y-124499000D03*
D17*
%TO.P,D6\u002C3,1*%
%TO.N,KEY_ROW3*%
X213360000Y-117899000D03*
%TO.P,D6\u002C3,2*%
%TO.N,Net-(D6\u002C3-Pad2)*%
X213360000Y-123299000D03*
%TD*%
D14*
%TO.P,D6\u002C4,2*%
%TO.N,Net-(D6\u002C4-Pad2)*%
X227584000Y-148387000D03*
%TO.P,D6\u002C4,1*%
%TO.N,KEY_ROW4*%
X227584000Y-145237000D03*
D15*
X227584000Y-142912000D03*
D16*
%TO.P,D6\u002C4,2*%
%TO.N,Net-(D6\u002C4-Pad2)*%
X227584000Y-150712000D03*
D17*
%TO.P,D6\u002C4,1*%
%TO.N,KEY_ROW4*%
X227584000Y-144112000D03*
%TO.P,D6\u002C4,2*%
%TO.N,Net-(D6\u002C4-Pad2)*%
X227584000Y-149512000D03*
%TD*%
D14*
%TO.P,D6\u002C1,2*%
%TO.N,Net-(D6\u002C1-Pad2)*%
X197612000Y-71679000D03*
%TO.P,D6\u002C1,1*%
%TO.N,KEY_ROW1*%
X197612000Y-68529000D03*
D15*
X197612000Y-66204000D03*
D16*
%TO.P,D6\u002C1,2*%
%TO.N,Net-(D6\u002C1-Pad2)*%
X197612000Y-74004000D03*
D17*
%TO.P,D6\u002C1,1*%
%TO.N,KEY_ROW1*%
X197612000Y-67404000D03*
%TO.P,D6\u002C1,2*%
%TO.N,Net-(D6\u002C1-Pad2)*%
X197612000Y-72804000D03*
%TD*%
%TO.P,D6\u002C2,2*%
%TO.N,Net-(D6\u002C2-Pad2)*%
X207772000Y-98255000D03*
%TO.P,D6\u002C2,1*%
%TO.N,KEY_ROW2*%
X207772000Y-92855000D03*
D16*
%TO.P,D6\u002C2,2*%
%TO.N,Net-(D6\u002C2-Pad2)*%
X207772000Y-99455000D03*
D15*
%TO.P,D6\u002C2,1*%
%TO.N,KEY_ROW2*%
X207772000Y-91655000D03*
D14*
X207772000Y-93980000D03*
%TO.P,D6\u002C2,2*%
%TO.N,Net-(D6\u002C2-Pad2)*%
X207772000Y-97130000D03*
%TD*%
%TO.P,D7\u002C4,2*%
%TO.N,Net-(D7\u002C4-Pad2)*%
X252984000Y-148895000D03*
%TO.P,D7\u002C4,1*%
%TO.N,KEY_ROW4*%
X252984000Y-145745000D03*
D15*
X252984000Y-143420000D03*
D16*
%TO.P,D7\u002C4,2*%
%TO.N,Net-(D7\u002C4-Pad2)*%
X252984000Y-151220000D03*
D17*
%TO.P,D7\u002C4,1*%
%TO.N,KEY_ROW4*%
X252984000Y-144620000D03*
%TO.P,D7\u002C4,2*%
%TO.N,Net-(D7\u002C4-Pad2)*%
X252984000Y-150020000D03*
%TD*%
%TO.P,D7\u002C2,2*%
%TO.N,Net-(D7\u002C2-Pad2)*%
X233172000Y-98712000D03*
%TO.P,D7\u002C2,1*%
%TO.N,KEY_ROW2*%
X233172000Y-93312000D03*
D16*
%TO.P,D7\u002C2,2*%
%TO.N,Net-(D7\u002C2-Pad2)*%
X233172000Y-99912000D03*
D15*
%TO.P,D7\u002C2,1*%
%TO.N,KEY_ROW2*%
X233172000Y-92112000D03*
D14*
X233172000Y-94437000D03*
%TO.P,D7\u002C2,2*%
%TO.N,Net-(D7\u002C2-Pad2)*%
X233172000Y-97587000D03*
%TD*%
%TO.P,D7\u002C1,2*%
%TO.N,Net-(D7\u002C1-Pad2)*%
X222504000Y-72695000D03*
%TO.P,D7\u002C1,1*%
%TO.N,KEY_ROW1*%
X222504000Y-69545000D03*
D15*
X222504000Y-67220000D03*
D16*
%TO.P,D7\u002C1,2*%
%TO.N,Net-(D7\u002C1-Pad2)*%
X222504000Y-75020000D03*
D17*
%TO.P,D7\u002C1,1*%
%TO.N,KEY_ROW1*%
X222504000Y-68420000D03*
%TO.P,D7\u002C1,2*%
%TO.N,Net-(D7\u002C1-Pad2)*%
X222504000Y-73820000D03*
%TD*%
%TO.P,D7\u002C0,2*%
%TO.N,Net-(D7\u002C0-Pad2)*%
X263144000Y-37244000D03*
%TO.P,D7\u002C0,1*%
%TO.N,KEY_ROW0*%
X263144000Y-31844000D03*
D16*
%TO.P,D7\u002C0,2*%
%TO.N,Net-(D7\u002C0-Pad2)*%
X263144000Y-38444000D03*
D15*
%TO.P,D7\u002C0,1*%
%TO.N,KEY_ROW0*%
X263144000Y-30644000D03*
D14*
X263144000Y-32969000D03*
%TO.P,D7\u002C0,2*%
%TO.N,Net-(D7\u002C0-Pad2)*%
X263144000Y-36119000D03*
%TD*%
D17*
%TO.P,D7\u002C3,2*%
%TO.N,Net-(D7\u002C3-Pad2)*%
X240284000Y-123604000D03*
%TO.P,D7\u002C3,1*%
%TO.N,KEY_ROW3*%
X240284000Y-118204000D03*
D16*
%TO.P,D7\u002C3,2*%
%TO.N,Net-(D7\u002C3-Pad2)*%
X240284000Y-124804000D03*
D15*
%TO.P,D7\u002C3,1*%
%TO.N,KEY_ROW3*%
X240284000Y-117004000D03*
D14*
X240284000Y-119329000D03*
%TO.P,D7\u002C3,2*%
%TO.N,Net-(D7\u002C3-Pad2)*%
X240284000Y-122479000D03*
%TD*%
D17*
%TO.P,D8\u002C0,2*%
%TO.N,Net-(D8\u002C0-Pad2)*%
X289052000Y-37752000D03*
%TO.P,D8\u002C0,1*%
%TO.N,KEY_ROW0*%
X289052000Y-32352000D03*
D16*
%TO.P,D8\u002C0,2*%
%TO.N,Net-(D8\u002C0-Pad2)*%
X289052000Y-38952000D03*
D15*
%TO.P,D8\u002C0,1*%
%TO.N,KEY_ROW0*%
X289052000Y-31152000D03*
D14*
X289052000Y-33477000D03*
%TO.P,D8\u002C0,2*%
%TO.N,Net-(D8\u002C0-Pad2)*%
X289052000Y-36627000D03*
%TD*%
D17*
%TO.P,D8\u002C3,2*%
%TO.N,Net-(D8\u002C3-Pad2)*%
X266192000Y-123604000D03*
%TO.P,D8\u002C3,1*%
%TO.N,KEY_ROW3*%
X266192000Y-118204000D03*
D16*
%TO.P,D8\u002C3,2*%
%TO.N,Net-(D8\u002C3-Pad2)*%
X266192000Y-124804000D03*
D15*
%TO.P,D8\u002C3,1*%
%TO.N,KEY_ROW3*%
X266192000Y-117004000D03*
D14*
X266192000Y-119329000D03*
%TO.P,D8\u002C3,2*%
%TO.N,Net-(D8\u002C3-Pad2)*%
X266192000Y-122479000D03*
%TD*%
%TO.P,D8\u002C1,2*%
%TO.N,Net-(D8\u002C1-Pad2)*%
X248412000Y-72187000D03*
%TO.P,D8\u002C1,1*%
%TO.N,KEY_ROW1*%
X248412000Y-69037000D03*
D15*
X248412000Y-66712000D03*
D16*
%TO.P,D8\u002C1,2*%
%TO.N,Net-(D8\u002C1-Pad2)*%
X248412000Y-74512000D03*
D17*
%TO.P,D8\u002C1,1*%
%TO.N,KEY_ROW1*%
X248412000Y-67912000D03*
%TO.P,D8\u002C1,2*%
%TO.N,Net-(D8\u002C1-Pad2)*%
X248412000Y-73312000D03*
%TD*%
%TO.P,D8\u002C2,2*%
%TO.N,Net-(D8\u002C2-Pad2)*%
X258572000Y-98712000D03*
%TO.P,D8\u002C2,1*%
%TO.N,KEY_ROW2*%
X258572000Y-93312000D03*
D16*
%TO.P,D8\u002C2,2*%
%TO.N,Net-(D8\u002C2-Pad2)*%
X258572000Y-99912000D03*
D15*
%TO.P,D8\u002C2,1*%
%TO.N,KEY_ROW2*%
X258572000Y-92112000D03*
D14*
X258572000Y-94437000D03*
%TO.P,D8\u002C2,2*%
%TO.N,Net-(D8\u002C2-Pad2)*%
X258572000Y-97587000D03*
%TD*%
D17*
%TO.P,D8\u002C5,2*%
%TO.N,Net-(D8\u002C5-Pad2)*%
X293624000Y-174404000D03*
%TO.P,D8\u002C5,1*%
%TO.N,KEY_ROW5*%
X293624000Y-169004000D03*
D16*
%TO.P,D8\u002C5,2*%
%TO.N,Net-(D8\u002C5-Pad2)*%
X293624000Y-175604000D03*
D15*
%TO.P,D8\u002C5,1*%
%TO.N,KEY_ROW5*%
X293624000Y-167804000D03*
D14*
X293624000Y-170129000D03*
%TO.P,D8\u002C5,2*%
%TO.N,Net-(D8\u002C5-Pad2)*%
X293624000Y-173279000D03*
%TD*%
D17*
%TO.P,D8\u002C4,2*%
%TO.N,Net-(D8\u002C4-Pad2)*%
X278892000Y-149512000D03*
%TO.P,D8\u002C4,1*%
%TO.N,KEY_ROW4*%
X278892000Y-144112000D03*
D16*
%TO.P,D8\u002C4,2*%
%TO.N,Net-(D8\u002C4-Pad2)*%
X278892000Y-150712000D03*
D15*
%TO.P,D8\u002C4,1*%
%TO.N,KEY_ROW4*%
X278892000Y-142912000D03*
D14*
X278892000Y-145237000D03*
%TO.P,D8\u002C4,2*%
%TO.N,Net-(D8\u002C4-Pad2)*%
X278892000Y-148387000D03*
%TD*%
D17*
%TO.P,D9\u002C2,2*%
%TO.N,Net-(D9\u002C2-Pad2)*%
X283464000Y-98204000D03*
%TO.P,D9\u002C2,1*%
%TO.N,KEY_ROW2*%
X283464000Y-92804000D03*
D16*
%TO.P,D9\u002C2,2*%
%TO.N,Net-(D9\u002C2-Pad2)*%
X283464000Y-99404000D03*
D15*
%TO.P,D9\u002C2,1*%
%TO.N,KEY_ROW2*%
X283464000Y-91604000D03*
D14*
X283464000Y-93929000D03*
%TO.P,D9\u002C2,2*%
%TO.N,Net-(D9\u002C2-Pad2)*%
X283464000Y-97079000D03*
%TD*%
%TO.P,D9\u002C1,2*%
%TO.N,Net-(D9\u002C1-Pad2)*%
X273812000Y-72187000D03*
%TO.P,D9\u002C1,1*%
%TO.N,KEY_ROW1*%
X273812000Y-69037000D03*
D15*
X273812000Y-66712000D03*
D16*
%TO.P,D9\u002C1,2*%
%TO.N,Net-(D9\u002C1-Pad2)*%
X273812000Y-74512000D03*
D17*
%TO.P,D9\u002C1,1*%
%TO.N,KEY_ROW1*%
X273812000Y-67912000D03*
%TO.P,D9\u002C1,2*%
%TO.N,Net-(D9\u002C1-Pad2)*%
X273812000Y-73312000D03*
%TD*%
%TO.P,D9\u002C3,2*%
%TO.N,Net-(D9\u002C3-Pad2)*%
X291592000Y-123604000D03*
%TO.P,D9\u002C3,1*%
%TO.N,KEY_ROW3*%
X291592000Y-118204000D03*
D16*
%TO.P,D9\u002C3,2*%
%TO.N,Net-(D9\u002C3-Pad2)*%
X291592000Y-124804000D03*
D15*
%TO.P,D9\u002C3,1*%
%TO.N,KEY_ROW3*%
X291592000Y-117004000D03*
D14*
X291592000Y-119329000D03*
%TO.P,D9\u002C3,2*%
%TO.N,Net-(D9\u002C3-Pad2)*%
X291592000Y-122479000D03*
%TD*%
%TO.P,D9\u002C4,2*%
%TO.N,Net-(D9\u002C4-Pad2)*%
X304292000Y-148895000D03*
%TO.P,D9\u002C4,1*%
%TO.N,KEY_ROW4*%
X304292000Y-145745000D03*
D15*
X304292000Y-143420000D03*
D16*
%TO.P,D9\u002C4,2*%
%TO.N,Net-(D9\u002C4-Pad2)*%
X304292000Y-151220000D03*
D17*
%TO.P,D9\u002C4,1*%
%TO.N,KEY_ROW4*%
X304292000Y-144620000D03*
%TO.P,D9\u002C4,2*%
%TO.N,Net-(D9\u002C4-Pad2)*%
X304292000Y-150020000D03*
%TD*%
%TO.P,D9\u002C5,2*%
%TO.N,Net-(D9\u002C5-Pad2)*%
X327152000Y-174912000D03*
%TO.P,D9\u002C5,1*%
%TO.N,KEY_ROW5*%
X327152000Y-169512000D03*
D16*
%TO.P,D9\u002C5,2*%
%TO.N,Net-(D9\u002C5-Pad2)*%
X327152000Y-176112000D03*
D15*
%TO.P,D9\u002C5,1*%
%TO.N,KEY_ROW5*%
X327152000Y-168312000D03*
D14*
X327152000Y-170637000D03*
%TO.P,D9\u002C5,2*%
%TO.N,Net-(D9\u002C5-Pad2)*%
X327152000Y-173787000D03*
%TD*%
%TO.P,D9\u002C0,2*%
%TO.N,Net-(D9\u002C0-Pad2)*%
X329692000Y-36170000D03*
%TO.P,D9\u002C0,1*%
%TO.N,KEY_ROW0*%
X329692000Y-33020000D03*
D15*
X329692000Y-30695000D03*
D16*
%TO.P,D9\u002C0,2*%
%TO.N,Net-(D9\u002C0-Pad2)*%
X329692000Y-38495000D03*
D17*
%TO.P,D9\u002C0,1*%
%TO.N,KEY_ROW0*%
X329692000Y-31895000D03*
%TO.P,D9\u002C0,2*%
%TO.N,Net-(D9\u002C0-Pad2)*%
X329692000Y-37295000D03*
%TD*%
D14*
%TO.P,D10\u002C4,2*%
%TO.N,Net-(D10\u002C4-Pad2)*%
X329692000Y-148895000D03*
%TO.P,D10\u002C4,1*%
%TO.N,KEY_ROW4*%
X329692000Y-145745000D03*
D15*
X329692000Y-143420000D03*
D16*
%TO.P,D10\u002C4,2*%
%TO.N,Net-(D10\u002C4-Pad2)*%
X329692000Y-151220000D03*
D17*
%TO.P,D10\u002C4,1*%
%TO.N,KEY_ROW4*%
X329692000Y-144620000D03*
%TO.P,D10\u002C4,2*%
%TO.N,Net-(D10\u002C4-Pad2)*%
X329692000Y-150020000D03*
%TD*%
%TO.P,D10\u002C5,2*%
%TO.N,Net-(D10\u002C5-Pad2)*%
X361188000Y-174404000D03*
%TO.P,D10\u002C5,1*%
%TO.N,KEY_ROW5*%
X361188000Y-169004000D03*
D16*
%TO.P,D10\u002C5,2*%
%TO.N,Net-(D10\u002C5-Pad2)*%
X361188000Y-175604000D03*
D15*
%TO.P,D10\u002C5,1*%
%TO.N,KEY_ROW5*%
X361188000Y-167804000D03*
D14*
X361188000Y-170129000D03*
%TO.P,D10\u002C5,2*%
%TO.N,Net-(D10\u002C5-Pad2)*%
X361188000Y-173279000D03*
%TD*%
D17*
%TO.P,D10\u002C1,2*%
%TO.N,Net-(D10\u002C1-Pad2)*%
X298704000Y-72804000D03*
%TO.P,D10\u002C1,1*%
%TO.N,KEY_ROW1*%
X298704000Y-67404000D03*
D16*
%TO.P,D10\u002C1,2*%
%TO.N,Net-(D10\u002C1-Pad2)*%
X298704000Y-74004000D03*
D15*
%TO.P,D10\u002C1,1*%
%TO.N,KEY_ROW1*%
X298704000Y-66204000D03*
D14*
X298704000Y-68529000D03*
%TO.P,D10\u002C1,2*%
%TO.N,Net-(D10\u002C1-Pad2)*%
X298704000Y-71679000D03*
%TD*%
%TO.P,D10\u002C0,2*%
%TO.N,Net-(D10\u002C0-Pad2)*%
X354584000Y-36881000D03*
%TO.P,D10\u002C0,1*%
%TO.N,KEY_ROW0*%
X354584000Y-33731000D03*
D15*
X354584000Y-31406000D03*
D16*
%TO.P,D10\u002C0,2*%
%TO.N,Net-(D10\u002C0-Pad2)*%
X354584000Y-39206000D03*
D17*
%TO.P,D10\u002C0,1*%
%TO.N,KEY_ROW0*%
X354584000Y-32606000D03*
%TO.P,D10\u002C0,2*%
%TO.N,Net-(D10\u002C0-Pad2)*%
X354584000Y-38006000D03*
%TD*%
%TO.P,D10\u002C2,2*%
%TO.N,Net-(D10\u002C2-Pad2)*%
X308864000Y-98712000D03*
%TO.P,D10\u002C2,1*%
%TO.N,KEY_ROW2*%
X308864000Y-93312000D03*
D16*
%TO.P,D10\u002C2,2*%
%TO.N,Net-(D10\u002C2-Pad2)*%
X308864000Y-99912000D03*
D15*
%TO.P,D10\u002C2,1*%
%TO.N,KEY_ROW2*%
X308864000Y-92112000D03*
D14*
X308864000Y-94437000D03*
%TO.P,D10\u002C2,2*%
%TO.N,Net-(D10\u002C2-Pad2)*%
X308864000Y-97587000D03*
%TD*%
D17*
%TO.P,D10\u002C3,2*%
%TO.N,Net-(D10\u002C3-Pad2)*%
X316992000Y-123604000D03*
%TO.P,D10\u002C3,1*%
%TO.N,KEY_ROW3*%
X316992000Y-118204000D03*
D16*
%TO.P,D10\u002C3,2*%
%TO.N,Net-(D10\u002C3-Pad2)*%
X316992000Y-124804000D03*
D15*
%TO.P,D10\u002C3,1*%
%TO.N,KEY_ROW3*%
X316992000Y-117004000D03*
D14*
X316992000Y-119329000D03*
%TO.P,D10\u002C3,2*%
%TO.N,Net-(D10\u002C3-Pad2)*%
X316992000Y-122479000D03*
%TD*%
%TO.P,D11\u002C0,2*%
%TO.N,Net-(D11\u002C0-Pad2)*%
X380492000Y-36627000D03*
%TO.P,D11\u002C0,1*%
%TO.N,KEY_ROW0*%
X380492000Y-33477000D03*
D15*
X380492000Y-31152000D03*
D16*
%TO.P,D11\u002C0,2*%
%TO.N,Net-(D11\u002C0-Pad2)*%
X380492000Y-38952000D03*
D17*
%TO.P,D11\u002C0,1*%
%TO.N,KEY_ROW0*%
X380492000Y-32352000D03*
%TO.P,D11\u002C0,2*%
%TO.N,Net-(D11\u002C0-Pad2)*%
X380492000Y-37752000D03*
%TD*%
D14*
%TO.P,D11\u002C1,2*%
%TO.N,Net-(D11\u002C1-Pad2)*%
X324104000Y-71679000D03*
%TO.P,D11\u002C1,1*%
%TO.N,KEY_ROW1*%
X324104000Y-68529000D03*
D15*
X324104000Y-66204000D03*
D16*
%TO.P,D11\u002C1,2*%
%TO.N,Net-(D11\u002C1-Pad2)*%
X324104000Y-74004000D03*
D17*
%TO.P,D11\u002C1,1*%
%TO.N,KEY_ROW1*%
X324104000Y-67404000D03*
%TO.P,D11\u002C1,2*%
%TO.N,Net-(D11\u002C1-Pad2)*%
X324104000Y-72804000D03*
%TD*%
%TO.P,D11\u002C3,2*%
%TO.N,Net-(D11\u002C3-Pad2)*%
X341884000Y-123604000D03*
%TO.P,D11\u002C3,1*%
%TO.N,KEY_ROW3*%
X341884000Y-118204000D03*
D16*
%TO.P,D11\u002C3,2*%
%TO.N,Net-(D11\u002C3-Pad2)*%
X341884000Y-124804000D03*
D15*
%TO.P,D11\u002C3,1*%
%TO.N,KEY_ROW3*%
X341884000Y-117004000D03*
D14*
X341884000Y-119329000D03*
%TO.P,D11\u002C3,2*%
%TO.N,Net-(D11\u002C3-Pad2)*%
X341884000Y-122479000D03*
%TD*%
%TO.P,D11\u002C2,2*%
%TO.N,Net-(D11\u002C2-Pad2)*%
X334772000Y-96571000D03*
%TO.P,D11\u002C2,1*%
%TO.N,KEY_ROW2*%
X334772000Y-93421000D03*
D15*
X334772000Y-91096000D03*
D16*
%TO.P,D11\u002C2,2*%
%TO.N,Net-(D11\u002C2-Pad2)*%
X334772000Y-98896000D03*
D17*
%TO.P,D11\u002C2,1*%
%TO.N,KEY_ROW2*%
X334772000Y-92296000D03*
%TO.P,D11\u002C2,2*%
%TO.N,Net-(D11\u002C2-Pad2)*%
X334772000Y-97696000D03*
%TD*%
%TO.P,D11\u002C4,2*%
%TO.N,Net-(D11\u002C4-Pad2)*%
X377952000Y-150020000D03*
%TO.P,D11\u002C4,1*%
%TO.N,KEY_ROW4*%
X377952000Y-144620000D03*
D16*
%TO.P,D11\u002C4,2*%
%TO.N,Net-(D11\u002C4-Pad2)*%
X377952000Y-151220000D03*
D15*
%TO.P,D11\u002C4,1*%
%TO.N,KEY_ROW4*%
X377952000Y-143420000D03*
D14*
X377952000Y-145745000D03*
%TO.P,D11\u002C4,2*%
%TO.N,Net-(D11\u002C4-Pad2)*%
X377952000Y-148895000D03*
%TD*%
%TO.P,D11\u002C5,2*%
%TO.N,Net-(D11\u002C5-Pad2)*%
X391668000Y-173279000D03*
%TO.P,D11\u002C5,1*%
%TO.N,KEY_ROW5*%
X391668000Y-170129000D03*
D15*
X391668000Y-167804000D03*
D16*
%TO.P,D11\u002C5,2*%
%TO.N,Net-(D11\u002C5-Pad2)*%
X391668000Y-175604000D03*
D17*
%TO.P,D11\u002C5,1*%
%TO.N,KEY_ROW5*%
X391668000Y-169004000D03*
%TO.P,D11\u002C5,2*%
%TO.N,Net-(D11\u002C5-Pad2)*%
X391668000Y-174404000D03*
%TD*%
%TO.P,D12\u002C3,2*%
%TO.N,Net-(D12\u002C3-Pad2)*%
X382524000Y-123096000D03*
%TO.P,D12\u002C3,1*%
%TO.N,KEY_ROW3*%
X382524000Y-117696000D03*
D16*
%TO.P,D12\u002C3,2*%
%TO.N,Net-(D12\u002C3-Pad2)*%
X382524000Y-124296000D03*
D15*
%TO.P,D12\u002C3,1*%
%TO.N,KEY_ROW3*%
X382524000Y-116496000D03*
D14*
X382524000Y-118821000D03*
%TO.P,D12\u002C3,2*%
%TO.N,Net-(D12\u002C3-Pad2)*%
X382524000Y-121971000D03*
%TD*%
%TO.P,D12\u002C2,2*%
%TO.N,Net-(D12\u002C2-Pad2)*%
X360172000Y-97079000D03*
%TO.P,D12\u002C2,1*%
%TO.N,KEY_ROW2*%
X360172000Y-93929000D03*
D15*
X360172000Y-91604000D03*
D16*
%TO.P,D12\u002C2,2*%
%TO.N,Net-(D12\u002C2-Pad2)*%
X360172000Y-99404000D03*
D17*
%TO.P,D12\u002C2,1*%
%TO.N,KEY_ROW2*%
X360172000Y-92804000D03*
%TO.P,D12\u002C2,2*%
%TO.N,Net-(D12\u002C2-Pad2)*%
X360172000Y-98204000D03*
%TD*%
%TO.P,D12\u002C1,2*%
%TO.N,Net-(D12\u002C1-Pad2)*%
X350012000Y-73312000D03*
%TO.P,D12\u002C1,1*%
%TO.N,KEY_ROW1*%
X350012000Y-67912000D03*
D16*
%TO.P,D12\u002C1,2*%
%TO.N,Net-(D12\u002C1-Pad2)*%
X350012000Y-74512000D03*
D15*
%TO.P,D12\u002C1,1*%
%TO.N,KEY_ROW1*%
X350012000Y-66712000D03*
D14*
X350012000Y-69037000D03*
%TO.P,D12\u002C1,2*%
%TO.N,Net-(D12\u002C1-Pad2)*%
X350012000Y-72187000D03*
%TD*%
%TO.P,D12\u002C0,2*%
%TO.N,Net-(D12\u002C0-Pad2)*%
X405892000Y-35611000D03*
%TO.P,D12\u002C0,1*%
%TO.N,KEY_ROW0*%
X405892000Y-32461000D03*
D15*
X405892000Y-30136000D03*
D16*
%TO.P,D12\u002C0,2*%
%TO.N,Net-(D12\u002C0-Pad2)*%
X405892000Y-37936000D03*
D17*
%TO.P,D12\u002C0,1*%
%TO.N,KEY_ROW0*%
X405892000Y-31336000D03*
%TO.P,D12\u002C0,2*%
%TO.N,Net-(D12\u002C0-Pad2)*%
X405892000Y-36736000D03*
%TD*%
%TO.P,D13\u002C2,2*%
%TO.N,Net-(D13\u002C2-Pad2)*%
X390144000Y-98204000D03*
%TO.P,D13\u002C2,1*%
%TO.N,KEY_ROW2*%
X390144000Y-92804000D03*
D16*
%TO.P,D13\u002C2,2*%
%TO.N,Net-(D13\u002C2-Pad2)*%
X390144000Y-99404000D03*
D15*
%TO.P,D13\u002C2,1*%
%TO.N,KEY_ROW2*%
X390144000Y-91604000D03*
D14*
X390144000Y-93929000D03*
%TO.P,D13\u002C2,2*%
%TO.N,Net-(D13\u002C2-Pad2)*%
X390144000Y-97079000D03*
%TD*%
%TO.P,D13\u002C1,2*%
%TO.N,Net-(D13\u002C1-Pad2)*%
X385064000Y-71730000D03*
%TO.P,D13\u002C1,1*%
%TO.N,KEY_ROW1*%
X385064000Y-68580000D03*
D15*
X385064000Y-66255000D03*
D16*
%TO.P,D13\u002C1,2*%
%TO.N,Net-(D13\u002C1-Pad2)*%
X385064000Y-74055000D03*
D17*
%TO.P,D13\u002C1,1*%
%TO.N,KEY_ROW1*%
X385064000Y-67455000D03*
%TO.P,D13\u002C1,2*%
%TO.N,Net-(D13\u002C1-Pad2)*%
X385064000Y-72855000D03*
%TD*%
%TO.P,D14\u002C1,2*%
%TO.N,Net-(D14\u002C1-Pad2)*%
X435864000Y-72456000D03*
%TO.P,D14\u002C1,1*%
%TO.N,KEY_ROW1*%
X435864000Y-67056000D03*
D16*
%TO.P,D14\u002C1,2*%
%TO.N,Net-(D14\u002C1-Pad2)*%
X435864000Y-73656000D03*
D15*
%TO.P,D14\u002C1,1*%
%TO.N,KEY_ROW1*%
X435864000Y-65856000D03*
D14*
X435864000Y-68181000D03*
%TO.P,D14\u002C1,2*%
%TO.N,Net-(D14\u002C1-Pad2)*%
X435864000Y-71331000D03*
%TD*%
%TO.P,D14\u002C3,2*%
%TO.N,Net-(D14\u002C3-Pad2)*%
X435864000Y-97079000D03*
%TO.P,D14\u002C3,1*%
%TO.N,KEY_ROW3*%
X435864000Y-93929000D03*
D15*
X435864000Y-91604000D03*
D16*
%TO.P,D14\u002C3,2*%
%TO.N,Net-(D14\u002C3-Pad2)*%
X435864000Y-99404000D03*
D17*
%TO.P,D14\u002C3,1*%
%TO.N,KEY_ROW3*%
X435864000Y-92804000D03*
%TO.P,D14\u002C3,2*%
%TO.N,Net-(D14\u002C3-Pad2)*%
X435864000Y-98204000D03*
%TD*%
D14*
%TO.P,D14\u002C0,2*%
%TO.N,Net-(D14\u002C0-Pad2)*%
X436372000Y-36322000D03*
%TO.P,D14\u002C0,1*%
%TO.N,KEY_ROW0*%
X436372000Y-33172000D03*
D15*
X436372000Y-30847000D03*
D16*
%TO.P,D14\u002C0,2*%
%TO.N,Net-(D14\u002C0-Pad2)*%
X436372000Y-38647000D03*
D17*
%TO.P,D14\u002C0,1*%
%TO.N,KEY_ROW0*%
X436372000Y-32047000D03*
%TO.P,D14\u002C0,2*%
%TO.N,Net-(D14\u002C0-Pad2)*%
X436372000Y-37447000D03*
%TD*%
D14*
%TO.P,D14\u002C6,2*%
%TO.N,Net-(D14\u002C6-Pad2)*%
X435102000Y-173025000D03*
%TO.P,D14\u002C6,1*%
%TO.N,KEY_ROW6*%
X435102000Y-169875000D03*
D15*
X435102000Y-167550000D03*
D16*
%TO.P,D14\u002C6,2*%
%TO.N,Net-(D14\u002C6-Pad2)*%
X435102000Y-175350000D03*
D17*
%TO.P,D14\u002C6,1*%
%TO.N,KEY_ROW6*%
X435102000Y-168750000D03*
%TO.P,D14\u002C6,2*%
%TO.N,Net-(D14\u002C6-Pad2)*%
X435102000Y-174150000D03*
%TD*%
D14*
%TO.P,D15\u002C0,2*%
%TO.N,Net-(D15\u002C0-Pad2)*%
X461264000Y-36373000D03*
%TO.P,D15\u002C0,1*%
%TO.N,KEY_ROW0*%
X461264000Y-33223000D03*
D15*
X461264000Y-30898000D03*
D16*
%TO.P,D15\u002C0,2*%
%TO.N,Net-(D15\u002C0-Pad2)*%
X461264000Y-38698000D03*
D17*
%TO.P,D15\u002C0,1*%
%TO.N,KEY_ROW0*%
X461264000Y-32098000D03*
%TO.P,D15\u002C0,2*%
%TO.N,Net-(D15\u002C0-Pad2)*%
X461264000Y-37498000D03*
%TD*%
%TO.P,D15\u002C1,2*%
%TO.N,Net-(D15\u002C1-Pad2)*%
X461518000Y-73566000D03*
%TO.P,D15\u002C1,1*%
%TO.N,KEY_ROW1*%
X461518000Y-68166000D03*
D16*
%TO.P,D15\u002C1,2*%
%TO.N,Net-(D15\u002C1-Pad2)*%
X461518000Y-74766000D03*
D15*
%TO.P,D15\u002C1,1*%
%TO.N,KEY_ROW1*%
X461518000Y-66966000D03*
D14*
X461518000Y-69291000D03*
%TO.P,D15\u002C1,2*%
%TO.N,Net-(D15\u002C1-Pad2)*%
X461518000Y-72441000D03*
%TD*%
%TO.P,D15\u002C3,2*%
%TO.N,Net-(D15\u002C3-Pad2)*%
X461264000Y-97333000D03*
%TO.P,D15\u002C3,1*%
%TO.N,KEY_ROW3*%
X461264000Y-94183000D03*
D15*
X461264000Y-91858000D03*
D16*
%TO.P,D15\u002C3,2*%
%TO.N,Net-(D15\u002C3-Pad2)*%
X461264000Y-99658000D03*
D17*
%TO.P,D15\u002C3,1*%
%TO.N,KEY_ROW3*%
X461264000Y-93058000D03*
%TO.P,D15\u002C3,2*%
%TO.N,Net-(D15\u002C3-Pad2)*%
X461264000Y-98458000D03*
%TD*%
%TO.P,D15\u002C5,2*%
%TO.N,Net-(D15\u002C5-Pad2)*%
X461264000Y-149004000D03*
%TO.P,D15\u002C5,1*%
%TO.N,KEY_ROW5*%
X461264000Y-143604000D03*
D16*
%TO.P,D15\u002C5,2*%
%TO.N,Net-(D15\u002C5-Pad2)*%
X461264000Y-150204000D03*
D15*
%TO.P,D15\u002C5,1*%
%TO.N,KEY_ROW5*%
X461264000Y-142404000D03*
D14*
X461264000Y-144729000D03*
%TO.P,D15\u002C5,2*%
%TO.N,Net-(D15\u002C5-Pad2)*%
X461264000Y-147879000D03*
%TD*%
D17*
%TO.P,D15\u002C6,2*%
%TO.N,Net-(D15\u002C6-Pad2)*%
X461264000Y-173642000D03*
%TO.P,D15\u002C6,1*%
%TO.N,KEY_ROW6*%
X461264000Y-168242000D03*
D16*
%TO.P,D15\u002C6,2*%
%TO.N,Net-(D15\u002C6-Pad2)*%
X461264000Y-174842000D03*
D15*
%TO.P,D15\u002C6,1*%
%TO.N,KEY_ROW6*%
X461264000Y-167042000D03*
D14*
X461264000Y-169367000D03*
%TO.P,D15\u002C6,2*%
%TO.N,Net-(D15\u002C6-Pad2)*%
X461264000Y-172517000D03*
%TD*%
%TO.P,D16\u002C6,2*%
%TO.N,Net-(D16\u002C6-Pad2)*%
X486664000Y-173279000D03*
%TO.P,D16\u002C6,1*%
%TO.N,KEY_ROW6*%
X486664000Y-170129000D03*
D15*
X486664000Y-167804000D03*
D16*
%TO.P,D16\u002C6,2*%
%TO.N,Net-(D16\u002C6-Pad2)*%
X486664000Y-175604000D03*
D17*
%TO.P,D16\u002C6,1*%
%TO.N,KEY_ROW6*%
X486664000Y-169004000D03*
%TO.P,D16\u002C6,2*%
%TO.N,Net-(D16\u002C6-Pad2)*%
X486664000Y-174404000D03*
%TD*%
%TO.P,D16\u002C0,2*%
%TO.N,Net-(D16\u002C0-Pad2)*%
X486918000Y-36990000D03*
%TO.P,D16\u002C0,1*%
%TO.N,KEY_ROW0*%
X486918000Y-31590000D03*
D16*
%TO.P,D16\u002C0,2*%
%TO.N,Net-(D16\u002C0-Pad2)*%
X486918000Y-38190000D03*
D15*
%TO.P,D16\u002C0,1*%
%TO.N,KEY_ROW0*%
X486918000Y-30390000D03*
D14*
X486918000Y-32715000D03*
%TO.P,D16\u002C0,2*%
%TO.N,Net-(D16\u002C0-Pad2)*%
X486918000Y-35865000D03*
%TD*%
%TO.P,D16\u002C1,2*%
%TO.N,Net-(D16\u002C1-Pad2)*%
X486156000Y-71679000D03*
%TO.P,D16\u002C1,1*%
%TO.N,KEY_ROW1*%
X486156000Y-68529000D03*
D15*
X486156000Y-66204000D03*
D16*
%TO.P,D16\u002C1,2*%
%TO.N,Net-(D16\u002C1-Pad2)*%
X486156000Y-74004000D03*
D17*
%TO.P,D16\u002C1,1*%
%TO.N,KEY_ROW1*%
X486156000Y-67404000D03*
%TO.P,D16\u002C1,2*%
%TO.N,Net-(D16\u002C1-Pad2)*%
X486156000Y-72804000D03*
%TD*%
D14*
%TO.P,D16\u002C5,2*%
%TO.N,Net-(D16\u002C5-Pad2)*%
X518160000Y-148590000D03*
%TO.P,D16\u002C5,1*%
%TO.N,KEY_ROW5*%
X518160000Y-145440000D03*
D15*
X518160000Y-143115000D03*
D16*
%TO.P,D16\u002C5,2*%
%TO.N,Net-(D16\u002C5-Pad2)*%
X518160000Y-150915000D03*
D17*
%TO.P,D16\u002C5,1*%
%TO.N,KEY_ROW5*%
X518160000Y-144315000D03*
%TO.P,D16\u002C5,2*%
%TO.N,Net-(D16\u002C5-Pad2)*%
X518160000Y-149715000D03*
%TD*%
%TO.P,D16\u002C3,2*%
%TO.N,Net-(D16\u002C3-Pad2)*%
X486664000Y-98458000D03*
%TO.P,D16\u002C3,1*%
%TO.N,KEY_ROW3*%
X486664000Y-93058000D03*
D16*
%TO.P,D16\u002C3,2*%
%TO.N,Net-(D16\u002C3-Pad2)*%
X486664000Y-99658000D03*
D15*
%TO.P,D16\u002C3,1*%
%TO.N,KEY_ROW3*%
X486664000Y-91858000D03*
D14*
X486664000Y-94183000D03*
%TO.P,D16\u002C3,2*%
%TO.N,Net-(D16\u002C3-Pad2)*%
X486664000Y-97333000D03*
%TD*%
%TO.P,D16\u002C4,2*%
%TO.N,Net-(D16\u002C4-Pad2)*%
X518160000Y-122987000D03*
%TO.P,D16\u002C4,1*%
%TO.N,KEY_ROW4*%
X518160000Y-119837000D03*
D15*
X518160000Y-117512000D03*
D16*
%TO.P,D16\u002C4,2*%
%TO.N,Net-(D16\u002C4-Pad2)*%
X518160000Y-125312000D03*
D17*
%TO.P,D16\u002C4,1*%
%TO.N,KEY_ROW4*%
X518160000Y-118712000D03*
%TO.P,D16\u002C4,2*%
%TO.N,Net-(D16\u002C4-Pad2)*%
X518160000Y-124112000D03*
%TD*%
%TO.P,D17\u002C3,2*%
%TO.N,Net-(D17\u002C3-Pad2)*%
X518160000Y-98204000D03*
%TO.P,D17\u002C3,1*%
%TO.N,KEY_ROW3*%
X518160000Y-92804000D03*
D16*
%TO.P,D17\u002C3,2*%
%TO.N,Net-(D17\u002C3-Pad2)*%
X518160000Y-99404000D03*
D15*
%TO.P,D17\u002C3,1*%
%TO.N,KEY_ROW3*%
X518160000Y-91604000D03*
D14*
X518160000Y-93929000D03*
%TO.P,D17\u002C3,2*%
%TO.N,Net-(D17\u002C3-Pad2)*%
X518160000Y-97079000D03*
%TD*%
%TO.P,D17\u002C1,2*%
%TO.N,Net-(D17\u002C1-Pad2)*%
X518160000Y-71730000D03*
%TO.P,D17\u002C1,1*%
%TO.N,KEY_ROW1*%
X518160000Y-68580000D03*
D15*
X518160000Y-66255000D03*
D16*
%TO.P,D17\u002C1,2*%
%TO.N,Net-(D17\u002C1-Pad2)*%
X518160000Y-74055000D03*
D17*
%TO.P,D17\u002C1,1*%
%TO.N,KEY_ROW1*%
X518160000Y-67455000D03*
%TO.P,D17\u002C1,2*%
%TO.N,Net-(D17\u002C1-Pad2)*%
X518160000Y-72855000D03*
%TD*%
D14*
%TO.P,D17\u002C6,2*%
%TO.N,Net-(D17\u002C6-Pad2)*%
X530352000Y-173787000D03*
%TO.P,D17\u002C6,1*%
%TO.N,KEY_ROW6*%
X530352000Y-170637000D03*
D15*
X530352000Y-168312000D03*
D16*
%TO.P,D17\u002C6,2*%
%TO.N,Net-(D17\u002C6-Pad2)*%
X530352000Y-176112000D03*
D17*
%TO.P,D17\u002C6,1*%
%TO.N,KEY_ROW6*%
X530352000Y-169512000D03*
%TO.P,D17\u002C6,2*%
%TO.N,Net-(D17\u002C6-Pad2)*%
X530352000Y-174912000D03*
%TD*%
%TO.P,D17\u002C4,2*%
%TO.N,Net-(D17\u002C4-Pad2)*%
X543560000Y-124112000D03*
%TO.P,D17\u002C4,1*%
%TO.N,KEY_ROW4*%
X543560000Y-118712000D03*
D16*
%TO.P,D17\u002C4,2*%
%TO.N,Net-(D17\u002C4-Pad2)*%
X543560000Y-125312000D03*
D15*
%TO.P,D17\u002C4,1*%
%TO.N,KEY_ROW4*%
X543560000Y-117512000D03*
D14*
X543560000Y-119837000D03*
%TO.P,D17\u002C4,2*%
%TO.N,Net-(D17\u002C4-Pad2)*%
X543560000Y-122987000D03*
%TD*%
D17*
%TO.P,D17\u002C0,2*%
%TO.N,Net-(D17\u002C0-Pad2)*%
X518160000Y-37244000D03*
%TO.P,D17\u002C0,1*%
%TO.N,KEY_ROW0*%
X518160000Y-31844000D03*
D16*
%TO.P,D17\u002C0,2*%
%TO.N,Net-(D17\u002C0-Pad2)*%
X518160000Y-38444000D03*
D15*
%TO.P,D17\u002C0,1*%
%TO.N,KEY_ROW0*%
X518160000Y-30644000D03*
D14*
X518160000Y-32969000D03*
%TO.P,D17\u002C0,2*%
%TO.N,Net-(D17\u002C0-Pad2)*%
X518160000Y-36119000D03*
%TD*%
D17*
%TO.P,D17\u002C5,2*%
%TO.N,Net-(D17\u002C5-Pad2)*%
X543052000Y-149512000D03*
%TO.P,D17\u002C5,1*%
%TO.N,KEY_ROW5*%
X543052000Y-144112000D03*
D16*
%TO.P,D17\u002C5,2*%
%TO.N,Net-(D17\u002C5-Pad2)*%
X543052000Y-150712000D03*
D15*
%TO.P,D17\u002C5,1*%
%TO.N,KEY_ROW5*%
X543052000Y-142912000D03*
D14*
X543052000Y-145237000D03*
%TO.P,D17\u002C5,2*%
%TO.N,Net-(D17\u002C5-Pad2)*%
X543052000Y-148387000D03*
%TD*%
%TO.P,D18\u002C1,2*%
%TO.N,Net-(D18\u002C1-Pad2)*%
X543052000Y-72187000D03*
%TO.P,D18\u002C1,1*%
%TO.N,KEY_ROW1*%
X543052000Y-69037000D03*
D15*
X543052000Y-66712000D03*
D16*
%TO.P,D18\u002C1,2*%
%TO.N,Net-(D18\u002C1-Pad2)*%
X543052000Y-74512000D03*
D17*
%TO.P,D18\u002C1,1*%
%TO.N,KEY_ROW1*%
X543052000Y-67912000D03*
%TO.P,D18\u002C1,2*%
%TO.N,Net-(D18\u002C1-Pad2)*%
X543052000Y-73312000D03*
%TD*%
D14*
%TO.P,D18\u002C6,2*%
%TO.N,Net-(D18\u002C6-Pad2)*%
X568960000Y-172771000D03*
%TO.P,D18\u002C6,1*%
%TO.N,KEY_ROW6*%
X568960000Y-169621000D03*
D15*
X568960000Y-167296000D03*
D16*
%TO.P,D18\u002C6,2*%
%TO.N,Net-(D18\u002C6-Pad2)*%
X568960000Y-175096000D03*
D17*
%TO.P,D18\u002C6,1*%
%TO.N,KEY_ROW6*%
X568960000Y-168496000D03*
%TO.P,D18\u002C6,2*%
%TO.N,Net-(D18\u002C6-Pad2)*%
X568960000Y-173896000D03*
%TD*%
%TO.P,D18\u002C3,2*%
%TO.N,Net-(D18\u002C3-Pad2)*%
X543052000Y-98204000D03*
%TO.P,D18\u002C3,1*%
%TO.N,KEY_ROW3*%
X543052000Y-92804000D03*
D16*
%TO.P,D18\u002C3,2*%
%TO.N,Net-(D18\u002C3-Pad2)*%
X543052000Y-99404000D03*
D15*
%TO.P,D18\u002C3,1*%
%TO.N,KEY_ROW3*%
X543052000Y-91604000D03*
D14*
X543052000Y-93929000D03*
%TO.P,D18\u002C3,2*%
%TO.N,Net-(D18\u002C3-Pad2)*%
X543052000Y-97079000D03*
%TD*%
%TO.P,D18\u002C0,2*%
%TO.N,Net-(D18\u002C0-Pad2)*%
X543052000Y-36119000D03*
%TO.P,D18\u002C0,1*%
%TO.N,KEY_ROW0*%
X543052000Y-32969000D03*
D15*
X543052000Y-30644000D03*
D16*
%TO.P,D18\u002C0,2*%
%TO.N,Net-(D18\u002C0-Pad2)*%
X543052000Y-38444000D03*
D17*
%TO.P,D18\u002C0,1*%
%TO.N,KEY_ROW0*%
X543052000Y-31844000D03*
%TO.P,D18\u002C0,2*%
%TO.N,Net-(D18\u002C0-Pad2)*%
X543052000Y-37244000D03*
%TD*%
%TO.P,D18\u002C5,2*%
%TO.N,Net-(D18\u002C5-Pad2)*%
X568452000Y-149512000D03*
%TO.P,D18\u002C5,1*%
%TO.N,KEY_ROW5*%
X568452000Y-144112000D03*
D16*
%TO.P,D18\u002C5,2*%
%TO.N,Net-(D18\u002C5-Pad2)*%
X568452000Y-150712000D03*
D15*
%TO.P,D18\u002C5,1*%
%TO.N,KEY_ROW5*%
X568452000Y-142912000D03*
D14*
X568452000Y-145237000D03*
%TO.P,D18\u002C5,2*%
%TO.N,Net-(D18\u002C5-Pad2)*%
X568452000Y-148387000D03*
%TD*%
%TO.P,D18\u002C4,2*%
%TO.N,Net-(D18\u002C4-Pad2)*%
X568960000Y-122987000D03*
%TO.P,D18\u002C4,1*%
%TO.N,KEY_ROW4*%
X568960000Y-119837000D03*
D15*
X568960000Y-117512000D03*
D16*
%TO.P,D18\u002C4,2*%
%TO.N,Net-(D18\u002C4-Pad2)*%
X568960000Y-125312000D03*
D17*
%TO.P,D18\u002C4,1*%
%TO.N,KEY_ROW4*%
X568960000Y-118712000D03*
%TO.P,D18\u002C4,2*%
%TO.N,Net-(D18\u002C4-Pad2)*%
X568960000Y-124112000D03*
%TD*%
D14*
%TO.P,D19\u002C4,2*%
%TO.N,Net-(D19\u002C4-Pad2)*%
X594360000Y-110795000D03*
%TO.P,D19\u002C4,1*%
%TO.N,KEY_ROW4*%
X594360000Y-107645000D03*
D15*
X594360000Y-105320000D03*
D16*
%TO.P,D19\u002C4,2*%
%TO.N,Net-(D19\u002C4-Pad2)*%
X594360000Y-113120000D03*
D17*
%TO.P,D19\u002C4,1*%
%TO.N,KEY_ROW4*%
X594360000Y-106520000D03*
%TO.P,D19\u002C4,2*%
%TO.N,Net-(D19\u002C4-Pad2)*%
X594360000Y-111920000D03*
%TD*%
%TO.P,D19\u002C0,2*%
%TO.N,Net-(D19\u002C0-Pad2)*%
X568452000Y-37244000D03*
%TO.P,D19\u002C0,1*%
%TO.N,KEY_ROW0*%
X568452000Y-31844000D03*
D16*
%TO.P,D19\u002C0,2*%
%TO.N,Net-(D19\u002C0-Pad2)*%
X568452000Y-38444000D03*
D15*
%TO.P,D19\u002C0,1*%
%TO.N,KEY_ROW0*%
X568452000Y-30644000D03*
D14*
X568452000Y-32969000D03*
%TO.P,D19\u002C0,2*%
%TO.N,Net-(D19\u002C0-Pad2)*%
X568452000Y-36119000D03*
%TD*%
D17*
%TO.P,D19\u002C3,2*%
%TO.N,Net-(D19\u002C3-Pad2)*%
X568960000Y-98204000D03*
%TO.P,D19\u002C3,1*%
%TO.N,KEY_ROW3*%
X568960000Y-92804000D03*
D16*
%TO.P,D19\u002C3,2*%
%TO.N,Net-(D19\u002C3-Pad2)*%
X568960000Y-99404000D03*
D15*
%TO.P,D19\u002C3,1*%
%TO.N,KEY_ROW3*%
X568960000Y-91604000D03*
D14*
X568960000Y-93929000D03*
%TO.P,D19\u002C3,2*%
%TO.N,Net-(D19\u002C3-Pad2)*%
X568960000Y-97079000D03*
%TD*%
%TO.P,D19\u002C1,2*%
%TO.N,Net-(D19\u002C1-Pad2)*%
X568960000Y-71679000D03*
%TO.P,D19\u002C1,1*%
%TO.N,KEY_ROW1*%
X568960000Y-68529000D03*
D15*
X568960000Y-66204000D03*
D16*
%TO.P,D19\u002C1,2*%
%TO.N,Net-(D19\u002C1-Pad2)*%
X568960000Y-74004000D03*
D17*
%TO.P,D19\u002C1,1*%
%TO.N,KEY_ROW1*%
X568960000Y-67404000D03*
%TO.P,D19\u002C1,2*%
%TO.N,Net-(D19\u002C1-Pad2)*%
X568960000Y-72804000D03*
%TD*%
%TO.P,D19\u002C6,2*%
%TO.N,Net-(D19\u002C6-Pad2)*%
X593852000Y-159418000D03*
%TO.P,D19\u002C6,1*%
%TO.N,KEY_ROW6*%
X593852000Y-154018000D03*
D16*
%TO.P,D19\u002C6,2*%
%TO.N,Net-(D19\u002C6-Pad2)*%
X593852000Y-160618000D03*
D15*
%TO.P,D19\u002C6,1*%
%TO.N,KEY_ROW6*%
X593852000Y-152818000D03*
D14*
X593852000Y-155143000D03*
%TO.P,D19\u002C6,2*%
%TO.N,Net-(D19\u002C6-Pad2)*%
X593852000Y-158293000D03*
%TD*%
D17*
%TO.P,D20\u002C1,2*%
%TO.N,Net-(D20\u002C1-Pad2)*%
X592328000Y-72804000D03*
%TO.P,D20\u002C1,1*%
%TO.N,KEY_ROW1*%
X592328000Y-67404000D03*
D16*
%TO.P,D20\u002C1,2*%
%TO.N,Net-(D20\u002C1-Pad2)*%
X592328000Y-74004000D03*
D15*
%TO.P,D20\u002C1,1*%
%TO.N,KEY_ROW1*%
X592328000Y-66204000D03*
D14*
X592328000Y-68529000D03*
%TO.P,D20\u002C1,2*%
%TO.N,Net-(D20\u002C1-Pad2)*%
X592328000Y-71679000D03*
%TD*%
%TO.P,D20\u002C0,2*%
%TO.N,Net-(D20\u002C0-Pad2)*%
X593852000Y-36627000D03*
%TO.P,D20\u002C0,1*%
%TO.N,KEY_ROW0*%
X593852000Y-33477000D03*
D15*
X593852000Y-31152000D03*
D16*
%TO.P,D20\u002C0,2*%
%TO.N,Net-(D20\u002C0-Pad2)*%
X593852000Y-38952000D03*
D17*
%TO.P,D20\u002C0,1*%
%TO.N,KEY_ROW0*%
X593852000Y-32352000D03*
%TO.P,D20\u002C0,2*%
%TO.N,Net-(D20\u002C0-Pad2)*%
X593852000Y-37752000D03*
%TD*%
%TO.P,J0,1*%
%TO.N,MAIN_VBUS*%
%TA.AperFunction,ComponentPad*%
G36*
G01*
X465111000Y-108370000D02*
X466561000Y-108370000D01*
G75*
G02*
X466811000Y-108620000I0J-250000D01*
G01*
X466811000Y-109820000D01*
G75*
G02*
X466561000Y-110070000I-250000J0D01*
G01*
X465111000Y-110070000D01*
G75*
G02*
X464861000Y-109820000I0J250000D01*
G01*
X464861000Y-108620000D01*
G75*
G02*
X465111000Y-108370000I250000J0D01*
G01*
G37*
%TD.AperFunction*%
D18*
%TO.P,J0,2*%
%TO.N,USB_DP*%
X465836000Y-111720000D03*
%TO.P,J0,3*%
%TO.N,USB_DN*%
X465836000Y-114220000D03*
%TO.P,J0,4*%
%TO.N,GNDPWR*%
X465836000Y-116720000D03*
%TD*%
D19*
%TO.P,J1,4*%
%TO.N,Net-(J1-Pad4)*%
X427108000Y-100838000D03*
%TO.P,J1,3*%
%TO.N,Net-(J1-Pad3)*%
X424608000Y-100838000D03*
%TO.P,J1,2*%
%TO.N,PICO_SCL0*%
X422108000Y-100838000D03*
%TO.P,J1,1*%
%TO.N,PICO_SDA0*%
%TA.AperFunction,ComponentPad*%
G36*
G01*
X418758000Y-101563000D02*
X418758000Y-100113000D01*
G75*
G02*
X419008000Y-99863000I250000J0D01*
G01*
X420208000Y-99863000D01*
G75*
G02*
X420458000Y-100113000I0J-250000D01*
G01*
X420458000Y-101563000D01*
G75*
G02*
X420208000Y-101813000I-250000J0D01*
G01*
X419008000Y-101813000D01*
G75*
G02*
X418758000Y-101563000I0J250000D01*
G01*
G37*
%TD.AperFunction*%
%TD*%
D12*
%TO.P,K0\u002C0,1*%
%TO.N,KEY_COL0*%
X61441000Y-36322000D03*
%TO.P,K0\u002C0,2*%
%TO.N,Net-(D0\u002C0-Pad2)*%
X48514000Y-38862000D03*
%TD*%
%TO.P,K0\u002C1,1*%
%TO.N,KEY_COL0*%
X61441000Y-71882000D03*
%TO.P,K0\u002C1,2*%
%TO.N,Net-(D0\u002C1-Pad2)*%
X48514000Y-74422000D03*
%TD*%
%TO.P,K0\u002C5,1*%
%TO.N,KEY_COL0*%
X63981000Y-173482000D03*
%TO.P,K0\u002C5,2*%
%TO.N,Net-(D0\u002C5-Pad2)*%
X51054000Y-176022000D03*
%TD*%
%TO.P,K0\u002C2,1*%
%TO.N,KEY_COL0*%
X66203500Y-97561400D03*
%TO.P,K0\u002C2,2*%
%TO.N,Net-(D0\u002C2-Pad2)*%
X53276500Y-100101400D03*
%TD*%
%TO.P,K0\u002C4,2*%
%TO.N,Net-(D0\u002C4-Pad2)*%
X60706000Y-150622000D03*
%TO.P,K0\u002C4,1*%
%TO.N,KEY_COL0*%
X73633000Y-148082000D03*
%TD*%
%TO.P,K0\u002C3,1*%
%TO.N,KEY_COL0*%
X68591100Y-122656600D03*
%TO.P,K0\u002C3,2*%
%TO.N,Net-(D0\u002C3-Pad2)*%
X55664100Y-125196600D03*
%TD*%
%TO.P,K1\u002C4,1*%
%TO.N,KEY_COL1*%
X117321000Y-148590000D03*
%TO.P,K1\u002C4,2*%
%TO.N,Net-(D1\u002C4-Pad2)*%
X104394000Y-151130000D03*
%TD*%
%TO.P,K1\u002C5,1*%
%TO.N,KEY_COL1*%
X94461000Y-173482000D03*
%TO.P,K1\u002C5,2*%
%TO.N,Net-(D1\u002C5-Pad2)*%
X81534000Y-176022000D03*
%TD*%
%TO.P,K1\u002C3,2*%
%TO.N,Net-(D1\u002C3-Pad2)*%
X91694000Y-125222000D03*
%TO.P,K1\u002C3,1*%
%TO.N,KEY_COL1*%
X104621000Y-122682000D03*
%TD*%
%TO.P,K1\u002C2,1*%
%TO.N,KEY_COL1*%
X97001000Y-97282000D03*
%TO.P,K1\u002C2,2*%
%TO.N,Net-(D1\u002C2-Pad2)*%
X84074000Y-99822000D03*
%TD*%
%TO.P,K1\u002C1,1*%
%TO.N,KEY_COL1*%
X86841000Y-71882000D03*
%TO.P,K1\u002C1,2*%
%TO.N,Net-(D1\u002C1-Pad2)*%
X73914000Y-74422000D03*
%TD*%
%TO.P,K1\u002C0,1*%
%TO.N,KEY_COL1*%
X112241000Y-36322000D03*
%TO.P,K1\u002C0,2*%
%TO.N,Net-(D1\u002C0-Pad2)*%
X99314000Y-38862000D03*
%TD*%
%TO.P,K2\u002C5,1*%
%TO.N,KEY_COL2*%
X124941000Y-173482000D03*
%TO.P,K2\u002C5,2*%
%TO.N,Net-(D2\u002C5-Pad2)*%
X112014000Y-176022000D03*
%TD*%
%TO.P,K2\u002C3,1*%
%TO.N,KEY_COL2*%
X130021000Y-122682000D03*
%TO.P,K2\u002C3,2*%
%TO.N,Net-(D2\u002C3-Pad2)*%
X117094000Y-125222000D03*
%TD*%
%TO.P,K2\u002C1,1*%
%TO.N,KEY_COL2*%
X112241000Y-71882000D03*
%TO.P,K2\u002C1,2*%
%TO.N,Net-(D2\u002C1-Pad2)*%
X99314000Y-74422000D03*
%TD*%
%TO.P,K2\u002C4,1*%
%TO.N,KEY_COL2*%
X142721000Y-148590000D03*
%TO.P,K2\u002C4,2*%
%TO.N,Net-(D2\u002C4-Pad2)*%
X129794000Y-151130000D03*
%TD*%
%TO.P,K2\u002C2,2*%
%TO.N,Net-(D2\u002C2-Pad2)*%
X109982000Y-99822000D03*
%TO.P,K2\u002C2,1*%
%TO.N,KEY_COL2*%
X122909000Y-97282000D03*
%TD*%
%TO.P,K2\u002C0,2*%
%TO.N,Net-(D2\u002C0-Pad2)*%
X124714000Y-38862000D03*
%TO.P,K2\u002C0,1*%
%TO.N,KEY_COL2*%
X137641000Y-36322000D03*
%TD*%
%TO.P,K3\u002C5,1*%
%TO.N,KEY_COL3*%
X222985000Y-173482000D03*
%TO.P,K3\u002C5,2*%
%TO.N,Net-(D3\u002C5-Pad2)*%
X210058000Y-176022000D03*
%TD*%
%TO.P,K3\u002C4,2*%
%TO.N,Net-(D3\u002C4-Pad2)*%
X155194000Y-151130000D03*
%TO.P,K3\u002C4,1*%
%TO.N,KEY_COL3*%
X168121000Y-148590000D03*
%TD*%
%TO.P,K3\u002C2,1*%
%TO.N,KEY_COL3*%
X147801000Y-97282000D03*
%TO.P,K3\u002C2,2*%
%TO.N,Net-(D3\u002C2-Pad2)*%
X134874000Y-99822000D03*
%TD*%
%TO.P,K3\u002C1,2*%
%TO.N,Net-(D3\u002C1-Pad2)*%
X124714000Y-74422000D03*
%TO.P,K3\u002C1,1*%
%TO.N,KEY_COL3*%
X137641000Y-71882000D03*
%TD*%
%TO.P,K3\u002C0,1*%
%TO.N,KEY_COL3*%
X163041000Y-36322000D03*
%TO.P,K3\u002C0,2*%
%TO.N,Net-(D3\u002C0-Pad2)*%
X150114000Y-38862000D03*
%TD*%
%TO.P,K3\u002C3,2*%
%TO.N,Net-(D3\u002C3-Pad2)*%
X142494000Y-125222000D03*
%TO.P,K3\u002C3,1*%
%TO.N,KEY_COL3*%
X155421000Y-122682000D03*
%TD*%
%TO.P,K4\u002C1,1*%
%TO.N,KEY_COL4*%
X163041000Y-71882000D03*
%TO.P,K4\u002C1,2*%
%TO.N,Net-(D4\u002C1-Pad2)*%
X150114000Y-74422000D03*
%TD*%
%TO.P,K4\u002C2,1*%
%TO.N,KEY_COL4*%
X173201000Y-97282000D03*
%TO.P,K4\u002C2,2*%
%TO.N,Net-(D4\u002C2-Pad2)*%
X160274000Y-99822000D03*
%TD*%
%TO.P,K4\u002C3,2*%
%TO.N,Net-(D4\u002C3-Pad2)*%
X167894000Y-125222000D03*
%TO.P,K4\u002C3,1*%
%TO.N,KEY_COL4*%
X180821000Y-122682000D03*
%TD*%
%TO.P,K4\u002C4,1*%
%TO.N,KEY_COL4*%
X193521000Y-148590000D03*
%TO.P,K4\u002C4,2*%
%TO.N,Net-(D4\u002C4-Pad2)*%
X180594000Y-151130000D03*
%TD*%
%TO.P,K4\u002C0,2*%
%TO.N,Net-(D4\u002C0-Pad2)*%
X175514000Y-38862000D03*
%TO.P,K4\u002C0,1*%
%TO.N,KEY_COL4*%
X188441000Y-36322000D03*
%TD*%
%TO.P,K5\u002C0,1*%
%TO.N,KEY_COL5*%
X229081000Y-36322000D03*
%TO.P,K5\u002C0,2*%
%TO.N,Net-(D5\u002C0-Pad2)*%
X216154000Y-38862000D03*
%TD*%
%TO.P,K5\u002C2,2*%
%TO.N,Net-(D5\u002C2-Pad2)*%
X185674000Y-99822000D03*
%TO.P,K5\u002C2,1*%
%TO.N,KEY_COL5*%
X198601000Y-97282000D03*
%TD*%
%TO.P,K5\u002C1,1*%
%TO.N,KEY_COL5*%
X188441000Y-71882000D03*
%TO.P,K5\u002C1,2*%
%TO.N,Net-(D5\u002C1-Pad2)*%
X175514000Y-74422000D03*
%TD*%
%TO.P,K5\u002C3,1*%
%TO.N,KEY_COL5*%
X206221000Y-122682000D03*
%TO.P,K5\u002C3,2*%
%TO.N,Net-(D5\u002C3-Pad2)*%
X193294000Y-125222000D03*
%TD*%
%TO.P,K5\u002C4,2*%
%TO.N,Net-(D5\u002C4-Pad2)*%
X205994000Y-151130000D03*
%TO.P,K5\u002C4,1*%
%TO.N,KEY_COL5*%
X218921000Y-148590000D03*
%TD*%
%TO.P,K6\u002C3,2*%
%TO.N,Net-(D6\u002C3-Pad2)*%
X218694000Y-125222000D03*
%TO.P,K6\u002C3,1*%
%TO.N,KEY_COL6*%
X231621000Y-122682000D03*
%TD*%
%TO.P,K6\u002C4,2*%
%TO.N,Net-(D6\u002C4-Pad2)*%
X231394000Y-151130000D03*
%TO.P,K6\u002C4,1*%
%TO.N,KEY_COL6*%
X244321000Y-148590000D03*
%TD*%
%TO.P,K6\u002C1,2*%
%TO.N,Net-(D6\u002C1-Pad2)*%
X200914000Y-74422000D03*
%TO.P,K6\u002C1,1*%
%TO.N,KEY_COL6*%
X213841000Y-71882000D03*
%TD*%
%TO.P,K6\u002C2,1*%
%TO.N,KEY_COL6*%
X224001000Y-97282000D03*
%TO.P,K6\u002C2,2*%
%TO.N,Net-(D6\u002C2-Pad2)*%
X211074000Y-99822000D03*
%TD*%
%TO.P,K6\u002C0,2*%
%TO.N,Net-(D6\u002C0-Pad2)*%
X241554000Y-38862000D03*
%TO.P,K6\u002C0,1*%
%TO.N,KEY_COL6*%
X254481000Y-36322000D03*
%TD*%
%TO.P,K7\u002C2,1*%
%TO.N,KEY_COL7*%
X249401000Y-97282000D03*
%TO.P,K7\u002C2,2*%
%TO.N,Net-(D7\u002C2-Pad2)*%
X236474000Y-99822000D03*
%TD*%
%TO.P,K7\u002C1,2*%
%TO.N,Net-(D7\u002C1-Pad2)*%
X226314000Y-74422000D03*
%TO.P,K7\u002C1,1*%
%TO.N,KEY_COL7*%
X239241000Y-71882000D03*
%TD*%
%TO.P,K7\u002C3,1*%
%TO.N,KEY_COL7*%
X257021000Y-122682000D03*
%TO.P,K7\u002C3,2*%
%TO.N,Net-(D7\u002C3-Pad2)*%
X244094000Y-125222000D03*
%TD*%
%TO.P,K7\u002C4,2*%
%TO.N,Net-(D7\u002C4-Pad2)*%
X256794000Y-151130000D03*
%TO.P,K7\u002C4,1*%
%TO.N,KEY_COL7*%
X269721000Y-148590000D03*
%TD*%
%TO.P,K7\u002C0,1*%
%TO.N,KEY_COL7*%
X279881000Y-36322000D03*
%TO.P,K7\u002C0,2*%
%TO.N,Net-(D7\u002C0-Pad2)*%
X266954000Y-38862000D03*
%TD*%
%TO.P,K8\u002C0,1*%
%TO.N,KEY_COL8*%
X305281000Y-36322000D03*
%TO.P,K8\u002C0,2*%
%TO.N,Net-(D8\u002C0-Pad2)*%
X292354000Y-38862000D03*
%TD*%
%TO.P,K8\u002C1,1*%
%TO.N,KEY_COL8*%
X264641000Y-71882000D03*
%TO.P,K8\u002C1,2*%
%TO.N,Net-(D8\u002C1-Pad2)*%
X251714000Y-74422000D03*
%TD*%
%TO.P,K8\u002C3,1*%
%TO.N,KEY_COL8*%
X282421000Y-122682000D03*
%TO.P,K8\u002C3,2*%
%TO.N,Net-(D8\u002C3-Pad2)*%
X269494000Y-125222000D03*
%TD*%
%TO.P,K8\u002C4,2*%
%TO.N,Net-(D8\u002C4-Pad2)*%
X282194000Y-151130000D03*
%TO.P,K8\u002C4,1*%
%TO.N,KEY_COL8*%
X295121000Y-148590000D03*
%TD*%
%TO.P,K8\u002C5,2*%
%TO.N,Net-(D8\u002C5-Pad2)*%
X296926000Y-176022000D03*
%TO.P,K8\u002C5,1*%
%TO.N,KEY_COL8*%
X309853000Y-173482000D03*
%TD*%
%TO.P,K8\u002C2,2*%
%TO.N,Net-(D8\u002C2-Pad2)*%
X261874000Y-99822000D03*
%TO.P,K8\u002C2,1*%
%TO.N,KEY_COL8*%
X274801000Y-97282000D03*
%TD*%
%TO.P,K9\u002C0,2*%
%TO.N,Net-(D9\u002C0-Pad2)*%
X332994000Y-38862000D03*
%TO.P,K9\u002C0,1*%
%TO.N,KEY_COL9*%
X345921000Y-36322000D03*
%TD*%
%TO.P,K9\u002C5,2*%
%TO.N,Net-(D9\u002C5-Pad2)*%
X330454000Y-176022000D03*
%TO.P,K9\u002C5,1*%
%TO.N,KEY_COL9*%
X343381000Y-173482000D03*
%TD*%
%TO.P,K9\u002C1,2*%
%TO.N,Net-(D9\u002C1-Pad2)*%
X277114000Y-74422000D03*
%TO.P,K9\u002C1,1*%
%TO.N,KEY_COL9*%
X290041000Y-71882000D03*
%TD*%
%TO.P,K9\u002C2,1*%
%TO.N,KEY_COL9*%
X300201000Y-97282000D03*
%TO.P,K9\u002C2,2*%
%TO.N,Net-(D9\u002C2-Pad2)*%
X287274000Y-99822000D03*
%TD*%
%TO.P,K9\u002C4,2*%
%TO.N,Net-(D9\u002C4-Pad2)*%
X307594000Y-151130000D03*
%TO.P,K9\u002C4,1*%
%TO.N,KEY_COL9*%
X320521000Y-148590000D03*
%TD*%
%TO.P,K9\u002C3,1*%
%TO.N,KEY_COL9*%
X307821000Y-122682000D03*
%TO.P,K9\u002C3,2*%
%TO.N,Net-(D9\u002C3-Pad2)*%
X294894000Y-125222000D03*
%TD*%
%TO.P,K10\u002C2,2*%
%TO.N,Net-(D10\u002C2-Pad2)*%
X312674000Y-99822000D03*
%TO.P,K10\u002C2,1*%
%TO.N,KEY_COL10*%
X325601000Y-97282000D03*
%TD*%
%TO.P,K10\u002C0,1*%
%TO.N,KEY_COL10*%
X371321000Y-36322000D03*
%TO.P,K10\u002C0,2*%
%TO.N,Net-(D10\u002C0-Pad2)*%
X358394000Y-38862000D03*
%TD*%
%TO.P,K10\u002C5,2*%
%TO.N,Net-(D10\u002C5-Pad2)*%
X364998000Y-176022000D03*
%TO.P,K10\u002C5,1*%
%TO.N,KEY_COL10*%
X377925000Y-173482000D03*
%TD*%
%TO.P,K10\u002C1,2*%
%TO.N,Net-(D10\u002C1-Pad2)*%
X302514000Y-74422000D03*
%TO.P,K10\u002C1,1*%
%TO.N,KEY_COL10*%
X315441000Y-71882000D03*
%TD*%
%TO.P,K10\u002C3,1*%
%TO.N,KEY_COL10*%
X333221000Y-122682000D03*
%TO.P,K10\u002C3,2*%
%TO.N,Net-(D10\u002C3-Pad2)*%
X320294000Y-125222000D03*
%TD*%
%TO.P,K10\u002C4,2*%
%TO.N,Net-(D10\u002C4-Pad2)*%
X332994000Y-151130000D03*
%TO.P,K10\u002C4,1*%
%TO.N,KEY_COL10*%
X345921000Y-148590000D03*
%TD*%
%TO.P,K11\u002C3,2*%
%TO.N,Net-(D11\u002C3-Pad2)*%
X345694000Y-125222000D03*
%TO.P,K11\u002C3,1*%
%TO.N,KEY_COL11*%
X358621000Y-122682000D03*
%TD*%
%TO.P,K11\u002C2,1*%
%TO.N,KEY_COL11*%
X351001000Y-97282000D03*
%TO.P,K11\u002C2,2*%
%TO.N,Net-(D11\u002C2-Pad2)*%
X338074000Y-99822000D03*
%TD*%
%TO.P,K11\u002C5,1*%
%TO.N,KEY_COL11*%
X408405000Y-173482000D03*
%TO.P,K11\u002C5,2*%
%TO.N,Net-(D11\u002C5-Pad2)*%
X395478000Y-176022000D03*
%TD*%
%TO.P,K11\u002C1,2*%
%TO.N,Net-(D11\u002C1-Pad2)*%
X327914000Y-74422000D03*
%TO.P,K11\u002C1,1*%
%TO.N,KEY_COL11*%
X340841000Y-71882000D03*
%TD*%
%TO.P,K11\u002C0,1*%
%TO.N,KEY_COL11*%
X396721000Y-36322000D03*
%TO.P,K11\u002C0,2*%
%TO.N,Net-(D11\u002C0-Pad2)*%
X383794000Y-38862000D03*
%TD*%
%TO.P,K12\u002C2,2*%
%TO.N,Net-(D12\u002C2-Pad2)*%
X363474000Y-99822000D03*
%TO.P,K12\u002C2,1*%
%TO.N,KEY_COL12*%
X376401000Y-97282000D03*
%TD*%
%TO.P,K12\u002C0,1*%
%TO.N,KEY_COL12*%
X422121000Y-36322000D03*
%TO.P,K12\u002C0,2*%
%TO.N,Net-(D12\u002C0-Pad2)*%
X409194000Y-38862000D03*
%TD*%
%TO.P,K12\u002C1,2*%
%TO.N,Net-(D12\u002C1-Pad2)*%
X353314000Y-74422000D03*
%TO.P,K12\u002C1,1*%
%TO.N,KEY_COL12*%
X366241000Y-71882000D03*
%TD*%
%TO.P,K13\u002C2,2*%
%TO.N,Net-(D13\u002C2-Pad2)*%
X393446000Y-99822000D03*
%TO.P,K13\u002C2,1*%
%TO.N,KEY_COL13*%
X406373000Y-97282000D03*
%TD*%
%TO.P,K14\u002C1,2*%
%TO.N,Net-(D14\u002C1-Pad2)*%
X439674000Y-74422000D03*
%TO.P,K14\u002C1,1*%
%TO.N,KEY_COL14*%
X452601000Y-71882000D03*
%TD*%
%TO.P,K14\u002C6,2*%
%TO.N,Net-(D14\u002C6-Pad2)*%
X439674000Y-176022000D03*
%TO.P,K14\u002C6,1*%
%TO.N,KEY_COL14*%
X452601000Y-173482000D03*
%TD*%
%TO.P,K14\u002C3,1*%
%TO.N,KEY_COL14*%
X452601000Y-97282000D03*
%TO.P,K14\u002C3,2*%
%TO.N,Net-(D14\u002C3-Pad2)*%
X439674000Y-99822000D03*
%TD*%
%TO.P,K14\u002C0,1*%
%TO.N,KEY_COL14*%
X453109000Y-36322000D03*
%TO.P,K14\u002C0,2*%
%TO.N,Net-(D14\u002C0-Pad2)*%
X440182000Y-38862000D03*
%TD*%
%TO.P,K15\u002C6,2*%
%TO.N,Net-(D15\u002C6-Pad2)*%
X465074000Y-176022000D03*
%TO.P,K15\u002C6,1*%
%TO.N,KEY_COL15*%
X478001000Y-173482000D03*
%TD*%
%TO.P,K15\u002C3,1*%
%TO.N,KEY_COL15*%
X478001000Y-97282000D03*
%TO.P,K15\u002C3,2*%
%TO.N,Net-(D15\u002C3-Pad2)*%
X465074000Y-99822000D03*
%TD*%
%TO.P,K15\u002C5,1*%
%TO.N,KEY_COL15*%
X478001000Y-148590000D03*
%TO.P,K15\u002C5,2*%
%TO.N,Net-(D15\u002C5-Pad2)*%
X465074000Y-151130000D03*
%TD*%
%TO.P,K15\u002C1,1*%
%TO.N,KEY_COL15*%
X478001000Y-71882000D03*
%TO.P,K15\u002C1,2*%
%TO.N,Net-(D15\u002C1-Pad2)*%
X465074000Y-74422000D03*
%TD*%
%TO.P,K15\u002C0,1*%
%TO.N,KEY_COL15*%
X478001000Y-36322000D03*
%TO.P,K15\u002C0,2*%
%TO.N,Net-(D15\u002C0-Pad2)*%
X465074000Y-38862000D03*
%TD*%
%TO.P,K16\u002C4,1*%
%TO.N,KEY_COL16*%
X534389000Y-123190000D03*
%TO.P,K16\u002C4,2*%
%TO.N,Net-(D16\u002C4-Pad2)*%
X521462000Y-125730000D03*
%TD*%
%TO.P,K16\u002C1,2*%
%TO.N,Net-(D16\u002C1-Pad2)*%
X490474000Y-74422000D03*
%TO.P,K16\u002C1,1*%
%TO.N,KEY_COL16*%
X503401000Y-71882000D03*
%TD*%
%TO.P,K16\u002C5,2*%
%TO.N,Net-(D16\u002C5-Pad2)*%
X521716000Y-151130000D03*
%TO.P,K16\u002C5,1*%
%TO.N,KEY_COL16*%
X534643000Y-148590000D03*
%TD*%
%TO.P,K16\u002C3,1*%
%TO.N,KEY_COL16*%
X503401000Y-97282000D03*
%TO.P,K16\u002C3,2*%
%TO.N,Net-(D16\u002C3-Pad2)*%
X490474000Y-99822000D03*
%TD*%
%TO.P,K16\u002C0,1*%
%TO.N,KEY_COL16*%
X503401000Y-36322000D03*
%TO.P,K16\u002C0,2*%
%TO.N,Net-(D16\u002C0-Pad2)*%
X490474000Y-38862000D03*
%TD*%
%TO.P,K16\u002C6,2*%
%TO.N,Net-(D16\u002C6-Pad2)*%
X490474000Y-176022000D03*
%TO.P,K16\u002C6,1*%
%TO.N,KEY_COL16*%
X503401000Y-173482000D03*
%TD*%
%TO.P,K17\u002C6,2*%
%TO.N,Net-(D17\u002C6-Pad2)*%
X533908000Y-176022000D03*
%TO.P,K17\u002C6,1*%
%TO.N,KEY_COL17*%
X546835000Y-173482000D03*
%TD*%
%TO.P,K17\u002C5,2*%
%TO.N,Net-(D17\u002C5-Pad2)*%
X546862000Y-151130000D03*
%TO.P,K17\u002C5,1*%
%TO.N,KEY_COL17*%
X559789000Y-148590000D03*
%TD*%
%TO.P,K17\u002C4,2*%
%TO.N,Net-(D17\u002C4-Pad2)*%
X546862000Y-125730000D03*
%TO.P,K17\u002C4,1*%
%TO.N,KEY_COL17*%
X559789000Y-123190000D03*
%TD*%
%TO.P,K17\u002C3,2*%
%TO.N,Net-(D17\u002C3-Pad2)*%
X521462000Y-99822000D03*
%TO.P,K17\u002C3,1*%
%TO.N,KEY_COL17*%
X534389000Y-97282000D03*
%TD*%
%TO.P,K17\u002C1,2*%
%TO.N,Net-(D17\u002C1-Pad2)*%
X521462000Y-74422000D03*
%TO.P,K17\u002C1,1*%
%TO.N,KEY_COL17*%
X534389000Y-71882000D03*
%TD*%
%TO.P,K17\u002C0,2*%
%TO.N,Net-(D17\u002C0-Pad2)*%
X521462000Y-38862000D03*
%TO.P,K17\u002C0,1*%
%TO.N,KEY_COL17*%
X534389000Y-36322000D03*
%TD*%
%TO.P,K18\u002C4,1*%
%TO.N,KEY_COL18*%
X585189000Y-123190000D03*
%TO.P,K18\u002C4,2*%
%TO.N,Net-(D18\u002C4-Pad2)*%
X572262000Y-125730000D03*
%TD*%
%TO.P,K18\u002C6,1*%
%TO.N,KEY_COL18*%
X585189000Y-173482000D03*
%TO.P,K18\u002C6,2*%
%TO.N,Net-(D18\u002C6-Pad2)*%
X572262000Y-176022000D03*
%TD*%
%TO.P,K18\u002C3,2*%
%TO.N,Net-(D18\u002C3-Pad2)*%
X546862000Y-99822000D03*
%TO.P,K18\u002C3,1*%
%TO.N,KEY_COL18*%
X559789000Y-97282000D03*
%TD*%
%TO.P,K18\u002C1,1*%
%TO.N,KEY_COL18*%
X559789000Y-71882000D03*
%TO.P,K18\u002C1,2*%
%TO.N,Net-(D18\u002C1-Pad2)*%
X546862000Y-74422000D03*
%TD*%
%TO.P,K18\u002C5,2*%
%TO.N,Net-(D18\u002C5-Pad2)*%
X572262000Y-151130000D03*
%TO.P,K18\u002C5,1*%
%TO.N,KEY_COL18*%
X585189000Y-148590000D03*
%TD*%
%TO.P,K18\u002C0,2*%
%TO.N,Net-(D18\u002C0-Pad2)*%
X546862000Y-38862000D03*
%TO.P,K18\u002C0,1*%
%TO.N,KEY_COL18*%
X559789000Y-36322000D03*
%TD*%
%TO.P,K19\u002C4,2*%
%TO.N,Net-(D19\u002C4-Pad2)*%
X597662000Y-113284000D03*
%TO.P,K19\u002C4,1*%
%TO.N,KEY_COL19*%
X610589000Y-110744000D03*
%TD*%
%TO.P,K19\u002C6,1*%
%TO.N,KEY_COL19*%
X610335000Y-158750000D03*
%TO.P,K19\u002C6,2*%
%TO.N,Net-(D19\u002C6-Pad2)*%
X597408000Y-161290000D03*
%TD*%
%TO.P,K19\u002C0,2*%
%TO.N,Net-(D19\u002C0-Pad2)*%
X572262000Y-38862000D03*
%TO.P,K19\u002C0,1*%
%TO.N,KEY_COL19*%
X585189000Y-36322000D03*
%TD*%
%TO.P,K19\u002C3,2*%
%TO.N,Net-(D19\u002C3-Pad2)*%
X572262000Y-99822000D03*
%TO.P,K19\u002C3,1*%
%TO.N,KEY_COL19*%
X585189000Y-97282000D03*
%TD*%
%TO.P,K19\u002C1,2*%
%TO.N,Net-(D19\u002C1-Pad2)*%
X572262000Y-74422000D03*
%TO.P,K19\u002C1,1*%
%TO.N,KEY_COL19*%
X585189000Y-71882000D03*
%TD*%
%TO.P,K20\u002C0,1*%
%TO.N,KEY_COL20*%
X610589000Y-36322000D03*
%TO.P,K20\u002C0,2*%
%TO.N,Net-(D20\u002C0-Pad2)*%
X597662000Y-38862000D03*
%TD*%
%TO.P,K20\u002C1,1*%
%TO.N,KEY_COL20*%
X610589000Y-71882000D03*
%TO.P,K20\u002C1,2*%
%TO.N,Net-(D20\u002C1-Pad2)*%
X597662000Y-74422000D03*
%TD*%
D20*
%TO.N,Net-(D0\u002C5-Pad2)*%
X51054000Y-176022000D03*
%TO.N,Net-(D0\u002C4-Pad2)*%
X60706000Y-150622000D03*
%TO.N,Net-(D0\u002C0-Pad2)*%
X48514000Y-38862000D03*
%TO.N,Net-(D0\u002C1-Pad2)*%
X48514000Y-74422000D03*
%TO.N,Net-(D0\u002C2-Pad2)*%
X53276500Y-100101400D03*
%TO.N,Net-(D0\u002C3-Pad2)*%
X55664100Y-125196600D03*
%TO.N,Net-(D1\u002C4-Pad2)*%
X104394000Y-151130000D03*
%TO.N,Net-(D1\u002C5-Pad2)*%
X81534000Y-176022000D03*
%TO.N,Net-(D1\u002C1-Pad2)*%
X73914000Y-74422000D03*
%TO.N,Net-(D1\u002C3-Pad2)*%
X91694000Y-125222000D03*
%TO.N,Net-(D1\u002C2-Pad2)*%
X84074000Y-99822000D03*
%TO.N,Net-(D1\u002C0-Pad2)*%
X99314000Y-38862000D03*
%TO.N,Net-(D2\u002C0-Pad2)*%
X124714000Y-38862000D03*
%TO.N,Net-(D2\u002C1-Pad2)*%
X99314000Y-74422000D03*
%TO.N,Net-(D3\u002C0-Pad2)*%
X150114000Y-38862000D03*
%TO.N,Net-(D3\u002C1-Pad2)*%
X124714000Y-74422000D03*
%TO.N,Net-(D4\u002C0-Pad2)*%
X175514000Y-38862000D03*
%TO.N,Net-(D5\u002C0-Pad2)*%
X216154000Y-38862000D03*
%TO.N,Net-(D5\u002C1-Pad2)*%
X175514000Y-74422000D03*
%TO.N,Net-(D5\u002C2-Pad2)*%
X185674000Y-99822000D03*
%TO.N,Net-(D6\u002C1-Pad2)*%
X200914000Y-74422000D03*
%TO.N,Net-(D6\u002C2-Pad2)*%
X211074000Y-99822000D03*
%TO.N,Net-(D6\u002C0-Pad2)*%
X241554000Y-38862000D03*
%TO.N,Net-(D7\u002C0-Pad2)*%
X266954000Y-38862000D03*
%TO.N,Net-(D7\u002C2-Pad2)*%
X236474000Y-99822000D03*
%TO.N,Net-(D7\u002C1-Pad2)*%
X226314000Y-74422000D03*
%TO.N,Net-(D8\u002C0-Pad2)*%
X292354000Y-38862000D03*
%TO.N,Net-(D9\u002C0-Pad2)*%
X332994000Y-38862000D03*
%TO.N,Net-(D10\u002C3-Pad2)*%
X320294000Y-125222000D03*
%TO.N,I2C_SDA0*%
X82296000Y-57912000D03*
X417957000Y-72517000D03*
X45720000Y-49276000D03*
X452628000Y-114808000D03*
%TO.N,I2C_SCL0*%
X80772000Y-57912000D03*
X417957000Y-71247000D03*
X43053000Y-47625000D03*
X453009000Y-113665000D03*
%TO.N,GNDPWR*%
X77216000Y-62992000D03*
X102616000Y-62992000D03*
X87376000Y-88392000D03*
X94996000Y-113792000D03*
X120396000Y-113792000D03*
X113284000Y-88392000D03*
X153416000Y-62992000D03*
X128016000Y-62992000D03*
X138176000Y-88392000D03*
X145796000Y-113792000D03*
X133096000Y-139700000D03*
X158496000Y-139700000D03*
X183896000Y-139700000D03*
X209296000Y-139700000D03*
X196596000Y-113792000D03*
X171196000Y-113792000D03*
X163576000Y-88392000D03*
X188976000Y-88392000D03*
X178816000Y-62992000D03*
X204216000Y-62992000D03*
X214376000Y-88392000D03*
X221996000Y-113792000D03*
X234696000Y-139700000D03*
X260096000Y-139700000D03*
X285496000Y-139700000D03*
X310896000Y-139700000D03*
X247396000Y-113792000D03*
X272796000Y-113792000D03*
X298196000Y-113792000D03*
X323596000Y-113792000D03*
X290576000Y-88392000D03*
X265176000Y-88392000D03*
X239776000Y-88392000D03*
X229616000Y-62992000D03*
X255016000Y-62992000D03*
X280416000Y-62992000D03*
X305816000Y-62992000D03*
X315976000Y-88392000D03*
X341376000Y-88392000D03*
X331216000Y-62992000D03*
X356616000Y-62992000D03*
X366776000Y-88392000D03*
X348996000Y-113792000D03*
X336296000Y-139700000D03*
X389636000Y-113792000D03*
X396748000Y-88392000D03*
X391668000Y-62992000D03*
X442976000Y-62992000D03*
X442976000Y-88392000D03*
X524764000Y-114300000D03*
X550164000Y-114300000D03*
X575564000Y-114300000D03*
X600964000Y-101600000D03*
X575564000Y-88392000D03*
X550164000Y-88392000D03*
X468376000Y-88392000D03*
X468376000Y-62992000D03*
X524764000Y-88392000D03*
X493776000Y-88392000D03*
X493776000Y-62484000D03*
X524764000Y-62992000D03*
X550164000Y-62992000D03*
X575564000Y-62992000D03*
X600964000Y-63500000D03*
X524764000Y-50292000D03*
X550164000Y-50292000D03*
X575564000Y-50292000D03*
X600964000Y-50292000D03*
X601472000Y-27432000D03*
X550164000Y-27432000D03*
X524764000Y-27432000D03*
X493776000Y-27432000D03*
X468376000Y-27432000D03*
X443484000Y-27432000D03*
X412496000Y-27432000D03*
X387096000Y-27432000D03*
X361696000Y-27432000D03*
X336296000Y-27432000D03*
X296164000Y-27432000D03*
X270256000Y-27432000D03*
X244856000Y-27432000D03*
X219456000Y-27432000D03*
X153416000Y-27432000D03*
X178816000Y-27432000D03*
X128016000Y-27432000D03*
X102616000Y-27432000D03*
X51816000Y-27432000D03*
X51816000Y-62992000D03*
X56388000Y-88392000D03*
X58928000Y-113792000D03*
X54356000Y-164592000D03*
X84836000Y-164592000D03*
X115316000Y-164592000D03*
X213360000Y-164592000D03*
X300228000Y-164592000D03*
X333756000Y-164592000D03*
X368300000Y-164592000D03*
X398780000Y-164592000D03*
X442976000Y-164592000D03*
X468376000Y-164592000D03*
X537464000Y-164592000D03*
X575564000Y-164592000D03*
X600964000Y-149860000D03*
X550164000Y-139700000D03*
X468376000Y-139700000D03*
X449326000Y-121666000D03*
X446278000Y-123698000D03*
X491744000Y-165100000D03*
X574201299Y-27270701D03*
X385064000Y-139700000D03*
X64008000Y-139192000D03*
X576072000Y-139700000D03*
X525272000Y-139700000D03*
X107696000Y-139700000D03*
X450596000Y-139192000D03*
X34544000Y-42672000D03*
X422148000Y-77216000D03*
X86868000Y-52324000D03*
%TO.N,KEY_COL6*%
X244321000Y-148590000D03*
X231761500Y-122822500D03*
X224141500Y-97422500D03*
X213981500Y-72022500D03*
X254481000Y-36322000D03*
%TO.N,KEY_COL5*%
X218921000Y-148590000D03*
X206361500Y-122822500D03*
X198741500Y-97422500D03*
X188581500Y-72022500D03*
X229081000Y-36322000D03*
%TO.N,KEY_COL4*%
X188441000Y-36322000D03*
X163181500Y-72022500D03*
X173341500Y-97422500D03*
X180961500Y-122822500D03*
X193521000Y-148590000D03*
%TO.N,KEY_COL3*%
X155561500Y-122822500D03*
X163041000Y-36322000D03*
X168121000Y-148590000D03*
X147941500Y-97422500D03*
X137781500Y-72022500D03*
X222985000Y-173482000D03*
%TO.N,KEY_COL2*%
X137641000Y-36322000D03*
X112381500Y-72022500D03*
X123049500Y-97422500D03*
X130161500Y-122822500D03*
X142721000Y-148871000D03*
X124941000Y-173482000D03*
X73279000Y-44323000D03*
%TO.N,KEY_COL1*%
X117321000Y-148590000D03*
X94461000Y-173482000D03*
X104761500Y-122822500D03*
X97141500Y-97422500D03*
X86981500Y-72022500D03*
X112241000Y-36322000D03*
%TO.N,KEY_COL0*%
X63981000Y-173482000D03*
X73633000Y-147855000D03*
X68725250Y-122790750D03*
X66363050Y-97720950D03*
X61581500Y-72022500D03*
X61441000Y-36322000D03*
X75819000Y-44323000D03*
%TO.N,KEY_COL7*%
X269721000Y-148590000D03*
X257161500Y-122822500D03*
X249541500Y-97422500D03*
X239381500Y-72022500D03*
X279881000Y-36322000D03*
%TO.N,KEY_COL8*%
X305281000Y-36322000D03*
X264781500Y-71741500D03*
X274941500Y-97422500D03*
X282561500Y-122822500D03*
X295261500Y-148730500D03*
X309853000Y-173482000D03*
%TO.N,KEY_COL9*%
X345921000Y-36322000D03*
X290181500Y-72022500D03*
X300341500Y-97422500D03*
X307961500Y-122822500D03*
X320521000Y-148590000D03*
X343381000Y-173482000D03*
%TO.N,KEY_COL10*%
X377925000Y-173482000D03*
X345921000Y-148590000D03*
X333361500Y-122822500D03*
X325741500Y-97422500D03*
X315581500Y-72022500D03*
X371321000Y-36322000D03*
%TO.N,KEY_COL11*%
X408405000Y-173482000D03*
X394689000Y-148363000D03*
X358621000Y-122455000D03*
X351141500Y-97422500D03*
X340981500Y-72022500D03*
X396721000Y-36322000D03*
%TO.N,KEY_COL12*%
X399261000Y-122682000D03*
X376401000Y-97055000D03*
X366381500Y-72022500D03*
X422121000Y-36322000D03*
%TO.N,KEY_COL13*%
X406373000Y-97282000D03*
X401293000Y-71882000D03*
%TO.N,KEY_COL19*%
X610348500Y-158736500D03*
X610589000Y-110744000D03*
X585189000Y-36322000D03*
X585189000Y-97282000D03*
X585189000Y-71655000D03*
X415036000Y-53848000D03*
%TO.N,KEY_COL18*%
X559789000Y-36322000D03*
X559789000Y-71655000D03*
X559789000Y-97055000D03*
X585189000Y-123471000D03*
X585189000Y-148590000D03*
X585189000Y-173482000D03*
X415036000Y-55372000D03*
%TO.N,KEY_COL17*%
X534389000Y-97282000D03*
X559789000Y-148363000D03*
X546848500Y-173468500D03*
X534389000Y-71655000D03*
X534389000Y-36322000D03*
X417449000Y-61087000D03*
X559789000Y-123471000D03*
%TO.N,KEY_COL16*%
X503401000Y-36322000D03*
X503401000Y-71655000D03*
X503401000Y-97282000D03*
X534643000Y-148590000D03*
X503401000Y-173482000D03*
X417449000Y-59817000D03*
X534389000Y-123471000D03*
%TO.N,KEY_COL15*%
X478001000Y-71655000D03*
X478001000Y-36322000D03*
X478001000Y-173482000D03*
X478001000Y-148590000D03*
X478001000Y-97282000D03*
X417449000Y-58547000D03*
%TO.N,KEY_COL14*%
X452601000Y-173482000D03*
X452601000Y-97282000D03*
X453109000Y-36322000D03*
X417449000Y-57277000D03*
X452601000Y-71655000D03*
%TO.N,Net-(D2\u002C3-Pad2)*%
X117094000Y-125222000D03*
%TO.N,Net-(D2\u002C4-Pad2)*%
X129794000Y-151130000D03*
%TO.N,Net-(D2\u002C5-Pad2)*%
X112014000Y-176022000D03*
%TO.N,Net-(D2\u002C2-Pad2)*%
X109982000Y-99822000D03*
%TO.N,Net-(D3\u002C5-Pad2)*%
X210058000Y-176022000D03*
%TO.N,Net-(D3\u002C2-Pad2)*%
X134874000Y-99822000D03*
%TO.N,Net-(D3\u002C4-Pad2)*%
X155194000Y-151130000D03*
%TO.N,Net-(D3\u002C3-Pad2)*%
X142494000Y-125222000D03*
%TO.N,Net-(D4\u002C1-Pad2)*%
X150368000Y-74168000D03*
%TO.N,Net-(D4\u002C4-Pad2)*%
X180594000Y-151130000D03*
%TO.N,Net-(D4\u002C2-Pad2)*%
X160274000Y-99822000D03*
%TO.N,Net-(D4\u002C3-Pad2)*%
X167894000Y-125222000D03*
%TO.N,Net-(D5\u002C3-Pad2)*%
X193294000Y-125222000D03*
%TO.N,Net-(D5\u002C4-Pad2)*%
X205994000Y-151130000D03*
%TO.N,Net-(D6\u002C3-Pad2)*%
X218694000Y-125222000D03*
%TO.N,Net-(D6\u002C4-Pad2)*%
X231394000Y-151130000D03*
%TO.N,Net-(D7\u002C4-Pad2)*%
X256794000Y-151130000D03*
%TO.N,Net-(D7\u002C3-Pad2)*%
X244094000Y-125222000D03*
%TO.N,Net-(D8\u002C2-Pad2)*%
X261964000Y-99912000D03*
%TO.N,Net-(D8\u002C1-Pad2)*%
X251714000Y-74422000D03*
%TO.N,Net-(D8\u002C3-Pad2)*%
X269494000Y-125222000D03*
%TO.N,Net-(D8\u002C4-Pad2)*%
X282194000Y-151130000D03*
%TO.N,Net-(D8\u002C5-Pad2)*%
X296926000Y-176022000D03*
%TO.N,Net-(D9\u002C1-Pad2)*%
X277114000Y-74422000D03*
%TO.N,Net-(D9\u002C3-Pad2)*%
X294894000Y-125222000D03*
%TO.N,Net-(D9\u002C4-Pad2)*%
X307594000Y-151130000D03*
%TO.N,Net-(D9\u002C5-Pad2)*%
X330454000Y-176022000D03*
%TO.N,Net-(D9\u002C2-Pad2)*%
X287274000Y-99822000D03*
%TO.N,Net-(D10\u002C0-Pad2)*%
X358394000Y-38862000D03*
%TO.N,Net-(D10\u002C1-Pad2)*%
X302514000Y-74422000D03*
%TO.N,Net-(D10\u002C4-Pad2)*%
X332994000Y-151130000D03*
%TO.N,Net-(D10\u002C5-Pad2)*%
X364998000Y-176022000D03*
%TO.N,Net-(D10\u002C2-Pad2)*%
X312674000Y-99822000D03*
%TO.N,Net-(D11\u002C3-Pad2)*%
X345694000Y-125222000D03*
%TO.N,Net-(D11\u002C0-Pad2)*%
X383794000Y-38862000D03*
%TO.N,Net-(D11\u002C1-Pad2)*%
X327914000Y-74422000D03*
%TO.N,Net-(D11\u002C2-Pad2)*%
X338074000Y-99822000D03*
%TO.N,Net-(D11\u002C4-Pad2)*%
X381762000Y-151130000D03*
%TO.N,Net-(D11\u002C5-Pad2)*%
X395478000Y-176022000D03*
%TO.N,Net-(D12\u002C3-Pad2)*%
X386334000Y-125222000D03*
%TO.N,Net-(D12\u002C0-Pad2)*%
X409194000Y-38862000D03*
%TO.N,Net-(D12\u002C1-Pad2)*%
X353314000Y-74422000D03*
%TO.N,Net-(D12\u002C2-Pad2)*%
X363474000Y-99822000D03*
%TO.N,Net-(D13\u002C2-Pad2)*%
X393446000Y-99822000D03*
%TO.N,Net-(D13\u002C1-Pad2)*%
X388366000Y-74422000D03*
%TO.N,Net-(D14\u002C1-Pad2)*%
X439674000Y-74422000D03*
%TO.N,Net-(D14\u002C0-Pad2)*%
X440182000Y-38862000D03*
%TO.N,Net-(D14\u002C3-Pad2)*%
X439674000Y-99822000D03*
%TO.N,Net-(D15\u002C0-Pad2)*%
X465074000Y-38862000D03*
%TO.N,Net-(D15\u002C3-Pad2)*%
X465074000Y-99822000D03*
%TO.N,Net-(D15\u002C1-Pad2)*%
X465074000Y-74422000D03*
%TO.N,Net-(D15\u002C5-Pad2)*%
X465074000Y-151130000D03*
%TO.N,Net-(D15\u002C6-Pad2)*%
X465074000Y-176022000D03*
%TO.N,Net-(D16\u002C4-Pad2)*%
X521462000Y-125730000D03*
%TO.N,Net-(D16\u002C1-Pad2)*%
X490474000Y-74422000D03*
%TO.N,Net-(D16\u002C0-Pad2)*%
X490474000Y-38862000D03*
%TO.N,Net-(D16\u002C3-Pad2)*%
X490474000Y-99822000D03*
%TO.N,Net-(D16\u002C5-Pad2)*%
X521716000Y-151130000D03*
%TO.N,Net-(D16\u002C6-Pad2)*%
X490474000Y-176022000D03*
%TO.N,Net-(D17\u002C0-Pad2)*%
X521462000Y-38862000D03*
%TO.N,Net-(D17\u002C3-Pad2)*%
X521462000Y-99822000D03*
%TO.N,Net-(D17\u002C1-Pad2)*%
X521462000Y-74422000D03*
%TO.N,Net-(D17\u002C4-Pad2)*%
X546862000Y-125730000D03*
%TO.N,Net-(D17\u002C5-Pad2)*%
X546862000Y-151130000D03*
%TO.N,Net-(D17\u002C6-Pad2)*%
X533908000Y-176022000D03*
%TO.N,Net-(D18\u002C0-Pad2)*%
X546862000Y-38862000D03*
%TO.N,Net-(D18\u002C6-Pad2)*%
X572262000Y-176022000D03*
%TO.N,Net-(D18\u002C4-Pad2)*%
X572262000Y-125730000D03*
%TO.N,Net-(D18\u002C5-Pad2)*%
X572262000Y-151130000D03*
%TO.N,Net-(D18\u002C1-Pad2)*%
X546862000Y-74422000D03*
%TO.N,Net-(D18\u002C3-Pad2)*%
X546862000Y-99822000D03*
%TO.N,Net-(D19\u002C6-Pad2)*%
X597408000Y-161290000D03*
%TO.N,Net-(D19\u002C0-Pad2)*%
X572262000Y-38862000D03*
%TO.N,Net-(D19\u002C4-Pad2)*%
X597662000Y-113284000D03*
%TO.N,Net-(D19\u002C3-Pad2)*%
X572262000Y-99822000D03*
%TO.N,Net-(D19\u002C1-Pad2)*%
X572262000Y-74422000D03*
%TO.N,Net-(D20\u002C0-Pad2)*%
X597662000Y-38862000D03*
%TO.N,Net-(D20\u002C1-Pad2)*%
X597662000Y-74422000D03*
%TO.N,LED_SCL_ROW1*%
X50292000Y-64516000D03*
%TO.N,LED_SDA_ROW1*%
X47752000Y-63500000D03*
%TO.N,LED_SDA_ROW5*%
X38735000Y-59055000D03*
%TO.N,LED_SCL_ROW5*%
X38735000Y-57785000D03*
%TO.N,LED_SCL_ROW3*%
X57404000Y-115316000D03*
%TO.N,LED_SDA_ROW3*%
X55880000Y-111760000D03*
%TO.N,LED_SDA_ROW4*%
X62484000Y-142240000D03*
%TO.N,LED_SCL_ROW4*%
X65532000Y-140716000D03*
%TO.N,LED_SCL_ROW2*%
X50800000Y-89916000D03*
%TO.N,LED_SDA_ROW2*%
X54356000Y-91440000D03*
%TO.N,LED_SCL_ROW0*%
X33528000Y-53848000D03*
%TO.N,LED_SDA_ROW0*%
X36068000Y-54864000D03*
%TO.N,LED_SDA_ROW6*%
X38735000Y-56515000D03*
X441452000Y-167640000D03*
%TO.N,LED_SCL_ROW6*%
X38735000Y-55245000D03*
X441452000Y-166116000D03*
%TO.N,MAIN_VBUS*%
X86868000Y-49276000D03*
X452120000Y-109728000D03*
X470408000Y-135636000D03*
X406682501Y-110461499D03*
X450088000Y-87376000D03*
X77216000Y-57404000D03*
X419100000Y-77216000D03*
X37592000Y-42672000D03*
X409448000Y-95504000D03*
%TO.N,IO_INT0*%
X441452000Y-113284000D03*
X93472000Y-58928000D03*
%TO.N,IO_INT1*%
X440182000Y-113538000D03*
X91948000Y-58928000D03*
%TO.N,IO_INT2*%
X438912000Y-113284000D03*
X422656000Y-85852000D03*
%TO.N,IO_INT3*%
X437388000Y-113284000D03*
X424688000Y-85852000D03*
%TO.N,LED_SCL_ROW7*%
X522732000Y-51816000D03*
X34671000Y-52705000D03*
%TO.N,LED_SDA_ROW7*%
X522732000Y-53340000D03*
X38735000Y-53975000D03*
%TO.N,PICO_33_REF*%
X448156000Y-126084000D03*
X436372000Y-122936000D03*
%TO.N,Net-(D14\u002C6-Pad2)*%
X439674000Y-176022000D03*
%TO.N,KEY_COL20*%
X610589000Y-71882000D03*
X610589000Y-36322000D03*
X415036000Y-52324000D03*
%TD*%
D21*
%TO.N,KEY_ROW6*%
X423382999Y-179269001D02*
X435102000Y-167550000D01*
X93735999Y-173830001D02*
X99174999Y-179269001D01*
X93735999Y-173133999D02*
X93735999Y-173830001D01*
X105569010Y-150555988D02*
X105569010Y-161300988D01*
X106356001Y-149768997D02*
X105569010Y-150555988D01*
X106356001Y-132265999D02*
X106356001Y-149768997D01*
X91900999Y-117810997D02*
X106356001Y-132265999D01*
X91900999Y-96405999D02*
X91900999Y-117810997D01*
X105569010Y-161300988D02*
X93735999Y-173133999D01*
X92241001Y-96065997D02*
X91900999Y-96405999D01*
X92241001Y-85130999D02*
X92241001Y-96065997D01*
X74549000Y-67438998D02*
X92241001Y-85130999D01*
X99174999Y-179269001D02*
X423382999Y-179269001D01*
X74549000Y-55450000D02*
X74549000Y-67438998D01*
%TO.N,Net-(D0\u002C5-Pad2)*%
X48170000Y-176022000D02*
X47244000Y-175096000D01*
X51054000Y-176022000D02*
X48170000Y-176022000D01*
%TO.N,Net-(D0\u002C4-Pad2)*%
X57822000Y-150622000D02*
X57404000Y-150204000D01*
X60706000Y-150622000D02*
X57822000Y-150622000D01*
%TO.N,Net-(D0\u002C0-Pad2)*%
X45302000Y-38862000D02*
X45212000Y-38952000D01*
X48514000Y-38862000D02*
X45302000Y-38862000D01*
%TO.N,Net-(D0\u002C1-Pad2)*%
X44286000Y-74422000D02*
X44196000Y-74512000D01*
X48514000Y-74422000D02*
X44286000Y-74422000D01*
%TO.N,Net-(D0\u002C2-Pad2)*%
X49973400Y-100101400D02*
X49784000Y-99912000D01*
X53276500Y-100101400D02*
X49973400Y-100101400D01*
%TO.N,Net-(D0\u002C3-Pad2)*%
X53275600Y-125196600D02*
X52578000Y-124499000D01*
X55664100Y-125196600D02*
X53275600Y-125196600D01*
%TO.N,Net-(D1\u002C4-Pad2)*%
X101510000Y-151130000D02*
X101092000Y-150712000D01*
X104394000Y-151130000D02*
X101510000Y-151130000D01*
%TO.N,Net-(D1\u002C5-Pad2)*%
X77814000Y-176022000D02*
X77724000Y-176112000D01*
X81534000Y-176022000D02*
X77814000Y-176022000D01*
%TO.N,Net-(D1\u002C1-Pad2)*%
X70522000Y-74422000D02*
X70104000Y-74004000D01*
X73914000Y-74422000D02*
X70522000Y-74422000D01*
%TO.N,Net-(D1\u002C3-Pad2)*%
X88048000Y-125222000D02*
X87884000Y-125058000D01*
X91694000Y-125222000D02*
X88048000Y-125222000D01*
%TO.N,Net-(D1\u002C2-Pad2)*%
X80174000Y-99822000D02*
X79756000Y-99404000D01*
X84074000Y-99822000D02*
X80174000Y-99822000D01*
%TO.N,Net-(D1\u002C0-Pad2)*%
X95594000Y-38862000D02*
X95504000Y-38952000D01*
X99314000Y-38862000D02*
X95594000Y-38862000D01*
%TO.N,Net-(D2\u002C0-Pad2)*%
X121830000Y-38862000D02*
X121412000Y-38444000D01*
X124714000Y-38862000D02*
X121830000Y-38862000D01*
%TO.N,Net-(D2\u002C1-Pad2)*%
X95086000Y-74422000D02*
X93980000Y-75528000D01*
X99314000Y-74422000D02*
X95086000Y-74422000D01*
%TO.N,Net-(D3\u002C0-Pad2)*%
X146722000Y-38862000D02*
X146558000Y-38698000D01*
X150114000Y-38862000D02*
X146722000Y-38862000D01*
%TO.N,Net-(D3\u002C1-Pad2)*%
X120232000Y-74422000D02*
X119380000Y-75274000D01*
X124714000Y-74422000D02*
X120232000Y-74422000D01*
%TO.N,Net-(D4\u002C0-Pad2)*%
X172122000Y-38862000D02*
X171704000Y-38444000D01*
X175514000Y-38862000D02*
X172122000Y-38862000D01*
%TO.N,Net-(D5\u002C0-Pad2)*%
X213434000Y-38862000D02*
X212344000Y-37772000D01*
X216154000Y-38862000D02*
X213434000Y-38862000D01*
%TO.N,Net-(D5\u002C1-Pad2)*%
X175096000Y-74004000D02*
X175514000Y-74422000D01*
X172212000Y-74004000D02*
X175096000Y-74004000D01*
%TO.N,Net-(D5\u002C2-Pad2)*%
X181426000Y-99822000D02*
X180340000Y-98736000D01*
X185674000Y-99822000D02*
X181426000Y-99822000D01*
%TO.N,Net-(D6\u002C1-Pad2)*%
X198030000Y-74422000D02*
X197612000Y-74004000D01*
X200914000Y-74422000D02*
X198030000Y-74422000D01*
%TO.N,Net-(D6\u002C2-Pad2)*%
X208139000Y-99822000D02*
X207772000Y-99455000D01*
X211074000Y-99822000D02*
X208139000Y-99822000D01*
%TO.N,Net-(D6\u002C0-Pad2)*%
X237908000Y-38862000D02*
X237744000Y-38698000D01*
X241554000Y-38862000D02*
X237908000Y-38862000D01*
%TO.N,Net-(D7\u002C0-Pad2)*%
X263562000Y-38862000D02*
X263144000Y-38444000D01*
X266954000Y-38862000D02*
X263562000Y-38862000D01*
%TO.N,Net-(D7\u002C2-Pad2)*%
X233262000Y-99822000D02*
X233172000Y-99912000D01*
X236474000Y-99822000D02*
X233262000Y-99822000D01*
%TO.N,Net-(D7\u002C1-Pad2)*%
X223102000Y-74422000D02*
X222504000Y-75020000D01*
X226314000Y-74422000D02*
X223102000Y-74422000D01*
%TO.N,Net-(D8\u002C0-Pad2)*%
X289142000Y-38862000D02*
X289052000Y-38952000D01*
X292354000Y-38862000D02*
X289142000Y-38862000D01*
%TO.N,Net-(D9\u002C0-Pad2)*%
X330059000Y-38862000D02*
X329692000Y-38495000D01*
X332994000Y-38862000D02*
X330059000Y-38862000D01*
%TO.N,Net-(D10\u002C3-Pad2)*%
X317410000Y-125222000D02*
X316992000Y-124804000D01*
X320294000Y-125222000D02*
X317410000Y-125222000D01*
%TO.N,I2C_SDA0*%
X82169000Y-57785000D02*
X82296000Y-57912000D01*
X82169000Y-55450000D02*
X82169000Y-57785000D01*
X415974000Y-72517000D02*
X417957000Y-72517000D01*
X43364685Y-46355000D02*
X40718000Y-46355000D01*
X45720000Y-48710315D02*
X43364685Y-46355000D01*
X45720000Y-49276000D02*
X45720000Y-48710315D01*
X454279000Y-112233000D02*
X454279000Y-113665000D01*
X454279000Y-113665000D02*
X453136000Y-114808000D01*
X453136000Y-114808000D02*
X452628000Y-114808000D01*
%TO.N,I2C_SCL0*%
X80899000Y-57785000D02*
X80772000Y-57912000D01*
X80899000Y-55450000D02*
X80899000Y-57785000D01*
X415974000Y-71247000D02*
X417957000Y-71247000D01*
X453009000Y-112233000D02*
X453009000Y-113665000D01*
X40718000Y-47625000D02*
X43053000Y-47625000D01*
%TO.N,GNDPWR*%
X443992000Y-120331000D02*
X443992000Y-121412000D01*
X443992000Y-121412000D02*
X446278000Y-123698000D01*
X450469000Y-117383000D02*
X450469000Y-120523000D01*
X450469000Y-120523000D02*
X449326000Y-121666000D01*
X465836000Y-121476000D02*
X467868000Y-123508000D01*
X465836000Y-116720000D02*
X465836000Y-121476000D01*
X452806000Y-139192000D02*
X453146000Y-139532000D01*
X450596000Y-139192000D02*
X452806000Y-139192000D01*
X78359000Y-54425000D02*
X78359000Y-55450000D01*
X80734000Y-52050000D02*
X78359000Y-54425000D01*
X80899000Y-46150000D02*
X83439000Y-46150000D01*
X83439000Y-51395000D02*
X84094000Y-52050000D01*
X83439000Y-46150000D02*
X83439000Y-51395000D01*
X84094000Y-52050000D02*
X80734000Y-52050000D01*
X84094000Y-52050000D02*
X86868000Y-52050000D01*
X416999000Y-68707000D02*
X415974000Y-68707000D01*
X421874000Y-73582000D02*
X416999000Y-68707000D01*
X421874000Y-77216000D02*
X421874000Y-73582000D01*
X425274000Y-71247000D02*
X425274000Y-72517000D01*
X424847232Y-72517000D02*
X425274000Y-72517000D01*
X421874000Y-75490232D02*
X424847232Y-72517000D01*
X421874000Y-77216000D02*
X421874000Y-75490232D01*
X32443000Y-47625000D02*
X31418000Y-47625000D01*
X34544000Y-45524000D02*
X32443000Y-47625000D01*
X39185000Y-50165000D02*
X40718000Y-50165000D01*
X34544000Y-45524000D02*
X39185000Y-50165000D01*
X34544000Y-42672000D02*
X34544000Y-45524000D01*
%TO.N,KEY_COL6*%
X231761500Y-122822500D02*
X244321000Y-135382000D01*
X224141500Y-97422500D02*
X231621000Y-104902000D01*
X213981500Y-72022500D02*
X224001000Y-82042000D01*
X254481000Y-36322000D02*
X254481000Y-37873000D01*
X231621000Y-122682000D02*
X231761500Y-122822500D01*
X244321000Y-135382000D02*
X244321000Y-148590000D01*
X224001000Y-97282000D02*
X224141500Y-97422500D01*
X231621000Y-104902000D02*
X231621000Y-122682000D01*
X213841000Y-71882000D02*
X213981500Y-72022500D01*
X224001000Y-82042000D02*
X224001000Y-97282000D01*
X235458000Y-56896000D02*
X228827000Y-56896000D01*
X228827000Y-56896000D02*
X213841000Y-71882000D01*
X254481000Y-37873000D02*
X235458000Y-56896000D01*
X68199000Y-46150000D02*
X68199000Y-44323000D01*
X254481000Y-34010998D02*
X254481000Y-36322000D01*
X247177001Y-26706999D02*
X254481000Y-34010998D01*
X89408000Y-27432000D02*
X90133001Y-26706999D01*
X90133001Y-26706999D02*
X247177001Y-26706999D01*
X85090000Y-27432000D02*
X89408000Y-27432000D01*
X68199000Y-44323000D02*
X85090000Y-27432000D01*
%TO.N,KEY_COL5*%
X206361500Y-122822500D02*
X218116001Y-134577001D01*
X198741500Y-97422500D02*
X206221000Y-104902000D01*
X188581500Y-72022500D02*
X198601000Y-82042000D01*
X229081000Y-36322000D02*
X212317000Y-53086000D01*
X206221000Y-122682000D02*
X206361500Y-122822500D01*
X218116001Y-134577001D02*
X218116001Y-147785001D01*
X218116001Y-147785001D02*
X218921000Y-148590000D01*
X198601000Y-97282000D02*
X198741500Y-97422500D01*
X206221000Y-104902000D02*
X206221000Y-122682000D01*
X188441000Y-71882000D02*
X188581500Y-72022500D01*
X198601000Y-82042000D02*
X198601000Y-97282000D01*
X200152000Y-53086000D02*
X188441000Y-64797000D01*
X188441000Y-64797000D02*
X188441000Y-71882000D01*
X212317000Y-53086000D02*
X200152000Y-53086000D01*
X69469000Y-46150000D02*
X69469000Y-44323000D01*
X229081000Y-34010998D02*
X229081000Y-36322000D01*
X223227003Y-28157001D02*
X229081000Y-34010998D01*
X85634999Y-28157001D02*
X223227003Y-28157001D01*
X69469000Y-44323000D02*
X85634999Y-28157001D01*
%TO.N,KEY_COL4*%
X188441000Y-46482000D02*
X163041000Y-71882000D01*
X173201000Y-82042000D02*
X173201000Y-97282000D01*
X163041000Y-71882000D02*
X163181500Y-72022500D01*
X180821000Y-104902000D02*
X180821000Y-122682000D01*
X173201000Y-97282000D02*
X173341500Y-97422500D01*
X193521000Y-135382000D02*
X193521000Y-148590000D01*
X180821000Y-122682000D02*
X180961500Y-122822500D01*
X188441000Y-36322000D02*
X188441000Y-46482000D01*
X163181500Y-72022500D02*
X173201000Y-82042000D01*
X173341500Y-97422500D02*
X180821000Y-104902000D01*
X180961500Y-122822500D02*
X193521000Y-135382000D01*
X70739000Y-46150000D02*
X70739000Y-44323000D01*
X188441000Y-34010998D02*
X188441000Y-36322000D01*
X183949001Y-29518999D02*
X188441000Y-34010998D01*
X85543001Y-29518999D02*
X183949001Y-29518999D01*
X70739000Y-44323000D02*
X85543001Y-29518999D01*
%TO.N,KEY_COL3*%
X155561500Y-122822500D02*
X168121000Y-135382000D01*
X147941500Y-97422500D02*
X155421000Y-104902000D01*
X163041000Y-36322000D02*
X163041000Y-46482000D01*
X137781500Y-72022500D02*
X147801000Y-82042000D01*
X155421000Y-122682000D02*
X155561500Y-122822500D01*
X147801000Y-82042000D02*
X147801000Y-97282000D01*
X147801000Y-97282000D02*
X147941500Y-97422500D01*
X155421000Y-104902000D02*
X155421000Y-122682000D01*
X137641000Y-71882000D02*
X137781500Y-72022500D01*
X168121000Y-135382000D02*
X168121000Y-148590000D01*
X163041000Y-46482000D02*
X137641000Y-71882000D01*
X168121000Y-148590000D02*
X168402000Y-148590000D01*
X188428999Y-168616999D02*
X204255001Y-168616999D01*
X168402000Y-148590000D02*
X188428999Y-168616999D01*
X222985000Y-171170998D02*
X222985000Y-173482000D01*
X204255001Y-168616999D02*
X220431001Y-168616999D01*
X220431001Y-168616999D02*
X222985000Y-171170998D01*
X204084001Y-168616999D02*
X204255001Y-168616999D01*
X72009000Y-46150000D02*
X72009000Y-44323000D01*
X161215999Y-38147001D02*
X163041000Y-36322000D01*
X146601998Y-35052000D02*
X153784998Y-35052000D01*
X153784998Y-35052000D02*
X156879999Y-38147001D01*
X143006997Y-31456999D02*
X146601998Y-35052000D01*
X123587997Y-33894001D02*
X126024999Y-31456999D01*
X126024999Y-31456999D02*
X143006997Y-31456999D01*
X120551999Y-33894001D02*
X123587997Y-33894001D01*
X119239997Y-32581999D02*
X120551999Y-33894001D01*
X109659999Y-32581999D02*
X119239997Y-32581999D01*
X105204999Y-37036999D02*
X109659999Y-32581999D01*
X101739999Y-37036999D02*
X105204999Y-37036999D01*
X100790999Y-37985999D02*
X101739999Y-37036999D01*
X100790999Y-39738001D02*
X100790999Y-37985999D01*
X100292009Y-40236991D02*
X100790999Y-39738001D01*
X156879999Y-38147001D02*
X161215999Y-38147001D01*
X76095009Y-40236991D02*
X100292009Y-40236991D01*
X72009000Y-44323000D02*
X76095009Y-40236991D01*
%TO.N,KEY_COL2*%
X137641000Y-46482000D02*
X112241000Y-71882000D01*
X130161500Y-122822500D02*
X142721000Y-135382000D01*
X142721000Y-135382000D02*
X142721000Y-148871000D01*
X122909000Y-82550000D02*
X122909000Y-97282000D01*
X112241000Y-71882000D02*
X112381500Y-72022500D01*
X130021000Y-104394000D02*
X130021000Y-122682000D01*
X122909000Y-97282000D02*
X123049500Y-97422500D01*
X130021000Y-122682000D02*
X130161500Y-122822500D01*
X137641000Y-36322000D02*
X137641000Y-46482000D01*
X112381500Y-72022500D02*
X122909000Y-82550000D01*
X123049500Y-97422500D02*
X130021000Y-104394000D01*
X142721000Y-148590000D02*
X142721000Y-148871000D01*
X142721000Y-155702000D02*
X124941000Y-173482000D01*
X142721000Y-148871000D02*
X142721000Y-155702000D01*
X73279000Y-46150000D02*
X73279000Y-44323000D01*
%TO.N,KEY_COL1*%
X117321000Y-148590000D02*
X117321000Y-150622000D01*
X117321000Y-150622000D02*
X94461000Y-173482000D01*
X104761500Y-122822500D02*
X117321000Y-135382000D01*
X97141500Y-97422500D02*
X104621000Y-104902000D01*
X86981500Y-72022500D02*
X96196001Y-81237001D01*
X104621000Y-122682000D02*
X104761500Y-122822500D01*
X117321000Y-135382000D02*
X117321000Y-148590000D01*
X97001000Y-97282000D02*
X97141500Y-97422500D01*
X104621000Y-104902000D02*
X104621000Y-122682000D01*
X96196001Y-81237001D02*
X96196001Y-96477001D01*
X96196001Y-96477001D02*
X97001000Y-97282000D01*
X86841000Y-71882000D02*
X86981500Y-72022500D01*
X112241000Y-36322000D02*
X112241000Y-36322000D01*
X112014000Y-36322000D02*
X112241000Y-36322000D01*
X107648999Y-40687001D02*
X112014000Y-36322000D01*
X77676999Y-40687001D02*
X107648999Y-40687001D01*
X74549000Y-43815000D02*
X77676999Y-40687001D01*
X112241000Y-46482000D02*
X86841000Y-71882000D01*
X74549000Y-46150000D02*
X74549000Y-43815000D01*
X112241000Y-36322000D02*
X112241000Y-46482000D01*
%TO.N,KEY_COL0*%
X73633000Y-147855000D02*
X73633000Y-148082000D01*
X68725250Y-122790750D02*
X73633000Y-127698500D01*
X66363050Y-97720950D02*
X68591100Y-99949000D01*
X61581500Y-72022500D02*
X66203500Y-76644500D01*
X61441000Y-36322000D02*
X61441000Y-71882000D01*
X73633000Y-148082000D02*
X73633000Y-163830000D01*
X73633000Y-163830000D02*
X63981000Y-173482000D01*
X68591100Y-122656600D02*
X68725250Y-122790750D01*
X73633000Y-127698500D02*
X73633000Y-147855000D01*
X66203500Y-97561400D02*
X66363050Y-97720950D01*
X68591100Y-99949000D02*
X68591100Y-122656600D01*
X61441000Y-71882000D02*
X61581500Y-72022500D01*
X66203500Y-76644500D02*
X66203500Y-97561400D01*
X75819000Y-46150000D02*
X75819000Y-44323000D01*
%TO.N,KEY_COL7*%
X279881000Y-36349000D02*
X259334000Y-56896000D01*
X257161500Y-122822500D02*
X269721000Y-135382000D01*
X249541500Y-97422500D02*
X257021000Y-104902000D01*
X239381500Y-72022500D02*
X249401000Y-82042000D01*
X279881000Y-36322000D02*
X279881000Y-36349000D01*
X257021000Y-122682000D02*
X257161500Y-122822500D01*
X269721000Y-135382000D02*
X269721000Y-148590000D01*
X249401000Y-97282000D02*
X249541500Y-97422500D01*
X257021000Y-104902000D02*
X257021000Y-122682000D01*
X239241000Y-71882000D02*
X239381500Y-72022500D01*
X249401000Y-82042000D02*
X249401000Y-97282000D01*
X259334000Y-56896000D02*
X254227000Y-56896000D01*
X254227000Y-56896000D02*
X239241000Y-71882000D01*
X432134029Y-62535199D02*
X432134029Y-41990029D01*
X428502228Y-66167000D02*
X432134029Y-62535199D01*
X425274000Y-66167000D02*
X428502228Y-66167000D01*
X423672000Y-33528000D02*
X423547232Y-33528000D01*
X432134029Y-41990029D02*
X423672000Y-33528000D01*
%TO.N,KEY_COL8*%
X281405000Y-55118000D02*
X264781500Y-71741500D01*
X286485000Y-55118000D02*
X281405000Y-55118000D01*
X274801000Y-82042000D02*
X274801000Y-97282000D01*
X264641000Y-71882000D02*
X274801000Y-82042000D01*
X282421000Y-104902000D02*
X282421000Y-122682000D01*
X274801000Y-97282000D02*
X274941500Y-97422500D01*
X294316001Y-147785001D02*
X295121000Y-148590000D01*
X294316001Y-134577001D02*
X294316001Y-147785001D01*
X282421000Y-122682000D02*
X282561500Y-122822500D01*
X309853000Y-163322000D02*
X309853000Y-173482000D01*
X295121000Y-148590000D02*
X295261500Y-148730500D01*
X305281000Y-36322000D02*
X286485000Y-55118000D01*
X264781500Y-71741500D02*
X264641000Y-71882000D01*
X274941500Y-97422500D02*
X282421000Y-104902000D01*
X282561500Y-122822500D02*
X294316001Y-134577001D01*
X295261500Y-148730500D02*
X309853000Y-163322000D01*
X416089821Y-26706999D02*
X314896001Y-26706999D01*
X431684020Y-62348800D02*
X431684019Y-42301197D01*
X431684019Y-42301197D02*
X416089821Y-26706999D01*
X429135820Y-64897000D02*
X431684020Y-62348800D01*
X314896001Y-26706999D02*
X305281000Y-36322000D01*
X425274000Y-64897000D02*
X429135820Y-64897000D01*
%TO.N,KEY_COL9*%
X327125000Y-55118000D02*
X296164000Y-55118000D01*
X290041000Y-61241000D02*
X290041000Y-71882000D01*
X296164000Y-55118000D02*
X290041000Y-61241000D01*
X300201000Y-82042000D02*
X300201000Y-97282000D01*
X290041000Y-71882000D02*
X290181500Y-72022500D01*
X307821000Y-104902000D02*
X307821000Y-122682000D01*
X300201000Y-97282000D02*
X300341500Y-97422500D01*
X320521000Y-135382000D02*
X320521000Y-148590000D01*
X307821000Y-122682000D02*
X307961500Y-122822500D01*
X345921000Y-36322000D02*
X327125000Y-55118000D01*
X290181500Y-72022500D02*
X300201000Y-82042000D01*
X300341500Y-97422500D02*
X307821000Y-104902000D01*
X307961500Y-122822500D02*
X320521000Y-135382000D01*
X320521000Y-148590000D02*
X322046000Y-148590000D01*
X322046000Y-148590000D02*
X343381000Y-169925000D01*
X343381000Y-169925000D02*
X343381000Y-173482000D01*
X353682011Y-28560989D02*
X345921000Y-36322000D01*
X431234010Y-42487598D02*
X417307401Y-28560989D01*
X431234010Y-62162400D02*
X431234010Y-42487598D01*
X417307401Y-28560989D02*
X353682011Y-28560989D01*
X429769410Y-63627000D02*
X431234010Y-62162400D01*
X425274000Y-63627000D02*
X429769410Y-63627000D01*
%TO.N,KEY_COL10*%
X371094000Y-36322000D02*
X350520000Y-56896000D01*
X345921000Y-148590000D02*
X355344002Y-148590000D01*
X355344002Y-148590000D02*
X377925000Y-171170998D01*
X377925000Y-171170998D02*
X377925000Y-173482000D01*
X333361500Y-122822500D02*
X345921000Y-135382000D01*
X325741500Y-97422500D02*
X332416001Y-104097001D01*
X315581500Y-72022500D02*
X325601000Y-82042000D01*
X371321000Y-36322000D02*
X371094000Y-36322000D01*
X333221000Y-122682000D02*
X333361500Y-122822500D01*
X345921000Y-135382000D02*
X345921000Y-148590000D01*
X325601000Y-97282000D02*
X325741500Y-97422500D01*
X332416001Y-104097001D02*
X332416001Y-121877001D01*
X332416001Y-121877001D02*
X333221000Y-122682000D01*
X315441000Y-71882000D02*
X315581500Y-72022500D01*
X325601000Y-82042000D02*
X325601000Y-97282000D01*
X327914000Y-56896000D02*
X315441000Y-69369000D01*
X315441000Y-69369000D02*
X315441000Y-71882000D01*
X350520000Y-56896000D02*
X327914000Y-56896000D01*
X426299000Y-62357000D02*
X426934000Y-62992000D01*
X425274000Y-62357000D02*
X426299000Y-62357000D01*
X426934000Y-62992000D02*
X429768000Y-62992000D01*
X429768000Y-62992000D02*
X430784000Y-61976000D01*
X378632001Y-29010999D02*
X371321000Y-36322000D01*
X417121001Y-29010999D02*
X378632001Y-29010999D01*
X430784000Y-42673998D02*
X417121001Y-29010999D01*
X430784000Y-61976000D02*
X430784000Y-42673998D01*
%TO.N,KEY_COL11*%
X350196001Y-96477001D02*
X351001000Y-97282000D01*
X394689000Y-148363000D02*
X394689000Y-148590000D01*
X358621000Y-122455000D02*
X358621000Y-122682000D01*
X351141500Y-97422500D02*
X358621000Y-104902000D01*
X340981500Y-72022500D02*
X350196001Y-81237001D01*
X396721000Y-36322000D02*
X396721000Y-37873000D01*
X376936000Y-57658000D02*
X355065000Y-57658000D01*
X355065000Y-57658000D02*
X340841000Y-71882000D01*
X396721000Y-37873000D02*
X376936000Y-57658000D01*
X394689000Y-148590000D02*
X408405000Y-162306000D01*
X408405000Y-162306000D02*
X408405000Y-173482000D01*
X358621000Y-122682000D02*
X371092002Y-122682000D01*
X371092002Y-122682000D02*
X394689000Y-146278998D01*
X394689000Y-146278998D02*
X394689000Y-148363000D01*
X351001000Y-97282000D02*
X351141500Y-97422500D01*
X358621000Y-104902000D02*
X358621000Y-122455000D01*
X340841000Y-71882000D02*
X340981500Y-72022500D01*
X350196001Y-81237001D02*
X350196001Y-96477001D01*
X398357001Y-34685999D02*
X396721000Y-36322000D01*
X406752001Y-34685999D02*
X398357001Y-34685999D01*
X413372001Y-37036999D02*
X409103001Y-37036999D01*
X414482003Y-38147001D02*
X413372001Y-37036999D01*
X420671001Y-37198001D02*
X419722001Y-38147001D01*
X420671001Y-35560000D02*
X420671001Y-37198001D01*
X422432002Y-35560000D02*
X420671001Y-35560000D01*
X430276000Y-43403998D02*
X422432002Y-35560000D01*
X419722001Y-38147001D02*
X414482003Y-38147001D01*
X430276000Y-57110000D02*
X430276000Y-43403998D01*
X426299000Y-61087000D02*
X430276000Y-57110000D01*
X409103001Y-37036999D02*
X406752001Y-34685999D01*
X425274000Y-61087000D02*
X426299000Y-61087000D01*
%TO.N,KEY_COL12*%
X422121000Y-40667000D02*
X401828000Y-60960000D01*
X376401000Y-97055000D02*
X376401000Y-97282000D01*
X366381500Y-72022500D02*
X376401000Y-82042000D01*
X422121000Y-36322000D02*
X422121000Y-40667000D01*
X366241000Y-71882000D02*
X366381500Y-72022500D01*
X376401000Y-82042000D02*
X376401000Y-97055000D01*
X376401000Y-97282000D02*
X399261000Y-120142000D01*
X399261000Y-120142000D02*
X399261000Y-122682000D01*
X401828000Y-60960000D02*
X377163000Y-60960000D01*
X377163000Y-60960000D02*
X366241000Y-71882000D01*
X426299000Y-59817000D02*
X429768000Y-56348000D01*
X425274000Y-59817000D02*
X426299000Y-59817000D01*
X429768000Y-43969000D02*
X422121000Y-36322000D01*
X429768000Y-56348000D02*
X429768000Y-43969000D01*
%TO.N,KEY_COL13*%
X401293000Y-71882000D02*
X406373000Y-76962000D01*
X406373000Y-76962000D02*
X406373000Y-97282000D01*
X426299000Y-58547000D02*
X429317990Y-55528010D01*
X425274000Y-58547000D02*
X426299000Y-58547000D01*
X429317990Y-55528010D02*
X429317990Y-44253990D01*
X429317990Y-44253990D02*
X427228000Y-42164000D01*
X401293000Y-64993998D02*
X401293000Y-71882000D01*
X424122998Y-42164000D02*
X401293000Y-64993998D01*
X427228000Y-42164000D02*
X424122998Y-42164000D01*
%TO.N,KEY_COL19*%
X585189000Y-69113002D02*
X585189000Y-71655000D01*
X610589000Y-108432998D02*
X610589000Y-110744000D01*
X599438002Y-97282000D02*
X610589000Y-108432998D01*
X585189000Y-97282000D02*
X599438002Y-97282000D01*
X610589000Y-158496000D02*
X610348500Y-158736500D01*
X610589000Y-110744000D02*
X610589000Y-158496000D01*
X610348500Y-158736500D02*
X610335000Y-158750000D01*
X585189000Y-71882000D02*
X585189000Y-97282000D01*
X585189000Y-36322000D02*
X585189000Y-69113002D01*
X585189000Y-71655000D02*
X585189000Y-71882000D01*
X414077991Y-62755991D02*
X414077991Y-54806009D01*
X414949000Y-63627000D02*
X414077991Y-62755991D01*
X415974000Y-63627000D02*
X414949000Y-63627000D01*
X414077991Y-54806009D02*
X415036000Y-53848000D01*
X415036000Y-53848000D02*
X415036000Y-53848000D01*
%TO.N,KEY_COL18*%
X559789000Y-69113002D02*
X559789000Y-71655000D01*
X559789000Y-36322000D02*
X559789000Y-69113002D01*
X559789000Y-71655000D02*
X559789000Y-71882000D01*
X559789000Y-97055000D02*
X559789000Y-97282000D01*
X585189000Y-123471000D02*
X585189000Y-148590000D01*
X585189000Y-123190000D02*
X585189000Y-123471000D01*
X559789000Y-100811000D02*
X565121002Y-100811000D01*
X565121002Y-100811000D02*
X585189000Y-120878998D01*
X585189000Y-120878998D02*
X585189000Y-123190000D01*
X559789000Y-97282000D02*
X559789000Y-100811000D01*
X559789000Y-71882000D02*
X559789000Y-97055000D01*
X585189000Y-148590000D02*
X585189000Y-173482000D01*
X414949000Y-62357000D02*
X414528000Y-61936000D01*
X415974000Y-62357000D02*
X414949000Y-62357000D01*
X414528000Y-61936000D02*
X414528000Y-56388000D01*
X414528000Y-56388000D02*
X414528000Y-55880000D01*
X414528000Y-55880000D02*
X415036000Y-55372000D01*
X415036000Y-55372000D02*
X415036000Y-55372000D01*
%TO.N,KEY_COL17*%
X534389000Y-69113002D02*
X534389000Y-71655000D01*
X559789000Y-120878998D02*
X559789000Y-123190000D01*
X536192002Y-97282000D02*
X559789000Y-120878998D01*
X559789000Y-123190000D02*
X559789000Y-123471000D01*
X559789000Y-160528000D02*
X546848500Y-173468500D01*
X559789000Y-148590000D02*
X559789000Y-160528000D01*
X534389000Y-97282000D02*
X536192002Y-97282000D01*
X559789000Y-148363000D02*
X559789000Y-148590000D01*
X546848500Y-173468500D02*
X546835000Y-173482000D01*
X534389000Y-71655000D02*
X534389000Y-71882000D01*
X534389000Y-36322000D02*
X534389000Y-69113002D01*
X534389000Y-71882000D02*
X534389000Y-97282000D01*
X415974000Y-61087000D02*
X417449000Y-61087000D01*
X417449000Y-61087000D02*
X417449000Y-61087000D01*
X559789000Y-123471000D02*
X559789000Y-148363000D01*
%TO.N,KEY_COL16*%
X503401000Y-71882000D02*
X503401000Y-97282000D01*
X503401000Y-36322000D02*
X503401000Y-71655000D01*
X503401000Y-71655000D02*
X503401000Y-71882000D01*
X534643000Y-148590000D02*
X509751000Y-173482000D01*
X509751000Y-173482000D02*
X503401000Y-173482000D01*
X534389000Y-123190000D02*
X534389000Y-123471000D01*
X534389000Y-148336000D02*
X534643000Y-148590000D01*
X503401000Y-97282000D02*
X510792002Y-97282000D01*
X534389000Y-120878998D02*
X534389000Y-123190000D01*
X510792002Y-97282000D02*
X534389000Y-120878998D01*
X415974000Y-59817000D02*
X417449000Y-59817000D01*
X417449000Y-59817000D02*
X417449000Y-59817000D01*
X534389000Y-123471000D02*
X534389000Y-148336000D01*
%TO.N,KEY_COL15*%
X478001000Y-36322000D02*
X478001000Y-71655000D01*
X503428000Y-143256000D02*
X498094000Y-148590000D01*
X503428000Y-119888000D02*
X503428000Y-143256000D01*
X498094000Y-148590000D02*
X478001000Y-148590000D01*
X480822000Y-97282000D02*
X503428000Y-119888000D01*
X478001000Y-97282000D02*
X480822000Y-97282000D01*
X478001000Y-148590000D02*
X478001000Y-173482000D01*
X478001000Y-71655000D02*
X478001000Y-97282000D01*
X415974000Y-58547000D02*
X417449000Y-58547000D01*
X417449000Y-58547000D02*
X417449000Y-58547000D01*
%TO.N,KEY_COL14*%
X452601000Y-61250002D02*
X452601000Y-71655000D01*
X453109000Y-60742002D02*
X452601000Y-61250002D01*
X452601000Y-71882000D02*
X452601000Y-97282000D01*
X452601000Y-169606002D02*
X452601000Y-173482000D01*
X470916000Y-149353998D02*
X470916000Y-151291002D01*
X496824000Y-143764000D02*
X476505998Y-143764000D01*
X470916000Y-151291002D02*
X452601000Y-169606002D01*
X498856000Y-141732000D02*
X496824000Y-143764000D01*
X498856000Y-120904000D02*
X498856000Y-141732000D01*
X482600000Y-104648000D02*
X498856000Y-120904000D01*
X476505998Y-143764000D02*
X470916000Y-149353998D01*
X463804000Y-104648000D02*
X482600000Y-104648000D01*
X456438000Y-97282000D02*
X463804000Y-104648000D01*
X452601000Y-97282000D02*
X456438000Y-97282000D01*
X452601000Y-71655000D02*
X452601000Y-71655000D01*
X453109000Y-36322000D02*
X453109000Y-60742002D01*
X415974000Y-57277000D02*
X417449000Y-57277000D01*
X417449000Y-57277000D02*
X417449000Y-57277000D01*
X452601000Y-71655000D02*
X452601000Y-71882000D01*
%TO.N,Net-(D2\u002C3-Pad2)*%
X113468000Y-125222000D02*
X113284000Y-125406000D01*
X117094000Y-125222000D02*
X113468000Y-125222000D01*
%TO.N,Net-(D2\u002C4-Pad2)*%
X126910000Y-151130000D02*
X125984000Y-150204000D01*
X129794000Y-151130000D02*
X126910000Y-151130000D01*
%TO.N,Net-(D2\u002C5-Pad2)*%
X108114000Y-176022000D02*
X107696000Y-175604000D01*
X112014000Y-176022000D02*
X108114000Y-176022000D01*
%TO.N,Net-(D2\u002C2-Pad2)*%
X106590000Y-99822000D02*
X106426000Y-99658000D01*
X109982000Y-99822000D02*
X106590000Y-99822000D01*
%TO.N,Net-(D3\u002C5-Pad2)*%
X208878000Y-176022000D02*
X206756000Y-178144000D01*
X210058000Y-176022000D02*
X208878000Y-176022000D01*
%TO.N,Net-(D3\u002C2-Pad2)*%
X131154000Y-99822000D02*
X131064000Y-99912000D01*
X134874000Y-99822000D02*
X131154000Y-99822000D01*
%TO.N,Net-(D3\u002C4-Pad2)*%
X151802000Y-151130000D02*
X151384000Y-150712000D01*
X155194000Y-151130000D02*
X151802000Y-151130000D01*
%TO.N,Net-(D3\u002C3-Pad2)*%
X139610000Y-125222000D02*
X139192000Y-124804000D01*
X142494000Y-125222000D02*
X139610000Y-125222000D01*
%TO.N,Net-(D4\u002C1-Pad2)*%
X146976000Y-74168000D02*
X146812000Y-74004000D01*
X150368000Y-74168000D02*
X146976000Y-74168000D01*
%TO.N,Net-(D4\u002C4-Pad2)*%
X177839000Y-151130000D02*
X177292000Y-151677000D01*
X180594000Y-151130000D02*
X177839000Y-151130000D01*
%TO.N,Net-(D4\u002C2-Pad2)*%
X156882000Y-99822000D02*
X156464000Y-99404000D01*
X160274000Y-99822000D02*
X156882000Y-99822000D01*
%TO.N,Net-(D4\u002C3-Pad2)*%
X164502000Y-125222000D02*
X164084000Y-124804000D01*
X167894000Y-125222000D02*
X164502000Y-125222000D01*
%TO.N,Net-(D5\u002C3-Pad2)*%
X189574000Y-125222000D02*
X189484000Y-125312000D01*
X193294000Y-125222000D02*
X189574000Y-125222000D01*
%TO.N,Net-(D5\u002C4-Pad2)*%
X202274000Y-151130000D02*
X202184000Y-151220000D01*
X205994000Y-151130000D02*
X202274000Y-151130000D01*
%TO.N,Net-(D6\u002C3-Pad2)*%
X214083000Y-125222000D02*
X213360000Y-124499000D01*
X218694000Y-125222000D02*
X214083000Y-125222000D01*
%TO.N,Net-(D6\u002C4-Pad2)*%
X228002000Y-151130000D02*
X227584000Y-150712000D01*
X231394000Y-151130000D02*
X228002000Y-151130000D01*
%TO.N,Net-(D7\u002C4-Pad2)*%
X256794000Y-151130000D02*
X252222000Y-151130000D01*
%TO.N,Net-(D7\u002C3-Pad2)*%
X240702000Y-125222000D02*
X240284000Y-124804000D01*
X244094000Y-125222000D02*
X240702000Y-125222000D01*
%TO.N,Net-(D8\u002C2-Pad2)*%
X258572000Y-99912000D02*
X261964000Y-99912000D01*
%TO.N,Net-(D8\u002C1-Pad2)*%
X248502000Y-74422000D02*
X248412000Y-74512000D01*
X251714000Y-74422000D02*
X248502000Y-74422000D01*
%TO.N,Net-(D8\u002C3-Pad2)*%
X266610000Y-125222000D02*
X266192000Y-124804000D01*
X269494000Y-125222000D02*
X266610000Y-125222000D01*
%TO.N,Net-(D8\u002C4-Pad2)*%
X279310000Y-151130000D02*
X278892000Y-150712000D01*
X282194000Y-151130000D02*
X279310000Y-151130000D01*
%TO.N,Net-(D8\u002C5-Pad2)*%
X294042000Y-176022000D02*
X293624000Y-175604000D01*
X296926000Y-176022000D02*
X294042000Y-176022000D01*
%TO.N,Net-(D9\u002C1-Pad2)*%
X273902000Y-74422000D02*
X273812000Y-74512000D01*
X277114000Y-74422000D02*
X273902000Y-74422000D01*
%TO.N,Net-(D9\u002C3-Pad2)*%
X292010000Y-125222000D02*
X291592000Y-124804000D01*
X294894000Y-125222000D02*
X292010000Y-125222000D01*
%TO.N,Net-(D9\u002C4-Pad2)*%
X304382000Y-151130000D02*
X304292000Y-151220000D01*
X307594000Y-151130000D02*
X304382000Y-151130000D01*
%TO.N,Net-(D9\u002C5-Pad2)*%
X327242000Y-176022000D02*
X327152000Y-176112000D01*
X330454000Y-176022000D02*
X327242000Y-176022000D01*
%TO.N,Net-(D9\u002C2-Pad2)*%
X283882000Y-99822000D02*
X283464000Y-99404000D01*
X287274000Y-99822000D02*
X283882000Y-99822000D01*
%TO.N,Net-(D10\u002C0-Pad2)*%
X354928000Y-38862000D02*
X354584000Y-39206000D01*
X358394000Y-38862000D02*
X354928000Y-38862000D01*
%TO.N,Net-(D10\u002C1-Pad2)*%
X299122000Y-74422000D02*
X298704000Y-74004000D01*
X302514000Y-74422000D02*
X299122000Y-74422000D01*
%TO.N,Net-(D10\u002C4-Pad2)*%
X329782000Y-151130000D02*
X329692000Y-151220000D01*
X332994000Y-151130000D02*
X329782000Y-151130000D01*
%TO.N,Net-(D10\u002C5-Pad2)*%
X361606000Y-176022000D02*
X361188000Y-175604000D01*
X364998000Y-176022000D02*
X361606000Y-176022000D01*
%TO.N,Net-(D10\u002C2-Pad2)*%
X308954000Y-99822000D02*
X308864000Y-99912000D01*
X312674000Y-99822000D02*
X308954000Y-99822000D01*
%TO.N,Net-(D11\u002C3-Pad2)*%
X345694000Y-125222000D02*
X341630000Y-125222000D01*
%TO.N,Net-(D11\u002C0-Pad2)*%
X380582000Y-38862000D02*
X380492000Y-38952000D01*
X383794000Y-38862000D02*
X380582000Y-38862000D01*
%TO.N,Net-(D11\u002C1-Pad2)*%
X324522000Y-74422000D02*
X324104000Y-74004000D01*
X327914000Y-74422000D02*
X324522000Y-74422000D01*
%TO.N,Net-(D11\u002C2-Pad2)*%
X335698000Y-99822000D02*
X334772000Y-98896000D01*
X338074000Y-99822000D02*
X335698000Y-99822000D01*
%TO.N,Net-(D11\u002C4-Pad2)*%
X378042000Y-151130000D02*
X377952000Y-151220000D01*
X381762000Y-151130000D02*
X378042000Y-151130000D01*
%TO.N,Net-(D11\u002C5-Pad2)*%
X392086000Y-176022000D02*
X391668000Y-175604000D01*
X395478000Y-176022000D02*
X392086000Y-176022000D01*
%TO.N,Net-(D12\u002C3-Pad2)*%
X383450000Y-125222000D02*
X382524000Y-124296000D01*
X386334000Y-125222000D02*
X383450000Y-125222000D01*
%TO.N,Net-(D12\u002C0-Pad2)*%
X406818000Y-38862000D02*
X405892000Y-37936000D01*
X409194000Y-38862000D02*
X406818000Y-38862000D01*
%TO.N,Net-(D12\u002C1-Pad2)*%
X350102000Y-74422000D02*
X350012000Y-74512000D01*
X353314000Y-74422000D02*
X350102000Y-74422000D01*
%TO.N,Net-(D12\u002C2-Pad2)*%
X360590000Y-99822000D02*
X360172000Y-99404000D01*
X363474000Y-99822000D02*
X360590000Y-99822000D01*
%TO.N,Net-(D13\u002C2-Pad2)*%
X393446000Y-99822000D02*
X390398000Y-99822000D01*
%TO.N,Net-(D13\u002C1-Pad2)*%
X385431000Y-74422000D02*
X385064000Y-74055000D01*
X388366000Y-74422000D02*
X385431000Y-74422000D01*
%TO.N,Net-(D14\u002C1-Pad2)*%
X436630000Y-74422000D02*
X435864000Y-73656000D01*
X439674000Y-74422000D02*
X436630000Y-74422000D01*
%TO.N,Net-(D14\u002C0-Pad2)*%
X435903000Y-39116000D02*
X436372000Y-38647000D01*
X436587000Y-38862000D02*
X436372000Y-38647000D01*
X440182000Y-38862000D02*
X436587000Y-38862000D01*
%TO.N,Net-(D14\u002C3-Pad2)*%
X436282000Y-99822000D02*
X435864000Y-99404000D01*
X439674000Y-99822000D02*
X436282000Y-99822000D01*
%TO.N,Net-(D15\u002C0-Pad2)*%
X461428000Y-38862000D02*
X461264000Y-38698000D01*
X465074000Y-38862000D02*
X461428000Y-38862000D01*
%TO.N,Net-(D15\u002C3-Pad2)*%
X461428000Y-99822000D02*
X461264000Y-99658000D01*
X465074000Y-99822000D02*
X461428000Y-99822000D01*
%TO.N,Net-(D15\u002C1-Pad2)*%
X461862000Y-74422000D02*
X461518000Y-74766000D01*
X465074000Y-74422000D02*
X461862000Y-74422000D01*
%TO.N,Net-(D15\u002C5-Pad2)*%
X462190000Y-151130000D02*
X461264000Y-150204000D01*
X465074000Y-151130000D02*
X462190000Y-151130000D01*
%TO.N,Net-(D15\u002C6-Pad2)*%
X462444000Y-176022000D02*
X461264000Y-174842000D01*
X465074000Y-176022000D02*
X462444000Y-176022000D01*
%TO.N,Net-(D16\u002C4-Pad2)*%
X518578000Y-125730000D02*
X518160000Y-125312000D01*
X521462000Y-125730000D02*
X518578000Y-125730000D01*
%TO.N,Net-(D16\u002C1-Pad2)*%
X486574000Y-74422000D02*
X486156000Y-74004000D01*
X490474000Y-74422000D02*
X486574000Y-74422000D01*
%TO.N,Net-(D16\u002C0-Pad2)*%
X487590000Y-38862000D02*
X486918000Y-38190000D01*
X490474000Y-38862000D02*
X487590000Y-38862000D01*
%TO.N,Net-(D16\u002C3-Pad2)*%
X486828000Y-99822000D02*
X486664000Y-99658000D01*
X490474000Y-99822000D02*
X486828000Y-99822000D01*
%TO.N,Net-(D16\u002C5-Pad2)*%
X518375000Y-151130000D02*
X518160000Y-150915000D01*
X521716000Y-151130000D02*
X518375000Y-151130000D01*
%TO.N,Net-(D16\u002C6-Pad2)*%
X487082000Y-176022000D02*
X486664000Y-175604000D01*
X490474000Y-176022000D02*
X487082000Y-176022000D01*
%TO.N,Net-(D17\u002C0-Pad2)*%
X521462000Y-38862000D02*
X517906000Y-38862000D01*
%TO.N,Net-(D17\u002C3-Pad2)*%
X518578000Y-99822000D02*
X518160000Y-99404000D01*
X521462000Y-99822000D02*
X518578000Y-99822000D01*
%TO.N,Net-(D17\u002C1-Pad2)*%
X518527000Y-74422000D02*
X518160000Y-74055000D01*
X521462000Y-74422000D02*
X518527000Y-74422000D01*
%TO.N,Net-(D17\u002C4-Pad2)*%
X543978000Y-125730000D02*
X543560000Y-125312000D01*
X546862000Y-125730000D02*
X543978000Y-125730000D01*
%TO.N,Net-(D17\u002C5-Pad2)*%
X543470000Y-151130000D02*
X543052000Y-150712000D01*
X546862000Y-151130000D02*
X543470000Y-151130000D01*
%TO.N,Net-(D17\u002C6-Pad2)*%
X530442000Y-176022000D02*
X530352000Y-176112000D01*
X533908000Y-176022000D02*
X530442000Y-176022000D01*
%TO.N,Net-(D18\u002C0-Pad2)*%
X543470000Y-38862000D02*
X543052000Y-38444000D01*
X546862000Y-38862000D02*
X543470000Y-38862000D01*
%TO.N,Net-(D18\u002C6-Pad2)*%
X569886000Y-176022000D02*
X568960000Y-175096000D01*
X572262000Y-176022000D02*
X569886000Y-176022000D01*
%TO.N,Net-(D18\u002C4-Pad2)*%
X569378000Y-125730000D02*
X568960000Y-125312000D01*
X572262000Y-125730000D02*
X569378000Y-125730000D01*
%TO.N,Net-(D18\u002C5-Pad2)*%
X568870000Y-151130000D02*
X568452000Y-150712000D01*
X572262000Y-151130000D02*
X568870000Y-151130000D01*
%TO.N,Net-(D18\u002C1-Pad2)*%
X543142000Y-74422000D02*
X543052000Y-74512000D01*
X546862000Y-74422000D02*
X543142000Y-74422000D01*
%TO.N,Net-(D18\u002C3-Pad2)*%
X543470000Y-99822000D02*
X543052000Y-99404000D01*
X546862000Y-99822000D02*
X543470000Y-99822000D01*
%TO.N,Net-(D19\u002C6-Pad2)*%
X594524000Y-161290000D02*
X593852000Y-160618000D01*
X597408000Y-161290000D02*
X594524000Y-161290000D01*
%TO.N,Net-(D19\u002C0-Pad2)*%
X568870000Y-38862000D02*
X568452000Y-38444000D01*
X572262000Y-38862000D02*
X568870000Y-38862000D01*
%TO.N,Net-(D19\u002C4-Pad2)*%
X594524000Y-113284000D02*
X594360000Y-113120000D01*
X597662000Y-113284000D02*
X594524000Y-113284000D01*
%TO.N,Net-(D19\u002C3-Pad2)*%
X569378000Y-99822000D02*
X568960000Y-99404000D01*
X572262000Y-99822000D02*
X569378000Y-99822000D01*
%TO.N,Net-(D19\u002C1-Pad2)*%
X569378000Y-74422000D02*
X568960000Y-74004000D01*
X572262000Y-74422000D02*
X569378000Y-74422000D01*
%TO.N,Net-(D20\u002C0-Pad2)*%
X593942000Y-38862000D02*
X593852000Y-38952000D01*
X597662000Y-38862000D02*
X593942000Y-38862000D01*
%TO.N,Net-(D20\u002C1-Pad2)*%
X592746000Y-74422000D02*
X592328000Y-74004000D01*
X597662000Y-74422000D02*
X592746000Y-74422000D01*
%TO.N,LED_SCL_ROW1*%
X31418000Y-56515000D02*
X32131000Y-56515000D01*
X32131000Y-56515000D02*
X40132000Y-64516000D01*
X40132000Y-64516000D02*
X50292000Y-64516000D01*
%TO.N,LED_SDA_ROW1*%
X32443000Y-55245000D02*
X40698000Y-63500000D01*
X31418000Y-55245000D02*
X32443000Y-55245000D01*
X40698000Y-63500000D02*
X47752000Y-63500000D01*
%TO.N,LED_SDA_ROW5*%
X40718000Y-59055000D02*
X38735000Y-59055000D01*
%TO.N,LED_SCL_ROW5*%
X40718000Y-57785000D02*
X38735000Y-57785000D01*
%TO.N,LED_SCL_ROW3*%
X31418000Y-61595000D02*
X40435000Y-70612000D01*
X40435000Y-70612000D02*
X40435000Y-98347000D01*
X40435000Y-98347000D02*
X57404000Y-115316000D01*
%TO.N,LED_SDA_ROW3*%
X31844768Y-60325000D02*
X41656000Y-70136232D01*
X31418000Y-60325000D02*
X31844768Y-60325000D01*
X41656000Y-70136232D02*
X41656000Y-97536000D01*
X41656000Y-97536000D02*
X55880000Y-111760000D01*
%TO.N,LED_SDA_ROW4*%
X40718000Y-61595000D02*
X42545000Y-61595000D01*
X63831101Y-119000599D02*
X63831101Y-121440597D01*
X61103499Y-116272997D02*
X63831101Y-119000599D01*
X63831101Y-121440597D02*
X62484000Y-122787698D01*
X61443501Y-81348499D02*
X61443501Y-96345397D01*
X52030999Y-71935997D02*
X61443501Y-81348499D01*
X61103499Y-96685399D02*
X61103499Y-116272997D01*
X52030999Y-65181997D02*
X52030999Y-71935997D01*
X48444002Y-61595000D02*
X52030999Y-65181997D01*
X61443501Y-96345397D02*
X61103499Y-96685399D01*
X42545000Y-61595000D02*
X48444002Y-61595000D01*
X62484000Y-122787698D02*
X62484000Y-142240000D01*
X62484000Y-142240000D02*
X62484000Y-142240000D01*
%TO.N,LED_SCL_ROW4*%
X40718000Y-60325000D02*
X42545000Y-60325000D01*
X47810412Y-60325000D02*
X42545000Y-60325000D01*
X51202413Y-63717001D02*
X47810412Y-60325000D01*
X52033001Y-63717001D02*
X51202413Y-63717001D01*
X56681001Y-70458001D02*
X56681001Y-68365001D01*
X56203501Y-72620503D02*
X56203501Y-70935501D01*
X56681001Y-68365001D02*
X52033001Y-63717001D01*
X65532000Y-81949002D02*
X56203501Y-72620503D01*
X65532000Y-117286498D02*
X65532000Y-81949002D01*
X56203501Y-70935501D02*
X56681001Y-70458001D01*
X67786101Y-119540599D02*
X65532000Y-117286498D01*
X67786101Y-138461899D02*
X67786101Y-119540599D01*
X65532000Y-140716000D02*
X67786101Y-138461899D01*
%TO.N,LED_SCL_ROW2*%
X42620989Y-69232989D02*
X42620989Y-80720989D01*
X32443000Y-59055000D02*
X42620989Y-69232989D01*
X31418000Y-59055000D02*
X32443000Y-59055000D01*
X42620989Y-80720989D02*
X42620989Y-81736989D01*
X42620989Y-81736989D02*
X50800000Y-89916000D01*
%TO.N,LED_SDA_ROW2*%
X43070999Y-68412999D02*
X43070999Y-80154999D01*
X32443000Y-57785000D02*
X43070999Y-68412999D01*
X31418000Y-57785000D02*
X32443000Y-57785000D01*
X43070999Y-80154999D02*
X54356000Y-91440000D01*
%TO.N,LED_SCL_ROW0*%
X31418000Y-53975000D02*
X30393000Y-53975000D01*
X33401000Y-53975000D02*
X33528000Y-53848000D01*
X31418000Y-53975000D02*
X33401000Y-53975000D01*
%TO.N,LED_SDA_ROW0*%
X33458002Y-52705000D02*
X31418000Y-52705000D01*
X35617002Y-54864000D02*
X33458002Y-52705000D01*
X36068000Y-54864000D02*
X35617002Y-54864000D01*
%TO.N,LED_SDA_ROW6*%
X40718000Y-56515000D02*
X38735000Y-56515000D01*
%TO.N,LED_SCL_ROW6*%
X40718000Y-55245000D02*
X38735000Y-55245000D01*
%TO.N,MAIN_VBUS*%
X467868000Y-131508000D02*
X470408000Y-134048000D01*
X470408000Y-134048000D02*
X470408000Y-135636000D01*
X447998232Y-109728000D02*
X452120000Y-109728000D01*
X443366990Y-116382778D02*
X443366990Y-114359242D01*
X437293999Y-118327001D02*
X441422767Y-118327001D01*
X443366990Y-114359242D02*
X447998232Y-109728000D01*
X441422767Y-118327001D02*
X443366990Y-116382778D01*
X436372000Y-117405002D02*
X437293999Y-118327001D01*
X436372000Y-115381000D02*
X436372000Y-117405002D01*
X469443010Y-112827010D02*
X465836000Y-109220000D01*
X467868000Y-131508000D02*
X469443010Y-129932990D01*
X451875999Y-97630001D02*
X451875999Y-88655999D01*
X463465998Y-109220000D02*
X451875999Y-97630001D01*
X465836000Y-109220000D02*
X463465998Y-109220000D01*
X451875999Y-88655999D02*
X450596000Y-87376000D01*
X450596000Y-87376000D02*
X450088000Y-87376000D01*
X77089000Y-57277000D02*
X77216000Y-57404000D01*
X77089000Y-55450000D02*
X77089000Y-57277000D01*
X79629000Y-46576768D02*
X79629000Y-46150000D01*
X77089000Y-49116768D02*
X79629000Y-46576768D01*
X77089000Y-55450000D02*
X77089000Y-49116768D01*
X451739000Y-112233000D02*
X450469000Y-112233000D01*
X451739000Y-110109000D02*
X452120000Y-109728000D01*
X451739000Y-112233000D02*
X451739000Y-110109000D01*
X414623990Y-68360242D02*
X415547232Y-67437000D01*
X414623990Y-74133758D02*
X414623990Y-68360242D01*
X417706232Y-77216000D02*
X414623990Y-74133758D01*
X415547232Y-67437000D02*
X415974000Y-67437000D01*
X419374000Y-77216000D02*
X419100000Y-77216000D01*
X424847232Y-69977000D02*
X425274000Y-69977000D01*
X422307232Y-67437000D02*
X424847232Y-69977000D01*
X415974000Y-67437000D02*
X422307232Y-67437000D01*
X469443010Y-125527010D02*
X469443010Y-112827010D01*
X469443010Y-129932990D02*
X469443010Y-125527010D01*
X37719000Y-51435000D02*
X40718000Y-51435000D01*
X36068000Y-49784000D02*
X37719000Y-51435000D01*
X35179000Y-48895000D02*
X36068000Y-49784000D01*
X31418000Y-48895000D02*
X35179000Y-48895000D01*
X419100000Y-77216000D02*
X417706232Y-77216000D01*
X41743000Y-51435000D02*
X40718000Y-51435000D01*
X42068010Y-51109990D02*
X41743000Y-51435000D01*
X41789758Y-49539990D02*
X42068010Y-49818242D01*
X39666222Y-49539990D02*
X41789758Y-49539990D01*
X37318000Y-47191768D02*
X39666222Y-49539990D01*
X42068010Y-49818242D02*
X42068010Y-51109990D01*
X37318000Y-42672000D02*
X37318000Y-47191768D01*
D22*
%TO.N,USB_DP*%
X463654198Y-113901802D02*
X465836000Y-111720000D01*
X456926001Y-120629999D02*
X463654198Y-113901802D01*
X456926001Y-137303001D02*
X456926001Y-120629999D01*
X456222001Y-138007001D02*
X456926001Y-137303001D01*
X455646000Y-138007001D02*
X456222001Y-138007001D01*
X455646000Y-138532000D02*
X455646000Y-138007001D01*
%TO.N,USB_DN*%
X457375992Y-120816405D02*
X463972397Y-114220000D01*
X457375992Y-138298730D02*
X457375992Y-120816405D01*
X456096000Y-139578722D02*
X457375992Y-138298730D01*
X456096000Y-140082000D02*
X456096000Y-139578722D01*
X455646000Y-140532000D02*
X456096000Y-140082000D01*
X463972397Y-114220000D02*
X465836000Y-114220000D01*
D21*
%TO.N,IO_INT0*%
X441452000Y-115381000D02*
X441452000Y-113284000D01*
X77192251Y-44349981D02*
X84264393Y-44349981D01*
X76463990Y-45078242D02*
X77192251Y-44349981D01*
X76463990Y-47221758D02*
X76463990Y-45078242D01*
X84264393Y-44349981D02*
X93472000Y-53557588D01*
X76742242Y-47500010D02*
X76463990Y-47221758D01*
X78033990Y-47500010D02*
X76742242Y-47500010D01*
X78359000Y-47175000D02*
X78033990Y-47500010D01*
X78359000Y-46150000D02*
X78359000Y-47175000D01*
X93472000Y-53557588D02*
X93472000Y-58928000D01*
%TO.N,IO_INT1*%
X440182000Y-115381000D02*
X440182000Y-113538000D01*
X77089000Y-45125000D02*
X77089000Y-46150000D01*
X77414010Y-44799990D02*
X77089000Y-45125000D01*
X84077992Y-44799990D02*
X77414010Y-44799990D01*
X91948000Y-52669998D02*
X84077992Y-44799990D01*
X91948000Y-58928000D02*
X91948000Y-52669998D01*
%TO.N,IO_INT2*%
X438912000Y-115381000D02*
X438912000Y-113284000D01*
X426299000Y-68707000D02*
X425274000Y-68707000D01*
X426624010Y-69032010D02*
X426299000Y-68707000D01*
X426624010Y-81883990D02*
X426624010Y-69032010D01*
X422656000Y-85852000D02*
X426624010Y-81883990D01*
%TO.N,IO_INT3*%
X437642000Y-115381000D02*
X437642000Y-113538000D01*
X437642000Y-113538000D02*
X437388000Y-113284000D01*
X425700768Y-67437000D02*
X425274000Y-67437000D01*
X427074019Y-68810251D02*
X425700768Y-67437000D01*
X427074019Y-83465981D02*
X427074019Y-68810251D01*
X424688000Y-85852000D02*
X427074019Y-83465981D01*
%TO.N,KEY_ROW5*%
X74639001Y-74073999D02*
X74639001Y-80857771D01*
X73279000Y-72713998D02*
X74639001Y-74073999D01*
X73279000Y-55450000D02*
X73279000Y-72713998D01*
X88285002Y-168312000D02*
X77724000Y-168312000D01*
X105119001Y-151478001D02*
X88285002Y-168312000D01*
X103955999Y-143590997D02*
X103955999Y-149618997D01*
X93170999Y-132805997D02*
X103955999Y-143590997D01*
X103955999Y-149618997D02*
X105119001Y-150781999D01*
X93170999Y-124989587D02*
X93170999Y-132805997D01*
X89459011Y-121277599D02*
X93170999Y-124989587D01*
X89459011Y-99204009D02*
X89459011Y-121277599D01*
X87293179Y-97038177D02*
X89459011Y-99204009D01*
X105119001Y-150781999D02*
X105119001Y-151478001D01*
X87293179Y-93511949D02*
X87293179Y-97038177D01*
X74639001Y-80857771D02*
X87293179Y-93511949D01*
%TO.N,KEY_ROW4*%
X71136812Y-70554010D02*
X67370810Y-70554010D01*
X72309000Y-69381822D02*
X71136812Y-70554010D01*
X72309000Y-55750000D02*
X72309000Y-69381822D01*
X72009000Y-55450000D02*
X72309000Y-55750000D01*
X67056000Y-70868820D02*
X67056000Y-73911180D01*
X67370810Y-70554010D02*
X67056000Y-70868820D01*
X67056000Y-73911180D02*
X81788000Y-88643180D01*
X85249011Y-99287599D02*
X85249010Y-100356402D01*
X81788000Y-95826588D02*
X85249011Y-99287599D01*
X81788000Y-88643180D02*
X81788000Y-95826588D01*
X85249010Y-100356402D02*
X84328000Y-101277412D01*
X84328000Y-101277412D02*
X84328000Y-112776000D01*
X89009001Y-121463999D02*
X92419001Y-124873999D01*
X92419001Y-125570001D02*
X89973002Y-128016000D01*
X89009001Y-116197999D02*
X89009001Y-121463999D01*
X92419001Y-124873999D02*
X92419001Y-125570001D01*
X88127002Y-115316000D02*
X89009001Y-116197999D01*
X86868000Y-115316000D02*
X88127002Y-115316000D01*
X84328000Y-112776000D02*
X86868000Y-115316000D01*
X89973002Y-132993002D02*
X101092000Y-144112000D01*
X89973002Y-128016000D02*
X89973002Y-132993002D01*
%TO.N,KEY_ROW3*%
X70950412Y-70104000D02*
X67184410Y-70104000D01*
X71679010Y-69375402D02*
X70950412Y-70104000D01*
X71679011Y-58048601D02*
X71679010Y-69375402D01*
X70739000Y-57108590D02*
X71679011Y-58048601D01*
X70739000Y-55450000D02*
X70739000Y-57108590D01*
X66548000Y-70740410D02*
X66548000Y-74039590D01*
X67184410Y-70104000D02*
X66548000Y-70740410D01*
X66548000Y-74039590D02*
X81280000Y-88771590D01*
X84799001Y-100170001D02*
X83877002Y-101092000D01*
X84799001Y-99473999D02*
X84799001Y-100170001D01*
X81280000Y-95954998D02*
X84799001Y-99473999D01*
X81280000Y-88771590D02*
X81280000Y-95954998D01*
X83877002Y-113251002D02*
X87884000Y-117258000D01*
X83877002Y-101092000D02*
X83877002Y-113251002D01*
%TO.N,KEY_ROW2*%
X79756000Y-87884000D02*
X79756000Y-91604000D01*
X66040000Y-70612000D02*
X66040000Y-74168000D01*
X67056000Y-69596000D02*
X66040000Y-70612000D01*
X70822002Y-69596000D02*
X67056000Y-69596000D01*
X66040000Y-74168000D02*
X79756000Y-87884000D01*
X71229001Y-58235001D02*
X71229001Y-69189001D01*
X71229001Y-69189001D02*
X70822002Y-69596000D01*
X69469000Y-56475000D02*
X71229001Y-58235001D01*
X69469000Y-55450000D02*
X69469000Y-56475000D01*
%TO.N,KEY_ROW1*%
X68199000Y-64299000D02*
X70104000Y-66204000D01*
X68199000Y-55450000D02*
X68199000Y-64299000D01*
%TO.N,KEY_ROW0*%
X47232001Y-31456999D02*
X45212000Y-33477000D01*
X58887001Y-31456999D02*
X47232001Y-31456999D01*
X62166001Y-34735999D02*
X58887001Y-31456999D01*
X62166001Y-50687001D02*
X62166001Y-34735999D01*
X66929000Y-55450000D02*
X62166001Y-50687001D01*
%TO.N,LED_SCL_ROW7*%
X40718000Y-52705000D02*
X38735000Y-52705000D01*
X38735000Y-52705000D02*
X34671000Y-52705000D01*
%TO.N,LED_SDA_ROW7*%
X40718000Y-53975000D02*
X38735000Y-53975000D01*
%TO.N,Net-(U0-Pad10)*%
X437642000Y-122739002D02*
X437642000Y-120331000D01*
X432916000Y-127465002D02*
X437642000Y-122739002D01*
X432916000Y-130642000D02*
X432916000Y-127465002D01*
%TO.N,Net-(U0-Pad9)*%
X438912000Y-120331000D02*
X438912000Y-122428000D01*
X435456000Y-125884000D02*
X435456000Y-130642000D01*
X438912000Y-122428000D02*
X435456000Y-125884000D01*
%TO.N,Net-(U0-Pad7)*%
X440182000Y-130288000D02*
X440536000Y-130642000D01*
X440182000Y-120331000D02*
X440182000Y-130288000D01*
%TO.N,Net-(U0-Pad6)*%
X443076000Y-122930000D02*
X443076000Y-130642000D01*
X441452000Y-121306000D02*
X443076000Y-122930000D01*
X441452000Y-120331000D02*
X441452000Y-121306000D01*
%TO.N,PICO_33_REF*%
X448156000Y-130642000D02*
X448156000Y-126084000D01*
X451739000Y-121285000D02*
X451739000Y-117383000D01*
X448156000Y-124868000D02*
X451739000Y-121285000D01*
X436372000Y-120331000D02*
X436372000Y-122936000D01*
X443992000Y-115381000D02*
X446851000Y-115381000D01*
X448156000Y-116686000D02*
X448156000Y-124868000D01*
X446851000Y-115381000D02*
X448156000Y-116686000D01*
X448156000Y-126084000D02*
X448156000Y-124868000D01*
%TO.N,PICO_SCL0*%
X453009000Y-130415000D02*
X453236000Y-130642000D01*
X453009000Y-117383000D02*
X453009000Y-130415000D01*
X453009000Y-117106232D02*
X453009000Y-117383000D01*
X455676000Y-114439232D02*
X453009000Y-117106232D01*
X455676000Y-112083232D02*
X455676000Y-114439232D01*
X445730778Y-102138010D02*
X455676000Y-112083232D01*
X423408010Y-102138010D02*
X445730778Y-102138010D01*
X422108000Y-100838000D02*
X423408010Y-102138010D01*
%TO.N,PICO_SDA0*%
X454279000Y-117383000D02*
X454279000Y-121031000D01*
X419608000Y-100838000D02*
X419608000Y-100892000D01*
X455776000Y-123544000D02*
X455776000Y-130642000D01*
X455776000Y-122528000D02*
X455776000Y-123544000D01*
X454279000Y-121031000D02*
X455776000Y-122528000D01*
X456126010Y-115535990D02*
X454279000Y-117383000D01*
X456126010Y-111896832D02*
X456126010Y-115535990D01*
X445917179Y-101688001D02*
X456126010Y-111896832D01*
X429744716Y-101688001D02*
X445917179Y-101688001D01*
X427594705Y-99537990D02*
X429744716Y-101688001D01*
X420908010Y-99537990D02*
X427594705Y-99537990D01*
X419608000Y-100838000D02*
X420908010Y-99537990D01*
%TO.N,Net-(D14\u002C6-Pad2)*%
X435774000Y-176022000D02*
X435102000Y-175350000D01*
X439674000Y-176022000D02*
X435774000Y-176022000D01*
%TO.N,KEY_COL20*%
X610589000Y-69113002D02*
X610589000Y-71882000D01*
X610589000Y-36322000D02*
X610589000Y-69113002D01*
X413627982Y-63575982D02*
X413627982Y-53732018D01*
X414949000Y-64897000D02*
X413627982Y-63575982D01*
X415974000Y-64897000D02*
X414949000Y-64897000D01*
X413627982Y-53732018D02*
X415036000Y-52324000D01*
X415036000Y-52324000D02*
X415036000Y-52324000D01*
%TD*%
M02*
