%TF.GenerationSoftware,KiCad,Pcbnew,(5.1.9)-1*%
%TF.CreationDate,2021-03-19T23:51:34+10:00*%
%TF.ProjectId,RedPyKeeb,52656450-794b-4656-9562-2e6b69636164,rev?*%
%TF.SameCoordinates,Original*%
%TF.FileFunction,Other,User*%
%FSLAX46Y46*%
G04 Gerber Fmt 4.6, Leading zero omitted, Abs format (unit mm)*
G04 Created by KiCad (PCBNEW (5.1.9)-1) date 2021-03-19 23:51:34*
%MOMM*%
%LPD*%
G01*
G04 APERTURE LIST*
%ADD10C,0.050000*%
G04 APERTURE END LIST*
D10*
%TO.C,K12\u002C3*%
X283707000Y-110183500D02*
X298207000Y-110183500D01*
X283707000Y-95683500D02*
X283707000Y-110183500D01*
X298207000Y-95683500D02*
X283707000Y-95683500D01*
X298207000Y-110183500D02*
X298207000Y-95683500D01*
%TO.C,LD0\u002C4*%
X43394500Y-115503500D02*
X44394500Y-115503500D01*
X45394500Y-115503500D02*
X46394500Y-115503500D01*
X46394500Y-118303500D02*
X45394500Y-118303500D01*
X44394500Y-118303500D02*
X43394500Y-118303500D01*
X44394500Y-118483500D02*
X44394500Y-118303500D01*
X45394500Y-118483500D02*
X44394500Y-118483500D01*
X45394500Y-118303500D02*
X45394500Y-118483500D01*
X44394500Y-115323500D02*
X44394500Y-115503500D01*
X45394500Y-115323500D02*
X44394500Y-115323500D01*
X45394500Y-115503500D02*
X45394500Y-115323500D01*
X46394500Y-118303500D02*
X46394500Y-115503500D01*
X43394500Y-118303500D02*
X43394500Y-115503500D01*
%TO.C,LD0\u002C0*%
X31583500Y-17713500D02*
X32583500Y-17713500D01*
X33583500Y-17713500D02*
X34583500Y-17713500D01*
X34583500Y-20513500D02*
X33583500Y-20513500D01*
X32583500Y-20513500D02*
X31583500Y-20513500D01*
X32583500Y-20693500D02*
X32583500Y-20513500D01*
X33583500Y-20693500D02*
X32583500Y-20693500D01*
X33583500Y-20513500D02*
X33583500Y-20693500D01*
X32583500Y-17533500D02*
X32583500Y-17713500D01*
X33583500Y-17533500D02*
X32583500Y-17533500D01*
X33583500Y-17713500D02*
X33583500Y-17533500D01*
X34583500Y-20513500D02*
X34583500Y-17713500D01*
X31583500Y-20513500D02*
X31583500Y-17713500D01*
%TO.C,LD0\u002C3*%
X38632000Y-94739000D02*
X39632000Y-94739000D01*
X40632000Y-94739000D02*
X41632000Y-94739000D01*
X41632000Y-97539000D02*
X40632000Y-97539000D01*
X39632000Y-97539000D02*
X38632000Y-97539000D01*
X39632000Y-97719000D02*
X39632000Y-97539000D01*
X40632000Y-97719000D02*
X39632000Y-97719000D01*
X40632000Y-97539000D02*
X40632000Y-97719000D01*
X39632000Y-94559000D02*
X39632000Y-94739000D01*
X40632000Y-94559000D02*
X39632000Y-94559000D01*
X40632000Y-94739000D02*
X40632000Y-94559000D01*
X41632000Y-97539000D02*
X41632000Y-94739000D01*
X38632000Y-97539000D02*
X38632000Y-94739000D01*
%TO.C,LD0\u002C5*%
X33996500Y-133855000D02*
X34996500Y-133855000D01*
X35996500Y-133855000D02*
X36996500Y-133855000D01*
X36996500Y-136655000D02*
X35996500Y-136655000D01*
X34996500Y-136655000D02*
X33996500Y-136655000D01*
X34996500Y-136835000D02*
X34996500Y-136655000D01*
X35996500Y-136835000D02*
X34996500Y-136835000D01*
X35996500Y-136655000D02*
X35996500Y-136835000D01*
X34996500Y-133675000D02*
X34996500Y-133855000D01*
X35996500Y-133675000D02*
X34996500Y-133675000D01*
X35996500Y-133855000D02*
X35996500Y-133675000D01*
X36996500Y-136655000D02*
X36996500Y-133855000D01*
X33996500Y-136655000D02*
X33996500Y-133855000D01*
%TO.C,LD0\u002C1*%
X31583500Y-56004000D02*
X32583500Y-56004000D01*
X33583500Y-56004000D02*
X34583500Y-56004000D01*
X34583500Y-58804000D02*
X33583500Y-58804000D01*
X32583500Y-58804000D02*
X31583500Y-58804000D01*
X32583500Y-58984000D02*
X32583500Y-58804000D01*
X33583500Y-58984000D02*
X32583500Y-58984000D01*
X33583500Y-58804000D02*
X33583500Y-58984000D01*
X32583500Y-55824000D02*
X32583500Y-56004000D01*
X33583500Y-55824000D02*
X32583500Y-55824000D01*
X33583500Y-56004000D02*
X33583500Y-55824000D01*
X34583500Y-58804000D02*
X34583500Y-56004000D01*
X31583500Y-58804000D02*
X31583500Y-56004000D01*
%TO.C,LD0\u002C2*%
X36092000Y-74927000D02*
X37092000Y-74927000D01*
X38092000Y-74927000D02*
X39092000Y-74927000D01*
X39092000Y-77727000D02*
X38092000Y-77727000D01*
X37092000Y-77727000D02*
X36092000Y-77727000D01*
X37092000Y-77907000D02*
X37092000Y-77727000D01*
X38092000Y-77907000D02*
X37092000Y-77907000D01*
X38092000Y-77727000D02*
X38092000Y-77907000D01*
X37092000Y-74747000D02*
X37092000Y-74927000D01*
X38092000Y-74747000D02*
X37092000Y-74747000D01*
X38092000Y-74927000D02*
X38092000Y-74747000D01*
X39092000Y-77727000D02*
X39092000Y-74927000D01*
X36092000Y-77727000D02*
X36092000Y-74927000D01*
%TO.C,LD1\u002C2*%
X60222000Y-75231800D02*
X61222000Y-75231800D01*
X62222000Y-75231800D02*
X63222000Y-75231800D01*
X63222000Y-78031800D02*
X62222000Y-78031800D01*
X61222000Y-78031800D02*
X60222000Y-78031800D01*
X61222000Y-78211800D02*
X61222000Y-78031800D01*
X62222000Y-78211800D02*
X61222000Y-78211800D01*
X62222000Y-78031800D02*
X62222000Y-78211800D01*
X61222000Y-75051800D02*
X61222000Y-75231800D01*
X62222000Y-75051800D02*
X61222000Y-75051800D01*
X62222000Y-75231800D02*
X62222000Y-75051800D01*
X63222000Y-78031800D02*
X63222000Y-75231800D01*
X60222000Y-78031800D02*
X60222000Y-75231800D01*
%TO.C,LD1\u002C5*%
X58571000Y-133905800D02*
X59571000Y-133905800D01*
X60571000Y-133905800D02*
X61571000Y-133905800D01*
X61571000Y-136705800D02*
X60571000Y-136705800D01*
X59571000Y-136705800D02*
X58571000Y-136705800D01*
X59571000Y-136885800D02*
X59571000Y-136705800D01*
X60571000Y-136885800D02*
X59571000Y-136885800D01*
X60571000Y-136705800D02*
X60571000Y-136885800D01*
X59571000Y-133725800D02*
X59571000Y-133905800D01*
X60571000Y-133725800D02*
X59571000Y-133725800D01*
X60571000Y-133905800D02*
X60571000Y-133725800D01*
X61571000Y-136705800D02*
X61571000Y-133905800D01*
X58571000Y-136705800D02*
X58571000Y-133905800D01*
%TO.C,LD1\u002C3*%
X65111500Y-94662800D02*
X66111500Y-94662800D01*
X67111500Y-94662800D02*
X68111500Y-94662800D01*
X68111500Y-97462800D02*
X67111500Y-97462800D01*
X66111500Y-97462800D02*
X65111500Y-97462800D01*
X66111500Y-97642800D02*
X66111500Y-97462800D01*
X67111500Y-97642800D02*
X66111500Y-97642800D01*
X67111500Y-97462800D02*
X67111500Y-97642800D01*
X66111500Y-94482800D02*
X66111500Y-94662800D01*
X67111500Y-94482800D02*
X66111500Y-94482800D01*
X67111500Y-94662800D02*
X67111500Y-94482800D01*
X68111500Y-97462800D02*
X68111500Y-94662800D01*
X65111500Y-97462800D02*
X65111500Y-94662800D01*
%TO.C,LD1\u002C1*%
X50798600Y-56004000D02*
X51798600Y-56004000D01*
X52798600Y-56004000D02*
X53798600Y-56004000D01*
X53798600Y-58804000D02*
X52798600Y-58804000D01*
X51798600Y-58804000D02*
X50798600Y-58804000D01*
X51798600Y-58984000D02*
X51798600Y-58804000D01*
X52798600Y-58984000D02*
X51798600Y-58984000D01*
X52798600Y-58804000D02*
X52798600Y-58984000D01*
X51798600Y-55824000D02*
X51798600Y-56004000D01*
X52798600Y-55824000D02*
X51798600Y-55824000D01*
X52798600Y-56004000D02*
X52798600Y-55824000D01*
X53798600Y-58804000D02*
X53798600Y-56004000D01*
X50798600Y-58804000D02*
X50798600Y-56004000D01*
%TO.C,LD1\u002C4*%
X74509500Y-114474800D02*
X75509500Y-114474800D01*
X76509500Y-114474800D02*
X77509500Y-114474800D01*
X77509500Y-117274800D02*
X76509500Y-117274800D01*
X75509500Y-117274800D02*
X74509500Y-117274800D01*
X75509500Y-117454800D02*
X75509500Y-117274800D01*
X76509500Y-117454800D02*
X75509500Y-117454800D01*
X76509500Y-117274800D02*
X76509500Y-117454800D01*
X75509500Y-114294800D02*
X75509500Y-114474800D01*
X76509500Y-114294800D02*
X75509500Y-114294800D01*
X76509500Y-114474800D02*
X76509500Y-114294800D01*
X77509500Y-117274800D02*
X77509500Y-114474800D01*
X74509500Y-117274800D02*
X74509500Y-114474800D01*
%TO.C,LD1\u002C0*%
X71588500Y-17827800D02*
X72588500Y-17827800D01*
X73588500Y-17827800D02*
X74588500Y-17827800D01*
X74588500Y-20627800D02*
X73588500Y-20627800D01*
X72588500Y-20627800D02*
X71588500Y-20627800D01*
X72588500Y-20807800D02*
X72588500Y-20627800D01*
X73588500Y-20807800D02*
X72588500Y-20807800D01*
X73588500Y-20627800D02*
X73588500Y-20807800D01*
X72588500Y-17647800D02*
X72588500Y-17827800D01*
X73588500Y-17647800D02*
X72588500Y-17647800D01*
X73588500Y-17827800D02*
X73588500Y-17647800D01*
X74588500Y-20627800D02*
X74588500Y-17827800D01*
X71588500Y-20627800D02*
X71588500Y-17827800D01*
%TO.C,LD2\u002C2*%
X79526000Y-75231800D02*
X80526000Y-75231800D01*
X81526000Y-75231800D02*
X82526000Y-75231800D01*
X82526000Y-78031800D02*
X81526000Y-78031800D01*
X80526000Y-78031800D02*
X79526000Y-78031800D01*
X80526000Y-78211800D02*
X80526000Y-78031800D01*
X81526000Y-78211800D02*
X80526000Y-78211800D01*
X81526000Y-78031800D02*
X81526000Y-78211800D01*
X80526000Y-75051800D02*
X80526000Y-75231800D01*
X81526000Y-75051800D02*
X80526000Y-75051800D01*
X81526000Y-75231800D02*
X81526000Y-75051800D01*
X82526000Y-78031800D02*
X82526000Y-75231800D01*
X79526000Y-78031800D02*
X79526000Y-75231800D01*
%TO.C,LD2\u002C1*%
X70001000Y-55991300D02*
X71001000Y-55991300D01*
X72001000Y-55991300D02*
X73001000Y-55991300D01*
X73001000Y-58791300D02*
X72001000Y-58791300D01*
X71001000Y-58791300D02*
X70001000Y-58791300D01*
X71001000Y-58971300D02*
X71001000Y-58791300D01*
X72001000Y-58971300D02*
X71001000Y-58971300D01*
X72001000Y-58791300D02*
X72001000Y-58971300D01*
X71001000Y-55811300D02*
X71001000Y-55991300D01*
X72001000Y-55811300D02*
X71001000Y-55811300D01*
X72001000Y-55991300D02*
X72001000Y-55811300D01*
X73001000Y-58791300D02*
X73001000Y-55991300D01*
X70001000Y-58791300D02*
X70001000Y-55991300D01*
%TO.C,LD2\u002C0*%
X90892500Y-17827800D02*
X91892500Y-17827800D01*
X92892500Y-17827800D02*
X93892500Y-17827800D01*
X93892500Y-20627800D02*
X92892500Y-20627800D01*
X91892500Y-20627800D02*
X90892500Y-20627800D01*
X91892500Y-20807800D02*
X91892500Y-20627800D01*
X92892500Y-20807800D02*
X91892500Y-20807800D01*
X92892500Y-20627800D02*
X92892500Y-20807800D01*
X91892500Y-17647800D02*
X91892500Y-17827800D01*
X92892500Y-17647800D02*
X91892500Y-17647800D01*
X92892500Y-17827800D02*
X92892500Y-17647800D01*
X93892500Y-20627800D02*
X93892500Y-17827800D01*
X90892500Y-20627800D02*
X90892500Y-17827800D01*
%TO.C,LD2\u002C4*%
X93673500Y-114474800D02*
X94673500Y-114474800D01*
X95673500Y-114474800D02*
X96673500Y-114474800D01*
X96673500Y-117274800D02*
X95673500Y-117274800D01*
X94673500Y-117274800D02*
X93673500Y-117274800D01*
X94673500Y-117454800D02*
X94673500Y-117274800D01*
X95673500Y-117454800D02*
X94673500Y-117454800D01*
X95673500Y-117274800D02*
X95673500Y-117454800D01*
X94673500Y-114294800D02*
X94673500Y-114474800D01*
X95673500Y-114294800D02*
X94673500Y-114294800D01*
X95673500Y-114474800D02*
X95673500Y-114294800D01*
X96673500Y-117274800D02*
X96673500Y-114474800D01*
X93673500Y-117274800D02*
X93673500Y-114474800D01*
%TO.C,LD2\u002C5*%
X82955000Y-133905800D02*
X83955000Y-133905800D01*
X84955000Y-133905800D02*
X85955000Y-133905800D01*
X85955000Y-136705800D02*
X84955000Y-136705800D01*
X83955000Y-136705800D02*
X82955000Y-136705800D01*
X83955000Y-136885800D02*
X83955000Y-136705800D01*
X84955000Y-136885800D02*
X83955000Y-136885800D01*
X84955000Y-136705800D02*
X84955000Y-136885800D01*
X83955000Y-133725800D02*
X83955000Y-133905800D01*
X84955000Y-133725800D02*
X83955000Y-133725800D01*
X84955000Y-133905800D02*
X84955000Y-133725800D01*
X85955000Y-136705800D02*
X85955000Y-133905800D01*
X82955000Y-136705800D02*
X82955000Y-133905800D01*
%TO.C,LD2\u002C3*%
X84415500Y-94662800D02*
X85415500Y-94662800D01*
X86415500Y-94662800D02*
X87415500Y-94662800D01*
X87415500Y-97462800D02*
X86415500Y-97462800D01*
X85415500Y-97462800D02*
X84415500Y-97462800D01*
X85415500Y-97642800D02*
X85415500Y-97462800D01*
X86415500Y-97642800D02*
X85415500Y-97642800D01*
X86415500Y-97462800D02*
X86415500Y-97642800D01*
X85415500Y-94482800D02*
X85415500Y-94662800D01*
X86415500Y-94482800D02*
X85415500Y-94482800D01*
X86415500Y-94662800D02*
X86415500Y-94482800D01*
X87415500Y-97462800D02*
X87415500Y-94662800D01*
X84415500Y-97462800D02*
X84415500Y-94662800D01*
%TO.C,LD3\u002C3*%
X103719500Y-94662800D02*
X104719500Y-94662800D01*
X105719500Y-94662800D02*
X106719500Y-94662800D01*
X106719500Y-97462800D02*
X105719500Y-97462800D01*
X104719500Y-97462800D02*
X103719500Y-97462800D01*
X104719500Y-97642800D02*
X104719500Y-97462800D01*
X105719500Y-97642800D02*
X104719500Y-97642800D01*
X105719500Y-97462800D02*
X105719500Y-97642800D01*
X104719500Y-94482800D02*
X104719500Y-94662800D01*
X105719500Y-94482800D02*
X104719500Y-94482800D01*
X105719500Y-94662800D02*
X105719500Y-94482800D01*
X106719500Y-97462800D02*
X106719500Y-94662800D01*
X103719500Y-97462800D02*
X103719500Y-94662800D01*
%TO.C,LD3\u002C5*%
X154837000Y-133905800D02*
X155837000Y-133905800D01*
X156837000Y-133905800D02*
X157837000Y-133905800D01*
X157837000Y-136705800D02*
X156837000Y-136705800D01*
X155837000Y-136705800D02*
X154837000Y-136705800D01*
X155837000Y-136885800D02*
X155837000Y-136705800D01*
X156837000Y-136885800D02*
X155837000Y-136885800D01*
X156837000Y-136705800D02*
X156837000Y-136885800D01*
X155837000Y-133725800D02*
X155837000Y-133905800D01*
X156837000Y-133725800D02*
X155837000Y-133725800D01*
X156837000Y-133905800D02*
X156837000Y-133725800D01*
X157837000Y-136705800D02*
X157837000Y-133905800D01*
X154837000Y-136705800D02*
X154837000Y-133905800D01*
%TO.C,LD3\u002C4*%
X113117500Y-114474800D02*
X114117500Y-114474800D01*
X115117500Y-114474800D02*
X116117500Y-114474800D01*
X116117500Y-117274800D02*
X115117500Y-117274800D01*
X114117500Y-117274800D02*
X113117500Y-117274800D01*
X114117500Y-117454800D02*
X114117500Y-117274800D01*
X115117500Y-117454800D02*
X114117500Y-117454800D01*
X115117500Y-117274800D02*
X115117500Y-117454800D01*
X114117500Y-114294800D02*
X114117500Y-114474800D01*
X115117500Y-114294800D02*
X114117500Y-114294800D01*
X115117500Y-114474800D02*
X115117500Y-114294800D01*
X116117500Y-117274800D02*
X116117500Y-114474800D01*
X113117500Y-117274800D02*
X113117500Y-114474800D01*
%TO.C,LD3\u002C2*%
X98830000Y-75231800D02*
X99830000Y-75231800D01*
X100830000Y-75231800D02*
X101830000Y-75231800D01*
X101830000Y-78031800D02*
X100830000Y-78031800D01*
X99830000Y-78031800D02*
X98830000Y-78031800D01*
X99830000Y-78211800D02*
X99830000Y-78031800D01*
X100830000Y-78211800D02*
X99830000Y-78211800D01*
X100830000Y-78031800D02*
X100830000Y-78211800D01*
X99830000Y-75051800D02*
X99830000Y-75231800D01*
X100830000Y-75051800D02*
X99830000Y-75051800D01*
X100830000Y-75231800D02*
X100830000Y-75051800D01*
X101830000Y-78031800D02*
X101830000Y-75231800D01*
X98830000Y-78031800D02*
X98830000Y-75231800D01*
%TO.C,LD3\u002C1*%
X88797000Y-55991300D02*
X89797000Y-55991300D01*
X90797000Y-55991300D02*
X91797000Y-55991300D01*
X91797000Y-58791300D02*
X90797000Y-58791300D01*
X89797000Y-58791300D02*
X88797000Y-58791300D01*
X89797000Y-58971300D02*
X89797000Y-58791300D01*
X90797000Y-58971300D02*
X89797000Y-58971300D01*
X90797000Y-58791300D02*
X90797000Y-58971300D01*
X89797000Y-55811300D02*
X89797000Y-55991300D01*
X90797000Y-55811300D02*
X89797000Y-55811300D01*
X90797000Y-55991300D02*
X90797000Y-55811300D01*
X91797000Y-58791300D02*
X91797000Y-55991300D01*
X88797000Y-58791300D02*
X88797000Y-55991300D01*
%TO.C,LD3\u002C0*%
X110196500Y-17827800D02*
X111196500Y-17827800D01*
X112196500Y-17827800D02*
X113196500Y-17827800D01*
X113196500Y-20627800D02*
X112196500Y-20627800D01*
X111196500Y-20627800D02*
X110196500Y-20627800D01*
X111196500Y-20807800D02*
X111196500Y-20627800D01*
X112196500Y-20807800D02*
X111196500Y-20807800D01*
X112196500Y-20627800D02*
X112196500Y-20807800D01*
X111196500Y-17647800D02*
X111196500Y-17827800D01*
X112196500Y-17647800D02*
X111196500Y-17647800D01*
X112196500Y-17827800D02*
X112196500Y-17647800D01*
X113196500Y-20627800D02*
X113196500Y-17827800D01*
X110196500Y-20627800D02*
X110196500Y-17827800D01*
%TO.C,LD4\u002C1*%
X108101000Y-55991300D02*
X109101000Y-55991300D01*
X110101000Y-55991300D02*
X111101000Y-55991300D01*
X111101000Y-58791300D02*
X110101000Y-58791300D01*
X109101000Y-58791300D02*
X108101000Y-58791300D01*
X109101000Y-58971300D02*
X109101000Y-58791300D01*
X110101000Y-58971300D02*
X109101000Y-58971300D01*
X110101000Y-58791300D02*
X110101000Y-58971300D01*
X109101000Y-55811300D02*
X109101000Y-55991300D01*
X110101000Y-55811300D02*
X109101000Y-55811300D01*
X110101000Y-55991300D02*
X110101000Y-55811300D01*
X111101000Y-58791300D02*
X111101000Y-55991300D01*
X108101000Y-58791300D02*
X108101000Y-55991300D01*
%TO.C,LD4\u002C2*%
X118134000Y-75231800D02*
X119134000Y-75231800D01*
X120134000Y-75231800D02*
X121134000Y-75231800D01*
X121134000Y-78031800D02*
X120134000Y-78031800D01*
X119134000Y-78031800D02*
X118134000Y-78031800D01*
X119134000Y-78211800D02*
X119134000Y-78031800D01*
X120134000Y-78211800D02*
X119134000Y-78211800D01*
X120134000Y-78031800D02*
X120134000Y-78211800D01*
X119134000Y-75051800D02*
X119134000Y-75231800D01*
X120134000Y-75051800D02*
X119134000Y-75051800D01*
X120134000Y-75231800D02*
X120134000Y-75051800D01*
X121134000Y-78031800D02*
X121134000Y-75231800D01*
X118134000Y-78031800D02*
X118134000Y-75231800D01*
%TO.C,LD4\u002C0*%
X129500500Y-17827800D02*
X130500500Y-17827800D01*
X131500500Y-17827800D02*
X132500500Y-17827800D01*
X132500500Y-20627800D02*
X131500500Y-20627800D01*
X130500500Y-20627800D02*
X129500500Y-20627800D01*
X130500500Y-20807800D02*
X130500500Y-20627800D01*
X131500500Y-20807800D02*
X130500500Y-20807800D01*
X131500500Y-20627800D02*
X131500500Y-20807800D01*
X130500500Y-17647800D02*
X130500500Y-17827800D01*
X131500500Y-17647800D02*
X130500500Y-17647800D01*
X131500500Y-17827800D02*
X131500500Y-17647800D01*
X132500500Y-20627800D02*
X132500500Y-17827800D01*
X129500500Y-20627800D02*
X129500500Y-17827800D01*
%TO.C,LD4\u002C4*%
X132421500Y-114474800D02*
X133421500Y-114474800D01*
X134421500Y-114474800D02*
X135421500Y-114474800D01*
X135421500Y-117274800D02*
X134421500Y-117274800D01*
X133421500Y-117274800D02*
X132421500Y-117274800D01*
X133421500Y-117454800D02*
X133421500Y-117274800D01*
X134421500Y-117454800D02*
X133421500Y-117454800D01*
X134421500Y-117274800D02*
X134421500Y-117454800D01*
X133421500Y-114294800D02*
X133421500Y-114474800D01*
X134421500Y-114294800D02*
X133421500Y-114294800D01*
X134421500Y-114474800D02*
X134421500Y-114294800D01*
X135421500Y-117274800D02*
X135421500Y-114474800D01*
X132421500Y-117274800D02*
X132421500Y-114474800D01*
%TO.C,LD4\u002C3*%
X123023500Y-94662800D02*
X124023500Y-94662800D01*
X125023500Y-94662800D02*
X126023500Y-94662800D01*
X126023500Y-97462800D02*
X125023500Y-97462800D01*
X124023500Y-97462800D02*
X123023500Y-97462800D01*
X124023500Y-97642800D02*
X124023500Y-97462800D01*
X125023500Y-97642800D02*
X124023500Y-97642800D01*
X125023500Y-97462800D02*
X125023500Y-97642800D01*
X124023500Y-94482800D02*
X124023500Y-94662800D01*
X125023500Y-94482800D02*
X124023500Y-94482800D01*
X125023500Y-94662800D02*
X125023500Y-94482800D01*
X126023500Y-97462800D02*
X126023500Y-94662800D01*
X123023500Y-97462800D02*
X123023500Y-94662800D01*
%TO.C,LD5\u002C3*%
X142327500Y-94662800D02*
X143327500Y-94662800D01*
X144327500Y-94662800D02*
X145327500Y-94662800D01*
X145327500Y-97462800D02*
X144327500Y-97462800D01*
X143327500Y-97462800D02*
X142327500Y-97462800D01*
X143327500Y-97642800D02*
X143327500Y-97462800D01*
X144327500Y-97642800D02*
X143327500Y-97642800D01*
X144327500Y-97462800D02*
X144327500Y-97642800D01*
X143327500Y-94482800D02*
X143327500Y-94662800D01*
X144327500Y-94482800D02*
X143327500Y-94482800D01*
X144327500Y-94662800D02*
X144327500Y-94482800D01*
X145327500Y-97462800D02*
X145327500Y-94662800D01*
X142327500Y-97462800D02*
X142327500Y-94662800D01*
%TO.C,LD5\u002C0*%
X160996500Y-17827800D02*
X161996500Y-17827800D01*
X162996500Y-17827800D02*
X163996500Y-17827800D01*
X163996500Y-20627800D02*
X162996500Y-20627800D01*
X161996500Y-20627800D02*
X160996500Y-20627800D01*
X161996500Y-20807800D02*
X161996500Y-20627800D01*
X162996500Y-20807800D02*
X161996500Y-20807800D01*
X162996500Y-20627800D02*
X162996500Y-20807800D01*
X161996500Y-17647800D02*
X161996500Y-17827800D01*
X162996500Y-17647800D02*
X161996500Y-17647800D01*
X162996500Y-17827800D02*
X162996500Y-17647800D01*
X163996500Y-20627800D02*
X163996500Y-17827800D01*
X160996500Y-20627800D02*
X160996500Y-17827800D01*
%TO.C,LD5\u002C4*%
X151725500Y-114474800D02*
X152725500Y-114474800D01*
X153725500Y-114474800D02*
X154725500Y-114474800D01*
X154725500Y-117274800D02*
X153725500Y-117274800D01*
X152725500Y-117274800D02*
X151725500Y-117274800D01*
X152725500Y-117454800D02*
X152725500Y-117274800D01*
X153725500Y-117454800D02*
X152725500Y-117454800D01*
X153725500Y-117274800D02*
X153725500Y-117454800D01*
X152725500Y-114294800D02*
X152725500Y-114474800D01*
X153725500Y-114294800D02*
X152725500Y-114294800D01*
X153725500Y-114474800D02*
X153725500Y-114294800D01*
X154725500Y-117274800D02*
X154725500Y-114474800D01*
X151725500Y-117274800D02*
X151725500Y-114474800D01*
%TO.C,LD5\u002C2*%
X137438000Y-75231800D02*
X138438000Y-75231800D01*
X139438000Y-75231800D02*
X140438000Y-75231800D01*
X140438000Y-78031800D02*
X139438000Y-78031800D01*
X138438000Y-78031800D02*
X137438000Y-78031800D01*
X138438000Y-78211800D02*
X138438000Y-78031800D01*
X139438000Y-78211800D02*
X138438000Y-78211800D01*
X139438000Y-78031800D02*
X139438000Y-78211800D01*
X138438000Y-75051800D02*
X138438000Y-75231800D01*
X139438000Y-75051800D02*
X138438000Y-75051800D01*
X139438000Y-75231800D02*
X139438000Y-75051800D01*
X140438000Y-78031800D02*
X140438000Y-75231800D01*
X137438000Y-78031800D02*
X137438000Y-75231800D01*
%TO.C,LD5\u002C1*%
X127405000Y-55991300D02*
X128405000Y-55991300D01*
X129405000Y-55991300D02*
X130405000Y-55991300D01*
X130405000Y-58791300D02*
X129405000Y-58791300D01*
X128405000Y-58791300D02*
X127405000Y-58791300D01*
X128405000Y-58971300D02*
X128405000Y-58791300D01*
X129405000Y-58971300D02*
X128405000Y-58971300D01*
X129405000Y-58791300D02*
X129405000Y-58971300D01*
X128405000Y-55811300D02*
X128405000Y-55991300D01*
X129405000Y-55811300D02*
X128405000Y-55811300D01*
X129405000Y-55991300D02*
X129405000Y-55811300D01*
X130405000Y-58791300D02*
X130405000Y-55991300D01*
X127405000Y-58791300D02*
X127405000Y-55991300D01*
%TO.C,LD6\u002C2*%
X156742000Y-75231800D02*
X157742000Y-75231800D01*
X158742000Y-75231800D02*
X159742000Y-75231800D01*
X159742000Y-78031800D02*
X158742000Y-78031800D01*
X157742000Y-78031800D02*
X156742000Y-78031800D01*
X157742000Y-78211800D02*
X157742000Y-78031800D01*
X158742000Y-78211800D02*
X157742000Y-78211800D01*
X158742000Y-78031800D02*
X158742000Y-78211800D01*
X157742000Y-75051800D02*
X157742000Y-75231800D01*
X158742000Y-75051800D02*
X157742000Y-75051800D01*
X158742000Y-75231800D02*
X158742000Y-75051800D01*
X159742000Y-78031800D02*
X159742000Y-75231800D01*
X156742000Y-78031800D02*
X156742000Y-75231800D01*
%TO.C,LD6\u002C0*%
X180300500Y-17827800D02*
X181300500Y-17827800D01*
X182300500Y-17827800D02*
X183300500Y-17827800D01*
X183300500Y-20627800D02*
X182300500Y-20627800D01*
X181300500Y-20627800D02*
X180300500Y-20627800D01*
X181300500Y-20807800D02*
X181300500Y-20627800D01*
X182300500Y-20807800D02*
X181300500Y-20807800D01*
X182300500Y-20627800D02*
X182300500Y-20807800D01*
X181300500Y-17647800D02*
X181300500Y-17827800D01*
X182300500Y-17647800D02*
X181300500Y-17647800D01*
X182300500Y-17827800D02*
X182300500Y-17647800D01*
X183300500Y-20627800D02*
X183300500Y-17827800D01*
X180300500Y-20627800D02*
X180300500Y-17827800D01*
%TO.C,LD6\u002C4*%
X171029500Y-114474800D02*
X172029500Y-114474800D01*
X173029500Y-114474800D02*
X174029500Y-114474800D01*
X174029500Y-117274800D02*
X173029500Y-117274800D01*
X172029500Y-117274800D02*
X171029500Y-117274800D01*
X172029500Y-117454800D02*
X172029500Y-117274800D01*
X173029500Y-117454800D02*
X172029500Y-117454800D01*
X173029500Y-117274800D02*
X173029500Y-117454800D01*
X172029500Y-114294800D02*
X172029500Y-114474800D01*
X173029500Y-114294800D02*
X172029500Y-114294800D01*
X173029500Y-114474800D02*
X173029500Y-114294800D01*
X174029500Y-117274800D02*
X174029500Y-114474800D01*
X171029500Y-117274800D02*
X171029500Y-114474800D01*
%TO.C,LD6\u002C3*%
X161631500Y-94662800D02*
X162631500Y-94662800D01*
X163631500Y-94662800D02*
X164631500Y-94662800D01*
X164631500Y-97462800D02*
X163631500Y-97462800D01*
X162631500Y-97462800D02*
X161631500Y-97462800D01*
X162631500Y-97642800D02*
X162631500Y-97462800D01*
X163631500Y-97642800D02*
X162631500Y-97642800D01*
X163631500Y-97462800D02*
X163631500Y-97642800D01*
X162631500Y-94482800D02*
X162631500Y-94662800D01*
X163631500Y-94482800D02*
X162631500Y-94482800D01*
X163631500Y-94662800D02*
X163631500Y-94482800D01*
X164631500Y-97462800D02*
X164631500Y-94662800D01*
X161631500Y-97462800D02*
X161631500Y-94662800D01*
%TO.C,LD6\u002C1*%
X146709000Y-55991300D02*
X147709000Y-55991300D01*
X148709000Y-55991300D02*
X149709000Y-55991300D01*
X149709000Y-58791300D02*
X148709000Y-58791300D01*
X147709000Y-58791300D02*
X146709000Y-58791300D01*
X147709000Y-58971300D02*
X147709000Y-58791300D01*
X148709000Y-58971300D02*
X147709000Y-58971300D01*
X148709000Y-58791300D02*
X148709000Y-58971300D01*
X147709000Y-55811300D02*
X147709000Y-55991300D01*
X148709000Y-55811300D02*
X147709000Y-55811300D01*
X148709000Y-55991300D02*
X148709000Y-55811300D01*
X149709000Y-58791300D02*
X149709000Y-55991300D01*
X146709000Y-58791300D02*
X146709000Y-55991300D01*
%TO.C,LD7\u002C0*%
X199604500Y-17827800D02*
X200604500Y-17827800D01*
X201604500Y-17827800D02*
X202604500Y-17827800D01*
X202604500Y-20627800D02*
X201604500Y-20627800D01*
X200604500Y-20627800D02*
X199604500Y-20627800D01*
X200604500Y-20807800D02*
X200604500Y-20627800D01*
X201604500Y-20807800D02*
X200604500Y-20807800D01*
X201604500Y-20627800D02*
X201604500Y-20807800D01*
X200604500Y-17647800D02*
X200604500Y-17827800D01*
X201604500Y-17647800D02*
X200604500Y-17647800D01*
X201604500Y-17827800D02*
X201604500Y-17647800D01*
X202604500Y-20627800D02*
X202604500Y-17827800D01*
X199604500Y-20627800D02*
X199604500Y-17827800D01*
%TO.C,LD7\u002C4*%
X190333500Y-114474800D02*
X191333500Y-114474800D01*
X192333500Y-114474800D02*
X193333500Y-114474800D01*
X193333500Y-117274800D02*
X192333500Y-117274800D01*
X191333500Y-117274800D02*
X190333500Y-117274800D01*
X191333500Y-117454800D02*
X191333500Y-117274800D01*
X192333500Y-117454800D02*
X191333500Y-117454800D01*
X192333500Y-117274800D02*
X192333500Y-117454800D01*
X191333500Y-114294800D02*
X191333500Y-114474800D01*
X192333500Y-114294800D02*
X191333500Y-114294800D01*
X192333500Y-114474800D02*
X192333500Y-114294800D01*
X193333500Y-117274800D02*
X193333500Y-114474800D01*
X190333500Y-117274800D02*
X190333500Y-114474800D01*
%TO.C,LD7\u002C3*%
X180935500Y-94662800D02*
X181935500Y-94662800D01*
X182935500Y-94662800D02*
X183935500Y-94662800D01*
X183935500Y-97462800D02*
X182935500Y-97462800D01*
X181935500Y-97462800D02*
X180935500Y-97462800D01*
X181935500Y-97642800D02*
X181935500Y-97462800D01*
X182935500Y-97642800D02*
X181935500Y-97642800D01*
X182935500Y-97462800D02*
X182935500Y-97642800D01*
X181935500Y-94482800D02*
X181935500Y-94662800D01*
X182935500Y-94482800D02*
X181935500Y-94482800D01*
X182935500Y-94662800D02*
X182935500Y-94482800D01*
X183935500Y-97462800D02*
X183935500Y-94662800D01*
X180935500Y-97462800D02*
X180935500Y-94662800D01*
%TO.C,LD7\u002C1*%
X166013000Y-55991300D02*
X167013000Y-55991300D01*
X168013000Y-55991300D02*
X169013000Y-55991300D01*
X169013000Y-58791300D02*
X168013000Y-58791300D01*
X167013000Y-58791300D02*
X166013000Y-58791300D01*
X167013000Y-58971300D02*
X167013000Y-58791300D01*
X168013000Y-58971300D02*
X167013000Y-58971300D01*
X168013000Y-58791300D02*
X168013000Y-58971300D01*
X167013000Y-55811300D02*
X167013000Y-55991300D01*
X168013000Y-55811300D02*
X167013000Y-55811300D01*
X168013000Y-55991300D02*
X168013000Y-55811300D01*
X169013000Y-58791300D02*
X169013000Y-55991300D01*
X166013000Y-58791300D02*
X166013000Y-55991300D01*
%TO.C,LD7\u002C2*%
X176046000Y-75231800D02*
X177046000Y-75231800D01*
X178046000Y-75231800D02*
X179046000Y-75231800D01*
X179046000Y-78031800D02*
X178046000Y-78031800D01*
X177046000Y-78031800D02*
X176046000Y-78031800D01*
X177046000Y-78211800D02*
X177046000Y-78031800D01*
X178046000Y-78211800D02*
X177046000Y-78211800D01*
X178046000Y-78031800D02*
X178046000Y-78211800D01*
X177046000Y-75051800D02*
X177046000Y-75231800D01*
X178046000Y-75051800D02*
X177046000Y-75051800D01*
X178046000Y-75231800D02*
X178046000Y-75051800D01*
X179046000Y-78031800D02*
X179046000Y-75231800D01*
X176046000Y-78031800D02*
X176046000Y-75231800D01*
%TO.C,LD8\u002C3*%
X200239500Y-94662800D02*
X201239500Y-94662800D01*
X202239500Y-94662800D02*
X203239500Y-94662800D01*
X203239500Y-97462800D02*
X202239500Y-97462800D01*
X201239500Y-97462800D02*
X200239500Y-97462800D01*
X201239500Y-97642800D02*
X201239500Y-97462800D01*
X202239500Y-97642800D02*
X201239500Y-97642800D01*
X202239500Y-97462800D02*
X202239500Y-97642800D01*
X201239500Y-94482800D02*
X201239500Y-94662800D01*
X202239500Y-94482800D02*
X201239500Y-94482800D01*
X202239500Y-94662800D02*
X202239500Y-94482800D01*
X203239500Y-97462800D02*
X203239500Y-94662800D01*
X200239500Y-97462800D02*
X200239500Y-94662800D01*
%TO.C,LD8\u002C4*%
X209637500Y-114474800D02*
X210637500Y-114474800D01*
X211637500Y-114474800D02*
X212637500Y-114474800D01*
X212637500Y-117274800D02*
X211637500Y-117274800D01*
X210637500Y-117274800D02*
X209637500Y-117274800D01*
X210637500Y-117454800D02*
X210637500Y-117274800D01*
X211637500Y-117454800D02*
X210637500Y-117454800D01*
X211637500Y-117274800D02*
X211637500Y-117454800D01*
X210637500Y-114294800D02*
X210637500Y-114474800D01*
X211637500Y-114294800D02*
X210637500Y-114294800D01*
X211637500Y-114474800D02*
X211637500Y-114294800D01*
X212637500Y-117274800D02*
X212637500Y-114474800D01*
X209637500Y-117274800D02*
X209637500Y-114474800D01*
%TO.C,LD8\u002C0*%
X218908500Y-17827800D02*
X219908500Y-17827800D01*
X220908500Y-17827800D02*
X221908500Y-17827800D01*
X221908500Y-20627800D02*
X220908500Y-20627800D01*
X219908500Y-20627800D02*
X218908500Y-20627800D01*
X219908500Y-20807800D02*
X219908500Y-20627800D01*
X220908500Y-20807800D02*
X219908500Y-20807800D01*
X220908500Y-20627800D02*
X220908500Y-20807800D01*
X219908500Y-17647800D02*
X219908500Y-17827800D01*
X220908500Y-17647800D02*
X219908500Y-17647800D01*
X220908500Y-17827800D02*
X220908500Y-17647800D01*
X221908500Y-20627800D02*
X221908500Y-17827800D01*
X218908500Y-20627800D02*
X218908500Y-17827800D01*
%TO.C,LD8\u002C2*%
X195350000Y-75231800D02*
X196350000Y-75231800D01*
X197350000Y-75231800D02*
X198350000Y-75231800D01*
X198350000Y-78031800D02*
X197350000Y-78031800D01*
X196350000Y-78031800D02*
X195350000Y-78031800D01*
X196350000Y-78211800D02*
X196350000Y-78031800D01*
X197350000Y-78211800D02*
X196350000Y-78211800D01*
X197350000Y-78031800D02*
X197350000Y-78211800D01*
X196350000Y-75051800D02*
X196350000Y-75231800D01*
X197350000Y-75051800D02*
X196350000Y-75051800D01*
X197350000Y-75231800D02*
X197350000Y-75051800D01*
X198350000Y-78031800D02*
X198350000Y-75231800D01*
X195350000Y-78031800D02*
X195350000Y-75231800D01*
%TO.C,LD8\u002C1*%
X185317000Y-55991300D02*
X186317000Y-55991300D01*
X187317000Y-55991300D02*
X188317000Y-55991300D01*
X188317000Y-58791300D02*
X187317000Y-58791300D01*
X186317000Y-58791300D02*
X185317000Y-58791300D01*
X186317000Y-58971300D02*
X186317000Y-58791300D01*
X187317000Y-58971300D02*
X186317000Y-58971300D01*
X187317000Y-58791300D02*
X187317000Y-58971300D01*
X186317000Y-55811300D02*
X186317000Y-55991300D01*
X187317000Y-55811300D02*
X186317000Y-55811300D01*
X187317000Y-55991300D02*
X187317000Y-55811300D01*
X188317000Y-58791300D02*
X188317000Y-55991300D01*
X185317000Y-58791300D02*
X185317000Y-55991300D01*
%TO.C,LD8\u002C5*%
X226592000Y-134014599D02*
X227592000Y-134014599D01*
X228592000Y-134014599D02*
X229592000Y-134014599D01*
X229592000Y-136814599D02*
X228592000Y-136814599D01*
X227592000Y-136814599D02*
X226592000Y-136814599D01*
X227592000Y-136994599D02*
X227592000Y-136814599D01*
X228592000Y-136994599D02*
X227592000Y-136994599D01*
X228592000Y-136814599D02*
X228592000Y-136994599D01*
X227592000Y-133834599D02*
X227592000Y-134014599D01*
X228592000Y-133834599D02*
X227592000Y-133834599D01*
X228592000Y-134014599D02*
X228592000Y-133834599D01*
X229592000Y-136814599D02*
X229592000Y-134014599D01*
X226592000Y-136814599D02*
X226592000Y-134014599D01*
%TO.C,LD9\u002C0*%
X245324500Y-17827800D02*
X246324500Y-17827800D01*
X247324500Y-17827800D02*
X248324500Y-17827800D01*
X248324500Y-20627800D02*
X247324500Y-20627800D01*
X246324500Y-20627800D02*
X245324500Y-20627800D01*
X246324500Y-20807800D02*
X246324500Y-20627800D01*
X247324500Y-20807800D02*
X246324500Y-20807800D01*
X247324500Y-20627800D02*
X247324500Y-20807800D01*
X246324500Y-17647800D02*
X246324500Y-17827800D01*
X247324500Y-17647800D02*
X246324500Y-17647800D01*
X247324500Y-17827800D02*
X247324500Y-17647800D01*
X248324500Y-20627800D02*
X248324500Y-17827800D01*
X245324500Y-20627800D02*
X245324500Y-17827800D01*
%TO.C,LD9\u002C1*%
X204621000Y-55991300D02*
X205621000Y-55991300D01*
X206621000Y-55991300D02*
X207621000Y-55991300D01*
X207621000Y-58791300D02*
X206621000Y-58791300D01*
X205621000Y-58791300D02*
X204621000Y-58791300D01*
X205621000Y-58971300D02*
X205621000Y-58791300D01*
X206621000Y-58971300D02*
X205621000Y-58971300D01*
X206621000Y-58791300D02*
X206621000Y-58971300D01*
X205621000Y-55811300D02*
X205621000Y-55991300D01*
X206621000Y-55811300D02*
X205621000Y-55811300D01*
X206621000Y-55991300D02*
X206621000Y-55811300D01*
X207621000Y-58791300D02*
X207621000Y-55991300D01*
X204621000Y-58791300D02*
X204621000Y-55991300D01*
%TO.C,LD9\u002C4*%
X228941500Y-114474800D02*
X229941500Y-114474800D01*
X230941500Y-114474800D02*
X231941500Y-114474800D01*
X231941500Y-117274800D02*
X230941500Y-117274800D01*
X229941500Y-117274800D02*
X228941500Y-117274800D01*
X229941500Y-117454800D02*
X229941500Y-117274800D01*
X230941500Y-117454800D02*
X229941500Y-117454800D01*
X230941500Y-117274800D02*
X230941500Y-117454800D01*
X229941500Y-114294800D02*
X229941500Y-114474800D01*
X230941500Y-114294800D02*
X229941500Y-114294800D01*
X230941500Y-114474800D02*
X230941500Y-114294800D01*
X231941500Y-117274800D02*
X231941500Y-114474800D01*
X228941500Y-117274800D02*
X228941500Y-114474800D01*
%TO.C,LD9\u002C3*%
X219543500Y-94662800D02*
X220543500Y-94662800D01*
X221543500Y-94662800D02*
X222543500Y-94662800D01*
X222543500Y-97462800D02*
X221543500Y-97462800D01*
X220543500Y-97462800D02*
X219543500Y-97462800D01*
X220543500Y-97642800D02*
X220543500Y-97462800D01*
X221543500Y-97642800D02*
X220543500Y-97642800D01*
X221543500Y-97462800D02*
X221543500Y-97642800D01*
X220543500Y-94482800D02*
X220543500Y-94662800D01*
X221543500Y-94482800D02*
X220543500Y-94482800D01*
X221543500Y-94662800D02*
X221543500Y-94482800D01*
X222543500Y-97462800D02*
X222543500Y-94662800D01*
X219543500Y-97462800D02*
X219543500Y-94662800D01*
%TO.C,LD9\u002C5*%
X250722000Y-133905800D02*
X251722000Y-133905800D01*
X252722000Y-133905800D02*
X253722000Y-133905800D01*
X253722000Y-136705800D02*
X252722000Y-136705800D01*
X251722000Y-136705800D02*
X250722000Y-136705800D01*
X251722000Y-136885800D02*
X251722000Y-136705800D01*
X252722000Y-136885800D02*
X251722000Y-136885800D01*
X252722000Y-136705800D02*
X252722000Y-136885800D01*
X251722000Y-133725800D02*
X251722000Y-133905800D01*
X252722000Y-133725800D02*
X251722000Y-133725800D01*
X252722000Y-133905800D02*
X252722000Y-133725800D01*
X253722000Y-136705800D02*
X253722000Y-133905800D01*
X250722000Y-136705800D02*
X250722000Y-133905800D01*
%TO.C,LD9\u002C2*%
X214654000Y-75231800D02*
X215654000Y-75231800D01*
X216654000Y-75231800D02*
X217654000Y-75231800D01*
X217654000Y-78031800D02*
X216654000Y-78031800D01*
X215654000Y-78031800D02*
X214654000Y-78031800D01*
X215654000Y-78211800D02*
X215654000Y-78031800D01*
X216654000Y-78211800D02*
X215654000Y-78211800D01*
X216654000Y-78031800D02*
X216654000Y-78211800D01*
X215654000Y-75051800D02*
X215654000Y-75231800D01*
X216654000Y-75051800D02*
X215654000Y-75051800D01*
X216654000Y-75231800D02*
X216654000Y-75051800D01*
X217654000Y-78031800D02*
X217654000Y-75231800D01*
X214654000Y-78031800D02*
X214654000Y-75231800D01*
%TO.C,LD10\u002C0*%
X264628500Y-17827800D02*
X265628500Y-17827800D01*
X266628500Y-17827800D02*
X267628500Y-17827800D01*
X267628500Y-20627800D02*
X266628500Y-20627800D01*
X265628500Y-20627800D02*
X264628500Y-20627800D01*
X265628500Y-20807800D02*
X265628500Y-20627800D01*
X266628500Y-20807800D02*
X265628500Y-20807800D01*
X266628500Y-20627800D02*
X266628500Y-20807800D01*
X265628500Y-17647800D02*
X265628500Y-17827800D01*
X266628500Y-17647800D02*
X265628500Y-17647800D01*
X266628500Y-17827800D02*
X266628500Y-17647800D01*
X267628500Y-20627800D02*
X267628500Y-17827800D01*
X264628500Y-20627800D02*
X264628500Y-17827800D01*
%TO.C,LD10\u002C5*%
X274915500Y-133905800D02*
X275915500Y-133905800D01*
X276915500Y-133905800D02*
X277915500Y-133905800D01*
X277915500Y-136705800D02*
X276915500Y-136705800D01*
X275915500Y-136705800D02*
X274915500Y-136705800D01*
X275915500Y-136885800D02*
X275915500Y-136705800D01*
X276915500Y-136885800D02*
X275915500Y-136885800D01*
X276915500Y-136705800D02*
X276915500Y-136885800D01*
X275915500Y-133725800D02*
X275915500Y-133905800D01*
X276915500Y-133725800D02*
X275915500Y-133725800D01*
X276915500Y-133905800D02*
X276915500Y-133725800D01*
X277915500Y-136705800D02*
X277915500Y-133905800D01*
X274915500Y-136705800D02*
X274915500Y-133905800D01*
%TO.C,LD10\u002C1*%
X223925000Y-55991300D02*
X224925000Y-55991300D01*
X225925000Y-55991300D02*
X226925000Y-55991300D01*
X226925000Y-58791300D02*
X225925000Y-58791300D01*
X224925000Y-58791300D02*
X223925000Y-58791300D01*
X224925000Y-58971300D02*
X224925000Y-58791300D01*
X225925000Y-58971300D02*
X224925000Y-58971300D01*
X225925000Y-58791300D02*
X225925000Y-58971300D01*
X224925000Y-55811300D02*
X224925000Y-55991300D01*
X225925000Y-55811300D02*
X224925000Y-55811300D01*
X225925000Y-55991300D02*
X225925000Y-55811300D01*
X226925000Y-58791300D02*
X226925000Y-55991300D01*
X223925000Y-58791300D02*
X223925000Y-55991300D01*
%TO.C,LD10\u002C2*%
X233958000Y-75231800D02*
X234958000Y-75231800D01*
X235958000Y-75231800D02*
X236958000Y-75231800D01*
X236958000Y-78031800D02*
X235958000Y-78031800D01*
X234958000Y-78031800D02*
X233958000Y-78031800D01*
X234958000Y-78211800D02*
X234958000Y-78031800D01*
X235958000Y-78211800D02*
X234958000Y-78211800D01*
X235958000Y-78031800D02*
X235958000Y-78211800D01*
X234958000Y-75051800D02*
X234958000Y-75231800D01*
X235958000Y-75051800D02*
X234958000Y-75051800D01*
X235958000Y-75231800D02*
X235958000Y-75051800D01*
X236958000Y-78031800D02*
X236958000Y-75231800D01*
X233958000Y-78031800D02*
X233958000Y-75231800D01*
%TO.C,LD10\u002C4*%
X248245500Y-114474800D02*
X249245500Y-114474800D01*
X250245500Y-114474800D02*
X251245500Y-114474800D01*
X251245500Y-117274800D02*
X250245500Y-117274800D01*
X249245500Y-117274800D02*
X248245500Y-117274800D01*
X249245500Y-117454800D02*
X249245500Y-117274800D01*
X250245500Y-117454800D02*
X249245500Y-117454800D01*
X250245500Y-117274800D02*
X250245500Y-117454800D01*
X249245500Y-114294800D02*
X249245500Y-114474800D01*
X250245500Y-114294800D02*
X249245500Y-114294800D01*
X250245500Y-114474800D02*
X250245500Y-114294800D01*
X251245500Y-117274800D02*
X251245500Y-114474800D01*
X248245500Y-117274800D02*
X248245500Y-114474800D01*
%TO.C,LD10\u002C3*%
X238847500Y-94662800D02*
X239847500Y-94662800D01*
X240847500Y-94662800D02*
X241847500Y-94662800D01*
X241847500Y-97462800D02*
X240847500Y-97462800D01*
X239847500Y-97462800D02*
X238847500Y-97462800D01*
X239847500Y-97642800D02*
X239847500Y-97462800D01*
X240847500Y-97642800D02*
X239847500Y-97642800D01*
X240847500Y-97462800D02*
X240847500Y-97642800D01*
X239847500Y-94482800D02*
X239847500Y-94662800D01*
X240847500Y-94482800D02*
X239847500Y-94482800D01*
X240847500Y-94662800D02*
X240847500Y-94482800D01*
X241847500Y-97462800D02*
X241847500Y-94662800D01*
X238847500Y-97462800D02*
X238847500Y-94662800D01*
%TO.C,LD11\u002C1*%
X243229000Y-55991300D02*
X244229000Y-55991300D01*
X245229000Y-55991300D02*
X246229000Y-55991300D01*
X246229000Y-58791300D02*
X245229000Y-58791300D01*
X244229000Y-58791300D02*
X243229000Y-58791300D01*
X244229000Y-58971300D02*
X244229000Y-58791300D01*
X245229000Y-58971300D02*
X244229000Y-58971300D01*
X245229000Y-58791300D02*
X245229000Y-58971300D01*
X244229000Y-55811300D02*
X244229000Y-55991300D01*
X245229000Y-55811300D02*
X244229000Y-55811300D01*
X245229000Y-55991300D02*
X245229000Y-55811300D01*
X246229000Y-58791300D02*
X246229000Y-55991300D01*
X243229000Y-58791300D02*
X243229000Y-55991300D01*
%TO.C,LD11\u002C3*%
X258151500Y-94662800D02*
X259151500Y-94662800D01*
X260151500Y-94662800D02*
X261151500Y-94662800D01*
X261151500Y-97462800D02*
X260151500Y-97462800D01*
X259151500Y-97462800D02*
X258151500Y-97462800D01*
X259151500Y-97642800D02*
X259151500Y-97462800D01*
X260151500Y-97642800D02*
X259151500Y-97642800D01*
X260151500Y-97462800D02*
X260151500Y-97642800D01*
X259151500Y-94482800D02*
X259151500Y-94662800D01*
X260151500Y-94482800D02*
X259151500Y-94482800D01*
X260151500Y-94662800D02*
X260151500Y-94482800D01*
X261151500Y-97462800D02*
X261151500Y-94662800D01*
X258151500Y-97462800D02*
X258151500Y-94662800D01*
%TO.C,LD11\u002C0*%
X283932500Y-17827800D02*
X284932500Y-17827800D01*
X285932500Y-17827800D02*
X286932500Y-17827800D01*
X286932500Y-20627800D02*
X285932500Y-20627800D01*
X284932500Y-20627800D02*
X283932500Y-20627800D01*
X284932500Y-20807800D02*
X284932500Y-20627800D01*
X285932500Y-20807800D02*
X284932500Y-20807800D01*
X285932500Y-20627800D02*
X285932500Y-20807800D01*
X284932500Y-17647800D02*
X284932500Y-17827800D01*
X285932500Y-17647800D02*
X284932500Y-17647800D01*
X285932500Y-17827800D02*
X285932500Y-17647800D01*
X286932500Y-20627800D02*
X286932500Y-17827800D01*
X283932500Y-20627800D02*
X283932500Y-17827800D01*
%TO.C,LD11\u002C5*%
X298982000Y-133905800D02*
X299982000Y-133905800D01*
X300982000Y-133905800D02*
X301982000Y-133905800D01*
X301982000Y-136705800D02*
X300982000Y-136705800D01*
X299982000Y-136705800D02*
X298982000Y-136705800D01*
X299982000Y-136885800D02*
X299982000Y-136705800D01*
X300982000Y-136885800D02*
X299982000Y-136885800D01*
X300982000Y-136705800D02*
X300982000Y-136885800D01*
X299982000Y-133725800D02*
X299982000Y-133905800D01*
X300982000Y-133725800D02*
X299982000Y-133725800D01*
X300982000Y-133905800D02*
X300982000Y-133725800D01*
X301982000Y-136705800D02*
X301982000Y-133905800D01*
X298982000Y-136705800D02*
X298982000Y-133905800D01*
%TO.C,LD11\u002C2*%
X253262000Y-75231800D02*
X254262000Y-75231800D01*
X255262000Y-75231800D02*
X256262000Y-75231800D01*
X256262000Y-78031800D02*
X255262000Y-78031800D01*
X254262000Y-78031800D02*
X253262000Y-78031800D01*
X254262000Y-78211800D02*
X254262000Y-78031800D01*
X255262000Y-78211800D02*
X254262000Y-78211800D01*
X255262000Y-78031800D02*
X255262000Y-78211800D01*
X254262000Y-75051800D02*
X254262000Y-75231800D01*
X255262000Y-75051800D02*
X254262000Y-75051800D01*
X255262000Y-75231800D02*
X255262000Y-75051800D01*
X256262000Y-78031800D02*
X256262000Y-75231800D01*
X253262000Y-78031800D02*
X253262000Y-75231800D01*
%TO.C,LD11\u002C4*%
X284631000Y-114474800D02*
X285631000Y-114474800D01*
X286631000Y-114474800D02*
X287631000Y-114474800D01*
X287631000Y-117274800D02*
X286631000Y-117274800D01*
X285631000Y-117274800D02*
X284631000Y-117274800D01*
X285631000Y-117454800D02*
X285631000Y-117274800D01*
X286631000Y-117454800D02*
X285631000Y-117454800D01*
X286631000Y-117274800D02*
X286631000Y-117454800D01*
X285631000Y-114294800D02*
X285631000Y-114474800D01*
X286631000Y-114294800D02*
X285631000Y-114294800D01*
X286631000Y-114474800D02*
X286631000Y-114294800D01*
X287631000Y-117274800D02*
X287631000Y-114474800D01*
X284631000Y-117274800D02*
X284631000Y-114474800D01*
%TO.C,LD12\u002C2*%
X272566000Y-75231800D02*
X273566000Y-75231800D01*
X274566000Y-75231800D02*
X275566000Y-75231800D01*
X275566000Y-78031800D02*
X274566000Y-78031800D01*
X273566000Y-78031800D02*
X272566000Y-78031800D01*
X273566000Y-78211800D02*
X273566000Y-78031800D01*
X274566000Y-78211800D02*
X273566000Y-78211800D01*
X274566000Y-78031800D02*
X274566000Y-78211800D01*
X273566000Y-75051800D02*
X273566000Y-75231800D01*
X274566000Y-75051800D02*
X273566000Y-75051800D01*
X274566000Y-75231800D02*
X274566000Y-75051800D01*
X275566000Y-78031800D02*
X275566000Y-75231800D01*
X272566000Y-78031800D02*
X272566000Y-75231800D01*
%TO.C,LD12\u002C3*%
X289457000Y-96199500D02*
X290457000Y-96199500D01*
X291457000Y-96199500D02*
X292457000Y-96199500D01*
X292457000Y-98999500D02*
X291457000Y-98999500D01*
X290457000Y-98999500D02*
X289457000Y-98999500D01*
X290457000Y-99179500D02*
X290457000Y-98999500D01*
X291457000Y-99179500D02*
X290457000Y-99179500D01*
X291457000Y-98999500D02*
X291457000Y-99179500D01*
X290457000Y-96019500D02*
X290457000Y-96199500D01*
X291457000Y-96019500D02*
X290457000Y-96019500D01*
X291457000Y-96199500D02*
X291457000Y-96019500D01*
X292457000Y-98999500D02*
X292457000Y-96199500D01*
X289457000Y-98999500D02*
X289457000Y-96199500D01*
%TO.C,LD12\u002C1*%
X262533000Y-55991300D02*
X263533000Y-55991300D01*
X264533000Y-55991300D02*
X265533000Y-55991300D01*
X265533000Y-58791300D02*
X264533000Y-58791300D01*
X263533000Y-58791300D02*
X262533000Y-58791300D01*
X263533000Y-58971300D02*
X263533000Y-58791300D01*
X264533000Y-58971300D02*
X263533000Y-58971300D01*
X264533000Y-58791300D02*
X264533000Y-58971300D01*
X263533000Y-55811300D02*
X263533000Y-55991300D01*
X264533000Y-55811300D02*
X263533000Y-55811300D01*
X264533000Y-55991300D02*
X264533000Y-55811300D01*
X265533000Y-58791300D02*
X265533000Y-55991300D01*
X262533000Y-58791300D02*
X262533000Y-55991300D01*
%TO.C,LD12\u002C0*%
X303236500Y-17827800D02*
X304236500Y-17827800D01*
X305236500Y-17827800D02*
X306236500Y-17827800D01*
X306236500Y-20627800D02*
X305236500Y-20627800D01*
X304236500Y-20627800D02*
X303236500Y-20627800D01*
X304236500Y-20807800D02*
X304236500Y-20627800D01*
X305236500Y-20807800D02*
X304236500Y-20807800D01*
X305236500Y-20627800D02*
X305236500Y-20807800D01*
X304236500Y-17647800D02*
X304236500Y-17827800D01*
X305236500Y-17647800D02*
X304236500Y-17647800D01*
X305236500Y-17827800D02*
X305236500Y-17647800D01*
X306236500Y-20627800D02*
X306236500Y-17827800D01*
X303236500Y-20627800D02*
X303236500Y-17827800D01*
%TO.C,LD13\u002C2*%
X297521500Y-75295300D02*
X298521500Y-75295300D01*
X299521500Y-75295300D02*
X300521500Y-75295300D01*
X300521500Y-78095300D02*
X299521500Y-78095300D01*
X298521500Y-78095300D02*
X297521500Y-78095300D01*
X298521500Y-78275300D02*
X298521500Y-78095300D01*
X299521500Y-78275300D02*
X298521500Y-78275300D01*
X299521500Y-78095300D02*
X299521500Y-78275300D01*
X298521500Y-75115300D02*
X298521500Y-75295300D01*
X299521500Y-75115300D02*
X298521500Y-75115300D01*
X299521500Y-75295300D02*
X299521500Y-75115300D01*
X300521500Y-78095300D02*
X300521500Y-75295300D01*
X297521500Y-78095300D02*
X297521500Y-75295300D01*
%TO.C,LD13\u002C1*%
X291298500Y-55991300D02*
X292298500Y-55991300D01*
X293298500Y-55991300D02*
X294298500Y-55991300D01*
X294298500Y-58791300D02*
X293298500Y-58791300D01*
X292298500Y-58791300D02*
X291298500Y-58791300D01*
X292298500Y-58971300D02*
X292298500Y-58791300D01*
X293298500Y-58971300D02*
X292298500Y-58971300D01*
X293298500Y-58791300D02*
X293298500Y-58971300D01*
X292298500Y-55811300D02*
X292298500Y-55991300D01*
X293298500Y-55811300D02*
X292298500Y-55811300D01*
X293298500Y-55991300D02*
X293298500Y-55811300D01*
X294298500Y-58791300D02*
X294298500Y-55991300D01*
X291298500Y-58791300D02*
X291298500Y-55991300D01*
%TO.C,LD14\u002C6*%
X329525500Y-133778800D02*
X330525500Y-133778800D01*
X331525500Y-133778800D02*
X332525500Y-133778800D01*
X332525500Y-136578800D02*
X331525500Y-136578800D01*
X330525500Y-136578800D02*
X329525500Y-136578800D01*
X330525500Y-136758800D02*
X330525500Y-136578800D01*
X331525500Y-136758800D02*
X330525500Y-136758800D01*
X331525500Y-136578800D02*
X331525500Y-136758800D01*
X330525500Y-133598800D02*
X330525500Y-133778800D01*
X331525500Y-133598800D02*
X330525500Y-133598800D01*
X331525500Y-133778800D02*
X331525500Y-133598800D01*
X332525500Y-136578800D02*
X332525500Y-133778800D01*
X329525500Y-136578800D02*
X329525500Y-133778800D01*
%TO.C,LD14\u002C0*%
X332700500Y-17827800D02*
X333700500Y-17827800D01*
X334700500Y-17827800D02*
X335700500Y-17827800D01*
X335700500Y-20627800D02*
X334700500Y-20627800D01*
X333700500Y-20627800D02*
X332700500Y-20627800D01*
X333700500Y-20807800D02*
X333700500Y-20627800D01*
X334700500Y-20807800D02*
X333700500Y-20807800D01*
X334700500Y-20627800D02*
X334700500Y-20807800D01*
X333700500Y-17647800D02*
X333700500Y-17827800D01*
X334700500Y-17647800D02*
X333700500Y-17647800D01*
X334700500Y-17827800D02*
X334700500Y-17647800D01*
X335700500Y-20627800D02*
X335700500Y-17827800D01*
X332700500Y-20627800D02*
X332700500Y-17827800D01*
%TO.C,LD14\u002C3*%
X329589000Y-75231800D02*
X330589000Y-75231800D01*
X331589000Y-75231800D02*
X332589000Y-75231800D01*
X332589000Y-78031800D02*
X331589000Y-78031800D01*
X330589000Y-78031800D02*
X329589000Y-78031800D01*
X330589000Y-78211800D02*
X330589000Y-78031800D01*
X331589000Y-78211800D02*
X330589000Y-78211800D01*
X331589000Y-78031800D02*
X331589000Y-78211800D01*
X330589000Y-75051800D02*
X330589000Y-75231800D01*
X331589000Y-75051800D02*
X330589000Y-75051800D01*
X331589000Y-75231800D02*
X331589000Y-75051800D01*
X332589000Y-78031800D02*
X332589000Y-75231800D01*
X329589000Y-78031800D02*
X329589000Y-75231800D01*
%TO.C,LD14\u002C1*%
X329589000Y-55991300D02*
X330589000Y-55991300D01*
X331589000Y-55991300D02*
X332589000Y-55991300D01*
X332589000Y-58791300D02*
X331589000Y-58791300D01*
X330589000Y-58791300D02*
X329589000Y-58791300D01*
X330589000Y-58971300D02*
X330589000Y-58791300D01*
X331589000Y-58971300D02*
X330589000Y-58971300D01*
X331589000Y-58791300D02*
X331589000Y-58971300D01*
X330589000Y-55811300D02*
X330589000Y-55991300D01*
X331589000Y-55811300D02*
X330589000Y-55811300D01*
X331589000Y-55991300D02*
X331589000Y-55811300D01*
X332589000Y-58791300D02*
X332589000Y-55991300D01*
X329589000Y-58791300D02*
X329589000Y-55991300D01*
%TO.C,LD15\u002C1*%
X348893000Y-55991300D02*
X349893000Y-55991300D01*
X350893000Y-55991300D02*
X351893000Y-55991300D01*
X351893000Y-58791300D02*
X350893000Y-58791300D01*
X349893000Y-58791300D02*
X348893000Y-58791300D01*
X349893000Y-58971300D02*
X349893000Y-58791300D01*
X350893000Y-58971300D02*
X349893000Y-58971300D01*
X350893000Y-58791300D02*
X350893000Y-58971300D01*
X349893000Y-55811300D02*
X349893000Y-55991300D01*
X350893000Y-55811300D02*
X349893000Y-55811300D01*
X350893000Y-55991300D02*
X350893000Y-55811300D01*
X351893000Y-58791300D02*
X351893000Y-55991300D01*
X348893000Y-58791300D02*
X348893000Y-55991300D01*
%TO.C,LD15\u002C3*%
X348893000Y-75231800D02*
X349893000Y-75231800D01*
X350893000Y-75231800D02*
X351893000Y-75231800D01*
X351893000Y-78031800D02*
X350893000Y-78031800D01*
X349893000Y-78031800D02*
X348893000Y-78031800D01*
X349893000Y-78211800D02*
X349893000Y-78031800D01*
X350893000Y-78211800D02*
X349893000Y-78211800D01*
X350893000Y-78031800D02*
X350893000Y-78211800D01*
X349893000Y-75051800D02*
X349893000Y-75231800D01*
X350893000Y-75051800D02*
X349893000Y-75051800D01*
X350893000Y-75231800D02*
X350893000Y-75051800D01*
X351893000Y-78031800D02*
X351893000Y-75231800D01*
X348893000Y-78031800D02*
X348893000Y-75231800D01*
%TO.C,LD15\u002C6*%
X348829500Y-133778800D02*
X349829500Y-133778800D01*
X350829500Y-133778800D02*
X351829500Y-133778800D01*
X351829500Y-136578800D02*
X350829500Y-136578800D01*
X349829500Y-136578800D02*
X348829500Y-136578800D01*
X349829500Y-136758800D02*
X349829500Y-136578800D01*
X350829500Y-136758800D02*
X349829500Y-136758800D01*
X350829500Y-136578800D02*
X350829500Y-136758800D01*
X349829500Y-133598800D02*
X349829500Y-133778800D01*
X350829500Y-133598800D02*
X349829500Y-133598800D01*
X350829500Y-133778800D02*
X350829500Y-133598800D01*
X351829500Y-136578800D02*
X351829500Y-133778800D01*
X348829500Y-136578800D02*
X348829500Y-133778800D01*
%TO.C,LD15\u002C5*%
X348829500Y-114424000D02*
X349829500Y-114424000D01*
X350829500Y-114424000D02*
X351829500Y-114424000D01*
X351829500Y-117224000D02*
X350829500Y-117224000D01*
X349829500Y-117224000D02*
X348829500Y-117224000D01*
X349829500Y-117404000D02*
X349829500Y-117224000D01*
X350829500Y-117404000D02*
X349829500Y-117404000D01*
X350829500Y-117224000D02*
X350829500Y-117404000D01*
X349829500Y-114244000D02*
X349829500Y-114424000D01*
X350829500Y-114244000D02*
X349829500Y-114244000D01*
X350829500Y-114424000D02*
X350829500Y-114244000D01*
X351829500Y-117224000D02*
X351829500Y-114424000D01*
X348829500Y-117224000D02*
X348829500Y-114424000D01*
%TO.C,LD15\u002C0*%
X352258500Y-17827800D02*
X353258500Y-17827800D01*
X354258500Y-17827800D02*
X355258500Y-17827800D01*
X355258500Y-20627800D02*
X354258500Y-20627800D01*
X353258500Y-20627800D02*
X352258500Y-20627800D01*
X353258500Y-20807800D02*
X353258500Y-20627800D01*
X354258500Y-20807800D02*
X353258500Y-20807800D01*
X354258500Y-20627800D02*
X354258500Y-20807800D01*
X353258500Y-17647800D02*
X353258500Y-17827800D01*
X354258500Y-17647800D02*
X353258500Y-17647800D01*
X354258500Y-17827800D02*
X354258500Y-17647800D01*
X355258500Y-20627800D02*
X355258500Y-17827800D01*
X352258500Y-20627800D02*
X352258500Y-17827800D01*
%TO.C,LD16\u002C4*%
X401217000Y-94662800D02*
X402217000Y-94662800D01*
X403217000Y-94662800D02*
X404217000Y-94662800D01*
X404217000Y-97462800D02*
X403217000Y-97462800D01*
X402217000Y-97462800D02*
X401217000Y-97462800D01*
X402217000Y-97642800D02*
X402217000Y-97462800D01*
X403217000Y-97642800D02*
X402217000Y-97642800D01*
X403217000Y-97462800D02*
X403217000Y-97642800D01*
X402217000Y-94482800D02*
X402217000Y-94662800D01*
X403217000Y-94482800D02*
X402217000Y-94482800D01*
X403217000Y-94662800D02*
X403217000Y-94482800D01*
X404217000Y-97462800D02*
X404217000Y-94662800D01*
X401217000Y-97462800D02*
X401217000Y-94662800D01*
%TO.C,LD16\u002C0*%
X371562500Y-17827800D02*
X372562500Y-17827800D01*
X373562500Y-17827800D02*
X374562500Y-17827800D01*
X374562500Y-20627800D02*
X373562500Y-20627800D01*
X372562500Y-20627800D02*
X371562500Y-20627800D01*
X372562500Y-20807800D02*
X372562500Y-20627800D01*
X373562500Y-20807800D02*
X372562500Y-20807800D01*
X373562500Y-20627800D02*
X373562500Y-20807800D01*
X372562500Y-17647800D02*
X372562500Y-17827800D01*
X373562500Y-17647800D02*
X372562500Y-17647800D01*
X373562500Y-17827800D02*
X373562500Y-17647800D01*
X374562500Y-20627800D02*
X374562500Y-17827800D01*
X371562500Y-20627800D02*
X371562500Y-17827800D01*
%TO.C,LD16\u002C6*%
X368133500Y-133778800D02*
X369133500Y-133778800D01*
X370133500Y-133778800D02*
X371133500Y-133778800D01*
X371133500Y-136578800D02*
X370133500Y-136578800D01*
X369133500Y-136578800D02*
X368133500Y-136578800D01*
X369133500Y-136758800D02*
X369133500Y-136578800D01*
X370133500Y-136758800D02*
X369133500Y-136758800D01*
X370133500Y-136578800D02*
X370133500Y-136758800D01*
X369133500Y-133598800D02*
X369133500Y-133778800D01*
X370133500Y-133598800D02*
X369133500Y-133598800D01*
X370133500Y-133778800D02*
X370133500Y-133598800D01*
X371133500Y-136578800D02*
X371133500Y-133778800D01*
X368133500Y-136578800D02*
X368133500Y-133778800D01*
%TO.C,LD16\u002C1*%
X368275200Y-56346599D02*
X369275200Y-56346599D01*
X370275200Y-56346599D02*
X371275200Y-56346599D01*
X371275200Y-59146599D02*
X370275200Y-59146599D01*
X369275200Y-59146599D02*
X368275200Y-59146599D01*
X369275200Y-59326599D02*
X369275200Y-59146599D01*
X370275200Y-59326599D02*
X369275200Y-59326599D01*
X370275200Y-59146599D02*
X370275200Y-59326599D01*
X369275200Y-56166599D02*
X369275200Y-56346599D01*
X370275200Y-56166599D02*
X369275200Y-56166599D01*
X370275200Y-56346599D02*
X370275200Y-56166599D01*
X371275200Y-59146599D02*
X371275200Y-56346599D01*
X368275200Y-59146599D02*
X368275200Y-56346599D01*
%TO.C,LD16\u002C3*%
X368197000Y-75231800D02*
X369197000Y-75231800D01*
X370197000Y-75231800D02*
X371197000Y-75231800D01*
X371197000Y-78031800D02*
X370197000Y-78031800D01*
X369197000Y-78031800D02*
X368197000Y-78031800D01*
X369197000Y-78211800D02*
X369197000Y-78031800D01*
X370197000Y-78211800D02*
X369197000Y-78211800D01*
X370197000Y-78031800D02*
X370197000Y-78211800D01*
X369197000Y-75051800D02*
X369197000Y-75231800D01*
X370197000Y-75051800D02*
X369197000Y-75051800D01*
X370197000Y-75231800D02*
X370197000Y-75051800D01*
X371197000Y-78031800D02*
X371197000Y-75231800D01*
X368197000Y-78031800D02*
X368197000Y-75231800D01*
%TO.C,LD16\u002C5*%
X401471000Y-113966800D02*
X402471000Y-113966800D01*
X403471000Y-113966800D02*
X404471000Y-113966800D01*
X404471000Y-116766800D02*
X403471000Y-116766800D01*
X402471000Y-116766800D02*
X401471000Y-116766800D01*
X402471000Y-116946800D02*
X402471000Y-116766800D01*
X403471000Y-116946800D02*
X402471000Y-116946800D01*
X403471000Y-116766800D02*
X403471000Y-116946800D01*
X402471000Y-113786800D02*
X402471000Y-113966800D01*
X403471000Y-113786800D02*
X402471000Y-113786800D01*
X403471000Y-113966800D02*
X403471000Y-113786800D01*
X404471000Y-116766800D02*
X404471000Y-113966800D01*
X401471000Y-116766800D02*
X401471000Y-113966800D01*
%TO.C,LD17\u002C7*%
X401090000Y-43354800D02*
X402090000Y-43354800D01*
X403090000Y-43354800D02*
X404090000Y-43354800D01*
X404090000Y-46154800D02*
X403090000Y-46154800D01*
X402090000Y-46154800D02*
X401090000Y-46154800D01*
X402090000Y-46334800D02*
X402090000Y-46154800D01*
X403090000Y-46334800D02*
X402090000Y-46334800D01*
X403090000Y-46154800D02*
X403090000Y-46334800D01*
X402090000Y-43174800D02*
X402090000Y-43354800D01*
X403090000Y-43174800D02*
X402090000Y-43174800D01*
X403090000Y-43354800D02*
X403090000Y-43174800D01*
X404090000Y-46154800D02*
X404090000Y-43354800D01*
X401090000Y-46154800D02*
X401090000Y-43354800D01*
%TO.C,LD17\u002C0*%
X401090000Y-17954800D02*
X402090000Y-17954800D01*
X403090000Y-17954800D02*
X404090000Y-17954800D01*
X404090000Y-20754800D02*
X403090000Y-20754800D01*
X402090000Y-20754800D02*
X401090000Y-20754800D01*
X402090000Y-20934800D02*
X402090000Y-20754800D01*
X403090000Y-20934800D02*
X402090000Y-20934800D01*
X403090000Y-20754800D02*
X403090000Y-20934800D01*
X402090000Y-17774800D02*
X402090000Y-17954800D01*
X403090000Y-17774800D02*
X402090000Y-17774800D01*
X403090000Y-17954800D02*
X403090000Y-17774800D01*
X404090000Y-20754800D02*
X404090000Y-17954800D01*
X401090000Y-20754800D02*
X401090000Y-17954800D01*
%TO.C,LD17\u002C1*%
X401217000Y-55991300D02*
X402217000Y-55991300D01*
X403217000Y-55991300D02*
X404217000Y-55991300D01*
X404217000Y-58791300D02*
X403217000Y-58791300D01*
X402217000Y-58791300D02*
X401217000Y-58791300D01*
X402217000Y-58971300D02*
X402217000Y-58791300D01*
X403217000Y-58971300D02*
X402217000Y-58971300D01*
X403217000Y-58791300D02*
X403217000Y-58971300D01*
X402217000Y-55811300D02*
X402217000Y-55991300D01*
X403217000Y-55811300D02*
X402217000Y-55811300D01*
X403217000Y-55991300D02*
X403217000Y-55811300D01*
X404217000Y-58791300D02*
X404217000Y-55991300D01*
X401217000Y-58791300D02*
X401217000Y-55991300D01*
%TO.C,LD17\u002C5*%
X420521000Y-113966800D02*
X421521000Y-113966800D01*
X422521000Y-113966800D02*
X423521000Y-113966800D01*
X423521000Y-116766800D02*
X422521000Y-116766800D01*
X421521000Y-116766800D02*
X420521000Y-116766800D01*
X421521000Y-116946800D02*
X421521000Y-116766800D01*
X422521000Y-116946800D02*
X421521000Y-116946800D01*
X422521000Y-116766800D02*
X422521000Y-116946800D01*
X421521000Y-113786800D02*
X421521000Y-113966800D01*
X422521000Y-113786800D02*
X421521000Y-113786800D01*
X422521000Y-113966800D02*
X422521000Y-113786800D01*
X423521000Y-116766800D02*
X423521000Y-113966800D01*
X420521000Y-116766800D02*
X420521000Y-113966800D01*
%TO.C,LD17\u002C6*%
X410996000Y-133270800D02*
X411996000Y-133270800D01*
X412996000Y-133270800D02*
X413996000Y-133270800D01*
X413996000Y-136070800D02*
X412996000Y-136070800D01*
X411996000Y-136070800D02*
X410996000Y-136070800D01*
X411996000Y-136250800D02*
X411996000Y-136070800D01*
X412996000Y-136250800D02*
X411996000Y-136250800D01*
X412996000Y-136070800D02*
X412996000Y-136250800D01*
X411996000Y-133090800D02*
X411996000Y-133270800D01*
X412996000Y-133090800D02*
X411996000Y-133090800D01*
X412996000Y-133270800D02*
X412996000Y-133090800D01*
X413996000Y-136070800D02*
X413996000Y-133270800D01*
X410996000Y-136070800D02*
X410996000Y-133270800D01*
%TO.C,LD17\u002C3*%
X401217000Y-75358800D02*
X402217000Y-75358800D01*
X403217000Y-75358800D02*
X404217000Y-75358800D01*
X404217000Y-78158800D02*
X403217000Y-78158800D01*
X402217000Y-78158800D02*
X401217000Y-78158800D01*
X402217000Y-78338800D02*
X402217000Y-78158800D01*
X403217000Y-78338800D02*
X402217000Y-78338800D01*
X403217000Y-78158800D02*
X403217000Y-78338800D01*
X402217000Y-75178800D02*
X402217000Y-75358800D01*
X403217000Y-75178800D02*
X402217000Y-75178800D01*
X403217000Y-75358800D02*
X403217000Y-75178800D01*
X404217000Y-78158800D02*
X404217000Y-75358800D01*
X401217000Y-78158800D02*
X401217000Y-75358800D01*
%TO.C,LD17\u002C4*%
X420521000Y-94662800D02*
X421521000Y-94662800D01*
X422521000Y-94662800D02*
X423521000Y-94662800D01*
X423521000Y-97462800D02*
X422521000Y-97462800D01*
X421521000Y-97462800D02*
X420521000Y-97462800D01*
X421521000Y-97642800D02*
X421521000Y-97462800D01*
X422521000Y-97642800D02*
X421521000Y-97642800D01*
X422521000Y-97462800D02*
X422521000Y-97642800D01*
X421521000Y-94482800D02*
X421521000Y-94662800D01*
X422521000Y-94482800D02*
X421521000Y-94482800D01*
X422521000Y-94662800D02*
X422521000Y-94482800D01*
X423521000Y-97462800D02*
X423521000Y-94662800D01*
X420521000Y-97462800D02*
X420521000Y-94662800D01*
%TO.C,LD18\u002C6*%
X439825000Y-133270800D02*
X440825000Y-133270800D01*
X441825000Y-133270800D02*
X442825000Y-133270800D01*
X442825000Y-136070800D02*
X441825000Y-136070800D01*
X440825000Y-136070800D02*
X439825000Y-136070800D01*
X440825000Y-136250800D02*
X440825000Y-136070800D01*
X441825000Y-136250800D02*
X440825000Y-136250800D01*
X441825000Y-136070800D02*
X441825000Y-136250800D01*
X440825000Y-133090800D02*
X440825000Y-133270800D01*
X441825000Y-133090800D02*
X440825000Y-133090800D01*
X441825000Y-133270800D02*
X441825000Y-133090800D01*
X442825000Y-136070800D02*
X442825000Y-133270800D01*
X439825000Y-136070800D02*
X439825000Y-133270800D01*
%TO.C,LD18\u002C1*%
X420521000Y-55991300D02*
X421521000Y-55991300D01*
X422521000Y-55991300D02*
X423521000Y-55991300D01*
X423521000Y-58791300D02*
X422521000Y-58791300D01*
X421521000Y-58791300D02*
X420521000Y-58791300D01*
X421521000Y-58971300D02*
X421521000Y-58791300D01*
X422521000Y-58971300D02*
X421521000Y-58971300D01*
X422521000Y-58791300D02*
X422521000Y-58971300D01*
X421521000Y-55811300D02*
X421521000Y-55991300D01*
X422521000Y-55811300D02*
X421521000Y-55811300D01*
X422521000Y-55991300D02*
X422521000Y-55811300D01*
X423521000Y-58791300D02*
X423521000Y-55991300D01*
X420521000Y-58791300D02*
X420521000Y-55991300D01*
%TO.C,LD18\u002C7*%
X420711500Y-43304000D02*
X421711500Y-43304000D01*
X422711500Y-43304000D02*
X423711500Y-43304000D01*
X423711500Y-46104000D02*
X422711500Y-46104000D01*
X421711500Y-46104000D02*
X420711500Y-46104000D01*
X421711500Y-46284000D02*
X421711500Y-46104000D01*
X422711500Y-46284000D02*
X421711500Y-46284000D01*
X422711500Y-46104000D02*
X422711500Y-46284000D01*
X421711500Y-43124000D02*
X421711500Y-43304000D01*
X422711500Y-43124000D02*
X421711500Y-43124000D01*
X422711500Y-43304000D02*
X422711500Y-43124000D01*
X423711500Y-46104000D02*
X423711500Y-43304000D01*
X420711500Y-46104000D02*
X420711500Y-43304000D01*
%TO.C,LD18\u002C5*%
X439825000Y-113966800D02*
X440825000Y-113966800D01*
X441825000Y-113966800D02*
X442825000Y-113966800D01*
X442825000Y-116766800D02*
X441825000Y-116766800D01*
X440825000Y-116766800D02*
X439825000Y-116766800D01*
X440825000Y-116946800D02*
X440825000Y-116766800D01*
X441825000Y-116946800D02*
X440825000Y-116946800D01*
X441825000Y-116766800D02*
X441825000Y-116946800D01*
X440825000Y-113786800D02*
X440825000Y-113966800D01*
X441825000Y-113786800D02*
X440825000Y-113786800D01*
X441825000Y-113966800D02*
X441825000Y-113786800D01*
X442825000Y-116766800D02*
X442825000Y-113966800D01*
X439825000Y-116766800D02*
X439825000Y-113966800D01*
%TO.C,LD18\u002C4*%
X439825000Y-94599300D02*
X440825000Y-94599300D01*
X441825000Y-94599300D02*
X442825000Y-94599300D01*
X442825000Y-97399300D02*
X441825000Y-97399300D01*
X440825000Y-97399300D02*
X439825000Y-97399300D01*
X440825000Y-97579300D02*
X440825000Y-97399300D01*
X441825000Y-97579300D02*
X440825000Y-97579300D01*
X441825000Y-97399300D02*
X441825000Y-97579300D01*
X440825000Y-94419300D02*
X440825000Y-94599300D01*
X441825000Y-94419300D02*
X440825000Y-94419300D01*
X441825000Y-94599300D02*
X441825000Y-94419300D01*
X442825000Y-97399300D02*
X442825000Y-94599300D01*
X439825000Y-97399300D02*
X439825000Y-94599300D01*
%TO.C,LD18\u002C3*%
X420521000Y-75358800D02*
X421521000Y-75358800D01*
X422521000Y-75358800D02*
X423521000Y-75358800D01*
X423521000Y-78158800D02*
X422521000Y-78158800D01*
X421521000Y-78158800D02*
X420521000Y-78158800D01*
X421521000Y-78338800D02*
X421521000Y-78158800D01*
X422521000Y-78338800D02*
X421521000Y-78338800D01*
X422521000Y-78158800D02*
X422521000Y-78338800D01*
X421521000Y-75178800D02*
X421521000Y-75358800D01*
X422521000Y-75178800D02*
X421521000Y-75178800D01*
X422521000Y-75358800D02*
X422521000Y-75178800D01*
X423521000Y-78158800D02*
X423521000Y-75358800D01*
X420521000Y-78158800D02*
X420521000Y-75358800D01*
%TO.C,LD18\u002C0*%
X420394000Y-17954800D02*
X421394000Y-17954800D01*
X422394000Y-17954800D02*
X423394000Y-17954800D01*
X423394000Y-20754800D02*
X422394000Y-20754800D01*
X421394000Y-20754800D02*
X420394000Y-20754800D01*
X421394000Y-20934800D02*
X421394000Y-20754800D01*
X422394000Y-20934800D02*
X421394000Y-20934800D01*
X422394000Y-20754800D02*
X422394000Y-20934800D01*
X421394000Y-17774800D02*
X421394000Y-17954800D01*
X422394000Y-17774800D02*
X421394000Y-17774800D01*
X422394000Y-17954800D02*
X422394000Y-17774800D01*
X423394000Y-20754800D02*
X423394000Y-17954800D01*
X420394000Y-20754800D02*
X420394000Y-17954800D01*
%TO.C,LD19\u002C7*%
X440015500Y-43304000D02*
X441015500Y-43304000D01*
X442015500Y-43304000D02*
X443015500Y-43304000D01*
X443015500Y-46104000D02*
X442015500Y-46104000D01*
X441015500Y-46104000D02*
X440015500Y-46104000D01*
X441015500Y-46284000D02*
X441015500Y-46104000D01*
X442015500Y-46284000D02*
X441015500Y-46284000D01*
X442015500Y-46104000D02*
X442015500Y-46284000D01*
X441015500Y-43124000D02*
X441015500Y-43304000D01*
X442015500Y-43124000D02*
X441015500Y-43124000D01*
X442015500Y-43304000D02*
X442015500Y-43124000D01*
X443015500Y-46104000D02*
X443015500Y-43304000D01*
X440015500Y-46104000D02*
X440015500Y-43304000D01*
%TO.C,LD19\u002C0*%
X439816200Y-18040099D02*
X440816200Y-18040099D01*
X441816200Y-18040099D02*
X442816200Y-18040099D01*
X442816200Y-20840099D02*
X441816200Y-20840099D01*
X440816200Y-20840099D02*
X439816200Y-20840099D01*
X440816200Y-21020099D02*
X440816200Y-20840099D01*
X441816200Y-21020099D02*
X440816200Y-21020099D01*
X441816200Y-20840099D02*
X441816200Y-21020099D01*
X440816200Y-17860099D02*
X440816200Y-18040099D01*
X441816200Y-17860099D02*
X440816200Y-17860099D01*
X441816200Y-18040099D02*
X441816200Y-17860099D01*
X442816200Y-20840099D02*
X442816200Y-18040099D01*
X439816200Y-20840099D02*
X439816200Y-18040099D01*
%TO.C,LD19\u002C1*%
X439825000Y-56499300D02*
X440825000Y-56499300D01*
X441825000Y-56499300D02*
X442825000Y-56499300D01*
X442825000Y-59299300D02*
X441825000Y-59299300D01*
X440825000Y-59299300D02*
X439825000Y-59299300D01*
X440825000Y-59479300D02*
X440825000Y-59299300D01*
X441825000Y-59479300D02*
X440825000Y-59479300D01*
X441825000Y-59299300D02*
X441825000Y-59479300D01*
X440825000Y-56319300D02*
X440825000Y-56499300D01*
X441825000Y-56319300D02*
X440825000Y-56319300D01*
X441825000Y-56499300D02*
X441825000Y-56319300D01*
X442825000Y-59299300D02*
X442825000Y-56499300D01*
X439825000Y-59299300D02*
X439825000Y-56499300D01*
%TO.C,LD19\u002C4*%
X459129000Y-85137800D02*
X460129000Y-85137800D01*
X461129000Y-85137800D02*
X462129000Y-85137800D01*
X462129000Y-87937800D02*
X461129000Y-87937800D01*
X460129000Y-87937800D02*
X459129000Y-87937800D01*
X460129000Y-88117800D02*
X460129000Y-87937800D01*
X461129000Y-88117800D02*
X460129000Y-88117800D01*
X461129000Y-87937800D02*
X461129000Y-88117800D01*
X460129000Y-84957800D02*
X460129000Y-85137800D01*
X461129000Y-84957800D02*
X460129000Y-84957800D01*
X461129000Y-85137800D02*
X461129000Y-84957800D01*
X462129000Y-87937800D02*
X462129000Y-85137800D01*
X459129000Y-87937800D02*
X459129000Y-85137800D01*
%TO.C,LD19\u002C3*%
X439825000Y-75358800D02*
X440825000Y-75358800D01*
X441825000Y-75358800D02*
X442825000Y-75358800D01*
X442825000Y-78158800D02*
X441825000Y-78158800D01*
X440825000Y-78158800D02*
X439825000Y-78158800D01*
X440825000Y-78338800D02*
X440825000Y-78158800D01*
X441825000Y-78338800D02*
X440825000Y-78338800D01*
X441825000Y-78158800D02*
X441825000Y-78338800D01*
X440825000Y-75178800D02*
X440825000Y-75358800D01*
X441825000Y-75178800D02*
X440825000Y-75178800D01*
X441825000Y-75358800D02*
X441825000Y-75178800D01*
X442825000Y-78158800D02*
X442825000Y-75358800D01*
X439825000Y-78158800D02*
X439825000Y-75358800D01*
%TO.C,LD19\u002C6*%
X459383000Y-125650800D02*
X460383000Y-125650800D01*
X461383000Y-125650800D02*
X462383000Y-125650800D01*
X462383000Y-128450800D02*
X461383000Y-128450800D01*
X460383000Y-128450800D02*
X459383000Y-128450800D01*
X460383000Y-128630800D02*
X460383000Y-128450800D01*
X461383000Y-128630800D02*
X460383000Y-128630800D01*
X461383000Y-128450800D02*
X461383000Y-128630800D01*
X460383000Y-125470800D02*
X460383000Y-125650800D01*
X461383000Y-125470800D02*
X460383000Y-125470800D01*
X461383000Y-125650800D02*
X461383000Y-125470800D01*
X462383000Y-128450800D02*
X462383000Y-125650800D01*
X459383000Y-128450800D02*
X459383000Y-125650800D01*
%TO.C,LD20\u002C1*%
X459129000Y-55991300D02*
X460129000Y-55991300D01*
X461129000Y-55991300D02*
X462129000Y-55991300D01*
X462129000Y-58791300D02*
X461129000Y-58791300D01*
X460129000Y-58791300D02*
X459129000Y-58791300D01*
X460129000Y-58971300D02*
X460129000Y-58791300D01*
X461129000Y-58971300D02*
X460129000Y-58971300D01*
X461129000Y-58791300D02*
X461129000Y-58971300D01*
X460129000Y-55811300D02*
X460129000Y-55991300D01*
X461129000Y-55811300D02*
X460129000Y-55811300D01*
X461129000Y-55991300D02*
X461129000Y-55811300D01*
X462129000Y-58791300D02*
X462129000Y-55991300D01*
X459129000Y-58791300D02*
X459129000Y-55991300D01*
%TO.C,LD20\u002C0*%
X459002000Y-17954800D02*
X460002000Y-17954800D01*
X461002000Y-17954800D02*
X462002000Y-17954800D01*
X462002000Y-20754800D02*
X461002000Y-20754800D01*
X460002000Y-20754800D02*
X459002000Y-20754800D01*
X460002000Y-20934800D02*
X460002000Y-20754800D01*
X461002000Y-20934800D02*
X460002000Y-20934800D01*
X461002000Y-20754800D02*
X461002000Y-20934800D01*
X460002000Y-17774800D02*
X460002000Y-17954800D01*
X461002000Y-17774800D02*
X460002000Y-17774800D01*
X461002000Y-17954800D02*
X461002000Y-17774800D01*
X462002000Y-20754800D02*
X462002000Y-17954800D01*
X459002000Y-20754800D02*
X459002000Y-17954800D01*
%TO.C,LD20\u002C7*%
X459319500Y-43354800D02*
X460319500Y-43354800D01*
X461319500Y-43354800D02*
X462319500Y-43354800D01*
X462319500Y-46154800D02*
X461319500Y-46154800D01*
X460319500Y-46154800D02*
X459319500Y-46154800D01*
X460319500Y-46334800D02*
X460319500Y-46154800D01*
X461319500Y-46334800D02*
X460319500Y-46334800D01*
X461319500Y-46154800D02*
X461319500Y-46334800D01*
X460319500Y-43174800D02*
X460319500Y-43354800D01*
X461319500Y-43174800D02*
X460319500Y-43174800D01*
X461319500Y-43354800D02*
X461319500Y-43174800D01*
X462319500Y-46154800D02*
X462319500Y-43354800D01*
X459319500Y-46154800D02*
X459319500Y-43354800D01*
%TO.C,K0\u002C2*%
X30532500Y-90714400D02*
X45032500Y-90714400D01*
X30532500Y-76214400D02*
X30532500Y-90714400D01*
X45032500Y-76214400D02*
X30532500Y-76214400D01*
X45032500Y-90714400D02*
X45032500Y-76214400D01*
%TO.C,K18\u002C4*%
X434075000Y-110107300D02*
X448575000Y-110107300D01*
X434075000Y-95607300D02*
X434075000Y-110107300D01*
X448575000Y-95607300D02*
X434075000Y-95607300D01*
X448575000Y-110107300D02*
X448575000Y-95607300D01*
%TO.C,K10\u002C3*%
X233097500Y-110170800D02*
X247597500Y-110170800D01*
X233097500Y-95670800D02*
X233097500Y-110170800D01*
X247597500Y-95670800D02*
X233097500Y-95670800D01*
X247597500Y-110170800D02*
X247597500Y-95670800D01*
%TO.C,K13\u002C1*%
X285548500Y-71448500D02*
X300048500Y-71448500D01*
X285548500Y-56948500D02*
X285548500Y-71448500D01*
X300048500Y-56948500D02*
X285548500Y-56948500D01*
X300048500Y-71448500D02*
X300048500Y-56948500D01*
%TO.C,K19\u002C4*%
X453379000Y-100391800D02*
X467879000Y-100391800D01*
X453379000Y-85891800D02*
X453379000Y-100391800D01*
X467879000Y-85891800D02*
X453379000Y-85891800D01*
X467879000Y-100391800D02*
X467879000Y-85891800D01*
%TO.C,K11\u002C4*%
X278881000Y-129932000D02*
X293381000Y-129932000D01*
X278881000Y-115432000D02*
X278881000Y-129932000D01*
X293381000Y-115432000D02*
X278881000Y-115432000D01*
X293381000Y-129932000D02*
X293381000Y-115432000D01*
%TO.C,C6*%
X365276000Y-99160000D02*
X365276000Y-100010000D01*
X368276000Y-99160000D02*
X365276000Y-99160000D01*
X368276000Y-100010000D02*
X368276000Y-99160000D01*
X365276000Y-100010000D02*
X362526000Y-100010000D01*
X371026000Y-100010000D02*
X368276000Y-100010000D01*
X371026000Y-100010000D02*
X372176000Y-101160000D01*
X362526000Y-100010000D02*
X361376000Y-101160000D01*
X372176000Y-101160000D02*
X372176000Y-110810000D01*
X361376000Y-101160000D02*
X361376000Y-110810000D01*
X365276000Y-110810000D02*
X361376000Y-110810000D01*
X365276000Y-111660000D02*
X365276000Y-110810000D01*
X368276000Y-111660000D02*
X365276000Y-111660000D01*
X368276000Y-110810000D02*
X368276000Y-111660000D01*
X372176000Y-110810000D02*
X368276000Y-110810000D01*
%TO.C,K0\u002C0*%
X25833500Y-33412000D02*
X40333500Y-33412000D01*
X25833500Y-18912000D02*
X25833500Y-33412000D01*
X40333500Y-18912000D02*
X25833500Y-18912000D01*
X40333500Y-33412000D02*
X40333500Y-18912000D01*
%TO.C,K0\u002C1*%
X25833500Y-71512000D02*
X40333500Y-71512000D01*
X25833500Y-57012000D02*
X25833500Y-71512000D01*
X40333500Y-57012000D02*
X25833500Y-57012000D01*
X40333500Y-71512000D02*
X40333500Y-57012000D01*
%TO.C,K0\u002C5*%
X28246500Y-149363000D02*
X42746500Y-149363000D01*
X28246500Y-134863000D02*
X28246500Y-149363000D01*
X42746500Y-134863000D02*
X28246500Y-134863000D01*
X42746500Y-149363000D02*
X42746500Y-134863000D01*
%TO.C,K0\u002C4*%
X37644500Y-129995500D02*
X52144500Y-129995500D01*
X37644500Y-115495500D02*
X37644500Y-129995500D01*
X52144500Y-115495500D02*
X37644500Y-115495500D01*
X52144500Y-129995500D02*
X52144500Y-115495500D01*
%TO.C,K0\u002C3*%
X32920100Y-110221600D02*
X47420100Y-110221600D01*
X32920100Y-95721600D02*
X32920100Y-110221600D01*
X47420100Y-95721600D02*
X32920100Y-95721600D01*
X47420100Y-110221600D02*
X47420100Y-95721600D01*
%TO.C,K1\u002C4*%
X68759500Y-129982800D02*
X83259500Y-129982800D01*
X68759500Y-115482800D02*
X68759500Y-129982800D01*
X83259500Y-115482800D02*
X68759500Y-115482800D01*
X83259500Y-129982800D02*
X83259500Y-115482800D01*
%TO.C,K1\u002C5*%
X52821000Y-149413800D02*
X67321000Y-149413800D01*
X52821000Y-134913800D02*
X52821000Y-149413800D01*
X67321000Y-134913800D02*
X52821000Y-134913800D01*
X67321000Y-149413800D02*
X67321000Y-134913800D01*
%TO.C,K1\u002C3*%
X59361500Y-110170800D02*
X73861500Y-110170800D01*
X59361500Y-95670800D02*
X59361500Y-110170800D01*
X73861500Y-95670800D02*
X59361500Y-95670800D01*
X73861500Y-110170800D02*
X73861500Y-95670800D01*
%TO.C,K1\u002C2*%
X54472000Y-90739800D02*
X68972000Y-90739800D01*
X54472000Y-76239800D02*
X54472000Y-90739800D01*
X68972000Y-76239800D02*
X54472000Y-76239800D01*
X68972000Y-90739800D02*
X68972000Y-76239800D01*
%TO.C,K1\u002C1*%
X45048600Y-71512000D02*
X59548600Y-71512000D01*
X45048600Y-57012000D02*
X45048600Y-71512000D01*
X59548600Y-57012000D02*
X45048600Y-57012000D01*
X59548600Y-71512000D02*
X59548600Y-57012000D01*
%TO.C,K1\u002C0*%
X65648000Y-33462800D02*
X80148000Y-33462800D01*
X65648000Y-18962800D02*
X65648000Y-33462800D01*
X80148000Y-18962800D02*
X65648000Y-18962800D01*
X80148000Y-33462800D02*
X80148000Y-18962800D01*
%TO.C,K2\u002C5*%
X77205000Y-149413800D02*
X91705000Y-149413800D01*
X77205000Y-134913800D02*
X77205000Y-149413800D01*
X91705000Y-134913800D02*
X77205000Y-134913800D01*
X91705000Y-149413800D02*
X91705000Y-134913800D01*
%TO.C,K2\u002C3*%
X78665500Y-110170800D02*
X93165500Y-110170800D01*
X78665500Y-95670800D02*
X78665500Y-110170800D01*
X93165500Y-95670800D02*
X78665500Y-95670800D01*
X93165500Y-110170800D02*
X93165500Y-95670800D01*
%TO.C,K2\u002C1*%
X64251000Y-71499300D02*
X78751000Y-71499300D01*
X64251000Y-56999300D02*
X64251000Y-71499300D01*
X78751000Y-56999300D02*
X64251000Y-56999300D01*
X78751000Y-71499300D02*
X78751000Y-56999300D01*
%TO.C,K2\u002C4*%
X88063500Y-129982800D02*
X102563500Y-129982800D01*
X88063500Y-115482800D02*
X88063500Y-129982800D01*
X102563500Y-115482800D02*
X88063500Y-115482800D01*
X102563500Y-129982800D02*
X102563500Y-115482800D01*
%TO.C,K2\u002C2*%
X73776000Y-90739800D02*
X88276000Y-90739800D01*
X73776000Y-76239800D02*
X73776000Y-90739800D01*
X88276000Y-76239800D02*
X73776000Y-76239800D01*
X88276000Y-90739800D02*
X88276000Y-76239800D01*
%TO.C,K2\u002C0*%
X84952000Y-33462800D02*
X99452000Y-33462800D01*
X84952000Y-18962800D02*
X84952000Y-33462800D01*
X99452000Y-18962800D02*
X84952000Y-18962800D01*
X99452000Y-33462800D02*
X99452000Y-18962800D01*
%TO.C,K3\u002C5*%
X149087000Y-149413800D02*
X163587000Y-149413800D01*
X149087000Y-134913800D02*
X149087000Y-149413800D01*
X163587000Y-134913800D02*
X149087000Y-134913800D01*
X163587000Y-149413800D02*
X163587000Y-134913800D01*
%TO.C,K3\u002C4*%
X107367500Y-129982800D02*
X121867500Y-129982800D01*
X107367500Y-115482800D02*
X107367500Y-129982800D01*
X121867500Y-115482800D02*
X107367500Y-115482800D01*
X121867500Y-129982800D02*
X121867500Y-115482800D01*
%TO.C,K3\u002C2*%
X93080000Y-90739800D02*
X107580000Y-90739800D01*
X93080000Y-76239800D02*
X93080000Y-90739800D01*
X107580000Y-76239800D02*
X93080000Y-76239800D01*
X107580000Y-90739800D02*
X107580000Y-76239800D01*
%TO.C,K3\u002C1*%
X83047000Y-71499300D02*
X97547000Y-71499300D01*
X83047000Y-56999300D02*
X83047000Y-71499300D01*
X97547000Y-56999300D02*
X83047000Y-56999300D01*
X97547000Y-71499300D02*
X97547000Y-56999300D01*
%TO.C,K3\u002C0*%
X104256000Y-33462800D02*
X118756000Y-33462800D01*
X104256000Y-18962800D02*
X104256000Y-33462800D01*
X118756000Y-18962800D02*
X104256000Y-18962800D01*
X118756000Y-33462800D02*
X118756000Y-18962800D01*
%TO.C,K3\u002C3*%
X97969500Y-110170800D02*
X112469500Y-110170800D01*
X97969500Y-95670800D02*
X97969500Y-110170800D01*
X112469500Y-95670800D02*
X97969500Y-95670800D01*
X112469500Y-110170800D02*
X112469500Y-95670800D01*
%TO.C,K4\u002C1*%
X102351000Y-71499300D02*
X116851000Y-71499300D01*
X102351000Y-56999300D02*
X102351000Y-71499300D01*
X116851000Y-56999300D02*
X102351000Y-56999300D01*
X116851000Y-71499300D02*
X116851000Y-56999300D01*
%TO.C,K4\u002C2*%
X126884000Y-90739800D02*
X126884000Y-76239800D01*
X126884000Y-76239800D02*
X112384000Y-76239800D01*
X112384000Y-76239800D02*
X112384000Y-90739800D01*
X112384000Y-90739800D02*
X126884000Y-90739800D01*
%TO.C,K4\u002C3*%
X117273500Y-110170800D02*
X131773500Y-110170800D01*
X117273500Y-95670800D02*
X117273500Y-110170800D01*
X131773500Y-95670800D02*
X117273500Y-95670800D01*
X131773500Y-110170800D02*
X131773500Y-95670800D01*
%TO.C,K4\u002C4*%
X126671500Y-129982800D02*
X141171500Y-129982800D01*
X126671500Y-115482800D02*
X126671500Y-129982800D01*
X141171500Y-115482800D02*
X126671500Y-115482800D01*
X141171500Y-129982800D02*
X141171500Y-115482800D01*
%TO.C,K4\u002C0*%
X123560000Y-33462800D02*
X138060000Y-33462800D01*
X123560000Y-18962800D02*
X123560000Y-33462800D01*
X138060000Y-18962800D02*
X123560000Y-18962800D01*
X138060000Y-33462800D02*
X138060000Y-18962800D01*
%TO.C,K5\u002C0*%
X155056000Y-33462800D02*
X169556000Y-33462800D01*
X155056000Y-18962800D02*
X155056000Y-33462800D01*
X169556000Y-18962800D02*
X155056000Y-18962800D01*
X169556000Y-33462800D02*
X169556000Y-18962800D01*
%TO.C,K5\u002C2*%
X146188000Y-90739800D02*
X146188000Y-76239800D01*
X146188000Y-76239800D02*
X131688000Y-76239800D01*
X131688000Y-76239800D02*
X131688000Y-90739800D01*
X131688000Y-90739800D02*
X146188000Y-90739800D01*
%TO.C,K5\u002C1*%
X121655000Y-71499300D02*
X136155000Y-71499300D01*
X121655000Y-56999300D02*
X121655000Y-71499300D01*
X136155000Y-56999300D02*
X121655000Y-56999300D01*
X136155000Y-71499300D02*
X136155000Y-56999300D01*
%TO.C,K5\u002C3*%
X136577500Y-110170800D02*
X151077500Y-110170800D01*
X136577500Y-95670800D02*
X136577500Y-110170800D01*
X151077500Y-95670800D02*
X136577500Y-95670800D01*
X151077500Y-110170800D02*
X151077500Y-95670800D01*
%TO.C,K5\u002C4*%
X145975500Y-129982800D02*
X160475500Y-129982800D01*
X145975500Y-115482800D02*
X145975500Y-129982800D01*
X160475500Y-115482800D02*
X145975500Y-115482800D01*
X160475500Y-129982800D02*
X160475500Y-115482800D01*
%TO.C,K6\u002C3*%
X155881500Y-110170800D02*
X170381500Y-110170800D01*
X155881500Y-95670800D02*
X155881500Y-110170800D01*
X170381500Y-95670800D02*
X155881500Y-95670800D01*
X170381500Y-110170800D02*
X170381500Y-95670800D01*
%TO.C,K6\u002C4*%
X165279500Y-129982800D02*
X179779500Y-129982800D01*
X165279500Y-115482800D02*
X165279500Y-129982800D01*
X179779500Y-115482800D02*
X165279500Y-115482800D01*
X179779500Y-129982800D02*
X179779500Y-115482800D01*
%TO.C,K6\u002C1*%
X140959000Y-71499300D02*
X155459000Y-71499300D01*
X140959000Y-56999300D02*
X140959000Y-71499300D01*
X155459000Y-56999300D02*
X140959000Y-56999300D01*
X155459000Y-71499300D02*
X155459000Y-56999300D01*
%TO.C,K6\u002C2*%
X165492000Y-90739800D02*
X165492000Y-76239800D01*
X165492000Y-76239800D02*
X150992000Y-76239800D01*
X150992000Y-76239800D02*
X150992000Y-90739800D01*
X150992000Y-90739800D02*
X165492000Y-90739800D01*
%TO.C,K6\u002C0*%
X174360000Y-33462800D02*
X188860000Y-33462800D01*
X174360000Y-18962800D02*
X174360000Y-33462800D01*
X188860000Y-18962800D02*
X174360000Y-18962800D01*
X188860000Y-33462800D02*
X188860000Y-18962800D01*
%TO.C,K7\u002C2*%
X184796000Y-90739800D02*
X184796000Y-76239800D01*
X184796000Y-76239800D02*
X170296000Y-76239800D01*
X170296000Y-76239800D02*
X170296000Y-90739800D01*
X170296000Y-90739800D02*
X184796000Y-90739800D01*
%TO.C,K7\u002C1*%
X160263000Y-71499300D02*
X174763000Y-71499300D01*
X160263000Y-56999300D02*
X160263000Y-71499300D01*
X174763000Y-56999300D02*
X160263000Y-56999300D01*
X174763000Y-71499300D02*
X174763000Y-56999300D01*
%TO.C,K7\u002C3*%
X175185500Y-110170800D02*
X189685500Y-110170800D01*
X175185500Y-95670800D02*
X175185500Y-110170800D01*
X189685500Y-95670800D02*
X175185500Y-95670800D01*
X189685500Y-110170800D02*
X189685500Y-95670800D01*
%TO.C,K7\u002C4*%
X184583500Y-129982800D02*
X199083500Y-129982800D01*
X184583500Y-115482800D02*
X184583500Y-129982800D01*
X199083500Y-115482800D02*
X184583500Y-115482800D01*
X199083500Y-129982800D02*
X199083500Y-115482800D01*
%TO.C,K7\u002C0*%
X193664000Y-33462800D02*
X208164000Y-33462800D01*
X193664000Y-18962800D02*
X193664000Y-33462800D01*
X208164000Y-18962800D02*
X193664000Y-18962800D01*
X208164000Y-33462800D02*
X208164000Y-18962800D01*
%TO.C,K8\u002C0*%
X212968000Y-33462800D02*
X227468000Y-33462800D01*
X212968000Y-18962800D02*
X212968000Y-33462800D01*
X227468000Y-18962800D02*
X212968000Y-18962800D01*
X227468000Y-33462800D02*
X227468000Y-18962800D01*
%TO.C,K8\u002C1*%
X179567000Y-71499300D02*
X194067000Y-71499300D01*
X179567000Y-56999300D02*
X179567000Y-71499300D01*
X194067000Y-56999300D02*
X179567000Y-56999300D01*
X194067000Y-71499300D02*
X194067000Y-56999300D01*
%TO.C,K8\u002C3*%
X194489500Y-110170800D02*
X208989500Y-110170800D01*
X194489500Y-95670800D02*
X194489500Y-110170800D01*
X208989500Y-95670800D02*
X194489500Y-95670800D01*
X208989500Y-110170800D02*
X208989500Y-95670800D01*
%TO.C,K8\u002C4*%
X203887500Y-129982800D02*
X218387500Y-129982800D01*
X203887500Y-115482800D02*
X203887500Y-129982800D01*
X218387500Y-115482800D02*
X203887500Y-115482800D01*
X218387500Y-129982800D02*
X218387500Y-115482800D01*
%TO.C,K8\u002C5*%
X220842000Y-149477300D02*
X235342000Y-149477300D01*
X220842000Y-134977300D02*
X220842000Y-149477300D01*
X235342000Y-134977300D02*
X220842000Y-134977300D01*
X235342000Y-149477300D02*
X235342000Y-134977300D01*
%TO.C,K8\u002C2*%
X204100000Y-90739800D02*
X204100000Y-76239800D01*
X204100000Y-76239800D02*
X189600000Y-76239800D01*
X189600000Y-76239800D02*
X189600000Y-90739800D01*
X189600000Y-90739800D02*
X204100000Y-90739800D01*
%TO.C,K9\u002C0*%
X239384000Y-33462800D02*
X253884000Y-33462800D01*
X239384000Y-18962800D02*
X239384000Y-33462800D01*
X253884000Y-18962800D02*
X239384000Y-18962800D01*
X253884000Y-33462800D02*
X253884000Y-18962800D01*
%TO.C,K9\u002C5*%
X244972000Y-149413800D02*
X259472000Y-149413800D01*
X244972000Y-134913800D02*
X244972000Y-149413800D01*
X259472000Y-134913800D02*
X244972000Y-134913800D01*
X259472000Y-149413800D02*
X259472000Y-134913800D01*
%TO.C,K9\u002C1*%
X198871000Y-71499300D02*
X213371000Y-71499300D01*
X198871000Y-56999300D02*
X198871000Y-71499300D01*
X213371000Y-56999300D02*
X198871000Y-56999300D01*
X213371000Y-71499300D02*
X213371000Y-56999300D01*
%TO.C,K9\u002C2*%
X223404000Y-90739800D02*
X223404000Y-76239800D01*
X223404000Y-76239800D02*
X208904000Y-76239800D01*
X208904000Y-76239800D02*
X208904000Y-90739800D01*
X208904000Y-90739800D02*
X223404000Y-90739800D01*
%TO.C,K9\u002C4*%
X223191500Y-129982800D02*
X237691500Y-129982800D01*
X223191500Y-115482800D02*
X223191500Y-129982800D01*
X237691500Y-115482800D02*
X223191500Y-115482800D01*
X237691500Y-129982800D02*
X237691500Y-115482800D01*
%TO.C,K9\u002C3*%
X213793500Y-110170800D02*
X228293500Y-110170800D01*
X213793500Y-95670800D02*
X213793500Y-110170800D01*
X228293500Y-95670800D02*
X213793500Y-95670800D01*
X228293500Y-110170800D02*
X228293500Y-95670800D01*
%TO.C,K10\u002C2*%
X242708000Y-90739800D02*
X242708000Y-76239800D01*
X242708000Y-76239800D02*
X228208000Y-76239800D01*
X228208000Y-76239800D02*
X228208000Y-90739800D01*
X228208000Y-90739800D02*
X242708000Y-90739800D01*
%TO.C,K10\u002C0*%
X258688000Y-33462800D02*
X273188000Y-33462800D01*
X258688000Y-18962800D02*
X258688000Y-33462800D01*
X273188000Y-18962800D02*
X258688000Y-18962800D01*
X273188000Y-33462800D02*
X273188000Y-18962800D01*
%TO.C,K10\u002C5*%
X269165500Y-149413800D02*
X283665500Y-149413800D01*
X269165500Y-134913800D02*
X269165500Y-149413800D01*
X283665500Y-134913800D02*
X269165500Y-134913800D01*
X283665500Y-149413800D02*
X283665500Y-134913800D01*
%TO.C,K10\u002C1*%
X218175000Y-71499300D02*
X232675000Y-71499300D01*
X218175000Y-56999300D02*
X218175000Y-71499300D01*
X232675000Y-56999300D02*
X218175000Y-56999300D01*
X232675000Y-71499300D02*
X232675000Y-56999300D01*
%TO.C,K10\u002C4*%
X242495500Y-129982800D02*
X256995500Y-129982800D01*
X242495500Y-115482800D02*
X242495500Y-129982800D01*
X256995500Y-115482800D02*
X242495500Y-115482800D01*
X256995500Y-129982800D02*
X256995500Y-115482800D01*
%TO.C,K11\u002C3*%
X252401500Y-110170800D02*
X266901500Y-110170800D01*
X252401500Y-95670800D02*
X252401500Y-110170800D01*
X266901500Y-95670800D02*
X252401500Y-95670800D01*
X266901500Y-110170800D02*
X266901500Y-95670800D01*
%TO.C,K11\u002C2*%
X262012000Y-90739800D02*
X262012000Y-76239800D01*
X262012000Y-76239800D02*
X247512000Y-76239800D01*
X247512000Y-76239800D02*
X247512000Y-90739800D01*
X247512000Y-90739800D02*
X262012000Y-90739800D01*
%TO.C,K11\u002C5*%
X293232000Y-149413800D02*
X307732000Y-149413800D01*
X293232000Y-134913800D02*
X293232000Y-149413800D01*
X307732000Y-134913800D02*
X293232000Y-134913800D01*
X307732000Y-149413800D02*
X307732000Y-134913800D01*
%TO.C,K11\u002C1*%
X237479000Y-71499300D02*
X251979000Y-71499300D01*
X237479000Y-56999300D02*
X237479000Y-71499300D01*
X251979000Y-56999300D02*
X237479000Y-56999300D01*
X251979000Y-71499300D02*
X251979000Y-56999300D01*
%TO.C,K11\u002C0*%
X277992000Y-33462800D02*
X292492000Y-33462800D01*
X277992000Y-18962800D02*
X277992000Y-33462800D01*
X292492000Y-18962800D02*
X277992000Y-18962800D01*
X292492000Y-33462800D02*
X292492000Y-18962800D01*
%TO.C,K12\u002C2*%
X281316000Y-90739800D02*
X281316000Y-76239800D01*
X281316000Y-76239800D02*
X266816000Y-76239800D01*
X266816000Y-76239800D02*
X266816000Y-90739800D01*
X266816000Y-90739800D02*
X281316000Y-90739800D01*
%TO.C,K12\u002C0*%
X297296000Y-33462800D02*
X311796000Y-33462800D01*
X297296000Y-18962800D02*
X297296000Y-33462800D01*
X311796000Y-18962800D02*
X297296000Y-18962800D01*
X311796000Y-33462800D02*
X311796000Y-18962800D01*
%TO.C,K12\u002C1*%
X256783000Y-71499300D02*
X271283000Y-71499300D01*
X256783000Y-56999300D02*
X256783000Y-71499300D01*
X271283000Y-56999300D02*
X256783000Y-56999300D01*
X271283000Y-71499300D02*
X271283000Y-56999300D01*
%TO.C,K13\u002C2*%
X305255500Y-90752500D02*
X305255500Y-76252500D01*
X305255500Y-76252500D02*
X290755500Y-76252500D01*
X290755500Y-76252500D02*
X290755500Y-90752500D01*
X290755500Y-90752500D02*
X305255500Y-90752500D01*
%TO.C,K14\u002C1*%
X323839000Y-71499300D02*
X338339000Y-71499300D01*
X323839000Y-56999300D02*
X323839000Y-71499300D01*
X338339000Y-56999300D02*
X323839000Y-56999300D01*
X338339000Y-71499300D02*
X338339000Y-56999300D01*
%TO.C,K14\u002C6*%
X323775500Y-149286800D02*
X338275500Y-149286800D01*
X323775500Y-134786800D02*
X323775500Y-149286800D01*
X338275500Y-134786800D02*
X323775500Y-134786800D01*
X338275500Y-149286800D02*
X338275500Y-134786800D01*
%TO.C,K14\u002C3*%
X323839000Y-90739800D02*
X338339000Y-90739800D01*
X323839000Y-76239800D02*
X323839000Y-90739800D01*
X338339000Y-76239800D02*
X323839000Y-76239800D01*
X338339000Y-90739800D02*
X338339000Y-76239800D01*
%TO.C,K14\u002C0*%
X326760000Y-33462800D02*
X341260000Y-33462800D01*
X326760000Y-18962800D02*
X326760000Y-33462800D01*
X341260000Y-18962800D02*
X326760000Y-18962800D01*
X341260000Y-33462800D02*
X341260000Y-18962800D01*
%TO.C,K15\u002C6*%
X343079500Y-149286800D02*
X357579500Y-149286800D01*
X343079500Y-134786800D02*
X343079500Y-149286800D01*
X357579500Y-134786800D02*
X343079500Y-134786800D01*
X357579500Y-149286800D02*
X357579500Y-134786800D01*
%TO.C,K15\u002C3*%
X343143000Y-90739800D02*
X357643000Y-90739800D01*
X343143000Y-76239800D02*
X343143000Y-90739800D01*
X357643000Y-76239800D02*
X343143000Y-76239800D01*
X357643000Y-90739800D02*
X357643000Y-76239800D01*
%TO.C,K15\u002C5*%
X343079500Y-129982800D02*
X357579500Y-129982800D01*
X343079500Y-115482800D02*
X343079500Y-129982800D01*
X357579500Y-115482800D02*
X343079500Y-115482800D01*
X357579500Y-129982800D02*
X357579500Y-115482800D01*
%TO.C,K15\u002C1*%
X343143000Y-71499300D02*
X357643000Y-71499300D01*
X343143000Y-56999300D02*
X343143000Y-71499300D01*
X357643000Y-56999300D02*
X343143000Y-56999300D01*
X357643000Y-71499300D02*
X357643000Y-56999300D01*
%TO.C,K15\u002C0*%
X346318000Y-33462800D02*
X360818000Y-33462800D01*
X346318000Y-18962800D02*
X346318000Y-33462800D01*
X360818000Y-18962800D02*
X346318000Y-18962800D01*
X360818000Y-33462800D02*
X360818000Y-18962800D01*
%TO.C,K16\u002C4*%
X395467000Y-110170800D02*
X409967000Y-110170800D01*
X395467000Y-95670800D02*
X395467000Y-110170800D01*
X409967000Y-95670800D02*
X395467000Y-95670800D01*
X409967000Y-110170800D02*
X409967000Y-95670800D01*
%TO.C,K16\u002C1*%
X362447000Y-71499300D02*
X376947000Y-71499300D01*
X362447000Y-56999300D02*
X362447000Y-71499300D01*
X376947000Y-56999300D02*
X362447000Y-56999300D01*
X376947000Y-71499300D02*
X376947000Y-56999300D01*
%TO.C,K16\u002C5*%
X395467000Y-129474800D02*
X409967000Y-129474800D01*
X395467000Y-114974800D02*
X395467000Y-129474800D01*
X409967000Y-114974800D02*
X395467000Y-114974800D01*
X409967000Y-129474800D02*
X409967000Y-114974800D01*
%TO.C,K16\u002C3*%
X362447000Y-90739800D02*
X376947000Y-90739800D01*
X362447000Y-76239800D02*
X362447000Y-90739800D01*
X376947000Y-76239800D02*
X362447000Y-76239800D01*
X376947000Y-90739800D02*
X376947000Y-76239800D01*
%TO.C,K16\u002C0*%
X365622000Y-33462800D02*
X380122000Y-33462800D01*
X365622000Y-18962800D02*
X365622000Y-33462800D01*
X380122000Y-18962800D02*
X365622000Y-18962800D01*
X380122000Y-33462800D02*
X380122000Y-18962800D01*
%TO.C,K16\u002C6*%
X362383500Y-149286800D02*
X376883500Y-149286800D01*
X362383500Y-134786800D02*
X362383500Y-149286800D01*
X376883500Y-134786800D02*
X362383500Y-134786800D01*
X376883500Y-149286800D02*
X376883500Y-134786800D01*
%TO.C,K17\u002C6*%
X404992000Y-148778800D02*
X419492000Y-148778800D01*
X404992000Y-134278800D02*
X404992000Y-148778800D01*
X419492000Y-134278800D02*
X404992000Y-134278800D01*
X419492000Y-148778800D02*
X419492000Y-134278800D01*
%TO.C,K17\u002C5*%
X414771000Y-129474800D02*
X429271000Y-129474800D01*
X414771000Y-114974800D02*
X414771000Y-129474800D01*
X429271000Y-114974800D02*
X414771000Y-114974800D01*
X429271000Y-129474800D02*
X429271000Y-114974800D01*
%TO.C,K17\u002C4*%
X414771000Y-110170800D02*
X429271000Y-110170800D01*
X414771000Y-95670800D02*
X414771000Y-110170800D01*
X429271000Y-95670800D02*
X414771000Y-95670800D01*
X429271000Y-110170800D02*
X429271000Y-95670800D01*
%TO.C,K17\u002C3*%
X395467000Y-90866800D02*
X409967000Y-90866800D01*
X395467000Y-76366800D02*
X395467000Y-90866800D01*
X409967000Y-76366800D02*
X395467000Y-76366800D01*
X409967000Y-90866800D02*
X409967000Y-76366800D01*
%TO.C,K17\u002C1*%
X395467000Y-71499300D02*
X409967000Y-71499300D01*
X395467000Y-56999300D02*
X395467000Y-71499300D01*
X409967000Y-56999300D02*
X395467000Y-56999300D01*
X409967000Y-71499300D02*
X409967000Y-56999300D01*
%TO.C,K17\u002C0*%
X395340000Y-33462800D02*
X409840000Y-33462800D01*
X395340000Y-18962800D02*
X395340000Y-33462800D01*
X409840000Y-18962800D02*
X395340000Y-18962800D01*
X409840000Y-33462800D02*
X409840000Y-18962800D01*
%TO.C,K18\u002C6*%
X434075000Y-148778800D02*
X448575000Y-148778800D01*
X434075000Y-134278800D02*
X434075000Y-148778800D01*
X448575000Y-134278800D02*
X434075000Y-134278800D01*
X448575000Y-148778800D02*
X448575000Y-134278800D01*
%TO.C,K18\u002C3*%
X414771000Y-90866800D02*
X429271000Y-90866800D01*
X414771000Y-76366800D02*
X414771000Y-90866800D01*
X429271000Y-76366800D02*
X414771000Y-76366800D01*
X429271000Y-90866800D02*
X429271000Y-76366800D01*
%TO.C,K18\u002C1*%
X414771000Y-71499300D02*
X429271000Y-71499300D01*
X414771000Y-56999300D02*
X414771000Y-71499300D01*
X429271000Y-56999300D02*
X414771000Y-56999300D01*
X429271000Y-71499300D02*
X429271000Y-56999300D01*
%TO.C,K18\u002C5*%
X434075000Y-129474800D02*
X448575000Y-129474800D01*
X434075000Y-114974800D02*
X434075000Y-129474800D01*
X448575000Y-114974800D02*
X434075000Y-114974800D01*
X448575000Y-129474800D02*
X448575000Y-114974800D01*
%TO.C,K18\u002C0*%
X414644000Y-33462800D02*
X429144000Y-33462800D01*
X414644000Y-18962800D02*
X414644000Y-33462800D01*
X429144000Y-18962800D02*
X414644000Y-18962800D01*
X429144000Y-33462800D02*
X429144000Y-18962800D01*
%TO.C,K19\u002C6*%
X453379000Y-139126800D02*
X467879000Y-139126800D01*
X453379000Y-124626800D02*
X453379000Y-139126800D01*
X467879000Y-124626800D02*
X453379000Y-124626800D01*
X467879000Y-139126800D02*
X467879000Y-124626800D01*
%TO.C,K19\u002C0*%
X433948000Y-33462800D02*
X448448000Y-33462800D01*
X433948000Y-18962800D02*
X433948000Y-33462800D01*
X448448000Y-18962800D02*
X433948000Y-18962800D01*
X448448000Y-33462800D02*
X448448000Y-18962800D01*
%TO.C,K19\u002C3*%
X434075000Y-90866800D02*
X448575000Y-90866800D01*
X434075000Y-76366800D02*
X434075000Y-90866800D01*
X448575000Y-76366800D02*
X434075000Y-76366800D01*
X448575000Y-90866800D02*
X448575000Y-76366800D01*
%TO.C,K19\u002C1*%
X434075000Y-71499300D02*
X448575000Y-71499300D01*
X434075000Y-56999300D02*
X434075000Y-71499300D01*
X448575000Y-56999300D02*
X434075000Y-56999300D01*
X448575000Y-71499300D02*
X448575000Y-56999300D01*
%TO.C,K20\u002C0*%
X453252000Y-33462800D02*
X467752000Y-33462800D01*
X453252000Y-18962800D02*
X453252000Y-33462800D01*
X467752000Y-18962800D02*
X453252000Y-18962800D01*
X467752000Y-33462800D02*
X467752000Y-18962800D01*
%TO.C,K20\u002C1*%
X453379000Y-71499300D02*
X467879000Y-71499300D01*
X453379000Y-56999300D02*
X453379000Y-71499300D01*
X467879000Y-56999300D02*
X453379000Y-56999300D01*
X467879000Y-71499300D02*
X467879000Y-56999300D01*
%TD*%
M02*
