%TF.GenerationSoftware,KiCad,Pcbnew,(5.1.9)-1*%
%TF.CreationDate,2021-03-17T02:29:25+10:00*%
%TF.ProjectId,RedPyKeeb,52656450-794b-4656-9562-2e6b69636164,rev?*%
%TF.SameCoordinates,Original*%
%TF.FileFunction,Copper,L3,Inr*%
%TF.FilePolarity,Positive*%
%FSLAX46Y46*%
G04 Gerber Fmt 4.6, Leading zero omitted, Abs format (unit mm)*
G04 Created by KiCad (PCBNEW (5.1.9)-1) date 2021-03-17 02:29:25*
%MOMM*%
%LPD*%
G01*
G04 APERTURE LIST*
%TA.AperFunction,ComponentPad*%
%ADD10O,1.700000X1.700000*%
%TD*%
%TA.AperFunction,ComponentPad*%
%ADD11R,1.700000X1.700000*%
%TD*%
%TA.AperFunction,ComponentPad*%
%ADD12R,1.600000X1.600000*%
%TD*%
%TA.AperFunction,ComponentPad*%
%ADD13C,1.600000*%
%TD*%
%TA.AperFunction,ComponentPad*%
%ADD14O,1.950000X1.700000*%
%TD*%
%TA.AperFunction,ComponentPad*%
%ADD15O,1.700000X1.950000*%
%TD*%
%TA.AperFunction,ViaPad*%
%ADD16C,0.800000*%
%TD*%
%TA.AperFunction,Conductor*%
%ADD17C,0.250000*%
%TD*%
G04 APERTURE END LIST*
D10*
%TO.N,PICO_SDA0*%
%TO.C,U0*%
X455776000Y-130642000D03*
%TO.N,PICO_SCL0*%
X453236000Y-130642000D03*
D11*
%TO.N,Net-(U0-Pad3)*%
X450696000Y-130642000D03*
D10*
%TO.N,PICO_33_REF*%
X448156000Y-130642000D03*
%TO.N,Net-(U0-Pad5)*%
X445616000Y-130642000D03*
%TO.N,Net-(U0-Pad6)*%
X443076000Y-130642000D03*
%TO.N,Net-(U0-Pad7)*%
X440536000Y-130642000D03*
D11*
%TO.N,Net-(U0-Pad8)*%
X437996000Y-130642000D03*
D10*
%TO.N,Net-(U0-Pad9)*%
X435456000Y-130642000D03*
%TO.N,Net-(U0-Pad10)*%
X432916000Y-130642000D03*
%TO.N,Net-(U0-Pad11)*%
X430376000Y-130642000D03*
%TO.N,Net-(U0-Pad12)*%
X427836000Y-130642000D03*
D11*
%TO.N,Net-(U0-Pad13)*%
X425296000Y-130642000D03*
D10*
%TO.N,Net-(U0-Pad14)*%
X422756000Y-130642000D03*
%TO.N,Net-(U0-Pad15)*%
X420216000Y-130642000D03*
%TO.N,Net-(U0-Pad16)*%
X417676000Y-130642000D03*
%TO.N,Net-(U0-Pad17)*%
X415136000Y-130642000D03*
D11*
%TO.N,Net-(U0-Pad18)*%
X412596000Y-130642000D03*
D10*
%TO.N,Net-(U0-Pad19)*%
X410056000Y-130642000D03*
%TO.N,Net-(U0-Pad20)*%
X407516000Y-130642000D03*
%TO.N,Net-(U0-Pad21)*%
X407516000Y-148422000D03*
%TO.N,Net-(U0-Pad22)*%
X410056000Y-148422000D03*
D11*
%TO.N,Net-(U0-Pad23)*%
X412596000Y-148422000D03*
D10*
%TO.N,Net-(U0-Pad24)*%
X415136000Y-148422000D03*
%TO.N,Net-(U0-Pad25)*%
X417676000Y-148422000D03*
%TO.N,Net-(U0-Pad26)*%
X420216000Y-148422000D03*
%TO.N,Net-(U0-Pad27)*%
X422756000Y-148422000D03*
D11*
%TO.N,Net-(U0-Pad28)*%
X425296000Y-148422000D03*
D10*
%TO.N,Net-(U0-Pad29)*%
X427836000Y-148422000D03*
%TO.N,PICO_RUN*%
X430376000Y-148422000D03*
%TO.N,Net-(U0-Pad31)*%
X432916000Y-148422000D03*
%TO.N,Net-(U0-Pad32)*%
X435456000Y-148422000D03*
D11*
%TO.N,Net-(U0-Pad33)*%
X437996000Y-148422000D03*
D10*
%TO.N,Net-(U0-Pad34)*%
X440536000Y-148422000D03*
%TO.N,Net-(U0-Pad35)*%
X443076000Y-148422000D03*
%TO.N,Net-(U0-Pad36)*%
X445616000Y-148422000D03*
%TO.N,Net-(U0-Pad37)*%
X448156000Y-148422000D03*
D11*
%TO.N,Net-(U0-Pad38)*%
X450696000Y-148422000D03*
D10*
%TO.N,MAIN_VBUS*%
X453236000Y-148422000D03*
%TO.N,Net-(U0-Pad40)*%
X455776000Y-148422000D03*
%TO.N,Net-(U0-Pad41)*%
X407746000Y-136992000D03*
D11*
%TO.N,Net-(U0-Pad42)*%
X407746000Y-139532000D03*
D10*
%TO.N,Net-(U0-Pad43)*%
X407746000Y-142072000D03*
%TD*%
D12*
%TO.N,KEY_ROW3*%
%TO.C,D0\u002C3*%
X52578000Y-116699000D03*
D13*
%TO.N,Net-(D0\u002C3-Pad2)*%
X52578000Y-124499000D03*
%TD*%
%TO.N,Net-(D0\u002C5-Pad2)*%
%TO.C,D0\u002C5*%
X47244000Y-175096000D03*
D12*
%TO.N,KEY_ROW5*%
X47244000Y-167296000D03*
%TD*%
%TO.N,KEY_ROW4*%
%TO.C,D0\u002C4*%
X57404000Y-142404000D03*
D13*
%TO.N,Net-(D0\u002C4-Pad2)*%
X57404000Y-150204000D03*
%TD*%
D12*
%TO.N,KEY_ROW0*%
%TO.C,D0\u002C0*%
X45212000Y-31152000D03*
D13*
%TO.N,Net-(D0\u002C0-Pad2)*%
X45212000Y-38952000D03*
%TD*%
%TO.N,Net-(D0\u002C2-Pad2)*%
%TO.C,D0\u002C2*%
X49784000Y-99912000D03*
D12*
%TO.N,KEY_ROW2*%
X49784000Y-92112000D03*
%TD*%
D13*
%TO.N,Net-(D0\u002C1-Pad2)*%
%TO.C,D0\u002C1*%
X44196000Y-74512000D03*
D12*
%TO.N,KEY_ROW1*%
X44196000Y-66712000D03*
%TD*%
%TO.N,KEY_ROW3*%
%TO.C,D1\u002C3*%
X87884000Y-117258000D03*
D13*
%TO.N,Net-(D1\u002C3-Pad2)*%
X87884000Y-125058000D03*
%TD*%
D12*
%TO.N,KEY_ROW0*%
%TO.C,D1\u002C0*%
X95504000Y-31152000D03*
D13*
%TO.N,Net-(D1\u002C0-Pad2)*%
X95504000Y-38952000D03*
%TD*%
%TO.N,Net-(D1\u002C4-Pad2)*%
%TO.C,D1\u002C4*%
X101092000Y-150712000D03*
D12*
%TO.N,KEY_ROW4*%
X101092000Y-142912000D03*
%TD*%
%TO.N,KEY_ROW5*%
%TO.C,D1\u002C5*%
X77724000Y-168312000D03*
D13*
%TO.N,Net-(D1\u002C5-Pad2)*%
X77724000Y-176112000D03*
%TD*%
D12*
%TO.N,KEY_ROW1*%
%TO.C,D1\u002C1*%
X70104000Y-66204000D03*
D13*
%TO.N,Net-(D1\u002C1-Pad2)*%
X70104000Y-74004000D03*
%TD*%
%TO.N,Net-(D1\u002C2-Pad2)*%
%TO.C,D1\u002C2*%
X79756000Y-99404000D03*
D12*
%TO.N,KEY_ROW2*%
X79756000Y-91604000D03*
%TD*%
D13*
%TO.N,Net-(D2\u002C4-Pad2)*%
%TO.C,D2\u002C4*%
X125984000Y-150204000D03*
D12*
%TO.N,KEY_ROW4*%
X125984000Y-142404000D03*
%TD*%
D13*
%TO.N,Net-(D2\u002C5-Pad2)*%
%TO.C,D2\u002C5*%
X107696000Y-175604000D03*
D12*
%TO.N,KEY_ROW5*%
X107696000Y-167804000D03*
%TD*%
%TO.N,KEY_ROW0*%
%TO.C,D2\u002C0*%
X121412000Y-30644000D03*
D13*
%TO.N,Net-(D2\u002C0-Pad2)*%
X121412000Y-38444000D03*
%TD*%
D12*
%TO.N,KEY_ROW2*%
%TO.C,D2\u002C2*%
X106426000Y-91858000D03*
D13*
%TO.N,Net-(D2\u002C2-Pad2)*%
X106426000Y-99658000D03*
%TD*%
D12*
%TO.N,KEY_ROW1*%
%TO.C,D2\u002C1*%
X93980000Y-67728000D03*
D13*
%TO.N,Net-(D2\u002C1-Pad2)*%
X93980000Y-75528000D03*
%TD*%
%TO.N,Net-(D2\u002C3-Pad2)*%
%TO.C,D2\u002C3*%
X113284000Y-125406000D03*
D12*
%TO.N,KEY_ROW3*%
X113284000Y-117606000D03*
%TD*%
D13*
%TO.N,Net-(D3\u002C0-Pad2)*%
%TO.C,D3\u002C0*%
X146558000Y-38698000D03*
D12*
%TO.N,KEY_ROW0*%
X146558000Y-30898000D03*
%TD*%
%TO.N,KEY_ROW1*%
%TO.C,D3\u002C1*%
X119380000Y-67474000D03*
D13*
%TO.N,Net-(D3\u002C1-Pad2)*%
X119380000Y-75274000D03*
%TD*%
D12*
%TO.N,KEY_ROW4*%
%TO.C,D3\u002C4*%
X151384000Y-142912000D03*
D13*
%TO.N,Net-(D3\u002C4-Pad2)*%
X151384000Y-150712000D03*
%TD*%
D12*
%TO.N,KEY_ROW2*%
%TO.C,D3\u002C2*%
X131064000Y-92112000D03*
D13*
%TO.N,Net-(D3\u002C2-Pad2)*%
X131064000Y-99912000D03*
%TD*%
D12*
%TO.N,KEY_ROW5*%
%TO.C,D3\u002C5*%
X206756000Y-170344000D03*
D13*
%TO.N,Net-(D3\u002C5-Pad2)*%
X206756000Y-178144000D03*
%TD*%
%TO.N,Net-(D3\u002C3-Pad2)*%
%TO.C,D3\u002C3*%
X139192000Y-124804000D03*
D12*
%TO.N,KEY_ROW3*%
X139192000Y-117004000D03*
%TD*%
D13*
%TO.N,Net-(D4\u002C4-Pad2)*%
%TO.C,D4\u002C4*%
X177292000Y-151677000D03*
D12*
%TO.N,KEY_ROW4*%
X177292000Y-143877000D03*
%TD*%
D13*
%TO.N,Net-(D4\u002C3-Pad2)*%
%TO.C,D4\u002C3*%
X164084000Y-124804000D03*
D12*
%TO.N,KEY_ROW3*%
X164084000Y-117004000D03*
%TD*%
%TO.N,KEY_ROW1*%
%TO.C,D4\u002C1*%
X146812000Y-66204000D03*
D13*
%TO.N,Net-(D4\u002C1-Pad2)*%
X146812000Y-74004000D03*
%TD*%
%TO.N,Net-(D4\u002C0-Pad2)*%
%TO.C,D4\u002C0*%
X171704000Y-38444000D03*
D12*
%TO.N,KEY_ROW0*%
X171704000Y-30644000D03*
%TD*%
%TO.N,KEY_ROW2*%
%TO.C,D4\u002C2*%
X156464000Y-91604000D03*
D13*
%TO.N,Net-(D4\u002C2-Pad2)*%
X156464000Y-99404000D03*
%TD*%
%TO.N,Net-(D5\u002C0-Pad2)*%
%TO.C,D5\u002C0*%
X212344000Y-37772000D03*
D12*
%TO.N,KEY_ROW0*%
X212344000Y-29972000D03*
%TD*%
D13*
%TO.N,Net-(D5\u002C2-Pad2)*%
%TO.C,D5\u002C2*%
X180340000Y-98736000D03*
D12*
%TO.N,KEY_ROW2*%
X180340000Y-90936000D03*
%TD*%
%TO.N,KEY_ROW1*%
%TO.C,D5\u002C1*%
X172212000Y-66204000D03*
D13*
%TO.N,Net-(D5\u002C1-Pad2)*%
X172212000Y-74004000D03*
%TD*%
%TO.N,Net-(D5\u002C3-Pad2)*%
%TO.C,D5\u002C3*%
X189484000Y-125312000D03*
D12*
%TO.N,KEY_ROW3*%
X189484000Y-117512000D03*
%TD*%
%TO.N,KEY_ROW4*%
%TO.C,D5\u002C4*%
X202184000Y-143420000D03*
D13*
%TO.N,Net-(D5\u002C4-Pad2)*%
X202184000Y-151220000D03*
%TD*%
%TO.N,Net-(D6\u002C0-Pad2)*%
%TO.C,D6\u002C0*%
X237744000Y-38698000D03*
D12*
%TO.N,KEY_ROW0*%
X237744000Y-30898000D03*
%TD*%
%TO.N,KEY_ROW3*%
%TO.C,D6\u002C3*%
X213360000Y-116699000D03*
D13*
%TO.N,Net-(D6\u002C3-Pad2)*%
X213360000Y-124499000D03*
%TD*%
D12*
%TO.N,KEY_ROW4*%
%TO.C,D6\u002C4*%
X227584000Y-142912000D03*
D13*
%TO.N,Net-(D6\u002C4-Pad2)*%
X227584000Y-150712000D03*
%TD*%
D12*
%TO.N,KEY_ROW1*%
%TO.C,D6\u002C1*%
X197612000Y-66204000D03*
D13*
%TO.N,Net-(D6\u002C1-Pad2)*%
X197612000Y-74004000D03*
%TD*%
%TO.N,Net-(D6\u002C2-Pad2)*%
%TO.C,D6\u002C2*%
X207772000Y-99455000D03*
D12*
%TO.N,KEY_ROW2*%
X207772000Y-91655000D03*
%TD*%
%TO.N,KEY_ROW4*%
%TO.C,D7\u002C4*%
X252984000Y-143420000D03*
D13*
%TO.N,Net-(D7\u002C4-Pad2)*%
X252984000Y-151220000D03*
%TD*%
%TO.N,Net-(D7\u002C2-Pad2)*%
%TO.C,D7\u002C2*%
X233172000Y-99912000D03*
D12*
%TO.N,KEY_ROW2*%
X233172000Y-92112000D03*
%TD*%
%TO.N,KEY_ROW1*%
%TO.C,D7\u002C1*%
X222504000Y-67220000D03*
D13*
%TO.N,Net-(D7\u002C1-Pad2)*%
X222504000Y-75020000D03*
%TD*%
%TO.N,Net-(D7\u002C0-Pad2)*%
%TO.C,D7\u002C0*%
X263144000Y-38444000D03*
D12*
%TO.N,KEY_ROW0*%
X263144000Y-30644000D03*
%TD*%
D13*
%TO.N,Net-(D7\u002C3-Pad2)*%
%TO.C,D7\u002C3*%
X240284000Y-124804000D03*
D12*
%TO.N,KEY_ROW3*%
X240284000Y-117004000D03*
%TD*%
D13*
%TO.N,Net-(D8\u002C0-Pad2)*%
%TO.C,D8\u002C0*%
X289052000Y-38952000D03*
D12*
%TO.N,KEY_ROW0*%
X289052000Y-31152000D03*
%TD*%
D13*
%TO.N,Net-(D8\u002C3-Pad2)*%
%TO.C,D8\u002C3*%
X266192000Y-124804000D03*
D12*
%TO.N,KEY_ROW3*%
X266192000Y-117004000D03*
%TD*%
%TO.N,KEY_ROW1*%
%TO.C,D8\u002C1*%
X248412000Y-66712000D03*
D13*
%TO.N,Net-(D8\u002C1-Pad2)*%
X248412000Y-74512000D03*
%TD*%
%TO.N,Net-(D8\u002C2-Pad2)*%
%TO.C,D8\u002C2*%
X258572000Y-99912000D03*
D12*
%TO.N,KEY_ROW2*%
X258572000Y-92112000D03*
%TD*%
D13*
%TO.N,Net-(D8\u002C5-Pad2)*%
%TO.C,D8\u002C5*%
X293624000Y-175604000D03*
D12*
%TO.N,KEY_ROW5*%
X293624000Y-167804000D03*
%TD*%
D13*
%TO.N,Net-(D8\u002C4-Pad2)*%
%TO.C,D8\u002C4*%
X278892000Y-150712000D03*
D12*
%TO.N,KEY_ROW4*%
X278892000Y-142912000D03*
%TD*%
D13*
%TO.N,Net-(D9\u002C2-Pad2)*%
%TO.C,D9\u002C2*%
X283464000Y-99404000D03*
D12*
%TO.N,KEY_ROW2*%
X283464000Y-91604000D03*
%TD*%
%TO.N,KEY_ROW1*%
%TO.C,D9\u002C1*%
X273812000Y-66712000D03*
D13*
%TO.N,Net-(D9\u002C1-Pad2)*%
X273812000Y-74512000D03*
%TD*%
%TO.N,Net-(D9\u002C3-Pad2)*%
%TO.C,D9\u002C3*%
X291592000Y-124804000D03*
D12*
%TO.N,KEY_ROW3*%
X291592000Y-117004000D03*
%TD*%
%TO.N,KEY_ROW4*%
%TO.C,D9\u002C4*%
X304292000Y-143420000D03*
D13*
%TO.N,Net-(D9\u002C4-Pad2)*%
X304292000Y-151220000D03*
%TD*%
%TO.N,Net-(D9\u002C5-Pad2)*%
%TO.C,D9\u002C5*%
X327152000Y-176112000D03*
D12*
%TO.N,KEY_ROW5*%
X327152000Y-168312000D03*
%TD*%
%TO.N,KEY_ROW0*%
%TO.C,D9\u002C0*%
X329692000Y-30695000D03*
D13*
%TO.N,Net-(D9\u002C0-Pad2)*%
X329692000Y-38495000D03*
%TD*%
D12*
%TO.N,KEY_ROW4*%
%TO.C,D10\u002C4*%
X329692000Y-143420000D03*
D13*
%TO.N,Net-(D10\u002C4-Pad2)*%
X329692000Y-151220000D03*
%TD*%
%TO.N,Net-(D10\u002C5-Pad2)*%
%TO.C,D10\u002C5*%
X361188000Y-175604000D03*
D12*
%TO.N,KEY_ROW5*%
X361188000Y-167804000D03*
%TD*%
D13*
%TO.N,Net-(D10\u002C1-Pad2)*%
%TO.C,D10\u002C1*%
X298704000Y-74004000D03*
D12*
%TO.N,KEY_ROW1*%
X298704000Y-66204000D03*
%TD*%
%TO.N,KEY_ROW0*%
%TO.C,D10\u002C0*%
X354584000Y-31406000D03*
D13*
%TO.N,Net-(D10\u002C0-Pad2)*%
X354584000Y-39206000D03*
%TD*%
%TO.N,Net-(D10\u002C2-Pad2)*%
%TO.C,D10\u002C2*%
X308864000Y-99912000D03*
D12*
%TO.N,KEY_ROW2*%
X308864000Y-92112000D03*
%TD*%
D13*
%TO.N,Net-(D10\u002C3-Pad2)*%
%TO.C,D10\u002C3*%
X316992000Y-124804000D03*
D12*
%TO.N,KEY_ROW3*%
X316992000Y-117004000D03*
%TD*%
%TO.N,KEY_ROW0*%
%TO.C,D11\u002C0*%
X380492000Y-31152000D03*
D13*
%TO.N,Net-(D11\u002C0-Pad2)*%
X380492000Y-38952000D03*
%TD*%
D12*
%TO.N,KEY_ROW1*%
%TO.C,D11\u002C1*%
X324104000Y-66204000D03*
D13*
%TO.N,Net-(D11\u002C1-Pad2)*%
X324104000Y-74004000D03*
%TD*%
%TO.N,Net-(D11\u002C3-Pad2)*%
%TO.C,D11\u002C3*%
X341884000Y-124804000D03*
D12*
%TO.N,KEY_ROW3*%
X341884000Y-117004000D03*
%TD*%
%TO.N,KEY_ROW2*%
%TO.C,D11\u002C2*%
X334772000Y-91096000D03*
D13*
%TO.N,Net-(D11\u002C2-Pad2)*%
X334772000Y-98896000D03*
%TD*%
%TO.N,Net-(D11\u002C4-Pad2)*%
%TO.C,D11\u002C4*%
X377952000Y-151220000D03*
D12*
%TO.N,KEY_ROW4*%
X377952000Y-143420000D03*
%TD*%
%TO.N,KEY_ROW5*%
%TO.C,D11\u002C5*%
X391668000Y-167804000D03*
D13*
%TO.N,Net-(D11\u002C5-Pad2)*%
X391668000Y-175604000D03*
%TD*%
%TO.N,Net-(D12\u002C3-Pad2)*%
%TO.C,D12\u002C3*%
X382524000Y-124296000D03*
D12*
%TO.N,KEY_ROW3*%
X382524000Y-116496000D03*
%TD*%
%TO.N,KEY_ROW2*%
%TO.C,D12\u002C2*%
X360172000Y-91604000D03*
D13*
%TO.N,Net-(D12\u002C2-Pad2)*%
X360172000Y-99404000D03*
%TD*%
%TO.N,Net-(D12\u002C1-Pad2)*%
%TO.C,D12\u002C1*%
X350012000Y-74512000D03*
D12*
%TO.N,KEY_ROW1*%
X350012000Y-66712000D03*
%TD*%
%TO.N,KEY_ROW0*%
%TO.C,D12\u002C0*%
X405892000Y-30136000D03*
D13*
%TO.N,Net-(D12\u002C0-Pad2)*%
X405892000Y-37936000D03*
%TD*%
%TO.N,Net-(D13\u002C2-Pad2)*%
%TO.C,D13\u002C2*%
X390144000Y-99404000D03*
D12*
%TO.N,KEY_ROW2*%
X390144000Y-91604000D03*
%TD*%
%TO.N,KEY_ROW1*%
%TO.C,D13\u002C1*%
X385064000Y-66255000D03*
D13*
%TO.N,Net-(D13\u002C1-Pad2)*%
X385064000Y-74055000D03*
%TD*%
%TO.N,Net-(D14\u002C1-Pad2)*%
%TO.C,D14\u002C1*%
X435864000Y-73656000D03*
D12*
%TO.N,KEY_ROW1*%
X435864000Y-65856000D03*
%TD*%
%TO.N,KEY_ROW3*%
%TO.C,D14\u002C3*%
X435864000Y-91604000D03*
D13*
%TO.N,Net-(D14\u002C3-Pad2)*%
X435864000Y-99404000D03*
%TD*%
D12*
%TO.N,KEY_ROW0*%
%TO.C,D14\u002C0*%
X436372000Y-30847000D03*
D13*
%TO.N,Net-(D14\u002C0-Pad2)*%
X436372000Y-38647000D03*
%TD*%
D12*
%TO.N,KEY_ROW6*%
%TO.C,D14\u002C6*%
X435102000Y-167550000D03*
D13*
%TO.N,Net-(D14\u002C6-Pad2)*%
X435102000Y-175350000D03*
%TD*%
D12*
%TO.N,KEY_ROW0*%
%TO.C,D15\u002C0*%
X461264000Y-30898000D03*
D13*
%TO.N,Net-(D15\u002C0-Pad2)*%
X461264000Y-38698000D03*
%TD*%
%TO.N,Net-(D15\u002C1-Pad2)*%
%TO.C,D15\u002C1*%
X461518000Y-74766000D03*
D12*
%TO.N,KEY_ROW1*%
X461518000Y-66966000D03*
%TD*%
%TO.N,KEY_ROW3*%
%TO.C,D15\u002C3*%
X461264000Y-91858000D03*
D13*
%TO.N,Net-(D15\u002C3-Pad2)*%
X461264000Y-99658000D03*
%TD*%
%TO.N,Net-(D15\u002C5-Pad2)*%
%TO.C,D15\u002C5*%
X461264000Y-150204000D03*
D12*
%TO.N,KEY_ROW5*%
X461264000Y-142404000D03*
%TD*%
D13*
%TO.N,Net-(D15\u002C6-Pad2)*%
%TO.C,D15\u002C6*%
X461264000Y-174842000D03*
D12*
%TO.N,KEY_ROW6*%
X461264000Y-167042000D03*
%TD*%
%TO.N,KEY_ROW6*%
%TO.C,D16\u002C6*%
X486664000Y-167804000D03*
D13*
%TO.N,Net-(D16\u002C6-Pad2)*%
X486664000Y-175604000D03*
%TD*%
%TO.N,Net-(D16\u002C0-Pad2)*%
%TO.C,D16\u002C0*%
X486918000Y-38190000D03*
D12*
%TO.N,KEY_ROW0*%
X486918000Y-30390000D03*
%TD*%
%TO.N,KEY_ROW1*%
%TO.C,D16\u002C1*%
X486156000Y-66204000D03*
D13*
%TO.N,Net-(D16\u002C1-Pad2)*%
X486156000Y-74004000D03*
%TD*%
D12*
%TO.N,KEY_ROW5*%
%TO.C,D16\u002C5*%
X518160000Y-143115000D03*
D13*
%TO.N,Net-(D16\u002C5-Pad2)*%
X518160000Y-150915000D03*
%TD*%
%TO.N,Net-(D16\u002C3-Pad2)*%
%TO.C,D16\u002C3*%
X486664000Y-99658000D03*
D12*
%TO.N,KEY_ROW3*%
X486664000Y-91858000D03*
%TD*%
%TO.N,KEY_ROW4*%
%TO.C,D16\u002C4*%
X518160000Y-117512000D03*
D13*
%TO.N,Net-(D16\u002C4-Pad2)*%
X518160000Y-125312000D03*
%TD*%
%TO.N,Net-(D17\u002C3-Pad2)*%
%TO.C,D17\u002C3*%
X518160000Y-99404000D03*
D12*
%TO.N,KEY_ROW3*%
X518160000Y-91604000D03*
%TD*%
%TO.N,KEY_ROW1*%
%TO.C,D17\u002C1*%
X518160000Y-66255000D03*
D13*
%TO.N,Net-(D17\u002C1-Pad2)*%
X518160000Y-74055000D03*
%TD*%
D12*
%TO.N,KEY_ROW6*%
%TO.C,D17\u002C6*%
X530352000Y-168312000D03*
D13*
%TO.N,Net-(D17\u002C6-Pad2)*%
X530352000Y-176112000D03*
%TD*%
%TO.N,Net-(D17\u002C4-Pad2)*%
%TO.C,D17\u002C4*%
X543560000Y-125312000D03*
D12*
%TO.N,KEY_ROW4*%
X543560000Y-117512000D03*
%TD*%
D13*
%TO.N,Net-(D17\u002C0-Pad2)*%
%TO.C,D17\u002C0*%
X518160000Y-38444000D03*
D12*
%TO.N,KEY_ROW0*%
X518160000Y-30644000D03*
%TD*%
D13*
%TO.N,Net-(D17\u002C5-Pad2)*%
%TO.C,D17\u002C5*%
X543052000Y-150712000D03*
D12*
%TO.N,KEY_ROW5*%
X543052000Y-142912000D03*
%TD*%
%TO.N,KEY_ROW1*%
%TO.C,D18\u002C1*%
X543052000Y-66712000D03*
D13*
%TO.N,Net-(D18\u002C1-Pad2)*%
X543052000Y-74512000D03*
%TD*%
D12*
%TO.N,KEY_ROW6*%
%TO.C,D18\u002C6*%
X568960000Y-167296000D03*
D13*
%TO.N,Net-(D18\u002C6-Pad2)*%
X568960000Y-175096000D03*
%TD*%
%TO.N,Net-(D18\u002C3-Pad2)*%
%TO.C,D18\u002C3*%
X543052000Y-99404000D03*
D12*
%TO.N,KEY_ROW3*%
X543052000Y-91604000D03*
%TD*%
%TO.N,KEY_ROW0*%
%TO.C,D18\u002C0*%
X543052000Y-30644000D03*
D13*
%TO.N,Net-(D18\u002C0-Pad2)*%
X543052000Y-38444000D03*
%TD*%
%TO.N,Net-(D18\u002C5-Pad2)*%
%TO.C,D18\u002C5*%
X568452000Y-150712000D03*
D12*
%TO.N,KEY_ROW5*%
X568452000Y-142912000D03*
%TD*%
%TO.N,KEY_ROW4*%
%TO.C,D18\u002C4*%
X568960000Y-117512000D03*
D13*
%TO.N,Net-(D18\u002C4-Pad2)*%
X568960000Y-125312000D03*
%TD*%
D12*
%TO.N,KEY_ROW4*%
%TO.C,D19\u002C4*%
X594360000Y-105320000D03*
D13*
%TO.N,Net-(D19\u002C4-Pad2)*%
X594360000Y-113120000D03*
%TD*%
%TO.N,Net-(D19\u002C0-Pad2)*%
%TO.C,D19\u002C0*%
X568452000Y-38444000D03*
D12*
%TO.N,KEY_ROW0*%
X568452000Y-30644000D03*
%TD*%
D13*
%TO.N,Net-(D19\u002C3-Pad2)*%
%TO.C,D19\u002C3*%
X568960000Y-99404000D03*
D12*
%TO.N,KEY_ROW3*%
X568960000Y-91604000D03*
%TD*%
%TO.N,KEY_ROW1*%
%TO.C,D19\u002C1*%
X568960000Y-66204000D03*
D13*
%TO.N,Net-(D19\u002C1-Pad2)*%
X568960000Y-74004000D03*
%TD*%
%TO.N,Net-(D19\u002C6-Pad2)*%
%TO.C,D19\u002C6*%
X593852000Y-160618000D03*
D12*
%TO.N,KEY_ROW6*%
X593852000Y-152818000D03*
%TD*%
D13*
%TO.N,Net-(D20\u002C1-Pad2)*%
%TO.C,D20\u002C1*%
X592328000Y-74004000D03*
D12*
%TO.N,KEY_ROW1*%
X592328000Y-66204000D03*
%TD*%
%TO.N,KEY_ROW0*%
%TO.C,D20\u002C0*%
X593852000Y-31152000D03*
D13*
%TO.N,Net-(D20\u002C0-Pad2)*%
X593852000Y-38952000D03*
%TD*%
%TO.N,MAIN_VBUS*%
%TO.C,J0*%
%TA.AperFunction,ComponentPad*%
G36*
G01*
X465111000Y-108370000D02*
X466561000Y-108370000D01*
G75*
G02*
X466811000Y-108620000I0J-250000D01*
G01*
X466811000Y-109820000D01*
G75*
G02*
X466561000Y-110070000I-250000J0D01*
G01*
X465111000Y-110070000D01*
G75*
G02*
X464861000Y-109820000I0J250000D01*
G01*
X464861000Y-108620000D01*
G75*
G02*
X465111000Y-108370000I250000J0D01*
G01*
G37*
%TD.AperFunction*%
D14*
%TO.N,USB_DP*%
X465836000Y-111720000D03*
%TO.N,USB_DN*%
X465836000Y-114220000D03*
%TO.N,GNDPWR*%
X465836000Y-116720000D03*
%TD*%
D15*
%TO.N,Net-(J1-Pad4)*%
%TO.C,J1*%
X427108000Y-100838000D03*
%TO.N,Net-(J1-Pad3)*%
X424608000Y-100838000D03*
%TO.N,PICO_SCL0*%
X422108000Y-100838000D03*
%TO.N,PICO_SDA0*%
%TA.AperFunction,ComponentPad*%
G36*
G01*
X418758000Y-101563000D02*
X418758000Y-100113000D01*
G75*
G02*
X419008000Y-99863000I250000J0D01*
G01*
X420208000Y-99863000D01*
G75*
G02*
X420458000Y-100113000I0J-250000D01*
G01*
X420458000Y-101563000D01*
G75*
G02*
X420208000Y-101813000I-250000J0D01*
G01*
X419008000Y-101813000D01*
G75*
G02*
X418758000Y-101563000I0J250000D01*
G01*
G37*
%TD.AperFunction*%
%TD*%
D16*
%TO.N,Net-(D0\u002C5-Pad2)*%
X51054000Y-176022000D03*
%TO.N,Net-(D0\u002C4-Pad2)*%
X60706000Y-150622000D03*
%TO.N,Net-(D0\u002C0-Pad2)*%
X48514000Y-38862000D03*
%TO.N,Net-(D0\u002C1-Pad2)*%
X48514000Y-74422000D03*
%TO.N,Net-(D0\u002C2-Pad2)*%
X53276500Y-100101400D03*
%TO.N,Net-(D0\u002C3-Pad2)*%
X55664100Y-125196600D03*
%TO.N,Net-(D1\u002C4-Pad2)*%
X104394000Y-151130000D03*
%TO.N,Net-(D1\u002C5-Pad2)*%
X81534000Y-176022000D03*
%TO.N,Net-(D1\u002C1-Pad2)*%
X73914000Y-74422000D03*
%TO.N,Net-(D1\u002C3-Pad2)*%
X91694000Y-125222000D03*
%TO.N,Net-(D1\u002C2-Pad2)*%
X84074000Y-99822000D03*
%TO.N,Net-(D1\u002C0-Pad2)*%
X99314000Y-38862000D03*
%TO.N,Net-(D2\u002C0-Pad2)*%
X124714000Y-38862000D03*
%TO.N,Net-(D2\u002C1-Pad2)*%
X99314000Y-74422000D03*
%TO.N,Net-(D3\u002C0-Pad2)*%
X150114000Y-38862000D03*
%TO.N,Net-(D3\u002C1-Pad2)*%
X124714000Y-74422000D03*
%TO.N,Net-(D4\u002C0-Pad2)*%
X175514000Y-38862000D03*
%TO.N,Net-(D5\u002C0-Pad2)*%
X216154000Y-38862000D03*
%TO.N,Net-(D5\u002C1-Pad2)*%
X175514000Y-74422000D03*
%TO.N,Net-(D5\u002C2-Pad2)*%
X185674000Y-99822000D03*
%TO.N,Net-(D6\u002C1-Pad2)*%
X200914000Y-74422000D03*
%TO.N,Net-(D6\u002C2-Pad2)*%
X211074000Y-99822000D03*
%TO.N,Net-(D6\u002C0-Pad2)*%
X241554000Y-38862000D03*
%TO.N,Net-(D7\u002C0-Pad2)*%
X266954000Y-38862000D03*
%TO.N,Net-(D7\u002C2-Pad2)*%
X236474000Y-99822000D03*
%TO.N,Net-(D7\u002C1-Pad2)*%
X226314000Y-74422000D03*
%TO.N,Net-(D8\u002C0-Pad2)*%
X292354000Y-38862000D03*
%TO.N,Net-(D9\u002C0-Pad2)*%
X332994000Y-38862000D03*
%TO.N,Net-(D10\u002C3-Pad2)*%
X320294000Y-125222000D03*
%TO.N,I2C_SDA0*%
X82296000Y-57912000D03*
X417957000Y-72517000D03*
X45720000Y-49276000D03*
X452628000Y-114808000D03*
%TO.N,I2C_SCL0*%
X80772000Y-57912000D03*
X417957000Y-71247000D03*
X43053000Y-47625000D03*
X453009000Y-113665000D03*
%TO.N,GNDPWR*%
X77216000Y-62992000D03*
X102616000Y-62992000D03*
X87376000Y-88392000D03*
X94996000Y-113792000D03*
X120396000Y-113792000D03*
X113284000Y-88392000D03*
X153416000Y-62992000D03*
X128016000Y-62992000D03*
X138176000Y-88392000D03*
X145796000Y-113792000D03*
X133096000Y-139700000D03*
X158496000Y-139700000D03*
X183896000Y-139700000D03*
X209296000Y-139700000D03*
X196596000Y-113792000D03*
X171196000Y-113792000D03*
X163576000Y-88392000D03*
X188976000Y-88392000D03*
X178816000Y-62992000D03*
X204216000Y-62992000D03*
X214376000Y-88392000D03*
X221996000Y-113792000D03*
X234696000Y-139700000D03*
X260096000Y-139700000D03*
X285496000Y-139700000D03*
X310896000Y-139700000D03*
X247396000Y-113792000D03*
X272796000Y-113792000D03*
X298196000Y-113792000D03*
X323596000Y-113792000D03*
X290576000Y-88392000D03*
X265176000Y-88392000D03*
X239776000Y-88392000D03*
X229616000Y-62992000D03*
X255016000Y-62992000D03*
X280416000Y-62992000D03*
X305816000Y-62992000D03*
X315976000Y-88392000D03*
X341376000Y-88392000D03*
X331216000Y-62992000D03*
X356616000Y-62992000D03*
X366776000Y-88392000D03*
X348996000Y-113792000D03*
X336296000Y-139700000D03*
X389636000Y-113792000D03*
X396748000Y-88392000D03*
X391668000Y-62992000D03*
X442976000Y-62992000D03*
X442976000Y-88392000D03*
X524764000Y-114300000D03*
X550164000Y-114300000D03*
X575564000Y-114300000D03*
X600964000Y-101600000D03*
X575564000Y-88392000D03*
X550164000Y-88392000D03*
X468376000Y-88392000D03*
X468376000Y-62992000D03*
X524764000Y-88392000D03*
X493776000Y-88392000D03*
X493776000Y-62484000D03*
X524764000Y-62992000D03*
X550164000Y-62992000D03*
X575564000Y-62992000D03*
X600964000Y-63500000D03*
X524764000Y-50292000D03*
X550164000Y-50292000D03*
X575564000Y-50292000D03*
X600964000Y-50292000D03*
X601472000Y-27432000D03*
X550164000Y-27432000D03*
X524764000Y-27432000D03*
X493776000Y-27432000D03*
X468376000Y-27432000D03*
X443484000Y-27432000D03*
X412496000Y-27432000D03*
X387096000Y-27432000D03*
X361696000Y-27432000D03*
X336296000Y-27432000D03*
X296164000Y-27432000D03*
X270256000Y-27432000D03*
X244856000Y-27432000D03*
X219456000Y-27432000D03*
X153416000Y-27432000D03*
X178816000Y-27432000D03*
X128016000Y-27432000D03*
X102616000Y-27432000D03*
X51816000Y-27432000D03*
X51816000Y-62992000D03*
X56388000Y-88392000D03*
X58928000Y-113792000D03*
X54356000Y-164592000D03*
X84836000Y-164592000D03*
X115316000Y-164592000D03*
X213360000Y-164592000D03*
X300228000Y-164592000D03*
X333756000Y-164592000D03*
X368300000Y-164592000D03*
X398780000Y-164592000D03*
X442976000Y-164592000D03*
X468376000Y-164592000D03*
X537464000Y-164592000D03*
X575564000Y-164592000D03*
X600964000Y-149860000D03*
X550164000Y-139700000D03*
X468376000Y-139700000D03*
X449326000Y-121666000D03*
X446278000Y-123698000D03*
X491744000Y-165100000D03*
X574201299Y-27270701D03*
X385064000Y-139700000D03*
X64008000Y-139192000D03*
X576072000Y-139700000D03*
X525272000Y-139700000D03*
X107696000Y-139700000D03*
X450596000Y-139192000D03*
X34544000Y-42672000D03*
X422148000Y-77216000D03*
X86868000Y-52324000D03*
%TO.N,KEY_COL6*%
X244321000Y-148590000D03*
X231761500Y-122822500D03*
X224141500Y-97422500D03*
X213981500Y-72022500D03*
X254481000Y-36322000D03*
%TO.N,KEY_COL5*%
X218921000Y-148590000D03*
X206361500Y-122822500D03*
X198741500Y-97422500D03*
X188581500Y-72022500D03*
X229081000Y-36322000D03*
%TO.N,KEY_COL4*%
X188441000Y-36322000D03*
X163181500Y-72022500D03*
X173341500Y-97422500D03*
X180961500Y-122822500D03*
X193521000Y-148590000D03*
%TO.N,KEY_COL3*%
X155561500Y-122822500D03*
X163041000Y-36322000D03*
X168121000Y-148590000D03*
X147941500Y-97422500D03*
X137781500Y-72022500D03*
X222985000Y-173482000D03*
%TO.N,KEY_COL2*%
X137641000Y-36322000D03*
X112381500Y-72022500D03*
X123049500Y-97422500D03*
X130161500Y-122822500D03*
X142721000Y-148871000D03*
X124941000Y-173482000D03*
X73279000Y-44323000D03*
%TO.N,KEY_COL1*%
X117321000Y-148590000D03*
X94461000Y-173482000D03*
X104761500Y-122822500D03*
X97141500Y-97422500D03*
X86981500Y-72022500D03*
X112241000Y-36322000D03*
%TO.N,KEY_COL0*%
X63981000Y-173482000D03*
X73633000Y-147855000D03*
X68725250Y-122790750D03*
X66363050Y-97720950D03*
X61581500Y-72022500D03*
X61441000Y-36322000D03*
X75819000Y-44323000D03*
%TO.N,KEY_COL7*%
X269721000Y-148590000D03*
X257161500Y-122822500D03*
X249541500Y-97422500D03*
X239381500Y-72022500D03*
X279881000Y-36322000D03*
%TO.N,KEY_COL8*%
X305281000Y-36322000D03*
X264781500Y-71741500D03*
X274941500Y-97422500D03*
X282561500Y-122822500D03*
X295261500Y-148730500D03*
X309853000Y-173482000D03*
%TO.N,KEY_COL9*%
X345921000Y-36322000D03*
X290181500Y-72022500D03*
X300341500Y-97422500D03*
X307961500Y-122822500D03*
X320521000Y-148590000D03*
X343381000Y-173482000D03*
%TO.N,KEY_COL10*%
X377925000Y-173482000D03*
X345921000Y-148590000D03*
X333361500Y-122822500D03*
X325741500Y-97422500D03*
X315581500Y-72022500D03*
X371321000Y-36322000D03*
%TO.N,KEY_COL11*%
X408405000Y-173482000D03*
X394689000Y-148363000D03*
X358621000Y-122455000D03*
X351141500Y-97422500D03*
X340981500Y-72022500D03*
X396721000Y-36322000D03*
%TO.N,KEY_COL12*%
X399261000Y-122682000D03*
X376401000Y-97055000D03*
X366381500Y-72022500D03*
X422121000Y-36322000D03*
%TO.N,KEY_COL13*%
X406373000Y-97282000D03*
X401293000Y-71882000D03*
%TO.N,KEY_COL19*%
X610348500Y-158736500D03*
X610589000Y-110744000D03*
X585189000Y-36322000D03*
X585189000Y-97282000D03*
X585189000Y-71655000D03*
X415036000Y-53848000D03*
%TO.N,KEY_COL18*%
X559789000Y-36322000D03*
X559789000Y-71655000D03*
X559789000Y-97055000D03*
X585189000Y-123471000D03*
X585189000Y-148590000D03*
X585189000Y-173482000D03*
X415036000Y-55372000D03*
%TO.N,KEY_COL17*%
X534389000Y-97282000D03*
X559789000Y-148363000D03*
X546848500Y-173468500D03*
X534389000Y-71655000D03*
X534389000Y-36322000D03*
X417449000Y-61087000D03*
X559789000Y-123471000D03*
%TO.N,KEY_COL16*%
X503401000Y-36322000D03*
X503401000Y-71655000D03*
X503401000Y-97282000D03*
X534643000Y-148590000D03*
X503401000Y-173482000D03*
X417449000Y-59817000D03*
X534389000Y-123471000D03*
%TO.N,KEY_COL15*%
X478001000Y-71655000D03*
X478001000Y-36322000D03*
X478001000Y-173482000D03*
X478001000Y-148590000D03*
X478001000Y-97282000D03*
X417449000Y-58547000D03*
%TO.N,KEY_COL14*%
X452601000Y-173482000D03*
X452601000Y-97282000D03*
X453109000Y-36322000D03*
X417449000Y-57277000D03*
X452601000Y-71655000D03*
%TO.N,Net-(D2\u002C3-Pad2)*%
X117094000Y-125222000D03*
%TO.N,Net-(D2\u002C4-Pad2)*%
X129794000Y-151130000D03*
%TO.N,Net-(D2\u002C5-Pad2)*%
X112014000Y-176022000D03*
%TO.N,Net-(D2\u002C2-Pad2)*%
X109982000Y-99822000D03*
%TO.N,Net-(D3\u002C5-Pad2)*%
X210058000Y-176022000D03*
%TO.N,Net-(D3\u002C2-Pad2)*%
X134874000Y-99822000D03*
%TO.N,Net-(D3\u002C4-Pad2)*%
X155194000Y-151130000D03*
%TO.N,Net-(D3\u002C3-Pad2)*%
X142494000Y-125222000D03*
%TO.N,Net-(D4\u002C1-Pad2)*%
X150368000Y-74168000D03*
%TO.N,Net-(D4\u002C4-Pad2)*%
X180594000Y-151130000D03*
%TO.N,Net-(D4\u002C2-Pad2)*%
X160274000Y-99822000D03*
%TO.N,Net-(D4\u002C3-Pad2)*%
X167894000Y-125222000D03*
%TO.N,Net-(D5\u002C3-Pad2)*%
X193294000Y-125222000D03*
%TO.N,Net-(D5\u002C4-Pad2)*%
X205994000Y-151130000D03*
%TO.N,Net-(D6\u002C3-Pad2)*%
X218694000Y-125222000D03*
%TO.N,Net-(D6\u002C4-Pad2)*%
X231394000Y-151130000D03*
%TO.N,Net-(D7\u002C4-Pad2)*%
X256794000Y-151130000D03*
%TO.N,Net-(D7\u002C3-Pad2)*%
X244094000Y-125222000D03*
%TO.N,Net-(D8\u002C2-Pad2)*%
X261964000Y-99912000D03*
%TO.N,Net-(D8\u002C1-Pad2)*%
X251714000Y-74422000D03*
%TO.N,Net-(D8\u002C3-Pad2)*%
X269494000Y-125222000D03*
%TO.N,Net-(D8\u002C4-Pad2)*%
X282194000Y-151130000D03*
%TO.N,Net-(D8\u002C5-Pad2)*%
X296926000Y-176022000D03*
%TO.N,Net-(D9\u002C1-Pad2)*%
X277114000Y-74422000D03*
%TO.N,Net-(D9\u002C3-Pad2)*%
X294894000Y-125222000D03*
%TO.N,Net-(D9\u002C4-Pad2)*%
X307594000Y-151130000D03*
%TO.N,Net-(D9\u002C5-Pad2)*%
X330454000Y-176022000D03*
%TO.N,Net-(D9\u002C2-Pad2)*%
X287274000Y-99822000D03*
%TO.N,Net-(D10\u002C0-Pad2)*%
X358394000Y-38862000D03*
%TO.N,Net-(D10\u002C1-Pad2)*%
X302514000Y-74422000D03*
%TO.N,Net-(D10\u002C4-Pad2)*%
X332994000Y-151130000D03*
%TO.N,Net-(D10\u002C5-Pad2)*%
X364998000Y-176022000D03*
%TO.N,Net-(D10\u002C2-Pad2)*%
X312674000Y-99822000D03*
%TO.N,Net-(D11\u002C3-Pad2)*%
X345694000Y-125222000D03*
%TO.N,Net-(D11\u002C0-Pad2)*%
X383794000Y-38862000D03*
%TO.N,Net-(D11\u002C1-Pad2)*%
X327914000Y-74422000D03*
%TO.N,Net-(D11\u002C2-Pad2)*%
X338074000Y-99822000D03*
%TO.N,Net-(D11\u002C4-Pad2)*%
X381762000Y-151130000D03*
%TO.N,Net-(D11\u002C5-Pad2)*%
X395478000Y-176022000D03*
%TO.N,Net-(D12\u002C3-Pad2)*%
X386334000Y-125222000D03*
%TO.N,Net-(D12\u002C0-Pad2)*%
X409194000Y-38862000D03*
%TO.N,Net-(D12\u002C1-Pad2)*%
X353314000Y-74422000D03*
%TO.N,Net-(D12\u002C2-Pad2)*%
X363474000Y-99822000D03*
%TO.N,Net-(D13\u002C2-Pad2)*%
X393446000Y-99822000D03*
%TO.N,Net-(D13\u002C1-Pad2)*%
X388366000Y-74422000D03*
%TO.N,Net-(D14\u002C1-Pad2)*%
X439674000Y-74422000D03*
%TO.N,Net-(D14\u002C0-Pad2)*%
X440182000Y-38862000D03*
%TO.N,Net-(D14\u002C3-Pad2)*%
X439674000Y-99822000D03*
%TO.N,Net-(D15\u002C0-Pad2)*%
X465074000Y-38862000D03*
%TO.N,Net-(D15\u002C3-Pad2)*%
X465074000Y-99822000D03*
%TO.N,Net-(D15\u002C1-Pad2)*%
X465074000Y-74422000D03*
%TO.N,Net-(D15\u002C5-Pad2)*%
X465074000Y-151130000D03*
%TO.N,Net-(D15\u002C6-Pad2)*%
X465074000Y-176022000D03*
%TO.N,Net-(D16\u002C4-Pad2)*%
X521462000Y-125730000D03*
%TO.N,Net-(D16\u002C1-Pad2)*%
X490474000Y-74422000D03*
%TO.N,Net-(D16\u002C0-Pad2)*%
X490474000Y-38862000D03*
%TO.N,Net-(D16\u002C3-Pad2)*%
X490474000Y-99822000D03*
%TO.N,Net-(D16\u002C5-Pad2)*%
X521716000Y-151130000D03*
%TO.N,Net-(D16\u002C6-Pad2)*%
X490474000Y-176022000D03*
%TO.N,Net-(D17\u002C0-Pad2)*%
X521462000Y-38862000D03*
%TO.N,Net-(D17\u002C3-Pad2)*%
X521462000Y-99822000D03*
%TO.N,Net-(D17\u002C1-Pad2)*%
X521462000Y-74422000D03*
%TO.N,Net-(D17\u002C4-Pad2)*%
X546862000Y-125730000D03*
%TO.N,Net-(D17\u002C5-Pad2)*%
X546862000Y-151130000D03*
%TO.N,Net-(D17\u002C6-Pad2)*%
X533908000Y-176022000D03*
%TO.N,Net-(D18\u002C0-Pad2)*%
X546862000Y-38862000D03*
%TO.N,Net-(D18\u002C6-Pad2)*%
X572262000Y-176022000D03*
%TO.N,Net-(D18\u002C4-Pad2)*%
X572262000Y-125730000D03*
%TO.N,Net-(D18\u002C5-Pad2)*%
X572262000Y-151130000D03*
%TO.N,Net-(D18\u002C1-Pad2)*%
X546862000Y-74422000D03*
%TO.N,Net-(D18\u002C3-Pad2)*%
X546862000Y-99822000D03*
%TO.N,Net-(D19\u002C6-Pad2)*%
X597408000Y-161290000D03*
%TO.N,Net-(D19\u002C0-Pad2)*%
X572262000Y-38862000D03*
%TO.N,Net-(D19\u002C4-Pad2)*%
X597662000Y-113284000D03*
%TO.N,Net-(D19\u002C3-Pad2)*%
X572262000Y-99822000D03*
%TO.N,Net-(D19\u002C1-Pad2)*%
X572262000Y-74422000D03*
%TO.N,Net-(D20\u002C0-Pad2)*%
X597662000Y-38862000D03*
%TO.N,Net-(D20\u002C1-Pad2)*%
X597662000Y-74422000D03*
%TO.N,LED_SCL_ROW1*%
X50292000Y-64516000D03*
%TO.N,LED_SDA_ROW1*%
X47752000Y-63500000D03*
%TO.N,LED_SDA_ROW5*%
X38735000Y-59055000D03*
%TO.N,LED_SCL_ROW5*%
X38735000Y-57785000D03*
%TO.N,LED_SCL_ROW3*%
X57404000Y-115316000D03*
%TO.N,LED_SDA_ROW3*%
X55880000Y-111760000D03*
%TO.N,LED_SDA_ROW4*%
X62484000Y-142240000D03*
%TO.N,LED_SCL_ROW4*%
X65532000Y-140716000D03*
%TO.N,LED_SCL_ROW2*%
X50800000Y-89916000D03*
%TO.N,LED_SDA_ROW2*%
X54356000Y-91440000D03*
%TO.N,LED_SCL_ROW0*%
X33528000Y-53848000D03*
%TO.N,LED_SDA_ROW0*%
X36068000Y-54864000D03*
%TO.N,LED_SDA_ROW6*%
X38735000Y-56515000D03*
X441452000Y-167640000D03*
%TO.N,LED_SCL_ROW6*%
X38735000Y-55245000D03*
X441452000Y-166116000D03*
%TO.N,MAIN_VBUS*%
X86868000Y-49276000D03*
X452120000Y-109728000D03*
X470408000Y-135636000D03*
X406682501Y-110461499D03*
X450088000Y-87376000D03*
X77216000Y-57404000D03*
X419100000Y-77216000D03*
X37592000Y-42672000D03*
X409448000Y-95504000D03*
%TO.N,IO_INT0*%
X441452000Y-113284000D03*
X93472000Y-58928000D03*
%TO.N,IO_INT1*%
X440182000Y-113538000D03*
X91948000Y-58928000D03*
%TO.N,IO_INT2*%
X438912000Y-113284000D03*
X422656000Y-85852000D03*
%TO.N,IO_INT3*%
X437388000Y-113284000D03*
X424688000Y-85852000D03*
%TO.N,LED_SCL_ROW7*%
X522732000Y-51816000D03*
X34671000Y-52705000D03*
%TO.N,LED_SDA_ROW7*%
X522732000Y-53340000D03*
X38735000Y-53975000D03*
%TO.N,PICO_33_REF*%
X448156000Y-126084000D03*
X436372000Y-122936000D03*
%TO.N,Net-(D14\u002C6-Pad2)*%
X439674000Y-176022000D03*
%TO.N,KEY_COL20*%
X610589000Y-71882000D03*
X610589000Y-36322000D03*
X415036000Y-52324000D03*
%TD*%
D17*
%TO.N,I2C_SDA0*%
X403352000Y-57912000D02*
X417957000Y-72517000D01*
X82296000Y-57912000D02*
X403352000Y-57912000D01*
X82296000Y-57912000D02*
X81570999Y-58637001D01*
X55081001Y-58637001D02*
X45720000Y-49276000D01*
X81570999Y-58637001D02*
X55081001Y-58637001D01*
X436989001Y-95550413D02*
X419825001Y-78386413D01*
X436989001Y-99169001D02*
X436989001Y-95550413D01*
X452628000Y-114808000D02*
X436989001Y-99169001D01*
X419820403Y-78391011D02*
X419825001Y-78386413D01*
X418565599Y-78391011D02*
X419820403Y-78391011D01*
X417557001Y-77382413D02*
X418565599Y-78391011D01*
X417557001Y-72916999D02*
X417557001Y-77382413D01*
X417957000Y-72517000D02*
X417557001Y-72916999D01*
%TO.N,I2C_SCL0*%
X81497001Y-57186999D02*
X80772000Y-57912000D01*
X403896999Y-57186999D02*
X81497001Y-57186999D01*
X417957000Y-71247000D02*
X403896999Y-57186999D01*
X80554999Y-58129001D02*
X55209411Y-58129001D01*
X80772000Y-57912000D02*
X80554999Y-58129001D01*
X46445001Y-48927999D02*
X45142002Y-47625000D01*
X45142002Y-47625000D02*
X43053000Y-47625000D01*
X46445001Y-49364591D02*
X46445001Y-48927999D01*
X55209411Y-58129001D02*
X46445001Y-49364591D01*
X452443998Y-113665000D02*
X453009000Y-113665000D01*
X437439010Y-98660012D02*
X452443998Y-113665000D01*
X437439010Y-95364012D02*
X437439010Y-98660012D01*
X420011402Y-77936404D02*
X437439010Y-95364012D01*
X419638600Y-77936404D02*
X420011402Y-77936404D01*
X419634003Y-77941001D02*
X419638600Y-77936404D01*
X418751999Y-77941001D02*
X419634003Y-77941001D01*
X418374999Y-76867999D02*
X418374999Y-77564001D01*
X418682001Y-76560997D02*
X418374999Y-76867999D01*
X418374999Y-77564001D02*
X418751999Y-77941001D01*
X418682001Y-71972001D02*
X418682001Y-76560997D01*
X417957000Y-71247000D02*
X418682001Y-71972001D01*
%TO.N,GNDPWR*%
X86868000Y-52324000D02*
X400743412Y-52324000D01*
X400743412Y-52324000D02*
X422148000Y-73728588D01*
X422148000Y-74364998D02*
X422148000Y-77216000D01*
X422148000Y-73728588D02*
X422148000Y-74364998D01*
X422148000Y-77216000D02*
X433324000Y-88392000D01*
X441914997Y-97996999D02*
X443944999Y-97996999D01*
X439235999Y-95318001D02*
X441914997Y-97996999D01*
X439235999Y-91129587D02*
X439235999Y-95318001D01*
X436498412Y-88392000D02*
X439235999Y-91129587D01*
X433324000Y-88392000D02*
X436498412Y-88392000D01*
X462668000Y-116720000D02*
X465836000Y-116720000D01*
X443944999Y-97996999D02*
X462668000Y-116720000D01*
%TO.N,KEY_COL19*%
X585189000Y-69570998D02*
X585189000Y-71655000D01*
X570133013Y-54515011D02*
X585189000Y-69570998D01*
X415703011Y-54515011D02*
X570133013Y-54515011D01*
X415036000Y-53848000D02*
X415703011Y-54515011D01*
%TO.N,KEY_COL18*%
X559789000Y-69570998D02*
X559789000Y-71655000D01*
X545590002Y-55372000D02*
X559789000Y-69570998D01*
X415036000Y-55372000D02*
X545590002Y-55372000D01*
%TO.N,KEY_COL17*%
X527927982Y-78116018D02*
X534389000Y-71655000D01*
X434478018Y-78116018D02*
X527927982Y-78116018D01*
X417449000Y-61087000D02*
X434478018Y-78116018D01*
%TO.N,KEY_COL16*%
X497389991Y-77666009D02*
X503401000Y-71655000D01*
X435298009Y-77666009D02*
X497389991Y-77666009D01*
X417449000Y-59817000D02*
X435298009Y-77666009D01*
%TO.N,KEY_COL15*%
X417449000Y-58547000D02*
X436118000Y-77216000D01*
X472440000Y-77216000D02*
X478001000Y-71655000D01*
X436118000Y-77216000D02*
X472440000Y-77216000D01*
%TO.N,KEY_COL14*%
X448008999Y-76247001D02*
X452601000Y-71655000D01*
X436419001Y-76247001D02*
X448008999Y-76247001D01*
X417449000Y-57277000D02*
X436419001Y-76247001D01*
%TO.N,LED_SDA_ROW6*%
X50957013Y-59087011D02*
X65532000Y-73661998D01*
X41307011Y-59087011D02*
X50957013Y-59087011D01*
X38735000Y-56515000D02*
X41307011Y-59087011D01*
X65532000Y-73661998D02*
X65532000Y-94996000D01*
X74358001Y-103822001D02*
X74358001Y-148018001D01*
X65532000Y-94996000D02*
X74358001Y-103822001D01*
X441636001Y-171518001D02*
X441636001Y-167824001D01*
X433885001Y-179269001D02*
X441636001Y-171518001D01*
X105609001Y-179269001D02*
X433885001Y-179269001D01*
X74358001Y-148018001D02*
X105609001Y-179269001D01*
X441636001Y-167824001D02*
X441452000Y-167640000D01*
%TO.N,LED_SCL_ROW6*%
X38735000Y-55245000D02*
X41656000Y-58166000D01*
X50672412Y-58166000D02*
X65982010Y-73475598D01*
X41656000Y-58166000D02*
X50672412Y-58166000D01*
X65982010Y-94809600D02*
X74808011Y-103635601D01*
X65982010Y-73475598D02*
X65982010Y-94809600D01*
X74808011Y-103635601D02*
X74808011Y-147831601D01*
X104823411Y-177847001D02*
X197659001Y-177847001D01*
X74808011Y-147831601D02*
X104823411Y-177847001D01*
X209095993Y-178818991D02*
X428749009Y-178818991D01*
X207296001Y-177018999D02*
X209095993Y-178818991D01*
X198487003Y-177018999D02*
X207296001Y-177018999D01*
X197659001Y-177847001D02*
X198487003Y-177018999D01*
X428749009Y-178818991D02*
X441452000Y-166116000D01*
%TO.N,MAIN_VBUS*%
X420725020Y-75590980D02*
X419100000Y-77216000D01*
X420725020Y-72942018D02*
X420725020Y-75590980D01*
X400832003Y-53049001D02*
X420725020Y-72942018D01*
X86519999Y-53049001D02*
X400832003Y-53049001D01*
X86142999Y-52672001D02*
X86519999Y-53049001D01*
X86142999Y-50001001D02*
X86142999Y-52672001D01*
X86868000Y-49276000D02*
X86142999Y-50001001D01*
X86868000Y-49276000D02*
X49784000Y-49276000D01*
X49784000Y-49276000D02*
X43180000Y-42672000D01*
X43180000Y-42672000D02*
X37592000Y-42672000D01*
X440944000Y-100018998D02*
X440944000Y-100491002D01*
X437896000Y-90425998D02*
X437896000Y-96970998D01*
X436878002Y-89408000D02*
X437896000Y-90425998D01*
X440944000Y-100491002D02*
X450180998Y-109728000D01*
X433266998Y-89408000D02*
X436878002Y-89408000D01*
X437896000Y-96970998D02*
X440944000Y-100018998D01*
X421074998Y-77216000D02*
X433266998Y-89408000D01*
X450180998Y-109728000D02*
X452120000Y-109728000D01*
X419100000Y-77216000D02*
X421074998Y-77216000D01*
X37592000Y-42672000D02*
X37592000Y-42672000D01*
X416082010Y-103719012D02*
X440886998Y-128524000D01*
X416082010Y-102138010D02*
X416082010Y-103719012D01*
X409448000Y-95504000D02*
X416082010Y-102138010D01*
X463296000Y-128524000D02*
X470408000Y-135636000D01*
X440886998Y-128524000D02*
X463296000Y-128524000D01*
%TO.N,IO_INT0*%
X391286412Y-58928000D02*
X406908000Y-74549588D01*
X93472000Y-58928000D02*
X391286412Y-58928000D01*
X441452000Y-112758875D02*
X441452000Y-113284000D01*
X406908000Y-78214875D02*
X441452000Y-112758875D01*
X406908000Y-74549588D02*
X406908000Y-78214875D01*
%TO.N,IO_INT1*%
X440182000Y-112125285D02*
X406400000Y-78343285D01*
X440182000Y-113538000D02*
X440182000Y-112125285D01*
X406400000Y-74677998D02*
X391666002Y-59944000D01*
X406400000Y-78343285D02*
X406400000Y-74677998D01*
X391666002Y-59944000D02*
X92964000Y-59944000D01*
X92964000Y-59944000D02*
X91948000Y-58928000D01*
%TO.N,IO_INT2*%
X442177001Y-113632001D02*
X442177001Y-110453001D01*
X441546001Y-114263001D02*
X442177001Y-113632001D01*
X439325316Y-114263001D02*
X441546001Y-114263001D01*
X438912000Y-113849685D02*
X439325316Y-114263001D01*
X438912000Y-113284000D02*
X438912000Y-113849685D01*
X442177001Y-110453001D02*
X422656000Y-90932000D01*
X422656000Y-90932000D02*
X422656000Y-85852000D01*
%TO.N,IO_INT3*%
X442627011Y-109887011D02*
X424688000Y-91948000D01*
X442627011Y-113818401D02*
X442627011Y-109887011D01*
X441732402Y-114713010D02*
X442627011Y-113818401D01*
X438817010Y-114713010D02*
X441732402Y-114713010D01*
X437388000Y-113284000D02*
X438817010Y-114713010D01*
X424688000Y-91948000D02*
X424688000Y-85852000D01*
%TO.N,KEY_ROW5*%
X460138999Y-143529001D02*
X461264000Y-142404000D01*
X460138999Y-154234003D02*
X460138999Y-143529001D01*
X450506003Y-163866999D02*
X460138999Y-154234003D01*
X395605001Y-163866999D02*
X450506003Y-163866999D01*
X391668000Y-167804000D02*
X395605001Y-163866999D01*
X517449000Y-142404000D02*
X518160000Y-143115000D01*
X461264000Y-142404000D02*
X517449000Y-142404000D01*
%TO.N,LED_SCL_ROW7*%
X496824000Y-25908000D02*
X522732000Y-51816000D01*
X45083590Y-25908000D02*
X496824000Y-25908000D01*
X32569990Y-38421600D02*
X45083590Y-25908000D01*
X32569990Y-42729990D02*
X32569990Y-38421600D01*
X33818999Y-43978999D02*
X32569990Y-42729990D01*
X33818999Y-51852999D02*
X33818999Y-43978999D01*
X34671000Y-52705000D02*
X33818999Y-51852999D01*
%TO.N,LED_SDA_ROW7*%
X38735000Y-53975000D02*
X37211000Y-53975000D01*
X496098999Y-26706999D02*
X522732000Y-53340000D01*
X44921001Y-26706999D02*
X496098999Y-26706999D01*
X33020000Y-38608000D02*
X44921001Y-26706999D01*
X37211000Y-53975000D02*
X37014002Y-53975000D01*
X37014002Y-53975000D02*
X34544000Y-51504998D01*
X34544000Y-43745002D02*
X33020000Y-42221002D01*
X34544000Y-51504998D02*
X34544000Y-43745002D01*
X33020000Y-42221002D02*
X33020000Y-38608000D01*
%TO.N,KEY_COL20*%
X592845999Y-54065001D02*
X610589000Y-36322000D01*
X416777001Y-54065001D02*
X592845999Y-54065001D01*
X415036000Y-52324000D02*
X416777001Y-54065001D01*
%TD*%
M02*
