M48
; DRILL file {KiCad (5.1.9)-1} date 03/19/21 23:51:38
; FORMAT={-:-/ absolute / inch / decimal}
; #@! TF.CreationDate,2021-03-19T23:51:38+10:00
; #@! TF.GenerationSoftware,Kicad,Pcbnew,(5.1.9)-1
; #@! TF.FileFunction,NonPlated,1,4,NPTH
FMAT,2
INCH
T1C0.0591
T2C0.0689
T3C0.0709
T4C0.1181
T5C0.1575
%
G90
G05
T1
X2.762Y0.3014
X2.762Y0.1104
T2
X1.1025Y-1.03
X1.1025Y-2.53
X1.1975Y-5.595
X1.2875Y-3.286
X1.3815Y-4.054
X1.5025Y-1.03
X1.5025Y-2.53
X1.5675Y-4.8325
X1.5975Y-5.595
X1.6875Y-3.286
X1.7815Y-4.054
X1.859Y-2.53
X1.9675Y-4.8325
X2.165Y-5.597
X2.23Y-3.287
X2.259Y-2.53
X2.4225Y-4.052
X2.565Y-5.597
X2.615Y-2.5295
X2.63Y-3.287
X2.67Y-1.032
X2.7925Y-4.832
X2.8225Y-4.052
X2.99Y-3.287
X3.015Y-2.5295
X3.07Y-1.032
X3.125Y-5.597
X3.1825Y-4.052
X3.1925Y-4.832
X3.355Y-2.5295
X3.39Y-3.287
X3.43Y-1.032
X3.525Y-5.597
X3.5525Y-4.832
X3.5825Y-4.052
X3.75Y-3.287
X3.755Y-2.5295
X3.83Y-1.032
X3.9425Y-4.052
X3.9525Y-4.832
X4.115Y-2.5295
X4.15Y-3.287
X4.19Y-1.032
X4.3125Y-4.832
X4.3425Y-4.052
X4.51Y-3.287
X4.515Y-2.5295
X4.59Y-1.032
X4.7025Y-4.052
X4.7125Y-4.832
X4.875Y-2.5295
X4.91Y-3.287
X4.95Y-1.032
X5.0725Y-4.832
X5.1025Y-4.052
X5.27Y-3.287
X5.275Y-2.5295
X5.35Y-1.032
X5.4625Y-4.052
X5.4725Y-4.832
X5.635Y-2.5295
X5.67Y-3.287
X5.8325Y-4.832
X5.8625Y-4.052
X5.955Y-5.597
X6.03Y-3.287
X6.035Y-2.5295
X6.19Y-1.032
X6.2225Y-4.052
X6.2325Y-4.832
X6.355Y-5.597
X6.395Y-2.5295
X6.43Y-3.287
X6.59Y-1.032
X6.5925Y-4.832
X6.6225Y-4.052
X6.79Y-3.287
X6.795Y-2.5295
X6.95Y-1.032
X6.9825Y-4.052
X6.9925Y-4.832
X7.155Y-2.5295
X7.19Y-3.287
X7.35Y-1.032
X7.3525Y-4.832
X7.3825Y-4.052
X7.55Y-3.287
X7.555Y-2.5295
X7.71Y-1.032
X7.7425Y-4.052
X7.7525Y-4.832
X7.915Y-2.5295
X7.95Y-3.287
X8.11Y-1.032
X8.1125Y-4.832
X8.1425Y-4.052
X8.31Y-3.287
X8.315Y-2.5295
X8.47Y-1.032
X8.5025Y-4.052
X8.5125Y-4.832
X8.675Y-2.5295
X8.71Y-3.287
X8.78Y-5.5995
X8.87Y-1.032
X8.8725Y-4.832
X8.9025Y-4.052
X9.07Y-3.287
X9.075Y-2.5295
X9.18Y-5.5995
X9.2625Y-4.052
X9.2725Y-4.832
X9.435Y-2.5295
X9.47Y-3.287
X9.51Y-1.032
X9.6325Y-4.832
X9.6625Y-4.052
X9.73Y-5.597
X9.83Y-3.287
X9.835Y-2.5295
X9.91Y-1.032
X10.0225Y-4.052
X10.0325Y-4.832
X10.13Y-5.597
X10.195Y-2.5295
X10.23Y-3.287
X10.27Y-1.032
X10.4225Y-4.052
X10.59Y-3.287
X10.595Y-2.5295
X10.67Y-1.032
X10.6825Y-5.597
X10.99Y-3.287
X11.03Y-1.032
X11.065Y-4.83
X11.0825Y-5.597
X11.255Y-4.0525
X11.3275Y-2.5275
X11.43Y-1.032
X11.465Y-4.83
X11.5325Y-3.2875
X11.63Y-5.597
X11.655Y-4.0525
X11.7275Y-2.5275
X11.79Y-1.032
X11.9325Y-3.2875
X12.03Y-5.597
X12.19Y-1.032
X12.8325Y-5.592
X12.835Y-2.5295
X12.835Y-3.287
X12.95Y-1.032
X13.2325Y-5.592
X13.235Y-2.5295
X13.235Y-3.287
X13.35Y-1.032
X13.5925Y-4.832
X13.5925Y-5.592
X13.595Y-2.5295
X13.595Y-3.287
X13.72Y-1.032
X13.9925Y-4.832
X13.9925Y-5.592
X13.995Y-2.5295
X13.995Y-3.287
X14.12Y-1.032
X14.3525Y-5.592
X14.355Y-2.5295
X14.355Y-3.287
X14.48Y-1.032
X14.7525Y-5.592
X14.755Y-2.5295
X14.755Y-3.287
X14.88Y-1.032
X15.65Y-1.032
X15.655Y-2.5295
X15.655Y-3.292
X15.655Y-4.052
X15.655Y-4.812
X16.03Y-5.572
X16.05Y-1.032
X16.055Y-2.5295
X16.055Y-3.292
X16.055Y-4.052
X16.055Y-4.812
X16.41Y-1.032
X16.415Y-2.5295
X16.415Y-3.292
X16.415Y-4.052
X16.415Y-4.812
X16.43Y-5.572
X16.81Y-1.032
X16.815Y-2.5295
X16.815Y-3.292
X16.815Y-4.052
X16.815Y-4.812
X17.17Y-1.032
X17.175Y-2.5295
X17.175Y-3.292
X17.175Y-4.0495
X17.175Y-4.812
X17.175Y-5.572
X17.57Y-1.032
X17.575Y-2.5295
X17.575Y-3.292
X17.575Y-4.0495
X17.575Y-4.812
X17.575Y-5.572
X17.93Y-1.032
X17.935Y-2.5295
X17.935Y-3.667
X17.935Y-5.192
X18.33Y-1.032
X18.335Y-2.5295
X18.335Y-3.667
X18.335Y-5.192
T3
X2.8813Y0.3132
X2.8813Y0.0986
T4
X1.2025Y-1.23
X1.2025Y-2.73
X1.2975Y-5.795
X1.3875Y-3.486
X1.4525Y-1.13
X1.4525Y-2.63
X1.4815Y-4.254
X1.5475Y-5.695
X1.6375Y-3.386
X1.6675Y-5.0325
X1.7315Y-4.154
X1.9175Y-4.9325
X1.959Y-2.73
X2.209Y-2.63
X2.265Y-5.797
X2.33Y-3.487
X2.515Y-5.697
X2.5225Y-4.252
X2.58Y-3.387
X2.715Y-2.7295
X2.77Y-1.232
X2.7725Y-4.152
X2.8925Y-5.032
X2.965Y-2.6295
X3.02Y-1.132
X3.09Y-3.487
X3.1425Y-4.932
X3.225Y-5.797
X3.2825Y-4.252
X3.34Y-3.387
X3.455Y-2.7295
X3.475Y-5.697
X3.53Y-1.232
X3.5325Y-4.152
X3.6525Y-5.032
X3.705Y-2.6295
X3.78Y-1.132
X3.85Y-3.487
X3.9025Y-4.932
X4.0425Y-4.252
X4.1Y-3.387
X4.215Y-2.7295
X4.29Y-1.232
X4.2925Y-4.152
X4.4125Y-5.032
X4.465Y-2.6295
X4.54Y-1.132
X4.61Y-3.487
X4.6625Y-4.932
X4.8025Y-4.252
X4.86Y-3.387
X4.975Y-2.7295
X5.05Y-1.232
X5.0525Y-4.152
X5.1725Y-5.032
X5.225Y-2.6295
X5.3Y-1.132
X5.37Y-3.487
X5.4225Y-4.932
X5.5625Y-4.252
X5.62Y-3.387
X5.735Y-2.7295
X5.8125Y-4.152
X5.9325Y-5.032
X5.985Y-2.6295
X6.055Y-5.797
X6.13Y-3.487
X6.1825Y-4.932
X6.29Y-1.232
X6.305Y-5.697
X6.3225Y-4.252
X6.38Y-3.387
X6.495Y-2.7295
X6.54Y-1.132
X6.5725Y-4.152
X6.6925Y-5.032
X6.745Y-2.6295
X6.89Y-3.487
X6.9425Y-4.932
X7.05Y-1.232
X7.0825Y-4.252
X7.14Y-3.387
X7.255Y-2.7295
X7.3Y-1.132
X7.3325Y-4.152
X7.4525Y-5.032
X7.505Y-2.6295
X7.65Y-3.487
X7.7025Y-4.932
X7.81Y-1.232
X7.8425Y-4.252
X7.9Y-3.387
X8.015Y-2.7295
X8.06Y-1.132
X8.0925Y-4.152
X8.2125Y-5.032
X8.265Y-2.6295
X8.41Y-3.487
X8.4625Y-4.932
X8.57Y-1.232
X8.6025Y-4.252
X8.66Y-3.387
X8.775Y-2.7295
X8.82Y-1.132
X8.8525Y-4.152
X8.88Y-5.7995
X8.9725Y-5.032
X9.025Y-2.6295
X9.13Y-5.6995
X9.17Y-3.487
X9.2225Y-4.932
X9.3625Y-4.252
X9.42Y-3.387
X9.535Y-2.7295
X9.61Y-1.232
X9.6125Y-4.152
X9.7325Y-5.032
X9.785Y-2.6295
X9.83Y-5.797
X9.86Y-1.132
X9.93Y-3.487
X9.9825Y-4.932
X10.08Y-5.697
X10.1225Y-4.252
X10.18Y-3.387
X10.295Y-2.7295
X10.37Y-1.232
X10.3725Y-4.152
X10.545Y-2.6295
X10.62Y-1.132
X10.69Y-3.487
X10.7825Y-5.797
X10.94Y-3.387
X11.0325Y-5.697
X11.13Y-1.232
X11.165Y-5.03
X11.355Y-4.2525
X11.38Y-1.132
X11.415Y-4.93
X11.4275Y-2.7275
X11.605Y-4.1525
X11.6325Y-3.4875
X11.6775Y-2.6275
X11.73Y-5.797
X11.8825Y-3.3875
X11.89Y-1.232
X11.98Y-5.697
X12.14Y-1.132
X12.9325Y-5.792
X12.935Y-2.7295
X12.935Y-3.487
X13.05Y-1.232
X13.1825Y-5.692
X13.185Y-2.6295
X13.185Y-3.387
X13.3Y-1.132
X13.6925Y-5.032
X13.6925Y-5.792
X13.695Y-2.7295
X13.695Y-3.487
X13.82Y-1.232
X13.9425Y-4.932
X13.9425Y-5.692
X13.945Y-2.6295
X13.945Y-3.387
X14.07Y-1.132
X14.4525Y-5.792
X14.455Y-2.7295
X14.455Y-3.487
X14.58Y-1.232
X14.7025Y-5.692
X14.705Y-2.6295
X14.705Y-3.387
X14.83Y-1.132
X15.75Y-1.232
X15.755Y-2.7295
X15.755Y-3.492
X15.755Y-4.252
X15.755Y-5.012
X16.0Y-1.132
X16.005Y-2.6295
X16.005Y-3.392
X16.005Y-4.152
X16.005Y-4.912
X16.13Y-5.772
X16.38Y-5.672
X16.51Y-1.232
X16.515Y-2.7295
X16.515Y-3.492
X16.515Y-4.252
X16.515Y-5.012
X16.76Y-1.132
X16.765Y-2.6295
X16.765Y-3.392
X16.765Y-4.152
X16.765Y-4.912
X17.27Y-1.232
X17.275Y-2.7295
X17.275Y-3.492
X17.275Y-4.2495
X17.275Y-5.012
X17.275Y-5.772
X17.52Y-1.132
X17.525Y-2.6295
X17.525Y-3.392
X17.525Y-4.1495
X17.525Y-4.912
X17.525Y-5.672
X18.03Y-1.232
X18.035Y-2.7295
X18.035Y-3.867
X18.035Y-5.392
X18.28Y-1.132
X18.285Y-2.6295
X18.285Y-3.767
X18.285Y-5.292
T5
X1.3025Y-1.03
X1.3025Y-2.53
X1.3975Y-5.595
X1.4875Y-3.286
X1.5815Y-4.054
X1.7675Y-4.8325
X2.059Y-2.53
X2.365Y-5.597
X2.43Y-3.287
X2.6225Y-4.052
X2.815Y-2.5295
X2.87Y-1.032
X2.9925Y-4.832
X3.19Y-3.287
X3.325Y-5.597
X3.3825Y-4.052
X3.555Y-2.5295
X3.63Y-1.032
X3.7525Y-4.832
X3.95Y-3.287
X4.1425Y-4.052
X4.315Y-2.5295
X4.39Y-1.032
X4.5125Y-4.832
X4.71Y-3.287
X4.9025Y-4.052
X5.075Y-2.5295
X5.15Y-1.032
X5.2725Y-4.832
X5.47Y-3.287
X5.6625Y-4.052
X5.835Y-2.5295
X6.0325Y-4.832
X6.155Y-5.597
X6.23Y-3.287
X6.39Y-1.032
X6.4225Y-4.052
X6.595Y-2.5295
X6.7925Y-4.832
X6.99Y-3.287
X7.15Y-1.032
X7.1825Y-4.052
X7.355Y-2.5295
X7.5525Y-4.832
X7.75Y-3.287
X7.91Y-1.032
X7.9425Y-4.052
X8.115Y-2.5295
X8.3125Y-4.832
X8.51Y-3.287
X8.67Y-1.032
X8.7025Y-4.052
X8.875Y-2.5295
X8.98Y-5.5995
X9.0725Y-4.832
X9.27Y-3.287
X9.4625Y-4.052
X9.635Y-2.5295
X9.71Y-1.032
X9.8325Y-4.832
X9.93Y-5.597
X10.03Y-3.287
X10.2225Y-4.052
X10.395Y-2.5295
X10.47Y-1.032
X10.79Y-3.287
X10.8825Y-5.597
X11.23Y-1.032
X11.265Y-4.83
X11.455Y-4.0525
X11.5275Y-2.5275
X11.7325Y-3.2875
X11.83Y-5.597
X11.99Y-1.032
X13.0325Y-5.592
X13.035Y-2.5295
X13.035Y-3.287
X13.15Y-1.032
X13.7925Y-4.832
X13.7925Y-5.592
X13.795Y-2.5295
X13.795Y-3.287
X13.92Y-1.032
X14.5525Y-5.592
X14.555Y-2.5295
X14.555Y-3.287
X14.68Y-1.032
X15.85Y-1.032
X15.855Y-2.5295
X15.855Y-3.292
X15.855Y-4.052
X15.855Y-4.812
X16.23Y-5.572
X16.61Y-1.032
X16.615Y-2.5295
X16.615Y-3.292
X16.615Y-4.052
X16.615Y-4.812
X17.37Y-1.032
X17.375Y-2.5295
X17.375Y-3.292
X17.375Y-4.0495
X17.375Y-4.812
X17.375Y-5.572
X18.13Y-1.032
X18.135Y-2.5295
X18.135Y-3.667
X18.135Y-5.192
T0
M30
