%TF.GenerationSoftware,KiCad,Pcbnew,(5.1.9)-1*%
%TF.CreationDate,2021-04-15T00:53:49+10:00*%
%TF.ProjectId,RedPyKeeb,52656450-794b-4656-9562-2e6b69636164,rev?*%
%TF.SameCoordinates,Original*%
%TF.FileFunction,Paste,Top*%
%TF.FilePolarity,Positive*%
%FSLAX46Y46*%
G04 Gerber Fmt 4.6, Leading zero omitted, Abs format (unit mm)*
G04 Created by KiCad (PCBNEW (5.1.9)-1) date 2021-04-15 00:53:49*
%MOMM*%
%LPD*%
G01*
G04 APERTURE LIST*
%ADD10C,0.100000*%
%ADD11R,0.800000X0.500000*%
%ADD12R,0.800000X0.300000*%
%ADD13R,0.500000X1.000000*%
%ADD14R,0.500000X1.580000*%
%ADD15R,1.250000X1.500000*%
%ADD16R,1.500000X1.250000*%
G04 APERTURE END LIST*
D10*
%TO.C,U0*%
G36*
X480645953Y-62103409D02*
G01*
X480631364Y-62176751D01*
X480609657Y-62248310D01*
X480581040Y-62317397D01*
X480545789Y-62383346D01*
X480504244Y-62445523D01*
X480456805Y-62503328D01*
X480403928Y-62556205D01*
X480346123Y-62603644D01*
X480283946Y-62645189D01*
X480217997Y-62680440D01*
X480148910Y-62709057D01*
X480077351Y-62730764D01*
X480004009Y-62745353D01*
X479929590Y-62752682D01*
X479854810Y-62752682D01*
X479780391Y-62745353D01*
X479707049Y-62730764D01*
X479635490Y-62709057D01*
X479566403Y-62680440D01*
X479500454Y-62645189D01*
X479438277Y-62603644D01*
X479380472Y-62556205D01*
X479327595Y-62503328D01*
X479280156Y-62445523D01*
X479238611Y-62383346D01*
X479203360Y-62317397D01*
X479174743Y-62248310D01*
X479153036Y-62176751D01*
X479138447Y-62103409D01*
X479131118Y-62028990D01*
X479131118Y-61954210D01*
X479138447Y-61879791D01*
X479153036Y-61806449D01*
X479174743Y-61734890D01*
X479203360Y-61665803D01*
X479238611Y-61599854D01*
X479280156Y-61537677D01*
X479327595Y-61479872D01*
X479380472Y-61426995D01*
X479438277Y-61379556D01*
X479500454Y-61338011D01*
X479566403Y-61302760D01*
X479635490Y-61274143D01*
X479707049Y-61252436D01*
X479780391Y-61237847D01*
X479854810Y-61230518D01*
X479929590Y-61230518D01*
X480004009Y-61237847D01*
X480077351Y-61252436D01*
X480148910Y-61274143D01*
X480217997Y-61302760D01*
X480283946Y-61338011D01*
X480346123Y-61379556D01*
X480403928Y-61426995D01*
X480456805Y-61479872D01*
X480504244Y-61537677D01*
X480545789Y-61599854D01*
X480581040Y-61665803D01*
X480609657Y-61734890D01*
X480631364Y-61806449D01*
X480645953Y-61879791D01*
X480653282Y-61954210D01*
X480653282Y-62028990D01*
X480645953Y-62103409D01*
G37*
G36*
X482941239Y-61501355D02*
G01*
X482938394Y-61510734D01*
X482933773Y-61519379D01*
X482927555Y-61526955D01*
X482919979Y-61533173D01*
X482911334Y-61537794D01*
X482901955Y-61540639D01*
X482892200Y-61541600D01*
X481892200Y-61541600D01*
X481882445Y-61540639D01*
X481873066Y-61537794D01*
X481864421Y-61533173D01*
X481856845Y-61526955D01*
X481850627Y-61519379D01*
X481846006Y-61510734D01*
X481843161Y-61501355D01*
X481842200Y-61491600D01*
X481842200Y-60491600D01*
X481843161Y-60481845D01*
X481846006Y-60472466D01*
X481850627Y-60463821D01*
X481856845Y-60456245D01*
X481864421Y-60450027D01*
X481873066Y-60445406D01*
X481882445Y-60442561D01*
X481892200Y-60441600D01*
X482892200Y-60441600D01*
X482901955Y-60442561D01*
X482911334Y-60445406D01*
X482919979Y-60450027D01*
X482927555Y-60456245D01*
X482933773Y-60463821D01*
X482938394Y-60472466D01*
X482941239Y-60481845D01*
X482942200Y-60491600D01*
X482942200Y-61491600D01*
X482941239Y-61501355D01*
G37*
G36*
X482941239Y-63501355D02*
G01*
X482938394Y-63510734D01*
X482933773Y-63519379D01*
X482927555Y-63526955D01*
X482919979Y-63533173D01*
X482911334Y-63537794D01*
X482901955Y-63540639D01*
X482892200Y-63541600D01*
X481892200Y-63541600D01*
X481882445Y-63540639D01*
X481873066Y-63537794D01*
X481864421Y-63533173D01*
X481856845Y-63526955D01*
X481850627Y-63519379D01*
X481846006Y-63510734D01*
X481843161Y-63501355D01*
X481842200Y-63491600D01*
X481842200Y-62491600D01*
X481843161Y-62481845D01*
X481846006Y-62472466D01*
X481850627Y-62463821D01*
X481856845Y-62456245D01*
X481864421Y-62450027D01*
X481873066Y-62445406D01*
X481882445Y-62442561D01*
X481892200Y-62441600D01*
X482892200Y-62441600D01*
X482901955Y-62442561D01*
X482911334Y-62445406D01*
X482919979Y-62450027D01*
X482927555Y-62456245D01*
X482933773Y-62463821D01*
X482938394Y-62472466D01*
X482941239Y-62481845D01*
X482942200Y-62491600D01*
X482942200Y-63491600D01*
X482941239Y-63501355D01*
G37*
%TD*%
D11*
%TO.C,LD3\u002C5\u002C1*%
X242035700Y-200239200D03*
D12*
X242035700Y-199339200D03*
D11*
X242035700Y-198439200D03*
D12*
X240335700Y-199339200D03*
D11*
X240335700Y-198439200D03*
X240335700Y-200239200D03*
D13*
X241185700Y-200169200D03*
D14*
X241185700Y-198649200D03*
%TD*%
D11*
%TO.C,LD3\u002C5\u002C0*%
X177938800Y-200251900D03*
D12*
X177938800Y-199351900D03*
D11*
X177938800Y-198451900D03*
D12*
X176238800Y-199351900D03*
D11*
X176238800Y-198451900D03*
X176238800Y-200251900D03*
D13*
X177088800Y-200181900D03*
D14*
X177088800Y-198661900D03*
%TD*%
D11*
%TO.C,LD20\u002C7*%
X502411100Y-115365100D03*
D12*
X502411100Y-114465100D03*
D11*
X502411100Y-113565100D03*
D12*
X500711100Y-114465100D03*
D11*
X500711100Y-113565100D03*
X500711100Y-115365100D03*
D13*
X501561100Y-115295100D03*
D14*
X501561100Y-113775100D03*
%TD*%
D11*
%TO.C,LD20\u002C0*%
X502157100Y-96454800D03*
D12*
X502157100Y-95554800D03*
D11*
X502157100Y-94654800D03*
D12*
X500457100Y-95554800D03*
D11*
X500457100Y-94654800D03*
X500457100Y-96454800D03*
D13*
X501307100Y-96384800D03*
D14*
X501307100Y-94864800D03*
%TD*%
D11*
%TO.C,LD20\u002C1*%
X502220600Y-122350100D03*
D12*
X502220600Y-121450100D03*
D11*
X502220600Y-120550100D03*
D12*
X500520600Y-121450100D03*
D11*
X500520600Y-120550100D03*
X500520600Y-122350100D03*
D13*
X501370600Y-122280100D03*
D14*
X501370600Y-120760100D03*
%TD*%
D11*
%TO.C,LD19\u002C6*%
X502474600Y-192009600D03*
D12*
X502474600Y-191109600D03*
D11*
X502474600Y-190209600D03*
D12*
X500774600Y-191109600D03*
D11*
X500774600Y-190209600D03*
X500774600Y-192009600D03*
D13*
X501624600Y-191939600D03*
D14*
X501624600Y-190419600D03*
%TD*%
D11*
%TO.C,LD19\u002C3*%
X482916600Y-141616000D03*
D12*
X482916600Y-140716000D03*
D11*
X482916600Y-139816000D03*
D12*
X481216600Y-140716000D03*
D11*
X481216600Y-139816000D03*
X481216600Y-141616000D03*
D13*
X482066600Y-141546000D03*
D14*
X482066600Y-140026000D03*
%TD*%
D11*
%TO.C,LD19\u002C4*%
X502220600Y-151496600D03*
D12*
X502220600Y-150596600D03*
D11*
X502220600Y-149696600D03*
D12*
X500520600Y-150596600D03*
D11*
X500520600Y-149696600D03*
X500520600Y-151496600D03*
D13*
X501370600Y-151426600D03*
D14*
X501370600Y-149906600D03*
%TD*%
D11*
%TO.C,LD19\u002C1*%
X482916600Y-122362800D03*
D12*
X482916600Y-121462800D03*
D11*
X482916600Y-120562800D03*
D12*
X481216600Y-121462800D03*
D11*
X481216600Y-120562800D03*
X481216600Y-122362800D03*
D13*
X482066600Y-122292800D03*
D14*
X482066600Y-120772800D03*
%TD*%
D11*
%TO.C,LD19\u002C0*%
X482840400Y-96454800D03*
D12*
X482840400Y-95554800D03*
D11*
X482840400Y-94654800D03*
D12*
X481140400Y-95554800D03*
D11*
X481140400Y-94654800D03*
X481140400Y-96454800D03*
D13*
X481990400Y-96384800D03*
D14*
X481990400Y-94864800D03*
%TD*%
D11*
%TO.C,LD19\u002C7*%
X483107100Y-115314300D03*
D12*
X483107100Y-114414300D03*
D11*
X483107100Y-113514300D03*
D12*
X481407100Y-114414300D03*
D11*
X481407100Y-113514300D03*
X481407100Y-115314300D03*
D13*
X482257100Y-115244300D03*
D14*
X482257100Y-113724300D03*
%TD*%
D11*
%TO.C,LD18\u002C0*%
X463536400Y-96454800D03*
D12*
X463536400Y-95554800D03*
D11*
X463536400Y-94654800D03*
D12*
X461836400Y-95554800D03*
D11*
X461836400Y-94654800D03*
X461836400Y-96454800D03*
D13*
X462686400Y-96384800D03*
D14*
X462686400Y-94864800D03*
%TD*%
D11*
%TO.C,LD18\u002C3*%
X463612600Y-141616000D03*
D12*
X463612600Y-140716000D03*
D11*
X463612600Y-139816000D03*
D12*
X461912600Y-140716000D03*
D11*
X461912600Y-139816000D03*
X461912600Y-141616000D03*
D13*
X462762600Y-141546000D03*
D14*
X462762600Y-140026000D03*
%TD*%
D11*
%TO.C,LD18\u002C4*%
X482916600Y-160958100D03*
D12*
X482916600Y-160058100D03*
D11*
X482916600Y-159158100D03*
D12*
X481216600Y-160058100D03*
D11*
X481216600Y-159158100D03*
X481216600Y-160958100D03*
D13*
X482066600Y-160888100D03*
D14*
X482066600Y-159368100D03*
%TD*%
D11*
%TO.C,LD18\u002C5*%
X482916600Y-180325600D03*
D12*
X482916600Y-179425600D03*
D11*
X482916600Y-178525600D03*
D12*
X481216600Y-179425600D03*
D11*
X481216600Y-178525600D03*
X481216600Y-180325600D03*
D13*
X482066600Y-180255600D03*
D14*
X482066600Y-178735600D03*
%TD*%
D11*
%TO.C,LD18\u002C7*%
X463803100Y-115314300D03*
D12*
X463803100Y-114414300D03*
D11*
X463803100Y-113514300D03*
D12*
X462103100Y-114414300D03*
D11*
X462103100Y-113514300D03*
X462103100Y-115314300D03*
D13*
X462953100Y-115244300D03*
D14*
X462953100Y-113724300D03*
%TD*%
D11*
%TO.C,LD18\u002C1*%
X463612600Y-122350100D03*
D12*
X463612600Y-121450100D03*
D11*
X463612600Y-120550100D03*
D12*
X461912600Y-121450100D03*
D11*
X461912600Y-120550100D03*
X461912600Y-122350100D03*
D13*
X462762600Y-122280100D03*
D14*
X462762600Y-120760100D03*
%TD*%
D11*
%TO.C,LD18\u002C6*%
X482916600Y-199629600D03*
D12*
X482916600Y-198729600D03*
D11*
X482916600Y-197829600D03*
D12*
X481216600Y-198729600D03*
D11*
X481216600Y-197829600D03*
X481216600Y-199629600D03*
D13*
X482066600Y-199559600D03*
D14*
X482066600Y-198039600D03*
%TD*%
D11*
%TO.C,LD17\u002C4*%
X463612600Y-161021600D03*
D12*
X463612600Y-160121600D03*
D11*
X463612600Y-159221600D03*
D12*
X461912600Y-160121600D03*
D11*
X461912600Y-159221600D03*
X461912600Y-161021600D03*
D13*
X462762600Y-160951600D03*
D14*
X462762600Y-159431600D03*
%TD*%
D11*
%TO.C,LD17\u002C3*%
X444308600Y-141616000D03*
D12*
X444308600Y-140716000D03*
D11*
X444308600Y-139816000D03*
D12*
X442608600Y-140716000D03*
D11*
X442608600Y-139816000D03*
X442608600Y-141616000D03*
D13*
X443458600Y-141546000D03*
D14*
X443458600Y-140026000D03*
%TD*%
D11*
%TO.C,LD17\u002C6*%
X454087600Y-199629600D03*
D12*
X454087600Y-198729600D03*
D11*
X454087600Y-197829600D03*
D12*
X452387600Y-198729600D03*
D11*
X452387600Y-197829600D03*
X452387600Y-199629600D03*
D13*
X453237600Y-199559600D03*
D14*
X453237600Y-198039600D03*
%TD*%
D11*
%TO.C,LD17\u002C5*%
X463612600Y-180325600D03*
D12*
X463612600Y-179425600D03*
D11*
X463612600Y-178525600D03*
D12*
X461912600Y-179425600D03*
D11*
X461912600Y-178525600D03*
X461912600Y-180325600D03*
D13*
X462762600Y-180255600D03*
D14*
X462762600Y-178735600D03*
%TD*%
D11*
%TO.C,LD17\u002C1*%
X444308600Y-122350100D03*
D12*
X444308600Y-121450100D03*
D11*
X444308600Y-120550100D03*
D12*
X442608600Y-121450100D03*
D11*
X442608600Y-120550100D03*
X442608600Y-122350100D03*
D13*
X443458600Y-122280100D03*
D14*
X443458600Y-120760100D03*
%TD*%
D11*
%TO.C,LD17\u002C0*%
X444232400Y-96454800D03*
D12*
X444232400Y-95554800D03*
D11*
X444232400Y-94654800D03*
D12*
X442532400Y-95554800D03*
D11*
X442532400Y-94654800D03*
X442532400Y-96454800D03*
D13*
X443382400Y-96384800D03*
D14*
X443382400Y-94864800D03*
%TD*%
D11*
%TO.C,LD17\u002C7*%
X444181600Y-115365100D03*
D12*
X444181600Y-114465100D03*
D11*
X444181600Y-113565100D03*
D12*
X442481600Y-114465100D03*
D11*
X442481600Y-113565100D03*
X442481600Y-115365100D03*
D13*
X443331600Y-115295100D03*
D14*
X443331600Y-113775100D03*
%TD*%
D11*
%TO.C,LD16\u002C5*%
X444562600Y-180325600D03*
D12*
X444562600Y-179425600D03*
D11*
X444562600Y-178525600D03*
D12*
X442862600Y-179425600D03*
D11*
X442862600Y-178525600D03*
X442862600Y-180325600D03*
D13*
X443712600Y-180255600D03*
D14*
X443712600Y-178735600D03*
%TD*%
D11*
%TO.C,LD16\u002C3*%
X420432600Y-141590600D03*
D12*
X420432600Y-140690600D03*
D11*
X420432600Y-139790600D03*
D12*
X418732600Y-140690600D03*
D11*
X418732600Y-139790600D03*
X418732600Y-141590600D03*
D13*
X419582600Y-141520600D03*
D14*
X419582600Y-140000600D03*
%TD*%
D11*
%TO.C,LD16\u002C1*%
X420510800Y-122375500D03*
D12*
X420510800Y-121475500D03*
D11*
X420510800Y-120575500D03*
D12*
X418810800Y-121475500D03*
D11*
X418810800Y-120575500D03*
X418810800Y-122375500D03*
D13*
X419660800Y-122305500D03*
D14*
X419660800Y-120785500D03*
%TD*%
D11*
%TO.C,LD16\u002C6*%
X420369100Y-200137600D03*
D12*
X420369100Y-199237600D03*
D11*
X420369100Y-198337600D03*
D12*
X418669100Y-199237600D03*
D11*
X418669100Y-198337600D03*
X418669100Y-200137600D03*
D13*
X419519100Y-200067600D03*
D14*
X419519100Y-198547600D03*
%TD*%
D11*
%TO.C,LD16\u002C0*%
X420927900Y-96442100D03*
D12*
X420927900Y-95542100D03*
D11*
X420927900Y-94642100D03*
D12*
X419227900Y-95542100D03*
D11*
X419227900Y-94642100D03*
X419227900Y-96442100D03*
D13*
X420077900Y-96372100D03*
D14*
X420077900Y-94852100D03*
%TD*%
D11*
%TO.C,LD16\u002C4*%
X444308600Y-161021600D03*
D12*
X444308600Y-160121600D03*
D11*
X444308600Y-159221600D03*
D12*
X442608600Y-160121600D03*
D11*
X442608600Y-159221600D03*
X442608600Y-161021600D03*
D13*
X443458600Y-160951600D03*
D14*
X443458600Y-159431600D03*
%TD*%
D11*
%TO.C,LD15\u002C0*%
X401623900Y-96442100D03*
D12*
X401623900Y-95542100D03*
D11*
X401623900Y-94642100D03*
D12*
X399923900Y-95542100D03*
D11*
X399923900Y-94642100D03*
X399923900Y-96442100D03*
D13*
X400773900Y-96372100D03*
D14*
X400773900Y-94852100D03*
%TD*%
D11*
%TO.C,LD15\u002C5*%
X401065100Y-180782800D03*
D12*
X401065100Y-179882800D03*
D11*
X401065100Y-178982800D03*
D12*
X399365100Y-179882800D03*
D11*
X399365100Y-178982800D03*
X399365100Y-180782800D03*
D13*
X400215100Y-180712800D03*
D14*
X400215100Y-179192800D03*
%TD*%
D11*
%TO.C,LD15\u002C6*%
X401065100Y-200137600D03*
D12*
X401065100Y-199237600D03*
D11*
X401065100Y-198337600D03*
D12*
X399365100Y-199237600D03*
D11*
X399365100Y-198337600D03*
X399365100Y-200137600D03*
D13*
X400215100Y-200067600D03*
D14*
X400215100Y-198547600D03*
%TD*%
D11*
%TO.C,LD15\u002C3*%
X401128600Y-141590600D03*
D12*
X401128600Y-140690600D03*
D11*
X401128600Y-139790600D03*
D12*
X399428600Y-140690600D03*
D11*
X399428600Y-139790600D03*
X399428600Y-141590600D03*
D13*
X400278600Y-141520600D03*
D14*
X400278600Y-140000600D03*
%TD*%
D11*
%TO.C,LD15\u002C1*%
X401128600Y-122350100D03*
D12*
X401128600Y-121450100D03*
D11*
X401128600Y-120550100D03*
D12*
X399428600Y-121450100D03*
D11*
X399428600Y-120550100D03*
X399428600Y-122350100D03*
D13*
X400278600Y-122280100D03*
D14*
X400278600Y-120760100D03*
%TD*%
D11*
%TO.C,LD14\u002C1*%
X381824600Y-122350100D03*
D12*
X381824600Y-121450100D03*
D11*
X381824600Y-120550100D03*
D12*
X380124600Y-121450100D03*
D11*
X380124600Y-120550100D03*
X380124600Y-122350100D03*
D13*
X380974600Y-122280100D03*
D14*
X380974600Y-120760100D03*
%TD*%
D11*
%TO.C,LD14\u002C3*%
X381824600Y-141590600D03*
D12*
X381824600Y-140690600D03*
D11*
X381824600Y-139790600D03*
D12*
X380124600Y-140690600D03*
D11*
X380124600Y-139790600D03*
X380124600Y-141590600D03*
D13*
X380974600Y-141520600D03*
D14*
X380974600Y-140000600D03*
%TD*%
D11*
%TO.C,LD14\u002C0*%
X382065900Y-96442100D03*
D12*
X382065900Y-95542100D03*
D11*
X382065900Y-94642100D03*
D12*
X380365900Y-95542100D03*
D11*
X380365900Y-94642100D03*
X380365900Y-96442100D03*
D13*
X381215900Y-96372100D03*
D14*
X381215900Y-94852100D03*
%TD*%
D11*
%TO.C,LD14\u002C6*%
X381761100Y-200137600D03*
D12*
X381761100Y-199237600D03*
D11*
X381761100Y-198337600D03*
D12*
X380061100Y-199237600D03*
D11*
X380061100Y-198337600D03*
X380061100Y-200137600D03*
D13*
X380911100Y-200067600D03*
D14*
X380911100Y-198547600D03*
%TD*%
D11*
%TO.C,LD13\u002C1*%
X348969700Y-122350100D03*
D12*
X348969700Y-121450100D03*
D11*
X348969700Y-120550100D03*
D12*
X347269700Y-121450100D03*
D11*
X347269700Y-120550100D03*
X347269700Y-122350100D03*
D13*
X348119700Y-122280100D03*
D14*
X348119700Y-120760100D03*
%TD*%
D11*
%TO.C,LD13\u002C2*%
X354164000Y-141616000D03*
D12*
X354164000Y-140716000D03*
D11*
X354164000Y-139816000D03*
D12*
X352464000Y-140716000D03*
D11*
X352464000Y-139816000D03*
X352464000Y-141616000D03*
D13*
X353314000Y-141546000D03*
D14*
X353314000Y-140026000D03*
%TD*%
D11*
%TO.C,LD12\u002C0*%
X359495460Y-96442100D03*
D12*
X359495460Y-95542100D03*
D11*
X359495460Y-94642100D03*
D12*
X357795460Y-95542100D03*
D11*
X357795460Y-94642100D03*
X357795460Y-96442100D03*
D13*
X358645460Y-96372100D03*
D14*
X358645460Y-94852100D03*
%TD*%
D11*
%TO.C,LD12\u002C1*%
X320204200Y-122350100D03*
D12*
X320204200Y-121450100D03*
D11*
X320204200Y-120550100D03*
D12*
X318504200Y-121450100D03*
D11*
X318504200Y-120550100D03*
X318504200Y-122350100D03*
D13*
X319354200Y-122280100D03*
D14*
X319354200Y-120760100D03*
%TD*%
D11*
%TO.C,LD12\u002C3*%
X347102800Y-161047000D03*
D12*
X347102800Y-160147000D03*
D11*
X347102800Y-159247000D03*
D12*
X345402800Y-160147000D03*
D11*
X345402800Y-159247000D03*
X345402800Y-161047000D03*
D13*
X346252800Y-160977000D03*
D14*
X346252800Y-159457000D03*
%TD*%
D11*
%TO.C,LD12\u002C2*%
X330237200Y-141590600D03*
D12*
X330237200Y-140690600D03*
D11*
X330237200Y-139790600D03*
D12*
X328537200Y-140690600D03*
D11*
X328537200Y-139790600D03*
X328537200Y-141590600D03*
D13*
X329387200Y-141520600D03*
D14*
X329387200Y-140000600D03*
%TD*%
D11*
%TO.C,LD11\u002C4*%
X342302200Y-180833600D03*
D12*
X342302200Y-179933600D03*
D11*
X342302200Y-179033600D03*
D12*
X340602200Y-179933600D03*
D11*
X340602200Y-179033600D03*
X340602200Y-180833600D03*
D13*
X341452200Y-180763600D03*
D14*
X341452200Y-179243600D03*
%TD*%
D11*
%TO.C,LD11\u002C2*%
X310933200Y-141590600D03*
D12*
X310933200Y-140690600D03*
D11*
X310933200Y-139790600D03*
D12*
X309233200Y-140690600D03*
D11*
X309233200Y-139790600D03*
X309233200Y-141590600D03*
D13*
X310083200Y-141520600D03*
D14*
X310083200Y-140000600D03*
%TD*%
D11*
%TO.C,LD11\u002C5*%
X356653200Y-200264600D03*
D12*
X356653200Y-199364600D03*
D11*
X356653200Y-198464600D03*
D12*
X354953200Y-199364600D03*
D11*
X354953200Y-198464600D03*
X354953200Y-200264600D03*
D13*
X355803200Y-200194600D03*
D14*
X355803200Y-198674600D03*
%TD*%
D11*
%TO.C,LD11\u002C0*%
X340191460Y-96442100D03*
D12*
X340191460Y-95542100D03*
D11*
X340191460Y-94642100D03*
D12*
X338491460Y-95542100D03*
D11*
X338491460Y-94642100D03*
X338491460Y-96442100D03*
D13*
X339341460Y-96372100D03*
D14*
X339341460Y-94852100D03*
%TD*%
D11*
%TO.C,LD11\u002C3*%
X315822700Y-161021600D03*
D12*
X315822700Y-160121600D03*
D11*
X315822700Y-159221600D03*
D12*
X314122700Y-160121600D03*
D11*
X314122700Y-159221600D03*
X314122700Y-161021600D03*
D13*
X314972700Y-160951600D03*
D14*
X314972700Y-159431600D03*
%TD*%
D11*
%TO.C,LD11\u002C1*%
X300900200Y-122350100D03*
D12*
X300900200Y-121450100D03*
D11*
X300900200Y-120550100D03*
D12*
X299200200Y-121450100D03*
D11*
X299200200Y-120550100D03*
X299200200Y-122350100D03*
D13*
X300050200Y-122280100D03*
D14*
X300050200Y-120760100D03*
%TD*%
D11*
%TO.C,LD10\u002C3*%
X296518700Y-161021600D03*
D12*
X296518700Y-160121600D03*
D11*
X296518700Y-159221600D03*
D12*
X294818700Y-160121600D03*
D11*
X294818700Y-159221600D03*
X294818700Y-161021600D03*
D13*
X295668700Y-160951600D03*
D14*
X295668700Y-159431600D03*
%TD*%
D11*
%TO.C,LD10\u002C4*%
X305916700Y-180833600D03*
D12*
X305916700Y-179933600D03*
D11*
X305916700Y-179033600D03*
D12*
X304216700Y-179933600D03*
D11*
X304216700Y-179033600D03*
X304216700Y-180833600D03*
D13*
X305066700Y-180763600D03*
D14*
X305066700Y-179243600D03*
%TD*%
D11*
%TO.C,LD10\u002C2*%
X291629200Y-141590600D03*
D12*
X291629200Y-140690600D03*
D11*
X291629200Y-139790600D03*
D12*
X289929200Y-140690600D03*
D11*
X289929200Y-139790600D03*
X289929200Y-141590600D03*
D13*
X290779200Y-141520600D03*
D14*
X290779200Y-140000600D03*
%TD*%
D11*
%TO.C,LD10\u002C1*%
X281596200Y-122350100D03*
D12*
X281596200Y-121450100D03*
D11*
X281596200Y-120550100D03*
D12*
X279896200Y-121450100D03*
D11*
X279896200Y-120550100D03*
X279896200Y-122350100D03*
D13*
X280746200Y-122280100D03*
D14*
X280746200Y-120760100D03*
%TD*%
D11*
%TO.C,LD10\u002C5*%
X332586700Y-200264600D03*
D12*
X332586700Y-199364600D03*
D11*
X332586700Y-198464600D03*
D12*
X330886700Y-199364600D03*
D11*
X330886700Y-198464600D03*
X330886700Y-200264600D03*
D13*
X331736700Y-200194600D03*
D14*
X331736700Y-198674600D03*
%TD*%
D11*
%TO.C,LD10\u002C0*%
X320887460Y-96442100D03*
D12*
X320887460Y-95542100D03*
D11*
X320887460Y-94642100D03*
D12*
X319187460Y-95542100D03*
D11*
X319187460Y-94642100D03*
X319187460Y-96442100D03*
D13*
X320037460Y-96372100D03*
D14*
X320037460Y-94852100D03*
%TD*%
D11*
%TO.C,LD9\u002C2*%
X272325200Y-141590600D03*
D12*
X272325200Y-140690600D03*
D11*
X272325200Y-139790600D03*
D12*
X270625200Y-140690600D03*
D11*
X270625200Y-139790600D03*
X270625200Y-141590600D03*
D13*
X271475200Y-141520600D03*
D14*
X271475200Y-140000600D03*
%TD*%
D11*
%TO.C,LD9\u002C5*%
X308393200Y-200264600D03*
D12*
X308393200Y-199364600D03*
D11*
X308393200Y-198464600D03*
D12*
X306693200Y-199364600D03*
D11*
X306693200Y-198464600D03*
X306693200Y-200264600D03*
D13*
X307543200Y-200194600D03*
D14*
X307543200Y-198674600D03*
%TD*%
D11*
%TO.C,LD9\u002C3*%
X277214700Y-161021600D03*
D12*
X277214700Y-160121600D03*
D11*
X277214700Y-159221600D03*
D12*
X275514700Y-160121600D03*
D11*
X275514700Y-159221600D03*
X275514700Y-161021600D03*
D13*
X276364700Y-160951600D03*
D14*
X276364700Y-159431600D03*
%TD*%
D11*
%TO.C,LD9\u002C4*%
X286612700Y-180833600D03*
D12*
X286612700Y-179933600D03*
D11*
X286612700Y-179033600D03*
D12*
X284912700Y-179933600D03*
D11*
X284912700Y-179033600D03*
X284912700Y-180833600D03*
D13*
X285762700Y-180763600D03*
D14*
X285762700Y-179243600D03*
%TD*%
D11*
%TO.C,LD9\u002C1*%
X262292200Y-122350100D03*
D12*
X262292200Y-121450100D03*
D11*
X262292200Y-120550100D03*
D12*
X260592200Y-121450100D03*
D11*
X260592200Y-120550100D03*
X260592200Y-122350100D03*
D13*
X261442200Y-122280100D03*
D14*
X261442200Y-120760100D03*
%TD*%
D11*
%TO.C,LD9\u002C0*%
X301583460Y-96442100D03*
D12*
X301583460Y-95542100D03*
D11*
X301583460Y-94642100D03*
D12*
X299883460Y-95542100D03*
D11*
X299883460Y-94642100D03*
X299883460Y-96442100D03*
D13*
X300733460Y-96372100D03*
D14*
X300733460Y-94852100D03*
%TD*%
D11*
%TO.C,LD8\u002C5*%
X284263200Y-200264600D03*
D12*
X284263200Y-199364600D03*
D11*
X284263200Y-198464600D03*
D12*
X282563200Y-199364600D03*
D11*
X282563200Y-198464600D03*
X282563200Y-200264600D03*
D13*
X283413200Y-200194600D03*
D14*
X283413200Y-198674600D03*
%TD*%
D11*
%TO.C,LD8\u002C1*%
X242988200Y-122350100D03*
D12*
X242988200Y-121450100D03*
D11*
X242988200Y-120550100D03*
D12*
X241288200Y-121450100D03*
D11*
X241288200Y-120550100D03*
X241288200Y-122350100D03*
D13*
X242138200Y-122280100D03*
D14*
X242138200Y-120760100D03*
%TD*%
D11*
%TO.C,LD8\u002C2*%
X253021200Y-141590600D03*
D12*
X253021200Y-140690600D03*
D11*
X253021200Y-139790600D03*
D12*
X251321200Y-140690600D03*
D11*
X251321200Y-139790600D03*
X251321200Y-141590600D03*
D13*
X252171200Y-141520600D03*
D14*
X252171200Y-140000600D03*
%TD*%
D11*
%TO.C,LD8\u002C0*%
X275167460Y-96442100D03*
D12*
X275167460Y-95542100D03*
D11*
X275167460Y-94642100D03*
D12*
X273467460Y-95542100D03*
D11*
X273467460Y-94642100D03*
X273467460Y-96442100D03*
D13*
X274317460Y-96372100D03*
D14*
X274317460Y-94852100D03*
%TD*%
D11*
%TO.C,LD8\u002C4*%
X267308700Y-180833600D03*
D12*
X267308700Y-179933600D03*
D11*
X267308700Y-179033600D03*
D12*
X265608700Y-179933600D03*
D11*
X265608700Y-179033600D03*
X265608700Y-180833600D03*
D13*
X266458700Y-180763600D03*
D14*
X266458700Y-179243600D03*
%TD*%
D11*
%TO.C,LD8\u002C3*%
X257910700Y-161021600D03*
D12*
X257910700Y-160121600D03*
D11*
X257910700Y-159221600D03*
D12*
X256210700Y-160121600D03*
D11*
X256210700Y-159221600D03*
X256210700Y-161021600D03*
D13*
X257060700Y-160951600D03*
D14*
X257060700Y-159431600D03*
%TD*%
D11*
%TO.C,LD7\u002C2*%
X233717200Y-141590600D03*
D12*
X233717200Y-140690600D03*
D11*
X233717200Y-139790600D03*
D12*
X232017200Y-140690600D03*
D11*
X232017200Y-139790600D03*
X232017200Y-141590600D03*
D13*
X232867200Y-141520600D03*
D14*
X232867200Y-140000600D03*
%TD*%
D11*
%TO.C,LD7\u002C1*%
X223684200Y-122350100D03*
D12*
X223684200Y-121450100D03*
D11*
X223684200Y-120550100D03*
D12*
X221984200Y-121450100D03*
D11*
X221984200Y-120550100D03*
X221984200Y-122350100D03*
D13*
X222834200Y-122280100D03*
D14*
X222834200Y-120760100D03*
%TD*%
D11*
%TO.C,LD7\u002C3*%
X238606700Y-161021600D03*
D12*
X238606700Y-160121600D03*
D11*
X238606700Y-159221600D03*
D12*
X236906700Y-160121600D03*
D11*
X236906700Y-159221600D03*
X236906700Y-161021600D03*
D13*
X237756700Y-160951600D03*
D14*
X237756700Y-159431600D03*
%TD*%
D11*
%TO.C,LD7\u002C4*%
X248004700Y-180833600D03*
D12*
X248004700Y-179933600D03*
D11*
X248004700Y-179033600D03*
D12*
X246304700Y-179933600D03*
D11*
X246304700Y-179033600D03*
X246304700Y-180833600D03*
D13*
X247154700Y-180763600D03*
D14*
X247154700Y-179243600D03*
%TD*%
D11*
%TO.C,LD7\u002C0*%
X255863460Y-96442100D03*
D12*
X255863460Y-95542100D03*
D11*
X255863460Y-94642100D03*
D12*
X254163460Y-95542100D03*
D11*
X254163460Y-94642100D03*
X254163460Y-96442100D03*
D13*
X255013460Y-96372100D03*
D14*
X255013460Y-94852100D03*
%TD*%
D11*
%TO.C,LD6\u002C1*%
X204380200Y-122350100D03*
D12*
X204380200Y-121450100D03*
D11*
X204380200Y-120550100D03*
D12*
X202680200Y-121450100D03*
D11*
X202680200Y-120550100D03*
X202680200Y-122350100D03*
D13*
X203530200Y-122280100D03*
D14*
X203530200Y-120760100D03*
%TD*%
D11*
%TO.C,LD6\u002C3*%
X219302700Y-161021600D03*
D12*
X219302700Y-160121600D03*
D11*
X219302700Y-159221600D03*
D12*
X217602700Y-160121600D03*
D11*
X217602700Y-159221600D03*
X217602700Y-161021600D03*
D13*
X218452700Y-160951600D03*
D14*
X218452700Y-159431600D03*
%TD*%
D11*
%TO.C,LD6\u002C4*%
X228700700Y-180833600D03*
D12*
X228700700Y-179933600D03*
D11*
X228700700Y-179033600D03*
D12*
X227000700Y-179933600D03*
D11*
X227000700Y-179033600D03*
X227000700Y-180833600D03*
D13*
X227850700Y-180763600D03*
D14*
X227850700Y-179243600D03*
%TD*%
D11*
%TO.C,LD6\u002C0*%
X236559460Y-96442100D03*
D12*
X236559460Y-95542100D03*
D11*
X236559460Y-94642100D03*
D12*
X234859460Y-95542100D03*
D11*
X234859460Y-94642100D03*
X234859460Y-96442100D03*
D13*
X235709460Y-96372100D03*
D14*
X235709460Y-94852100D03*
%TD*%
D11*
%TO.C,LD6\u002C2*%
X214413200Y-141590600D03*
D12*
X214413200Y-140690600D03*
D11*
X214413200Y-139790600D03*
D12*
X212713200Y-140690600D03*
D11*
X212713200Y-139790600D03*
X212713200Y-141590600D03*
D13*
X213563200Y-141520600D03*
D14*
X213563200Y-140000600D03*
%TD*%
D11*
%TO.C,LD5\u002C1*%
X185076200Y-122350100D03*
D12*
X185076200Y-121450100D03*
D11*
X185076200Y-120550100D03*
D12*
X183376200Y-121450100D03*
D11*
X183376200Y-120550100D03*
X183376200Y-122350100D03*
D13*
X184226200Y-122280100D03*
D14*
X184226200Y-120760100D03*
%TD*%
D11*
%TO.C,LD5\u002C2*%
X195109200Y-141590600D03*
D12*
X195109200Y-140690600D03*
D11*
X195109200Y-139790600D03*
D12*
X193409200Y-140690600D03*
D11*
X193409200Y-139790600D03*
X193409200Y-141590600D03*
D13*
X194259200Y-141520600D03*
D14*
X194259200Y-140000600D03*
%TD*%
D11*
%TO.C,LD5\u002C4*%
X209396700Y-180833600D03*
D12*
X209396700Y-179933600D03*
D11*
X209396700Y-179033600D03*
D12*
X207696700Y-179933600D03*
D11*
X207696700Y-179033600D03*
X207696700Y-180833600D03*
D13*
X208546700Y-180763600D03*
D14*
X208546700Y-179243600D03*
%TD*%
D11*
%TO.C,LD5\u002C0*%
X217255460Y-96442100D03*
D12*
X217255460Y-95542100D03*
D11*
X217255460Y-94642100D03*
D12*
X215555460Y-95542100D03*
D11*
X215555460Y-94642100D03*
X215555460Y-96442100D03*
D13*
X216405460Y-96372100D03*
D14*
X216405460Y-94852100D03*
%TD*%
D11*
%TO.C,LD5\u002C3*%
X199998700Y-161021600D03*
D12*
X199998700Y-160121600D03*
D11*
X199998700Y-159221600D03*
D12*
X198298700Y-160121600D03*
D11*
X198298700Y-159221600D03*
X198298700Y-161021600D03*
D13*
X199148700Y-160951600D03*
D14*
X199148700Y-159431600D03*
%TD*%
D11*
%TO.C,LD4\u002C3*%
X180694700Y-161021600D03*
D12*
X180694700Y-160121600D03*
D11*
X180694700Y-159221600D03*
D12*
X178994700Y-160121600D03*
D11*
X178994700Y-159221600D03*
X178994700Y-161021600D03*
D13*
X179844700Y-160951600D03*
D14*
X179844700Y-159431600D03*
%TD*%
D11*
%TO.C,LD4\u002C4*%
X190092700Y-180833600D03*
D12*
X190092700Y-179933600D03*
D11*
X190092700Y-179033600D03*
D12*
X188392700Y-179933600D03*
D11*
X188392700Y-179033600D03*
X188392700Y-180833600D03*
D13*
X189242700Y-180763600D03*
D14*
X189242700Y-179243600D03*
%TD*%
D11*
%TO.C,LD4\u002C0*%
X185759460Y-96442100D03*
D12*
X185759460Y-95542100D03*
D11*
X185759460Y-94642100D03*
D12*
X184059460Y-95542100D03*
D11*
X184059460Y-94642100D03*
X184059460Y-96442100D03*
D13*
X184909460Y-96372100D03*
D14*
X184909460Y-94852100D03*
%TD*%
D11*
%TO.C,LD4\u002C2*%
X175805200Y-141590600D03*
D12*
X175805200Y-140690600D03*
D11*
X175805200Y-139790600D03*
D12*
X174105200Y-140690600D03*
D11*
X174105200Y-139790600D03*
X174105200Y-141590600D03*
D13*
X174955200Y-141520600D03*
D14*
X174955200Y-140000600D03*
%TD*%
D11*
%TO.C,LD4\u002C1*%
X165772200Y-122350100D03*
D12*
X165772200Y-121450100D03*
D11*
X165772200Y-120550100D03*
D12*
X164072200Y-121450100D03*
D11*
X164072200Y-120550100D03*
X164072200Y-122350100D03*
D13*
X164922200Y-122280100D03*
D14*
X164922200Y-120760100D03*
%TD*%
D11*
%TO.C,LD3\u002C0*%
X166455460Y-96442100D03*
D12*
X166455460Y-95542100D03*
D11*
X166455460Y-94642100D03*
D12*
X164755460Y-95542100D03*
D11*
X164755460Y-94642100D03*
X164755460Y-96442100D03*
D13*
X165605460Y-96372100D03*
D14*
X165605460Y-94852100D03*
%TD*%
D11*
%TO.C,LD3\u002C1*%
X146468200Y-122350100D03*
D12*
X146468200Y-121450100D03*
D11*
X146468200Y-120550100D03*
D12*
X144768200Y-121450100D03*
D11*
X144768200Y-120550100D03*
X144768200Y-122350100D03*
D13*
X145618200Y-122280100D03*
D14*
X145618200Y-120760100D03*
%TD*%
D11*
%TO.C,LD3\u002C2*%
X156501200Y-141590600D03*
D12*
X156501200Y-140690600D03*
D11*
X156501200Y-139790600D03*
D12*
X154801200Y-140690600D03*
D11*
X154801200Y-139790600D03*
X154801200Y-141590600D03*
D13*
X155651200Y-141520600D03*
D14*
X155651200Y-140000600D03*
%TD*%
D11*
%TO.C,LD3\u002C4*%
X170788700Y-180833600D03*
D12*
X170788700Y-179933600D03*
D11*
X170788700Y-179033600D03*
D12*
X169088700Y-179933600D03*
D11*
X169088700Y-179033600D03*
X169088700Y-180833600D03*
D13*
X169938700Y-180763600D03*
D14*
X169938700Y-179243600D03*
%TD*%
D11*
%TO.C,LD3\u002C5*%
X212508200Y-200264600D03*
D12*
X212508200Y-199364600D03*
D11*
X212508200Y-198464600D03*
D12*
X210808200Y-199364600D03*
D11*
X210808200Y-198464600D03*
X210808200Y-200264600D03*
D13*
X211658200Y-200194600D03*
D14*
X211658200Y-198674600D03*
%TD*%
D11*
%TO.C,LD3\u002C3*%
X161390700Y-161021600D03*
D12*
X161390700Y-160121600D03*
D11*
X161390700Y-159221600D03*
D12*
X159690700Y-160121600D03*
D11*
X159690700Y-159221600D03*
X159690700Y-161021600D03*
D13*
X160540700Y-160951600D03*
D14*
X160540700Y-159431600D03*
%TD*%
D11*
%TO.C,LD2\u002C3*%
X142086700Y-161021600D03*
D12*
X142086700Y-160121600D03*
D11*
X142086700Y-159221600D03*
D12*
X140386700Y-160121600D03*
D11*
X140386700Y-159221600D03*
X140386700Y-161021600D03*
D13*
X141236700Y-160951600D03*
D14*
X141236700Y-159431600D03*
%TD*%
D11*
%TO.C,LD2\u002C5*%
X140626200Y-200264600D03*
D12*
X140626200Y-199364600D03*
D11*
X140626200Y-198464600D03*
D12*
X138926200Y-199364600D03*
D11*
X138926200Y-198464600D03*
X138926200Y-200264600D03*
D13*
X139776200Y-200194600D03*
D14*
X139776200Y-198674600D03*
%TD*%
D11*
%TO.C,LD2\u002C4*%
X151344700Y-180833600D03*
D12*
X151344700Y-179933600D03*
D11*
X151344700Y-179033600D03*
D12*
X149644700Y-179933600D03*
D11*
X149644700Y-179033600D03*
X149644700Y-180833600D03*
D13*
X150494700Y-180763600D03*
D14*
X150494700Y-179243600D03*
%TD*%
D11*
%TO.C,LD2\u002C0*%
X147151460Y-96442100D03*
D12*
X147151460Y-95542100D03*
D11*
X147151460Y-94642100D03*
D12*
X145451460Y-95542100D03*
D11*
X145451460Y-94642100D03*
X145451460Y-96442100D03*
D13*
X146301460Y-96372100D03*
D14*
X146301460Y-94852100D03*
%TD*%
D11*
%TO.C,LD2\u002C1*%
X127672200Y-122350100D03*
D12*
X127672200Y-121450100D03*
D11*
X127672200Y-120550100D03*
D12*
X125972200Y-121450100D03*
D11*
X125972200Y-120550100D03*
X125972200Y-122350100D03*
D13*
X126822200Y-122280100D03*
D14*
X126822200Y-120760100D03*
%TD*%
D11*
%TO.C,LD2\u002C2*%
X137197200Y-141590600D03*
D12*
X137197200Y-140690600D03*
D11*
X137197200Y-139790600D03*
D12*
X135497200Y-140690600D03*
D11*
X135497200Y-139790600D03*
X135497200Y-141590600D03*
D13*
X136347200Y-141520600D03*
D14*
X136347200Y-140000600D03*
%TD*%
D11*
%TO.C,LD1\u002C0*%
X127847460Y-96442100D03*
D12*
X127847460Y-95542100D03*
D11*
X127847460Y-94642100D03*
D12*
X126147460Y-95542100D03*
D11*
X126147460Y-94642100D03*
X126147460Y-96442100D03*
D13*
X126997460Y-96372100D03*
D14*
X126997460Y-94852100D03*
%TD*%
D11*
%TO.C,LD1\u002C4*%
X132180700Y-180833600D03*
D12*
X132180700Y-179933600D03*
D11*
X132180700Y-179033600D03*
D12*
X130480700Y-179933600D03*
D11*
X130480700Y-179033600D03*
X130480700Y-180833600D03*
D13*
X131330700Y-180763600D03*
D14*
X131330700Y-179243600D03*
%TD*%
D11*
%TO.C,LD1\u002C1*%
X108469800Y-122362800D03*
D12*
X108469800Y-121462800D03*
D11*
X108469800Y-120562800D03*
D12*
X106769800Y-121462800D03*
D11*
X106769800Y-120562800D03*
X106769800Y-122362800D03*
D13*
X107619800Y-122292800D03*
D14*
X107619800Y-120772800D03*
%TD*%
D11*
%TO.C,LD1\u002C3*%
X122782700Y-161021600D03*
D12*
X122782700Y-160121600D03*
D11*
X122782700Y-159221600D03*
D12*
X121082700Y-160121600D03*
D11*
X121082700Y-159221600D03*
X121082700Y-161021600D03*
D13*
X121932700Y-160951600D03*
D14*
X121932700Y-159431600D03*
%TD*%
D11*
%TO.C,LD1\u002C5*%
X116242200Y-200264600D03*
D12*
X116242200Y-199364600D03*
D11*
X116242200Y-198464600D03*
D12*
X114542200Y-199364600D03*
D11*
X114542200Y-198464600D03*
X114542200Y-200264600D03*
D13*
X115392200Y-200194600D03*
D14*
X115392200Y-198674600D03*
%TD*%
D11*
%TO.C,LD1\u002C2*%
X117893200Y-141590600D03*
D12*
X117893200Y-140690600D03*
D11*
X117893200Y-139790600D03*
D12*
X116193200Y-140690600D03*
D11*
X116193200Y-139790600D03*
X116193200Y-141590600D03*
D13*
X117043200Y-141520600D03*
D14*
X117043200Y-140000600D03*
%TD*%
D11*
%TO.C,LD0\u002C2*%
X93966400Y-141565200D03*
D12*
X93966400Y-140665200D03*
D11*
X93966400Y-139765200D03*
D12*
X92266400Y-140665200D03*
D11*
X92266400Y-139765200D03*
X92266400Y-141565200D03*
D13*
X93116400Y-141495200D03*
D14*
X93116400Y-139975200D03*
%TD*%
D11*
%TO.C,LD0\u002C1*%
X89254700Y-122362800D03*
D12*
X89254700Y-121462800D03*
D11*
X89254700Y-120562800D03*
D12*
X87554700Y-121462800D03*
D11*
X87554700Y-120562800D03*
X87554700Y-122362800D03*
D13*
X88404700Y-122292800D03*
D14*
X88404700Y-120772800D03*
%TD*%
D11*
%TO.C,LD0\u002C5*%
X91667700Y-200213800D03*
D12*
X91667700Y-199313800D03*
D11*
X91667700Y-198413800D03*
D12*
X89967700Y-199313800D03*
D11*
X89967700Y-198413800D03*
X89967700Y-200213800D03*
D13*
X90817700Y-200143800D03*
D14*
X90817700Y-198623800D03*
%TD*%
D11*
%TO.C,LD0\u002C3*%
X96303200Y-161097800D03*
D12*
X96303200Y-160197800D03*
D11*
X96303200Y-159297800D03*
D12*
X94603200Y-160197800D03*
D11*
X94603200Y-159297800D03*
X94603200Y-161097800D03*
D13*
X95453200Y-161027800D03*
D14*
X95453200Y-159507800D03*
%TD*%
D11*
%TO.C,LD0\u002C0*%
X89318200Y-96404000D03*
D12*
X89318200Y-95504000D03*
D11*
X89318200Y-94604000D03*
D12*
X87618200Y-95504000D03*
D11*
X87618200Y-94604000D03*
X87618200Y-96404000D03*
D13*
X88468200Y-96334000D03*
D14*
X88468200Y-94814000D03*
%TD*%
D11*
%TO.C,LD0\u002C4*%
X101065700Y-180833600D03*
D12*
X101065700Y-179933600D03*
D11*
X101065700Y-179033600D03*
D12*
X99365700Y-179933600D03*
D11*
X99365700Y-179033600D03*
X99365700Y-180833600D03*
D13*
X100215700Y-180763600D03*
D14*
X100215700Y-179243600D03*
%TD*%
D15*
%TO.C,C1*%
X107823000Y-115550000D03*
X107823000Y-113050000D03*
%TD*%
D16*
%TO.C,C2*%
X410444000Y-84201000D03*
X407944000Y-84201000D03*
%TD*%
M02*
