%TF.GenerationSoftware,KiCad,Pcbnew,(5.1.9)-1*%
%TF.CreationDate,2021-03-17T02:29:25+10:00*%
%TF.ProjectId,RedPyKeeb,52656450-794b-4656-9562-2e6b69636164,rev?*%
%TF.SameCoordinates,Original*%
%TF.FileFunction,Soldermask,Top*%
%TF.FilePolarity,Negative*%
%FSLAX46Y46*%
G04 Gerber Fmt 4.6, Leading zero omitted, Abs format (unit mm)*
G04 Created by KiCad (PCBNEW (5.1.9)-1) date 2021-03-17 02:29:25*
%MOMM*%
%LPD*%
G01*
G04 APERTURE LIST*
%ADD10O,1.700000X1.700000*%
%ADD11R,1.700000X1.700000*%
%ADD12R,1.700000X3.500000*%
%ADD13O,1.800000X1.800000*%
%ADD14O,1.500000X1.500000*%
%ADD15R,3.500000X1.700000*%
%ADD16C,3.000000*%
%ADD17C,4.000000*%
%ADD18C,1.750000*%
%ADD19R,1.250000X1.500000*%
%ADD20R,1.500000X1.250000*%
%ADD21R,1.600000X1.600000*%
%ADD22C,1.600000*%
%ADD23O,1.950000X1.700000*%
%ADD24O,1.700000X1.950000*%
%ADD25R,1.800000X1.200000*%
G04 APERTURE END LIST*
D10*
%TO.C,U0*%
X455776000Y-130642000D03*
X453236000Y-130642000D03*
D11*
X450696000Y-130642000D03*
D10*
X448156000Y-130642000D03*
X445616000Y-130642000D03*
X443076000Y-130642000D03*
X440536000Y-130642000D03*
D11*
X437996000Y-130642000D03*
D10*
X435456000Y-130642000D03*
X432916000Y-130642000D03*
X430376000Y-130642000D03*
X427836000Y-130642000D03*
D11*
X425296000Y-130642000D03*
D10*
X422756000Y-130642000D03*
X420216000Y-130642000D03*
X417676000Y-130642000D03*
X415136000Y-130642000D03*
D11*
X412596000Y-130642000D03*
D10*
X410056000Y-130642000D03*
X407516000Y-130642000D03*
X407516000Y-148422000D03*
X410056000Y-148422000D03*
D11*
X412596000Y-148422000D03*
D10*
X415136000Y-148422000D03*
X417676000Y-148422000D03*
X420216000Y-148422000D03*
X422756000Y-148422000D03*
D11*
X425296000Y-148422000D03*
D10*
X427836000Y-148422000D03*
X430376000Y-148422000D03*
X432916000Y-148422000D03*
X435456000Y-148422000D03*
D11*
X437996000Y-148422000D03*
D10*
X440536000Y-148422000D03*
X443076000Y-148422000D03*
X445616000Y-148422000D03*
X448156000Y-148422000D03*
D11*
X450696000Y-148422000D03*
D10*
X453236000Y-148422000D03*
X455776000Y-148422000D03*
D12*
X455776000Y-129742000D03*
X453236000Y-129742000D03*
X450696000Y-129742000D03*
X448156000Y-129742000D03*
X445616000Y-129742000D03*
X443076000Y-129742000D03*
X440536000Y-129742000D03*
X437996000Y-129742000D03*
X435456000Y-129742000D03*
X432916000Y-129742000D03*
X430376000Y-129742000D03*
X427836000Y-129742000D03*
X425296000Y-129742000D03*
X422756000Y-129742000D03*
X420216000Y-129742000D03*
X417676000Y-129742000D03*
X415136000Y-129742000D03*
X412596000Y-129742000D03*
X410056000Y-129742000D03*
X407516000Y-129742000D03*
X455776000Y-149322000D03*
X453236000Y-149322000D03*
X450696000Y-149322000D03*
X448156000Y-149322000D03*
X445616000Y-149322000D03*
X443076000Y-149322000D03*
X440536000Y-149322000D03*
X437996000Y-149322000D03*
X435456000Y-149322000D03*
X432916000Y-149322000D03*
X430376000Y-149322000D03*
X427836000Y-149322000D03*
X425296000Y-149322000D03*
X422756000Y-149322000D03*
X420216000Y-149322000D03*
X417676000Y-149322000D03*
X415136000Y-149322000D03*
X412596000Y-149322000D03*
X410056000Y-149322000D03*
X407516000Y-149322000D03*
D13*
X455646000Y-136807000D03*
X455646000Y-142257000D03*
D14*
X452616000Y-137107000D03*
X452616000Y-141957000D03*
D15*
X406846000Y-136992000D03*
D10*
X407746000Y-136992000D03*
D15*
X406846000Y-139532000D03*
D11*
X407746000Y-139532000D03*
D15*
X406846000Y-142072000D03*
D10*
X407746000Y-142072000D03*
%TD*%
%TO.C,U2*%
G36*
G01*
X414949000Y-57427000D02*
X414949000Y-57127000D01*
G75*
G02*
X415099000Y-56977000I150000J0D01*
G01*
X416849000Y-56977000D01*
G75*
G02*
X416999000Y-57127000I0J-150000D01*
G01*
X416999000Y-57427000D01*
G75*
G02*
X416849000Y-57577000I-150000J0D01*
G01*
X415099000Y-57577000D01*
G75*
G02*
X414949000Y-57427000I0J150000D01*
G01*
G37*
G36*
G01*
X414949000Y-58697000D02*
X414949000Y-58397000D01*
G75*
G02*
X415099000Y-58247000I150000J0D01*
G01*
X416849000Y-58247000D01*
G75*
G02*
X416999000Y-58397000I0J-150000D01*
G01*
X416999000Y-58697000D01*
G75*
G02*
X416849000Y-58847000I-150000J0D01*
G01*
X415099000Y-58847000D01*
G75*
G02*
X414949000Y-58697000I0J150000D01*
G01*
G37*
G36*
G01*
X414949000Y-59967000D02*
X414949000Y-59667000D01*
G75*
G02*
X415099000Y-59517000I150000J0D01*
G01*
X416849000Y-59517000D01*
G75*
G02*
X416999000Y-59667000I0J-150000D01*
G01*
X416999000Y-59967000D01*
G75*
G02*
X416849000Y-60117000I-150000J0D01*
G01*
X415099000Y-60117000D01*
G75*
G02*
X414949000Y-59967000I0J150000D01*
G01*
G37*
G36*
G01*
X414949000Y-61237000D02*
X414949000Y-60937000D01*
G75*
G02*
X415099000Y-60787000I150000J0D01*
G01*
X416849000Y-60787000D01*
G75*
G02*
X416999000Y-60937000I0J-150000D01*
G01*
X416999000Y-61237000D01*
G75*
G02*
X416849000Y-61387000I-150000J0D01*
G01*
X415099000Y-61387000D01*
G75*
G02*
X414949000Y-61237000I0J150000D01*
G01*
G37*
G36*
G01*
X414949000Y-62507000D02*
X414949000Y-62207000D01*
G75*
G02*
X415099000Y-62057000I150000J0D01*
G01*
X416849000Y-62057000D01*
G75*
G02*
X416999000Y-62207000I0J-150000D01*
G01*
X416999000Y-62507000D01*
G75*
G02*
X416849000Y-62657000I-150000J0D01*
G01*
X415099000Y-62657000D01*
G75*
G02*
X414949000Y-62507000I0J150000D01*
G01*
G37*
G36*
G01*
X414949000Y-63777000D02*
X414949000Y-63477000D01*
G75*
G02*
X415099000Y-63327000I150000J0D01*
G01*
X416849000Y-63327000D01*
G75*
G02*
X416999000Y-63477000I0J-150000D01*
G01*
X416999000Y-63777000D01*
G75*
G02*
X416849000Y-63927000I-150000J0D01*
G01*
X415099000Y-63927000D01*
G75*
G02*
X414949000Y-63777000I0J150000D01*
G01*
G37*
G36*
G01*
X414949000Y-65047000D02*
X414949000Y-64747000D01*
G75*
G02*
X415099000Y-64597000I150000J0D01*
G01*
X416849000Y-64597000D01*
G75*
G02*
X416999000Y-64747000I0J-150000D01*
G01*
X416999000Y-65047000D01*
G75*
G02*
X416849000Y-65197000I-150000J0D01*
G01*
X415099000Y-65197000D01*
G75*
G02*
X414949000Y-65047000I0J150000D01*
G01*
G37*
G36*
G01*
X414949000Y-66317000D02*
X414949000Y-66017000D01*
G75*
G02*
X415099000Y-65867000I150000J0D01*
G01*
X416849000Y-65867000D01*
G75*
G02*
X416999000Y-66017000I0J-150000D01*
G01*
X416999000Y-66317000D01*
G75*
G02*
X416849000Y-66467000I-150000J0D01*
G01*
X415099000Y-66467000D01*
G75*
G02*
X414949000Y-66317000I0J150000D01*
G01*
G37*
G36*
G01*
X414949000Y-67587000D02*
X414949000Y-67287000D01*
G75*
G02*
X415099000Y-67137000I150000J0D01*
G01*
X416849000Y-67137000D01*
G75*
G02*
X416999000Y-67287000I0J-150000D01*
G01*
X416999000Y-67587000D01*
G75*
G02*
X416849000Y-67737000I-150000J0D01*
G01*
X415099000Y-67737000D01*
G75*
G02*
X414949000Y-67587000I0J150000D01*
G01*
G37*
G36*
G01*
X414949000Y-68857000D02*
X414949000Y-68557000D01*
G75*
G02*
X415099000Y-68407000I150000J0D01*
G01*
X416849000Y-68407000D01*
G75*
G02*
X416999000Y-68557000I0J-150000D01*
G01*
X416999000Y-68857000D01*
G75*
G02*
X416849000Y-69007000I-150000J0D01*
G01*
X415099000Y-69007000D01*
G75*
G02*
X414949000Y-68857000I0J150000D01*
G01*
G37*
G36*
G01*
X414949000Y-70127000D02*
X414949000Y-69827000D01*
G75*
G02*
X415099000Y-69677000I150000J0D01*
G01*
X416849000Y-69677000D01*
G75*
G02*
X416999000Y-69827000I0J-150000D01*
G01*
X416999000Y-70127000D01*
G75*
G02*
X416849000Y-70277000I-150000J0D01*
G01*
X415099000Y-70277000D01*
G75*
G02*
X414949000Y-70127000I0J150000D01*
G01*
G37*
G36*
G01*
X414949000Y-71397000D02*
X414949000Y-71097000D01*
G75*
G02*
X415099000Y-70947000I150000J0D01*
G01*
X416849000Y-70947000D01*
G75*
G02*
X416999000Y-71097000I0J-150000D01*
G01*
X416999000Y-71397000D01*
G75*
G02*
X416849000Y-71547000I-150000J0D01*
G01*
X415099000Y-71547000D01*
G75*
G02*
X414949000Y-71397000I0J150000D01*
G01*
G37*
G36*
G01*
X414949000Y-72667000D02*
X414949000Y-72367000D01*
G75*
G02*
X415099000Y-72217000I150000J0D01*
G01*
X416849000Y-72217000D01*
G75*
G02*
X416999000Y-72367000I0J-150000D01*
G01*
X416999000Y-72667000D01*
G75*
G02*
X416849000Y-72817000I-150000J0D01*
G01*
X415099000Y-72817000D01*
G75*
G02*
X414949000Y-72667000I0J150000D01*
G01*
G37*
G36*
G01*
X414949000Y-73937000D02*
X414949000Y-73637000D01*
G75*
G02*
X415099000Y-73487000I150000J0D01*
G01*
X416849000Y-73487000D01*
G75*
G02*
X416999000Y-73637000I0J-150000D01*
G01*
X416999000Y-73937000D01*
G75*
G02*
X416849000Y-74087000I-150000J0D01*
G01*
X415099000Y-74087000D01*
G75*
G02*
X414949000Y-73937000I0J150000D01*
G01*
G37*
G36*
G01*
X424249000Y-73937000D02*
X424249000Y-73637000D01*
G75*
G02*
X424399000Y-73487000I150000J0D01*
G01*
X426149000Y-73487000D01*
G75*
G02*
X426299000Y-73637000I0J-150000D01*
G01*
X426299000Y-73937000D01*
G75*
G02*
X426149000Y-74087000I-150000J0D01*
G01*
X424399000Y-74087000D01*
G75*
G02*
X424249000Y-73937000I0J150000D01*
G01*
G37*
G36*
G01*
X424249000Y-72667000D02*
X424249000Y-72367000D01*
G75*
G02*
X424399000Y-72217000I150000J0D01*
G01*
X426149000Y-72217000D01*
G75*
G02*
X426299000Y-72367000I0J-150000D01*
G01*
X426299000Y-72667000D01*
G75*
G02*
X426149000Y-72817000I-150000J0D01*
G01*
X424399000Y-72817000D01*
G75*
G02*
X424249000Y-72667000I0J150000D01*
G01*
G37*
G36*
G01*
X424249000Y-71397000D02*
X424249000Y-71097000D01*
G75*
G02*
X424399000Y-70947000I150000J0D01*
G01*
X426149000Y-70947000D01*
G75*
G02*
X426299000Y-71097000I0J-150000D01*
G01*
X426299000Y-71397000D01*
G75*
G02*
X426149000Y-71547000I-150000J0D01*
G01*
X424399000Y-71547000D01*
G75*
G02*
X424249000Y-71397000I0J150000D01*
G01*
G37*
G36*
G01*
X424249000Y-70127000D02*
X424249000Y-69827000D01*
G75*
G02*
X424399000Y-69677000I150000J0D01*
G01*
X426149000Y-69677000D01*
G75*
G02*
X426299000Y-69827000I0J-150000D01*
G01*
X426299000Y-70127000D01*
G75*
G02*
X426149000Y-70277000I-150000J0D01*
G01*
X424399000Y-70277000D01*
G75*
G02*
X424249000Y-70127000I0J150000D01*
G01*
G37*
G36*
G01*
X424249000Y-68857000D02*
X424249000Y-68557000D01*
G75*
G02*
X424399000Y-68407000I150000J0D01*
G01*
X426149000Y-68407000D01*
G75*
G02*
X426299000Y-68557000I0J-150000D01*
G01*
X426299000Y-68857000D01*
G75*
G02*
X426149000Y-69007000I-150000J0D01*
G01*
X424399000Y-69007000D01*
G75*
G02*
X424249000Y-68857000I0J150000D01*
G01*
G37*
G36*
G01*
X424249000Y-67587000D02*
X424249000Y-67287000D01*
G75*
G02*
X424399000Y-67137000I150000J0D01*
G01*
X426149000Y-67137000D01*
G75*
G02*
X426299000Y-67287000I0J-150000D01*
G01*
X426299000Y-67587000D01*
G75*
G02*
X426149000Y-67737000I-150000J0D01*
G01*
X424399000Y-67737000D01*
G75*
G02*
X424249000Y-67587000I0J150000D01*
G01*
G37*
G36*
G01*
X424249000Y-66317000D02*
X424249000Y-66017000D01*
G75*
G02*
X424399000Y-65867000I150000J0D01*
G01*
X426149000Y-65867000D01*
G75*
G02*
X426299000Y-66017000I0J-150000D01*
G01*
X426299000Y-66317000D01*
G75*
G02*
X426149000Y-66467000I-150000J0D01*
G01*
X424399000Y-66467000D01*
G75*
G02*
X424249000Y-66317000I0J150000D01*
G01*
G37*
G36*
G01*
X424249000Y-65047000D02*
X424249000Y-64747000D01*
G75*
G02*
X424399000Y-64597000I150000J0D01*
G01*
X426149000Y-64597000D01*
G75*
G02*
X426299000Y-64747000I0J-150000D01*
G01*
X426299000Y-65047000D01*
G75*
G02*
X426149000Y-65197000I-150000J0D01*
G01*
X424399000Y-65197000D01*
G75*
G02*
X424249000Y-65047000I0J150000D01*
G01*
G37*
G36*
G01*
X424249000Y-63777000D02*
X424249000Y-63477000D01*
G75*
G02*
X424399000Y-63327000I150000J0D01*
G01*
X426149000Y-63327000D01*
G75*
G02*
X426299000Y-63477000I0J-150000D01*
G01*
X426299000Y-63777000D01*
G75*
G02*
X426149000Y-63927000I-150000J0D01*
G01*
X424399000Y-63927000D01*
G75*
G02*
X424249000Y-63777000I0J150000D01*
G01*
G37*
G36*
G01*
X424249000Y-62507000D02*
X424249000Y-62207000D01*
G75*
G02*
X424399000Y-62057000I150000J0D01*
G01*
X426149000Y-62057000D01*
G75*
G02*
X426299000Y-62207000I0J-150000D01*
G01*
X426299000Y-62507000D01*
G75*
G02*
X426149000Y-62657000I-150000J0D01*
G01*
X424399000Y-62657000D01*
G75*
G02*
X424249000Y-62507000I0J150000D01*
G01*
G37*
G36*
G01*
X424249000Y-61237000D02*
X424249000Y-60937000D01*
G75*
G02*
X424399000Y-60787000I150000J0D01*
G01*
X426149000Y-60787000D01*
G75*
G02*
X426299000Y-60937000I0J-150000D01*
G01*
X426299000Y-61237000D01*
G75*
G02*
X426149000Y-61387000I-150000J0D01*
G01*
X424399000Y-61387000D01*
G75*
G02*
X424249000Y-61237000I0J150000D01*
G01*
G37*
G36*
G01*
X424249000Y-59967000D02*
X424249000Y-59667000D01*
G75*
G02*
X424399000Y-59517000I150000J0D01*
G01*
X426149000Y-59517000D01*
G75*
G02*
X426299000Y-59667000I0J-150000D01*
G01*
X426299000Y-59967000D01*
G75*
G02*
X426149000Y-60117000I-150000J0D01*
G01*
X424399000Y-60117000D01*
G75*
G02*
X424249000Y-59967000I0J150000D01*
G01*
G37*
G36*
G01*
X424249000Y-58697000D02*
X424249000Y-58397000D01*
G75*
G02*
X424399000Y-58247000I150000J0D01*
G01*
X426149000Y-58247000D01*
G75*
G02*
X426299000Y-58397000I0J-150000D01*
G01*
X426299000Y-58697000D01*
G75*
G02*
X426149000Y-58847000I-150000J0D01*
G01*
X424399000Y-58847000D01*
G75*
G02*
X424249000Y-58697000I0J150000D01*
G01*
G37*
G36*
G01*
X424249000Y-57427000D02*
X424249000Y-57127000D01*
G75*
G02*
X424399000Y-56977000I150000J0D01*
G01*
X426149000Y-56977000D01*
G75*
G02*
X426299000Y-57127000I0J-150000D01*
G01*
X426299000Y-57427000D01*
G75*
G02*
X426149000Y-57577000I-150000J0D01*
G01*
X424399000Y-57577000D01*
G75*
G02*
X424249000Y-57427000I0J150000D01*
G01*
G37*
%TD*%
%TO.C,U3*%
G36*
G01*
X41743000Y-61445000D02*
X41743000Y-61745000D01*
G75*
G02*
X41593000Y-61895000I-150000J0D01*
G01*
X39843000Y-61895000D01*
G75*
G02*
X39693000Y-61745000I0J150000D01*
G01*
X39693000Y-61445000D01*
G75*
G02*
X39843000Y-61295000I150000J0D01*
G01*
X41593000Y-61295000D01*
G75*
G02*
X41743000Y-61445000I0J-150000D01*
G01*
G37*
G36*
G01*
X41743000Y-60175000D02*
X41743000Y-60475000D01*
G75*
G02*
X41593000Y-60625000I-150000J0D01*
G01*
X39843000Y-60625000D01*
G75*
G02*
X39693000Y-60475000I0J150000D01*
G01*
X39693000Y-60175000D01*
G75*
G02*
X39843000Y-60025000I150000J0D01*
G01*
X41593000Y-60025000D01*
G75*
G02*
X41743000Y-60175000I0J-150000D01*
G01*
G37*
G36*
G01*
X41743000Y-58905000D02*
X41743000Y-59205000D01*
G75*
G02*
X41593000Y-59355000I-150000J0D01*
G01*
X39843000Y-59355000D01*
G75*
G02*
X39693000Y-59205000I0J150000D01*
G01*
X39693000Y-58905000D01*
G75*
G02*
X39843000Y-58755000I150000J0D01*
G01*
X41593000Y-58755000D01*
G75*
G02*
X41743000Y-58905000I0J-150000D01*
G01*
G37*
G36*
G01*
X41743000Y-57635000D02*
X41743000Y-57935000D01*
G75*
G02*
X41593000Y-58085000I-150000J0D01*
G01*
X39843000Y-58085000D01*
G75*
G02*
X39693000Y-57935000I0J150000D01*
G01*
X39693000Y-57635000D01*
G75*
G02*
X39843000Y-57485000I150000J0D01*
G01*
X41593000Y-57485000D01*
G75*
G02*
X41743000Y-57635000I0J-150000D01*
G01*
G37*
G36*
G01*
X41743000Y-56365000D02*
X41743000Y-56665000D01*
G75*
G02*
X41593000Y-56815000I-150000J0D01*
G01*
X39843000Y-56815000D01*
G75*
G02*
X39693000Y-56665000I0J150000D01*
G01*
X39693000Y-56365000D01*
G75*
G02*
X39843000Y-56215000I150000J0D01*
G01*
X41593000Y-56215000D01*
G75*
G02*
X41743000Y-56365000I0J-150000D01*
G01*
G37*
G36*
G01*
X41743000Y-55095000D02*
X41743000Y-55395000D01*
G75*
G02*
X41593000Y-55545000I-150000J0D01*
G01*
X39843000Y-55545000D01*
G75*
G02*
X39693000Y-55395000I0J150000D01*
G01*
X39693000Y-55095000D01*
G75*
G02*
X39843000Y-54945000I150000J0D01*
G01*
X41593000Y-54945000D01*
G75*
G02*
X41743000Y-55095000I0J-150000D01*
G01*
G37*
G36*
G01*
X41743000Y-53825000D02*
X41743000Y-54125000D01*
G75*
G02*
X41593000Y-54275000I-150000J0D01*
G01*
X39843000Y-54275000D01*
G75*
G02*
X39693000Y-54125000I0J150000D01*
G01*
X39693000Y-53825000D01*
G75*
G02*
X39843000Y-53675000I150000J0D01*
G01*
X41593000Y-53675000D01*
G75*
G02*
X41743000Y-53825000I0J-150000D01*
G01*
G37*
G36*
G01*
X41743000Y-52555000D02*
X41743000Y-52855000D01*
G75*
G02*
X41593000Y-53005000I-150000J0D01*
G01*
X39843000Y-53005000D01*
G75*
G02*
X39693000Y-52855000I0J150000D01*
G01*
X39693000Y-52555000D01*
G75*
G02*
X39843000Y-52405000I150000J0D01*
G01*
X41593000Y-52405000D01*
G75*
G02*
X41743000Y-52555000I0J-150000D01*
G01*
G37*
G36*
G01*
X41743000Y-51285000D02*
X41743000Y-51585000D01*
G75*
G02*
X41593000Y-51735000I-150000J0D01*
G01*
X39843000Y-51735000D01*
G75*
G02*
X39693000Y-51585000I0J150000D01*
G01*
X39693000Y-51285000D01*
G75*
G02*
X39843000Y-51135000I150000J0D01*
G01*
X41593000Y-51135000D01*
G75*
G02*
X41743000Y-51285000I0J-150000D01*
G01*
G37*
G36*
G01*
X41743000Y-50015000D02*
X41743000Y-50315000D01*
G75*
G02*
X41593000Y-50465000I-150000J0D01*
G01*
X39843000Y-50465000D01*
G75*
G02*
X39693000Y-50315000I0J150000D01*
G01*
X39693000Y-50015000D01*
G75*
G02*
X39843000Y-49865000I150000J0D01*
G01*
X41593000Y-49865000D01*
G75*
G02*
X41743000Y-50015000I0J-150000D01*
G01*
G37*
G36*
G01*
X41743000Y-48745000D02*
X41743000Y-49045000D01*
G75*
G02*
X41593000Y-49195000I-150000J0D01*
G01*
X39843000Y-49195000D01*
G75*
G02*
X39693000Y-49045000I0J150000D01*
G01*
X39693000Y-48745000D01*
G75*
G02*
X39843000Y-48595000I150000J0D01*
G01*
X41593000Y-48595000D01*
G75*
G02*
X41743000Y-48745000I0J-150000D01*
G01*
G37*
G36*
G01*
X41743000Y-47475000D02*
X41743000Y-47775000D01*
G75*
G02*
X41593000Y-47925000I-150000J0D01*
G01*
X39843000Y-47925000D01*
G75*
G02*
X39693000Y-47775000I0J150000D01*
G01*
X39693000Y-47475000D01*
G75*
G02*
X39843000Y-47325000I150000J0D01*
G01*
X41593000Y-47325000D01*
G75*
G02*
X41743000Y-47475000I0J-150000D01*
G01*
G37*
G36*
G01*
X41743000Y-46205000D02*
X41743000Y-46505000D01*
G75*
G02*
X41593000Y-46655000I-150000J0D01*
G01*
X39843000Y-46655000D01*
G75*
G02*
X39693000Y-46505000I0J150000D01*
G01*
X39693000Y-46205000D01*
G75*
G02*
X39843000Y-46055000I150000J0D01*
G01*
X41593000Y-46055000D01*
G75*
G02*
X41743000Y-46205000I0J-150000D01*
G01*
G37*
G36*
G01*
X41743000Y-44935000D02*
X41743000Y-45235000D01*
G75*
G02*
X41593000Y-45385000I-150000J0D01*
G01*
X39843000Y-45385000D01*
G75*
G02*
X39693000Y-45235000I0J150000D01*
G01*
X39693000Y-44935000D01*
G75*
G02*
X39843000Y-44785000I150000J0D01*
G01*
X41593000Y-44785000D01*
G75*
G02*
X41743000Y-44935000I0J-150000D01*
G01*
G37*
G36*
G01*
X32443000Y-44935000D02*
X32443000Y-45235000D01*
G75*
G02*
X32293000Y-45385000I-150000J0D01*
G01*
X30543000Y-45385000D01*
G75*
G02*
X30393000Y-45235000I0J150000D01*
G01*
X30393000Y-44935000D01*
G75*
G02*
X30543000Y-44785000I150000J0D01*
G01*
X32293000Y-44785000D01*
G75*
G02*
X32443000Y-44935000I0J-150000D01*
G01*
G37*
G36*
G01*
X32443000Y-46205000D02*
X32443000Y-46505000D01*
G75*
G02*
X32293000Y-46655000I-150000J0D01*
G01*
X30543000Y-46655000D01*
G75*
G02*
X30393000Y-46505000I0J150000D01*
G01*
X30393000Y-46205000D01*
G75*
G02*
X30543000Y-46055000I150000J0D01*
G01*
X32293000Y-46055000D01*
G75*
G02*
X32443000Y-46205000I0J-150000D01*
G01*
G37*
G36*
G01*
X32443000Y-47475000D02*
X32443000Y-47775000D01*
G75*
G02*
X32293000Y-47925000I-150000J0D01*
G01*
X30543000Y-47925000D01*
G75*
G02*
X30393000Y-47775000I0J150000D01*
G01*
X30393000Y-47475000D01*
G75*
G02*
X30543000Y-47325000I150000J0D01*
G01*
X32293000Y-47325000D01*
G75*
G02*
X32443000Y-47475000I0J-150000D01*
G01*
G37*
G36*
G01*
X32443000Y-48745000D02*
X32443000Y-49045000D01*
G75*
G02*
X32293000Y-49195000I-150000J0D01*
G01*
X30543000Y-49195000D01*
G75*
G02*
X30393000Y-49045000I0J150000D01*
G01*
X30393000Y-48745000D01*
G75*
G02*
X30543000Y-48595000I150000J0D01*
G01*
X32293000Y-48595000D01*
G75*
G02*
X32443000Y-48745000I0J-150000D01*
G01*
G37*
G36*
G01*
X32443000Y-50015000D02*
X32443000Y-50315000D01*
G75*
G02*
X32293000Y-50465000I-150000J0D01*
G01*
X30543000Y-50465000D01*
G75*
G02*
X30393000Y-50315000I0J150000D01*
G01*
X30393000Y-50015000D01*
G75*
G02*
X30543000Y-49865000I150000J0D01*
G01*
X32293000Y-49865000D01*
G75*
G02*
X32443000Y-50015000I0J-150000D01*
G01*
G37*
G36*
G01*
X32443000Y-51285000D02*
X32443000Y-51585000D01*
G75*
G02*
X32293000Y-51735000I-150000J0D01*
G01*
X30543000Y-51735000D01*
G75*
G02*
X30393000Y-51585000I0J150000D01*
G01*
X30393000Y-51285000D01*
G75*
G02*
X30543000Y-51135000I150000J0D01*
G01*
X32293000Y-51135000D01*
G75*
G02*
X32443000Y-51285000I0J-150000D01*
G01*
G37*
G36*
G01*
X32443000Y-52555000D02*
X32443000Y-52855000D01*
G75*
G02*
X32293000Y-53005000I-150000J0D01*
G01*
X30543000Y-53005000D01*
G75*
G02*
X30393000Y-52855000I0J150000D01*
G01*
X30393000Y-52555000D01*
G75*
G02*
X30543000Y-52405000I150000J0D01*
G01*
X32293000Y-52405000D01*
G75*
G02*
X32443000Y-52555000I0J-150000D01*
G01*
G37*
G36*
G01*
X32443000Y-53825000D02*
X32443000Y-54125000D01*
G75*
G02*
X32293000Y-54275000I-150000J0D01*
G01*
X30543000Y-54275000D01*
G75*
G02*
X30393000Y-54125000I0J150000D01*
G01*
X30393000Y-53825000D01*
G75*
G02*
X30543000Y-53675000I150000J0D01*
G01*
X32293000Y-53675000D01*
G75*
G02*
X32443000Y-53825000I0J-150000D01*
G01*
G37*
G36*
G01*
X32443000Y-55095000D02*
X32443000Y-55395000D01*
G75*
G02*
X32293000Y-55545000I-150000J0D01*
G01*
X30543000Y-55545000D01*
G75*
G02*
X30393000Y-55395000I0J150000D01*
G01*
X30393000Y-55095000D01*
G75*
G02*
X30543000Y-54945000I150000J0D01*
G01*
X32293000Y-54945000D01*
G75*
G02*
X32443000Y-55095000I0J-150000D01*
G01*
G37*
G36*
G01*
X32443000Y-56365000D02*
X32443000Y-56665000D01*
G75*
G02*
X32293000Y-56815000I-150000J0D01*
G01*
X30543000Y-56815000D01*
G75*
G02*
X30393000Y-56665000I0J150000D01*
G01*
X30393000Y-56365000D01*
G75*
G02*
X30543000Y-56215000I150000J0D01*
G01*
X32293000Y-56215000D01*
G75*
G02*
X32443000Y-56365000I0J-150000D01*
G01*
G37*
G36*
G01*
X32443000Y-57635000D02*
X32443000Y-57935000D01*
G75*
G02*
X32293000Y-58085000I-150000J0D01*
G01*
X30543000Y-58085000D01*
G75*
G02*
X30393000Y-57935000I0J150000D01*
G01*
X30393000Y-57635000D01*
G75*
G02*
X30543000Y-57485000I150000J0D01*
G01*
X32293000Y-57485000D01*
G75*
G02*
X32443000Y-57635000I0J-150000D01*
G01*
G37*
G36*
G01*
X32443000Y-58905000D02*
X32443000Y-59205000D01*
G75*
G02*
X32293000Y-59355000I-150000J0D01*
G01*
X30543000Y-59355000D01*
G75*
G02*
X30393000Y-59205000I0J150000D01*
G01*
X30393000Y-58905000D01*
G75*
G02*
X30543000Y-58755000I150000J0D01*
G01*
X32293000Y-58755000D01*
G75*
G02*
X32443000Y-58905000I0J-150000D01*
G01*
G37*
G36*
G01*
X32443000Y-60175000D02*
X32443000Y-60475000D01*
G75*
G02*
X32293000Y-60625000I-150000J0D01*
G01*
X30543000Y-60625000D01*
G75*
G02*
X30393000Y-60475000I0J150000D01*
G01*
X30393000Y-60175000D01*
G75*
G02*
X30543000Y-60025000I150000J0D01*
G01*
X32293000Y-60025000D01*
G75*
G02*
X32443000Y-60175000I0J-150000D01*
G01*
G37*
G36*
G01*
X32443000Y-61445000D02*
X32443000Y-61745000D01*
G75*
G02*
X32293000Y-61895000I-150000J0D01*
G01*
X30543000Y-61895000D01*
G75*
G02*
X30393000Y-61745000I0J150000D01*
G01*
X30393000Y-61445000D01*
G75*
G02*
X30543000Y-61295000I150000J0D01*
G01*
X32293000Y-61295000D01*
G75*
G02*
X32443000Y-61445000I0J-150000D01*
G01*
G37*
%TD*%
D16*
%TO.C,K11\u002C4*%
X391414000Y-148590000D03*
X385064000Y-151130000D03*
D17*
X387604000Y-146050000D03*
D18*
X392684000Y-146050000D03*
X382524000Y-146050000D03*
%TD*%
D16*
%TO.C,K13\u002C1*%
X398018000Y-71882000D03*
X391668000Y-74422000D03*
D17*
X394208000Y-69342000D03*
D18*
X399288000Y-69342000D03*
X389128000Y-69342000D03*
%TD*%
D16*
%TO.C,K12\u002C3*%
X395986000Y-122682000D03*
X389636000Y-125222000D03*
D17*
X392176000Y-120142000D03*
D18*
X397256000Y-120142000D03*
X387096000Y-120142000D03*
%TD*%
D19*
%TO.C,C1*%
X86868000Y-49550000D03*
X86868000Y-52050000D03*
%TD*%
D20*
%TO.C,C2*%
X421874000Y-77216000D03*
X419374000Y-77216000D03*
%TD*%
%TO.C,C3*%
X37318000Y-42672000D03*
X34818000Y-42672000D03*
%TD*%
%TO.C,C6*%
G36*
G01*
X468868000Y-133508000D02*
X466868000Y-133508000D01*
G75*
G02*
X466618000Y-133258000I0J250000D01*
G01*
X466618000Y-129758000D01*
G75*
G02*
X466868000Y-129508000I250000J0D01*
G01*
X468868000Y-129508000D01*
G75*
G02*
X469118000Y-129758000I0J-250000D01*
G01*
X469118000Y-133258000D01*
G75*
G02*
X468868000Y-133508000I-250000J0D01*
G01*
G37*
G36*
G01*
X468868000Y-125508000D02*
X466868000Y-125508000D01*
G75*
G02*
X466618000Y-125258000I0J250000D01*
G01*
X466618000Y-121758000D01*
G75*
G02*
X466868000Y-121508000I250000J0D01*
G01*
X468868000Y-121508000D01*
G75*
G02*
X469118000Y-121758000I0J-250000D01*
G01*
X469118000Y-125258000D01*
G75*
G02*
X468868000Y-125508000I-250000J0D01*
G01*
G37*
%TD*%
D21*
%TO.C,D0\u002C3*%
X52578000Y-116699000D03*
D22*
X52578000Y-124499000D03*
%TD*%
%TO.C,D0\u002C5*%
X47244000Y-175096000D03*
D21*
X47244000Y-167296000D03*
%TD*%
%TO.C,D0\u002C4*%
X57404000Y-142404000D03*
D22*
X57404000Y-150204000D03*
%TD*%
D21*
%TO.C,D0\u002C0*%
X45212000Y-31152000D03*
D22*
X45212000Y-38952000D03*
%TD*%
%TO.C,D0\u002C2*%
X49784000Y-99912000D03*
D21*
X49784000Y-92112000D03*
%TD*%
D22*
%TO.C,D0\u002C1*%
X44196000Y-74512000D03*
D21*
X44196000Y-66712000D03*
%TD*%
%TO.C,D1\u002C3*%
X87884000Y-117258000D03*
D22*
X87884000Y-125058000D03*
%TD*%
D21*
%TO.C,D1\u002C0*%
X95504000Y-31152000D03*
D22*
X95504000Y-38952000D03*
%TD*%
%TO.C,D1\u002C4*%
X101092000Y-150712000D03*
D21*
X101092000Y-142912000D03*
%TD*%
%TO.C,D1\u002C5*%
X77724000Y-168312000D03*
D22*
X77724000Y-176112000D03*
%TD*%
D21*
%TO.C,D1\u002C1*%
X70104000Y-66204000D03*
D22*
X70104000Y-74004000D03*
%TD*%
%TO.C,D1\u002C2*%
X79756000Y-99404000D03*
D21*
X79756000Y-91604000D03*
%TD*%
D22*
%TO.C,D2\u002C4*%
X125984000Y-150204000D03*
D21*
X125984000Y-142404000D03*
%TD*%
D22*
%TO.C,D2\u002C5*%
X107696000Y-175604000D03*
D21*
X107696000Y-167804000D03*
%TD*%
%TO.C,D2\u002C0*%
X121412000Y-30644000D03*
D22*
X121412000Y-38444000D03*
%TD*%
D21*
%TO.C,D2\u002C2*%
X106426000Y-91858000D03*
D22*
X106426000Y-99658000D03*
%TD*%
D21*
%TO.C,D2\u002C1*%
X93980000Y-67728000D03*
D22*
X93980000Y-75528000D03*
%TD*%
%TO.C,D2\u002C3*%
X113284000Y-125406000D03*
D21*
X113284000Y-117606000D03*
%TD*%
D22*
%TO.C,D3\u002C0*%
X146558000Y-38698000D03*
D21*
X146558000Y-30898000D03*
%TD*%
%TO.C,D3\u002C1*%
X119380000Y-67474000D03*
D22*
X119380000Y-75274000D03*
%TD*%
D21*
%TO.C,D3\u002C4*%
X151384000Y-142912000D03*
D22*
X151384000Y-150712000D03*
%TD*%
D21*
%TO.C,D3\u002C2*%
X131064000Y-92112000D03*
D22*
X131064000Y-99912000D03*
%TD*%
D21*
%TO.C,D3\u002C5*%
X206756000Y-170344000D03*
D22*
X206756000Y-178144000D03*
%TD*%
%TO.C,D3\u002C3*%
X139192000Y-124804000D03*
D21*
X139192000Y-117004000D03*
%TD*%
D22*
%TO.C,D4\u002C4*%
X177292000Y-151677000D03*
D21*
X177292000Y-143877000D03*
%TD*%
D22*
%TO.C,D4\u002C3*%
X164084000Y-124804000D03*
D21*
X164084000Y-117004000D03*
%TD*%
%TO.C,D4\u002C1*%
X146812000Y-66204000D03*
D22*
X146812000Y-74004000D03*
%TD*%
%TO.C,D4\u002C0*%
X171704000Y-38444000D03*
D21*
X171704000Y-30644000D03*
%TD*%
%TO.C,D4\u002C2*%
X156464000Y-91604000D03*
D22*
X156464000Y-99404000D03*
%TD*%
%TO.C,D5\u002C0*%
X212344000Y-37772000D03*
D21*
X212344000Y-29972000D03*
%TD*%
D22*
%TO.C,D5\u002C2*%
X180340000Y-98736000D03*
D21*
X180340000Y-90936000D03*
%TD*%
%TO.C,D5\u002C1*%
X172212000Y-66204000D03*
D22*
X172212000Y-74004000D03*
%TD*%
%TO.C,D5\u002C3*%
X189484000Y-125312000D03*
D21*
X189484000Y-117512000D03*
%TD*%
%TO.C,D5\u002C4*%
X202184000Y-143420000D03*
D22*
X202184000Y-151220000D03*
%TD*%
%TO.C,D6\u002C0*%
X237744000Y-38698000D03*
D21*
X237744000Y-30898000D03*
%TD*%
%TO.C,D6\u002C3*%
X213360000Y-116699000D03*
D22*
X213360000Y-124499000D03*
%TD*%
D21*
%TO.C,D6\u002C4*%
X227584000Y-142912000D03*
D22*
X227584000Y-150712000D03*
%TD*%
D21*
%TO.C,D6\u002C1*%
X197612000Y-66204000D03*
D22*
X197612000Y-74004000D03*
%TD*%
%TO.C,D6\u002C2*%
X207772000Y-99455000D03*
D21*
X207772000Y-91655000D03*
%TD*%
%TO.C,D7\u002C4*%
X252984000Y-143420000D03*
D22*
X252984000Y-151220000D03*
%TD*%
%TO.C,D7\u002C2*%
X233172000Y-99912000D03*
D21*
X233172000Y-92112000D03*
%TD*%
%TO.C,D7\u002C1*%
X222504000Y-67220000D03*
D22*
X222504000Y-75020000D03*
%TD*%
%TO.C,D7\u002C0*%
X263144000Y-38444000D03*
D21*
X263144000Y-30644000D03*
%TD*%
D22*
%TO.C,D7\u002C3*%
X240284000Y-124804000D03*
D21*
X240284000Y-117004000D03*
%TD*%
D22*
%TO.C,D8\u002C0*%
X289052000Y-38952000D03*
D21*
X289052000Y-31152000D03*
%TD*%
D22*
%TO.C,D8\u002C3*%
X266192000Y-124804000D03*
D21*
X266192000Y-117004000D03*
%TD*%
%TO.C,D8\u002C1*%
X248412000Y-66712000D03*
D22*
X248412000Y-74512000D03*
%TD*%
%TO.C,D8\u002C2*%
X258572000Y-99912000D03*
D21*
X258572000Y-92112000D03*
%TD*%
D22*
%TO.C,D8\u002C5*%
X293624000Y-175604000D03*
D21*
X293624000Y-167804000D03*
%TD*%
D22*
%TO.C,D8\u002C4*%
X278892000Y-150712000D03*
D21*
X278892000Y-142912000D03*
%TD*%
D22*
%TO.C,D9\u002C2*%
X283464000Y-99404000D03*
D21*
X283464000Y-91604000D03*
%TD*%
%TO.C,D9\u002C1*%
X273812000Y-66712000D03*
D22*
X273812000Y-74512000D03*
%TD*%
%TO.C,D9\u002C3*%
X291592000Y-124804000D03*
D21*
X291592000Y-117004000D03*
%TD*%
%TO.C,D9\u002C4*%
X304292000Y-143420000D03*
D22*
X304292000Y-151220000D03*
%TD*%
%TO.C,D9\u002C5*%
X327152000Y-176112000D03*
D21*
X327152000Y-168312000D03*
%TD*%
%TO.C,D9\u002C0*%
X329692000Y-30695000D03*
D22*
X329692000Y-38495000D03*
%TD*%
D21*
%TO.C,D10\u002C4*%
X329692000Y-143420000D03*
D22*
X329692000Y-151220000D03*
%TD*%
%TO.C,D10\u002C5*%
X361188000Y-175604000D03*
D21*
X361188000Y-167804000D03*
%TD*%
D22*
%TO.C,D10\u002C1*%
X298704000Y-74004000D03*
D21*
X298704000Y-66204000D03*
%TD*%
%TO.C,D10\u002C0*%
X354584000Y-31406000D03*
D22*
X354584000Y-39206000D03*
%TD*%
%TO.C,D10\u002C2*%
X308864000Y-99912000D03*
D21*
X308864000Y-92112000D03*
%TD*%
D22*
%TO.C,D10\u002C3*%
X316992000Y-124804000D03*
D21*
X316992000Y-117004000D03*
%TD*%
%TO.C,D11\u002C0*%
X380492000Y-31152000D03*
D22*
X380492000Y-38952000D03*
%TD*%
D21*
%TO.C,D11\u002C1*%
X324104000Y-66204000D03*
D22*
X324104000Y-74004000D03*
%TD*%
%TO.C,D11\u002C3*%
X341884000Y-124804000D03*
D21*
X341884000Y-117004000D03*
%TD*%
%TO.C,D11\u002C2*%
X334772000Y-91096000D03*
D22*
X334772000Y-98896000D03*
%TD*%
%TO.C,D11\u002C4*%
X377952000Y-151220000D03*
D21*
X377952000Y-143420000D03*
%TD*%
%TO.C,D11\u002C5*%
X391668000Y-167804000D03*
D22*
X391668000Y-175604000D03*
%TD*%
%TO.C,D12\u002C3*%
X382524000Y-124296000D03*
D21*
X382524000Y-116496000D03*
%TD*%
%TO.C,D12\u002C2*%
X360172000Y-91604000D03*
D22*
X360172000Y-99404000D03*
%TD*%
%TO.C,D12\u002C1*%
X350012000Y-74512000D03*
D21*
X350012000Y-66712000D03*
%TD*%
%TO.C,D12\u002C0*%
X405892000Y-30136000D03*
D22*
X405892000Y-37936000D03*
%TD*%
%TO.C,D13\u002C2*%
X390144000Y-99404000D03*
D21*
X390144000Y-91604000D03*
%TD*%
%TO.C,D13\u002C1*%
X385064000Y-66255000D03*
D22*
X385064000Y-74055000D03*
%TD*%
%TO.C,D14\u002C1*%
X435864000Y-73656000D03*
D21*
X435864000Y-65856000D03*
%TD*%
%TO.C,D14\u002C3*%
X435864000Y-91604000D03*
D22*
X435864000Y-99404000D03*
%TD*%
D21*
%TO.C,D14\u002C0*%
X436372000Y-30847000D03*
D22*
X436372000Y-38647000D03*
%TD*%
D21*
%TO.C,D14\u002C6*%
X435102000Y-167550000D03*
D22*
X435102000Y-175350000D03*
%TD*%
D21*
%TO.C,D15\u002C0*%
X461264000Y-30898000D03*
D22*
X461264000Y-38698000D03*
%TD*%
%TO.C,D15\u002C1*%
X461518000Y-74766000D03*
D21*
X461518000Y-66966000D03*
%TD*%
%TO.C,D15\u002C3*%
X461264000Y-91858000D03*
D22*
X461264000Y-99658000D03*
%TD*%
%TO.C,D15\u002C5*%
X461264000Y-150204000D03*
D21*
X461264000Y-142404000D03*
%TD*%
D22*
%TO.C,D15\u002C6*%
X461264000Y-174842000D03*
D21*
X461264000Y-167042000D03*
%TD*%
%TO.C,D16\u002C6*%
X486664000Y-167804000D03*
D22*
X486664000Y-175604000D03*
%TD*%
%TO.C,D16\u002C0*%
X486918000Y-38190000D03*
D21*
X486918000Y-30390000D03*
%TD*%
%TO.C,D16\u002C1*%
X486156000Y-66204000D03*
D22*
X486156000Y-74004000D03*
%TD*%
D21*
%TO.C,D16\u002C5*%
X518160000Y-143115000D03*
D22*
X518160000Y-150915000D03*
%TD*%
%TO.C,D16\u002C3*%
X486664000Y-99658000D03*
D21*
X486664000Y-91858000D03*
%TD*%
%TO.C,D16\u002C4*%
X518160000Y-117512000D03*
D22*
X518160000Y-125312000D03*
%TD*%
%TO.C,D17\u002C3*%
X518160000Y-99404000D03*
D21*
X518160000Y-91604000D03*
%TD*%
%TO.C,D17\u002C1*%
X518160000Y-66255000D03*
D22*
X518160000Y-74055000D03*
%TD*%
D21*
%TO.C,D17\u002C6*%
X530352000Y-168312000D03*
D22*
X530352000Y-176112000D03*
%TD*%
%TO.C,D17\u002C4*%
X543560000Y-125312000D03*
D21*
X543560000Y-117512000D03*
%TD*%
D22*
%TO.C,D17\u002C0*%
X518160000Y-38444000D03*
D21*
X518160000Y-30644000D03*
%TD*%
D22*
%TO.C,D17\u002C5*%
X543052000Y-150712000D03*
D21*
X543052000Y-142912000D03*
%TD*%
%TO.C,D18\u002C1*%
X543052000Y-66712000D03*
D22*
X543052000Y-74512000D03*
%TD*%
D21*
%TO.C,D18\u002C6*%
X568960000Y-167296000D03*
D22*
X568960000Y-175096000D03*
%TD*%
%TO.C,D18\u002C3*%
X543052000Y-99404000D03*
D21*
X543052000Y-91604000D03*
%TD*%
%TO.C,D18\u002C0*%
X543052000Y-30644000D03*
D22*
X543052000Y-38444000D03*
%TD*%
%TO.C,D18\u002C5*%
X568452000Y-150712000D03*
D21*
X568452000Y-142912000D03*
%TD*%
%TO.C,D18\u002C4*%
X568960000Y-117512000D03*
D22*
X568960000Y-125312000D03*
%TD*%
D21*
%TO.C,D19\u002C4*%
X594360000Y-105320000D03*
D22*
X594360000Y-113120000D03*
%TD*%
%TO.C,D19\u002C0*%
X568452000Y-38444000D03*
D21*
X568452000Y-30644000D03*
%TD*%
D22*
%TO.C,D19\u002C3*%
X568960000Y-99404000D03*
D21*
X568960000Y-91604000D03*
%TD*%
%TO.C,D19\u002C1*%
X568960000Y-66204000D03*
D22*
X568960000Y-74004000D03*
%TD*%
%TO.C,D19\u002C6*%
X593852000Y-160618000D03*
D21*
X593852000Y-152818000D03*
%TD*%
D22*
%TO.C,D20\u002C1*%
X592328000Y-74004000D03*
D21*
X592328000Y-66204000D03*
%TD*%
%TO.C,D20\u002C0*%
X593852000Y-31152000D03*
D22*
X593852000Y-38952000D03*
%TD*%
%TO.C,J0*%
G36*
G01*
X465111000Y-108370000D02*
X466561000Y-108370000D01*
G75*
G02*
X466811000Y-108620000I0J-250000D01*
G01*
X466811000Y-109820000D01*
G75*
G02*
X466561000Y-110070000I-250000J0D01*
G01*
X465111000Y-110070000D01*
G75*
G02*
X464861000Y-109820000I0J250000D01*
G01*
X464861000Y-108620000D01*
G75*
G02*
X465111000Y-108370000I250000J0D01*
G01*
G37*
D23*
X465836000Y-111720000D03*
X465836000Y-114220000D03*
X465836000Y-116720000D03*
%TD*%
D24*
%TO.C,J1*%
X427108000Y-100838000D03*
X424608000Y-100838000D03*
X422108000Y-100838000D03*
G36*
G01*
X418758000Y-101563000D02*
X418758000Y-100113000D01*
G75*
G02*
X419008000Y-99863000I250000J0D01*
G01*
X420208000Y-99863000D01*
G75*
G02*
X420458000Y-100113000I0J-250000D01*
G01*
X420458000Y-101563000D01*
G75*
G02*
X420208000Y-101813000I-250000J0D01*
G01*
X419008000Y-101813000D01*
G75*
G02*
X418758000Y-101563000I0J250000D01*
G01*
G37*
%TD*%
D16*
%TO.C,K0\u002C0*%
X58166000Y-36322000D03*
X51816000Y-38862000D03*
D17*
X54356000Y-33782000D03*
D18*
X59436000Y-33782000D03*
X49276000Y-33782000D03*
%TD*%
D16*
%TO.C,K0\u002C1*%
X58166000Y-71882000D03*
X51816000Y-74422000D03*
D17*
X54356000Y-69342000D03*
D18*
X59436000Y-69342000D03*
X49276000Y-69342000D03*
%TD*%
D16*
%TO.C,K0\u002C5*%
X60706000Y-173482000D03*
X54356000Y-176022000D03*
D17*
X56896000Y-170942000D03*
D18*
X61976000Y-170942000D03*
X51816000Y-170942000D03*
%TD*%
D16*
%TO.C,K0\u002C2*%
X62928500Y-97561400D03*
X56578500Y-100101400D03*
D17*
X59118500Y-95021400D03*
D18*
X64198500Y-95021400D03*
X54038500Y-95021400D03*
%TD*%
%TO.C,K0\u002C4*%
X61468000Y-145542000D03*
X71628000Y-145542000D03*
D17*
X66548000Y-145542000D03*
D16*
X64008000Y-150622000D03*
X70358000Y-148082000D03*
%TD*%
%TO.C,K0\u002C3*%
X65316100Y-122656600D03*
X58966100Y-125196600D03*
D17*
X61506100Y-120116600D03*
D18*
X66586100Y-120116600D03*
X56426100Y-120116600D03*
%TD*%
D16*
%TO.C,K1\u002C4*%
X114046000Y-148590000D03*
X107696000Y-151130000D03*
D17*
X110236000Y-146050000D03*
D18*
X115316000Y-146050000D03*
X105156000Y-146050000D03*
%TD*%
D16*
%TO.C,K1\u002C5*%
X91186000Y-173482000D03*
X84836000Y-176022000D03*
D17*
X87376000Y-170942000D03*
D18*
X92456000Y-170942000D03*
X82296000Y-170942000D03*
%TD*%
%TO.C,K1\u002C3*%
X92456000Y-120142000D03*
X102616000Y-120142000D03*
D17*
X97536000Y-120142000D03*
D16*
X94996000Y-125222000D03*
X101346000Y-122682000D03*
%TD*%
%TO.C,K1\u002C2*%
X93726000Y-97282000D03*
X87376000Y-99822000D03*
D17*
X89916000Y-94742000D03*
D18*
X94996000Y-94742000D03*
X84836000Y-94742000D03*
%TD*%
D16*
%TO.C,K1\u002C1*%
X83566000Y-71882000D03*
X77216000Y-74422000D03*
D17*
X79756000Y-69342000D03*
D18*
X84836000Y-69342000D03*
X74676000Y-69342000D03*
%TD*%
D16*
%TO.C,K1\u002C0*%
X108966000Y-36322000D03*
X102616000Y-38862000D03*
D17*
X105156000Y-33782000D03*
D18*
X110236000Y-33782000D03*
X100076000Y-33782000D03*
%TD*%
D16*
%TO.C,K2\u002C5*%
X121666000Y-173482000D03*
X115316000Y-176022000D03*
D17*
X117856000Y-170942000D03*
D18*
X122936000Y-170942000D03*
X112776000Y-170942000D03*
%TD*%
D16*
%TO.C,K2\u002C3*%
X126746000Y-122682000D03*
X120396000Y-125222000D03*
D17*
X122936000Y-120142000D03*
D18*
X128016000Y-120142000D03*
X117856000Y-120142000D03*
%TD*%
D16*
%TO.C,K2\u002C1*%
X108966000Y-71882000D03*
X102616000Y-74422000D03*
D17*
X105156000Y-69342000D03*
D18*
X110236000Y-69342000D03*
X100076000Y-69342000D03*
%TD*%
D16*
%TO.C,K2\u002C4*%
X139446000Y-148590000D03*
X133096000Y-151130000D03*
D17*
X135636000Y-146050000D03*
D18*
X140716000Y-146050000D03*
X130556000Y-146050000D03*
%TD*%
%TO.C,K2\u002C2*%
X110744000Y-94742000D03*
X120904000Y-94742000D03*
D17*
X115824000Y-94742000D03*
D16*
X113284000Y-99822000D03*
X119634000Y-97282000D03*
%TD*%
D18*
%TO.C,K2\u002C0*%
X125476000Y-33782000D03*
X135636000Y-33782000D03*
D17*
X130556000Y-33782000D03*
D16*
X128016000Y-38862000D03*
X134366000Y-36322000D03*
%TD*%
%TO.C,K3\u002C5*%
X219710000Y-173482000D03*
X213360000Y-176022000D03*
D17*
X215900000Y-170942000D03*
D18*
X220980000Y-170942000D03*
X210820000Y-170942000D03*
%TD*%
%TO.C,K3\u002C4*%
X155956000Y-146050000D03*
X166116000Y-146050000D03*
D17*
X161036000Y-146050000D03*
D16*
X158496000Y-151130000D03*
X164846000Y-148590000D03*
%TD*%
%TO.C,K3\u002C2*%
X144526000Y-97282000D03*
X138176000Y-99822000D03*
D17*
X140716000Y-94742000D03*
D18*
X145796000Y-94742000D03*
X135636000Y-94742000D03*
%TD*%
%TO.C,K3\u002C1*%
X125476000Y-69342000D03*
X135636000Y-69342000D03*
D17*
X130556000Y-69342000D03*
D16*
X128016000Y-74422000D03*
X134366000Y-71882000D03*
%TD*%
%TO.C,K3\u002C0*%
X159766000Y-36322000D03*
X153416000Y-38862000D03*
D17*
X155956000Y-33782000D03*
D18*
X161036000Y-33782000D03*
X150876000Y-33782000D03*
%TD*%
%TO.C,K3\u002C3*%
X143256000Y-120142000D03*
X153416000Y-120142000D03*
D17*
X148336000Y-120142000D03*
D16*
X145796000Y-125222000D03*
X152146000Y-122682000D03*
%TD*%
%TO.C,K4\u002C1*%
X159766000Y-71882000D03*
X153416000Y-74422000D03*
D17*
X155956000Y-69342000D03*
D18*
X161036000Y-69342000D03*
X150876000Y-69342000D03*
%TD*%
D16*
%TO.C,K4\u002C2*%
X169926000Y-97282000D03*
X163576000Y-99822000D03*
D17*
X166116000Y-94742000D03*
D18*
X171196000Y-94742000D03*
X161036000Y-94742000D03*
%TD*%
%TO.C,K4\u002C3*%
X168656000Y-120142000D03*
X178816000Y-120142000D03*
D17*
X173736000Y-120142000D03*
D16*
X171196000Y-125222000D03*
X177546000Y-122682000D03*
%TD*%
%TO.C,K4\u002C4*%
X190246000Y-148590000D03*
X183896000Y-151130000D03*
D17*
X186436000Y-146050000D03*
D18*
X191516000Y-146050000D03*
X181356000Y-146050000D03*
%TD*%
%TO.C,K4\u002C0*%
X176276000Y-33782000D03*
X186436000Y-33782000D03*
D17*
X181356000Y-33782000D03*
D16*
X178816000Y-38862000D03*
X185166000Y-36322000D03*
%TD*%
%TO.C,K5\u002C0*%
X225806000Y-36322000D03*
X219456000Y-38862000D03*
D17*
X221996000Y-33782000D03*
D18*
X227076000Y-33782000D03*
X216916000Y-33782000D03*
%TD*%
%TO.C,K5\u002C2*%
X186436000Y-94742000D03*
X196596000Y-94742000D03*
D17*
X191516000Y-94742000D03*
D16*
X188976000Y-99822000D03*
X195326000Y-97282000D03*
%TD*%
%TO.C,K5\u002C1*%
X185166000Y-71882000D03*
X178816000Y-74422000D03*
D17*
X181356000Y-69342000D03*
D18*
X186436000Y-69342000D03*
X176276000Y-69342000D03*
%TD*%
D16*
%TO.C,K5\u002C3*%
X202946000Y-122682000D03*
X196596000Y-125222000D03*
D17*
X199136000Y-120142000D03*
D18*
X204216000Y-120142000D03*
X194056000Y-120142000D03*
%TD*%
%TO.C,K5\u002C4*%
X206756000Y-146050000D03*
X216916000Y-146050000D03*
D17*
X211836000Y-146050000D03*
D16*
X209296000Y-151130000D03*
X215646000Y-148590000D03*
%TD*%
D18*
%TO.C,K6\u002C3*%
X219456000Y-120142000D03*
X229616000Y-120142000D03*
D17*
X224536000Y-120142000D03*
D16*
X221996000Y-125222000D03*
X228346000Y-122682000D03*
%TD*%
D18*
%TO.C,K6\u002C4*%
X232156000Y-146050000D03*
X242316000Y-146050000D03*
D17*
X237236000Y-146050000D03*
D16*
X234696000Y-151130000D03*
X241046000Y-148590000D03*
%TD*%
D18*
%TO.C,K6\u002C1*%
X201676000Y-69342000D03*
X211836000Y-69342000D03*
D17*
X206756000Y-69342000D03*
D16*
X204216000Y-74422000D03*
X210566000Y-71882000D03*
%TD*%
%TO.C,K6\u002C2*%
X220726000Y-97282000D03*
X214376000Y-99822000D03*
D17*
X216916000Y-94742000D03*
D18*
X221996000Y-94742000D03*
X211836000Y-94742000D03*
%TD*%
%TO.C,K6\u002C0*%
X242316000Y-33782000D03*
X252476000Y-33782000D03*
D17*
X247396000Y-33782000D03*
D16*
X244856000Y-38862000D03*
X251206000Y-36322000D03*
%TD*%
%TO.C,K7\u002C2*%
X246126000Y-97282000D03*
X239776000Y-99822000D03*
D17*
X242316000Y-94742000D03*
D18*
X247396000Y-94742000D03*
X237236000Y-94742000D03*
%TD*%
%TO.C,K7\u002C1*%
X227076000Y-69342000D03*
X237236000Y-69342000D03*
D17*
X232156000Y-69342000D03*
D16*
X229616000Y-74422000D03*
X235966000Y-71882000D03*
%TD*%
%TO.C,K7\u002C3*%
X253746000Y-122682000D03*
X247396000Y-125222000D03*
D17*
X249936000Y-120142000D03*
D18*
X255016000Y-120142000D03*
X244856000Y-120142000D03*
%TD*%
%TO.C,K7\u002C4*%
X257556000Y-146050000D03*
X267716000Y-146050000D03*
D17*
X262636000Y-146050000D03*
D16*
X260096000Y-151130000D03*
X266446000Y-148590000D03*
%TD*%
%TO.C,K7\u002C0*%
X276606000Y-36322000D03*
X270256000Y-38862000D03*
D17*
X272796000Y-33782000D03*
D18*
X277876000Y-33782000D03*
X267716000Y-33782000D03*
%TD*%
D16*
%TO.C,K8\u002C0*%
X302006000Y-36322000D03*
X295656000Y-38862000D03*
D17*
X298196000Y-33782000D03*
D18*
X303276000Y-33782000D03*
X293116000Y-33782000D03*
%TD*%
D16*
%TO.C,K8\u002C1*%
X261366000Y-71882000D03*
X255016000Y-74422000D03*
D17*
X257556000Y-69342000D03*
D18*
X262636000Y-69342000D03*
X252476000Y-69342000D03*
%TD*%
D16*
%TO.C,K8\u002C3*%
X279146000Y-122682000D03*
X272796000Y-125222000D03*
D17*
X275336000Y-120142000D03*
D18*
X280416000Y-120142000D03*
X270256000Y-120142000D03*
%TD*%
%TO.C,K8\u002C4*%
X282956000Y-146050000D03*
X293116000Y-146050000D03*
D17*
X288036000Y-146050000D03*
D16*
X285496000Y-151130000D03*
X291846000Y-148590000D03*
%TD*%
D18*
%TO.C,K8\u002C5*%
X297688000Y-170942000D03*
X307848000Y-170942000D03*
D17*
X302768000Y-170942000D03*
D16*
X300228000Y-176022000D03*
X306578000Y-173482000D03*
%TD*%
D18*
%TO.C,K8\u002C2*%
X262636000Y-94742000D03*
X272796000Y-94742000D03*
D17*
X267716000Y-94742000D03*
D16*
X265176000Y-99822000D03*
X271526000Y-97282000D03*
%TD*%
D18*
%TO.C,K9\u002C0*%
X333756000Y-33782000D03*
X343916000Y-33782000D03*
D17*
X338836000Y-33782000D03*
D16*
X336296000Y-38862000D03*
X342646000Y-36322000D03*
%TD*%
D18*
%TO.C,K9\u002C5*%
X331216000Y-170942000D03*
X341376000Y-170942000D03*
D17*
X336296000Y-170942000D03*
D16*
X333756000Y-176022000D03*
X340106000Y-173482000D03*
%TD*%
D18*
%TO.C,K9\u002C1*%
X277876000Y-69342000D03*
X288036000Y-69342000D03*
D17*
X282956000Y-69342000D03*
D16*
X280416000Y-74422000D03*
X286766000Y-71882000D03*
%TD*%
%TO.C,K9\u002C2*%
X296926000Y-97282000D03*
X290576000Y-99822000D03*
D17*
X293116000Y-94742000D03*
D18*
X298196000Y-94742000D03*
X288036000Y-94742000D03*
%TD*%
%TO.C,K9\u002C4*%
X308356000Y-146050000D03*
X318516000Y-146050000D03*
D17*
X313436000Y-146050000D03*
D16*
X310896000Y-151130000D03*
X317246000Y-148590000D03*
%TD*%
%TO.C,K9\u002C3*%
X304546000Y-122682000D03*
X298196000Y-125222000D03*
D17*
X300736000Y-120142000D03*
D18*
X305816000Y-120142000D03*
X295656000Y-120142000D03*
%TD*%
%TO.C,K10\u002C2*%
X313436000Y-94742000D03*
X323596000Y-94742000D03*
D17*
X318516000Y-94742000D03*
D16*
X315976000Y-99822000D03*
X322326000Y-97282000D03*
%TD*%
%TO.C,K10\u002C0*%
X368046000Y-36322000D03*
X361696000Y-38862000D03*
D17*
X364236000Y-33782000D03*
D18*
X369316000Y-33782000D03*
X359156000Y-33782000D03*
%TD*%
%TO.C,K10\u002C5*%
X365760000Y-170942000D03*
X375920000Y-170942000D03*
D17*
X370840000Y-170942000D03*
D16*
X368300000Y-176022000D03*
X374650000Y-173482000D03*
%TD*%
D18*
%TO.C,K10\u002C1*%
X303276000Y-69342000D03*
X313436000Y-69342000D03*
D17*
X308356000Y-69342000D03*
D16*
X305816000Y-74422000D03*
X312166000Y-71882000D03*
%TD*%
%TO.C,K10\u002C3*%
X329946000Y-122682000D03*
X323596000Y-125222000D03*
D17*
X326136000Y-120142000D03*
D18*
X331216000Y-120142000D03*
X321056000Y-120142000D03*
%TD*%
%TO.C,K10\u002C4*%
X333756000Y-146050000D03*
X343916000Y-146050000D03*
D17*
X338836000Y-146050000D03*
D16*
X336296000Y-151130000D03*
X342646000Y-148590000D03*
%TD*%
D18*
%TO.C,K11\u002C3*%
X346456000Y-120142000D03*
X356616000Y-120142000D03*
D17*
X351536000Y-120142000D03*
D16*
X348996000Y-125222000D03*
X355346000Y-122682000D03*
%TD*%
%TO.C,K11\u002C2*%
X347726000Y-97282000D03*
X341376000Y-99822000D03*
D17*
X343916000Y-94742000D03*
D18*
X348996000Y-94742000D03*
X338836000Y-94742000D03*
%TD*%
D16*
%TO.C,K11\u002C5*%
X405130000Y-173482000D03*
X398780000Y-176022000D03*
D17*
X401320000Y-170942000D03*
D18*
X406400000Y-170942000D03*
X396240000Y-170942000D03*
%TD*%
%TO.C,K11\u002C1*%
X328676000Y-69342000D03*
X338836000Y-69342000D03*
D17*
X333756000Y-69342000D03*
D16*
X331216000Y-74422000D03*
X337566000Y-71882000D03*
%TD*%
%TO.C,K11\u002C0*%
X393446000Y-36322000D03*
X387096000Y-38862000D03*
D17*
X389636000Y-33782000D03*
D18*
X394716000Y-33782000D03*
X384556000Y-33782000D03*
%TD*%
%TO.C,K12\u002C2*%
X364236000Y-94742000D03*
X374396000Y-94742000D03*
D17*
X369316000Y-94742000D03*
D16*
X366776000Y-99822000D03*
X373126000Y-97282000D03*
%TD*%
%TO.C,K12\u002C0*%
X418846000Y-36322000D03*
X412496000Y-38862000D03*
D17*
X415036000Y-33782000D03*
D18*
X420116000Y-33782000D03*
X409956000Y-33782000D03*
%TD*%
%TO.C,K12\u002C1*%
X354076000Y-69342000D03*
X364236000Y-69342000D03*
D17*
X359156000Y-69342000D03*
D16*
X356616000Y-74422000D03*
X362966000Y-71882000D03*
%TD*%
D18*
%TO.C,K13\u002C2*%
X394208000Y-94742000D03*
X404368000Y-94742000D03*
D17*
X399288000Y-94742000D03*
D16*
X396748000Y-99822000D03*
X403098000Y-97282000D03*
%TD*%
D18*
%TO.C,K14\u002C1*%
X440436000Y-69342000D03*
X450596000Y-69342000D03*
D17*
X445516000Y-69342000D03*
D16*
X442976000Y-74422000D03*
X449326000Y-71882000D03*
%TD*%
D18*
%TO.C,K14\u002C6*%
X440436000Y-170942000D03*
X450596000Y-170942000D03*
D17*
X445516000Y-170942000D03*
D16*
X442976000Y-176022000D03*
X449326000Y-173482000D03*
%TD*%
%TO.C,K14\u002C3*%
X449326000Y-97282000D03*
X442976000Y-99822000D03*
D17*
X445516000Y-94742000D03*
D18*
X450596000Y-94742000D03*
X440436000Y-94742000D03*
%TD*%
D16*
%TO.C,K14\u002C0*%
X449834000Y-36322000D03*
X443484000Y-38862000D03*
D17*
X446024000Y-33782000D03*
D18*
X451104000Y-33782000D03*
X440944000Y-33782000D03*
%TD*%
%TO.C,K15\u002C6*%
X465836000Y-170942000D03*
X475996000Y-170942000D03*
D17*
X470916000Y-170942000D03*
D16*
X468376000Y-176022000D03*
X474726000Y-173482000D03*
%TD*%
%TO.C,K15\u002C3*%
X474726000Y-97282000D03*
X468376000Y-99822000D03*
D17*
X470916000Y-94742000D03*
D18*
X475996000Y-94742000D03*
X465836000Y-94742000D03*
%TD*%
D16*
%TO.C,K15\u002C5*%
X474726000Y-148590000D03*
X468376000Y-151130000D03*
D17*
X470916000Y-146050000D03*
D18*
X475996000Y-146050000D03*
X465836000Y-146050000D03*
%TD*%
D16*
%TO.C,K15\u002C1*%
X474726000Y-71882000D03*
X468376000Y-74422000D03*
D17*
X470916000Y-69342000D03*
D18*
X475996000Y-69342000D03*
X465836000Y-69342000D03*
%TD*%
D16*
%TO.C,K15\u002C0*%
X474726000Y-36322000D03*
X468376000Y-38862000D03*
D17*
X470916000Y-33782000D03*
D18*
X475996000Y-33782000D03*
X465836000Y-33782000D03*
%TD*%
D16*
%TO.C,K16\u002C4*%
X531114000Y-123190000D03*
X524764000Y-125730000D03*
D17*
X527304000Y-120650000D03*
D18*
X532384000Y-120650000D03*
X522224000Y-120650000D03*
%TD*%
%TO.C,K16\u002C1*%
X491236000Y-69342000D03*
X501396000Y-69342000D03*
D17*
X496316000Y-69342000D03*
D16*
X493776000Y-74422000D03*
X500126000Y-71882000D03*
%TD*%
D18*
%TO.C,K16\u002C5*%
X522478000Y-146050000D03*
X532638000Y-146050000D03*
D17*
X527558000Y-146050000D03*
D16*
X525018000Y-151130000D03*
X531368000Y-148590000D03*
%TD*%
%TO.C,K16\u002C3*%
X500126000Y-97282000D03*
X493776000Y-99822000D03*
D17*
X496316000Y-94742000D03*
D18*
X501396000Y-94742000D03*
X491236000Y-94742000D03*
%TD*%
D16*
%TO.C,K16\u002C0*%
X500126000Y-36322000D03*
X493776000Y-38862000D03*
D17*
X496316000Y-33782000D03*
D18*
X501396000Y-33782000D03*
X491236000Y-33782000D03*
%TD*%
%TO.C,K16\u002C6*%
X491236000Y-170942000D03*
X501396000Y-170942000D03*
D17*
X496316000Y-170942000D03*
D16*
X493776000Y-176022000D03*
X500126000Y-173482000D03*
%TD*%
D18*
%TO.C,K17\u002C6*%
X534670000Y-170942000D03*
X544830000Y-170942000D03*
D17*
X539750000Y-170942000D03*
D16*
X537210000Y-176022000D03*
X543560000Y-173482000D03*
%TD*%
D18*
%TO.C,K17\u002C5*%
X547624000Y-146050000D03*
X557784000Y-146050000D03*
D17*
X552704000Y-146050000D03*
D16*
X550164000Y-151130000D03*
X556514000Y-148590000D03*
%TD*%
D18*
%TO.C,K17\u002C4*%
X547624000Y-120650000D03*
X557784000Y-120650000D03*
D17*
X552704000Y-120650000D03*
D16*
X550164000Y-125730000D03*
X556514000Y-123190000D03*
%TD*%
D18*
%TO.C,K17\u002C3*%
X522224000Y-94742000D03*
X532384000Y-94742000D03*
D17*
X527304000Y-94742000D03*
D16*
X524764000Y-99822000D03*
X531114000Y-97282000D03*
%TD*%
D18*
%TO.C,K17\u002C1*%
X522224000Y-69342000D03*
X532384000Y-69342000D03*
D17*
X527304000Y-69342000D03*
D16*
X524764000Y-74422000D03*
X531114000Y-71882000D03*
%TD*%
D18*
%TO.C,K17\u002C0*%
X522224000Y-33782000D03*
X532384000Y-33782000D03*
D17*
X527304000Y-33782000D03*
D16*
X524764000Y-38862000D03*
X531114000Y-36322000D03*
%TD*%
%TO.C,K18\u002C4*%
X581914000Y-123190000D03*
X575564000Y-125730000D03*
D17*
X578104000Y-120650000D03*
D18*
X583184000Y-120650000D03*
X573024000Y-120650000D03*
%TD*%
D16*
%TO.C,K18\u002C6*%
X581914000Y-173482000D03*
X575564000Y-176022000D03*
D17*
X578104000Y-170942000D03*
D18*
X583184000Y-170942000D03*
X573024000Y-170942000D03*
%TD*%
%TO.C,K18\u002C3*%
X547624000Y-94742000D03*
X557784000Y-94742000D03*
D17*
X552704000Y-94742000D03*
D16*
X550164000Y-99822000D03*
X556514000Y-97282000D03*
%TD*%
%TO.C,K18\u002C1*%
X556514000Y-71882000D03*
X550164000Y-74422000D03*
D17*
X552704000Y-69342000D03*
D18*
X557784000Y-69342000D03*
X547624000Y-69342000D03*
%TD*%
%TO.C,K18\u002C5*%
X573024000Y-146050000D03*
X583184000Y-146050000D03*
D17*
X578104000Y-146050000D03*
D16*
X575564000Y-151130000D03*
X581914000Y-148590000D03*
%TD*%
D18*
%TO.C,K18\u002C0*%
X547624000Y-33782000D03*
X557784000Y-33782000D03*
D17*
X552704000Y-33782000D03*
D16*
X550164000Y-38862000D03*
X556514000Y-36322000D03*
%TD*%
D18*
%TO.C,K19\u002C4*%
X598424000Y-108204000D03*
X608584000Y-108204000D03*
D17*
X603504000Y-108204000D03*
D16*
X600964000Y-113284000D03*
X607314000Y-110744000D03*
%TD*%
%TO.C,K19\u002C6*%
X607060000Y-158750000D03*
X600710000Y-161290000D03*
D17*
X603250000Y-156210000D03*
D18*
X608330000Y-156210000D03*
X598170000Y-156210000D03*
%TD*%
%TO.C,K19\u002C0*%
X573024000Y-33782000D03*
X583184000Y-33782000D03*
D17*
X578104000Y-33782000D03*
D16*
X575564000Y-38862000D03*
X581914000Y-36322000D03*
%TD*%
D18*
%TO.C,K19\u002C3*%
X573024000Y-94742000D03*
X583184000Y-94742000D03*
D17*
X578104000Y-94742000D03*
D16*
X575564000Y-99822000D03*
X581914000Y-97282000D03*
%TD*%
D18*
%TO.C,K19\u002C1*%
X573024000Y-69342000D03*
X583184000Y-69342000D03*
D17*
X578104000Y-69342000D03*
D16*
X575564000Y-74422000D03*
X581914000Y-71882000D03*
%TD*%
%TO.C,K20\u002C0*%
X607314000Y-36322000D03*
X600964000Y-38862000D03*
D17*
X603504000Y-33782000D03*
D18*
X608584000Y-33782000D03*
X598424000Y-33782000D03*
%TD*%
D16*
%TO.C,K20\u002C1*%
X607314000Y-71882000D03*
X600964000Y-74422000D03*
D17*
X603504000Y-69342000D03*
D18*
X608584000Y-69342000D03*
X598424000Y-69342000D03*
%TD*%
D25*
%TO.C,LD0\u002C5*%
X54496000Y-164516000D03*
X59296000Y-164516000D03*
X59296000Y-166116000D03*
X54496000Y-166116000D03*
X54496000Y-167716000D03*
X59296000Y-167716000D03*
%TD*%
%TO.C,LD0\u002C1*%
X51956000Y-62916000D03*
X56756000Y-62916000D03*
X56756000Y-64516000D03*
X51956000Y-64516000D03*
X51956000Y-66116000D03*
X56756000Y-66116000D03*
%TD*%
%TO.C,LD0\u002C0*%
X51956000Y-27356000D03*
X56756000Y-27356000D03*
X56756000Y-28956000D03*
X51956000Y-28956000D03*
X51956000Y-30556000D03*
X56756000Y-30556000D03*
%TD*%
%TO.C,LD0\u002C3*%
X59068000Y-113716000D03*
X63868000Y-113716000D03*
X63868000Y-115316000D03*
X59068000Y-115316000D03*
X59068000Y-116916000D03*
X63868000Y-116916000D03*
%TD*%
%TO.C,LD0\u002C4*%
X68948000Y-142316000D03*
X64148000Y-142316000D03*
X64148000Y-140716000D03*
X68948000Y-140716000D03*
X68948000Y-139116000D03*
X64148000Y-139116000D03*
%TD*%
%TO.C,LD0\u002C2*%
X56528000Y-88316000D03*
X61328000Y-88316000D03*
X61328000Y-89916000D03*
X56528000Y-89916000D03*
X56528000Y-91516000D03*
X61328000Y-91516000D03*
%TD*%
%TO.C,LD1\u002C1*%
X82156000Y-66116000D03*
X77356000Y-66116000D03*
X77356000Y-64516000D03*
X82156000Y-64516000D03*
X82156000Y-62916000D03*
X77356000Y-62916000D03*
%TD*%
%TO.C,LD1\u002C5*%
X89776000Y-167716000D03*
X84976000Y-167716000D03*
X84976000Y-166116000D03*
X89776000Y-166116000D03*
X89776000Y-164516000D03*
X84976000Y-164516000D03*
%TD*%
%TO.C,LD1\u002C4*%
X107836000Y-139624000D03*
X112636000Y-139624000D03*
X112636000Y-141224000D03*
X107836000Y-141224000D03*
X107836000Y-142824000D03*
X112636000Y-142824000D03*
%TD*%
%TO.C,LD1\u002C2*%
X92316000Y-91516000D03*
X87516000Y-91516000D03*
X87516000Y-89916000D03*
X92316000Y-89916000D03*
X92316000Y-88316000D03*
X87516000Y-88316000D03*
%TD*%
%TO.C,LD1\u002C0*%
X102756000Y-27356000D03*
X107556000Y-27356000D03*
X107556000Y-28956000D03*
X102756000Y-28956000D03*
X102756000Y-30556000D03*
X107556000Y-30556000D03*
%TD*%
%TO.C,LD1\u002C3*%
X99936000Y-116916000D03*
X95136000Y-116916000D03*
X95136000Y-115316000D03*
X99936000Y-115316000D03*
X99936000Y-113716000D03*
X95136000Y-113716000D03*
%TD*%
%TO.C,LD2\u002C5*%
X115456000Y-164516000D03*
X120256000Y-164516000D03*
X120256000Y-166116000D03*
X115456000Y-166116000D03*
X115456000Y-167716000D03*
X120256000Y-167716000D03*
%TD*%
%TO.C,LD2\u002C4*%
X137896000Y-142824000D03*
X133096000Y-142824000D03*
X133096000Y-141224000D03*
X137896000Y-141224000D03*
X137896000Y-139624000D03*
X133096000Y-139624000D03*
%TD*%
%TO.C,LD2\u002C0*%
X132956000Y-30556000D03*
X128156000Y-30556000D03*
X128156000Y-28956000D03*
X132956000Y-28956000D03*
X132956000Y-27356000D03*
X128156000Y-27356000D03*
%TD*%
%TO.C,LD2\u002C2*%
X113424000Y-88316000D03*
X118224000Y-88316000D03*
X118224000Y-89916000D03*
X113424000Y-89916000D03*
X113424000Y-91516000D03*
X118224000Y-91516000D03*
%TD*%
%TO.C,LD2\u002C1*%
X102756000Y-62916000D03*
X107556000Y-62916000D03*
X107556000Y-64516000D03*
X102756000Y-64516000D03*
X102756000Y-66116000D03*
X107556000Y-66116000D03*
%TD*%
%TO.C,LD2\u002C3*%
X120536000Y-113716000D03*
X125336000Y-113716000D03*
X125336000Y-115316000D03*
X120536000Y-115316000D03*
X120536000Y-116916000D03*
X125336000Y-116916000D03*
%TD*%
%TO.C,LD3\u002C1*%
X128156000Y-62916000D03*
X132956000Y-62916000D03*
X132956000Y-64516000D03*
X128156000Y-64516000D03*
X128156000Y-66116000D03*
X132956000Y-66116000D03*
%TD*%
%TO.C,LD3\u002C5*%
X218300000Y-167716000D03*
X213500000Y-167716000D03*
X213500000Y-166116000D03*
X218300000Y-166116000D03*
X218300000Y-164516000D03*
X213500000Y-164516000D03*
%TD*%
%TO.C,LD3\u002C0*%
X153556000Y-27356000D03*
X158356000Y-27356000D03*
X158356000Y-28956000D03*
X153556000Y-28956000D03*
X153556000Y-30556000D03*
X158356000Y-30556000D03*
%TD*%
%TO.C,LD3\u002C3*%
X150736000Y-116916000D03*
X145936000Y-116916000D03*
X145936000Y-115316000D03*
X150736000Y-115316000D03*
X150736000Y-113716000D03*
X145936000Y-113716000D03*
%TD*%
%TO.C,LD3\u002C4*%
X158636000Y-139624000D03*
X163436000Y-139624000D03*
X163436000Y-141224000D03*
X158636000Y-141224000D03*
X158636000Y-142824000D03*
X163436000Y-142824000D03*
%TD*%
%TO.C,LD3\u002C2*%
X143116000Y-91516000D03*
X138316000Y-91516000D03*
X138316000Y-89916000D03*
X143116000Y-89916000D03*
X143116000Y-88316000D03*
X138316000Y-88316000D03*
%TD*%
%TO.C,LD4\u002C0*%
X183756000Y-30556000D03*
X178956000Y-30556000D03*
X178956000Y-28956000D03*
X183756000Y-28956000D03*
X183756000Y-27356000D03*
X178956000Y-27356000D03*
%TD*%
%TO.C,LD4\u002C2*%
X163716000Y-88316000D03*
X168516000Y-88316000D03*
X168516000Y-89916000D03*
X163716000Y-89916000D03*
X163716000Y-91516000D03*
X168516000Y-91516000D03*
%TD*%
%TO.C,LD4\u002C3*%
X171336000Y-113716000D03*
X176136000Y-113716000D03*
X176136000Y-115316000D03*
X171336000Y-115316000D03*
X171336000Y-116916000D03*
X176136000Y-116916000D03*
%TD*%
%TO.C,LD4\u002C1*%
X158356000Y-66116000D03*
X153556000Y-66116000D03*
X153556000Y-64516000D03*
X158356000Y-64516000D03*
X158356000Y-62916000D03*
X153556000Y-62916000D03*
%TD*%
%TO.C,LD4\u002C4*%
X188836000Y-142824000D03*
X184036000Y-142824000D03*
X184036000Y-141224000D03*
X188836000Y-141224000D03*
X188836000Y-139624000D03*
X184036000Y-139624000D03*
%TD*%
%TO.C,LD5\u002C4*%
X209436000Y-139624000D03*
X214236000Y-139624000D03*
X214236000Y-141224000D03*
X209436000Y-141224000D03*
X209436000Y-142824000D03*
X214236000Y-142824000D03*
%TD*%
%TO.C,LD5\u002C1*%
X178956000Y-62916000D03*
X183756000Y-62916000D03*
X183756000Y-64516000D03*
X178956000Y-64516000D03*
X178956000Y-66116000D03*
X183756000Y-66116000D03*
%TD*%
%TO.C,LD5\u002C0*%
X219596000Y-27356000D03*
X224396000Y-27356000D03*
X224396000Y-28956000D03*
X219596000Y-28956000D03*
X219596000Y-30556000D03*
X224396000Y-30556000D03*
%TD*%
%TO.C,LD5\u002C2*%
X193916000Y-91516000D03*
X189116000Y-91516000D03*
X189116000Y-89916000D03*
X193916000Y-89916000D03*
X193916000Y-88316000D03*
X189116000Y-88316000D03*
%TD*%
%TO.C,LD5\u002C3*%
X201536000Y-116916000D03*
X196736000Y-116916000D03*
X196736000Y-115316000D03*
X201536000Y-115316000D03*
X201536000Y-113716000D03*
X196736000Y-113716000D03*
%TD*%
%TO.C,LD6\u002C1*%
X209156000Y-66116000D03*
X204356000Y-66116000D03*
X204356000Y-64516000D03*
X209156000Y-64516000D03*
X209156000Y-62916000D03*
X204356000Y-62916000D03*
%TD*%
%TO.C,LD6\u002C4*%
X234836000Y-139624000D03*
X239636000Y-139624000D03*
X239636000Y-141224000D03*
X234836000Y-141224000D03*
X234836000Y-142824000D03*
X239636000Y-142824000D03*
%TD*%
%TO.C,LD6\u002C0*%
X249796000Y-30556000D03*
X244996000Y-30556000D03*
X244996000Y-28956000D03*
X249796000Y-28956000D03*
X249796000Y-27356000D03*
X244996000Y-27356000D03*
%TD*%
%TO.C,LD6\u002C2*%
X214516000Y-88316000D03*
X219316000Y-88316000D03*
X219316000Y-89916000D03*
X214516000Y-89916000D03*
X214516000Y-91516000D03*
X219316000Y-91516000D03*
%TD*%
%TO.C,LD6\u002C3*%
X222136000Y-113716000D03*
X226936000Y-113716000D03*
X226936000Y-115316000D03*
X222136000Y-115316000D03*
X222136000Y-116916000D03*
X226936000Y-116916000D03*
%TD*%
%TO.C,LD7\u002C0*%
X270396000Y-27356000D03*
X275196000Y-27356000D03*
X275196000Y-28956000D03*
X270396000Y-28956000D03*
X270396000Y-30556000D03*
X275196000Y-30556000D03*
%TD*%
%TO.C,LD7\u002C2*%
X239916000Y-88316000D03*
X244716000Y-88316000D03*
X244716000Y-89916000D03*
X239916000Y-89916000D03*
X239916000Y-91516000D03*
X244716000Y-91516000D03*
%TD*%
%TO.C,LD7\u002C3*%
X252336000Y-116916000D03*
X247536000Y-116916000D03*
X247536000Y-115316000D03*
X252336000Y-115316000D03*
X252336000Y-113716000D03*
X247536000Y-113716000D03*
%TD*%
%TO.C,LD7\u002C4*%
X260236000Y-139624000D03*
X265036000Y-139624000D03*
X265036000Y-141224000D03*
X260236000Y-141224000D03*
X260236000Y-142824000D03*
X265036000Y-142824000D03*
%TD*%
%TO.C,LD7\u002C1*%
X229756000Y-62916000D03*
X234556000Y-62916000D03*
X234556000Y-64516000D03*
X229756000Y-64516000D03*
X229756000Y-66116000D03*
X234556000Y-66116000D03*
%TD*%
%TO.C,LD8\u002C4*%
X290436000Y-142824000D03*
X285636000Y-142824000D03*
X285636000Y-141224000D03*
X290436000Y-141224000D03*
X290436000Y-139624000D03*
X285636000Y-139624000D03*
%TD*%
%TO.C,LD8\u002C0*%
X300596000Y-30556000D03*
X295796000Y-30556000D03*
X295796000Y-28956000D03*
X300596000Y-28956000D03*
X300596000Y-27356000D03*
X295796000Y-27356000D03*
%TD*%
%TO.C,LD8\u002C1*%
X259956000Y-66116000D03*
X255156000Y-66116000D03*
X255156000Y-64516000D03*
X259956000Y-64516000D03*
X259956000Y-62916000D03*
X255156000Y-62916000D03*
%TD*%
%TO.C,LD8\u002C2*%
X270116000Y-91516000D03*
X265316000Y-91516000D03*
X265316000Y-89916000D03*
X270116000Y-89916000D03*
X270116000Y-88316000D03*
X265316000Y-88316000D03*
%TD*%
%TO.C,LD8\u002C3*%
X272936000Y-113716000D03*
X277736000Y-113716000D03*
X277736000Y-115316000D03*
X272936000Y-115316000D03*
X272936000Y-116916000D03*
X277736000Y-116916000D03*
%TD*%
%TO.C,LD8\u002C5*%
X300368000Y-164470701D03*
X305168000Y-164470701D03*
X305168000Y-166070701D03*
X300368000Y-166070701D03*
X300368000Y-167670701D03*
X305168000Y-167670701D03*
%TD*%
%TO.C,LD9\u002C2*%
X290716000Y-88316000D03*
X295516000Y-88316000D03*
X295516000Y-89916000D03*
X290716000Y-89916000D03*
X290716000Y-91516000D03*
X295516000Y-91516000D03*
%TD*%
%TO.C,LD9\u002C3*%
X303136000Y-116916000D03*
X298336000Y-116916000D03*
X298336000Y-115316000D03*
X303136000Y-115316000D03*
X303136000Y-113716000D03*
X298336000Y-113716000D03*
%TD*%
%TO.C,LD9\u002C1*%
X280556000Y-62916000D03*
X285356000Y-62916000D03*
X285356000Y-64516000D03*
X280556000Y-64516000D03*
X280556000Y-66116000D03*
X285356000Y-66116000D03*
%TD*%
%TO.C,LD9\u002C0*%
X336436000Y-27356000D03*
X341236000Y-27356000D03*
X341236000Y-28956000D03*
X336436000Y-28956000D03*
X336436000Y-30556000D03*
X341236000Y-30556000D03*
%TD*%
%TO.C,LD9\u002C4*%
X311036000Y-139624000D03*
X315836000Y-139624000D03*
X315836000Y-141224000D03*
X311036000Y-141224000D03*
X311036000Y-142824000D03*
X315836000Y-142824000D03*
%TD*%
%TO.C,LD9\u002C5*%
X338696000Y-167716000D03*
X333896000Y-167716000D03*
X333896000Y-166116000D03*
X338696000Y-166116000D03*
X338696000Y-164516000D03*
X333896000Y-164516000D03*
%TD*%
%TO.C,LD10\u002C3*%
X328536000Y-116916000D03*
X323736000Y-116916000D03*
X323736000Y-115316000D03*
X328536000Y-115316000D03*
X328536000Y-113716000D03*
X323736000Y-113716000D03*
%TD*%
%TO.C,LD10\u002C2*%
X316116000Y-88316000D03*
X320916000Y-88316000D03*
X320916000Y-89916000D03*
X316116000Y-89916000D03*
X316116000Y-91516000D03*
X320916000Y-91516000D03*
%TD*%
%TO.C,LD10\u002C0*%
X366636000Y-30556000D03*
X361836000Y-30556000D03*
X361836000Y-28956000D03*
X366636000Y-28956000D03*
X366636000Y-27356000D03*
X361836000Y-27356000D03*
%TD*%
%TO.C,LD10\u002C5*%
X368440000Y-164516000D03*
X373240000Y-164516000D03*
X373240000Y-166116000D03*
X368440000Y-166116000D03*
X368440000Y-167716000D03*
X373240000Y-167716000D03*
%TD*%
%TO.C,LD10\u002C1*%
X310756000Y-66116000D03*
X305956000Y-66116000D03*
X305956000Y-64516000D03*
X310756000Y-64516000D03*
X310756000Y-62916000D03*
X305956000Y-62916000D03*
%TD*%
%TO.C,LD10\u002C4*%
X341236000Y-142824000D03*
X336436000Y-142824000D03*
X336436000Y-141224000D03*
X341236000Y-141224000D03*
X341236000Y-139624000D03*
X336436000Y-139624000D03*
%TD*%
%TO.C,LD11\u002C1*%
X331356000Y-62916000D03*
X336156000Y-62916000D03*
X336156000Y-64516000D03*
X331356000Y-64516000D03*
X331356000Y-66116000D03*
X336156000Y-66116000D03*
%TD*%
%TO.C,LD11\u002C4*%
X385204000Y-139624000D03*
X390004000Y-139624000D03*
X390004000Y-141224000D03*
X385204000Y-141224000D03*
X385204000Y-142824000D03*
X390004000Y-142824000D03*
%TD*%
%TO.C,LD11\u002C3*%
X353936000Y-116916000D03*
X349136000Y-116916000D03*
X349136000Y-115316000D03*
X353936000Y-115316000D03*
X353936000Y-113716000D03*
X349136000Y-113716000D03*
%TD*%
%TO.C,LD11\u002C2*%
X346316000Y-91516000D03*
X341516000Y-91516000D03*
X341516000Y-89916000D03*
X346316000Y-89916000D03*
X346316000Y-88316000D03*
X341516000Y-88316000D03*
%TD*%
%TO.C,LD11\u002C5*%
X403720000Y-167716000D03*
X398920000Y-167716000D03*
X398920000Y-166116000D03*
X403720000Y-166116000D03*
X403720000Y-164516000D03*
X398920000Y-164516000D03*
%TD*%
%TO.C,LD11\u002C0*%
X387236000Y-27356000D03*
X392036000Y-27356000D03*
X392036000Y-28956000D03*
X387236000Y-28956000D03*
X387236000Y-30556000D03*
X392036000Y-30556000D03*
%TD*%
%TO.C,LD12\u002C0*%
X417436000Y-30556000D03*
X412636000Y-30556000D03*
X412636000Y-28956000D03*
X417436000Y-28956000D03*
X417436000Y-27356000D03*
X412636000Y-27356000D03*
%TD*%
%TO.C,LD12\u002C2*%
X366916000Y-88316000D03*
X371716000Y-88316000D03*
X371716000Y-89916000D03*
X366916000Y-89916000D03*
X366916000Y-91516000D03*
X371716000Y-91516000D03*
%TD*%
%TO.C,LD12\u002C3*%
X389776000Y-113716000D03*
X394576000Y-113716000D03*
X394576000Y-115316000D03*
X389776000Y-115316000D03*
X389776000Y-116916000D03*
X394576000Y-116916000D03*
%TD*%
%TO.C,LD12\u002C1*%
X361556000Y-66116000D03*
X356756000Y-66116000D03*
X356756000Y-64516000D03*
X361556000Y-64516000D03*
X361556000Y-62916000D03*
X356756000Y-62916000D03*
%TD*%
%TO.C,LD13\u002C2*%
X401688000Y-91516000D03*
X396888000Y-91516000D03*
X396888000Y-89916000D03*
X401688000Y-89916000D03*
X401688000Y-88316000D03*
X396888000Y-88316000D03*
%TD*%
%TO.C,LD13\u002C1*%
X391808000Y-62916000D03*
X396608000Y-62916000D03*
X396608000Y-64516000D03*
X391808000Y-64516000D03*
X391808000Y-66116000D03*
X396608000Y-66116000D03*
%TD*%
%TO.C,LD14\u002C6*%
X447916000Y-167716000D03*
X443116000Y-167716000D03*
X443116000Y-166116000D03*
X447916000Y-166116000D03*
X447916000Y-164516000D03*
X443116000Y-164516000D03*
%TD*%
%TO.C,LD14\u002C1*%
X443116000Y-62916000D03*
X447916000Y-62916000D03*
X447916000Y-64516000D03*
X443116000Y-64516000D03*
X443116000Y-66116000D03*
X447916000Y-66116000D03*
%TD*%
%TO.C,LD14\u002C3*%
X447916000Y-91516000D03*
X443116000Y-91516000D03*
X443116000Y-89916000D03*
X447916000Y-89916000D03*
X447916000Y-88316000D03*
X443116000Y-88316000D03*
%TD*%
%TO.C,LD14\u002C0*%
X448424000Y-30556000D03*
X443624000Y-30556000D03*
X443624000Y-28956000D03*
X448424000Y-28956000D03*
X448424000Y-27356000D03*
X443624000Y-27356000D03*
%TD*%
%TO.C,LD15\u002C3*%
X468516000Y-88316000D03*
X473316000Y-88316000D03*
X473316000Y-89916000D03*
X468516000Y-89916000D03*
X468516000Y-91516000D03*
X473316000Y-91516000D03*
%TD*%
%TO.C,LD15\u002C1*%
X473316000Y-66116000D03*
X468516000Y-66116000D03*
X468516000Y-64516000D03*
X473316000Y-64516000D03*
X473316000Y-62916000D03*
X468516000Y-62916000D03*
%TD*%
%TO.C,LD15\u002C5*%
X468516000Y-139624000D03*
X473316000Y-139624000D03*
X473316000Y-141224000D03*
X468516000Y-141224000D03*
X468516000Y-142824000D03*
X473316000Y-142824000D03*
%TD*%
%TO.C,LD15\u002C6*%
X473316000Y-167716000D03*
X468516000Y-167716000D03*
X468516000Y-166116000D03*
X473316000Y-166116000D03*
X473316000Y-164516000D03*
X468516000Y-164516000D03*
%TD*%
%TO.C,LD15\u002C0*%
X468516000Y-27356000D03*
X473316000Y-27356000D03*
X473316000Y-28956000D03*
X468516000Y-28956000D03*
X468516000Y-30556000D03*
X473316000Y-30556000D03*
%TD*%
%TO.C,LD16\u002C1*%
X498794200Y-65760701D03*
X493994200Y-65760701D03*
X493994200Y-64160701D03*
X498794200Y-64160701D03*
X498794200Y-62560701D03*
X493994200Y-62560701D03*
%TD*%
%TO.C,LD16\u002C4*%
X529704000Y-117424000D03*
X524904000Y-117424000D03*
X524904000Y-115824000D03*
X529704000Y-115824000D03*
X529704000Y-114224000D03*
X524904000Y-114224000D03*
%TD*%
%TO.C,LD16\u002C3*%
X498716000Y-91516000D03*
X493916000Y-91516000D03*
X493916000Y-89916000D03*
X498716000Y-89916000D03*
X498716000Y-88316000D03*
X493916000Y-88316000D03*
%TD*%
%TO.C,LD16\u002C6*%
X493916000Y-164516000D03*
X498716000Y-164516000D03*
X498716000Y-166116000D03*
X493916000Y-166116000D03*
X493916000Y-167716000D03*
X498716000Y-167716000D03*
%TD*%
%TO.C,LD16\u002C5*%
X530212000Y-142824000D03*
X525412000Y-142824000D03*
X525412000Y-141224000D03*
X530212000Y-141224000D03*
X530212000Y-139624000D03*
X525412000Y-139624000D03*
%TD*%
%TO.C,LD16\u002C0*%
X498716000Y-30556000D03*
X493916000Y-30556000D03*
X493916000Y-28956000D03*
X498716000Y-28956000D03*
X498716000Y-27356000D03*
X493916000Y-27356000D03*
%TD*%
%TO.C,LD17\u002C7*%
X529704000Y-53416000D03*
X524904000Y-53416000D03*
X524904000Y-51816000D03*
X529704000Y-51816000D03*
X529704000Y-50216000D03*
X524904000Y-50216000D03*
%TD*%
%TO.C,LD17\u002C3*%
X524904000Y-88316000D03*
X529704000Y-88316000D03*
X529704000Y-89916000D03*
X524904000Y-89916000D03*
X524904000Y-91516000D03*
X529704000Y-91516000D03*
%TD*%
%TO.C,LD17\u002C6*%
X542404000Y-167716000D03*
X537604000Y-167716000D03*
X537604000Y-166116000D03*
X542404000Y-166116000D03*
X542404000Y-164516000D03*
X537604000Y-164516000D03*
%TD*%
%TO.C,LD17\u002C1*%
X524904000Y-62916000D03*
X529704000Y-62916000D03*
X529704000Y-64516000D03*
X524904000Y-64516000D03*
X524904000Y-66116000D03*
X529704000Y-66116000D03*
%TD*%
%TO.C,LD17\u002C0*%
X524904000Y-27356000D03*
X529704000Y-27356000D03*
X529704000Y-28956000D03*
X524904000Y-28956000D03*
X524904000Y-30556000D03*
X529704000Y-30556000D03*
%TD*%
%TO.C,LD17\u002C4*%
X550304000Y-114224000D03*
X555104000Y-114224000D03*
X555104000Y-115824000D03*
X550304000Y-115824000D03*
X550304000Y-117424000D03*
X555104000Y-117424000D03*
%TD*%
%TO.C,LD17\u002C5*%
X550304000Y-139624000D03*
X555104000Y-139624000D03*
X555104000Y-141224000D03*
X550304000Y-141224000D03*
X550304000Y-142824000D03*
X555104000Y-142824000D03*
%TD*%
%TO.C,LD18\u002C4*%
X580504000Y-117424000D03*
X575704000Y-117424000D03*
X575704000Y-115824000D03*
X580504000Y-115824000D03*
X580504000Y-114224000D03*
X575704000Y-114224000D03*
%TD*%
%TO.C,LD18\u002C0*%
X555104000Y-30556000D03*
X550304000Y-30556000D03*
X550304000Y-28956000D03*
X555104000Y-28956000D03*
X555104000Y-27356000D03*
X550304000Y-27356000D03*
%TD*%
%TO.C,LD18\u002C1*%
X555104000Y-66116000D03*
X550304000Y-66116000D03*
X550304000Y-64516000D03*
X555104000Y-64516000D03*
X555104000Y-62916000D03*
X550304000Y-62916000D03*
%TD*%
%TO.C,LD18\u002C5*%
X580504000Y-142824000D03*
X575704000Y-142824000D03*
X575704000Y-141224000D03*
X580504000Y-141224000D03*
X580504000Y-139624000D03*
X575704000Y-139624000D03*
%TD*%
%TO.C,LD18\u002C3*%
X555104000Y-91516000D03*
X550304000Y-91516000D03*
X550304000Y-89916000D03*
X555104000Y-89916000D03*
X555104000Y-88316000D03*
X550304000Y-88316000D03*
%TD*%
%TO.C,LD18\u002C7*%
X550304000Y-50216000D03*
X555104000Y-50216000D03*
X555104000Y-51816000D03*
X550304000Y-51816000D03*
X550304000Y-53416000D03*
X555104000Y-53416000D03*
%TD*%
%TO.C,LD19\u002C4*%
X601104000Y-101524000D03*
X605904000Y-101524000D03*
X605904000Y-103124000D03*
X601104000Y-103124000D03*
X601104000Y-104724000D03*
X605904000Y-104724000D03*
%TD*%
%TO.C,LD19\u002C1*%
X575704000Y-62916000D03*
X580504000Y-62916000D03*
X580504000Y-64516000D03*
X575704000Y-64516000D03*
X575704000Y-66116000D03*
X580504000Y-66116000D03*
%TD*%
%TO.C,LD19\u002C3*%
X575704000Y-88316000D03*
X580504000Y-88316000D03*
X580504000Y-89916000D03*
X575704000Y-89916000D03*
X575704000Y-91516000D03*
X580504000Y-91516000D03*
%TD*%
%TO.C,LD19\u002C7*%
X580504000Y-53416000D03*
X575704000Y-53416000D03*
X575704000Y-51816000D03*
X580504000Y-51816000D03*
X580504000Y-50216000D03*
X575704000Y-50216000D03*
%TD*%
%TO.C,LD19\u002C0*%
X575822200Y-27270701D03*
X580622200Y-27270701D03*
X580622200Y-28870701D03*
X575822200Y-28870701D03*
X575822200Y-30470701D03*
X580622200Y-30470701D03*
%TD*%
%TO.C,LD19\u002C6*%
X605904000Y-152984000D03*
X601104000Y-152984000D03*
X601104000Y-151384000D03*
X605904000Y-151384000D03*
X605904000Y-149784000D03*
X601104000Y-149784000D03*
%TD*%
%TO.C,LD20\u002C1*%
X605904000Y-66624000D03*
X601104000Y-66624000D03*
X601104000Y-65024000D03*
X605904000Y-65024000D03*
X605904000Y-63424000D03*
X601104000Y-63424000D03*
%TD*%
%TO.C,LD20\u002C7*%
X605904000Y-53416000D03*
X601104000Y-53416000D03*
X601104000Y-51816000D03*
X605904000Y-51816000D03*
X605904000Y-50216000D03*
X601104000Y-50216000D03*
%TD*%
%TO.C,LD20\u002C0*%
X605904000Y-30556000D03*
X601104000Y-30556000D03*
X601104000Y-28956000D03*
X605904000Y-28956000D03*
X605904000Y-27356000D03*
X601104000Y-27356000D03*
%TD*%
%TO.C,U1*%
G36*
G01*
X67079000Y-47175000D02*
X66779000Y-47175000D01*
G75*
G02*
X66629000Y-47025000I0J150000D01*
G01*
X66629000Y-45275000D01*
G75*
G02*
X66779000Y-45125000I150000J0D01*
G01*
X67079000Y-45125000D01*
G75*
G02*
X67229000Y-45275000I0J-150000D01*
G01*
X67229000Y-47025000D01*
G75*
G02*
X67079000Y-47175000I-150000J0D01*
G01*
G37*
G36*
G01*
X68349000Y-47175000D02*
X68049000Y-47175000D01*
G75*
G02*
X67899000Y-47025000I0J150000D01*
G01*
X67899000Y-45275000D01*
G75*
G02*
X68049000Y-45125000I150000J0D01*
G01*
X68349000Y-45125000D01*
G75*
G02*
X68499000Y-45275000I0J-150000D01*
G01*
X68499000Y-47025000D01*
G75*
G02*
X68349000Y-47175000I-150000J0D01*
G01*
G37*
G36*
G01*
X69619000Y-47175000D02*
X69319000Y-47175000D01*
G75*
G02*
X69169000Y-47025000I0J150000D01*
G01*
X69169000Y-45275000D01*
G75*
G02*
X69319000Y-45125000I150000J0D01*
G01*
X69619000Y-45125000D01*
G75*
G02*
X69769000Y-45275000I0J-150000D01*
G01*
X69769000Y-47025000D01*
G75*
G02*
X69619000Y-47175000I-150000J0D01*
G01*
G37*
G36*
G01*
X70889000Y-47175000D02*
X70589000Y-47175000D01*
G75*
G02*
X70439000Y-47025000I0J150000D01*
G01*
X70439000Y-45275000D01*
G75*
G02*
X70589000Y-45125000I150000J0D01*
G01*
X70889000Y-45125000D01*
G75*
G02*
X71039000Y-45275000I0J-150000D01*
G01*
X71039000Y-47025000D01*
G75*
G02*
X70889000Y-47175000I-150000J0D01*
G01*
G37*
G36*
G01*
X72159000Y-47175000D02*
X71859000Y-47175000D01*
G75*
G02*
X71709000Y-47025000I0J150000D01*
G01*
X71709000Y-45275000D01*
G75*
G02*
X71859000Y-45125000I150000J0D01*
G01*
X72159000Y-45125000D01*
G75*
G02*
X72309000Y-45275000I0J-150000D01*
G01*
X72309000Y-47025000D01*
G75*
G02*
X72159000Y-47175000I-150000J0D01*
G01*
G37*
G36*
G01*
X73429000Y-47175000D02*
X73129000Y-47175000D01*
G75*
G02*
X72979000Y-47025000I0J150000D01*
G01*
X72979000Y-45275000D01*
G75*
G02*
X73129000Y-45125000I150000J0D01*
G01*
X73429000Y-45125000D01*
G75*
G02*
X73579000Y-45275000I0J-150000D01*
G01*
X73579000Y-47025000D01*
G75*
G02*
X73429000Y-47175000I-150000J0D01*
G01*
G37*
G36*
G01*
X74699000Y-47175000D02*
X74399000Y-47175000D01*
G75*
G02*
X74249000Y-47025000I0J150000D01*
G01*
X74249000Y-45275000D01*
G75*
G02*
X74399000Y-45125000I150000J0D01*
G01*
X74699000Y-45125000D01*
G75*
G02*
X74849000Y-45275000I0J-150000D01*
G01*
X74849000Y-47025000D01*
G75*
G02*
X74699000Y-47175000I-150000J0D01*
G01*
G37*
G36*
G01*
X75969000Y-47175000D02*
X75669000Y-47175000D01*
G75*
G02*
X75519000Y-47025000I0J150000D01*
G01*
X75519000Y-45275000D01*
G75*
G02*
X75669000Y-45125000I150000J0D01*
G01*
X75969000Y-45125000D01*
G75*
G02*
X76119000Y-45275000I0J-150000D01*
G01*
X76119000Y-47025000D01*
G75*
G02*
X75969000Y-47175000I-150000J0D01*
G01*
G37*
G36*
G01*
X77239000Y-47175000D02*
X76939000Y-47175000D01*
G75*
G02*
X76789000Y-47025000I0J150000D01*
G01*
X76789000Y-45275000D01*
G75*
G02*
X76939000Y-45125000I150000J0D01*
G01*
X77239000Y-45125000D01*
G75*
G02*
X77389000Y-45275000I0J-150000D01*
G01*
X77389000Y-47025000D01*
G75*
G02*
X77239000Y-47175000I-150000J0D01*
G01*
G37*
G36*
G01*
X78509000Y-47175000D02*
X78209000Y-47175000D01*
G75*
G02*
X78059000Y-47025000I0J150000D01*
G01*
X78059000Y-45275000D01*
G75*
G02*
X78209000Y-45125000I150000J0D01*
G01*
X78509000Y-45125000D01*
G75*
G02*
X78659000Y-45275000I0J-150000D01*
G01*
X78659000Y-47025000D01*
G75*
G02*
X78509000Y-47175000I-150000J0D01*
G01*
G37*
G36*
G01*
X79779000Y-47175000D02*
X79479000Y-47175000D01*
G75*
G02*
X79329000Y-47025000I0J150000D01*
G01*
X79329000Y-45275000D01*
G75*
G02*
X79479000Y-45125000I150000J0D01*
G01*
X79779000Y-45125000D01*
G75*
G02*
X79929000Y-45275000I0J-150000D01*
G01*
X79929000Y-47025000D01*
G75*
G02*
X79779000Y-47175000I-150000J0D01*
G01*
G37*
G36*
G01*
X81049000Y-47175000D02*
X80749000Y-47175000D01*
G75*
G02*
X80599000Y-47025000I0J150000D01*
G01*
X80599000Y-45275000D01*
G75*
G02*
X80749000Y-45125000I150000J0D01*
G01*
X81049000Y-45125000D01*
G75*
G02*
X81199000Y-45275000I0J-150000D01*
G01*
X81199000Y-47025000D01*
G75*
G02*
X81049000Y-47175000I-150000J0D01*
G01*
G37*
G36*
G01*
X82319000Y-47175000D02*
X82019000Y-47175000D01*
G75*
G02*
X81869000Y-47025000I0J150000D01*
G01*
X81869000Y-45275000D01*
G75*
G02*
X82019000Y-45125000I150000J0D01*
G01*
X82319000Y-45125000D01*
G75*
G02*
X82469000Y-45275000I0J-150000D01*
G01*
X82469000Y-47025000D01*
G75*
G02*
X82319000Y-47175000I-150000J0D01*
G01*
G37*
G36*
G01*
X83589000Y-47175000D02*
X83289000Y-47175000D01*
G75*
G02*
X83139000Y-47025000I0J150000D01*
G01*
X83139000Y-45275000D01*
G75*
G02*
X83289000Y-45125000I150000J0D01*
G01*
X83589000Y-45125000D01*
G75*
G02*
X83739000Y-45275000I0J-150000D01*
G01*
X83739000Y-47025000D01*
G75*
G02*
X83589000Y-47175000I-150000J0D01*
G01*
G37*
G36*
G01*
X83589000Y-56475000D02*
X83289000Y-56475000D01*
G75*
G02*
X83139000Y-56325000I0J150000D01*
G01*
X83139000Y-54575000D01*
G75*
G02*
X83289000Y-54425000I150000J0D01*
G01*
X83589000Y-54425000D01*
G75*
G02*
X83739000Y-54575000I0J-150000D01*
G01*
X83739000Y-56325000D01*
G75*
G02*
X83589000Y-56475000I-150000J0D01*
G01*
G37*
G36*
G01*
X82319000Y-56475000D02*
X82019000Y-56475000D01*
G75*
G02*
X81869000Y-56325000I0J150000D01*
G01*
X81869000Y-54575000D01*
G75*
G02*
X82019000Y-54425000I150000J0D01*
G01*
X82319000Y-54425000D01*
G75*
G02*
X82469000Y-54575000I0J-150000D01*
G01*
X82469000Y-56325000D01*
G75*
G02*
X82319000Y-56475000I-150000J0D01*
G01*
G37*
G36*
G01*
X81049000Y-56475000D02*
X80749000Y-56475000D01*
G75*
G02*
X80599000Y-56325000I0J150000D01*
G01*
X80599000Y-54575000D01*
G75*
G02*
X80749000Y-54425000I150000J0D01*
G01*
X81049000Y-54425000D01*
G75*
G02*
X81199000Y-54575000I0J-150000D01*
G01*
X81199000Y-56325000D01*
G75*
G02*
X81049000Y-56475000I-150000J0D01*
G01*
G37*
G36*
G01*
X79779000Y-56475000D02*
X79479000Y-56475000D01*
G75*
G02*
X79329000Y-56325000I0J150000D01*
G01*
X79329000Y-54575000D01*
G75*
G02*
X79479000Y-54425000I150000J0D01*
G01*
X79779000Y-54425000D01*
G75*
G02*
X79929000Y-54575000I0J-150000D01*
G01*
X79929000Y-56325000D01*
G75*
G02*
X79779000Y-56475000I-150000J0D01*
G01*
G37*
G36*
G01*
X78509000Y-56475000D02*
X78209000Y-56475000D01*
G75*
G02*
X78059000Y-56325000I0J150000D01*
G01*
X78059000Y-54575000D01*
G75*
G02*
X78209000Y-54425000I150000J0D01*
G01*
X78509000Y-54425000D01*
G75*
G02*
X78659000Y-54575000I0J-150000D01*
G01*
X78659000Y-56325000D01*
G75*
G02*
X78509000Y-56475000I-150000J0D01*
G01*
G37*
G36*
G01*
X77239000Y-56475000D02*
X76939000Y-56475000D01*
G75*
G02*
X76789000Y-56325000I0J150000D01*
G01*
X76789000Y-54575000D01*
G75*
G02*
X76939000Y-54425000I150000J0D01*
G01*
X77239000Y-54425000D01*
G75*
G02*
X77389000Y-54575000I0J-150000D01*
G01*
X77389000Y-56325000D01*
G75*
G02*
X77239000Y-56475000I-150000J0D01*
G01*
G37*
G36*
G01*
X75969000Y-56475000D02*
X75669000Y-56475000D01*
G75*
G02*
X75519000Y-56325000I0J150000D01*
G01*
X75519000Y-54575000D01*
G75*
G02*
X75669000Y-54425000I150000J0D01*
G01*
X75969000Y-54425000D01*
G75*
G02*
X76119000Y-54575000I0J-150000D01*
G01*
X76119000Y-56325000D01*
G75*
G02*
X75969000Y-56475000I-150000J0D01*
G01*
G37*
G36*
G01*
X74699000Y-56475000D02*
X74399000Y-56475000D01*
G75*
G02*
X74249000Y-56325000I0J150000D01*
G01*
X74249000Y-54575000D01*
G75*
G02*
X74399000Y-54425000I150000J0D01*
G01*
X74699000Y-54425000D01*
G75*
G02*
X74849000Y-54575000I0J-150000D01*
G01*
X74849000Y-56325000D01*
G75*
G02*
X74699000Y-56475000I-150000J0D01*
G01*
G37*
G36*
G01*
X73429000Y-56475000D02*
X73129000Y-56475000D01*
G75*
G02*
X72979000Y-56325000I0J150000D01*
G01*
X72979000Y-54575000D01*
G75*
G02*
X73129000Y-54425000I150000J0D01*
G01*
X73429000Y-54425000D01*
G75*
G02*
X73579000Y-54575000I0J-150000D01*
G01*
X73579000Y-56325000D01*
G75*
G02*
X73429000Y-56475000I-150000J0D01*
G01*
G37*
G36*
G01*
X72159000Y-56475000D02*
X71859000Y-56475000D01*
G75*
G02*
X71709000Y-56325000I0J150000D01*
G01*
X71709000Y-54575000D01*
G75*
G02*
X71859000Y-54425000I150000J0D01*
G01*
X72159000Y-54425000D01*
G75*
G02*
X72309000Y-54575000I0J-150000D01*
G01*
X72309000Y-56325000D01*
G75*
G02*
X72159000Y-56475000I-150000J0D01*
G01*
G37*
G36*
G01*
X70889000Y-56475000D02*
X70589000Y-56475000D01*
G75*
G02*
X70439000Y-56325000I0J150000D01*
G01*
X70439000Y-54575000D01*
G75*
G02*
X70589000Y-54425000I150000J0D01*
G01*
X70889000Y-54425000D01*
G75*
G02*
X71039000Y-54575000I0J-150000D01*
G01*
X71039000Y-56325000D01*
G75*
G02*
X70889000Y-56475000I-150000J0D01*
G01*
G37*
G36*
G01*
X69619000Y-56475000D02*
X69319000Y-56475000D01*
G75*
G02*
X69169000Y-56325000I0J150000D01*
G01*
X69169000Y-54575000D01*
G75*
G02*
X69319000Y-54425000I150000J0D01*
G01*
X69619000Y-54425000D01*
G75*
G02*
X69769000Y-54575000I0J-150000D01*
G01*
X69769000Y-56325000D01*
G75*
G02*
X69619000Y-56475000I-150000J0D01*
G01*
G37*
G36*
G01*
X68349000Y-56475000D02*
X68049000Y-56475000D01*
G75*
G02*
X67899000Y-56325000I0J150000D01*
G01*
X67899000Y-54575000D01*
G75*
G02*
X68049000Y-54425000I150000J0D01*
G01*
X68349000Y-54425000D01*
G75*
G02*
X68499000Y-54575000I0J-150000D01*
G01*
X68499000Y-56325000D01*
G75*
G02*
X68349000Y-56475000I-150000J0D01*
G01*
G37*
G36*
G01*
X67079000Y-56475000D02*
X66779000Y-56475000D01*
G75*
G02*
X66629000Y-56325000I0J150000D01*
G01*
X66629000Y-54575000D01*
G75*
G02*
X66779000Y-54425000I150000J0D01*
G01*
X67079000Y-54425000D01*
G75*
G02*
X67229000Y-54575000I0J-150000D01*
G01*
X67229000Y-56325000D01*
G75*
G02*
X67079000Y-56475000I-150000J0D01*
G01*
G37*
%TD*%
%TO.C,U10*%
G36*
G01*
X450619000Y-118258000D02*
X450319000Y-118258000D01*
G75*
G02*
X450169000Y-118108000I0J150000D01*
G01*
X450169000Y-116658000D01*
G75*
G02*
X450319000Y-116508000I150000J0D01*
G01*
X450619000Y-116508000D01*
G75*
G02*
X450769000Y-116658000I0J-150000D01*
G01*
X450769000Y-118108000D01*
G75*
G02*
X450619000Y-118258000I-150000J0D01*
G01*
G37*
G36*
G01*
X451889000Y-118258000D02*
X451589000Y-118258000D01*
G75*
G02*
X451439000Y-118108000I0J150000D01*
G01*
X451439000Y-116658000D01*
G75*
G02*
X451589000Y-116508000I150000J0D01*
G01*
X451889000Y-116508000D01*
G75*
G02*
X452039000Y-116658000I0J-150000D01*
G01*
X452039000Y-118108000D01*
G75*
G02*
X451889000Y-118258000I-150000J0D01*
G01*
G37*
G36*
G01*
X453159000Y-118258000D02*
X452859000Y-118258000D01*
G75*
G02*
X452709000Y-118108000I0J150000D01*
G01*
X452709000Y-116658000D01*
G75*
G02*
X452859000Y-116508000I150000J0D01*
G01*
X453159000Y-116508000D01*
G75*
G02*
X453309000Y-116658000I0J-150000D01*
G01*
X453309000Y-118108000D01*
G75*
G02*
X453159000Y-118258000I-150000J0D01*
G01*
G37*
G36*
G01*
X454429000Y-118258000D02*
X454129000Y-118258000D01*
G75*
G02*
X453979000Y-118108000I0J150000D01*
G01*
X453979000Y-116658000D01*
G75*
G02*
X454129000Y-116508000I150000J0D01*
G01*
X454429000Y-116508000D01*
G75*
G02*
X454579000Y-116658000I0J-150000D01*
G01*
X454579000Y-118108000D01*
G75*
G02*
X454429000Y-118258000I-150000J0D01*
G01*
G37*
G36*
G01*
X454429000Y-113108000D02*
X454129000Y-113108000D01*
G75*
G02*
X453979000Y-112958000I0J150000D01*
G01*
X453979000Y-111508000D01*
G75*
G02*
X454129000Y-111358000I150000J0D01*
G01*
X454429000Y-111358000D01*
G75*
G02*
X454579000Y-111508000I0J-150000D01*
G01*
X454579000Y-112958000D01*
G75*
G02*
X454429000Y-113108000I-150000J0D01*
G01*
G37*
G36*
G01*
X453159000Y-113108000D02*
X452859000Y-113108000D01*
G75*
G02*
X452709000Y-112958000I0J150000D01*
G01*
X452709000Y-111508000D01*
G75*
G02*
X452859000Y-111358000I150000J0D01*
G01*
X453159000Y-111358000D01*
G75*
G02*
X453309000Y-111508000I0J-150000D01*
G01*
X453309000Y-112958000D01*
G75*
G02*
X453159000Y-113108000I-150000J0D01*
G01*
G37*
G36*
G01*
X451889000Y-113108000D02*
X451589000Y-113108000D01*
G75*
G02*
X451439000Y-112958000I0J150000D01*
G01*
X451439000Y-111508000D01*
G75*
G02*
X451589000Y-111358000I150000J0D01*
G01*
X451889000Y-111358000D01*
G75*
G02*
X452039000Y-111508000I0J-150000D01*
G01*
X452039000Y-112958000D01*
G75*
G02*
X451889000Y-113108000I-150000J0D01*
G01*
G37*
G36*
G01*
X450619000Y-113108000D02*
X450319000Y-113108000D01*
G75*
G02*
X450169000Y-112958000I0J150000D01*
G01*
X450169000Y-111508000D01*
G75*
G02*
X450319000Y-111358000I150000J0D01*
G01*
X450619000Y-111358000D01*
G75*
G02*
X450769000Y-111508000I0J-150000D01*
G01*
X450769000Y-112958000D01*
G75*
G02*
X450619000Y-113108000I-150000J0D01*
G01*
G37*
%TD*%
%TO.C,U11*%
G36*
G01*
X436522000Y-121306000D02*
X436222000Y-121306000D01*
G75*
G02*
X436072000Y-121156000I0J150000D01*
G01*
X436072000Y-119506000D01*
G75*
G02*
X436222000Y-119356000I150000J0D01*
G01*
X436522000Y-119356000D01*
G75*
G02*
X436672000Y-119506000I0J-150000D01*
G01*
X436672000Y-121156000D01*
G75*
G02*
X436522000Y-121306000I-150000J0D01*
G01*
G37*
G36*
G01*
X437792000Y-121306000D02*
X437492000Y-121306000D01*
G75*
G02*
X437342000Y-121156000I0J150000D01*
G01*
X437342000Y-119506000D01*
G75*
G02*
X437492000Y-119356000I150000J0D01*
G01*
X437792000Y-119356000D01*
G75*
G02*
X437942000Y-119506000I0J-150000D01*
G01*
X437942000Y-121156000D01*
G75*
G02*
X437792000Y-121306000I-150000J0D01*
G01*
G37*
G36*
G01*
X439062000Y-121306000D02*
X438762000Y-121306000D01*
G75*
G02*
X438612000Y-121156000I0J150000D01*
G01*
X438612000Y-119506000D01*
G75*
G02*
X438762000Y-119356000I150000J0D01*
G01*
X439062000Y-119356000D01*
G75*
G02*
X439212000Y-119506000I0J-150000D01*
G01*
X439212000Y-121156000D01*
G75*
G02*
X439062000Y-121306000I-150000J0D01*
G01*
G37*
G36*
G01*
X440332000Y-121306000D02*
X440032000Y-121306000D01*
G75*
G02*
X439882000Y-121156000I0J150000D01*
G01*
X439882000Y-119506000D01*
G75*
G02*
X440032000Y-119356000I150000J0D01*
G01*
X440332000Y-119356000D01*
G75*
G02*
X440482000Y-119506000I0J-150000D01*
G01*
X440482000Y-121156000D01*
G75*
G02*
X440332000Y-121306000I-150000J0D01*
G01*
G37*
G36*
G01*
X441602000Y-121306000D02*
X441302000Y-121306000D01*
G75*
G02*
X441152000Y-121156000I0J150000D01*
G01*
X441152000Y-119506000D01*
G75*
G02*
X441302000Y-119356000I150000J0D01*
G01*
X441602000Y-119356000D01*
G75*
G02*
X441752000Y-119506000I0J-150000D01*
G01*
X441752000Y-121156000D01*
G75*
G02*
X441602000Y-121306000I-150000J0D01*
G01*
G37*
G36*
G01*
X442872000Y-121306000D02*
X442572000Y-121306000D01*
G75*
G02*
X442422000Y-121156000I0J150000D01*
G01*
X442422000Y-119506000D01*
G75*
G02*
X442572000Y-119356000I150000J0D01*
G01*
X442872000Y-119356000D01*
G75*
G02*
X443022000Y-119506000I0J-150000D01*
G01*
X443022000Y-121156000D01*
G75*
G02*
X442872000Y-121306000I-150000J0D01*
G01*
G37*
G36*
G01*
X444142000Y-121306000D02*
X443842000Y-121306000D01*
G75*
G02*
X443692000Y-121156000I0J150000D01*
G01*
X443692000Y-119506000D01*
G75*
G02*
X443842000Y-119356000I150000J0D01*
G01*
X444142000Y-119356000D01*
G75*
G02*
X444292000Y-119506000I0J-150000D01*
G01*
X444292000Y-121156000D01*
G75*
G02*
X444142000Y-121306000I-150000J0D01*
G01*
G37*
G36*
G01*
X444142000Y-116356000D02*
X443842000Y-116356000D01*
G75*
G02*
X443692000Y-116206000I0J150000D01*
G01*
X443692000Y-114556000D01*
G75*
G02*
X443842000Y-114406000I150000J0D01*
G01*
X444142000Y-114406000D01*
G75*
G02*
X444292000Y-114556000I0J-150000D01*
G01*
X444292000Y-116206000D01*
G75*
G02*
X444142000Y-116356000I-150000J0D01*
G01*
G37*
G36*
G01*
X442872000Y-116356000D02*
X442572000Y-116356000D01*
G75*
G02*
X442422000Y-116206000I0J150000D01*
G01*
X442422000Y-114556000D01*
G75*
G02*
X442572000Y-114406000I150000J0D01*
G01*
X442872000Y-114406000D01*
G75*
G02*
X443022000Y-114556000I0J-150000D01*
G01*
X443022000Y-116206000D01*
G75*
G02*
X442872000Y-116356000I-150000J0D01*
G01*
G37*
G36*
G01*
X441602000Y-116356000D02*
X441302000Y-116356000D01*
G75*
G02*
X441152000Y-116206000I0J150000D01*
G01*
X441152000Y-114556000D01*
G75*
G02*
X441302000Y-114406000I150000J0D01*
G01*
X441602000Y-114406000D01*
G75*
G02*
X441752000Y-114556000I0J-150000D01*
G01*
X441752000Y-116206000D01*
G75*
G02*
X441602000Y-116356000I-150000J0D01*
G01*
G37*
G36*
G01*
X440332000Y-116356000D02*
X440032000Y-116356000D01*
G75*
G02*
X439882000Y-116206000I0J150000D01*
G01*
X439882000Y-114556000D01*
G75*
G02*
X440032000Y-114406000I150000J0D01*
G01*
X440332000Y-114406000D01*
G75*
G02*
X440482000Y-114556000I0J-150000D01*
G01*
X440482000Y-116206000D01*
G75*
G02*
X440332000Y-116356000I-150000J0D01*
G01*
G37*
G36*
G01*
X439062000Y-116356000D02*
X438762000Y-116356000D01*
G75*
G02*
X438612000Y-116206000I0J150000D01*
G01*
X438612000Y-114556000D01*
G75*
G02*
X438762000Y-114406000I150000J0D01*
G01*
X439062000Y-114406000D01*
G75*
G02*
X439212000Y-114556000I0J-150000D01*
G01*
X439212000Y-116206000D01*
G75*
G02*
X439062000Y-116356000I-150000J0D01*
G01*
G37*
G36*
G01*
X437792000Y-116356000D02*
X437492000Y-116356000D01*
G75*
G02*
X437342000Y-116206000I0J150000D01*
G01*
X437342000Y-114556000D01*
G75*
G02*
X437492000Y-114406000I150000J0D01*
G01*
X437792000Y-114406000D01*
G75*
G02*
X437942000Y-114556000I0J-150000D01*
G01*
X437942000Y-116206000D01*
G75*
G02*
X437792000Y-116356000I-150000J0D01*
G01*
G37*
G36*
G01*
X436522000Y-116356000D02*
X436222000Y-116356000D01*
G75*
G02*
X436072000Y-116206000I0J150000D01*
G01*
X436072000Y-114556000D01*
G75*
G02*
X436222000Y-114406000I150000J0D01*
G01*
X436522000Y-114406000D01*
G75*
G02*
X436672000Y-114556000I0J-150000D01*
G01*
X436672000Y-116206000D01*
G75*
G02*
X436522000Y-116356000I-150000J0D01*
G01*
G37*
%TD*%
M02*
