%TF.GenerationSoftware,KiCad,Pcbnew,(5.1.9)-1*%
%TF.CreationDate,2021-04-06T19:39:34+10:00*%
%TF.ProjectId,RedPyKeeb,52656450-794b-4656-9562-2e6b69636164,rev?*%
%TF.SameCoordinates,Original*%
%TF.FileFunction,Other,User*%
%FSLAX46Y46*%
G04 Gerber Fmt 4.6, Leading zero omitted, Abs format (unit mm)*
G04 Created by KiCad (PCBNEW (5.1.9)-1) date 2021-04-06 19:39:34*
%MOMM*%
%LPD*%
G01*
G04 APERTURE LIST*
%ADD10C,0.050000*%
%ADD11C,0.120000*%
G04 APERTURE END LIST*
D10*
%TO.C,K12\u002C3*%
X354888200Y-174042300D02*
X354888200Y-167542300D01*
X354888200Y-167542300D02*
X338908200Y-167542300D01*
X338908200Y-167542300D02*
X338908200Y-174042300D01*
X338908200Y-174042300D02*
X354888200Y-174042300D01*
%TO.C,K16\u002C1*%
X428192600Y-135358100D02*
X428192600Y-128858100D01*
X428192600Y-128858100D02*
X412212600Y-128858100D01*
X412212600Y-128858100D02*
X412212600Y-135358100D01*
X412212600Y-135358100D02*
X428192600Y-135358100D01*
%TO.C,K14\u002C1*%
X389584600Y-135358100D02*
X389584600Y-128858100D01*
X389584600Y-128858100D02*
X373604600Y-128858100D01*
X373604600Y-128858100D02*
X373604600Y-135358100D01*
X373604600Y-135358100D02*
X389584600Y-135358100D01*
%TO.C,K3\u002C2*%
X164261200Y-154598600D02*
X164261200Y-148098600D01*
X164261200Y-148098600D02*
X148281200Y-148098600D01*
X148281200Y-148098600D02*
X148281200Y-154598600D01*
X148281200Y-154598600D02*
X164261200Y-154598600D01*
%TO.C,K8\u002C0*%
X284212700Y-109577100D02*
X284212700Y-103077100D01*
X284212700Y-103077100D02*
X268232700Y-103077100D01*
X268232700Y-103077100D02*
X268232700Y-109577100D01*
X268232700Y-109577100D02*
X284212700Y-109577100D01*
D11*
%TO.C,U0*%
X483427000Y-67619500D02*
X483427000Y-45619500D01*
X483427000Y-45619500D02*
X431427000Y-45619500D01*
X431427000Y-45619500D02*
X431427000Y-67619500D01*
X431427000Y-67619500D02*
X483427000Y-67619500D01*
D10*
%TO.C,C3*%
X82641000Y-85607000D02*
X78141000Y-85607000D01*
X82641000Y-85607000D02*
X82641000Y-87357000D01*
X78141000Y-87357000D02*
X78141000Y-85607000D01*
X78141000Y-87357000D02*
X82641000Y-87357000D01*
%TO.C,K0\u002C2*%
X101713700Y-154573200D02*
X101713700Y-148073200D01*
X101713700Y-148073200D02*
X85733700Y-148073200D01*
X85733700Y-148073200D02*
X85733700Y-154573200D01*
X85733700Y-154573200D02*
X101713700Y-154573200D01*
%TO.C,K18\u002C4*%
X490676600Y-173966100D02*
X490676600Y-167466100D01*
X490676600Y-167466100D02*
X474696600Y-167466100D01*
X474696600Y-167466100D02*
X474696600Y-173966100D01*
X474696600Y-173966100D02*
X490676600Y-173966100D01*
%TO.C,K10\u002C3*%
X304278700Y-174029600D02*
X304278700Y-167529600D01*
X304278700Y-167529600D02*
X288298700Y-167529600D01*
X288298700Y-167529600D02*
X288298700Y-174029600D01*
X288298700Y-174029600D02*
X304278700Y-174029600D01*
%TO.C,K13\u002C1*%
X356729700Y-135307300D02*
X356729700Y-128807300D01*
X356729700Y-128807300D02*
X340749700Y-128807300D01*
X340749700Y-128807300D02*
X340749700Y-135307300D01*
X340749700Y-135307300D02*
X356729700Y-135307300D01*
%TO.C,K19\u002C4*%
X509980600Y-164250600D02*
X509980600Y-157750600D01*
X509980600Y-157750600D02*
X494000600Y-157750600D01*
X494000600Y-157750600D02*
X494000600Y-164250600D01*
X494000600Y-164250600D02*
X509980600Y-164250600D01*
%TO.C,U2*%
X396501500Y-78347200D02*
X414901500Y-78347200D01*
X414901500Y-78347200D02*
X414901500Y-90207200D01*
X414901500Y-90207200D02*
X396501500Y-90207200D01*
X396501500Y-90207200D02*
X396501500Y-78347200D01*
%TO.C,K11\u002C4*%
X350062200Y-193790800D02*
X350062200Y-187290800D01*
X350062200Y-187290800D02*
X334082200Y-187290800D01*
X334082200Y-187290800D02*
X334082200Y-193790800D01*
X334082200Y-193790800D02*
X350062200Y-193790800D01*
%TO.C,C6*%
X496826500Y-78361500D02*
X496826500Y-74461500D01*
X496826500Y-74461500D02*
X497676500Y-74461500D01*
X497676500Y-74461500D02*
X497676500Y-71461500D01*
X497676500Y-71461500D02*
X496826500Y-71461500D01*
X496826500Y-71461500D02*
X496826500Y-67561500D01*
X487176500Y-67561500D02*
X496826500Y-67561500D01*
X487176500Y-78361500D02*
X496826500Y-78361500D01*
X486026500Y-68711500D02*
X487176500Y-67561500D01*
X486026500Y-77211500D02*
X487176500Y-78361500D01*
X486026500Y-77211500D02*
X486026500Y-74461500D01*
X486026500Y-71461500D02*
X486026500Y-68711500D01*
X486026500Y-74461500D02*
X485176500Y-74461500D01*
X485176500Y-74461500D02*
X485176500Y-71461500D01*
X485176500Y-71461500D02*
X486026500Y-71461500D01*
%TO.C,J0*%
X494118000Y-63412000D02*
X484918000Y-63412000D01*
X484918000Y-63412000D02*
X484918000Y-49912000D01*
X484918000Y-49912000D02*
X494118000Y-49912000D01*
X494118000Y-49912000D02*
X494118000Y-63412000D01*
%TO.C,J1*%
X483695000Y-73445000D02*
X483695000Y-82645000D01*
X483695000Y-82645000D02*
X470195000Y-82645000D01*
X470195000Y-82645000D02*
X470195000Y-73445000D01*
X470195000Y-73445000D02*
X483695000Y-73445000D01*
%TO.C,K0\u002C0*%
X97078200Y-109526300D02*
X97078200Y-103026300D01*
X97078200Y-103026300D02*
X81098200Y-103026300D01*
X81098200Y-103026300D02*
X81098200Y-109526300D01*
X81098200Y-109526300D02*
X97078200Y-109526300D01*
%TO.C,K0\u002C1*%
X97014700Y-135370800D02*
X97014700Y-128870800D01*
X97014700Y-128870800D02*
X81034700Y-128870800D01*
X81034700Y-128870800D02*
X81034700Y-135370800D01*
X81034700Y-135370800D02*
X97014700Y-135370800D01*
%TO.C,K0\u002C5*%
X99427700Y-213221800D02*
X99427700Y-206721800D01*
X99427700Y-206721800D02*
X83447700Y-206721800D01*
X83447700Y-206721800D02*
X83447700Y-213221800D01*
X83447700Y-213221800D02*
X99427700Y-213221800D01*
%TO.C,K0\u002C4*%
X108825700Y-193854300D02*
X108825700Y-187354300D01*
X108825700Y-187354300D02*
X92845700Y-187354300D01*
X92845700Y-187354300D02*
X92845700Y-193854300D01*
X92845700Y-193854300D02*
X108825700Y-193854300D01*
%TO.C,K0\u002C3*%
X104101300Y-174080400D02*
X104101300Y-167580400D01*
X104101300Y-167580400D02*
X88121300Y-167580400D01*
X88121300Y-167580400D02*
X88121300Y-174080400D01*
X88121300Y-174080400D02*
X104101300Y-174080400D01*
%TO.C,K1\u002C4*%
X139940700Y-193841600D02*
X139940700Y-187341600D01*
X139940700Y-187341600D02*
X123960700Y-187341600D01*
X123960700Y-187341600D02*
X123960700Y-193841600D01*
X123960700Y-193841600D02*
X139940700Y-193841600D01*
%TO.C,K1\u002C5*%
X124002200Y-213272600D02*
X124002200Y-206772600D01*
X124002200Y-206772600D02*
X108022200Y-206772600D01*
X108022200Y-206772600D02*
X108022200Y-213272600D01*
X108022200Y-213272600D02*
X124002200Y-213272600D01*
%TO.C,K1\u002C3*%
X130542700Y-174029600D02*
X130542700Y-167529600D01*
X130542700Y-167529600D02*
X114562700Y-167529600D01*
X114562700Y-167529600D02*
X114562700Y-174029600D01*
X114562700Y-174029600D02*
X130542700Y-174029600D01*
%TO.C,K1\u002C2*%
X125653200Y-154598600D02*
X125653200Y-148098600D01*
X125653200Y-148098600D02*
X109673200Y-148098600D01*
X109673200Y-148098600D02*
X109673200Y-154598600D01*
X109673200Y-154598600D02*
X125653200Y-154598600D01*
%TO.C,K1\u002C1*%
X116229800Y-135370800D02*
X116229800Y-128870800D01*
X116229800Y-128870800D02*
X100249800Y-128870800D01*
X100249800Y-128870800D02*
X100249800Y-135370800D01*
X100249800Y-135370800D02*
X116229800Y-135370800D01*
%TO.C,K1\u002C0*%
X136892700Y-109577100D02*
X136892700Y-103077100D01*
X136892700Y-103077100D02*
X120912700Y-103077100D01*
X120912700Y-103077100D02*
X120912700Y-109577100D01*
X120912700Y-109577100D02*
X136892700Y-109577100D01*
%TO.C,K2\u002C5*%
X148386200Y-213272600D02*
X148386200Y-206772600D01*
X148386200Y-206772600D02*
X132406200Y-206772600D01*
X132406200Y-206772600D02*
X132406200Y-213272600D01*
X132406200Y-213272600D02*
X148386200Y-213272600D01*
%TO.C,K2\u002C3*%
X149846700Y-174029600D02*
X149846700Y-167529600D01*
X149846700Y-167529600D02*
X133866700Y-167529600D01*
X133866700Y-167529600D02*
X133866700Y-174029600D01*
X133866700Y-174029600D02*
X149846700Y-174029600D01*
%TO.C,K2\u002C1*%
X135432200Y-135358100D02*
X135432200Y-128858100D01*
X135432200Y-128858100D02*
X119452200Y-128858100D01*
X119452200Y-128858100D02*
X119452200Y-135358100D01*
X119452200Y-135358100D02*
X135432200Y-135358100D01*
%TO.C,K2\u002C4*%
X159244700Y-193841600D02*
X159244700Y-187341600D01*
X159244700Y-187341600D02*
X143264700Y-187341600D01*
X143264700Y-187341600D02*
X143264700Y-193841600D01*
X143264700Y-193841600D02*
X159244700Y-193841600D01*
%TO.C,K2\u002C2*%
X144957200Y-154598600D02*
X144957200Y-148098600D01*
X144957200Y-148098600D02*
X128977200Y-148098600D01*
X128977200Y-148098600D02*
X128977200Y-154598600D01*
X128977200Y-154598600D02*
X144957200Y-154598600D01*
%TO.C,K2\u002C0*%
X156196700Y-109577100D02*
X156196700Y-103077100D01*
X156196700Y-103077100D02*
X140216700Y-103077100D01*
X140216700Y-103077100D02*
X140216700Y-109577100D01*
X140216700Y-109577100D02*
X156196700Y-109577100D01*
%TO.C,K3\u002C5*%
X220268200Y-213272600D02*
X220268200Y-206772600D01*
X220268200Y-206772600D02*
X204288200Y-206772600D01*
X204288200Y-206772600D02*
X204288200Y-213272600D01*
X204288200Y-213272600D02*
X220268200Y-213272600D01*
%TO.C,K3\u002C4*%
X178548700Y-193841600D02*
X178548700Y-187341600D01*
X178548700Y-187341600D02*
X162568700Y-187341600D01*
X162568700Y-187341600D02*
X162568700Y-193841600D01*
X162568700Y-193841600D02*
X178548700Y-193841600D01*
%TO.C,K3\u002C1*%
X154228200Y-135358100D02*
X154228200Y-128858100D01*
X154228200Y-128858100D02*
X138248200Y-128858100D01*
X138248200Y-128858100D02*
X138248200Y-135358100D01*
X138248200Y-135358100D02*
X154228200Y-135358100D01*
%TO.C,K3\u002C0*%
X175500700Y-109577100D02*
X175500700Y-103077100D01*
X175500700Y-103077100D02*
X159520700Y-103077100D01*
X159520700Y-103077100D02*
X159520700Y-109577100D01*
X159520700Y-109577100D02*
X175500700Y-109577100D01*
%TO.C,K3\u002C3*%
X169150700Y-174029600D02*
X169150700Y-167529600D01*
X169150700Y-167529600D02*
X153170700Y-167529600D01*
X153170700Y-167529600D02*
X153170700Y-174029600D01*
X153170700Y-174029600D02*
X169150700Y-174029600D01*
%TO.C,K4\u002C1*%
X173532200Y-135358100D02*
X173532200Y-128858100D01*
X173532200Y-128858100D02*
X157552200Y-128858100D01*
X157552200Y-128858100D02*
X157552200Y-135358100D01*
X157552200Y-135358100D02*
X173532200Y-135358100D01*
%TO.C,K4\u002C2*%
X183565200Y-154598600D02*
X183565200Y-148098600D01*
X183565200Y-148098600D02*
X167585200Y-148098600D01*
X167585200Y-148098600D02*
X167585200Y-154598600D01*
X167585200Y-154598600D02*
X183565200Y-154598600D01*
%TO.C,K4\u002C3*%
X188454700Y-174029600D02*
X188454700Y-167529600D01*
X188454700Y-167529600D02*
X172474700Y-167529600D01*
X172474700Y-167529600D02*
X172474700Y-174029600D01*
X172474700Y-174029600D02*
X188454700Y-174029600D01*
%TO.C,K4\u002C4*%
X197852700Y-193841600D02*
X197852700Y-187341600D01*
X197852700Y-187341600D02*
X181872700Y-187341600D01*
X181872700Y-187341600D02*
X181872700Y-193841600D01*
X181872700Y-193841600D02*
X197852700Y-193841600D01*
%TO.C,K4\u002C0*%
X194804700Y-109577100D02*
X194804700Y-103077100D01*
X194804700Y-103077100D02*
X178824700Y-103077100D01*
X178824700Y-103077100D02*
X178824700Y-109577100D01*
X178824700Y-109577100D02*
X194804700Y-109577100D01*
%TO.C,K5\u002C0*%
X226300700Y-109577100D02*
X226300700Y-103077100D01*
X226300700Y-103077100D02*
X210320700Y-103077100D01*
X210320700Y-103077100D02*
X210320700Y-109577100D01*
X210320700Y-109577100D02*
X226300700Y-109577100D01*
%TO.C,K5\u002C2*%
X202869200Y-154598600D02*
X202869200Y-148098600D01*
X202869200Y-148098600D02*
X186889200Y-148098600D01*
X186889200Y-148098600D02*
X186889200Y-154598600D01*
X186889200Y-154598600D02*
X202869200Y-154598600D01*
%TO.C,K5\u002C1*%
X192836200Y-135358100D02*
X192836200Y-128858100D01*
X192836200Y-128858100D02*
X176856200Y-128858100D01*
X176856200Y-128858100D02*
X176856200Y-135358100D01*
X176856200Y-135358100D02*
X192836200Y-135358100D01*
%TO.C,K5\u002C3*%
X207758700Y-174029600D02*
X207758700Y-167529600D01*
X207758700Y-167529600D02*
X191778700Y-167529600D01*
X191778700Y-167529600D02*
X191778700Y-174029600D01*
X191778700Y-174029600D02*
X207758700Y-174029600D01*
%TO.C,K5\u002C4*%
X217156700Y-193841600D02*
X217156700Y-187341600D01*
X217156700Y-187341600D02*
X201176700Y-187341600D01*
X201176700Y-187341600D02*
X201176700Y-193841600D01*
X201176700Y-193841600D02*
X217156700Y-193841600D01*
%TO.C,K6\u002C3*%
X227062700Y-174029600D02*
X227062700Y-167529600D01*
X227062700Y-167529600D02*
X211082700Y-167529600D01*
X211082700Y-167529600D02*
X211082700Y-174029600D01*
X211082700Y-174029600D02*
X227062700Y-174029600D01*
%TO.C,K6\u002C4*%
X236460700Y-193841600D02*
X236460700Y-187341600D01*
X236460700Y-187341600D02*
X220480700Y-187341600D01*
X220480700Y-187341600D02*
X220480700Y-193841600D01*
X220480700Y-193841600D02*
X236460700Y-193841600D01*
%TO.C,K6\u002C1*%
X212140200Y-135358100D02*
X212140200Y-128858100D01*
X212140200Y-128858100D02*
X196160200Y-128858100D01*
X196160200Y-128858100D02*
X196160200Y-135358100D01*
X196160200Y-135358100D02*
X212140200Y-135358100D01*
%TO.C,K6\u002C2*%
X222173200Y-154598600D02*
X222173200Y-148098600D01*
X222173200Y-148098600D02*
X206193200Y-148098600D01*
X206193200Y-148098600D02*
X206193200Y-154598600D01*
X206193200Y-154598600D02*
X222173200Y-154598600D01*
%TO.C,K6\u002C0*%
X245604700Y-109577100D02*
X245604700Y-103077100D01*
X245604700Y-103077100D02*
X229624700Y-103077100D01*
X229624700Y-103077100D02*
X229624700Y-109577100D01*
X229624700Y-109577100D02*
X245604700Y-109577100D01*
%TO.C,K7\u002C2*%
X241477200Y-154598600D02*
X241477200Y-148098600D01*
X241477200Y-148098600D02*
X225497200Y-148098600D01*
X225497200Y-148098600D02*
X225497200Y-154598600D01*
X225497200Y-154598600D02*
X241477200Y-154598600D01*
%TO.C,K7\u002C1*%
X231444200Y-135358100D02*
X231444200Y-128858100D01*
X231444200Y-128858100D02*
X215464200Y-128858100D01*
X215464200Y-128858100D02*
X215464200Y-135358100D01*
X215464200Y-135358100D02*
X231444200Y-135358100D01*
%TO.C,K7\u002C3*%
X246366700Y-174029600D02*
X246366700Y-167529600D01*
X246366700Y-167529600D02*
X230386700Y-167529600D01*
X230386700Y-167529600D02*
X230386700Y-174029600D01*
X230386700Y-174029600D02*
X246366700Y-174029600D01*
%TO.C,K7\u002C4*%
X255764700Y-193841600D02*
X255764700Y-187341600D01*
X255764700Y-187341600D02*
X239784700Y-187341600D01*
X239784700Y-187341600D02*
X239784700Y-193841600D01*
X239784700Y-193841600D02*
X255764700Y-193841600D01*
%TO.C,K7\u002C0*%
X264908700Y-109577100D02*
X264908700Y-103077100D01*
X264908700Y-103077100D02*
X248928700Y-103077100D01*
X248928700Y-103077100D02*
X248928700Y-109577100D01*
X248928700Y-109577100D02*
X264908700Y-109577100D01*
%TO.C,K8\u002C1*%
X250748200Y-135358100D02*
X250748200Y-128858100D01*
X250748200Y-128858100D02*
X234768200Y-128858100D01*
X234768200Y-128858100D02*
X234768200Y-135358100D01*
X234768200Y-135358100D02*
X250748200Y-135358100D01*
%TO.C,K8\u002C3*%
X265670700Y-174029600D02*
X265670700Y-167529600D01*
X265670700Y-167529600D02*
X249690700Y-167529600D01*
X249690700Y-167529600D02*
X249690700Y-174029600D01*
X249690700Y-174029600D02*
X265670700Y-174029600D01*
%TO.C,K8\u002C4*%
X275068700Y-193841600D02*
X275068700Y-187341600D01*
X275068700Y-187341600D02*
X259088700Y-187341600D01*
X259088700Y-187341600D02*
X259088700Y-193841600D01*
X259088700Y-193841600D02*
X275068700Y-193841600D01*
%TO.C,K8\u002C5*%
X292023200Y-213336100D02*
X292023200Y-206836100D01*
X292023200Y-206836100D02*
X276043200Y-206836100D01*
X276043200Y-206836100D02*
X276043200Y-213336100D01*
X276043200Y-213336100D02*
X292023200Y-213336100D01*
%TO.C,K8\u002C2*%
X260781200Y-154598600D02*
X260781200Y-148098600D01*
X260781200Y-148098600D02*
X244801200Y-148098600D01*
X244801200Y-148098600D02*
X244801200Y-154598600D01*
X244801200Y-154598600D02*
X260781200Y-154598600D01*
%TO.C,K9\u002C0*%
X310628700Y-109577100D02*
X310628700Y-103077100D01*
X310628700Y-103077100D02*
X294648700Y-103077100D01*
X294648700Y-103077100D02*
X294648700Y-109577100D01*
X294648700Y-109577100D02*
X310628700Y-109577100D01*
%TO.C,K9\u002C5*%
X316153200Y-213272600D02*
X316153200Y-206772600D01*
X316153200Y-206772600D02*
X300173200Y-206772600D01*
X300173200Y-206772600D02*
X300173200Y-213272600D01*
X300173200Y-213272600D02*
X316153200Y-213272600D01*
%TO.C,K9\u002C1*%
X270052200Y-135358100D02*
X270052200Y-128858100D01*
X270052200Y-128858100D02*
X254072200Y-128858100D01*
X254072200Y-128858100D02*
X254072200Y-135358100D01*
X254072200Y-135358100D02*
X270052200Y-135358100D01*
%TO.C,K9\u002C2*%
X280085200Y-154598600D02*
X280085200Y-148098600D01*
X280085200Y-148098600D02*
X264105200Y-148098600D01*
X264105200Y-148098600D02*
X264105200Y-154598600D01*
X264105200Y-154598600D02*
X280085200Y-154598600D01*
%TO.C,K9\u002C4*%
X294372700Y-193841600D02*
X294372700Y-187341600D01*
X294372700Y-187341600D02*
X278392700Y-187341600D01*
X278392700Y-187341600D02*
X278392700Y-193841600D01*
X278392700Y-193841600D02*
X294372700Y-193841600D01*
%TO.C,K9\u002C3*%
X284974700Y-174029600D02*
X284974700Y-167529600D01*
X284974700Y-167529600D02*
X268994700Y-167529600D01*
X268994700Y-167529600D02*
X268994700Y-174029600D01*
X268994700Y-174029600D02*
X284974700Y-174029600D01*
%TO.C,K10\u002C2*%
X299389200Y-154598600D02*
X299389200Y-148098600D01*
X299389200Y-148098600D02*
X283409200Y-148098600D01*
X283409200Y-148098600D02*
X283409200Y-154598600D01*
X283409200Y-154598600D02*
X299389200Y-154598600D01*
%TO.C,K10\u002C0*%
X329932700Y-109577100D02*
X329932700Y-103077100D01*
X329932700Y-103077100D02*
X313952700Y-103077100D01*
X313952700Y-103077100D02*
X313952700Y-109577100D01*
X313952700Y-109577100D02*
X329932700Y-109577100D01*
%TO.C,K10\u002C5*%
X340346700Y-213272600D02*
X340346700Y-206772600D01*
X340346700Y-206772600D02*
X324366700Y-206772600D01*
X324366700Y-206772600D02*
X324366700Y-213272600D01*
X324366700Y-213272600D02*
X340346700Y-213272600D01*
%TO.C,K10\u002C1*%
X289356200Y-135358100D02*
X289356200Y-128858100D01*
X289356200Y-128858100D02*
X273376200Y-128858100D01*
X273376200Y-128858100D02*
X273376200Y-135358100D01*
X273376200Y-135358100D02*
X289356200Y-135358100D01*
%TO.C,K10\u002C4*%
X313676700Y-193841600D02*
X313676700Y-187341600D01*
X313676700Y-187341600D02*
X297696700Y-187341600D01*
X297696700Y-187341600D02*
X297696700Y-193841600D01*
X297696700Y-193841600D02*
X313676700Y-193841600D01*
%TO.C,K11\u002C3*%
X323582700Y-174029600D02*
X323582700Y-167529600D01*
X323582700Y-167529600D02*
X307602700Y-167529600D01*
X307602700Y-167529600D02*
X307602700Y-174029600D01*
X307602700Y-174029600D02*
X323582700Y-174029600D01*
%TO.C,K11\u002C2*%
X318693200Y-154598600D02*
X318693200Y-148098600D01*
X318693200Y-148098600D02*
X302713200Y-148098600D01*
X302713200Y-148098600D02*
X302713200Y-154598600D01*
X302713200Y-154598600D02*
X318693200Y-154598600D01*
%TO.C,K11\u002C5*%
X364413200Y-213272600D02*
X364413200Y-206772600D01*
X364413200Y-206772600D02*
X348433200Y-206772600D01*
X348433200Y-206772600D02*
X348433200Y-213272600D01*
X348433200Y-213272600D02*
X364413200Y-213272600D01*
%TO.C,K11\u002C1*%
X308660200Y-135358100D02*
X308660200Y-128858100D01*
X308660200Y-128858100D02*
X292680200Y-128858100D01*
X292680200Y-128858100D02*
X292680200Y-135358100D01*
X292680200Y-135358100D02*
X308660200Y-135358100D01*
%TO.C,K11\u002C0*%
X349236700Y-109577100D02*
X349236700Y-103077100D01*
X349236700Y-103077100D02*
X333256700Y-103077100D01*
X333256700Y-103077100D02*
X333256700Y-109577100D01*
X333256700Y-109577100D02*
X349236700Y-109577100D01*
%TO.C,K12\u002C2*%
X337997200Y-154598600D02*
X337997200Y-148098600D01*
X337997200Y-148098600D02*
X322017200Y-148098600D01*
X322017200Y-148098600D02*
X322017200Y-154598600D01*
X322017200Y-154598600D02*
X337997200Y-154598600D01*
%TO.C,K12\u002C0*%
X368540700Y-109577100D02*
X368540700Y-103077100D01*
X368540700Y-103077100D02*
X352560700Y-103077100D01*
X352560700Y-103077100D02*
X352560700Y-109577100D01*
X352560700Y-109577100D02*
X368540700Y-109577100D01*
%TO.C,K12\u002C1*%
X327964200Y-135358100D02*
X327964200Y-128858100D01*
X327964200Y-128858100D02*
X311984200Y-128858100D01*
X311984200Y-128858100D02*
X311984200Y-135358100D01*
X311984200Y-135358100D02*
X327964200Y-135358100D01*
%TO.C,K13\u002C2*%
X361936700Y-154611300D02*
X361936700Y-148111300D01*
X361936700Y-148111300D02*
X345956700Y-148111300D01*
X345956700Y-148111300D02*
X345956700Y-154611300D01*
X345956700Y-154611300D02*
X361936700Y-154611300D01*
%TO.C,K14\u002C6*%
X389521100Y-213145600D02*
X389521100Y-206645600D01*
X389521100Y-206645600D02*
X373541100Y-206645600D01*
X373541100Y-206645600D02*
X373541100Y-213145600D01*
X373541100Y-213145600D02*
X389521100Y-213145600D01*
%TO.C,K14\u002C3*%
X389584600Y-154598600D02*
X389584600Y-148098600D01*
X389584600Y-148098600D02*
X373604600Y-148098600D01*
X373604600Y-148098600D02*
X373604600Y-154598600D01*
X373604600Y-154598600D02*
X389584600Y-154598600D01*
%TO.C,K14\u002C0*%
X390981600Y-109577100D02*
X390981600Y-103077100D01*
X390981600Y-103077100D02*
X375001600Y-103077100D01*
X375001600Y-103077100D02*
X375001600Y-109577100D01*
X375001600Y-109577100D02*
X390981600Y-109577100D01*
%TO.C,K15\u002C6*%
X408825100Y-213145600D02*
X408825100Y-206645600D01*
X408825100Y-206645600D02*
X392845100Y-206645600D01*
X392845100Y-206645600D02*
X392845100Y-213145600D01*
X392845100Y-213145600D02*
X408825100Y-213145600D01*
%TO.C,K15\u002C3*%
X408888600Y-154598600D02*
X408888600Y-148098600D01*
X408888600Y-148098600D02*
X392908600Y-148098600D01*
X392908600Y-148098600D02*
X392908600Y-154598600D01*
X392908600Y-154598600D02*
X408888600Y-154598600D01*
%TO.C,K15\u002C5*%
X408825100Y-193841600D02*
X408825100Y-187341600D01*
X408825100Y-187341600D02*
X392845100Y-187341600D01*
X392845100Y-187341600D02*
X392845100Y-193841600D01*
X392845100Y-193841600D02*
X408825100Y-193841600D01*
%TO.C,K15\u002C1*%
X408888600Y-135358100D02*
X408888600Y-128858100D01*
X408888600Y-128858100D02*
X392908600Y-128858100D01*
X392908600Y-128858100D02*
X392908600Y-135358100D01*
X392908600Y-135358100D02*
X408888600Y-135358100D01*
%TO.C,K15\u002C0*%
X410539600Y-109577100D02*
X410539600Y-103077100D01*
X410539600Y-103077100D02*
X394559600Y-103077100D01*
X394559600Y-103077100D02*
X394559600Y-109577100D01*
X394559600Y-109577100D02*
X410539600Y-109577100D01*
%TO.C,K16\u002C4*%
X452068600Y-174029600D02*
X452068600Y-167529600D01*
X452068600Y-167529600D02*
X436088600Y-167529600D01*
X436088600Y-167529600D02*
X436088600Y-174029600D01*
X436088600Y-174029600D02*
X452068600Y-174029600D01*
%TO.C,K16\u002C5*%
X452068600Y-193333600D02*
X452068600Y-186833600D01*
X452068600Y-186833600D02*
X436088600Y-186833600D01*
X436088600Y-186833600D02*
X436088600Y-193333600D01*
X436088600Y-193333600D02*
X452068600Y-193333600D01*
%TO.C,K16\u002C3*%
X428192600Y-154598600D02*
X428192600Y-148098600D01*
X428192600Y-148098600D02*
X412212600Y-148098600D01*
X412212600Y-148098600D02*
X412212600Y-154598600D01*
X412212600Y-154598600D02*
X428192600Y-154598600D01*
%TO.C,K16\u002C0*%
X429843600Y-109577100D02*
X429843600Y-103077100D01*
X429843600Y-103077100D02*
X413863600Y-103077100D01*
X413863600Y-103077100D02*
X413863600Y-109577100D01*
X413863600Y-109577100D02*
X429843600Y-109577100D01*
%TO.C,K16\u002C6*%
X428129100Y-213145600D02*
X428129100Y-206645600D01*
X428129100Y-206645600D02*
X412149100Y-206645600D01*
X412149100Y-206645600D02*
X412149100Y-213145600D01*
X412149100Y-213145600D02*
X428129100Y-213145600D01*
%TO.C,K17\u002C6*%
X461593600Y-212637600D02*
X461593600Y-206137600D01*
X461593600Y-206137600D02*
X445613600Y-206137600D01*
X445613600Y-206137600D02*
X445613600Y-212637600D01*
X445613600Y-212637600D02*
X461593600Y-212637600D01*
%TO.C,K17\u002C5*%
X471372600Y-193333600D02*
X471372600Y-186833600D01*
X471372600Y-186833600D02*
X455392600Y-186833600D01*
X455392600Y-186833600D02*
X455392600Y-193333600D01*
X455392600Y-193333600D02*
X471372600Y-193333600D01*
%TO.C,K17\u002C4*%
X471372600Y-174029600D02*
X471372600Y-167529600D01*
X471372600Y-167529600D02*
X455392600Y-167529600D01*
X455392600Y-167529600D02*
X455392600Y-174029600D01*
X455392600Y-174029600D02*
X471372600Y-174029600D01*
%TO.C,K17\u002C3*%
X452068600Y-154725600D02*
X452068600Y-148225600D01*
X452068600Y-148225600D02*
X436088600Y-148225600D01*
X436088600Y-148225600D02*
X436088600Y-154725600D01*
X436088600Y-154725600D02*
X452068600Y-154725600D01*
%TO.C,K17\u002C1*%
X452068600Y-135358100D02*
X452068600Y-128858100D01*
X452068600Y-128858100D02*
X436088600Y-128858100D01*
X436088600Y-128858100D02*
X436088600Y-135358100D01*
X436088600Y-135358100D02*
X452068600Y-135358100D01*
%TO.C,K17\u002C0*%
X452005100Y-109577100D02*
X452005100Y-103077100D01*
X452005100Y-103077100D02*
X436025100Y-103077100D01*
X436025100Y-103077100D02*
X436025100Y-109577100D01*
X436025100Y-109577100D02*
X452005100Y-109577100D01*
%TO.C,K18\u002C6*%
X490676600Y-212637600D02*
X490676600Y-206137600D01*
X490676600Y-206137600D02*
X474696600Y-206137600D01*
X474696600Y-206137600D02*
X474696600Y-212637600D01*
X474696600Y-212637600D02*
X490676600Y-212637600D01*
%TO.C,K18\u002C3*%
X471372600Y-154725600D02*
X471372600Y-148225600D01*
X471372600Y-148225600D02*
X455392600Y-148225600D01*
X455392600Y-148225600D02*
X455392600Y-154725600D01*
X455392600Y-154725600D02*
X471372600Y-154725600D01*
%TO.C,K18\u002C1*%
X471372600Y-135358100D02*
X471372600Y-128858100D01*
X471372600Y-128858100D02*
X455392600Y-128858100D01*
X455392600Y-128858100D02*
X455392600Y-135358100D01*
X455392600Y-135358100D02*
X471372600Y-135358100D01*
%TO.C,K18\u002C5*%
X490676600Y-193333600D02*
X490676600Y-186833600D01*
X490676600Y-186833600D02*
X474696600Y-186833600D01*
X474696600Y-186833600D02*
X474696600Y-193333600D01*
X474696600Y-193333600D02*
X490676600Y-193333600D01*
%TO.C,K18\u002C0*%
X471309100Y-109577100D02*
X471309100Y-103077100D01*
X471309100Y-103077100D02*
X455329100Y-103077100D01*
X455329100Y-103077100D02*
X455329100Y-109577100D01*
X455329100Y-109577100D02*
X471309100Y-109577100D01*
%TO.C,K19\u002C6*%
X509980600Y-202985600D02*
X509980600Y-196485600D01*
X509980600Y-196485600D02*
X494000600Y-196485600D01*
X494000600Y-196485600D02*
X494000600Y-202985600D01*
X494000600Y-202985600D02*
X509980600Y-202985600D01*
%TO.C,K19\u002C0*%
X490613100Y-109577100D02*
X490613100Y-103077100D01*
X490613100Y-103077100D02*
X474633100Y-103077100D01*
X474633100Y-103077100D02*
X474633100Y-109577100D01*
X474633100Y-109577100D02*
X490613100Y-109577100D01*
%TO.C,K19\u002C3*%
X490676600Y-154725600D02*
X490676600Y-148225600D01*
X490676600Y-148225600D02*
X474696600Y-148225600D01*
X474696600Y-148225600D02*
X474696600Y-154725600D01*
X474696600Y-154725600D02*
X490676600Y-154725600D01*
%TO.C,K19\u002C1*%
X490676600Y-135358100D02*
X490676600Y-128858100D01*
X490676600Y-128858100D02*
X474696600Y-128858100D01*
X474696600Y-128858100D02*
X474696600Y-135358100D01*
X474696600Y-135358100D02*
X490676600Y-135358100D01*
%TO.C,K20\u002C0*%
X509917100Y-109577100D02*
X509917100Y-103077100D01*
X509917100Y-103077100D02*
X493937100Y-103077100D01*
X493937100Y-103077100D02*
X493937100Y-109577100D01*
X493937100Y-109577100D02*
X509917100Y-109577100D01*
%TO.C,K20\u002C1*%
X509980600Y-135358100D02*
X509980600Y-128858100D01*
X509980600Y-128858100D02*
X494000600Y-128858100D01*
X494000600Y-128858100D02*
X494000600Y-135358100D01*
X494000600Y-135358100D02*
X509980600Y-135358100D01*
%TO.C,U1*%
X113321200Y-103068000D02*
X113321200Y-121468000D01*
X113321200Y-121468000D02*
X101461200Y-121468000D01*
X101461200Y-121468000D02*
X101461200Y-103068000D01*
X101461200Y-103068000D02*
X113321200Y-103068000D01*
%TO.C,U11*%
X439234200Y-75040000D02*
X448394200Y-75040000D01*
X448394200Y-75040000D02*
X448394200Y-82440000D01*
X448394200Y-82440000D02*
X439234200Y-82440000D01*
X439234200Y-82440000D02*
X439234200Y-75040000D01*
%TO.C,U10*%
X453721200Y-76625000D02*
X453721200Y-82125000D01*
X457021200Y-76625000D02*
X453721200Y-76625000D01*
X457021200Y-82125000D02*
X457021200Y-76625000D01*
X453721200Y-82125000D02*
X457021200Y-82125000D01*
%TO.C,C4*%
X451584500Y-84366500D02*
X453544500Y-84366500D01*
X453544500Y-84366500D02*
X453544500Y-80606500D01*
X453544500Y-80606500D02*
X451584500Y-80606500D01*
X451584500Y-80606500D02*
X451584500Y-84366500D01*
%TO.C,C5*%
X439003000Y-78384000D02*
X437043000Y-78384000D01*
X437043000Y-78384000D02*
X437043000Y-82144000D01*
X437043000Y-82144000D02*
X439003000Y-82144000D01*
X439003000Y-82144000D02*
X439003000Y-78384000D01*
%TO.C,C7*%
X439066500Y-73113500D02*
X437106500Y-73113500D01*
X437106500Y-73113500D02*
X437106500Y-76873500D01*
X437106500Y-76873500D02*
X439066500Y-76873500D01*
X439066500Y-76873500D02*
X439066500Y-73113500D01*
%TO.C,R1*%
X457189000Y-79501500D02*
X457189000Y-84201500D01*
X457189000Y-79501500D02*
X458989000Y-79501500D01*
X458989000Y-84201500D02*
X457189000Y-84201500D01*
X458989000Y-84201500D02*
X458989000Y-79501500D01*
%TO.C,R2*%
X459221000Y-79501500D02*
X459221000Y-84201500D01*
X459221000Y-79501500D02*
X461021000Y-79501500D01*
X461021000Y-84201500D02*
X459221000Y-84201500D01*
X461021000Y-84201500D02*
X461021000Y-79501500D01*
%TO.C,R3*%
X462598000Y-77586000D02*
X457898000Y-77586000D01*
X462598000Y-77586000D02*
X462598000Y-79386000D01*
X457898000Y-79386000D02*
X457898000Y-77586000D01*
X457898000Y-79386000D02*
X462598000Y-79386000D01*
%TO.C,R4*%
X459370000Y-76327500D02*
X459370000Y-71627500D01*
X459370000Y-76327500D02*
X457570000Y-76327500D01*
X457570000Y-71627500D02*
X459370000Y-71627500D01*
X457570000Y-71627500D02*
X457570000Y-76327500D01*
%TO.C,R5*%
X457465000Y-76327500D02*
X457465000Y-71627500D01*
X457465000Y-76327500D02*
X455665000Y-76327500D01*
X455665000Y-71627500D02*
X457465000Y-71627500D01*
X455665000Y-71627500D02*
X455665000Y-76327500D01*
%TD*%
M02*
