M48
; DRILL file {KiCad (5.1.9)-1} date 03/21/21 14:48:53
; FORMAT={-:-/ absolute / inch / decimal}
; #@! TF.CreationDate,2021-03-21T14:48:53+10:00
; #@! TF.GenerationSoftware,Kicad,Pcbnew,(5.1.9)-1
; #@! TF.FileFunction,NonPlated,1,4,NPTH
FMAT,2
INCH
T1C0.0591
T2C0.0689
T3C0.0709
T4C0.1181
T5C0.1575
%
G90
G05
T1
X5.12Y-2.2206
X5.12Y-2.4116
T2
X3.4605Y-3.552
X3.4605Y-5.052
X3.5555Y-8.117
X3.6455Y-5.808
X3.7395Y-6.576
X3.8605Y-3.552
X3.8605Y-5.052
X3.9255Y-7.3545
X3.9555Y-8.117
X4.0455Y-5.808
X4.1395Y-6.576
X4.217Y-5.052
X4.3255Y-7.3545
X4.523Y-8.119
X4.588Y-5.809
X4.617Y-5.052
X4.7805Y-6.574
X4.923Y-8.119
X4.973Y-5.0515
X4.988Y-5.809
X5.028Y-3.554
X5.1505Y-7.354
X5.1805Y-6.574
X5.348Y-5.809
X5.373Y-5.0515
X5.428Y-3.554
X5.483Y-8.119
X5.5405Y-6.574
X5.5505Y-7.354
X5.713Y-5.0515
X5.748Y-5.809
X5.788Y-3.554
X5.883Y-8.119
X5.9105Y-7.354
X5.9405Y-6.574
X6.108Y-5.809
X6.113Y-5.0515
X6.188Y-3.554
X6.3005Y-6.574
X6.3105Y-7.354
X6.473Y-5.0515
X6.508Y-5.809
X6.548Y-3.554
X6.6705Y-7.354
X6.7005Y-6.574
X6.868Y-5.809
X6.873Y-5.0515
X6.948Y-3.554
X7.0605Y-6.574
X7.0705Y-7.354
X7.233Y-5.0515
X7.268Y-5.809
X7.308Y-3.554
X7.4305Y-7.354
X7.4605Y-6.574
X7.628Y-5.809
X7.633Y-5.0515
X7.708Y-3.554
X7.8205Y-6.574
X7.8305Y-7.354
X7.993Y-5.0515
X8.028Y-5.809
X8.1905Y-7.354
X8.2205Y-6.574
X8.313Y-8.119
X8.388Y-5.809
X8.393Y-5.0515
X8.548Y-3.554
X8.5805Y-6.574
X8.5905Y-7.354
X8.713Y-8.119
X8.753Y-5.0515
X8.788Y-5.809
X8.948Y-3.554
X8.9505Y-7.354
X8.9805Y-6.574
X9.148Y-5.809
X9.153Y-5.0515
X9.308Y-3.554
X9.3405Y-6.574
X9.3505Y-7.354
X9.513Y-5.0515
X9.548Y-5.809
X9.708Y-3.554
X9.7105Y-7.354
X9.7405Y-6.574
X9.908Y-5.809
X9.913Y-5.0515
X10.068Y-3.554
X10.1005Y-6.574
X10.1105Y-7.354
X10.273Y-5.0515
X10.308Y-5.809
X10.468Y-3.554
X10.4705Y-7.354
X10.5005Y-6.574
X10.668Y-5.809
X10.673Y-5.0515
X10.828Y-3.554
X10.8605Y-6.574
X10.8705Y-7.354
X11.033Y-5.0515
X11.068Y-5.809
X11.138Y-8.1215
X11.228Y-3.554
X11.2305Y-7.354
X11.2605Y-6.574
X11.428Y-5.809
X11.433Y-5.0515
X11.538Y-8.1215
X11.6205Y-6.574
X11.6305Y-7.354
X11.793Y-5.0515
X11.828Y-5.809
X11.868Y-3.554
X11.9905Y-7.354
X12.0205Y-6.574
X12.088Y-8.119
X12.188Y-5.809
X12.193Y-5.0515
X12.268Y-3.554
X12.3805Y-6.574
X12.3905Y-7.354
X12.488Y-8.119
X12.553Y-5.0515
X12.588Y-5.809
X12.628Y-3.554
X12.7805Y-6.574
X12.948Y-5.809
X12.953Y-5.0515
X13.028Y-3.554
X13.0405Y-8.119
X13.348Y-5.809
X13.388Y-3.554
X13.423Y-7.352
X13.4405Y-8.119
X13.613Y-6.5745
X13.6855Y-5.0495
X13.788Y-3.554
X13.823Y-7.352
X13.8905Y-5.8095
X13.988Y-8.119
X14.013Y-6.5745
X14.0855Y-5.0495
X14.148Y-3.554
X14.2905Y-5.8095
X14.388Y-8.119
X14.548Y-3.554
X15.1905Y-8.114
X15.193Y-5.0515
X15.193Y-5.809
X15.308Y-3.554
X15.5905Y-8.114
X15.593Y-5.0515
X15.593Y-5.809
X15.708Y-3.554
X15.9505Y-7.354
X15.9505Y-8.114
X15.953Y-5.0515
X15.953Y-5.809
X16.078Y-3.554
X16.3505Y-7.354
X16.3505Y-8.114
X16.353Y-5.0515
X16.353Y-5.809
X16.478Y-3.554
X16.7105Y-8.114
X16.713Y-5.0515
X16.713Y-5.809
X16.838Y-3.554
X17.1105Y-8.114
X17.113Y-5.0515
X17.113Y-5.809
X17.238Y-3.554
X18.008Y-3.554
X18.013Y-5.0515
X18.013Y-5.814
X18.013Y-6.574
X18.013Y-7.334
X18.388Y-8.094
X18.408Y-3.554
X18.413Y-5.0515
X18.413Y-5.814
X18.413Y-6.574
X18.413Y-7.334
X18.768Y-3.554
X18.773Y-5.0515
X18.773Y-5.814
X18.773Y-6.574
X18.773Y-7.334
X18.788Y-8.094
X19.168Y-3.554
X19.173Y-5.0515
X19.173Y-5.814
X19.173Y-6.574
X19.173Y-7.334
X19.528Y-3.554
X19.533Y-5.0515
X19.533Y-5.814
X19.533Y-6.5715
X19.533Y-7.334
X19.533Y-8.094
X19.928Y-3.554
X19.933Y-5.0515
X19.933Y-5.814
X19.933Y-6.5715
X19.933Y-7.334
X19.933Y-8.094
X20.288Y-3.554
X20.293Y-5.0515
X20.293Y-6.189
X20.293Y-7.714
X20.688Y-3.554
X20.693Y-5.0515
X20.693Y-6.189
X20.693Y-7.714
T3
X5.2393Y-2.2088
X5.2393Y-2.4234
T4
X3.5605Y-3.752
X3.5605Y-5.252
X3.6555Y-8.317
X3.7455Y-6.008
X3.8105Y-3.652
X3.8105Y-5.152
X3.8395Y-6.776
X3.9055Y-8.217
X3.9955Y-5.908
X4.0255Y-7.5545
X4.0895Y-6.676
X4.2755Y-7.4545
X4.317Y-5.252
X4.567Y-5.152
X4.623Y-8.319
X4.688Y-6.009
X4.873Y-8.219
X4.8805Y-6.774
X4.938Y-5.909
X5.073Y-5.2515
X5.128Y-3.754
X5.1305Y-6.674
X5.2505Y-7.554
X5.323Y-5.1515
X5.378Y-3.654
X5.448Y-6.009
X5.5005Y-7.454
X5.583Y-8.319
X5.6405Y-6.774
X5.698Y-5.909
X5.813Y-5.2515
X5.833Y-8.219
X5.888Y-3.754
X5.8905Y-6.674
X6.0105Y-7.554
X6.063Y-5.1515
X6.138Y-3.654
X6.208Y-6.009
X6.2605Y-7.454
X6.4005Y-6.774
X6.458Y-5.909
X6.573Y-5.2515
X6.648Y-3.754
X6.6505Y-6.674
X6.7705Y-7.554
X6.823Y-5.1515
X6.898Y-3.654
X6.968Y-6.009
X7.0205Y-7.454
X7.1605Y-6.774
X7.218Y-5.909
X7.333Y-5.2515
X7.408Y-3.754
X7.4105Y-6.674
X7.5305Y-7.554
X7.583Y-5.1515
X7.658Y-3.654
X7.728Y-6.009
X7.7805Y-7.454
X7.9205Y-6.774
X7.978Y-5.909
X8.093Y-5.2515
X8.1705Y-6.674
X8.2905Y-7.554
X8.343Y-5.1515
X8.413Y-8.319
X8.488Y-6.009
X8.5405Y-7.454
X8.648Y-3.754
X8.663Y-8.219
X8.6805Y-6.774
X8.738Y-5.909
X8.853Y-5.2515
X8.898Y-3.654
X8.9305Y-6.674
X9.0505Y-7.554
X9.103Y-5.1515
X9.248Y-6.009
X9.3005Y-7.454
X9.408Y-3.754
X9.4405Y-6.774
X9.498Y-5.909
X9.613Y-5.2515
X9.658Y-3.654
X9.6905Y-6.674
X9.8105Y-7.554
X9.863Y-5.1515
X10.008Y-6.009
X10.0605Y-7.454
X10.168Y-3.754
X10.2005Y-6.774
X10.258Y-5.909
X10.373Y-5.2515
X10.418Y-3.654
X10.4505Y-6.674
X10.5705Y-7.554
X10.623Y-5.1515
X10.768Y-6.009
X10.8205Y-7.454
X10.928Y-3.754
X10.9605Y-6.774
X11.018Y-5.909
X11.133Y-5.2515
X11.178Y-3.654
X11.2105Y-6.674
X11.238Y-8.3215
X11.3305Y-7.554
X11.383Y-5.1515
X11.488Y-8.2215
X11.528Y-6.009
X11.5805Y-7.454
X11.7205Y-6.774
X11.778Y-5.909
X11.893Y-5.2515
X11.968Y-3.754
X11.9705Y-6.674
X12.0905Y-7.554
X12.143Y-5.1515
X12.188Y-8.319
X12.218Y-3.654
X12.288Y-6.009
X12.3405Y-7.454
X12.438Y-8.219
X12.4805Y-6.774
X12.538Y-5.909
X12.653Y-5.2515
X12.728Y-3.754
X12.7305Y-6.674
X12.903Y-5.1515
X12.978Y-3.654
X13.048Y-6.009
X13.1405Y-8.319
X13.298Y-5.909
X13.3905Y-8.219
X13.488Y-3.754
X13.523Y-7.552
X13.713Y-6.7745
X13.738Y-3.654
X13.773Y-7.452
X13.7855Y-5.2495
X13.963Y-6.6745
X13.9905Y-6.0095
X14.0355Y-5.1495
X14.088Y-8.319
X14.2405Y-5.9095
X14.248Y-3.754
X14.338Y-8.219
X14.498Y-3.654
X15.2905Y-8.314
X15.293Y-5.2515
X15.293Y-6.009
X15.408Y-3.754
X15.5405Y-8.214
X15.543Y-5.1515
X15.543Y-5.909
X15.658Y-3.654
X16.0505Y-7.554
X16.0505Y-8.314
X16.053Y-5.2515
X16.053Y-6.009
X16.178Y-3.754
X16.3005Y-7.454
X16.3005Y-8.214
X16.303Y-5.1515
X16.303Y-5.909
X16.428Y-3.654
X16.8105Y-8.314
X16.813Y-5.2515
X16.813Y-6.009
X16.938Y-3.754
X17.0605Y-8.214
X17.063Y-5.1515
X17.063Y-5.909
X17.188Y-3.654
X18.108Y-3.754
X18.113Y-5.2515
X18.113Y-6.014
X18.113Y-6.774
X18.113Y-7.534
X18.358Y-3.654
X18.363Y-5.1515
X18.363Y-5.914
X18.363Y-6.674
X18.363Y-7.434
X18.488Y-8.294
X18.738Y-8.194
X18.868Y-3.754
X18.873Y-5.2515
X18.873Y-6.014
X18.873Y-6.774
X18.873Y-7.534
X19.118Y-3.654
X19.123Y-5.1515
X19.123Y-5.914
X19.123Y-6.674
X19.123Y-7.434
X19.628Y-3.754
X19.633Y-5.2515
X19.633Y-6.014
X19.633Y-6.7715
X19.633Y-7.534
X19.633Y-8.294
X19.878Y-3.654
X19.883Y-5.1515
X19.883Y-5.914
X19.883Y-6.6715
X19.883Y-7.434
X19.883Y-8.194
X20.388Y-3.754
X20.393Y-5.2515
X20.393Y-6.389
X20.393Y-7.914
X20.638Y-3.654
X20.643Y-5.1515
X20.643Y-6.289
X20.643Y-7.814
T5
X3.6605Y-3.552
X3.6605Y-5.052
X3.7555Y-8.117
X3.8455Y-5.808
X3.9395Y-6.576
X4.1255Y-7.3545
X4.417Y-5.052
X4.723Y-8.119
X4.788Y-5.809
X4.9805Y-6.574
X5.173Y-5.0515
X5.228Y-3.554
X5.3505Y-7.354
X5.548Y-5.809
X5.683Y-8.119
X5.7405Y-6.574
X5.913Y-5.0515
X5.988Y-3.554
X6.1105Y-7.354
X6.308Y-5.809
X6.5005Y-6.574
X6.673Y-5.0515
X6.748Y-3.554
X6.8705Y-7.354
X7.068Y-5.809
X7.2605Y-6.574
X7.433Y-5.0515
X7.508Y-3.554
X7.6305Y-7.354
X7.828Y-5.809
X8.0205Y-6.574
X8.193Y-5.0515
X8.3905Y-7.354
X8.513Y-8.119
X8.588Y-5.809
X8.748Y-3.554
X8.7805Y-6.574
X8.953Y-5.0515
X9.1505Y-7.354
X9.348Y-5.809
X9.508Y-3.554
X9.5405Y-6.574
X9.713Y-5.0515
X9.9105Y-7.354
X10.108Y-5.809
X10.268Y-3.554
X10.3005Y-6.574
X10.473Y-5.0515
X10.6705Y-7.354
X10.868Y-5.809
X11.028Y-3.554
X11.0605Y-6.574
X11.233Y-5.0515
X11.338Y-8.1215
X11.4305Y-7.354
X11.628Y-5.809
X11.8205Y-6.574
X11.993Y-5.0515
X12.068Y-3.554
X12.1905Y-7.354
X12.288Y-8.119
X12.388Y-5.809
X12.5805Y-6.574
X12.753Y-5.0515
X12.828Y-3.554
X13.148Y-5.809
X13.2405Y-8.119
X13.588Y-3.554
X13.623Y-7.352
X13.813Y-6.5745
X13.8855Y-5.0495
X14.0905Y-5.8095
X14.188Y-8.119
X14.348Y-3.554
X15.3905Y-8.114
X15.393Y-5.0515
X15.393Y-5.809
X15.508Y-3.554
X16.1505Y-7.354
X16.1505Y-8.114
X16.153Y-5.0515
X16.153Y-5.809
X16.278Y-3.554
X16.9105Y-8.114
X16.913Y-5.0515
X16.913Y-5.809
X17.038Y-3.554
X18.208Y-3.554
X18.213Y-5.0515
X18.213Y-5.814
X18.213Y-6.574
X18.213Y-7.334
X18.588Y-8.094
X18.968Y-3.554
X18.973Y-5.0515
X18.973Y-5.814
X18.973Y-6.574
X18.973Y-7.334
X19.728Y-3.554
X19.733Y-5.0515
X19.733Y-5.814
X19.733Y-6.5715
X19.733Y-7.334
X19.733Y-8.094
X20.488Y-3.554
X20.493Y-5.0515
X20.493Y-6.189
X20.493Y-7.714
T0
M30
