%TF.GenerationSoftware,KiCad,Pcbnew,(5.1.9)-1*%
%TF.CreationDate,2021-03-19T23:51:34+10:00*%
%TF.ProjectId,RedPyKeeb,52656450-794b-4656-9562-2e6b69636164,rev?*%
%TF.SameCoordinates,Original*%
%TF.FileFunction,Other,User*%
%FSLAX46Y46*%
G04 Gerber Fmt 4.6, Leading zero omitted, Abs format (unit mm)*
G04 Created by KiCad (PCBNEW (5.1.9)-1) date 2021-03-19 23:51:34*
%MOMM*%
%LPD*%
G01*
G04 APERTURE LIST*
%ADD10C,0.050000*%
%ADD11C,0.120000*%
G04 APERTURE END LIST*
D10*
%TO.C,U3*%
X-7898500Y-40266500D02*
X3961500Y-40266500D01*
X-7898500Y-58666500D02*
X-7898500Y-40266500D01*
X3961500Y-58666500D02*
X-7898500Y-58666500D01*
X3961500Y-40266500D02*
X3961500Y-58666500D01*
%TO.C,C3*%
X-4218500Y-38462000D02*
X281500Y-38462000D01*
X-4218500Y-38462000D02*
X-4218500Y-36712000D01*
X281500Y-36712000D02*
X281500Y-38462000D01*
X281500Y-36712000D02*
X-4218500Y-36712000D01*
%TO.C,K12\u002C3*%
X283587000Y-109983500D02*
X299567000Y-109983500D01*
X283587000Y-103483500D02*
X283587000Y-109983500D01*
X299567000Y-103483500D02*
X283587000Y-103483500D01*
X299567000Y-109983500D02*
X299567000Y-103483500D01*
D11*
%TO.C,U0*%
X23185500Y-5770500D02*
X75185500Y-5770500D01*
X23185500Y16229500D02*
X23185500Y-5770500D01*
X75185500Y16229500D02*
X23185500Y16229500D01*
X75185500Y-5770500D02*
X75185500Y16229500D01*
D10*
%TO.C,K0\u002C2*%
X30412500Y-90514400D02*
X46392500Y-90514400D01*
X30412500Y-84014400D02*
X30412500Y-90514400D01*
X46392500Y-84014400D02*
X30412500Y-84014400D01*
X46392500Y-90514400D02*
X46392500Y-84014400D01*
%TO.C,K18\u002C4*%
X433955000Y-109907300D02*
X449935000Y-109907300D01*
X433955000Y-103407300D02*
X433955000Y-109907300D01*
X449935000Y-103407300D02*
X433955000Y-103407300D01*
X449935000Y-109907300D02*
X449935000Y-103407300D01*
%TO.C,K10\u002C3*%
X232977500Y-109970800D02*
X248957500Y-109970800D01*
X232977500Y-103470800D02*
X232977500Y-109970800D01*
X248957500Y-103470800D02*
X232977500Y-103470800D01*
X248957500Y-109970800D02*
X248957500Y-103470800D01*
%TO.C,K13\u002C1*%
X285428500Y-71248500D02*
X301408500Y-71248500D01*
X285428500Y-64748500D02*
X285428500Y-71248500D01*
X301408500Y-64748500D02*
X285428500Y-64748500D01*
X301408500Y-71248500D02*
X301408500Y-64748500D01*
%TO.C,K19\u002C4*%
X453259000Y-100191800D02*
X469239000Y-100191800D01*
X453259000Y-93691800D02*
X453259000Y-100191800D01*
X469239000Y-93691800D02*
X453259000Y-93691800D01*
X469239000Y-100191800D02*
X469239000Y-93691800D01*
%TO.C,U2*%
X20090500Y-49967000D02*
X8230500Y-49967000D01*
X20090500Y-31567000D02*
X20090500Y-49967000D01*
X8230500Y-31567000D02*
X20090500Y-31567000D01*
X8230500Y-49967000D02*
X8230500Y-31567000D01*
%TO.C,K11\u002C4*%
X278761000Y-129732000D02*
X294741000Y-129732000D01*
X278761000Y-123232000D02*
X278761000Y-129732000D01*
X294741000Y-123232000D02*
X278761000Y-123232000D01*
X294741000Y-129732000D02*
X294741000Y-123232000D01*
%TO.C,C1*%
X12164500Y-53130500D02*
X16664500Y-53130500D01*
X12164500Y-53130500D02*
X12164500Y-51380500D01*
X16664500Y-51380500D02*
X16664500Y-53130500D01*
X16664500Y-51380500D02*
X12164500Y-51380500D01*
%TO.C,C2*%
X16918500Y-27768500D02*
X12418500Y-27768500D01*
X16918500Y-27768500D02*
X16918500Y-29518500D01*
X12418500Y-29518500D02*
X12418500Y-27768500D01*
X12418500Y-29518500D02*
X16918500Y-29518500D01*
%TO.C,J0*%
X89750000Y11325500D02*
X89750000Y-2174500D01*
X80550000Y11325500D02*
X89750000Y11325500D01*
X80550000Y-2174500D02*
X80550000Y11325500D01*
X89750000Y-2174500D02*
X80550000Y-2174500D01*
%TO.C,J1*%
X89750000Y-2461000D02*
X89750000Y-15961000D01*
X80550000Y-2461000D02*
X89750000Y-2461000D01*
X80550000Y-15961000D02*
X80550000Y-2461000D01*
X89750000Y-15961000D02*
X80550000Y-15961000D01*
%TO.C,K0\u002C0*%
X25713500Y-33212000D02*
X41693500Y-33212000D01*
X25713500Y-26712000D02*
X25713500Y-33212000D01*
X41693500Y-26712000D02*
X25713500Y-26712000D01*
X41693500Y-33212000D02*
X41693500Y-26712000D01*
%TO.C,K0\u002C1*%
X25713500Y-71312000D02*
X41693500Y-71312000D01*
X25713500Y-64812000D02*
X25713500Y-71312000D01*
X41693500Y-64812000D02*
X25713500Y-64812000D01*
X41693500Y-71312000D02*
X41693500Y-64812000D01*
%TO.C,K0\u002C5*%
X28126500Y-149163000D02*
X44106500Y-149163000D01*
X28126500Y-142663000D02*
X28126500Y-149163000D01*
X44106500Y-142663000D02*
X28126500Y-142663000D01*
X44106500Y-149163000D02*
X44106500Y-142663000D01*
%TO.C,K0\u002C4*%
X37524500Y-129795500D02*
X53504500Y-129795500D01*
X37524500Y-123295500D02*
X37524500Y-129795500D01*
X53504500Y-123295500D02*
X37524500Y-123295500D01*
X53504500Y-129795500D02*
X53504500Y-123295500D01*
%TO.C,K0\u002C3*%
X32800100Y-110021600D02*
X48780100Y-110021600D01*
X32800100Y-103521600D02*
X32800100Y-110021600D01*
X48780100Y-103521600D02*
X32800100Y-103521600D01*
X48780100Y-110021600D02*
X48780100Y-103521600D01*
%TO.C,K1\u002C4*%
X68639500Y-129782800D02*
X84619500Y-129782800D01*
X68639500Y-123282800D02*
X68639500Y-129782800D01*
X84619500Y-123282800D02*
X68639500Y-123282800D01*
X84619500Y-129782800D02*
X84619500Y-123282800D01*
%TO.C,K1\u002C5*%
X52701000Y-149213800D02*
X68681000Y-149213800D01*
X52701000Y-142713800D02*
X52701000Y-149213800D01*
X68681000Y-142713800D02*
X52701000Y-142713800D01*
X68681000Y-149213800D02*
X68681000Y-142713800D01*
%TO.C,K1\u002C3*%
X59241500Y-109970800D02*
X75221500Y-109970800D01*
X59241500Y-103470800D02*
X59241500Y-109970800D01*
X75221500Y-103470800D02*
X59241500Y-103470800D01*
X75221500Y-109970800D02*
X75221500Y-103470800D01*
%TO.C,K1\u002C2*%
X54352000Y-90539800D02*
X70332000Y-90539800D01*
X54352000Y-84039800D02*
X54352000Y-90539800D01*
X70332000Y-84039800D02*
X54352000Y-84039800D01*
X70332000Y-90539800D02*
X70332000Y-84039800D01*
%TO.C,K1\u002C1*%
X44928600Y-71312000D02*
X60908600Y-71312000D01*
X44928600Y-64812000D02*
X44928600Y-71312000D01*
X60908600Y-64812000D02*
X44928600Y-64812000D01*
X60908600Y-71312000D02*
X60908600Y-64812000D01*
%TO.C,K1\u002C0*%
X65528000Y-33262800D02*
X81508000Y-33262800D01*
X65528000Y-26762800D02*
X65528000Y-33262800D01*
X81508000Y-26762800D02*
X65528000Y-26762800D01*
X81508000Y-33262800D02*
X81508000Y-26762800D01*
%TO.C,K2\u002C5*%
X77085000Y-149213800D02*
X93065000Y-149213800D01*
X77085000Y-142713800D02*
X77085000Y-149213800D01*
X93065000Y-142713800D02*
X77085000Y-142713800D01*
X93065000Y-149213800D02*
X93065000Y-142713800D01*
%TO.C,K2\u002C3*%
X78545500Y-109970800D02*
X94525500Y-109970800D01*
X78545500Y-103470800D02*
X78545500Y-109970800D01*
X94525500Y-103470800D02*
X78545500Y-103470800D01*
X94525500Y-109970800D02*
X94525500Y-103470800D01*
%TO.C,K2\u002C1*%
X64131000Y-71299300D02*
X80111000Y-71299300D01*
X64131000Y-64799300D02*
X64131000Y-71299300D01*
X80111000Y-64799300D02*
X64131000Y-64799300D01*
X80111000Y-71299300D02*
X80111000Y-64799300D01*
%TO.C,K2\u002C4*%
X87943500Y-129782800D02*
X103923500Y-129782800D01*
X87943500Y-123282800D02*
X87943500Y-129782800D01*
X103923500Y-123282800D02*
X87943500Y-123282800D01*
X103923500Y-129782800D02*
X103923500Y-123282800D01*
%TO.C,K2\u002C2*%
X73656000Y-90539800D02*
X89636000Y-90539800D01*
X73656000Y-84039800D02*
X73656000Y-90539800D01*
X89636000Y-84039800D02*
X73656000Y-84039800D01*
X89636000Y-90539800D02*
X89636000Y-84039800D01*
%TO.C,K2\u002C0*%
X84832000Y-33262800D02*
X100812000Y-33262800D01*
X84832000Y-26762800D02*
X84832000Y-33262800D01*
X100812000Y-26762800D02*
X84832000Y-26762800D01*
X100812000Y-33262800D02*
X100812000Y-26762800D01*
%TO.C,K3\u002C5*%
X148967000Y-149213800D02*
X164947000Y-149213800D01*
X148967000Y-142713800D02*
X148967000Y-149213800D01*
X164947000Y-142713800D02*
X148967000Y-142713800D01*
X164947000Y-149213800D02*
X164947000Y-142713800D01*
%TO.C,K3\u002C4*%
X107247500Y-129782800D02*
X123227500Y-129782800D01*
X107247500Y-123282800D02*
X107247500Y-129782800D01*
X123227500Y-123282800D02*
X107247500Y-123282800D01*
X123227500Y-129782800D02*
X123227500Y-123282800D01*
%TO.C,K3\u002C2*%
X92960000Y-90539800D02*
X108940000Y-90539800D01*
X92960000Y-84039800D02*
X92960000Y-90539800D01*
X108940000Y-84039800D02*
X92960000Y-84039800D01*
X108940000Y-90539800D02*
X108940000Y-84039800D01*
%TO.C,K3\u002C1*%
X82927000Y-71299300D02*
X98907000Y-71299300D01*
X82927000Y-64799300D02*
X82927000Y-71299300D01*
X98907000Y-64799300D02*
X82927000Y-64799300D01*
X98907000Y-71299300D02*
X98907000Y-64799300D01*
%TO.C,K3\u002C0*%
X104136000Y-33262800D02*
X120116000Y-33262800D01*
X104136000Y-26762800D02*
X104136000Y-33262800D01*
X120116000Y-26762800D02*
X104136000Y-26762800D01*
X120116000Y-33262800D02*
X120116000Y-26762800D01*
%TO.C,K3\u002C3*%
X97849500Y-109970800D02*
X113829500Y-109970800D01*
X97849500Y-103470800D02*
X97849500Y-109970800D01*
X113829500Y-103470800D02*
X97849500Y-103470800D01*
X113829500Y-109970800D02*
X113829500Y-103470800D01*
%TO.C,K4\u002C1*%
X102231000Y-71299300D02*
X118211000Y-71299300D01*
X102231000Y-64799300D02*
X102231000Y-71299300D01*
X118211000Y-64799300D02*
X102231000Y-64799300D01*
X118211000Y-71299300D02*
X118211000Y-64799300D01*
%TO.C,K4\u002C2*%
X128244000Y-90539800D02*
X128244000Y-84039800D01*
X128244000Y-84039800D02*
X112264000Y-84039800D01*
X112264000Y-84039800D02*
X112264000Y-90539800D01*
X112264000Y-90539800D02*
X128244000Y-90539800D01*
%TO.C,K4\u002C3*%
X117153500Y-109970800D02*
X133133500Y-109970800D01*
X117153500Y-103470800D02*
X117153500Y-109970800D01*
X133133500Y-103470800D02*
X117153500Y-103470800D01*
X133133500Y-109970800D02*
X133133500Y-103470800D01*
%TO.C,K4\u002C4*%
X126551500Y-129782800D02*
X142531500Y-129782800D01*
X126551500Y-123282800D02*
X126551500Y-129782800D01*
X142531500Y-123282800D02*
X126551500Y-123282800D01*
X142531500Y-129782800D02*
X142531500Y-123282800D01*
%TO.C,K4\u002C0*%
X123440000Y-33262800D02*
X139420000Y-33262800D01*
X123440000Y-26762800D02*
X123440000Y-33262800D01*
X139420000Y-26762800D02*
X123440000Y-26762800D01*
X139420000Y-33262800D02*
X139420000Y-26762800D01*
%TO.C,K5\u002C0*%
X154936000Y-33262800D02*
X170916000Y-33262800D01*
X154936000Y-26762800D02*
X154936000Y-33262800D01*
X170916000Y-26762800D02*
X154936000Y-26762800D01*
X170916000Y-33262800D02*
X170916000Y-26762800D01*
%TO.C,K5\u002C2*%
X147548000Y-90539800D02*
X147548000Y-84039800D01*
X147548000Y-84039800D02*
X131568000Y-84039800D01*
X131568000Y-84039800D02*
X131568000Y-90539800D01*
X131568000Y-90539800D02*
X147548000Y-90539800D01*
%TO.C,K5\u002C1*%
X121535000Y-71299300D02*
X137515000Y-71299300D01*
X121535000Y-64799300D02*
X121535000Y-71299300D01*
X137515000Y-64799300D02*
X121535000Y-64799300D01*
X137515000Y-71299300D02*
X137515000Y-64799300D01*
%TO.C,K5\u002C3*%
X136457500Y-109970800D02*
X152437500Y-109970800D01*
X136457500Y-103470800D02*
X136457500Y-109970800D01*
X152437500Y-103470800D02*
X136457500Y-103470800D01*
X152437500Y-109970800D02*
X152437500Y-103470800D01*
%TO.C,K5\u002C4*%
X145855500Y-129782800D02*
X161835500Y-129782800D01*
X145855500Y-123282800D02*
X145855500Y-129782800D01*
X161835500Y-123282800D02*
X145855500Y-123282800D01*
X161835500Y-129782800D02*
X161835500Y-123282800D01*
%TO.C,K6\u002C3*%
X155761500Y-109970800D02*
X171741500Y-109970800D01*
X155761500Y-103470800D02*
X155761500Y-109970800D01*
X171741500Y-103470800D02*
X155761500Y-103470800D01*
X171741500Y-109970800D02*
X171741500Y-103470800D01*
%TO.C,K6\u002C4*%
X165159500Y-129782800D02*
X181139500Y-129782800D01*
X165159500Y-123282800D02*
X165159500Y-129782800D01*
X181139500Y-123282800D02*
X165159500Y-123282800D01*
X181139500Y-129782800D02*
X181139500Y-123282800D01*
%TO.C,K6\u002C1*%
X140839000Y-71299300D02*
X156819000Y-71299300D01*
X140839000Y-64799300D02*
X140839000Y-71299300D01*
X156819000Y-64799300D02*
X140839000Y-64799300D01*
X156819000Y-71299300D02*
X156819000Y-64799300D01*
%TO.C,K6\u002C2*%
X166852000Y-90539800D02*
X166852000Y-84039800D01*
X166852000Y-84039800D02*
X150872000Y-84039800D01*
X150872000Y-84039800D02*
X150872000Y-90539800D01*
X150872000Y-90539800D02*
X166852000Y-90539800D01*
%TO.C,K6\u002C0*%
X174240000Y-33262800D02*
X190220000Y-33262800D01*
X174240000Y-26762800D02*
X174240000Y-33262800D01*
X190220000Y-26762800D02*
X174240000Y-26762800D01*
X190220000Y-33262800D02*
X190220000Y-26762800D01*
%TO.C,K7\u002C2*%
X186156000Y-90539800D02*
X186156000Y-84039800D01*
X186156000Y-84039800D02*
X170176000Y-84039800D01*
X170176000Y-84039800D02*
X170176000Y-90539800D01*
X170176000Y-90539800D02*
X186156000Y-90539800D01*
%TO.C,K7\u002C1*%
X160143000Y-71299300D02*
X176123000Y-71299300D01*
X160143000Y-64799300D02*
X160143000Y-71299300D01*
X176123000Y-64799300D02*
X160143000Y-64799300D01*
X176123000Y-71299300D02*
X176123000Y-64799300D01*
%TO.C,K7\u002C3*%
X175065500Y-109970800D02*
X191045500Y-109970800D01*
X175065500Y-103470800D02*
X175065500Y-109970800D01*
X191045500Y-103470800D02*
X175065500Y-103470800D01*
X191045500Y-109970800D02*
X191045500Y-103470800D01*
%TO.C,K7\u002C4*%
X184463500Y-129782800D02*
X200443500Y-129782800D01*
X184463500Y-123282800D02*
X184463500Y-129782800D01*
X200443500Y-123282800D02*
X184463500Y-123282800D01*
X200443500Y-129782800D02*
X200443500Y-123282800D01*
%TO.C,K7\u002C0*%
X193544000Y-33262800D02*
X209524000Y-33262800D01*
X193544000Y-26762800D02*
X193544000Y-33262800D01*
X209524000Y-26762800D02*
X193544000Y-26762800D01*
X209524000Y-33262800D02*
X209524000Y-26762800D01*
%TO.C,K8\u002C0*%
X212848000Y-33262800D02*
X228828000Y-33262800D01*
X212848000Y-26762800D02*
X212848000Y-33262800D01*
X228828000Y-26762800D02*
X212848000Y-26762800D01*
X228828000Y-33262800D02*
X228828000Y-26762800D01*
%TO.C,K8\u002C1*%
X179447000Y-71299300D02*
X195427000Y-71299300D01*
X179447000Y-64799300D02*
X179447000Y-71299300D01*
X195427000Y-64799300D02*
X179447000Y-64799300D01*
X195427000Y-71299300D02*
X195427000Y-64799300D01*
%TO.C,K8\u002C3*%
X194369500Y-109970800D02*
X210349500Y-109970800D01*
X194369500Y-103470800D02*
X194369500Y-109970800D01*
X210349500Y-103470800D02*
X194369500Y-103470800D01*
X210349500Y-109970800D02*
X210349500Y-103470800D01*
%TO.C,K8\u002C4*%
X203767500Y-129782800D02*
X219747500Y-129782800D01*
X203767500Y-123282800D02*
X203767500Y-129782800D01*
X219747500Y-123282800D02*
X203767500Y-123282800D01*
X219747500Y-129782800D02*
X219747500Y-123282800D01*
%TO.C,K8\u002C5*%
X220722000Y-149277300D02*
X236702000Y-149277300D01*
X220722000Y-142777300D02*
X220722000Y-149277300D01*
X236702000Y-142777300D02*
X220722000Y-142777300D01*
X236702000Y-149277300D02*
X236702000Y-142777300D01*
%TO.C,K8\u002C2*%
X205460000Y-90539800D02*
X205460000Y-84039800D01*
X205460000Y-84039800D02*
X189480000Y-84039800D01*
X189480000Y-84039800D02*
X189480000Y-90539800D01*
X189480000Y-90539800D02*
X205460000Y-90539800D01*
%TO.C,K9\u002C0*%
X239264000Y-33262800D02*
X255244000Y-33262800D01*
X239264000Y-26762800D02*
X239264000Y-33262800D01*
X255244000Y-26762800D02*
X239264000Y-26762800D01*
X255244000Y-33262800D02*
X255244000Y-26762800D01*
%TO.C,K9\u002C5*%
X244852000Y-149213800D02*
X260832000Y-149213800D01*
X244852000Y-142713800D02*
X244852000Y-149213800D01*
X260832000Y-142713800D02*
X244852000Y-142713800D01*
X260832000Y-149213800D02*
X260832000Y-142713800D01*
%TO.C,K9\u002C1*%
X198751000Y-71299300D02*
X214731000Y-71299300D01*
X198751000Y-64799300D02*
X198751000Y-71299300D01*
X214731000Y-64799300D02*
X198751000Y-64799300D01*
X214731000Y-71299300D02*
X214731000Y-64799300D01*
%TO.C,K9\u002C2*%
X224764000Y-90539800D02*
X224764000Y-84039800D01*
X224764000Y-84039800D02*
X208784000Y-84039800D01*
X208784000Y-84039800D02*
X208784000Y-90539800D01*
X208784000Y-90539800D02*
X224764000Y-90539800D01*
%TO.C,K9\u002C4*%
X223071500Y-129782800D02*
X239051500Y-129782800D01*
X223071500Y-123282800D02*
X223071500Y-129782800D01*
X239051500Y-123282800D02*
X223071500Y-123282800D01*
X239051500Y-129782800D02*
X239051500Y-123282800D01*
%TO.C,K9\u002C3*%
X213673500Y-109970800D02*
X229653500Y-109970800D01*
X213673500Y-103470800D02*
X213673500Y-109970800D01*
X229653500Y-103470800D02*
X213673500Y-103470800D01*
X229653500Y-109970800D02*
X229653500Y-103470800D01*
%TO.C,K10\u002C2*%
X244068000Y-90539800D02*
X244068000Y-84039800D01*
X244068000Y-84039800D02*
X228088000Y-84039800D01*
X228088000Y-84039800D02*
X228088000Y-90539800D01*
X228088000Y-90539800D02*
X244068000Y-90539800D01*
%TO.C,K10\u002C0*%
X258568000Y-33262800D02*
X274548000Y-33262800D01*
X258568000Y-26762800D02*
X258568000Y-33262800D01*
X274548000Y-26762800D02*
X258568000Y-26762800D01*
X274548000Y-33262800D02*
X274548000Y-26762800D01*
%TO.C,K10\u002C5*%
X269045500Y-149213800D02*
X285025500Y-149213800D01*
X269045500Y-142713800D02*
X269045500Y-149213800D01*
X285025500Y-142713800D02*
X269045500Y-142713800D01*
X285025500Y-149213800D02*
X285025500Y-142713800D01*
%TO.C,K10\u002C1*%
X218055000Y-71299300D02*
X234035000Y-71299300D01*
X218055000Y-64799300D02*
X218055000Y-71299300D01*
X234035000Y-64799300D02*
X218055000Y-64799300D01*
X234035000Y-71299300D02*
X234035000Y-64799300D01*
%TO.C,K10\u002C4*%
X242375500Y-129782800D02*
X258355500Y-129782800D01*
X242375500Y-123282800D02*
X242375500Y-129782800D01*
X258355500Y-123282800D02*
X242375500Y-123282800D01*
X258355500Y-129782800D02*
X258355500Y-123282800D01*
%TO.C,K11\u002C3*%
X252281500Y-109970800D02*
X268261500Y-109970800D01*
X252281500Y-103470800D02*
X252281500Y-109970800D01*
X268261500Y-103470800D02*
X252281500Y-103470800D01*
X268261500Y-109970800D02*
X268261500Y-103470800D01*
%TO.C,K11\u002C2*%
X263372000Y-90539800D02*
X263372000Y-84039800D01*
X263372000Y-84039800D02*
X247392000Y-84039800D01*
X247392000Y-84039800D02*
X247392000Y-90539800D01*
X247392000Y-90539800D02*
X263372000Y-90539800D01*
%TO.C,K11\u002C5*%
X293112000Y-149213800D02*
X309092000Y-149213800D01*
X293112000Y-142713800D02*
X293112000Y-149213800D01*
X309092000Y-142713800D02*
X293112000Y-142713800D01*
X309092000Y-149213800D02*
X309092000Y-142713800D01*
%TO.C,K11\u002C1*%
X237359000Y-71299300D02*
X253339000Y-71299300D01*
X237359000Y-64799300D02*
X237359000Y-71299300D01*
X253339000Y-64799300D02*
X237359000Y-64799300D01*
X253339000Y-71299300D02*
X253339000Y-64799300D01*
%TO.C,K11\u002C0*%
X277872000Y-33262800D02*
X293852000Y-33262800D01*
X277872000Y-26762800D02*
X277872000Y-33262800D01*
X293852000Y-26762800D02*
X277872000Y-26762800D01*
X293852000Y-33262800D02*
X293852000Y-26762800D01*
%TO.C,K12\u002C2*%
X282676000Y-90539800D02*
X282676000Y-84039800D01*
X282676000Y-84039800D02*
X266696000Y-84039800D01*
X266696000Y-84039800D02*
X266696000Y-90539800D01*
X266696000Y-90539800D02*
X282676000Y-90539800D01*
%TO.C,K12\u002C0*%
X297176000Y-33262800D02*
X313156000Y-33262800D01*
X297176000Y-26762800D02*
X297176000Y-33262800D01*
X313156000Y-26762800D02*
X297176000Y-26762800D01*
X313156000Y-33262800D02*
X313156000Y-26762800D01*
%TO.C,K12\u002C1*%
X256663000Y-71299300D02*
X272643000Y-71299300D01*
X256663000Y-64799300D02*
X256663000Y-71299300D01*
X272643000Y-64799300D02*
X256663000Y-64799300D01*
X272643000Y-71299300D02*
X272643000Y-64799300D01*
%TO.C,K13\u002C2*%
X306615500Y-90552500D02*
X306615500Y-84052500D01*
X306615500Y-84052500D02*
X290635500Y-84052500D01*
X290635500Y-84052500D02*
X290635500Y-90552500D01*
X290635500Y-90552500D02*
X306615500Y-90552500D01*
%TO.C,K14\u002C1*%
X323719000Y-71299300D02*
X339699000Y-71299300D01*
X323719000Y-64799300D02*
X323719000Y-71299300D01*
X339699000Y-64799300D02*
X323719000Y-64799300D01*
X339699000Y-71299300D02*
X339699000Y-64799300D01*
%TO.C,K14\u002C6*%
X323655500Y-149086800D02*
X339635500Y-149086800D01*
X323655500Y-142586800D02*
X323655500Y-149086800D01*
X339635500Y-142586800D02*
X323655500Y-142586800D01*
X339635500Y-149086800D02*
X339635500Y-142586800D01*
%TO.C,K14\u002C3*%
X323719000Y-90539800D02*
X339699000Y-90539800D01*
X323719000Y-84039800D02*
X323719000Y-90539800D01*
X339699000Y-84039800D02*
X323719000Y-84039800D01*
X339699000Y-90539800D02*
X339699000Y-84039800D01*
%TO.C,K14\u002C0*%
X326640000Y-33262800D02*
X342620000Y-33262800D01*
X326640000Y-26762800D02*
X326640000Y-33262800D01*
X342620000Y-26762800D02*
X326640000Y-26762800D01*
X342620000Y-33262800D02*
X342620000Y-26762800D01*
%TO.C,K15\u002C6*%
X342959500Y-149086800D02*
X358939500Y-149086800D01*
X342959500Y-142586800D02*
X342959500Y-149086800D01*
X358939500Y-142586800D02*
X342959500Y-142586800D01*
X358939500Y-149086800D02*
X358939500Y-142586800D01*
%TO.C,K15\u002C3*%
X343023000Y-90539800D02*
X359003000Y-90539800D01*
X343023000Y-84039800D02*
X343023000Y-90539800D01*
X359003000Y-84039800D02*
X343023000Y-84039800D01*
X359003000Y-90539800D02*
X359003000Y-84039800D01*
%TO.C,K15\u002C5*%
X342959500Y-129782800D02*
X358939500Y-129782800D01*
X342959500Y-123282800D02*
X342959500Y-129782800D01*
X358939500Y-123282800D02*
X342959500Y-123282800D01*
X358939500Y-129782800D02*
X358939500Y-123282800D01*
%TO.C,K15\u002C1*%
X343023000Y-71299300D02*
X359003000Y-71299300D01*
X343023000Y-64799300D02*
X343023000Y-71299300D01*
X359003000Y-64799300D02*
X343023000Y-64799300D01*
X359003000Y-71299300D02*
X359003000Y-64799300D01*
%TO.C,K15\u002C0*%
X346198000Y-33262800D02*
X362178000Y-33262800D01*
X346198000Y-26762800D02*
X346198000Y-33262800D01*
X362178000Y-26762800D02*
X346198000Y-26762800D01*
X362178000Y-33262800D02*
X362178000Y-26762800D01*
%TO.C,K16\u002C4*%
X395347000Y-109970800D02*
X411327000Y-109970800D01*
X395347000Y-103470800D02*
X395347000Y-109970800D01*
X411327000Y-103470800D02*
X395347000Y-103470800D01*
X411327000Y-109970800D02*
X411327000Y-103470800D01*
%TO.C,K16\u002C1*%
X362327000Y-71299300D02*
X378307000Y-71299300D01*
X362327000Y-64799300D02*
X362327000Y-71299300D01*
X378307000Y-64799300D02*
X362327000Y-64799300D01*
X378307000Y-71299300D02*
X378307000Y-64799300D01*
%TO.C,K16\u002C5*%
X395347000Y-129274800D02*
X411327000Y-129274800D01*
X395347000Y-122774800D02*
X395347000Y-129274800D01*
X411327000Y-122774800D02*
X395347000Y-122774800D01*
X411327000Y-129274800D02*
X411327000Y-122774800D01*
%TO.C,K16\u002C3*%
X362327000Y-90539800D02*
X378307000Y-90539800D01*
X362327000Y-84039800D02*
X362327000Y-90539800D01*
X378307000Y-84039800D02*
X362327000Y-84039800D01*
X378307000Y-90539800D02*
X378307000Y-84039800D01*
%TO.C,K16\u002C0*%
X365502000Y-33262800D02*
X381482000Y-33262800D01*
X365502000Y-26762800D02*
X365502000Y-33262800D01*
X381482000Y-26762800D02*
X365502000Y-26762800D01*
X381482000Y-33262800D02*
X381482000Y-26762800D01*
%TO.C,K16\u002C6*%
X362263500Y-149086800D02*
X378243500Y-149086800D01*
X362263500Y-142586800D02*
X362263500Y-149086800D01*
X378243500Y-142586800D02*
X362263500Y-142586800D01*
X378243500Y-149086800D02*
X378243500Y-142586800D01*
%TO.C,K17\u002C6*%
X404872000Y-148578800D02*
X420852000Y-148578800D01*
X404872000Y-142078800D02*
X404872000Y-148578800D01*
X420852000Y-142078800D02*
X404872000Y-142078800D01*
X420852000Y-148578800D02*
X420852000Y-142078800D01*
%TO.C,K17\u002C5*%
X414651000Y-129274800D02*
X430631000Y-129274800D01*
X414651000Y-122774800D02*
X414651000Y-129274800D01*
X430631000Y-122774800D02*
X414651000Y-122774800D01*
X430631000Y-129274800D02*
X430631000Y-122774800D01*
%TO.C,K17\u002C4*%
X414651000Y-109970800D02*
X430631000Y-109970800D01*
X414651000Y-103470800D02*
X414651000Y-109970800D01*
X430631000Y-103470800D02*
X414651000Y-103470800D01*
X430631000Y-109970800D02*
X430631000Y-103470800D01*
%TO.C,K17\u002C3*%
X395347000Y-90666800D02*
X411327000Y-90666800D01*
X395347000Y-84166800D02*
X395347000Y-90666800D01*
X411327000Y-84166800D02*
X395347000Y-84166800D01*
X411327000Y-90666800D02*
X411327000Y-84166800D01*
%TO.C,K17\u002C1*%
X395347000Y-71299300D02*
X411327000Y-71299300D01*
X395347000Y-64799300D02*
X395347000Y-71299300D01*
X411327000Y-64799300D02*
X395347000Y-64799300D01*
X411327000Y-71299300D02*
X411327000Y-64799300D01*
%TO.C,K17\u002C0*%
X395220000Y-33262800D02*
X411200000Y-33262800D01*
X395220000Y-26762800D02*
X395220000Y-33262800D01*
X411200000Y-26762800D02*
X395220000Y-26762800D01*
X411200000Y-33262800D02*
X411200000Y-26762800D01*
%TO.C,K18\u002C6*%
X433955000Y-148578800D02*
X449935000Y-148578800D01*
X433955000Y-142078800D02*
X433955000Y-148578800D01*
X449935000Y-142078800D02*
X433955000Y-142078800D01*
X449935000Y-148578800D02*
X449935000Y-142078800D01*
%TO.C,K18\u002C3*%
X414651000Y-90666800D02*
X430631000Y-90666800D01*
X414651000Y-84166800D02*
X414651000Y-90666800D01*
X430631000Y-84166800D02*
X414651000Y-84166800D01*
X430631000Y-90666800D02*
X430631000Y-84166800D01*
%TO.C,K18\u002C1*%
X414651000Y-71299300D02*
X430631000Y-71299300D01*
X414651000Y-64799300D02*
X414651000Y-71299300D01*
X430631000Y-64799300D02*
X414651000Y-64799300D01*
X430631000Y-71299300D02*
X430631000Y-64799300D01*
%TO.C,K18\u002C5*%
X433955000Y-129274800D02*
X449935000Y-129274800D01*
X433955000Y-122774800D02*
X433955000Y-129274800D01*
X449935000Y-122774800D02*
X433955000Y-122774800D01*
X449935000Y-129274800D02*
X449935000Y-122774800D01*
%TO.C,K18\u002C0*%
X414524000Y-33262800D02*
X430504000Y-33262800D01*
X414524000Y-26762800D02*
X414524000Y-33262800D01*
X430504000Y-26762800D02*
X414524000Y-26762800D01*
X430504000Y-33262800D02*
X430504000Y-26762800D01*
%TO.C,K19\u002C6*%
X453259000Y-138926800D02*
X469239000Y-138926800D01*
X453259000Y-132426800D02*
X453259000Y-138926800D01*
X469239000Y-132426800D02*
X453259000Y-132426800D01*
X469239000Y-138926800D02*
X469239000Y-132426800D01*
%TO.C,K19\u002C0*%
X433828000Y-33262800D02*
X449808000Y-33262800D01*
X433828000Y-26762800D02*
X433828000Y-33262800D01*
X449808000Y-26762800D02*
X433828000Y-26762800D01*
X449808000Y-33262800D02*
X449808000Y-26762800D01*
%TO.C,K19\u002C3*%
X433955000Y-90666800D02*
X449935000Y-90666800D01*
X433955000Y-84166800D02*
X433955000Y-90666800D01*
X449935000Y-84166800D02*
X433955000Y-84166800D01*
X449935000Y-90666800D02*
X449935000Y-84166800D01*
%TO.C,K19\u002C1*%
X433955000Y-71299300D02*
X449935000Y-71299300D01*
X433955000Y-64799300D02*
X433955000Y-71299300D01*
X449935000Y-64799300D02*
X433955000Y-64799300D01*
X449935000Y-71299300D02*
X449935000Y-64799300D01*
%TO.C,K20\u002C0*%
X453132000Y-33262800D02*
X469112000Y-33262800D01*
X453132000Y-26762800D02*
X453132000Y-33262800D01*
X469112000Y-26762800D02*
X453132000Y-26762800D01*
X469112000Y-33262800D02*
X469112000Y-26762800D01*
%TO.C,K20\u002C1*%
X453259000Y-71299300D02*
X469239000Y-71299300D01*
X453259000Y-64799300D02*
X453259000Y-71299300D01*
X469239000Y-64799300D02*
X453259000Y-64799300D01*
X469239000Y-71299300D02*
X469239000Y-64799300D01*
%TO.C,U1*%
X20344500Y-73144500D02*
X8484500Y-73144500D01*
X20344500Y-54744500D02*
X20344500Y-73144500D01*
X8484500Y-54744500D02*
X20344500Y-54744500D01*
X8484500Y-73144500D02*
X8484500Y-54744500D01*
%TO.C,U10*%
X17112000Y-20972000D02*
X17112000Y-13572000D01*
X22512000Y-20972000D02*
X17112000Y-20972000D01*
X22512000Y-13572000D02*
X22512000Y-20972000D01*
X17112000Y-13572000D02*
X22512000Y-13572000D01*
%TO.C,U11*%
X5072000Y-20972000D02*
X5072000Y-13572000D01*
X14232000Y-20972000D02*
X5072000Y-20972000D01*
X14232000Y-13572000D02*
X14232000Y-20972000D01*
X5072000Y-13572000D02*
X14232000Y-13572000D01*
%TD*%
M02*
