%TF.GenerationSoftware,KiCad,Pcbnew,(5.1.9)-1*%
%TF.CreationDate,2021-03-19T23:51:34+10:00*%
%TF.ProjectId,RedPyKeeb,52656450-794b-4656-9562-2e6b69636164,rev?*%
%TF.SameCoordinates,Original*%
%TF.FileFunction,Soldermask,Bot*%
%TF.FilePolarity,Negative*%
%FSLAX46Y46*%
G04 Gerber Fmt 4.6, Leading zero omitted, Abs format (unit mm)*
G04 Created by KiCad (PCBNEW (5.1.9)-1) date 2021-03-19 23:51:34*
%MOMM*%
%LPD*%
G01*
G04 APERTURE LIST*
%ADD10R,1.500000X1.250000*%
%ADD11R,2.550000X2.500000*%
%ADD12C,1.750000*%
%ADD13C,4.000000*%
%ADD14C,3.000000*%
%ADD15O,1.700000X1.700000*%
%ADD16R,1.700000X1.700000*%
%ADD17R,1.700000X3.500000*%
%ADD18O,1.800000X1.800000*%
%ADD19O,1.500000X1.500000*%
%ADD20R,3.500000X1.700000*%
%ADD21C,1.600000*%
%ADD22R,1.600000X1.600000*%
%ADD23R,1.200000X1.200000*%
%ADD24O,1.950000X1.700000*%
G04 APERTURE END LIST*
%TO.C,U3*%
G36*
G01*
X-5593500Y-41061500D02*
X-5593500Y-41361500D01*
G75*
G02*
X-5743500Y-41511500I-150000J0D01*
G01*
X-7493500Y-41511500D01*
G75*
G02*
X-7643500Y-41361500I0J150000D01*
G01*
X-7643500Y-41061500D01*
G75*
G02*
X-7493500Y-40911500I150000J0D01*
G01*
X-5743500Y-40911500D01*
G75*
G02*
X-5593500Y-41061500I0J-150000D01*
G01*
G37*
G36*
G01*
X-5593500Y-42331500D02*
X-5593500Y-42631500D01*
G75*
G02*
X-5743500Y-42781500I-150000J0D01*
G01*
X-7493500Y-42781500D01*
G75*
G02*
X-7643500Y-42631500I0J150000D01*
G01*
X-7643500Y-42331500D01*
G75*
G02*
X-7493500Y-42181500I150000J0D01*
G01*
X-5743500Y-42181500D01*
G75*
G02*
X-5593500Y-42331500I0J-150000D01*
G01*
G37*
G36*
G01*
X-5593500Y-43601500D02*
X-5593500Y-43901500D01*
G75*
G02*
X-5743500Y-44051500I-150000J0D01*
G01*
X-7493500Y-44051500D01*
G75*
G02*
X-7643500Y-43901500I0J150000D01*
G01*
X-7643500Y-43601500D01*
G75*
G02*
X-7493500Y-43451500I150000J0D01*
G01*
X-5743500Y-43451500D01*
G75*
G02*
X-5593500Y-43601500I0J-150000D01*
G01*
G37*
G36*
G01*
X-5593500Y-44871500D02*
X-5593500Y-45171500D01*
G75*
G02*
X-5743500Y-45321500I-150000J0D01*
G01*
X-7493500Y-45321500D01*
G75*
G02*
X-7643500Y-45171500I0J150000D01*
G01*
X-7643500Y-44871500D01*
G75*
G02*
X-7493500Y-44721500I150000J0D01*
G01*
X-5743500Y-44721500D01*
G75*
G02*
X-5593500Y-44871500I0J-150000D01*
G01*
G37*
G36*
G01*
X-5593500Y-46141500D02*
X-5593500Y-46441500D01*
G75*
G02*
X-5743500Y-46591500I-150000J0D01*
G01*
X-7493500Y-46591500D01*
G75*
G02*
X-7643500Y-46441500I0J150000D01*
G01*
X-7643500Y-46141500D01*
G75*
G02*
X-7493500Y-45991500I150000J0D01*
G01*
X-5743500Y-45991500D01*
G75*
G02*
X-5593500Y-46141500I0J-150000D01*
G01*
G37*
G36*
G01*
X-5593500Y-47411500D02*
X-5593500Y-47711500D01*
G75*
G02*
X-5743500Y-47861500I-150000J0D01*
G01*
X-7493500Y-47861500D01*
G75*
G02*
X-7643500Y-47711500I0J150000D01*
G01*
X-7643500Y-47411500D01*
G75*
G02*
X-7493500Y-47261500I150000J0D01*
G01*
X-5743500Y-47261500D01*
G75*
G02*
X-5593500Y-47411500I0J-150000D01*
G01*
G37*
G36*
G01*
X-5593500Y-48681500D02*
X-5593500Y-48981500D01*
G75*
G02*
X-5743500Y-49131500I-150000J0D01*
G01*
X-7493500Y-49131500D01*
G75*
G02*
X-7643500Y-48981500I0J150000D01*
G01*
X-7643500Y-48681500D01*
G75*
G02*
X-7493500Y-48531500I150000J0D01*
G01*
X-5743500Y-48531500D01*
G75*
G02*
X-5593500Y-48681500I0J-150000D01*
G01*
G37*
G36*
G01*
X-5593500Y-49951500D02*
X-5593500Y-50251500D01*
G75*
G02*
X-5743500Y-50401500I-150000J0D01*
G01*
X-7493500Y-50401500D01*
G75*
G02*
X-7643500Y-50251500I0J150000D01*
G01*
X-7643500Y-49951500D01*
G75*
G02*
X-7493500Y-49801500I150000J0D01*
G01*
X-5743500Y-49801500D01*
G75*
G02*
X-5593500Y-49951500I0J-150000D01*
G01*
G37*
G36*
G01*
X-5593500Y-51221500D02*
X-5593500Y-51521500D01*
G75*
G02*
X-5743500Y-51671500I-150000J0D01*
G01*
X-7493500Y-51671500D01*
G75*
G02*
X-7643500Y-51521500I0J150000D01*
G01*
X-7643500Y-51221500D01*
G75*
G02*
X-7493500Y-51071500I150000J0D01*
G01*
X-5743500Y-51071500D01*
G75*
G02*
X-5593500Y-51221500I0J-150000D01*
G01*
G37*
G36*
G01*
X-5593500Y-52491500D02*
X-5593500Y-52791500D01*
G75*
G02*
X-5743500Y-52941500I-150000J0D01*
G01*
X-7493500Y-52941500D01*
G75*
G02*
X-7643500Y-52791500I0J150000D01*
G01*
X-7643500Y-52491500D01*
G75*
G02*
X-7493500Y-52341500I150000J0D01*
G01*
X-5743500Y-52341500D01*
G75*
G02*
X-5593500Y-52491500I0J-150000D01*
G01*
G37*
G36*
G01*
X-5593500Y-53761500D02*
X-5593500Y-54061500D01*
G75*
G02*
X-5743500Y-54211500I-150000J0D01*
G01*
X-7493500Y-54211500D01*
G75*
G02*
X-7643500Y-54061500I0J150000D01*
G01*
X-7643500Y-53761500D01*
G75*
G02*
X-7493500Y-53611500I150000J0D01*
G01*
X-5743500Y-53611500D01*
G75*
G02*
X-5593500Y-53761500I0J-150000D01*
G01*
G37*
G36*
G01*
X-5593500Y-55031500D02*
X-5593500Y-55331500D01*
G75*
G02*
X-5743500Y-55481500I-150000J0D01*
G01*
X-7493500Y-55481500D01*
G75*
G02*
X-7643500Y-55331500I0J150000D01*
G01*
X-7643500Y-55031500D01*
G75*
G02*
X-7493500Y-54881500I150000J0D01*
G01*
X-5743500Y-54881500D01*
G75*
G02*
X-5593500Y-55031500I0J-150000D01*
G01*
G37*
G36*
G01*
X-5593500Y-56301500D02*
X-5593500Y-56601500D01*
G75*
G02*
X-5743500Y-56751500I-150000J0D01*
G01*
X-7493500Y-56751500D01*
G75*
G02*
X-7643500Y-56601500I0J150000D01*
G01*
X-7643500Y-56301500D01*
G75*
G02*
X-7493500Y-56151500I150000J0D01*
G01*
X-5743500Y-56151500D01*
G75*
G02*
X-5593500Y-56301500I0J-150000D01*
G01*
G37*
G36*
G01*
X-5593500Y-57571500D02*
X-5593500Y-57871500D01*
G75*
G02*
X-5743500Y-58021500I-150000J0D01*
G01*
X-7493500Y-58021500D01*
G75*
G02*
X-7643500Y-57871500I0J150000D01*
G01*
X-7643500Y-57571500D01*
G75*
G02*
X-7493500Y-57421500I150000J0D01*
G01*
X-5743500Y-57421500D01*
G75*
G02*
X-5593500Y-57571500I0J-150000D01*
G01*
G37*
G36*
G01*
X3706500Y-57571500D02*
X3706500Y-57871500D01*
G75*
G02*
X3556500Y-58021500I-150000J0D01*
G01*
X1806500Y-58021500D01*
G75*
G02*
X1656500Y-57871500I0J150000D01*
G01*
X1656500Y-57571500D01*
G75*
G02*
X1806500Y-57421500I150000J0D01*
G01*
X3556500Y-57421500D01*
G75*
G02*
X3706500Y-57571500I0J-150000D01*
G01*
G37*
G36*
G01*
X3706500Y-56301500D02*
X3706500Y-56601500D01*
G75*
G02*
X3556500Y-56751500I-150000J0D01*
G01*
X1806500Y-56751500D01*
G75*
G02*
X1656500Y-56601500I0J150000D01*
G01*
X1656500Y-56301500D01*
G75*
G02*
X1806500Y-56151500I150000J0D01*
G01*
X3556500Y-56151500D01*
G75*
G02*
X3706500Y-56301500I0J-150000D01*
G01*
G37*
G36*
G01*
X3706500Y-55031500D02*
X3706500Y-55331500D01*
G75*
G02*
X3556500Y-55481500I-150000J0D01*
G01*
X1806500Y-55481500D01*
G75*
G02*
X1656500Y-55331500I0J150000D01*
G01*
X1656500Y-55031500D01*
G75*
G02*
X1806500Y-54881500I150000J0D01*
G01*
X3556500Y-54881500D01*
G75*
G02*
X3706500Y-55031500I0J-150000D01*
G01*
G37*
G36*
G01*
X3706500Y-53761500D02*
X3706500Y-54061500D01*
G75*
G02*
X3556500Y-54211500I-150000J0D01*
G01*
X1806500Y-54211500D01*
G75*
G02*
X1656500Y-54061500I0J150000D01*
G01*
X1656500Y-53761500D01*
G75*
G02*
X1806500Y-53611500I150000J0D01*
G01*
X3556500Y-53611500D01*
G75*
G02*
X3706500Y-53761500I0J-150000D01*
G01*
G37*
G36*
G01*
X3706500Y-52491500D02*
X3706500Y-52791500D01*
G75*
G02*
X3556500Y-52941500I-150000J0D01*
G01*
X1806500Y-52941500D01*
G75*
G02*
X1656500Y-52791500I0J150000D01*
G01*
X1656500Y-52491500D01*
G75*
G02*
X1806500Y-52341500I150000J0D01*
G01*
X3556500Y-52341500D01*
G75*
G02*
X3706500Y-52491500I0J-150000D01*
G01*
G37*
G36*
G01*
X3706500Y-51221500D02*
X3706500Y-51521500D01*
G75*
G02*
X3556500Y-51671500I-150000J0D01*
G01*
X1806500Y-51671500D01*
G75*
G02*
X1656500Y-51521500I0J150000D01*
G01*
X1656500Y-51221500D01*
G75*
G02*
X1806500Y-51071500I150000J0D01*
G01*
X3556500Y-51071500D01*
G75*
G02*
X3706500Y-51221500I0J-150000D01*
G01*
G37*
G36*
G01*
X3706500Y-49951500D02*
X3706500Y-50251500D01*
G75*
G02*
X3556500Y-50401500I-150000J0D01*
G01*
X1806500Y-50401500D01*
G75*
G02*
X1656500Y-50251500I0J150000D01*
G01*
X1656500Y-49951500D01*
G75*
G02*
X1806500Y-49801500I150000J0D01*
G01*
X3556500Y-49801500D01*
G75*
G02*
X3706500Y-49951500I0J-150000D01*
G01*
G37*
G36*
G01*
X3706500Y-48681500D02*
X3706500Y-48981500D01*
G75*
G02*
X3556500Y-49131500I-150000J0D01*
G01*
X1806500Y-49131500D01*
G75*
G02*
X1656500Y-48981500I0J150000D01*
G01*
X1656500Y-48681500D01*
G75*
G02*
X1806500Y-48531500I150000J0D01*
G01*
X3556500Y-48531500D01*
G75*
G02*
X3706500Y-48681500I0J-150000D01*
G01*
G37*
G36*
G01*
X3706500Y-47411500D02*
X3706500Y-47711500D01*
G75*
G02*
X3556500Y-47861500I-150000J0D01*
G01*
X1806500Y-47861500D01*
G75*
G02*
X1656500Y-47711500I0J150000D01*
G01*
X1656500Y-47411500D01*
G75*
G02*
X1806500Y-47261500I150000J0D01*
G01*
X3556500Y-47261500D01*
G75*
G02*
X3706500Y-47411500I0J-150000D01*
G01*
G37*
G36*
G01*
X3706500Y-46141500D02*
X3706500Y-46441500D01*
G75*
G02*
X3556500Y-46591500I-150000J0D01*
G01*
X1806500Y-46591500D01*
G75*
G02*
X1656500Y-46441500I0J150000D01*
G01*
X1656500Y-46141500D01*
G75*
G02*
X1806500Y-45991500I150000J0D01*
G01*
X3556500Y-45991500D01*
G75*
G02*
X3706500Y-46141500I0J-150000D01*
G01*
G37*
G36*
G01*
X3706500Y-44871500D02*
X3706500Y-45171500D01*
G75*
G02*
X3556500Y-45321500I-150000J0D01*
G01*
X1806500Y-45321500D01*
G75*
G02*
X1656500Y-45171500I0J150000D01*
G01*
X1656500Y-44871500D01*
G75*
G02*
X1806500Y-44721500I150000J0D01*
G01*
X3556500Y-44721500D01*
G75*
G02*
X3706500Y-44871500I0J-150000D01*
G01*
G37*
G36*
G01*
X3706500Y-43601500D02*
X3706500Y-43901500D01*
G75*
G02*
X3556500Y-44051500I-150000J0D01*
G01*
X1806500Y-44051500D01*
G75*
G02*
X1656500Y-43901500I0J150000D01*
G01*
X1656500Y-43601500D01*
G75*
G02*
X1806500Y-43451500I150000J0D01*
G01*
X3556500Y-43451500D01*
G75*
G02*
X3706500Y-43601500I0J-150000D01*
G01*
G37*
G36*
G01*
X3706500Y-42331500D02*
X3706500Y-42631500D01*
G75*
G02*
X3556500Y-42781500I-150000J0D01*
G01*
X1806500Y-42781500D01*
G75*
G02*
X1656500Y-42631500I0J150000D01*
G01*
X1656500Y-42331500D01*
G75*
G02*
X1806500Y-42181500I150000J0D01*
G01*
X3556500Y-42181500D01*
G75*
G02*
X3706500Y-42331500I0J-150000D01*
G01*
G37*
G36*
G01*
X3706500Y-41061500D02*
X3706500Y-41361500D01*
G75*
G02*
X3556500Y-41511500I-150000J0D01*
G01*
X1806500Y-41511500D01*
G75*
G02*
X1656500Y-41361500I0J150000D01*
G01*
X1656500Y-41061500D01*
G75*
G02*
X1806500Y-40911500I150000J0D01*
G01*
X3556500Y-40911500D01*
G75*
G02*
X3706500Y-41061500I0J-150000D01*
G01*
G37*
%TD*%
D10*
%TO.C,C3*%
X-3218500Y-37592000D03*
X-718500Y-37592000D03*
%TD*%
D11*
%TO.C,K12\u002C3*%
X285115000Y-108013500D03*
X298042000Y-105473500D03*
D12*
X285877000Y-102933500D03*
X296037000Y-102933500D03*
D13*
X290957000Y-102933500D03*
D14*
X288417000Y-108013500D03*
X294767000Y-105473500D03*
%TD*%
D15*
%TO.C,U0*%
X73315500Y-3660500D03*
X70775500Y-3660500D03*
D16*
X68235500Y-3660500D03*
D15*
X65695500Y-3660500D03*
X63155500Y-3660500D03*
X60615500Y-3660500D03*
X58075500Y-3660500D03*
D16*
X55535500Y-3660500D03*
D15*
X52995500Y-3660500D03*
X50455500Y-3660500D03*
X47915500Y-3660500D03*
X45375500Y-3660500D03*
D16*
X42835500Y-3660500D03*
D15*
X40295500Y-3660500D03*
X37755500Y-3660500D03*
X35215500Y-3660500D03*
X32675500Y-3660500D03*
D16*
X30135500Y-3660500D03*
D15*
X27595500Y-3660500D03*
X25055500Y-3660500D03*
X25055500Y14119500D03*
X27595500Y14119500D03*
D16*
X30135500Y14119500D03*
D15*
X32675500Y14119500D03*
X35215500Y14119500D03*
X37755500Y14119500D03*
X40295500Y14119500D03*
D16*
X42835500Y14119500D03*
D15*
X45375500Y14119500D03*
X47915500Y14119500D03*
X50455500Y14119500D03*
X52995500Y14119500D03*
D16*
X55535500Y14119500D03*
D15*
X58075500Y14119500D03*
X60615500Y14119500D03*
X63155500Y14119500D03*
X65695500Y14119500D03*
D16*
X68235500Y14119500D03*
D15*
X70775500Y14119500D03*
X73315500Y14119500D03*
D17*
X73315500Y-4560500D03*
X70775500Y-4560500D03*
X68235500Y-4560500D03*
X65695500Y-4560500D03*
X63155500Y-4560500D03*
X60615500Y-4560500D03*
X58075500Y-4560500D03*
X55535500Y-4560500D03*
X52995500Y-4560500D03*
X50455500Y-4560500D03*
X47915500Y-4560500D03*
X45375500Y-4560500D03*
X42835500Y-4560500D03*
X40295500Y-4560500D03*
X37755500Y-4560500D03*
X35215500Y-4560500D03*
X32675500Y-4560500D03*
X30135500Y-4560500D03*
X27595500Y-4560500D03*
X25055500Y-4560500D03*
X73315500Y15019500D03*
X70775500Y15019500D03*
X68235500Y15019500D03*
X65695500Y15019500D03*
X63155500Y15019500D03*
X60615500Y15019500D03*
X58075500Y15019500D03*
X55535500Y15019500D03*
X52995500Y15019500D03*
X50455500Y15019500D03*
X47915500Y15019500D03*
X45375500Y15019500D03*
X42835500Y15019500D03*
X40295500Y15019500D03*
X37755500Y15019500D03*
X35215500Y15019500D03*
X32675500Y15019500D03*
X30135500Y15019500D03*
X27595500Y15019500D03*
X25055500Y15019500D03*
D18*
X73185500Y2504500D03*
X73185500Y7954500D03*
D19*
X70155500Y2804500D03*
X70155500Y7654500D03*
D20*
X24385500Y2689500D03*
D15*
X25285500Y2689500D03*
D20*
X24385500Y5229500D03*
D16*
X25285500Y5229500D03*
D20*
X24385500Y7769500D03*
D15*
X25285500Y7769500D03*
%TD*%
D11*
%TO.C,K0\u002C2*%
X31940500Y-88544400D03*
X44867500Y-86004400D03*
D12*
X32702500Y-83464400D03*
X42862500Y-83464400D03*
D13*
X37782500Y-83464400D03*
D14*
X35242500Y-88544400D03*
X41592500Y-86004400D03*
%TD*%
D11*
%TO.C,K18\u002C4*%
X435483000Y-107937300D03*
X448410000Y-105397300D03*
D12*
X436245000Y-102857300D03*
X446405000Y-102857300D03*
D13*
X441325000Y-102857300D03*
D14*
X438785000Y-107937300D03*
X445135000Y-105397300D03*
%TD*%
D11*
%TO.C,K10\u002C3*%
X234505500Y-108000800D03*
X247432500Y-105460800D03*
D12*
X235267500Y-102920800D03*
X245427500Y-102920800D03*
D13*
X240347500Y-102920800D03*
D14*
X237807500Y-108000800D03*
X244157500Y-105460800D03*
%TD*%
D11*
%TO.C,K13\u002C1*%
X286956500Y-69278500D03*
X299883500Y-66738500D03*
D12*
X287718500Y-64198500D03*
X297878500Y-64198500D03*
D13*
X292798500Y-64198500D03*
D14*
X290258500Y-69278500D03*
X296608500Y-66738500D03*
%TD*%
D11*
%TO.C,K19\u002C4*%
X454787000Y-98221800D03*
X467714000Y-95681800D03*
D12*
X455549000Y-93141800D03*
X465709000Y-93141800D03*
D13*
X460629000Y-93141800D03*
D14*
X458089000Y-98221800D03*
X464439000Y-95681800D03*
%TD*%
%TO.C,U2*%
G36*
G01*
X17785500Y-49172000D02*
X17785500Y-48872000D01*
G75*
G02*
X17935500Y-48722000I150000J0D01*
G01*
X19685500Y-48722000D01*
G75*
G02*
X19835500Y-48872000I0J-150000D01*
G01*
X19835500Y-49172000D01*
G75*
G02*
X19685500Y-49322000I-150000J0D01*
G01*
X17935500Y-49322000D01*
G75*
G02*
X17785500Y-49172000I0J150000D01*
G01*
G37*
G36*
G01*
X17785500Y-47902000D02*
X17785500Y-47602000D01*
G75*
G02*
X17935500Y-47452000I150000J0D01*
G01*
X19685500Y-47452000D01*
G75*
G02*
X19835500Y-47602000I0J-150000D01*
G01*
X19835500Y-47902000D01*
G75*
G02*
X19685500Y-48052000I-150000J0D01*
G01*
X17935500Y-48052000D01*
G75*
G02*
X17785500Y-47902000I0J150000D01*
G01*
G37*
G36*
G01*
X17785500Y-46632000D02*
X17785500Y-46332000D01*
G75*
G02*
X17935500Y-46182000I150000J0D01*
G01*
X19685500Y-46182000D01*
G75*
G02*
X19835500Y-46332000I0J-150000D01*
G01*
X19835500Y-46632000D01*
G75*
G02*
X19685500Y-46782000I-150000J0D01*
G01*
X17935500Y-46782000D01*
G75*
G02*
X17785500Y-46632000I0J150000D01*
G01*
G37*
G36*
G01*
X17785500Y-45362000D02*
X17785500Y-45062000D01*
G75*
G02*
X17935500Y-44912000I150000J0D01*
G01*
X19685500Y-44912000D01*
G75*
G02*
X19835500Y-45062000I0J-150000D01*
G01*
X19835500Y-45362000D01*
G75*
G02*
X19685500Y-45512000I-150000J0D01*
G01*
X17935500Y-45512000D01*
G75*
G02*
X17785500Y-45362000I0J150000D01*
G01*
G37*
G36*
G01*
X17785500Y-44092000D02*
X17785500Y-43792000D01*
G75*
G02*
X17935500Y-43642000I150000J0D01*
G01*
X19685500Y-43642000D01*
G75*
G02*
X19835500Y-43792000I0J-150000D01*
G01*
X19835500Y-44092000D01*
G75*
G02*
X19685500Y-44242000I-150000J0D01*
G01*
X17935500Y-44242000D01*
G75*
G02*
X17785500Y-44092000I0J150000D01*
G01*
G37*
G36*
G01*
X17785500Y-42822000D02*
X17785500Y-42522000D01*
G75*
G02*
X17935500Y-42372000I150000J0D01*
G01*
X19685500Y-42372000D01*
G75*
G02*
X19835500Y-42522000I0J-150000D01*
G01*
X19835500Y-42822000D01*
G75*
G02*
X19685500Y-42972000I-150000J0D01*
G01*
X17935500Y-42972000D01*
G75*
G02*
X17785500Y-42822000I0J150000D01*
G01*
G37*
G36*
G01*
X17785500Y-41552000D02*
X17785500Y-41252000D01*
G75*
G02*
X17935500Y-41102000I150000J0D01*
G01*
X19685500Y-41102000D01*
G75*
G02*
X19835500Y-41252000I0J-150000D01*
G01*
X19835500Y-41552000D01*
G75*
G02*
X19685500Y-41702000I-150000J0D01*
G01*
X17935500Y-41702000D01*
G75*
G02*
X17785500Y-41552000I0J150000D01*
G01*
G37*
G36*
G01*
X17785500Y-40282000D02*
X17785500Y-39982000D01*
G75*
G02*
X17935500Y-39832000I150000J0D01*
G01*
X19685500Y-39832000D01*
G75*
G02*
X19835500Y-39982000I0J-150000D01*
G01*
X19835500Y-40282000D01*
G75*
G02*
X19685500Y-40432000I-150000J0D01*
G01*
X17935500Y-40432000D01*
G75*
G02*
X17785500Y-40282000I0J150000D01*
G01*
G37*
G36*
G01*
X17785500Y-39012000D02*
X17785500Y-38712000D01*
G75*
G02*
X17935500Y-38562000I150000J0D01*
G01*
X19685500Y-38562000D01*
G75*
G02*
X19835500Y-38712000I0J-150000D01*
G01*
X19835500Y-39012000D01*
G75*
G02*
X19685500Y-39162000I-150000J0D01*
G01*
X17935500Y-39162000D01*
G75*
G02*
X17785500Y-39012000I0J150000D01*
G01*
G37*
G36*
G01*
X17785500Y-37742000D02*
X17785500Y-37442000D01*
G75*
G02*
X17935500Y-37292000I150000J0D01*
G01*
X19685500Y-37292000D01*
G75*
G02*
X19835500Y-37442000I0J-150000D01*
G01*
X19835500Y-37742000D01*
G75*
G02*
X19685500Y-37892000I-150000J0D01*
G01*
X17935500Y-37892000D01*
G75*
G02*
X17785500Y-37742000I0J150000D01*
G01*
G37*
G36*
G01*
X17785500Y-36472000D02*
X17785500Y-36172000D01*
G75*
G02*
X17935500Y-36022000I150000J0D01*
G01*
X19685500Y-36022000D01*
G75*
G02*
X19835500Y-36172000I0J-150000D01*
G01*
X19835500Y-36472000D01*
G75*
G02*
X19685500Y-36622000I-150000J0D01*
G01*
X17935500Y-36622000D01*
G75*
G02*
X17785500Y-36472000I0J150000D01*
G01*
G37*
G36*
G01*
X17785500Y-35202000D02*
X17785500Y-34902000D01*
G75*
G02*
X17935500Y-34752000I150000J0D01*
G01*
X19685500Y-34752000D01*
G75*
G02*
X19835500Y-34902000I0J-150000D01*
G01*
X19835500Y-35202000D01*
G75*
G02*
X19685500Y-35352000I-150000J0D01*
G01*
X17935500Y-35352000D01*
G75*
G02*
X17785500Y-35202000I0J150000D01*
G01*
G37*
G36*
G01*
X17785500Y-33932000D02*
X17785500Y-33632000D01*
G75*
G02*
X17935500Y-33482000I150000J0D01*
G01*
X19685500Y-33482000D01*
G75*
G02*
X19835500Y-33632000I0J-150000D01*
G01*
X19835500Y-33932000D01*
G75*
G02*
X19685500Y-34082000I-150000J0D01*
G01*
X17935500Y-34082000D01*
G75*
G02*
X17785500Y-33932000I0J150000D01*
G01*
G37*
G36*
G01*
X17785500Y-32662000D02*
X17785500Y-32362000D01*
G75*
G02*
X17935500Y-32212000I150000J0D01*
G01*
X19685500Y-32212000D01*
G75*
G02*
X19835500Y-32362000I0J-150000D01*
G01*
X19835500Y-32662000D01*
G75*
G02*
X19685500Y-32812000I-150000J0D01*
G01*
X17935500Y-32812000D01*
G75*
G02*
X17785500Y-32662000I0J150000D01*
G01*
G37*
G36*
G01*
X8485500Y-32662000D02*
X8485500Y-32362000D01*
G75*
G02*
X8635500Y-32212000I150000J0D01*
G01*
X10385500Y-32212000D01*
G75*
G02*
X10535500Y-32362000I0J-150000D01*
G01*
X10535500Y-32662000D01*
G75*
G02*
X10385500Y-32812000I-150000J0D01*
G01*
X8635500Y-32812000D01*
G75*
G02*
X8485500Y-32662000I0J150000D01*
G01*
G37*
G36*
G01*
X8485500Y-33932000D02*
X8485500Y-33632000D01*
G75*
G02*
X8635500Y-33482000I150000J0D01*
G01*
X10385500Y-33482000D01*
G75*
G02*
X10535500Y-33632000I0J-150000D01*
G01*
X10535500Y-33932000D01*
G75*
G02*
X10385500Y-34082000I-150000J0D01*
G01*
X8635500Y-34082000D01*
G75*
G02*
X8485500Y-33932000I0J150000D01*
G01*
G37*
G36*
G01*
X8485500Y-35202000D02*
X8485500Y-34902000D01*
G75*
G02*
X8635500Y-34752000I150000J0D01*
G01*
X10385500Y-34752000D01*
G75*
G02*
X10535500Y-34902000I0J-150000D01*
G01*
X10535500Y-35202000D01*
G75*
G02*
X10385500Y-35352000I-150000J0D01*
G01*
X8635500Y-35352000D01*
G75*
G02*
X8485500Y-35202000I0J150000D01*
G01*
G37*
G36*
G01*
X8485500Y-36472000D02*
X8485500Y-36172000D01*
G75*
G02*
X8635500Y-36022000I150000J0D01*
G01*
X10385500Y-36022000D01*
G75*
G02*
X10535500Y-36172000I0J-150000D01*
G01*
X10535500Y-36472000D01*
G75*
G02*
X10385500Y-36622000I-150000J0D01*
G01*
X8635500Y-36622000D01*
G75*
G02*
X8485500Y-36472000I0J150000D01*
G01*
G37*
G36*
G01*
X8485500Y-37742000D02*
X8485500Y-37442000D01*
G75*
G02*
X8635500Y-37292000I150000J0D01*
G01*
X10385500Y-37292000D01*
G75*
G02*
X10535500Y-37442000I0J-150000D01*
G01*
X10535500Y-37742000D01*
G75*
G02*
X10385500Y-37892000I-150000J0D01*
G01*
X8635500Y-37892000D01*
G75*
G02*
X8485500Y-37742000I0J150000D01*
G01*
G37*
G36*
G01*
X8485500Y-39012000D02*
X8485500Y-38712000D01*
G75*
G02*
X8635500Y-38562000I150000J0D01*
G01*
X10385500Y-38562000D01*
G75*
G02*
X10535500Y-38712000I0J-150000D01*
G01*
X10535500Y-39012000D01*
G75*
G02*
X10385500Y-39162000I-150000J0D01*
G01*
X8635500Y-39162000D01*
G75*
G02*
X8485500Y-39012000I0J150000D01*
G01*
G37*
G36*
G01*
X8485500Y-40282000D02*
X8485500Y-39982000D01*
G75*
G02*
X8635500Y-39832000I150000J0D01*
G01*
X10385500Y-39832000D01*
G75*
G02*
X10535500Y-39982000I0J-150000D01*
G01*
X10535500Y-40282000D01*
G75*
G02*
X10385500Y-40432000I-150000J0D01*
G01*
X8635500Y-40432000D01*
G75*
G02*
X8485500Y-40282000I0J150000D01*
G01*
G37*
G36*
G01*
X8485500Y-41552000D02*
X8485500Y-41252000D01*
G75*
G02*
X8635500Y-41102000I150000J0D01*
G01*
X10385500Y-41102000D01*
G75*
G02*
X10535500Y-41252000I0J-150000D01*
G01*
X10535500Y-41552000D01*
G75*
G02*
X10385500Y-41702000I-150000J0D01*
G01*
X8635500Y-41702000D01*
G75*
G02*
X8485500Y-41552000I0J150000D01*
G01*
G37*
G36*
G01*
X8485500Y-42822000D02*
X8485500Y-42522000D01*
G75*
G02*
X8635500Y-42372000I150000J0D01*
G01*
X10385500Y-42372000D01*
G75*
G02*
X10535500Y-42522000I0J-150000D01*
G01*
X10535500Y-42822000D01*
G75*
G02*
X10385500Y-42972000I-150000J0D01*
G01*
X8635500Y-42972000D01*
G75*
G02*
X8485500Y-42822000I0J150000D01*
G01*
G37*
G36*
G01*
X8485500Y-44092000D02*
X8485500Y-43792000D01*
G75*
G02*
X8635500Y-43642000I150000J0D01*
G01*
X10385500Y-43642000D01*
G75*
G02*
X10535500Y-43792000I0J-150000D01*
G01*
X10535500Y-44092000D01*
G75*
G02*
X10385500Y-44242000I-150000J0D01*
G01*
X8635500Y-44242000D01*
G75*
G02*
X8485500Y-44092000I0J150000D01*
G01*
G37*
G36*
G01*
X8485500Y-45362000D02*
X8485500Y-45062000D01*
G75*
G02*
X8635500Y-44912000I150000J0D01*
G01*
X10385500Y-44912000D01*
G75*
G02*
X10535500Y-45062000I0J-150000D01*
G01*
X10535500Y-45362000D01*
G75*
G02*
X10385500Y-45512000I-150000J0D01*
G01*
X8635500Y-45512000D01*
G75*
G02*
X8485500Y-45362000I0J150000D01*
G01*
G37*
G36*
G01*
X8485500Y-46632000D02*
X8485500Y-46332000D01*
G75*
G02*
X8635500Y-46182000I150000J0D01*
G01*
X10385500Y-46182000D01*
G75*
G02*
X10535500Y-46332000I0J-150000D01*
G01*
X10535500Y-46632000D01*
G75*
G02*
X10385500Y-46782000I-150000J0D01*
G01*
X8635500Y-46782000D01*
G75*
G02*
X8485500Y-46632000I0J150000D01*
G01*
G37*
G36*
G01*
X8485500Y-47902000D02*
X8485500Y-47602000D01*
G75*
G02*
X8635500Y-47452000I150000J0D01*
G01*
X10385500Y-47452000D01*
G75*
G02*
X10535500Y-47602000I0J-150000D01*
G01*
X10535500Y-47902000D01*
G75*
G02*
X10385500Y-48052000I-150000J0D01*
G01*
X8635500Y-48052000D01*
G75*
G02*
X8485500Y-47902000I0J150000D01*
G01*
G37*
G36*
G01*
X8485500Y-49172000D02*
X8485500Y-48872000D01*
G75*
G02*
X8635500Y-48722000I150000J0D01*
G01*
X10385500Y-48722000D01*
G75*
G02*
X10535500Y-48872000I0J-150000D01*
G01*
X10535500Y-49172000D01*
G75*
G02*
X10385500Y-49322000I-150000J0D01*
G01*
X8635500Y-49322000D01*
G75*
G02*
X8485500Y-49172000I0J150000D01*
G01*
G37*
%TD*%
D11*
%TO.C,K11\u002C4*%
X280289000Y-127762000D03*
X293216000Y-125222000D03*
D12*
X281051000Y-122682000D03*
X291211000Y-122682000D03*
D13*
X286131000Y-122682000D03*
D14*
X283591000Y-127762000D03*
X289941000Y-125222000D03*
%TD*%
D10*
%TO.C,C1*%
X13164500Y-52260500D03*
X15664500Y-52260500D03*
%TD*%
%TO.C,C2*%
X15918500Y-28638500D03*
X13418500Y-28638500D03*
%TD*%
D21*
%TO.C,D0\u002C3*%
X32512000Y-108167000D03*
D22*
X32512000Y-100367000D03*
D23*
X32512000Y-102692000D03*
X32512000Y-105842000D03*
%TD*%
D21*
%TO.C,D0\u002C5*%
X27876500Y-147283000D03*
D22*
X27876500Y-139483000D03*
D23*
X27876500Y-141808000D03*
X27876500Y-144958000D03*
%TD*%
D21*
%TO.C,D0\u002C4*%
X37274500Y-127915500D03*
D22*
X37274500Y-120115500D03*
D23*
X37274500Y-122440500D03*
X37274500Y-125590500D03*
%TD*%
D21*
%TO.C,D0\u002C0*%
X25463500Y-31332000D03*
D22*
X25463500Y-23532000D03*
D23*
X25463500Y-25857000D03*
X25463500Y-29007000D03*
%TD*%
D21*
%TO.C,D0\u002C2*%
X29972000Y-88609000D03*
D22*
X29972000Y-80809000D03*
D23*
X29972000Y-83134000D03*
X29972000Y-86284000D03*
%TD*%
D21*
%TO.C,D0\u002C1*%
X25463500Y-69432000D03*
D22*
X25463500Y-61632000D03*
D23*
X25463500Y-63957000D03*
X25463500Y-67107000D03*
%TD*%
D21*
%TO.C,D1\u002C3*%
X58801000Y-108040000D03*
D22*
X58801000Y-100240000D03*
D23*
X58801000Y-102565000D03*
X58801000Y-105715000D03*
%TD*%
D21*
%TO.C,D1\u002C0*%
X65087500Y-31382800D03*
D22*
X65087500Y-23582800D03*
D23*
X65087500Y-25907800D03*
X65087500Y-29057800D03*
%TD*%
D21*
%TO.C,D1\u002C4*%
X68199000Y-127852000D03*
D22*
X68199000Y-120052000D03*
D23*
X68199000Y-122377000D03*
X68199000Y-125527000D03*
%TD*%
D21*
%TO.C,D1\u002C5*%
X52260500Y-147283000D03*
D22*
X52260500Y-139483000D03*
D23*
X52260500Y-141808000D03*
X52260500Y-144958000D03*
%TD*%
D21*
%TO.C,D1\u002C1*%
X44767500Y-69432000D03*
D22*
X44767500Y-61632000D03*
D23*
X44767500Y-63957000D03*
X44767500Y-67107000D03*
%TD*%
D21*
%TO.C,D1\u002C2*%
X53911500Y-88609000D03*
D22*
X53911500Y-80809000D03*
D23*
X53911500Y-83134000D03*
X53911500Y-86284000D03*
%TD*%
D21*
%TO.C,D2\u002C4*%
X87503000Y-127852000D03*
D22*
X87503000Y-120052000D03*
D23*
X87503000Y-122377000D03*
X87503000Y-125527000D03*
%TD*%
D21*
%TO.C,D2\u002C5*%
X76644500Y-147283000D03*
D22*
X76644500Y-139483000D03*
D23*
X76644500Y-141808000D03*
X76644500Y-144958000D03*
%TD*%
D21*
%TO.C,D2\u002C0*%
X84391500Y-31332000D03*
D22*
X84391500Y-23532000D03*
D23*
X84391500Y-25857000D03*
X84391500Y-29007000D03*
%TD*%
D21*
%TO.C,D2\u002C2*%
X73215500Y-88609000D03*
D22*
X73215500Y-80809000D03*
D23*
X73215500Y-83134000D03*
X73215500Y-86284000D03*
%TD*%
D21*
%TO.C,D2\u002C1*%
X63690500Y-69368500D03*
D22*
X63690500Y-61568500D03*
D23*
X63690500Y-63893500D03*
X63690500Y-67043500D03*
%TD*%
D21*
%TO.C,D2\u002C3*%
X78105000Y-108040000D03*
D22*
X78105000Y-100240000D03*
D23*
X78105000Y-102565000D03*
X78105000Y-105715000D03*
%TD*%
D21*
%TO.C,D3\u002C0*%
X103695500Y-31332000D03*
D22*
X103695500Y-23532000D03*
D23*
X103695500Y-25857000D03*
X103695500Y-29007000D03*
%TD*%
D21*
%TO.C,D3\u002C1*%
X82486500Y-69368500D03*
D22*
X82486500Y-61568500D03*
D23*
X82486500Y-63893500D03*
X82486500Y-67043500D03*
%TD*%
D21*
%TO.C,D3\u002C4*%
X106807000Y-127852000D03*
D22*
X106807000Y-120052000D03*
D23*
X106807000Y-122377000D03*
X106807000Y-125527000D03*
%TD*%
D21*
%TO.C,D3\u002C2*%
X92519500Y-88609000D03*
D22*
X92519500Y-80809000D03*
D23*
X92519500Y-83134000D03*
X92519500Y-86284000D03*
%TD*%
D21*
%TO.C,D3\u002C5*%
X148526500Y-147283000D03*
D22*
X148526500Y-139483000D03*
D23*
X148526500Y-141808000D03*
X148526500Y-144958000D03*
%TD*%
D21*
%TO.C,D3\u002C3*%
X97409000Y-108040000D03*
D22*
X97409000Y-100240000D03*
D23*
X97409000Y-102565000D03*
X97409000Y-105715000D03*
%TD*%
D21*
%TO.C,D4\u002C4*%
X126111000Y-127852000D03*
D22*
X126111000Y-120052000D03*
D23*
X126111000Y-122377000D03*
X126111000Y-125527000D03*
%TD*%
D21*
%TO.C,D4\u002C3*%
X116713000Y-108040000D03*
D22*
X116713000Y-100240000D03*
D23*
X116713000Y-102565000D03*
X116713000Y-105715000D03*
%TD*%
D21*
%TO.C,D4\u002C1*%
X101790500Y-69368500D03*
D22*
X101790500Y-61568500D03*
D23*
X101790500Y-63893500D03*
X101790500Y-67043500D03*
%TD*%
D21*
%TO.C,D4\u002C0*%
X122999500Y-31332000D03*
D22*
X122999500Y-23532000D03*
D23*
X122999500Y-25857000D03*
X122999500Y-29007000D03*
%TD*%
%TO.C,D4\u002C2*%
X111823500Y-86284000D03*
X111823500Y-83134000D03*
D22*
X111823500Y-80809000D03*
D21*
X111823500Y-88609000D03*
%TD*%
%TO.C,D5\u002C0*%
X154495500Y-31332000D03*
D22*
X154495500Y-23532000D03*
D23*
X154495500Y-25857000D03*
X154495500Y-29007000D03*
%TD*%
%TO.C,D5\u002C2*%
X131127500Y-86284000D03*
X131127500Y-83134000D03*
D22*
X131127500Y-80809000D03*
D21*
X131127500Y-88609000D03*
%TD*%
%TO.C,D5\u002C1*%
X121094500Y-69368500D03*
D22*
X121094500Y-61568500D03*
D23*
X121094500Y-63893500D03*
X121094500Y-67043500D03*
%TD*%
D21*
%TO.C,D5\u002C3*%
X136017000Y-108090800D03*
D22*
X136017000Y-100290800D03*
D23*
X136017000Y-102615800D03*
X136017000Y-105765800D03*
%TD*%
D21*
%TO.C,D5\u002C4*%
X145415000Y-127902800D03*
D22*
X145415000Y-120102800D03*
D23*
X145415000Y-122427800D03*
X145415000Y-125577800D03*
%TD*%
D21*
%TO.C,D6\u002C0*%
X173799500Y-31332000D03*
D22*
X173799500Y-23532000D03*
D23*
X173799500Y-25857000D03*
X173799500Y-29007000D03*
%TD*%
D21*
%TO.C,D6\u002C3*%
X155321000Y-108040000D03*
D22*
X155321000Y-100240000D03*
D23*
X155321000Y-102565000D03*
X155321000Y-105715000D03*
%TD*%
D21*
%TO.C,D6\u002C4*%
X164719000Y-127852000D03*
D22*
X164719000Y-120052000D03*
D23*
X164719000Y-122377000D03*
X164719000Y-125527000D03*
%TD*%
D21*
%TO.C,D6\u002C1*%
X140398500Y-69368500D03*
D22*
X140398500Y-61568500D03*
D23*
X140398500Y-63893500D03*
X140398500Y-67043500D03*
%TD*%
%TO.C,D6\u002C2*%
X150431500Y-86284000D03*
X150431500Y-83134000D03*
D22*
X150431500Y-80809000D03*
D21*
X150431500Y-88609000D03*
%TD*%
%TO.C,D7\u002C4*%
X184023000Y-127902800D03*
D22*
X184023000Y-120102800D03*
D23*
X184023000Y-122427800D03*
X184023000Y-125577800D03*
%TD*%
%TO.C,D7\u002C2*%
X169735500Y-86334800D03*
X169735500Y-83184800D03*
D22*
X169735500Y-80859800D03*
D21*
X169735500Y-88659800D03*
%TD*%
%TO.C,D7\u002C1*%
X159702500Y-69368500D03*
D22*
X159702500Y-61568500D03*
D23*
X159702500Y-63893500D03*
X159702500Y-67043500D03*
%TD*%
D21*
%TO.C,D7\u002C0*%
X193103500Y-31332000D03*
D22*
X193103500Y-23532000D03*
D23*
X193103500Y-25857000D03*
X193103500Y-29007000D03*
%TD*%
D21*
%TO.C,D7\u002C3*%
X174625000Y-108040000D03*
D22*
X174625000Y-100240000D03*
D23*
X174625000Y-102565000D03*
X174625000Y-105715000D03*
%TD*%
D21*
%TO.C,D8\u002C0*%
X212407500Y-31382800D03*
D22*
X212407500Y-23582800D03*
D23*
X212407500Y-25907800D03*
X212407500Y-29057800D03*
%TD*%
D21*
%TO.C,D8\u002C3*%
X193929000Y-108040000D03*
D22*
X193929000Y-100240000D03*
D23*
X193929000Y-102565000D03*
X193929000Y-105715000D03*
%TD*%
D21*
%TO.C,D8\u002C1*%
X179006500Y-69368500D03*
D22*
X179006500Y-61568500D03*
D23*
X179006500Y-63893500D03*
X179006500Y-67043500D03*
%TD*%
%TO.C,D8\u002C2*%
X189039500Y-86284000D03*
X189039500Y-83134000D03*
D22*
X189039500Y-80809000D03*
D21*
X189039500Y-88609000D03*
%TD*%
%TO.C,D8\u002C5*%
X220281500Y-147346500D03*
D22*
X220281500Y-139546500D03*
D23*
X220281500Y-141871500D03*
X220281500Y-145021500D03*
%TD*%
D21*
%TO.C,D8\u002C4*%
X203327000Y-127852000D03*
D22*
X203327000Y-120052000D03*
D23*
X203327000Y-122377000D03*
X203327000Y-125527000D03*
%TD*%
%TO.C,D9\u002C2*%
X208343500Y-86284000D03*
X208343500Y-83134000D03*
D22*
X208343500Y-80809000D03*
D21*
X208343500Y-88609000D03*
%TD*%
%TO.C,D9\u002C1*%
X198310500Y-69419300D03*
D22*
X198310500Y-61619300D03*
D23*
X198310500Y-63944300D03*
X198310500Y-67094300D03*
%TD*%
D21*
%TO.C,D9\u002C3*%
X213233000Y-108040000D03*
D22*
X213233000Y-100240000D03*
D23*
X213233000Y-102565000D03*
X213233000Y-105715000D03*
%TD*%
D21*
%TO.C,D9\u002C4*%
X222631000Y-127852000D03*
D22*
X222631000Y-120052000D03*
D23*
X222631000Y-122377000D03*
X222631000Y-125527000D03*
%TD*%
D21*
%TO.C,D9\u002C5*%
X244411500Y-147283000D03*
D22*
X244411500Y-139483000D03*
D23*
X244411500Y-141808000D03*
X244411500Y-144958000D03*
%TD*%
D21*
%TO.C,D9\u002C0*%
X238823500Y-31332000D03*
D22*
X238823500Y-23532000D03*
D23*
X238823500Y-25857000D03*
X238823500Y-29007000D03*
%TD*%
D21*
%TO.C,D10\u002C4*%
X241935000Y-127902800D03*
D22*
X241935000Y-120102800D03*
D23*
X241935000Y-122427800D03*
X241935000Y-125577800D03*
%TD*%
D21*
%TO.C,D10\u002C5*%
X268605000Y-147283000D03*
D22*
X268605000Y-139483000D03*
D23*
X268605000Y-141808000D03*
X268605000Y-144958000D03*
%TD*%
D21*
%TO.C,D10\u002C1*%
X217614500Y-69368500D03*
D22*
X217614500Y-61568500D03*
D23*
X217614500Y-63893500D03*
X217614500Y-67043500D03*
%TD*%
D21*
%TO.C,D10\u002C0*%
X258127500Y-31332000D03*
D22*
X258127500Y-23532000D03*
D23*
X258127500Y-25857000D03*
X258127500Y-29007000D03*
%TD*%
%TO.C,D10\u002C2*%
X227647500Y-86334800D03*
X227647500Y-83184800D03*
D22*
X227647500Y-80859800D03*
D21*
X227647500Y-88659800D03*
%TD*%
%TO.C,D10\u002C3*%
X232537000Y-108040000D03*
D22*
X232537000Y-100240000D03*
D23*
X232537000Y-102565000D03*
X232537000Y-105715000D03*
%TD*%
D21*
%TO.C,D11\u002C0*%
X277431500Y-31332000D03*
D22*
X277431500Y-23532000D03*
D23*
X277431500Y-25857000D03*
X277431500Y-29007000D03*
%TD*%
D21*
%TO.C,D11\u002C1*%
X236918500Y-69368500D03*
D22*
X236918500Y-61568500D03*
D23*
X236918500Y-63893500D03*
X236918500Y-67043500D03*
%TD*%
D21*
%TO.C,D11\u002C3*%
X251841000Y-108040000D03*
D22*
X251841000Y-100240000D03*
D23*
X251841000Y-102565000D03*
X251841000Y-105715000D03*
%TD*%
%TO.C,D11\u002C2*%
X246951500Y-86284000D03*
X246951500Y-83134000D03*
D22*
X246951500Y-80809000D03*
D21*
X246951500Y-88609000D03*
%TD*%
%TO.C,D11\u002C4*%
X278511000Y-127852000D03*
D22*
X278511000Y-120052000D03*
D23*
X278511000Y-122377000D03*
X278511000Y-125527000D03*
%TD*%
D21*
%TO.C,D11\u002C5*%
X292671500Y-147283000D03*
D22*
X292671500Y-139483000D03*
D23*
X292671500Y-141808000D03*
X292671500Y-144958000D03*
%TD*%
D21*
%TO.C,D12\u002C3*%
X283337000Y-108103500D03*
D22*
X283337000Y-100303500D03*
D23*
X283337000Y-102628500D03*
X283337000Y-105778500D03*
%TD*%
%TO.C,D12\u002C2*%
X266255500Y-86284000D03*
X266255500Y-83134000D03*
D22*
X266255500Y-80809000D03*
D21*
X266255500Y-88609000D03*
%TD*%
%TO.C,D12\u002C1*%
X256222500Y-69419300D03*
D22*
X256222500Y-61619300D03*
D23*
X256222500Y-63944300D03*
X256222500Y-67094300D03*
%TD*%
D21*
%TO.C,D12\u002C0*%
X296735500Y-31332000D03*
D22*
X296735500Y-23532000D03*
D23*
X296735500Y-25857000D03*
X296735500Y-29007000D03*
%TD*%
D21*
%TO.C,D13\u002C2*%
X290068000Y-88672500D03*
D22*
X290068000Y-80872500D03*
D23*
X290068000Y-83197500D03*
X290068000Y-86347500D03*
%TD*%
D21*
%TO.C,D13\u002C1*%
X285178500Y-69368500D03*
D22*
X285178500Y-61568500D03*
D23*
X285178500Y-63893500D03*
X285178500Y-67043500D03*
%TD*%
D21*
%TO.C,D14\u002C1*%
X323278500Y-69368500D03*
D22*
X323278500Y-61568500D03*
D23*
X323278500Y-63893500D03*
X323278500Y-67043500D03*
%TD*%
D21*
%TO.C,D14\u002C3*%
X323532500Y-88609000D03*
D22*
X323532500Y-80809000D03*
D23*
X323532500Y-83134000D03*
X323532500Y-86284000D03*
%TD*%
D21*
%TO.C,D14\u002C0*%
X326199500Y-31332000D03*
D22*
X326199500Y-23532000D03*
D23*
X326199500Y-25857000D03*
X326199500Y-29007000D03*
%TD*%
D21*
%TO.C,D14\u002C6*%
X323215000Y-147156000D03*
D22*
X323215000Y-139356000D03*
D23*
X323215000Y-141681000D03*
X323215000Y-144831000D03*
%TD*%
D21*
%TO.C,D15\u002C0*%
X346011500Y-31332000D03*
D22*
X346011500Y-23532000D03*
D23*
X346011500Y-25857000D03*
X346011500Y-29007000D03*
%TD*%
D21*
%TO.C,D15\u002C1*%
X342582500Y-69368500D03*
D22*
X342582500Y-61568500D03*
D23*
X342582500Y-63893500D03*
X342582500Y-67043500D03*
%TD*%
D21*
%TO.C,D15\u002C3*%
X342582500Y-88609000D03*
D22*
X342582500Y-80809000D03*
D23*
X342582500Y-83134000D03*
X342582500Y-86284000D03*
%TD*%
D21*
%TO.C,D15\u002C5*%
X342519000Y-127852000D03*
D22*
X342519000Y-120052000D03*
D23*
X342519000Y-122377000D03*
X342519000Y-125527000D03*
%TD*%
D21*
%TO.C,D15\u002C6*%
X342519000Y-147156000D03*
D22*
X342519000Y-139356000D03*
D23*
X342519000Y-141681000D03*
X342519000Y-144831000D03*
%TD*%
D21*
%TO.C,D16\u002C6*%
X361823000Y-147156000D03*
D22*
X361823000Y-139356000D03*
D23*
X361823000Y-141681000D03*
X361823000Y-144831000D03*
%TD*%
D21*
%TO.C,D16\u002C0*%
X365061500Y-31332000D03*
D22*
X365061500Y-23532000D03*
D23*
X365061500Y-25857000D03*
X365061500Y-29007000D03*
%TD*%
D21*
%TO.C,D16\u002C1*%
X361886500Y-69368500D03*
D22*
X361886500Y-61568500D03*
D23*
X361886500Y-63893500D03*
X361886500Y-67043500D03*
%TD*%
D21*
%TO.C,D16\u002C5*%
X394652500Y-127344000D03*
D22*
X394652500Y-119544000D03*
D23*
X394652500Y-121869000D03*
X394652500Y-125019000D03*
%TD*%
D21*
%TO.C,D16\u002C3*%
X362140500Y-88609000D03*
D22*
X362140500Y-80809000D03*
D23*
X362140500Y-83134000D03*
X362140500Y-86284000D03*
%TD*%
D21*
%TO.C,D16\u002C4*%
X394906500Y-108040000D03*
D22*
X394906500Y-100240000D03*
D23*
X394906500Y-102565000D03*
X394906500Y-105715000D03*
%TD*%
D21*
%TO.C,D17\u002C3*%
X394906500Y-88736000D03*
D22*
X394906500Y-80936000D03*
D23*
X394906500Y-83261000D03*
X394906500Y-86411000D03*
%TD*%
D21*
%TO.C,D17\u002C1*%
X394906500Y-69368500D03*
D22*
X394906500Y-61568500D03*
D23*
X394906500Y-63893500D03*
X394906500Y-67043500D03*
%TD*%
D21*
%TO.C,D17\u002C6*%
X404685500Y-146698800D03*
D22*
X404685500Y-138898800D03*
D23*
X404685500Y-141223800D03*
X404685500Y-144373800D03*
%TD*%
D21*
%TO.C,D17\u002C4*%
X414210500Y-108040000D03*
D22*
X414210500Y-100240000D03*
D23*
X414210500Y-102565000D03*
X414210500Y-105715000D03*
%TD*%
D21*
%TO.C,D17\u002C0*%
X394779500Y-31332000D03*
D22*
X394779500Y-23532000D03*
D23*
X394779500Y-25857000D03*
X394779500Y-29007000D03*
%TD*%
D21*
%TO.C,D17\u002C5*%
X414210500Y-127344000D03*
D22*
X414210500Y-119544000D03*
D23*
X414210500Y-121869000D03*
X414210500Y-125019000D03*
%TD*%
D21*
%TO.C,D18\u002C1*%
X414210500Y-69419300D03*
D22*
X414210500Y-61619300D03*
D23*
X414210500Y-63944300D03*
X414210500Y-67094300D03*
%TD*%
D21*
%TO.C,D18\u002C6*%
X433514500Y-146648000D03*
D22*
X433514500Y-138848000D03*
D23*
X433514500Y-141173000D03*
X433514500Y-144323000D03*
%TD*%
D21*
%TO.C,D18\u002C3*%
X414210500Y-88736000D03*
D22*
X414210500Y-80936000D03*
D23*
X414210500Y-83261000D03*
X414210500Y-86411000D03*
%TD*%
D21*
%TO.C,D18\u002C0*%
X414083500Y-31332000D03*
D22*
X414083500Y-23532000D03*
D23*
X414083500Y-25857000D03*
X414083500Y-29007000D03*
%TD*%
D21*
%TO.C,D18\u002C5*%
X433514500Y-127344000D03*
D22*
X433514500Y-119544000D03*
D23*
X433514500Y-121869000D03*
X433514500Y-125019000D03*
%TD*%
D21*
%TO.C,D18\u002C4*%
X433514500Y-107976500D03*
D22*
X433514500Y-100176500D03*
D23*
X433514500Y-102501500D03*
X433514500Y-105651500D03*
%TD*%
D21*
%TO.C,D19\u002C4*%
X452818500Y-98057800D03*
D22*
X452818500Y-90257800D03*
D23*
X452818500Y-92582800D03*
X452818500Y-95732800D03*
%TD*%
D21*
%TO.C,D19\u002C0*%
X433387500Y-31332000D03*
D22*
X433387500Y-23532000D03*
D23*
X433387500Y-25857000D03*
X433387500Y-29007000D03*
%TD*%
D21*
%TO.C,D19\u002C3*%
X433514500Y-88736000D03*
D22*
X433514500Y-80936000D03*
D23*
X433514500Y-83261000D03*
X433514500Y-86411000D03*
%TD*%
D21*
%TO.C,D19\u002C1*%
X433514500Y-69368500D03*
D22*
X433514500Y-61568500D03*
D23*
X433514500Y-63893500D03*
X433514500Y-67043500D03*
%TD*%
D21*
%TO.C,D19\u002C6*%
X453072500Y-136996000D03*
D22*
X453072500Y-129196000D03*
D23*
X453072500Y-131521000D03*
X453072500Y-134671000D03*
%TD*%
D21*
%TO.C,D20\u002C1*%
X452818500Y-69368500D03*
D22*
X452818500Y-61568500D03*
D23*
X452818500Y-63893500D03*
X452818500Y-67043500D03*
%TD*%
D21*
%TO.C,D20\u002C0*%
X452691500Y-31382800D03*
D22*
X452691500Y-23582800D03*
D23*
X452691500Y-25907800D03*
X452691500Y-29057800D03*
%TD*%
D24*
%TO.C,J0*%
X82550000Y8325500D03*
X82550000Y5825500D03*
X82550000Y3325500D03*
G36*
G01*
X83275000Y-24500D02*
X81825000Y-24500D01*
G75*
G02*
X81575000Y225500I0J250000D01*
G01*
X81575000Y1425500D01*
G75*
G02*
X81825000Y1675500I250000J0D01*
G01*
X83275000Y1675500D01*
G75*
G02*
X83525000Y1425500I0J-250000D01*
G01*
X83525000Y225500D01*
G75*
G02*
X83275000Y-24500I-250000J0D01*
G01*
G37*
%TD*%
%TO.C,J1*%
X82550000Y-5461000D03*
X82550000Y-7961000D03*
X82550000Y-10461000D03*
G36*
G01*
X83275000Y-13811000D02*
X81825000Y-13811000D01*
G75*
G02*
X81575000Y-13561000I0J250000D01*
G01*
X81575000Y-12361000D01*
G75*
G02*
X81825000Y-12111000I250000J0D01*
G01*
X83275000Y-12111000D01*
G75*
G02*
X83525000Y-12361000I0J-250000D01*
G01*
X83525000Y-13561000D01*
G75*
G02*
X83275000Y-13811000I-250000J0D01*
G01*
G37*
%TD*%
D11*
%TO.C,K0\u002C0*%
X27241500Y-31242000D03*
X40168500Y-28702000D03*
D12*
X28003500Y-26162000D03*
X38163500Y-26162000D03*
D13*
X33083500Y-26162000D03*
D14*
X30543500Y-31242000D03*
X36893500Y-28702000D03*
%TD*%
D11*
%TO.C,K0\u002C1*%
X27241500Y-69342000D03*
X40168500Y-66802000D03*
D12*
X28003500Y-64262000D03*
X38163500Y-64262000D03*
D13*
X33083500Y-64262000D03*
D14*
X30543500Y-69342000D03*
X36893500Y-66802000D03*
%TD*%
D11*
%TO.C,K0\u002C5*%
X29654500Y-147193000D03*
X42581500Y-144653000D03*
D12*
X30416500Y-142113000D03*
X40576500Y-142113000D03*
D13*
X35496500Y-142113000D03*
D14*
X32956500Y-147193000D03*
X39306500Y-144653000D03*
%TD*%
D11*
%TO.C,K0\u002C4*%
X39052500Y-127825500D03*
X51979500Y-125285500D03*
D12*
X39814500Y-122745500D03*
X49974500Y-122745500D03*
D13*
X44894500Y-122745500D03*
D14*
X42354500Y-127825500D03*
X48704500Y-125285500D03*
%TD*%
D11*
%TO.C,K0\u002C3*%
X34328100Y-108051600D03*
X47255100Y-105511600D03*
D12*
X35090100Y-102971600D03*
X45250100Y-102971600D03*
D13*
X40170100Y-102971600D03*
D14*
X37630100Y-108051600D03*
X43980100Y-105511600D03*
%TD*%
D11*
%TO.C,K1\u002C4*%
X70167500Y-127812800D03*
X83094500Y-125272800D03*
D12*
X70929500Y-122732800D03*
X81089500Y-122732800D03*
D13*
X76009500Y-122732800D03*
D14*
X73469500Y-127812800D03*
X79819500Y-125272800D03*
%TD*%
D11*
%TO.C,K1\u002C5*%
X54229000Y-147243800D03*
X67156000Y-144703800D03*
D12*
X54991000Y-142163800D03*
X65151000Y-142163800D03*
D13*
X60071000Y-142163800D03*
D14*
X57531000Y-147243800D03*
X63881000Y-144703800D03*
%TD*%
D11*
%TO.C,K1\u002C3*%
X60769500Y-108000800D03*
X73696500Y-105460800D03*
D12*
X61531500Y-102920800D03*
X71691500Y-102920800D03*
D13*
X66611500Y-102920800D03*
D14*
X64071500Y-108000800D03*
X70421500Y-105460800D03*
%TD*%
D11*
%TO.C,K1\u002C2*%
X55880000Y-88569800D03*
X68807000Y-86029800D03*
D12*
X56642000Y-83489800D03*
X66802000Y-83489800D03*
D13*
X61722000Y-83489800D03*
D14*
X59182000Y-88569800D03*
X65532000Y-86029800D03*
%TD*%
D11*
%TO.C,K1\u002C1*%
X46456600Y-69342000D03*
X59383600Y-66802000D03*
D12*
X47218600Y-64262000D03*
X57378600Y-64262000D03*
D13*
X52298600Y-64262000D03*
D14*
X49758600Y-69342000D03*
X56108600Y-66802000D03*
%TD*%
D11*
%TO.C,K1\u002C0*%
X67056000Y-31292800D03*
X79983000Y-28752800D03*
D12*
X67818000Y-26212800D03*
X77978000Y-26212800D03*
D13*
X72898000Y-26212800D03*
D14*
X70358000Y-31292800D03*
X76708000Y-28752800D03*
%TD*%
D11*
%TO.C,K2\u002C5*%
X78613000Y-147243800D03*
X91540000Y-144703800D03*
D12*
X79375000Y-142163800D03*
X89535000Y-142163800D03*
D13*
X84455000Y-142163800D03*
D14*
X81915000Y-147243800D03*
X88265000Y-144703800D03*
%TD*%
D11*
%TO.C,K2\u002C3*%
X80073500Y-108000800D03*
X93000500Y-105460800D03*
D12*
X80835500Y-102920800D03*
X90995500Y-102920800D03*
D13*
X85915500Y-102920800D03*
D14*
X83375500Y-108000800D03*
X89725500Y-105460800D03*
%TD*%
D11*
%TO.C,K2\u002C1*%
X65659000Y-69329300D03*
X78586000Y-66789300D03*
D12*
X66421000Y-64249300D03*
X76581000Y-64249300D03*
D13*
X71501000Y-64249300D03*
D14*
X68961000Y-69329300D03*
X75311000Y-66789300D03*
%TD*%
D11*
%TO.C,K2\u002C4*%
X89471500Y-127812800D03*
X102398500Y-125272800D03*
D12*
X90233500Y-122732800D03*
X100393500Y-122732800D03*
D13*
X95313500Y-122732800D03*
D14*
X92773500Y-127812800D03*
X99123500Y-125272800D03*
%TD*%
D11*
%TO.C,K2\u002C2*%
X75184000Y-88569800D03*
X88111000Y-86029800D03*
D12*
X75946000Y-83489800D03*
X86106000Y-83489800D03*
D13*
X81026000Y-83489800D03*
D14*
X78486000Y-88569800D03*
X84836000Y-86029800D03*
%TD*%
D11*
%TO.C,K2\u002C0*%
X86360000Y-31292800D03*
X99287000Y-28752800D03*
D12*
X87122000Y-26212800D03*
X97282000Y-26212800D03*
D13*
X92202000Y-26212800D03*
D14*
X89662000Y-31292800D03*
X96012000Y-28752800D03*
%TD*%
D11*
%TO.C,K3\u002C5*%
X150495000Y-147243800D03*
X163422000Y-144703800D03*
D12*
X151257000Y-142163800D03*
X161417000Y-142163800D03*
D13*
X156337000Y-142163800D03*
D14*
X153797000Y-147243800D03*
X160147000Y-144703800D03*
%TD*%
D11*
%TO.C,K3\u002C4*%
X108775500Y-127812800D03*
X121702500Y-125272800D03*
D12*
X109537500Y-122732800D03*
X119697500Y-122732800D03*
D13*
X114617500Y-122732800D03*
D14*
X112077500Y-127812800D03*
X118427500Y-125272800D03*
%TD*%
D11*
%TO.C,K3\u002C2*%
X94488000Y-88569800D03*
X107415000Y-86029800D03*
D12*
X95250000Y-83489800D03*
X105410000Y-83489800D03*
D13*
X100330000Y-83489800D03*
D14*
X97790000Y-88569800D03*
X104140000Y-86029800D03*
%TD*%
D11*
%TO.C,K3\u002C1*%
X84455000Y-69329300D03*
X97382000Y-66789300D03*
D12*
X85217000Y-64249300D03*
X95377000Y-64249300D03*
D13*
X90297000Y-64249300D03*
D14*
X87757000Y-69329300D03*
X94107000Y-66789300D03*
%TD*%
D11*
%TO.C,K3\u002C0*%
X105664000Y-31292800D03*
X118591000Y-28752800D03*
D12*
X106426000Y-26212800D03*
X116586000Y-26212800D03*
D13*
X111506000Y-26212800D03*
D14*
X108966000Y-31292800D03*
X115316000Y-28752800D03*
%TD*%
D11*
%TO.C,K3\u002C3*%
X99377500Y-108000800D03*
X112304500Y-105460800D03*
D12*
X100139500Y-102920800D03*
X110299500Y-102920800D03*
D13*
X105219500Y-102920800D03*
D14*
X102679500Y-108000800D03*
X109029500Y-105460800D03*
%TD*%
D11*
%TO.C,K4\u002C1*%
X103759000Y-69329300D03*
X116686000Y-66789300D03*
D12*
X104521000Y-64249300D03*
X114681000Y-64249300D03*
D13*
X109601000Y-64249300D03*
D14*
X107061000Y-69329300D03*
X113411000Y-66789300D03*
%TD*%
%TO.C,K4\u002C2*%
X123444000Y-86029800D03*
X117094000Y-88569800D03*
D13*
X119634000Y-83489800D03*
D12*
X124714000Y-83489800D03*
X114554000Y-83489800D03*
D11*
X126719000Y-86029800D03*
X113792000Y-88569800D03*
%TD*%
%TO.C,K4\u002C3*%
X118681500Y-108000800D03*
X131608500Y-105460800D03*
D12*
X119443500Y-102920800D03*
X129603500Y-102920800D03*
D13*
X124523500Y-102920800D03*
D14*
X121983500Y-108000800D03*
X128333500Y-105460800D03*
%TD*%
D11*
%TO.C,K4\u002C4*%
X128079500Y-127812800D03*
X141006500Y-125272800D03*
D12*
X128841500Y-122732800D03*
X139001500Y-122732800D03*
D13*
X133921500Y-122732800D03*
D14*
X131381500Y-127812800D03*
X137731500Y-125272800D03*
%TD*%
D11*
%TO.C,K4\u002C0*%
X124968000Y-31292800D03*
X137895000Y-28752800D03*
D12*
X125730000Y-26212800D03*
X135890000Y-26212800D03*
D13*
X130810000Y-26212800D03*
D14*
X128270000Y-31292800D03*
X134620000Y-28752800D03*
%TD*%
D11*
%TO.C,K5\u002C0*%
X156464000Y-31292800D03*
X169391000Y-28752800D03*
D12*
X157226000Y-26212800D03*
X167386000Y-26212800D03*
D13*
X162306000Y-26212800D03*
D14*
X159766000Y-31292800D03*
X166116000Y-28752800D03*
%TD*%
%TO.C,K5\u002C2*%
X142748000Y-86029800D03*
X136398000Y-88569800D03*
D13*
X138938000Y-83489800D03*
D12*
X144018000Y-83489800D03*
X133858000Y-83489800D03*
D11*
X146023000Y-86029800D03*
X133096000Y-88569800D03*
%TD*%
%TO.C,K5\u002C1*%
X123063000Y-69329300D03*
X135990000Y-66789300D03*
D12*
X123825000Y-64249300D03*
X133985000Y-64249300D03*
D13*
X128905000Y-64249300D03*
D14*
X126365000Y-69329300D03*
X132715000Y-66789300D03*
%TD*%
D11*
%TO.C,K5\u002C3*%
X137985500Y-108000800D03*
X150912500Y-105460800D03*
D12*
X138747500Y-102920800D03*
X148907500Y-102920800D03*
D13*
X143827500Y-102920800D03*
D14*
X141287500Y-108000800D03*
X147637500Y-105460800D03*
%TD*%
D11*
%TO.C,K5\u002C4*%
X147383500Y-127812800D03*
X160310500Y-125272800D03*
D12*
X148145500Y-122732800D03*
X158305500Y-122732800D03*
D13*
X153225500Y-122732800D03*
D14*
X150685500Y-127812800D03*
X157035500Y-125272800D03*
%TD*%
D11*
%TO.C,K6\u002C3*%
X157289500Y-108000800D03*
X170216500Y-105460800D03*
D12*
X158051500Y-102920800D03*
X168211500Y-102920800D03*
D13*
X163131500Y-102920800D03*
D14*
X160591500Y-108000800D03*
X166941500Y-105460800D03*
%TD*%
D11*
%TO.C,K6\u002C4*%
X166687500Y-127812800D03*
X179614500Y-125272800D03*
D12*
X167449500Y-122732800D03*
X177609500Y-122732800D03*
D13*
X172529500Y-122732800D03*
D14*
X169989500Y-127812800D03*
X176339500Y-125272800D03*
%TD*%
D11*
%TO.C,K6\u002C1*%
X142367000Y-69329300D03*
X155294000Y-66789300D03*
D12*
X143129000Y-64249300D03*
X153289000Y-64249300D03*
D13*
X148209000Y-64249300D03*
D14*
X145669000Y-69329300D03*
X152019000Y-66789300D03*
%TD*%
%TO.C,K6\u002C2*%
X162052000Y-86029800D03*
X155702000Y-88569800D03*
D13*
X158242000Y-83489800D03*
D12*
X163322000Y-83489800D03*
X153162000Y-83489800D03*
D11*
X165327000Y-86029800D03*
X152400000Y-88569800D03*
%TD*%
%TO.C,K6\u002C0*%
X175768000Y-31292800D03*
X188695000Y-28752800D03*
D12*
X176530000Y-26212800D03*
X186690000Y-26212800D03*
D13*
X181610000Y-26212800D03*
D14*
X179070000Y-31292800D03*
X185420000Y-28752800D03*
%TD*%
%TO.C,K7\u002C2*%
X181356000Y-86029800D03*
X175006000Y-88569800D03*
D13*
X177546000Y-83489800D03*
D12*
X182626000Y-83489800D03*
X172466000Y-83489800D03*
D11*
X184631000Y-86029800D03*
X171704000Y-88569800D03*
%TD*%
%TO.C,K7\u002C1*%
X161671000Y-69329300D03*
X174598000Y-66789300D03*
D12*
X162433000Y-64249300D03*
X172593000Y-64249300D03*
D13*
X167513000Y-64249300D03*
D14*
X164973000Y-69329300D03*
X171323000Y-66789300D03*
%TD*%
D11*
%TO.C,K7\u002C3*%
X176593500Y-108000800D03*
X189520500Y-105460800D03*
D12*
X177355500Y-102920800D03*
X187515500Y-102920800D03*
D13*
X182435500Y-102920800D03*
D14*
X179895500Y-108000800D03*
X186245500Y-105460800D03*
%TD*%
D11*
%TO.C,K7\u002C4*%
X185991500Y-127812800D03*
X198918500Y-125272800D03*
D12*
X186753500Y-122732800D03*
X196913500Y-122732800D03*
D13*
X191833500Y-122732800D03*
D14*
X189293500Y-127812800D03*
X195643500Y-125272800D03*
%TD*%
D11*
%TO.C,K7\u002C0*%
X195072000Y-31292800D03*
X207999000Y-28752800D03*
D12*
X195834000Y-26212800D03*
X205994000Y-26212800D03*
D13*
X200914000Y-26212800D03*
D14*
X198374000Y-31292800D03*
X204724000Y-28752800D03*
%TD*%
D11*
%TO.C,K8\u002C0*%
X214376000Y-31292800D03*
X227303000Y-28752800D03*
D12*
X215138000Y-26212800D03*
X225298000Y-26212800D03*
D13*
X220218000Y-26212800D03*
D14*
X217678000Y-31292800D03*
X224028000Y-28752800D03*
%TD*%
D11*
%TO.C,K8\u002C1*%
X180975000Y-69329300D03*
X193902000Y-66789300D03*
D12*
X181737000Y-64249300D03*
X191897000Y-64249300D03*
D13*
X186817000Y-64249300D03*
D14*
X184277000Y-69329300D03*
X190627000Y-66789300D03*
%TD*%
D11*
%TO.C,K8\u002C3*%
X195897500Y-108000800D03*
X208824500Y-105460800D03*
D12*
X196659500Y-102920800D03*
X206819500Y-102920800D03*
D13*
X201739500Y-102920800D03*
D14*
X199199500Y-108000800D03*
X205549500Y-105460800D03*
%TD*%
D11*
%TO.C,K8\u002C4*%
X205295500Y-127812800D03*
X218222500Y-125272800D03*
D12*
X206057500Y-122732800D03*
X216217500Y-122732800D03*
D13*
X211137500Y-122732800D03*
D14*
X208597500Y-127812800D03*
X214947500Y-125272800D03*
%TD*%
D11*
%TO.C,K8\u002C5*%
X222250000Y-147307300D03*
X235177000Y-144767300D03*
D12*
X223012000Y-142227300D03*
X233172000Y-142227300D03*
D13*
X228092000Y-142227300D03*
D14*
X225552000Y-147307300D03*
X231902000Y-144767300D03*
%TD*%
%TO.C,K8\u002C2*%
X200660000Y-86029800D03*
X194310000Y-88569800D03*
D13*
X196850000Y-83489800D03*
D12*
X201930000Y-83489800D03*
X191770000Y-83489800D03*
D11*
X203935000Y-86029800D03*
X191008000Y-88569800D03*
%TD*%
%TO.C,K9\u002C0*%
X240792000Y-31292800D03*
X253719000Y-28752800D03*
D12*
X241554000Y-26212800D03*
X251714000Y-26212800D03*
D13*
X246634000Y-26212800D03*
D14*
X244094000Y-31292800D03*
X250444000Y-28752800D03*
%TD*%
D11*
%TO.C,K9\u002C5*%
X246380000Y-147243800D03*
X259307000Y-144703800D03*
D12*
X247142000Y-142163800D03*
X257302000Y-142163800D03*
D13*
X252222000Y-142163800D03*
D14*
X249682000Y-147243800D03*
X256032000Y-144703800D03*
%TD*%
D11*
%TO.C,K9\u002C1*%
X200279000Y-69329300D03*
X213206000Y-66789300D03*
D12*
X201041000Y-64249300D03*
X211201000Y-64249300D03*
D13*
X206121000Y-64249300D03*
D14*
X203581000Y-69329300D03*
X209931000Y-66789300D03*
%TD*%
%TO.C,K9\u002C2*%
X219964000Y-86029800D03*
X213614000Y-88569800D03*
D13*
X216154000Y-83489800D03*
D12*
X221234000Y-83489800D03*
X211074000Y-83489800D03*
D11*
X223239000Y-86029800D03*
X210312000Y-88569800D03*
%TD*%
%TO.C,K9\u002C4*%
X224599500Y-127812800D03*
X237526500Y-125272800D03*
D12*
X225361500Y-122732800D03*
X235521500Y-122732800D03*
D13*
X230441500Y-122732800D03*
D14*
X227901500Y-127812800D03*
X234251500Y-125272800D03*
%TD*%
D11*
%TO.C,K9\u002C3*%
X215201500Y-108000800D03*
X228128500Y-105460800D03*
D12*
X215963500Y-102920800D03*
X226123500Y-102920800D03*
D13*
X221043500Y-102920800D03*
D14*
X218503500Y-108000800D03*
X224853500Y-105460800D03*
%TD*%
%TO.C,K10\u002C2*%
X239268000Y-86029800D03*
X232918000Y-88569800D03*
D13*
X235458000Y-83489800D03*
D12*
X240538000Y-83489800D03*
X230378000Y-83489800D03*
D11*
X242543000Y-86029800D03*
X229616000Y-88569800D03*
%TD*%
%TO.C,K10\u002C0*%
X260096000Y-31292800D03*
X273023000Y-28752800D03*
D12*
X260858000Y-26212800D03*
X271018000Y-26212800D03*
D13*
X265938000Y-26212800D03*
D14*
X263398000Y-31292800D03*
X269748000Y-28752800D03*
%TD*%
D11*
%TO.C,K10\u002C5*%
X270573500Y-147243800D03*
X283500500Y-144703800D03*
D12*
X271335500Y-142163800D03*
X281495500Y-142163800D03*
D13*
X276415500Y-142163800D03*
D14*
X273875500Y-147243800D03*
X280225500Y-144703800D03*
%TD*%
D11*
%TO.C,K10\u002C1*%
X219583000Y-69329300D03*
X232510000Y-66789300D03*
D12*
X220345000Y-64249300D03*
X230505000Y-64249300D03*
D13*
X225425000Y-64249300D03*
D14*
X222885000Y-69329300D03*
X229235000Y-66789300D03*
%TD*%
D11*
%TO.C,K10\u002C4*%
X243903500Y-127812800D03*
X256830500Y-125272800D03*
D12*
X244665500Y-122732800D03*
X254825500Y-122732800D03*
D13*
X249745500Y-122732800D03*
D14*
X247205500Y-127812800D03*
X253555500Y-125272800D03*
%TD*%
D11*
%TO.C,K11\u002C3*%
X253809500Y-108000800D03*
X266736500Y-105460800D03*
D12*
X254571500Y-102920800D03*
X264731500Y-102920800D03*
D13*
X259651500Y-102920800D03*
D14*
X257111500Y-108000800D03*
X263461500Y-105460800D03*
%TD*%
%TO.C,K11\u002C2*%
X258572000Y-86029800D03*
X252222000Y-88569800D03*
D13*
X254762000Y-83489800D03*
D12*
X259842000Y-83489800D03*
X249682000Y-83489800D03*
D11*
X261847000Y-86029800D03*
X248920000Y-88569800D03*
%TD*%
%TO.C,K11\u002C5*%
X294640000Y-147243800D03*
X307567000Y-144703800D03*
D12*
X295402000Y-142163800D03*
X305562000Y-142163800D03*
D13*
X300482000Y-142163800D03*
D14*
X297942000Y-147243800D03*
X304292000Y-144703800D03*
%TD*%
D11*
%TO.C,K11\u002C1*%
X238887000Y-69329300D03*
X251814000Y-66789300D03*
D12*
X239649000Y-64249300D03*
X249809000Y-64249300D03*
D13*
X244729000Y-64249300D03*
D14*
X242189000Y-69329300D03*
X248539000Y-66789300D03*
%TD*%
D11*
%TO.C,K11\u002C0*%
X279400000Y-31292800D03*
X292327000Y-28752800D03*
D12*
X280162000Y-26212800D03*
X290322000Y-26212800D03*
D13*
X285242000Y-26212800D03*
D14*
X282702000Y-31292800D03*
X289052000Y-28752800D03*
%TD*%
%TO.C,K12\u002C2*%
X277876000Y-86029800D03*
X271526000Y-88569800D03*
D13*
X274066000Y-83489800D03*
D12*
X279146000Y-83489800D03*
X268986000Y-83489800D03*
D11*
X281151000Y-86029800D03*
X268224000Y-88569800D03*
%TD*%
%TO.C,K12\u002C0*%
X298704000Y-31292800D03*
X311631000Y-28752800D03*
D12*
X299466000Y-26212800D03*
X309626000Y-26212800D03*
D13*
X304546000Y-26212800D03*
D14*
X302006000Y-31292800D03*
X308356000Y-28752800D03*
%TD*%
D11*
%TO.C,K12\u002C1*%
X258191000Y-69329300D03*
X271118000Y-66789300D03*
D12*
X258953000Y-64249300D03*
X269113000Y-64249300D03*
D13*
X264033000Y-64249300D03*
D14*
X261493000Y-69329300D03*
X267843000Y-66789300D03*
%TD*%
%TO.C,K13\u002C2*%
X301815500Y-86042500D03*
X295465500Y-88582500D03*
D13*
X298005500Y-83502500D03*
D12*
X303085500Y-83502500D03*
X292925500Y-83502500D03*
D11*
X305090500Y-86042500D03*
X292163500Y-88582500D03*
%TD*%
%TO.C,K14\u002C1*%
X325247000Y-69329300D03*
X338174000Y-66789300D03*
D12*
X326009000Y-64249300D03*
X336169000Y-64249300D03*
D13*
X331089000Y-64249300D03*
D14*
X328549000Y-69329300D03*
X334899000Y-66789300D03*
%TD*%
D11*
%TO.C,K14\u002C6*%
X325183500Y-147116800D03*
X338110500Y-144576800D03*
D12*
X325945500Y-142036800D03*
X336105500Y-142036800D03*
D13*
X331025500Y-142036800D03*
D14*
X328485500Y-147116800D03*
X334835500Y-144576800D03*
%TD*%
D11*
%TO.C,K14\u002C3*%
X325247000Y-88569800D03*
X338174000Y-86029800D03*
D12*
X326009000Y-83489800D03*
X336169000Y-83489800D03*
D13*
X331089000Y-83489800D03*
D14*
X328549000Y-88569800D03*
X334899000Y-86029800D03*
%TD*%
D11*
%TO.C,K14\u002C0*%
X328168000Y-31292800D03*
X341095000Y-28752800D03*
D12*
X328930000Y-26212800D03*
X339090000Y-26212800D03*
D13*
X334010000Y-26212800D03*
D14*
X331470000Y-31292800D03*
X337820000Y-28752800D03*
%TD*%
D11*
%TO.C,K15\u002C6*%
X344487500Y-147116800D03*
X357414500Y-144576800D03*
D12*
X345249500Y-142036800D03*
X355409500Y-142036800D03*
D13*
X350329500Y-142036800D03*
D14*
X347789500Y-147116800D03*
X354139500Y-144576800D03*
%TD*%
D11*
%TO.C,K15\u002C3*%
X344551000Y-88569800D03*
X357478000Y-86029800D03*
D12*
X345313000Y-83489800D03*
X355473000Y-83489800D03*
D13*
X350393000Y-83489800D03*
D14*
X347853000Y-88569800D03*
X354203000Y-86029800D03*
%TD*%
D11*
%TO.C,K15\u002C5*%
X344487500Y-127812800D03*
X357414500Y-125272800D03*
D12*
X345249500Y-122732800D03*
X355409500Y-122732800D03*
D13*
X350329500Y-122732800D03*
D14*
X347789500Y-127812800D03*
X354139500Y-125272800D03*
%TD*%
D11*
%TO.C,K15\u002C1*%
X344551000Y-69329300D03*
X357478000Y-66789300D03*
D12*
X345313000Y-64249300D03*
X355473000Y-64249300D03*
D13*
X350393000Y-64249300D03*
D14*
X347853000Y-69329300D03*
X354203000Y-66789300D03*
%TD*%
D11*
%TO.C,K15\u002C0*%
X347726000Y-31292800D03*
X360653000Y-28752800D03*
D12*
X348488000Y-26212800D03*
X358648000Y-26212800D03*
D13*
X353568000Y-26212800D03*
D14*
X351028000Y-31292800D03*
X357378000Y-28752800D03*
%TD*%
D11*
%TO.C,K16\u002C4*%
X396875000Y-108000800D03*
X409802000Y-105460800D03*
D12*
X397637000Y-102920800D03*
X407797000Y-102920800D03*
D13*
X402717000Y-102920800D03*
D14*
X400177000Y-108000800D03*
X406527000Y-105460800D03*
%TD*%
D11*
%TO.C,K16\u002C1*%
X363855000Y-69329300D03*
X376782000Y-66789300D03*
D12*
X364617000Y-64249300D03*
X374777000Y-64249300D03*
D13*
X369697000Y-64249300D03*
D14*
X367157000Y-69329300D03*
X373507000Y-66789300D03*
%TD*%
D11*
%TO.C,K16\u002C5*%
X396875000Y-127304800D03*
X409802000Y-124764800D03*
D12*
X397637000Y-122224800D03*
X407797000Y-122224800D03*
D13*
X402717000Y-122224800D03*
D14*
X400177000Y-127304800D03*
X406527000Y-124764800D03*
%TD*%
D11*
%TO.C,K16\u002C3*%
X363855000Y-88569800D03*
X376782000Y-86029800D03*
D12*
X364617000Y-83489800D03*
X374777000Y-83489800D03*
D13*
X369697000Y-83489800D03*
D14*
X367157000Y-88569800D03*
X373507000Y-86029800D03*
%TD*%
D11*
%TO.C,K16\u002C0*%
X367030000Y-31292800D03*
X379957000Y-28752800D03*
D12*
X367792000Y-26212800D03*
X377952000Y-26212800D03*
D13*
X372872000Y-26212800D03*
D14*
X370332000Y-31292800D03*
X376682000Y-28752800D03*
%TD*%
D11*
%TO.C,K16\u002C6*%
X363791500Y-147116800D03*
X376718500Y-144576800D03*
D12*
X364553500Y-142036800D03*
X374713500Y-142036800D03*
D13*
X369633500Y-142036800D03*
D14*
X367093500Y-147116800D03*
X373443500Y-144576800D03*
%TD*%
D11*
%TO.C,K17\u002C6*%
X406400000Y-146608800D03*
X419327000Y-144068800D03*
D12*
X407162000Y-141528800D03*
X417322000Y-141528800D03*
D13*
X412242000Y-141528800D03*
D14*
X409702000Y-146608800D03*
X416052000Y-144068800D03*
%TD*%
D11*
%TO.C,K17\u002C5*%
X416179000Y-127304800D03*
X429106000Y-124764800D03*
D12*
X416941000Y-122224800D03*
X427101000Y-122224800D03*
D13*
X422021000Y-122224800D03*
D14*
X419481000Y-127304800D03*
X425831000Y-124764800D03*
%TD*%
D11*
%TO.C,K17\u002C4*%
X416179000Y-108000800D03*
X429106000Y-105460800D03*
D12*
X416941000Y-102920800D03*
X427101000Y-102920800D03*
D13*
X422021000Y-102920800D03*
D14*
X419481000Y-108000800D03*
X425831000Y-105460800D03*
%TD*%
D11*
%TO.C,K17\u002C3*%
X396875000Y-88696800D03*
X409802000Y-86156800D03*
D12*
X397637000Y-83616800D03*
X407797000Y-83616800D03*
D13*
X402717000Y-83616800D03*
D14*
X400177000Y-88696800D03*
X406527000Y-86156800D03*
%TD*%
D11*
%TO.C,K17\u002C1*%
X396875000Y-69329300D03*
X409802000Y-66789300D03*
D12*
X397637000Y-64249300D03*
X407797000Y-64249300D03*
D13*
X402717000Y-64249300D03*
D14*
X400177000Y-69329300D03*
X406527000Y-66789300D03*
%TD*%
D11*
%TO.C,K17\u002C0*%
X396748000Y-31292800D03*
X409675000Y-28752800D03*
D12*
X397510000Y-26212800D03*
X407670000Y-26212800D03*
D13*
X402590000Y-26212800D03*
D14*
X400050000Y-31292800D03*
X406400000Y-28752800D03*
%TD*%
D11*
%TO.C,K18\u002C6*%
X435483000Y-146608800D03*
X448410000Y-144068800D03*
D12*
X436245000Y-141528800D03*
X446405000Y-141528800D03*
D13*
X441325000Y-141528800D03*
D14*
X438785000Y-146608800D03*
X445135000Y-144068800D03*
%TD*%
D11*
%TO.C,K18\u002C3*%
X416179000Y-88696800D03*
X429106000Y-86156800D03*
D12*
X416941000Y-83616800D03*
X427101000Y-83616800D03*
D13*
X422021000Y-83616800D03*
D14*
X419481000Y-88696800D03*
X425831000Y-86156800D03*
%TD*%
D11*
%TO.C,K18\u002C1*%
X416179000Y-69329300D03*
X429106000Y-66789300D03*
D12*
X416941000Y-64249300D03*
X427101000Y-64249300D03*
D13*
X422021000Y-64249300D03*
D14*
X419481000Y-69329300D03*
X425831000Y-66789300D03*
%TD*%
D11*
%TO.C,K18\u002C5*%
X435483000Y-127304800D03*
X448410000Y-124764800D03*
D12*
X436245000Y-122224800D03*
X446405000Y-122224800D03*
D13*
X441325000Y-122224800D03*
D14*
X438785000Y-127304800D03*
X445135000Y-124764800D03*
%TD*%
D11*
%TO.C,K18\u002C0*%
X416052000Y-31292800D03*
X428979000Y-28752800D03*
D12*
X416814000Y-26212800D03*
X426974000Y-26212800D03*
D13*
X421894000Y-26212800D03*
D14*
X419354000Y-31292800D03*
X425704000Y-28752800D03*
%TD*%
D11*
%TO.C,K19\u002C6*%
X454787000Y-136956800D03*
X467714000Y-134416800D03*
D12*
X455549000Y-131876800D03*
X465709000Y-131876800D03*
D13*
X460629000Y-131876800D03*
D14*
X458089000Y-136956800D03*
X464439000Y-134416800D03*
%TD*%
D11*
%TO.C,K19\u002C0*%
X435356000Y-31292800D03*
X448283000Y-28752800D03*
D12*
X436118000Y-26212800D03*
X446278000Y-26212800D03*
D13*
X441198000Y-26212800D03*
D14*
X438658000Y-31292800D03*
X445008000Y-28752800D03*
%TD*%
D11*
%TO.C,K19\u002C3*%
X435483000Y-88696800D03*
X448410000Y-86156800D03*
D12*
X436245000Y-83616800D03*
X446405000Y-83616800D03*
D13*
X441325000Y-83616800D03*
D14*
X438785000Y-88696800D03*
X445135000Y-86156800D03*
%TD*%
D11*
%TO.C,K19\u002C1*%
X435483000Y-69329300D03*
X448410000Y-66789300D03*
D12*
X436245000Y-64249300D03*
X446405000Y-64249300D03*
D13*
X441325000Y-64249300D03*
D14*
X438785000Y-69329300D03*
X445135000Y-66789300D03*
%TD*%
D11*
%TO.C,K20\u002C0*%
X454660000Y-31292800D03*
X467587000Y-28752800D03*
D12*
X455422000Y-26212800D03*
X465582000Y-26212800D03*
D13*
X460502000Y-26212800D03*
D14*
X457962000Y-31292800D03*
X464312000Y-28752800D03*
%TD*%
D11*
%TO.C,K20\u002C1*%
X454787000Y-69329300D03*
X467714000Y-66789300D03*
D12*
X455549000Y-64249300D03*
X465709000Y-64249300D03*
D13*
X460629000Y-64249300D03*
D14*
X458089000Y-69329300D03*
X464439000Y-66789300D03*
%TD*%
%TO.C,U1*%
G36*
G01*
X18039500Y-72349500D02*
X18039500Y-72049500D01*
G75*
G02*
X18189500Y-71899500I150000J0D01*
G01*
X19939500Y-71899500D01*
G75*
G02*
X20089500Y-72049500I0J-150000D01*
G01*
X20089500Y-72349500D01*
G75*
G02*
X19939500Y-72499500I-150000J0D01*
G01*
X18189500Y-72499500D01*
G75*
G02*
X18039500Y-72349500I0J150000D01*
G01*
G37*
G36*
G01*
X18039500Y-71079500D02*
X18039500Y-70779500D01*
G75*
G02*
X18189500Y-70629500I150000J0D01*
G01*
X19939500Y-70629500D01*
G75*
G02*
X20089500Y-70779500I0J-150000D01*
G01*
X20089500Y-71079500D01*
G75*
G02*
X19939500Y-71229500I-150000J0D01*
G01*
X18189500Y-71229500D01*
G75*
G02*
X18039500Y-71079500I0J150000D01*
G01*
G37*
G36*
G01*
X18039500Y-69809500D02*
X18039500Y-69509500D01*
G75*
G02*
X18189500Y-69359500I150000J0D01*
G01*
X19939500Y-69359500D01*
G75*
G02*
X20089500Y-69509500I0J-150000D01*
G01*
X20089500Y-69809500D01*
G75*
G02*
X19939500Y-69959500I-150000J0D01*
G01*
X18189500Y-69959500D01*
G75*
G02*
X18039500Y-69809500I0J150000D01*
G01*
G37*
G36*
G01*
X18039500Y-68539500D02*
X18039500Y-68239500D01*
G75*
G02*
X18189500Y-68089500I150000J0D01*
G01*
X19939500Y-68089500D01*
G75*
G02*
X20089500Y-68239500I0J-150000D01*
G01*
X20089500Y-68539500D01*
G75*
G02*
X19939500Y-68689500I-150000J0D01*
G01*
X18189500Y-68689500D01*
G75*
G02*
X18039500Y-68539500I0J150000D01*
G01*
G37*
G36*
G01*
X18039500Y-67269500D02*
X18039500Y-66969500D01*
G75*
G02*
X18189500Y-66819500I150000J0D01*
G01*
X19939500Y-66819500D01*
G75*
G02*
X20089500Y-66969500I0J-150000D01*
G01*
X20089500Y-67269500D01*
G75*
G02*
X19939500Y-67419500I-150000J0D01*
G01*
X18189500Y-67419500D01*
G75*
G02*
X18039500Y-67269500I0J150000D01*
G01*
G37*
G36*
G01*
X18039500Y-65999500D02*
X18039500Y-65699500D01*
G75*
G02*
X18189500Y-65549500I150000J0D01*
G01*
X19939500Y-65549500D01*
G75*
G02*
X20089500Y-65699500I0J-150000D01*
G01*
X20089500Y-65999500D01*
G75*
G02*
X19939500Y-66149500I-150000J0D01*
G01*
X18189500Y-66149500D01*
G75*
G02*
X18039500Y-65999500I0J150000D01*
G01*
G37*
G36*
G01*
X18039500Y-64729500D02*
X18039500Y-64429500D01*
G75*
G02*
X18189500Y-64279500I150000J0D01*
G01*
X19939500Y-64279500D01*
G75*
G02*
X20089500Y-64429500I0J-150000D01*
G01*
X20089500Y-64729500D01*
G75*
G02*
X19939500Y-64879500I-150000J0D01*
G01*
X18189500Y-64879500D01*
G75*
G02*
X18039500Y-64729500I0J150000D01*
G01*
G37*
G36*
G01*
X18039500Y-63459500D02*
X18039500Y-63159500D01*
G75*
G02*
X18189500Y-63009500I150000J0D01*
G01*
X19939500Y-63009500D01*
G75*
G02*
X20089500Y-63159500I0J-150000D01*
G01*
X20089500Y-63459500D01*
G75*
G02*
X19939500Y-63609500I-150000J0D01*
G01*
X18189500Y-63609500D01*
G75*
G02*
X18039500Y-63459500I0J150000D01*
G01*
G37*
G36*
G01*
X18039500Y-62189500D02*
X18039500Y-61889500D01*
G75*
G02*
X18189500Y-61739500I150000J0D01*
G01*
X19939500Y-61739500D01*
G75*
G02*
X20089500Y-61889500I0J-150000D01*
G01*
X20089500Y-62189500D01*
G75*
G02*
X19939500Y-62339500I-150000J0D01*
G01*
X18189500Y-62339500D01*
G75*
G02*
X18039500Y-62189500I0J150000D01*
G01*
G37*
G36*
G01*
X18039500Y-60919500D02*
X18039500Y-60619500D01*
G75*
G02*
X18189500Y-60469500I150000J0D01*
G01*
X19939500Y-60469500D01*
G75*
G02*
X20089500Y-60619500I0J-150000D01*
G01*
X20089500Y-60919500D01*
G75*
G02*
X19939500Y-61069500I-150000J0D01*
G01*
X18189500Y-61069500D01*
G75*
G02*
X18039500Y-60919500I0J150000D01*
G01*
G37*
G36*
G01*
X18039500Y-59649500D02*
X18039500Y-59349500D01*
G75*
G02*
X18189500Y-59199500I150000J0D01*
G01*
X19939500Y-59199500D01*
G75*
G02*
X20089500Y-59349500I0J-150000D01*
G01*
X20089500Y-59649500D01*
G75*
G02*
X19939500Y-59799500I-150000J0D01*
G01*
X18189500Y-59799500D01*
G75*
G02*
X18039500Y-59649500I0J150000D01*
G01*
G37*
G36*
G01*
X18039500Y-58379500D02*
X18039500Y-58079500D01*
G75*
G02*
X18189500Y-57929500I150000J0D01*
G01*
X19939500Y-57929500D01*
G75*
G02*
X20089500Y-58079500I0J-150000D01*
G01*
X20089500Y-58379500D01*
G75*
G02*
X19939500Y-58529500I-150000J0D01*
G01*
X18189500Y-58529500D01*
G75*
G02*
X18039500Y-58379500I0J150000D01*
G01*
G37*
G36*
G01*
X18039500Y-57109500D02*
X18039500Y-56809500D01*
G75*
G02*
X18189500Y-56659500I150000J0D01*
G01*
X19939500Y-56659500D01*
G75*
G02*
X20089500Y-56809500I0J-150000D01*
G01*
X20089500Y-57109500D01*
G75*
G02*
X19939500Y-57259500I-150000J0D01*
G01*
X18189500Y-57259500D01*
G75*
G02*
X18039500Y-57109500I0J150000D01*
G01*
G37*
G36*
G01*
X18039500Y-55839500D02*
X18039500Y-55539500D01*
G75*
G02*
X18189500Y-55389500I150000J0D01*
G01*
X19939500Y-55389500D01*
G75*
G02*
X20089500Y-55539500I0J-150000D01*
G01*
X20089500Y-55839500D01*
G75*
G02*
X19939500Y-55989500I-150000J0D01*
G01*
X18189500Y-55989500D01*
G75*
G02*
X18039500Y-55839500I0J150000D01*
G01*
G37*
G36*
G01*
X8739500Y-55839500D02*
X8739500Y-55539500D01*
G75*
G02*
X8889500Y-55389500I150000J0D01*
G01*
X10639500Y-55389500D01*
G75*
G02*
X10789500Y-55539500I0J-150000D01*
G01*
X10789500Y-55839500D01*
G75*
G02*
X10639500Y-55989500I-150000J0D01*
G01*
X8889500Y-55989500D01*
G75*
G02*
X8739500Y-55839500I0J150000D01*
G01*
G37*
G36*
G01*
X8739500Y-57109500D02*
X8739500Y-56809500D01*
G75*
G02*
X8889500Y-56659500I150000J0D01*
G01*
X10639500Y-56659500D01*
G75*
G02*
X10789500Y-56809500I0J-150000D01*
G01*
X10789500Y-57109500D01*
G75*
G02*
X10639500Y-57259500I-150000J0D01*
G01*
X8889500Y-57259500D01*
G75*
G02*
X8739500Y-57109500I0J150000D01*
G01*
G37*
G36*
G01*
X8739500Y-58379500D02*
X8739500Y-58079500D01*
G75*
G02*
X8889500Y-57929500I150000J0D01*
G01*
X10639500Y-57929500D01*
G75*
G02*
X10789500Y-58079500I0J-150000D01*
G01*
X10789500Y-58379500D01*
G75*
G02*
X10639500Y-58529500I-150000J0D01*
G01*
X8889500Y-58529500D01*
G75*
G02*
X8739500Y-58379500I0J150000D01*
G01*
G37*
G36*
G01*
X8739500Y-59649500D02*
X8739500Y-59349500D01*
G75*
G02*
X8889500Y-59199500I150000J0D01*
G01*
X10639500Y-59199500D01*
G75*
G02*
X10789500Y-59349500I0J-150000D01*
G01*
X10789500Y-59649500D01*
G75*
G02*
X10639500Y-59799500I-150000J0D01*
G01*
X8889500Y-59799500D01*
G75*
G02*
X8739500Y-59649500I0J150000D01*
G01*
G37*
G36*
G01*
X8739500Y-60919500D02*
X8739500Y-60619500D01*
G75*
G02*
X8889500Y-60469500I150000J0D01*
G01*
X10639500Y-60469500D01*
G75*
G02*
X10789500Y-60619500I0J-150000D01*
G01*
X10789500Y-60919500D01*
G75*
G02*
X10639500Y-61069500I-150000J0D01*
G01*
X8889500Y-61069500D01*
G75*
G02*
X8739500Y-60919500I0J150000D01*
G01*
G37*
G36*
G01*
X8739500Y-62189500D02*
X8739500Y-61889500D01*
G75*
G02*
X8889500Y-61739500I150000J0D01*
G01*
X10639500Y-61739500D01*
G75*
G02*
X10789500Y-61889500I0J-150000D01*
G01*
X10789500Y-62189500D01*
G75*
G02*
X10639500Y-62339500I-150000J0D01*
G01*
X8889500Y-62339500D01*
G75*
G02*
X8739500Y-62189500I0J150000D01*
G01*
G37*
G36*
G01*
X8739500Y-63459500D02*
X8739500Y-63159500D01*
G75*
G02*
X8889500Y-63009500I150000J0D01*
G01*
X10639500Y-63009500D01*
G75*
G02*
X10789500Y-63159500I0J-150000D01*
G01*
X10789500Y-63459500D01*
G75*
G02*
X10639500Y-63609500I-150000J0D01*
G01*
X8889500Y-63609500D01*
G75*
G02*
X8739500Y-63459500I0J150000D01*
G01*
G37*
G36*
G01*
X8739500Y-64729500D02*
X8739500Y-64429500D01*
G75*
G02*
X8889500Y-64279500I150000J0D01*
G01*
X10639500Y-64279500D01*
G75*
G02*
X10789500Y-64429500I0J-150000D01*
G01*
X10789500Y-64729500D01*
G75*
G02*
X10639500Y-64879500I-150000J0D01*
G01*
X8889500Y-64879500D01*
G75*
G02*
X8739500Y-64729500I0J150000D01*
G01*
G37*
G36*
G01*
X8739500Y-65999500D02*
X8739500Y-65699500D01*
G75*
G02*
X8889500Y-65549500I150000J0D01*
G01*
X10639500Y-65549500D01*
G75*
G02*
X10789500Y-65699500I0J-150000D01*
G01*
X10789500Y-65999500D01*
G75*
G02*
X10639500Y-66149500I-150000J0D01*
G01*
X8889500Y-66149500D01*
G75*
G02*
X8739500Y-65999500I0J150000D01*
G01*
G37*
G36*
G01*
X8739500Y-67269500D02*
X8739500Y-66969500D01*
G75*
G02*
X8889500Y-66819500I150000J0D01*
G01*
X10639500Y-66819500D01*
G75*
G02*
X10789500Y-66969500I0J-150000D01*
G01*
X10789500Y-67269500D01*
G75*
G02*
X10639500Y-67419500I-150000J0D01*
G01*
X8889500Y-67419500D01*
G75*
G02*
X8739500Y-67269500I0J150000D01*
G01*
G37*
G36*
G01*
X8739500Y-68539500D02*
X8739500Y-68239500D01*
G75*
G02*
X8889500Y-68089500I150000J0D01*
G01*
X10639500Y-68089500D01*
G75*
G02*
X10789500Y-68239500I0J-150000D01*
G01*
X10789500Y-68539500D01*
G75*
G02*
X10639500Y-68689500I-150000J0D01*
G01*
X8889500Y-68689500D01*
G75*
G02*
X8739500Y-68539500I0J150000D01*
G01*
G37*
G36*
G01*
X8739500Y-69809500D02*
X8739500Y-69509500D01*
G75*
G02*
X8889500Y-69359500I150000J0D01*
G01*
X10639500Y-69359500D01*
G75*
G02*
X10789500Y-69509500I0J-150000D01*
G01*
X10789500Y-69809500D01*
G75*
G02*
X10639500Y-69959500I-150000J0D01*
G01*
X8889500Y-69959500D01*
G75*
G02*
X8739500Y-69809500I0J150000D01*
G01*
G37*
G36*
G01*
X8739500Y-71079500D02*
X8739500Y-70779500D01*
G75*
G02*
X8889500Y-70629500I150000J0D01*
G01*
X10639500Y-70629500D01*
G75*
G02*
X10789500Y-70779500I0J-150000D01*
G01*
X10789500Y-71079500D01*
G75*
G02*
X10639500Y-71229500I-150000J0D01*
G01*
X8889500Y-71229500D01*
G75*
G02*
X8739500Y-71079500I0J150000D01*
G01*
G37*
G36*
G01*
X8739500Y-72349500D02*
X8739500Y-72049500D01*
G75*
G02*
X8889500Y-71899500I150000J0D01*
G01*
X10639500Y-71899500D01*
G75*
G02*
X10789500Y-72049500I0J-150000D01*
G01*
X10789500Y-72349500D01*
G75*
G02*
X10639500Y-72499500I-150000J0D01*
G01*
X8889500Y-72499500D01*
G75*
G02*
X8739500Y-72349500I0J150000D01*
G01*
G37*
%TD*%
%TO.C,U10*%
G36*
G01*
X17757000Y-18972000D02*
X18057000Y-18972000D01*
G75*
G02*
X18207000Y-19122000I0J-150000D01*
G01*
X18207000Y-20572000D01*
G75*
G02*
X18057000Y-20722000I-150000J0D01*
G01*
X17757000Y-20722000D01*
G75*
G02*
X17607000Y-20572000I0J150000D01*
G01*
X17607000Y-19122000D01*
G75*
G02*
X17757000Y-18972000I150000J0D01*
G01*
G37*
G36*
G01*
X19027000Y-18972000D02*
X19327000Y-18972000D01*
G75*
G02*
X19477000Y-19122000I0J-150000D01*
G01*
X19477000Y-20572000D01*
G75*
G02*
X19327000Y-20722000I-150000J0D01*
G01*
X19027000Y-20722000D01*
G75*
G02*
X18877000Y-20572000I0J150000D01*
G01*
X18877000Y-19122000D01*
G75*
G02*
X19027000Y-18972000I150000J0D01*
G01*
G37*
G36*
G01*
X20297000Y-18972000D02*
X20597000Y-18972000D01*
G75*
G02*
X20747000Y-19122000I0J-150000D01*
G01*
X20747000Y-20572000D01*
G75*
G02*
X20597000Y-20722000I-150000J0D01*
G01*
X20297000Y-20722000D01*
G75*
G02*
X20147000Y-20572000I0J150000D01*
G01*
X20147000Y-19122000D01*
G75*
G02*
X20297000Y-18972000I150000J0D01*
G01*
G37*
G36*
G01*
X21567000Y-18972000D02*
X21867000Y-18972000D01*
G75*
G02*
X22017000Y-19122000I0J-150000D01*
G01*
X22017000Y-20572000D01*
G75*
G02*
X21867000Y-20722000I-150000J0D01*
G01*
X21567000Y-20722000D01*
G75*
G02*
X21417000Y-20572000I0J150000D01*
G01*
X21417000Y-19122000D01*
G75*
G02*
X21567000Y-18972000I150000J0D01*
G01*
G37*
G36*
G01*
X21567000Y-13822000D02*
X21867000Y-13822000D01*
G75*
G02*
X22017000Y-13972000I0J-150000D01*
G01*
X22017000Y-15422000D01*
G75*
G02*
X21867000Y-15572000I-150000J0D01*
G01*
X21567000Y-15572000D01*
G75*
G02*
X21417000Y-15422000I0J150000D01*
G01*
X21417000Y-13972000D01*
G75*
G02*
X21567000Y-13822000I150000J0D01*
G01*
G37*
G36*
G01*
X20297000Y-13822000D02*
X20597000Y-13822000D01*
G75*
G02*
X20747000Y-13972000I0J-150000D01*
G01*
X20747000Y-15422000D01*
G75*
G02*
X20597000Y-15572000I-150000J0D01*
G01*
X20297000Y-15572000D01*
G75*
G02*
X20147000Y-15422000I0J150000D01*
G01*
X20147000Y-13972000D01*
G75*
G02*
X20297000Y-13822000I150000J0D01*
G01*
G37*
G36*
G01*
X19027000Y-13822000D02*
X19327000Y-13822000D01*
G75*
G02*
X19477000Y-13972000I0J-150000D01*
G01*
X19477000Y-15422000D01*
G75*
G02*
X19327000Y-15572000I-150000J0D01*
G01*
X19027000Y-15572000D01*
G75*
G02*
X18877000Y-15422000I0J150000D01*
G01*
X18877000Y-13972000D01*
G75*
G02*
X19027000Y-13822000I150000J0D01*
G01*
G37*
G36*
G01*
X17757000Y-13822000D02*
X18057000Y-13822000D01*
G75*
G02*
X18207000Y-13972000I0J-150000D01*
G01*
X18207000Y-15422000D01*
G75*
G02*
X18057000Y-15572000I-150000J0D01*
G01*
X17757000Y-15572000D01*
G75*
G02*
X17607000Y-15422000I0J150000D01*
G01*
X17607000Y-13972000D01*
G75*
G02*
X17757000Y-13822000I150000J0D01*
G01*
G37*
%TD*%
%TO.C,U11*%
G36*
G01*
X5692000Y-18772000D02*
X5992000Y-18772000D01*
G75*
G02*
X6142000Y-18922000I0J-150000D01*
G01*
X6142000Y-20572000D01*
G75*
G02*
X5992000Y-20722000I-150000J0D01*
G01*
X5692000Y-20722000D01*
G75*
G02*
X5542000Y-20572000I0J150000D01*
G01*
X5542000Y-18922000D01*
G75*
G02*
X5692000Y-18772000I150000J0D01*
G01*
G37*
G36*
G01*
X6962000Y-18772000D02*
X7262000Y-18772000D01*
G75*
G02*
X7412000Y-18922000I0J-150000D01*
G01*
X7412000Y-20572000D01*
G75*
G02*
X7262000Y-20722000I-150000J0D01*
G01*
X6962000Y-20722000D01*
G75*
G02*
X6812000Y-20572000I0J150000D01*
G01*
X6812000Y-18922000D01*
G75*
G02*
X6962000Y-18772000I150000J0D01*
G01*
G37*
G36*
G01*
X8232000Y-18772000D02*
X8532000Y-18772000D01*
G75*
G02*
X8682000Y-18922000I0J-150000D01*
G01*
X8682000Y-20572000D01*
G75*
G02*
X8532000Y-20722000I-150000J0D01*
G01*
X8232000Y-20722000D01*
G75*
G02*
X8082000Y-20572000I0J150000D01*
G01*
X8082000Y-18922000D01*
G75*
G02*
X8232000Y-18772000I150000J0D01*
G01*
G37*
G36*
G01*
X9502000Y-18772000D02*
X9802000Y-18772000D01*
G75*
G02*
X9952000Y-18922000I0J-150000D01*
G01*
X9952000Y-20572000D01*
G75*
G02*
X9802000Y-20722000I-150000J0D01*
G01*
X9502000Y-20722000D01*
G75*
G02*
X9352000Y-20572000I0J150000D01*
G01*
X9352000Y-18922000D01*
G75*
G02*
X9502000Y-18772000I150000J0D01*
G01*
G37*
G36*
G01*
X10772000Y-18772000D02*
X11072000Y-18772000D01*
G75*
G02*
X11222000Y-18922000I0J-150000D01*
G01*
X11222000Y-20572000D01*
G75*
G02*
X11072000Y-20722000I-150000J0D01*
G01*
X10772000Y-20722000D01*
G75*
G02*
X10622000Y-20572000I0J150000D01*
G01*
X10622000Y-18922000D01*
G75*
G02*
X10772000Y-18772000I150000J0D01*
G01*
G37*
G36*
G01*
X12042000Y-18772000D02*
X12342000Y-18772000D01*
G75*
G02*
X12492000Y-18922000I0J-150000D01*
G01*
X12492000Y-20572000D01*
G75*
G02*
X12342000Y-20722000I-150000J0D01*
G01*
X12042000Y-20722000D01*
G75*
G02*
X11892000Y-20572000I0J150000D01*
G01*
X11892000Y-18922000D01*
G75*
G02*
X12042000Y-18772000I150000J0D01*
G01*
G37*
G36*
G01*
X13312000Y-18772000D02*
X13612000Y-18772000D01*
G75*
G02*
X13762000Y-18922000I0J-150000D01*
G01*
X13762000Y-20572000D01*
G75*
G02*
X13612000Y-20722000I-150000J0D01*
G01*
X13312000Y-20722000D01*
G75*
G02*
X13162000Y-20572000I0J150000D01*
G01*
X13162000Y-18922000D01*
G75*
G02*
X13312000Y-18772000I150000J0D01*
G01*
G37*
G36*
G01*
X13312000Y-13822000D02*
X13612000Y-13822000D01*
G75*
G02*
X13762000Y-13972000I0J-150000D01*
G01*
X13762000Y-15622000D01*
G75*
G02*
X13612000Y-15772000I-150000J0D01*
G01*
X13312000Y-15772000D01*
G75*
G02*
X13162000Y-15622000I0J150000D01*
G01*
X13162000Y-13972000D01*
G75*
G02*
X13312000Y-13822000I150000J0D01*
G01*
G37*
G36*
G01*
X12042000Y-13822000D02*
X12342000Y-13822000D01*
G75*
G02*
X12492000Y-13972000I0J-150000D01*
G01*
X12492000Y-15622000D01*
G75*
G02*
X12342000Y-15772000I-150000J0D01*
G01*
X12042000Y-15772000D01*
G75*
G02*
X11892000Y-15622000I0J150000D01*
G01*
X11892000Y-13972000D01*
G75*
G02*
X12042000Y-13822000I150000J0D01*
G01*
G37*
G36*
G01*
X10772000Y-13822000D02*
X11072000Y-13822000D01*
G75*
G02*
X11222000Y-13972000I0J-150000D01*
G01*
X11222000Y-15622000D01*
G75*
G02*
X11072000Y-15772000I-150000J0D01*
G01*
X10772000Y-15772000D01*
G75*
G02*
X10622000Y-15622000I0J150000D01*
G01*
X10622000Y-13972000D01*
G75*
G02*
X10772000Y-13822000I150000J0D01*
G01*
G37*
G36*
G01*
X9502000Y-13822000D02*
X9802000Y-13822000D01*
G75*
G02*
X9952000Y-13972000I0J-150000D01*
G01*
X9952000Y-15622000D01*
G75*
G02*
X9802000Y-15772000I-150000J0D01*
G01*
X9502000Y-15772000D01*
G75*
G02*
X9352000Y-15622000I0J150000D01*
G01*
X9352000Y-13972000D01*
G75*
G02*
X9502000Y-13822000I150000J0D01*
G01*
G37*
G36*
G01*
X8232000Y-13822000D02*
X8532000Y-13822000D01*
G75*
G02*
X8682000Y-13972000I0J-150000D01*
G01*
X8682000Y-15622000D01*
G75*
G02*
X8532000Y-15772000I-150000J0D01*
G01*
X8232000Y-15772000D01*
G75*
G02*
X8082000Y-15622000I0J150000D01*
G01*
X8082000Y-13972000D01*
G75*
G02*
X8232000Y-13822000I150000J0D01*
G01*
G37*
G36*
G01*
X6962000Y-13822000D02*
X7262000Y-13822000D01*
G75*
G02*
X7412000Y-13972000I0J-150000D01*
G01*
X7412000Y-15622000D01*
G75*
G02*
X7262000Y-15772000I-150000J0D01*
G01*
X6962000Y-15772000D01*
G75*
G02*
X6812000Y-15622000I0J150000D01*
G01*
X6812000Y-13972000D01*
G75*
G02*
X6962000Y-13822000I150000J0D01*
G01*
G37*
G36*
G01*
X5692000Y-13822000D02*
X5992000Y-13822000D01*
G75*
G02*
X6142000Y-13972000I0J-150000D01*
G01*
X6142000Y-15622000D01*
G75*
G02*
X5992000Y-15772000I-150000J0D01*
G01*
X5692000Y-15772000D01*
G75*
G02*
X5542000Y-15622000I0J150000D01*
G01*
X5542000Y-13972000D01*
G75*
G02*
X5692000Y-13822000I150000J0D01*
G01*
G37*
%TD*%
M02*
