%TF.GenerationSoftware,KiCad,Pcbnew,(5.1.9)-1*%
%TF.CreationDate,2021-04-16T18:36:53+10:00*%
%TF.ProjectId,RedPyKeeb,52656450-794b-4656-9562-2e6b69636164,rev?*%
%TF.SameCoordinates,Original*%
%TF.FileFunction,Soldermask,Bot*%
%TF.FilePolarity,Negative*%
%FSLAX46Y46*%
G04 Gerber Fmt 4.6, Leading zero omitted, Abs format (unit mm)*
G04 Created by KiCad (PCBNEW (5.1.9)-1) date 2021-04-16 18:36:53*
%MOMM*%
%LPD*%
G01*
G04 APERTURE LIST*
%ADD10O,1.700000X1.700000*%
%ADD11R,1.700000X1.700000*%
%ADD12R,1.700000X3.500000*%
%ADD13O,1.800000X1.800000*%
%ADD14O,1.500000X1.500000*%
%ADD15R,3.500000X1.700000*%
%ADD16C,1.500000*%
%ADD17C,0.100000*%
%ADD18R,0.400000X1.100000*%
%ADD19R,2.550000X2.500000*%
%ADD20C,1.750000*%
%ADD21C,4.000000*%
%ADD22C,3.000000*%
%ADD23O,1.700000X1.950000*%
%ADD24C,1.600000*%
%ADD25R,1.600000X1.600000*%
%ADD26R,1.200000X1.200000*%
%ADD27O,1.950000X1.700000*%
%ADD28R,1.300000X1.500000*%
%ADD29R,1.500000X1.300000*%
G04 APERTURE END LIST*
D10*
%TO.C,U0*%
X482522200Y-70881600D03*
X479982200Y-70881600D03*
D11*
X477442200Y-70881600D03*
D10*
X474902200Y-70881600D03*
X472362200Y-70881600D03*
X469822200Y-70881600D03*
X467282200Y-70881600D03*
D11*
X464742200Y-70881600D03*
D10*
X462202200Y-70881600D03*
X459662200Y-70881600D03*
X457122200Y-70881600D03*
X454582200Y-70881600D03*
D11*
X452042200Y-70881600D03*
D10*
X449502200Y-70881600D03*
X446962200Y-70881600D03*
X444422200Y-70881600D03*
X441882200Y-70881600D03*
D11*
X439342200Y-70881600D03*
D10*
X436802200Y-70881600D03*
X434262200Y-70881600D03*
X434262200Y-53101600D03*
X436802200Y-53101600D03*
D11*
X439342200Y-53101600D03*
D10*
X441882200Y-53101600D03*
X444422200Y-53101600D03*
X446962200Y-53101600D03*
X449502200Y-53101600D03*
D11*
X452042200Y-53101600D03*
D10*
X454582200Y-53101600D03*
X457122200Y-53101600D03*
X459662200Y-53101600D03*
X462202200Y-53101600D03*
D11*
X464742200Y-53101600D03*
D10*
X467282200Y-53101600D03*
X469822200Y-53101600D03*
X472362200Y-53101600D03*
X474902200Y-53101600D03*
D11*
X477442200Y-53101600D03*
D10*
X479982200Y-53101600D03*
X482522200Y-53101600D03*
D12*
X482522200Y-71781600D03*
X479982200Y-71781600D03*
X477442200Y-71781600D03*
X474902200Y-71781600D03*
X472362200Y-71781600D03*
X469822200Y-71781600D03*
X467282200Y-71781600D03*
X464742200Y-71781600D03*
X462202200Y-71781600D03*
X459662200Y-71781600D03*
X457122200Y-71781600D03*
X454582200Y-71781600D03*
X452042200Y-71781600D03*
X449502200Y-71781600D03*
X446962200Y-71781600D03*
X444422200Y-71781600D03*
X441882200Y-71781600D03*
X439342200Y-71781600D03*
X436802200Y-71781600D03*
X434262200Y-71781600D03*
X482522200Y-52201600D03*
X479982200Y-52201600D03*
X477442200Y-52201600D03*
X474902200Y-52201600D03*
X472362200Y-52201600D03*
X469822200Y-52201600D03*
X467282200Y-52201600D03*
X464742200Y-52201600D03*
X462202200Y-52201600D03*
X459662200Y-52201600D03*
X457122200Y-52201600D03*
X454582200Y-52201600D03*
X452042200Y-52201600D03*
X449502200Y-52201600D03*
X446962200Y-52201600D03*
X444422200Y-52201600D03*
X441882200Y-52201600D03*
X439342200Y-52201600D03*
X436802200Y-52201600D03*
X434262200Y-52201600D03*
D13*
X482392200Y-64716600D03*
X482392200Y-59266600D03*
D14*
X479362200Y-64416600D03*
X479362200Y-59566600D03*
D15*
X433592200Y-64531600D03*
D10*
X434492200Y-64531600D03*
D15*
X433592200Y-61991600D03*
D11*
X434492200Y-61991600D03*
D15*
X433592200Y-59451600D03*
D10*
X434492200Y-59451600D03*
D16*
X482392200Y-62991600D03*
X482392200Y-60991600D03*
D17*
G36*
X480634082Y-62101648D02*
G01*
X480619723Y-62173835D01*
X480598358Y-62244267D01*
X480570192Y-62312266D01*
X480535496Y-62377177D01*
X480494606Y-62438374D01*
X480447913Y-62495269D01*
X480440983Y-62502199D01*
X480438394Y-62510734D01*
X480433773Y-62519379D01*
X480427555Y-62526955D01*
X480419979Y-62533173D01*
X480411334Y-62537794D01*
X480402799Y-62540383D01*
X480395869Y-62547313D01*
X480338974Y-62594006D01*
X480277777Y-62634896D01*
X480212866Y-62669592D01*
X480144867Y-62697758D01*
X480074435Y-62719123D01*
X480002248Y-62733482D01*
X479929001Y-62740697D01*
X479855399Y-62740697D01*
X479782152Y-62733482D01*
X479709965Y-62719123D01*
X479639533Y-62697758D01*
X479571534Y-62669592D01*
X479506623Y-62634896D01*
X479445426Y-62594006D01*
X479388531Y-62547313D01*
X479381601Y-62540383D01*
X479373066Y-62537794D01*
X479364421Y-62533173D01*
X479356845Y-62526955D01*
X479350627Y-62519379D01*
X479346006Y-62510734D01*
X479343417Y-62502199D01*
X479336487Y-62495269D01*
X479289794Y-62438374D01*
X479248904Y-62377177D01*
X479214208Y-62312266D01*
X479186042Y-62244267D01*
X479164677Y-62173835D01*
X479150318Y-62101648D01*
X479143103Y-62028401D01*
X479143103Y-61954799D01*
X479150318Y-61881552D01*
X479164677Y-61809365D01*
X479186042Y-61738933D01*
X479214208Y-61670934D01*
X479248904Y-61606023D01*
X479289794Y-61544826D01*
X479336487Y-61487931D01*
X479343417Y-61481001D01*
X479346006Y-61472466D01*
X479350627Y-61463821D01*
X479356845Y-61456245D01*
X479364421Y-61450027D01*
X479373066Y-61445406D01*
X479381601Y-61442817D01*
X479388531Y-61435887D01*
X479445426Y-61389194D01*
X479506623Y-61348304D01*
X479571534Y-61313608D01*
X479639533Y-61285442D01*
X479709965Y-61264077D01*
X479782152Y-61249718D01*
X479855399Y-61242503D01*
X479929001Y-61242503D01*
X480002248Y-61249718D01*
X480074435Y-61264077D01*
X480144867Y-61285442D01*
X480212866Y-61313608D01*
X480277777Y-61348304D01*
X480338974Y-61389194D01*
X480395869Y-61435887D01*
X480402799Y-61442817D01*
X480411334Y-61445406D01*
X480419979Y-61450027D01*
X480427555Y-61456245D01*
X480433773Y-61463821D01*
X480438394Y-61472466D01*
X480440983Y-61481001D01*
X480447913Y-61487931D01*
X480494606Y-61544826D01*
X480535496Y-61606023D01*
X480570192Y-61670934D01*
X480598358Y-61738933D01*
X480619723Y-61809365D01*
X480634082Y-61881552D01*
X480641297Y-61954799D01*
X480641297Y-62028401D01*
X480634082Y-62101648D01*
G37*
%TD*%
D18*
%TO.C,U10*%
X455361400Y-86897100D03*
X456011400Y-86897100D03*
X456661400Y-86897100D03*
X457311400Y-86897100D03*
X457311400Y-82597100D03*
X456661400Y-82597100D03*
X456011400Y-82597100D03*
X455361400Y-82597100D03*
%TD*%
D19*
%TO.C,K12\u002C3*%
X340436200Y-172072300D03*
X353363200Y-169532300D03*
D20*
X341198200Y-166992300D03*
X351358200Y-166992300D03*
D21*
X346278200Y-166992300D03*
D22*
X343738200Y-172072300D03*
X350088200Y-169532300D03*
%TD*%
D19*
%TO.C,K16\u002C1*%
X413740600Y-133388100D03*
X426667600Y-130848100D03*
D20*
X414502600Y-128308100D03*
X424662600Y-128308100D03*
D21*
X419582600Y-128308100D03*
D22*
X417042600Y-133388100D03*
X423392600Y-130848100D03*
%TD*%
D19*
%TO.C,K14\u002C1*%
X375132600Y-133388100D03*
X388059600Y-130848100D03*
D20*
X375894600Y-128308100D03*
X386054600Y-128308100D03*
D21*
X380974600Y-128308100D03*
D22*
X378434600Y-133388100D03*
X384784600Y-130848100D03*
%TD*%
D19*
%TO.C,K3\u002C2*%
X149809200Y-152628600D03*
X162736200Y-150088600D03*
D20*
X150571200Y-147548600D03*
X160731200Y-147548600D03*
D21*
X155651200Y-147548600D03*
D22*
X153111200Y-152628600D03*
X159461200Y-150088600D03*
%TD*%
D19*
%TO.C,K8\u002C0*%
X268284960Y-107607100D03*
X281211960Y-105067100D03*
D20*
X269046960Y-102527100D03*
X279206960Y-102527100D03*
D21*
X274126960Y-102527100D03*
D22*
X271586960Y-107607100D03*
X277936960Y-105067100D03*
%TD*%
D23*
%TO.C,J2*%
X430973200Y-56299100D03*
X433473200Y-56299100D03*
X435973200Y-56299100D03*
X438473200Y-56299100D03*
X440973200Y-56299100D03*
X443473200Y-56299100D03*
G36*
G01*
X446823200Y-55574100D02*
X446823200Y-57024100D01*
G75*
G02*
X446573200Y-57274100I-250000J0D01*
G01*
X445373200Y-57274100D01*
G75*
G02*
X445123200Y-57024100I0J250000D01*
G01*
X445123200Y-55574100D01*
G75*
G02*
X445373200Y-55324100I250000J0D01*
G01*
X446573200Y-55324100D01*
G75*
G02*
X446823200Y-55574100I0J-250000D01*
G01*
G37*
%TD*%
D19*
%TO.C,K0\u002C2*%
X87261700Y-152603200D03*
X100188700Y-150063200D03*
D20*
X88023700Y-147523200D03*
X98183700Y-147523200D03*
D21*
X93103700Y-147523200D03*
D22*
X90563700Y-152603200D03*
X96913700Y-150063200D03*
%TD*%
D19*
%TO.C,K18\u002C4*%
X476224600Y-171996100D03*
X489151600Y-169456100D03*
D20*
X476986600Y-166916100D03*
X487146600Y-166916100D03*
D21*
X482066600Y-166916100D03*
D22*
X479526600Y-171996100D03*
X485876600Y-169456100D03*
%TD*%
D19*
%TO.C,K10\u002C3*%
X289826700Y-172059600D03*
X302753700Y-169519600D03*
D20*
X290588700Y-166979600D03*
X300748700Y-166979600D03*
D21*
X295668700Y-166979600D03*
D22*
X293128700Y-172059600D03*
X299478700Y-169519600D03*
%TD*%
D19*
%TO.C,K13\u002C1*%
X342277700Y-133337300D03*
X355204700Y-130797300D03*
D20*
X343039700Y-128257300D03*
X353199700Y-128257300D03*
D21*
X348119700Y-128257300D03*
D22*
X345579700Y-133337300D03*
X351929700Y-130797300D03*
%TD*%
D19*
%TO.C,K19\u002C4*%
X495528600Y-162280600D03*
X508455600Y-159740600D03*
D20*
X496290600Y-157200600D03*
X506450600Y-157200600D03*
D21*
X501370600Y-157200600D03*
D22*
X498830600Y-162280600D03*
X505180600Y-159740600D03*
%TD*%
%TO.C,U2*%
G36*
G01*
X397296500Y-87902200D02*
X397596500Y-87902200D01*
G75*
G02*
X397746500Y-88052200I0J-150000D01*
G01*
X397746500Y-89802200D01*
G75*
G02*
X397596500Y-89952200I-150000J0D01*
G01*
X397296500Y-89952200D01*
G75*
G02*
X397146500Y-89802200I0J150000D01*
G01*
X397146500Y-88052200D01*
G75*
G02*
X397296500Y-87902200I150000J0D01*
G01*
G37*
G36*
G01*
X398566500Y-87902200D02*
X398866500Y-87902200D01*
G75*
G02*
X399016500Y-88052200I0J-150000D01*
G01*
X399016500Y-89802200D01*
G75*
G02*
X398866500Y-89952200I-150000J0D01*
G01*
X398566500Y-89952200D01*
G75*
G02*
X398416500Y-89802200I0J150000D01*
G01*
X398416500Y-88052200D01*
G75*
G02*
X398566500Y-87902200I150000J0D01*
G01*
G37*
G36*
G01*
X399836500Y-87902200D02*
X400136500Y-87902200D01*
G75*
G02*
X400286500Y-88052200I0J-150000D01*
G01*
X400286500Y-89802200D01*
G75*
G02*
X400136500Y-89952200I-150000J0D01*
G01*
X399836500Y-89952200D01*
G75*
G02*
X399686500Y-89802200I0J150000D01*
G01*
X399686500Y-88052200D01*
G75*
G02*
X399836500Y-87902200I150000J0D01*
G01*
G37*
G36*
G01*
X401106500Y-87902200D02*
X401406500Y-87902200D01*
G75*
G02*
X401556500Y-88052200I0J-150000D01*
G01*
X401556500Y-89802200D01*
G75*
G02*
X401406500Y-89952200I-150000J0D01*
G01*
X401106500Y-89952200D01*
G75*
G02*
X400956500Y-89802200I0J150000D01*
G01*
X400956500Y-88052200D01*
G75*
G02*
X401106500Y-87902200I150000J0D01*
G01*
G37*
G36*
G01*
X402376500Y-87902200D02*
X402676500Y-87902200D01*
G75*
G02*
X402826500Y-88052200I0J-150000D01*
G01*
X402826500Y-89802200D01*
G75*
G02*
X402676500Y-89952200I-150000J0D01*
G01*
X402376500Y-89952200D01*
G75*
G02*
X402226500Y-89802200I0J150000D01*
G01*
X402226500Y-88052200D01*
G75*
G02*
X402376500Y-87902200I150000J0D01*
G01*
G37*
G36*
G01*
X403646500Y-87902200D02*
X403946500Y-87902200D01*
G75*
G02*
X404096500Y-88052200I0J-150000D01*
G01*
X404096500Y-89802200D01*
G75*
G02*
X403946500Y-89952200I-150000J0D01*
G01*
X403646500Y-89952200D01*
G75*
G02*
X403496500Y-89802200I0J150000D01*
G01*
X403496500Y-88052200D01*
G75*
G02*
X403646500Y-87902200I150000J0D01*
G01*
G37*
G36*
G01*
X404916500Y-87902200D02*
X405216500Y-87902200D01*
G75*
G02*
X405366500Y-88052200I0J-150000D01*
G01*
X405366500Y-89802200D01*
G75*
G02*
X405216500Y-89952200I-150000J0D01*
G01*
X404916500Y-89952200D01*
G75*
G02*
X404766500Y-89802200I0J150000D01*
G01*
X404766500Y-88052200D01*
G75*
G02*
X404916500Y-87902200I150000J0D01*
G01*
G37*
G36*
G01*
X406186500Y-87902200D02*
X406486500Y-87902200D01*
G75*
G02*
X406636500Y-88052200I0J-150000D01*
G01*
X406636500Y-89802200D01*
G75*
G02*
X406486500Y-89952200I-150000J0D01*
G01*
X406186500Y-89952200D01*
G75*
G02*
X406036500Y-89802200I0J150000D01*
G01*
X406036500Y-88052200D01*
G75*
G02*
X406186500Y-87902200I150000J0D01*
G01*
G37*
G36*
G01*
X407456500Y-87902200D02*
X407756500Y-87902200D01*
G75*
G02*
X407906500Y-88052200I0J-150000D01*
G01*
X407906500Y-89802200D01*
G75*
G02*
X407756500Y-89952200I-150000J0D01*
G01*
X407456500Y-89952200D01*
G75*
G02*
X407306500Y-89802200I0J150000D01*
G01*
X407306500Y-88052200D01*
G75*
G02*
X407456500Y-87902200I150000J0D01*
G01*
G37*
G36*
G01*
X408726500Y-87902200D02*
X409026500Y-87902200D01*
G75*
G02*
X409176500Y-88052200I0J-150000D01*
G01*
X409176500Y-89802200D01*
G75*
G02*
X409026500Y-89952200I-150000J0D01*
G01*
X408726500Y-89952200D01*
G75*
G02*
X408576500Y-89802200I0J150000D01*
G01*
X408576500Y-88052200D01*
G75*
G02*
X408726500Y-87902200I150000J0D01*
G01*
G37*
G36*
G01*
X409996500Y-87902200D02*
X410296500Y-87902200D01*
G75*
G02*
X410446500Y-88052200I0J-150000D01*
G01*
X410446500Y-89802200D01*
G75*
G02*
X410296500Y-89952200I-150000J0D01*
G01*
X409996500Y-89952200D01*
G75*
G02*
X409846500Y-89802200I0J150000D01*
G01*
X409846500Y-88052200D01*
G75*
G02*
X409996500Y-87902200I150000J0D01*
G01*
G37*
G36*
G01*
X411266500Y-87902200D02*
X411566500Y-87902200D01*
G75*
G02*
X411716500Y-88052200I0J-150000D01*
G01*
X411716500Y-89802200D01*
G75*
G02*
X411566500Y-89952200I-150000J0D01*
G01*
X411266500Y-89952200D01*
G75*
G02*
X411116500Y-89802200I0J150000D01*
G01*
X411116500Y-88052200D01*
G75*
G02*
X411266500Y-87902200I150000J0D01*
G01*
G37*
G36*
G01*
X412536500Y-87902200D02*
X412836500Y-87902200D01*
G75*
G02*
X412986500Y-88052200I0J-150000D01*
G01*
X412986500Y-89802200D01*
G75*
G02*
X412836500Y-89952200I-150000J0D01*
G01*
X412536500Y-89952200D01*
G75*
G02*
X412386500Y-89802200I0J150000D01*
G01*
X412386500Y-88052200D01*
G75*
G02*
X412536500Y-87902200I150000J0D01*
G01*
G37*
G36*
G01*
X413806500Y-87902200D02*
X414106500Y-87902200D01*
G75*
G02*
X414256500Y-88052200I0J-150000D01*
G01*
X414256500Y-89802200D01*
G75*
G02*
X414106500Y-89952200I-150000J0D01*
G01*
X413806500Y-89952200D01*
G75*
G02*
X413656500Y-89802200I0J150000D01*
G01*
X413656500Y-88052200D01*
G75*
G02*
X413806500Y-87902200I150000J0D01*
G01*
G37*
G36*
G01*
X413806500Y-78602200D02*
X414106500Y-78602200D01*
G75*
G02*
X414256500Y-78752200I0J-150000D01*
G01*
X414256500Y-80502200D01*
G75*
G02*
X414106500Y-80652200I-150000J0D01*
G01*
X413806500Y-80652200D01*
G75*
G02*
X413656500Y-80502200I0J150000D01*
G01*
X413656500Y-78752200D01*
G75*
G02*
X413806500Y-78602200I150000J0D01*
G01*
G37*
G36*
G01*
X412536500Y-78602200D02*
X412836500Y-78602200D01*
G75*
G02*
X412986500Y-78752200I0J-150000D01*
G01*
X412986500Y-80502200D01*
G75*
G02*
X412836500Y-80652200I-150000J0D01*
G01*
X412536500Y-80652200D01*
G75*
G02*
X412386500Y-80502200I0J150000D01*
G01*
X412386500Y-78752200D01*
G75*
G02*
X412536500Y-78602200I150000J0D01*
G01*
G37*
G36*
G01*
X411266500Y-78602200D02*
X411566500Y-78602200D01*
G75*
G02*
X411716500Y-78752200I0J-150000D01*
G01*
X411716500Y-80502200D01*
G75*
G02*
X411566500Y-80652200I-150000J0D01*
G01*
X411266500Y-80652200D01*
G75*
G02*
X411116500Y-80502200I0J150000D01*
G01*
X411116500Y-78752200D01*
G75*
G02*
X411266500Y-78602200I150000J0D01*
G01*
G37*
G36*
G01*
X409996500Y-78602200D02*
X410296500Y-78602200D01*
G75*
G02*
X410446500Y-78752200I0J-150000D01*
G01*
X410446500Y-80502200D01*
G75*
G02*
X410296500Y-80652200I-150000J0D01*
G01*
X409996500Y-80652200D01*
G75*
G02*
X409846500Y-80502200I0J150000D01*
G01*
X409846500Y-78752200D01*
G75*
G02*
X409996500Y-78602200I150000J0D01*
G01*
G37*
G36*
G01*
X408726500Y-78602200D02*
X409026500Y-78602200D01*
G75*
G02*
X409176500Y-78752200I0J-150000D01*
G01*
X409176500Y-80502200D01*
G75*
G02*
X409026500Y-80652200I-150000J0D01*
G01*
X408726500Y-80652200D01*
G75*
G02*
X408576500Y-80502200I0J150000D01*
G01*
X408576500Y-78752200D01*
G75*
G02*
X408726500Y-78602200I150000J0D01*
G01*
G37*
G36*
G01*
X407456500Y-78602200D02*
X407756500Y-78602200D01*
G75*
G02*
X407906500Y-78752200I0J-150000D01*
G01*
X407906500Y-80502200D01*
G75*
G02*
X407756500Y-80652200I-150000J0D01*
G01*
X407456500Y-80652200D01*
G75*
G02*
X407306500Y-80502200I0J150000D01*
G01*
X407306500Y-78752200D01*
G75*
G02*
X407456500Y-78602200I150000J0D01*
G01*
G37*
G36*
G01*
X406186500Y-78602200D02*
X406486500Y-78602200D01*
G75*
G02*
X406636500Y-78752200I0J-150000D01*
G01*
X406636500Y-80502200D01*
G75*
G02*
X406486500Y-80652200I-150000J0D01*
G01*
X406186500Y-80652200D01*
G75*
G02*
X406036500Y-80502200I0J150000D01*
G01*
X406036500Y-78752200D01*
G75*
G02*
X406186500Y-78602200I150000J0D01*
G01*
G37*
G36*
G01*
X404916500Y-78602200D02*
X405216500Y-78602200D01*
G75*
G02*
X405366500Y-78752200I0J-150000D01*
G01*
X405366500Y-80502200D01*
G75*
G02*
X405216500Y-80652200I-150000J0D01*
G01*
X404916500Y-80652200D01*
G75*
G02*
X404766500Y-80502200I0J150000D01*
G01*
X404766500Y-78752200D01*
G75*
G02*
X404916500Y-78602200I150000J0D01*
G01*
G37*
G36*
G01*
X403646500Y-78602200D02*
X403946500Y-78602200D01*
G75*
G02*
X404096500Y-78752200I0J-150000D01*
G01*
X404096500Y-80502200D01*
G75*
G02*
X403946500Y-80652200I-150000J0D01*
G01*
X403646500Y-80652200D01*
G75*
G02*
X403496500Y-80502200I0J150000D01*
G01*
X403496500Y-78752200D01*
G75*
G02*
X403646500Y-78602200I150000J0D01*
G01*
G37*
G36*
G01*
X402376500Y-78602200D02*
X402676500Y-78602200D01*
G75*
G02*
X402826500Y-78752200I0J-150000D01*
G01*
X402826500Y-80502200D01*
G75*
G02*
X402676500Y-80652200I-150000J0D01*
G01*
X402376500Y-80652200D01*
G75*
G02*
X402226500Y-80502200I0J150000D01*
G01*
X402226500Y-78752200D01*
G75*
G02*
X402376500Y-78602200I150000J0D01*
G01*
G37*
G36*
G01*
X401106500Y-78602200D02*
X401406500Y-78602200D01*
G75*
G02*
X401556500Y-78752200I0J-150000D01*
G01*
X401556500Y-80502200D01*
G75*
G02*
X401406500Y-80652200I-150000J0D01*
G01*
X401106500Y-80652200D01*
G75*
G02*
X400956500Y-80502200I0J150000D01*
G01*
X400956500Y-78752200D01*
G75*
G02*
X401106500Y-78602200I150000J0D01*
G01*
G37*
G36*
G01*
X399836500Y-78602200D02*
X400136500Y-78602200D01*
G75*
G02*
X400286500Y-78752200I0J-150000D01*
G01*
X400286500Y-80502200D01*
G75*
G02*
X400136500Y-80652200I-150000J0D01*
G01*
X399836500Y-80652200D01*
G75*
G02*
X399686500Y-80502200I0J150000D01*
G01*
X399686500Y-78752200D01*
G75*
G02*
X399836500Y-78602200I150000J0D01*
G01*
G37*
G36*
G01*
X398566500Y-78602200D02*
X398866500Y-78602200D01*
G75*
G02*
X399016500Y-78752200I0J-150000D01*
G01*
X399016500Y-80502200D01*
G75*
G02*
X398866500Y-80652200I-150000J0D01*
G01*
X398566500Y-80652200D01*
G75*
G02*
X398416500Y-80502200I0J150000D01*
G01*
X398416500Y-78752200D01*
G75*
G02*
X398566500Y-78602200I150000J0D01*
G01*
G37*
G36*
G01*
X397296500Y-78602200D02*
X397596500Y-78602200D01*
G75*
G02*
X397746500Y-78752200I0J-150000D01*
G01*
X397746500Y-80502200D01*
G75*
G02*
X397596500Y-80652200I-150000J0D01*
G01*
X397296500Y-80652200D01*
G75*
G02*
X397146500Y-80502200I0J150000D01*
G01*
X397146500Y-78752200D01*
G75*
G02*
X397296500Y-78602200I150000J0D01*
G01*
G37*
%TD*%
D19*
%TO.C,K11\u002C4*%
X335610200Y-191820800D03*
X348537200Y-189280800D03*
D20*
X336372200Y-186740800D03*
X346532200Y-186740800D03*
D21*
X341452200Y-186740800D03*
D22*
X338912200Y-191820800D03*
X345262200Y-189280800D03*
%TD*%
%TO.C,C6*%
G36*
G01*
X494391700Y-79333600D02*
X494391700Y-77333600D01*
G75*
G02*
X494641700Y-77083600I250000J0D01*
G01*
X498141700Y-77083600D01*
G75*
G02*
X498391700Y-77333600I0J-250000D01*
G01*
X498391700Y-79333600D01*
G75*
G02*
X498141700Y-79583600I-250000J0D01*
G01*
X494641700Y-79583600D01*
G75*
G02*
X494391700Y-79333600I0J250000D01*
G01*
G37*
G36*
G01*
X486391700Y-79333600D02*
X486391700Y-77333600D01*
G75*
G02*
X486641700Y-77083600I250000J0D01*
G01*
X490141700Y-77083600D01*
G75*
G02*
X490391700Y-77333600I0J-250000D01*
G01*
X490391700Y-79333600D01*
G75*
G02*
X490141700Y-79583600I-250000J0D01*
G01*
X486641700Y-79583600D01*
G75*
G02*
X486391700Y-79333600I0J250000D01*
G01*
G37*
%TD*%
D24*
%TO.C,D0\u002C3*%
X87833200Y-172225800D03*
D25*
X87833200Y-164425800D03*
D26*
X87833200Y-166750800D03*
X87833200Y-169900800D03*
%TD*%
D24*
%TO.C,D0\u002C5*%
X83197700Y-211341800D03*
D25*
X83197700Y-203541800D03*
D26*
X83197700Y-205866800D03*
X83197700Y-209016800D03*
%TD*%
D24*
%TO.C,D0\u002C4*%
X92595700Y-191974300D03*
D25*
X92595700Y-184174300D03*
D26*
X92595700Y-186499300D03*
X92595700Y-189649300D03*
%TD*%
D24*
%TO.C,D0\u002C0*%
X80848200Y-107646300D03*
D25*
X80848200Y-99846300D03*
D26*
X80848200Y-102171300D03*
X80848200Y-105321300D03*
%TD*%
D24*
%TO.C,D0\u002C2*%
X85293200Y-152667800D03*
D25*
X85293200Y-144867800D03*
D26*
X85293200Y-147192800D03*
X85293200Y-150342800D03*
%TD*%
D24*
%TO.C,D0\u002C1*%
X80784700Y-133490800D03*
D25*
X80784700Y-125690800D03*
D26*
X80784700Y-128015800D03*
X80784700Y-131165800D03*
%TD*%
D24*
%TO.C,D1\u002C3*%
X114122200Y-172098800D03*
D25*
X114122200Y-164298800D03*
D26*
X114122200Y-166623800D03*
X114122200Y-169773800D03*
%TD*%
D24*
%TO.C,D1\u002C0*%
X118996460Y-107697100D03*
D25*
X118996460Y-99897100D03*
D26*
X118996460Y-102222100D03*
X118996460Y-105372100D03*
%TD*%
D24*
%TO.C,D1\u002C4*%
X123520200Y-191910800D03*
D25*
X123520200Y-184110800D03*
D26*
X123520200Y-186435800D03*
X123520200Y-189585800D03*
%TD*%
D24*
%TO.C,D1\u002C5*%
X107581700Y-211341800D03*
D25*
X107581700Y-203541800D03*
D26*
X107581700Y-205866800D03*
X107581700Y-209016800D03*
%TD*%
D24*
%TO.C,D1\u002C1*%
X100088700Y-133490800D03*
D25*
X100088700Y-125690800D03*
D26*
X100088700Y-128015800D03*
X100088700Y-131165800D03*
%TD*%
D24*
%TO.C,D1\u002C2*%
X109232700Y-152667800D03*
D25*
X109232700Y-144867800D03*
D26*
X109232700Y-147192800D03*
X109232700Y-150342800D03*
%TD*%
D24*
%TO.C,D2\u002C4*%
X142824200Y-191910800D03*
D25*
X142824200Y-184110800D03*
D26*
X142824200Y-186435800D03*
X142824200Y-189585800D03*
%TD*%
D24*
%TO.C,D2\u002C5*%
X131965700Y-211341800D03*
D25*
X131965700Y-203541800D03*
D26*
X131965700Y-205866800D03*
X131965700Y-209016800D03*
%TD*%
D24*
%TO.C,D2\u002C0*%
X138300460Y-107646300D03*
D25*
X138300460Y-99846300D03*
D26*
X138300460Y-102171300D03*
X138300460Y-105321300D03*
%TD*%
D24*
%TO.C,D2\u002C2*%
X128536700Y-152667800D03*
D25*
X128536700Y-144867800D03*
D26*
X128536700Y-147192800D03*
X128536700Y-150342800D03*
%TD*%
D24*
%TO.C,D2\u002C1*%
X119011700Y-133427300D03*
D25*
X119011700Y-125627300D03*
D26*
X119011700Y-127952300D03*
X119011700Y-131102300D03*
%TD*%
D24*
%TO.C,D2\u002C3*%
X133426200Y-172098800D03*
D25*
X133426200Y-164298800D03*
D26*
X133426200Y-166623800D03*
X133426200Y-169773800D03*
%TD*%
D24*
%TO.C,D3\u002C0*%
X157604460Y-107646300D03*
D25*
X157604460Y-99846300D03*
D26*
X157604460Y-102171300D03*
X157604460Y-105321300D03*
%TD*%
D24*
%TO.C,D3\u002C1*%
X137807700Y-133427300D03*
D25*
X137807700Y-125627300D03*
D26*
X137807700Y-127952300D03*
X137807700Y-131102300D03*
%TD*%
D24*
%TO.C,D3\u002C4*%
X162128200Y-191910800D03*
D25*
X162128200Y-184110800D03*
D26*
X162128200Y-186435800D03*
X162128200Y-189585800D03*
%TD*%
D24*
%TO.C,D3\u002C2*%
X147840700Y-152667800D03*
D25*
X147840700Y-144867800D03*
D26*
X147840700Y-147192800D03*
X147840700Y-150342800D03*
%TD*%
D24*
%TO.C,D3\u002C5*%
X203847700Y-211341800D03*
D25*
X203847700Y-203541800D03*
D26*
X203847700Y-205866800D03*
X203847700Y-209016800D03*
%TD*%
D24*
%TO.C,D3\u002C3*%
X152730200Y-172098800D03*
D25*
X152730200Y-164298800D03*
D26*
X152730200Y-166623800D03*
X152730200Y-169773800D03*
%TD*%
D24*
%TO.C,D4\u002C4*%
X181432200Y-191910800D03*
D25*
X181432200Y-184110800D03*
D26*
X181432200Y-186435800D03*
X181432200Y-189585800D03*
%TD*%
D24*
%TO.C,D4\u002C3*%
X172034200Y-172098800D03*
D25*
X172034200Y-164298800D03*
D26*
X172034200Y-166623800D03*
X172034200Y-169773800D03*
%TD*%
D24*
%TO.C,D4\u002C1*%
X157111700Y-133427300D03*
D25*
X157111700Y-125627300D03*
D26*
X157111700Y-127952300D03*
X157111700Y-131102300D03*
%TD*%
D24*
%TO.C,D4\u002C0*%
X176908460Y-107646300D03*
D25*
X176908460Y-99846300D03*
D26*
X176908460Y-102171300D03*
X176908460Y-105321300D03*
%TD*%
D24*
%TO.C,D4\u002C2*%
X167144700Y-152667800D03*
D25*
X167144700Y-144867800D03*
D26*
X167144700Y-147192800D03*
X167144700Y-150342800D03*
%TD*%
D24*
%TO.C,D5\u002C0*%
X208404460Y-107646300D03*
D25*
X208404460Y-99846300D03*
D26*
X208404460Y-102171300D03*
X208404460Y-105321300D03*
%TD*%
D24*
%TO.C,D5\u002C2*%
X186448700Y-152667800D03*
D25*
X186448700Y-144867800D03*
D26*
X186448700Y-147192800D03*
X186448700Y-150342800D03*
%TD*%
D24*
%TO.C,D5\u002C1*%
X176415700Y-133427300D03*
D25*
X176415700Y-125627300D03*
D26*
X176415700Y-127952300D03*
X176415700Y-131102300D03*
%TD*%
D24*
%TO.C,D5\u002C3*%
X191338200Y-172149600D03*
D25*
X191338200Y-164349600D03*
D26*
X191338200Y-166674600D03*
X191338200Y-169824600D03*
%TD*%
D24*
%TO.C,D5\u002C4*%
X200736200Y-191961600D03*
D25*
X200736200Y-184161600D03*
D26*
X200736200Y-186486600D03*
X200736200Y-189636600D03*
%TD*%
D24*
%TO.C,D6\u002C0*%
X227708460Y-107646300D03*
D25*
X227708460Y-99846300D03*
D26*
X227708460Y-102171300D03*
X227708460Y-105321300D03*
%TD*%
D24*
%TO.C,D6\u002C3*%
X210642200Y-172098800D03*
D25*
X210642200Y-164298800D03*
D26*
X210642200Y-166623800D03*
X210642200Y-169773800D03*
%TD*%
D24*
%TO.C,D6\u002C4*%
X220040200Y-191910800D03*
D25*
X220040200Y-184110800D03*
D26*
X220040200Y-186435800D03*
X220040200Y-189585800D03*
%TD*%
D24*
%TO.C,D6\u002C1*%
X195719700Y-133427300D03*
D25*
X195719700Y-125627300D03*
D26*
X195719700Y-127952300D03*
X195719700Y-131102300D03*
%TD*%
D24*
%TO.C,D6\u002C2*%
X205752700Y-152667800D03*
D25*
X205752700Y-144867800D03*
D26*
X205752700Y-147192800D03*
X205752700Y-150342800D03*
%TD*%
D24*
%TO.C,D7\u002C4*%
X239344200Y-191961600D03*
D25*
X239344200Y-184161600D03*
D26*
X239344200Y-186486600D03*
X239344200Y-189636600D03*
%TD*%
D24*
%TO.C,D7\u002C2*%
X225056700Y-152718600D03*
D25*
X225056700Y-144918600D03*
D26*
X225056700Y-147243600D03*
X225056700Y-150393600D03*
%TD*%
D24*
%TO.C,D7\u002C1*%
X215023700Y-133427300D03*
D25*
X215023700Y-125627300D03*
D26*
X215023700Y-127952300D03*
X215023700Y-131102300D03*
%TD*%
D24*
%TO.C,D7\u002C0*%
X247012460Y-107646300D03*
D25*
X247012460Y-99846300D03*
D26*
X247012460Y-102171300D03*
X247012460Y-105321300D03*
%TD*%
D24*
%TO.C,D7\u002C3*%
X229946200Y-172098800D03*
D25*
X229946200Y-164298800D03*
D26*
X229946200Y-166623800D03*
X229946200Y-169773800D03*
%TD*%
D24*
%TO.C,D8\u002C0*%
X266316460Y-107697100D03*
D25*
X266316460Y-99897100D03*
D26*
X266316460Y-102222100D03*
X266316460Y-105372100D03*
%TD*%
D24*
%TO.C,D8\u002C3*%
X249250200Y-172098800D03*
D25*
X249250200Y-164298800D03*
D26*
X249250200Y-166623800D03*
X249250200Y-169773800D03*
%TD*%
D24*
%TO.C,D8\u002C1*%
X234327700Y-133427300D03*
D25*
X234327700Y-125627300D03*
D26*
X234327700Y-127952300D03*
X234327700Y-131102300D03*
%TD*%
D24*
%TO.C,D8\u002C2*%
X244360700Y-152667800D03*
D25*
X244360700Y-144867800D03*
D26*
X244360700Y-147192800D03*
X244360700Y-150342800D03*
%TD*%
D24*
%TO.C,D8\u002C5*%
X275602700Y-211405300D03*
D25*
X275602700Y-203605300D03*
D26*
X275602700Y-205930300D03*
X275602700Y-209080300D03*
%TD*%
D24*
%TO.C,D8\u002C4*%
X258648200Y-191910800D03*
D25*
X258648200Y-184110800D03*
D26*
X258648200Y-186435800D03*
X258648200Y-189585800D03*
%TD*%
D24*
%TO.C,D9\u002C2*%
X263664700Y-152667800D03*
D25*
X263664700Y-144867800D03*
D26*
X263664700Y-147192800D03*
X263664700Y-150342800D03*
%TD*%
D24*
%TO.C,D9\u002C1*%
X253631700Y-133478100D03*
D25*
X253631700Y-125678100D03*
D26*
X253631700Y-128003100D03*
X253631700Y-131153100D03*
%TD*%
D24*
%TO.C,D9\u002C3*%
X268554200Y-172098800D03*
D25*
X268554200Y-164298800D03*
D26*
X268554200Y-166623800D03*
X268554200Y-169773800D03*
%TD*%
D24*
%TO.C,D9\u002C4*%
X277952200Y-191910800D03*
D25*
X277952200Y-184110800D03*
D26*
X277952200Y-186435800D03*
X277952200Y-189585800D03*
%TD*%
D24*
%TO.C,D9\u002C5*%
X299732700Y-211341800D03*
D25*
X299732700Y-203541800D03*
D26*
X299732700Y-205866800D03*
X299732700Y-209016800D03*
%TD*%
D24*
%TO.C,D9\u002C0*%
X292732460Y-107646300D03*
D25*
X292732460Y-99846300D03*
D26*
X292732460Y-102171300D03*
X292732460Y-105321300D03*
%TD*%
D24*
%TO.C,D10\u002C4*%
X297256200Y-191961600D03*
D25*
X297256200Y-184161600D03*
D26*
X297256200Y-186486600D03*
X297256200Y-189636600D03*
%TD*%
D24*
%TO.C,D10\u002C5*%
X323926200Y-211341800D03*
D25*
X323926200Y-203541800D03*
D26*
X323926200Y-205866800D03*
X323926200Y-209016800D03*
%TD*%
D24*
%TO.C,D10\u002C1*%
X272935700Y-133427300D03*
D25*
X272935700Y-125627300D03*
D26*
X272935700Y-127952300D03*
X272935700Y-131102300D03*
%TD*%
D24*
%TO.C,D10\u002C0*%
X312036460Y-107646300D03*
D25*
X312036460Y-99846300D03*
D26*
X312036460Y-102171300D03*
X312036460Y-105321300D03*
%TD*%
D24*
%TO.C,D10\u002C2*%
X282968700Y-152718600D03*
D25*
X282968700Y-144918600D03*
D26*
X282968700Y-147243600D03*
X282968700Y-150393600D03*
%TD*%
D24*
%TO.C,D10\u002C3*%
X287858200Y-172098800D03*
D25*
X287858200Y-164298800D03*
D26*
X287858200Y-166623800D03*
X287858200Y-169773800D03*
%TD*%
D24*
%TO.C,D11\u002C0*%
X331340460Y-107646300D03*
D25*
X331340460Y-99846300D03*
D26*
X331340460Y-102171300D03*
X331340460Y-105321300D03*
%TD*%
D24*
%TO.C,D11\u002C1*%
X292239700Y-133427300D03*
D25*
X292239700Y-125627300D03*
D26*
X292239700Y-127952300D03*
X292239700Y-131102300D03*
%TD*%
D24*
%TO.C,D11\u002C3*%
X307162200Y-172098800D03*
D25*
X307162200Y-164298800D03*
D26*
X307162200Y-166623800D03*
X307162200Y-169773800D03*
%TD*%
D24*
%TO.C,D11\u002C2*%
X302272700Y-152667800D03*
D25*
X302272700Y-144867800D03*
D26*
X302272700Y-147192800D03*
X302272700Y-150342800D03*
%TD*%
D24*
%TO.C,D11\u002C4*%
X333832200Y-191910800D03*
D25*
X333832200Y-184110800D03*
D26*
X333832200Y-186435800D03*
X333832200Y-189585800D03*
%TD*%
D24*
%TO.C,D11\u002C5*%
X347992700Y-211341800D03*
D25*
X347992700Y-203541800D03*
D26*
X347992700Y-205866800D03*
X347992700Y-209016800D03*
%TD*%
D24*
%TO.C,D12\u002C3*%
X338658200Y-172162300D03*
D25*
X338658200Y-164362300D03*
D26*
X338658200Y-166687300D03*
X338658200Y-169837300D03*
%TD*%
D24*
%TO.C,D12\u002C2*%
X321576700Y-152667800D03*
D25*
X321576700Y-144867800D03*
D26*
X321576700Y-147192800D03*
X321576700Y-150342800D03*
%TD*%
D24*
%TO.C,D12\u002C1*%
X311543700Y-133478100D03*
D25*
X311543700Y-125678100D03*
D26*
X311543700Y-128003100D03*
X311543700Y-131153100D03*
%TD*%
D24*
%TO.C,D12\u002C0*%
X350644460Y-107646300D03*
D25*
X350644460Y-99846300D03*
D26*
X350644460Y-102171300D03*
X350644460Y-105321300D03*
%TD*%
D24*
%TO.C,D13\u002C2*%
X345389200Y-152731300D03*
D25*
X345389200Y-144931300D03*
D26*
X345389200Y-147256300D03*
X345389200Y-150406300D03*
%TD*%
D24*
%TO.C,D13\u002C1*%
X340499700Y-133427300D03*
D25*
X340499700Y-125627300D03*
D26*
X340499700Y-127952300D03*
X340499700Y-131102300D03*
%TD*%
D24*
%TO.C,D14\u002C1*%
X373164100Y-133427300D03*
D25*
X373164100Y-125627300D03*
D26*
X373164100Y-127952300D03*
X373164100Y-131102300D03*
%TD*%
D24*
%TO.C,D14\u002C3*%
X373418100Y-152667800D03*
D25*
X373418100Y-144867800D03*
D26*
X373418100Y-147192800D03*
X373418100Y-150342800D03*
%TD*%
D24*
%TO.C,D14\u002C0*%
X373214900Y-107646300D03*
D25*
X373214900Y-99846300D03*
D26*
X373214900Y-102171300D03*
X373214900Y-105321300D03*
%TD*%
D24*
%TO.C,D14\u002C6*%
X373100600Y-211214800D03*
D25*
X373100600Y-203414800D03*
D26*
X373100600Y-205739800D03*
X373100600Y-208889800D03*
%TD*%
D24*
%TO.C,D15\u002C0*%
X393026900Y-107646300D03*
D25*
X393026900Y-99846300D03*
D26*
X393026900Y-102171300D03*
X393026900Y-105321300D03*
%TD*%
D24*
%TO.C,D15\u002C1*%
X392468100Y-133427300D03*
D25*
X392468100Y-125627300D03*
D26*
X392468100Y-127952300D03*
X392468100Y-131102300D03*
%TD*%
D24*
%TO.C,D15\u002C3*%
X392468100Y-152667800D03*
D25*
X392468100Y-144867800D03*
D26*
X392468100Y-147192800D03*
X392468100Y-150342800D03*
%TD*%
D24*
%TO.C,D15\u002C5*%
X392404600Y-191910800D03*
D25*
X392404600Y-184110800D03*
D26*
X392404600Y-186435800D03*
X392404600Y-189585800D03*
%TD*%
D24*
%TO.C,D15\u002C6*%
X392404600Y-211214800D03*
D25*
X392404600Y-203414800D03*
D26*
X392404600Y-205739800D03*
X392404600Y-208889800D03*
%TD*%
D24*
%TO.C,D16\u002C6*%
X411708600Y-211214800D03*
D25*
X411708600Y-203414800D03*
D26*
X411708600Y-205739800D03*
X411708600Y-208889800D03*
%TD*%
D24*
%TO.C,D16\u002C0*%
X412076900Y-107646300D03*
D25*
X412076900Y-99846300D03*
D26*
X412076900Y-102171300D03*
X412076900Y-105321300D03*
%TD*%
D24*
%TO.C,D16\u002C1*%
X411772100Y-133427300D03*
D25*
X411772100Y-125627300D03*
D26*
X411772100Y-127952300D03*
X411772100Y-131102300D03*
%TD*%
D24*
%TO.C,D16\u002C5*%
X435394100Y-191402800D03*
D25*
X435394100Y-183602800D03*
D26*
X435394100Y-185927800D03*
X435394100Y-189077800D03*
%TD*%
D24*
%TO.C,D16\u002C3*%
X412026100Y-152667800D03*
D25*
X412026100Y-144867800D03*
D26*
X412026100Y-147192800D03*
X412026100Y-150342800D03*
%TD*%
D24*
%TO.C,D16\u002C4*%
X435648100Y-172098800D03*
D25*
X435648100Y-164298800D03*
D26*
X435648100Y-166623800D03*
X435648100Y-169773800D03*
%TD*%
D24*
%TO.C,D17\u002C3*%
X435648100Y-152794800D03*
D25*
X435648100Y-144994800D03*
D26*
X435648100Y-147319800D03*
X435648100Y-150469800D03*
%TD*%
D24*
%TO.C,D17\u002C1*%
X435648100Y-133427300D03*
D25*
X435648100Y-125627300D03*
D26*
X435648100Y-127952300D03*
X435648100Y-131102300D03*
%TD*%
D24*
%TO.C,D17\u002C6*%
X445427100Y-210757600D03*
D25*
X445427100Y-202957600D03*
D26*
X445427100Y-205282600D03*
X445427100Y-208432600D03*
%TD*%
D24*
%TO.C,D17\u002C4*%
X454952100Y-172098800D03*
D25*
X454952100Y-164298800D03*
D26*
X454952100Y-166623800D03*
X454952100Y-169773800D03*
%TD*%
D24*
%TO.C,D17\u002C0*%
X435584600Y-107646300D03*
D25*
X435584600Y-99846300D03*
D26*
X435584600Y-102171300D03*
X435584600Y-105321300D03*
%TD*%
D24*
%TO.C,D17\u002C5*%
X454952100Y-191402800D03*
D25*
X454952100Y-183602800D03*
D26*
X454952100Y-185927800D03*
X454952100Y-189077800D03*
%TD*%
D24*
%TO.C,D18\u002C1*%
X454952100Y-133478100D03*
D25*
X454952100Y-125678100D03*
D26*
X454952100Y-128003100D03*
X454952100Y-131153100D03*
%TD*%
D24*
%TO.C,D18\u002C6*%
X474256100Y-210706800D03*
D25*
X474256100Y-202906800D03*
D26*
X474256100Y-205231800D03*
X474256100Y-208381800D03*
%TD*%
D24*
%TO.C,D18\u002C3*%
X454952100Y-152794800D03*
D25*
X454952100Y-144994800D03*
D26*
X454952100Y-147319800D03*
X454952100Y-150469800D03*
%TD*%
D24*
%TO.C,D18\u002C0*%
X454888600Y-107646300D03*
D25*
X454888600Y-99846300D03*
D26*
X454888600Y-102171300D03*
X454888600Y-105321300D03*
%TD*%
D24*
%TO.C,D18\u002C5*%
X474256100Y-191402800D03*
D25*
X474256100Y-183602800D03*
D26*
X474256100Y-185927800D03*
X474256100Y-189077800D03*
%TD*%
D24*
%TO.C,D18\u002C4*%
X474256100Y-172035300D03*
D25*
X474256100Y-164235300D03*
D26*
X474256100Y-166560300D03*
X474256100Y-169710300D03*
%TD*%
D24*
%TO.C,D19\u002C4*%
X493560100Y-162116600D03*
D25*
X493560100Y-154316600D03*
D26*
X493560100Y-156641600D03*
X493560100Y-159791600D03*
%TD*%
D24*
%TO.C,D19\u002C0*%
X474192600Y-107646300D03*
D25*
X474192600Y-99846300D03*
D26*
X474192600Y-102171300D03*
X474192600Y-105321300D03*
%TD*%
D24*
%TO.C,D19\u002C3*%
X474256100Y-152794800D03*
D25*
X474256100Y-144994800D03*
D26*
X474256100Y-147319800D03*
X474256100Y-150469800D03*
%TD*%
D24*
%TO.C,D19\u002C1*%
X474256100Y-133427300D03*
D25*
X474256100Y-125627300D03*
D26*
X474256100Y-127952300D03*
X474256100Y-131102300D03*
%TD*%
D24*
%TO.C,D19\u002C6*%
X493814100Y-201054800D03*
D25*
X493814100Y-193254800D03*
D26*
X493814100Y-195579800D03*
X493814100Y-198729800D03*
%TD*%
D24*
%TO.C,D20\u002C1*%
X493560100Y-133427300D03*
D25*
X493560100Y-125627300D03*
D26*
X493560100Y-127952300D03*
X493560100Y-131102300D03*
%TD*%
D24*
%TO.C,D20\u002C0*%
X493496600Y-107697100D03*
D25*
X493496600Y-99897100D03*
D26*
X493496600Y-102222100D03*
X493496600Y-105372100D03*
%TD*%
D27*
%TO.C,J0*%
X487883200Y-58284100D03*
X487883200Y-60784100D03*
X487883200Y-63284100D03*
G36*
G01*
X488608200Y-66634100D02*
X487158200Y-66634100D01*
G75*
G02*
X486908200Y-66384100I0J250000D01*
G01*
X486908200Y-65184100D01*
G75*
G02*
X487158200Y-64934100I250000J0D01*
G01*
X488608200Y-64934100D01*
G75*
G02*
X488858200Y-65184100I0J-250000D01*
G01*
X488858200Y-66384100D01*
G75*
G02*
X488608200Y-66634100I-250000J0D01*
G01*
G37*
%TD*%
D23*
%TO.C,J1*%
X474160200Y-86017100D03*
X476660200Y-86017100D03*
X479160200Y-86017100D03*
G36*
G01*
X482510200Y-85292100D02*
X482510200Y-86742100D01*
G75*
G02*
X482260200Y-86992100I-250000J0D01*
G01*
X481060200Y-86992100D01*
G75*
G02*
X480810200Y-86742100I0J250000D01*
G01*
X480810200Y-85292100D01*
G75*
G02*
X481060200Y-85042100I250000J0D01*
G01*
X482260200Y-85042100D01*
G75*
G02*
X482510200Y-85292100I0J-250000D01*
G01*
G37*
%TD*%
D19*
%TO.C,K0\u002C0*%
X82626200Y-107556300D03*
X95553200Y-105016300D03*
D20*
X83388200Y-102476300D03*
X93548200Y-102476300D03*
D21*
X88468200Y-102476300D03*
D22*
X85928200Y-107556300D03*
X92278200Y-105016300D03*
%TD*%
D19*
%TO.C,K0\u002C1*%
X82562700Y-133400800D03*
X95489700Y-130860800D03*
D20*
X83324700Y-128320800D03*
X93484700Y-128320800D03*
D21*
X88404700Y-128320800D03*
D22*
X85864700Y-133400800D03*
X92214700Y-130860800D03*
%TD*%
D19*
%TO.C,K0\u002C5*%
X84975700Y-211251800D03*
X97902700Y-208711800D03*
D20*
X85737700Y-206171800D03*
X95897700Y-206171800D03*
D21*
X90817700Y-206171800D03*
D22*
X88277700Y-211251800D03*
X94627700Y-208711800D03*
%TD*%
D19*
%TO.C,K0\u002C4*%
X94373700Y-191884300D03*
X107300700Y-189344300D03*
D20*
X95135700Y-186804300D03*
X105295700Y-186804300D03*
D21*
X100215700Y-186804300D03*
D22*
X97675700Y-191884300D03*
X104025700Y-189344300D03*
%TD*%
D19*
%TO.C,K0\u002C3*%
X89649300Y-172110400D03*
X102576300Y-169570400D03*
D20*
X90411300Y-167030400D03*
X100571300Y-167030400D03*
D21*
X95491300Y-167030400D03*
D22*
X92951300Y-172110400D03*
X99301300Y-169570400D03*
%TD*%
D19*
%TO.C,K1\u002C4*%
X125488700Y-191871600D03*
X138415700Y-189331600D03*
D20*
X126250700Y-186791600D03*
X136410700Y-186791600D03*
D21*
X131330700Y-186791600D03*
D22*
X128790700Y-191871600D03*
X135140700Y-189331600D03*
%TD*%
D19*
%TO.C,K1\u002C5*%
X109550200Y-211302600D03*
X122477200Y-208762600D03*
D20*
X110312200Y-206222600D03*
X120472200Y-206222600D03*
D21*
X115392200Y-206222600D03*
D22*
X112852200Y-211302600D03*
X119202200Y-208762600D03*
%TD*%
D19*
%TO.C,K1\u002C3*%
X116090700Y-172059600D03*
X129017700Y-169519600D03*
D20*
X116852700Y-166979600D03*
X127012700Y-166979600D03*
D21*
X121932700Y-166979600D03*
D22*
X119392700Y-172059600D03*
X125742700Y-169519600D03*
%TD*%
D19*
%TO.C,K1\u002C2*%
X111201200Y-152628600D03*
X124128200Y-150088600D03*
D20*
X111963200Y-147548600D03*
X122123200Y-147548600D03*
D21*
X117043200Y-147548600D03*
D22*
X114503200Y-152628600D03*
X120853200Y-150088600D03*
%TD*%
D19*
%TO.C,K1\u002C1*%
X101777800Y-133400800D03*
X114704800Y-130860800D03*
D20*
X102539800Y-128320800D03*
X112699800Y-128320800D03*
D21*
X107619800Y-128320800D03*
D22*
X105079800Y-133400800D03*
X111429800Y-130860800D03*
%TD*%
D19*
%TO.C,K1\u002C0*%
X120964960Y-107607100D03*
X133891960Y-105067100D03*
D20*
X121726960Y-102527100D03*
X131886960Y-102527100D03*
D21*
X126806960Y-102527100D03*
D22*
X124266960Y-107607100D03*
X130616960Y-105067100D03*
%TD*%
D19*
%TO.C,K2\u002C5*%
X133934200Y-211302600D03*
X146861200Y-208762600D03*
D20*
X134696200Y-206222600D03*
X144856200Y-206222600D03*
D21*
X139776200Y-206222600D03*
D22*
X137236200Y-211302600D03*
X143586200Y-208762600D03*
%TD*%
D19*
%TO.C,K2\u002C3*%
X135394700Y-172059600D03*
X148321700Y-169519600D03*
D20*
X136156700Y-166979600D03*
X146316700Y-166979600D03*
D21*
X141236700Y-166979600D03*
D22*
X138696700Y-172059600D03*
X145046700Y-169519600D03*
%TD*%
D19*
%TO.C,K2\u002C1*%
X120980200Y-133388100D03*
X133907200Y-130848100D03*
D20*
X121742200Y-128308100D03*
X131902200Y-128308100D03*
D21*
X126822200Y-128308100D03*
D22*
X124282200Y-133388100D03*
X130632200Y-130848100D03*
%TD*%
D19*
%TO.C,K2\u002C4*%
X144792700Y-191871600D03*
X157719700Y-189331600D03*
D20*
X145554700Y-186791600D03*
X155714700Y-186791600D03*
D21*
X150634700Y-186791600D03*
D22*
X148094700Y-191871600D03*
X154444700Y-189331600D03*
%TD*%
D19*
%TO.C,K2\u002C2*%
X130505200Y-152628600D03*
X143432200Y-150088600D03*
D20*
X131267200Y-147548600D03*
X141427200Y-147548600D03*
D21*
X136347200Y-147548600D03*
D22*
X133807200Y-152628600D03*
X140157200Y-150088600D03*
%TD*%
D19*
%TO.C,K2\u002C0*%
X140268960Y-107607100D03*
X153195960Y-105067100D03*
D20*
X141030960Y-102527100D03*
X151190960Y-102527100D03*
D21*
X146110960Y-102527100D03*
D22*
X143570960Y-107607100D03*
X149920960Y-105067100D03*
%TD*%
D19*
%TO.C,K3\u002C5*%
X205816200Y-211302600D03*
X218743200Y-208762600D03*
D20*
X206578200Y-206222600D03*
X216738200Y-206222600D03*
D21*
X211658200Y-206222600D03*
D22*
X209118200Y-211302600D03*
X215468200Y-208762600D03*
%TD*%
D19*
%TO.C,K3\u002C4*%
X164096700Y-191871600D03*
X177023700Y-189331600D03*
D20*
X164858700Y-186791600D03*
X175018700Y-186791600D03*
D21*
X169938700Y-186791600D03*
D22*
X167398700Y-191871600D03*
X173748700Y-189331600D03*
%TD*%
D19*
%TO.C,K3\u002C1*%
X139776200Y-133388100D03*
X152703200Y-130848100D03*
D20*
X140538200Y-128308100D03*
X150698200Y-128308100D03*
D21*
X145618200Y-128308100D03*
D22*
X143078200Y-133388100D03*
X149428200Y-130848100D03*
%TD*%
D19*
%TO.C,K3\u002C0*%
X159572960Y-107607100D03*
X172499960Y-105067100D03*
D20*
X160334960Y-102527100D03*
X170494960Y-102527100D03*
D21*
X165414960Y-102527100D03*
D22*
X162874960Y-107607100D03*
X169224960Y-105067100D03*
%TD*%
D19*
%TO.C,K3\u002C3*%
X154698700Y-172059600D03*
X167625700Y-169519600D03*
D20*
X155460700Y-166979600D03*
X165620700Y-166979600D03*
D21*
X160540700Y-166979600D03*
D22*
X158000700Y-172059600D03*
X164350700Y-169519600D03*
%TD*%
D19*
%TO.C,K4\u002C1*%
X159080200Y-133388100D03*
X172007200Y-130848100D03*
D20*
X159842200Y-128308100D03*
X170002200Y-128308100D03*
D21*
X164922200Y-128308100D03*
D22*
X162382200Y-133388100D03*
X168732200Y-130848100D03*
%TD*%
D19*
%TO.C,K4\u002C2*%
X169113200Y-152628600D03*
X182040200Y-150088600D03*
D20*
X169875200Y-147548600D03*
X180035200Y-147548600D03*
D21*
X174955200Y-147548600D03*
D22*
X172415200Y-152628600D03*
X178765200Y-150088600D03*
%TD*%
D19*
%TO.C,K4\u002C3*%
X174002700Y-172059600D03*
X186929700Y-169519600D03*
D20*
X174764700Y-166979600D03*
X184924700Y-166979600D03*
D21*
X179844700Y-166979600D03*
D22*
X177304700Y-172059600D03*
X183654700Y-169519600D03*
%TD*%
D19*
%TO.C,K4\u002C4*%
X183400700Y-191871600D03*
X196327700Y-189331600D03*
D20*
X184162700Y-186791600D03*
X194322700Y-186791600D03*
D21*
X189242700Y-186791600D03*
D22*
X186702700Y-191871600D03*
X193052700Y-189331600D03*
%TD*%
D19*
%TO.C,K4\u002C0*%
X178876960Y-107607100D03*
X191803960Y-105067100D03*
D20*
X179638960Y-102527100D03*
X189798960Y-102527100D03*
D21*
X184718960Y-102527100D03*
D22*
X182178960Y-107607100D03*
X188528960Y-105067100D03*
%TD*%
D19*
%TO.C,K5\u002C0*%
X210372960Y-107607100D03*
X223299960Y-105067100D03*
D20*
X211134960Y-102527100D03*
X221294960Y-102527100D03*
D21*
X216214960Y-102527100D03*
D22*
X213674960Y-107607100D03*
X220024960Y-105067100D03*
%TD*%
D19*
%TO.C,K5\u002C2*%
X188417200Y-152628600D03*
X201344200Y-150088600D03*
D20*
X189179200Y-147548600D03*
X199339200Y-147548600D03*
D21*
X194259200Y-147548600D03*
D22*
X191719200Y-152628600D03*
X198069200Y-150088600D03*
%TD*%
D19*
%TO.C,K5\u002C1*%
X178384200Y-133388100D03*
X191311200Y-130848100D03*
D20*
X179146200Y-128308100D03*
X189306200Y-128308100D03*
D21*
X184226200Y-128308100D03*
D22*
X181686200Y-133388100D03*
X188036200Y-130848100D03*
%TD*%
D19*
%TO.C,K5\u002C3*%
X193306700Y-172059600D03*
X206233700Y-169519600D03*
D20*
X194068700Y-166979600D03*
X204228700Y-166979600D03*
D21*
X199148700Y-166979600D03*
D22*
X196608700Y-172059600D03*
X202958700Y-169519600D03*
%TD*%
D19*
%TO.C,K5\u002C4*%
X202704700Y-191871600D03*
X215631700Y-189331600D03*
D20*
X203466700Y-186791600D03*
X213626700Y-186791600D03*
D21*
X208546700Y-186791600D03*
D22*
X206006700Y-191871600D03*
X212356700Y-189331600D03*
%TD*%
D19*
%TO.C,K6\u002C3*%
X212610700Y-172059600D03*
X225537700Y-169519600D03*
D20*
X213372700Y-166979600D03*
X223532700Y-166979600D03*
D21*
X218452700Y-166979600D03*
D22*
X215912700Y-172059600D03*
X222262700Y-169519600D03*
%TD*%
D19*
%TO.C,K6\u002C4*%
X222008700Y-191871600D03*
X234935700Y-189331600D03*
D20*
X222770700Y-186791600D03*
X232930700Y-186791600D03*
D21*
X227850700Y-186791600D03*
D22*
X225310700Y-191871600D03*
X231660700Y-189331600D03*
%TD*%
D19*
%TO.C,K6\u002C1*%
X197688200Y-133388100D03*
X210615200Y-130848100D03*
D20*
X198450200Y-128308100D03*
X208610200Y-128308100D03*
D21*
X203530200Y-128308100D03*
D22*
X200990200Y-133388100D03*
X207340200Y-130848100D03*
%TD*%
D19*
%TO.C,K6\u002C2*%
X207721200Y-152628600D03*
X220648200Y-150088600D03*
D20*
X208483200Y-147548600D03*
X218643200Y-147548600D03*
D21*
X213563200Y-147548600D03*
D22*
X211023200Y-152628600D03*
X217373200Y-150088600D03*
%TD*%
D19*
%TO.C,K6\u002C0*%
X229676960Y-107607100D03*
X242603960Y-105067100D03*
D20*
X230438960Y-102527100D03*
X240598960Y-102527100D03*
D21*
X235518960Y-102527100D03*
D22*
X232978960Y-107607100D03*
X239328960Y-105067100D03*
%TD*%
D19*
%TO.C,K7\u002C2*%
X227025200Y-152628600D03*
X239952200Y-150088600D03*
D20*
X227787200Y-147548600D03*
X237947200Y-147548600D03*
D21*
X232867200Y-147548600D03*
D22*
X230327200Y-152628600D03*
X236677200Y-150088600D03*
%TD*%
D19*
%TO.C,K7\u002C1*%
X216992200Y-133388100D03*
X229919200Y-130848100D03*
D20*
X217754200Y-128308100D03*
X227914200Y-128308100D03*
D21*
X222834200Y-128308100D03*
D22*
X220294200Y-133388100D03*
X226644200Y-130848100D03*
%TD*%
D19*
%TO.C,K7\u002C3*%
X231914700Y-172059600D03*
X244841700Y-169519600D03*
D20*
X232676700Y-166979600D03*
X242836700Y-166979600D03*
D21*
X237756700Y-166979600D03*
D22*
X235216700Y-172059600D03*
X241566700Y-169519600D03*
%TD*%
D19*
%TO.C,K7\u002C4*%
X241312700Y-191871600D03*
X254239700Y-189331600D03*
D20*
X242074700Y-186791600D03*
X252234700Y-186791600D03*
D21*
X247154700Y-186791600D03*
D22*
X244614700Y-191871600D03*
X250964700Y-189331600D03*
%TD*%
D19*
%TO.C,K7\u002C0*%
X248980960Y-107607100D03*
X261907960Y-105067100D03*
D20*
X249742960Y-102527100D03*
X259902960Y-102527100D03*
D21*
X254822960Y-102527100D03*
D22*
X252282960Y-107607100D03*
X258632960Y-105067100D03*
%TD*%
D19*
%TO.C,K8\u002C1*%
X236296200Y-133388100D03*
X249223200Y-130848100D03*
D20*
X237058200Y-128308100D03*
X247218200Y-128308100D03*
D21*
X242138200Y-128308100D03*
D22*
X239598200Y-133388100D03*
X245948200Y-130848100D03*
%TD*%
D19*
%TO.C,K8\u002C3*%
X251218700Y-172059600D03*
X264145700Y-169519600D03*
D20*
X251980700Y-166979600D03*
X262140700Y-166979600D03*
D21*
X257060700Y-166979600D03*
D22*
X254520700Y-172059600D03*
X260870700Y-169519600D03*
%TD*%
D19*
%TO.C,K8\u002C4*%
X260616700Y-191871600D03*
X273543700Y-189331600D03*
D20*
X261378700Y-186791600D03*
X271538700Y-186791600D03*
D21*
X266458700Y-186791600D03*
D22*
X263918700Y-191871600D03*
X270268700Y-189331600D03*
%TD*%
D19*
%TO.C,K8\u002C5*%
X277545800Y-211302600D03*
X290472800Y-208762600D03*
D20*
X278307800Y-206222600D03*
X288467800Y-206222600D03*
D21*
X283387800Y-206222600D03*
D22*
X280847800Y-211302600D03*
X287197800Y-208762600D03*
%TD*%
D19*
%TO.C,K8\u002C2*%
X246329200Y-152628600D03*
X259256200Y-150088600D03*
D20*
X247091200Y-147548600D03*
X257251200Y-147548600D03*
D21*
X252171200Y-147548600D03*
D22*
X249631200Y-152628600D03*
X255981200Y-150088600D03*
%TD*%
D19*
%TO.C,K9\u002C0*%
X294700960Y-107607100D03*
X307627960Y-105067100D03*
D20*
X295462960Y-102527100D03*
X305622960Y-102527100D03*
D21*
X300542960Y-102527100D03*
D22*
X298002960Y-107607100D03*
X304352960Y-105067100D03*
%TD*%
D19*
%TO.C,K9\u002C5*%
X301701200Y-211302600D03*
X314628200Y-208762600D03*
D20*
X302463200Y-206222600D03*
X312623200Y-206222600D03*
D21*
X307543200Y-206222600D03*
D22*
X305003200Y-211302600D03*
X311353200Y-208762600D03*
%TD*%
D19*
%TO.C,K9\u002C1*%
X255600200Y-133388100D03*
X268527200Y-130848100D03*
D20*
X256362200Y-128308100D03*
X266522200Y-128308100D03*
D21*
X261442200Y-128308100D03*
D22*
X258902200Y-133388100D03*
X265252200Y-130848100D03*
%TD*%
D19*
%TO.C,K9\u002C2*%
X265633200Y-152628600D03*
X278560200Y-150088600D03*
D20*
X266395200Y-147548600D03*
X276555200Y-147548600D03*
D21*
X271475200Y-147548600D03*
D22*
X268935200Y-152628600D03*
X275285200Y-150088600D03*
%TD*%
D19*
%TO.C,K9\u002C4*%
X279920700Y-191871600D03*
X292847700Y-189331600D03*
D20*
X280682700Y-186791600D03*
X290842700Y-186791600D03*
D21*
X285762700Y-186791600D03*
D22*
X283222700Y-191871600D03*
X289572700Y-189331600D03*
%TD*%
D19*
%TO.C,K9\u002C3*%
X270522700Y-172059600D03*
X283449700Y-169519600D03*
D20*
X271284700Y-166979600D03*
X281444700Y-166979600D03*
D21*
X276364700Y-166979600D03*
D22*
X273824700Y-172059600D03*
X280174700Y-169519600D03*
%TD*%
D19*
%TO.C,K10\u002C2*%
X284937200Y-152628600D03*
X297864200Y-150088600D03*
D20*
X285699200Y-147548600D03*
X295859200Y-147548600D03*
D21*
X290779200Y-147548600D03*
D22*
X288239200Y-152628600D03*
X294589200Y-150088600D03*
%TD*%
D19*
%TO.C,K10\u002C0*%
X314004960Y-107607100D03*
X326931960Y-105067100D03*
D20*
X314766960Y-102527100D03*
X324926960Y-102527100D03*
D21*
X319846960Y-102527100D03*
D22*
X317306960Y-107607100D03*
X323656960Y-105067100D03*
%TD*%
D19*
%TO.C,K10\u002C5*%
X325894700Y-211302600D03*
X338821700Y-208762600D03*
D20*
X326656700Y-206222600D03*
X336816700Y-206222600D03*
D21*
X331736700Y-206222600D03*
D22*
X329196700Y-211302600D03*
X335546700Y-208762600D03*
%TD*%
D19*
%TO.C,K10\u002C1*%
X274904200Y-133388100D03*
X287831200Y-130848100D03*
D20*
X275666200Y-128308100D03*
X285826200Y-128308100D03*
D21*
X280746200Y-128308100D03*
D22*
X278206200Y-133388100D03*
X284556200Y-130848100D03*
%TD*%
D19*
%TO.C,K10\u002C4*%
X299224700Y-191871600D03*
X312151700Y-189331600D03*
D20*
X299986700Y-186791600D03*
X310146700Y-186791600D03*
D21*
X305066700Y-186791600D03*
D22*
X302526700Y-191871600D03*
X308876700Y-189331600D03*
%TD*%
D19*
%TO.C,K11\u002C3*%
X309130700Y-172059600D03*
X322057700Y-169519600D03*
D20*
X309892700Y-166979600D03*
X320052700Y-166979600D03*
D21*
X314972700Y-166979600D03*
D22*
X312432700Y-172059600D03*
X318782700Y-169519600D03*
%TD*%
D19*
%TO.C,K11\u002C2*%
X304241200Y-152628600D03*
X317168200Y-150088600D03*
D20*
X305003200Y-147548600D03*
X315163200Y-147548600D03*
D21*
X310083200Y-147548600D03*
D22*
X307543200Y-152628600D03*
X313893200Y-150088600D03*
%TD*%
D19*
%TO.C,K11\u002C5*%
X349961200Y-211302600D03*
X362888200Y-208762600D03*
D20*
X350723200Y-206222600D03*
X360883200Y-206222600D03*
D21*
X355803200Y-206222600D03*
D22*
X353263200Y-211302600D03*
X359613200Y-208762600D03*
%TD*%
D19*
%TO.C,K11\u002C1*%
X294208200Y-133388100D03*
X307135200Y-130848100D03*
D20*
X294970200Y-128308100D03*
X305130200Y-128308100D03*
D21*
X300050200Y-128308100D03*
D22*
X297510200Y-133388100D03*
X303860200Y-130848100D03*
%TD*%
D19*
%TO.C,K11\u002C0*%
X333308960Y-107607100D03*
X346235960Y-105067100D03*
D20*
X334070960Y-102527100D03*
X344230960Y-102527100D03*
D21*
X339150960Y-102527100D03*
D22*
X336610960Y-107607100D03*
X342960960Y-105067100D03*
%TD*%
D19*
%TO.C,K12\u002C2*%
X323545200Y-152628600D03*
X336472200Y-150088600D03*
D20*
X324307200Y-147548600D03*
X334467200Y-147548600D03*
D21*
X329387200Y-147548600D03*
D22*
X326847200Y-152628600D03*
X333197200Y-150088600D03*
%TD*%
D19*
%TO.C,K12\u002C0*%
X352612960Y-107607100D03*
X365539960Y-105067100D03*
D20*
X353374960Y-102527100D03*
X363534960Y-102527100D03*
D21*
X358454960Y-102527100D03*
D22*
X355914960Y-107607100D03*
X362264960Y-105067100D03*
%TD*%
D19*
%TO.C,K12\u002C1*%
X313512200Y-133388100D03*
X326439200Y-130848100D03*
D20*
X314274200Y-128308100D03*
X324434200Y-128308100D03*
D21*
X319354200Y-128308100D03*
D22*
X316814200Y-133388100D03*
X323164200Y-130848100D03*
%TD*%
D19*
%TO.C,K13\u002C2*%
X347484700Y-152641300D03*
X360411700Y-150101300D03*
D20*
X348246700Y-147561300D03*
X358406700Y-147561300D03*
D21*
X353326700Y-147561300D03*
D22*
X350786700Y-152641300D03*
X357136700Y-150101300D03*
%TD*%
D19*
%TO.C,K14\u002C6*%
X375069100Y-211175600D03*
X387996100Y-208635600D03*
D20*
X375831100Y-206095600D03*
X385991100Y-206095600D03*
D21*
X380911100Y-206095600D03*
D22*
X378371100Y-211175600D03*
X384721100Y-208635600D03*
%TD*%
D19*
%TO.C,K14\u002C3*%
X375132600Y-152628600D03*
X388059600Y-150088600D03*
D20*
X375894600Y-147548600D03*
X386054600Y-147548600D03*
D21*
X380974600Y-147548600D03*
D22*
X378434600Y-152628600D03*
X384784600Y-150088600D03*
%TD*%
D19*
%TO.C,K14\u002C0*%
X375183400Y-107607100D03*
X388110400Y-105067100D03*
D20*
X375945400Y-102527100D03*
X386105400Y-102527100D03*
D21*
X381025400Y-102527100D03*
D22*
X378485400Y-107607100D03*
X384835400Y-105067100D03*
%TD*%
D19*
%TO.C,K15\u002C6*%
X394373100Y-211175600D03*
X407300100Y-208635600D03*
D20*
X395135100Y-206095600D03*
X405295100Y-206095600D03*
D21*
X400215100Y-206095600D03*
D22*
X397675100Y-211175600D03*
X404025100Y-208635600D03*
%TD*%
D19*
%TO.C,K15\u002C3*%
X394436600Y-152628600D03*
X407363600Y-150088600D03*
D20*
X395198600Y-147548600D03*
X405358600Y-147548600D03*
D21*
X400278600Y-147548600D03*
D22*
X397738600Y-152628600D03*
X404088600Y-150088600D03*
%TD*%
D19*
%TO.C,K15\u002C5*%
X394373100Y-191871600D03*
X407300100Y-189331600D03*
D20*
X395135100Y-186791600D03*
X405295100Y-186791600D03*
D21*
X400215100Y-186791600D03*
D22*
X397675100Y-191871600D03*
X404025100Y-189331600D03*
%TD*%
D19*
%TO.C,K15\u002C1*%
X394436600Y-133388100D03*
X407363600Y-130848100D03*
D20*
X395198600Y-128308100D03*
X405358600Y-128308100D03*
D21*
X400278600Y-128308100D03*
D22*
X397738600Y-133388100D03*
X404088600Y-130848100D03*
%TD*%
D19*
%TO.C,K15\u002C0*%
X394741400Y-107607100D03*
X407668400Y-105067100D03*
D20*
X395503400Y-102527100D03*
X405663400Y-102527100D03*
D21*
X400583400Y-102527100D03*
D22*
X398043400Y-107607100D03*
X404393400Y-105067100D03*
%TD*%
D19*
%TO.C,K16\u002C4*%
X437616600Y-172059600D03*
X450543600Y-169519600D03*
D20*
X438378600Y-166979600D03*
X448538600Y-166979600D03*
D21*
X443458600Y-166979600D03*
D22*
X440918600Y-172059600D03*
X447268600Y-169519600D03*
%TD*%
D19*
%TO.C,K16\u002C5*%
X437616600Y-191363600D03*
X450543600Y-188823600D03*
D20*
X438378600Y-186283600D03*
X448538600Y-186283600D03*
D21*
X443458600Y-186283600D03*
D22*
X440918600Y-191363600D03*
X447268600Y-188823600D03*
%TD*%
D19*
%TO.C,K16\u002C3*%
X413740600Y-152628600D03*
X426667600Y-150088600D03*
D20*
X414502600Y-147548600D03*
X424662600Y-147548600D03*
D21*
X419582600Y-147548600D03*
D22*
X417042600Y-152628600D03*
X423392600Y-150088600D03*
%TD*%
D19*
%TO.C,K16\u002C0*%
X414045400Y-107607100D03*
X426972400Y-105067100D03*
D20*
X414807400Y-102527100D03*
X424967400Y-102527100D03*
D21*
X419887400Y-102527100D03*
D22*
X417347400Y-107607100D03*
X423697400Y-105067100D03*
%TD*%
D19*
%TO.C,K16\u002C6*%
X413677100Y-211175600D03*
X426604100Y-208635600D03*
D20*
X414439100Y-206095600D03*
X424599100Y-206095600D03*
D21*
X419519100Y-206095600D03*
D22*
X416979100Y-211175600D03*
X423329100Y-208635600D03*
%TD*%
D19*
%TO.C,K17\u002C6*%
X447141600Y-210667600D03*
X460068600Y-208127600D03*
D20*
X447903600Y-205587600D03*
X458063600Y-205587600D03*
D21*
X452983600Y-205587600D03*
D22*
X450443600Y-210667600D03*
X456793600Y-208127600D03*
%TD*%
D19*
%TO.C,K17\u002C5*%
X456920600Y-191363600D03*
X469847600Y-188823600D03*
D20*
X457682600Y-186283600D03*
X467842600Y-186283600D03*
D21*
X462762600Y-186283600D03*
D22*
X460222600Y-191363600D03*
X466572600Y-188823600D03*
%TD*%
D19*
%TO.C,K17\u002C4*%
X456920600Y-172059600D03*
X469847600Y-169519600D03*
D20*
X457682600Y-166979600D03*
X467842600Y-166979600D03*
D21*
X462762600Y-166979600D03*
D22*
X460222600Y-172059600D03*
X466572600Y-169519600D03*
%TD*%
D19*
%TO.C,K17\u002C3*%
X437616600Y-152755600D03*
X450543600Y-150215600D03*
D20*
X438378600Y-147675600D03*
X448538600Y-147675600D03*
D21*
X443458600Y-147675600D03*
D22*
X440918600Y-152755600D03*
X447268600Y-150215600D03*
%TD*%
D19*
%TO.C,K17\u002C1*%
X437616600Y-133388100D03*
X450543600Y-130848100D03*
D20*
X438378600Y-128308100D03*
X448538600Y-128308100D03*
D21*
X443458600Y-128308100D03*
D22*
X440918600Y-133388100D03*
X447268600Y-130848100D03*
%TD*%
D19*
%TO.C,K17\u002C0*%
X437553100Y-107607100D03*
X450480100Y-105067100D03*
D20*
X438315100Y-102527100D03*
X448475100Y-102527100D03*
D21*
X443395100Y-102527100D03*
D22*
X440855100Y-107607100D03*
X447205100Y-105067100D03*
%TD*%
D19*
%TO.C,K18\u002C6*%
X476224600Y-210667600D03*
X489151600Y-208127600D03*
D20*
X476986600Y-205587600D03*
X487146600Y-205587600D03*
D21*
X482066600Y-205587600D03*
D22*
X479526600Y-210667600D03*
X485876600Y-208127600D03*
%TD*%
D19*
%TO.C,K18\u002C3*%
X456920600Y-152755600D03*
X469847600Y-150215600D03*
D20*
X457682600Y-147675600D03*
X467842600Y-147675600D03*
D21*
X462762600Y-147675600D03*
D22*
X460222600Y-152755600D03*
X466572600Y-150215600D03*
%TD*%
D19*
%TO.C,K18\u002C1*%
X456920600Y-133388100D03*
X469847600Y-130848100D03*
D20*
X457682600Y-128308100D03*
X467842600Y-128308100D03*
D21*
X462762600Y-128308100D03*
D22*
X460222600Y-133388100D03*
X466572600Y-130848100D03*
%TD*%
D19*
%TO.C,K18\u002C5*%
X476224600Y-191363600D03*
X489151600Y-188823600D03*
D20*
X476986600Y-186283600D03*
X487146600Y-186283600D03*
D21*
X482066600Y-186283600D03*
D22*
X479526600Y-191363600D03*
X485876600Y-188823600D03*
%TD*%
D19*
%TO.C,K18\u002C0*%
X456857100Y-107607100D03*
X469784100Y-105067100D03*
D20*
X457619100Y-102527100D03*
X467779100Y-102527100D03*
D21*
X462699100Y-102527100D03*
D22*
X460159100Y-107607100D03*
X466509100Y-105067100D03*
%TD*%
D19*
%TO.C,K19\u002C6*%
X495528600Y-201015600D03*
X508455600Y-198475600D03*
D20*
X496290600Y-195935600D03*
X506450600Y-195935600D03*
D21*
X501370600Y-195935600D03*
D22*
X498830600Y-201015600D03*
X505180600Y-198475600D03*
%TD*%
D19*
%TO.C,K19\u002C0*%
X476161100Y-107607100D03*
X489088100Y-105067100D03*
D20*
X476923100Y-102527100D03*
X487083100Y-102527100D03*
D21*
X482003100Y-102527100D03*
D22*
X479463100Y-107607100D03*
X485813100Y-105067100D03*
%TD*%
D19*
%TO.C,K19\u002C3*%
X476224600Y-152755600D03*
X489151600Y-150215600D03*
D20*
X476986600Y-147675600D03*
X487146600Y-147675600D03*
D21*
X482066600Y-147675600D03*
D22*
X479526600Y-152755600D03*
X485876600Y-150215600D03*
%TD*%
D19*
%TO.C,K19\u002C1*%
X476224600Y-133388100D03*
X489151600Y-130848100D03*
D20*
X476986600Y-128308100D03*
X487146600Y-128308100D03*
D21*
X482066600Y-128308100D03*
D22*
X479526600Y-133388100D03*
X485876600Y-130848100D03*
%TD*%
D19*
%TO.C,K20\u002C0*%
X495465100Y-107607100D03*
X508392100Y-105067100D03*
D20*
X496227100Y-102527100D03*
X506387100Y-102527100D03*
D21*
X501307100Y-102527100D03*
D22*
X498767100Y-107607100D03*
X505117100Y-105067100D03*
%TD*%
D19*
%TO.C,K20\u002C1*%
X495528600Y-133388100D03*
X508455600Y-130848100D03*
D20*
X496290600Y-128308100D03*
X506450600Y-128308100D03*
D21*
X501370600Y-128308100D03*
D22*
X498830600Y-133388100D03*
X505180600Y-130848100D03*
%TD*%
%TO.C,U1*%
G36*
G01*
X103766200Y-103863000D02*
X103766200Y-104163000D01*
G75*
G02*
X103616200Y-104313000I-150000J0D01*
G01*
X101866200Y-104313000D01*
G75*
G02*
X101716200Y-104163000I0J150000D01*
G01*
X101716200Y-103863000D01*
G75*
G02*
X101866200Y-103713000I150000J0D01*
G01*
X103616200Y-103713000D01*
G75*
G02*
X103766200Y-103863000I0J-150000D01*
G01*
G37*
G36*
G01*
X103766200Y-105133000D02*
X103766200Y-105433000D01*
G75*
G02*
X103616200Y-105583000I-150000J0D01*
G01*
X101866200Y-105583000D01*
G75*
G02*
X101716200Y-105433000I0J150000D01*
G01*
X101716200Y-105133000D01*
G75*
G02*
X101866200Y-104983000I150000J0D01*
G01*
X103616200Y-104983000D01*
G75*
G02*
X103766200Y-105133000I0J-150000D01*
G01*
G37*
G36*
G01*
X103766200Y-106403000D02*
X103766200Y-106703000D01*
G75*
G02*
X103616200Y-106853000I-150000J0D01*
G01*
X101866200Y-106853000D01*
G75*
G02*
X101716200Y-106703000I0J150000D01*
G01*
X101716200Y-106403000D01*
G75*
G02*
X101866200Y-106253000I150000J0D01*
G01*
X103616200Y-106253000D01*
G75*
G02*
X103766200Y-106403000I0J-150000D01*
G01*
G37*
G36*
G01*
X103766200Y-107673000D02*
X103766200Y-107973000D01*
G75*
G02*
X103616200Y-108123000I-150000J0D01*
G01*
X101866200Y-108123000D01*
G75*
G02*
X101716200Y-107973000I0J150000D01*
G01*
X101716200Y-107673000D01*
G75*
G02*
X101866200Y-107523000I150000J0D01*
G01*
X103616200Y-107523000D01*
G75*
G02*
X103766200Y-107673000I0J-150000D01*
G01*
G37*
G36*
G01*
X103766200Y-108943000D02*
X103766200Y-109243000D01*
G75*
G02*
X103616200Y-109393000I-150000J0D01*
G01*
X101866200Y-109393000D01*
G75*
G02*
X101716200Y-109243000I0J150000D01*
G01*
X101716200Y-108943000D01*
G75*
G02*
X101866200Y-108793000I150000J0D01*
G01*
X103616200Y-108793000D01*
G75*
G02*
X103766200Y-108943000I0J-150000D01*
G01*
G37*
G36*
G01*
X103766200Y-110213000D02*
X103766200Y-110513000D01*
G75*
G02*
X103616200Y-110663000I-150000J0D01*
G01*
X101866200Y-110663000D01*
G75*
G02*
X101716200Y-110513000I0J150000D01*
G01*
X101716200Y-110213000D01*
G75*
G02*
X101866200Y-110063000I150000J0D01*
G01*
X103616200Y-110063000D01*
G75*
G02*
X103766200Y-110213000I0J-150000D01*
G01*
G37*
G36*
G01*
X103766200Y-111483000D02*
X103766200Y-111783000D01*
G75*
G02*
X103616200Y-111933000I-150000J0D01*
G01*
X101866200Y-111933000D01*
G75*
G02*
X101716200Y-111783000I0J150000D01*
G01*
X101716200Y-111483000D01*
G75*
G02*
X101866200Y-111333000I150000J0D01*
G01*
X103616200Y-111333000D01*
G75*
G02*
X103766200Y-111483000I0J-150000D01*
G01*
G37*
G36*
G01*
X103766200Y-112753000D02*
X103766200Y-113053000D01*
G75*
G02*
X103616200Y-113203000I-150000J0D01*
G01*
X101866200Y-113203000D01*
G75*
G02*
X101716200Y-113053000I0J150000D01*
G01*
X101716200Y-112753000D01*
G75*
G02*
X101866200Y-112603000I150000J0D01*
G01*
X103616200Y-112603000D01*
G75*
G02*
X103766200Y-112753000I0J-150000D01*
G01*
G37*
G36*
G01*
X103766200Y-114023000D02*
X103766200Y-114323000D01*
G75*
G02*
X103616200Y-114473000I-150000J0D01*
G01*
X101866200Y-114473000D01*
G75*
G02*
X101716200Y-114323000I0J150000D01*
G01*
X101716200Y-114023000D01*
G75*
G02*
X101866200Y-113873000I150000J0D01*
G01*
X103616200Y-113873000D01*
G75*
G02*
X103766200Y-114023000I0J-150000D01*
G01*
G37*
G36*
G01*
X103766200Y-115293000D02*
X103766200Y-115593000D01*
G75*
G02*
X103616200Y-115743000I-150000J0D01*
G01*
X101866200Y-115743000D01*
G75*
G02*
X101716200Y-115593000I0J150000D01*
G01*
X101716200Y-115293000D01*
G75*
G02*
X101866200Y-115143000I150000J0D01*
G01*
X103616200Y-115143000D01*
G75*
G02*
X103766200Y-115293000I0J-150000D01*
G01*
G37*
G36*
G01*
X103766200Y-116563000D02*
X103766200Y-116863000D01*
G75*
G02*
X103616200Y-117013000I-150000J0D01*
G01*
X101866200Y-117013000D01*
G75*
G02*
X101716200Y-116863000I0J150000D01*
G01*
X101716200Y-116563000D01*
G75*
G02*
X101866200Y-116413000I150000J0D01*
G01*
X103616200Y-116413000D01*
G75*
G02*
X103766200Y-116563000I0J-150000D01*
G01*
G37*
G36*
G01*
X103766200Y-117833000D02*
X103766200Y-118133000D01*
G75*
G02*
X103616200Y-118283000I-150000J0D01*
G01*
X101866200Y-118283000D01*
G75*
G02*
X101716200Y-118133000I0J150000D01*
G01*
X101716200Y-117833000D01*
G75*
G02*
X101866200Y-117683000I150000J0D01*
G01*
X103616200Y-117683000D01*
G75*
G02*
X103766200Y-117833000I0J-150000D01*
G01*
G37*
G36*
G01*
X103766200Y-119103000D02*
X103766200Y-119403000D01*
G75*
G02*
X103616200Y-119553000I-150000J0D01*
G01*
X101866200Y-119553000D01*
G75*
G02*
X101716200Y-119403000I0J150000D01*
G01*
X101716200Y-119103000D01*
G75*
G02*
X101866200Y-118953000I150000J0D01*
G01*
X103616200Y-118953000D01*
G75*
G02*
X103766200Y-119103000I0J-150000D01*
G01*
G37*
G36*
G01*
X103766200Y-120373000D02*
X103766200Y-120673000D01*
G75*
G02*
X103616200Y-120823000I-150000J0D01*
G01*
X101866200Y-120823000D01*
G75*
G02*
X101716200Y-120673000I0J150000D01*
G01*
X101716200Y-120373000D01*
G75*
G02*
X101866200Y-120223000I150000J0D01*
G01*
X103616200Y-120223000D01*
G75*
G02*
X103766200Y-120373000I0J-150000D01*
G01*
G37*
G36*
G01*
X113066200Y-120373000D02*
X113066200Y-120673000D01*
G75*
G02*
X112916200Y-120823000I-150000J0D01*
G01*
X111166200Y-120823000D01*
G75*
G02*
X111016200Y-120673000I0J150000D01*
G01*
X111016200Y-120373000D01*
G75*
G02*
X111166200Y-120223000I150000J0D01*
G01*
X112916200Y-120223000D01*
G75*
G02*
X113066200Y-120373000I0J-150000D01*
G01*
G37*
G36*
G01*
X113066200Y-119103000D02*
X113066200Y-119403000D01*
G75*
G02*
X112916200Y-119553000I-150000J0D01*
G01*
X111166200Y-119553000D01*
G75*
G02*
X111016200Y-119403000I0J150000D01*
G01*
X111016200Y-119103000D01*
G75*
G02*
X111166200Y-118953000I150000J0D01*
G01*
X112916200Y-118953000D01*
G75*
G02*
X113066200Y-119103000I0J-150000D01*
G01*
G37*
G36*
G01*
X113066200Y-117833000D02*
X113066200Y-118133000D01*
G75*
G02*
X112916200Y-118283000I-150000J0D01*
G01*
X111166200Y-118283000D01*
G75*
G02*
X111016200Y-118133000I0J150000D01*
G01*
X111016200Y-117833000D01*
G75*
G02*
X111166200Y-117683000I150000J0D01*
G01*
X112916200Y-117683000D01*
G75*
G02*
X113066200Y-117833000I0J-150000D01*
G01*
G37*
G36*
G01*
X113066200Y-116563000D02*
X113066200Y-116863000D01*
G75*
G02*
X112916200Y-117013000I-150000J0D01*
G01*
X111166200Y-117013000D01*
G75*
G02*
X111016200Y-116863000I0J150000D01*
G01*
X111016200Y-116563000D01*
G75*
G02*
X111166200Y-116413000I150000J0D01*
G01*
X112916200Y-116413000D01*
G75*
G02*
X113066200Y-116563000I0J-150000D01*
G01*
G37*
G36*
G01*
X113066200Y-115293000D02*
X113066200Y-115593000D01*
G75*
G02*
X112916200Y-115743000I-150000J0D01*
G01*
X111166200Y-115743000D01*
G75*
G02*
X111016200Y-115593000I0J150000D01*
G01*
X111016200Y-115293000D01*
G75*
G02*
X111166200Y-115143000I150000J0D01*
G01*
X112916200Y-115143000D01*
G75*
G02*
X113066200Y-115293000I0J-150000D01*
G01*
G37*
G36*
G01*
X113066200Y-114023000D02*
X113066200Y-114323000D01*
G75*
G02*
X112916200Y-114473000I-150000J0D01*
G01*
X111166200Y-114473000D01*
G75*
G02*
X111016200Y-114323000I0J150000D01*
G01*
X111016200Y-114023000D01*
G75*
G02*
X111166200Y-113873000I150000J0D01*
G01*
X112916200Y-113873000D01*
G75*
G02*
X113066200Y-114023000I0J-150000D01*
G01*
G37*
G36*
G01*
X113066200Y-112753000D02*
X113066200Y-113053000D01*
G75*
G02*
X112916200Y-113203000I-150000J0D01*
G01*
X111166200Y-113203000D01*
G75*
G02*
X111016200Y-113053000I0J150000D01*
G01*
X111016200Y-112753000D01*
G75*
G02*
X111166200Y-112603000I150000J0D01*
G01*
X112916200Y-112603000D01*
G75*
G02*
X113066200Y-112753000I0J-150000D01*
G01*
G37*
G36*
G01*
X113066200Y-111483000D02*
X113066200Y-111783000D01*
G75*
G02*
X112916200Y-111933000I-150000J0D01*
G01*
X111166200Y-111933000D01*
G75*
G02*
X111016200Y-111783000I0J150000D01*
G01*
X111016200Y-111483000D01*
G75*
G02*
X111166200Y-111333000I150000J0D01*
G01*
X112916200Y-111333000D01*
G75*
G02*
X113066200Y-111483000I0J-150000D01*
G01*
G37*
G36*
G01*
X113066200Y-110213000D02*
X113066200Y-110513000D01*
G75*
G02*
X112916200Y-110663000I-150000J0D01*
G01*
X111166200Y-110663000D01*
G75*
G02*
X111016200Y-110513000I0J150000D01*
G01*
X111016200Y-110213000D01*
G75*
G02*
X111166200Y-110063000I150000J0D01*
G01*
X112916200Y-110063000D01*
G75*
G02*
X113066200Y-110213000I0J-150000D01*
G01*
G37*
G36*
G01*
X113066200Y-108943000D02*
X113066200Y-109243000D01*
G75*
G02*
X112916200Y-109393000I-150000J0D01*
G01*
X111166200Y-109393000D01*
G75*
G02*
X111016200Y-109243000I0J150000D01*
G01*
X111016200Y-108943000D01*
G75*
G02*
X111166200Y-108793000I150000J0D01*
G01*
X112916200Y-108793000D01*
G75*
G02*
X113066200Y-108943000I0J-150000D01*
G01*
G37*
G36*
G01*
X113066200Y-107673000D02*
X113066200Y-107973000D01*
G75*
G02*
X112916200Y-108123000I-150000J0D01*
G01*
X111166200Y-108123000D01*
G75*
G02*
X111016200Y-107973000I0J150000D01*
G01*
X111016200Y-107673000D01*
G75*
G02*
X111166200Y-107523000I150000J0D01*
G01*
X112916200Y-107523000D01*
G75*
G02*
X113066200Y-107673000I0J-150000D01*
G01*
G37*
G36*
G01*
X113066200Y-106403000D02*
X113066200Y-106703000D01*
G75*
G02*
X112916200Y-106853000I-150000J0D01*
G01*
X111166200Y-106853000D01*
G75*
G02*
X111016200Y-106703000I0J150000D01*
G01*
X111016200Y-106403000D01*
G75*
G02*
X111166200Y-106253000I150000J0D01*
G01*
X112916200Y-106253000D01*
G75*
G02*
X113066200Y-106403000I0J-150000D01*
G01*
G37*
G36*
G01*
X113066200Y-105133000D02*
X113066200Y-105433000D01*
G75*
G02*
X112916200Y-105583000I-150000J0D01*
G01*
X111166200Y-105583000D01*
G75*
G02*
X111016200Y-105433000I0J150000D01*
G01*
X111016200Y-105133000D01*
G75*
G02*
X111166200Y-104983000I150000J0D01*
G01*
X112916200Y-104983000D01*
G75*
G02*
X113066200Y-105133000I0J-150000D01*
G01*
G37*
G36*
G01*
X113066200Y-103863000D02*
X113066200Y-104163000D01*
G75*
G02*
X112916200Y-104313000I-150000J0D01*
G01*
X111166200Y-104313000D01*
G75*
G02*
X111016200Y-104163000I0J150000D01*
G01*
X111016200Y-103863000D01*
G75*
G02*
X111166200Y-103713000I150000J0D01*
G01*
X112916200Y-103713000D01*
G75*
G02*
X113066200Y-103863000I0J-150000D01*
G01*
G37*
%TD*%
%TO.C,U11*%
G36*
G01*
X440819400Y-85612100D02*
X441119400Y-85612100D01*
G75*
G02*
X441269400Y-85762100I0J-150000D01*
G01*
X441269400Y-87412100D01*
G75*
G02*
X441119400Y-87562100I-150000J0D01*
G01*
X440819400Y-87562100D01*
G75*
G02*
X440669400Y-87412100I0J150000D01*
G01*
X440669400Y-85762100D01*
G75*
G02*
X440819400Y-85612100I150000J0D01*
G01*
G37*
G36*
G01*
X442089400Y-85612100D02*
X442389400Y-85612100D01*
G75*
G02*
X442539400Y-85762100I0J-150000D01*
G01*
X442539400Y-87412100D01*
G75*
G02*
X442389400Y-87562100I-150000J0D01*
G01*
X442089400Y-87562100D01*
G75*
G02*
X441939400Y-87412100I0J150000D01*
G01*
X441939400Y-85762100D01*
G75*
G02*
X442089400Y-85612100I150000J0D01*
G01*
G37*
G36*
G01*
X443359400Y-85612100D02*
X443659400Y-85612100D01*
G75*
G02*
X443809400Y-85762100I0J-150000D01*
G01*
X443809400Y-87412100D01*
G75*
G02*
X443659400Y-87562100I-150000J0D01*
G01*
X443359400Y-87562100D01*
G75*
G02*
X443209400Y-87412100I0J150000D01*
G01*
X443209400Y-85762100D01*
G75*
G02*
X443359400Y-85612100I150000J0D01*
G01*
G37*
G36*
G01*
X444629400Y-85612100D02*
X444929400Y-85612100D01*
G75*
G02*
X445079400Y-85762100I0J-150000D01*
G01*
X445079400Y-87412100D01*
G75*
G02*
X444929400Y-87562100I-150000J0D01*
G01*
X444629400Y-87562100D01*
G75*
G02*
X444479400Y-87412100I0J150000D01*
G01*
X444479400Y-85762100D01*
G75*
G02*
X444629400Y-85612100I150000J0D01*
G01*
G37*
G36*
G01*
X445899400Y-85612100D02*
X446199400Y-85612100D01*
G75*
G02*
X446349400Y-85762100I0J-150000D01*
G01*
X446349400Y-87412100D01*
G75*
G02*
X446199400Y-87562100I-150000J0D01*
G01*
X445899400Y-87562100D01*
G75*
G02*
X445749400Y-87412100I0J150000D01*
G01*
X445749400Y-85762100D01*
G75*
G02*
X445899400Y-85612100I150000J0D01*
G01*
G37*
G36*
G01*
X447169400Y-85612100D02*
X447469400Y-85612100D01*
G75*
G02*
X447619400Y-85762100I0J-150000D01*
G01*
X447619400Y-87412100D01*
G75*
G02*
X447469400Y-87562100I-150000J0D01*
G01*
X447169400Y-87562100D01*
G75*
G02*
X447019400Y-87412100I0J150000D01*
G01*
X447019400Y-85762100D01*
G75*
G02*
X447169400Y-85612100I150000J0D01*
G01*
G37*
G36*
G01*
X448439400Y-85612100D02*
X448739400Y-85612100D01*
G75*
G02*
X448889400Y-85762100I0J-150000D01*
G01*
X448889400Y-87412100D01*
G75*
G02*
X448739400Y-87562100I-150000J0D01*
G01*
X448439400Y-87562100D01*
G75*
G02*
X448289400Y-87412100I0J150000D01*
G01*
X448289400Y-85762100D01*
G75*
G02*
X448439400Y-85612100I150000J0D01*
G01*
G37*
G36*
G01*
X448439400Y-80662100D02*
X448739400Y-80662100D01*
G75*
G02*
X448889400Y-80812100I0J-150000D01*
G01*
X448889400Y-82462100D01*
G75*
G02*
X448739400Y-82612100I-150000J0D01*
G01*
X448439400Y-82612100D01*
G75*
G02*
X448289400Y-82462100I0J150000D01*
G01*
X448289400Y-80812100D01*
G75*
G02*
X448439400Y-80662100I150000J0D01*
G01*
G37*
G36*
G01*
X447169400Y-80662100D02*
X447469400Y-80662100D01*
G75*
G02*
X447619400Y-80812100I0J-150000D01*
G01*
X447619400Y-82462100D01*
G75*
G02*
X447469400Y-82612100I-150000J0D01*
G01*
X447169400Y-82612100D01*
G75*
G02*
X447019400Y-82462100I0J150000D01*
G01*
X447019400Y-80812100D01*
G75*
G02*
X447169400Y-80662100I150000J0D01*
G01*
G37*
G36*
G01*
X445899400Y-80662100D02*
X446199400Y-80662100D01*
G75*
G02*
X446349400Y-80812100I0J-150000D01*
G01*
X446349400Y-82462100D01*
G75*
G02*
X446199400Y-82612100I-150000J0D01*
G01*
X445899400Y-82612100D01*
G75*
G02*
X445749400Y-82462100I0J150000D01*
G01*
X445749400Y-80812100D01*
G75*
G02*
X445899400Y-80662100I150000J0D01*
G01*
G37*
G36*
G01*
X444629400Y-80662100D02*
X444929400Y-80662100D01*
G75*
G02*
X445079400Y-80812100I0J-150000D01*
G01*
X445079400Y-82462100D01*
G75*
G02*
X444929400Y-82612100I-150000J0D01*
G01*
X444629400Y-82612100D01*
G75*
G02*
X444479400Y-82462100I0J150000D01*
G01*
X444479400Y-80812100D01*
G75*
G02*
X444629400Y-80662100I150000J0D01*
G01*
G37*
G36*
G01*
X443359400Y-80662100D02*
X443659400Y-80662100D01*
G75*
G02*
X443809400Y-80812100I0J-150000D01*
G01*
X443809400Y-82462100D01*
G75*
G02*
X443659400Y-82612100I-150000J0D01*
G01*
X443359400Y-82612100D01*
G75*
G02*
X443209400Y-82462100I0J150000D01*
G01*
X443209400Y-80812100D01*
G75*
G02*
X443359400Y-80662100I150000J0D01*
G01*
G37*
G36*
G01*
X442089400Y-80662100D02*
X442389400Y-80662100D01*
G75*
G02*
X442539400Y-80812100I0J-150000D01*
G01*
X442539400Y-82462100D01*
G75*
G02*
X442389400Y-82612100I-150000J0D01*
G01*
X442089400Y-82612100D01*
G75*
G02*
X441939400Y-82462100I0J150000D01*
G01*
X441939400Y-80812100D01*
G75*
G02*
X442089400Y-80662100I150000J0D01*
G01*
G37*
G36*
G01*
X440819400Y-80662100D02*
X441119400Y-80662100D01*
G75*
G02*
X441269400Y-80812100I0J-150000D01*
G01*
X441269400Y-82462100D01*
G75*
G02*
X441119400Y-82612100I-150000J0D01*
G01*
X440819400Y-82612100D01*
G75*
G02*
X440669400Y-82462100I0J150000D01*
G01*
X440669400Y-80812100D01*
G75*
G02*
X440819400Y-80662100I150000J0D01*
G01*
G37*
%TD*%
%TO.C,C4*%
G36*
G01*
X454004700Y-87408600D02*
X453054700Y-87408600D01*
G75*
G02*
X452804700Y-87158600I0J250000D01*
G01*
X452804700Y-86483600D01*
G75*
G02*
X453054700Y-86233600I250000J0D01*
G01*
X454004700Y-86233600D01*
G75*
G02*
X454254700Y-86483600I0J-250000D01*
G01*
X454254700Y-87158600D01*
G75*
G02*
X454004700Y-87408600I-250000J0D01*
G01*
G37*
G36*
G01*
X454004700Y-89483600D02*
X453054700Y-89483600D01*
G75*
G02*
X452804700Y-89233600I0J250000D01*
G01*
X452804700Y-88558600D01*
G75*
G02*
X453054700Y-88308600I250000J0D01*
G01*
X454004700Y-88308600D01*
G75*
G02*
X454254700Y-88558600I0J-250000D01*
G01*
X454254700Y-89233600D01*
G75*
G02*
X454004700Y-89483600I-250000J0D01*
G01*
G37*
%TD*%
%TO.C,C5*%
G36*
G01*
X438513200Y-86086100D02*
X439463200Y-86086100D01*
G75*
G02*
X439713200Y-86336100I0J-250000D01*
G01*
X439713200Y-87011100D01*
G75*
G02*
X439463200Y-87261100I-250000J0D01*
G01*
X438513200Y-87261100D01*
G75*
G02*
X438263200Y-87011100I0J250000D01*
G01*
X438263200Y-86336100D01*
G75*
G02*
X438513200Y-86086100I250000J0D01*
G01*
G37*
G36*
G01*
X438513200Y-84011100D02*
X439463200Y-84011100D01*
G75*
G02*
X439713200Y-84261100I0J-250000D01*
G01*
X439713200Y-84936100D01*
G75*
G02*
X439463200Y-85186100I-250000J0D01*
G01*
X438513200Y-85186100D01*
G75*
G02*
X438263200Y-84936100I0J250000D01*
G01*
X438263200Y-84261100D01*
G75*
G02*
X438513200Y-84011100I250000J0D01*
G01*
G37*
%TD*%
%TO.C,C7*%
G36*
G01*
X438576700Y-80815600D02*
X439526700Y-80815600D01*
G75*
G02*
X439776700Y-81065600I0J-250000D01*
G01*
X439776700Y-81740600D01*
G75*
G02*
X439526700Y-81990600I-250000J0D01*
G01*
X438576700Y-81990600D01*
G75*
G02*
X438326700Y-81740600I0J250000D01*
G01*
X438326700Y-81065600D01*
G75*
G02*
X438576700Y-80815600I250000J0D01*
G01*
G37*
G36*
G01*
X438576700Y-78740600D02*
X439526700Y-78740600D01*
G75*
G02*
X439776700Y-78990600I0J-250000D01*
G01*
X439776700Y-79665600D01*
G75*
G02*
X439526700Y-79915600I-250000J0D01*
G01*
X438576700Y-79915600D01*
G75*
G02*
X438326700Y-79665600I0J250000D01*
G01*
X438326700Y-78990600D01*
G75*
G02*
X438576700Y-78740600I250000J0D01*
G01*
G37*
%TD*%
D28*
%TO.C,R1*%
X459054200Y-88573600D03*
X459054200Y-85873600D03*
%TD*%
%TO.C,R2*%
X461086200Y-88573600D03*
X461086200Y-85873600D03*
%TD*%
D29*
%TO.C,R3*%
X459863200Y-83858100D03*
X462563200Y-83858100D03*
%TD*%
D28*
%TO.C,R4*%
X459435200Y-77999600D03*
X459435200Y-80699600D03*
%TD*%
%TO.C,R5*%
X457530200Y-77999600D03*
X457530200Y-80699600D03*
%TD*%
M02*
