%TF.GenerationSoftware,KiCad,Pcbnew,(5.1.9)-1*%
%TF.CreationDate,2021-04-06T19:39:34+10:00*%
%TF.ProjectId,RedPyKeeb,52656450-794b-4656-9562-2e6b69636164,rev?*%
%TF.SameCoordinates,Original*%
%TF.FileFunction,Copper,L2,Inr*%
%TF.FilePolarity,Positive*%
%FSLAX46Y46*%
G04 Gerber Fmt 4.6, Leading zero omitted, Abs format (unit mm)*
G04 Created by KiCad (PCBNEW (5.1.9)-1) date 2021-04-06 19:39:34*
%MOMM*%
%LPD*%
G01*
G04 APERTURE LIST*
%TA.AperFunction,ComponentPad*%
%ADD10O,1.700000X1.950000*%
%TD*%
%TA.AperFunction,ComponentPad*%
%ADD11O,1.700000X1.700000*%
%TD*%
%TA.AperFunction,ComponentPad*%
%ADD12R,1.700000X1.700000*%
%TD*%
%TA.AperFunction,ComponentPad*%
%ADD13C,1.600000*%
%TD*%
%TA.AperFunction,ComponentPad*%
%ADD14R,1.600000X1.600000*%
%TD*%
%TA.AperFunction,ComponentPad*%
%ADD15O,1.950000X1.700000*%
%TD*%
%TA.AperFunction,ViaPad*%
%ADD16C,0.800000*%
%TD*%
%TA.AperFunction,ViaPad*%
%ADD17C,1.524000*%
%TD*%
%TA.AperFunction,Conductor*%
%ADD18C,1.016000*%
%TD*%
%TA.AperFunction,Conductor*%
%ADD19C,1.524000*%
%TD*%
%TA.AperFunction,Conductor*%
%ADD20C,3.048000*%
%TD*%
%TA.AperFunction,Conductor*%
%ADD21C,0.508000*%
%TD*%
G04 APERTURE END LIST*
D10*
%TO.N,Net-(J2-Pad7)*%
%TO.C,J2*%
X430008000Y-50927000D03*
%TO.N,Net-(J2-Pad6)*%
X432508000Y-50927000D03*
%TO.N,Net-(J2-Pad5)*%
X435008000Y-50927000D03*
%TO.N,Net-(J2-Pad4)*%
X437508000Y-50927000D03*
%TO.N,Net-(J2-Pad3)*%
X440008000Y-50927000D03*
%TO.N,Net-(J2-Pad2)*%
X442508000Y-50927000D03*
%TO.N,Net-(J2-Pad1)*%
%TA.AperFunction,ComponentPad*%
G36*
G01*
X445858000Y-50202000D02*
X445858000Y-51652000D01*
G75*
G02*
X445608000Y-51902000I-250000J0D01*
G01*
X444408000Y-51902000D01*
G75*
G02*
X444158000Y-51652000I0J250000D01*
G01*
X444158000Y-50202000D01*
G75*
G02*
X444408000Y-49952000I250000J0D01*
G01*
X445608000Y-49952000D01*
G75*
G02*
X445858000Y-50202000I0J-250000D01*
G01*
G37*
%TD.AperFunction*%
%TD*%
D11*
%TO.N,PICO_SDA0*%
%TO.C,U0*%
X481557000Y-65509500D03*
%TO.N,PICO_SCL0*%
X479017000Y-65509500D03*
D12*
%TO.N,Net-(U0-Pad3)*%
X476477000Y-65509500D03*
D11*
%TO.N,PICO_33_REF*%
X473937000Y-65509500D03*
%TO.N,Net-(U0-Pad5)*%
X471397000Y-65509500D03*
%TO.N,Net-(U0-Pad6)*%
X468857000Y-65509500D03*
%TO.N,Net-(U0-Pad7)*%
X466317000Y-65509500D03*
D12*
%TO.N,Net-(U0-Pad8)*%
X463777000Y-65509500D03*
D11*
%TO.N,Net-(U0-Pad9)*%
X461237000Y-65509500D03*
%TO.N,Net-(U0-Pad10)*%
X458697000Y-65509500D03*
%TO.N,Net-(U0-Pad11)*%
X456157000Y-65509500D03*
%TO.N,Net-(U0-Pad12)*%
X453617000Y-65509500D03*
D12*
%TO.N,Net-(U0-Pad13)*%
X451077000Y-65509500D03*
D11*
%TO.N,Net-(U0-Pad14)*%
X448537000Y-65509500D03*
%TO.N,Net-(U0-Pad15)*%
X445997000Y-65509500D03*
%TO.N,Net-(U0-Pad16)*%
X443457000Y-65509500D03*
%TO.N,Net-(U0-Pad17)*%
X440917000Y-65509500D03*
D12*
%TO.N,Net-(U0-Pad18)*%
X438377000Y-65509500D03*
D11*
%TO.N,Net-(U0-Pad19)*%
X435837000Y-65509500D03*
%TO.N,Net-(U0-Pad20)*%
X433297000Y-65509500D03*
%TO.N,Net-(U0-Pad21)*%
X433297000Y-47729500D03*
%TO.N,Net-(J2-Pad5)*%
X435837000Y-47729500D03*
D12*
%TO.N,Net-(U0-Pad23)*%
X438377000Y-47729500D03*
D11*
%TO.N,Net-(J2-Pad3)*%
X440917000Y-47729500D03*
%TO.N,Net-(J2-Pad4)*%
X443457000Y-47729500D03*
%TO.N,Net-(J2-Pad6)*%
X445997000Y-47729500D03*
%TO.N,Net-(J2-Pad7)*%
X448537000Y-47729500D03*
D12*
%TO.N,Net-(U0-Pad28)*%
X451077000Y-47729500D03*
D11*
%TO.N,Net-(U0-Pad29)*%
X453617000Y-47729500D03*
%TO.N,PICO_RUN*%
X456157000Y-47729500D03*
%TO.N,Net-(U0-Pad31)*%
X458697000Y-47729500D03*
%TO.N,Net-(U0-Pad32)*%
X461237000Y-47729500D03*
D12*
%TO.N,Net-(U0-Pad33)*%
X463777000Y-47729500D03*
D11*
%TO.N,Net-(U0-Pad34)*%
X466317000Y-47729500D03*
%TO.N,Net-(U0-Pad35)*%
X468857000Y-47729500D03*
%TO.N,Net-(J2-Pad1)*%
X471397000Y-47729500D03*
%TO.N,Net-(U0-Pad37)*%
X473937000Y-47729500D03*
D12*
%TO.N,Net-(J2-Pad2)*%
X476477000Y-47729500D03*
D11*
%TO.N,MAIN_VBUS*%
X479017000Y-47729500D03*
%TO.N,Net-(U0-Pad40)*%
X481557000Y-47729500D03*
%TO.N,Net-(U0-Pad41)*%
X433527000Y-59159500D03*
D12*
%TO.N,Net-(U0-Pad42)*%
X433527000Y-56619500D03*
D11*
%TO.N,Net-(U0-Pad43)*%
X433527000Y-54079500D03*
%TD*%
D13*
%TO.N,Net-(D0\u002C3-Pad2)*%
%TO.C,D0\u002C3*%
X87833200Y-172225800D03*
D14*
%TO.N,KEY_ROW3*%
X87833200Y-164425800D03*
%TD*%
D13*
%TO.N,Net-(D0\u002C5-Pad2)*%
%TO.C,D0\u002C5*%
X83197700Y-211341800D03*
D14*
%TO.N,KEY_ROW5*%
X83197700Y-203541800D03*
%TD*%
D13*
%TO.N,Net-(D0\u002C4-Pad2)*%
%TO.C,D0\u002C4*%
X92595700Y-191974300D03*
D14*
%TO.N,KEY_ROW4*%
X92595700Y-184174300D03*
%TD*%
D13*
%TO.N,Net-(D0\u002C0-Pad2)*%
%TO.C,D0\u002C0*%
X80848200Y-107646300D03*
D14*
%TO.N,KEY_ROW0*%
X80848200Y-99846300D03*
%TD*%
D13*
%TO.N,Net-(D0\u002C2-Pad2)*%
%TO.C,D0\u002C2*%
X85293200Y-152667800D03*
D14*
%TO.N,KEY_ROW2*%
X85293200Y-144867800D03*
%TD*%
D13*
%TO.N,Net-(D0\u002C1-Pad2)*%
%TO.C,D0\u002C1*%
X80784700Y-133490800D03*
D14*
%TO.N,KEY_ROW1*%
X80784700Y-125690800D03*
%TD*%
D13*
%TO.N,Net-(D1\u002C3-Pad2)*%
%TO.C,D1\u002C3*%
X114122200Y-172098800D03*
D14*
%TO.N,KEY_ROW3*%
X114122200Y-164298800D03*
%TD*%
D13*
%TO.N,Net-(D1\u002C0-Pad2)*%
%TO.C,D1\u002C0*%
X120472200Y-107697100D03*
D14*
%TO.N,KEY_ROW0*%
X120472200Y-99897100D03*
%TD*%
D13*
%TO.N,Net-(D1\u002C4-Pad2)*%
%TO.C,D1\u002C4*%
X123520200Y-191910800D03*
D14*
%TO.N,KEY_ROW4*%
X123520200Y-184110800D03*
%TD*%
D13*
%TO.N,Net-(D1\u002C5-Pad2)*%
%TO.C,D1\u002C5*%
X107581700Y-211341800D03*
D14*
%TO.N,KEY_ROW5*%
X107581700Y-203541800D03*
%TD*%
D13*
%TO.N,Net-(D1\u002C1-Pad2)*%
%TO.C,D1\u002C1*%
X100088700Y-133490800D03*
D14*
%TO.N,KEY_ROW1*%
X100088700Y-125690800D03*
%TD*%
D13*
%TO.N,Net-(D1\u002C2-Pad2)*%
%TO.C,D1\u002C2*%
X109232700Y-152667800D03*
D14*
%TO.N,KEY_ROW2*%
X109232700Y-144867800D03*
%TD*%
D13*
%TO.N,Net-(D2\u002C4-Pad2)*%
%TO.C,D2\u002C4*%
X142824200Y-191910800D03*
D14*
%TO.N,KEY_ROW4*%
X142824200Y-184110800D03*
%TD*%
D13*
%TO.N,Net-(D2\u002C5-Pad2)*%
%TO.C,D2\u002C5*%
X131965700Y-211341800D03*
D14*
%TO.N,KEY_ROW5*%
X131965700Y-203541800D03*
%TD*%
D13*
%TO.N,Net-(D2\u002C0-Pad2)*%
%TO.C,D2\u002C0*%
X139776200Y-107646300D03*
D14*
%TO.N,KEY_ROW0*%
X139776200Y-99846300D03*
%TD*%
D13*
%TO.N,Net-(D2\u002C2-Pad2)*%
%TO.C,D2\u002C2*%
X128536700Y-152667800D03*
D14*
%TO.N,KEY_ROW2*%
X128536700Y-144867800D03*
%TD*%
D13*
%TO.N,Net-(D2\u002C1-Pad2)*%
%TO.C,D2\u002C1*%
X119011700Y-133427300D03*
D14*
%TO.N,KEY_ROW1*%
X119011700Y-125627300D03*
%TD*%
D13*
%TO.N,Net-(D2\u002C3-Pad2)*%
%TO.C,D2\u002C3*%
X133426200Y-172098800D03*
D14*
%TO.N,KEY_ROW3*%
X133426200Y-164298800D03*
%TD*%
D13*
%TO.N,Net-(D3\u002C0-Pad2)*%
%TO.C,D3\u002C0*%
X159080200Y-107646300D03*
D14*
%TO.N,KEY_ROW0*%
X159080200Y-99846300D03*
%TD*%
D13*
%TO.N,Net-(D3\u002C1-Pad2)*%
%TO.C,D3\u002C1*%
X137807700Y-133427300D03*
D14*
%TO.N,KEY_ROW1*%
X137807700Y-125627300D03*
%TD*%
D13*
%TO.N,Net-(D3\u002C4-Pad2)*%
%TO.C,D3\u002C4*%
X162128200Y-191910800D03*
D14*
%TO.N,KEY_ROW4*%
X162128200Y-184110800D03*
%TD*%
D13*
%TO.N,Net-(D3\u002C2-Pad2)*%
%TO.C,D3\u002C2*%
X147840700Y-152667800D03*
D14*
%TO.N,KEY_ROW2*%
X147840700Y-144867800D03*
%TD*%
D13*
%TO.N,Net-(D3\u002C5-Pad2)*%
%TO.C,D3\u002C5*%
X203847700Y-211341800D03*
D14*
%TO.N,KEY_ROW5*%
X203847700Y-203541800D03*
%TD*%
D13*
%TO.N,Net-(D3\u002C3-Pad2)*%
%TO.C,D3\u002C3*%
X152730200Y-172098800D03*
D14*
%TO.N,KEY_ROW3*%
X152730200Y-164298800D03*
%TD*%
D13*
%TO.N,Net-(D4\u002C4-Pad2)*%
%TO.C,D4\u002C4*%
X181432200Y-191910800D03*
D14*
%TO.N,KEY_ROW4*%
X181432200Y-184110800D03*
%TD*%
D13*
%TO.N,Net-(D4\u002C3-Pad2)*%
%TO.C,D4\u002C3*%
X172034200Y-172098800D03*
D14*
%TO.N,KEY_ROW3*%
X172034200Y-164298800D03*
%TD*%
D13*
%TO.N,Net-(D4\u002C1-Pad2)*%
%TO.C,D4\u002C1*%
X157111700Y-133427300D03*
D14*
%TO.N,KEY_ROW1*%
X157111700Y-125627300D03*
%TD*%
D13*
%TO.N,Net-(D4\u002C0-Pad2)*%
%TO.C,D4\u002C0*%
X178384200Y-107646300D03*
D14*
%TO.N,KEY_ROW0*%
X178384200Y-99846300D03*
%TD*%
D13*
%TO.N,Net-(D4\u002C2-Pad2)*%
%TO.C,D4\u002C2*%
X167144700Y-152667800D03*
D14*
%TO.N,KEY_ROW2*%
X167144700Y-144867800D03*
%TD*%
D13*
%TO.N,Net-(D5\u002C0-Pad2)*%
%TO.C,D5\u002C0*%
X209880200Y-107646300D03*
D14*
%TO.N,KEY_ROW0*%
X209880200Y-99846300D03*
%TD*%
D13*
%TO.N,Net-(D5\u002C2-Pad2)*%
%TO.C,D5\u002C2*%
X186448700Y-152667800D03*
D14*
%TO.N,KEY_ROW2*%
X186448700Y-144867800D03*
%TD*%
D13*
%TO.N,Net-(D5\u002C1-Pad2)*%
%TO.C,D5\u002C1*%
X176415700Y-133427300D03*
D14*
%TO.N,KEY_ROW1*%
X176415700Y-125627300D03*
%TD*%
D13*
%TO.N,Net-(D5\u002C3-Pad2)*%
%TO.C,D5\u002C3*%
X191338200Y-172149600D03*
D14*
%TO.N,KEY_ROW3*%
X191338200Y-164349600D03*
%TD*%
D13*
%TO.N,Net-(D5\u002C4-Pad2)*%
%TO.C,D5\u002C4*%
X200736200Y-191961600D03*
D14*
%TO.N,KEY_ROW4*%
X200736200Y-184161600D03*
%TD*%
D13*
%TO.N,Net-(D6\u002C0-Pad2)*%
%TO.C,D6\u002C0*%
X229184200Y-107646300D03*
D14*
%TO.N,KEY_ROW0*%
X229184200Y-99846300D03*
%TD*%
D13*
%TO.N,Net-(D6\u002C3-Pad2)*%
%TO.C,D6\u002C3*%
X210642200Y-172098800D03*
D14*
%TO.N,KEY_ROW3*%
X210642200Y-164298800D03*
%TD*%
D13*
%TO.N,Net-(D6\u002C4-Pad2)*%
%TO.C,D6\u002C4*%
X220040200Y-191910800D03*
D14*
%TO.N,KEY_ROW4*%
X220040200Y-184110800D03*
%TD*%
D13*
%TO.N,Net-(D6\u002C1-Pad2)*%
%TO.C,D6\u002C1*%
X195719700Y-133427300D03*
D14*
%TO.N,KEY_ROW1*%
X195719700Y-125627300D03*
%TD*%
D13*
%TO.N,Net-(D6\u002C2-Pad2)*%
%TO.C,D6\u002C2*%
X205752700Y-152667800D03*
D14*
%TO.N,KEY_ROW2*%
X205752700Y-144867800D03*
%TD*%
D13*
%TO.N,Net-(D7\u002C4-Pad2)*%
%TO.C,D7\u002C4*%
X239344200Y-191961600D03*
D14*
%TO.N,KEY_ROW4*%
X239344200Y-184161600D03*
%TD*%
D13*
%TO.N,Net-(D7\u002C2-Pad2)*%
%TO.C,D7\u002C2*%
X225056700Y-152718600D03*
D14*
%TO.N,KEY_ROW2*%
X225056700Y-144918600D03*
%TD*%
D13*
%TO.N,Net-(D7\u002C1-Pad2)*%
%TO.C,D7\u002C1*%
X215023700Y-133427300D03*
D14*
%TO.N,KEY_ROW1*%
X215023700Y-125627300D03*
%TD*%
D13*
%TO.N,Net-(D7\u002C0-Pad2)*%
%TO.C,D7\u002C0*%
X248488200Y-107646300D03*
D14*
%TO.N,KEY_ROW0*%
X248488200Y-99846300D03*
%TD*%
D13*
%TO.N,Net-(D7\u002C3-Pad2)*%
%TO.C,D7\u002C3*%
X229946200Y-172098800D03*
D14*
%TO.N,KEY_ROW3*%
X229946200Y-164298800D03*
%TD*%
D13*
%TO.N,Net-(D8\u002C0-Pad2)*%
%TO.C,D8\u002C0*%
X267792200Y-107697100D03*
D14*
%TO.N,KEY_ROW0*%
X267792200Y-99897100D03*
%TD*%
D13*
%TO.N,Net-(D8\u002C3-Pad2)*%
%TO.C,D8\u002C3*%
X249250200Y-172098800D03*
D14*
%TO.N,KEY_ROW3*%
X249250200Y-164298800D03*
%TD*%
D13*
%TO.N,Net-(D8\u002C1-Pad2)*%
%TO.C,D8\u002C1*%
X234327700Y-133427300D03*
D14*
%TO.N,KEY_ROW1*%
X234327700Y-125627300D03*
%TD*%
D13*
%TO.N,Net-(D8\u002C2-Pad2)*%
%TO.C,D8\u002C2*%
X244360700Y-152667800D03*
D14*
%TO.N,KEY_ROW2*%
X244360700Y-144867800D03*
%TD*%
D13*
%TO.N,Net-(D8\u002C5-Pad2)*%
%TO.C,D8\u002C5*%
X275602700Y-211405300D03*
D14*
%TO.N,KEY_ROW5*%
X275602700Y-203605300D03*
%TD*%
D13*
%TO.N,Net-(D8\u002C4-Pad2)*%
%TO.C,D8\u002C4*%
X258648200Y-191910800D03*
D14*
%TO.N,KEY_ROW4*%
X258648200Y-184110800D03*
%TD*%
D13*
%TO.N,Net-(D9\u002C2-Pad2)*%
%TO.C,D9\u002C2*%
X263664700Y-152667800D03*
D14*
%TO.N,KEY_ROW2*%
X263664700Y-144867800D03*
%TD*%
D13*
%TO.N,Net-(D9\u002C1-Pad2)*%
%TO.C,D9\u002C1*%
X253631700Y-133478100D03*
D14*
%TO.N,KEY_ROW1*%
X253631700Y-125678100D03*
%TD*%
D13*
%TO.N,Net-(D9\u002C3-Pad2)*%
%TO.C,D9\u002C3*%
X268554200Y-172098800D03*
D14*
%TO.N,KEY_ROW3*%
X268554200Y-164298800D03*
%TD*%
D13*
%TO.N,Net-(D9\u002C4-Pad2)*%
%TO.C,D9\u002C4*%
X277952200Y-191910800D03*
D14*
%TO.N,KEY_ROW4*%
X277952200Y-184110800D03*
%TD*%
D13*
%TO.N,Net-(D9\u002C5-Pad2)*%
%TO.C,D9\u002C5*%
X299732700Y-211341800D03*
D14*
%TO.N,KEY_ROW5*%
X299732700Y-203541800D03*
%TD*%
D13*
%TO.N,Net-(D9\u002C0-Pad2)*%
%TO.C,D9\u002C0*%
X294208200Y-107646300D03*
D14*
%TO.N,KEY_ROW0*%
X294208200Y-99846300D03*
%TD*%
D13*
%TO.N,Net-(D10\u002C4-Pad2)*%
%TO.C,D10\u002C4*%
X297256200Y-191961600D03*
D14*
%TO.N,KEY_ROW4*%
X297256200Y-184161600D03*
%TD*%
D13*
%TO.N,Net-(D10\u002C5-Pad2)*%
%TO.C,D10\u002C5*%
X323926200Y-211341800D03*
D14*
%TO.N,KEY_ROW5*%
X323926200Y-203541800D03*
%TD*%
D13*
%TO.N,Net-(D10\u002C1-Pad2)*%
%TO.C,D10\u002C1*%
X272935700Y-133427300D03*
D14*
%TO.N,KEY_ROW1*%
X272935700Y-125627300D03*
%TD*%
D13*
%TO.N,Net-(D10\u002C0-Pad2)*%
%TO.C,D10\u002C0*%
X313512200Y-107646300D03*
D14*
%TO.N,KEY_ROW0*%
X313512200Y-99846300D03*
%TD*%
D13*
%TO.N,Net-(D10\u002C2-Pad2)*%
%TO.C,D10\u002C2*%
X282968700Y-152718600D03*
D14*
%TO.N,KEY_ROW2*%
X282968700Y-144918600D03*
%TD*%
D13*
%TO.N,Net-(D10\u002C3-Pad2)*%
%TO.C,D10\u002C3*%
X287858200Y-172098800D03*
D14*
%TO.N,KEY_ROW3*%
X287858200Y-164298800D03*
%TD*%
D13*
%TO.N,Net-(D11\u002C0-Pad2)*%
%TO.C,D11\u002C0*%
X332816200Y-107646300D03*
D14*
%TO.N,KEY_ROW0*%
X332816200Y-99846300D03*
%TD*%
D13*
%TO.N,Net-(D11\u002C1-Pad2)*%
%TO.C,D11\u002C1*%
X292239700Y-133427300D03*
D14*
%TO.N,KEY_ROW1*%
X292239700Y-125627300D03*
%TD*%
D13*
%TO.N,Net-(D11\u002C3-Pad2)*%
%TO.C,D11\u002C3*%
X307162200Y-172098800D03*
D14*
%TO.N,KEY_ROW3*%
X307162200Y-164298800D03*
%TD*%
D13*
%TO.N,Net-(D11\u002C2-Pad2)*%
%TO.C,D11\u002C2*%
X302272700Y-152667800D03*
D14*
%TO.N,KEY_ROW2*%
X302272700Y-144867800D03*
%TD*%
D13*
%TO.N,Net-(D11\u002C4-Pad2)*%
%TO.C,D11\u002C4*%
X333832200Y-191910800D03*
D14*
%TO.N,KEY_ROW4*%
X333832200Y-184110800D03*
%TD*%
D13*
%TO.N,Net-(D11\u002C5-Pad2)*%
%TO.C,D11\u002C5*%
X347992700Y-211341800D03*
D14*
%TO.N,KEY_ROW5*%
X347992700Y-203541800D03*
%TD*%
D13*
%TO.N,Net-(D12\u002C3-Pad2)*%
%TO.C,D12\u002C3*%
X338658200Y-172162300D03*
D14*
%TO.N,KEY_ROW3*%
X338658200Y-164362300D03*
%TD*%
D13*
%TO.N,Net-(D12\u002C2-Pad2)*%
%TO.C,D12\u002C2*%
X321576700Y-152667800D03*
D14*
%TO.N,KEY_ROW2*%
X321576700Y-144867800D03*
%TD*%
D13*
%TO.N,Net-(D12\u002C1-Pad2)*%
%TO.C,D12\u002C1*%
X311543700Y-133478100D03*
D14*
%TO.N,KEY_ROW1*%
X311543700Y-125678100D03*
%TD*%
D13*
%TO.N,Net-(D12\u002C0-Pad2)*%
%TO.C,D12\u002C0*%
X352120200Y-107646300D03*
D14*
%TO.N,KEY_ROW0*%
X352120200Y-99846300D03*
%TD*%
D13*
%TO.N,Net-(D13\u002C2-Pad2)*%
%TO.C,D13\u002C2*%
X345389200Y-152731300D03*
D14*
%TO.N,KEY_ROW2*%
X345389200Y-144931300D03*
%TD*%
D13*
%TO.N,Net-(D13\u002C1-Pad2)*%
%TO.C,D13\u002C1*%
X340499700Y-133427300D03*
D14*
%TO.N,KEY_ROW1*%
X340499700Y-125627300D03*
%TD*%
D13*
%TO.N,Net-(D14\u002C1-Pad2)*%
%TO.C,D14\u002C1*%
X373164100Y-133427300D03*
D14*
%TO.N,KEY_ROW1*%
X373164100Y-125627300D03*
%TD*%
D13*
%TO.N,Net-(D14\u002C3-Pad2)*%
%TO.C,D14\u002C3*%
X373418100Y-152667800D03*
D14*
%TO.N,KEY_ROW3*%
X373418100Y-144867800D03*
%TD*%
D13*
%TO.N,Net-(D14\u002C0-Pad2)*%
%TO.C,D14\u002C0*%
X374561100Y-107646300D03*
D14*
%TO.N,KEY_ROW0*%
X374561100Y-99846300D03*
%TD*%
D13*
%TO.N,Net-(D14\u002C6-Pad2)*%
%TO.C,D14\u002C6*%
X373100600Y-211214800D03*
D14*
%TO.N,KEY_ROW6*%
X373100600Y-203414800D03*
%TD*%
D13*
%TO.N,Net-(D15\u002C0-Pad2)*%
%TO.C,D15\u002C0*%
X394373100Y-107646300D03*
D14*
%TO.N,KEY_ROW0*%
X394373100Y-99846300D03*
%TD*%
D13*
%TO.N,Net-(D15\u002C1-Pad2)*%
%TO.C,D15\u002C1*%
X392468100Y-133427300D03*
D14*
%TO.N,KEY_ROW1*%
X392468100Y-125627300D03*
%TD*%
D13*
%TO.N,Net-(D15\u002C3-Pad2)*%
%TO.C,D15\u002C3*%
X392468100Y-152667800D03*
D14*
%TO.N,KEY_ROW3*%
X392468100Y-144867800D03*
%TD*%
D13*
%TO.N,Net-(D15\u002C5-Pad2)*%
%TO.C,D15\u002C5*%
X392404600Y-191910800D03*
D14*
%TO.N,KEY_ROW5*%
X392404600Y-184110800D03*
%TD*%
D13*
%TO.N,Net-(D15\u002C6-Pad2)*%
%TO.C,D15\u002C6*%
X392404600Y-211214800D03*
D14*
%TO.N,KEY_ROW6*%
X392404600Y-203414800D03*
%TD*%
D13*
%TO.N,Net-(D16\u002C6-Pad2)*%
%TO.C,D16\u002C6*%
X411708600Y-211214800D03*
D14*
%TO.N,KEY_ROW6*%
X411708600Y-203414800D03*
%TD*%
D13*
%TO.N,Net-(D16\u002C0-Pad2)*%
%TO.C,D16\u002C0*%
X413423100Y-107646300D03*
D14*
%TO.N,KEY_ROW0*%
X413423100Y-99846300D03*
%TD*%
D13*
%TO.N,Net-(D16\u002C1-Pad2)*%
%TO.C,D16\u002C1*%
X411772100Y-133427300D03*
D14*
%TO.N,KEY_ROW1*%
X411772100Y-125627300D03*
%TD*%
D13*
%TO.N,Net-(D16\u002C5-Pad2)*%
%TO.C,D16\u002C5*%
X435394100Y-191402800D03*
D14*
%TO.N,KEY_ROW5*%
X435394100Y-183602800D03*
%TD*%
D13*
%TO.N,Net-(D16\u002C3-Pad2)*%
%TO.C,D16\u002C3*%
X412026100Y-152667800D03*
D14*
%TO.N,KEY_ROW3*%
X412026100Y-144867800D03*
%TD*%
D13*
%TO.N,Net-(D16\u002C4-Pad2)*%
%TO.C,D16\u002C4*%
X435648100Y-172098800D03*
D14*
%TO.N,KEY_ROW4*%
X435648100Y-164298800D03*
%TD*%
D13*
%TO.N,Net-(D17\u002C3-Pad2)*%
%TO.C,D17\u002C3*%
X435648100Y-152794800D03*
D14*
%TO.N,KEY_ROW3*%
X435648100Y-144994800D03*
%TD*%
D13*
%TO.N,Net-(D17\u002C1-Pad2)*%
%TO.C,D17\u002C1*%
X435648100Y-133427300D03*
D14*
%TO.N,KEY_ROW1*%
X435648100Y-125627300D03*
%TD*%
D13*
%TO.N,Net-(D17\u002C6-Pad2)*%
%TO.C,D17\u002C6*%
X445427100Y-210757600D03*
D14*
%TO.N,KEY_ROW6*%
X445427100Y-202957600D03*
%TD*%
D13*
%TO.N,Net-(D17\u002C4-Pad2)*%
%TO.C,D17\u002C4*%
X454952100Y-172098800D03*
D14*
%TO.N,KEY_ROW4*%
X454952100Y-164298800D03*
%TD*%
D13*
%TO.N,Net-(D17\u002C0-Pad2)*%
%TO.C,D17\u002C0*%
X435584600Y-107646300D03*
D14*
%TO.N,KEY_ROW0*%
X435584600Y-99846300D03*
%TD*%
D13*
%TO.N,Net-(D17\u002C5-Pad2)*%
%TO.C,D17\u002C5*%
X454952100Y-191402800D03*
D14*
%TO.N,KEY_ROW5*%
X454952100Y-183602800D03*
%TD*%
D13*
%TO.N,Net-(D18\u002C1-Pad2)*%
%TO.C,D18\u002C1*%
X454952100Y-133478100D03*
D14*
%TO.N,KEY_ROW1*%
X454952100Y-125678100D03*
%TD*%
D13*
%TO.N,Net-(D18\u002C6-Pad2)*%
%TO.C,D18\u002C6*%
X474256100Y-210706800D03*
D14*
%TO.N,KEY_ROW6*%
X474256100Y-202906800D03*
%TD*%
D13*
%TO.N,Net-(D18\u002C3-Pad2)*%
%TO.C,D18\u002C3*%
X454952100Y-152794800D03*
D14*
%TO.N,KEY_ROW3*%
X454952100Y-144994800D03*
%TD*%
D13*
%TO.N,Net-(D18\u002C0-Pad2)*%
%TO.C,D18\u002C0*%
X454888600Y-107646300D03*
D14*
%TO.N,KEY_ROW0*%
X454888600Y-99846300D03*
%TD*%
D13*
%TO.N,Net-(D18\u002C5-Pad2)*%
%TO.C,D18\u002C5*%
X474256100Y-191402800D03*
D14*
%TO.N,KEY_ROW5*%
X474256100Y-183602800D03*
%TD*%
D13*
%TO.N,Net-(D18\u002C4-Pad2)*%
%TO.C,D18\u002C4*%
X474256100Y-172035300D03*
D14*
%TO.N,KEY_ROW4*%
X474256100Y-164235300D03*
%TD*%
D13*
%TO.N,Net-(D19\u002C4-Pad2)*%
%TO.C,D19\u002C4*%
X493560100Y-162116600D03*
D14*
%TO.N,KEY_ROW4*%
X493560100Y-154316600D03*
%TD*%
D13*
%TO.N,Net-(D19\u002C0-Pad2)*%
%TO.C,D19\u002C0*%
X474192600Y-107646300D03*
D14*
%TO.N,KEY_ROW0*%
X474192600Y-99846300D03*
%TD*%
D13*
%TO.N,Net-(D19\u002C3-Pad2)*%
%TO.C,D19\u002C3*%
X474256100Y-152794800D03*
D14*
%TO.N,KEY_ROW3*%
X474256100Y-144994800D03*
%TD*%
D13*
%TO.N,Net-(D19\u002C1-Pad2)*%
%TO.C,D19\u002C1*%
X474256100Y-133427300D03*
D14*
%TO.N,KEY_ROW1*%
X474256100Y-125627300D03*
%TD*%
D13*
%TO.N,Net-(D19\u002C6-Pad2)*%
%TO.C,D19\u002C6*%
X493814100Y-201054800D03*
D14*
%TO.N,KEY_ROW6*%
X493814100Y-193254800D03*
%TD*%
D13*
%TO.N,Net-(D20\u002C1-Pad2)*%
%TO.C,D20\u002C1*%
X493560100Y-133427300D03*
D14*
%TO.N,KEY_ROW1*%
X493560100Y-125627300D03*
%TD*%
D13*
%TO.N,Net-(D20\u002C0-Pad2)*%
%TO.C,D20\u002C0*%
X493496600Y-107697100D03*
D14*
%TO.N,KEY_ROW0*%
X493496600Y-99897100D03*
%TD*%
D15*
%TO.N,GNDPWR*%
%TO.C,J0*%
X486918000Y-52912000D03*
%TO.N,USB_DN*%
X486918000Y-55412000D03*
%TO.N,USB_DP*%
X486918000Y-57912000D03*
%TO.N,MAIN_VBUS*%
%TA.AperFunction,ComponentPad*%
G36*
G01*
X487643000Y-61262000D02*
X486193000Y-61262000D01*
G75*
G02*
X485943000Y-61012000I0J250000D01*
G01*
X485943000Y-59812000D01*
G75*
G02*
X486193000Y-59562000I250000J0D01*
G01*
X487643000Y-59562000D01*
G75*
G02*
X487893000Y-59812000I0J-250000D01*
G01*
X487893000Y-61012000D01*
G75*
G02*
X487643000Y-61262000I-250000J0D01*
G01*
G37*
%TD.AperFunction*%
%TD*%
D10*
%TO.N,Net-(J1-Pad4)*%
%TO.C,J1*%
X473195000Y-80645000D03*
%TO.N,Net-(J1-Pad3)*%
X475695000Y-80645000D03*
%TO.N,PICO_SCL0*%
X478195000Y-80645000D03*
%TO.N,PICO_SDA0*%
%TA.AperFunction,ComponentPad*%
G36*
G01*
X481545000Y-79920000D02*
X481545000Y-81370000D01*
G75*
G02*
X481295000Y-81620000I-250000J0D01*
G01*
X480095000Y-81620000D01*
G75*
G02*
X479845000Y-81370000I0J250000D01*
G01*
X479845000Y-79920000D01*
G75*
G02*
X480095000Y-79670000I250000J0D01*
G01*
X481295000Y-79670000D01*
G75*
G02*
X481545000Y-79920000I0J-250000D01*
G01*
G37*
%TD.AperFunction*%
%TD*%
D16*
%TO.N,KEY_ROW6*%
X110363000Y-111633000D03*
X370332000Y-207137000D03*
X362585000Y-214884000D03*
%TO.N,I2C_SDA0*%
X457898500Y-83201500D03*
X412750000Y-79629000D03*
X76835000Y-81407000D03*
X129794000Y-107950000D03*
X115951000Y-117602000D03*
%TO.N,I2C_SCL0*%
X78105000Y-81407000D03*
X114300000Y-117348000D03*
X411480000Y-79629000D03*
X127635000Y-109220000D03*
X459867000Y-83201500D03*
%TO.N,GNDPWR*%
X79121000Y-86487000D03*
X410591000Y-84201000D03*
X435737000Y-76835000D03*
X450785000Y-76265000D03*
D17*
X495426500Y-72961500D03*
D16*
X88392000Y-136779000D03*
X92215201Y-92823799D03*
X86233000Y-118110000D03*
X107861100Y-115531900D03*
%TO.N,KEY_COL13*%
X355204700Y-130797300D03*
%TO.N,KEY_COL19*%
X489088100Y-105067100D03*
X403796500Y-81597500D03*
%TO.N,KEY_COL18*%
X469784100Y-105067100D03*
X402526500Y-81724500D03*
%TO.N,KEY_COL17*%
X450480100Y-105067100D03*
X401256500Y-81470500D03*
%TO.N,KEY_COL16*%
X428318600Y-105081400D03*
X399986500Y-81597500D03*
%TO.N,KEY_COL15*%
X409014600Y-105067100D03*
X398716500Y-81597500D03*
%TO.N,KEY_COL14*%
X389456600Y-105067100D03*
X397446500Y-81343500D03*
%TO.N,LED_SCL_ROW1*%
X86931500Y-89090500D03*
X80137000Y-118618000D03*
%TO.N,LED_SDA_ROW1*%
X85661500Y-88963500D03*
X81534000Y-117475000D03*
%TO.N,LED_SDA_ROW5*%
X77724000Y-169672000D03*
X85852000Y-197866000D03*
%TO.N,LED_SCL_ROW5*%
X78867000Y-168402000D03*
X83566000Y-193802000D03*
%TO.N,LED_SCL_ROW3*%
X92011500Y-88963500D03*
X88773000Y-160147000D03*
%TO.N,LED_SDA_ROW3*%
X90741500Y-88963500D03*
X89535000Y-158750000D03*
%TO.N,LED_SDA_ROW4*%
X81153000Y-165227000D03*
X75184000Y-161036000D03*
%TO.N,LED_SCL_ROW2*%
X89471500Y-89090500D03*
X85344000Y-140462000D03*
%TO.N,LED_SDA_ROW2*%
X88201500Y-89217500D03*
X86995000Y-138938000D03*
%TO.N,LED_SCL_ROW0*%
X84391500Y-89090500D03*
X84963000Y-95377000D03*
%TO.N,LED_SDA_ROW6*%
X377190000Y-198374000D03*
X107950000Y-90805000D03*
%TO.N,LED_SCL_ROW6*%
X376682000Y-199517000D03*
X108204000Y-91948000D03*
%TO.N,MAIN_VBUS*%
X81661000Y-86487000D03*
X407924000Y-84201000D03*
X109461300Y-98386900D03*
X151460681Y-98602319D03*
X202603100Y-98513900D03*
X288975800Y-98399600D03*
X96723200Y-124714000D03*
X174653699Y-124304301D03*
X213207600Y-124561600D03*
X334137000Y-124434600D03*
X507136400Y-123596400D03*
X506476000Y-152806400D03*
X506882400Y-190246000D03*
X97161831Y-143782569D03*
X181051200Y-143357600D03*
X220292649Y-143486151D03*
X338150200Y-143535400D03*
X108966000Y-162814000D03*
X184686699Y-162531301D03*
X227076000Y-162814000D03*
X332638400Y-162915600D03*
X108966000Y-183235600D03*
X179327699Y-182883699D03*
X236931200Y-182880000D03*
X327406000Y-182981600D03*
X319074800Y-202590400D03*
X236931200Y-202234800D03*
X177088800Y-202133200D03*
X105638600Y-201955400D03*
X495554000Y-181356000D03*
X265734800Y-163220400D03*
X275742400Y-182626000D03*
X260400800Y-143408400D03*
X140970000Y-182633398D03*
X147351750Y-162972750D03*
X143108399Y-143467101D03*
X135636000Y-124206000D03*
X311658000Y-98171000D03*
X392442700Y-98348800D03*
X390706099Y-124151901D03*
X390706099Y-143392401D03*
X409924250Y-182848250D03*
X432149250Y-201834750D03*
X472249500Y-182308500D03*
X453072500Y-162941000D03*
X453072500Y-143446500D03*
X453072500Y-124206000D03*
X453072500Y-117284500D03*
X453072500Y-98425000D03*
D17*
X487426500Y-72961500D03*
D16*
X430911000Y-79756000D03*
X107823000Y-113030000D03*
X92202000Y-115443000D03*
X506476000Y-149504400D03*
X472249500Y-199631300D03*
X269938500Y-124015500D03*
%TO.N,IO_INT0*%
X445084200Y-83134200D03*
X104648000Y-115443000D03*
X124587000Y-101473000D03*
X125476000Y-91694000D03*
%TO.N,IO_INT1*%
X104521000Y-114173000D03*
X443814200Y-83007200D03*
X125603000Y-101473000D03*
X127889000Y-90678000D03*
%TO.N,IO_INT3*%
X442087000Y-88773000D03*
X435737000Y-87884000D03*
%TO.N,KEY_ROW5*%
X110363000Y-110363000D03*
%TO.N,KEY_ROW4*%
X110363000Y-109093000D03*
%TO.N,KEY_ROW3*%
X110363000Y-107823000D03*
%TO.N,KEY_ROW2*%
X110363000Y-106553000D03*
%TO.N,KEY_ROW1*%
X110363000Y-105283000D03*
%TO.N,KEY_ROW0*%
X110490000Y-104013000D03*
%TO.N,LED_SCL_ROW7*%
X439420000Y-114427000D03*
X103124000Y-91440000D03*
%TO.N,LED_SDA_ROW7*%
X439166000Y-113030000D03*
X102997000Y-90297000D03*
%TO.N,PICO_33_REF*%
X456565000Y-72627500D03*
X438086500Y-76031000D03*
X81407000Y-94107000D03*
%TO.N,KEY_COL20*%
X508392100Y-105067100D03*
X405066500Y-81597500D03*
%TD*%
D18*
%TO.N,GNDPWR*%
X435737000Y-76835000D02*
X437007000Y-78105000D01*
X437007000Y-78105000D02*
X448945000Y-78105000D01*
X448945000Y-78105000D02*
X450785000Y-76265000D01*
X450785000Y-76265000D02*
X475169000Y-76265000D01*
X475169000Y-76265000D02*
X490220000Y-61214000D01*
X490220000Y-61214000D02*
X490220000Y-56214000D01*
X490220000Y-56214000D02*
X488275000Y-54269000D01*
X488275000Y-54269000D02*
X486918000Y-52912000D01*
D19*
X422783000Y-84201000D02*
X410591000Y-84201000D01*
X429186990Y-69389892D02*
X429186990Y-77797010D01*
X429186990Y-77797010D02*
X422783000Y-84201000D01*
X439094390Y-59482492D02*
X429186990Y-69389892D01*
X463122509Y-59482491D02*
X439094390Y-59482492D01*
X470572501Y-52032499D02*
X463122509Y-59482491D01*
X486038499Y-52032499D02*
X470572501Y-52032499D01*
X486918000Y-52912000D02*
X486038499Y-52032499D01*
X410591000Y-84201000D02*
X409120990Y-82730990D01*
X81280000Y-84328000D02*
X79121000Y-86487000D01*
X409120990Y-82730990D02*
X406727010Y-82730990D01*
X406727010Y-82730990D02*
X403987000Y-85471000D01*
X125838239Y-89315999D02*
X123533248Y-91620990D01*
X92964000Y-84328000D02*
X81280000Y-84328000D01*
X403987000Y-85471000D02*
X401574000Y-85471000D01*
X401574000Y-85471000D02*
X395859000Y-91186000D01*
X395859000Y-91186000D02*
X130412762Y-91186000D01*
X123533248Y-91620990D02*
X111051990Y-91620990D01*
X111051990Y-91620990D02*
X108365999Y-88934999D01*
X128542761Y-89315999D02*
X125838239Y-89315999D01*
X130412762Y-91186000D02*
X128542761Y-89315999D01*
X108365999Y-88934999D02*
X97570999Y-88934999D01*
X97570999Y-88934999D02*
X92964000Y-84328000D01*
X86233000Y-118110000D02*
X86233000Y-125095000D01*
X83402699Y-134582561D02*
X85599138Y-136779000D01*
X85442699Y-129822301D02*
X83402699Y-131862301D01*
X85442699Y-125885301D02*
X85442699Y-129822301D01*
X83402699Y-131862301D02*
X83402699Y-134582561D01*
X86233000Y-125095000D02*
X85442699Y-125885301D01*
X85599138Y-136779000D02*
X88392000Y-136779000D01*
X84836000Y-92202000D02*
X91593402Y-92202000D01*
X79121000Y-86487000D02*
X84836000Y-92202000D01*
X92215201Y-92823799D02*
X85506199Y-99532801D01*
X85506199Y-104334539D02*
X83466199Y-106374539D01*
X83466199Y-106374539D02*
X83466199Y-115343199D01*
X85506199Y-99532801D02*
X85506199Y-104334539D01*
X91593402Y-92202000D02*
X92215201Y-92823799D01*
X83466199Y-115343199D02*
X86233000Y-118110000D01*
%TO.N,MAIN_VBUS*%
X265734800Y-163220400D02*
X265734800Y-175107600D01*
X260400800Y-143408400D02*
X260400800Y-157886400D01*
X260400800Y-157886400D02*
X265734800Y-163220400D01*
X269189200Y-178562000D02*
X271830800Y-178562000D01*
X271830800Y-178562000D02*
X275742400Y-182473600D01*
X265734800Y-175107600D02*
X269189200Y-178562000D01*
X275742400Y-182473600D02*
X275742400Y-182626000D01*
X509066800Y-172415200D02*
X509066800Y-176428400D01*
X504139200Y-181356000D02*
X495554000Y-181356000D01*
X509066800Y-176428400D02*
X504139200Y-181356000D01*
X509066800Y-172415200D02*
X509066800Y-188061600D01*
X509066800Y-156311600D02*
X509066800Y-172415200D01*
X177088800Y-185122598D02*
X177088800Y-202133200D01*
X108966000Y-183235600D02*
X108966000Y-198628000D01*
X338150200Y-143535400D02*
X340563200Y-145948400D01*
X506476000Y-153720800D02*
X509066800Y-156311600D01*
X186761701Y-166097839D02*
X186761701Y-175449697D01*
X186761701Y-175449697D02*
X179327699Y-182883699D01*
X108966000Y-155586738D02*
X108966000Y-162814000D01*
X184686699Y-164022837D02*
X186761701Y-166097839D01*
X506476000Y-149199600D02*
X506476000Y-149504400D01*
X181051200Y-143357600D02*
X184686699Y-146993099D01*
X97161831Y-143782569D02*
X108966000Y-155586738D01*
X108966000Y-198628000D02*
X105638600Y-201955400D01*
X96723200Y-143343938D02*
X97161831Y-143782569D01*
X332638400Y-162915600D02*
X327406000Y-168148000D01*
X184686699Y-162531301D02*
X184686699Y-164022837D01*
X509574800Y-127609600D02*
X509574800Y-146100800D01*
X174653699Y-124304301D02*
X174653699Y-136960099D01*
X509574800Y-146100800D02*
X508101600Y-147574000D01*
X108966000Y-162814000D02*
X108966000Y-183235600D01*
X213207600Y-124561600D02*
X213261699Y-124615699D01*
X327406000Y-182981600D02*
X327406000Y-194259200D01*
X236931200Y-182880000D02*
X236931200Y-202234800D01*
X179327699Y-182883699D02*
X177088800Y-185122598D01*
X506476000Y-152806400D02*
X506476000Y-153720800D01*
X334137000Y-124434600D02*
X335432400Y-125730000D01*
X174653699Y-136960099D02*
X181051200Y-143357600D01*
X96723200Y-124714000D02*
X96723200Y-143343938D01*
X227076000Y-162814000D02*
X227685600Y-163423600D01*
X220292649Y-143486151D02*
X222504000Y-145697502D01*
X509066800Y-188061600D02*
X506882400Y-190246000D01*
X507136400Y-125171200D02*
X509574800Y-127609600D01*
X184686699Y-146993099D02*
X184686699Y-162531301D01*
X507136400Y-123596400D02*
X507136400Y-125171200D01*
X508101600Y-147574000D02*
X506476000Y-149199600D01*
X222504000Y-158242000D02*
X227076000Y-162814000D01*
X213261699Y-124615699D02*
X213261699Y-134273061D01*
X340563200Y-154990800D02*
X332638400Y-162915600D01*
X340563200Y-145948400D02*
X340563200Y-154990800D01*
X327406000Y-194259200D02*
X319074800Y-202590400D01*
X327406000Y-168148000D02*
X327406000Y-182981600D01*
X236931200Y-181691562D02*
X236931200Y-182880000D01*
X227685600Y-163423600D02*
X227685600Y-172445962D01*
X227685600Y-172445962D02*
X236931200Y-181691562D01*
X218942638Y-139954000D02*
X218942638Y-142136140D01*
X335432400Y-140817600D02*
X338150200Y-143535400D01*
X335432400Y-125730000D02*
X335432400Y-140817600D01*
X222504000Y-145697502D02*
X222504000Y-158242000D01*
X218942638Y-142136140D02*
X220292649Y-143486151D01*
X213261699Y-134273061D02*
X218942638Y-139954000D01*
X507542800Y-90474800D02*
X511873500Y-94805500D01*
X511873500Y-118859300D02*
X507136400Y-123596400D01*
X511873500Y-94805500D02*
X511873500Y-98996500D01*
X213207600Y-124561600D02*
X213207600Y-120942100D01*
X202603100Y-110337600D02*
X202603100Y-98513900D01*
X213207600Y-120942100D02*
X202603100Y-110337600D01*
X109461300Y-98386900D02*
X106781600Y-98386900D01*
X96723200Y-108445300D02*
X96723200Y-124714000D01*
X106781600Y-98386900D02*
X96723200Y-108445300D01*
X174653699Y-124304301D02*
X174653699Y-122202699D01*
X174653699Y-122202699D02*
X162687000Y-110236000D01*
X159062138Y-110236000D02*
X156718000Y-107891862D01*
X162687000Y-110236000D02*
X159062138Y-110236000D01*
X156718000Y-107891862D02*
X156718000Y-103859638D01*
X260400800Y-143408400D02*
X260400800Y-141236700D01*
X260400800Y-141236700D02*
X269938500Y-131699000D01*
X269938500Y-131699000D02*
X269938500Y-124015500D01*
X269938500Y-114808000D02*
X275907500Y-108839000D01*
X275907500Y-108839000D02*
X280931562Y-108839000D01*
X288975800Y-100794762D02*
X288975800Y-98399600D01*
X280931562Y-108839000D02*
X288975800Y-100794762D01*
X334137000Y-124434600D02*
X320103500Y-110401100D01*
X313659238Y-110401100D02*
X311658000Y-108399862D01*
X320103500Y-110401100D02*
X313659238Y-110401100D01*
X311658000Y-108399862D02*
X311658000Y-98171000D01*
X390706099Y-118627401D02*
X390706099Y-124151901D01*
X392442700Y-116890800D02*
X390706099Y-118627401D01*
X390642599Y-155883099D02*
X390642599Y-163566599D01*
X390706099Y-155819599D02*
X390642599Y-155883099D01*
X411035500Y-183959500D02*
X421462700Y-183959500D01*
X390642599Y-163566599D02*
X409924250Y-182848250D01*
X421462700Y-183959500D02*
X431305200Y-193802000D01*
X431305200Y-193802000D02*
X431305200Y-200990700D01*
X431305200Y-200990700D02*
X432149250Y-201834750D01*
X453072500Y-172826962D02*
X456775538Y-176530000D01*
X468185500Y-176530000D02*
X472249500Y-180594000D01*
X456775538Y-176530000D02*
X468185500Y-176530000D01*
X472249500Y-180594000D02*
X472249500Y-182308500D01*
X109461300Y-98386900D02*
X111467900Y-98386900D01*
X115506500Y-105339162D02*
X121101838Y-110934500D01*
X115506500Y-102425500D02*
X115506500Y-105339162D01*
X121101838Y-110934500D02*
X128841500Y-110934500D01*
X128841500Y-110934500D02*
X135636000Y-117729000D01*
X135636000Y-117729000D02*
X135636000Y-124206000D01*
X135636000Y-135994702D02*
X143108399Y-143467101D01*
X135636000Y-124206000D02*
X135636000Y-135994702D01*
X146050000Y-146408702D02*
X146050000Y-161671000D01*
X150968199Y-166589199D02*
X150968199Y-178215801D01*
X146050000Y-161671000D02*
X147351750Y-162972750D01*
X150968199Y-178215801D02*
X148463000Y-180721000D01*
X142882398Y-180721000D02*
X140970000Y-182633398D01*
X148463000Y-180721000D02*
X142882398Y-180721000D01*
X147351750Y-162972750D02*
X150968199Y-166589199D01*
X143108399Y-143467101D02*
X146050000Y-146408702D01*
X392442700Y-98348800D02*
X392442700Y-116890800D01*
X390706099Y-124151901D02*
X390706099Y-143392401D01*
X390706099Y-143392401D02*
X390706099Y-155819599D01*
X409924250Y-182848250D02*
X411035500Y-183959500D01*
X432149250Y-201834750D02*
X432181000Y-201866500D01*
X472249500Y-182308500D02*
X472249500Y-199631300D01*
X453072500Y-162941000D02*
X453072500Y-172826962D01*
X453072500Y-143446500D02*
X453072500Y-162941000D01*
X453072500Y-124206000D02*
X453072500Y-143446500D01*
X453072500Y-117284500D02*
X453072500Y-124206000D01*
X453072500Y-98425000D02*
X453072500Y-117284500D01*
X511873500Y-98996500D02*
X511873500Y-118859300D01*
D20*
X487426500Y-90424500D02*
X487476800Y-90474800D01*
X487426500Y-72961500D02*
X487426500Y-90424500D01*
D19*
X487476800Y-90474800D02*
X507542800Y-90474800D01*
X430911000Y-79883000D02*
X430911000Y-70104000D01*
X422783000Y-88011000D02*
X428561500Y-82232500D01*
X486123499Y-61206501D02*
X486918000Y-60412000D01*
X439808499Y-61206501D02*
X486123499Y-61206501D01*
X430911000Y-70104000D02*
X439808499Y-61206501D01*
X428561500Y-82232500D02*
X430911000Y-79883000D01*
D18*
X407924000Y-87757000D02*
X408178000Y-88011000D01*
X407924000Y-84201000D02*
X407924000Y-87757000D01*
D19*
X408178000Y-88011000D02*
X422783000Y-88011000D01*
X487426500Y-92074500D02*
X481838000Y-97663000D01*
X453834500Y-97663000D02*
X453072500Y-98425000D01*
X481838000Y-97663000D02*
X453834500Y-97663000D01*
X392766499Y-98025001D02*
X392442700Y-98348800D01*
X452672501Y-98025001D02*
X392766499Y-98025001D01*
X453072500Y-98425000D02*
X452672501Y-98025001D01*
X311880199Y-97948801D02*
X311658000Y-98171000D01*
X392042701Y-97948801D02*
X311880199Y-97948801D01*
X392442700Y-98348800D02*
X392042701Y-97948801D01*
X289604399Y-97771001D02*
X288975800Y-98399600D01*
X311258001Y-97771001D02*
X289604399Y-97771001D01*
X311658000Y-98171000D02*
X311258001Y-97771001D01*
X203117399Y-97999601D02*
X202603100Y-98513900D01*
X288575801Y-97999601D02*
X203117399Y-97999601D01*
X288975800Y-98399600D02*
X288575801Y-97999601D01*
X202603100Y-98513900D02*
X202173499Y-98084299D01*
X116037701Y-98084299D02*
X113601500Y-100520500D01*
X150942661Y-98084299D02*
X116037701Y-98084299D01*
X151460681Y-98602319D02*
X150942661Y-98084299D01*
X113601500Y-100520500D02*
X115506500Y-102425500D01*
X111467900Y-98386900D02*
X113601500Y-100520500D01*
X153746681Y-100888319D02*
X156550701Y-98084299D01*
X156550701Y-98084299D02*
X158582701Y-98084299D01*
X202173499Y-98084299D02*
X158582701Y-98084299D01*
X156718000Y-103859638D02*
X153746681Y-100888319D01*
X153746681Y-100888319D02*
X151460681Y-98602319D01*
X408178000Y-88011000D02*
X401955000Y-88011000D01*
X401955000Y-88011000D02*
X396621000Y-93345000D01*
X97028000Y-93345000D02*
X94869000Y-91186000D01*
X91550762Y-86487000D02*
X81661000Y-86487000D01*
X94869000Y-89805238D02*
X91550762Y-86487000D01*
X94869000Y-91186000D02*
X94869000Y-89805238D01*
X102489000Y-98449262D02*
X91186000Y-109752262D01*
X102489000Y-93345000D02*
X102489000Y-98449262D01*
X396621000Y-93345000D02*
X102489000Y-93345000D01*
X102489000Y-93345000D02*
X97028000Y-93345000D01*
X91186000Y-109752262D02*
X91186000Y-114427000D01*
X91186000Y-114427000D02*
X92202000Y-115443000D01*
D20*
X487426500Y-90424500D02*
X487426500Y-92074500D01*
D19*
X506476000Y-149504400D02*
X506476000Y-152806400D01*
X269938500Y-124015500D02*
X269938500Y-114808000D01*
D21*
%TO.N,PICO_33_REF*%
X441490000Y-72627500D02*
X438086500Y-76031000D01*
X456565000Y-72627500D02*
X441490000Y-72627500D01*
%TD*%
M02*
