%TF.GenerationSoftware,KiCad,Pcbnew,(5.1.9)-1*%
%TF.CreationDate,2021-03-21T14:48:51+10:00*%
%TF.ProjectId,RedPyKeeb,52656450-794b-4656-9562-2e6b69636164,rev?*%
%TF.SameCoordinates,Original*%
%TF.FileFunction,Copper,L3,Inr*%
%TF.FilePolarity,Positive*%
%FSLAX46Y46*%
G04 Gerber Fmt 4.6, Leading zero omitted, Abs format (unit mm)*
G04 Created by KiCad (PCBNEW (5.1.9)-1) date 2021-03-21 14:48:51*
%MOMM*%
%LPD*%
G01*
G04 APERTURE LIST*
%TA.AperFunction,ComponentPad*%
%ADD10O,1.700000X1.700000*%
%TD*%
%TA.AperFunction,ComponentPad*%
%ADD11R,1.700000X1.700000*%
%TD*%
%TA.AperFunction,ComponentPad*%
%ADD12C,1.600000*%
%TD*%
%TA.AperFunction,ComponentPad*%
%ADD13R,1.600000X1.600000*%
%TD*%
%TA.AperFunction,ComponentPad*%
%ADD14O,1.950000X1.700000*%
%TD*%
%TA.AperFunction,ViaPad*%
%ADD15C,0.800000*%
%TD*%
%TA.AperFunction,Conductor*%
%ADD16C,0.508000*%
%TD*%
%TA.AperFunction,Conductor*%
%ADD17C,0.500000*%
%TD*%
G04 APERTURE END LIST*
D10*
%TO.N,PICO_SDA0*%
%TO.C,U0*%
X133208700Y-67719300D03*
%TO.N,PICO_SCL0*%
X130668700Y-67719300D03*
D11*
%TO.N,Net-(U0-Pad3)*%
X128128700Y-67719300D03*
D10*
%TO.N,PICO_33_REF*%
X125588700Y-67719300D03*
%TO.N,Net-(U0-Pad5)*%
X123048700Y-67719300D03*
%TO.N,Net-(U0-Pad6)*%
X120508700Y-67719300D03*
%TO.N,Net-(U0-Pad7)*%
X117968700Y-67719300D03*
D11*
%TO.N,Net-(U0-Pad8)*%
X115428700Y-67719300D03*
D10*
%TO.N,Net-(U0-Pad9)*%
X112888700Y-67719300D03*
%TO.N,Net-(U0-Pad10)*%
X110348700Y-67719300D03*
%TO.N,Net-(U0-Pad11)*%
X107808700Y-67719300D03*
%TO.N,Net-(U0-Pad12)*%
X105268700Y-67719300D03*
D11*
%TO.N,Net-(U0-Pad13)*%
X102728700Y-67719300D03*
D10*
%TO.N,Net-(U0-Pad14)*%
X100188700Y-67719300D03*
%TO.N,Net-(U0-Pad15)*%
X97648700Y-67719300D03*
%TO.N,Net-(U0-Pad16)*%
X95108700Y-67719300D03*
%TO.N,Net-(U0-Pad17)*%
X92568700Y-67719300D03*
D11*
%TO.N,Net-(U0-Pad18)*%
X90028700Y-67719300D03*
D10*
%TO.N,Net-(U0-Pad19)*%
X87488700Y-67719300D03*
%TO.N,Net-(U0-Pad20)*%
X84948700Y-67719300D03*
%TO.N,Net-(U0-Pad21)*%
X84948700Y-49939300D03*
%TO.N,Net-(U0-Pad22)*%
X87488700Y-49939300D03*
D11*
%TO.N,Net-(U0-Pad23)*%
X90028700Y-49939300D03*
D10*
%TO.N,Net-(U0-Pad24)*%
X92568700Y-49939300D03*
%TO.N,Net-(U0-Pad25)*%
X95108700Y-49939300D03*
%TO.N,Net-(U0-Pad26)*%
X97648700Y-49939300D03*
%TO.N,Net-(U0-Pad27)*%
X100188700Y-49939300D03*
D11*
%TO.N,Net-(U0-Pad28)*%
X102728700Y-49939300D03*
D10*
%TO.N,Net-(U0-Pad29)*%
X105268700Y-49939300D03*
%TO.N,PICO_RUN*%
X107808700Y-49939300D03*
%TO.N,Net-(U0-Pad31)*%
X110348700Y-49939300D03*
%TO.N,Net-(U0-Pad32)*%
X112888700Y-49939300D03*
D11*
%TO.N,Net-(U0-Pad33)*%
X115428700Y-49939300D03*
D10*
%TO.N,Net-(U0-Pad34)*%
X117968700Y-49939300D03*
%TO.N,Net-(U0-Pad35)*%
X120508700Y-49939300D03*
%TO.N,Net-(U0-Pad36)*%
X123048700Y-49939300D03*
%TO.N,Net-(U0-Pad37)*%
X125588700Y-49939300D03*
D11*
%TO.N,Net-(U0-Pad38)*%
X128128700Y-49939300D03*
D10*
%TO.N,MAIN_VBUS*%
X130668700Y-49939300D03*
%TO.N,Net-(U0-Pad40)*%
X133208700Y-49939300D03*
%TO.N,Net-(U0-Pad41)*%
X85178700Y-61369300D03*
D11*
%TO.N,Net-(U0-Pad42)*%
X85178700Y-58829300D03*
D10*
%TO.N,Net-(U0-Pad43)*%
X85178700Y-56289300D03*
%TD*%
D12*
%TO.N,Net-(D0\u002C3-Pad2)*%
%TO.C,D0\u002C3*%
X92405200Y-172225800D03*
D13*
%TO.N,KEY_ROW3*%
X92405200Y-164425800D03*
%TD*%
D12*
%TO.N,Net-(D0\u002C5-Pad2)*%
%TO.C,D0\u002C5*%
X87769700Y-211341800D03*
D13*
%TO.N,KEY_ROW5*%
X87769700Y-203541800D03*
%TD*%
D12*
%TO.N,Net-(D0\u002C4-Pad2)*%
%TO.C,D0\u002C4*%
X97167700Y-191974300D03*
D13*
%TO.N,KEY_ROW4*%
X97167700Y-184174300D03*
%TD*%
D12*
%TO.N,Net-(D0\u002C0-Pad2)*%
%TO.C,D0\u002C0*%
X85356700Y-95390800D03*
D13*
%TO.N,KEY_ROW0*%
X85356700Y-87590800D03*
%TD*%
D12*
%TO.N,Net-(D0\u002C2-Pad2)*%
%TO.C,D0\u002C2*%
X89865200Y-152667800D03*
D13*
%TO.N,KEY_ROW2*%
X89865200Y-144867800D03*
%TD*%
D12*
%TO.N,Net-(D0\u002C1-Pad2)*%
%TO.C,D0\u002C1*%
X85356700Y-133490800D03*
D13*
%TO.N,KEY_ROW1*%
X85356700Y-125690800D03*
%TD*%
D12*
%TO.N,Net-(D1\u002C3-Pad2)*%
%TO.C,D1\u002C3*%
X118694200Y-172098800D03*
D13*
%TO.N,KEY_ROW3*%
X118694200Y-164298800D03*
%TD*%
D12*
%TO.N,Net-(D1\u002C0-Pad2)*%
%TO.C,D1\u002C0*%
X124980700Y-95441600D03*
D13*
%TO.N,KEY_ROW0*%
X124980700Y-87641600D03*
%TD*%
D12*
%TO.N,Net-(D1\u002C4-Pad2)*%
%TO.C,D1\u002C4*%
X128092200Y-191910800D03*
D13*
%TO.N,KEY_ROW4*%
X128092200Y-184110800D03*
%TD*%
D12*
%TO.N,Net-(D1\u002C5-Pad2)*%
%TO.C,D1\u002C5*%
X112153700Y-211341800D03*
D13*
%TO.N,KEY_ROW5*%
X112153700Y-203541800D03*
%TD*%
D12*
%TO.N,Net-(D1\u002C1-Pad2)*%
%TO.C,D1\u002C1*%
X104660700Y-133490800D03*
D13*
%TO.N,KEY_ROW1*%
X104660700Y-125690800D03*
%TD*%
D12*
%TO.N,Net-(D1\u002C2-Pad2)*%
%TO.C,D1\u002C2*%
X113804700Y-152667800D03*
D13*
%TO.N,KEY_ROW2*%
X113804700Y-144867800D03*
%TD*%
D12*
%TO.N,Net-(D2\u002C4-Pad2)*%
%TO.C,D2\u002C4*%
X147396200Y-191910800D03*
D13*
%TO.N,KEY_ROW4*%
X147396200Y-184110800D03*
%TD*%
D12*
%TO.N,Net-(D2\u002C5-Pad2)*%
%TO.C,D2\u002C5*%
X136537700Y-211341800D03*
D13*
%TO.N,KEY_ROW5*%
X136537700Y-203541800D03*
%TD*%
D12*
%TO.N,Net-(D2\u002C0-Pad2)*%
%TO.C,D2\u002C0*%
X144284700Y-95390800D03*
D13*
%TO.N,KEY_ROW0*%
X144284700Y-87590800D03*
%TD*%
D12*
%TO.N,Net-(D2\u002C2-Pad2)*%
%TO.C,D2\u002C2*%
X133108700Y-152667800D03*
D13*
%TO.N,KEY_ROW2*%
X133108700Y-144867800D03*
%TD*%
D12*
%TO.N,Net-(D2\u002C1-Pad2)*%
%TO.C,D2\u002C1*%
X123583700Y-133427300D03*
D13*
%TO.N,KEY_ROW1*%
X123583700Y-125627300D03*
%TD*%
D12*
%TO.N,Net-(D2\u002C3-Pad2)*%
%TO.C,D2\u002C3*%
X137998200Y-172098800D03*
D13*
%TO.N,KEY_ROW3*%
X137998200Y-164298800D03*
%TD*%
D12*
%TO.N,Net-(D3\u002C0-Pad2)*%
%TO.C,D3\u002C0*%
X163588700Y-95390800D03*
D13*
%TO.N,KEY_ROW0*%
X163588700Y-87590800D03*
%TD*%
D12*
%TO.N,Net-(D3\u002C1-Pad2)*%
%TO.C,D3\u002C1*%
X142379700Y-133427300D03*
D13*
%TO.N,KEY_ROW1*%
X142379700Y-125627300D03*
%TD*%
D12*
%TO.N,Net-(D3\u002C4-Pad2)*%
%TO.C,D3\u002C4*%
X166700200Y-191910800D03*
D13*
%TO.N,KEY_ROW4*%
X166700200Y-184110800D03*
%TD*%
D12*
%TO.N,Net-(D3\u002C2-Pad2)*%
%TO.C,D3\u002C2*%
X152412700Y-152667800D03*
D13*
%TO.N,KEY_ROW2*%
X152412700Y-144867800D03*
%TD*%
D12*
%TO.N,Net-(D3\u002C5-Pad2)*%
%TO.C,D3\u002C5*%
X208419700Y-211341800D03*
D13*
%TO.N,KEY_ROW5*%
X208419700Y-203541800D03*
%TD*%
D12*
%TO.N,Net-(D3\u002C3-Pad2)*%
%TO.C,D3\u002C3*%
X157302200Y-172098800D03*
D13*
%TO.N,KEY_ROW3*%
X157302200Y-164298800D03*
%TD*%
D12*
%TO.N,Net-(D4\u002C4-Pad2)*%
%TO.C,D4\u002C4*%
X186004200Y-191910800D03*
D13*
%TO.N,KEY_ROW4*%
X186004200Y-184110800D03*
%TD*%
D12*
%TO.N,Net-(D4\u002C3-Pad2)*%
%TO.C,D4\u002C3*%
X176606200Y-172098800D03*
D13*
%TO.N,KEY_ROW3*%
X176606200Y-164298800D03*
%TD*%
D12*
%TO.N,Net-(D4\u002C1-Pad2)*%
%TO.C,D4\u002C1*%
X161683700Y-133427300D03*
D13*
%TO.N,KEY_ROW1*%
X161683700Y-125627300D03*
%TD*%
D12*
%TO.N,Net-(D4\u002C0-Pad2)*%
%TO.C,D4\u002C0*%
X182892700Y-95390800D03*
D13*
%TO.N,KEY_ROW0*%
X182892700Y-87590800D03*
%TD*%
%TO.N,KEY_ROW2*%
%TO.C,D4\u002C2*%
X171716700Y-144867800D03*
D12*
%TO.N,Net-(D4\u002C2-Pad2)*%
X171716700Y-152667800D03*
%TD*%
%TO.N,Net-(D5\u002C0-Pad2)*%
%TO.C,D5\u002C0*%
X214388700Y-95390800D03*
D13*
%TO.N,KEY_ROW0*%
X214388700Y-87590800D03*
%TD*%
%TO.N,KEY_ROW2*%
%TO.C,D5\u002C2*%
X191020700Y-144867800D03*
D12*
%TO.N,Net-(D5\u002C2-Pad2)*%
X191020700Y-152667800D03*
%TD*%
%TO.N,Net-(D5\u002C1-Pad2)*%
%TO.C,D5\u002C1*%
X180987700Y-133427300D03*
D13*
%TO.N,KEY_ROW1*%
X180987700Y-125627300D03*
%TD*%
D12*
%TO.N,Net-(D5\u002C3-Pad2)*%
%TO.C,D5\u002C3*%
X195910200Y-172149600D03*
D13*
%TO.N,KEY_ROW3*%
X195910200Y-164349600D03*
%TD*%
D12*
%TO.N,Net-(D5\u002C4-Pad2)*%
%TO.C,D5\u002C4*%
X205308200Y-191961600D03*
D13*
%TO.N,KEY_ROW4*%
X205308200Y-184161600D03*
%TD*%
D12*
%TO.N,Net-(D6\u002C0-Pad2)*%
%TO.C,D6\u002C0*%
X233692700Y-95390800D03*
D13*
%TO.N,KEY_ROW0*%
X233692700Y-87590800D03*
%TD*%
D12*
%TO.N,Net-(D6\u002C3-Pad2)*%
%TO.C,D6\u002C3*%
X215214200Y-172098800D03*
D13*
%TO.N,KEY_ROW3*%
X215214200Y-164298800D03*
%TD*%
D12*
%TO.N,Net-(D6\u002C4-Pad2)*%
%TO.C,D6\u002C4*%
X224612200Y-191910800D03*
D13*
%TO.N,KEY_ROW4*%
X224612200Y-184110800D03*
%TD*%
D12*
%TO.N,Net-(D6\u002C1-Pad2)*%
%TO.C,D6\u002C1*%
X200291700Y-133427300D03*
D13*
%TO.N,KEY_ROW1*%
X200291700Y-125627300D03*
%TD*%
%TO.N,KEY_ROW2*%
%TO.C,D6\u002C2*%
X210324700Y-144867800D03*
D12*
%TO.N,Net-(D6\u002C2-Pad2)*%
X210324700Y-152667800D03*
%TD*%
%TO.N,Net-(D7\u002C4-Pad2)*%
%TO.C,D7\u002C4*%
X243916200Y-191961600D03*
D13*
%TO.N,KEY_ROW4*%
X243916200Y-184161600D03*
%TD*%
%TO.N,KEY_ROW2*%
%TO.C,D7\u002C2*%
X229628700Y-144918600D03*
D12*
%TO.N,Net-(D7\u002C2-Pad2)*%
X229628700Y-152718600D03*
%TD*%
%TO.N,Net-(D7\u002C1-Pad2)*%
%TO.C,D7\u002C1*%
X219595700Y-133427300D03*
D13*
%TO.N,KEY_ROW1*%
X219595700Y-125627300D03*
%TD*%
D12*
%TO.N,Net-(D7\u002C0-Pad2)*%
%TO.C,D7\u002C0*%
X252996700Y-95390800D03*
D13*
%TO.N,KEY_ROW0*%
X252996700Y-87590800D03*
%TD*%
D12*
%TO.N,Net-(D7\u002C3-Pad2)*%
%TO.C,D7\u002C3*%
X234518200Y-172098800D03*
D13*
%TO.N,KEY_ROW3*%
X234518200Y-164298800D03*
%TD*%
D12*
%TO.N,Net-(D8\u002C0-Pad2)*%
%TO.C,D8\u002C0*%
X272300700Y-95441600D03*
D13*
%TO.N,KEY_ROW0*%
X272300700Y-87641600D03*
%TD*%
D12*
%TO.N,Net-(D8\u002C3-Pad2)*%
%TO.C,D8\u002C3*%
X253822200Y-172098800D03*
D13*
%TO.N,KEY_ROW3*%
X253822200Y-164298800D03*
%TD*%
D12*
%TO.N,Net-(D8\u002C1-Pad2)*%
%TO.C,D8\u002C1*%
X238899700Y-133427300D03*
D13*
%TO.N,KEY_ROW1*%
X238899700Y-125627300D03*
%TD*%
%TO.N,KEY_ROW2*%
%TO.C,D8\u002C2*%
X248932700Y-144867800D03*
D12*
%TO.N,Net-(D8\u002C2-Pad2)*%
X248932700Y-152667800D03*
%TD*%
%TO.N,Net-(D8\u002C5-Pad2)*%
%TO.C,D8\u002C5*%
X280174700Y-211405300D03*
D13*
%TO.N,KEY_ROW5*%
X280174700Y-203605300D03*
%TD*%
D12*
%TO.N,Net-(D8\u002C4-Pad2)*%
%TO.C,D8\u002C4*%
X263220200Y-191910800D03*
D13*
%TO.N,KEY_ROW4*%
X263220200Y-184110800D03*
%TD*%
%TO.N,KEY_ROW2*%
%TO.C,D9\u002C2*%
X268236700Y-144867800D03*
D12*
%TO.N,Net-(D9\u002C2-Pad2)*%
X268236700Y-152667800D03*
%TD*%
%TO.N,Net-(D9\u002C1-Pad2)*%
%TO.C,D9\u002C1*%
X258203700Y-133478100D03*
D13*
%TO.N,KEY_ROW1*%
X258203700Y-125678100D03*
%TD*%
D12*
%TO.N,Net-(D9\u002C3-Pad2)*%
%TO.C,D9\u002C3*%
X273126200Y-172098800D03*
D13*
%TO.N,KEY_ROW3*%
X273126200Y-164298800D03*
%TD*%
D12*
%TO.N,Net-(D9\u002C4-Pad2)*%
%TO.C,D9\u002C4*%
X282524200Y-191910800D03*
D13*
%TO.N,KEY_ROW4*%
X282524200Y-184110800D03*
%TD*%
D12*
%TO.N,Net-(D9\u002C5-Pad2)*%
%TO.C,D9\u002C5*%
X304304700Y-211341800D03*
D13*
%TO.N,KEY_ROW5*%
X304304700Y-203541800D03*
%TD*%
D12*
%TO.N,Net-(D9\u002C0-Pad2)*%
%TO.C,D9\u002C0*%
X298716700Y-95390800D03*
D13*
%TO.N,KEY_ROW0*%
X298716700Y-87590800D03*
%TD*%
D12*
%TO.N,Net-(D10\u002C4-Pad2)*%
%TO.C,D10\u002C4*%
X301828200Y-191961600D03*
D13*
%TO.N,KEY_ROW4*%
X301828200Y-184161600D03*
%TD*%
D12*
%TO.N,Net-(D10\u002C5-Pad2)*%
%TO.C,D10\u002C5*%
X328498200Y-211341800D03*
D13*
%TO.N,KEY_ROW5*%
X328498200Y-203541800D03*
%TD*%
D12*
%TO.N,Net-(D10\u002C1-Pad2)*%
%TO.C,D10\u002C1*%
X277507700Y-133427300D03*
D13*
%TO.N,KEY_ROW1*%
X277507700Y-125627300D03*
%TD*%
D12*
%TO.N,Net-(D10\u002C0-Pad2)*%
%TO.C,D10\u002C0*%
X318020700Y-95390800D03*
D13*
%TO.N,KEY_ROW0*%
X318020700Y-87590800D03*
%TD*%
%TO.N,KEY_ROW2*%
%TO.C,D10\u002C2*%
X287540700Y-144918600D03*
D12*
%TO.N,Net-(D10\u002C2-Pad2)*%
X287540700Y-152718600D03*
%TD*%
%TO.N,Net-(D10\u002C3-Pad2)*%
%TO.C,D10\u002C3*%
X292430200Y-172098800D03*
D13*
%TO.N,KEY_ROW3*%
X292430200Y-164298800D03*
%TD*%
D12*
%TO.N,Net-(D11\u002C0-Pad2)*%
%TO.C,D11\u002C0*%
X337324700Y-95390800D03*
D13*
%TO.N,KEY_ROW0*%
X337324700Y-87590800D03*
%TD*%
D12*
%TO.N,Net-(D11\u002C1-Pad2)*%
%TO.C,D11\u002C1*%
X296811700Y-133427300D03*
D13*
%TO.N,KEY_ROW1*%
X296811700Y-125627300D03*
%TD*%
D12*
%TO.N,Net-(D11\u002C3-Pad2)*%
%TO.C,D11\u002C3*%
X311734200Y-172098800D03*
D13*
%TO.N,KEY_ROW3*%
X311734200Y-164298800D03*
%TD*%
%TO.N,KEY_ROW2*%
%TO.C,D11\u002C2*%
X306844700Y-144867800D03*
D12*
%TO.N,Net-(D11\u002C2-Pad2)*%
X306844700Y-152667800D03*
%TD*%
%TO.N,Net-(D11\u002C4-Pad2)*%
%TO.C,D11\u002C4*%
X338404200Y-191910800D03*
D13*
%TO.N,KEY_ROW4*%
X338404200Y-184110800D03*
%TD*%
D12*
%TO.N,Net-(D11\u002C5-Pad2)*%
%TO.C,D11\u002C5*%
X352564700Y-211341800D03*
D13*
%TO.N,KEY_ROW5*%
X352564700Y-203541800D03*
%TD*%
D12*
%TO.N,Net-(D12\u002C3-Pad2)*%
%TO.C,D12\u002C3*%
X343230200Y-172162300D03*
D13*
%TO.N,KEY_ROW3*%
X343230200Y-164362300D03*
%TD*%
%TO.N,KEY_ROW2*%
%TO.C,D12\u002C2*%
X326148700Y-144867800D03*
D12*
%TO.N,Net-(D12\u002C2-Pad2)*%
X326148700Y-152667800D03*
%TD*%
%TO.N,Net-(D12\u002C1-Pad2)*%
%TO.C,D12\u002C1*%
X316115700Y-133478100D03*
D13*
%TO.N,KEY_ROW1*%
X316115700Y-125678100D03*
%TD*%
D12*
%TO.N,Net-(D12\u002C0-Pad2)*%
%TO.C,D12\u002C0*%
X356628700Y-95390800D03*
D13*
%TO.N,KEY_ROW0*%
X356628700Y-87590800D03*
%TD*%
D12*
%TO.N,Net-(D13\u002C2-Pad2)*%
%TO.C,D13\u002C2*%
X349961200Y-152731300D03*
D13*
%TO.N,KEY_ROW2*%
X349961200Y-144931300D03*
%TD*%
D12*
%TO.N,Net-(D13\u002C1-Pad2)*%
%TO.C,D13\u002C1*%
X345071700Y-133427300D03*
D13*
%TO.N,KEY_ROW1*%
X345071700Y-125627300D03*
%TD*%
D12*
%TO.N,Net-(D14\u002C1-Pad2)*%
%TO.C,D14\u002C1*%
X383171700Y-133427300D03*
D13*
%TO.N,KEY_ROW1*%
X383171700Y-125627300D03*
%TD*%
D12*
%TO.N,Net-(D14\u002C3-Pad2)*%
%TO.C,D14\u002C3*%
X383425700Y-152667800D03*
D13*
%TO.N,KEY_ROW3*%
X383425700Y-144867800D03*
%TD*%
D12*
%TO.N,Net-(D14\u002C0-Pad2)*%
%TO.C,D14\u002C0*%
X386092700Y-95390800D03*
D13*
%TO.N,KEY_ROW0*%
X386092700Y-87590800D03*
%TD*%
D12*
%TO.N,Net-(D14\u002C6-Pad2)*%
%TO.C,D14\u002C6*%
X383108200Y-211214800D03*
D13*
%TO.N,KEY_ROW6*%
X383108200Y-203414800D03*
%TD*%
D12*
%TO.N,Net-(D15\u002C0-Pad2)*%
%TO.C,D15\u002C0*%
X405904700Y-95390800D03*
D13*
%TO.N,KEY_ROW0*%
X405904700Y-87590800D03*
%TD*%
D12*
%TO.N,Net-(D15\u002C1-Pad2)*%
%TO.C,D15\u002C1*%
X402475700Y-133427300D03*
D13*
%TO.N,KEY_ROW1*%
X402475700Y-125627300D03*
%TD*%
D12*
%TO.N,Net-(D15\u002C3-Pad2)*%
%TO.C,D15\u002C3*%
X402475700Y-152667800D03*
D13*
%TO.N,KEY_ROW3*%
X402475700Y-144867800D03*
%TD*%
D12*
%TO.N,Net-(D15\u002C5-Pad2)*%
%TO.C,D15\u002C5*%
X402412200Y-191910800D03*
D13*
%TO.N,KEY_ROW5*%
X402412200Y-184110800D03*
%TD*%
D12*
%TO.N,Net-(D15\u002C6-Pad2)*%
%TO.C,D15\u002C6*%
X402412200Y-211214800D03*
D13*
%TO.N,KEY_ROW6*%
X402412200Y-203414800D03*
%TD*%
D12*
%TO.N,Net-(D16\u002C6-Pad2)*%
%TO.C,D16\u002C6*%
X421716200Y-211214800D03*
D13*
%TO.N,KEY_ROW6*%
X421716200Y-203414800D03*
%TD*%
D12*
%TO.N,Net-(D16\u002C0-Pad2)*%
%TO.C,D16\u002C0*%
X424954700Y-95390800D03*
D13*
%TO.N,KEY_ROW0*%
X424954700Y-87590800D03*
%TD*%
D12*
%TO.N,Net-(D16\u002C1-Pad2)*%
%TO.C,D16\u002C1*%
X421779700Y-133427300D03*
D13*
%TO.N,KEY_ROW1*%
X421779700Y-125627300D03*
%TD*%
D12*
%TO.N,Net-(D16\u002C5-Pad2)*%
%TO.C,D16\u002C5*%
X454545700Y-191402800D03*
D13*
%TO.N,KEY_ROW5*%
X454545700Y-183602800D03*
%TD*%
D12*
%TO.N,Net-(D16\u002C3-Pad2)*%
%TO.C,D16\u002C3*%
X422033700Y-152667800D03*
D13*
%TO.N,KEY_ROW3*%
X422033700Y-144867800D03*
%TD*%
D12*
%TO.N,Net-(D16\u002C4-Pad2)*%
%TO.C,D16\u002C4*%
X454799700Y-172098800D03*
D13*
%TO.N,KEY_ROW4*%
X454799700Y-164298800D03*
%TD*%
D12*
%TO.N,Net-(D17\u002C3-Pad2)*%
%TO.C,D17\u002C3*%
X454799700Y-152794800D03*
D13*
%TO.N,KEY_ROW3*%
X454799700Y-144994800D03*
%TD*%
D12*
%TO.N,Net-(D17\u002C1-Pad2)*%
%TO.C,D17\u002C1*%
X454799700Y-133427300D03*
D13*
%TO.N,KEY_ROW1*%
X454799700Y-125627300D03*
%TD*%
D12*
%TO.N,Net-(D17\u002C6-Pad2)*%
%TO.C,D17\u002C6*%
X464578700Y-210757600D03*
D13*
%TO.N,KEY_ROW6*%
X464578700Y-202957600D03*
%TD*%
D12*
%TO.N,Net-(D17\u002C4-Pad2)*%
%TO.C,D17\u002C4*%
X474103700Y-172098800D03*
D13*
%TO.N,KEY_ROW4*%
X474103700Y-164298800D03*
%TD*%
D12*
%TO.N,Net-(D17\u002C0-Pad2)*%
%TO.C,D17\u002C0*%
X454672700Y-95390800D03*
D13*
%TO.N,KEY_ROW0*%
X454672700Y-87590800D03*
%TD*%
D12*
%TO.N,Net-(D17\u002C5-Pad2)*%
%TO.C,D17\u002C5*%
X474103700Y-191402800D03*
D13*
%TO.N,KEY_ROW5*%
X474103700Y-183602800D03*
%TD*%
D12*
%TO.N,Net-(D18\u002C1-Pad2)*%
%TO.C,D18\u002C1*%
X474103700Y-133478100D03*
D13*
%TO.N,KEY_ROW1*%
X474103700Y-125678100D03*
%TD*%
D12*
%TO.N,Net-(D18\u002C6-Pad2)*%
%TO.C,D18\u002C6*%
X493407700Y-210706800D03*
D13*
%TO.N,KEY_ROW6*%
X493407700Y-202906800D03*
%TD*%
D12*
%TO.N,Net-(D18\u002C3-Pad2)*%
%TO.C,D18\u002C3*%
X474103700Y-152794800D03*
D13*
%TO.N,KEY_ROW3*%
X474103700Y-144994800D03*
%TD*%
D12*
%TO.N,Net-(D18\u002C0-Pad2)*%
%TO.C,D18\u002C0*%
X473976700Y-95390800D03*
D13*
%TO.N,KEY_ROW0*%
X473976700Y-87590800D03*
%TD*%
D12*
%TO.N,Net-(D18\u002C5-Pad2)*%
%TO.C,D18\u002C5*%
X493407700Y-191402800D03*
D13*
%TO.N,KEY_ROW5*%
X493407700Y-183602800D03*
%TD*%
D12*
%TO.N,Net-(D18\u002C4-Pad2)*%
%TO.C,D18\u002C4*%
X493407700Y-172035300D03*
D13*
%TO.N,KEY_ROW4*%
X493407700Y-164235300D03*
%TD*%
D12*
%TO.N,Net-(D19\u002C4-Pad2)*%
%TO.C,D19\u002C4*%
X512711700Y-162116600D03*
D13*
%TO.N,KEY_ROW4*%
X512711700Y-154316600D03*
%TD*%
D12*
%TO.N,Net-(D19\u002C0-Pad2)*%
%TO.C,D19\u002C0*%
X493280700Y-95390800D03*
D13*
%TO.N,KEY_ROW0*%
X493280700Y-87590800D03*
%TD*%
D12*
%TO.N,Net-(D19\u002C3-Pad2)*%
%TO.C,D19\u002C3*%
X493407700Y-152794800D03*
D13*
%TO.N,KEY_ROW3*%
X493407700Y-144994800D03*
%TD*%
D12*
%TO.N,Net-(D19\u002C1-Pad2)*%
%TO.C,D19\u002C1*%
X493407700Y-133427300D03*
D13*
%TO.N,KEY_ROW1*%
X493407700Y-125627300D03*
%TD*%
D12*
%TO.N,Net-(D19\u002C6-Pad2)*%
%TO.C,D19\u002C6*%
X512965700Y-201054800D03*
D13*
%TO.N,KEY_ROW6*%
X512965700Y-193254800D03*
%TD*%
D12*
%TO.N,Net-(D20\u002C1-Pad2)*%
%TO.C,D20\u002C1*%
X512711700Y-133427300D03*
D13*
%TO.N,KEY_ROW1*%
X512711700Y-125627300D03*
%TD*%
D12*
%TO.N,Net-(D20\u002C0-Pad2)*%
%TO.C,D20\u002C0*%
X512584700Y-95441600D03*
D13*
%TO.N,KEY_ROW0*%
X512584700Y-87641600D03*
%TD*%
D14*
%TO.N,GNDPWR*%
%TO.C,J0*%
X142443200Y-55733300D03*
%TO.N,USB_DN*%
X142443200Y-58233300D03*
%TO.N,USB_DP*%
X142443200Y-60733300D03*
%TO.N,MAIN_VBUS*%
%TA.AperFunction,ComponentPad*%
G36*
G01*
X143168200Y-64083300D02*
X141718200Y-64083300D01*
G75*
G02*
X141468200Y-63833300I0J250000D01*
G01*
X141468200Y-62633300D01*
G75*
G02*
X141718200Y-62383300I250000J0D01*
G01*
X143168200Y-62383300D01*
G75*
G02*
X143418200Y-62633300I0J-250000D01*
G01*
X143418200Y-63833300D01*
G75*
G02*
X143168200Y-64083300I-250000J0D01*
G01*
G37*
%TD.AperFunction*%
%TD*%
%TO.N,Net-(J1-Pad4)*%
%TO.C,J1*%
X142443200Y-41826800D03*
%TO.N,Net-(J1-Pad3)*%
X142443200Y-44326800D03*
%TO.N,PICO_SCL0*%
X142443200Y-46826800D03*
%TO.N,PICO_SDA0*%
%TA.AperFunction,ComponentPad*%
G36*
G01*
X143168200Y-50176800D02*
X141718200Y-50176800D01*
G75*
G02*
X141468200Y-49926800I0J250000D01*
G01*
X141468200Y-48726800D01*
G75*
G02*
X141718200Y-48476800I250000J0D01*
G01*
X143168200Y-48476800D01*
G75*
G02*
X143418200Y-48726800I0J-250000D01*
G01*
X143418200Y-49926800D01*
G75*
G02*
X143168200Y-50176800I-250000J0D01*
G01*
G37*
%TD.AperFunction*%
%TD*%
D15*
%TO.N,KEY_ROW6*%
X71513700Y-128638300D03*
%TO.N,I2C_SDA0*%
X74625200Y-87426800D03*
X67005200Y-97586800D03*
X71513700Y-121018300D03*
%TO.N,I2C_SCL0*%
X73101200Y-86918800D03*
X66497200Y-99110800D03*
X71577200Y-122478800D03*
X66497200Y-103174800D03*
%TO.N,GNDPWR*%
X56845200Y-98094800D03*
X75576200Y-78855800D03*
X75811700Y-92697300D03*
X73111200Y-116372800D03*
X148729200Y-73202800D03*
X111709200Y-97967800D03*
%TO.N,KEY_COL6*%
X80403700Y-134988300D03*
X215187200Y-130760800D03*
%TO.N,KEY_COL5*%
X80657700Y-133718300D03*
X195883200Y-130848100D03*
%TO.N,KEY_COL4*%
X80530700Y-132448300D03*
X176579200Y-130760800D03*
%TO.N,KEY_COL3*%
X80657700Y-131178300D03*
X157275200Y-130760800D03*
%TO.N,KEY_COL2*%
X80530700Y-129908300D03*
X138479200Y-130760800D03*
%TO.N,KEY_COL1*%
X119276800Y-130860800D03*
X80657700Y-128638300D03*
%TO.N,KEY_COL7*%
X80721200Y-104190800D03*
X267892200Y-92811600D03*
%TO.N,KEY_COL8*%
X80467200Y-105460800D03*
X287196200Y-92811600D03*
%TO.N,KEY_COL9*%
X80721200Y-106730800D03*
X313612200Y-92811600D03*
%TO.N,KEY_COL10*%
X80467200Y-108000800D03*
X332916200Y-92811600D03*
%TO.N,KEY_COL11*%
X80721200Y-109270800D03*
X352220200Y-92811600D03*
%TO.N,KEY_COL12*%
X80467200Y-110540800D03*
X371524200Y-92811600D03*
%TO.N,KEY_COL13*%
X80721200Y-111810800D03*
X359776700Y-130797300D03*
%TO.N,KEY_COL19*%
X71577200Y-106730800D03*
X508176200Y-92811600D03*
%TO.N,KEY_COL18*%
X71323200Y-108000800D03*
X488872200Y-92811600D03*
%TO.N,KEY_COL17*%
X71577200Y-109270800D03*
X469568200Y-92811600D03*
%TO.N,KEY_COL16*%
X71323200Y-110540800D03*
X439850200Y-92811600D03*
%TO.N,KEY_COL15*%
X420546200Y-92811600D03*
X82245200Y-117906800D03*
%TO.N,KEY_COL14*%
X70815200Y-113080800D03*
X400988200Y-92811600D03*
%TO.N,LED_SCL_ROW1*%
X55765700Y-112763300D03*
X88341200Y-121970800D03*
%TO.N,LED_SDA_ROW1*%
X55638700Y-111493300D03*
X89357200Y-120446800D03*
%TO.N,LED_SCL_ROW3*%
X55257700Y-117843300D03*
X79197200Y-159054800D03*
%TO.N,LED_SDA_ROW3*%
X55511700Y-116573300D03*
X79705200Y-157022800D03*
%TO.N,LED_SCL_ROW2*%
X55765700Y-115303300D03*
X93421200Y-140766800D03*
%TO.N,LED_SDA_ROW2*%
X55511700Y-114033300D03*
X93929200Y-139242800D03*
%TO.N,LED_SCL_ROW0*%
X51257200Y-94030800D03*
X54813200Y-90474800D03*
%TO.N,LED_SDA_ROW6*%
X373329200Y-206806800D03*
X87325200Y-198678800D03*
%TO.N,LED_SCL_ROW6*%
X372513209Y-208530809D03*
X86817200Y-200202800D03*
%TO.N,MAIN_VBUS*%
X59893200Y-98094800D03*
X75641200Y-116382800D03*
X352400200Y-163058300D03*
X346405200Y-163118800D03*
X65735200Y-82092800D03*
X79070200Y-82473800D03*
X73101200Y-92506800D03*
X74117200Y-102158800D03*
X58877200Y-107746800D03*
X140729200Y-73202800D03*
X113969800Y-86131400D03*
X155969181Y-86346819D03*
X207111600Y-86258400D03*
X293484300Y-86144100D03*
X443763400Y-86487000D03*
X101295200Y-124714000D03*
X179225699Y-124304301D03*
X217779600Y-124561600D03*
X338709000Y-124434600D03*
X445973200Y-124358400D03*
X525703800Y-82423000D03*
X526288000Y-108915200D03*
X526288000Y-123596400D03*
X525627600Y-152806400D03*
X526034000Y-190246000D03*
X101733831Y-143782569D03*
X185623200Y-143357600D03*
X224864649Y-143486151D03*
X342722200Y-143535400D03*
X445973200Y-143357600D03*
X527253200Y-147574000D03*
X113538000Y-162814000D03*
X189258699Y-162531301D03*
X231648000Y-162814000D03*
X337210400Y-162915600D03*
X445973200Y-161442400D03*
X113538000Y-183235600D03*
X183899699Y-182883699D03*
X241503200Y-182880000D03*
X331978000Y-182981600D03*
X445973200Y-182930800D03*
X445973200Y-201980800D03*
X323646800Y-202590400D03*
X241503200Y-202234800D03*
X181660800Y-202133200D03*
X110210600Y-201955400D03*
X514705600Y-181356000D03*
%TO.N,IO_INT0*%
X76657200Y-125018800D03*
X70815200Y-85648800D03*
%TO.N,IO_INT1*%
X76657200Y-126542800D03*
X69545200Y-85902800D03*
%TO.N,IO_INT2*%
X74625200Y-103682800D03*
X68275200Y-86156800D03*
%TO.N,IO_INT3*%
X75133200Y-104698800D03*
X67005200Y-87934800D03*
%TO.N,KEY_ROW5*%
X71386700Y-129908300D03*
%TO.N,KEY_ROW4*%
X73037700Y-131178300D03*
%TO.N,KEY_ROW3*%
X73418700Y-132448300D03*
%TO.N,KEY_ROW2*%
X74561700Y-133718300D03*
%TO.N,KEY_ROW1*%
X76466700Y-134988300D03*
%TO.N,KEY_ROW0*%
X71513700Y-136258300D03*
%TO.N,LED_SCL_ROW7*%
X458724000Y-108813600D03*
X76657200Y-205282800D03*
X60718700Y-108953300D03*
X61417200Y-128574800D03*
%TO.N,LED_SDA_ROW7*%
X458848000Y-107413600D03*
X79705200Y-205790800D03*
%TO.N,PICO_33_REF*%
X56019700Y-102603300D03*
%TO.N,KEY_COL20*%
X71323200Y-105460800D03*
X527480200Y-92811600D03*
%TD*%
D16*
%TO.N,KEY_ROW6*%
X381801200Y-203414800D02*
X383108200Y-203414800D01*
X88998778Y-214426800D02*
X370789200Y-214426800D01*
X370789200Y-214426800D02*
X381801200Y-203414800D01*
X82753200Y-208181222D02*
X88998778Y-214426800D01*
X70532699Y-136541221D02*
X80346278Y-146354800D01*
X70532699Y-129053616D02*
X70532699Y-136541221D01*
X70948015Y-128638300D02*
X70532699Y-129053616D01*
X71513700Y-128638300D02*
X70948015Y-128638300D01*
X82753200Y-147370800D02*
X82753200Y-208181222D01*
X81737200Y-146354800D02*
X82753200Y-147370800D01*
X80346278Y-146354800D02*
X81737200Y-146354800D01*
%TO.N,I2C_SDA0*%
X74625200Y-87426800D02*
X66497200Y-95554800D01*
X66497200Y-95554800D02*
X66497200Y-97078800D01*
X66497200Y-97078800D02*
X67005200Y-97586800D01*
X67005200Y-97586800D02*
X69037200Y-99618800D01*
X69037200Y-99618800D02*
X69037200Y-118414800D01*
X71513700Y-120891300D02*
X71513700Y-121018300D01*
X69037200Y-118414800D02*
X71513700Y-120891300D01*
%TO.N,I2C_SCL0*%
X73101200Y-86918800D02*
X65481200Y-94538800D01*
X65481200Y-94538800D02*
X65481200Y-98602800D01*
X65481200Y-98602800D02*
X65989200Y-99110800D01*
X65989200Y-99110800D02*
X66497200Y-99110800D01*
X66497200Y-99110800D02*
X66497200Y-117398800D01*
X66497200Y-117398800D02*
X67513200Y-118414800D01*
X67513200Y-118414800D02*
X71069200Y-121970800D01*
X71069200Y-121970800D02*
X71577200Y-122478800D01*
%TO.N,KEY_COL6*%
X83602241Y-138186841D02*
X211507659Y-138186841D01*
X80403700Y-134988300D02*
X83602241Y-138186841D01*
X215187200Y-134507300D02*
X215187200Y-130760800D01*
X211507659Y-138186841D02*
X215187200Y-134507300D01*
%TO.N,KEY_COL5*%
X84418231Y-137478831D02*
X191959169Y-137478831D01*
X80657700Y-133718300D02*
X84418231Y-137478831D01*
X195883200Y-133554800D02*
X195883200Y-130848100D01*
X191959169Y-137478831D02*
X195883200Y-133554800D01*
%TO.N,KEY_COL4*%
X85248944Y-136770821D02*
X172626579Y-136770821D01*
X80926424Y-132448300D02*
X85248944Y-136770821D01*
X80530700Y-132448300D02*
X80926424Y-132448300D01*
X176579200Y-132818200D02*
X176579200Y-130760800D01*
X172626579Y-136770821D02*
X176579200Y-132818200D01*
%TO.N,KEY_COL3*%
X85542211Y-136062811D02*
X80657700Y-131178300D01*
X154487789Y-136062811D02*
X85542211Y-136062811D01*
X157275200Y-133275400D02*
X154487789Y-136062811D01*
X157275200Y-130760800D02*
X157275200Y-133275400D01*
%TO.N,KEY_COL2*%
X134393199Y-135354801D02*
X138479200Y-131268800D01*
X96378779Y-135354801D02*
X134393199Y-135354801D01*
X138479200Y-131268800D02*
X138479200Y-130760800D01*
X90932278Y-129908300D02*
X96378779Y-135354801D01*
X80530700Y-129908300D02*
X90932278Y-129908300D01*
%TO.N,KEY_COL1*%
X80657700Y-128638300D02*
X80657700Y-125082300D01*
X80657700Y-125082300D02*
X82245200Y-123494800D01*
X114412722Y-123494800D02*
X119276800Y-128358878D01*
X119276800Y-128358878D02*
X119276800Y-130860800D01*
X82245200Y-123494800D02*
X114412722Y-123494800D01*
%TO.N,KEY_COL7*%
X80721200Y-104190800D02*
X256489200Y-104190800D01*
X256489200Y-104190800D02*
X267665200Y-93014800D01*
D17*
X267868400Y-92811600D02*
X267665200Y-93014800D01*
X267892200Y-92811600D02*
X267868400Y-92811600D01*
D16*
%TO.N,KEY_COL8*%
X286813122Y-92811600D02*
X287196200Y-92811600D01*
X274163922Y-105460800D02*
X286813122Y-92811600D01*
X80467200Y-105460800D02*
X274163922Y-105460800D01*
%TO.N,KEY_COL9*%
X299693000Y-106730800D02*
X313612200Y-92811600D01*
X80721200Y-106730800D02*
X299693000Y-106730800D01*
%TO.N,KEY_COL10*%
X317727000Y-108000800D02*
X332916200Y-92811600D01*
X80467200Y-108000800D02*
X317727000Y-108000800D01*
%TO.N,KEY_COL11*%
X351837122Y-92811600D02*
X352220200Y-92811600D01*
X335377922Y-109270800D02*
X351837122Y-92811600D01*
X80721200Y-109270800D02*
X335377922Y-109270800D01*
%TO.N,KEY_COL12*%
X353795000Y-110540800D02*
X371524200Y-92811600D01*
X80467200Y-110540800D02*
X353795000Y-110540800D01*
%TO.N,KEY_COL13*%
X359613200Y-130633800D02*
X359776700Y-130797300D01*
X359613200Y-128131878D02*
X359613200Y-130633800D01*
X343292122Y-111810800D02*
X359613200Y-128131878D01*
X80721200Y-111810800D02*
X343292122Y-111810800D01*
%TO.N,KEY_COL19*%
X79397210Y-114550810D02*
X323338012Y-114550810D01*
X71577200Y-106730800D02*
X79397210Y-114550810D01*
X344786512Y-135999311D02*
X363872689Y-135999311D01*
X323338012Y-114550810D02*
X344786512Y-135999311D01*
X363872689Y-135999311D02*
X377085210Y-122786790D01*
X377085210Y-88750790D02*
X385321190Y-80514810D01*
X377085210Y-122786790D02*
X377085210Y-88750790D01*
X508176200Y-90309678D02*
X508176200Y-92811600D01*
X498381332Y-80514810D02*
X508176200Y-90309678D01*
X385321190Y-80514810D02*
X498381332Y-80514810D01*
%TO.N,KEY_COL18*%
X488872200Y-90309678D02*
X488872200Y-92811600D01*
X377793220Y-89058780D02*
X385629180Y-81222820D01*
X364180679Y-136707321D02*
X377793220Y-123094780D01*
X479785342Y-81222820D02*
X488872200Y-90309678D01*
X377793220Y-123094780D02*
X377793220Y-89058780D01*
X323044746Y-115258820D02*
X344493245Y-136707321D01*
X344493245Y-136707321D02*
X364180679Y-136707321D01*
X79103943Y-115258820D02*
X323044746Y-115258820D01*
X71845924Y-108000800D02*
X79103943Y-115258820D01*
X385629180Y-81222820D02*
X479785342Y-81222820D01*
X71323200Y-108000800D02*
X71845924Y-108000800D01*
%TO.N,KEY_COL17*%
X72114646Y-109270800D02*
X78810676Y-115966830D01*
X71577200Y-109270800D02*
X72114646Y-109270800D01*
X78810676Y-115966830D02*
X322751480Y-115966830D01*
X322751480Y-115966833D02*
X344199978Y-137415331D01*
X322751480Y-115966830D02*
X322751480Y-115966833D01*
X344199978Y-137415331D02*
X364488669Y-137415331D01*
X364488669Y-137415331D02*
X378501230Y-123402770D01*
X378501230Y-89366770D02*
X385937170Y-81930830D01*
X378501230Y-123402770D02*
X378501230Y-89366770D01*
X469568200Y-90309678D02*
X469568200Y-92811600D01*
X461189352Y-81930830D02*
X469568200Y-90309678D01*
X385937170Y-81930830D02*
X461189352Y-81930830D01*
%TO.N,KEY_COL16*%
X71323200Y-110540800D02*
X72339200Y-110540800D01*
X75177370Y-113334800D02*
X78517409Y-116674840D01*
X75133200Y-113334800D02*
X75177370Y-113334800D01*
X72339200Y-110540800D02*
X75133200Y-113334800D01*
X78517409Y-116674840D02*
X322458211Y-116674840D01*
X322458211Y-116674840D02*
X343906711Y-138123341D01*
X343906711Y-138123341D02*
X364796659Y-138123341D01*
X367233200Y-135672076D02*
X379209240Y-123696037D01*
X367233200Y-135686800D02*
X367233200Y-135672076D01*
X364796659Y-138123341D02*
X367233200Y-135686800D01*
X379209240Y-123696037D02*
X379209240Y-89660036D01*
X379209240Y-89660036D02*
X386230436Y-82638840D01*
X432179362Y-82638840D02*
X439850200Y-90309678D01*
X439850200Y-90309678D02*
X439850200Y-92811600D01*
X386230436Y-82638840D02*
X432179362Y-82638840D01*
%TO.N,KEY_COL15*%
X82245200Y-117906800D02*
X322688895Y-117906800D01*
X365089926Y-138831351D02*
X379917250Y-124004027D01*
X343613444Y-138831351D02*
X365089926Y-138831351D01*
X322688895Y-117906800D02*
X343613444Y-138831351D01*
X379917250Y-124004027D02*
X379917250Y-89953302D01*
X379917250Y-89953302D02*
X386523702Y-83346850D01*
X420546200Y-90309678D02*
X420546200Y-92811600D01*
X413583372Y-83346850D02*
X420546200Y-90309678D01*
X386523702Y-83346850D02*
X413583372Y-83346850D01*
%TO.N,KEY_COL14*%
X400988200Y-90309678D02*
X400988200Y-92811600D01*
X394733382Y-84054860D02*
X400988200Y-90309678D01*
X380625260Y-90641038D02*
X387211438Y-84054860D01*
X365383193Y-139539361D02*
X380625260Y-124297294D01*
X343320177Y-139539361D02*
X365383193Y-139539361D01*
X380625260Y-124297294D02*
X380625260Y-90641038D01*
X322703619Y-118922800D02*
X343320177Y-139539361D01*
X387211438Y-84054860D02*
X394733382Y-84054860D01*
X79764094Y-118922800D02*
X322703619Y-118922800D01*
X74884103Y-114042809D02*
X79764094Y-118922800D01*
X71777209Y-114042809D02*
X74884103Y-114042809D01*
X70815200Y-113080800D02*
X71777209Y-114042809D01*
%TO.N,LED_SCL_ROW1*%
X55765700Y-112763300D02*
X59596502Y-112763300D01*
X70874012Y-124040811D02*
X75603189Y-124040811D01*
X59596502Y-112763300D02*
X70874012Y-124040811D01*
X75603189Y-124040811D02*
X77673200Y-121970800D01*
X77673200Y-121970800D02*
X88341200Y-121970800D01*
%TO.N,LED_SDA_ROW1*%
X71167279Y-123332801D02*
X75295199Y-123332801D01*
X59327778Y-111493300D02*
X71167279Y-123332801D01*
X55638700Y-111493300D02*
X59327778Y-111493300D01*
X75295199Y-123332801D02*
X78181200Y-120446800D01*
X78181200Y-120446800D02*
X89357200Y-120446800D01*
%TO.N,LED_SCL_ROW3*%
X55257700Y-123416577D02*
X56551933Y-124710810D01*
X55257700Y-117843300D02*
X55257700Y-123416577D01*
X56551933Y-124710810D02*
X62647934Y-124710810D01*
X69116679Y-137275556D02*
X69531423Y-137690299D01*
X69116679Y-131179555D02*
X69116679Y-137275556D01*
X62647934Y-124710810D02*
X69116679Y-131179555D01*
X69531423Y-137690299D02*
X69531423Y-138213023D01*
X69531423Y-138213023D02*
X78181200Y-146862800D01*
X78181200Y-146862800D02*
X78181200Y-158038800D01*
X78181200Y-158038800D02*
X79197200Y-159054800D01*
%TO.N,LED_SDA_ROW3*%
X56111701Y-117173301D02*
X56111701Y-123269301D01*
X55511700Y-116573300D02*
X56111701Y-117173301D01*
X56111701Y-123269301D02*
X56845200Y-124002800D01*
X56845200Y-124002800D02*
X62941200Y-124002800D01*
X69824689Y-130886289D02*
X69824689Y-136982289D01*
X62941200Y-124002800D02*
X69824689Y-130886289D01*
X69824689Y-136982289D02*
X79705200Y-146862800D01*
X79705200Y-146862800D02*
X79705200Y-157022800D01*
%TO.N,LED_SCL_ROW2*%
X78489190Y-135338989D02*
X83917001Y-140766800D01*
X78489190Y-132932066D02*
X78489190Y-135338989D01*
X71283934Y-125726810D02*
X78489190Y-132932066D01*
X66189210Y-125726810D02*
X71283934Y-125726810D01*
X55765700Y-115303300D02*
X66189210Y-125726810D01*
X83917001Y-140766800D02*
X93421200Y-140766800D01*
%TO.N,LED_SDA_ROW2*%
X83394278Y-139242800D02*
X93929200Y-139242800D01*
X79197200Y-135045722D02*
X83394278Y-139242800D01*
X79197200Y-132638800D02*
X79197200Y-135045722D01*
X71577200Y-125018800D02*
X79197200Y-132638800D01*
X67062885Y-125018800D02*
X71577200Y-125018800D01*
X56077385Y-114033300D02*
X67062885Y-125018800D01*
X55511700Y-114033300D02*
X56077385Y-114033300D01*
%TO.N,LED_SDA_ROW6*%
X373329200Y-206806800D02*
X368249200Y-201726800D01*
X103073200Y-198678800D02*
X87325200Y-198678800D01*
X239211122Y-198678800D02*
X103073200Y-198678800D01*
X242259122Y-201726800D02*
X239211122Y-198678800D01*
X368249200Y-201726800D02*
X242259122Y-201726800D01*
%TO.N,LED_SCL_ROW6*%
X372513209Y-208530809D02*
X367325228Y-213718790D01*
X112674768Y-213718790D02*
X99158778Y-200202800D01*
X367325228Y-213718790D02*
X112674768Y-213718790D01*
X99158778Y-200202800D02*
X86817200Y-200202800D01*
%TO.N,KEY_ROW5*%
X71386700Y-134867378D02*
X72593200Y-136073878D01*
X71386700Y-129908300D02*
X71386700Y-134867378D01*
X72593200Y-136073878D02*
X72593200Y-137600446D01*
X72593200Y-137600446D02*
X79823554Y-144830800D01*
X79823554Y-144830800D02*
X81737200Y-144830800D01*
X81737200Y-144830800D02*
X83461210Y-146554810D01*
X83461210Y-199233310D02*
X87769700Y-203541800D01*
X83461210Y-146554810D02*
X83461210Y-199233310D01*
%TO.N,KEY_ROW4*%
X72564699Y-131651301D02*
X72564699Y-134642299D01*
X73037700Y-131178300D02*
X72564699Y-131651301D01*
X72564699Y-134642299D02*
X83769200Y-145846800D01*
X83769200Y-145861523D02*
X84169220Y-146261543D01*
X83769200Y-145846800D02*
X83769200Y-145861523D01*
X84169220Y-171175820D02*
X97167700Y-184174300D01*
X84169220Y-146261543D02*
X84169220Y-171175820D01*
%TO.N,KEY_ROW3*%
X73418700Y-134495024D02*
X84477209Y-145553533D01*
X73418700Y-132448300D02*
X73418700Y-134495024D01*
X84477209Y-145568255D02*
X84877230Y-145968276D01*
X84477209Y-145553533D02*
X84477209Y-145568255D01*
X84877230Y-156897830D02*
X92405200Y-164425800D01*
X84877230Y-145968276D02*
X84877230Y-156897830D01*
%TO.N,KEY_ROW2*%
X74561700Y-134347222D02*
X84537278Y-144322800D01*
X74561700Y-133718300D02*
X74561700Y-134347222D01*
X89320200Y-144322800D02*
X89865200Y-144867800D01*
X84537278Y-144322800D02*
X89320200Y-144322800D01*
%TO.N,LED_SCL_ROW7*%
X458724000Y-108813600D02*
X451561200Y-115976400D01*
X451561200Y-115976400D02*
X451561200Y-176326800D01*
X451561200Y-176326800D02*
X451561200Y-193303022D01*
X451561200Y-193303022D02*
X451561200Y-204266800D01*
X451561200Y-204266800D02*
X439877200Y-215950800D01*
X439877200Y-215950800D02*
X439369200Y-215950800D01*
X439369200Y-215950800D02*
X86309200Y-215950800D01*
X86309200Y-215950800D02*
X76657200Y-206298800D01*
X76657200Y-206298800D02*
X76657200Y-205282800D01*
%TO.N,LED_SDA_ROW7*%
X458314079Y-107947521D02*
X458848000Y-107413600D01*
X458314079Y-107959599D02*
X458314079Y-107947521D01*
X450853190Y-115420488D02*
X458314079Y-107959599D01*
X450853190Y-203958810D02*
X450853190Y-115420488D01*
X439677191Y-215134809D02*
X450853190Y-203958810D01*
X88705511Y-215134810D02*
X439677191Y-215134809D01*
X79705200Y-206134499D02*
X88705511Y-215134810D01*
X79705200Y-205790800D02*
X79705200Y-206134499D01*
%TO.N,PICO_SCL0*%
X142443200Y-46826800D02*
X142149200Y-46826800D01*
X142149200Y-46826800D02*
X136093200Y-52882800D01*
X136093200Y-52882800D02*
X136093200Y-61518800D01*
X130668700Y-66943300D02*
X130668700Y-67719300D01*
X136093200Y-61518800D02*
X130668700Y-66943300D01*
%TO.N,PICO_SDA0*%
X142443200Y-49326800D02*
X141681200Y-49326800D01*
X141681200Y-49326800D02*
X136801210Y-54206790D01*
X136801210Y-54206790D02*
X136801210Y-62842790D01*
X133208700Y-66435300D02*
X133208700Y-67719300D01*
X136801210Y-62842790D02*
X133208700Y-66435300D01*
%TO.N,KEY_COL20*%
X71888885Y-105460800D02*
X80270885Y-113842800D01*
X71323200Y-105460800D02*
X71888885Y-105460800D01*
X345079779Y-135291301D02*
X363564699Y-135291301D01*
X323631278Y-113842800D02*
X345079779Y-135291301D01*
X80270885Y-113842800D02*
X323631278Y-113842800D01*
X363564699Y-135291301D02*
X376377200Y-122478800D01*
X376377200Y-122478800D02*
X376377200Y-88442800D01*
X376377200Y-88442800D02*
X385013200Y-79806800D01*
X527480200Y-90309678D02*
X527480200Y-92811600D01*
X516977322Y-79806800D02*
X527480200Y-90309678D01*
X385013200Y-79806800D02*
X516977322Y-79806800D01*
%TD*%
M02*
