%TF.GenerationSoftware,KiCad,Pcbnew,(5.1.9)-1*%
%TF.CreationDate,2021-03-21T14:48:51+10:00*%
%TF.ProjectId,RedPyKeeb,52656450-794b-4656-9562-2e6b69636164,rev?*%
%TF.SameCoordinates,Original*%
%TF.FileFunction,Copper,L2,Inr*%
%TF.FilePolarity,Positive*%
%FSLAX46Y46*%
G04 Gerber Fmt 4.6, Leading zero omitted, Abs format (unit mm)*
G04 Created by KiCad (PCBNEW (5.1.9)-1) date 2021-03-21 14:48:51*
%MOMM*%
%LPD*%
G01*
G04 APERTURE LIST*
%TA.AperFunction,ComponentPad*%
%ADD10O,1.700000X1.700000*%
%TD*%
%TA.AperFunction,ComponentPad*%
%ADD11R,1.700000X1.700000*%
%TD*%
%TA.AperFunction,ComponentPad*%
%ADD12C,1.600000*%
%TD*%
%TA.AperFunction,ComponentPad*%
%ADD13R,1.600000X1.600000*%
%TD*%
%TA.AperFunction,ComponentPad*%
%ADD14O,1.950000X1.700000*%
%TD*%
%TA.AperFunction,ViaPad*%
%ADD15C,0.800000*%
%TD*%
%TA.AperFunction,Conductor*%
%ADD16C,0.508000*%
%TD*%
%TA.AperFunction,Conductor*%
%ADD17C,1.524000*%
%TD*%
G04 APERTURE END LIST*
D10*
%TO.N,PICO_SDA0*%
%TO.C,U0*%
X133208700Y-67719300D03*
%TO.N,PICO_SCL0*%
X130668700Y-67719300D03*
D11*
%TO.N,Net-(U0-Pad3)*%
X128128700Y-67719300D03*
D10*
%TO.N,PICO_33_REF*%
X125588700Y-67719300D03*
%TO.N,Net-(U0-Pad5)*%
X123048700Y-67719300D03*
%TO.N,Net-(U0-Pad6)*%
X120508700Y-67719300D03*
%TO.N,Net-(U0-Pad7)*%
X117968700Y-67719300D03*
D11*
%TO.N,Net-(U0-Pad8)*%
X115428700Y-67719300D03*
D10*
%TO.N,Net-(U0-Pad9)*%
X112888700Y-67719300D03*
%TO.N,Net-(U0-Pad10)*%
X110348700Y-67719300D03*
%TO.N,Net-(U0-Pad11)*%
X107808700Y-67719300D03*
%TO.N,Net-(U0-Pad12)*%
X105268700Y-67719300D03*
D11*
%TO.N,Net-(U0-Pad13)*%
X102728700Y-67719300D03*
D10*
%TO.N,Net-(U0-Pad14)*%
X100188700Y-67719300D03*
%TO.N,Net-(U0-Pad15)*%
X97648700Y-67719300D03*
%TO.N,Net-(U0-Pad16)*%
X95108700Y-67719300D03*
%TO.N,Net-(U0-Pad17)*%
X92568700Y-67719300D03*
D11*
%TO.N,Net-(U0-Pad18)*%
X90028700Y-67719300D03*
D10*
%TO.N,Net-(U0-Pad19)*%
X87488700Y-67719300D03*
%TO.N,Net-(U0-Pad20)*%
X84948700Y-67719300D03*
%TO.N,Net-(U0-Pad21)*%
X84948700Y-49939300D03*
%TO.N,Net-(U0-Pad22)*%
X87488700Y-49939300D03*
D11*
%TO.N,Net-(U0-Pad23)*%
X90028700Y-49939300D03*
D10*
%TO.N,Net-(U0-Pad24)*%
X92568700Y-49939300D03*
%TO.N,Net-(U0-Pad25)*%
X95108700Y-49939300D03*
%TO.N,Net-(U0-Pad26)*%
X97648700Y-49939300D03*
%TO.N,Net-(U0-Pad27)*%
X100188700Y-49939300D03*
D11*
%TO.N,Net-(U0-Pad28)*%
X102728700Y-49939300D03*
D10*
%TO.N,Net-(U0-Pad29)*%
X105268700Y-49939300D03*
%TO.N,PICO_RUN*%
X107808700Y-49939300D03*
%TO.N,Net-(U0-Pad31)*%
X110348700Y-49939300D03*
%TO.N,Net-(U0-Pad32)*%
X112888700Y-49939300D03*
D11*
%TO.N,Net-(U0-Pad33)*%
X115428700Y-49939300D03*
D10*
%TO.N,Net-(U0-Pad34)*%
X117968700Y-49939300D03*
%TO.N,Net-(U0-Pad35)*%
X120508700Y-49939300D03*
%TO.N,Net-(U0-Pad36)*%
X123048700Y-49939300D03*
%TO.N,Net-(U0-Pad37)*%
X125588700Y-49939300D03*
D11*
%TO.N,Net-(U0-Pad38)*%
X128128700Y-49939300D03*
D10*
%TO.N,MAIN_VBUS*%
X130668700Y-49939300D03*
%TO.N,Net-(U0-Pad40)*%
X133208700Y-49939300D03*
%TO.N,Net-(U0-Pad41)*%
X85178700Y-61369300D03*
D11*
%TO.N,Net-(U0-Pad42)*%
X85178700Y-58829300D03*
D10*
%TO.N,Net-(U0-Pad43)*%
X85178700Y-56289300D03*
%TD*%
D12*
%TO.N,Net-(D0\u002C3-Pad2)*%
%TO.C,D0\u002C3*%
X92405200Y-172225800D03*
D13*
%TO.N,KEY_ROW3*%
X92405200Y-164425800D03*
%TD*%
D12*
%TO.N,Net-(D0\u002C5-Pad2)*%
%TO.C,D0\u002C5*%
X87769700Y-211341800D03*
D13*
%TO.N,KEY_ROW5*%
X87769700Y-203541800D03*
%TD*%
D12*
%TO.N,Net-(D0\u002C4-Pad2)*%
%TO.C,D0\u002C4*%
X97167700Y-191974300D03*
D13*
%TO.N,KEY_ROW4*%
X97167700Y-184174300D03*
%TD*%
D12*
%TO.N,Net-(D0\u002C0-Pad2)*%
%TO.C,D0\u002C0*%
X85356700Y-95390800D03*
D13*
%TO.N,KEY_ROW0*%
X85356700Y-87590800D03*
%TD*%
D12*
%TO.N,Net-(D0\u002C2-Pad2)*%
%TO.C,D0\u002C2*%
X89865200Y-152667800D03*
D13*
%TO.N,KEY_ROW2*%
X89865200Y-144867800D03*
%TD*%
D12*
%TO.N,Net-(D0\u002C1-Pad2)*%
%TO.C,D0\u002C1*%
X85356700Y-133490800D03*
D13*
%TO.N,KEY_ROW1*%
X85356700Y-125690800D03*
%TD*%
D12*
%TO.N,Net-(D1\u002C3-Pad2)*%
%TO.C,D1\u002C3*%
X118694200Y-172098800D03*
D13*
%TO.N,KEY_ROW3*%
X118694200Y-164298800D03*
%TD*%
D12*
%TO.N,Net-(D1\u002C0-Pad2)*%
%TO.C,D1\u002C0*%
X124980700Y-95441600D03*
D13*
%TO.N,KEY_ROW0*%
X124980700Y-87641600D03*
%TD*%
D12*
%TO.N,Net-(D1\u002C4-Pad2)*%
%TO.C,D1\u002C4*%
X128092200Y-191910800D03*
D13*
%TO.N,KEY_ROW4*%
X128092200Y-184110800D03*
%TD*%
D12*
%TO.N,Net-(D1\u002C5-Pad2)*%
%TO.C,D1\u002C5*%
X112153700Y-211341800D03*
D13*
%TO.N,KEY_ROW5*%
X112153700Y-203541800D03*
%TD*%
D12*
%TO.N,Net-(D1\u002C1-Pad2)*%
%TO.C,D1\u002C1*%
X104660700Y-133490800D03*
D13*
%TO.N,KEY_ROW1*%
X104660700Y-125690800D03*
%TD*%
D12*
%TO.N,Net-(D1\u002C2-Pad2)*%
%TO.C,D1\u002C2*%
X113804700Y-152667800D03*
D13*
%TO.N,KEY_ROW2*%
X113804700Y-144867800D03*
%TD*%
D12*
%TO.N,Net-(D2\u002C4-Pad2)*%
%TO.C,D2\u002C4*%
X147396200Y-191910800D03*
D13*
%TO.N,KEY_ROW4*%
X147396200Y-184110800D03*
%TD*%
D12*
%TO.N,Net-(D2\u002C5-Pad2)*%
%TO.C,D2\u002C5*%
X136537700Y-211341800D03*
D13*
%TO.N,KEY_ROW5*%
X136537700Y-203541800D03*
%TD*%
D12*
%TO.N,Net-(D2\u002C0-Pad2)*%
%TO.C,D2\u002C0*%
X144284700Y-95390800D03*
D13*
%TO.N,KEY_ROW0*%
X144284700Y-87590800D03*
%TD*%
D12*
%TO.N,Net-(D2\u002C2-Pad2)*%
%TO.C,D2\u002C2*%
X133108700Y-152667800D03*
D13*
%TO.N,KEY_ROW2*%
X133108700Y-144867800D03*
%TD*%
D12*
%TO.N,Net-(D2\u002C1-Pad2)*%
%TO.C,D2\u002C1*%
X123583700Y-133427300D03*
D13*
%TO.N,KEY_ROW1*%
X123583700Y-125627300D03*
%TD*%
D12*
%TO.N,Net-(D2\u002C3-Pad2)*%
%TO.C,D2\u002C3*%
X137998200Y-172098800D03*
D13*
%TO.N,KEY_ROW3*%
X137998200Y-164298800D03*
%TD*%
D12*
%TO.N,Net-(D3\u002C0-Pad2)*%
%TO.C,D3\u002C0*%
X163588700Y-95390800D03*
D13*
%TO.N,KEY_ROW0*%
X163588700Y-87590800D03*
%TD*%
D12*
%TO.N,Net-(D3\u002C1-Pad2)*%
%TO.C,D3\u002C1*%
X142379700Y-133427300D03*
D13*
%TO.N,KEY_ROW1*%
X142379700Y-125627300D03*
%TD*%
D12*
%TO.N,Net-(D3\u002C4-Pad2)*%
%TO.C,D3\u002C4*%
X166700200Y-191910800D03*
D13*
%TO.N,KEY_ROW4*%
X166700200Y-184110800D03*
%TD*%
D12*
%TO.N,Net-(D3\u002C2-Pad2)*%
%TO.C,D3\u002C2*%
X152412700Y-152667800D03*
D13*
%TO.N,KEY_ROW2*%
X152412700Y-144867800D03*
%TD*%
D12*
%TO.N,Net-(D3\u002C5-Pad2)*%
%TO.C,D3\u002C5*%
X208419700Y-211341800D03*
D13*
%TO.N,KEY_ROW5*%
X208419700Y-203541800D03*
%TD*%
D12*
%TO.N,Net-(D3\u002C3-Pad2)*%
%TO.C,D3\u002C3*%
X157302200Y-172098800D03*
D13*
%TO.N,KEY_ROW3*%
X157302200Y-164298800D03*
%TD*%
D12*
%TO.N,Net-(D4\u002C4-Pad2)*%
%TO.C,D4\u002C4*%
X186004200Y-191910800D03*
D13*
%TO.N,KEY_ROW4*%
X186004200Y-184110800D03*
%TD*%
D12*
%TO.N,Net-(D4\u002C3-Pad2)*%
%TO.C,D4\u002C3*%
X176606200Y-172098800D03*
D13*
%TO.N,KEY_ROW3*%
X176606200Y-164298800D03*
%TD*%
D12*
%TO.N,Net-(D4\u002C1-Pad2)*%
%TO.C,D4\u002C1*%
X161683700Y-133427300D03*
D13*
%TO.N,KEY_ROW1*%
X161683700Y-125627300D03*
%TD*%
D12*
%TO.N,Net-(D4\u002C0-Pad2)*%
%TO.C,D4\u002C0*%
X182892700Y-95390800D03*
D13*
%TO.N,KEY_ROW0*%
X182892700Y-87590800D03*
%TD*%
%TO.N,KEY_ROW2*%
%TO.C,D4\u002C2*%
X171716700Y-144867800D03*
D12*
%TO.N,Net-(D4\u002C2-Pad2)*%
X171716700Y-152667800D03*
%TD*%
%TO.N,Net-(D5\u002C0-Pad2)*%
%TO.C,D5\u002C0*%
X214388700Y-95390800D03*
D13*
%TO.N,KEY_ROW0*%
X214388700Y-87590800D03*
%TD*%
%TO.N,KEY_ROW2*%
%TO.C,D5\u002C2*%
X191020700Y-144867800D03*
D12*
%TO.N,Net-(D5\u002C2-Pad2)*%
X191020700Y-152667800D03*
%TD*%
%TO.N,Net-(D5\u002C1-Pad2)*%
%TO.C,D5\u002C1*%
X180987700Y-133427300D03*
D13*
%TO.N,KEY_ROW1*%
X180987700Y-125627300D03*
%TD*%
D12*
%TO.N,Net-(D5\u002C3-Pad2)*%
%TO.C,D5\u002C3*%
X195910200Y-172149600D03*
D13*
%TO.N,KEY_ROW3*%
X195910200Y-164349600D03*
%TD*%
D12*
%TO.N,Net-(D5\u002C4-Pad2)*%
%TO.C,D5\u002C4*%
X205308200Y-191961600D03*
D13*
%TO.N,KEY_ROW4*%
X205308200Y-184161600D03*
%TD*%
D12*
%TO.N,Net-(D6\u002C0-Pad2)*%
%TO.C,D6\u002C0*%
X233692700Y-95390800D03*
D13*
%TO.N,KEY_ROW0*%
X233692700Y-87590800D03*
%TD*%
D12*
%TO.N,Net-(D6\u002C3-Pad2)*%
%TO.C,D6\u002C3*%
X215214200Y-172098800D03*
D13*
%TO.N,KEY_ROW3*%
X215214200Y-164298800D03*
%TD*%
D12*
%TO.N,Net-(D6\u002C4-Pad2)*%
%TO.C,D6\u002C4*%
X224612200Y-191910800D03*
D13*
%TO.N,KEY_ROW4*%
X224612200Y-184110800D03*
%TD*%
D12*
%TO.N,Net-(D6\u002C1-Pad2)*%
%TO.C,D6\u002C1*%
X200291700Y-133427300D03*
D13*
%TO.N,KEY_ROW1*%
X200291700Y-125627300D03*
%TD*%
%TO.N,KEY_ROW2*%
%TO.C,D6\u002C2*%
X210324700Y-144867800D03*
D12*
%TO.N,Net-(D6\u002C2-Pad2)*%
X210324700Y-152667800D03*
%TD*%
%TO.N,Net-(D7\u002C4-Pad2)*%
%TO.C,D7\u002C4*%
X243916200Y-191961600D03*
D13*
%TO.N,KEY_ROW4*%
X243916200Y-184161600D03*
%TD*%
%TO.N,KEY_ROW2*%
%TO.C,D7\u002C2*%
X229628700Y-144918600D03*
D12*
%TO.N,Net-(D7\u002C2-Pad2)*%
X229628700Y-152718600D03*
%TD*%
%TO.N,Net-(D7\u002C1-Pad2)*%
%TO.C,D7\u002C1*%
X219595700Y-133427300D03*
D13*
%TO.N,KEY_ROW1*%
X219595700Y-125627300D03*
%TD*%
D12*
%TO.N,Net-(D7\u002C0-Pad2)*%
%TO.C,D7\u002C0*%
X252996700Y-95390800D03*
D13*
%TO.N,KEY_ROW0*%
X252996700Y-87590800D03*
%TD*%
D12*
%TO.N,Net-(D7\u002C3-Pad2)*%
%TO.C,D7\u002C3*%
X234518200Y-172098800D03*
D13*
%TO.N,KEY_ROW3*%
X234518200Y-164298800D03*
%TD*%
D12*
%TO.N,Net-(D8\u002C0-Pad2)*%
%TO.C,D8\u002C0*%
X272300700Y-95441600D03*
D13*
%TO.N,KEY_ROW0*%
X272300700Y-87641600D03*
%TD*%
D12*
%TO.N,Net-(D8\u002C3-Pad2)*%
%TO.C,D8\u002C3*%
X253822200Y-172098800D03*
D13*
%TO.N,KEY_ROW3*%
X253822200Y-164298800D03*
%TD*%
D12*
%TO.N,Net-(D8\u002C1-Pad2)*%
%TO.C,D8\u002C1*%
X238899700Y-133427300D03*
D13*
%TO.N,KEY_ROW1*%
X238899700Y-125627300D03*
%TD*%
%TO.N,KEY_ROW2*%
%TO.C,D8\u002C2*%
X248932700Y-144867800D03*
D12*
%TO.N,Net-(D8\u002C2-Pad2)*%
X248932700Y-152667800D03*
%TD*%
%TO.N,Net-(D8\u002C5-Pad2)*%
%TO.C,D8\u002C5*%
X280174700Y-211405300D03*
D13*
%TO.N,KEY_ROW5*%
X280174700Y-203605300D03*
%TD*%
D12*
%TO.N,Net-(D8\u002C4-Pad2)*%
%TO.C,D8\u002C4*%
X263220200Y-191910800D03*
D13*
%TO.N,KEY_ROW4*%
X263220200Y-184110800D03*
%TD*%
%TO.N,KEY_ROW2*%
%TO.C,D9\u002C2*%
X268236700Y-144867800D03*
D12*
%TO.N,Net-(D9\u002C2-Pad2)*%
X268236700Y-152667800D03*
%TD*%
%TO.N,Net-(D9\u002C1-Pad2)*%
%TO.C,D9\u002C1*%
X258203700Y-133478100D03*
D13*
%TO.N,KEY_ROW1*%
X258203700Y-125678100D03*
%TD*%
D12*
%TO.N,Net-(D9\u002C3-Pad2)*%
%TO.C,D9\u002C3*%
X273126200Y-172098800D03*
D13*
%TO.N,KEY_ROW3*%
X273126200Y-164298800D03*
%TD*%
D12*
%TO.N,Net-(D9\u002C4-Pad2)*%
%TO.C,D9\u002C4*%
X282524200Y-191910800D03*
D13*
%TO.N,KEY_ROW4*%
X282524200Y-184110800D03*
%TD*%
D12*
%TO.N,Net-(D9\u002C5-Pad2)*%
%TO.C,D9\u002C5*%
X304304700Y-211341800D03*
D13*
%TO.N,KEY_ROW5*%
X304304700Y-203541800D03*
%TD*%
D12*
%TO.N,Net-(D9\u002C0-Pad2)*%
%TO.C,D9\u002C0*%
X298716700Y-95390800D03*
D13*
%TO.N,KEY_ROW0*%
X298716700Y-87590800D03*
%TD*%
D12*
%TO.N,Net-(D10\u002C4-Pad2)*%
%TO.C,D10\u002C4*%
X301828200Y-191961600D03*
D13*
%TO.N,KEY_ROW4*%
X301828200Y-184161600D03*
%TD*%
D12*
%TO.N,Net-(D10\u002C5-Pad2)*%
%TO.C,D10\u002C5*%
X328498200Y-211341800D03*
D13*
%TO.N,KEY_ROW5*%
X328498200Y-203541800D03*
%TD*%
D12*
%TO.N,Net-(D10\u002C1-Pad2)*%
%TO.C,D10\u002C1*%
X277507700Y-133427300D03*
D13*
%TO.N,KEY_ROW1*%
X277507700Y-125627300D03*
%TD*%
D12*
%TO.N,Net-(D10\u002C0-Pad2)*%
%TO.C,D10\u002C0*%
X318020700Y-95390800D03*
D13*
%TO.N,KEY_ROW0*%
X318020700Y-87590800D03*
%TD*%
%TO.N,KEY_ROW2*%
%TO.C,D10\u002C2*%
X287540700Y-144918600D03*
D12*
%TO.N,Net-(D10\u002C2-Pad2)*%
X287540700Y-152718600D03*
%TD*%
%TO.N,Net-(D10\u002C3-Pad2)*%
%TO.C,D10\u002C3*%
X292430200Y-172098800D03*
D13*
%TO.N,KEY_ROW3*%
X292430200Y-164298800D03*
%TD*%
D12*
%TO.N,Net-(D11\u002C0-Pad2)*%
%TO.C,D11\u002C0*%
X337324700Y-95390800D03*
D13*
%TO.N,KEY_ROW0*%
X337324700Y-87590800D03*
%TD*%
D12*
%TO.N,Net-(D11\u002C1-Pad2)*%
%TO.C,D11\u002C1*%
X296811700Y-133427300D03*
D13*
%TO.N,KEY_ROW1*%
X296811700Y-125627300D03*
%TD*%
D12*
%TO.N,Net-(D11\u002C3-Pad2)*%
%TO.C,D11\u002C3*%
X311734200Y-172098800D03*
D13*
%TO.N,KEY_ROW3*%
X311734200Y-164298800D03*
%TD*%
%TO.N,KEY_ROW2*%
%TO.C,D11\u002C2*%
X306844700Y-144867800D03*
D12*
%TO.N,Net-(D11\u002C2-Pad2)*%
X306844700Y-152667800D03*
%TD*%
%TO.N,Net-(D11\u002C4-Pad2)*%
%TO.C,D11\u002C4*%
X338404200Y-191910800D03*
D13*
%TO.N,KEY_ROW4*%
X338404200Y-184110800D03*
%TD*%
D12*
%TO.N,Net-(D11\u002C5-Pad2)*%
%TO.C,D11\u002C5*%
X352564700Y-211341800D03*
D13*
%TO.N,KEY_ROW5*%
X352564700Y-203541800D03*
%TD*%
D12*
%TO.N,Net-(D12\u002C3-Pad2)*%
%TO.C,D12\u002C3*%
X343230200Y-172162300D03*
D13*
%TO.N,KEY_ROW3*%
X343230200Y-164362300D03*
%TD*%
%TO.N,KEY_ROW2*%
%TO.C,D12\u002C2*%
X326148700Y-144867800D03*
D12*
%TO.N,Net-(D12\u002C2-Pad2)*%
X326148700Y-152667800D03*
%TD*%
%TO.N,Net-(D12\u002C1-Pad2)*%
%TO.C,D12\u002C1*%
X316115700Y-133478100D03*
D13*
%TO.N,KEY_ROW1*%
X316115700Y-125678100D03*
%TD*%
D12*
%TO.N,Net-(D12\u002C0-Pad2)*%
%TO.C,D12\u002C0*%
X356628700Y-95390800D03*
D13*
%TO.N,KEY_ROW0*%
X356628700Y-87590800D03*
%TD*%
D12*
%TO.N,Net-(D13\u002C2-Pad2)*%
%TO.C,D13\u002C2*%
X349961200Y-152731300D03*
D13*
%TO.N,KEY_ROW2*%
X349961200Y-144931300D03*
%TD*%
D12*
%TO.N,Net-(D13\u002C1-Pad2)*%
%TO.C,D13\u002C1*%
X345071700Y-133427300D03*
D13*
%TO.N,KEY_ROW1*%
X345071700Y-125627300D03*
%TD*%
D12*
%TO.N,Net-(D14\u002C1-Pad2)*%
%TO.C,D14\u002C1*%
X383171700Y-133427300D03*
D13*
%TO.N,KEY_ROW1*%
X383171700Y-125627300D03*
%TD*%
D12*
%TO.N,Net-(D14\u002C3-Pad2)*%
%TO.C,D14\u002C3*%
X383425700Y-152667800D03*
D13*
%TO.N,KEY_ROW3*%
X383425700Y-144867800D03*
%TD*%
D12*
%TO.N,Net-(D14\u002C0-Pad2)*%
%TO.C,D14\u002C0*%
X386092700Y-95390800D03*
D13*
%TO.N,KEY_ROW0*%
X386092700Y-87590800D03*
%TD*%
D12*
%TO.N,Net-(D14\u002C6-Pad2)*%
%TO.C,D14\u002C6*%
X383108200Y-211214800D03*
D13*
%TO.N,KEY_ROW6*%
X383108200Y-203414800D03*
%TD*%
D12*
%TO.N,Net-(D15\u002C0-Pad2)*%
%TO.C,D15\u002C0*%
X405904700Y-95390800D03*
D13*
%TO.N,KEY_ROW0*%
X405904700Y-87590800D03*
%TD*%
D12*
%TO.N,Net-(D15\u002C1-Pad2)*%
%TO.C,D15\u002C1*%
X402475700Y-133427300D03*
D13*
%TO.N,KEY_ROW1*%
X402475700Y-125627300D03*
%TD*%
D12*
%TO.N,Net-(D15\u002C3-Pad2)*%
%TO.C,D15\u002C3*%
X402475700Y-152667800D03*
D13*
%TO.N,KEY_ROW3*%
X402475700Y-144867800D03*
%TD*%
D12*
%TO.N,Net-(D15\u002C5-Pad2)*%
%TO.C,D15\u002C5*%
X402412200Y-191910800D03*
D13*
%TO.N,KEY_ROW5*%
X402412200Y-184110800D03*
%TD*%
D12*
%TO.N,Net-(D15\u002C6-Pad2)*%
%TO.C,D15\u002C6*%
X402412200Y-211214800D03*
D13*
%TO.N,KEY_ROW6*%
X402412200Y-203414800D03*
%TD*%
D12*
%TO.N,Net-(D16\u002C6-Pad2)*%
%TO.C,D16\u002C6*%
X421716200Y-211214800D03*
D13*
%TO.N,KEY_ROW6*%
X421716200Y-203414800D03*
%TD*%
D12*
%TO.N,Net-(D16\u002C0-Pad2)*%
%TO.C,D16\u002C0*%
X424954700Y-95390800D03*
D13*
%TO.N,KEY_ROW0*%
X424954700Y-87590800D03*
%TD*%
D12*
%TO.N,Net-(D16\u002C1-Pad2)*%
%TO.C,D16\u002C1*%
X421779700Y-133427300D03*
D13*
%TO.N,KEY_ROW1*%
X421779700Y-125627300D03*
%TD*%
D12*
%TO.N,Net-(D16\u002C5-Pad2)*%
%TO.C,D16\u002C5*%
X454545700Y-191402800D03*
D13*
%TO.N,KEY_ROW5*%
X454545700Y-183602800D03*
%TD*%
D12*
%TO.N,Net-(D16\u002C3-Pad2)*%
%TO.C,D16\u002C3*%
X422033700Y-152667800D03*
D13*
%TO.N,KEY_ROW3*%
X422033700Y-144867800D03*
%TD*%
D12*
%TO.N,Net-(D16\u002C4-Pad2)*%
%TO.C,D16\u002C4*%
X454799700Y-172098800D03*
D13*
%TO.N,KEY_ROW4*%
X454799700Y-164298800D03*
%TD*%
D12*
%TO.N,Net-(D17\u002C3-Pad2)*%
%TO.C,D17\u002C3*%
X454799700Y-152794800D03*
D13*
%TO.N,KEY_ROW3*%
X454799700Y-144994800D03*
%TD*%
D12*
%TO.N,Net-(D17\u002C1-Pad2)*%
%TO.C,D17\u002C1*%
X454799700Y-133427300D03*
D13*
%TO.N,KEY_ROW1*%
X454799700Y-125627300D03*
%TD*%
D12*
%TO.N,Net-(D17\u002C6-Pad2)*%
%TO.C,D17\u002C6*%
X464578700Y-210757600D03*
D13*
%TO.N,KEY_ROW6*%
X464578700Y-202957600D03*
%TD*%
D12*
%TO.N,Net-(D17\u002C4-Pad2)*%
%TO.C,D17\u002C4*%
X474103700Y-172098800D03*
D13*
%TO.N,KEY_ROW4*%
X474103700Y-164298800D03*
%TD*%
D12*
%TO.N,Net-(D17\u002C0-Pad2)*%
%TO.C,D17\u002C0*%
X454672700Y-95390800D03*
D13*
%TO.N,KEY_ROW0*%
X454672700Y-87590800D03*
%TD*%
D12*
%TO.N,Net-(D17\u002C5-Pad2)*%
%TO.C,D17\u002C5*%
X474103700Y-191402800D03*
D13*
%TO.N,KEY_ROW5*%
X474103700Y-183602800D03*
%TD*%
D12*
%TO.N,Net-(D18\u002C1-Pad2)*%
%TO.C,D18\u002C1*%
X474103700Y-133478100D03*
D13*
%TO.N,KEY_ROW1*%
X474103700Y-125678100D03*
%TD*%
D12*
%TO.N,Net-(D18\u002C6-Pad2)*%
%TO.C,D18\u002C6*%
X493407700Y-210706800D03*
D13*
%TO.N,KEY_ROW6*%
X493407700Y-202906800D03*
%TD*%
D12*
%TO.N,Net-(D18\u002C3-Pad2)*%
%TO.C,D18\u002C3*%
X474103700Y-152794800D03*
D13*
%TO.N,KEY_ROW3*%
X474103700Y-144994800D03*
%TD*%
D12*
%TO.N,Net-(D18\u002C0-Pad2)*%
%TO.C,D18\u002C0*%
X473976700Y-95390800D03*
D13*
%TO.N,KEY_ROW0*%
X473976700Y-87590800D03*
%TD*%
D12*
%TO.N,Net-(D18\u002C5-Pad2)*%
%TO.C,D18\u002C5*%
X493407700Y-191402800D03*
D13*
%TO.N,KEY_ROW5*%
X493407700Y-183602800D03*
%TD*%
D12*
%TO.N,Net-(D18\u002C4-Pad2)*%
%TO.C,D18\u002C4*%
X493407700Y-172035300D03*
D13*
%TO.N,KEY_ROW4*%
X493407700Y-164235300D03*
%TD*%
D12*
%TO.N,Net-(D19\u002C4-Pad2)*%
%TO.C,D19\u002C4*%
X512711700Y-162116600D03*
D13*
%TO.N,KEY_ROW4*%
X512711700Y-154316600D03*
%TD*%
D12*
%TO.N,Net-(D19\u002C0-Pad2)*%
%TO.C,D19\u002C0*%
X493280700Y-95390800D03*
D13*
%TO.N,KEY_ROW0*%
X493280700Y-87590800D03*
%TD*%
D12*
%TO.N,Net-(D19\u002C3-Pad2)*%
%TO.C,D19\u002C3*%
X493407700Y-152794800D03*
D13*
%TO.N,KEY_ROW3*%
X493407700Y-144994800D03*
%TD*%
D12*
%TO.N,Net-(D19\u002C1-Pad2)*%
%TO.C,D19\u002C1*%
X493407700Y-133427300D03*
D13*
%TO.N,KEY_ROW1*%
X493407700Y-125627300D03*
%TD*%
D12*
%TO.N,Net-(D19\u002C6-Pad2)*%
%TO.C,D19\u002C6*%
X512965700Y-201054800D03*
D13*
%TO.N,KEY_ROW6*%
X512965700Y-193254800D03*
%TD*%
D12*
%TO.N,Net-(D20\u002C1-Pad2)*%
%TO.C,D20\u002C1*%
X512711700Y-133427300D03*
D13*
%TO.N,KEY_ROW1*%
X512711700Y-125627300D03*
%TD*%
D12*
%TO.N,Net-(D20\u002C0-Pad2)*%
%TO.C,D20\u002C0*%
X512584700Y-95441600D03*
D13*
%TO.N,KEY_ROW0*%
X512584700Y-87641600D03*
%TD*%
D14*
%TO.N,GNDPWR*%
%TO.C,J0*%
X142443200Y-55733300D03*
%TO.N,USB_DN*%
X142443200Y-58233300D03*
%TO.N,USB_DP*%
X142443200Y-60733300D03*
%TO.N,MAIN_VBUS*%
%TA.AperFunction,ComponentPad*%
G36*
G01*
X143168200Y-64083300D02*
X141718200Y-64083300D01*
G75*
G02*
X141468200Y-63833300I0J250000D01*
G01*
X141468200Y-62633300D01*
G75*
G02*
X141718200Y-62383300I250000J0D01*
G01*
X143168200Y-62383300D01*
G75*
G02*
X143418200Y-62633300I0J-250000D01*
G01*
X143418200Y-63833300D01*
G75*
G02*
X143168200Y-64083300I-250000J0D01*
G01*
G37*
%TD.AperFunction*%
%TD*%
%TO.N,Net-(J1-Pad4)*%
%TO.C,J1*%
X142443200Y-41826800D03*
%TO.N,Net-(J1-Pad3)*%
X142443200Y-44326800D03*
%TO.N,PICO_SCL0*%
X142443200Y-46826800D03*
%TO.N,PICO_SDA0*%
%TA.AperFunction,ComponentPad*%
G36*
G01*
X143168200Y-50176800D02*
X141718200Y-50176800D01*
G75*
G02*
X141468200Y-49926800I0J250000D01*
G01*
X141468200Y-48726800D01*
G75*
G02*
X141718200Y-48476800I250000J0D01*
G01*
X143168200Y-48476800D01*
G75*
G02*
X143418200Y-48726800I0J-250000D01*
G01*
X143418200Y-49926800D01*
G75*
G02*
X143168200Y-50176800I-250000J0D01*
G01*
G37*
%TD.AperFunction*%
%TD*%
D15*
%TO.N,KEY_ROW6*%
X71513700Y-128638300D03*
%TO.N,I2C_SDA0*%
X74625200Y-87426800D03*
X67005200Y-97586800D03*
X71513700Y-121018300D03*
%TO.N,I2C_SCL0*%
X73101200Y-86918800D03*
X66497200Y-99110800D03*
X71577200Y-122478800D03*
X66497200Y-103174800D03*
%TO.N,GNDPWR*%
X56845200Y-98094800D03*
X75576200Y-78855800D03*
X75811700Y-92697300D03*
X73111200Y-116372800D03*
X148729200Y-73202800D03*
X111709200Y-97967800D03*
%TO.N,KEY_COL6*%
X80403700Y-134988300D03*
X215187200Y-130760800D03*
%TO.N,KEY_COL5*%
X80657700Y-133718300D03*
X195883200Y-130848100D03*
%TO.N,KEY_COL4*%
X80530700Y-132448300D03*
X176579200Y-130760800D03*
%TO.N,KEY_COL3*%
X80657700Y-131178300D03*
X157275200Y-130760800D03*
%TO.N,KEY_COL2*%
X80530700Y-129908300D03*
X138479200Y-130760800D03*
%TO.N,KEY_COL1*%
X119276800Y-130860800D03*
X80657700Y-128638300D03*
%TO.N,KEY_COL7*%
X80721200Y-104190800D03*
X267892200Y-92811600D03*
%TO.N,KEY_COL8*%
X80467200Y-105460800D03*
X287196200Y-92811600D03*
%TO.N,KEY_COL9*%
X80721200Y-106730800D03*
X313612200Y-92811600D03*
%TO.N,KEY_COL10*%
X80467200Y-108000800D03*
X332916200Y-92811600D03*
%TO.N,KEY_COL11*%
X80721200Y-109270800D03*
X352220200Y-92811600D03*
%TO.N,KEY_COL12*%
X80467200Y-110540800D03*
X371524200Y-92811600D03*
%TO.N,KEY_COL13*%
X80721200Y-111810800D03*
X359776700Y-130797300D03*
%TO.N,KEY_COL19*%
X71577200Y-106730800D03*
X508176200Y-92811600D03*
%TO.N,KEY_COL18*%
X71323200Y-108000800D03*
X488872200Y-92811600D03*
%TO.N,KEY_COL17*%
X71577200Y-109270800D03*
X469568200Y-92811600D03*
%TO.N,KEY_COL16*%
X71323200Y-110540800D03*
X439850200Y-92811600D03*
%TO.N,KEY_COL15*%
X420546200Y-92811600D03*
X82245200Y-117906800D03*
%TO.N,KEY_COL14*%
X70815200Y-113080800D03*
X400988200Y-92811600D03*
%TO.N,LED_SCL_ROW1*%
X55765700Y-112763300D03*
X88341200Y-121970800D03*
%TO.N,LED_SDA_ROW1*%
X55638700Y-111493300D03*
X89357200Y-120446800D03*
%TO.N,LED_SCL_ROW3*%
X55257700Y-117843300D03*
X79197200Y-159054800D03*
%TO.N,LED_SDA_ROW3*%
X55511700Y-116573300D03*
X79705200Y-157022800D03*
%TO.N,LED_SCL_ROW2*%
X55765700Y-115303300D03*
X93421200Y-140766800D03*
%TO.N,LED_SDA_ROW2*%
X55511700Y-114033300D03*
X93929200Y-139242800D03*
%TO.N,LED_SCL_ROW0*%
X51257200Y-94030800D03*
X54813200Y-90474800D03*
%TO.N,LED_SDA_ROW6*%
X373329200Y-206806800D03*
X87325200Y-198678800D03*
%TO.N,LED_SCL_ROW6*%
X372513209Y-208530809D03*
X86817200Y-200202800D03*
%TO.N,MAIN_VBUS*%
X59893200Y-98094800D03*
X75641200Y-116382800D03*
X352400200Y-163058300D03*
X346405200Y-163118800D03*
X65735200Y-82092800D03*
X79070200Y-82473800D03*
X73101200Y-92506800D03*
X74117200Y-102158800D03*
X58877200Y-107746800D03*
X140729200Y-73202800D03*
X113969800Y-86131400D03*
X155969181Y-86346819D03*
X207111600Y-86258400D03*
X293484300Y-86144100D03*
X443763400Y-86487000D03*
X101295200Y-124714000D03*
X179225699Y-124304301D03*
X217779600Y-124561600D03*
X338709000Y-124434600D03*
X445973200Y-124358400D03*
X525703800Y-82423000D03*
X526288000Y-108915200D03*
X526288000Y-123596400D03*
X525627600Y-152806400D03*
X526034000Y-190246000D03*
X101733831Y-143782569D03*
X185623200Y-143357600D03*
X224864649Y-143486151D03*
X342722200Y-143535400D03*
X445973200Y-143357600D03*
X527253200Y-147574000D03*
X113538000Y-162814000D03*
X189258699Y-162531301D03*
X231648000Y-162814000D03*
X337210400Y-162915600D03*
X445973200Y-161442400D03*
X113538000Y-183235600D03*
X183899699Y-182883699D03*
X241503200Y-182880000D03*
X331978000Y-182981600D03*
X445973200Y-182930800D03*
X445973200Y-201980800D03*
X323646800Y-202590400D03*
X241503200Y-202234800D03*
X181660800Y-202133200D03*
X110210600Y-201955400D03*
X514705600Y-181356000D03*
%TO.N,IO_INT0*%
X76657200Y-125018800D03*
X70815200Y-85648800D03*
%TO.N,IO_INT1*%
X76657200Y-126542800D03*
X69545200Y-85902800D03*
%TO.N,IO_INT2*%
X74625200Y-103682800D03*
X68275200Y-86156800D03*
%TO.N,IO_INT3*%
X75133200Y-104698800D03*
X67005200Y-87934800D03*
%TO.N,KEY_ROW5*%
X71386700Y-129908300D03*
%TO.N,KEY_ROW4*%
X73037700Y-131178300D03*
%TO.N,KEY_ROW3*%
X73418700Y-132448300D03*
%TO.N,KEY_ROW2*%
X74561700Y-133718300D03*
%TO.N,KEY_ROW1*%
X76466700Y-134988300D03*
%TO.N,KEY_ROW0*%
X71513700Y-136258300D03*
%TO.N,LED_SCL_ROW7*%
X458724000Y-108813600D03*
X76657200Y-205282800D03*
X60718700Y-108953300D03*
X61417200Y-128574800D03*
%TO.N,LED_SDA_ROW7*%
X458848000Y-107413600D03*
X79705200Y-205790800D03*
%TO.N,PICO_33_REF*%
X56019700Y-102603300D03*
%TO.N,KEY_COL20*%
X71323200Y-105460800D03*
X527480200Y-92811600D03*
%TD*%
D16*
%TO.N,GNDPWR*%
X142568200Y-55733300D02*
X146761200Y-59926300D01*
X142443200Y-55733300D02*
X142568200Y-55733300D01*
X146761200Y-59926300D02*
X146761200Y-63042800D01*
X146761200Y-63042800D02*
X142697200Y-67106800D01*
X142697200Y-67106800D02*
X139649200Y-67106800D01*
X139649200Y-67106800D02*
X133553200Y-73202800D01*
X81229200Y-73202800D02*
X75576200Y-78855800D01*
X82245200Y-82346800D02*
X82245200Y-86263800D01*
X78754200Y-78855800D02*
X82245200Y-82346800D01*
X82245200Y-86263800D02*
X75811700Y-92697300D01*
X75576200Y-78855800D02*
X78754200Y-78855800D01*
X76495201Y-93380801D02*
X75811700Y-92697300D01*
X76495201Y-117560799D02*
X76495201Y-93380801D01*
X76149200Y-117906800D02*
X76495201Y-117560799D01*
X74645200Y-117906800D02*
X76149200Y-117906800D01*
X73111200Y-116372800D02*
X74645200Y-117906800D01*
X133553200Y-73202800D02*
X81229200Y-73202800D01*
%TO.N,MAIN_VBUS*%
X142443200Y-63233300D02*
X130187700Y-63233300D01*
X128844699Y-61890299D02*
X128844699Y-54035301D01*
X130187700Y-63233300D02*
X128844699Y-61890299D01*
X130668700Y-52211300D02*
X130668700Y-49939300D01*
X128844699Y-54035301D02*
X130668700Y-52211300D01*
X352339700Y-163118800D02*
X352400200Y-163058300D01*
X346405200Y-163118800D02*
X352339700Y-163118800D01*
X84594700Y-63233300D02*
X65735200Y-82092800D01*
X142443200Y-63233300D02*
X84594700Y-63233300D01*
X66116200Y-82473800D02*
X65735200Y-82092800D01*
X79070200Y-82473800D02*
X66116200Y-82473800D01*
X65735200Y-85140800D02*
X73101200Y-92506800D01*
X65735200Y-82092800D02*
X65735200Y-85140800D01*
X73101200Y-101142800D02*
X74117200Y-102158800D01*
X73101200Y-92506800D02*
X73101200Y-101142800D01*
X65735200Y-98348800D02*
X64973200Y-99110800D01*
X64973200Y-105714800D02*
X75133200Y-115874800D01*
X64973200Y-99110800D02*
X64973200Y-105714800D01*
X75133200Y-115874800D02*
X75641200Y-116382800D01*
X63449200Y-98094800D02*
X65735200Y-95808800D01*
X59893200Y-98094800D02*
X63449200Y-98094800D01*
X65735200Y-95808800D02*
X65735200Y-98348800D01*
X65735200Y-82092800D02*
X65735200Y-95808800D01*
X59893200Y-106730800D02*
X58877200Y-107746800D01*
D17*
X140729200Y-73202800D02*
X145745700Y-78219300D01*
X288531300Y-78219300D02*
X293484300Y-83172300D01*
X293484300Y-83172300D02*
X293484300Y-86144100D01*
X293484300Y-92766162D02*
X293484300Y-101155500D01*
X293484300Y-101155500D02*
X307695600Y-115366800D01*
X307695600Y-115366800D02*
X329641200Y-115366800D01*
X340004400Y-125730000D02*
X340004400Y-140817600D01*
X329641200Y-115366800D02*
X338709000Y-124434600D01*
X340004400Y-140817600D02*
X342722200Y-143535400D01*
X345135200Y-145948400D02*
X345135200Y-154990800D01*
X345135200Y-154990800D02*
X337210400Y-162915600D01*
X331978000Y-168148000D02*
X331978000Y-182981600D01*
X331978000Y-194259200D02*
X323646800Y-202590400D01*
X288531300Y-78219300D02*
X435495700Y-78219300D01*
X435495700Y-78219300D02*
X443763400Y-86487000D01*
X445973200Y-88696800D02*
X445973200Y-124358400D01*
X198996300Y-78219300D02*
X199072500Y-78219300D01*
X145745700Y-78219300D02*
X198996300Y-78219300D01*
X198996300Y-78219300D02*
X288531300Y-78219300D01*
X199072500Y-78219300D02*
X207111600Y-86258400D01*
X207365600Y-86512400D02*
X207365600Y-114147600D01*
X217833699Y-134273061D02*
X223514638Y-139954000D01*
X217833699Y-124615699D02*
X217833699Y-134273061D01*
X207365600Y-114147600D02*
X217779600Y-124561600D01*
X223514638Y-142136140D02*
X224864649Y-143486151D01*
X223514638Y-139954000D02*
X223514638Y-142136140D01*
X227076000Y-158242000D02*
X231648000Y-162814000D01*
X227076000Y-145697502D02*
X227076000Y-158242000D01*
X232257600Y-172445962D02*
X241503200Y-181691562D01*
X232257600Y-163423600D02*
X232257600Y-172445962D01*
X241503200Y-181691562D02*
X241503200Y-182880000D01*
X140729200Y-73202800D02*
X140617699Y-73314301D01*
X435495700Y-78219300D02*
X519468100Y-78219300D01*
X139479200Y-74452800D02*
X125648400Y-74452800D01*
X140729200Y-73202800D02*
X139479200Y-74452800D01*
X125648400Y-74452800D02*
X113969800Y-86131400D01*
X101295200Y-143343938D02*
X101733831Y-143782569D01*
X101295200Y-98806000D02*
X101295200Y-124714000D01*
X113538000Y-155586738D02*
X113538000Y-162814000D01*
X113538000Y-198628000D02*
X110210600Y-201955400D01*
X140729200Y-73202800D02*
X150228800Y-82702400D01*
X161826699Y-92204337D02*
X161826699Y-102289099D01*
X152324762Y-82702400D02*
X155969181Y-86346819D01*
X150228800Y-82702400D02*
X152324762Y-82702400D01*
X179225699Y-119688099D02*
X179225699Y-124304301D01*
X161826699Y-102289099D02*
X179225699Y-119688099D01*
X191333701Y-175449697D02*
X183899699Y-182883699D01*
X191333701Y-166097839D02*
X191333701Y-175449697D01*
X189258699Y-164022837D02*
X191333701Y-166097839D01*
X189258699Y-146993099D02*
X189258699Y-162531301D01*
X179225699Y-136960099D02*
X185623200Y-143357600D01*
X181660800Y-185122598D02*
X181660800Y-202133200D01*
X113969800Y-86131400D02*
X101295200Y-98806000D01*
X155969181Y-86346819D02*
X161826699Y-92204337D01*
X207111600Y-86258400D02*
X207365600Y-86512400D01*
X293484300Y-86144100D02*
X293484300Y-92766162D01*
X443763400Y-86487000D02*
X445973200Y-88696800D01*
X101295200Y-124714000D02*
X101295200Y-143343938D01*
X179225699Y-124304301D02*
X179225699Y-136960099D01*
X217779600Y-124561600D02*
X217833699Y-124615699D01*
X338709000Y-124434600D02*
X340004400Y-125730000D01*
X445973200Y-124358400D02*
X445973200Y-143357600D01*
X519468100Y-78219300D02*
X521500100Y-78219300D01*
X521500100Y-78219300D02*
X525703800Y-82423000D01*
X528842201Y-85561401D02*
X528842201Y-106106999D01*
X525983200Y-82702400D02*
X528842201Y-85561401D01*
X528842201Y-106106999D02*
X526288000Y-108661200D01*
X526288000Y-108661200D02*
X526288000Y-108915200D01*
X526288000Y-125171200D02*
X528726400Y-127609600D01*
X528726400Y-127609600D02*
X528726400Y-146100800D01*
X528726400Y-146100800D02*
X527253200Y-147574000D01*
X525627600Y-149199600D02*
X525627600Y-152806400D01*
X525627600Y-153720800D02*
X528218400Y-156311600D01*
X528218400Y-188061600D02*
X526034000Y-190246000D01*
X525703800Y-82423000D02*
X525983200Y-82702400D01*
X526288000Y-108915200D02*
X526288000Y-123596400D01*
X526288000Y-123596400D02*
X526288000Y-125171200D01*
X525627600Y-152806400D02*
X525627600Y-153720800D01*
X101733831Y-143782569D02*
X113538000Y-155586738D01*
X185623200Y-143357600D02*
X189258699Y-146993099D01*
X224864649Y-143486151D02*
X227076000Y-145697502D01*
X342722200Y-143535400D02*
X345135200Y-145948400D01*
X445973200Y-143357600D02*
X445973200Y-161442400D01*
X527253200Y-147574000D02*
X525627600Y-149199600D01*
X113538000Y-162814000D02*
X113538000Y-183235600D01*
X189258699Y-162531301D02*
X189258699Y-164022837D01*
X231648000Y-162814000D02*
X232257600Y-163423600D01*
X337210400Y-162915600D02*
X331978000Y-168148000D01*
X445973200Y-161442400D02*
X445973200Y-182930800D01*
X113538000Y-183235600D02*
X113538000Y-198628000D01*
X183899699Y-182883699D02*
X181660800Y-185122598D01*
X241503200Y-182880000D02*
X241503200Y-202234800D01*
X331978000Y-182981600D02*
X331978000Y-194259200D01*
X445973200Y-182930800D02*
X445973200Y-201980800D01*
X110210600Y-201955400D02*
X109575600Y-202590400D01*
X528218400Y-172415200D02*
X528218400Y-176428400D01*
X528218400Y-156311600D02*
X528218400Y-172415200D01*
X528218400Y-172415200D02*
X528218400Y-188061600D01*
X528218400Y-176428400D02*
X523290800Y-181356000D01*
X523290800Y-181356000D02*
X514705600Y-181356000D01*
D16*
X59893200Y-106730800D02*
X59893200Y-101346000D01*
X59893200Y-101346000D02*
X58572400Y-100025200D01*
X58572400Y-99415600D02*
X59893200Y-98094800D01*
X58572400Y-100025200D02*
X58572400Y-99415600D01*
%TD*%
M02*
