%TF.GenerationSoftware,KiCad,Pcbnew,(5.1.9)-1*%
%TF.CreationDate,2021-03-20T17:55:26+10:00*%
%TF.ProjectId,RedPyKeeb,52656450-794b-4656-9562-2e6b69636164,rev?*%
%TF.SameCoordinates,Original*%
%TF.FileFunction,Paste,Bot*%
%TF.FilePolarity,Positive*%
%FSLAX46Y46*%
G04 Gerber Fmt 4.6, Leading zero omitted, Abs format (unit mm)*
G04 Created by KiCad (PCBNEW (5.1.9)-1) date 2021-03-20 17:55:26*
%MOMM*%
%LPD*%
G01*
G04 APERTURE LIST*
%ADD10R,2.550000X2.500000*%
%ADD11R,1.500000X1.250000*%
%ADD12R,1.200000X1.200000*%
G04 APERTURE END LIST*
D10*
%TO.C,K12\u002C3*%
X345008200Y-172072300D03*
X357935200Y-169532300D03*
%TD*%
%TO.C,K0\u002C2*%
X91833700Y-152603200D03*
X104760700Y-150063200D03*
%TD*%
%TO.C,K18\u002C4*%
X495376200Y-171996100D03*
X508303200Y-169456100D03*
%TD*%
%TO.C,K10\u002C3*%
X294398700Y-172059600D03*
X307325700Y-169519600D03*
%TD*%
%TO.C,K13\u002C1*%
X346849700Y-133337300D03*
X359776700Y-130797300D03*
%TD*%
%TO.C,K19\u002C4*%
X514680200Y-162280600D03*
X527607200Y-159740600D03*
%TD*%
%TO.C,U2*%
G36*
G01*
X77678700Y-113230800D02*
X77678700Y-112930800D01*
G75*
G02*
X77828700Y-112780800I150000J0D01*
G01*
X79578700Y-112780800D01*
G75*
G02*
X79728700Y-112930800I0J-150000D01*
G01*
X79728700Y-113230800D01*
G75*
G02*
X79578700Y-113380800I-150000J0D01*
G01*
X77828700Y-113380800D01*
G75*
G02*
X77678700Y-113230800I0J150000D01*
G01*
G37*
G36*
G01*
X77678700Y-111960800D02*
X77678700Y-111660800D01*
G75*
G02*
X77828700Y-111510800I150000J0D01*
G01*
X79578700Y-111510800D01*
G75*
G02*
X79728700Y-111660800I0J-150000D01*
G01*
X79728700Y-111960800D01*
G75*
G02*
X79578700Y-112110800I-150000J0D01*
G01*
X77828700Y-112110800D01*
G75*
G02*
X77678700Y-111960800I0J150000D01*
G01*
G37*
G36*
G01*
X77678700Y-110690800D02*
X77678700Y-110390800D01*
G75*
G02*
X77828700Y-110240800I150000J0D01*
G01*
X79578700Y-110240800D01*
G75*
G02*
X79728700Y-110390800I0J-150000D01*
G01*
X79728700Y-110690800D01*
G75*
G02*
X79578700Y-110840800I-150000J0D01*
G01*
X77828700Y-110840800D01*
G75*
G02*
X77678700Y-110690800I0J150000D01*
G01*
G37*
G36*
G01*
X77678700Y-109420800D02*
X77678700Y-109120800D01*
G75*
G02*
X77828700Y-108970800I150000J0D01*
G01*
X79578700Y-108970800D01*
G75*
G02*
X79728700Y-109120800I0J-150000D01*
G01*
X79728700Y-109420800D01*
G75*
G02*
X79578700Y-109570800I-150000J0D01*
G01*
X77828700Y-109570800D01*
G75*
G02*
X77678700Y-109420800I0J150000D01*
G01*
G37*
G36*
G01*
X77678700Y-108150800D02*
X77678700Y-107850800D01*
G75*
G02*
X77828700Y-107700800I150000J0D01*
G01*
X79578700Y-107700800D01*
G75*
G02*
X79728700Y-107850800I0J-150000D01*
G01*
X79728700Y-108150800D01*
G75*
G02*
X79578700Y-108300800I-150000J0D01*
G01*
X77828700Y-108300800D01*
G75*
G02*
X77678700Y-108150800I0J150000D01*
G01*
G37*
G36*
G01*
X77678700Y-106880800D02*
X77678700Y-106580800D01*
G75*
G02*
X77828700Y-106430800I150000J0D01*
G01*
X79578700Y-106430800D01*
G75*
G02*
X79728700Y-106580800I0J-150000D01*
G01*
X79728700Y-106880800D01*
G75*
G02*
X79578700Y-107030800I-150000J0D01*
G01*
X77828700Y-107030800D01*
G75*
G02*
X77678700Y-106880800I0J150000D01*
G01*
G37*
G36*
G01*
X77678700Y-105610800D02*
X77678700Y-105310800D01*
G75*
G02*
X77828700Y-105160800I150000J0D01*
G01*
X79578700Y-105160800D01*
G75*
G02*
X79728700Y-105310800I0J-150000D01*
G01*
X79728700Y-105610800D01*
G75*
G02*
X79578700Y-105760800I-150000J0D01*
G01*
X77828700Y-105760800D01*
G75*
G02*
X77678700Y-105610800I0J150000D01*
G01*
G37*
G36*
G01*
X77678700Y-104340800D02*
X77678700Y-104040800D01*
G75*
G02*
X77828700Y-103890800I150000J0D01*
G01*
X79578700Y-103890800D01*
G75*
G02*
X79728700Y-104040800I0J-150000D01*
G01*
X79728700Y-104340800D01*
G75*
G02*
X79578700Y-104490800I-150000J0D01*
G01*
X77828700Y-104490800D01*
G75*
G02*
X77678700Y-104340800I0J150000D01*
G01*
G37*
G36*
G01*
X77678700Y-103070800D02*
X77678700Y-102770800D01*
G75*
G02*
X77828700Y-102620800I150000J0D01*
G01*
X79578700Y-102620800D01*
G75*
G02*
X79728700Y-102770800I0J-150000D01*
G01*
X79728700Y-103070800D01*
G75*
G02*
X79578700Y-103220800I-150000J0D01*
G01*
X77828700Y-103220800D01*
G75*
G02*
X77678700Y-103070800I0J150000D01*
G01*
G37*
G36*
G01*
X77678700Y-101800800D02*
X77678700Y-101500800D01*
G75*
G02*
X77828700Y-101350800I150000J0D01*
G01*
X79578700Y-101350800D01*
G75*
G02*
X79728700Y-101500800I0J-150000D01*
G01*
X79728700Y-101800800D01*
G75*
G02*
X79578700Y-101950800I-150000J0D01*
G01*
X77828700Y-101950800D01*
G75*
G02*
X77678700Y-101800800I0J150000D01*
G01*
G37*
G36*
G01*
X77678700Y-100530800D02*
X77678700Y-100230800D01*
G75*
G02*
X77828700Y-100080800I150000J0D01*
G01*
X79578700Y-100080800D01*
G75*
G02*
X79728700Y-100230800I0J-150000D01*
G01*
X79728700Y-100530800D01*
G75*
G02*
X79578700Y-100680800I-150000J0D01*
G01*
X77828700Y-100680800D01*
G75*
G02*
X77678700Y-100530800I0J150000D01*
G01*
G37*
G36*
G01*
X77678700Y-99260800D02*
X77678700Y-98960800D01*
G75*
G02*
X77828700Y-98810800I150000J0D01*
G01*
X79578700Y-98810800D01*
G75*
G02*
X79728700Y-98960800I0J-150000D01*
G01*
X79728700Y-99260800D01*
G75*
G02*
X79578700Y-99410800I-150000J0D01*
G01*
X77828700Y-99410800D01*
G75*
G02*
X77678700Y-99260800I0J150000D01*
G01*
G37*
G36*
G01*
X77678700Y-97990800D02*
X77678700Y-97690800D01*
G75*
G02*
X77828700Y-97540800I150000J0D01*
G01*
X79578700Y-97540800D01*
G75*
G02*
X79728700Y-97690800I0J-150000D01*
G01*
X79728700Y-97990800D01*
G75*
G02*
X79578700Y-98140800I-150000J0D01*
G01*
X77828700Y-98140800D01*
G75*
G02*
X77678700Y-97990800I0J150000D01*
G01*
G37*
G36*
G01*
X77678700Y-96720800D02*
X77678700Y-96420800D01*
G75*
G02*
X77828700Y-96270800I150000J0D01*
G01*
X79578700Y-96270800D01*
G75*
G02*
X79728700Y-96420800I0J-150000D01*
G01*
X79728700Y-96720800D01*
G75*
G02*
X79578700Y-96870800I-150000J0D01*
G01*
X77828700Y-96870800D01*
G75*
G02*
X77678700Y-96720800I0J150000D01*
G01*
G37*
G36*
G01*
X68378700Y-96720800D02*
X68378700Y-96420800D01*
G75*
G02*
X68528700Y-96270800I150000J0D01*
G01*
X70278700Y-96270800D01*
G75*
G02*
X70428700Y-96420800I0J-150000D01*
G01*
X70428700Y-96720800D01*
G75*
G02*
X70278700Y-96870800I-150000J0D01*
G01*
X68528700Y-96870800D01*
G75*
G02*
X68378700Y-96720800I0J150000D01*
G01*
G37*
G36*
G01*
X68378700Y-97990800D02*
X68378700Y-97690800D01*
G75*
G02*
X68528700Y-97540800I150000J0D01*
G01*
X70278700Y-97540800D01*
G75*
G02*
X70428700Y-97690800I0J-150000D01*
G01*
X70428700Y-97990800D01*
G75*
G02*
X70278700Y-98140800I-150000J0D01*
G01*
X68528700Y-98140800D01*
G75*
G02*
X68378700Y-97990800I0J150000D01*
G01*
G37*
G36*
G01*
X68378700Y-99260800D02*
X68378700Y-98960800D01*
G75*
G02*
X68528700Y-98810800I150000J0D01*
G01*
X70278700Y-98810800D01*
G75*
G02*
X70428700Y-98960800I0J-150000D01*
G01*
X70428700Y-99260800D01*
G75*
G02*
X70278700Y-99410800I-150000J0D01*
G01*
X68528700Y-99410800D01*
G75*
G02*
X68378700Y-99260800I0J150000D01*
G01*
G37*
G36*
G01*
X68378700Y-100530800D02*
X68378700Y-100230800D01*
G75*
G02*
X68528700Y-100080800I150000J0D01*
G01*
X70278700Y-100080800D01*
G75*
G02*
X70428700Y-100230800I0J-150000D01*
G01*
X70428700Y-100530800D01*
G75*
G02*
X70278700Y-100680800I-150000J0D01*
G01*
X68528700Y-100680800D01*
G75*
G02*
X68378700Y-100530800I0J150000D01*
G01*
G37*
G36*
G01*
X68378700Y-101800800D02*
X68378700Y-101500800D01*
G75*
G02*
X68528700Y-101350800I150000J0D01*
G01*
X70278700Y-101350800D01*
G75*
G02*
X70428700Y-101500800I0J-150000D01*
G01*
X70428700Y-101800800D01*
G75*
G02*
X70278700Y-101950800I-150000J0D01*
G01*
X68528700Y-101950800D01*
G75*
G02*
X68378700Y-101800800I0J150000D01*
G01*
G37*
G36*
G01*
X68378700Y-103070800D02*
X68378700Y-102770800D01*
G75*
G02*
X68528700Y-102620800I150000J0D01*
G01*
X70278700Y-102620800D01*
G75*
G02*
X70428700Y-102770800I0J-150000D01*
G01*
X70428700Y-103070800D01*
G75*
G02*
X70278700Y-103220800I-150000J0D01*
G01*
X68528700Y-103220800D01*
G75*
G02*
X68378700Y-103070800I0J150000D01*
G01*
G37*
G36*
G01*
X68378700Y-104340800D02*
X68378700Y-104040800D01*
G75*
G02*
X68528700Y-103890800I150000J0D01*
G01*
X70278700Y-103890800D01*
G75*
G02*
X70428700Y-104040800I0J-150000D01*
G01*
X70428700Y-104340800D01*
G75*
G02*
X70278700Y-104490800I-150000J0D01*
G01*
X68528700Y-104490800D01*
G75*
G02*
X68378700Y-104340800I0J150000D01*
G01*
G37*
G36*
G01*
X68378700Y-105610800D02*
X68378700Y-105310800D01*
G75*
G02*
X68528700Y-105160800I150000J0D01*
G01*
X70278700Y-105160800D01*
G75*
G02*
X70428700Y-105310800I0J-150000D01*
G01*
X70428700Y-105610800D01*
G75*
G02*
X70278700Y-105760800I-150000J0D01*
G01*
X68528700Y-105760800D01*
G75*
G02*
X68378700Y-105610800I0J150000D01*
G01*
G37*
G36*
G01*
X68378700Y-106880800D02*
X68378700Y-106580800D01*
G75*
G02*
X68528700Y-106430800I150000J0D01*
G01*
X70278700Y-106430800D01*
G75*
G02*
X70428700Y-106580800I0J-150000D01*
G01*
X70428700Y-106880800D01*
G75*
G02*
X70278700Y-107030800I-150000J0D01*
G01*
X68528700Y-107030800D01*
G75*
G02*
X68378700Y-106880800I0J150000D01*
G01*
G37*
G36*
G01*
X68378700Y-108150800D02*
X68378700Y-107850800D01*
G75*
G02*
X68528700Y-107700800I150000J0D01*
G01*
X70278700Y-107700800D01*
G75*
G02*
X70428700Y-107850800I0J-150000D01*
G01*
X70428700Y-108150800D01*
G75*
G02*
X70278700Y-108300800I-150000J0D01*
G01*
X68528700Y-108300800D01*
G75*
G02*
X68378700Y-108150800I0J150000D01*
G01*
G37*
G36*
G01*
X68378700Y-109420800D02*
X68378700Y-109120800D01*
G75*
G02*
X68528700Y-108970800I150000J0D01*
G01*
X70278700Y-108970800D01*
G75*
G02*
X70428700Y-109120800I0J-150000D01*
G01*
X70428700Y-109420800D01*
G75*
G02*
X70278700Y-109570800I-150000J0D01*
G01*
X68528700Y-109570800D01*
G75*
G02*
X68378700Y-109420800I0J150000D01*
G01*
G37*
G36*
G01*
X68378700Y-110690800D02*
X68378700Y-110390800D01*
G75*
G02*
X68528700Y-110240800I150000J0D01*
G01*
X70278700Y-110240800D01*
G75*
G02*
X70428700Y-110390800I0J-150000D01*
G01*
X70428700Y-110690800D01*
G75*
G02*
X70278700Y-110840800I-150000J0D01*
G01*
X68528700Y-110840800D01*
G75*
G02*
X68378700Y-110690800I0J150000D01*
G01*
G37*
G36*
G01*
X68378700Y-111960800D02*
X68378700Y-111660800D01*
G75*
G02*
X68528700Y-111510800I150000J0D01*
G01*
X70278700Y-111510800D01*
G75*
G02*
X70428700Y-111660800I0J-150000D01*
G01*
X70428700Y-111960800D01*
G75*
G02*
X70278700Y-112110800I-150000J0D01*
G01*
X68528700Y-112110800D01*
G75*
G02*
X68378700Y-111960800I0J150000D01*
G01*
G37*
G36*
G01*
X68378700Y-113230800D02*
X68378700Y-112930800D01*
G75*
G02*
X68528700Y-112780800I150000J0D01*
G01*
X70278700Y-112780800D01*
G75*
G02*
X70428700Y-112930800I0J-150000D01*
G01*
X70428700Y-113230800D01*
G75*
G02*
X70278700Y-113380800I-150000J0D01*
G01*
X68528700Y-113380800D01*
G75*
G02*
X68378700Y-113230800I0J150000D01*
G01*
G37*
%TD*%
%TO.C,K11\u002C4*%
X340182200Y-191820800D03*
X353109200Y-189280800D03*
%TD*%
D11*
%TO.C,C1*%
X73057700Y-116319300D03*
X75557700Y-116319300D03*
%TD*%
%TO.C,C2*%
X75811700Y-92697300D03*
X73311700Y-92697300D03*
%TD*%
%TO.C,C6*%
G36*
G01*
X146729200Y-74202800D02*
X146729200Y-72202800D01*
G75*
G02*
X146979200Y-71952800I250000J0D01*
G01*
X150479200Y-71952800D01*
G75*
G02*
X150729200Y-72202800I0J-250000D01*
G01*
X150729200Y-74202800D01*
G75*
G02*
X150479200Y-74452800I-250000J0D01*
G01*
X146979200Y-74452800D01*
G75*
G02*
X146729200Y-74202800I0J250000D01*
G01*
G37*
G36*
G01*
X138729200Y-74202800D02*
X138729200Y-72202800D01*
G75*
G02*
X138979200Y-71952800I250000J0D01*
G01*
X142479200Y-71952800D01*
G75*
G02*
X142729200Y-72202800I0J-250000D01*
G01*
X142729200Y-74202800D01*
G75*
G02*
X142479200Y-74452800I-250000J0D01*
G01*
X138979200Y-74452800D01*
G75*
G02*
X138729200Y-74202800I0J250000D01*
G01*
G37*
%TD*%
D12*
%TO.C,D0\u002C3*%
X92405200Y-166750800D03*
X92405200Y-169900800D03*
%TD*%
%TO.C,D0\u002C5*%
X87769700Y-205866800D03*
X87769700Y-209016800D03*
%TD*%
%TO.C,D0\u002C4*%
X97167700Y-186499300D03*
X97167700Y-189649300D03*
%TD*%
%TO.C,D0\u002C0*%
X85356700Y-89915800D03*
X85356700Y-93065800D03*
%TD*%
%TO.C,D0\u002C2*%
X89865200Y-147192800D03*
X89865200Y-150342800D03*
%TD*%
%TO.C,D0\u002C1*%
X85356700Y-128015800D03*
X85356700Y-131165800D03*
%TD*%
%TO.C,D1\u002C3*%
X118694200Y-166623800D03*
X118694200Y-169773800D03*
%TD*%
%TO.C,D1\u002C0*%
X124980700Y-89966600D03*
X124980700Y-93116600D03*
%TD*%
%TO.C,D1\u002C4*%
X128092200Y-186435800D03*
X128092200Y-189585800D03*
%TD*%
%TO.C,D1\u002C5*%
X112153700Y-205866800D03*
X112153700Y-209016800D03*
%TD*%
%TO.C,D1\u002C1*%
X104660700Y-128015800D03*
X104660700Y-131165800D03*
%TD*%
%TO.C,D1\u002C2*%
X113804700Y-147192800D03*
X113804700Y-150342800D03*
%TD*%
%TO.C,D2\u002C4*%
X147396200Y-186435800D03*
X147396200Y-189585800D03*
%TD*%
%TO.C,D2\u002C5*%
X136537700Y-205866800D03*
X136537700Y-209016800D03*
%TD*%
%TO.C,D2\u002C0*%
X144284700Y-89915800D03*
X144284700Y-93065800D03*
%TD*%
%TO.C,D2\u002C2*%
X133108700Y-147192800D03*
X133108700Y-150342800D03*
%TD*%
%TO.C,D2\u002C1*%
X123583700Y-127952300D03*
X123583700Y-131102300D03*
%TD*%
%TO.C,D2\u002C3*%
X137998200Y-166623800D03*
X137998200Y-169773800D03*
%TD*%
%TO.C,D3\u002C0*%
X163588700Y-89915800D03*
X163588700Y-93065800D03*
%TD*%
%TO.C,D3\u002C1*%
X142379700Y-127952300D03*
X142379700Y-131102300D03*
%TD*%
%TO.C,D3\u002C4*%
X166700200Y-186435800D03*
X166700200Y-189585800D03*
%TD*%
%TO.C,D3\u002C2*%
X152412700Y-147192800D03*
X152412700Y-150342800D03*
%TD*%
%TO.C,D3\u002C5*%
X208419700Y-205866800D03*
X208419700Y-209016800D03*
%TD*%
%TO.C,D3\u002C3*%
X157302200Y-166623800D03*
X157302200Y-169773800D03*
%TD*%
%TO.C,D4\u002C4*%
X186004200Y-186435800D03*
X186004200Y-189585800D03*
%TD*%
%TO.C,D4\u002C3*%
X176606200Y-166623800D03*
X176606200Y-169773800D03*
%TD*%
%TO.C,D4\u002C1*%
X161683700Y-127952300D03*
X161683700Y-131102300D03*
%TD*%
%TO.C,D4\u002C0*%
X182892700Y-89915800D03*
X182892700Y-93065800D03*
%TD*%
%TO.C,D4\u002C2*%
X171716700Y-150342800D03*
X171716700Y-147192800D03*
%TD*%
%TO.C,D5\u002C0*%
X214388700Y-89915800D03*
X214388700Y-93065800D03*
%TD*%
%TO.C,D5\u002C2*%
X191020700Y-150342800D03*
X191020700Y-147192800D03*
%TD*%
%TO.C,D5\u002C1*%
X180987700Y-127952300D03*
X180987700Y-131102300D03*
%TD*%
%TO.C,D5\u002C3*%
X195910200Y-166674600D03*
X195910200Y-169824600D03*
%TD*%
%TO.C,D5\u002C4*%
X205308200Y-186486600D03*
X205308200Y-189636600D03*
%TD*%
%TO.C,D6\u002C0*%
X233692700Y-89915800D03*
X233692700Y-93065800D03*
%TD*%
%TO.C,D6\u002C3*%
X215214200Y-166623800D03*
X215214200Y-169773800D03*
%TD*%
%TO.C,D6\u002C4*%
X224612200Y-186435800D03*
X224612200Y-189585800D03*
%TD*%
%TO.C,D6\u002C1*%
X200291700Y-127952300D03*
X200291700Y-131102300D03*
%TD*%
%TO.C,D6\u002C2*%
X210324700Y-150342800D03*
X210324700Y-147192800D03*
%TD*%
%TO.C,D7\u002C4*%
X243916200Y-186486600D03*
X243916200Y-189636600D03*
%TD*%
%TO.C,D7\u002C2*%
X229628700Y-150393600D03*
X229628700Y-147243600D03*
%TD*%
%TO.C,D7\u002C1*%
X219595700Y-127952300D03*
X219595700Y-131102300D03*
%TD*%
%TO.C,D7\u002C0*%
X252996700Y-89915800D03*
X252996700Y-93065800D03*
%TD*%
%TO.C,D7\u002C3*%
X234518200Y-166623800D03*
X234518200Y-169773800D03*
%TD*%
%TO.C,D8\u002C0*%
X272300700Y-89966600D03*
X272300700Y-93116600D03*
%TD*%
%TO.C,D8\u002C3*%
X253822200Y-166623800D03*
X253822200Y-169773800D03*
%TD*%
%TO.C,D8\u002C1*%
X238899700Y-127952300D03*
X238899700Y-131102300D03*
%TD*%
%TO.C,D8\u002C2*%
X248932700Y-150342800D03*
X248932700Y-147192800D03*
%TD*%
%TO.C,D8\u002C5*%
X280174700Y-205930300D03*
X280174700Y-209080300D03*
%TD*%
%TO.C,D8\u002C4*%
X263220200Y-186435800D03*
X263220200Y-189585800D03*
%TD*%
%TO.C,D9\u002C2*%
X268236700Y-150342800D03*
X268236700Y-147192800D03*
%TD*%
%TO.C,D9\u002C1*%
X258203700Y-128003100D03*
X258203700Y-131153100D03*
%TD*%
%TO.C,D9\u002C3*%
X273126200Y-166623800D03*
X273126200Y-169773800D03*
%TD*%
%TO.C,D9\u002C4*%
X282524200Y-186435800D03*
X282524200Y-189585800D03*
%TD*%
%TO.C,D9\u002C5*%
X304304700Y-205866800D03*
X304304700Y-209016800D03*
%TD*%
%TO.C,D9\u002C0*%
X298716700Y-89915800D03*
X298716700Y-93065800D03*
%TD*%
%TO.C,D10\u002C4*%
X301828200Y-186486600D03*
X301828200Y-189636600D03*
%TD*%
%TO.C,D10\u002C5*%
X328498200Y-205866800D03*
X328498200Y-209016800D03*
%TD*%
%TO.C,D10\u002C1*%
X277507700Y-127952300D03*
X277507700Y-131102300D03*
%TD*%
%TO.C,D10\u002C0*%
X318020700Y-89915800D03*
X318020700Y-93065800D03*
%TD*%
%TO.C,D10\u002C2*%
X287540700Y-150393600D03*
X287540700Y-147243600D03*
%TD*%
%TO.C,D10\u002C3*%
X292430200Y-166623800D03*
X292430200Y-169773800D03*
%TD*%
%TO.C,D11\u002C0*%
X337324700Y-89915800D03*
X337324700Y-93065800D03*
%TD*%
%TO.C,D11\u002C1*%
X296811700Y-127952300D03*
X296811700Y-131102300D03*
%TD*%
%TO.C,D11\u002C3*%
X311734200Y-166623800D03*
X311734200Y-169773800D03*
%TD*%
%TO.C,D11\u002C2*%
X306844700Y-150342800D03*
X306844700Y-147192800D03*
%TD*%
%TO.C,D11\u002C4*%
X338404200Y-186435800D03*
X338404200Y-189585800D03*
%TD*%
%TO.C,D11\u002C5*%
X352564700Y-205866800D03*
X352564700Y-209016800D03*
%TD*%
%TO.C,D12\u002C3*%
X343230200Y-166687300D03*
X343230200Y-169837300D03*
%TD*%
%TO.C,D12\u002C2*%
X326148700Y-150342800D03*
X326148700Y-147192800D03*
%TD*%
%TO.C,D12\u002C1*%
X316115700Y-128003100D03*
X316115700Y-131153100D03*
%TD*%
%TO.C,D12\u002C0*%
X356628700Y-89915800D03*
X356628700Y-93065800D03*
%TD*%
%TO.C,D13\u002C2*%
X349961200Y-147256300D03*
X349961200Y-150406300D03*
%TD*%
%TO.C,D13\u002C1*%
X345071700Y-127952300D03*
X345071700Y-131102300D03*
%TD*%
%TO.C,D14\u002C1*%
X383171700Y-127952300D03*
X383171700Y-131102300D03*
%TD*%
%TO.C,D14\u002C3*%
X383425700Y-147192800D03*
X383425700Y-150342800D03*
%TD*%
%TO.C,D14\u002C0*%
X386092700Y-89915800D03*
X386092700Y-93065800D03*
%TD*%
%TO.C,D14\u002C6*%
X383108200Y-205739800D03*
X383108200Y-208889800D03*
%TD*%
%TO.C,D15\u002C0*%
X405904700Y-89915800D03*
X405904700Y-93065800D03*
%TD*%
%TO.C,D15\u002C1*%
X402475700Y-127952300D03*
X402475700Y-131102300D03*
%TD*%
%TO.C,D15\u002C3*%
X402475700Y-147192800D03*
X402475700Y-150342800D03*
%TD*%
%TO.C,D15\u002C5*%
X402412200Y-186435800D03*
X402412200Y-189585800D03*
%TD*%
%TO.C,D15\u002C6*%
X402412200Y-205739800D03*
X402412200Y-208889800D03*
%TD*%
%TO.C,D16\u002C6*%
X421716200Y-205739800D03*
X421716200Y-208889800D03*
%TD*%
%TO.C,D16\u002C0*%
X424954700Y-89915800D03*
X424954700Y-93065800D03*
%TD*%
%TO.C,D16\u002C1*%
X421779700Y-127952300D03*
X421779700Y-131102300D03*
%TD*%
%TO.C,D16\u002C5*%
X454545700Y-185927800D03*
X454545700Y-189077800D03*
%TD*%
%TO.C,D16\u002C3*%
X422033700Y-147192800D03*
X422033700Y-150342800D03*
%TD*%
%TO.C,D16\u002C4*%
X454799700Y-166623800D03*
X454799700Y-169773800D03*
%TD*%
%TO.C,D17\u002C3*%
X454799700Y-147319800D03*
X454799700Y-150469800D03*
%TD*%
%TO.C,D17\u002C1*%
X454799700Y-127952300D03*
X454799700Y-131102300D03*
%TD*%
%TO.C,D17\u002C6*%
X464578700Y-205282600D03*
X464578700Y-208432600D03*
%TD*%
%TO.C,D17\u002C4*%
X474103700Y-166623800D03*
X474103700Y-169773800D03*
%TD*%
%TO.C,D17\u002C0*%
X454672700Y-89915800D03*
X454672700Y-93065800D03*
%TD*%
%TO.C,D17\u002C5*%
X474103700Y-185927800D03*
X474103700Y-189077800D03*
%TD*%
%TO.C,D18\u002C1*%
X474103700Y-128003100D03*
X474103700Y-131153100D03*
%TD*%
%TO.C,D18\u002C6*%
X493407700Y-205231800D03*
X493407700Y-208381800D03*
%TD*%
%TO.C,D18\u002C3*%
X474103700Y-147319800D03*
X474103700Y-150469800D03*
%TD*%
%TO.C,D18\u002C0*%
X473976700Y-89915800D03*
X473976700Y-93065800D03*
%TD*%
%TO.C,D18\u002C5*%
X493407700Y-185927800D03*
X493407700Y-189077800D03*
%TD*%
%TO.C,D18\u002C4*%
X493407700Y-166560300D03*
X493407700Y-169710300D03*
%TD*%
%TO.C,D19\u002C4*%
X512711700Y-156641600D03*
X512711700Y-159791600D03*
%TD*%
%TO.C,D19\u002C0*%
X493280700Y-89915800D03*
X493280700Y-93065800D03*
%TD*%
%TO.C,D19\u002C3*%
X493407700Y-147319800D03*
X493407700Y-150469800D03*
%TD*%
%TO.C,D19\u002C1*%
X493407700Y-127952300D03*
X493407700Y-131102300D03*
%TD*%
%TO.C,D19\u002C6*%
X512965700Y-195579800D03*
X512965700Y-198729800D03*
%TD*%
%TO.C,D20\u002C1*%
X512711700Y-127952300D03*
X512711700Y-131102300D03*
%TD*%
%TO.C,D20\u002C0*%
X512584700Y-89966600D03*
X512584700Y-93116600D03*
%TD*%
D10*
%TO.C,K0\u002C0*%
X87134700Y-95300800D03*
X100061700Y-92760800D03*
%TD*%
%TO.C,K0\u002C1*%
X87134700Y-133400800D03*
X100061700Y-130860800D03*
%TD*%
%TO.C,K0\u002C5*%
X89547700Y-211251800D03*
X102474700Y-208711800D03*
%TD*%
%TO.C,K0\u002C4*%
X98945700Y-191884300D03*
X111872700Y-189344300D03*
%TD*%
%TO.C,K0\u002C3*%
X94221300Y-172110400D03*
X107148300Y-169570400D03*
%TD*%
%TO.C,K1\u002C4*%
X130060700Y-191871600D03*
X142987700Y-189331600D03*
%TD*%
%TO.C,K1\u002C5*%
X114122200Y-211302600D03*
X127049200Y-208762600D03*
%TD*%
%TO.C,K1\u002C3*%
X120662700Y-172059600D03*
X133589700Y-169519600D03*
%TD*%
%TO.C,K1\u002C2*%
X115773200Y-152628600D03*
X128700200Y-150088600D03*
%TD*%
%TO.C,K1\u002C1*%
X106349800Y-133400800D03*
X119276800Y-130860800D03*
%TD*%
%TO.C,K1\u002C0*%
X126949200Y-95351600D03*
X139876200Y-92811600D03*
%TD*%
%TO.C,K2\u002C5*%
X138506200Y-211302600D03*
X151433200Y-208762600D03*
%TD*%
%TO.C,K2\u002C3*%
X139966700Y-172059600D03*
X152893700Y-169519600D03*
%TD*%
%TO.C,K2\u002C1*%
X125552200Y-133388100D03*
X138479200Y-130848100D03*
%TD*%
%TO.C,K2\u002C4*%
X149364700Y-191871600D03*
X162291700Y-189331600D03*
%TD*%
%TO.C,K2\u002C2*%
X135077200Y-152628600D03*
X148004200Y-150088600D03*
%TD*%
%TO.C,K2\u002C0*%
X146253200Y-95351600D03*
X159180200Y-92811600D03*
%TD*%
%TO.C,K3\u002C5*%
X210388200Y-211302600D03*
X223315200Y-208762600D03*
%TD*%
%TO.C,K3\u002C4*%
X168668700Y-191871600D03*
X181595700Y-189331600D03*
%TD*%
%TO.C,K3\u002C2*%
X154381200Y-152628600D03*
X167308200Y-150088600D03*
%TD*%
%TO.C,K3\u002C1*%
X144348200Y-133388100D03*
X157275200Y-130848100D03*
%TD*%
%TO.C,K3\u002C0*%
X165557200Y-95351600D03*
X178484200Y-92811600D03*
%TD*%
%TO.C,K3\u002C3*%
X159270700Y-172059600D03*
X172197700Y-169519600D03*
%TD*%
%TO.C,K4\u002C1*%
X163652200Y-133388100D03*
X176579200Y-130848100D03*
%TD*%
%TO.C,K4\u002C2*%
X186612200Y-150088600D03*
X173685200Y-152628600D03*
%TD*%
%TO.C,K4\u002C3*%
X178574700Y-172059600D03*
X191501700Y-169519600D03*
%TD*%
%TO.C,K4\u002C4*%
X187972700Y-191871600D03*
X200899700Y-189331600D03*
%TD*%
%TO.C,K4\u002C0*%
X184861200Y-95351600D03*
X197788200Y-92811600D03*
%TD*%
%TO.C,K5\u002C0*%
X216357200Y-95351600D03*
X229284200Y-92811600D03*
%TD*%
%TO.C,K5\u002C2*%
X205916200Y-150088600D03*
X192989200Y-152628600D03*
%TD*%
%TO.C,K5\u002C1*%
X182956200Y-133388100D03*
X195883200Y-130848100D03*
%TD*%
%TO.C,K5\u002C3*%
X197878700Y-172059600D03*
X210805700Y-169519600D03*
%TD*%
%TO.C,K5\u002C4*%
X207276700Y-191871600D03*
X220203700Y-189331600D03*
%TD*%
%TO.C,K6\u002C3*%
X217182700Y-172059600D03*
X230109700Y-169519600D03*
%TD*%
%TO.C,K6\u002C4*%
X226580700Y-191871600D03*
X239507700Y-189331600D03*
%TD*%
%TO.C,K6\u002C1*%
X202260200Y-133388100D03*
X215187200Y-130848100D03*
%TD*%
%TO.C,K6\u002C2*%
X225220200Y-150088600D03*
X212293200Y-152628600D03*
%TD*%
%TO.C,K6\u002C0*%
X235661200Y-95351600D03*
X248588200Y-92811600D03*
%TD*%
%TO.C,K7\u002C2*%
X244524200Y-150088600D03*
X231597200Y-152628600D03*
%TD*%
%TO.C,K7\u002C1*%
X221564200Y-133388100D03*
X234491200Y-130848100D03*
%TD*%
%TO.C,K7\u002C3*%
X236486700Y-172059600D03*
X249413700Y-169519600D03*
%TD*%
%TO.C,K7\u002C4*%
X245884700Y-191871600D03*
X258811700Y-189331600D03*
%TD*%
%TO.C,K7\u002C0*%
X254965200Y-95351600D03*
X267892200Y-92811600D03*
%TD*%
%TO.C,K8\u002C0*%
X274269200Y-95351600D03*
X287196200Y-92811600D03*
%TD*%
%TO.C,K8\u002C1*%
X240868200Y-133388100D03*
X253795200Y-130848100D03*
%TD*%
%TO.C,K8\u002C3*%
X255790700Y-172059600D03*
X268717700Y-169519600D03*
%TD*%
%TO.C,K8\u002C4*%
X265188700Y-191871600D03*
X278115700Y-189331600D03*
%TD*%
%TO.C,K8\u002C5*%
X282143200Y-211366100D03*
X295070200Y-208826100D03*
%TD*%
%TO.C,K8\u002C2*%
X263828200Y-150088600D03*
X250901200Y-152628600D03*
%TD*%
%TO.C,K9\u002C0*%
X300685200Y-95351600D03*
X313612200Y-92811600D03*
%TD*%
%TO.C,K9\u002C5*%
X306273200Y-211302600D03*
X319200200Y-208762600D03*
%TD*%
%TO.C,K9\u002C1*%
X260172200Y-133388100D03*
X273099200Y-130848100D03*
%TD*%
%TO.C,K9\u002C2*%
X283132200Y-150088600D03*
X270205200Y-152628600D03*
%TD*%
%TO.C,K9\u002C4*%
X284492700Y-191871600D03*
X297419700Y-189331600D03*
%TD*%
%TO.C,K9\u002C3*%
X275094700Y-172059600D03*
X288021700Y-169519600D03*
%TD*%
%TO.C,K10\u002C2*%
X302436200Y-150088600D03*
X289509200Y-152628600D03*
%TD*%
%TO.C,K10\u002C0*%
X319989200Y-95351600D03*
X332916200Y-92811600D03*
%TD*%
%TO.C,K10\u002C5*%
X330466700Y-211302600D03*
X343393700Y-208762600D03*
%TD*%
%TO.C,K10\u002C1*%
X279476200Y-133388100D03*
X292403200Y-130848100D03*
%TD*%
%TO.C,K10\u002C4*%
X303796700Y-191871600D03*
X316723700Y-189331600D03*
%TD*%
%TO.C,K11\u002C3*%
X313702700Y-172059600D03*
X326629700Y-169519600D03*
%TD*%
%TO.C,K11\u002C2*%
X321740200Y-150088600D03*
X308813200Y-152628600D03*
%TD*%
%TO.C,K11\u002C5*%
X354533200Y-211302600D03*
X367460200Y-208762600D03*
%TD*%
%TO.C,K11\u002C1*%
X298780200Y-133388100D03*
X311707200Y-130848100D03*
%TD*%
%TO.C,K11\u002C0*%
X339293200Y-95351600D03*
X352220200Y-92811600D03*
%TD*%
%TO.C,K12\u002C2*%
X341044200Y-150088600D03*
X328117200Y-152628600D03*
%TD*%
%TO.C,K12\u002C0*%
X358597200Y-95351600D03*
X371524200Y-92811600D03*
%TD*%
%TO.C,K12\u002C1*%
X318084200Y-133388100D03*
X331011200Y-130848100D03*
%TD*%
%TO.C,K13\u002C2*%
X364983700Y-150101300D03*
X352056700Y-152641300D03*
%TD*%
%TO.C,K14\u002C1*%
X385140200Y-133388100D03*
X398067200Y-130848100D03*
%TD*%
%TO.C,K14\u002C6*%
X385076700Y-211175600D03*
X398003700Y-208635600D03*
%TD*%
%TO.C,K14\u002C3*%
X385140200Y-152628600D03*
X398067200Y-150088600D03*
%TD*%
%TO.C,K14\u002C0*%
X388061200Y-95351600D03*
X400988200Y-92811600D03*
%TD*%
%TO.C,K15\u002C6*%
X404380700Y-211175600D03*
X417307700Y-208635600D03*
%TD*%
%TO.C,K15\u002C3*%
X404444200Y-152628600D03*
X417371200Y-150088600D03*
%TD*%
%TO.C,K15\u002C5*%
X404380700Y-191871600D03*
X417307700Y-189331600D03*
%TD*%
%TO.C,K15\u002C1*%
X404444200Y-133388100D03*
X417371200Y-130848100D03*
%TD*%
%TO.C,K15\u002C0*%
X407619200Y-95351600D03*
X420546200Y-92811600D03*
%TD*%
%TO.C,K16\u002C4*%
X456768200Y-172059600D03*
X469695200Y-169519600D03*
%TD*%
%TO.C,K16\u002C1*%
X423748200Y-133388100D03*
X436675200Y-130848100D03*
%TD*%
%TO.C,K16\u002C5*%
X456768200Y-191363600D03*
X469695200Y-188823600D03*
%TD*%
%TO.C,K16\u002C3*%
X423748200Y-152628600D03*
X436675200Y-150088600D03*
%TD*%
%TO.C,K16\u002C0*%
X426923200Y-95351600D03*
X439850200Y-92811600D03*
%TD*%
%TO.C,K16\u002C6*%
X423684700Y-211175600D03*
X436611700Y-208635600D03*
%TD*%
%TO.C,K17\u002C6*%
X466293200Y-210667600D03*
X479220200Y-208127600D03*
%TD*%
%TO.C,K17\u002C5*%
X476072200Y-191363600D03*
X488999200Y-188823600D03*
%TD*%
%TO.C,K17\u002C4*%
X476072200Y-172059600D03*
X488999200Y-169519600D03*
%TD*%
%TO.C,K17\u002C3*%
X456768200Y-152755600D03*
X469695200Y-150215600D03*
%TD*%
%TO.C,K17\u002C1*%
X456768200Y-133388100D03*
X469695200Y-130848100D03*
%TD*%
%TO.C,K17\u002C0*%
X456641200Y-95351600D03*
X469568200Y-92811600D03*
%TD*%
%TO.C,K18\u002C6*%
X495376200Y-210667600D03*
X508303200Y-208127600D03*
%TD*%
%TO.C,K18\u002C3*%
X476072200Y-152755600D03*
X488999200Y-150215600D03*
%TD*%
%TO.C,K18\u002C1*%
X476072200Y-133388100D03*
X488999200Y-130848100D03*
%TD*%
%TO.C,K18\u002C5*%
X495376200Y-191363600D03*
X508303200Y-188823600D03*
%TD*%
%TO.C,K18\u002C0*%
X475945200Y-95351600D03*
X488872200Y-92811600D03*
%TD*%
%TO.C,K19\u002C6*%
X514680200Y-201015600D03*
X527607200Y-198475600D03*
%TD*%
%TO.C,K19\u002C0*%
X495249200Y-95351600D03*
X508176200Y-92811600D03*
%TD*%
%TO.C,K19\u002C3*%
X495376200Y-152755600D03*
X508303200Y-150215600D03*
%TD*%
%TO.C,K19\u002C1*%
X495376200Y-133388100D03*
X508303200Y-130848100D03*
%TD*%
%TO.C,K20\u002C0*%
X514553200Y-95351600D03*
X527480200Y-92811600D03*
%TD*%
%TO.C,K20\u002C1*%
X514680200Y-133388100D03*
X527607200Y-130848100D03*
%TD*%
%TO.C,U1*%
G36*
G01*
X77932700Y-136408300D02*
X77932700Y-136108300D01*
G75*
G02*
X78082700Y-135958300I150000J0D01*
G01*
X79832700Y-135958300D01*
G75*
G02*
X79982700Y-136108300I0J-150000D01*
G01*
X79982700Y-136408300D01*
G75*
G02*
X79832700Y-136558300I-150000J0D01*
G01*
X78082700Y-136558300D01*
G75*
G02*
X77932700Y-136408300I0J150000D01*
G01*
G37*
G36*
G01*
X77932700Y-135138300D02*
X77932700Y-134838300D01*
G75*
G02*
X78082700Y-134688300I150000J0D01*
G01*
X79832700Y-134688300D01*
G75*
G02*
X79982700Y-134838300I0J-150000D01*
G01*
X79982700Y-135138300D01*
G75*
G02*
X79832700Y-135288300I-150000J0D01*
G01*
X78082700Y-135288300D01*
G75*
G02*
X77932700Y-135138300I0J150000D01*
G01*
G37*
G36*
G01*
X77932700Y-133868300D02*
X77932700Y-133568300D01*
G75*
G02*
X78082700Y-133418300I150000J0D01*
G01*
X79832700Y-133418300D01*
G75*
G02*
X79982700Y-133568300I0J-150000D01*
G01*
X79982700Y-133868300D01*
G75*
G02*
X79832700Y-134018300I-150000J0D01*
G01*
X78082700Y-134018300D01*
G75*
G02*
X77932700Y-133868300I0J150000D01*
G01*
G37*
G36*
G01*
X77932700Y-132598300D02*
X77932700Y-132298300D01*
G75*
G02*
X78082700Y-132148300I150000J0D01*
G01*
X79832700Y-132148300D01*
G75*
G02*
X79982700Y-132298300I0J-150000D01*
G01*
X79982700Y-132598300D01*
G75*
G02*
X79832700Y-132748300I-150000J0D01*
G01*
X78082700Y-132748300D01*
G75*
G02*
X77932700Y-132598300I0J150000D01*
G01*
G37*
G36*
G01*
X77932700Y-131328300D02*
X77932700Y-131028300D01*
G75*
G02*
X78082700Y-130878300I150000J0D01*
G01*
X79832700Y-130878300D01*
G75*
G02*
X79982700Y-131028300I0J-150000D01*
G01*
X79982700Y-131328300D01*
G75*
G02*
X79832700Y-131478300I-150000J0D01*
G01*
X78082700Y-131478300D01*
G75*
G02*
X77932700Y-131328300I0J150000D01*
G01*
G37*
G36*
G01*
X77932700Y-130058300D02*
X77932700Y-129758300D01*
G75*
G02*
X78082700Y-129608300I150000J0D01*
G01*
X79832700Y-129608300D01*
G75*
G02*
X79982700Y-129758300I0J-150000D01*
G01*
X79982700Y-130058300D01*
G75*
G02*
X79832700Y-130208300I-150000J0D01*
G01*
X78082700Y-130208300D01*
G75*
G02*
X77932700Y-130058300I0J150000D01*
G01*
G37*
G36*
G01*
X77932700Y-128788300D02*
X77932700Y-128488300D01*
G75*
G02*
X78082700Y-128338300I150000J0D01*
G01*
X79832700Y-128338300D01*
G75*
G02*
X79982700Y-128488300I0J-150000D01*
G01*
X79982700Y-128788300D01*
G75*
G02*
X79832700Y-128938300I-150000J0D01*
G01*
X78082700Y-128938300D01*
G75*
G02*
X77932700Y-128788300I0J150000D01*
G01*
G37*
G36*
G01*
X77932700Y-127518300D02*
X77932700Y-127218300D01*
G75*
G02*
X78082700Y-127068300I150000J0D01*
G01*
X79832700Y-127068300D01*
G75*
G02*
X79982700Y-127218300I0J-150000D01*
G01*
X79982700Y-127518300D01*
G75*
G02*
X79832700Y-127668300I-150000J0D01*
G01*
X78082700Y-127668300D01*
G75*
G02*
X77932700Y-127518300I0J150000D01*
G01*
G37*
G36*
G01*
X77932700Y-126248300D02*
X77932700Y-125948300D01*
G75*
G02*
X78082700Y-125798300I150000J0D01*
G01*
X79832700Y-125798300D01*
G75*
G02*
X79982700Y-125948300I0J-150000D01*
G01*
X79982700Y-126248300D01*
G75*
G02*
X79832700Y-126398300I-150000J0D01*
G01*
X78082700Y-126398300D01*
G75*
G02*
X77932700Y-126248300I0J150000D01*
G01*
G37*
G36*
G01*
X77932700Y-124978300D02*
X77932700Y-124678300D01*
G75*
G02*
X78082700Y-124528300I150000J0D01*
G01*
X79832700Y-124528300D01*
G75*
G02*
X79982700Y-124678300I0J-150000D01*
G01*
X79982700Y-124978300D01*
G75*
G02*
X79832700Y-125128300I-150000J0D01*
G01*
X78082700Y-125128300D01*
G75*
G02*
X77932700Y-124978300I0J150000D01*
G01*
G37*
G36*
G01*
X77932700Y-123708300D02*
X77932700Y-123408300D01*
G75*
G02*
X78082700Y-123258300I150000J0D01*
G01*
X79832700Y-123258300D01*
G75*
G02*
X79982700Y-123408300I0J-150000D01*
G01*
X79982700Y-123708300D01*
G75*
G02*
X79832700Y-123858300I-150000J0D01*
G01*
X78082700Y-123858300D01*
G75*
G02*
X77932700Y-123708300I0J150000D01*
G01*
G37*
G36*
G01*
X77932700Y-122438300D02*
X77932700Y-122138300D01*
G75*
G02*
X78082700Y-121988300I150000J0D01*
G01*
X79832700Y-121988300D01*
G75*
G02*
X79982700Y-122138300I0J-150000D01*
G01*
X79982700Y-122438300D01*
G75*
G02*
X79832700Y-122588300I-150000J0D01*
G01*
X78082700Y-122588300D01*
G75*
G02*
X77932700Y-122438300I0J150000D01*
G01*
G37*
G36*
G01*
X77932700Y-121168300D02*
X77932700Y-120868300D01*
G75*
G02*
X78082700Y-120718300I150000J0D01*
G01*
X79832700Y-120718300D01*
G75*
G02*
X79982700Y-120868300I0J-150000D01*
G01*
X79982700Y-121168300D01*
G75*
G02*
X79832700Y-121318300I-150000J0D01*
G01*
X78082700Y-121318300D01*
G75*
G02*
X77932700Y-121168300I0J150000D01*
G01*
G37*
G36*
G01*
X77932700Y-119898300D02*
X77932700Y-119598300D01*
G75*
G02*
X78082700Y-119448300I150000J0D01*
G01*
X79832700Y-119448300D01*
G75*
G02*
X79982700Y-119598300I0J-150000D01*
G01*
X79982700Y-119898300D01*
G75*
G02*
X79832700Y-120048300I-150000J0D01*
G01*
X78082700Y-120048300D01*
G75*
G02*
X77932700Y-119898300I0J150000D01*
G01*
G37*
G36*
G01*
X68632700Y-119898300D02*
X68632700Y-119598300D01*
G75*
G02*
X68782700Y-119448300I150000J0D01*
G01*
X70532700Y-119448300D01*
G75*
G02*
X70682700Y-119598300I0J-150000D01*
G01*
X70682700Y-119898300D01*
G75*
G02*
X70532700Y-120048300I-150000J0D01*
G01*
X68782700Y-120048300D01*
G75*
G02*
X68632700Y-119898300I0J150000D01*
G01*
G37*
G36*
G01*
X68632700Y-121168300D02*
X68632700Y-120868300D01*
G75*
G02*
X68782700Y-120718300I150000J0D01*
G01*
X70532700Y-120718300D01*
G75*
G02*
X70682700Y-120868300I0J-150000D01*
G01*
X70682700Y-121168300D01*
G75*
G02*
X70532700Y-121318300I-150000J0D01*
G01*
X68782700Y-121318300D01*
G75*
G02*
X68632700Y-121168300I0J150000D01*
G01*
G37*
G36*
G01*
X68632700Y-122438300D02*
X68632700Y-122138300D01*
G75*
G02*
X68782700Y-121988300I150000J0D01*
G01*
X70532700Y-121988300D01*
G75*
G02*
X70682700Y-122138300I0J-150000D01*
G01*
X70682700Y-122438300D01*
G75*
G02*
X70532700Y-122588300I-150000J0D01*
G01*
X68782700Y-122588300D01*
G75*
G02*
X68632700Y-122438300I0J150000D01*
G01*
G37*
G36*
G01*
X68632700Y-123708300D02*
X68632700Y-123408300D01*
G75*
G02*
X68782700Y-123258300I150000J0D01*
G01*
X70532700Y-123258300D01*
G75*
G02*
X70682700Y-123408300I0J-150000D01*
G01*
X70682700Y-123708300D01*
G75*
G02*
X70532700Y-123858300I-150000J0D01*
G01*
X68782700Y-123858300D01*
G75*
G02*
X68632700Y-123708300I0J150000D01*
G01*
G37*
G36*
G01*
X68632700Y-124978300D02*
X68632700Y-124678300D01*
G75*
G02*
X68782700Y-124528300I150000J0D01*
G01*
X70532700Y-124528300D01*
G75*
G02*
X70682700Y-124678300I0J-150000D01*
G01*
X70682700Y-124978300D01*
G75*
G02*
X70532700Y-125128300I-150000J0D01*
G01*
X68782700Y-125128300D01*
G75*
G02*
X68632700Y-124978300I0J150000D01*
G01*
G37*
G36*
G01*
X68632700Y-126248300D02*
X68632700Y-125948300D01*
G75*
G02*
X68782700Y-125798300I150000J0D01*
G01*
X70532700Y-125798300D01*
G75*
G02*
X70682700Y-125948300I0J-150000D01*
G01*
X70682700Y-126248300D01*
G75*
G02*
X70532700Y-126398300I-150000J0D01*
G01*
X68782700Y-126398300D01*
G75*
G02*
X68632700Y-126248300I0J150000D01*
G01*
G37*
G36*
G01*
X68632700Y-127518300D02*
X68632700Y-127218300D01*
G75*
G02*
X68782700Y-127068300I150000J0D01*
G01*
X70532700Y-127068300D01*
G75*
G02*
X70682700Y-127218300I0J-150000D01*
G01*
X70682700Y-127518300D01*
G75*
G02*
X70532700Y-127668300I-150000J0D01*
G01*
X68782700Y-127668300D01*
G75*
G02*
X68632700Y-127518300I0J150000D01*
G01*
G37*
G36*
G01*
X68632700Y-128788300D02*
X68632700Y-128488300D01*
G75*
G02*
X68782700Y-128338300I150000J0D01*
G01*
X70532700Y-128338300D01*
G75*
G02*
X70682700Y-128488300I0J-150000D01*
G01*
X70682700Y-128788300D01*
G75*
G02*
X70532700Y-128938300I-150000J0D01*
G01*
X68782700Y-128938300D01*
G75*
G02*
X68632700Y-128788300I0J150000D01*
G01*
G37*
G36*
G01*
X68632700Y-130058300D02*
X68632700Y-129758300D01*
G75*
G02*
X68782700Y-129608300I150000J0D01*
G01*
X70532700Y-129608300D01*
G75*
G02*
X70682700Y-129758300I0J-150000D01*
G01*
X70682700Y-130058300D01*
G75*
G02*
X70532700Y-130208300I-150000J0D01*
G01*
X68782700Y-130208300D01*
G75*
G02*
X68632700Y-130058300I0J150000D01*
G01*
G37*
G36*
G01*
X68632700Y-131328300D02*
X68632700Y-131028300D01*
G75*
G02*
X68782700Y-130878300I150000J0D01*
G01*
X70532700Y-130878300D01*
G75*
G02*
X70682700Y-131028300I0J-150000D01*
G01*
X70682700Y-131328300D01*
G75*
G02*
X70532700Y-131478300I-150000J0D01*
G01*
X68782700Y-131478300D01*
G75*
G02*
X68632700Y-131328300I0J150000D01*
G01*
G37*
G36*
G01*
X68632700Y-132598300D02*
X68632700Y-132298300D01*
G75*
G02*
X68782700Y-132148300I150000J0D01*
G01*
X70532700Y-132148300D01*
G75*
G02*
X70682700Y-132298300I0J-150000D01*
G01*
X70682700Y-132598300D01*
G75*
G02*
X70532700Y-132748300I-150000J0D01*
G01*
X68782700Y-132748300D01*
G75*
G02*
X68632700Y-132598300I0J150000D01*
G01*
G37*
G36*
G01*
X68632700Y-133868300D02*
X68632700Y-133568300D01*
G75*
G02*
X68782700Y-133418300I150000J0D01*
G01*
X70532700Y-133418300D01*
G75*
G02*
X70682700Y-133568300I0J-150000D01*
G01*
X70682700Y-133868300D01*
G75*
G02*
X70532700Y-134018300I-150000J0D01*
G01*
X68782700Y-134018300D01*
G75*
G02*
X68632700Y-133868300I0J150000D01*
G01*
G37*
G36*
G01*
X68632700Y-135138300D02*
X68632700Y-134838300D01*
G75*
G02*
X68782700Y-134688300I150000J0D01*
G01*
X70532700Y-134688300D01*
G75*
G02*
X70682700Y-134838300I0J-150000D01*
G01*
X70682700Y-135138300D01*
G75*
G02*
X70532700Y-135288300I-150000J0D01*
G01*
X68782700Y-135288300D01*
G75*
G02*
X68632700Y-135138300I0J150000D01*
G01*
G37*
G36*
G01*
X68632700Y-136408300D02*
X68632700Y-136108300D01*
G75*
G02*
X68782700Y-135958300I150000J0D01*
G01*
X70532700Y-135958300D01*
G75*
G02*
X70682700Y-136108300I0J-150000D01*
G01*
X70682700Y-136408300D01*
G75*
G02*
X70532700Y-136558300I-150000J0D01*
G01*
X68782700Y-136558300D01*
G75*
G02*
X68632700Y-136408300I0J150000D01*
G01*
G37*
%TD*%
%TO.C,U10*%
G36*
G01*
X77650200Y-83030800D02*
X77950200Y-83030800D01*
G75*
G02*
X78100200Y-83180800I0J-150000D01*
G01*
X78100200Y-84630800D01*
G75*
G02*
X77950200Y-84780800I-150000J0D01*
G01*
X77650200Y-84780800D01*
G75*
G02*
X77500200Y-84630800I0J150000D01*
G01*
X77500200Y-83180800D01*
G75*
G02*
X77650200Y-83030800I150000J0D01*
G01*
G37*
G36*
G01*
X78920200Y-83030800D02*
X79220200Y-83030800D01*
G75*
G02*
X79370200Y-83180800I0J-150000D01*
G01*
X79370200Y-84630800D01*
G75*
G02*
X79220200Y-84780800I-150000J0D01*
G01*
X78920200Y-84780800D01*
G75*
G02*
X78770200Y-84630800I0J150000D01*
G01*
X78770200Y-83180800D01*
G75*
G02*
X78920200Y-83030800I150000J0D01*
G01*
G37*
G36*
G01*
X80190200Y-83030800D02*
X80490200Y-83030800D01*
G75*
G02*
X80640200Y-83180800I0J-150000D01*
G01*
X80640200Y-84630800D01*
G75*
G02*
X80490200Y-84780800I-150000J0D01*
G01*
X80190200Y-84780800D01*
G75*
G02*
X80040200Y-84630800I0J150000D01*
G01*
X80040200Y-83180800D01*
G75*
G02*
X80190200Y-83030800I150000J0D01*
G01*
G37*
G36*
G01*
X81460200Y-83030800D02*
X81760200Y-83030800D01*
G75*
G02*
X81910200Y-83180800I0J-150000D01*
G01*
X81910200Y-84630800D01*
G75*
G02*
X81760200Y-84780800I-150000J0D01*
G01*
X81460200Y-84780800D01*
G75*
G02*
X81310200Y-84630800I0J150000D01*
G01*
X81310200Y-83180800D01*
G75*
G02*
X81460200Y-83030800I150000J0D01*
G01*
G37*
G36*
G01*
X81460200Y-77880800D02*
X81760200Y-77880800D01*
G75*
G02*
X81910200Y-78030800I0J-150000D01*
G01*
X81910200Y-79480800D01*
G75*
G02*
X81760200Y-79630800I-150000J0D01*
G01*
X81460200Y-79630800D01*
G75*
G02*
X81310200Y-79480800I0J150000D01*
G01*
X81310200Y-78030800D01*
G75*
G02*
X81460200Y-77880800I150000J0D01*
G01*
G37*
G36*
G01*
X80190200Y-77880800D02*
X80490200Y-77880800D01*
G75*
G02*
X80640200Y-78030800I0J-150000D01*
G01*
X80640200Y-79480800D01*
G75*
G02*
X80490200Y-79630800I-150000J0D01*
G01*
X80190200Y-79630800D01*
G75*
G02*
X80040200Y-79480800I0J150000D01*
G01*
X80040200Y-78030800D01*
G75*
G02*
X80190200Y-77880800I150000J0D01*
G01*
G37*
G36*
G01*
X78920200Y-77880800D02*
X79220200Y-77880800D01*
G75*
G02*
X79370200Y-78030800I0J-150000D01*
G01*
X79370200Y-79480800D01*
G75*
G02*
X79220200Y-79630800I-150000J0D01*
G01*
X78920200Y-79630800D01*
G75*
G02*
X78770200Y-79480800I0J150000D01*
G01*
X78770200Y-78030800D01*
G75*
G02*
X78920200Y-77880800I150000J0D01*
G01*
G37*
G36*
G01*
X77650200Y-77880800D02*
X77950200Y-77880800D01*
G75*
G02*
X78100200Y-78030800I0J-150000D01*
G01*
X78100200Y-79480800D01*
G75*
G02*
X77950200Y-79630800I-150000J0D01*
G01*
X77650200Y-79630800D01*
G75*
G02*
X77500200Y-79480800I0J150000D01*
G01*
X77500200Y-78030800D01*
G75*
G02*
X77650200Y-77880800I150000J0D01*
G01*
G37*
%TD*%
%TO.C,U11*%
G36*
G01*
X65585200Y-82830800D02*
X65885200Y-82830800D01*
G75*
G02*
X66035200Y-82980800I0J-150000D01*
G01*
X66035200Y-84630800D01*
G75*
G02*
X65885200Y-84780800I-150000J0D01*
G01*
X65585200Y-84780800D01*
G75*
G02*
X65435200Y-84630800I0J150000D01*
G01*
X65435200Y-82980800D01*
G75*
G02*
X65585200Y-82830800I150000J0D01*
G01*
G37*
G36*
G01*
X66855200Y-82830800D02*
X67155200Y-82830800D01*
G75*
G02*
X67305200Y-82980800I0J-150000D01*
G01*
X67305200Y-84630800D01*
G75*
G02*
X67155200Y-84780800I-150000J0D01*
G01*
X66855200Y-84780800D01*
G75*
G02*
X66705200Y-84630800I0J150000D01*
G01*
X66705200Y-82980800D01*
G75*
G02*
X66855200Y-82830800I150000J0D01*
G01*
G37*
G36*
G01*
X68125200Y-82830800D02*
X68425200Y-82830800D01*
G75*
G02*
X68575200Y-82980800I0J-150000D01*
G01*
X68575200Y-84630800D01*
G75*
G02*
X68425200Y-84780800I-150000J0D01*
G01*
X68125200Y-84780800D01*
G75*
G02*
X67975200Y-84630800I0J150000D01*
G01*
X67975200Y-82980800D01*
G75*
G02*
X68125200Y-82830800I150000J0D01*
G01*
G37*
G36*
G01*
X69395200Y-82830800D02*
X69695200Y-82830800D01*
G75*
G02*
X69845200Y-82980800I0J-150000D01*
G01*
X69845200Y-84630800D01*
G75*
G02*
X69695200Y-84780800I-150000J0D01*
G01*
X69395200Y-84780800D01*
G75*
G02*
X69245200Y-84630800I0J150000D01*
G01*
X69245200Y-82980800D01*
G75*
G02*
X69395200Y-82830800I150000J0D01*
G01*
G37*
G36*
G01*
X70665200Y-82830800D02*
X70965200Y-82830800D01*
G75*
G02*
X71115200Y-82980800I0J-150000D01*
G01*
X71115200Y-84630800D01*
G75*
G02*
X70965200Y-84780800I-150000J0D01*
G01*
X70665200Y-84780800D01*
G75*
G02*
X70515200Y-84630800I0J150000D01*
G01*
X70515200Y-82980800D01*
G75*
G02*
X70665200Y-82830800I150000J0D01*
G01*
G37*
G36*
G01*
X71935200Y-82830800D02*
X72235200Y-82830800D01*
G75*
G02*
X72385200Y-82980800I0J-150000D01*
G01*
X72385200Y-84630800D01*
G75*
G02*
X72235200Y-84780800I-150000J0D01*
G01*
X71935200Y-84780800D01*
G75*
G02*
X71785200Y-84630800I0J150000D01*
G01*
X71785200Y-82980800D01*
G75*
G02*
X71935200Y-82830800I150000J0D01*
G01*
G37*
G36*
G01*
X73205200Y-82830800D02*
X73505200Y-82830800D01*
G75*
G02*
X73655200Y-82980800I0J-150000D01*
G01*
X73655200Y-84630800D01*
G75*
G02*
X73505200Y-84780800I-150000J0D01*
G01*
X73205200Y-84780800D01*
G75*
G02*
X73055200Y-84630800I0J150000D01*
G01*
X73055200Y-82980800D01*
G75*
G02*
X73205200Y-82830800I150000J0D01*
G01*
G37*
G36*
G01*
X73205200Y-77880800D02*
X73505200Y-77880800D01*
G75*
G02*
X73655200Y-78030800I0J-150000D01*
G01*
X73655200Y-79680800D01*
G75*
G02*
X73505200Y-79830800I-150000J0D01*
G01*
X73205200Y-79830800D01*
G75*
G02*
X73055200Y-79680800I0J150000D01*
G01*
X73055200Y-78030800D01*
G75*
G02*
X73205200Y-77880800I150000J0D01*
G01*
G37*
G36*
G01*
X71935200Y-77880800D02*
X72235200Y-77880800D01*
G75*
G02*
X72385200Y-78030800I0J-150000D01*
G01*
X72385200Y-79680800D01*
G75*
G02*
X72235200Y-79830800I-150000J0D01*
G01*
X71935200Y-79830800D01*
G75*
G02*
X71785200Y-79680800I0J150000D01*
G01*
X71785200Y-78030800D01*
G75*
G02*
X71935200Y-77880800I150000J0D01*
G01*
G37*
G36*
G01*
X70665200Y-77880800D02*
X70965200Y-77880800D01*
G75*
G02*
X71115200Y-78030800I0J-150000D01*
G01*
X71115200Y-79680800D01*
G75*
G02*
X70965200Y-79830800I-150000J0D01*
G01*
X70665200Y-79830800D01*
G75*
G02*
X70515200Y-79680800I0J150000D01*
G01*
X70515200Y-78030800D01*
G75*
G02*
X70665200Y-77880800I150000J0D01*
G01*
G37*
G36*
G01*
X69395200Y-77880800D02*
X69695200Y-77880800D01*
G75*
G02*
X69845200Y-78030800I0J-150000D01*
G01*
X69845200Y-79680800D01*
G75*
G02*
X69695200Y-79830800I-150000J0D01*
G01*
X69395200Y-79830800D01*
G75*
G02*
X69245200Y-79680800I0J150000D01*
G01*
X69245200Y-78030800D01*
G75*
G02*
X69395200Y-77880800I150000J0D01*
G01*
G37*
G36*
G01*
X68125200Y-77880800D02*
X68425200Y-77880800D01*
G75*
G02*
X68575200Y-78030800I0J-150000D01*
G01*
X68575200Y-79680800D01*
G75*
G02*
X68425200Y-79830800I-150000J0D01*
G01*
X68125200Y-79830800D01*
G75*
G02*
X67975200Y-79680800I0J150000D01*
G01*
X67975200Y-78030800D01*
G75*
G02*
X68125200Y-77880800I150000J0D01*
G01*
G37*
G36*
G01*
X66855200Y-77880800D02*
X67155200Y-77880800D01*
G75*
G02*
X67305200Y-78030800I0J-150000D01*
G01*
X67305200Y-79680800D01*
G75*
G02*
X67155200Y-79830800I-150000J0D01*
G01*
X66855200Y-79830800D01*
G75*
G02*
X66705200Y-79680800I0J150000D01*
G01*
X66705200Y-78030800D01*
G75*
G02*
X66855200Y-77880800I150000J0D01*
G01*
G37*
G36*
G01*
X65585200Y-77880800D02*
X65885200Y-77880800D01*
G75*
G02*
X66035200Y-78030800I0J-150000D01*
G01*
X66035200Y-79680800D01*
G75*
G02*
X65885200Y-79830800I-150000J0D01*
G01*
X65585200Y-79830800D01*
G75*
G02*
X65435200Y-79680800I0J150000D01*
G01*
X65435200Y-78030800D01*
G75*
G02*
X65585200Y-77880800I150000J0D01*
G01*
G37*
%TD*%
M02*
