%TF.GenerationSoftware,KiCad,Pcbnew,(5.1.9)-1*%
%TF.CreationDate,2021-03-30T13:42:28+10:00*%
%TF.ProjectId,RedPyKeeb,52656450-794b-4656-9562-2e6b69636164,rev?*%
%TF.SameCoordinates,Original*%
%TF.FileFunction,Paste,Top*%
%TF.FilePolarity,Positive*%
%FSLAX46Y46*%
G04 Gerber Fmt 4.6, Leading zero omitted, Abs format (unit mm)*
G04 Created by KiCad (PCBNEW (5.1.9)-1) date 2021-03-30 13:42:28*
%MOMM*%
%LPD*%
G01*
G04 APERTURE LIST*
%ADD10R,1.800000X1.500000*%
%ADD11R,1.800000X0.500000*%
%ADD12R,0.300000X2.000000*%
%ADD13R,0.600000X2.780000*%
%ADD14R,1.250000X1.500000*%
%ADD15R,1.500000X1.250000*%
G04 APERTURE END LIST*
%TO.C,U3*%
G36*
G01*
X91861500Y-80418300D02*
X92161500Y-80418300D01*
G75*
G02*
X92311500Y-80568300I0J-150000D01*
G01*
X92311500Y-82318300D01*
G75*
G02*
X92161500Y-82468300I-150000J0D01*
G01*
X91861500Y-82468300D01*
G75*
G02*
X91711500Y-82318300I0J150000D01*
G01*
X91711500Y-80568300D01*
G75*
G02*
X91861500Y-80418300I150000J0D01*
G01*
G37*
G36*
G01*
X90591500Y-80418300D02*
X90891500Y-80418300D01*
G75*
G02*
X91041500Y-80568300I0J-150000D01*
G01*
X91041500Y-82318300D01*
G75*
G02*
X90891500Y-82468300I-150000J0D01*
G01*
X90591500Y-82468300D01*
G75*
G02*
X90441500Y-82318300I0J150000D01*
G01*
X90441500Y-80568300D01*
G75*
G02*
X90591500Y-80418300I150000J0D01*
G01*
G37*
G36*
G01*
X89321500Y-80418300D02*
X89621500Y-80418300D01*
G75*
G02*
X89771500Y-80568300I0J-150000D01*
G01*
X89771500Y-82318300D01*
G75*
G02*
X89621500Y-82468300I-150000J0D01*
G01*
X89321500Y-82468300D01*
G75*
G02*
X89171500Y-82318300I0J150000D01*
G01*
X89171500Y-80568300D01*
G75*
G02*
X89321500Y-80418300I150000J0D01*
G01*
G37*
G36*
G01*
X88051500Y-80418300D02*
X88351500Y-80418300D01*
G75*
G02*
X88501500Y-80568300I0J-150000D01*
G01*
X88501500Y-82318300D01*
G75*
G02*
X88351500Y-82468300I-150000J0D01*
G01*
X88051500Y-82468300D01*
G75*
G02*
X87901500Y-82318300I0J150000D01*
G01*
X87901500Y-80568300D01*
G75*
G02*
X88051500Y-80418300I150000J0D01*
G01*
G37*
G36*
G01*
X86781500Y-80418300D02*
X87081500Y-80418300D01*
G75*
G02*
X87231500Y-80568300I0J-150000D01*
G01*
X87231500Y-82318300D01*
G75*
G02*
X87081500Y-82468300I-150000J0D01*
G01*
X86781500Y-82468300D01*
G75*
G02*
X86631500Y-82318300I0J150000D01*
G01*
X86631500Y-80568300D01*
G75*
G02*
X86781500Y-80418300I150000J0D01*
G01*
G37*
G36*
G01*
X85511500Y-80418300D02*
X85811500Y-80418300D01*
G75*
G02*
X85961500Y-80568300I0J-150000D01*
G01*
X85961500Y-82318300D01*
G75*
G02*
X85811500Y-82468300I-150000J0D01*
G01*
X85511500Y-82468300D01*
G75*
G02*
X85361500Y-82318300I0J150000D01*
G01*
X85361500Y-80568300D01*
G75*
G02*
X85511500Y-80418300I150000J0D01*
G01*
G37*
G36*
G01*
X84241500Y-80418300D02*
X84541500Y-80418300D01*
G75*
G02*
X84691500Y-80568300I0J-150000D01*
G01*
X84691500Y-82318300D01*
G75*
G02*
X84541500Y-82468300I-150000J0D01*
G01*
X84241500Y-82468300D01*
G75*
G02*
X84091500Y-82318300I0J150000D01*
G01*
X84091500Y-80568300D01*
G75*
G02*
X84241500Y-80418300I150000J0D01*
G01*
G37*
G36*
G01*
X82971500Y-80418300D02*
X83271500Y-80418300D01*
G75*
G02*
X83421500Y-80568300I0J-150000D01*
G01*
X83421500Y-82318300D01*
G75*
G02*
X83271500Y-82468300I-150000J0D01*
G01*
X82971500Y-82468300D01*
G75*
G02*
X82821500Y-82318300I0J150000D01*
G01*
X82821500Y-80568300D01*
G75*
G02*
X82971500Y-80418300I150000J0D01*
G01*
G37*
G36*
G01*
X81701500Y-80418300D02*
X82001500Y-80418300D01*
G75*
G02*
X82151500Y-80568300I0J-150000D01*
G01*
X82151500Y-82318300D01*
G75*
G02*
X82001500Y-82468300I-150000J0D01*
G01*
X81701500Y-82468300D01*
G75*
G02*
X81551500Y-82318300I0J150000D01*
G01*
X81551500Y-80568300D01*
G75*
G02*
X81701500Y-80418300I150000J0D01*
G01*
G37*
G36*
G01*
X80431500Y-80418300D02*
X80731500Y-80418300D01*
G75*
G02*
X80881500Y-80568300I0J-150000D01*
G01*
X80881500Y-82318300D01*
G75*
G02*
X80731500Y-82468300I-150000J0D01*
G01*
X80431500Y-82468300D01*
G75*
G02*
X80281500Y-82318300I0J150000D01*
G01*
X80281500Y-80568300D01*
G75*
G02*
X80431500Y-80418300I150000J0D01*
G01*
G37*
G36*
G01*
X79161500Y-80418300D02*
X79461500Y-80418300D01*
G75*
G02*
X79611500Y-80568300I0J-150000D01*
G01*
X79611500Y-82318300D01*
G75*
G02*
X79461500Y-82468300I-150000J0D01*
G01*
X79161500Y-82468300D01*
G75*
G02*
X79011500Y-82318300I0J150000D01*
G01*
X79011500Y-80568300D01*
G75*
G02*
X79161500Y-80418300I150000J0D01*
G01*
G37*
G36*
G01*
X77891500Y-80418300D02*
X78191500Y-80418300D01*
G75*
G02*
X78341500Y-80568300I0J-150000D01*
G01*
X78341500Y-82318300D01*
G75*
G02*
X78191500Y-82468300I-150000J0D01*
G01*
X77891500Y-82468300D01*
G75*
G02*
X77741500Y-82318300I0J150000D01*
G01*
X77741500Y-80568300D01*
G75*
G02*
X77891500Y-80418300I150000J0D01*
G01*
G37*
G36*
G01*
X76621500Y-80418300D02*
X76921500Y-80418300D01*
G75*
G02*
X77071500Y-80568300I0J-150000D01*
G01*
X77071500Y-82318300D01*
G75*
G02*
X76921500Y-82468300I-150000J0D01*
G01*
X76621500Y-82468300D01*
G75*
G02*
X76471500Y-82318300I0J150000D01*
G01*
X76471500Y-80568300D01*
G75*
G02*
X76621500Y-80418300I150000J0D01*
G01*
G37*
G36*
G01*
X75351500Y-80418300D02*
X75651500Y-80418300D01*
G75*
G02*
X75801500Y-80568300I0J-150000D01*
G01*
X75801500Y-82318300D01*
G75*
G02*
X75651500Y-82468300I-150000J0D01*
G01*
X75351500Y-82468300D01*
G75*
G02*
X75201500Y-82318300I0J150000D01*
G01*
X75201500Y-80568300D01*
G75*
G02*
X75351500Y-80418300I150000J0D01*
G01*
G37*
G36*
G01*
X75351500Y-89718300D02*
X75651500Y-89718300D01*
G75*
G02*
X75801500Y-89868300I0J-150000D01*
G01*
X75801500Y-91618300D01*
G75*
G02*
X75651500Y-91768300I-150000J0D01*
G01*
X75351500Y-91768300D01*
G75*
G02*
X75201500Y-91618300I0J150000D01*
G01*
X75201500Y-89868300D01*
G75*
G02*
X75351500Y-89718300I150000J0D01*
G01*
G37*
G36*
G01*
X76621500Y-89718300D02*
X76921500Y-89718300D01*
G75*
G02*
X77071500Y-89868300I0J-150000D01*
G01*
X77071500Y-91618300D01*
G75*
G02*
X76921500Y-91768300I-150000J0D01*
G01*
X76621500Y-91768300D01*
G75*
G02*
X76471500Y-91618300I0J150000D01*
G01*
X76471500Y-89868300D01*
G75*
G02*
X76621500Y-89718300I150000J0D01*
G01*
G37*
G36*
G01*
X77891500Y-89718300D02*
X78191500Y-89718300D01*
G75*
G02*
X78341500Y-89868300I0J-150000D01*
G01*
X78341500Y-91618300D01*
G75*
G02*
X78191500Y-91768300I-150000J0D01*
G01*
X77891500Y-91768300D01*
G75*
G02*
X77741500Y-91618300I0J150000D01*
G01*
X77741500Y-89868300D01*
G75*
G02*
X77891500Y-89718300I150000J0D01*
G01*
G37*
G36*
G01*
X79161500Y-89718300D02*
X79461500Y-89718300D01*
G75*
G02*
X79611500Y-89868300I0J-150000D01*
G01*
X79611500Y-91618300D01*
G75*
G02*
X79461500Y-91768300I-150000J0D01*
G01*
X79161500Y-91768300D01*
G75*
G02*
X79011500Y-91618300I0J150000D01*
G01*
X79011500Y-89868300D01*
G75*
G02*
X79161500Y-89718300I150000J0D01*
G01*
G37*
G36*
G01*
X80431500Y-89718300D02*
X80731500Y-89718300D01*
G75*
G02*
X80881500Y-89868300I0J-150000D01*
G01*
X80881500Y-91618300D01*
G75*
G02*
X80731500Y-91768300I-150000J0D01*
G01*
X80431500Y-91768300D01*
G75*
G02*
X80281500Y-91618300I0J150000D01*
G01*
X80281500Y-89868300D01*
G75*
G02*
X80431500Y-89718300I150000J0D01*
G01*
G37*
G36*
G01*
X81701500Y-89718300D02*
X82001500Y-89718300D01*
G75*
G02*
X82151500Y-89868300I0J-150000D01*
G01*
X82151500Y-91618300D01*
G75*
G02*
X82001500Y-91768300I-150000J0D01*
G01*
X81701500Y-91768300D01*
G75*
G02*
X81551500Y-91618300I0J150000D01*
G01*
X81551500Y-89868300D01*
G75*
G02*
X81701500Y-89718300I150000J0D01*
G01*
G37*
G36*
G01*
X82971500Y-89718300D02*
X83271500Y-89718300D01*
G75*
G02*
X83421500Y-89868300I0J-150000D01*
G01*
X83421500Y-91618300D01*
G75*
G02*
X83271500Y-91768300I-150000J0D01*
G01*
X82971500Y-91768300D01*
G75*
G02*
X82821500Y-91618300I0J150000D01*
G01*
X82821500Y-89868300D01*
G75*
G02*
X82971500Y-89718300I150000J0D01*
G01*
G37*
G36*
G01*
X84241500Y-89718300D02*
X84541500Y-89718300D01*
G75*
G02*
X84691500Y-89868300I0J-150000D01*
G01*
X84691500Y-91618300D01*
G75*
G02*
X84541500Y-91768300I-150000J0D01*
G01*
X84241500Y-91768300D01*
G75*
G02*
X84091500Y-91618300I0J150000D01*
G01*
X84091500Y-89868300D01*
G75*
G02*
X84241500Y-89718300I150000J0D01*
G01*
G37*
G36*
G01*
X85511500Y-89718300D02*
X85811500Y-89718300D01*
G75*
G02*
X85961500Y-89868300I0J-150000D01*
G01*
X85961500Y-91618300D01*
G75*
G02*
X85811500Y-91768300I-150000J0D01*
G01*
X85511500Y-91768300D01*
G75*
G02*
X85361500Y-91618300I0J150000D01*
G01*
X85361500Y-89868300D01*
G75*
G02*
X85511500Y-89718300I150000J0D01*
G01*
G37*
G36*
G01*
X86781500Y-89718300D02*
X87081500Y-89718300D01*
G75*
G02*
X87231500Y-89868300I0J-150000D01*
G01*
X87231500Y-91618300D01*
G75*
G02*
X87081500Y-91768300I-150000J0D01*
G01*
X86781500Y-91768300D01*
G75*
G02*
X86631500Y-91618300I0J150000D01*
G01*
X86631500Y-89868300D01*
G75*
G02*
X86781500Y-89718300I150000J0D01*
G01*
G37*
G36*
G01*
X88051500Y-89718300D02*
X88351500Y-89718300D01*
G75*
G02*
X88501500Y-89868300I0J-150000D01*
G01*
X88501500Y-91618300D01*
G75*
G02*
X88351500Y-91768300I-150000J0D01*
G01*
X88051500Y-91768300D01*
G75*
G02*
X87901500Y-91618300I0J150000D01*
G01*
X87901500Y-89868300D01*
G75*
G02*
X88051500Y-89718300I150000J0D01*
G01*
G37*
G36*
G01*
X89321500Y-89718300D02*
X89621500Y-89718300D01*
G75*
G02*
X89771500Y-89868300I0J-150000D01*
G01*
X89771500Y-91618300D01*
G75*
G02*
X89621500Y-91768300I-150000J0D01*
G01*
X89321500Y-91768300D01*
G75*
G02*
X89171500Y-91618300I0J150000D01*
G01*
X89171500Y-89868300D01*
G75*
G02*
X89321500Y-89718300I150000J0D01*
G01*
G37*
G36*
G01*
X90591500Y-89718300D02*
X90891500Y-89718300D01*
G75*
G02*
X91041500Y-89868300I0J-150000D01*
G01*
X91041500Y-91618300D01*
G75*
G02*
X90891500Y-91768300I-150000J0D01*
G01*
X90591500Y-91768300D01*
G75*
G02*
X90441500Y-91618300I0J150000D01*
G01*
X90441500Y-89868300D01*
G75*
G02*
X90591500Y-89718300I150000J0D01*
G01*
G37*
G36*
G01*
X91861500Y-89718300D02*
X92161500Y-89718300D01*
G75*
G02*
X92311500Y-89868300I0J-150000D01*
G01*
X92311500Y-91618300D01*
G75*
G02*
X92161500Y-91768300I-150000J0D01*
G01*
X91861500Y-91768300D01*
G75*
G02*
X91711500Y-91618300I0J150000D01*
G01*
X91711500Y-89868300D01*
G75*
G02*
X91861500Y-89718300I150000J0D01*
G01*
G37*
%TD*%
D10*
%TO.C,LD0\u002C4*%
X101765700Y-182362300D03*
D11*
X101565700Y-180962300D03*
D10*
X101765700Y-179562300D03*
D11*
X98865700Y-180962300D03*
D10*
X98665700Y-179562300D03*
X98665700Y-182362300D03*
D12*
X100215700Y-182292300D03*
D13*
X100215700Y-179272300D03*
%TD*%
D10*
%TO.C,LD0\u002C0*%
X90018200Y-96827800D03*
D11*
X89818200Y-95427800D03*
D10*
X90018200Y-94027800D03*
D11*
X87118200Y-95427800D03*
D10*
X86918200Y-94027800D03*
X86918200Y-96827800D03*
D12*
X88468200Y-96757800D03*
D13*
X88468200Y-93737800D03*
%TD*%
D10*
%TO.C,LD0\u002C3*%
X97003200Y-161597800D03*
D11*
X96803200Y-160197800D03*
D10*
X97003200Y-158797800D03*
D11*
X94103200Y-160197800D03*
D10*
X93903200Y-158797800D03*
X93903200Y-161597800D03*
D12*
X95453200Y-161527800D03*
D13*
X95453200Y-158507800D03*
%TD*%
D10*
%TO.C,LD0\u002C5*%
X92367700Y-200713800D03*
D11*
X92167700Y-199313800D03*
D10*
X92367700Y-197913800D03*
D11*
X89467700Y-199313800D03*
D10*
X89267700Y-197913800D03*
X89267700Y-200713800D03*
D12*
X90817700Y-200643800D03*
D13*
X90817700Y-197623800D03*
%TD*%
D10*
%TO.C,LD0\u002C1*%
X89954700Y-122862800D03*
D11*
X89754700Y-121462800D03*
D10*
X89954700Y-120062800D03*
D11*
X87054700Y-121462800D03*
D10*
X86854700Y-120062800D03*
X86854700Y-122862800D03*
D12*
X88404700Y-122792800D03*
D13*
X88404700Y-119772800D03*
%TD*%
D10*
%TO.C,LD0\u002C2*%
X94463200Y-141785800D03*
D11*
X94263200Y-140385800D03*
D10*
X94463200Y-138985800D03*
D11*
X91563200Y-140385800D03*
D10*
X91363200Y-138985800D03*
X91363200Y-141785800D03*
D12*
X92913200Y-141715800D03*
D13*
X92913200Y-138695800D03*
%TD*%
D10*
%TO.C,LD1\u002C2*%
X118593200Y-142090600D03*
D11*
X118393200Y-140690600D03*
D10*
X118593200Y-139290600D03*
D11*
X115693200Y-140690600D03*
D10*
X115493200Y-139290600D03*
X115493200Y-142090600D03*
D12*
X117043200Y-142020600D03*
D13*
X117043200Y-139000600D03*
%TD*%
D10*
%TO.C,LD1\u002C5*%
X116942200Y-200764600D03*
D11*
X116742200Y-199364600D03*
D10*
X116942200Y-197964600D03*
D11*
X114042200Y-199364600D03*
D10*
X113842200Y-197964600D03*
X113842200Y-200764600D03*
D12*
X115392200Y-200694600D03*
D13*
X115392200Y-197674600D03*
%TD*%
D10*
%TO.C,LD1\u002C3*%
X123482700Y-161521600D03*
D11*
X123282700Y-160121600D03*
D10*
X123482700Y-158721600D03*
D11*
X120582700Y-160121600D03*
D10*
X120382700Y-158721600D03*
X120382700Y-161521600D03*
D12*
X121932700Y-161451600D03*
D13*
X121932700Y-158431600D03*
%TD*%
D10*
%TO.C,LD1\u002C1*%
X109169800Y-122862800D03*
D11*
X108969800Y-121462800D03*
D10*
X109169800Y-120062800D03*
D11*
X106269800Y-121462800D03*
D10*
X106069800Y-120062800D03*
X106069800Y-122862800D03*
D12*
X107619800Y-122792800D03*
D13*
X107619800Y-119772800D03*
%TD*%
D10*
%TO.C,LD1\u002C4*%
X132880700Y-181333600D03*
D11*
X132680700Y-179933600D03*
D10*
X132880700Y-178533600D03*
D11*
X129980700Y-179933600D03*
D10*
X129780700Y-178533600D03*
X129780700Y-181333600D03*
D12*
X131330700Y-181263600D03*
D13*
X131330700Y-178243600D03*
%TD*%
D10*
%TO.C,LD1\u002C0*%
X130023200Y-96942100D03*
D11*
X129823200Y-95542100D03*
D10*
X130023200Y-94142100D03*
D11*
X127123200Y-95542100D03*
D10*
X126923200Y-94142100D03*
X126923200Y-96942100D03*
D12*
X128473200Y-96872100D03*
D13*
X128473200Y-93852100D03*
%TD*%
D10*
%TO.C,LD2\u002C2*%
X137897200Y-142090600D03*
D11*
X137697200Y-140690600D03*
D10*
X137897200Y-139290600D03*
D11*
X134997200Y-140690600D03*
D10*
X134797200Y-139290600D03*
X134797200Y-142090600D03*
D12*
X136347200Y-142020600D03*
D13*
X136347200Y-139000600D03*
%TD*%
D10*
%TO.C,LD2\u002C1*%
X128372200Y-122850100D03*
D11*
X128172200Y-121450100D03*
D10*
X128372200Y-120050100D03*
D11*
X125472200Y-121450100D03*
D10*
X125272200Y-120050100D03*
X125272200Y-122850100D03*
D12*
X126822200Y-122780100D03*
D13*
X126822200Y-119760100D03*
%TD*%
D10*
%TO.C,LD2\u002C0*%
X149327200Y-96942100D03*
D11*
X149127200Y-95542100D03*
D10*
X149327200Y-94142100D03*
D11*
X146427200Y-95542100D03*
D10*
X146227200Y-94142100D03*
X146227200Y-96942100D03*
D12*
X147777200Y-96872100D03*
D13*
X147777200Y-93852100D03*
%TD*%
D10*
%TO.C,LD2\u002C4*%
X152044700Y-181333600D03*
D11*
X151844700Y-179933600D03*
D10*
X152044700Y-178533600D03*
D11*
X149144700Y-179933600D03*
D10*
X148944700Y-178533600D03*
X148944700Y-181333600D03*
D12*
X150494700Y-181263600D03*
D13*
X150494700Y-178243600D03*
%TD*%
D10*
%TO.C,LD2\u002C5*%
X141326200Y-200764600D03*
D11*
X141126200Y-199364600D03*
D10*
X141326200Y-197964600D03*
D11*
X138426200Y-199364600D03*
D10*
X138226200Y-197964600D03*
X138226200Y-200764600D03*
D12*
X139776200Y-200694600D03*
D13*
X139776200Y-197674600D03*
%TD*%
D10*
%TO.C,LD2\u002C3*%
X142786700Y-161521600D03*
D11*
X142586700Y-160121600D03*
D10*
X142786700Y-158721600D03*
D11*
X139886700Y-160121600D03*
D10*
X139686700Y-158721600D03*
X139686700Y-161521600D03*
D12*
X141236700Y-161451600D03*
D13*
X141236700Y-158431600D03*
%TD*%
D10*
%TO.C,LD3\u002C3*%
X162090700Y-161521600D03*
D11*
X161890700Y-160121600D03*
D10*
X162090700Y-158721600D03*
D11*
X159190700Y-160121600D03*
D10*
X158990700Y-158721600D03*
X158990700Y-161521600D03*
D12*
X160540700Y-161451600D03*
D13*
X160540700Y-158431600D03*
%TD*%
D10*
%TO.C,LD3\u002C5*%
X213208200Y-200764600D03*
D11*
X213008200Y-199364600D03*
D10*
X213208200Y-197964600D03*
D11*
X210308200Y-199364600D03*
D10*
X210108200Y-197964600D03*
X210108200Y-200764600D03*
D12*
X211658200Y-200694600D03*
D13*
X211658200Y-197674600D03*
%TD*%
D10*
%TO.C,LD3\u002C4*%
X171488700Y-181333600D03*
D11*
X171288700Y-179933600D03*
D10*
X171488700Y-178533600D03*
D11*
X168588700Y-179933600D03*
D10*
X168388700Y-178533600D03*
X168388700Y-181333600D03*
D12*
X169938700Y-181263600D03*
D13*
X169938700Y-178243600D03*
%TD*%
D10*
%TO.C,LD3\u002C2*%
X157201200Y-142090600D03*
D11*
X157001200Y-140690600D03*
D10*
X157201200Y-139290600D03*
D11*
X154301200Y-140690600D03*
D10*
X154101200Y-139290600D03*
X154101200Y-142090600D03*
D12*
X155651200Y-142020600D03*
D13*
X155651200Y-139000600D03*
%TD*%
D10*
%TO.C,LD3\u002C1*%
X147168200Y-122850100D03*
D11*
X146968200Y-121450100D03*
D10*
X147168200Y-120050100D03*
D11*
X144268200Y-121450100D03*
D10*
X144068200Y-120050100D03*
X144068200Y-122850100D03*
D12*
X145618200Y-122780100D03*
D13*
X145618200Y-119760100D03*
%TD*%
D10*
%TO.C,LD3\u002C0*%
X168631200Y-96942100D03*
D11*
X168431200Y-95542100D03*
D10*
X168631200Y-94142100D03*
D11*
X165731200Y-95542100D03*
D10*
X165531200Y-94142100D03*
X165531200Y-96942100D03*
D12*
X167081200Y-96872100D03*
D13*
X167081200Y-93852100D03*
%TD*%
D10*
%TO.C,LD4\u002C1*%
X166472200Y-122850100D03*
D11*
X166272200Y-121450100D03*
D10*
X166472200Y-120050100D03*
D11*
X163572200Y-121450100D03*
D10*
X163372200Y-120050100D03*
X163372200Y-122850100D03*
D12*
X164922200Y-122780100D03*
D13*
X164922200Y-119760100D03*
%TD*%
D10*
%TO.C,LD4\u002C2*%
X176505200Y-142090600D03*
D11*
X176305200Y-140690600D03*
D10*
X176505200Y-139290600D03*
D11*
X173605200Y-140690600D03*
D10*
X173405200Y-139290600D03*
X173405200Y-142090600D03*
D12*
X174955200Y-142020600D03*
D13*
X174955200Y-139000600D03*
%TD*%
D10*
%TO.C,LD4\u002C0*%
X187935200Y-96942100D03*
D11*
X187735200Y-95542100D03*
D10*
X187935200Y-94142100D03*
D11*
X185035200Y-95542100D03*
D10*
X184835200Y-94142100D03*
X184835200Y-96942100D03*
D12*
X186385200Y-96872100D03*
D13*
X186385200Y-93852100D03*
%TD*%
D10*
%TO.C,LD4\u002C4*%
X190792700Y-181333600D03*
D11*
X190592700Y-179933600D03*
D10*
X190792700Y-178533600D03*
D11*
X187892700Y-179933600D03*
D10*
X187692700Y-178533600D03*
X187692700Y-181333600D03*
D12*
X189242700Y-181263600D03*
D13*
X189242700Y-178243600D03*
%TD*%
D10*
%TO.C,LD4\u002C3*%
X181394700Y-161521600D03*
D11*
X181194700Y-160121600D03*
D10*
X181394700Y-158721600D03*
D11*
X178494700Y-160121600D03*
D10*
X178294700Y-158721600D03*
X178294700Y-161521600D03*
D12*
X179844700Y-161451600D03*
D13*
X179844700Y-158431600D03*
%TD*%
D10*
%TO.C,LD5\u002C3*%
X200698700Y-161521600D03*
D11*
X200498700Y-160121600D03*
D10*
X200698700Y-158721600D03*
D11*
X197798700Y-160121600D03*
D10*
X197598700Y-158721600D03*
X197598700Y-161521600D03*
D12*
X199148700Y-161451600D03*
D13*
X199148700Y-158431600D03*
%TD*%
D10*
%TO.C,LD5\u002C0*%
X219431200Y-96942100D03*
D11*
X219231200Y-95542100D03*
D10*
X219431200Y-94142100D03*
D11*
X216531200Y-95542100D03*
D10*
X216331200Y-94142100D03*
X216331200Y-96942100D03*
D12*
X217881200Y-96872100D03*
D13*
X217881200Y-93852100D03*
%TD*%
D10*
%TO.C,LD5\u002C4*%
X210096700Y-181333600D03*
D11*
X209896700Y-179933600D03*
D10*
X210096700Y-178533600D03*
D11*
X207196700Y-179933600D03*
D10*
X206996700Y-178533600D03*
X206996700Y-181333600D03*
D12*
X208546700Y-181263600D03*
D13*
X208546700Y-178243600D03*
%TD*%
D10*
%TO.C,LD5\u002C2*%
X195809200Y-142090600D03*
D11*
X195609200Y-140690600D03*
D10*
X195809200Y-139290600D03*
D11*
X192909200Y-140690600D03*
D10*
X192709200Y-139290600D03*
X192709200Y-142090600D03*
D12*
X194259200Y-142020600D03*
D13*
X194259200Y-139000600D03*
%TD*%
D10*
%TO.C,LD5\u002C1*%
X185776200Y-122850100D03*
D11*
X185576200Y-121450100D03*
D10*
X185776200Y-120050100D03*
D11*
X182876200Y-121450100D03*
D10*
X182676200Y-120050100D03*
X182676200Y-122850100D03*
D12*
X184226200Y-122780100D03*
D13*
X184226200Y-119760100D03*
%TD*%
D10*
%TO.C,LD6\u002C2*%
X215113200Y-142090600D03*
D11*
X214913200Y-140690600D03*
D10*
X215113200Y-139290600D03*
D11*
X212213200Y-140690600D03*
D10*
X212013200Y-139290600D03*
X212013200Y-142090600D03*
D12*
X213563200Y-142020600D03*
D13*
X213563200Y-139000600D03*
%TD*%
D10*
%TO.C,LD6\u002C0*%
X238735200Y-96942100D03*
D11*
X238535200Y-95542100D03*
D10*
X238735200Y-94142100D03*
D11*
X235835200Y-95542100D03*
D10*
X235635200Y-94142100D03*
X235635200Y-96942100D03*
D12*
X237185200Y-96872100D03*
D13*
X237185200Y-93852100D03*
%TD*%
D10*
%TO.C,LD6\u002C4*%
X229400700Y-181333600D03*
D11*
X229200700Y-179933600D03*
D10*
X229400700Y-178533600D03*
D11*
X226500700Y-179933600D03*
D10*
X226300700Y-178533600D03*
X226300700Y-181333600D03*
D12*
X227850700Y-181263600D03*
D13*
X227850700Y-178243600D03*
%TD*%
D10*
%TO.C,LD6\u002C3*%
X220002700Y-161521600D03*
D11*
X219802700Y-160121600D03*
D10*
X220002700Y-158721600D03*
D11*
X217102700Y-160121600D03*
D10*
X216902700Y-158721600D03*
X216902700Y-161521600D03*
D12*
X218452700Y-161451600D03*
D13*
X218452700Y-158431600D03*
%TD*%
D10*
%TO.C,LD6\u002C1*%
X205080200Y-122850100D03*
D11*
X204880200Y-121450100D03*
D10*
X205080200Y-120050100D03*
D11*
X202180200Y-121450100D03*
D10*
X201980200Y-120050100D03*
X201980200Y-122850100D03*
D12*
X203530200Y-122780100D03*
D13*
X203530200Y-119760100D03*
%TD*%
D10*
%TO.C,LD7\u002C0*%
X258039200Y-96942100D03*
D11*
X257839200Y-95542100D03*
D10*
X258039200Y-94142100D03*
D11*
X255139200Y-95542100D03*
D10*
X254939200Y-94142100D03*
X254939200Y-96942100D03*
D12*
X256489200Y-96872100D03*
D13*
X256489200Y-93852100D03*
%TD*%
D10*
%TO.C,LD7\u002C4*%
X248704700Y-181333600D03*
D11*
X248504700Y-179933600D03*
D10*
X248704700Y-178533600D03*
D11*
X245804700Y-179933600D03*
D10*
X245604700Y-178533600D03*
X245604700Y-181333600D03*
D12*
X247154700Y-181263600D03*
D13*
X247154700Y-178243600D03*
%TD*%
D10*
%TO.C,LD7\u002C3*%
X239306700Y-161521600D03*
D11*
X239106700Y-160121600D03*
D10*
X239306700Y-158721600D03*
D11*
X236406700Y-160121600D03*
D10*
X236206700Y-158721600D03*
X236206700Y-161521600D03*
D12*
X237756700Y-161451600D03*
D13*
X237756700Y-158431600D03*
%TD*%
D10*
%TO.C,LD7\u002C1*%
X224384200Y-122850100D03*
D11*
X224184200Y-121450100D03*
D10*
X224384200Y-120050100D03*
D11*
X221484200Y-121450100D03*
D10*
X221284200Y-120050100D03*
X221284200Y-122850100D03*
D12*
X222834200Y-122780100D03*
D13*
X222834200Y-119760100D03*
%TD*%
D10*
%TO.C,LD7\u002C2*%
X234417200Y-142090600D03*
D11*
X234217200Y-140690600D03*
D10*
X234417200Y-139290600D03*
D11*
X231517200Y-140690600D03*
D10*
X231317200Y-139290600D03*
X231317200Y-142090600D03*
D12*
X232867200Y-142020600D03*
D13*
X232867200Y-139000600D03*
%TD*%
D10*
%TO.C,LD8\u002C3*%
X258610700Y-161521600D03*
D11*
X258410700Y-160121600D03*
D10*
X258610700Y-158721600D03*
D11*
X255710700Y-160121600D03*
D10*
X255510700Y-158721600D03*
X255510700Y-161521600D03*
D12*
X257060700Y-161451600D03*
D13*
X257060700Y-158431600D03*
%TD*%
D10*
%TO.C,LD8\u002C4*%
X268008700Y-181333600D03*
D11*
X267808700Y-179933600D03*
D10*
X268008700Y-178533600D03*
D11*
X265108700Y-179933600D03*
D10*
X264908700Y-178533600D03*
X264908700Y-181333600D03*
D12*
X266458700Y-181263600D03*
D13*
X266458700Y-178243600D03*
%TD*%
D10*
%TO.C,LD8\u002C0*%
X277343200Y-96942100D03*
D11*
X277143200Y-95542100D03*
D10*
X277343200Y-94142100D03*
D11*
X274443200Y-95542100D03*
D10*
X274243200Y-94142100D03*
X274243200Y-96942100D03*
D12*
X275793200Y-96872100D03*
D13*
X275793200Y-93852100D03*
%TD*%
D10*
%TO.C,LD8\u002C2*%
X253721200Y-142090600D03*
D11*
X253521200Y-140690600D03*
D10*
X253721200Y-139290600D03*
D11*
X250821200Y-140690600D03*
D10*
X250621200Y-139290600D03*
X250621200Y-142090600D03*
D12*
X252171200Y-142020600D03*
D13*
X252171200Y-139000600D03*
%TD*%
D10*
%TO.C,LD8\u002C1*%
X243688200Y-122850100D03*
D11*
X243488200Y-121450100D03*
D10*
X243688200Y-120050100D03*
D11*
X240788200Y-121450100D03*
D10*
X240588200Y-120050100D03*
X240588200Y-122850100D03*
D12*
X242138200Y-122780100D03*
D13*
X242138200Y-119760100D03*
%TD*%
D10*
%TO.C,LD8\u002C5*%
X284963200Y-200873399D03*
D11*
X284763200Y-199473399D03*
D10*
X284963200Y-198073399D03*
D11*
X282063200Y-199473399D03*
D10*
X281863200Y-198073399D03*
X281863200Y-200873399D03*
D12*
X283413200Y-200803399D03*
D13*
X283413200Y-197783399D03*
%TD*%
D10*
%TO.C,LD9\u002C0*%
X303759200Y-96942100D03*
D11*
X303559200Y-95542100D03*
D10*
X303759200Y-94142100D03*
D11*
X300859200Y-95542100D03*
D10*
X300659200Y-94142100D03*
X300659200Y-96942100D03*
D12*
X302209200Y-96872100D03*
D13*
X302209200Y-93852100D03*
%TD*%
D10*
%TO.C,LD9\u002C1*%
X262992200Y-122850100D03*
D11*
X262792200Y-121450100D03*
D10*
X262992200Y-120050100D03*
D11*
X260092200Y-121450100D03*
D10*
X259892200Y-120050100D03*
X259892200Y-122850100D03*
D12*
X261442200Y-122780100D03*
D13*
X261442200Y-119760100D03*
%TD*%
D10*
%TO.C,LD9\u002C4*%
X287312700Y-181333600D03*
D11*
X287112700Y-179933600D03*
D10*
X287312700Y-178533600D03*
D11*
X284412700Y-179933600D03*
D10*
X284212700Y-178533600D03*
X284212700Y-181333600D03*
D12*
X285762700Y-181263600D03*
D13*
X285762700Y-178243600D03*
%TD*%
D10*
%TO.C,LD9\u002C3*%
X277914700Y-161521600D03*
D11*
X277714700Y-160121600D03*
D10*
X277914700Y-158721600D03*
D11*
X275014700Y-160121600D03*
D10*
X274814700Y-158721600D03*
X274814700Y-161521600D03*
D12*
X276364700Y-161451600D03*
D13*
X276364700Y-158431600D03*
%TD*%
D10*
%TO.C,LD9\u002C5*%
X309093200Y-200764600D03*
D11*
X308893200Y-199364600D03*
D10*
X309093200Y-197964600D03*
D11*
X306193200Y-199364600D03*
D10*
X305993200Y-197964600D03*
X305993200Y-200764600D03*
D12*
X307543200Y-200694600D03*
D13*
X307543200Y-197674600D03*
%TD*%
D10*
%TO.C,LD9\u002C2*%
X273025200Y-142090600D03*
D11*
X272825200Y-140690600D03*
D10*
X273025200Y-139290600D03*
D11*
X270125200Y-140690600D03*
D10*
X269925200Y-139290600D03*
X269925200Y-142090600D03*
D12*
X271475200Y-142020600D03*
D13*
X271475200Y-139000600D03*
%TD*%
D10*
%TO.C,LD10\u002C0*%
X323063200Y-96942100D03*
D11*
X322863200Y-95542100D03*
D10*
X323063200Y-94142100D03*
D11*
X320163200Y-95542100D03*
D10*
X319963200Y-94142100D03*
X319963200Y-96942100D03*
D12*
X321513200Y-96872100D03*
D13*
X321513200Y-93852100D03*
%TD*%
D10*
%TO.C,LD10\u002C5*%
X333286700Y-200764600D03*
D11*
X333086700Y-199364600D03*
D10*
X333286700Y-197964600D03*
D11*
X330386700Y-199364600D03*
D10*
X330186700Y-197964600D03*
X330186700Y-200764600D03*
D12*
X331736700Y-200694600D03*
D13*
X331736700Y-197674600D03*
%TD*%
D10*
%TO.C,LD10\u002C1*%
X282296200Y-122850100D03*
D11*
X282096200Y-121450100D03*
D10*
X282296200Y-120050100D03*
D11*
X279396200Y-121450100D03*
D10*
X279196200Y-120050100D03*
X279196200Y-122850100D03*
D12*
X280746200Y-122780100D03*
D13*
X280746200Y-119760100D03*
%TD*%
D10*
%TO.C,LD10\u002C2*%
X292329200Y-142090600D03*
D11*
X292129200Y-140690600D03*
D10*
X292329200Y-139290600D03*
D11*
X289429200Y-140690600D03*
D10*
X289229200Y-139290600D03*
X289229200Y-142090600D03*
D12*
X290779200Y-142020600D03*
D13*
X290779200Y-139000600D03*
%TD*%
D10*
%TO.C,LD10\u002C4*%
X306616700Y-181333600D03*
D11*
X306416700Y-179933600D03*
D10*
X306616700Y-178533600D03*
D11*
X303716700Y-179933600D03*
D10*
X303516700Y-178533600D03*
X303516700Y-181333600D03*
D12*
X305066700Y-181263600D03*
D13*
X305066700Y-178243600D03*
%TD*%
D10*
%TO.C,LD10\u002C3*%
X297218700Y-161521600D03*
D11*
X297018700Y-160121600D03*
D10*
X297218700Y-158721600D03*
D11*
X294318700Y-160121600D03*
D10*
X294118700Y-158721600D03*
X294118700Y-161521600D03*
D12*
X295668700Y-161451600D03*
D13*
X295668700Y-158431600D03*
%TD*%
D10*
%TO.C,LD11\u002C1*%
X301600200Y-122850100D03*
D11*
X301400200Y-121450100D03*
D10*
X301600200Y-120050100D03*
D11*
X298700200Y-121450100D03*
D10*
X298500200Y-120050100D03*
X298500200Y-122850100D03*
D12*
X300050200Y-122780100D03*
D13*
X300050200Y-119760100D03*
%TD*%
D10*
%TO.C,LD11\u002C3*%
X316522700Y-161521600D03*
D11*
X316322700Y-160121600D03*
D10*
X316522700Y-158721600D03*
D11*
X313622700Y-160121600D03*
D10*
X313422700Y-158721600D03*
X313422700Y-161521600D03*
D12*
X314972700Y-161451600D03*
D13*
X314972700Y-158431600D03*
%TD*%
D10*
%TO.C,LD11\u002C0*%
X342367200Y-96942100D03*
D11*
X342167200Y-95542100D03*
D10*
X342367200Y-94142100D03*
D11*
X339467200Y-95542100D03*
D10*
X339267200Y-94142100D03*
X339267200Y-96942100D03*
D12*
X340817200Y-96872100D03*
D13*
X340817200Y-93852100D03*
%TD*%
D10*
%TO.C,LD11\u002C5*%
X357353200Y-200764600D03*
D11*
X357153200Y-199364600D03*
D10*
X357353200Y-197964600D03*
D11*
X354453200Y-199364600D03*
D10*
X354253200Y-197964600D03*
X354253200Y-200764600D03*
D12*
X355803200Y-200694600D03*
D13*
X355803200Y-197674600D03*
%TD*%
D10*
%TO.C,LD11\u002C2*%
X311633200Y-142090600D03*
D11*
X311433200Y-140690600D03*
D10*
X311633200Y-139290600D03*
D11*
X308733200Y-140690600D03*
D10*
X308533200Y-139290600D03*
X308533200Y-142090600D03*
D12*
X310083200Y-142020600D03*
D13*
X310083200Y-139000600D03*
%TD*%
D10*
%TO.C,LD11\u002C4*%
X343002200Y-181333600D03*
D11*
X342802200Y-179933600D03*
D10*
X343002200Y-178533600D03*
D11*
X340102200Y-179933600D03*
D10*
X339902200Y-178533600D03*
X339902200Y-181333600D03*
D12*
X341452200Y-181263600D03*
D13*
X341452200Y-178243600D03*
%TD*%
D10*
%TO.C,LD12\u002C2*%
X330937200Y-142090600D03*
D11*
X330737200Y-140690600D03*
D10*
X330937200Y-139290600D03*
D11*
X328037200Y-140690600D03*
D10*
X327837200Y-139290600D03*
X327837200Y-142090600D03*
D12*
X329387200Y-142020600D03*
D13*
X329387200Y-139000600D03*
%TD*%
D10*
%TO.C,LD12\u002C3*%
X347828200Y-161607500D03*
D11*
X347628200Y-160207500D03*
D10*
X347828200Y-158807500D03*
D11*
X344928200Y-160207500D03*
D10*
X344728200Y-158807500D03*
X344728200Y-161607500D03*
D12*
X346278200Y-161537500D03*
D13*
X346278200Y-158517500D03*
%TD*%
D10*
%TO.C,LD12\u002C1*%
X320904200Y-122850100D03*
D11*
X320704200Y-121450100D03*
D10*
X320904200Y-120050100D03*
D11*
X318004200Y-121450100D03*
D10*
X317804200Y-120050100D03*
X317804200Y-122850100D03*
D12*
X319354200Y-122780100D03*
D13*
X319354200Y-119760100D03*
%TD*%
D10*
%TO.C,LD12\u002C0*%
X361671200Y-96942100D03*
D11*
X361471200Y-95542100D03*
D10*
X361671200Y-94142100D03*
D11*
X358771200Y-95542100D03*
D10*
X358571200Y-94142100D03*
X358571200Y-96942100D03*
D12*
X360121200Y-96872100D03*
D13*
X360121200Y-93852100D03*
%TD*%
D10*
%TO.C,LD13\u002C2*%
X355892700Y-142154100D03*
D11*
X355692700Y-140754100D03*
D10*
X355892700Y-139354100D03*
D11*
X352992700Y-140754100D03*
D10*
X352792700Y-139354100D03*
X352792700Y-142154100D03*
D12*
X354342700Y-142084100D03*
D13*
X354342700Y-139064100D03*
%TD*%
D10*
%TO.C,LD13\u002C1*%
X349669700Y-122850100D03*
D11*
X349469700Y-121450100D03*
D10*
X349669700Y-120050100D03*
D11*
X346769700Y-121450100D03*
D10*
X346569700Y-120050100D03*
X346569700Y-122850100D03*
D12*
X348119700Y-122780100D03*
D13*
X348119700Y-119760100D03*
%TD*%
D10*
%TO.C,LD14\u002C6*%
X382461100Y-200637600D03*
D11*
X382261100Y-199237600D03*
D10*
X382461100Y-197837600D03*
D11*
X379561100Y-199237600D03*
D10*
X379361100Y-197837600D03*
X379361100Y-200637600D03*
D12*
X380911100Y-200567600D03*
D13*
X380911100Y-197547600D03*
%TD*%
D10*
%TO.C,LD14\u002C0*%
X384112100Y-96942100D03*
D11*
X383912100Y-95542100D03*
D10*
X384112100Y-94142100D03*
D11*
X381212100Y-95542100D03*
D10*
X381012100Y-94142100D03*
X381012100Y-96942100D03*
D12*
X382562100Y-96872100D03*
D13*
X382562100Y-93852100D03*
%TD*%
D10*
%TO.C,LD14\u002C3*%
X382524600Y-142090600D03*
D11*
X382324600Y-140690600D03*
D10*
X382524600Y-139290600D03*
D11*
X379624600Y-140690600D03*
D10*
X379424600Y-139290600D03*
X379424600Y-142090600D03*
D12*
X380974600Y-142020600D03*
D13*
X380974600Y-139000600D03*
%TD*%
D10*
%TO.C,LD14\u002C1*%
X382524600Y-122850100D03*
D11*
X382324600Y-121450100D03*
D10*
X382524600Y-120050100D03*
D11*
X379624600Y-121450100D03*
D10*
X379424600Y-120050100D03*
X379424600Y-122850100D03*
D12*
X380974600Y-122780100D03*
D13*
X380974600Y-119760100D03*
%TD*%
D10*
%TO.C,LD15\u002C1*%
X401828600Y-122850100D03*
D11*
X401628600Y-121450100D03*
D10*
X401828600Y-120050100D03*
D11*
X398928600Y-121450100D03*
D10*
X398728600Y-120050100D03*
X398728600Y-122850100D03*
D12*
X400278600Y-122780100D03*
D13*
X400278600Y-119760100D03*
%TD*%
D10*
%TO.C,LD15\u002C3*%
X401828600Y-142090600D03*
D11*
X401628600Y-140690600D03*
D10*
X401828600Y-139290600D03*
D11*
X398928600Y-140690600D03*
D10*
X398728600Y-139290600D03*
X398728600Y-142090600D03*
D12*
X400278600Y-142020600D03*
D13*
X400278600Y-139000600D03*
%TD*%
D10*
%TO.C,LD15\u002C6*%
X401765100Y-200637600D03*
D11*
X401565100Y-199237600D03*
D10*
X401765100Y-197837600D03*
D11*
X398865100Y-199237600D03*
D10*
X398665100Y-197837600D03*
X398665100Y-200637600D03*
D12*
X400215100Y-200567600D03*
D13*
X400215100Y-197547600D03*
%TD*%
D10*
%TO.C,LD15\u002C5*%
X401765100Y-181282800D03*
D11*
X401565100Y-179882800D03*
D10*
X401765100Y-178482800D03*
D11*
X398865100Y-179882800D03*
D10*
X398665100Y-178482800D03*
X398665100Y-181282800D03*
D12*
X400215100Y-181212800D03*
D13*
X400215100Y-178192800D03*
%TD*%
D10*
%TO.C,LD15\u002C0*%
X403670100Y-96942100D03*
D11*
X403470100Y-95542100D03*
D10*
X403670100Y-94142100D03*
D11*
X400770100Y-95542100D03*
D10*
X400570100Y-94142100D03*
X400570100Y-96942100D03*
D12*
X402120100Y-96872100D03*
D13*
X402120100Y-93852100D03*
%TD*%
D10*
%TO.C,LD16\u002C4*%
X445008600Y-161521600D03*
D11*
X444808600Y-160121600D03*
D10*
X445008600Y-158721600D03*
D11*
X442108600Y-160121600D03*
D10*
X441908600Y-158721600D03*
X441908600Y-161521600D03*
D12*
X443458600Y-161451600D03*
D13*
X443458600Y-158431600D03*
%TD*%
D10*
%TO.C,LD16\u002C0*%
X422974100Y-96942100D03*
D11*
X422774100Y-95542100D03*
D10*
X422974100Y-94142100D03*
D11*
X420074100Y-95542100D03*
D10*
X419874100Y-94142100D03*
X419874100Y-96942100D03*
D12*
X421424100Y-96872100D03*
D13*
X421424100Y-93852100D03*
%TD*%
D10*
%TO.C,LD16\u002C6*%
X421069100Y-200637600D03*
D11*
X420869100Y-199237600D03*
D10*
X421069100Y-197837600D03*
D11*
X418169100Y-199237600D03*
D10*
X417969100Y-197837600D03*
X417969100Y-200637600D03*
D12*
X419519100Y-200567600D03*
D13*
X419519100Y-197547600D03*
%TD*%
D10*
%TO.C,LD16\u002C1*%
X421210800Y-122875500D03*
D11*
X421010800Y-121475500D03*
D10*
X421210800Y-120075500D03*
D11*
X418310800Y-121475500D03*
D10*
X418110800Y-120075500D03*
X418110800Y-122875500D03*
D12*
X419660800Y-122805500D03*
D13*
X419660800Y-119785500D03*
%TD*%
D10*
%TO.C,LD16\u002C3*%
X421132600Y-142090600D03*
D11*
X420932600Y-140690600D03*
D10*
X421132600Y-139290600D03*
D11*
X418232600Y-140690600D03*
D10*
X418032600Y-139290600D03*
X418032600Y-142090600D03*
D12*
X419582600Y-142020600D03*
D13*
X419582600Y-139000600D03*
%TD*%
D10*
%TO.C,LD16\u002C5*%
X445262600Y-180825600D03*
D11*
X445062600Y-179425600D03*
D10*
X445262600Y-178025600D03*
D11*
X442362600Y-179425600D03*
D10*
X442162600Y-178025600D03*
X442162600Y-180825600D03*
D12*
X443712600Y-180755600D03*
D13*
X443712600Y-177735600D03*
%TD*%
D10*
%TO.C,LD17\u002C7*%
X444881600Y-115865100D03*
D11*
X444681600Y-114465100D03*
D10*
X444881600Y-113065100D03*
D11*
X441981600Y-114465100D03*
D10*
X441781600Y-113065100D03*
X441781600Y-115865100D03*
D12*
X443331600Y-115795100D03*
D13*
X443331600Y-112775100D03*
%TD*%
D10*
%TO.C,LD17\u002C0*%
X444945100Y-97069100D03*
D11*
X444745100Y-95669100D03*
D10*
X444945100Y-94269100D03*
D11*
X442045100Y-95669100D03*
D10*
X441845100Y-94269100D03*
X441845100Y-97069100D03*
D12*
X443395100Y-96999100D03*
D13*
X443395100Y-93979100D03*
%TD*%
D10*
%TO.C,LD17\u002C1*%
X445008600Y-122850100D03*
D11*
X444808600Y-121450100D03*
D10*
X445008600Y-120050100D03*
D11*
X442108600Y-121450100D03*
D10*
X441908600Y-120050100D03*
X441908600Y-122850100D03*
D12*
X443458600Y-122780100D03*
D13*
X443458600Y-119760100D03*
%TD*%
D10*
%TO.C,LD17\u002C5*%
X464312600Y-180825600D03*
D11*
X464112600Y-179425600D03*
D10*
X464312600Y-178025600D03*
D11*
X461412600Y-179425600D03*
D10*
X461212600Y-178025600D03*
X461212600Y-180825600D03*
D12*
X462762600Y-180755600D03*
D13*
X462762600Y-177735600D03*
%TD*%
D10*
%TO.C,LD17\u002C6*%
X454787600Y-200129600D03*
D11*
X454587600Y-198729600D03*
D10*
X454787600Y-197329600D03*
D11*
X451887600Y-198729600D03*
D10*
X451687600Y-197329600D03*
X451687600Y-200129600D03*
D12*
X453237600Y-200059600D03*
D13*
X453237600Y-197039600D03*
%TD*%
D10*
%TO.C,LD17\u002C3*%
X445008600Y-142217600D03*
D11*
X444808600Y-140817600D03*
D10*
X445008600Y-139417600D03*
D11*
X442108600Y-140817600D03*
D10*
X441908600Y-139417600D03*
X441908600Y-142217600D03*
D12*
X443458600Y-142147600D03*
D13*
X443458600Y-139127600D03*
%TD*%
D10*
%TO.C,LD17\u002C4*%
X464312600Y-161521600D03*
D11*
X464112600Y-160121600D03*
D10*
X464312600Y-158721600D03*
D11*
X461412600Y-160121600D03*
D10*
X461212600Y-158721600D03*
X461212600Y-161521600D03*
D12*
X462762600Y-161451600D03*
D13*
X462762600Y-158431600D03*
%TD*%
D10*
%TO.C,LD18\u002C6*%
X483616600Y-200129600D03*
D11*
X483416600Y-198729600D03*
D10*
X483616600Y-197329600D03*
D11*
X480716600Y-198729600D03*
D10*
X480516600Y-197329600D03*
X480516600Y-200129600D03*
D12*
X482066600Y-200059600D03*
D13*
X482066600Y-197039600D03*
%TD*%
D10*
%TO.C,LD18\u002C1*%
X464312600Y-122850100D03*
D11*
X464112600Y-121450100D03*
D10*
X464312600Y-120050100D03*
D11*
X461412600Y-121450100D03*
D10*
X461212600Y-120050100D03*
X461212600Y-122850100D03*
D12*
X462762600Y-122780100D03*
D13*
X462762600Y-119760100D03*
%TD*%
D10*
%TO.C,LD18\u002C7*%
X464503100Y-115814300D03*
D11*
X464303100Y-114414300D03*
D10*
X464503100Y-113014300D03*
D11*
X461603100Y-114414300D03*
D10*
X461403100Y-113014300D03*
X461403100Y-115814300D03*
D12*
X462953100Y-115744300D03*
D13*
X462953100Y-112724300D03*
%TD*%
D10*
%TO.C,LD18\u002C5*%
X483616600Y-180825600D03*
D11*
X483416600Y-179425600D03*
D10*
X483616600Y-178025600D03*
D11*
X480716600Y-179425600D03*
D10*
X480516600Y-178025600D03*
X480516600Y-180825600D03*
D12*
X482066600Y-180755600D03*
D13*
X482066600Y-177735600D03*
%TD*%
D10*
%TO.C,LD18\u002C4*%
X483616600Y-161458100D03*
D11*
X483416600Y-160058100D03*
D10*
X483616600Y-158658100D03*
D11*
X480716600Y-160058100D03*
D10*
X480516600Y-158658100D03*
X480516600Y-161458100D03*
D12*
X482066600Y-161388100D03*
D13*
X482066600Y-158368100D03*
%TD*%
D10*
%TO.C,LD18\u002C3*%
X464312600Y-142217600D03*
D11*
X464112600Y-140817600D03*
D10*
X464312600Y-139417600D03*
D11*
X461412600Y-140817600D03*
D10*
X461212600Y-139417600D03*
X461212600Y-142217600D03*
D12*
X462762600Y-142147600D03*
D13*
X462762600Y-139127600D03*
%TD*%
D10*
%TO.C,LD18\u002C0*%
X464249100Y-97069100D03*
D11*
X464049100Y-95669100D03*
D10*
X464249100Y-94269100D03*
D11*
X461349100Y-95669100D03*
D10*
X461149100Y-94269100D03*
X461149100Y-97069100D03*
D12*
X462699100Y-96999100D03*
D13*
X462699100Y-93979100D03*
%TD*%
D10*
%TO.C,LD19\u002C7*%
X483807100Y-115814300D03*
D11*
X483607100Y-114414300D03*
D10*
X483807100Y-113014300D03*
D11*
X480907100Y-114414300D03*
D10*
X480707100Y-113014300D03*
X480707100Y-115814300D03*
D12*
X482257100Y-115744300D03*
D13*
X482257100Y-112724300D03*
%TD*%
D10*
%TO.C,LD19\u002C0*%
X483671300Y-97154399D03*
D11*
X483471300Y-95754399D03*
D10*
X483671300Y-94354399D03*
D11*
X480771300Y-95754399D03*
D10*
X480571300Y-94354399D03*
X480571300Y-97154399D03*
D12*
X482121300Y-97084399D03*
D13*
X482121300Y-94064399D03*
%TD*%
D10*
%TO.C,LD19\u002C1*%
X483616600Y-123358100D03*
D11*
X483416600Y-121958100D03*
D10*
X483616600Y-120558100D03*
D11*
X480716600Y-121958100D03*
D10*
X480516600Y-120558100D03*
X480516600Y-123358100D03*
D12*
X482066600Y-123288100D03*
D13*
X482066600Y-120268100D03*
%TD*%
D10*
%TO.C,LD19\u002C4*%
X502920600Y-151996600D03*
D11*
X502720600Y-150596600D03*
D10*
X502920600Y-149196600D03*
D11*
X500020600Y-150596600D03*
D10*
X499820600Y-149196600D03*
X499820600Y-151996600D03*
D12*
X501370600Y-151926600D03*
D13*
X501370600Y-148906600D03*
%TD*%
D10*
%TO.C,LD19\u002C3*%
X483616600Y-142217600D03*
D11*
X483416600Y-140817600D03*
D10*
X483616600Y-139417600D03*
D11*
X480716600Y-140817600D03*
D10*
X480516600Y-139417600D03*
X480516600Y-142217600D03*
D12*
X482066600Y-142147600D03*
D13*
X482066600Y-139127600D03*
%TD*%
D10*
%TO.C,LD19\u002C6*%
X503174600Y-192509600D03*
D11*
X502974600Y-191109600D03*
D10*
X503174600Y-189709600D03*
D11*
X500274600Y-191109600D03*
D10*
X500074600Y-189709600D03*
X500074600Y-192509600D03*
D12*
X501624600Y-192439600D03*
D13*
X501624600Y-189419600D03*
%TD*%
D10*
%TO.C,LD20\u002C1*%
X502920600Y-122850100D03*
D11*
X502720600Y-121450100D03*
D10*
X502920600Y-120050100D03*
D11*
X500020600Y-121450100D03*
D10*
X499820600Y-120050100D03*
X499820600Y-122850100D03*
D12*
X501370600Y-122780100D03*
D13*
X501370600Y-119760100D03*
%TD*%
D10*
%TO.C,LD20\u002C0*%
X502857100Y-97069100D03*
D11*
X502657100Y-95669100D03*
D10*
X502857100Y-94269100D03*
D11*
X499957100Y-95669100D03*
D10*
X499757100Y-94269100D03*
X499757100Y-97069100D03*
D12*
X501307100Y-96999100D03*
D13*
X501307100Y-93979100D03*
%TD*%
D10*
%TO.C,LD20\u002C7*%
X503111100Y-115865100D03*
D11*
X502911100Y-114465100D03*
D10*
X503111100Y-113065100D03*
D11*
X500211100Y-114465100D03*
D10*
X500011100Y-113065100D03*
X500011100Y-115865100D03*
D12*
X501561100Y-115795100D03*
D13*
X501561100Y-112775100D03*
%TD*%
D14*
%TO.C,C1*%
X107823000Y-113050000D03*
X107823000Y-115550000D03*
%TD*%
D15*
%TO.C,C2*%
X410444000Y-84201000D03*
X407944000Y-84201000D03*
%TD*%
M02*
