%TF.GenerationSoftware,KiCad,Pcbnew,(5.1.9)-1*%
%TF.CreationDate,2021-03-30T13:42:28+10:00*%
%TF.ProjectId,RedPyKeeb,52656450-794b-4656-9562-2e6b69636164,rev?*%
%TF.SameCoordinates,Original*%
%TF.FileFunction,Other,User*%
%FSLAX46Y46*%
G04 Gerber Fmt 4.6, Leading zero omitted, Abs format (unit mm)*
G04 Created by KiCad (PCBNEW (5.1.9)-1) date 2021-03-30 13:42:28*
%MOMM*%
%LPD*%
G01*
G04 APERTURE LIST*
%ADD10C,0.050000*%
G04 APERTURE END LIST*
D10*
%TO.C,U3*%
X92956500Y-80163300D02*
X74556500Y-80163300D01*
X74556500Y-80163300D02*
X74556500Y-92023300D01*
X74556500Y-92023300D02*
X92956500Y-92023300D01*
X92956500Y-92023300D02*
X92956500Y-80163300D01*
%TO.C,K12\u002C3*%
X339028200Y-174242300D02*
X353528200Y-174242300D01*
X339028200Y-159742300D02*
X339028200Y-174242300D01*
X353528200Y-159742300D02*
X339028200Y-159742300D01*
X353528200Y-174242300D02*
X353528200Y-159742300D01*
%TO.C,LD0\u002C4*%
X98715700Y-179562300D02*
X99715700Y-179562300D01*
X100715700Y-179562300D02*
X101715700Y-179562300D01*
X101715700Y-182362300D02*
X100715700Y-182362300D01*
X99715700Y-182362300D02*
X98715700Y-182362300D01*
X99715700Y-182542300D02*
X99715700Y-182362300D01*
X100715700Y-182542300D02*
X99715700Y-182542300D01*
X100715700Y-182362300D02*
X100715700Y-182542300D01*
X99715700Y-179382300D02*
X99715700Y-179562300D01*
X100715700Y-179382300D02*
X99715700Y-179382300D01*
X100715700Y-179562300D02*
X100715700Y-179382300D01*
X101715700Y-182362300D02*
X101715700Y-179562300D01*
X98715700Y-182362300D02*
X98715700Y-179562300D01*
%TO.C,LD0\u002C0*%
X86968200Y-94027800D02*
X87968200Y-94027800D01*
X88968200Y-94027800D02*
X89968200Y-94027800D01*
X89968200Y-96827800D02*
X88968200Y-96827800D01*
X87968200Y-96827800D02*
X86968200Y-96827800D01*
X87968200Y-97007800D02*
X87968200Y-96827800D01*
X88968200Y-97007800D02*
X87968200Y-97007800D01*
X88968200Y-96827800D02*
X88968200Y-97007800D01*
X87968200Y-93847800D02*
X87968200Y-94027800D01*
X88968200Y-93847800D02*
X87968200Y-93847800D01*
X88968200Y-94027800D02*
X88968200Y-93847800D01*
X89968200Y-96827800D02*
X89968200Y-94027800D01*
X86968200Y-96827800D02*
X86968200Y-94027800D01*
%TO.C,LD0\u002C3*%
X93953200Y-158797800D02*
X94953200Y-158797800D01*
X95953200Y-158797800D02*
X96953200Y-158797800D01*
X96953200Y-161597800D02*
X95953200Y-161597800D01*
X94953200Y-161597800D02*
X93953200Y-161597800D01*
X94953200Y-161777800D02*
X94953200Y-161597800D01*
X95953200Y-161777800D02*
X94953200Y-161777800D01*
X95953200Y-161597800D02*
X95953200Y-161777800D01*
X94953200Y-158617800D02*
X94953200Y-158797800D01*
X95953200Y-158617800D02*
X94953200Y-158617800D01*
X95953200Y-158797800D02*
X95953200Y-158617800D01*
X96953200Y-161597800D02*
X96953200Y-158797800D01*
X93953200Y-161597800D02*
X93953200Y-158797800D01*
%TO.C,LD0\u002C5*%
X89317700Y-197913800D02*
X90317700Y-197913800D01*
X91317700Y-197913800D02*
X92317700Y-197913800D01*
X92317700Y-200713800D02*
X91317700Y-200713800D01*
X90317700Y-200713800D02*
X89317700Y-200713800D01*
X90317700Y-200893800D02*
X90317700Y-200713800D01*
X91317700Y-200893800D02*
X90317700Y-200893800D01*
X91317700Y-200713800D02*
X91317700Y-200893800D01*
X90317700Y-197733800D02*
X90317700Y-197913800D01*
X91317700Y-197733800D02*
X90317700Y-197733800D01*
X91317700Y-197913800D02*
X91317700Y-197733800D01*
X92317700Y-200713800D02*
X92317700Y-197913800D01*
X89317700Y-200713800D02*
X89317700Y-197913800D01*
%TO.C,LD0\u002C1*%
X86904700Y-120062800D02*
X87904700Y-120062800D01*
X88904700Y-120062800D02*
X89904700Y-120062800D01*
X89904700Y-122862800D02*
X88904700Y-122862800D01*
X87904700Y-122862800D02*
X86904700Y-122862800D01*
X87904700Y-123042800D02*
X87904700Y-122862800D01*
X88904700Y-123042800D02*
X87904700Y-123042800D01*
X88904700Y-122862800D02*
X88904700Y-123042800D01*
X87904700Y-119882800D02*
X87904700Y-120062800D01*
X88904700Y-119882800D02*
X87904700Y-119882800D01*
X88904700Y-120062800D02*
X88904700Y-119882800D01*
X89904700Y-122862800D02*
X89904700Y-120062800D01*
X86904700Y-122862800D02*
X86904700Y-120062800D01*
%TO.C,LD0\u002C2*%
X91413200Y-138985800D02*
X92413200Y-138985800D01*
X93413200Y-138985800D02*
X94413200Y-138985800D01*
X94413200Y-141785800D02*
X93413200Y-141785800D01*
X92413200Y-141785800D02*
X91413200Y-141785800D01*
X92413200Y-141965800D02*
X92413200Y-141785800D01*
X93413200Y-141965800D02*
X92413200Y-141965800D01*
X93413200Y-141785800D02*
X93413200Y-141965800D01*
X92413200Y-138805800D02*
X92413200Y-138985800D01*
X93413200Y-138805800D02*
X92413200Y-138805800D01*
X93413200Y-138985800D02*
X93413200Y-138805800D01*
X94413200Y-141785800D02*
X94413200Y-138985800D01*
X91413200Y-141785800D02*
X91413200Y-138985800D01*
%TO.C,LD1\u002C2*%
X115543200Y-139290600D02*
X116543200Y-139290600D01*
X117543200Y-139290600D02*
X118543200Y-139290600D01*
X118543200Y-142090600D02*
X117543200Y-142090600D01*
X116543200Y-142090600D02*
X115543200Y-142090600D01*
X116543200Y-142270600D02*
X116543200Y-142090600D01*
X117543200Y-142270600D02*
X116543200Y-142270600D01*
X117543200Y-142090600D02*
X117543200Y-142270600D01*
X116543200Y-139110600D02*
X116543200Y-139290600D01*
X117543200Y-139110600D02*
X116543200Y-139110600D01*
X117543200Y-139290600D02*
X117543200Y-139110600D01*
X118543200Y-142090600D02*
X118543200Y-139290600D01*
X115543200Y-142090600D02*
X115543200Y-139290600D01*
%TO.C,LD1\u002C5*%
X113892200Y-197964600D02*
X114892200Y-197964600D01*
X115892200Y-197964600D02*
X116892200Y-197964600D01*
X116892200Y-200764600D02*
X115892200Y-200764600D01*
X114892200Y-200764600D02*
X113892200Y-200764600D01*
X114892200Y-200944600D02*
X114892200Y-200764600D01*
X115892200Y-200944600D02*
X114892200Y-200944600D01*
X115892200Y-200764600D02*
X115892200Y-200944600D01*
X114892200Y-197784600D02*
X114892200Y-197964600D01*
X115892200Y-197784600D02*
X114892200Y-197784600D01*
X115892200Y-197964600D02*
X115892200Y-197784600D01*
X116892200Y-200764600D02*
X116892200Y-197964600D01*
X113892200Y-200764600D02*
X113892200Y-197964600D01*
%TO.C,LD1\u002C3*%
X120432700Y-158721600D02*
X121432700Y-158721600D01*
X122432700Y-158721600D02*
X123432700Y-158721600D01*
X123432700Y-161521600D02*
X122432700Y-161521600D01*
X121432700Y-161521600D02*
X120432700Y-161521600D01*
X121432700Y-161701600D02*
X121432700Y-161521600D01*
X122432700Y-161701600D02*
X121432700Y-161701600D01*
X122432700Y-161521600D02*
X122432700Y-161701600D01*
X121432700Y-158541600D02*
X121432700Y-158721600D01*
X122432700Y-158541600D02*
X121432700Y-158541600D01*
X122432700Y-158721600D02*
X122432700Y-158541600D01*
X123432700Y-161521600D02*
X123432700Y-158721600D01*
X120432700Y-161521600D02*
X120432700Y-158721600D01*
%TO.C,LD1\u002C1*%
X106119800Y-120062800D02*
X107119800Y-120062800D01*
X108119800Y-120062800D02*
X109119800Y-120062800D01*
X109119800Y-122862800D02*
X108119800Y-122862800D01*
X107119800Y-122862800D02*
X106119800Y-122862800D01*
X107119800Y-123042800D02*
X107119800Y-122862800D01*
X108119800Y-123042800D02*
X107119800Y-123042800D01*
X108119800Y-122862800D02*
X108119800Y-123042800D01*
X107119800Y-119882800D02*
X107119800Y-120062800D01*
X108119800Y-119882800D02*
X107119800Y-119882800D01*
X108119800Y-120062800D02*
X108119800Y-119882800D01*
X109119800Y-122862800D02*
X109119800Y-120062800D01*
X106119800Y-122862800D02*
X106119800Y-120062800D01*
%TO.C,LD1\u002C4*%
X129830700Y-178533600D02*
X130830700Y-178533600D01*
X131830700Y-178533600D02*
X132830700Y-178533600D01*
X132830700Y-181333600D02*
X131830700Y-181333600D01*
X130830700Y-181333600D02*
X129830700Y-181333600D01*
X130830700Y-181513600D02*
X130830700Y-181333600D01*
X131830700Y-181513600D02*
X130830700Y-181513600D01*
X131830700Y-181333600D02*
X131830700Y-181513600D01*
X130830700Y-178353600D02*
X130830700Y-178533600D01*
X131830700Y-178353600D02*
X130830700Y-178353600D01*
X131830700Y-178533600D02*
X131830700Y-178353600D01*
X132830700Y-181333600D02*
X132830700Y-178533600D01*
X129830700Y-181333600D02*
X129830700Y-178533600D01*
%TO.C,LD1\u002C0*%
X126973200Y-94142100D02*
X127973200Y-94142100D01*
X128973200Y-94142100D02*
X129973200Y-94142100D01*
X129973200Y-96942100D02*
X128973200Y-96942100D01*
X127973200Y-96942100D02*
X126973200Y-96942100D01*
X127973200Y-97122100D02*
X127973200Y-96942100D01*
X128973200Y-97122100D02*
X127973200Y-97122100D01*
X128973200Y-96942100D02*
X128973200Y-97122100D01*
X127973200Y-93962100D02*
X127973200Y-94142100D01*
X128973200Y-93962100D02*
X127973200Y-93962100D01*
X128973200Y-94142100D02*
X128973200Y-93962100D01*
X129973200Y-96942100D02*
X129973200Y-94142100D01*
X126973200Y-96942100D02*
X126973200Y-94142100D01*
%TO.C,LD2\u002C2*%
X134847200Y-139290600D02*
X135847200Y-139290600D01*
X136847200Y-139290600D02*
X137847200Y-139290600D01*
X137847200Y-142090600D02*
X136847200Y-142090600D01*
X135847200Y-142090600D02*
X134847200Y-142090600D01*
X135847200Y-142270600D02*
X135847200Y-142090600D01*
X136847200Y-142270600D02*
X135847200Y-142270600D01*
X136847200Y-142090600D02*
X136847200Y-142270600D01*
X135847200Y-139110600D02*
X135847200Y-139290600D01*
X136847200Y-139110600D02*
X135847200Y-139110600D01*
X136847200Y-139290600D02*
X136847200Y-139110600D01*
X137847200Y-142090600D02*
X137847200Y-139290600D01*
X134847200Y-142090600D02*
X134847200Y-139290600D01*
%TO.C,LD2\u002C1*%
X125322200Y-120050100D02*
X126322200Y-120050100D01*
X127322200Y-120050100D02*
X128322200Y-120050100D01*
X128322200Y-122850100D02*
X127322200Y-122850100D01*
X126322200Y-122850100D02*
X125322200Y-122850100D01*
X126322200Y-123030100D02*
X126322200Y-122850100D01*
X127322200Y-123030100D02*
X126322200Y-123030100D01*
X127322200Y-122850100D02*
X127322200Y-123030100D01*
X126322200Y-119870100D02*
X126322200Y-120050100D01*
X127322200Y-119870100D02*
X126322200Y-119870100D01*
X127322200Y-120050100D02*
X127322200Y-119870100D01*
X128322200Y-122850100D02*
X128322200Y-120050100D01*
X125322200Y-122850100D02*
X125322200Y-120050100D01*
%TO.C,LD2\u002C0*%
X146277200Y-94142100D02*
X147277200Y-94142100D01*
X148277200Y-94142100D02*
X149277200Y-94142100D01*
X149277200Y-96942100D02*
X148277200Y-96942100D01*
X147277200Y-96942100D02*
X146277200Y-96942100D01*
X147277200Y-97122100D02*
X147277200Y-96942100D01*
X148277200Y-97122100D02*
X147277200Y-97122100D01*
X148277200Y-96942100D02*
X148277200Y-97122100D01*
X147277200Y-93962100D02*
X147277200Y-94142100D01*
X148277200Y-93962100D02*
X147277200Y-93962100D01*
X148277200Y-94142100D02*
X148277200Y-93962100D01*
X149277200Y-96942100D02*
X149277200Y-94142100D01*
X146277200Y-96942100D02*
X146277200Y-94142100D01*
%TO.C,LD2\u002C4*%
X148994700Y-178533600D02*
X149994700Y-178533600D01*
X150994700Y-178533600D02*
X151994700Y-178533600D01*
X151994700Y-181333600D02*
X150994700Y-181333600D01*
X149994700Y-181333600D02*
X148994700Y-181333600D01*
X149994700Y-181513600D02*
X149994700Y-181333600D01*
X150994700Y-181513600D02*
X149994700Y-181513600D01*
X150994700Y-181333600D02*
X150994700Y-181513600D01*
X149994700Y-178353600D02*
X149994700Y-178533600D01*
X150994700Y-178353600D02*
X149994700Y-178353600D01*
X150994700Y-178533600D02*
X150994700Y-178353600D01*
X151994700Y-181333600D02*
X151994700Y-178533600D01*
X148994700Y-181333600D02*
X148994700Y-178533600D01*
%TO.C,LD2\u002C5*%
X138276200Y-197964600D02*
X139276200Y-197964600D01*
X140276200Y-197964600D02*
X141276200Y-197964600D01*
X141276200Y-200764600D02*
X140276200Y-200764600D01*
X139276200Y-200764600D02*
X138276200Y-200764600D01*
X139276200Y-200944600D02*
X139276200Y-200764600D01*
X140276200Y-200944600D02*
X139276200Y-200944600D01*
X140276200Y-200764600D02*
X140276200Y-200944600D01*
X139276200Y-197784600D02*
X139276200Y-197964600D01*
X140276200Y-197784600D02*
X139276200Y-197784600D01*
X140276200Y-197964600D02*
X140276200Y-197784600D01*
X141276200Y-200764600D02*
X141276200Y-197964600D01*
X138276200Y-200764600D02*
X138276200Y-197964600D01*
%TO.C,LD2\u002C3*%
X139736700Y-158721600D02*
X140736700Y-158721600D01*
X141736700Y-158721600D02*
X142736700Y-158721600D01*
X142736700Y-161521600D02*
X141736700Y-161521600D01*
X140736700Y-161521600D02*
X139736700Y-161521600D01*
X140736700Y-161701600D02*
X140736700Y-161521600D01*
X141736700Y-161701600D02*
X140736700Y-161701600D01*
X141736700Y-161521600D02*
X141736700Y-161701600D01*
X140736700Y-158541600D02*
X140736700Y-158721600D01*
X141736700Y-158541600D02*
X140736700Y-158541600D01*
X141736700Y-158721600D02*
X141736700Y-158541600D01*
X142736700Y-161521600D02*
X142736700Y-158721600D01*
X139736700Y-161521600D02*
X139736700Y-158721600D01*
%TO.C,LD3\u002C3*%
X159040700Y-158721600D02*
X160040700Y-158721600D01*
X161040700Y-158721600D02*
X162040700Y-158721600D01*
X162040700Y-161521600D02*
X161040700Y-161521600D01*
X160040700Y-161521600D02*
X159040700Y-161521600D01*
X160040700Y-161701600D02*
X160040700Y-161521600D01*
X161040700Y-161701600D02*
X160040700Y-161701600D01*
X161040700Y-161521600D02*
X161040700Y-161701600D01*
X160040700Y-158541600D02*
X160040700Y-158721600D01*
X161040700Y-158541600D02*
X160040700Y-158541600D01*
X161040700Y-158721600D02*
X161040700Y-158541600D01*
X162040700Y-161521600D02*
X162040700Y-158721600D01*
X159040700Y-161521600D02*
X159040700Y-158721600D01*
%TO.C,LD3\u002C5*%
X210158200Y-197964600D02*
X211158200Y-197964600D01*
X212158200Y-197964600D02*
X213158200Y-197964600D01*
X213158200Y-200764600D02*
X212158200Y-200764600D01*
X211158200Y-200764600D02*
X210158200Y-200764600D01*
X211158200Y-200944600D02*
X211158200Y-200764600D01*
X212158200Y-200944600D02*
X211158200Y-200944600D01*
X212158200Y-200764600D02*
X212158200Y-200944600D01*
X211158200Y-197784600D02*
X211158200Y-197964600D01*
X212158200Y-197784600D02*
X211158200Y-197784600D01*
X212158200Y-197964600D02*
X212158200Y-197784600D01*
X213158200Y-200764600D02*
X213158200Y-197964600D01*
X210158200Y-200764600D02*
X210158200Y-197964600D01*
%TO.C,LD3\u002C4*%
X168438700Y-178533600D02*
X169438700Y-178533600D01*
X170438700Y-178533600D02*
X171438700Y-178533600D01*
X171438700Y-181333600D02*
X170438700Y-181333600D01*
X169438700Y-181333600D02*
X168438700Y-181333600D01*
X169438700Y-181513600D02*
X169438700Y-181333600D01*
X170438700Y-181513600D02*
X169438700Y-181513600D01*
X170438700Y-181333600D02*
X170438700Y-181513600D01*
X169438700Y-178353600D02*
X169438700Y-178533600D01*
X170438700Y-178353600D02*
X169438700Y-178353600D01*
X170438700Y-178533600D02*
X170438700Y-178353600D01*
X171438700Y-181333600D02*
X171438700Y-178533600D01*
X168438700Y-181333600D02*
X168438700Y-178533600D01*
%TO.C,LD3\u002C2*%
X154151200Y-139290600D02*
X155151200Y-139290600D01*
X156151200Y-139290600D02*
X157151200Y-139290600D01*
X157151200Y-142090600D02*
X156151200Y-142090600D01*
X155151200Y-142090600D02*
X154151200Y-142090600D01*
X155151200Y-142270600D02*
X155151200Y-142090600D01*
X156151200Y-142270600D02*
X155151200Y-142270600D01*
X156151200Y-142090600D02*
X156151200Y-142270600D01*
X155151200Y-139110600D02*
X155151200Y-139290600D01*
X156151200Y-139110600D02*
X155151200Y-139110600D01*
X156151200Y-139290600D02*
X156151200Y-139110600D01*
X157151200Y-142090600D02*
X157151200Y-139290600D01*
X154151200Y-142090600D02*
X154151200Y-139290600D01*
%TO.C,LD3\u002C1*%
X144118200Y-120050100D02*
X145118200Y-120050100D01*
X146118200Y-120050100D02*
X147118200Y-120050100D01*
X147118200Y-122850100D02*
X146118200Y-122850100D01*
X145118200Y-122850100D02*
X144118200Y-122850100D01*
X145118200Y-123030100D02*
X145118200Y-122850100D01*
X146118200Y-123030100D02*
X145118200Y-123030100D01*
X146118200Y-122850100D02*
X146118200Y-123030100D01*
X145118200Y-119870100D02*
X145118200Y-120050100D01*
X146118200Y-119870100D02*
X145118200Y-119870100D01*
X146118200Y-120050100D02*
X146118200Y-119870100D01*
X147118200Y-122850100D02*
X147118200Y-120050100D01*
X144118200Y-122850100D02*
X144118200Y-120050100D01*
%TO.C,LD3\u002C0*%
X165581200Y-94142100D02*
X166581200Y-94142100D01*
X167581200Y-94142100D02*
X168581200Y-94142100D01*
X168581200Y-96942100D02*
X167581200Y-96942100D01*
X166581200Y-96942100D02*
X165581200Y-96942100D01*
X166581200Y-97122100D02*
X166581200Y-96942100D01*
X167581200Y-97122100D02*
X166581200Y-97122100D01*
X167581200Y-96942100D02*
X167581200Y-97122100D01*
X166581200Y-93962100D02*
X166581200Y-94142100D01*
X167581200Y-93962100D02*
X166581200Y-93962100D01*
X167581200Y-94142100D02*
X167581200Y-93962100D01*
X168581200Y-96942100D02*
X168581200Y-94142100D01*
X165581200Y-96942100D02*
X165581200Y-94142100D01*
%TO.C,LD4\u002C1*%
X163422200Y-120050100D02*
X164422200Y-120050100D01*
X165422200Y-120050100D02*
X166422200Y-120050100D01*
X166422200Y-122850100D02*
X165422200Y-122850100D01*
X164422200Y-122850100D02*
X163422200Y-122850100D01*
X164422200Y-123030100D02*
X164422200Y-122850100D01*
X165422200Y-123030100D02*
X164422200Y-123030100D01*
X165422200Y-122850100D02*
X165422200Y-123030100D01*
X164422200Y-119870100D02*
X164422200Y-120050100D01*
X165422200Y-119870100D02*
X164422200Y-119870100D01*
X165422200Y-120050100D02*
X165422200Y-119870100D01*
X166422200Y-122850100D02*
X166422200Y-120050100D01*
X163422200Y-122850100D02*
X163422200Y-120050100D01*
%TO.C,LD4\u002C2*%
X173455200Y-139290600D02*
X174455200Y-139290600D01*
X175455200Y-139290600D02*
X176455200Y-139290600D01*
X176455200Y-142090600D02*
X175455200Y-142090600D01*
X174455200Y-142090600D02*
X173455200Y-142090600D01*
X174455200Y-142270600D02*
X174455200Y-142090600D01*
X175455200Y-142270600D02*
X174455200Y-142270600D01*
X175455200Y-142090600D02*
X175455200Y-142270600D01*
X174455200Y-139110600D02*
X174455200Y-139290600D01*
X175455200Y-139110600D02*
X174455200Y-139110600D01*
X175455200Y-139290600D02*
X175455200Y-139110600D01*
X176455200Y-142090600D02*
X176455200Y-139290600D01*
X173455200Y-142090600D02*
X173455200Y-139290600D01*
%TO.C,LD4\u002C0*%
X184885200Y-94142100D02*
X185885200Y-94142100D01*
X186885200Y-94142100D02*
X187885200Y-94142100D01*
X187885200Y-96942100D02*
X186885200Y-96942100D01*
X185885200Y-96942100D02*
X184885200Y-96942100D01*
X185885200Y-97122100D02*
X185885200Y-96942100D01*
X186885200Y-97122100D02*
X185885200Y-97122100D01*
X186885200Y-96942100D02*
X186885200Y-97122100D01*
X185885200Y-93962100D02*
X185885200Y-94142100D01*
X186885200Y-93962100D02*
X185885200Y-93962100D01*
X186885200Y-94142100D02*
X186885200Y-93962100D01*
X187885200Y-96942100D02*
X187885200Y-94142100D01*
X184885200Y-96942100D02*
X184885200Y-94142100D01*
%TO.C,LD4\u002C4*%
X187742700Y-178533600D02*
X188742700Y-178533600D01*
X189742700Y-178533600D02*
X190742700Y-178533600D01*
X190742700Y-181333600D02*
X189742700Y-181333600D01*
X188742700Y-181333600D02*
X187742700Y-181333600D01*
X188742700Y-181513600D02*
X188742700Y-181333600D01*
X189742700Y-181513600D02*
X188742700Y-181513600D01*
X189742700Y-181333600D02*
X189742700Y-181513600D01*
X188742700Y-178353600D02*
X188742700Y-178533600D01*
X189742700Y-178353600D02*
X188742700Y-178353600D01*
X189742700Y-178533600D02*
X189742700Y-178353600D01*
X190742700Y-181333600D02*
X190742700Y-178533600D01*
X187742700Y-181333600D02*
X187742700Y-178533600D01*
%TO.C,LD4\u002C3*%
X178344700Y-158721600D02*
X179344700Y-158721600D01*
X180344700Y-158721600D02*
X181344700Y-158721600D01*
X181344700Y-161521600D02*
X180344700Y-161521600D01*
X179344700Y-161521600D02*
X178344700Y-161521600D01*
X179344700Y-161701600D02*
X179344700Y-161521600D01*
X180344700Y-161701600D02*
X179344700Y-161701600D01*
X180344700Y-161521600D02*
X180344700Y-161701600D01*
X179344700Y-158541600D02*
X179344700Y-158721600D01*
X180344700Y-158541600D02*
X179344700Y-158541600D01*
X180344700Y-158721600D02*
X180344700Y-158541600D01*
X181344700Y-161521600D02*
X181344700Y-158721600D01*
X178344700Y-161521600D02*
X178344700Y-158721600D01*
%TO.C,LD5\u002C3*%
X197648700Y-158721600D02*
X198648700Y-158721600D01*
X199648700Y-158721600D02*
X200648700Y-158721600D01*
X200648700Y-161521600D02*
X199648700Y-161521600D01*
X198648700Y-161521600D02*
X197648700Y-161521600D01*
X198648700Y-161701600D02*
X198648700Y-161521600D01*
X199648700Y-161701600D02*
X198648700Y-161701600D01*
X199648700Y-161521600D02*
X199648700Y-161701600D01*
X198648700Y-158541600D02*
X198648700Y-158721600D01*
X199648700Y-158541600D02*
X198648700Y-158541600D01*
X199648700Y-158721600D02*
X199648700Y-158541600D01*
X200648700Y-161521600D02*
X200648700Y-158721600D01*
X197648700Y-161521600D02*
X197648700Y-158721600D01*
%TO.C,LD5\u002C0*%
X216381200Y-94142100D02*
X217381200Y-94142100D01*
X218381200Y-94142100D02*
X219381200Y-94142100D01*
X219381200Y-96942100D02*
X218381200Y-96942100D01*
X217381200Y-96942100D02*
X216381200Y-96942100D01*
X217381200Y-97122100D02*
X217381200Y-96942100D01*
X218381200Y-97122100D02*
X217381200Y-97122100D01*
X218381200Y-96942100D02*
X218381200Y-97122100D01*
X217381200Y-93962100D02*
X217381200Y-94142100D01*
X218381200Y-93962100D02*
X217381200Y-93962100D01*
X218381200Y-94142100D02*
X218381200Y-93962100D01*
X219381200Y-96942100D02*
X219381200Y-94142100D01*
X216381200Y-96942100D02*
X216381200Y-94142100D01*
%TO.C,LD5\u002C4*%
X207046700Y-178533600D02*
X208046700Y-178533600D01*
X209046700Y-178533600D02*
X210046700Y-178533600D01*
X210046700Y-181333600D02*
X209046700Y-181333600D01*
X208046700Y-181333600D02*
X207046700Y-181333600D01*
X208046700Y-181513600D02*
X208046700Y-181333600D01*
X209046700Y-181513600D02*
X208046700Y-181513600D01*
X209046700Y-181333600D02*
X209046700Y-181513600D01*
X208046700Y-178353600D02*
X208046700Y-178533600D01*
X209046700Y-178353600D02*
X208046700Y-178353600D01*
X209046700Y-178533600D02*
X209046700Y-178353600D01*
X210046700Y-181333600D02*
X210046700Y-178533600D01*
X207046700Y-181333600D02*
X207046700Y-178533600D01*
%TO.C,LD5\u002C2*%
X192759200Y-139290600D02*
X193759200Y-139290600D01*
X194759200Y-139290600D02*
X195759200Y-139290600D01*
X195759200Y-142090600D02*
X194759200Y-142090600D01*
X193759200Y-142090600D02*
X192759200Y-142090600D01*
X193759200Y-142270600D02*
X193759200Y-142090600D01*
X194759200Y-142270600D02*
X193759200Y-142270600D01*
X194759200Y-142090600D02*
X194759200Y-142270600D01*
X193759200Y-139110600D02*
X193759200Y-139290600D01*
X194759200Y-139110600D02*
X193759200Y-139110600D01*
X194759200Y-139290600D02*
X194759200Y-139110600D01*
X195759200Y-142090600D02*
X195759200Y-139290600D01*
X192759200Y-142090600D02*
X192759200Y-139290600D01*
%TO.C,LD5\u002C1*%
X182726200Y-120050100D02*
X183726200Y-120050100D01*
X184726200Y-120050100D02*
X185726200Y-120050100D01*
X185726200Y-122850100D02*
X184726200Y-122850100D01*
X183726200Y-122850100D02*
X182726200Y-122850100D01*
X183726200Y-123030100D02*
X183726200Y-122850100D01*
X184726200Y-123030100D02*
X183726200Y-123030100D01*
X184726200Y-122850100D02*
X184726200Y-123030100D01*
X183726200Y-119870100D02*
X183726200Y-120050100D01*
X184726200Y-119870100D02*
X183726200Y-119870100D01*
X184726200Y-120050100D02*
X184726200Y-119870100D01*
X185726200Y-122850100D02*
X185726200Y-120050100D01*
X182726200Y-122850100D02*
X182726200Y-120050100D01*
%TO.C,LD6\u002C2*%
X212063200Y-139290600D02*
X213063200Y-139290600D01*
X214063200Y-139290600D02*
X215063200Y-139290600D01*
X215063200Y-142090600D02*
X214063200Y-142090600D01*
X213063200Y-142090600D02*
X212063200Y-142090600D01*
X213063200Y-142270600D02*
X213063200Y-142090600D01*
X214063200Y-142270600D02*
X213063200Y-142270600D01*
X214063200Y-142090600D02*
X214063200Y-142270600D01*
X213063200Y-139110600D02*
X213063200Y-139290600D01*
X214063200Y-139110600D02*
X213063200Y-139110600D01*
X214063200Y-139290600D02*
X214063200Y-139110600D01*
X215063200Y-142090600D02*
X215063200Y-139290600D01*
X212063200Y-142090600D02*
X212063200Y-139290600D01*
%TO.C,LD6\u002C0*%
X235685200Y-94142100D02*
X236685200Y-94142100D01*
X237685200Y-94142100D02*
X238685200Y-94142100D01*
X238685200Y-96942100D02*
X237685200Y-96942100D01*
X236685200Y-96942100D02*
X235685200Y-96942100D01*
X236685200Y-97122100D02*
X236685200Y-96942100D01*
X237685200Y-97122100D02*
X236685200Y-97122100D01*
X237685200Y-96942100D02*
X237685200Y-97122100D01*
X236685200Y-93962100D02*
X236685200Y-94142100D01*
X237685200Y-93962100D02*
X236685200Y-93962100D01*
X237685200Y-94142100D02*
X237685200Y-93962100D01*
X238685200Y-96942100D02*
X238685200Y-94142100D01*
X235685200Y-96942100D02*
X235685200Y-94142100D01*
%TO.C,LD6\u002C4*%
X226350700Y-178533600D02*
X227350700Y-178533600D01*
X228350700Y-178533600D02*
X229350700Y-178533600D01*
X229350700Y-181333600D02*
X228350700Y-181333600D01*
X227350700Y-181333600D02*
X226350700Y-181333600D01*
X227350700Y-181513600D02*
X227350700Y-181333600D01*
X228350700Y-181513600D02*
X227350700Y-181513600D01*
X228350700Y-181333600D02*
X228350700Y-181513600D01*
X227350700Y-178353600D02*
X227350700Y-178533600D01*
X228350700Y-178353600D02*
X227350700Y-178353600D01*
X228350700Y-178533600D02*
X228350700Y-178353600D01*
X229350700Y-181333600D02*
X229350700Y-178533600D01*
X226350700Y-181333600D02*
X226350700Y-178533600D01*
%TO.C,LD6\u002C3*%
X216952700Y-158721600D02*
X217952700Y-158721600D01*
X218952700Y-158721600D02*
X219952700Y-158721600D01*
X219952700Y-161521600D02*
X218952700Y-161521600D01*
X217952700Y-161521600D02*
X216952700Y-161521600D01*
X217952700Y-161701600D02*
X217952700Y-161521600D01*
X218952700Y-161701600D02*
X217952700Y-161701600D01*
X218952700Y-161521600D02*
X218952700Y-161701600D01*
X217952700Y-158541600D02*
X217952700Y-158721600D01*
X218952700Y-158541600D02*
X217952700Y-158541600D01*
X218952700Y-158721600D02*
X218952700Y-158541600D01*
X219952700Y-161521600D02*
X219952700Y-158721600D01*
X216952700Y-161521600D02*
X216952700Y-158721600D01*
%TO.C,LD6\u002C1*%
X202030200Y-120050100D02*
X203030200Y-120050100D01*
X204030200Y-120050100D02*
X205030200Y-120050100D01*
X205030200Y-122850100D02*
X204030200Y-122850100D01*
X203030200Y-122850100D02*
X202030200Y-122850100D01*
X203030200Y-123030100D02*
X203030200Y-122850100D01*
X204030200Y-123030100D02*
X203030200Y-123030100D01*
X204030200Y-122850100D02*
X204030200Y-123030100D01*
X203030200Y-119870100D02*
X203030200Y-120050100D01*
X204030200Y-119870100D02*
X203030200Y-119870100D01*
X204030200Y-120050100D02*
X204030200Y-119870100D01*
X205030200Y-122850100D02*
X205030200Y-120050100D01*
X202030200Y-122850100D02*
X202030200Y-120050100D01*
%TO.C,LD7\u002C0*%
X254989200Y-94142100D02*
X255989200Y-94142100D01*
X256989200Y-94142100D02*
X257989200Y-94142100D01*
X257989200Y-96942100D02*
X256989200Y-96942100D01*
X255989200Y-96942100D02*
X254989200Y-96942100D01*
X255989200Y-97122100D02*
X255989200Y-96942100D01*
X256989200Y-97122100D02*
X255989200Y-97122100D01*
X256989200Y-96942100D02*
X256989200Y-97122100D01*
X255989200Y-93962100D02*
X255989200Y-94142100D01*
X256989200Y-93962100D02*
X255989200Y-93962100D01*
X256989200Y-94142100D02*
X256989200Y-93962100D01*
X257989200Y-96942100D02*
X257989200Y-94142100D01*
X254989200Y-96942100D02*
X254989200Y-94142100D01*
%TO.C,LD7\u002C4*%
X245654700Y-178533600D02*
X246654700Y-178533600D01*
X247654700Y-178533600D02*
X248654700Y-178533600D01*
X248654700Y-181333600D02*
X247654700Y-181333600D01*
X246654700Y-181333600D02*
X245654700Y-181333600D01*
X246654700Y-181513600D02*
X246654700Y-181333600D01*
X247654700Y-181513600D02*
X246654700Y-181513600D01*
X247654700Y-181333600D02*
X247654700Y-181513600D01*
X246654700Y-178353600D02*
X246654700Y-178533600D01*
X247654700Y-178353600D02*
X246654700Y-178353600D01*
X247654700Y-178533600D02*
X247654700Y-178353600D01*
X248654700Y-181333600D02*
X248654700Y-178533600D01*
X245654700Y-181333600D02*
X245654700Y-178533600D01*
%TO.C,LD7\u002C3*%
X236256700Y-158721600D02*
X237256700Y-158721600D01*
X238256700Y-158721600D02*
X239256700Y-158721600D01*
X239256700Y-161521600D02*
X238256700Y-161521600D01*
X237256700Y-161521600D02*
X236256700Y-161521600D01*
X237256700Y-161701600D02*
X237256700Y-161521600D01*
X238256700Y-161701600D02*
X237256700Y-161701600D01*
X238256700Y-161521600D02*
X238256700Y-161701600D01*
X237256700Y-158541600D02*
X237256700Y-158721600D01*
X238256700Y-158541600D02*
X237256700Y-158541600D01*
X238256700Y-158721600D02*
X238256700Y-158541600D01*
X239256700Y-161521600D02*
X239256700Y-158721600D01*
X236256700Y-161521600D02*
X236256700Y-158721600D01*
%TO.C,LD7\u002C1*%
X221334200Y-120050100D02*
X222334200Y-120050100D01*
X223334200Y-120050100D02*
X224334200Y-120050100D01*
X224334200Y-122850100D02*
X223334200Y-122850100D01*
X222334200Y-122850100D02*
X221334200Y-122850100D01*
X222334200Y-123030100D02*
X222334200Y-122850100D01*
X223334200Y-123030100D02*
X222334200Y-123030100D01*
X223334200Y-122850100D02*
X223334200Y-123030100D01*
X222334200Y-119870100D02*
X222334200Y-120050100D01*
X223334200Y-119870100D02*
X222334200Y-119870100D01*
X223334200Y-120050100D02*
X223334200Y-119870100D01*
X224334200Y-122850100D02*
X224334200Y-120050100D01*
X221334200Y-122850100D02*
X221334200Y-120050100D01*
%TO.C,LD7\u002C2*%
X231367200Y-139290600D02*
X232367200Y-139290600D01*
X233367200Y-139290600D02*
X234367200Y-139290600D01*
X234367200Y-142090600D02*
X233367200Y-142090600D01*
X232367200Y-142090600D02*
X231367200Y-142090600D01*
X232367200Y-142270600D02*
X232367200Y-142090600D01*
X233367200Y-142270600D02*
X232367200Y-142270600D01*
X233367200Y-142090600D02*
X233367200Y-142270600D01*
X232367200Y-139110600D02*
X232367200Y-139290600D01*
X233367200Y-139110600D02*
X232367200Y-139110600D01*
X233367200Y-139290600D02*
X233367200Y-139110600D01*
X234367200Y-142090600D02*
X234367200Y-139290600D01*
X231367200Y-142090600D02*
X231367200Y-139290600D01*
%TO.C,LD8\u002C3*%
X255560700Y-158721600D02*
X256560700Y-158721600D01*
X257560700Y-158721600D02*
X258560700Y-158721600D01*
X258560700Y-161521600D02*
X257560700Y-161521600D01*
X256560700Y-161521600D02*
X255560700Y-161521600D01*
X256560700Y-161701600D02*
X256560700Y-161521600D01*
X257560700Y-161701600D02*
X256560700Y-161701600D01*
X257560700Y-161521600D02*
X257560700Y-161701600D01*
X256560700Y-158541600D02*
X256560700Y-158721600D01*
X257560700Y-158541600D02*
X256560700Y-158541600D01*
X257560700Y-158721600D02*
X257560700Y-158541600D01*
X258560700Y-161521600D02*
X258560700Y-158721600D01*
X255560700Y-161521600D02*
X255560700Y-158721600D01*
%TO.C,LD8\u002C4*%
X264958700Y-178533600D02*
X265958700Y-178533600D01*
X266958700Y-178533600D02*
X267958700Y-178533600D01*
X267958700Y-181333600D02*
X266958700Y-181333600D01*
X265958700Y-181333600D02*
X264958700Y-181333600D01*
X265958700Y-181513600D02*
X265958700Y-181333600D01*
X266958700Y-181513600D02*
X265958700Y-181513600D01*
X266958700Y-181333600D02*
X266958700Y-181513600D01*
X265958700Y-178353600D02*
X265958700Y-178533600D01*
X266958700Y-178353600D02*
X265958700Y-178353600D01*
X266958700Y-178533600D02*
X266958700Y-178353600D01*
X267958700Y-181333600D02*
X267958700Y-178533600D01*
X264958700Y-181333600D02*
X264958700Y-178533600D01*
%TO.C,LD8\u002C0*%
X274293200Y-94142100D02*
X275293200Y-94142100D01*
X276293200Y-94142100D02*
X277293200Y-94142100D01*
X277293200Y-96942100D02*
X276293200Y-96942100D01*
X275293200Y-96942100D02*
X274293200Y-96942100D01*
X275293200Y-97122100D02*
X275293200Y-96942100D01*
X276293200Y-97122100D02*
X275293200Y-97122100D01*
X276293200Y-96942100D02*
X276293200Y-97122100D01*
X275293200Y-93962100D02*
X275293200Y-94142100D01*
X276293200Y-93962100D02*
X275293200Y-93962100D01*
X276293200Y-94142100D02*
X276293200Y-93962100D01*
X277293200Y-96942100D02*
X277293200Y-94142100D01*
X274293200Y-96942100D02*
X274293200Y-94142100D01*
%TO.C,LD8\u002C2*%
X250671200Y-139290600D02*
X251671200Y-139290600D01*
X252671200Y-139290600D02*
X253671200Y-139290600D01*
X253671200Y-142090600D02*
X252671200Y-142090600D01*
X251671200Y-142090600D02*
X250671200Y-142090600D01*
X251671200Y-142270600D02*
X251671200Y-142090600D01*
X252671200Y-142270600D02*
X251671200Y-142270600D01*
X252671200Y-142090600D02*
X252671200Y-142270600D01*
X251671200Y-139110600D02*
X251671200Y-139290600D01*
X252671200Y-139110600D02*
X251671200Y-139110600D01*
X252671200Y-139290600D02*
X252671200Y-139110600D01*
X253671200Y-142090600D02*
X253671200Y-139290600D01*
X250671200Y-142090600D02*
X250671200Y-139290600D01*
%TO.C,LD8\u002C1*%
X240638200Y-120050100D02*
X241638200Y-120050100D01*
X242638200Y-120050100D02*
X243638200Y-120050100D01*
X243638200Y-122850100D02*
X242638200Y-122850100D01*
X241638200Y-122850100D02*
X240638200Y-122850100D01*
X241638200Y-123030100D02*
X241638200Y-122850100D01*
X242638200Y-123030100D02*
X241638200Y-123030100D01*
X242638200Y-122850100D02*
X242638200Y-123030100D01*
X241638200Y-119870100D02*
X241638200Y-120050100D01*
X242638200Y-119870100D02*
X241638200Y-119870100D01*
X242638200Y-120050100D02*
X242638200Y-119870100D01*
X243638200Y-122850100D02*
X243638200Y-120050100D01*
X240638200Y-122850100D02*
X240638200Y-120050100D01*
%TO.C,LD8\u002C5*%
X281913200Y-198073399D02*
X282913200Y-198073399D01*
X283913200Y-198073399D02*
X284913200Y-198073399D01*
X284913200Y-200873399D02*
X283913200Y-200873399D01*
X282913200Y-200873399D02*
X281913200Y-200873399D01*
X282913200Y-201053399D02*
X282913200Y-200873399D01*
X283913200Y-201053399D02*
X282913200Y-201053399D01*
X283913200Y-200873399D02*
X283913200Y-201053399D01*
X282913200Y-197893399D02*
X282913200Y-198073399D01*
X283913200Y-197893399D02*
X282913200Y-197893399D01*
X283913200Y-198073399D02*
X283913200Y-197893399D01*
X284913200Y-200873399D02*
X284913200Y-198073399D01*
X281913200Y-200873399D02*
X281913200Y-198073399D01*
%TO.C,LD9\u002C0*%
X300709200Y-94142100D02*
X301709200Y-94142100D01*
X302709200Y-94142100D02*
X303709200Y-94142100D01*
X303709200Y-96942100D02*
X302709200Y-96942100D01*
X301709200Y-96942100D02*
X300709200Y-96942100D01*
X301709200Y-97122100D02*
X301709200Y-96942100D01*
X302709200Y-97122100D02*
X301709200Y-97122100D01*
X302709200Y-96942100D02*
X302709200Y-97122100D01*
X301709200Y-93962100D02*
X301709200Y-94142100D01*
X302709200Y-93962100D02*
X301709200Y-93962100D01*
X302709200Y-94142100D02*
X302709200Y-93962100D01*
X303709200Y-96942100D02*
X303709200Y-94142100D01*
X300709200Y-96942100D02*
X300709200Y-94142100D01*
%TO.C,LD9\u002C1*%
X259942200Y-120050100D02*
X260942200Y-120050100D01*
X261942200Y-120050100D02*
X262942200Y-120050100D01*
X262942200Y-122850100D02*
X261942200Y-122850100D01*
X260942200Y-122850100D02*
X259942200Y-122850100D01*
X260942200Y-123030100D02*
X260942200Y-122850100D01*
X261942200Y-123030100D02*
X260942200Y-123030100D01*
X261942200Y-122850100D02*
X261942200Y-123030100D01*
X260942200Y-119870100D02*
X260942200Y-120050100D01*
X261942200Y-119870100D02*
X260942200Y-119870100D01*
X261942200Y-120050100D02*
X261942200Y-119870100D01*
X262942200Y-122850100D02*
X262942200Y-120050100D01*
X259942200Y-122850100D02*
X259942200Y-120050100D01*
%TO.C,LD9\u002C4*%
X284262700Y-178533600D02*
X285262700Y-178533600D01*
X286262700Y-178533600D02*
X287262700Y-178533600D01*
X287262700Y-181333600D02*
X286262700Y-181333600D01*
X285262700Y-181333600D02*
X284262700Y-181333600D01*
X285262700Y-181513600D02*
X285262700Y-181333600D01*
X286262700Y-181513600D02*
X285262700Y-181513600D01*
X286262700Y-181333600D02*
X286262700Y-181513600D01*
X285262700Y-178353600D02*
X285262700Y-178533600D01*
X286262700Y-178353600D02*
X285262700Y-178353600D01*
X286262700Y-178533600D02*
X286262700Y-178353600D01*
X287262700Y-181333600D02*
X287262700Y-178533600D01*
X284262700Y-181333600D02*
X284262700Y-178533600D01*
%TO.C,LD9\u002C3*%
X274864700Y-158721600D02*
X275864700Y-158721600D01*
X276864700Y-158721600D02*
X277864700Y-158721600D01*
X277864700Y-161521600D02*
X276864700Y-161521600D01*
X275864700Y-161521600D02*
X274864700Y-161521600D01*
X275864700Y-161701600D02*
X275864700Y-161521600D01*
X276864700Y-161701600D02*
X275864700Y-161701600D01*
X276864700Y-161521600D02*
X276864700Y-161701600D01*
X275864700Y-158541600D02*
X275864700Y-158721600D01*
X276864700Y-158541600D02*
X275864700Y-158541600D01*
X276864700Y-158721600D02*
X276864700Y-158541600D01*
X277864700Y-161521600D02*
X277864700Y-158721600D01*
X274864700Y-161521600D02*
X274864700Y-158721600D01*
%TO.C,LD9\u002C5*%
X306043200Y-197964600D02*
X307043200Y-197964600D01*
X308043200Y-197964600D02*
X309043200Y-197964600D01*
X309043200Y-200764600D02*
X308043200Y-200764600D01*
X307043200Y-200764600D02*
X306043200Y-200764600D01*
X307043200Y-200944600D02*
X307043200Y-200764600D01*
X308043200Y-200944600D02*
X307043200Y-200944600D01*
X308043200Y-200764600D02*
X308043200Y-200944600D01*
X307043200Y-197784600D02*
X307043200Y-197964600D01*
X308043200Y-197784600D02*
X307043200Y-197784600D01*
X308043200Y-197964600D02*
X308043200Y-197784600D01*
X309043200Y-200764600D02*
X309043200Y-197964600D01*
X306043200Y-200764600D02*
X306043200Y-197964600D01*
%TO.C,LD9\u002C2*%
X269975200Y-139290600D02*
X270975200Y-139290600D01*
X271975200Y-139290600D02*
X272975200Y-139290600D01*
X272975200Y-142090600D02*
X271975200Y-142090600D01*
X270975200Y-142090600D02*
X269975200Y-142090600D01*
X270975200Y-142270600D02*
X270975200Y-142090600D01*
X271975200Y-142270600D02*
X270975200Y-142270600D01*
X271975200Y-142090600D02*
X271975200Y-142270600D01*
X270975200Y-139110600D02*
X270975200Y-139290600D01*
X271975200Y-139110600D02*
X270975200Y-139110600D01*
X271975200Y-139290600D02*
X271975200Y-139110600D01*
X272975200Y-142090600D02*
X272975200Y-139290600D01*
X269975200Y-142090600D02*
X269975200Y-139290600D01*
%TO.C,LD10\u002C0*%
X320013200Y-94142100D02*
X321013200Y-94142100D01*
X322013200Y-94142100D02*
X323013200Y-94142100D01*
X323013200Y-96942100D02*
X322013200Y-96942100D01*
X321013200Y-96942100D02*
X320013200Y-96942100D01*
X321013200Y-97122100D02*
X321013200Y-96942100D01*
X322013200Y-97122100D02*
X321013200Y-97122100D01*
X322013200Y-96942100D02*
X322013200Y-97122100D01*
X321013200Y-93962100D02*
X321013200Y-94142100D01*
X322013200Y-93962100D02*
X321013200Y-93962100D01*
X322013200Y-94142100D02*
X322013200Y-93962100D01*
X323013200Y-96942100D02*
X323013200Y-94142100D01*
X320013200Y-96942100D02*
X320013200Y-94142100D01*
%TO.C,LD10\u002C5*%
X330236700Y-197964600D02*
X331236700Y-197964600D01*
X332236700Y-197964600D02*
X333236700Y-197964600D01*
X333236700Y-200764600D02*
X332236700Y-200764600D01*
X331236700Y-200764600D02*
X330236700Y-200764600D01*
X331236700Y-200944600D02*
X331236700Y-200764600D01*
X332236700Y-200944600D02*
X331236700Y-200944600D01*
X332236700Y-200764600D02*
X332236700Y-200944600D01*
X331236700Y-197784600D02*
X331236700Y-197964600D01*
X332236700Y-197784600D02*
X331236700Y-197784600D01*
X332236700Y-197964600D02*
X332236700Y-197784600D01*
X333236700Y-200764600D02*
X333236700Y-197964600D01*
X330236700Y-200764600D02*
X330236700Y-197964600D01*
%TO.C,LD10\u002C1*%
X279246200Y-120050100D02*
X280246200Y-120050100D01*
X281246200Y-120050100D02*
X282246200Y-120050100D01*
X282246200Y-122850100D02*
X281246200Y-122850100D01*
X280246200Y-122850100D02*
X279246200Y-122850100D01*
X280246200Y-123030100D02*
X280246200Y-122850100D01*
X281246200Y-123030100D02*
X280246200Y-123030100D01*
X281246200Y-122850100D02*
X281246200Y-123030100D01*
X280246200Y-119870100D02*
X280246200Y-120050100D01*
X281246200Y-119870100D02*
X280246200Y-119870100D01*
X281246200Y-120050100D02*
X281246200Y-119870100D01*
X282246200Y-122850100D02*
X282246200Y-120050100D01*
X279246200Y-122850100D02*
X279246200Y-120050100D01*
%TO.C,LD10\u002C2*%
X289279200Y-139290600D02*
X290279200Y-139290600D01*
X291279200Y-139290600D02*
X292279200Y-139290600D01*
X292279200Y-142090600D02*
X291279200Y-142090600D01*
X290279200Y-142090600D02*
X289279200Y-142090600D01*
X290279200Y-142270600D02*
X290279200Y-142090600D01*
X291279200Y-142270600D02*
X290279200Y-142270600D01*
X291279200Y-142090600D02*
X291279200Y-142270600D01*
X290279200Y-139110600D02*
X290279200Y-139290600D01*
X291279200Y-139110600D02*
X290279200Y-139110600D01*
X291279200Y-139290600D02*
X291279200Y-139110600D01*
X292279200Y-142090600D02*
X292279200Y-139290600D01*
X289279200Y-142090600D02*
X289279200Y-139290600D01*
%TO.C,LD10\u002C4*%
X303566700Y-178533600D02*
X304566700Y-178533600D01*
X305566700Y-178533600D02*
X306566700Y-178533600D01*
X306566700Y-181333600D02*
X305566700Y-181333600D01*
X304566700Y-181333600D02*
X303566700Y-181333600D01*
X304566700Y-181513600D02*
X304566700Y-181333600D01*
X305566700Y-181513600D02*
X304566700Y-181513600D01*
X305566700Y-181333600D02*
X305566700Y-181513600D01*
X304566700Y-178353600D02*
X304566700Y-178533600D01*
X305566700Y-178353600D02*
X304566700Y-178353600D01*
X305566700Y-178533600D02*
X305566700Y-178353600D01*
X306566700Y-181333600D02*
X306566700Y-178533600D01*
X303566700Y-181333600D02*
X303566700Y-178533600D01*
%TO.C,LD10\u002C3*%
X294168700Y-158721600D02*
X295168700Y-158721600D01*
X296168700Y-158721600D02*
X297168700Y-158721600D01*
X297168700Y-161521600D02*
X296168700Y-161521600D01*
X295168700Y-161521600D02*
X294168700Y-161521600D01*
X295168700Y-161701600D02*
X295168700Y-161521600D01*
X296168700Y-161701600D02*
X295168700Y-161701600D01*
X296168700Y-161521600D02*
X296168700Y-161701600D01*
X295168700Y-158541600D02*
X295168700Y-158721600D01*
X296168700Y-158541600D02*
X295168700Y-158541600D01*
X296168700Y-158721600D02*
X296168700Y-158541600D01*
X297168700Y-161521600D02*
X297168700Y-158721600D01*
X294168700Y-161521600D02*
X294168700Y-158721600D01*
%TO.C,LD11\u002C1*%
X298550200Y-120050100D02*
X299550200Y-120050100D01*
X300550200Y-120050100D02*
X301550200Y-120050100D01*
X301550200Y-122850100D02*
X300550200Y-122850100D01*
X299550200Y-122850100D02*
X298550200Y-122850100D01*
X299550200Y-123030100D02*
X299550200Y-122850100D01*
X300550200Y-123030100D02*
X299550200Y-123030100D01*
X300550200Y-122850100D02*
X300550200Y-123030100D01*
X299550200Y-119870100D02*
X299550200Y-120050100D01*
X300550200Y-119870100D02*
X299550200Y-119870100D01*
X300550200Y-120050100D02*
X300550200Y-119870100D01*
X301550200Y-122850100D02*
X301550200Y-120050100D01*
X298550200Y-122850100D02*
X298550200Y-120050100D01*
%TO.C,LD11\u002C3*%
X313472700Y-158721600D02*
X314472700Y-158721600D01*
X315472700Y-158721600D02*
X316472700Y-158721600D01*
X316472700Y-161521600D02*
X315472700Y-161521600D01*
X314472700Y-161521600D02*
X313472700Y-161521600D01*
X314472700Y-161701600D02*
X314472700Y-161521600D01*
X315472700Y-161701600D02*
X314472700Y-161701600D01*
X315472700Y-161521600D02*
X315472700Y-161701600D01*
X314472700Y-158541600D02*
X314472700Y-158721600D01*
X315472700Y-158541600D02*
X314472700Y-158541600D01*
X315472700Y-158721600D02*
X315472700Y-158541600D01*
X316472700Y-161521600D02*
X316472700Y-158721600D01*
X313472700Y-161521600D02*
X313472700Y-158721600D01*
%TO.C,LD11\u002C0*%
X339317200Y-94142100D02*
X340317200Y-94142100D01*
X341317200Y-94142100D02*
X342317200Y-94142100D01*
X342317200Y-96942100D02*
X341317200Y-96942100D01*
X340317200Y-96942100D02*
X339317200Y-96942100D01*
X340317200Y-97122100D02*
X340317200Y-96942100D01*
X341317200Y-97122100D02*
X340317200Y-97122100D01*
X341317200Y-96942100D02*
X341317200Y-97122100D01*
X340317200Y-93962100D02*
X340317200Y-94142100D01*
X341317200Y-93962100D02*
X340317200Y-93962100D01*
X341317200Y-94142100D02*
X341317200Y-93962100D01*
X342317200Y-96942100D02*
X342317200Y-94142100D01*
X339317200Y-96942100D02*
X339317200Y-94142100D01*
%TO.C,LD11\u002C5*%
X354303200Y-197964600D02*
X355303200Y-197964600D01*
X356303200Y-197964600D02*
X357303200Y-197964600D01*
X357303200Y-200764600D02*
X356303200Y-200764600D01*
X355303200Y-200764600D02*
X354303200Y-200764600D01*
X355303200Y-200944600D02*
X355303200Y-200764600D01*
X356303200Y-200944600D02*
X355303200Y-200944600D01*
X356303200Y-200764600D02*
X356303200Y-200944600D01*
X355303200Y-197784600D02*
X355303200Y-197964600D01*
X356303200Y-197784600D02*
X355303200Y-197784600D01*
X356303200Y-197964600D02*
X356303200Y-197784600D01*
X357303200Y-200764600D02*
X357303200Y-197964600D01*
X354303200Y-200764600D02*
X354303200Y-197964600D01*
%TO.C,LD11\u002C2*%
X308583200Y-139290600D02*
X309583200Y-139290600D01*
X310583200Y-139290600D02*
X311583200Y-139290600D01*
X311583200Y-142090600D02*
X310583200Y-142090600D01*
X309583200Y-142090600D02*
X308583200Y-142090600D01*
X309583200Y-142270600D02*
X309583200Y-142090600D01*
X310583200Y-142270600D02*
X309583200Y-142270600D01*
X310583200Y-142090600D02*
X310583200Y-142270600D01*
X309583200Y-139110600D02*
X309583200Y-139290600D01*
X310583200Y-139110600D02*
X309583200Y-139110600D01*
X310583200Y-139290600D02*
X310583200Y-139110600D01*
X311583200Y-142090600D02*
X311583200Y-139290600D01*
X308583200Y-142090600D02*
X308583200Y-139290600D01*
%TO.C,LD11\u002C4*%
X339952200Y-178533600D02*
X340952200Y-178533600D01*
X341952200Y-178533600D02*
X342952200Y-178533600D01*
X342952200Y-181333600D02*
X341952200Y-181333600D01*
X340952200Y-181333600D02*
X339952200Y-181333600D01*
X340952200Y-181513600D02*
X340952200Y-181333600D01*
X341952200Y-181513600D02*
X340952200Y-181513600D01*
X341952200Y-181333600D02*
X341952200Y-181513600D01*
X340952200Y-178353600D02*
X340952200Y-178533600D01*
X341952200Y-178353600D02*
X340952200Y-178353600D01*
X341952200Y-178533600D02*
X341952200Y-178353600D01*
X342952200Y-181333600D02*
X342952200Y-178533600D01*
X339952200Y-181333600D02*
X339952200Y-178533600D01*
%TO.C,LD12\u002C2*%
X327887200Y-139290600D02*
X328887200Y-139290600D01*
X329887200Y-139290600D02*
X330887200Y-139290600D01*
X330887200Y-142090600D02*
X329887200Y-142090600D01*
X328887200Y-142090600D02*
X327887200Y-142090600D01*
X328887200Y-142270600D02*
X328887200Y-142090600D01*
X329887200Y-142270600D02*
X328887200Y-142270600D01*
X329887200Y-142090600D02*
X329887200Y-142270600D01*
X328887200Y-139110600D02*
X328887200Y-139290600D01*
X329887200Y-139110600D02*
X328887200Y-139110600D01*
X329887200Y-139290600D02*
X329887200Y-139110600D01*
X330887200Y-142090600D02*
X330887200Y-139290600D01*
X327887200Y-142090600D02*
X327887200Y-139290600D01*
%TO.C,LD12\u002C3*%
X344778200Y-158807500D02*
X345778200Y-158807500D01*
X346778200Y-158807500D02*
X347778200Y-158807500D01*
X347778200Y-161607500D02*
X346778200Y-161607500D01*
X345778200Y-161607500D02*
X344778200Y-161607500D01*
X345778200Y-161787500D02*
X345778200Y-161607500D01*
X346778200Y-161787500D02*
X345778200Y-161787500D01*
X346778200Y-161607500D02*
X346778200Y-161787500D01*
X345778200Y-158627500D02*
X345778200Y-158807500D01*
X346778200Y-158627500D02*
X345778200Y-158627500D01*
X346778200Y-158807500D02*
X346778200Y-158627500D01*
X347778200Y-161607500D02*
X347778200Y-158807500D01*
X344778200Y-161607500D02*
X344778200Y-158807500D01*
%TO.C,LD12\u002C1*%
X317854200Y-120050100D02*
X318854200Y-120050100D01*
X319854200Y-120050100D02*
X320854200Y-120050100D01*
X320854200Y-122850100D02*
X319854200Y-122850100D01*
X318854200Y-122850100D02*
X317854200Y-122850100D01*
X318854200Y-123030100D02*
X318854200Y-122850100D01*
X319854200Y-123030100D02*
X318854200Y-123030100D01*
X319854200Y-122850100D02*
X319854200Y-123030100D01*
X318854200Y-119870100D02*
X318854200Y-120050100D01*
X319854200Y-119870100D02*
X318854200Y-119870100D01*
X319854200Y-120050100D02*
X319854200Y-119870100D01*
X320854200Y-122850100D02*
X320854200Y-120050100D01*
X317854200Y-122850100D02*
X317854200Y-120050100D01*
%TO.C,LD12\u002C0*%
X358621200Y-94142100D02*
X359621200Y-94142100D01*
X360621200Y-94142100D02*
X361621200Y-94142100D01*
X361621200Y-96942100D02*
X360621200Y-96942100D01*
X359621200Y-96942100D02*
X358621200Y-96942100D01*
X359621200Y-97122100D02*
X359621200Y-96942100D01*
X360621200Y-97122100D02*
X359621200Y-97122100D01*
X360621200Y-96942100D02*
X360621200Y-97122100D01*
X359621200Y-93962100D02*
X359621200Y-94142100D01*
X360621200Y-93962100D02*
X359621200Y-93962100D01*
X360621200Y-94142100D02*
X360621200Y-93962100D01*
X361621200Y-96942100D02*
X361621200Y-94142100D01*
X358621200Y-96942100D02*
X358621200Y-94142100D01*
%TO.C,LD13\u002C2*%
X352842700Y-139354100D02*
X353842700Y-139354100D01*
X354842700Y-139354100D02*
X355842700Y-139354100D01*
X355842700Y-142154100D02*
X354842700Y-142154100D01*
X353842700Y-142154100D02*
X352842700Y-142154100D01*
X353842700Y-142334100D02*
X353842700Y-142154100D01*
X354842700Y-142334100D02*
X353842700Y-142334100D01*
X354842700Y-142154100D02*
X354842700Y-142334100D01*
X353842700Y-139174100D02*
X353842700Y-139354100D01*
X354842700Y-139174100D02*
X353842700Y-139174100D01*
X354842700Y-139354100D02*
X354842700Y-139174100D01*
X355842700Y-142154100D02*
X355842700Y-139354100D01*
X352842700Y-142154100D02*
X352842700Y-139354100D01*
%TO.C,LD13\u002C1*%
X346619700Y-120050100D02*
X347619700Y-120050100D01*
X348619700Y-120050100D02*
X349619700Y-120050100D01*
X349619700Y-122850100D02*
X348619700Y-122850100D01*
X347619700Y-122850100D02*
X346619700Y-122850100D01*
X347619700Y-123030100D02*
X347619700Y-122850100D01*
X348619700Y-123030100D02*
X347619700Y-123030100D01*
X348619700Y-122850100D02*
X348619700Y-123030100D01*
X347619700Y-119870100D02*
X347619700Y-120050100D01*
X348619700Y-119870100D02*
X347619700Y-119870100D01*
X348619700Y-120050100D02*
X348619700Y-119870100D01*
X349619700Y-122850100D02*
X349619700Y-120050100D01*
X346619700Y-122850100D02*
X346619700Y-120050100D01*
%TO.C,LD14\u002C6*%
X379411100Y-197837600D02*
X380411100Y-197837600D01*
X381411100Y-197837600D02*
X382411100Y-197837600D01*
X382411100Y-200637600D02*
X381411100Y-200637600D01*
X380411100Y-200637600D02*
X379411100Y-200637600D01*
X380411100Y-200817600D02*
X380411100Y-200637600D01*
X381411100Y-200817600D02*
X380411100Y-200817600D01*
X381411100Y-200637600D02*
X381411100Y-200817600D01*
X380411100Y-197657600D02*
X380411100Y-197837600D01*
X381411100Y-197657600D02*
X380411100Y-197657600D01*
X381411100Y-197837600D02*
X381411100Y-197657600D01*
X382411100Y-200637600D02*
X382411100Y-197837600D01*
X379411100Y-200637600D02*
X379411100Y-197837600D01*
%TO.C,LD14\u002C0*%
X381062100Y-94142100D02*
X382062100Y-94142100D01*
X383062100Y-94142100D02*
X384062100Y-94142100D01*
X384062100Y-96942100D02*
X383062100Y-96942100D01*
X382062100Y-96942100D02*
X381062100Y-96942100D01*
X382062100Y-97122100D02*
X382062100Y-96942100D01*
X383062100Y-97122100D02*
X382062100Y-97122100D01*
X383062100Y-96942100D02*
X383062100Y-97122100D01*
X382062100Y-93962100D02*
X382062100Y-94142100D01*
X383062100Y-93962100D02*
X382062100Y-93962100D01*
X383062100Y-94142100D02*
X383062100Y-93962100D01*
X384062100Y-96942100D02*
X384062100Y-94142100D01*
X381062100Y-96942100D02*
X381062100Y-94142100D01*
%TO.C,LD14\u002C3*%
X379474600Y-139290600D02*
X380474600Y-139290600D01*
X381474600Y-139290600D02*
X382474600Y-139290600D01*
X382474600Y-142090600D02*
X381474600Y-142090600D01*
X380474600Y-142090600D02*
X379474600Y-142090600D01*
X380474600Y-142270600D02*
X380474600Y-142090600D01*
X381474600Y-142270600D02*
X380474600Y-142270600D01*
X381474600Y-142090600D02*
X381474600Y-142270600D01*
X380474600Y-139110600D02*
X380474600Y-139290600D01*
X381474600Y-139110600D02*
X380474600Y-139110600D01*
X381474600Y-139290600D02*
X381474600Y-139110600D01*
X382474600Y-142090600D02*
X382474600Y-139290600D01*
X379474600Y-142090600D02*
X379474600Y-139290600D01*
%TO.C,LD14\u002C1*%
X379474600Y-120050100D02*
X380474600Y-120050100D01*
X381474600Y-120050100D02*
X382474600Y-120050100D01*
X382474600Y-122850100D02*
X381474600Y-122850100D01*
X380474600Y-122850100D02*
X379474600Y-122850100D01*
X380474600Y-123030100D02*
X380474600Y-122850100D01*
X381474600Y-123030100D02*
X380474600Y-123030100D01*
X381474600Y-122850100D02*
X381474600Y-123030100D01*
X380474600Y-119870100D02*
X380474600Y-120050100D01*
X381474600Y-119870100D02*
X380474600Y-119870100D01*
X381474600Y-120050100D02*
X381474600Y-119870100D01*
X382474600Y-122850100D02*
X382474600Y-120050100D01*
X379474600Y-122850100D02*
X379474600Y-120050100D01*
%TO.C,LD15\u002C1*%
X398778600Y-120050100D02*
X399778600Y-120050100D01*
X400778600Y-120050100D02*
X401778600Y-120050100D01*
X401778600Y-122850100D02*
X400778600Y-122850100D01*
X399778600Y-122850100D02*
X398778600Y-122850100D01*
X399778600Y-123030100D02*
X399778600Y-122850100D01*
X400778600Y-123030100D02*
X399778600Y-123030100D01*
X400778600Y-122850100D02*
X400778600Y-123030100D01*
X399778600Y-119870100D02*
X399778600Y-120050100D01*
X400778600Y-119870100D02*
X399778600Y-119870100D01*
X400778600Y-120050100D02*
X400778600Y-119870100D01*
X401778600Y-122850100D02*
X401778600Y-120050100D01*
X398778600Y-122850100D02*
X398778600Y-120050100D01*
%TO.C,LD15\u002C3*%
X398778600Y-139290600D02*
X399778600Y-139290600D01*
X400778600Y-139290600D02*
X401778600Y-139290600D01*
X401778600Y-142090600D02*
X400778600Y-142090600D01*
X399778600Y-142090600D02*
X398778600Y-142090600D01*
X399778600Y-142270600D02*
X399778600Y-142090600D01*
X400778600Y-142270600D02*
X399778600Y-142270600D01*
X400778600Y-142090600D02*
X400778600Y-142270600D01*
X399778600Y-139110600D02*
X399778600Y-139290600D01*
X400778600Y-139110600D02*
X399778600Y-139110600D01*
X400778600Y-139290600D02*
X400778600Y-139110600D01*
X401778600Y-142090600D02*
X401778600Y-139290600D01*
X398778600Y-142090600D02*
X398778600Y-139290600D01*
%TO.C,LD15\u002C6*%
X398715100Y-197837600D02*
X399715100Y-197837600D01*
X400715100Y-197837600D02*
X401715100Y-197837600D01*
X401715100Y-200637600D02*
X400715100Y-200637600D01*
X399715100Y-200637600D02*
X398715100Y-200637600D01*
X399715100Y-200817600D02*
X399715100Y-200637600D01*
X400715100Y-200817600D02*
X399715100Y-200817600D01*
X400715100Y-200637600D02*
X400715100Y-200817600D01*
X399715100Y-197657600D02*
X399715100Y-197837600D01*
X400715100Y-197657600D02*
X399715100Y-197657600D01*
X400715100Y-197837600D02*
X400715100Y-197657600D01*
X401715100Y-200637600D02*
X401715100Y-197837600D01*
X398715100Y-200637600D02*
X398715100Y-197837600D01*
%TO.C,LD15\u002C5*%
X398715100Y-178482800D02*
X399715100Y-178482800D01*
X400715100Y-178482800D02*
X401715100Y-178482800D01*
X401715100Y-181282800D02*
X400715100Y-181282800D01*
X399715100Y-181282800D02*
X398715100Y-181282800D01*
X399715100Y-181462800D02*
X399715100Y-181282800D01*
X400715100Y-181462800D02*
X399715100Y-181462800D01*
X400715100Y-181282800D02*
X400715100Y-181462800D01*
X399715100Y-178302800D02*
X399715100Y-178482800D01*
X400715100Y-178302800D02*
X399715100Y-178302800D01*
X400715100Y-178482800D02*
X400715100Y-178302800D01*
X401715100Y-181282800D02*
X401715100Y-178482800D01*
X398715100Y-181282800D02*
X398715100Y-178482800D01*
%TO.C,LD15\u002C0*%
X400620100Y-94142100D02*
X401620100Y-94142100D01*
X402620100Y-94142100D02*
X403620100Y-94142100D01*
X403620100Y-96942100D02*
X402620100Y-96942100D01*
X401620100Y-96942100D02*
X400620100Y-96942100D01*
X401620100Y-97122100D02*
X401620100Y-96942100D01*
X402620100Y-97122100D02*
X401620100Y-97122100D01*
X402620100Y-96942100D02*
X402620100Y-97122100D01*
X401620100Y-93962100D02*
X401620100Y-94142100D01*
X402620100Y-93962100D02*
X401620100Y-93962100D01*
X402620100Y-94142100D02*
X402620100Y-93962100D01*
X403620100Y-96942100D02*
X403620100Y-94142100D01*
X400620100Y-96942100D02*
X400620100Y-94142100D01*
%TO.C,LD16\u002C4*%
X441958600Y-158721600D02*
X442958600Y-158721600D01*
X443958600Y-158721600D02*
X444958600Y-158721600D01*
X444958600Y-161521600D02*
X443958600Y-161521600D01*
X442958600Y-161521600D02*
X441958600Y-161521600D01*
X442958600Y-161701600D02*
X442958600Y-161521600D01*
X443958600Y-161701600D02*
X442958600Y-161701600D01*
X443958600Y-161521600D02*
X443958600Y-161701600D01*
X442958600Y-158541600D02*
X442958600Y-158721600D01*
X443958600Y-158541600D02*
X442958600Y-158541600D01*
X443958600Y-158721600D02*
X443958600Y-158541600D01*
X444958600Y-161521600D02*
X444958600Y-158721600D01*
X441958600Y-161521600D02*
X441958600Y-158721600D01*
%TO.C,LD16\u002C0*%
X419924100Y-94142100D02*
X420924100Y-94142100D01*
X421924100Y-94142100D02*
X422924100Y-94142100D01*
X422924100Y-96942100D02*
X421924100Y-96942100D01*
X420924100Y-96942100D02*
X419924100Y-96942100D01*
X420924100Y-97122100D02*
X420924100Y-96942100D01*
X421924100Y-97122100D02*
X420924100Y-97122100D01*
X421924100Y-96942100D02*
X421924100Y-97122100D01*
X420924100Y-93962100D02*
X420924100Y-94142100D01*
X421924100Y-93962100D02*
X420924100Y-93962100D01*
X421924100Y-94142100D02*
X421924100Y-93962100D01*
X422924100Y-96942100D02*
X422924100Y-94142100D01*
X419924100Y-96942100D02*
X419924100Y-94142100D01*
%TO.C,LD16\u002C6*%
X418019100Y-197837600D02*
X419019100Y-197837600D01*
X420019100Y-197837600D02*
X421019100Y-197837600D01*
X421019100Y-200637600D02*
X420019100Y-200637600D01*
X419019100Y-200637600D02*
X418019100Y-200637600D01*
X419019100Y-200817600D02*
X419019100Y-200637600D01*
X420019100Y-200817600D02*
X419019100Y-200817600D01*
X420019100Y-200637600D02*
X420019100Y-200817600D01*
X419019100Y-197657600D02*
X419019100Y-197837600D01*
X420019100Y-197657600D02*
X419019100Y-197657600D01*
X420019100Y-197837600D02*
X420019100Y-197657600D01*
X421019100Y-200637600D02*
X421019100Y-197837600D01*
X418019100Y-200637600D02*
X418019100Y-197837600D01*
%TO.C,LD16\u002C1*%
X418160800Y-120075500D02*
X419160800Y-120075500D01*
X420160800Y-120075500D02*
X421160800Y-120075500D01*
X421160800Y-122875500D02*
X420160800Y-122875500D01*
X419160800Y-122875500D02*
X418160800Y-122875500D01*
X419160800Y-123055500D02*
X419160800Y-122875500D01*
X420160800Y-123055500D02*
X419160800Y-123055500D01*
X420160800Y-122875500D02*
X420160800Y-123055500D01*
X419160800Y-119895500D02*
X419160800Y-120075500D01*
X420160800Y-119895500D02*
X419160800Y-119895500D01*
X420160800Y-120075500D02*
X420160800Y-119895500D01*
X421160800Y-122875500D02*
X421160800Y-120075500D01*
X418160800Y-122875500D02*
X418160800Y-120075500D01*
%TO.C,LD16\u002C3*%
X418082600Y-139290600D02*
X419082600Y-139290600D01*
X420082600Y-139290600D02*
X421082600Y-139290600D01*
X421082600Y-142090600D02*
X420082600Y-142090600D01*
X419082600Y-142090600D02*
X418082600Y-142090600D01*
X419082600Y-142270600D02*
X419082600Y-142090600D01*
X420082600Y-142270600D02*
X419082600Y-142270600D01*
X420082600Y-142090600D02*
X420082600Y-142270600D01*
X419082600Y-139110600D02*
X419082600Y-139290600D01*
X420082600Y-139110600D02*
X419082600Y-139110600D01*
X420082600Y-139290600D02*
X420082600Y-139110600D01*
X421082600Y-142090600D02*
X421082600Y-139290600D01*
X418082600Y-142090600D02*
X418082600Y-139290600D01*
%TO.C,LD16\u002C5*%
X442212600Y-178025600D02*
X443212600Y-178025600D01*
X444212600Y-178025600D02*
X445212600Y-178025600D01*
X445212600Y-180825600D02*
X444212600Y-180825600D01*
X443212600Y-180825600D02*
X442212600Y-180825600D01*
X443212600Y-181005600D02*
X443212600Y-180825600D01*
X444212600Y-181005600D02*
X443212600Y-181005600D01*
X444212600Y-180825600D02*
X444212600Y-181005600D01*
X443212600Y-177845600D02*
X443212600Y-178025600D01*
X444212600Y-177845600D02*
X443212600Y-177845600D01*
X444212600Y-178025600D02*
X444212600Y-177845600D01*
X445212600Y-180825600D02*
X445212600Y-178025600D01*
X442212600Y-180825600D02*
X442212600Y-178025600D01*
%TO.C,LD17\u002C7*%
X441831600Y-113065100D02*
X442831600Y-113065100D01*
X443831600Y-113065100D02*
X444831600Y-113065100D01*
X444831600Y-115865100D02*
X443831600Y-115865100D01*
X442831600Y-115865100D02*
X441831600Y-115865100D01*
X442831600Y-116045100D02*
X442831600Y-115865100D01*
X443831600Y-116045100D02*
X442831600Y-116045100D01*
X443831600Y-115865100D02*
X443831600Y-116045100D01*
X442831600Y-112885100D02*
X442831600Y-113065100D01*
X443831600Y-112885100D02*
X442831600Y-112885100D01*
X443831600Y-113065100D02*
X443831600Y-112885100D01*
X444831600Y-115865100D02*
X444831600Y-113065100D01*
X441831600Y-115865100D02*
X441831600Y-113065100D01*
%TO.C,LD17\u002C0*%
X441895100Y-94269100D02*
X442895100Y-94269100D01*
X443895100Y-94269100D02*
X444895100Y-94269100D01*
X444895100Y-97069100D02*
X443895100Y-97069100D01*
X442895100Y-97069100D02*
X441895100Y-97069100D01*
X442895100Y-97249100D02*
X442895100Y-97069100D01*
X443895100Y-97249100D02*
X442895100Y-97249100D01*
X443895100Y-97069100D02*
X443895100Y-97249100D01*
X442895100Y-94089100D02*
X442895100Y-94269100D01*
X443895100Y-94089100D02*
X442895100Y-94089100D01*
X443895100Y-94269100D02*
X443895100Y-94089100D01*
X444895100Y-97069100D02*
X444895100Y-94269100D01*
X441895100Y-97069100D02*
X441895100Y-94269100D01*
%TO.C,LD17\u002C1*%
X441958600Y-120050100D02*
X442958600Y-120050100D01*
X443958600Y-120050100D02*
X444958600Y-120050100D01*
X444958600Y-122850100D02*
X443958600Y-122850100D01*
X442958600Y-122850100D02*
X441958600Y-122850100D01*
X442958600Y-123030100D02*
X442958600Y-122850100D01*
X443958600Y-123030100D02*
X442958600Y-123030100D01*
X443958600Y-122850100D02*
X443958600Y-123030100D01*
X442958600Y-119870100D02*
X442958600Y-120050100D01*
X443958600Y-119870100D02*
X442958600Y-119870100D01*
X443958600Y-120050100D02*
X443958600Y-119870100D01*
X444958600Y-122850100D02*
X444958600Y-120050100D01*
X441958600Y-122850100D02*
X441958600Y-120050100D01*
%TO.C,LD17\u002C5*%
X461262600Y-178025600D02*
X462262600Y-178025600D01*
X463262600Y-178025600D02*
X464262600Y-178025600D01*
X464262600Y-180825600D02*
X463262600Y-180825600D01*
X462262600Y-180825600D02*
X461262600Y-180825600D01*
X462262600Y-181005600D02*
X462262600Y-180825600D01*
X463262600Y-181005600D02*
X462262600Y-181005600D01*
X463262600Y-180825600D02*
X463262600Y-181005600D01*
X462262600Y-177845600D02*
X462262600Y-178025600D01*
X463262600Y-177845600D02*
X462262600Y-177845600D01*
X463262600Y-178025600D02*
X463262600Y-177845600D01*
X464262600Y-180825600D02*
X464262600Y-178025600D01*
X461262600Y-180825600D02*
X461262600Y-178025600D01*
%TO.C,LD17\u002C6*%
X451737600Y-197329600D02*
X452737600Y-197329600D01*
X453737600Y-197329600D02*
X454737600Y-197329600D01*
X454737600Y-200129600D02*
X453737600Y-200129600D01*
X452737600Y-200129600D02*
X451737600Y-200129600D01*
X452737600Y-200309600D02*
X452737600Y-200129600D01*
X453737600Y-200309600D02*
X452737600Y-200309600D01*
X453737600Y-200129600D02*
X453737600Y-200309600D01*
X452737600Y-197149600D02*
X452737600Y-197329600D01*
X453737600Y-197149600D02*
X452737600Y-197149600D01*
X453737600Y-197329600D02*
X453737600Y-197149600D01*
X454737600Y-200129600D02*
X454737600Y-197329600D01*
X451737600Y-200129600D02*
X451737600Y-197329600D01*
%TO.C,LD17\u002C3*%
X441958600Y-139417600D02*
X442958600Y-139417600D01*
X443958600Y-139417600D02*
X444958600Y-139417600D01*
X444958600Y-142217600D02*
X443958600Y-142217600D01*
X442958600Y-142217600D02*
X441958600Y-142217600D01*
X442958600Y-142397600D02*
X442958600Y-142217600D01*
X443958600Y-142397600D02*
X442958600Y-142397600D01*
X443958600Y-142217600D02*
X443958600Y-142397600D01*
X442958600Y-139237600D02*
X442958600Y-139417600D01*
X443958600Y-139237600D02*
X442958600Y-139237600D01*
X443958600Y-139417600D02*
X443958600Y-139237600D01*
X444958600Y-142217600D02*
X444958600Y-139417600D01*
X441958600Y-142217600D02*
X441958600Y-139417600D01*
%TO.C,LD17\u002C4*%
X461262600Y-158721600D02*
X462262600Y-158721600D01*
X463262600Y-158721600D02*
X464262600Y-158721600D01*
X464262600Y-161521600D02*
X463262600Y-161521600D01*
X462262600Y-161521600D02*
X461262600Y-161521600D01*
X462262600Y-161701600D02*
X462262600Y-161521600D01*
X463262600Y-161701600D02*
X462262600Y-161701600D01*
X463262600Y-161521600D02*
X463262600Y-161701600D01*
X462262600Y-158541600D02*
X462262600Y-158721600D01*
X463262600Y-158541600D02*
X462262600Y-158541600D01*
X463262600Y-158721600D02*
X463262600Y-158541600D01*
X464262600Y-161521600D02*
X464262600Y-158721600D01*
X461262600Y-161521600D02*
X461262600Y-158721600D01*
%TO.C,LD18\u002C6*%
X480566600Y-197329600D02*
X481566600Y-197329600D01*
X482566600Y-197329600D02*
X483566600Y-197329600D01*
X483566600Y-200129600D02*
X482566600Y-200129600D01*
X481566600Y-200129600D02*
X480566600Y-200129600D01*
X481566600Y-200309600D02*
X481566600Y-200129600D01*
X482566600Y-200309600D02*
X481566600Y-200309600D01*
X482566600Y-200129600D02*
X482566600Y-200309600D01*
X481566600Y-197149600D02*
X481566600Y-197329600D01*
X482566600Y-197149600D02*
X481566600Y-197149600D01*
X482566600Y-197329600D02*
X482566600Y-197149600D01*
X483566600Y-200129600D02*
X483566600Y-197329600D01*
X480566600Y-200129600D02*
X480566600Y-197329600D01*
%TO.C,LD18\u002C1*%
X461262600Y-120050100D02*
X462262600Y-120050100D01*
X463262600Y-120050100D02*
X464262600Y-120050100D01*
X464262600Y-122850100D02*
X463262600Y-122850100D01*
X462262600Y-122850100D02*
X461262600Y-122850100D01*
X462262600Y-123030100D02*
X462262600Y-122850100D01*
X463262600Y-123030100D02*
X462262600Y-123030100D01*
X463262600Y-122850100D02*
X463262600Y-123030100D01*
X462262600Y-119870100D02*
X462262600Y-120050100D01*
X463262600Y-119870100D02*
X462262600Y-119870100D01*
X463262600Y-120050100D02*
X463262600Y-119870100D01*
X464262600Y-122850100D02*
X464262600Y-120050100D01*
X461262600Y-122850100D02*
X461262600Y-120050100D01*
%TO.C,LD18\u002C7*%
X461453100Y-113014300D02*
X462453100Y-113014300D01*
X463453100Y-113014300D02*
X464453100Y-113014300D01*
X464453100Y-115814300D02*
X463453100Y-115814300D01*
X462453100Y-115814300D02*
X461453100Y-115814300D01*
X462453100Y-115994300D02*
X462453100Y-115814300D01*
X463453100Y-115994300D02*
X462453100Y-115994300D01*
X463453100Y-115814300D02*
X463453100Y-115994300D01*
X462453100Y-112834300D02*
X462453100Y-113014300D01*
X463453100Y-112834300D02*
X462453100Y-112834300D01*
X463453100Y-113014300D02*
X463453100Y-112834300D01*
X464453100Y-115814300D02*
X464453100Y-113014300D01*
X461453100Y-115814300D02*
X461453100Y-113014300D01*
%TO.C,LD18\u002C5*%
X480566600Y-178025600D02*
X481566600Y-178025600D01*
X482566600Y-178025600D02*
X483566600Y-178025600D01*
X483566600Y-180825600D02*
X482566600Y-180825600D01*
X481566600Y-180825600D02*
X480566600Y-180825600D01*
X481566600Y-181005600D02*
X481566600Y-180825600D01*
X482566600Y-181005600D02*
X481566600Y-181005600D01*
X482566600Y-180825600D02*
X482566600Y-181005600D01*
X481566600Y-177845600D02*
X481566600Y-178025600D01*
X482566600Y-177845600D02*
X481566600Y-177845600D01*
X482566600Y-178025600D02*
X482566600Y-177845600D01*
X483566600Y-180825600D02*
X483566600Y-178025600D01*
X480566600Y-180825600D02*
X480566600Y-178025600D01*
%TO.C,LD18\u002C4*%
X480566600Y-158658100D02*
X481566600Y-158658100D01*
X482566600Y-158658100D02*
X483566600Y-158658100D01*
X483566600Y-161458100D02*
X482566600Y-161458100D01*
X481566600Y-161458100D02*
X480566600Y-161458100D01*
X481566600Y-161638100D02*
X481566600Y-161458100D01*
X482566600Y-161638100D02*
X481566600Y-161638100D01*
X482566600Y-161458100D02*
X482566600Y-161638100D01*
X481566600Y-158478100D02*
X481566600Y-158658100D01*
X482566600Y-158478100D02*
X481566600Y-158478100D01*
X482566600Y-158658100D02*
X482566600Y-158478100D01*
X483566600Y-161458100D02*
X483566600Y-158658100D01*
X480566600Y-161458100D02*
X480566600Y-158658100D01*
%TO.C,LD18\u002C3*%
X461262600Y-139417600D02*
X462262600Y-139417600D01*
X463262600Y-139417600D02*
X464262600Y-139417600D01*
X464262600Y-142217600D02*
X463262600Y-142217600D01*
X462262600Y-142217600D02*
X461262600Y-142217600D01*
X462262600Y-142397600D02*
X462262600Y-142217600D01*
X463262600Y-142397600D02*
X462262600Y-142397600D01*
X463262600Y-142217600D02*
X463262600Y-142397600D01*
X462262600Y-139237600D02*
X462262600Y-139417600D01*
X463262600Y-139237600D02*
X462262600Y-139237600D01*
X463262600Y-139417600D02*
X463262600Y-139237600D01*
X464262600Y-142217600D02*
X464262600Y-139417600D01*
X461262600Y-142217600D02*
X461262600Y-139417600D01*
%TO.C,LD18\u002C0*%
X461199100Y-94269100D02*
X462199100Y-94269100D01*
X463199100Y-94269100D02*
X464199100Y-94269100D01*
X464199100Y-97069100D02*
X463199100Y-97069100D01*
X462199100Y-97069100D02*
X461199100Y-97069100D01*
X462199100Y-97249100D02*
X462199100Y-97069100D01*
X463199100Y-97249100D02*
X462199100Y-97249100D01*
X463199100Y-97069100D02*
X463199100Y-97249100D01*
X462199100Y-94089100D02*
X462199100Y-94269100D01*
X463199100Y-94089100D02*
X462199100Y-94089100D01*
X463199100Y-94269100D02*
X463199100Y-94089100D01*
X464199100Y-97069100D02*
X464199100Y-94269100D01*
X461199100Y-97069100D02*
X461199100Y-94269100D01*
%TO.C,LD19\u002C7*%
X480757100Y-113014300D02*
X481757100Y-113014300D01*
X482757100Y-113014300D02*
X483757100Y-113014300D01*
X483757100Y-115814300D02*
X482757100Y-115814300D01*
X481757100Y-115814300D02*
X480757100Y-115814300D01*
X481757100Y-115994300D02*
X481757100Y-115814300D01*
X482757100Y-115994300D02*
X481757100Y-115994300D01*
X482757100Y-115814300D02*
X482757100Y-115994300D01*
X481757100Y-112834300D02*
X481757100Y-113014300D01*
X482757100Y-112834300D02*
X481757100Y-112834300D01*
X482757100Y-113014300D02*
X482757100Y-112834300D01*
X483757100Y-115814300D02*
X483757100Y-113014300D01*
X480757100Y-115814300D02*
X480757100Y-113014300D01*
%TO.C,LD19\u002C0*%
X480621300Y-94354399D02*
X481621300Y-94354399D01*
X482621300Y-94354399D02*
X483621300Y-94354399D01*
X483621300Y-97154399D02*
X482621300Y-97154399D01*
X481621300Y-97154399D02*
X480621300Y-97154399D01*
X481621300Y-97334399D02*
X481621300Y-97154399D01*
X482621300Y-97334399D02*
X481621300Y-97334399D01*
X482621300Y-97154399D02*
X482621300Y-97334399D01*
X481621300Y-94174399D02*
X481621300Y-94354399D01*
X482621300Y-94174399D02*
X481621300Y-94174399D01*
X482621300Y-94354399D02*
X482621300Y-94174399D01*
X483621300Y-97154399D02*
X483621300Y-94354399D01*
X480621300Y-97154399D02*
X480621300Y-94354399D01*
%TO.C,LD19\u002C1*%
X480566600Y-120558100D02*
X481566600Y-120558100D01*
X482566600Y-120558100D02*
X483566600Y-120558100D01*
X483566600Y-123358100D02*
X482566600Y-123358100D01*
X481566600Y-123358100D02*
X480566600Y-123358100D01*
X481566600Y-123538100D02*
X481566600Y-123358100D01*
X482566600Y-123538100D02*
X481566600Y-123538100D01*
X482566600Y-123358100D02*
X482566600Y-123538100D01*
X481566600Y-120378100D02*
X481566600Y-120558100D01*
X482566600Y-120378100D02*
X481566600Y-120378100D01*
X482566600Y-120558100D02*
X482566600Y-120378100D01*
X483566600Y-123358100D02*
X483566600Y-120558100D01*
X480566600Y-123358100D02*
X480566600Y-120558100D01*
%TO.C,LD19\u002C4*%
X499870600Y-149196600D02*
X500870600Y-149196600D01*
X501870600Y-149196600D02*
X502870600Y-149196600D01*
X502870600Y-151996600D02*
X501870600Y-151996600D01*
X500870600Y-151996600D02*
X499870600Y-151996600D01*
X500870600Y-152176600D02*
X500870600Y-151996600D01*
X501870600Y-152176600D02*
X500870600Y-152176600D01*
X501870600Y-151996600D02*
X501870600Y-152176600D01*
X500870600Y-149016600D02*
X500870600Y-149196600D01*
X501870600Y-149016600D02*
X500870600Y-149016600D01*
X501870600Y-149196600D02*
X501870600Y-149016600D01*
X502870600Y-151996600D02*
X502870600Y-149196600D01*
X499870600Y-151996600D02*
X499870600Y-149196600D01*
%TO.C,LD19\u002C3*%
X480566600Y-139417600D02*
X481566600Y-139417600D01*
X482566600Y-139417600D02*
X483566600Y-139417600D01*
X483566600Y-142217600D02*
X482566600Y-142217600D01*
X481566600Y-142217600D02*
X480566600Y-142217600D01*
X481566600Y-142397600D02*
X481566600Y-142217600D01*
X482566600Y-142397600D02*
X481566600Y-142397600D01*
X482566600Y-142217600D02*
X482566600Y-142397600D01*
X481566600Y-139237600D02*
X481566600Y-139417600D01*
X482566600Y-139237600D02*
X481566600Y-139237600D01*
X482566600Y-139417600D02*
X482566600Y-139237600D01*
X483566600Y-142217600D02*
X483566600Y-139417600D01*
X480566600Y-142217600D02*
X480566600Y-139417600D01*
%TO.C,LD19\u002C6*%
X500124600Y-189709600D02*
X501124600Y-189709600D01*
X502124600Y-189709600D02*
X503124600Y-189709600D01*
X503124600Y-192509600D02*
X502124600Y-192509600D01*
X501124600Y-192509600D02*
X500124600Y-192509600D01*
X501124600Y-192689600D02*
X501124600Y-192509600D01*
X502124600Y-192689600D02*
X501124600Y-192689600D01*
X502124600Y-192509600D02*
X502124600Y-192689600D01*
X501124600Y-189529600D02*
X501124600Y-189709600D01*
X502124600Y-189529600D02*
X501124600Y-189529600D01*
X502124600Y-189709600D02*
X502124600Y-189529600D01*
X503124600Y-192509600D02*
X503124600Y-189709600D01*
X500124600Y-192509600D02*
X500124600Y-189709600D01*
%TO.C,LD20\u002C1*%
X499870600Y-120050100D02*
X500870600Y-120050100D01*
X501870600Y-120050100D02*
X502870600Y-120050100D01*
X502870600Y-122850100D02*
X501870600Y-122850100D01*
X500870600Y-122850100D02*
X499870600Y-122850100D01*
X500870600Y-123030100D02*
X500870600Y-122850100D01*
X501870600Y-123030100D02*
X500870600Y-123030100D01*
X501870600Y-122850100D02*
X501870600Y-123030100D01*
X500870600Y-119870100D02*
X500870600Y-120050100D01*
X501870600Y-119870100D02*
X500870600Y-119870100D01*
X501870600Y-120050100D02*
X501870600Y-119870100D01*
X502870600Y-122850100D02*
X502870600Y-120050100D01*
X499870600Y-122850100D02*
X499870600Y-120050100D01*
%TO.C,LD20\u002C0*%
X499807100Y-94269100D02*
X500807100Y-94269100D01*
X501807100Y-94269100D02*
X502807100Y-94269100D01*
X502807100Y-97069100D02*
X501807100Y-97069100D01*
X500807100Y-97069100D02*
X499807100Y-97069100D01*
X500807100Y-97249100D02*
X500807100Y-97069100D01*
X501807100Y-97249100D02*
X500807100Y-97249100D01*
X501807100Y-97069100D02*
X501807100Y-97249100D01*
X500807100Y-94089100D02*
X500807100Y-94269100D01*
X501807100Y-94089100D02*
X500807100Y-94089100D01*
X501807100Y-94269100D02*
X501807100Y-94089100D01*
X502807100Y-97069100D02*
X502807100Y-94269100D01*
X499807100Y-97069100D02*
X499807100Y-94269100D01*
%TO.C,LD20\u002C7*%
X500061100Y-113065100D02*
X501061100Y-113065100D01*
X502061100Y-113065100D02*
X503061100Y-113065100D01*
X503061100Y-115865100D02*
X502061100Y-115865100D01*
X501061100Y-115865100D02*
X500061100Y-115865100D01*
X501061100Y-116045100D02*
X501061100Y-115865100D01*
X502061100Y-116045100D02*
X501061100Y-116045100D01*
X502061100Y-115865100D02*
X502061100Y-116045100D01*
X501061100Y-112885100D02*
X501061100Y-113065100D01*
X502061100Y-112885100D02*
X501061100Y-112885100D01*
X502061100Y-113065100D02*
X502061100Y-112885100D01*
X503061100Y-115865100D02*
X503061100Y-113065100D01*
X500061100Y-115865100D02*
X500061100Y-113065100D01*
%TO.C,K0\u002C2*%
X85853700Y-154773200D02*
X100353700Y-154773200D01*
X85853700Y-140273200D02*
X85853700Y-154773200D01*
X100353700Y-140273200D02*
X85853700Y-140273200D01*
X100353700Y-154773200D02*
X100353700Y-140273200D01*
%TO.C,K18\u002C4*%
X474816600Y-174166100D02*
X489316600Y-174166100D01*
X474816600Y-159666100D02*
X474816600Y-174166100D01*
X489316600Y-159666100D02*
X474816600Y-159666100D01*
X489316600Y-174166100D02*
X489316600Y-159666100D01*
%TO.C,K10\u002C3*%
X288418700Y-174229600D02*
X302918700Y-174229600D01*
X288418700Y-159729600D02*
X288418700Y-174229600D01*
X302918700Y-159729600D02*
X288418700Y-159729600D01*
X302918700Y-174229600D02*
X302918700Y-159729600D01*
%TO.C,K13\u002C1*%
X340869700Y-135507300D02*
X355369700Y-135507300D01*
X340869700Y-121007300D02*
X340869700Y-135507300D01*
X355369700Y-121007300D02*
X340869700Y-121007300D01*
X355369700Y-135507300D02*
X355369700Y-121007300D01*
%TO.C,K19\u002C4*%
X494120600Y-164450600D02*
X508620600Y-164450600D01*
X494120600Y-149950600D02*
X494120600Y-164450600D01*
X508620600Y-149950600D02*
X494120600Y-149950600D01*
X508620600Y-164450600D02*
X508620600Y-149950600D01*
%TO.C,K11\u002C4*%
X334202200Y-193990800D02*
X348702200Y-193990800D01*
X334202200Y-179490800D02*
X334202200Y-193990800D01*
X348702200Y-179490800D02*
X334202200Y-179490800D01*
X348702200Y-193990800D02*
X348702200Y-179490800D01*
%TO.C,C1*%
X108703000Y-112050000D02*
X108703000Y-116550000D01*
X108703000Y-112050000D02*
X106953000Y-112050000D01*
X106953000Y-116550000D02*
X108703000Y-116550000D01*
X106953000Y-116550000D02*
X106953000Y-112050000D01*
%TO.C,C2*%
X411444000Y-85071000D02*
X406944000Y-85071000D01*
X411444000Y-85071000D02*
X411444000Y-83321000D01*
X406944000Y-83321000D02*
X406944000Y-85071000D01*
X406944000Y-83321000D02*
X411444000Y-83321000D01*
%TO.C,K0\u002C0*%
X81218200Y-109726300D02*
X95718200Y-109726300D01*
X81218200Y-95226300D02*
X81218200Y-109726300D01*
X95718200Y-95226300D02*
X81218200Y-95226300D01*
X95718200Y-109726300D02*
X95718200Y-95226300D01*
%TO.C,K0\u002C1*%
X81154700Y-135570800D02*
X95654700Y-135570800D01*
X81154700Y-121070800D02*
X81154700Y-135570800D01*
X95654700Y-121070800D02*
X81154700Y-121070800D01*
X95654700Y-135570800D02*
X95654700Y-121070800D01*
%TO.C,K0\u002C5*%
X83567700Y-213421800D02*
X98067700Y-213421800D01*
X83567700Y-198921800D02*
X83567700Y-213421800D01*
X98067700Y-198921800D02*
X83567700Y-198921800D01*
X98067700Y-213421800D02*
X98067700Y-198921800D01*
%TO.C,K0\u002C4*%
X92965700Y-194054300D02*
X107465700Y-194054300D01*
X92965700Y-179554300D02*
X92965700Y-194054300D01*
X107465700Y-179554300D02*
X92965700Y-179554300D01*
X107465700Y-194054300D02*
X107465700Y-179554300D01*
%TO.C,K0\u002C3*%
X88241300Y-174280400D02*
X102741300Y-174280400D01*
X88241300Y-159780400D02*
X88241300Y-174280400D01*
X102741300Y-159780400D02*
X88241300Y-159780400D01*
X102741300Y-174280400D02*
X102741300Y-159780400D01*
%TO.C,K1\u002C4*%
X124080700Y-194041600D02*
X138580700Y-194041600D01*
X124080700Y-179541600D02*
X124080700Y-194041600D01*
X138580700Y-179541600D02*
X124080700Y-179541600D01*
X138580700Y-194041600D02*
X138580700Y-179541600D01*
%TO.C,K1\u002C5*%
X108142200Y-213472600D02*
X122642200Y-213472600D01*
X108142200Y-198972600D02*
X108142200Y-213472600D01*
X122642200Y-198972600D02*
X108142200Y-198972600D01*
X122642200Y-213472600D02*
X122642200Y-198972600D01*
%TO.C,K1\u002C3*%
X114682700Y-174229600D02*
X129182700Y-174229600D01*
X114682700Y-159729600D02*
X114682700Y-174229600D01*
X129182700Y-159729600D02*
X114682700Y-159729600D01*
X129182700Y-174229600D02*
X129182700Y-159729600D01*
%TO.C,K1\u002C2*%
X109793200Y-154798600D02*
X124293200Y-154798600D01*
X109793200Y-140298600D02*
X109793200Y-154798600D01*
X124293200Y-140298600D02*
X109793200Y-140298600D01*
X124293200Y-154798600D02*
X124293200Y-140298600D01*
%TO.C,K1\u002C1*%
X100369800Y-135570800D02*
X114869800Y-135570800D01*
X100369800Y-121070800D02*
X100369800Y-135570800D01*
X114869800Y-121070800D02*
X100369800Y-121070800D01*
X114869800Y-135570800D02*
X114869800Y-121070800D01*
%TO.C,K1\u002C0*%
X121032700Y-109777100D02*
X135532700Y-109777100D01*
X121032700Y-95277100D02*
X121032700Y-109777100D01*
X135532700Y-95277100D02*
X121032700Y-95277100D01*
X135532700Y-109777100D02*
X135532700Y-95277100D01*
%TO.C,K2\u002C5*%
X132526200Y-213472600D02*
X147026200Y-213472600D01*
X132526200Y-198972600D02*
X132526200Y-213472600D01*
X147026200Y-198972600D02*
X132526200Y-198972600D01*
X147026200Y-213472600D02*
X147026200Y-198972600D01*
%TO.C,K2\u002C3*%
X133986700Y-174229600D02*
X148486700Y-174229600D01*
X133986700Y-159729600D02*
X133986700Y-174229600D01*
X148486700Y-159729600D02*
X133986700Y-159729600D01*
X148486700Y-174229600D02*
X148486700Y-159729600D01*
%TO.C,K2\u002C1*%
X119572200Y-135558100D02*
X134072200Y-135558100D01*
X119572200Y-121058100D02*
X119572200Y-135558100D01*
X134072200Y-121058100D02*
X119572200Y-121058100D01*
X134072200Y-135558100D02*
X134072200Y-121058100D01*
%TO.C,K2\u002C4*%
X143384700Y-194041600D02*
X157884700Y-194041600D01*
X143384700Y-179541600D02*
X143384700Y-194041600D01*
X157884700Y-179541600D02*
X143384700Y-179541600D01*
X157884700Y-194041600D02*
X157884700Y-179541600D01*
%TO.C,K2\u002C2*%
X129097200Y-154798600D02*
X143597200Y-154798600D01*
X129097200Y-140298600D02*
X129097200Y-154798600D01*
X143597200Y-140298600D02*
X129097200Y-140298600D01*
X143597200Y-154798600D02*
X143597200Y-140298600D01*
%TO.C,K2\u002C0*%
X140336700Y-109777100D02*
X154836700Y-109777100D01*
X140336700Y-95277100D02*
X140336700Y-109777100D01*
X154836700Y-95277100D02*
X140336700Y-95277100D01*
X154836700Y-109777100D02*
X154836700Y-95277100D01*
%TO.C,K3\u002C5*%
X204408200Y-213472600D02*
X218908200Y-213472600D01*
X204408200Y-198972600D02*
X204408200Y-213472600D01*
X218908200Y-198972600D02*
X204408200Y-198972600D01*
X218908200Y-213472600D02*
X218908200Y-198972600D01*
%TO.C,K3\u002C4*%
X162688700Y-194041600D02*
X177188700Y-194041600D01*
X162688700Y-179541600D02*
X162688700Y-194041600D01*
X177188700Y-179541600D02*
X162688700Y-179541600D01*
X177188700Y-194041600D02*
X177188700Y-179541600D01*
%TO.C,K3\u002C2*%
X148401200Y-154798600D02*
X162901200Y-154798600D01*
X148401200Y-140298600D02*
X148401200Y-154798600D01*
X162901200Y-140298600D02*
X148401200Y-140298600D01*
X162901200Y-154798600D02*
X162901200Y-140298600D01*
%TO.C,K3\u002C1*%
X138368200Y-135558100D02*
X152868200Y-135558100D01*
X138368200Y-121058100D02*
X138368200Y-135558100D01*
X152868200Y-121058100D02*
X138368200Y-121058100D01*
X152868200Y-135558100D02*
X152868200Y-121058100D01*
%TO.C,K3\u002C0*%
X159640700Y-109777100D02*
X174140700Y-109777100D01*
X159640700Y-95277100D02*
X159640700Y-109777100D01*
X174140700Y-95277100D02*
X159640700Y-95277100D01*
X174140700Y-109777100D02*
X174140700Y-95277100D01*
%TO.C,K3\u002C3*%
X153290700Y-174229600D02*
X167790700Y-174229600D01*
X153290700Y-159729600D02*
X153290700Y-174229600D01*
X167790700Y-159729600D02*
X153290700Y-159729600D01*
X167790700Y-174229600D02*
X167790700Y-159729600D01*
%TO.C,K4\u002C1*%
X157672200Y-135558100D02*
X172172200Y-135558100D01*
X157672200Y-121058100D02*
X157672200Y-135558100D01*
X172172200Y-121058100D02*
X157672200Y-121058100D01*
X172172200Y-135558100D02*
X172172200Y-121058100D01*
%TO.C,K4\u002C2*%
X182205200Y-154798600D02*
X182205200Y-140298600D01*
X182205200Y-140298600D02*
X167705200Y-140298600D01*
X167705200Y-140298600D02*
X167705200Y-154798600D01*
X167705200Y-154798600D02*
X182205200Y-154798600D01*
%TO.C,K4\u002C3*%
X172594700Y-174229600D02*
X187094700Y-174229600D01*
X172594700Y-159729600D02*
X172594700Y-174229600D01*
X187094700Y-159729600D02*
X172594700Y-159729600D01*
X187094700Y-174229600D02*
X187094700Y-159729600D01*
%TO.C,K4\u002C4*%
X181992700Y-194041600D02*
X196492700Y-194041600D01*
X181992700Y-179541600D02*
X181992700Y-194041600D01*
X196492700Y-179541600D02*
X181992700Y-179541600D01*
X196492700Y-194041600D02*
X196492700Y-179541600D01*
%TO.C,K4\u002C0*%
X178944700Y-109777100D02*
X193444700Y-109777100D01*
X178944700Y-95277100D02*
X178944700Y-109777100D01*
X193444700Y-95277100D02*
X178944700Y-95277100D01*
X193444700Y-109777100D02*
X193444700Y-95277100D01*
%TO.C,K5\u002C0*%
X210440700Y-109777100D02*
X224940700Y-109777100D01*
X210440700Y-95277100D02*
X210440700Y-109777100D01*
X224940700Y-95277100D02*
X210440700Y-95277100D01*
X224940700Y-109777100D02*
X224940700Y-95277100D01*
%TO.C,K5\u002C2*%
X201509200Y-154798600D02*
X201509200Y-140298600D01*
X201509200Y-140298600D02*
X187009200Y-140298600D01*
X187009200Y-140298600D02*
X187009200Y-154798600D01*
X187009200Y-154798600D02*
X201509200Y-154798600D01*
%TO.C,K5\u002C1*%
X176976200Y-135558100D02*
X191476200Y-135558100D01*
X176976200Y-121058100D02*
X176976200Y-135558100D01*
X191476200Y-121058100D02*
X176976200Y-121058100D01*
X191476200Y-135558100D02*
X191476200Y-121058100D01*
%TO.C,K5\u002C3*%
X191898700Y-174229600D02*
X206398700Y-174229600D01*
X191898700Y-159729600D02*
X191898700Y-174229600D01*
X206398700Y-159729600D02*
X191898700Y-159729600D01*
X206398700Y-174229600D02*
X206398700Y-159729600D01*
%TO.C,K5\u002C4*%
X201296700Y-194041600D02*
X215796700Y-194041600D01*
X201296700Y-179541600D02*
X201296700Y-194041600D01*
X215796700Y-179541600D02*
X201296700Y-179541600D01*
X215796700Y-194041600D02*
X215796700Y-179541600D01*
%TO.C,K6\u002C3*%
X211202700Y-174229600D02*
X225702700Y-174229600D01*
X211202700Y-159729600D02*
X211202700Y-174229600D01*
X225702700Y-159729600D02*
X211202700Y-159729600D01*
X225702700Y-174229600D02*
X225702700Y-159729600D01*
%TO.C,K6\u002C4*%
X220600700Y-194041600D02*
X235100700Y-194041600D01*
X220600700Y-179541600D02*
X220600700Y-194041600D01*
X235100700Y-179541600D02*
X220600700Y-179541600D01*
X235100700Y-194041600D02*
X235100700Y-179541600D01*
%TO.C,K6\u002C1*%
X196280200Y-135558100D02*
X210780200Y-135558100D01*
X196280200Y-121058100D02*
X196280200Y-135558100D01*
X210780200Y-121058100D02*
X196280200Y-121058100D01*
X210780200Y-135558100D02*
X210780200Y-121058100D01*
%TO.C,K6\u002C2*%
X220813200Y-154798600D02*
X220813200Y-140298600D01*
X220813200Y-140298600D02*
X206313200Y-140298600D01*
X206313200Y-140298600D02*
X206313200Y-154798600D01*
X206313200Y-154798600D02*
X220813200Y-154798600D01*
%TO.C,K6\u002C0*%
X229744700Y-109777100D02*
X244244700Y-109777100D01*
X229744700Y-95277100D02*
X229744700Y-109777100D01*
X244244700Y-95277100D02*
X229744700Y-95277100D01*
X244244700Y-109777100D02*
X244244700Y-95277100D01*
%TO.C,K7\u002C2*%
X240117200Y-154798600D02*
X240117200Y-140298600D01*
X240117200Y-140298600D02*
X225617200Y-140298600D01*
X225617200Y-140298600D02*
X225617200Y-154798600D01*
X225617200Y-154798600D02*
X240117200Y-154798600D01*
%TO.C,K7\u002C1*%
X215584200Y-135558100D02*
X230084200Y-135558100D01*
X215584200Y-121058100D02*
X215584200Y-135558100D01*
X230084200Y-121058100D02*
X215584200Y-121058100D01*
X230084200Y-135558100D02*
X230084200Y-121058100D01*
%TO.C,K7\u002C3*%
X230506700Y-174229600D02*
X245006700Y-174229600D01*
X230506700Y-159729600D02*
X230506700Y-174229600D01*
X245006700Y-159729600D02*
X230506700Y-159729600D01*
X245006700Y-174229600D02*
X245006700Y-159729600D01*
%TO.C,K7\u002C4*%
X239904700Y-194041600D02*
X254404700Y-194041600D01*
X239904700Y-179541600D02*
X239904700Y-194041600D01*
X254404700Y-179541600D02*
X239904700Y-179541600D01*
X254404700Y-194041600D02*
X254404700Y-179541600D01*
%TO.C,K7\u002C0*%
X249048700Y-109777100D02*
X263548700Y-109777100D01*
X249048700Y-95277100D02*
X249048700Y-109777100D01*
X263548700Y-95277100D02*
X249048700Y-95277100D01*
X263548700Y-109777100D02*
X263548700Y-95277100D01*
%TO.C,K8\u002C0*%
X268352700Y-109777100D02*
X282852700Y-109777100D01*
X268352700Y-95277100D02*
X268352700Y-109777100D01*
X282852700Y-95277100D02*
X268352700Y-95277100D01*
X282852700Y-109777100D02*
X282852700Y-95277100D01*
%TO.C,K8\u002C1*%
X234888200Y-135558100D02*
X249388200Y-135558100D01*
X234888200Y-121058100D02*
X234888200Y-135558100D01*
X249388200Y-121058100D02*
X234888200Y-121058100D01*
X249388200Y-135558100D02*
X249388200Y-121058100D01*
%TO.C,K8\u002C3*%
X249810700Y-174229600D02*
X264310700Y-174229600D01*
X249810700Y-159729600D02*
X249810700Y-174229600D01*
X264310700Y-159729600D02*
X249810700Y-159729600D01*
X264310700Y-174229600D02*
X264310700Y-159729600D01*
%TO.C,K8\u002C4*%
X259208700Y-194041600D02*
X273708700Y-194041600D01*
X259208700Y-179541600D02*
X259208700Y-194041600D01*
X273708700Y-179541600D02*
X259208700Y-179541600D01*
X273708700Y-194041600D02*
X273708700Y-179541600D01*
%TO.C,K8\u002C5*%
X276163200Y-213536100D02*
X290663200Y-213536100D01*
X276163200Y-199036100D02*
X276163200Y-213536100D01*
X290663200Y-199036100D02*
X276163200Y-199036100D01*
X290663200Y-213536100D02*
X290663200Y-199036100D01*
%TO.C,K8\u002C2*%
X259421200Y-154798600D02*
X259421200Y-140298600D01*
X259421200Y-140298600D02*
X244921200Y-140298600D01*
X244921200Y-140298600D02*
X244921200Y-154798600D01*
X244921200Y-154798600D02*
X259421200Y-154798600D01*
%TO.C,K9\u002C0*%
X294768700Y-109777100D02*
X309268700Y-109777100D01*
X294768700Y-95277100D02*
X294768700Y-109777100D01*
X309268700Y-95277100D02*
X294768700Y-95277100D01*
X309268700Y-109777100D02*
X309268700Y-95277100D01*
%TO.C,K9\u002C5*%
X300293200Y-213472600D02*
X314793200Y-213472600D01*
X300293200Y-198972600D02*
X300293200Y-213472600D01*
X314793200Y-198972600D02*
X300293200Y-198972600D01*
X314793200Y-213472600D02*
X314793200Y-198972600D01*
%TO.C,K9\u002C1*%
X254192200Y-135558100D02*
X268692200Y-135558100D01*
X254192200Y-121058100D02*
X254192200Y-135558100D01*
X268692200Y-121058100D02*
X254192200Y-121058100D01*
X268692200Y-135558100D02*
X268692200Y-121058100D01*
%TO.C,K9\u002C2*%
X278725200Y-154798600D02*
X278725200Y-140298600D01*
X278725200Y-140298600D02*
X264225200Y-140298600D01*
X264225200Y-140298600D02*
X264225200Y-154798600D01*
X264225200Y-154798600D02*
X278725200Y-154798600D01*
%TO.C,K9\u002C4*%
X278512700Y-194041600D02*
X293012700Y-194041600D01*
X278512700Y-179541600D02*
X278512700Y-194041600D01*
X293012700Y-179541600D02*
X278512700Y-179541600D01*
X293012700Y-194041600D02*
X293012700Y-179541600D01*
%TO.C,K9\u002C3*%
X269114700Y-174229600D02*
X283614700Y-174229600D01*
X269114700Y-159729600D02*
X269114700Y-174229600D01*
X283614700Y-159729600D02*
X269114700Y-159729600D01*
X283614700Y-174229600D02*
X283614700Y-159729600D01*
%TO.C,K10\u002C2*%
X298029200Y-154798600D02*
X298029200Y-140298600D01*
X298029200Y-140298600D02*
X283529200Y-140298600D01*
X283529200Y-140298600D02*
X283529200Y-154798600D01*
X283529200Y-154798600D02*
X298029200Y-154798600D01*
%TO.C,K10\u002C0*%
X314072700Y-109777100D02*
X328572700Y-109777100D01*
X314072700Y-95277100D02*
X314072700Y-109777100D01*
X328572700Y-95277100D02*
X314072700Y-95277100D01*
X328572700Y-109777100D02*
X328572700Y-95277100D01*
%TO.C,K10\u002C5*%
X324486700Y-213472600D02*
X338986700Y-213472600D01*
X324486700Y-198972600D02*
X324486700Y-213472600D01*
X338986700Y-198972600D02*
X324486700Y-198972600D01*
X338986700Y-213472600D02*
X338986700Y-198972600D01*
%TO.C,K10\u002C1*%
X273496200Y-135558100D02*
X287996200Y-135558100D01*
X273496200Y-121058100D02*
X273496200Y-135558100D01*
X287996200Y-121058100D02*
X273496200Y-121058100D01*
X287996200Y-135558100D02*
X287996200Y-121058100D01*
%TO.C,K10\u002C4*%
X297816700Y-194041600D02*
X312316700Y-194041600D01*
X297816700Y-179541600D02*
X297816700Y-194041600D01*
X312316700Y-179541600D02*
X297816700Y-179541600D01*
X312316700Y-194041600D02*
X312316700Y-179541600D01*
%TO.C,K11\u002C3*%
X307722700Y-174229600D02*
X322222700Y-174229600D01*
X307722700Y-159729600D02*
X307722700Y-174229600D01*
X322222700Y-159729600D02*
X307722700Y-159729600D01*
X322222700Y-174229600D02*
X322222700Y-159729600D01*
%TO.C,K11\u002C2*%
X317333200Y-154798600D02*
X317333200Y-140298600D01*
X317333200Y-140298600D02*
X302833200Y-140298600D01*
X302833200Y-140298600D02*
X302833200Y-154798600D01*
X302833200Y-154798600D02*
X317333200Y-154798600D01*
%TO.C,K11\u002C5*%
X348553200Y-213472600D02*
X363053200Y-213472600D01*
X348553200Y-198972600D02*
X348553200Y-213472600D01*
X363053200Y-198972600D02*
X348553200Y-198972600D01*
X363053200Y-213472600D02*
X363053200Y-198972600D01*
%TO.C,K11\u002C1*%
X292800200Y-135558100D02*
X307300200Y-135558100D01*
X292800200Y-121058100D02*
X292800200Y-135558100D01*
X307300200Y-121058100D02*
X292800200Y-121058100D01*
X307300200Y-135558100D02*
X307300200Y-121058100D01*
%TO.C,K11\u002C0*%
X333376700Y-109777100D02*
X347876700Y-109777100D01*
X333376700Y-95277100D02*
X333376700Y-109777100D01*
X347876700Y-95277100D02*
X333376700Y-95277100D01*
X347876700Y-109777100D02*
X347876700Y-95277100D01*
%TO.C,K12\u002C2*%
X336637200Y-154798600D02*
X336637200Y-140298600D01*
X336637200Y-140298600D02*
X322137200Y-140298600D01*
X322137200Y-140298600D02*
X322137200Y-154798600D01*
X322137200Y-154798600D02*
X336637200Y-154798600D01*
%TO.C,K12\u002C0*%
X352680700Y-109777100D02*
X367180700Y-109777100D01*
X352680700Y-95277100D02*
X352680700Y-109777100D01*
X367180700Y-95277100D02*
X352680700Y-95277100D01*
X367180700Y-109777100D02*
X367180700Y-95277100D01*
%TO.C,K12\u002C1*%
X312104200Y-135558100D02*
X326604200Y-135558100D01*
X312104200Y-121058100D02*
X312104200Y-135558100D01*
X326604200Y-121058100D02*
X312104200Y-121058100D01*
X326604200Y-135558100D02*
X326604200Y-121058100D01*
%TO.C,K13\u002C2*%
X360576700Y-154811300D02*
X360576700Y-140311300D01*
X360576700Y-140311300D02*
X346076700Y-140311300D01*
X346076700Y-140311300D02*
X346076700Y-154811300D01*
X346076700Y-154811300D02*
X360576700Y-154811300D01*
%TO.C,K14\u002C1*%
X373724600Y-135558100D02*
X388224600Y-135558100D01*
X373724600Y-121058100D02*
X373724600Y-135558100D01*
X388224600Y-121058100D02*
X373724600Y-121058100D01*
X388224600Y-135558100D02*
X388224600Y-121058100D01*
%TO.C,K14\u002C6*%
X373661100Y-213345600D02*
X388161100Y-213345600D01*
X373661100Y-198845600D02*
X373661100Y-213345600D01*
X388161100Y-198845600D02*
X373661100Y-198845600D01*
X388161100Y-213345600D02*
X388161100Y-198845600D01*
%TO.C,K14\u002C3*%
X373724600Y-154798600D02*
X388224600Y-154798600D01*
X373724600Y-140298600D02*
X373724600Y-154798600D01*
X388224600Y-140298600D02*
X373724600Y-140298600D01*
X388224600Y-154798600D02*
X388224600Y-140298600D01*
%TO.C,K14\u002C0*%
X375121600Y-109777100D02*
X389621600Y-109777100D01*
X375121600Y-95277100D02*
X375121600Y-109777100D01*
X389621600Y-95277100D02*
X375121600Y-95277100D01*
X389621600Y-109777100D02*
X389621600Y-95277100D01*
%TO.C,K15\u002C6*%
X392965100Y-213345600D02*
X407465100Y-213345600D01*
X392965100Y-198845600D02*
X392965100Y-213345600D01*
X407465100Y-198845600D02*
X392965100Y-198845600D01*
X407465100Y-213345600D02*
X407465100Y-198845600D01*
%TO.C,K15\u002C3*%
X393028600Y-154798600D02*
X407528600Y-154798600D01*
X393028600Y-140298600D02*
X393028600Y-154798600D01*
X407528600Y-140298600D02*
X393028600Y-140298600D01*
X407528600Y-154798600D02*
X407528600Y-140298600D01*
%TO.C,K15\u002C5*%
X392965100Y-194041600D02*
X407465100Y-194041600D01*
X392965100Y-179541600D02*
X392965100Y-194041600D01*
X407465100Y-179541600D02*
X392965100Y-179541600D01*
X407465100Y-194041600D02*
X407465100Y-179541600D01*
%TO.C,K15\u002C1*%
X393028600Y-135558100D02*
X407528600Y-135558100D01*
X393028600Y-121058100D02*
X393028600Y-135558100D01*
X407528600Y-121058100D02*
X393028600Y-121058100D01*
X407528600Y-135558100D02*
X407528600Y-121058100D01*
%TO.C,K15\u002C0*%
X394679600Y-109777100D02*
X409179600Y-109777100D01*
X394679600Y-95277100D02*
X394679600Y-109777100D01*
X409179600Y-95277100D02*
X394679600Y-95277100D01*
X409179600Y-109777100D02*
X409179600Y-95277100D01*
%TO.C,K16\u002C4*%
X436208600Y-174229600D02*
X450708600Y-174229600D01*
X436208600Y-159729600D02*
X436208600Y-174229600D01*
X450708600Y-159729600D02*
X436208600Y-159729600D01*
X450708600Y-174229600D02*
X450708600Y-159729600D01*
%TO.C,K16\u002C1*%
X412332600Y-135558100D02*
X426832600Y-135558100D01*
X412332600Y-121058100D02*
X412332600Y-135558100D01*
X426832600Y-121058100D02*
X412332600Y-121058100D01*
X426832600Y-135558100D02*
X426832600Y-121058100D01*
%TO.C,K16\u002C5*%
X436208600Y-193533600D02*
X450708600Y-193533600D01*
X436208600Y-179033600D02*
X436208600Y-193533600D01*
X450708600Y-179033600D02*
X436208600Y-179033600D01*
X450708600Y-193533600D02*
X450708600Y-179033600D01*
%TO.C,K16\u002C3*%
X412332600Y-154798600D02*
X426832600Y-154798600D01*
X412332600Y-140298600D02*
X412332600Y-154798600D01*
X426832600Y-140298600D02*
X412332600Y-140298600D01*
X426832600Y-154798600D02*
X426832600Y-140298600D01*
%TO.C,K16\u002C0*%
X413983600Y-109777100D02*
X428483600Y-109777100D01*
X413983600Y-95277100D02*
X413983600Y-109777100D01*
X428483600Y-95277100D02*
X413983600Y-95277100D01*
X428483600Y-109777100D02*
X428483600Y-95277100D01*
%TO.C,K16\u002C6*%
X412269100Y-213345600D02*
X426769100Y-213345600D01*
X412269100Y-198845600D02*
X412269100Y-213345600D01*
X426769100Y-198845600D02*
X412269100Y-198845600D01*
X426769100Y-213345600D02*
X426769100Y-198845600D01*
%TO.C,K17\u002C6*%
X445733600Y-212837600D02*
X460233600Y-212837600D01*
X445733600Y-198337600D02*
X445733600Y-212837600D01*
X460233600Y-198337600D02*
X445733600Y-198337600D01*
X460233600Y-212837600D02*
X460233600Y-198337600D01*
%TO.C,K17\u002C5*%
X455512600Y-193533600D02*
X470012600Y-193533600D01*
X455512600Y-179033600D02*
X455512600Y-193533600D01*
X470012600Y-179033600D02*
X455512600Y-179033600D01*
X470012600Y-193533600D02*
X470012600Y-179033600D01*
%TO.C,K17\u002C4*%
X455512600Y-174229600D02*
X470012600Y-174229600D01*
X455512600Y-159729600D02*
X455512600Y-174229600D01*
X470012600Y-159729600D02*
X455512600Y-159729600D01*
X470012600Y-174229600D02*
X470012600Y-159729600D01*
%TO.C,K17\u002C3*%
X436208600Y-154925600D02*
X450708600Y-154925600D01*
X436208600Y-140425600D02*
X436208600Y-154925600D01*
X450708600Y-140425600D02*
X436208600Y-140425600D01*
X450708600Y-154925600D02*
X450708600Y-140425600D01*
%TO.C,K17\u002C1*%
X436208600Y-135558100D02*
X450708600Y-135558100D01*
X436208600Y-121058100D02*
X436208600Y-135558100D01*
X450708600Y-121058100D02*
X436208600Y-121058100D01*
X450708600Y-135558100D02*
X450708600Y-121058100D01*
%TO.C,K17\u002C0*%
X436145100Y-109777100D02*
X450645100Y-109777100D01*
X436145100Y-95277100D02*
X436145100Y-109777100D01*
X450645100Y-95277100D02*
X436145100Y-95277100D01*
X450645100Y-109777100D02*
X450645100Y-95277100D01*
%TO.C,K18\u002C6*%
X474816600Y-212837600D02*
X489316600Y-212837600D01*
X474816600Y-198337600D02*
X474816600Y-212837600D01*
X489316600Y-198337600D02*
X474816600Y-198337600D01*
X489316600Y-212837600D02*
X489316600Y-198337600D01*
%TO.C,K18\u002C3*%
X455512600Y-154925600D02*
X470012600Y-154925600D01*
X455512600Y-140425600D02*
X455512600Y-154925600D01*
X470012600Y-140425600D02*
X455512600Y-140425600D01*
X470012600Y-154925600D02*
X470012600Y-140425600D01*
%TO.C,K18\u002C1*%
X455512600Y-135558100D02*
X470012600Y-135558100D01*
X455512600Y-121058100D02*
X455512600Y-135558100D01*
X470012600Y-121058100D02*
X455512600Y-121058100D01*
X470012600Y-135558100D02*
X470012600Y-121058100D01*
%TO.C,K18\u002C5*%
X474816600Y-193533600D02*
X489316600Y-193533600D01*
X474816600Y-179033600D02*
X474816600Y-193533600D01*
X489316600Y-179033600D02*
X474816600Y-179033600D01*
X489316600Y-193533600D02*
X489316600Y-179033600D01*
%TO.C,K18\u002C0*%
X455449100Y-109777100D02*
X469949100Y-109777100D01*
X455449100Y-95277100D02*
X455449100Y-109777100D01*
X469949100Y-95277100D02*
X455449100Y-95277100D01*
X469949100Y-109777100D02*
X469949100Y-95277100D01*
%TO.C,K19\u002C6*%
X494120600Y-203185600D02*
X508620600Y-203185600D01*
X494120600Y-188685600D02*
X494120600Y-203185600D01*
X508620600Y-188685600D02*
X494120600Y-188685600D01*
X508620600Y-203185600D02*
X508620600Y-188685600D01*
%TO.C,K19\u002C0*%
X474753100Y-109777100D02*
X489253100Y-109777100D01*
X474753100Y-95277100D02*
X474753100Y-109777100D01*
X489253100Y-95277100D02*
X474753100Y-95277100D01*
X489253100Y-109777100D02*
X489253100Y-95277100D01*
%TO.C,K19\u002C3*%
X474816600Y-154925600D02*
X489316600Y-154925600D01*
X474816600Y-140425600D02*
X474816600Y-154925600D01*
X489316600Y-140425600D02*
X474816600Y-140425600D01*
X489316600Y-154925600D02*
X489316600Y-140425600D01*
%TO.C,K19\u002C1*%
X474816600Y-135558100D02*
X489316600Y-135558100D01*
X474816600Y-121058100D02*
X474816600Y-135558100D01*
X489316600Y-121058100D02*
X474816600Y-121058100D01*
X489316600Y-135558100D02*
X489316600Y-121058100D01*
%TO.C,K20\u002C0*%
X494057100Y-109777100D02*
X508557100Y-109777100D01*
X494057100Y-95277100D02*
X494057100Y-109777100D01*
X508557100Y-95277100D02*
X494057100Y-95277100D01*
X508557100Y-109777100D02*
X508557100Y-95277100D01*
%TO.C,K20\u002C1*%
X494120600Y-135558100D02*
X508620600Y-135558100D01*
X494120600Y-121058100D02*
X494120600Y-135558100D01*
X508620600Y-121058100D02*
X494120600Y-121058100D01*
X508620600Y-135558100D02*
X508620600Y-121058100D01*
%TO.C,J2*%
X431587000Y-58508000D02*
X445087000Y-58508000D01*
X431587000Y-49308000D02*
X431587000Y-58508000D01*
X445087000Y-49308000D02*
X431587000Y-49308000D01*
X445087000Y-58508000D02*
X445087000Y-49308000D01*
%TD*%
M02*
