%TF.GenerationSoftware,KiCad,Pcbnew,(5.1.9)-1*%
%TF.CreationDate,2021-03-20T17:55:26+10:00*%
%TF.ProjectId,RedPyKeeb,52656450-794b-4656-9562-2e6b69636164,rev?*%
%TF.SameCoordinates,Original*%
%TF.FileFunction,Paste,Top*%
%TF.FilePolarity,Positive*%
%FSLAX46Y46*%
G04 Gerber Fmt 4.6, Leading zero omitted, Abs format (unit mm)*
G04 Created by KiCad (PCBNEW (5.1.9)-1) date 2021-03-20 17:55:26*
%MOMM*%
%LPD*%
G01*
G04 APERTURE LIST*
%ADD10R,1.500000X1.250000*%
%ADD11R,1.800000X1.500000*%
%ADD12R,1.800000X0.500000*%
%ADD13R,0.300000X2.000000*%
%ADD14R,0.600000X2.780000*%
%ADD15C,0.100000*%
G04 APERTURE END LIST*
%TO.C,U3*%
G36*
G01*
X54807700Y-117693300D02*
X54807700Y-117993300D01*
G75*
G02*
X54657700Y-118143300I-150000J0D01*
G01*
X52907700Y-118143300D01*
G75*
G02*
X52757700Y-117993300I0J150000D01*
G01*
X52757700Y-117693300D01*
G75*
G02*
X52907700Y-117543300I150000J0D01*
G01*
X54657700Y-117543300D01*
G75*
G02*
X54807700Y-117693300I0J-150000D01*
G01*
G37*
G36*
G01*
X54807700Y-116423300D02*
X54807700Y-116723300D01*
G75*
G02*
X54657700Y-116873300I-150000J0D01*
G01*
X52907700Y-116873300D01*
G75*
G02*
X52757700Y-116723300I0J150000D01*
G01*
X52757700Y-116423300D01*
G75*
G02*
X52907700Y-116273300I150000J0D01*
G01*
X54657700Y-116273300D01*
G75*
G02*
X54807700Y-116423300I0J-150000D01*
G01*
G37*
G36*
G01*
X54807700Y-115153300D02*
X54807700Y-115453300D01*
G75*
G02*
X54657700Y-115603300I-150000J0D01*
G01*
X52907700Y-115603300D01*
G75*
G02*
X52757700Y-115453300I0J150000D01*
G01*
X52757700Y-115153300D01*
G75*
G02*
X52907700Y-115003300I150000J0D01*
G01*
X54657700Y-115003300D01*
G75*
G02*
X54807700Y-115153300I0J-150000D01*
G01*
G37*
G36*
G01*
X54807700Y-113883300D02*
X54807700Y-114183300D01*
G75*
G02*
X54657700Y-114333300I-150000J0D01*
G01*
X52907700Y-114333300D01*
G75*
G02*
X52757700Y-114183300I0J150000D01*
G01*
X52757700Y-113883300D01*
G75*
G02*
X52907700Y-113733300I150000J0D01*
G01*
X54657700Y-113733300D01*
G75*
G02*
X54807700Y-113883300I0J-150000D01*
G01*
G37*
G36*
G01*
X54807700Y-112613300D02*
X54807700Y-112913300D01*
G75*
G02*
X54657700Y-113063300I-150000J0D01*
G01*
X52907700Y-113063300D01*
G75*
G02*
X52757700Y-112913300I0J150000D01*
G01*
X52757700Y-112613300D01*
G75*
G02*
X52907700Y-112463300I150000J0D01*
G01*
X54657700Y-112463300D01*
G75*
G02*
X54807700Y-112613300I0J-150000D01*
G01*
G37*
G36*
G01*
X54807700Y-111343300D02*
X54807700Y-111643300D01*
G75*
G02*
X54657700Y-111793300I-150000J0D01*
G01*
X52907700Y-111793300D01*
G75*
G02*
X52757700Y-111643300I0J150000D01*
G01*
X52757700Y-111343300D01*
G75*
G02*
X52907700Y-111193300I150000J0D01*
G01*
X54657700Y-111193300D01*
G75*
G02*
X54807700Y-111343300I0J-150000D01*
G01*
G37*
G36*
G01*
X54807700Y-110073300D02*
X54807700Y-110373300D01*
G75*
G02*
X54657700Y-110523300I-150000J0D01*
G01*
X52907700Y-110523300D01*
G75*
G02*
X52757700Y-110373300I0J150000D01*
G01*
X52757700Y-110073300D01*
G75*
G02*
X52907700Y-109923300I150000J0D01*
G01*
X54657700Y-109923300D01*
G75*
G02*
X54807700Y-110073300I0J-150000D01*
G01*
G37*
G36*
G01*
X54807700Y-108803300D02*
X54807700Y-109103300D01*
G75*
G02*
X54657700Y-109253300I-150000J0D01*
G01*
X52907700Y-109253300D01*
G75*
G02*
X52757700Y-109103300I0J150000D01*
G01*
X52757700Y-108803300D01*
G75*
G02*
X52907700Y-108653300I150000J0D01*
G01*
X54657700Y-108653300D01*
G75*
G02*
X54807700Y-108803300I0J-150000D01*
G01*
G37*
G36*
G01*
X54807700Y-107533300D02*
X54807700Y-107833300D01*
G75*
G02*
X54657700Y-107983300I-150000J0D01*
G01*
X52907700Y-107983300D01*
G75*
G02*
X52757700Y-107833300I0J150000D01*
G01*
X52757700Y-107533300D01*
G75*
G02*
X52907700Y-107383300I150000J0D01*
G01*
X54657700Y-107383300D01*
G75*
G02*
X54807700Y-107533300I0J-150000D01*
G01*
G37*
G36*
G01*
X54807700Y-106263300D02*
X54807700Y-106563300D01*
G75*
G02*
X54657700Y-106713300I-150000J0D01*
G01*
X52907700Y-106713300D01*
G75*
G02*
X52757700Y-106563300I0J150000D01*
G01*
X52757700Y-106263300D01*
G75*
G02*
X52907700Y-106113300I150000J0D01*
G01*
X54657700Y-106113300D01*
G75*
G02*
X54807700Y-106263300I0J-150000D01*
G01*
G37*
G36*
G01*
X54807700Y-104993300D02*
X54807700Y-105293300D01*
G75*
G02*
X54657700Y-105443300I-150000J0D01*
G01*
X52907700Y-105443300D01*
G75*
G02*
X52757700Y-105293300I0J150000D01*
G01*
X52757700Y-104993300D01*
G75*
G02*
X52907700Y-104843300I150000J0D01*
G01*
X54657700Y-104843300D01*
G75*
G02*
X54807700Y-104993300I0J-150000D01*
G01*
G37*
G36*
G01*
X54807700Y-103723300D02*
X54807700Y-104023300D01*
G75*
G02*
X54657700Y-104173300I-150000J0D01*
G01*
X52907700Y-104173300D01*
G75*
G02*
X52757700Y-104023300I0J150000D01*
G01*
X52757700Y-103723300D01*
G75*
G02*
X52907700Y-103573300I150000J0D01*
G01*
X54657700Y-103573300D01*
G75*
G02*
X54807700Y-103723300I0J-150000D01*
G01*
G37*
G36*
G01*
X54807700Y-102453300D02*
X54807700Y-102753300D01*
G75*
G02*
X54657700Y-102903300I-150000J0D01*
G01*
X52907700Y-102903300D01*
G75*
G02*
X52757700Y-102753300I0J150000D01*
G01*
X52757700Y-102453300D01*
G75*
G02*
X52907700Y-102303300I150000J0D01*
G01*
X54657700Y-102303300D01*
G75*
G02*
X54807700Y-102453300I0J-150000D01*
G01*
G37*
G36*
G01*
X54807700Y-101183300D02*
X54807700Y-101483300D01*
G75*
G02*
X54657700Y-101633300I-150000J0D01*
G01*
X52907700Y-101633300D01*
G75*
G02*
X52757700Y-101483300I0J150000D01*
G01*
X52757700Y-101183300D01*
G75*
G02*
X52907700Y-101033300I150000J0D01*
G01*
X54657700Y-101033300D01*
G75*
G02*
X54807700Y-101183300I0J-150000D01*
G01*
G37*
G36*
G01*
X64107700Y-101183300D02*
X64107700Y-101483300D01*
G75*
G02*
X63957700Y-101633300I-150000J0D01*
G01*
X62207700Y-101633300D01*
G75*
G02*
X62057700Y-101483300I0J150000D01*
G01*
X62057700Y-101183300D01*
G75*
G02*
X62207700Y-101033300I150000J0D01*
G01*
X63957700Y-101033300D01*
G75*
G02*
X64107700Y-101183300I0J-150000D01*
G01*
G37*
G36*
G01*
X64107700Y-102453300D02*
X64107700Y-102753300D01*
G75*
G02*
X63957700Y-102903300I-150000J0D01*
G01*
X62207700Y-102903300D01*
G75*
G02*
X62057700Y-102753300I0J150000D01*
G01*
X62057700Y-102453300D01*
G75*
G02*
X62207700Y-102303300I150000J0D01*
G01*
X63957700Y-102303300D01*
G75*
G02*
X64107700Y-102453300I0J-150000D01*
G01*
G37*
G36*
G01*
X64107700Y-103723300D02*
X64107700Y-104023300D01*
G75*
G02*
X63957700Y-104173300I-150000J0D01*
G01*
X62207700Y-104173300D01*
G75*
G02*
X62057700Y-104023300I0J150000D01*
G01*
X62057700Y-103723300D01*
G75*
G02*
X62207700Y-103573300I150000J0D01*
G01*
X63957700Y-103573300D01*
G75*
G02*
X64107700Y-103723300I0J-150000D01*
G01*
G37*
G36*
G01*
X64107700Y-104993300D02*
X64107700Y-105293300D01*
G75*
G02*
X63957700Y-105443300I-150000J0D01*
G01*
X62207700Y-105443300D01*
G75*
G02*
X62057700Y-105293300I0J150000D01*
G01*
X62057700Y-104993300D01*
G75*
G02*
X62207700Y-104843300I150000J0D01*
G01*
X63957700Y-104843300D01*
G75*
G02*
X64107700Y-104993300I0J-150000D01*
G01*
G37*
G36*
G01*
X64107700Y-106263300D02*
X64107700Y-106563300D01*
G75*
G02*
X63957700Y-106713300I-150000J0D01*
G01*
X62207700Y-106713300D01*
G75*
G02*
X62057700Y-106563300I0J150000D01*
G01*
X62057700Y-106263300D01*
G75*
G02*
X62207700Y-106113300I150000J0D01*
G01*
X63957700Y-106113300D01*
G75*
G02*
X64107700Y-106263300I0J-150000D01*
G01*
G37*
G36*
G01*
X64107700Y-107533300D02*
X64107700Y-107833300D01*
G75*
G02*
X63957700Y-107983300I-150000J0D01*
G01*
X62207700Y-107983300D01*
G75*
G02*
X62057700Y-107833300I0J150000D01*
G01*
X62057700Y-107533300D01*
G75*
G02*
X62207700Y-107383300I150000J0D01*
G01*
X63957700Y-107383300D01*
G75*
G02*
X64107700Y-107533300I0J-150000D01*
G01*
G37*
G36*
G01*
X64107700Y-108803300D02*
X64107700Y-109103300D01*
G75*
G02*
X63957700Y-109253300I-150000J0D01*
G01*
X62207700Y-109253300D01*
G75*
G02*
X62057700Y-109103300I0J150000D01*
G01*
X62057700Y-108803300D01*
G75*
G02*
X62207700Y-108653300I150000J0D01*
G01*
X63957700Y-108653300D01*
G75*
G02*
X64107700Y-108803300I0J-150000D01*
G01*
G37*
G36*
G01*
X64107700Y-110073300D02*
X64107700Y-110373300D01*
G75*
G02*
X63957700Y-110523300I-150000J0D01*
G01*
X62207700Y-110523300D01*
G75*
G02*
X62057700Y-110373300I0J150000D01*
G01*
X62057700Y-110073300D01*
G75*
G02*
X62207700Y-109923300I150000J0D01*
G01*
X63957700Y-109923300D01*
G75*
G02*
X64107700Y-110073300I0J-150000D01*
G01*
G37*
G36*
G01*
X64107700Y-111343300D02*
X64107700Y-111643300D01*
G75*
G02*
X63957700Y-111793300I-150000J0D01*
G01*
X62207700Y-111793300D01*
G75*
G02*
X62057700Y-111643300I0J150000D01*
G01*
X62057700Y-111343300D01*
G75*
G02*
X62207700Y-111193300I150000J0D01*
G01*
X63957700Y-111193300D01*
G75*
G02*
X64107700Y-111343300I0J-150000D01*
G01*
G37*
G36*
G01*
X64107700Y-112613300D02*
X64107700Y-112913300D01*
G75*
G02*
X63957700Y-113063300I-150000J0D01*
G01*
X62207700Y-113063300D01*
G75*
G02*
X62057700Y-112913300I0J150000D01*
G01*
X62057700Y-112613300D01*
G75*
G02*
X62207700Y-112463300I150000J0D01*
G01*
X63957700Y-112463300D01*
G75*
G02*
X64107700Y-112613300I0J-150000D01*
G01*
G37*
G36*
G01*
X64107700Y-113883300D02*
X64107700Y-114183300D01*
G75*
G02*
X63957700Y-114333300I-150000J0D01*
G01*
X62207700Y-114333300D01*
G75*
G02*
X62057700Y-114183300I0J150000D01*
G01*
X62057700Y-113883300D01*
G75*
G02*
X62207700Y-113733300I150000J0D01*
G01*
X63957700Y-113733300D01*
G75*
G02*
X64107700Y-113883300I0J-150000D01*
G01*
G37*
G36*
G01*
X64107700Y-115153300D02*
X64107700Y-115453300D01*
G75*
G02*
X63957700Y-115603300I-150000J0D01*
G01*
X62207700Y-115603300D01*
G75*
G02*
X62057700Y-115453300I0J150000D01*
G01*
X62057700Y-115153300D01*
G75*
G02*
X62207700Y-115003300I150000J0D01*
G01*
X63957700Y-115003300D01*
G75*
G02*
X64107700Y-115153300I0J-150000D01*
G01*
G37*
G36*
G01*
X64107700Y-116423300D02*
X64107700Y-116723300D01*
G75*
G02*
X63957700Y-116873300I-150000J0D01*
G01*
X62207700Y-116873300D01*
G75*
G02*
X62057700Y-116723300I0J150000D01*
G01*
X62057700Y-116423300D01*
G75*
G02*
X62207700Y-116273300I150000J0D01*
G01*
X63957700Y-116273300D01*
G75*
G02*
X64107700Y-116423300I0J-150000D01*
G01*
G37*
G36*
G01*
X64107700Y-117693300D02*
X64107700Y-117993300D01*
G75*
G02*
X63957700Y-118143300I-150000J0D01*
G01*
X62207700Y-118143300D01*
G75*
G02*
X62057700Y-117993300I0J150000D01*
G01*
X62057700Y-117693300D01*
G75*
G02*
X62207700Y-117543300I150000J0D01*
G01*
X63957700Y-117543300D01*
G75*
G02*
X64107700Y-117693300I0J-150000D01*
G01*
G37*
%TD*%
D10*
%TO.C,C3*%
X57182700Y-98094800D03*
X59682700Y-98094800D03*
%TD*%
D11*
%TO.C,LD0\u002C4*%
X106337700Y-182362300D03*
D12*
X106137700Y-180962300D03*
D11*
X106337700Y-179562300D03*
D12*
X103437700Y-180962300D03*
D11*
X103237700Y-179562300D03*
X103237700Y-182362300D03*
D13*
X104787700Y-182292300D03*
D14*
X104787700Y-179272300D03*
%TD*%
D11*
%TO.C,LD0\u002C0*%
X94526700Y-84572300D03*
D12*
X94326700Y-83172300D03*
D11*
X94526700Y-81772300D03*
D12*
X91626700Y-83172300D03*
D11*
X91426700Y-81772300D03*
X91426700Y-84572300D03*
D13*
X92976700Y-84502300D03*
D14*
X92976700Y-81482300D03*
%TD*%
D11*
%TO.C,LD0\u002C3*%
X101575200Y-161597800D03*
D12*
X101375200Y-160197800D03*
D11*
X101575200Y-158797800D03*
D12*
X98675200Y-160197800D03*
D11*
X98475200Y-158797800D03*
X98475200Y-161597800D03*
D13*
X100025200Y-161527800D03*
D14*
X100025200Y-158507800D03*
%TD*%
D11*
%TO.C,LD0\u002C5*%
X96939700Y-200713800D03*
D12*
X96739700Y-199313800D03*
D11*
X96939700Y-197913800D03*
D12*
X94039700Y-199313800D03*
D11*
X93839700Y-197913800D03*
X93839700Y-200713800D03*
D13*
X95389700Y-200643800D03*
D14*
X95389700Y-197623800D03*
%TD*%
D11*
%TO.C,LD0\u002C1*%
X94526700Y-122862800D03*
D12*
X94326700Y-121462800D03*
D11*
X94526700Y-120062800D03*
D12*
X91626700Y-121462800D03*
D11*
X91426700Y-120062800D03*
X91426700Y-122862800D03*
D13*
X92976700Y-122792800D03*
D14*
X92976700Y-119772800D03*
%TD*%
D11*
%TO.C,LD0\u002C2*%
X99035200Y-141785800D03*
D12*
X98835200Y-140385800D03*
D11*
X99035200Y-138985800D03*
D12*
X96135200Y-140385800D03*
D11*
X95935200Y-138985800D03*
X95935200Y-141785800D03*
D13*
X97485200Y-141715800D03*
D14*
X97485200Y-138695800D03*
%TD*%
D11*
%TO.C,LD1\u002C2*%
X123165200Y-142090600D03*
D12*
X122965200Y-140690600D03*
D11*
X123165200Y-139290600D03*
D12*
X120265200Y-140690600D03*
D11*
X120065200Y-139290600D03*
X120065200Y-142090600D03*
D13*
X121615200Y-142020600D03*
D14*
X121615200Y-139000600D03*
%TD*%
D11*
%TO.C,LD1\u002C5*%
X121514200Y-200764600D03*
D12*
X121314200Y-199364600D03*
D11*
X121514200Y-197964600D03*
D12*
X118614200Y-199364600D03*
D11*
X118414200Y-197964600D03*
X118414200Y-200764600D03*
D13*
X119964200Y-200694600D03*
D14*
X119964200Y-197674600D03*
%TD*%
D11*
%TO.C,LD1\u002C3*%
X128054700Y-161521600D03*
D12*
X127854700Y-160121600D03*
D11*
X128054700Y-158721600D03*
D12*
X125154700Y-160121600D03*
D11*
X124954700Y-158721600D03*
X124954700Y-161521600D03*
D13*
X126504700Y-161451600D03*
D14*
X126504700Y-158431600D03*
%TD*%
D11*
%TO.C,LD1\u002C1*%
X113741800Y-122862800D03*
D12*
X113541800Y-121462800D03*
D11*
X113741800Y-120062800D03*
D12*
X110841800Y-121462800D03*
D11*
X110641800Y-120062800D03*
X110641800Y-122862800D03*
D13*
X112191800Y-122792800D03*
D14*
X112191800Y-119772800D03*
%TD*%
D11*
%TO.C,LD1\u002C4*%
X137452700Y-181333600D03*
D12*
X137252700Y-179933600D03*
D11*
X137452700Y-178533600D03*
D12*
X134552700Y-179933600D03*
D11*
X134352700Y-178533600D03*
X134352700Y-181333600D03*
D13*
X135902700Y-181263600D03*
D14*
X135902700Y-178243600D03*
%TD*%
D11*
%TO.C,LD1\u002C0*%
X134531700Y-84686600D03*
D12*
X134331700Y-83286600D03*
D11*
X134531700Y-81886600D03*
D12*
X131631700Y-83286600D03*
D11*
X131431700Y-81886600D03*
X131431700Y-84686600D03*
D13*
X132981700Y-84616600D03*
D14*
X132981700Y-81596600D03*
%TD*%
D11*
%TO.C,LD2\u002C2*%
X142469200Y-142090600D03*
D12*
X142269200Y-140690600D03*
D11*
X142469200Y-139290600D03*
D12*
X139569200Y-140690600D03*
D11*
X139369200Y-139290600D03*
X139369200Y-142090600D03*
D13*
X140919200Y-142020600D03*
D14*
X140919200Y-139000600D03*
%TD*%
D11*
%TO.C,LD2\u002C1*%
X132944200Y-122850100D03*
D12*
X132744200Y-121450100D03*
D11*
X132944200Y-120050100D03*
D12*
X130044200Y-121450100D03*
D11*
X129844200Y-120050100D03*
X129844200Y-122850100D03*
D13*
X131394200Y-122780100D03*
D14*
X131394200Y-119760100D03*
%TD*%
D11*
%TO.C,LD2\u002C0*%
X153835700Y-84686600D03*
D12*
X153635700Y-83286600D03*
D11*
X153835700Y-81886600D03*
D12*
X150935700Y-83286600D03*
D11*
X150735700Y-81886600D03*
X150735700Y-84686600D03*
D13*
X152285700Y-84616600D03*
D14*
X152285700Y-81596600D03*
%TD*%
D11*
%TO.C,LD2\u002C4*%
X156616700Y-181333600D03*
D12*
X156416700Y-179933600D03*
D11*
X156616700Y-178533600D03*
D12*
X153716700Y-179933600D03*
D11*
X153516700Y-178533600D03*
X153516700Y-181333600D03*
D13*
X155066700Y-181263600D03*
D14*
X155066700Y-178243600D03*
%TD*%
D11*
%TO.C,LD2\u002C5*%
X145898200Y-200764600D03*
D12*
X145698200Y-199364600D03*
D11*
X145898200Y-197964600D03*
D12*
X142998200Y-199364600D03*
D11*
X142798200Y-197964600D03*
X142798200Y-200764600D03*
D13*
X144348200Y-200694600D03*
D14*
X144348200Y-197674600D03*
%TD*%
D11*
%TO.C,LD2\u002C3*%
X147358700Y-161521600D03*
D12*
X147158700Y-160121600D03*
D11*
X147358700Y-158721600D03*
D12*
X144458700Y-160121600D03*
D11*
X144258700Y-158721600D03*
X144258700Y-161521600D03*
D13*
X145808700Y-161451600D03*
D14*
X145808700Y-158431600D03*
%TD*%
D11*
%TO.C,LD3\u002C3*%
X166662700Y-161521600D03*
D12*
X166462700Y-160121600D03*
D11*
X166662700Y-158721600D03*
D12*
X163762700Y-160121600D03*
D11*
X163562700Y-158721600D03*
X163562700Y-161521600D03*
D13*
X165112700Y-161451600D03*
D14*
X165112700Y-158431600D03*
%TD*%
D11*
%TO.C,LD3\u002C5*%
X217780200Y-200764600D03*
D12*
X217580200Y-199364600D03*
D11*
X217780200Y-197964600D03*
D12*
X214880200Y-199364600D03*
D11*
X214680200Y-197964600D03*
X214680200Y-200764600D03*
D13*
X216230200Y-200694600D03*
D14*
X216230200Y-197674600D03*
%TD*%
D11*
%TO.C,LD3\u002C4*%
X176060700Y-181333600D03*
D12*
X175860700Y-179933600D03*
D11*
X176060700Y-178533600D03*
D12*
X173160700Y-179933600D03*
D11*
X172960700Y-178533600D03*
X172960700Y-181333600D03*
D13*
X174510700Y-181263600D03*
D14*
X174510700Y-178243600D03*
%TD*%
D11*
%TO.C,LD3\u002C2*%
X161773200Y-142090600D03*
D12*
X161573200Y-140690600D03*
D11*
X161773200Y-139290600D03*
D12*
X158873200Y-140690600D03*
D11*
X158673200Y-139290600D03*
X158673200Y-142090600D03*
D13*
X160223200Y-142020600D03*
D14*
X160223200Y-139000600D03*
%TD*%
D11*
%TO.C,LD3\u002C1*%
X151740200Y-122850100D03*
D12*
X151540200Y-121450100D03*
D11*
X151740200Y-120050100D03*
D12*
X148840200Y-121450100D03*
D11*
X148640200Y-120050100D03*
X148640200Y-122850100D03*
D13*
X150190200Y-122780100D03*
D14*
X150190200Y-119760100D03*
%TD*%
D11*
%TO.C,LD3\u002C0*%
X173139700Y-84686600D03*
D12*
X172939700Y-83286600D03*
D11*
X173139700Y-81886600D03*
D12*
X170239700Y-83286600D03*
D11*
X170039700Y-81886600D03*
X170039700Y-84686600D03*
D13*
X171589700Y-84616600D03*
D14*
X171589700Y-81596600D03*
%TD*%
D11*
%TO.C,LD4\u002C1*%
X171044200Y-122850100D03*
D12*
X170844200Y-121450100D03*
D11*
X171044200Y-120050100D03*
D12*
X168144200Y-121450100D03*
D11*
X167944200Y-120050100D03*
X167944200Y-122850100D03*
D13*
X169494200Y-122780100D03*
D14*
X169494200Y-119760100D03*
%TD*%
D11*
%TO.C,LD4\u002C2*%
X181077200Y-142090600D03*
D12*
X180877200Y-140690600D03*
D11*
X181077200Y-139290600D03*
D12*
X178177200Y-140690600D03*
D11*
X177977200Y-139290600D03*
X177977200Y-142090600D03*
D13*
X179527200Y-142020600D03*
D14*
X179527200Y-139000600D03*
%TD*%
D11*
%TO.C,LD4\u002C0*%
X192443700Y-84686600D03*
D12*
X192243700Y-83286600D03*
D11*
X192443700Y-81886600D03*
D12*
X189543700Y-83286600D03*
D11*
X189343700Y-81886600D03*
X189343700Y-84686600D03*
D13*
X190893700Y-84616600D03*
D14*
X190893700Y-81596600D03*
%TD*%
D11*
%TO.C,LD4\u002C4*%
X195364700Y-181333600D03*
D12*
X195164700Y-179933600D03*
D11*
X195364700Y-178533600D03*
D12*
X192464700Y-179933600D03*
D11*
X192264700Y-178533600D03*
X192264700Y-181333600D03*
D13*
X193814700Y-181263600D03*
D14*
X193814700Y-178243600D03*
%TD*%
D11*
%TO.C,LD4\u002C3*%
X185966700Y-161521600D03*
D12*
X185766700Y-160121600D03*
D11*
X185966700Y-158721600D03*
D12*
X183066700Y-160121600D03*
D11*
X182866700Y-158721600D03*
X182866700Y-161521600D03*
D13*
X184416700Y-161451600D03*
D14*
X184416700Y-158431600D03*
%TD*%
D11*
%TO.C,LD5\u002C3*%
X205270700Y-161521600D03*
D12*
X205070700Y-160121600D03*
D11*
X205270700Y-158721600D03*
D12*
X202370700Y-160121600D03*
D11*
X202170700Y-158721600D03*
X202170700Y-161521600D03*
D13*
X203720700Y-161451600D03*
D14*
X203720700Y-158431600D03*
%TD*%
D11*
%TO.C,LD5\u002C0*%
X223939700Y-84686600D03*
D12*
X223739700Y-83286600D03*
D11*
X223939700Y-81886600D03*
D12*
X221039700Y-83286600D03*
D11*
X220839700Y-81886600D03*
X220839700Y-84686600D03*
D13*
X222389700Y-84616600D03*
D14*
X222389700Y-81596600D03*
%TD*%
D11*
%TO.C,LD5\u002C4*%
X214668700Y-181333600D03*
D12*
X214468700Y-179933600D03*
D11*
X214668700Y-178533600D03*
D12*
X211768700Y-179933600D03*
D11*
X211568700Y-178533600D03*
X211568700Y-181333600D03*
D13*
X213118700Y-181263600D03*
D14*
X213118700Y-178243600D03*
%TD*%
D11*
%TO.C,LD5\u002C2*%
X200381200Y-142090600D03*
D12*
X200181200Y-140690600D03*
D11*
X200381200Y-139290600D03*
D12*
X197481200Y-140690600D03*
D11*
X197281200Y-139290600D03*
X197281200Y-142090600D03*
D13*
X198831200Y-142020600D03*
D14*
X198831200Y-139000600D03*
%TD*%
D11*
%TO.C,LD5\u002C1*%
X190348200Y-122850100D03*
D12*
X190148200Y-121450100D03*
D11*
X190348200Y-120050100D03*
D12*
X187448200Y-121450100D03*
D11*
X187248200Y-120050100D03*
X187248200Y-122850100D03*
D13*
X188798200Y-122780100D03*
D14*
X188798200Y-119760100D03*
%TD*%
D11*
%TO.C,LD6\u002C2*%
X219685200Y-142090600D03*
D12*
X219485200Y-140690600D03*
D11*
X219685200Y-139290600D03*
D12*
X216785200Y-140690600D03*
D11*
X216585200Y-139290600D03*
X216585200Y-142090600D03*
D13*
X218135200Y-142020600D03*
D14*
X218135200Y-139000600D03*
%TD*%
D11*
%TO.C,LD6\u002C0*%
X243243700Y-84686600D03*
D12*
X243043700Y-83286600D03*
D11*
X243243700Y-81886600D03*
D12*
X240343700Y-83286600D03*
D11*
X240143700Y-81886600D03*
X240143700Y-84686600D03*
D13*
X241693700Y-84616600D03*
D14*
X241693700Y-81596600D03*
%TD*%
D11*
%TO.C,LD6\u002C4*%
X233972700Y-181333600D03*
D12*
X233772700Y-179933600D03*
D11*
X233972700Y-178533600D03*
D12*
X231072700Y-179933600D03*
D11*
X230872700Y-178533600D03*
X230872700Y-181333600D03*
D13*
X232422700Y-181263600D03*
D14*
X232422700Y-178243600D03*
%TD*%
D11*
%TO.C,LD6\u002C3*%
X224574700Y-161521600D03*
D12*
X224374700Y-160121600D03*
D11*
X224574700Y-158721600D03*
D12*
X221674700Y-160121600D03*
D11*
X221474700Y-158721600D03*
X221474700Y-161521600D03*
D13*
X223024700Y-161451600D03*
D14*
X223024700Y-158431600D03*
%TD*%
D11*
%TO.C,LD6\u002C1*%
X209652200Y-122850100D03*
D12*
X209452200Y-121450100D03*
D11*
X209652200Y-120050100D03*
D12*
X206752200Y-121450100D03*
D11*
X206552200Y-120050100D03*
X206552200Y-122850100D03*
D13*
X208102200Y-122780100D03*
D14*
X208102200Y-119760100D03*
%TD*%
D11*
%TO.C,LD7\u002C0*%
X262547700Y-84686600D03*
D12*
X262347700Y-83286600D03*
D11*
X262547700Y-81886600D03*
D12*
X259647700Y-83286600D03*
D11*
X259447700Y-81886600D03*
X259447700Y-84686600D03*
D13*
X260997700Y-84616600D03*
D14*
X260997700Y-81596600D03*
%TD*%
D11*
%TO.C,LD7\u002C4*%
X253276700Y-181333600D03*
D12*
X253076700Y-179933600D03*
D11*
X253276700Y-178533600D03*
D12*
X250376700Y-179933600D03*
D11*
X250176700Y-178533600D03*
X250176700Y-181333600D03*
D13*
X251726700Y-181263600D03*
D14*
X251726700Y-178243600D03*
%TD*%
D11*
%TO.C,LD7\u002C3*%
X243878700Y-161521600D03*
D12*
X243678700Y-160121600D03*
D11*
X243878700Y-158721600D03*
D12*
X240978700Y-160121600D03*
D11*
X240778700Y-158721600D03*
X240778700Y-161521600D03*
D13*
X242328700Y-161451600D03*
D14*
X242328700Y-158431600D03*
%TD*%
D11*
%TO.C,LD7\u002C1*%
X228956200Y-122850100D03*
D12*
X228756200Y-121450100D03*
D11*
X228956200Y-120050100D03*
D12*
X226056200Y-121450100D03*
D11*
X225856200Y-120050100D03*
X225856200Y-122850100D03*
D13*
X227406200Y-122780100D03*
D14*
X227406200Y-119760100D03*
%TD*%
D11*
%TO.C,LD7\u002C2*%
X238989200Y-142090600D03*
D12*
X238789200Y-140690600D03*
D11*
X238989200Y-139290600D03*
D12*
X236089200Y-140690600D03*
D11*
X235889200Y-139290600D03*
X235889200Y-142090600D03*
D13*
X237439200Y-142020600D03*
D14*
X237439200Y-139000600D03*
%TD*%
D11*
%TO.C,LD8\u002C3*%
X263182700Y-161521600D03*
D12*
X262982700Y-160121600D03*
D11*
X263182700Y-158721600D03*
D12*
X260282700Y-160121600D03*
D11*
X260082700Y-158721600D03*
X260082700Y-161521600D03*
D13*
X261632700Y-161451600D03*
D14*
X261632700Y-158431600D03*
%TD*%
D11*
%TO.C,LD8\u002C4*%
X272580700Y-181333600D03*
D12*
X272380700Y-179933600D03*
D11*
X272580700Y-178533600D03*
D12*
X269680700Y-179933600D03*
D11*
X269480700Y-178533600D03*
X269480700Y-181333600D03*
D13*
X271030700Y-181263600D03*
D14*
X271030700Y-178243600D03*
%TD*%
D11*
%TO.C,LD8\u002C0*%
X281851700Y-84686600D03*
D12*
X281651700Y-83286600D03*
D11*
X281851700Y-81886600D03*
D12*
X278951700Y-83286600D03*
D11*
X278751700Y-81886600D03*
X278751700Y-84686600D03*
D13*
X280301700Y-84616600D03*
D14*
X280301700Y-81596600D03*
%TD*%
D11*
%TO.C,LD8\u002C2*%
X258293200Y-142090600D03*
D12*
X258093200Y-140690600D03*
D11*
X258293200Y-139290600D03*
D12*
X255393200Y-140690600D03*
D11*
X255193200Y-139290600D03*
X255193200Y-142090600D03*
D13*
X256743200Y-142020600D03*
D14*
X256743200Y-139000600D03*
%TD*%
D11*
%TO.C,LD8\u002C1*%
X248260200Y-122850100D03*
D12*
X248060200Y-121450100D03*
D11*
X248260200Y-120050100D03*
D12*
X245360200Y-121450100D03*
D11*
X245160200Y-120050100D03*
X245160200Y-122850100D03*
D13*
X246710200Y-122780100D03*
D14*
X246710200Y-119760100D03*
%TD*%
D11*
%TO.C,LD8\u002C5*%
X289535200Y-200873399D03*
D12*
X289335200Y-199473399D03*
D11*
X289535200Y-198073399D03*
D12*
X286635200Y-199473399D03*
D11*
X286435200Y-198073399D03*
X286435200Y-200873399D03*
D13*
X287985200Y-200803399D03*
D14*
X287985200Y-197783399D03*
%TD*%
D11*
%TO.C,LD9\u002C0*%
X308267700Y-84686600D03*
D12*
X308067700Y-83286600D03*
D11*
X308267700Y-81886600D03*
D12*
X305367700Y-83286600D03*
D11*
X305167700Y-81886600D03*
X305167700Y-84686600D03*
D13*
X306717700Y-84616600D03*
D14*
X306717700Y-81596600D03*
%TD*%
D11*
%TO.C,LD9\u002C1*%
X267564200Y-122850100D03*
D12*
X267364200Y-121450100D03*
D11*
X267564200Y-120050100D03*
D12*
X264664200Y-121450100D03*
D11*
X264464200Y-120050100D03*
X264464200Y-122850100D03*
D13*
X266014200Y-122780100D03*
D14*
X266014200Y-119760100D03*
%TD*%
D11*
%TO.C,LD9\u002C4*%
X291884700Y-181333600D03*
D12*
X291684700Y-179933600D03*
D11*
X291884700Y-178533600D03*
D12*
X288984700Y-179933600D03*
D11*
X288784700Y-178533600D03*
X288784700Y-181333600D03*
D13*
X290334700Y-181263600D03*
D14*
X290334700Y-178243600D03*
%TD*%
D11*
%TO.C,LD9\u002C3*%
X282486700Y-161521600D03*
D12*
X282286700Y-160121600D03*
D11*
X282486700Y-158721600D03*
D12*
X279586700Y-160121600D03*
D11*
X279386700Y-158721600D03*
X279386700Y-161521600D03*
D13*
X280936700Y-161451600D03*
D14*
X280936700Y-158431600D03*
%TD*%
D11*
%TO.C,LD9\u002C5*%
X313665200Y-200764600D03*
D12*
X313465200Y-199364600D03*
D11*
X313665200Y-197964600D03*
D12*
X310765200Y-199364600D03*
D11*
X310565200Y-197964600D03*
X310565200Y-200764600D03*
D13*
X312115200Y-200694600D03*
D14*
X312115200Y-197674600D03*
%TD*%
D11*
%TO.C,LD9\u002C2*%
X277597200Y-142090600D03*
D12*
X277397200Y-140690600D03*
D11*
X277597200Y-139290600D03*
D12*
X274697200Y-140690600D03*
D11*
X274497200Y-139290600D03*
X274497200Y-142090600D03*
D13*
X276047200Y-142020600D03*
D14*
X276047200Y-139000600D03*
%TD*%
D11*
%TO.C,LD10\u002C0*%
X327571700Y-84686600D03*
D12*
X327371700Y-83286600D03*
D11*
X327571700Y-81886600D03*
D12*
X324671700Y-83286600D03*
D11*
X324471700Y-81886600D03*
X324471700Y-84686600D03*
D13*
X326021700Y-84616600D03*
D14*
X326021700Y-81596600D03*
%TD*%
D11*
%TO.C,LD10\u002C5*%
X337858700Y-200764600D03*
D12*
X337658700Y-199364600D03*
D11*
X337858700Y-197964600D03*
D12*
X334958700Y-199364600D03*
D11*
X334758700Y-197964600D03*
X334758700Y-200764600D03*
D13*
X336308700Y-200694600D03*
D14*
X336308700Y-197674600D03*
%TD*%
D11*
%TO.C,LD10\u002C1*%
X286868200Y-122850100D03*
D12*
X286668200Y-121450100D03*
D11*
X286868200Y-120050100D03*
D12*
X283968200Y-121450100D03*
D11*
X283768200Y-120050100D03*
X283768200Y-122850100D03*
D13*
X285318200Y-122780100D03*
D14*
X285318200Y-119760100D03*
%TD*%
D11*
%TO.C,LD10\u002C2*%
X296901200Y-142090600D03*
D12*
X296701200Y-140690600D03*
D11*
X296901200Y-139290600D03*
D12*
X294001200Y-140690600D03*
D11*
X293801200Y-139290600D03*
X293801200Y-142090600D03*
D13*
X295351200Y-142020600D03*
D14*
X295351200Y-139000600D03*
%TD*%
D11*
%TO.C,LD10\u002C4*%
X311188700Y-181333600D03*
D12*
X310988700Y-179933600D03*
D11*
X311188700Y-178533600D03*
D12*
X308288700Y-179933600D03*
D11*
X308088700Y-178533600D03*
X308088700Y-181333600D03*
D13*
X309638700Y-181263600D03*
D14*
X309638700Y-178243600D03*
%TD*%
D11*
%TO.C,LD10\u002C3*%
X301790700Y-161521600D03*
D12*
X301590700Y-160121600D03*
D11*
X301790700Y-158721600D03*
D12*
X298890700Y-160121600D03*
D11*
X298690700Y-158721600D03*
X298690700Y-161521600D03*
D13*
X300240700Y-161451600D03*
D14*
X300240700Y-158431600D03*
%TD*%
D11*
%TO.C,LD11\u002C1*%
X306172200Y-122850100D03*
D12*
X305972200Y-121450100D03*
D11*
X306172200Y-120050100D03*
D12*
X303272200Y-121450100D03*
D11*
X303072200Y-120050100D03*
X303072200Y-122850100D03*
D13*
X304622200Y-122780100D03*
D14*
X304622200Y-119760100D03*
%TD*%
D11*
%TO.C,LD11\u002C3*%
X321094700Y-161521600D03*
D12*
X320894700Y-160121600D03*
D11*
X321094700Y-158721600D03*
D12*
X318194700Y-160121600D03*
D11*
X317994700Y-158721600D03*
X317994700Y-161521600D03*
D13*
X319544700Y-161451600D03*
D14*
X319544700Y-158431600D03*
%TD*%
D11*
%TO.C,LD11\u002C0*%
X346875700Y-84686600D03*
D12*
X346675700Y-83286600D03*
D11*
X346875700Y-81886600D03*
D12*
X343975700Y-83286600D03*
D11*
X343775700Y-81886600D03*
X343775700Y-84686600D03*
D13*
X345325700Y-84616600D03*
D14*
X345325700Y-81596600D03*
%TD*%
D11*
%TO.C,LD11\u002C5*%
X361925200Y-200764600D03*
D12*
X361725200Y-199364600D03*
D11*
X361925200Y-197964600D03*
D12*
X359025200Y-199364600D03*
D11*
X358825200Y-197964600D03*
X358825200Y-200764600D03*
D13*
X360375200Y-200694600D03*
D14*
X360375200Y-197674600D03*
%TD*%
D11*
%TO.C,LD11\u002C2*%
X316205200Y-142090600D03*
D12*
X316005200Y-140690600D03*
D11*
X316205200Y-139290600D03*
D12*
X313305200Y-140690600D03*
D11*
X313105200Y-139290600D03*
X313105200Y-142090600D03*
D13*
X314655200Y-142020600D03*
D14*
X314655200Y-139000600D03*
%TD*%
D11*
%TO.C,LD11\u002C4*%
X347574200Y-181333600D03*
D12*
X347374200Y-179933600D03*
D11*
X347574200Y-178533600D03*
D12*
X344674200Y-179933600D03*
D11*
X344474200Y-178533600D03*
X344474200Y-181333600D03*
D13*
X346024200Y-181263600D03*
D14*
X346024200Y-178243600D03*
%TD*%
D11*
%TO.C,LD12\u002C2*%
X335509200Y-142090600D03*
D12*
X335309200Y-140690600D03*
D11*
X335509200Y-139290600D03*
D12*
X332609200Y-140690600D03*
D11*
X332409200Y-139290600D03*
X332409200Y-142090600D03*
D13*
X333959200Y-142020600D03*
D14*
X333959200Y-139000600D03*
%TD*%
D11*
%TO.C,LD12\u002C3*%
X352400200Y-163058300D03*
D12*
X352200200Y-161658300D03*
D11*
X352400200Y-160258300D03*
D12*
X349500200Y-161658300D03*
D11*
X349300200Y-160258300D03*
X349300200Y-163058300D03*
D13*
X350850200Y-162988300D03*
D14*
X350850200Y-159968300D03*
%TD*%
D11*
%TO.C,LD12\u002C1*%
X325476200Y-122850100D03*
D12*
X325276200Y-121450100D03*
D11*
X325476200Y-120050100D03*
D12*
X322576200Y-121450100D03*
D11*
X322376200Y-120050100D03*
X322376200Y-122850100D03*
D13*
X323926200Y-122780100D03*
D14*
X323926200Y-119760100D03*
%TD*%
D11*
%TO.C,LD12\u002C0*%
X366179700Y-84686600D03*
D12*
X365979700Y-83286600D03*
D11*
X366179700Y-81886600D03*
D12*
X363279700Y-83286600D03*
D11*
X363079700Y-81886600D03*
X363079700Y-84686600D03*
D13*
X364629700Y-84616600D03*
D14*
X364629700Y-81596600D03*
%TD*%
D11*
%TO.C,LD13\u002C2*%
X360464700Y-142154100D03*
D12*
X360264700Y-140754100D03*
D11*
X360464700Y-139354100D03*
D12*
X357564700Y-140754100D03*
D11*
X357364700Y-139354100D03*
X357364700Y-142154100D03*
D13*
X358914700Y-142084100D03*
D14*
X358914700Y-139064100D03*
%TD*%
D11*
%TO.C,LD13\u002C1*%
X354241700Y-122850100D03*
D12*
X354041700Y-121450100D03*
D11*
X354241700Y-120050100D03*
D12*
X351341700Y-121450100D03*
D11*
X351141700Y-120050100D03*
X351141700Y-122850100D03*
D13*
X352691700Y-122780100D03*
D14*
X352691700Y-119760100D03*
%TD*%
D11*
%TO.C,LD14\u002C6*%
X392468700Y-200637600D03*
D12*
X392268700Y-199237600D03*
D11*
X392468700Y-197837600D03*
D12*
X389568700Y-199237600D03*
D11*
X389368700Y-197837600D03*
X389368700Y-200637600D03*
D13*
X390918700Y-200567600D03*
D14*
X390918700Y-197547600D03*
%TD*%
D11*
%TO.C,LD14\u002C0*%
X395643700Y-84686600D03*
D12*
X395443700Y-83286600D03*
D11*
X395643700Y-81886600D03*
D12*
X392743700Y-83286600D03*
D11*
X392543700Y-81886600D03*
X392543700Y-84686600D03*
D13*
X394093700Y-84616600D03*
D14*
X394093700Y-81596600D03*
%TD*%
D11*
%TO.C,LD14\u002C3*%
X392532200Y-142090600D03*
D12*
X392332200Y-140690600D03*
D11*
X392532200Y-139290600D03*
D12*
X389632200Y-140690600D03*
D11*
X389432200Y-139290600D03*
X389432200Y-142090600D03*
D13*
X390982200Y-142020600D03*
D14*
X390982200Y-139000600D03*
%TD*%
D11*
%TO.C,LD14\u002C1*%
X392532200Y-122850100D03*
D12*
X392332200Y-121450100D03*
D11*
X392532200Y-120050100D03*
D12*
X389632200Y-121450100D03*
D11*
X389432200Y-120050100D03*
X389432200Y-122850100D03*
D13*
X390982200Y-122780100D03*
D14*
X390982200Y-119760100D03*
%TD*%
D11*
%TO.C,LD15\u002C1*%
X411836200Y-122850100D03*
D12*
X411636200Y-121450100D03*
D11*
X411836200Y-120050100D03*
D12*
X408936200Y-121450100D03*
D11*
X408736200Y-120050100D03*
X408736200Y-122850100D03*
D13*
X410286200Y-122780100D03*
D14*
X410286200Y-119760100D03*
%TD*%
D11*
%TO.C,LD15\u002C3*%
X411836200Y-142090600D03*
D12*
X411636200Y-140690600D03*
D11*
X411836200Y-139290600D03*
D12*
X408936200Y-140690600D03*
D11*
X408736200Y-139290600D03*
X408736200Y-142090600D03*
D13*
X410286200Y-142020600D03*
D14*
X410286200Y-139000600D03*
%TD*%
D11*
%TO.C,LD15\u002C6*%
X411772700Y-200637600D03*
D12*
X411572700Y-199237600D03*
D11*
X411772700Y-197837600D03*
D12*
X408872700Y-199237600D03*
D11*
X408672700Y-197837600D03*
X408672700Y-200637600D03*
D13*
X410222700Y-200567600D03*
D14*
X410222700Y-197547600D03*
%TD*%
D11*
%TO.C,LD15\u002C5*%
X411772700Y-181282800D03*
D12*
X411572700Y-179882800D03*
D11*
X411772700Y-178482800D03*
D12*
X408872700Y-179882800D03*
D11*
X408672700Y-178482800D03*
X408672700Y-181282800D03*
D13*
X410222700Y-181212800D03*
D14*
X410222700Y-178192800D03*
%TD*%
D11*
%TO.C,LD15\u002C0*%
X415201700Y-84686600D03*
D12*
X415001700Y-83286600D03*
D11*
X415201700Y-81886600D03*
D12*
X412301700Y-83286600D03*
D11*
X412101700Y-81886600D03*
X412101700Y-84686600D03*
D13*
X413651700Y-84616600D03*
D14*
X413651700Y-81596600D03*
%TD*%
D11*
%TO.C,LD16\u002C4*%
X464160200Y-161521600D03*
D12*
X463960200Y-160121600D03*
D11*
X464160200Y-158721600D03*
D12*
X461260200Y-160121600D03*
D11*
X461060200Y-158721600D03*
X461060200Y-161521600D03*
D13*
X462610200Y-161451600D03*
D14*
X462610200Y-158431600D03*
%TD*%
D11*
%TO.C,LD16\u002C0*%
X434505700Y-84686600D03*
D12*
X434305700Y-83286600D03*
D11*
X434505700Y-81886600D03*
D12*
X431605700Y-83286600D03*
D11*
X431405700Y-81886600D03*
X431405700Y-84686600D03*
D13*
X432955700Y-84616600D03*
D14*
X432955700Y-81596600D03*
%TD*%
D11*
%TO.C,LD16\u002C6*%
X431076700Y-200637600D03*
D12*
X430876700Y-199237600D03*
D11*
X431076700Y-197837600D03*
D12*
X428176700Y-199237600D03*
D11*
X427976700Y-197837600D03*
X427976700Y-200637600D03*
D13*
X429526700Y-200567600D03*
D14*
X429526700Y-197547600D03*
%TD*%
D11*
%TO.C,LD16\u002C1*%
X431218400Y-123205399D03*
D12*
X431018400Y-121805399D03*
D11*
X431218400Y-120405399D03*
D12*
X428318400Y-121805399D03*
D11*
X428118400Y-120405399D03*
X428118400Y-123205399D03*
D13*
X429668400Y-123135399D03*
D14*
X429668400Y-120115399D03*
%TD*%
D11*
%TO.C,LD16\u002C3*%
X431140200Y-142090600D03*
D12*
X430940200Y-140690600D03*
D11*
X431140200Y-139290600D03*
D12*
X428240200Y-140690600D03*
D11*
X428040200Y-139290600D03*
X428040200Y-142090600D03*
D13*
X429590200Y-142020600D03*
D14*
X429590200Y-139000600D03*
%TD*%
D11*
%TO.C,LD16\u002C5*%
X464414200Y-180825600D03*
D12*
X464214200Y-179425600D03*
D11*
X464414200Y-178025600D03*
D12*
X461514200Y-179425600D03*
D11*
X461314200Y-178025600D03*
X461314200Y-180825600D03*
D13*
X462864200Y-180755600D03*
D14*
X462864200Y-177735600D03*
%TD*%
D11*
%TO.C,LD17\u002C7*%
X464033200Y-110213600D03*
D12*
X463833200Y-108813600D03*
D11*
X464033200Y-107413600D03*
D12*
X461133200Y-108813600D03*
D11*
X460933200Y-107413600D03*
X460933200Y-110213600D03*
D13*
X462483200Y-110143600D03*
D14*
X462483200Y-107123600D03*
%TD*%
D11*
%TO.C,LD17\u002C0*%
X464033200Y-84813600D03*
D12*
X463833200Y-83413600D03*
D11*
X464033200Y-82013600D03*
D12*
X461133200Y-83413600D03*
D11*
X460933200Y-82013600D03*
X460933200Y-84813600D03*
D13*
X462483200Y-84743600D03*
D14*
X462483200Y-81723600D03*
%TD*%
D11*
%TO.C,LD17\u002C1*%
X464160200Y-122850100D03*
D12*
X463960200Y-121450100D03*
D11*
X464160200Y-120050100D03*
D12*
X461260200Y-121450100D03*
D11*
X461060200Y-120050100D03*
X461060200Y-122850100D03*
D13*
X462610200Y-122780100D03*
D14*
X462610200Y-119760100D03*
%TD*%
D11*
%TO.C,LD17\u002C5*%
X483464200Y-180825600D03*
D12*
X483264200Y-179425600D03*
D11*
X483464200Y-178025600D03*
D12*
X480564200Y-179425600D03*
D11*
X480364200Y-178025600D03*
X480364200Y-180825600D03*
D13*
X481914200Y-180755600D03*
D14*
X481914200Y-177735600D03*
%TD*%
D11*
%TO.C,LD17\u002C6*%
X473939200Y-200129600D03*
D12*
X473739200Y-198729600D03*
D11*
X473939200Y-197329600D03*
D12*
X471039200Y-198729600D03*
D11*
X470839200Y-197329600D03*
X470839200Y-200129600D03*
D13*
X472389200Y-200059600D03*
D14*
X472389200Y-197039600D03*
%TD*%
D11*
%TO.C,LD17\u002C3*%
X464160200Y-142217600D03*
D12*
X463960200Y-140817600D03*
D11*
X464160200Y-139417600D03*
D12*
X461260200Y-140817600D03*
D11*
X461060200Y-139417600D03*
X461060200Y-142217600D03*
D13*
X462610200Y-142147600D03*
D14*
X462610200Y-139127600D03*
%TD*%
D11*
%TO.C,LD17\u002C4*%
X483464200Y-161521600D03*
D12*
X483264200Y-160121600D03*
D11*
X483464200Y-158721600D03*
D12*
X480564200Y-160121600D03*
D11*
X480364200Y-158721600D03*
X480364200Y-161521600D03*
D13*
X481914200Y-161451600D03*
D14*
X481914200Y-158431600D03*
%TD*%
D11*
%TO.C,LD18\u002C6*%
X502768200Y-200129600D03*
D12*
X502568200Y-198729600D03*
D11*
X502768200Y-197329600D03*
D12*
X499868200Y-198729600D03*
D11*
X499668200Y-197329600D03*
X499668200Y-200129600D03*
D13*
X501218200Y-200059600D03*
D14*
X501218200Y-197039600D03*
%TD*%
D11*
%TO.C,LD18\u002C1*%
X483464200Y-122850100D03*
D12*
X483264200Y-121450100D03*
D11*
X483464200Y-120050100D03*
D12*
X480564200Y-121450100D03*
D11*
X480364200Y-120050100D03*
X480364200Y-122850100D03*
D13*
X481914200Y-122780100D03*
D14*
X481914200Y-119760100D03*
%TD*%
D11*
%TO.C,LD18\u002C7*%
X483654700Y-110162800D03*
D12*
X483454700Y-108762800D03*
D11*
X483654700Y-107362800D03*
D12*
X480754700Y-108762800D03*
D11*
X480554700Y-107362800D03*
X480554700Y-110162800D03*
D13*
X482104700Y-110092800D03*
D14*
X482104700Y-107072800D03*
%TD*%
D11*
%TO.C,LD18\u002C5*%
X502768200Y-180825600D03*
D12*
X502568200Y-179425600D03*
D11*
X502768200Y-178025600D03*
D12*
X499868200Y-179425600D03*
D11*
X499668200Y-178025600D03*
X499668200Y-180825600D03*
D13*
X501218200Y-180755600D03*
D14*
X501218200Y-177735600D03*
%TD*%
D11*
%TO.C,LD18\u002C4*%
X502768200Y-161458100D03*
D12*
X502568200Y-160058100D03*
D11*
X502768200Y-158658100D03*
D12*
X499868200Y-160058100D03*
D11*
X499668200Y-158658100D03*
X499668200Y-161458100D03*
D13*
X501218200Y-161388100D03*
D14*
X501218200Y-158368100D03*
%TD*%
D11*
%TO.C,LD18\u002C3*%
X483464200Y-142217600D03*
D12*
X483264200Y-140817600D03*
D11*
X483464200Y-139417600D03*
D12*
X480564200Y-140817600D03*
D11*
X480364200Y-139417600D03*
X480364200Y-142217600D03*
D13*
X481914200Y-142147600D03*
D14*
X481914200Y-139127600D03*
%TD*%
D11*
%TO.C,LD18\u002C0*%
X483337200Y-84813600D03*
D12*
X483137200Y-83413600D03*
D11*
X483337200Y-82013600D03*
D12*
X480437200Y-83413600D03*
D11*
X480237200Y-82013600D03*
X480237200Y-84813600D03*
D13*
X481787200Y-84743600D03*
D14*
X481787200Y-81723600D03*
%TD*%
D11*
%TO.C,LD19\u002C7*%
X502958700Y-110162800D03*
D12*
X502758700Y-108762800D03*
D11*
X502958700Y-107362800D03*
D12*
X500058700Y-108762800D03*
D11*
X499858700Y-107362800D03*
X499858700Y-110162800D03*
D13*
X501408700Y-110092800D03*
D14*
X501408700Y-107072800D03*
%TD*%
D11*
%TO.C,LD19\u002C0*%
X502759400Y-84898899D03*
D12*
X502559400Y-83498899D03*
D11*
X502759400Y-82098899D03*
D12*
X499859400Y-83498899D03*
D11*
X499659400Y-82098899D03*
X499659400Y-84898899D03*
D13*
X501209400Y-84828899D03*
D14*
X501209400Y-81808899D03*
%TD*%
D11*
%TO.C,LD19\u002C1*%
X502768200Y-123358100D03*
D12*
X502568200Y-121958100D03*
D11*
X502768200Y-120558100D03*
D12*
X499868200Y-121958100D03*
D11*
X499668200Y-120558100D03*
X499668200Y-123358100D03*
D13*
X501218200Y-123288100D03*
D14*
X501218200Y-120268100D03*
%TD*%
D11*
%TO.C,LD19\u002C4*%
X522072200Y-151996600D03*
D12*
X521872200Y-150596600D03*
D11*
X522072200Y-149196600D03*
D12*
X519172200Y-150596600D03*
D11*
X518972200Y-149196600D03*
X518972200Y-151996600D03*
D13*
X520522200Y-151926600D03*
D14*
X520522200Y-148906600D03*
%TD*%
D11*
%TO.C,LD19\u002C3*%
X502768200Y-142217600D03*
D12*
X502568200Y-140817600D03*
D11*
X502768200Y-139417600D03*
D12*
X499868200Y-140817600D03*
D11*
X499668200Y-139417600D03*
X499668200Y-142217600D03*
D13*
X501218200Y-142147600D03*
D14*
X501218200Y-139127600D03*
%TD*%
D11*
%TO.C,LD19\u002C6*%
X522326200Y-192509600D03*
D12*
X522126200Y-191109600D03*
D11*
X522326200Y-189709600D03*
D12*
X519426200Y-191109600D03*
D11*
X519226200Y-189709600D03*
X519226200Y-192509600D03*
D13*
X520776200Y-192439600D03*
D14*
X520776200Y-189419600D03*
%TD*%
D11*
%TO.C,LD20\u002C1*%
X522072200Y-122850100D03*
D12*
X521872200Y-121450100D03*
D11*
X522072200Y-120050100D03*
D12*
X519172200Y-121450100D03*
D11*
X518972200Y-120050100D03*
X518972200Y-122850100D03*
D13*
X520522200Y-122780100D03*
D14*
X520522200Y-119760100D03*
%TD*%
D11*
%TO.C,LD20\u002C0*%
X521945200Y-84813600D03*
D12*
X521745200Y-83413600D03*
D11*
X521945200Y-82013600D03*
D12*
X519045200Y-83413600D03*
D11*
X518845200Y-82013600D03*
X518845200Y-84813600D03*
D13*
X520395200Y-84743600D03*
D14*
X520395200Y-81723600D03*
%TD*%
D11*
%TO.C,LD20\u002C7*%
X522262700Y-110213600D03*
D12*
X522062700Y-108813600D03*
D11*
X522262700Y-107413600D03*
D12*
X519362700Y-108813600D03*
D11*
X519162700Y-107413600D03*
X519162700Y-110213600D03*
D13*
X520712700Y-110143600D03*
D14*
X520712700Y-107123600D03*
%TD*%
D15*
%TO.C,U0*%
G36*
X131332453Y-58941109D02*
G01*
X131317864Y-59014451D01*
X131296157Y-59086010D01*
X131267540Y-59155097D01*
X131232289Y-59221046D01*
X131190744Y-59283223D01*
X131143305Y-59341028D01*
X131090428Y-59393905D01*
X131032623Y-59441344D01*
X130970446Y-59482889D01*
X130904497Y-59518140D01*
X130835410Y-59546757D01*
X130763851Y-59568464D01*
X130690509Y-59583053D01*
X130616090Y-59590382D01*
X130541310Y-59590382D01*
X130466891Y-59583053D01*
X130393549Y-59568464D01*
X130321990Y-59546757D01*
X130252903Y-59518140D01*
X130186954Y-59482889D01*
X130124777Y-59441344D01*
X130066972Y-59393905D01*
X130014095Y-59341028D01*
X129966656Y-59283223D01*
X129925111Y-59221046D01*
X129889860Y-59155097D01*
X129861243Y-59086010D01*
X129839536Y-59014451D01*
X129824947Y-58941109D01*
X129817618Y-58866690D01*
X129817618Y-58791910D01*
X129824947Y-58717491D01*
X129839536Y-58644149D01*
X129861243Y-58572590D01*
X129889860Y-58503503D01*
X129925111Y-58437554D01*
X129966656Y-58375377D01*
X130014095Y-58317572D01*
X130066972Y-58264695D01*
X130124777Y-58217256D01*
X130186954Y-58175711D01*
X130252903Y-58140460D01*
X130321990Y-58111843D01*
X130393549Y-58090136D01*
X130466891Y-58075547D01*
X130541310Y-58068218D01*
X130616090Y-58068218D01*
X130690509Y-58075547D01*
X130763851Y-58090136D01*
X130835410Y-58111843D01*
X130904497Y-58140460D01*
X130970446Y-58175711D01*
X131032623Y-58217256D01*
X131090428Y-58264695D01*
X131143305Y-58317572D01*
X131190744Y-58375377D01*
X131232289Y-58437554D01*
X131267540Y-58503503D01*
X131296157Y-58572590D01*
X131317864Y-58644149D01*
X131332453Y-58717491D01*
X131339782Y-58791910D01*
X131339782Y-58866690D01*
X131332453Y-58941109D01*
G37*
G36*
X133627739Y-58339055D02*
G01*
X133624894Y-58348434D01*
X133620273Y-58357079D01*
X133614055Y-58364655D01*
X133606479Y-58370873D01*
X133597834Y-58375494D01*
X133588455Y-58378339D01*
X133578700Y-58379300D01*
X132578700Y-58379300D01*
X132568945Y-58378339D01*
X132559566Y-58375494D01*
X132550921Y-58370873D01*
X132543345Y-58364655D01*
X132537127Y-58357079D01*
X132532506Y-58348434D01*
X132529661Y-58339055D01*
X132528700Y-58329300D01*
X132528700Y-57329300D01*
X132529661Y-57319545D01*
X132532506Y-57310166D01*
X132537127Y-57301521D01*
X132543345Y-57293945D01*
X132550921Y-57287727D01*
X132559566Y-57283106D01*
X132568945Y-57280261D01*
X132578700Y-57279300D01*
X133578700Y-57279300D01*
X133588455Y-57280261D01*
X133597834Y-57283106D01*
X133606479Y-57287727D01*
X133614055Y-57293945D01*
X133620273Y-57301521D01*
X133624894Y-57310166D01*
X133627739Y-57319545D01*
X133628700Y-57329300D01*
X133628700Y-58329300D01*
X133627739Y-58339055D01*
G37*
G36*
X133627739Y-60339055D02*
G01*
X133624894Y-60348434D01*
X133620273Y-60357079D01*
X133614055Y-60364655D01*
X133606479Y-60370873D01*
X133597834Y-60375494D01*
X133588455Y-60378339D01*
X133578700Y-60379300D01*
X132578700Y-60379300D01*
X132568945Y-60378339D01*
X132559566Y-60375494D01*
X132550921Y-60370873D01*
X132543345Y-60364655D01*
X132537127Y-60357079D01*
X132532506Y-60348434D01*
X132529661Y-60339055D01*
X132528700Y-60329300D01*
X132528700Y-59329300D01*
X132529661Y-59319545D01*
X132532506Y-59310166D01*
X132537127Y-59301521D01*
X132543345Y-59293945D01*
X132550921Y-59287727D01*
X132559566Y-59283106D01*
X132568945Y-59280261D01*
X132578700Y-59279300D01*
X133578700Y-59279300D01*
X133588455Y-59280261D01*
X133597834Y-59283106D01*
X133606479Y-59287727D01*
X133614055Y-59293945D01*
X133620273Y-59301521D01*
X133624894Y-59310166D01*
X133627739Y-59319545D01*
X133628700Y-59329300D01*
X133628700Y-60329300D01*
X133627739Y-60339055D01*
G37*
%TD*%
M02*
