%TF.GenerationSoftware,KiCad,Pcbnew,(5.1.9)-1*%
%TF.CreationDate,2021-04-16T18:36:53+10:00*%
%TF.ProjectId,RedPyKeeb,52656450-794b-4656-9562-2e6b69636164,rev?*%
%TF.SameCoordinates,Original*%
%TF.FileFunction,Other,User*%
%FSLAX46Y46*%
G04 Gerber Fmt 4.6, Leading zero omitted, Abs format (unit mm)*
G04 Created by KiCad (PCBNEW (5.1.9)-1) date 2021-04-16 18:36:53*
%MOMM*%
%LPD*%
G01*
G04 APERTURE LIST*
%ADD10C,0.120000*%
%ADD11C,0.050000*%
G04 APERTURE END LIST*
D10*
%TO.C,U0*%
X432392200Y-72991600D02*
X484392200Y-72991600D01*
X432392200Y-50991600D02*
X432392200Y-72991600D01*
X484392200Y-50991600D02*
X432392200Y-50991600D01*
X484392200Y-72991600D02*
X484392200Y-50991600D01*
D11*
%TO.C,U10*%
X454536400Y-81797100D02*
X458136400Y-81797100D01*
X454536400Y-87697100D02*
X458136400Y-87697100D01*
X454536400Y-81797100D02*
X454536400Y-87697100D01*
X458136400Y-81797100D02*
X458136400Y-87697100D01*
%TO.C,K12\u002C3*%
X338908200Y-174042300D02*
X354888200Y-174042300D01*
X338908200Y-167542300D02*
X338908200Y-174042300D01*
X354888200Y-167542300D02*
X338908200Y-167542300D01*
X354888200Y-174042300D02*
X354888200Y-167542300D01*
%TO.C,K16\u002C1*%
X412212600Y-135358100D02*
X428192600Y-135358100D01*
X412212600Y-128858100D02*
X412212600Y-135358100D01*
X428192600Y-128858100D02*
X412212600Y-128858100D01*
X428192600Y-135358100D02*
X428192600Y-128858100D01*
%TO.C,K14\u002C1*%
X373604600Y-135358100D02*
X389584600Y-135358100D01*
X373604600Y-128858100D02*
X373604600Y-135358100D01*
X389584600Y-128858100D02*
X373604600Y-128858100D01*
X389584600Y-135358100D02*
X389584600Y-128858100D01*
%TO.C,K3\u002C2*%
X148281200Y-154598600D02*
X164261200Y-154598600D01*
X148281200Y-148098600D02*
X148281200Y-154598600D01*
X164261200Y-148098600D02*
X148281200Y-148098600D01*
X164261200Y-154598600D02*
X164261200Y-148098600D01*
%TO.C,K8\u002C0*%
X266756960Y-109577100D02*
X282736960Y-109577100D01*
X266756960Y-103077100D02*
X266756960Y-109577100D01*
X282736960Y-103077100D02*
X266756960Y-103077100D01*
X282736960Y-109577100D02*
X282736960Y-103077100D01*
%TO.C,K0\u002C2*%
X85733700Y-154573200D02*
X101713700Y-154573200D01*
X85733700Y-148073200D02*
X85733700Y-154573200D01*
X101713700Y-148073200D02*
X85733700Y-148073200D01*
X101713700Y-154573200D02*
X101713700Y-148073200D01*
%TO.C,K18\u002C4*%
X474696600Y-173966100D02*
X490676600Y-173966100D01*
X474696600Y-167466100D02*
X474696600Y-173966100D01*
X490676600Y-167466100D02*
X474696600Y-167466100D01*
X490676600Y-173966100D02*
X490676600Y-167466100D01*
%TO.C,K10\u002C3*%
X288298700Y-174029600D02*
X304278700Y-174029600D01*
X288298700Y-167529600D02*
X288298700Y-174029600D01*
X304278700Y-167529600D02*
X288298700Y-167529600D01*
X304278700Y-174029600D02*
X304278700Y-167529600D01*
%TO.C,K13\u002C1*%
X340749700Y-135307300D02*
X356729700Y-135307300D01*
X340749700Y-128807300D02*
X340749700Y-135307300D01*
X356729700Y-128807300D02*
X340749700Y-128807300D01*
X356729700Y-135307300D02*
X356729700Y-128807300D01*
%TO.C,K19\u002C4*%
X494000600Y-164250600D02*
X509980600Y-164250600D01*
X494000600Y-157750600D02*
X494000600Y-164250600D01*
X509980600Y-157750600D02*
X494000600Y-157750600D01*
X509980600Y-164250600D02*
X509980600Y-157750600D01*
%TO.C,U2*%
X396501500Y-90207200D02*
X396501500Y-78347200D01*
X414901500Y-90207200D02*
X396501500Y-90207200D01*
X414901500Y-78347200D02*
X414901500Y-90207200D01*
X396501500Y-78347200D02*
X414901500Y-78347200D01*
%TO.C,K11\u002C4*%
X334082200Y-193790800D02*
X350062200Y-193790800D01*
X334082200Y-187290800D02*
X334082200Y-193790800D01*
X350062200Y-187290800D02*
X334082200Y-187290800D01*
X350062200Y-193790800D02*
X350062200Y-187290800D01*
%TO.C,C6*%
X486141700Y-76833600D02*
X486991700Y-76833600D01*
X486141700Y-79833600D02*
X486141700Y-76833600D01*
X486991700Y-79833600D02*
X486141700Y-79833600D01*
X486991700Y-76833600D02*
X486991700Y-74083600D01*
X486991700Y-82583600D02*
X486991700Y-79833600D01*
X486991700Y-82583600D02*
X488141700Y-83733600D01*
X486991700Y-74083600D02*
X488141700Y-72933600D01*
X488141700Y-83733600D02*
X497791700Y-83733600D01*
X488141700Y-72933600D02*
X497791700Y-72933600D01*
X497791700Y-76833600D02*
X497791700Y-72933600D01*
X498641700Y-76833600D02*
X497791700Y-76833600D01*
X498641700Y-79833600D02*
X498641700Y-76833600D01*
X497791700Y-79833600D02*
X498641700Y-79833600D01*
X497791700Y-83733600D02*
X497791700Y-79833600D01*
%TO.C,J0*%
X495083200Y-55284100D02*
X495083200Y-68784100D01*
X485883200Y-55284100D02*
X495083200Y-55284100D01*
X485883200Y-68784100D02*
X485883200Y-55284100D01*
X495083200Y-68784100D02*
X485883200Y-68784100D01*
%TO.C,J1*%
X471160200Y-78817100D02*
X484660200Y-78817100D01*
X471160200Y-88017100D02*
X471160200Y-78817100D01*
X484660200Y-88017100D02*
X471160200Y-88017100D01*
X484660200Y-78817100D02*
X484660200Y-88017100D01*
%TO.C,K0\u002C0*%
X81098200Y-109526300D02*
X97078200Y-109526300D01*
X81098200Y-103026300D02*
X81098200Y-109526300D01*
X97078200Y-103026300D02*
X81098200Y-103026300D01*
X97078200Y-109526300D02*
X97078200Y-103026300D01*
%TO.C,K0\u002C1*%
X81034700Y-135370800D02*
X97014700Y-135370800D01*
X81034700Y-128870800D02*
X81034700Y-135370800D01*
X97014700Y-128870800D02*
X81034700Y-128870800D01*
X97014700Y-135370800D02*
X97014700Y-128870800D01*
%TO.C,K0\u002C5*%
X83447700Y-213221800D02*
X99427700Y-213221800D01*
X83447700Y-206721800D02*
X83447700Y-213221800D01*
X99427700Y-206721800D02*
X83447700Y-206721800D01*
X99427700Y-213221800D02*
X99427700Y-206721800D01*
%TO.C,K0\u002C4*%
X92845700Y-193854300D02*
X108825700Y-193854300D01*
X92845700Y-187354300D02*
X92845700Y-193854300D01*
X108825700Y-187354300D02*
X92845700Y-187354300D01*
X108825700Y-193854300D02*
X108825700Y-187354300D01*
%TO.C,K0\u002C3*%
X88121300Y-174080400D02*
X104101300Y-174080400D01*
X88121300Y-167580400D02*
X88121300Y-174080400D01*
X104101300Y-167580400D02*
X88121300Y-167580400D01*
X104101300Y-174080400D02*
X104101300Y-167580400D01*
%TO.C,K1\u002C4*%
X123960700Y-193841600D02*
X139940700Y-193841600D01*
X123960700Y-187341600D02*
X123960700Y-193841600D01*
X139940700Y-187341600D02*
X123960700Y-187341600D01*
X139940700Y-193841600D02*
X139940700Y-187341600D01*
%TO.C,K1\u002C5*%
X108022200Y-213272600D02*
X124002200Y-213272600D01*
X108022200Y-206772600D02*
X108022200Y-213272600D01*
X124002200Y-206772600D02*
X108022200Y-206772600D01*
X124002200Y-213272600D02*
X124002200Y-206772600D01*
%TO.C,K1\u002C3*%
X114562700Y-174029600D02*
X130542700Y-174029600D01*
X114562700Y-167529600D02*
X114562700Y-174029600D01*
X130542700Y-167529600D02*
X114562700Y-167529600D01*
X130542700Y-174029600D02*
X130542700Y-167529600D01*
%TO.C,K1\u002C2*%
X109673200Y-154598600D02*
X125653200Y-154598600D01*
X109673200Y-148098600D02*
X109673200Y-154598600D01*
X125653200Y-148098600D02*
X109673200Y-148098600D01*
X125653200Y-154598600D02*
X125653200Y-148098600D01*
%TO.C,K1\u002C1*%
X100249800Y-135370800D02*
X116229800Y-135370800D01*
X100249800Y-128870800D02*
X100249800Y-135370800D01*
X116229800Y-128870800D02*
X100249800Y-128870800D01*
X116229800Y-135370800D02*
X116229800Y-128870800D01*
%TO.C,K1\u002C0*%
X119436960Y-109577100D02*
X135416960Y-109577100D01*
X119436960Y-103077100D02*
X119436960Y-109577100D01*
X135416960Y-103077100D02*
X119436960Y-103077100D01*
X135416960Y-109577100D02*
X135416960Y-103077100D01*
%TO.C,K2\u002C5*%
X132406200Y-213272600D02*
X148386200Y-213272600D01*
X132406200Y-206772600D02*
X132406200Y-213272600D01*
X148386200Y-206772600D02*
X132406200Y-206772600D01*
X148386200Y-213272600D02*
X148386200Y-206772600D01*
%TO.C,K2\u002C3*%
X133866700Y-174029600D02*
X149846700Y-174029600D01*
X133866700Y-167529600D02*
X133866700Y-174029600D01*
X149846700Y-167529600D02*
X133866700Y-167529600D01*
X149846700Y-174029600D02*
X149846700Y-167529600D01*
%TO.C,K2\u002C1*%
X119452200Y-135358100D02*
X135432200Y-135358100D01*
X119452200Y-128858100D02*
X119452200Y-135358100D01*
X135432200Y-128858100D02*
X119452200Y-128858100D01*
X135432200Y-135358100D02*
X135432200Y-128858100D01*
%TO.C,K2\u002C4*%
X143264700Y-193841600D02*
X159244700Y-193841600D01*
X143264700Y-187341600D02*
X143264700Y-193841600D01*
X159244700Y-187341600D02*
X143264700Y-187341600D01*
X159244700Y-193841600D02*
X159244700Y-187341600D01*
%TO.C,K2\u002C2*%
X128977200Y-154598600D02*
X144957200Y-154598600D01*
X128977200Y-148098600D02*
X128977200Y-154598600D01*
X144957200Y-148098600D02*
X128977200Y-148098600D01*
X144957200Y-154598600D02*
X144957200Y-148098600D01*
%TO.C,K2\u002C0*%
X138740960Y-109577100D02*
X154720960Y-109577100D01*
X138740960Y-103077100D02*
X138740960Y-109577100D01*
X154720960Y-103077100D02*
X138740960Y-103077100D01*
X154720960Y-109577100D02*
X154720960Y-103077100D01*
%TO.C,K3\u002C5*%
X204288200Y-213272600D02*
X220268200Y-213272600D01*
X204288200Y-206772600D02*
X204288200Y-213272600D01*
X220268200Y-206772600D02*
X204288200Y-206772600D01*
X220268200Y-213272600D02*
X220268200Y-206772600D01*
%TO.C,K3\u002C4*%
X162568700Y-193841600D02*
X178548700Y-193841600D01*
X162568700Y-187341600D02*
X162568700Y-193841600D01*
X178548700Y-187341600D02*
X162568700Y-187341600D01*
X178548700Y-193841600D02*
X178548700Y-187341600D01*
%TO.C,K3\u002C1*%
X138248200Y-135358100D02*
X154228200Y-135358100D01*
X138248200Y-128858100D02*
X138248200Y-135358100D01*
X154228200Y-128858100D02*
X138248200Y-128858100D01*
X154228200Y-135358100D02*
X154228200Y-128858100D01*
%TO.C,K3\u002C0*%
X158044960Y-109577100D02*
X174024960Y-109577100D01*
X158044960Y-103077100D02*
X158044960Y-109577100D01*
X174024960Y-103077100D02*
X158044960Y-103077100D01*
X174024960Y-109577100D02*
X174024960Y-103077100D01*
%TO.C,K3\u002C3*%
X153170700Y-174029600D02*
X169150700Y-174029600D01*
X153170700Y-167529600D02*
X153170700Y-174029600D01*
X169150700Y-167529600D02*
X153170700Y-167529600D01*
X169150700Y-174029600D02*
X169150700Y-167529600D01*
%TO.C,K4\u002C1*%
X157552200Y-135358100D02*
X173532200Y-135358100D01*
X157552200Y-128858100D02*
X157552200Y-135358100D01*
X173532200Y-128858100D02*
X157552200Y-128858100D01*
X173532200Y-135358100D02*
X173532200Y-128858100D01*
%TO.C,K4\u002C2*%
X167585200Y-154598600D02*
X183565200Y-154598600D01*
X167585200Y-148098600D02*
X167585200Y-154598600D01*
X183565200Y-148098600D02*
X167585200Y-148098600D01*
X183565200Y-154598600D02*
X183565200Y-148098600D01*
%TO.C,K4\u002C3*%
X172474700Y-174029600D02*
X188454700Y-174029600D01*
X172474700Y-167529600D02*
X172474700Y-174029600D01*
X188454700Y-167529600D02*
X172474700Y-167529600D01*
X188454700Y-174029600D02*
X188454700Y-167529600D01*
%TO.C,K4\u002C4*%
X181872700Y-193841600D02*
X197852700Y-193841600D01*
X181872700Y-187341600D02*
X181872700Y-193841600D01*
X197852700Y-187341600D02*
X181872700Y-187341600D01*
X197852700Y-193841600D02*
X197852700Y-187341600D01*
%TO.C,K4\u002C0*%
X177348960Y-109577100D02*
X193328960Y-109577100D01*
X177348960Y-103077100D02*
X177348960Y-109577100D01*
X193328960Y-103077100D02*
X177348960Y-103077100D01*
X193328960Y-109577100D02*
X193328960Y-103077100D01*
%TO.C,K5\u002C0*%
X208844960Y-109577100D02*
X224824960Y-109577100D01*
X208844960Y-103077100D02*
X208844960Y-109577100D01*
X224824960Y-103077100D02*
X208844960Y-103077100D01*
X224824960Y-109577100D02*
X224824960Y-103077100D01*
%TO.C,K5\u002C2*%
X186889200Y-154598600D02*
X202869200Y-154598600D01*
X186889200Y-148098600D02*
X186889200Y-154598600D01*
X202869200Y-148098600D02*
X186889200Y-148098600D01*
X202869200Y-154598600D02*
X202869200Y-148098600D01*
%TO.C,K5\u002C1*%
X176856200Y-135358100D02*
X192836200Y-135358100D01*
X176856200Y-128858100D02*
X176856200Y-135358100D01*
X192836200Y-128858100D02*
X176856200Y-128858100D01*
X192836200Y-135358100D02*
X192836200Y-128858100D01*
%TO.C,K5\u002C3*%
X191778700Y-174029600D02*
X207758700Y-174029600D01*
X191778700Y-167529600D02*
X191778700Y-174029600D01*
X207758700Y-167529600D02*
X191778700Y-167529600D01*
X207758700Y-174029600D02*
X207758700Y-167529600D01*
%TO.C,K5\u002C4*%
X201176700Y-193841600D02*
X217156700Y-193841600D01*
X201176700Y-187341600D02*
X201176700Y-193841600D01*
X217156700Y-187341600D02*
X201176700Y-187341600D01*
X217156700Y-193841600D02*
X217156700Y-187341600D01*
%TO.C,K6\u002C3*%
X211082700Y-174029600D02*
X227062700Y-174029600D01*
X211082700Y-167529600D02*
X211082700Y-174029600D01*
X227062700Y-167529600D02*
X211082700Y-167529600D01*
X227062700Y-174029600D02*
X227062700Y-167529600D01*
%TO.C,K6\u002C4*%
X220480700Y-193841600D02*
X236460700Y-193841600D01*
X220480700Y-187341600D02*
X220480700Y-193841600D01*
X236460700Y-187341600D02*
X220480700Y-187341600D01*
X236460700Y-193841600D02*
X236460700Y-187341600D01*
%TO.C,K6\u002C1*%
X196160200Y-135358100D02*
X212140200Y-135358100D01*
X196160200Y-128858100D02*
X196160200Y-135358100D01*
X212140200Y-128858100D02*
X196160200Y-128858100D01*
X212140200Y-135358100D02*
X212140200Y-128858100D01*
%TO.C,K6\u002C2*%
X206193200Y-154598600D02*
X222173200Y-154598600D01*
X206193200Y-148098600D02*
X206193200Y-154598600D01*
X222173200Y-148098600D02*
X206193200Y-148098600D01*
X222173200Y-154598600D02*
X222173200Y-148098600D01*
%TO.C,K6\u002C0*%
X228148960Y-109577100D02*
X244128960Y-109577100D01*
X228148960Y-103077100D02*
X228148960Y-109577100D01*
X244128960Y-103077100D02*
X228148960Y-103077100D01*
X244128960Y-109577100D02*
X244128960Y-103077100D01*
%TO.C,K7\u002C2*%
X225497200Y-154598600D02*
X241477200Y-154598600D01*
X225497200Y-148098600D02*
X225497200Y-154598600D01*
X241477200Y-148098600D02*
X225497200Y-148098600D01*
X241477200Y-154598600D02*
X241477200Y-148098600D01*
%TO.C,K7\u002C1*%
X215464200Y-135358100D02*
X231444200Y-135358100D01*
X215464200Y-128858100D02*
X215464200Y-135358100D01*
X231444200Y-128858100D02*
X215464200Y-128858100D01*
X231444200Y-135358100D02*
X231444200Y-128858100D01*
%TO.C,K7\u002C3*%
X230386700Y-174029600D02*
X246366700Y-174029600D01*
X230386700Y-167529600D02*
X230386700Y-174029600D01*
X246366700Y-167529600D02*
X230386700Y-167529600D01*
X246366700Y-174029600D02*
X246366700Y-167529600D01*
%TO.C,K7\u002C4*%
X239784700Y-193841600D02*
X255764700Y-193841600D01*
X239784700Y-187341600D02*
X239784700Y-193841600D01*
X255764700Y-187341600D02*
X239784700Y-187341600D01*
X255764700Y-193841600D02*
X255764700Y-187341600D01*
%TO.C,K7\u002C0*%
X247452960Y-109577100D02*
X263432960Y-109577100D01*
X247452960Y-103077100D02*
X247452960Y-109577100D01*
X263432960Y-103077100D02*
X247452960Y-103077100D01*
X263432960Y-109577100D02*
X263432960Y-103077100D01*
%TO.C,K8\u002C1*%
X234768200Y-135358100D02*
X250748200Y-135358100D01*
X234768200Y-128858100D02*
X234768200Y-135358100D01*
X250748200Y-128858100D02*
X234768200Y-128858100D01*
X250748200Y-135358100D02*
X250748200Y-128858100D01*
%TO.C,K8\u002C3*%
X249690700Y-174029600D02*
X265670700Y-174029600D01*
X249690700Y-167529600D02*
X249690700Y-174029600D01*
X265670700Y-167529600D02*
X249690700Y-167529600D01*
X265670700Y-174029600D02*
X265670700Y-167529600D01*
%TO.C,K8\u002C4*%
X259088700Y-193841600D02*
X275068700Y-193841600D01*
X259088700Y-187341600D02*
X259088700Y-193841600D01*
X275068700Y-187341600D02*
X259088700Y-187341600D01*
X275068700Y-193841600D02*
X275068700Y-187341600D01*
%TO.C,K8\u002C5*%
X276017800Y-213272600D02*
X291997800Y-213272600D01*
X276017800Y-206772600D02*
X276017800Y-213272600D01*
X291997800Y-206772600D02*
X276017800Y-206772600D01*
X291997800Y-213272600D02*
X291997800Y-206772600D01*
%TO.C,K8\u002C2*%
X244801200Y-154598600D02*
X260781200Y-154598600D01*
X244801200Y-148098600D02*
X244801200Y-154598600D01*
X260781200Y-148098600D02*
X244801200Y-148098600D01*
X260781200Y-154598600D02*
X260781200Y-148098600D01*
%TO.C,K9\u002C0*%
X293172960Y-109577100D02*
X309152960Y-109577100D01*
X293172960Y-103077100D02*
X293172960Y-109577100D01*
X309152960Y-103077100D02*
X293172960Y-103077100D01*
X309152960Y-109577100D02*
X309152960Y-103077100D01*
%TO.C,K9\u002C5*%
X300173200Y-213272600D02*
X316153200Y-213272600D01*
X300173200Y-206772600D02*
X300173200Y-213272600D01*
X316153200Y-206772600D02*
X300173200Y-206772600D01*
X316153200Y-213272600D02*
X316153200Y-206772600D01*
%TO.C,K9\u002C1*%
X254072200Y-135358100D02*
X270052200Y-135358100D01*
X254072200Y-128858100D02*
X254072200Y-135358100D01*
X270052200Y-128858100D02*
X254072200Y-128858100D01*
X270052200Y-135358100D02*
X270052200Y-128858100D01*
%TO.C,K9\u002C2*%
X264105200Y-154598600D02*
X280085200Y-154598600D01*
X264105200Y-148098600D02*
X264105200Y-154598600D01*
X280085200Y-148098600D02*
X264105200Y-148098600D01*
X280085200Y-154598600D02*
X280085200Y-148098600D01*
%TO.C,K9\u002C4*%
X278392700Y-193841600D02*
X294372700Y-193841600D01*
X278392700Y-187341600D02*
X278392700Y-193841600D01*
X294372700Y-187341600D02*
X278392700Y-187341600D01*
X294372700Y-193841600D02*
X294372700Y-187341600D01*
%TO.C,K9\u002C3*%
X268994700Y-174029600D02*
X284974700Y-174029600D01*
X268994700Y-167529600D02*
X268994700Y-174029600D01*
X284974700Y-167529600D02*
X268994700Y-167529600D01*
X284974700Y-174029600D02*
X284974700Y-167529600D01*
%TO.C,K10\u002C2*%
X283409200Y-154598600D02*
X299389200Y-154598600D01*
X283409200Y-148098600D02*
X283409200Y-154598600D01*
X299389200Y-148098600D02*
X283409200Y-148098600D01*
X299389200Y-154598600D02*
X299389200Y-148098600D01*
%TO.C,K10\u002C0*%
X312476960Y-109577100D02*
X328456960Y-109577100D01*
X312476960Y-103077100D02*
X312476960Y-109577100D01*
X328456960Y-103077100D02*
X312476960Y-103077100D01*
X328456960Y-109577100D02*
X328456960Y-103077100D01*
%TO.C,K10\u002C5*%
X324366700Y-213272600D02*
X340346700Y-213272600D01*
X324366700Y-206772600D02*
X324366700Y-213272600D01*
X340346700Y-206772600D02*
X324366700Y-206772600D01*
X340346700Y-213272600D02*
X340346700Y-206772600D01*
%TO.C,K10\u002C1*%
X273376200Y-135358100D02*
X289356200Y-135358100D01*
X273376200Y-128858100D02*
X273376200Y-135358100D01*
X289356200Y-128858100D02*
X273376200Y-128858100D01*
X289356200Y-135358100D02*
X289356200Y-128858100D01*
%TO.C,K10\u002C4*%
X297696700Y-193841600D02*
X313676700Y-193841600D01*
X297696700Y-187341600D02*
X297696700Y-193841600D01*
X313676700Y-187341600D02*
X297696700Y-187341600D01*
X313676700Y-193841600D02*
X313676700Y-187341600D01*
%TO.C,K11\u002C3*%
X307602700Y-174029600D02*
X323582700Y-174029600D01*
X307602700Y-167529600D02*
X307602700Y-174029600D01*
X323582700Y-167529600D02*
X307602700Y-167529600D01*
X323582700Y-174029600D02*
X323582700Y-167529600D01*
%TO.C,K11\u002C2*%
X302713200Y-154598600D02*
X318693200Y-154598600D01*
X302713200Y-148098600D02*
X302713200Y-154598600D01*
X318693200Y-148098600D02*
X302713200Y-148098600D01*
X318693200Y-154598600D02*
X318693200Y-148098600D01*
%TO.C,K11\u002C5*%
X348433200Y-213272600D02*
X364413200Y-213272600D01*
X348433200Y-206772600D02*
X348433200Y-213272600D01*
X364413200Y-206772600D02*
X348433200Y-206772600D01*
X364413200Y-213272600D02*
X364413200Y-206772600D01*
%TO.C,K11\u002C1*%
X292680200Y-135358100D02*
X308660200Y-135358100D01*
X292680200Y-128858100D02*
X292680200Y-135358100D01*
X308660200Y-128858100D02*
X292680200Y-128858100D01*
X308660200Y-135358100D02*
X308660200Y-128858100D01*
%TO.C,K11\u002C0*%
X331780960Y-109577100D02*
X347760960Y-109577100D01*
X331780960Y-103077100D02*
X331780960Y-109577100D01*
X347760960Y-103077100D02*
X331780960Y-103077100D01*
X347760960Y-109577100D02*
X347760960Y-103077100D01*
%TO.C,K12\u002C2*%
X322017200Y-154598600D02*
X337997200Y-154598600D01*
X322017200Y-148098600D02*
X322017200Y-154598600D01*
X337997200Y-148098600D02*
X322017200Y-148098600D01*
X337997200Y-154598600D02*
X337997200Y-148098600D01*
%TO.C,K12\u002C0*%
X351084960Y-109577100D02*
X367064960Y-109577100D01*
X351084960Y-103077100D02*
X351084960Y-109577100D01*
X367064960Y-103077100D02*
X351084960Y-103077100D01*
X367064960Y-109577100D02*
X367064960Y-103077100D01*
%TO.C,K12\u002C1*%
X311984200Y-135358100D02*
X327964200Y-135358100D01*
X311984200Y-128858100D02*
X311984200Y-135358100D01*
X327964200Y-128858100D02*
X311984200Y-128858100D01*
X327964200Y-135358100D02*
X327964200Y-128858100D01*
%TO.C,K13\u002C2*%
X345956700Y-154611300D02*
X361936700Y-154611300D01*
X345956700Y-148111300D02*
X345956700Y-154611300D01*
X361936700Y-148111300D02*
X345956700Y-148111300D01*
X361936700Y-154611300D02*
X361936700Y-148111300D01*
%TO.C,K14\u002C6*%
X373541100Y-213145600D02*
X389521100Y-213145600D01*
X373541100Y-206645600D02*
X373541100Y-213145600D01*
X389521100Y-206645600D02*
X373541100Y-206645600D01*
X389521100Y-213145600D02*
X389521100Y-206645600D01*
%TO.C,K14\u002C3*%
X373604600Y-154598600D02*
X389584600Y-154598600D01*
X373604600Y-148098600D02*
X373604600Y-154598600D01*
X389584600Y-148098600D02*
X373604600Y-148098600D01*
X389584600Y-154598600D02*
X389584600Y-148098600D01*
%TO.C,K14\u002C0*%
X373655400Y-109577100D02*
X389635400Y-109577100D01*
X373655400Y-103077100D02*
X373655400Y-109577100D01*
X389635400Y-103077100D02*
X373655400Y-103077100D01*
X389635400Y-109577100D02*
X389635400Y-103077100D01*
%TO.C,K15\u002C6*%
X392845100Y-213145600D02*
X408825100Y-213145600D01*
X392845100Y-206645600D02*
X392845100Y-213145600D01*
X408825100Y-206645600D02*
X392845100Y-206645600D01*
X408825100Y-213145600D02*
X408825100Y-206645600D01*
%TO.C,K15\u002C3*%
X392908600Y-154598600D02*
X408888600Y-154598600D01*
X392908600Y-148098600D02*
X392908600Y-154598600D01*
X408888600Y-148098600D02*
X392908600Y-148098600D01*
X408888600Y-154598600D02*
X408888600Y-148098600D01*
%TO.C,K15\u002C5*%
X392845100Y-193841600D02*
X408825100Y-193841600D01*
X392845100Y-187341600D02*
X392845100Y-193841600D01*
X408825100Y-187341600D02*
X392845100Y-187341600D01*
X408825100Y-193841600D02*
X408825100Y-187341600D01*
%TO.C,K15\u002C1*%
X392908600Y-135358100D02*
X408888600Y-135358100D01*
X392908600Y-128858100D02*
X392908600Y-135358100D01*
X408888600Y-128858100D02*
X392908600Y-128858100D01*
X408888600Y-135358100D02*
X408888600Y-128858100D01*
%TO.C,K15\u002C0*%
X393213400Y-109577100D02*
X409193400Y-109577100D01*
X393213400Y-103077100D02*
X393213400Y-109577100D01*
X409193400Y-103077100D02*
X393213400Y-103077100D01*
X409193400Y-109577100D02*
X409193400Y-103077100D01*
%TO.C,K16\u002C4*%
X436088600Y-174029600D02*
X452068600Y-174029600D01*
X436088600Y-167529600D02*
X436088600Y-174029600D01*
X452068600Y-167529600D02*
X436088600Y-167529600D01*
X452068600Y-174029600D02*
X452068600Y-167529600D01*
%TO.C,K16\u002C5*%
X436088600Y-193333600D02*
X452068600Y-193333600D01*
X436088600Y-186833600D02*
X436088600Y-193333600D01*
X452068600Y-186833600D02*
X436088600Y-186833600D01*
X452068600Y-193333600D02*
X452068600Y-186833600D01*
%TO.C,K16\u002C3*%
X412212600Y-154598600D02*
X428192600Y-154598600D01*
X412212600Y-148098600D02*
X412212600Y-154598600D01*
X428192600Y-148098600D02*
X412212600Y-148098600D01*
X428192600Y-154598600D02*
X428192600Y-148098600D01*
%TO.C,K16\u002C0*%
X412517400Y-109577100D02*
X428497400Y-109577100D01*
X412517400Y-103077100D02*
X412517400Y-109577100D01*
X428497400Y-103077100D02*
X412517400Y-103077100D01*
X428497400Y-109577100D02*
X428497400Y-103077100D01*
%TO.C,K16\u002C6*%
X412149100Y-213145600D02*
X428129100Y-213145600D01*
X412149100Y-206645600D02*
X412149100Y-213145600D01*
X428129100Y-206645600D02*
X412149100Y-206645600D01*
X428129100Y-213145600D02*
X428129100Y-206645600D01*
%TO.C,K17\u002C6*%
X445613600Y-212637600D02*
X461593600Y-212637600D01*
X445613600Y-206137600D02*
X445613600Y-212637600D01*
X461593600Y-206137600D02*
X445613600Y-206137600D01*
X461593600Y-212637600D02*
X461593600Y-206137600D01*
%TO.C,K17\u002C5*%
X455392600Y-193333600D02*
X471372600Y-193333600D01*
X455392600Y-186833600D02*
X455392600Y-193333600D01*
X471372600Y-186833600D02*
X455392600Y-186833600D01*
X471372600Y-193333600D02*
X471372600Y-186833600D01*
%TO.C,K17\u002C4*%
X455392600Y-174029600D02*
X471372600Y-174029600D01*
X455392600Y-167529600D02*
X455392600Y-174029600D01*
X471372600Y-167529600D02*
X455392600Y-167529600D01*
X471372600Y-174029600D02*
X471372600Y-167529600D01*
%TO.C,K17\u002C3*%
X436088600Y-154725600D02*
X452068600Y-154725600D01*
X436088600Y-148225600D02*
X436088600Y-154725600D01*
X452068600Y-148225600D02*
X436088600Y-148225600D01*
X452068600Y-154725600D02*
X452068600Y-148225600D01*
%TO.C,K17\u002C1*%
X436088600Y-135358100D02*
X452068600Y-135358100D01*
X436088600Y-128858100D02*
X436088600Y-135358100D01*
X452068600Y-128858100D02*
X436088600Y-128858100D01*
X452068600Y-135358100D02*
X452068600Y-128858100D01*
%TO.C,K17\u002C0*%
X436025100Y-109577100D02*
X452005100Y-109577100D01*
X436025100Y-103077100D02*
X436025100Y-109577100D01*
X452005100Y-103077100D02*
X436025100Y-103077100D01*
X452005100Y-109577100D02*
X452005100Y-103077100D01*
%TO.C,K18\u002C6*%
X474696600Y-212637600D02*
X490676600Y-212637600D01*
X474696600Y-206137600D02*
X474696600Y-212637600D01*
X490676600Y-206137600D02*
X474696600Y-206137600D01*
X490676600Y-212637600D02*
X490676600Y-206137600D01*
%TO.C,K18\u002C3*%
X455392600Y-154725600D02*
X471372600Y-154725600D01*
X455392600Y-148225600D02*
X455392600Y-154725600D01*
X471372600Y-148225600D02*
X455392600Y-148225600D01*
X471372600Y-154725600D02*
X471372600Y-148225600D01*
%TO.C,K18\u002C1*%
X455392600Y-135358100D02*
X471372600Y-135358100D01*
X455392600Y-128858100D02*
X455392600Y-135358100D01*
X471372600Y-128858100D02*
X455392600Y-128858100D01*
X471372600Y-135358100D02*
X471372600Y-128858100D01*
%TO.C,K18\u002C5*%
X474696600Y-193333600D02*
X490676600Y-193333600D01*
X474696600Y-186833600D02*
X474696600Y-193333600D01*
X490676600Y-186833600D02*
X474696600Y-186833600D01*
X490676600Y-193333600D02*
X490676600Y-186833600D01*
%TO.C,K18\u002C0*%
X455329100Y-109577100D02*
X471309100Y-109577100D01*
X455329100Y-103077100D02*
X455329100Y-109577100D01*
X471309100Y-103077100D02*
X455329100Y-103077100D01*
X471309100Y-109577100D02*
X471309100Y-103077100D01*
%TO.C,K19\u002C6*%
X494000600Y-202985600D02*
X509980600Y-202985600D01*
X494000600Y-196485600D02*
X494000600Y-202985600D01*
X509980600Y-196485600D02*
X494000600Y-196485600D01*
X509980600Y-202985600D02*
X509980600Y-196485600D01*
%TO.C,K19\u002C0*%
X474633100Y-109577100D02*
X490613100Y-109577100D01*
X474633100Y-103077100D02*
X474633100Y-109577100D01*
X490613100Y-103077100D02*
X474633100Y-103077100D01*
X490613100Y-109577100D02*
X490613100Y-103077100D01*
%TO.C,K19\u002C3*%
X474696600Y-154725600D02*
X490676600Y-154725600D01*
X474696600Y-148225600D02*
X474696600Y-154725600D01*
X490676600Y-148225600D02*
X474696600Y-148225600D01*
X490676600Y-154725600D02*
X490676600Y-148225600D01*
%TO.C,K19\u002C1*%
X474696600Y-135358100D02*
X490676600Y-135358100D01*
X474696600Y-128858100D02*
X474696600Y-135358100D01*
X490676600Y-128858100D02*
X474696600Y-128858100D01*
X490676600Y-135358100D02*
X490676600Y-128858100D01*
%TO.C,K20\u002C0*%
X493937100Y-109577100D02*
X509917100Y-109577100D01*
X493937100Y-103077100D02*
X493937100Y-109577100D01*
X509917100Y-103077100D02*
X493937100Y-103077100D01*
X509917100Y-109577100D02*
X509917100Y-103077100D01*
%TO.C,K20\u002C1*%
X494000600Y-135358100D02*
X509980600Y-135358100D01*
X494000600Y-128858100D02*
X494000600Y-135358100D01*
X509980600Y-128858100D02*
X494000600Y-128858100D01*
X509980600Y-135358100D02*
X509980600Y-128858100D01*
%TO.C,U1*%
X101461200Y-103068000D02*
X113321200Y-103068000D01*
X101461200Y-121468000D02*
X101461200Y-103068000D01*
X113321200Y-121468000D02*
X101461200Y-121468000D01*
X113321200Y-103068000D02*
X113321200Y-121468000D01*
%TO.C,U11*%
X440199400Y-87812100D02*
X440199400Y-80412100D01*
X449359400Y-87812100D02*
X440199400Y-87812100D01*
X449359400Y-80412100D02*
X449359400Y-87812100D01*
X440199400Y-80412100D02*
X449359400Y-80412100D01*
%TO.C,C4*%
X452549700Y-85978600D02*
X452549700Y-89738600D01*
X454509700Y-85978600D02*
X452549700Y-85978600D01*
X454509700Y-89738600D02*
X454509700Y-85978600D01*
X452549700Y-89738600D02*
X454509700Y-89738600D01*
%TO.C,C5*%
X439968200Y-87516100D02*
X439968200Y-83756100D01*
X438008200Y-87516100D02*
X439968200Y-87516100D01*
X438008200Y-83756100D02*
X438008200Y-87516100D01*
X439968200Y-83756100D02*
X438008200Y-83756100D01*
%TO.C,C7*%
X440031700Y-82245600D02*
X440031700Y-78485600D01*
X438071700Y-82245600D02*
X440031700Y-82245600D01*
X438071700Y-78485600D02*
X438071700Y-82245600D01*
X440031700Y-78485600D02*
X438071700Y-78485600D01*
%TO.C,R1*%
X459954200Y-89573600D02*
X459954200Y-84873600D01*
X459954200Y-89573600D02*
X458154200Y-89573600D01*
X458154200Y-84873600D02*
X459954200Y-84873600D01*
X458154200Y-84873600D02*
X458154200Y-89573600D01*
%TO.C,R2*%
X461986200Y-89573600D02*
X461986200Y-84873600D01*
X461986200Y-89573600D02*
X460186200Y-89573600D01*
X460186200Y-84873600D02*
X461986200Y-84873600D01*
X460186200Y-84873600D02*
X460186200Y-89573600D01*
%TO.C,R3*%
X458863200Y-84758100D02*
X463563200Y-84758100D01*
X458863200Y-84758100D02*
X458863200Y-82958100D01*
X463563200Y-82958100D02*
X463563200Y-84758100D01*
X463563200Y-82958100D02*
X458863200Y-82958100D01*
%TO.C,R4*%
X458535200Y-76999600D02*
X458535200Y-81699600D01*
X458535200Y-76999600D02*
X460335200Y-76999600D01*
X460335200Y-81699600D02*
X458535200Y-81699600D01*
X460335200Y-81699600D02*
X460335200Y-76999600D01*
%TO.C,R5*%
X456630200Y-76999600D02*
X456630200Y-81699600D01*
X456630200Y-76999600D02*
X458430200Y-76999600D01*
X458430200Y-81699600D02*
X456630200Y-81699600D01*
X458430200Y-81699600D02*
X458430200Y-76999600D01*
%TD*%
M02*
