%TF.GenerationSoftware,KiCad,Pcbnew,(5.1.9)-1*%
%TF.CreationDate,2021-08-18T22:51:30+10:00*%
%TF.ProjectId,RedPyKeeb_MCU,52656450-794b-4656-9562-5f4d43552e6b,rev?*%
%TF.SameCoordinates,Original*%
%TF.FileFunction,Copper,L3,Inr*%
%TF.FilePolarity,Positive*%
%FSLAX46Y46*%
G04 Gerber Fmt 4.6, Leading zero omitted, Abs format (unit mm)*
G04 Created by KiCad (PCBNEW (5.1.9)-1) date 2021-08-18 22:51:30*
%MOMM*%
%LPD*%
G01*
G04 APERTURE LIST*
%TA.AperFunction,ComponentPad*%
%ADD10O,1.700000X1.950000*%
%TD*%
%TA.AperFunction,ComponentPad*%
%ADD11O,1.950000X1.700000*%
%TD*%
%TA.AperFunction,ComponentPad*%
%ADD12C,1.600000*%
%TD*%
%TA.AperFunction,ComponentPad*%
%ADD13R,1.600000X1.600000*%
%TD*%
%TA.AperFunction,ComponentPad*%
%ADD14C,1.300000*%
%TD*%
%TA.AperFunction,ComponentPad*%
%ADD15R,1.700000X1.700000*%
%TD*%
%TA.AperFunction,ComponentPad*%
%ADD16O,1.700000X1.700000*%
%TD*%
%TA.AperFunction,ViaPad*%
%ADD17C,0.800000*%
%TD*%
%TA.AperFunction,Conductor*%
%ADD18C,0.254000*%
%TD*%
%TA.AperFunction,Conductor*%
%ADD19C,0.100000*%
%TD*%
G04 APERTURE END LIST*
D10*
%TO.N,Net-(J2-Pad7)*%
%TO.C,J2*%
X92470000Y-30988000D03*
%TO.N,Net-(J2-Pad6)*%
X89970000Y-30988000D03*
%TO.N,Net-(J2-Pad5)*%
X87470000Y-30988000D03*
%TO.N,Net-(J2-Pad4)*%
X84970000Y-30988000D03*
%TO.N,Net-(J2-Pad3)*%
X82470000Y-30988000D03*
%TO.N,GNDPWR*%
X79970000Y-30988000D03*
%TO.N,MAIN_VBUS*%
%TA.AperFunction,ComponentPad*%
G36*
G01*
X76620000Y-31713000D02*
X76620000Y-30263000D01*
G75*
G02*
X76870000Y-30013000I250000J0D01*
G01*
X78070000Y-30013000D01*
G75*
G02*
X78320000Y-30263000I0J-250000D01*
G01*
X78320000Y-31713000D01*
G75*
G02*
X78070000Y-31963000I-250000J0D01*
G01*
X76870000Y-31963000D01*
G75*
G02*
X76620000Y-31713000I0J250000D01*
G01*
G37*
%TD.AperFunction*%
%TD*%
D11*
%TO.N,GNDPWR*%
%TO.C,J0*%
X27838400Y-42995200D03*
%TO.N,USB_DN*%
X27838400Y-45495200D03*
%TO.N,USB_DP*%
X27838400Y-47995200D03*
%TO.N,MAIN_VBUS*%
%TA.AperFunction,ComponentPad*%
G36*
G01*
X28563400Y-51345200D02*
X27113400Y-51345200D01*
G75*
G02*
X26863400Y-51095200I0J250000D01*
G01*
X26863400Y-49895200D01*
G75*
G02*
X27113400Y-49645200I250000J0D01*
G01*
X28563400Y-49645200D01*
G75*
G02*
X28813400Y-49895200I0J-250000D01*
G01*
X28813400Y-51095200D01*
G75*
G02*
X28563400Y-51345200I-250000J0D01*
G01*
G37*
%TD.AperFunction*%
%TD*%
D12*
%TO.N,MAIN_VBUS*%
%TO.C,U0*%
X36830000Y-40132000D03*
%TO.N,Net-(U0-Pad48)*%
X34290000Y-37592000D03*
%TO.N,GNDPWR*%
X36830000Y-37592000D03*
%TO.N,Net-(U0-Pad46)*%
X39370000Y-37592000D03*
%TO.N,KEY_COL12*%
X41910000Y-37592000D03*
%TO.N,KEY_COL13*%
X44450000Y-37592000D03*
%TO.N,KEY_COL14*%
X46990000Y-37592000D03*
%TO.N,KEY_COL15*%
X49530000Y-37592000D03*
%TO.N,KEY_COL16*%
X52070000Y-37592000D03*
%TO.N,KEY_COL17*%
X54610000Y-37592000D03*
%TO.N,KEY_COL20*%
X57150000Y-37592000D03*
%TO.N,KEY_COL19*%
X59690000Y-37592000D03*
%TO.N,KEY_COL18*%
X62230000Y-37592000D03*
%TO.N,Net-(U0-Pad36)*%
X64770000Y-37592000D03*
%TO.N,LED_SCL_ROW0_MCU*%
X67310000Y-37592000D03*
D13*
%TO.N,Net-(U0-Pad1)*%
X34290000Y-52832000D03*
D12*
%TO.N,KEY_ROW0*%
X36830000Y-52832000D03*
%TO.N,KEY_ROW1*%
X39370000Y-52832000D03*
%TO.N,KEY_ROW2*%
X41910000Y-52832000D03*
%TO.N,KEY_ROW3*%
X44450000Y-52832000D03*
%TO.N,KEY_ROW4*%
X46990000Y-52832000D03*
%TO.N,KEY_ROW5*%
X49530000Y-52832000D03*
%TO.N,KEY_ROW6*%
X52070000Y-52832000D03*
%TO.N,KEY_COL0*%
X54610000Y-52832000D03*
%TO.N,KEY_COL1*%
X57150000Y-52832000D03*
%TO.N,KEY_COL2*%
X59690000Y-52832000D03*
%TO.N,KEY_COL3*%
X62230000Y-52832000D03*
%TO.N,LED_SDA_ROW0_MCU*%
X64770000Y-52832000D03*
%TO.N,Net-(U0-Pad34)*%
X69850000Y-37592000D03*
%TO.N,Net-(U0-Pad33)*%
X72390000Y-37592000D03*
%TO.N,Net-(U0-Pad32)*%
X74930000Y-37592000D03*
%TO.N,Net-(U0-Pad31)*%
X77470000Y-37592000D03*
%TO.N,Net-(U0-Pad30)*%
X80010000Y-37592000D03*
%TO.N,Net-(U0-Pad29)*%
X82550000Y-37592000D03*
%TO.N,Net-(U0-Pad28)*%
X85090000Y-37592000D03*
%TO.N,Net-(U0-Pad27)*%
X87630000Y-37592000D03*
%TO.N,Net-(U0-Pad26)*%
X90170000Y-37592000D03*
%TO.N,Net-(U0-Pad25)*%
X92710000Y-37592000D03*
%TO.N,KEY_COL11*%
X92710000Y-52832000D03*
%TO.N,KEY_COL10*%
X90170000Y-52832000D03*
%TO.N,KEY_COL9*%
X87630000Y-52832000D03*
%TO.N,KEY_COL8*%
X85090000Y-52832000D03*
%TO.N,KEY_COL4*%
X67310000Y-52832000D03*
%TO.N,33_REF*%
X69850000Y-52832000D03*
%TO.N,LED_SCL_STATUS0_MCU*%
X72390000Y-52832000D03*
%TO.N,KEY_COL7*%
X82550000Y-52832000D03*
%TO.N,KEY_COL6*%
X80010000Y-52832000D03*
%TO.N,KEY_COL5*%
X77470000Y-52832000D03*
%TO.N,LED_SDA_STATUS0_MCU*%
X74930000Y-52832000D03*
D14*
%TO.N,USB_DP*%
X35020000Y-46482000D03*
%TO.N,USB_DN*%
X35020000Y-43942000D03*
%TD*%
D15*
%TO.N,KEY_ROW0*%
%TO.C,J1*%
X100025200Y-75692000D03*
D16*
%TO.N,KEY_ROW1*%
X102565200Y-75692000D03*
%TO.N,KEY_ROW2*%
X100025200Y-73152000D03*
%TO.N,KEY_ROW3*%
X102565200Y-73152000D03*
%TO.N,KEY_ROW4*%
X100025200Y-70612000D03*
%TO.N,KEY_ROW5*%
X102565200Y-70612000D03*
%TO.N,KEY_ROW6*%
X100025200Y-68072000D03*
%TO.N,KEY_COL0*%
X102565200Y-68072000D03*
%TO.N,KEY_COL1*%
X100025200Y-65532000D03*
%TO.N,KEY_COL2*%
X102565200Y-65532000D03*
%TO.N,KEY_COL3*%
X100025200Y-62992000D03*
%TO.N,KEY_COL4*%
X102565200Y-62992000D03*
%TO.N,KEY_COL5*%
X100025200Y-60452000D03*
%TO.N,KEY_COL6*%
X102565200Y-60452000D03*
%TO.N,KEY_COL7*%
X100025200Y-57912000D03*
%TO.N,KEY_COL8*%
X102565200Y-57912000D03*
%TO.N,KEY_COL9*%
X100025200Y-55372000D03*
%TO.N,KEY_COL10*%
X102565200Y-55372000D03*
%TO.N,KEY_COL11*%
X100025200Y-52832000D03*
%TO.N,KEY_COL12*%
X102565200Y-52832000D03*
%TO.N,LED_SDA_ROW0*%
X100025200Y-50292000D03*
%TO.N,LED_SCL_ROW0*%
X102565200Y-50292000D03*
%TO.N,KEY_COL13*%
X100025200Y-47752000D03*
%TO.N,KEY_COL14*%
X102565200Y-47752000D03*
%TO.N,KEY_COL15*%
X100025200Y-45212000D03*
%TO.N,KEY_COL16*%
X102565200Y-45212000D03*
%TO.N,KEY_COL17*%
X100025200Y-42672000D03*
%TO.N,KEY_COL18*%
X102565200Y-42672000D03*
%TO.N,KEY_COL19*%
X100025200Y-40132000D03*
%TO.N,KEY_COL20*%
X102565200Y-40132000D03*
%TO.N,Net-(J1-Pad31)*%
X100025200Y-37592000D03*
%TO.N,Net-(J1-Pad32)*%
X102565200Y-37592000D03*
%TO.N,Net-(J1-Pad33)*%
X100025200Y-35052000D03*
%TO.N,Net-(J1-Pad34)*%
X102565200Y-35052000D03*
%TO.N,GNDPWR*%
X100025200Y-32512000D03*
X102565200Y-32512000D03*
%TO.N,MAIN_VBUS*%
X100025200Y-29972000D03*
X102565200Y-29972000D03*
%TO.N,LED_SDA_STATUS0*%
X100025200Y-27432000D03*
%TO.N,LED_SCL_STATUS0*%
X102565200Y-27432000D03*
%TD*%
D17*
%TO.N,GNDPWR*%
X63652400Y-59182000D03*
X76149200Y-59842400D03*
X66598800Y-57658000D03*
%TO.N,MAIN_VBUS*%
X76149200Y-63775500D03*
%TO.N,LED_SDA_ROW0_MCU*%
X70408800Y-57672200D03*
%TD*%
D18*
%TO.N,GNDPWR*%
X110617000Y-96901000D02*
X19431000Y-96901000D01*
X19431000Y-74842000D01*
X98537128Y-74842000D01*
X98537128Y-76542000D01*
X98549388Y-76666482D01*
X98585698Y-76786180D01*
X98644663Y-76896494D01*
X98724015Y-76993185D01*
X98820706Y-77072537D01*
X98931020Y-77131502D01*
X99050718Y-77167812D01*
X99175200Y-77180072D01*
X100875200Y-77180072D01*
X100999682Y-77167812D01*
X101119380Y-77131502D01*
X101229694Y-77072537D01*
X101326385Y-76993185D01*
X101405737Y-76896494D01*
X101464702Y-76786180D01*
X101486713Y-76713620D01*
X101618568Y-76845475D01*
X101861789Y-77007990D01*
X102132042Y-77119932D01*
X102418940Y-77177000D01*
X102711460Y-77177000D01*
X102998358Y-77119932D01*
X103268611Y-77007990D01*
X103511832Y-76845475D01*
X103718675Y-76638632D01*
X103881190Y-76395411D01*
X103993132Y-76125158D01*
X104050200Y-75838260D01*
X104050200Y-75545740D01*
X103993132Y-75258842D01*
X103881190Y-74988589D01*
X103718675Y-74745368D01*
X103511832Y-74538525D01*
X103337440Y-74422000D01*
X103511832Y-74305475D01*
X103718675Y-74098632D01*
X103881190Y-73855411D01*
X103993132Y-73585158D01*
X104050200Y-73298260D01*
X104050200Y-73005740D01*
X103993132Y-72718842D01*
X103881190Y-72448589D01*
X103718675Y-72205368D01*
X103511832Y-71998525D01*
X103337440Y-71882000D01*
X103511832Y-71765475D01*
X103718675Y-71558632D01*
X103881190Y-71315411D01*
X103993132Y-71045158D01*
X104050200Y-70758260D01*
X104050200Y-70465740D01*
X103993132Y-70178842D01*
X103881190Y-69908589D01*
X103718675Y-69665368D01*
X103511832Y-69458525D01*
X103337440Y-69342000D01*
X103511832Y-69225475D01*
X103718675Y-69018632D01*
X103881190Y-68775411D01*
X103993132Y-68505158D01*
X104050200Y-68218260D01*
X104050200Y-67925740D01*
X103993132Y-67638842D01*
X103881190Y-67368589D01*
X103718675Y-67125368D01*
X103511832Y-66918525D01*
X103337440Y-66802000D01*
X103511832Y-66685475D01*
X103718675Y-66478632D01*
X103881190Y-66235411D01*
X103993132Y-65965158D01*
X104050200Y-65678260D01*
X104050200Y-65385740D01*
X103993132Y-65098842D01*
X103881190Y-64828589D01*
X103718675Y-64585368D01*
X103511832Y-64378525D01*
X103337440Y-64262000D01*
X103511832Y-64145475D01*
X103718675Y-63938632D01*
X103881190Y-63695411D01*
X103993132Y-63425158D01*
X104050200Y-63138260D01*
X104050200Y-62845740D01*
X103993132Y-62558842D01*
X103881190Y-62288589D01*
X103718675Y-62045368D01*
X103511832Y-61838525D01*
X103337440Y-61722000D01*
X103511832Y-61605475D01*
X103718675Y-61398632D01*
X103881190Y-61155411D01*
X103993132Y-60885158D01*
X104050200Y-60598260D01*
X104050200Y-60305740D01*
X103993132Y-60018842D01*
X103881190Y-59748589D01*
X103718675Y-59505368D01*
X103511832Y-59298525D01*
X103337440Y-59182000D01*
X103511832Y-59065475D01*
X103718675Y-58858632D01*
X103881190Y-58615411D01*
X103993132Y-58345158D01*
X104050200Y-58058260D01*
X104050200Y-57765740D01*
X103993132Y-57478842D01*
X103881190Y-57208589D01*
X103718675Y-56965368D01*
X103511832Y-56758525D01*
X103337440Y-56642000D01*
X103511832Y-56525475D01*
X103718675Y-56318632D01*
X103881190Y-56075411D01*
X103993132Y-55805158D01*
X104050200Y-55518260D01*
X104050200Y-55225740D01*
X103993132Y-54938842D01*
X103881190Y-54668589D01*
X103718675Y-54425368D01*
X103511832Y-54218525D01*
X103337440Y-54102000D01*
X103511832Y-53985475D01*
X103718675Y-53778632D01*
X103881190Y-53535411D01*
X103993132Y-53265158D01*
X104050200Y-52978260D01*
X104050200Y-52685740D01*
X103993132Y-52398842D01*
X103881190Y-52128589D01*
X103718675Y-51885368D01*
X103511832Y-51678525D01*
X103337440Y-51562000D01*
X103511832Y-51445475D01*
X103718675Y-51238632D01*
X103881190Y-50995411D01*
X103993132Y-50725158D01*
X104050200Y-50438260D01*
X104050200Y-50145740D01*
X103993132Y-49858842D01*
X103881190Y-49588589D01*
X103718675Y-49345368D01*
X103511832Y-49138525D01*
X103337440Y-49022000D01*
X103511832Y-48905475D01*
X103718675Y-48698632D01*
X103881190Y-48455411D01*
X103993132Y-48185158D01*
X104050200Y-47898260D01*
X104050200Y-47605740D01*
X103993132Y-47318842D01*
X103881190Y-47048589D01*
X103718675Y-46805368D01*
X103511832Y-46598525D01*
X103337440Y-46482000D01*
X103511832Y-46365475D01*
X103718675Y-46158632D01*
X103881190Y-45915411D01*
X103993132Y-45645158D01*
X104050200Y-45358260D01*
X104050200Y-45065740D01*
X103993132Y-44778842D01*
X103881190Y-44508589D01*
X103718675Y-44265368D01*
X103511832Y-44058525D01*
X103337440Y-43942000D01*
X103511832Y-43825475D01*
X103718675Y-43618632D01*
X103881190Y-43375411D01*
X103993132Y-43105158D01*
X104050200Y-42818260D01*
X104050200Y-42525740D01*
X103993132Y-42238842D01*
X103881190Y-41968589D01*
X103718675Y-41725368D01*
X103511832Y-41518525D01*
X103337440Y-41402000D01*
X103511832Y-41285475D01*
X103718675Y-41078632D01*
X103881190Y-40835411D01*
X103993132Y-40565158D01*
X104050200Y-40278260D01*
X104050200Y-39985740D01*
X103993132Y-39698842D01*
X103881190Y-39428589D01*
X103718675Y-39185368D01*
X103511832Y-38978525D01*
X103337440Y-38862000D01*
X103511832Y-38745475D01*
X103718675Y-38538632D01*
X103881190Y-38295411D01*
X103993132Y-38025158D01*
X104050200Y-37738260D01*
X104050200Y-37445740D01*
X103993132Y-37158842D01*
X103881190Y-36888589D01*
X103718675Y-36645368D01*
X103511832Y-36438525D01*
X103337440Y-36322000D01*
X103511832Y-36205475D01*
X103718675Y-35998632D01*
X103881190Y-35755411D01*
X103993132Y-35485158D01*
X104050200Y-35198260D01*
X104050200Y-34905740D01*
X103993132Y-34618842D01*
X103881190Y-34348589D01*
X103718675Y-34105368D01*
X103511832Y-33898525D01*
X103268611Y-33736010D01*
X102998358Y-33624068D01*
X102711460Y-33567000D01*
X102418940Y-33567000D01*
X102132042Y-33624068D01*
X101861789Y-33736010D01*
X101618568Y-33898525D01*
X101411725Y-34105368D01*
X101295200Y-34279760D01*
X101178675Y-34105368D01*
X100971832Y-33898525D01*
X100728611Y-33736010D01*
X100458358Y-33624068D01*
X100171460Y-33567000D01*
X99878940Y-33567000D01*
X99592042Y-33624068D01*
X99321789Y-33736010D01*
X99078568Y-33898525D01*
X98871725Y-34105368D01*
X98709210Y-34348589D01*
X98597268Y-34618842D01*
X98540200Y-34905740D01*
X98540200Y-35198260D01*
X98597268Y-35485158D01*
X98709210Y-35755411D01*
X98871725Y-35998632D01*
X99078568Y-36205475D01*
X99252960Y-36322000D01*
X99078568Y-36438525D01*
X98871725Y-36645368D01*
X98709210Y-36888589D01*
X98597268Y-37158842D01*
X98540200Y-37445740D01*
X98540200Y-37738260D01*
X98597268Y-38025158D01*
X98709210Y-38295411D01*
X98871725Y-38538632D01*
X99078568Y-38745475D01*
X99252960Y-38862000D01*
X99078568Y-38978525D01*
X98871725Y-39185368D01*
X98709210Y-39428589D01*
X98597268Y-39698842D01*
X98540200Y-39985740D01*
X98540200Y-40278260D01*
X98597268Y-40565158D01*
X98709210Y-40835411D01*
X98871725Y-41078632D01*
X99078568Y-41285475D01*
X99252960Y-41402000D01*
X99078568Y-41518525D01*
X98871725Y-41725368D01*
X98709210Y-41968589D01*
X98597268Y-42238842D01*
X98540200Y-42525740D01*
X98540200Y-42818260D01*
X98597268Y-43105158D01*
X98709210Y-43375411D01*
X98871725Y-43618632D01*
X99078568Y-43825475D01*
X99252960Y-43942000D01*
X99078568Y-44058525D01*
X98871725Y-44265368D01*
X98709210Y-44508589D01*
X98597268Y-44778842D01*
X98540200Y-45065740D01*
X98540200Y-45358260D01*
X98597268Y-45645158D01*
X98709210Y-45915411D01*
X98871725Y-46158632D01*
X99078568Y-46365475D01*
X99252960Y-46482000D01*
X99078568Y-46598525D01*
X98871725Y-46805368D01*
X98709210Y-47048589D01*
X98597268Y-47318842D01*
X98540200Y-47605740D01*
X98540200Y-47898260D01*
X98597268Y-48185158D01*
X98709210Y-48455411D01*
X98871725Y-48698632D01*
X99078568Y-48905475D01*
X99252960Y-49022000D01*
X99078568Y-49138525D01*
X98871725Y-49345368D01*
X98709210Y-49588589D01*
X98597268Y-49858842D01*
X98540200Y-50145740D01*
X98540200Y-50438260D01*
X98597268Y-50725158D01*
X98709210Y-50995411D01*
X98871725Y-51238632D01*
X99078568Y-51445475D01*
X99252960Y-51562000D01*
X99078568Y-51678525D01*
X98871725Y-51885368D01*
X98709210Y-52128589D01*
X98597268Y-52398842D01*
X98540200Y-52685740D01*
X98540200Y-52978260D01*
X98597268Y-53265158D01*
X98709210Y-53535411D01*
X98871725Y-53778632D01*
X99078568Y-53985475D01*
X99252960Y-54102000D01*
X99078568Y-54218525D01*
X98871725Y-54425368D01*
X98709210Y-54668589D01*
X98597268Y-54938842D01*
X98540200Y-55225740D01*
X98540200Y-55518260D01*
X98597268Y-55805158D01*
X98709210Y-56075411D01*
X98871725Y-56318632D01*
X99078568Y-56525475D01*
X99252960Y-56642000D01*
X99078568Y-56758525D01*
X98871725Y-56965368D01*
X98709210Y-57208589D01*
X98597268Y-57478842D01*
X98540200Y-57765740D01*
X98540200Y-58058260D01*
X98597268Y-58345158D01*
X98709210Y-58615411D01*
X98871725Y-58858632D01*
X99078568Y-59065475D01*
X99252960Y-59182000D01*
X99078568Y-59298525D01*
X98871725Y-59505368D01*
X98709210Y-59748589D01*
X98597268Y-60018842D01*
X98540200Y-60305740D01*
X98540200Y-60598260D01*
X98597268Y-60885158D01*
X98709210Y-61155411D01*
X98871725Y-61398632D01*
X99078568Y-61605475D01*
X99252960Y-61722000D01*
X99078568Y-61838525D01*
X98871725Y-62045368D01*
X98709210Y-62288589D01*
X98597268Y-62558842D01*
X98540200Y-62845740D01*
X98540200Y-63138260D01*
X98597268Y-63425158D01*
X98709210Y-63695411D01*
X98871725Y-63938632D01*
X99078568Y-64145475D01*
X99252960Y-64262000D01*
X99078568Y-64378525D01*
X98871725Y-64585368D01*
X98709210Y-64828589D01*
X98597268Y-65098842D01*
X98540200Y-65385740D01*
X98540200Y-65678260D01*
X98597268Y-65965158D01*
X98709210Y-66235411D01*
X98871725Y-66478632D01*
X99078568Y-66685475D01*
X99252960Y-66802000D01*
X99078568Y-66918525D01*
X98871725Y-67125368D01*
X98709210Y-67368589D01*
X98597268Y-67638842D01*
X98540200Y-67925740D01*
X98540200Y-68218260D01*
X98597268Y-68505158D01*
X98709210Y-68775411D01*
X98871725Y-69018632D01*
X99078568Y-69225475D01*
X99252960Y-69342000D01*
X99078568Y-69458525D01*
X98871725Y-69665368D01*
X98709210Y-69908589D01*
X98597268Y-70178842D01*
X98540200Y-70465740D01*
X98540200Y-70758260D01*
X98597268Y-71045158D01*
X98709210Y-71315411D01*
X98871725Y-71558632D01*
X99078568Y-71765475D01*
X99252960Y-71882000D01*
X99078568Y-71998525D01*
X98871725Y-72205368D01*
X98709210Y-72448589D01*
X98597268Y-72718842D01*
X98540200Y-73005740D01*
X98540200Y-73298260D01*
X98597268Y-73585158D01*
X98709210Y-73855411D01*
X98871725Y-74098632D01*
X99003580Y-74230487D01*
X98931020Y-74252498D01*
X98820706Y-74311463D01*
X98724015Y-74390815D01*
X98644663Y-74487506D01*
X98585698Y-74597820D01*
X98549388Y-74717518D01*
X98537128Y-74842000D01*
X19431000Y-74842000D01*
X19431000Y-63673561D01*
X75114200Y-63673561D01*
X75114200Y-63877439D01*
X75153974Y-64077398D01*
X75231995Y-64265756D01*
X75345263Y-64435274D01*
X75489426Y-64579437D01*
X75658944Y-64692705D01*
X75847302Y-64770726D01*
X76047261Y-64810500D01*
X76251139Y-64810500D01*
X76451098Y-64770726D01*
X76639456Y-64692705D01*
X76808974Y-64579437D01*
X76953137Y-64435274D01*
X77066405Y-64265756D01*
X77144426Y-64077398D01*
X77184200Y-63877439D01*
X77184200Y-63673561D01*
X77144426Y-63473602D01*
X77066405Y-63285244D01*
X76953137Y-63115726D01*
X76808974Y-62971563D01*
X76639456Y-62858295D01*
X76451098Y-62780274D01*
X76251139Y-62740500D01*
X76047261Y-62740500D01*
X75847302Y-62780274D01*
X75658944Y-62858295D01*
X75489426Y-62971563D01*
X75345263Y-63115726D01*
X75231995Y-63285244D01*
X75153974Y-63473602D01*
X75114200Y-63673561D01*
X19431000Y-63673561D01*
X19431000Y-57570261D01*
X69373800Y-57570261D01*
X69373800Y-57774139D01*
X69413574Y-57974098D01*
X69491595Y-58162456D01*
X69604863Y-58331974D01*
X69749026Y-58476137D01*
X69918544Y-58589405D01*
X70106902Y-58667426D01*
X70306861Y-58707200D01*
X70510739Y-58707200D01*
X70710698Y-58667426D01*
X70899056Y-58589405D01*
X71068574Y-58476137D01*
X71212737Y-58331974D01*
X71326005Y-58162456D01*
X71404026Y-57974098D01*
X71443800Y-57774139D01*
X71443800Y-57570261D01*
X71404026Y-57370302D01*
X71326005Y-57181944D01*
X71212737Y-57012426D01*
X71068574Y-56868263D01*
X70899056Y-56754995D01*
X70710698Y-56676974D01*
X70510739Y-56637200D01*
X70306861Y-56637200D01*
X70106902Y-56676974D01*
X69918544Y-56754995D01*
X69749026Y-56868263D01*
X69604863Y-57012426D01*
X69491595Y-57181944D01*
X69413574Y-57370302D01*
X69373800Y-57570261D01*
X19431000Y-57570261D01*
X19431000Y-52032000D01*
X32851928Y-52032000D01*
X32851928Y-53632000D01*
X32864188Y-53756482D01*
X32900498Y-53876180D01*
X32959463Y-53986494D01*
X33038815Y-54083185D01*
X33135506Y-54162537D01*
X33245820Y-54221502D01*
X33365518Y-54257812D01*
X33490000Y-54270072D01*
X35090000Y-54270072D01*
X35214482Y-54257812D01*
X35334180Y-54221502D01*
X35444494Y-54162537D01*
X35541185Y-54083185D01*
X35620537Y-53986494D01*
X35679502Y-53876180D01*
X35715812Y-53756482D01*
X35716643Y-53748039D01*
X35915241Y-53946637D01*
X36150273Y-54103680D01*
X36411426Y-54211853D01*
X36688665Y-54267000D01*
X36971335Y-54267000D01*
X37248574Y-54211853D01*
X37509727Y-54103680D01*
X37744759Y-53946637D01*
X37944637Y-53746759D01*
X38100000Y-53514241D01*
X38255363Y-53746759D01*
X38455241Y-53946637D01*
X38690273Y-54103680D01*
X38951426Y-54211853D01*
X39228665Y-54267000D01*
X39511335Y-54267000D01*
X39788574Y-54211853D01*
X40049727Y-54103680D01*
X40284759Y-53946637D01*
X40484637Y-53746759D01*
X40640000Y-53514241D01*
X40795363Y-53746759D01*
X40995241Y-53946637D01*
X41230273Y-54103680D01*
X41491426Y-54211853D01*
X41768665Y-54267000D01*
X42051335Y-54267000D01*
X42328574Y-54211853D01*
X42589727Y-54103680D01*
X42824759Y-53946637D01*
X43024637Y-53746759D01*
X43180000Y-53514241D01*
X43335363Y-53746759D01*
X43535241Y-53946637D01*
X43770273Y-54103680D01*
X44031426Y-54211853D01*
X44308665Y-54267000D01*
X44591335Y-54267000D01*
X44868574Y-54211853D01*
X45129727Y-54103680D01*
X45364759Y-53946637D01*
X45564637Y-53746759D01*
X45720000Y-53514241D01*
X45875363Y-53746759D01*
X46075241Y-53946637D01*
X46310273Y-54103680D01*
X46571426Y-54211853D01*
X46848665Y-54267000D01*
X47131335Y-54267000D01*
X47408574Y-54211853D01*
X47669727Y-54103680D01*
X47904759Y-53946637D01*
X48104637Y-53746759D01*
X48260000Y-53514241D01*
X48415363Y-53746759D01*
X48615241Y-53946637D01*
X48850273Y-54103680D01*
X49111426Y-54211853D01*
X49388665Y-54267000D01*
X49671335Y-54267000D01*
X49948574Y-54211853D01*
X50209727Y-54103680D01*
X50444759Y-53946637D01*
X50644637Y-53746759D01*
X50800000Y-53514241D01*
X50955363Y-53746759D01*
X51155241Y-53946637D01*
X51390273Y-54103680D01*
X51651426Y-54211853D01*
X51928665Y-54267000D01*
X52211335Y-54267000D01*
X52488574Y-54211853D01*
X52749727Y-54103680D01*
X52984759Y-53946637D01*
X53184637Y-53746759D01*
X53340000Y-53514241D01*
X53495363Y-53746759D01*
X53695241Y-53946637D01*
X53930273Y-54103680D01*
X54191426Y-54211853D01*
X54468665Y-54267000D01*
X54751335Y-54267000D01*
X55028574Y-54211853D01*
X55289727Y-54103680D01*
X55524759Y-53946637D01*
X55724637Y-53746759D01*
X55880000Y-53514241D01*
X56035363Y-53746759D01*
X56235241Y-53946637D01*
X56470273Y-54103680D01*
X56731426Y-54211853D01*
X57008665Y-54267000D01*
X57291335Y-54267000D01*
X57568574Y-54211853D01*
X57829727Y-54103680D01*
X58064759Y-53946637D01*
X58264637Y-53746759D01*
X58420000Y-53514241D01*
X58575363Y-53746759D01*
X58775241Y-53946637D01*
X59010273Y-54103680D01*
X59271426Y-54211853D01*
X59548665Y-54267000D01*
X59831335Y-54267000D01*
X60108574Y-54211853D01*
X60369727Y-54103680D01*
X60604759Y-53946637D01*
X60804637Y-53746759D01*
X60960000Y-53514241D01*
X61115363Y-53746759D01*
X61315241Y-53946637D01*
X61550273Y-54103680D01*
X61811426Y-54211853D01*
X62088665Y-54267000D01*
X62371335Y-54267000D01*
X62648574Y-54211853D01*
X62909727Y-54103680D01*
X63144759Y-53946637D01*
X63344637Y-53746759D01*
X63500000Y-53514241D01*
X63655363Y-53746759D01*
X63855241Y-53946637D01*
X64090273Y-54103680D01*
X64351426Y-54211853D01*
X64628665Y-54267000D01*
X64911335Y-54267000D01*
X65188574Y-54211853D01*
X65449727Y-54103680D01*
X65684759Y-53946637D01*
X65884637Y-53746759D01*
X66040000Y-53514241D01*
X66195363Y-53746759D01*
X66395241Y-53946637D01*
X66630273Y-54103680D01*
X66891426Y-54211853D01*
X67168665Y-54267000D01*
X67451335Y-54267000D01*
X67728574Y-54211853D01*
X67989727Y-54103680D01*
X68224759Y-53946637D01*
X68424637Y-53746759D01*
X68580000Y-53514241D01*
X68735363Y-53746759D01*
X68935241Y-53946637D01*
X69170273Y-54103680D01*
X69431426Y-54211853D01*
X69708665Y-54267000D01*
X69991335Y-54267000D01*
X70268574Y-54211853D01*
X70529727Y-54103680D01*
X70764759Y-53946637D01*
X70964637Y-53746759D01*
X71120000Y-53514241D01*
X71275363Y-53746759D01*
X71475241Y-53946637D01*
X71710273Y-54103680D01*
X71971426Y-54211853D01*
X72248665Y-54267000D01*
X72531335Y-54267000D01*
X72808574Y-54211853D01*
X73069727Y-54103680D01*
X73304759Y-53946637D01*
X73504637Y-53746759D01*
X73660000Y-53514241D01*
X73815363Y-53746759D01*
X74015241Y-53946637D01*
X74250273Y-54103680D01*
X74511426Y-54211853D01*
X74788665Y-54267000D01*
X75071335Y-54267000D01*
X75348574Y-54211853D01*
X75609727Y-54103680D01*
X75844759Y-53946637D01*
X76044637Y-53746759D01*
X76200000Y-53514241D01*
X76355363Y-53746759D01*
X76555241Y-53946637D01*
X76790273Y-54103680D01*
X77051426Y-54211853D01*
X77328665Y-54267000D01*
X77611335Y-54267000D01*
X77888574Y-54211853D01*
X78149727Y-54103680D01*
X78384759Y-53946637D01*
X78584637Y-53746759D01*
X78740000Y-53514241D01*
X78895363Y-53746759D01*
X79095241Y-53946637D01*
X79330273Y-54103680D01*
X79591426Y-54211853D01*
X79868665Y-54267000D01*
X80151335Y-54267000D01*
X80428574Y-54211853D01*
X80689727Y-54103680D01*
X80924759Y-53946637D01*
X81124637Y-53746759D01*
X81280000Y-53514241D01*
X81435363Y-53746759D01*
X81635241Y-53946637D01*
X81870273Y-54103680D01*
X82131426Y-54211853D01*
X82408665Y-54267000D01*
X82691335Y-54267000D01*
X82968574Y-54211853D01*
X83229727Y-54103680D01*
X83464759Y-53946637D01*
X83664637Y-53746759D01*
X83820000Y-53514241D01*
X83975363Y-53746759D01*
X84175241Y-53946637D01*
X84410273Y-54103680D01*
X84671426Y-54211853D01*
X84948665Y-54267000D01*
X85231335Y-54267000D01*
X85508574Y-54211853D01*
X85769727Y-54103680D01*
X86004759Y-53946637D01*
X86204637Y-53746759D01*
X86360000Y-53514241D01*
X86515363Y-53746759D01*
X86715241Y-53946637D01*
X86950273Y-54103680D01*
X87211426Y-54211853D01*
X87488665Y-54267000D01*
X87771335Y-54267000D01*
X88048574Y-54211853D01*
X88309727Y-54103680D01*
X88544759Y-53946637D01*
X88744637Y-53746759D01*
X88900000Y-53514241D01*
X89055363Y-53746759D01*
X89255241Y-53946637D01*
X89490273Y-54103680D01*
X89751426Y-54211853D01*
X90028665Y-54267000D01*
X90311335Y-54267000D01*
X90588574Y-54211853D01*
X90849727Y-54103680D01*
X91084759Y-53946637D01*
X91284637Y-53746759D01*
X91440000Y-53514241D01*
X91595363Y-53746759D01*
X91795241Y-53946637D01*
X92030273Y-54103680D01*
X92291426Y-54211853D01*
X92568665Y-54267000D01*
X92851335Y-54267000D01*
X93128574Y-54211853D01*
X93389727Y-54103680D01*
X93624759Y-53946637D01*
X93824637Y-53746759D01*
X93981680Y-53511727D01*
X94089853Y-53250574D01*
X94145000Y-52973335D01*
X94145000Y-52690665D01*
X94089853Y-52413426D01*
X93981680Y-52152273D01*
X93824637Y-51917241D01*
X93624759Y-51717363D01*
X93389727Y-51560320D01*
X93128574Y-51452147D01*
X92851335Y-51397000D01*
X92568665Y-51397000D01*
X92291426Y-51452147D01*
X92030273Y-51560320D01*
X91795241Y-51717363D01*
X91595363Y-51917241D01*
X91440000Y-52149759D01*
X91284637Y-51917241D01*
X91084759Y-51717363D01*
X90849727Y-51560320D01*
X90588574Y-51452147D01*
X90311335Y-51397000D01*
X90028665Y-51397000D01*
X89751426Y-51452147D01*
X89490273Y-51560320D01*
X89255241Y-51717363D01*
X89055363Y-51917241D01*
X88900000Y-52149759D01*
X88744637Y-51917241D01*
X88544759Y-51717363D01*
X88309727Y-51560320D01*
X88048574Y-51452147D01*
X87771335Y-51397000D01*
X87488665Y-51397000D01*
X87211426Y-51452147D01*
X86950273Y-51560320D01*
X86715241Y-51717363D01*
X86515363Y-51917241D01*
X86360000Y-52149759D01*
X86204637Y-51917241D01*
X86004759Y-51717363D01*
X85769727Y-51560320D01*
X85508574Y-51452147D01*
X85231335Y-51397000D01*
X84948665Y-51397000D01*
X84671426Y-51452147D01*
X84410273Y-51560320D01*
X84175241Y-51717363D01*
X83975363Y-51917241D01*
X83820000Y-52149759D01*
X83664637Y-51917241D01*
X83464759Y-51717363D01*
X83229727Y-51560320D01*
X82968574Y-51452147D01*
X82691335Y-51397000D01*
X82408665Y-51397000D01*
X82131426Y-51452147D01*
X81870273Y-51560320D01*
X81635241Y-51717363D01*
X81435363Y-51917241D01*
X81280000Y-52149759D01*
X81124637Y-51917241D01*
X80924759Y-51717363D01*
X80689727Y-51560320D01*
X80428574Y-51452147D01*
X80151335Y-51397000D01*
X79868665Y-51397000D01*
X79591426Y-51452147D01*
X79330273Y-51560320D01*
X79095241Y-51717363D01*
X78895363Y-51917241D01*
X78740000Y-52149759D01*
X78584637Y-51917241D01*
X78384759Y-51717363D01*
X78149727Y-51560320D01*
X77888574Y-51452147D01*
X77611335Y-51397000D01*
X77328665Y-51397000D01*
X77051426Y-51452147D01*
X76790273Y-51560320D01*
X76555241Y-51717363D01*
X76355363Y-51917241D01*
X76200000Y-52149759D01*
X76044637Y-51917241D01*
X75844759Y-51717363D01*
X75609727Y-51560320D01*
X75348574Y-51452147D01*
X75071335Y-51397000D01*
X74788665Y-51397000D01*
X74511426Y-51452147D01*
X74250273Y-51560320D01*
X74015241Y-51717363D01*
X73815363Y-51917241D01*
X73660000Y-52149759D01*
X73504637Y-51917241D01*
X73304759Y-51717363D01*
X73069727Y-51560320D01*
X72808574Y-51452147D01*
X72531335Y-51397000D01*
X72248665Y-51397000D01*
X71971426Y-51452147D01*
X71710273Y-51560320D01*
X71475241Y-51717363D01*
X71275363Y-51917241D01*
X71120000Y-52149759D01*
X70964637Y-51917241D01*
X70764759Y-51717363D01*
X70529727Y-51560320D01*
X70268574Y-51452147D01*
X69991335Y-51397000D01*
X69708665Y-51397000D01*
X69431426Y-51452147D01*
X69170273Y-51560320D01*
X68935241Y-51717363D01*
X68735363Y-51917241D01*
X68580000Y-52149759D01*
X68424637Y-51917241D01*
X68224759Y-51717363D01*
X67989727Y-51560320D01*
X67728574Y-51452147D01*
X67451335Y-51397000D01*
X67168665Y-51397000D01*
X66891426Y-51452147D01*
X66630273Y-51560320D01*
X66395241Y-51717363D01*
X66195363Y-51917241D01*
X66040000Y-52149759D01*
X65884637Y-51917241D01*
X65684759Y-51717363D01*
X65449727Y-51560320D01*
X65188574Y-51452147D01*
X64911335Y-51397000D01*
X64628665Y-51397000D01*
X64351426Y-51452147D01*
X64090273Y-51560320D01*
X63855241Y-51717363D01*
X63655363Y-51917241D01*
X63500000Y-52149759D01*
X63344637Y-51917241D01*
X63144759Y-51717363D01*
X62909727Y-51560320D01*
X62648574Y-51452147D01*
X62371335Y-51397000D01*
X62088665Y-51397000D01*
X61811426Y-51452147D01*
X61550273Y-51560320D01*
X61315241Y-51717363D01*
X61115363Y-51917241D01*
X60960000Y-52149759D01*
X60804637Y-51917241D01*
X60604759Y-51717363D01*
X60369727Y-51560320D01*
X60108574Y-51452147D01*
X59831335Y-51397000D01*
X59548665Y-51397000D01*
X59271426Y-51452147D01*
X59010273Y-51560320D01*
X58775241Y-51717363D01*
X58575363Y-51917241D01*
X58420000Y-52149759D01*
X58264637Y-51917241D01*
X58064759Y-51717363D01*
X57829727Y-51560320D01*
X57568574Y-51452147D01*
X57291335Y-51397000D01*
X57008665Y-51397000D01*
X56731426Y-51452147D01*
X56470273Y-51560320D01*
X56235241Y-51717363D01*
X56035363Y-51917241D01*
X55880000Y-52149759D01*
X55724637Y-51917241D01*
X55524759Y-51717363D01*
X55289727Y-51560320D01*
X55028574Y-51452147D01*
X54751335Y-51397000D01*
X54468665Y-51397000D01*
X54191426Y-51452147D01*
X53930273Y-51560320D01*
X53695241Y-51717363D01*
X53495363Y-51917241D01*
X53340000Y-52149759D01*
X53184637Y-51917241D01*
X52984759Y-51717363D01*
X52749727Y-51560320D01*
X52488574Y-51452147D01*
X52211335Y-51397000D01*
X51928665Y-51397000D01*
X51651426Y-51452147D01*
X51390273Y-51560320D01*
X51155241Y-51717363D01*
X50955363Y-51917241D01*
X50800000Y-52149759D01*
X50644637Y-51917241D01*
X50444759Y-51717363D01*
X50209727Y-51560320D01*
X49948574Y-51452147D01*
X49671335Y-51397000D01*
X49388665Y-51397000D01*
X49111426Y-51452147D01*
X48850273Y-51560320D01*
X48615241Y-51717363D01*
X48415363Y-51917241D01*
X48260000Y-52149759D01*
X48104637Y-51917241D01*
X47904759Y-51717363D01*
X47669727Y-51560320D01*
X47408574Y-51452147D01*
X47131335Y-51397000D01*
X46848665Y-51397000D01*
X46571426Y-51452147D01*
X46310273Y-51560320D01*
X46075241Y-51717363D01*
X45875363Y-51917241D01*
X45720000Y-52149759D01*
X45564637Y-51917241D01*
X45364759Y-51717363D01*
X45129727Y-51560320D01*
X44868574Y-51452147D01*
X44591335Y-51397000D01*
X44308665Y-51397000D01*
X44031426Y-51452147D01*
X43770273Y-51560320D01*
X43535241Y-51717363D01*
X43335363Y-51917241D01*
X43180000Y-52149759D01*
X43024637Y-51917241D01*
X42824759Y-51717363D01*
X42589727Y-51560320D01*
X42328574Y-51452147D01*
X42051335Y-51397000D01*
X41768665Y-51397000D01*
X41491426Y-51452147D01*
X41230273Y-51560320D01*
X40995241Y-51717363D01*
X40795363Y-51917241D01*
X40640000Y-52149759D01*
X40484637Y-51917241D01*
X40284759Y-51717363D01*
X40049727Y-51560320D01*
X39788574Y-51452147D01*
X39511335Y-51397000D01*
X39228665Y-51397000D01*
X38951426Y-51452147D01*
X38690273Y-51560320D01*
X38455241Y-51717363D01*
X38255363Y-51917241D01*
X38100000Y-52149759D01*
X37944637Y-51917241D01*
X37744759Y-51717363D01*
X37509727Y-51560320D01*
X37248574Y-51452147D01*
X36971335Y-51397000D01*
X36688665Y-51397000D01*
X36411426Y-51452147D01*
X36150273Y-51560320D01*
X35915241Y-51717363D01*
X35716643Y-51915961D01*
X35715812Y-51907518D01*
X35679502Y-51787820D01*
X35620537Y-51677506D01*
X35541185Y-51580815D01*
X35444494Y-51501463D01*
X35334180Y-51442498D01*
X35214482Y-51406188D01*
X35090000Y-51393928D01*
X33490000Y-51393928D01*
X33365518Y-51406188D01*
X33245820Y-51442498D01*
X33135506Y-51501463D01*
X33038815Y-51580815D01*
X32959463Y-51677506D01*
X32900498Y-51787820D01*
X32864188Y-51907518D01*
X32851928Y-52032000D01*
X19431000Y-52032000D01*
X19431000Y-45495200D01*
X26221215Y-45495200D01*
X26249887Y-45786311D01*
X26334801Y-46066234D01*
X26472694Y-46324214D01*
X26658266Y-46550334D01*
X26884386Y-46735906D01*
X26901774Y-46745200D01*
X26884386Y-46754494D01*
X26658266Y-46940066D01*
X26472694Y-47166186D01*
X26334801Y-47424166D01*
X26249887Y-47704089D01*
X26221215Y-47995200D01*
X26249887Y-48286311D01*
X26334801Y-48566234D01*
X26472694Y-48824214D01*
X26658266Y-49050334D01*
X26721737Y-49102423D01*
X26620014Y-49156795D01*
X26485438Y-49267238D01*
X26374995Y-49401814D01*
X26292928Y-49555350D01*
X26242392Y-49721946D01*
X26225328Y-49895200D01*
X26225328Y-51095200D01*
X26242392Y-51268454D01*
X26292928Y-51435050D01*
X26374995Y-51588586D01*
X26485438Y-51723162D01*
X26620014Y-51833605D01*
X26773550Y-51915672D01*
X26940146Y-51966208D01*
X27113400Y-51983272D01*
X28563400Y-51983272D01*
X28736654Y-51966208D01*
X28903250Y-51915672D01*
X29056786Y-51833605D01*
X29191362Y-51723162D01*
X29301805Y-51588586D01*
X29383872Y-51435050D01*
X29434408Y-51268454D01*
X29451472Y-51095200D01*
X29451472Y-49895200D01*
X29434408Y-49721946D01*
X29383872Y-49555350D01*
X29301805Y-49401814D01*
X29191362Y-49267238D01*
X29056786Y-49156795D01*
X28955063Y-49102423D01*
X29018534Y-49050334D01*
X29204106Y-48824214D01*
X29341999Y-48566234D01*
X29426913Y-48286311D01*
X29455585Y-47995200D01*
X29426913Y-47704089D01*
X29341999Y-47424166D01*
X29204106Y-47166186D01*
X29018534Y-46940066D01*
X28792414Y-46754494D01*
X28775026Y-46745200D01*
X28792414Y-46735906D01*
X29018534Y-46550334D01*
X29204106Y-46324214D01*
X29341999Y-46066234D01*
X29426913Y-45786311D01*
X29455585Y-45495200D01*
X29426913Y-45204089D01*
X29341999Y-44924166D01*
X29204106Y-44666186D01*
X29018534Y-44440066D01*
X28792414Y-44254494D01*
X28534434Y-44116601D01*
X28254511Y-44031687D01*
X28036350Y-44010200D01*
X27640450Y-44010200D01*
X27422289Y-44031687D01*
X27142366Y-44116601D01*
X26884386Y-44254494D01*
X26658266Y-44440066D01*
X26472694Y-44666186D01*
X26334801Y-44924166D01*
X26249887Y-45204089D01*
X26221215Y-45495200D01*
X19431000Y-45495200D01*
X19431000Y-43815439D01*
X33735000Y-43815439D01*
X33735000Y-44068561D01*
X33784381Y-44316821D01*
X33881247Y-44550676D01*
X34021875Y-44761140D01*
X34200860Y-44940125D01*
X34411324Y-45080753D01*
X34645179Y-45177619D01*
X34818027Y-45212000D01*
X34645179Y-45246381D01*
X34411324Y-45343247D01*
X34200860Y-45483875D01*
X34021875Y-45662860D01*
X33881247Y-45873324D01*
X33784381Y-46107179D01*
X33735000Y-46355439D01*
X33735000Y-46608561D01*
X33784381Y-46856821D01*
X33881247Y-47090676D01*
X34021875Y-47301140D01*
X34200860Y-47480125D01*
X34411324Y-47620753D01*
X34645179Y-47717619D01*
X34893439Y-47767000D01*
X35146561Y-47767000D01*
X35394821Y-47717619D01*
X35628676Y-47620753D01*
X35839140Y-47480125D01*
X36018125Y-47301140D01*
X36158753Y-47090676D01*
X36255619Y-46856821D01*
X36305000Y-46608561D01*
X36305000Y-46355439D01*
X36255619Y-46107179D01*
X36158753Y-45873324D01*
X36018125Y-45662860D01*
X35839140Y-45483875D01*
X35628676Y-45343247D01*
X35394821Y-45246381D01*
X35221973Y-45212000D01*
X35394821Y-45177619D01*
X35628676Y-45080753D01*
X35839140Y-44940125D01*
X36018125Y-44761140D01*
X36158753Y-44550676D01*
X36255619Y-44316821D01*
X36305000Y-44068561D01*
X36305000Y-43815439D01*
X36255619Y-43567179D01*
X36158753Y-43333324D01*
X36018125Y-43122860D01*
X35839140Y-42943875D01*
X35628676Y-42803247D01*
X35394821Y-42706381D01*
X35146561Y-42657000D01*
X34893439Y-42657000D01*
X34645179Y-42706381D01*
X34411324Y-42803247D01*
X34200860Y-42943875D01*
X34021875Y-43122860D01*
X33881247Y-43333324D01*
X33784381Y-43567179D01*
X33735000Y-43815439D01*
X19431000Y-43815439D01*
X19431000Y-39990665D01*
X35395000Y-39990665D01*
X35395000Y-40273335D01*
X35450147Y-40550574D01*
X35558320Y-40811727D01*
X35715363Y-41046759D01*
X35915241Y-41246637D01*
X36150273Y-41403680D01*
X36411426Y-41511853D01*
X36688665Y-41567000D01*
X36971335Y-41567000D01*
X37248574Y-41511853D01*
X37509727Y-41403680D01*
X37744759Y-41246637D01*
X37944637Y-41046759D01*
X38101680Y-40811727D01*
X38209853Y-40550574D01*
X38265000Y-40273335D01*
X38265000Y-39990665D01*
X38209853Y-39713426D01*
X38101680Y-39452273D01*
X37944637Y-39217241D01*
X37744759Y-39017363D01*
X37509727Y-38860320D01*
X37248574Y-38752147D01*
X36971335Y-38697000D01*
X36688665Y-38697000D01*
X36411426Y-38752147D01*
X36150273Y-38860320D01*
X35915241Y-39017363D01*
X35715363Y-39217241D01*
X35558320Y-39452273D01*
X35450147Y-39713426D01*
X35395000Y-39990665D01*
X19431000Y-39990665D01*
X19431000Y-37450665D01*
X32855000Y-37450665D01*
X32855000Y-37733335D01*
X32910147Y-38010574D01*
X33018320Y-38271727D01*
X33175363Y-38506759D01*
X33375241Y-38706637D01*
X33610273Y-38863680D01*
X33871426Y-38971853D01*
X34148665Y-39027000D01*
X34431335Y-39027000D01*
X34708574Y-38971853D01*
X34969727Y-38863680D01*
X35204759Y-38706637D01*
X35404637Y-38506759D01*
X35561680Y-38271727D01*
X35669853Y-38010574D01*
X35725000Y-37733335D01*
X35725000Y-37450665D01*
X37935000Y-37450665D01*
X37935000Y-37733335D01*
X37990147Y-38010574D01*
X38098320Y-38271727D01*
X38255363Y-38506759D01*
X38455241Y-38706637D01*
X38690273Y-38863680D01*
X38951426Y-38971853D01*
X39228665Y-39027000D01*
X39511335Y-39027000D01*
X39788574Y-38971853D01*
X40049727Y-38863680D01*
X40284759Y-38706637D01*
X40484637Y-38506759D01*
X40640000Y-38274241D01*
X40795363Y-38506759D01*
X40995241Y-38706637D01*
X41230273Y-38863680D01*
X41491426Y-38971853D01*
X41768665Y-39027000D01*
X42051335Y-39027000D01*
X42328574Y-38971853D01*
X42589727Y-38863680D01*
X42824759Y-38706637D01*
X43024637Y-38506759D01*
X43180000Y-38274241D01*
X43335363Y-38506759D01*
X43535241Y-38706637D01*
X43770273Y-38863680D01*
X44031426Y-38971853D01*
X44308665Y-39027000D01*
X44591335Y-39027000D01*
X44868574Y-38971853D01*
X45129727Y-38863680D01*
X45364759Y-38706637D01*
X45564637Y-38506759D01*
X45720000Y-38274241D01*
X45875363Y-38506759D01*
X46075241Y-38706637D01*
X46310273Y-38863680D01*
X46571426Y-38971853D01*
X46848665Y-39027000D01*
X47131335Y-39027000D01*
X47408574Y-38971853D01*
X47669727Y-38863680D01*
X47904759Y-38706637D01*
X48104637Y-38506759D01*
X48260000Y-38274241D01*
X48415363Y-38506759D01*
X48615241Y-38706637D01*
X48850273Y-38863680D01*
X49111426Y-38971853D01*
X49388665Y-39027000D01*
X49671335Y-39027000D01*
X49948574Y-38971853D01*
X50209727Y-38863680D01*
X50444759Y-38706637D01*
X50644637Y-38506759D01*
X50800000Y-38274241D01*
X50955363Y-38506759D01*
X51155241Y-38706637D01*
X51390273Y-38863680D01*
X51651426Y-38971853D01*
X51928665Y-39027000D01*
X52211335Y-39027000D01*
X52488574Y-38971853D01*
X52749727Y-38863680D01*
X52984759Y-38706637D01*
X53184637Y-38506759D01*
X53340000Y-38274241D01*
X53495363Y-38506759D01*
X53695241Y-38706637D01*
X53930273Y-38863680D01*
X54191426Y-38971853D01*
X54468665Y-39027000D01*
X54751335Y-39027000D01*
X55028574Y-38971853D01*
X55289727Y-38863680D01*
X55524759Y-38706637D01*
X55724637Y-38506759D01*
X55880000Y-38274241D01*
X56035363Y-38506759D01*
X56235241Y-38706637D01*
X56470273Y-38863680D01*
X56731426Y-38971853D01*
X57008665Y-39027000D01*
X57291335Y-39027000D01*
X57568574Y-38971853D01*
X57829727Y-38863680D01*
X58064759Y-38706637D01*
X58264637Y-38506759D01*
X58420000Y-38274241D01*
X58575363Y-38506759D01*
X58775241Y-38706637D01*
X59010273Y-38863680D01*
X59271426Y-38971853D01*
X59548665Y-39027000D01*
X59831335Y-39027000D01*
X60108574Y-38971853D01*
X60369727Y-38863680D01*
X60604759Y-38706637D01*
X60804637Y-38506759D01*
X60960000Y-38274241D01*
X61115363Y-38506759D01*
X61315241Y-38706637D01*
X61550273Y-38863680D01*
X61811426Y-38971853D01*
X62088665Y-39027000D01*
X62371335Y-39027000D01*
X62648574Y-38971853D01*
X62909727Y-38863680D01*
X63144759Y-38706637D01*
X63344637Y-38506759D01*
X63500000Y-38274241D01*
X63655363Y-38506759D01*
X63855241Y-38706637D01*
X64090273Y-38863680D01*
X64351426Y-38971853D01*
X64628665Y-39027000D01*
X64911335Y-39027000D01*
X65188574Y-38971853D01*
X65449727Y-38863680D01*
X65684759Y-38706637D01*
X65884637Y-38506759D01*
X66040000Y-38274241D01*
X66195363Y-38506759D01*
X66395241Y-38706637D01*
X66630273Y-38863680D01*
X66891426Y-38971853D01*
X67168665Y-39027000D01*
X67451335Y-39027000D01*
X67728574Y-38971853D01*
X67989727Y-38863680D01*
X68224759Y-38706637D01*
X68424637Y-38506759D01*
X68580000Y-38274241D01*
X68735363Y-38506759D01*
X68935241Y-38706637D01*
X69170273Y-38863680D01*
X69431426Y-38971853D01*
X69708665Y-39027000D01*
X69991335Y-39027000D01*
X70268574Y-38971853D01*
X70529727Y-38863680D01*
X70764759Y-38706637D01*
X70964637Y-38506759D01*
X71120000Y-38274241D01*
X71275363Y-38506759D01*
X71475241Y-38706637D01*
X71710273Y-38863680D01*
X71971426Y-38971853D01*
X72248665Y-39027000D01*
X72531335Y-39027000D01*
X72808574Y-38971853D01*
X73069727Y-38863680D01*
X73304759Y-38706637D01*
X73504637Y-38506759D01*
X73660000Y-38274241D01*
X73815363Y-38506759D01*
X74015241Y-38706637D01*
X74250273Y-38863680D01*
X74511426Y-38971853D01*
X74788665Y-39027000D01*
X75071335Y-39027000D01*
X75348574Y-38971853D01*
X75609727Y-38863680D01*
X75844759Y-38706637D01*
X76044637Y-38506759D01*
X76200000Y-38274241D01*
X76355363Y-38506759D01*
X76555241Y-38706637D01*
X76790273Y-38863680D01*
X77051426Y-38971853D01*
X77328665Y-39027000D01*
X77611335Y-39027000D01*
X77888574Y-38971853D01*
X78149727Y-38863680D01*
X78384759Y-38706637D01*
X78584637Y-38506759D01*
X78740000Y-38274241D01*
X78895363Y-38506759D01*
X79095241Y-38706637D01*
X79330273Y-38863680D01*
X79591426Y-38971853D01*
X79868665Y-39027000D01*
X80151335Y-39027000D01*
X80428574Y-38971853D01*
X80689727Y-38863680D01*
X80924759Y-38706637D01*
X81124637Y-38506759D01*
X81280000Y-38274241D01*
X81435363Y-38506759D01*
X81635241Y-38706637D01*
X81870273Y-38863680D01*
X82131426Y-38971853D01*
X82408665Y-39027000D01*
X82691335Y-39027000D01*
X82968574Y-38971853D01*
X83229727Y-38863680D01*
X83464759Y-38706637D01*
X83664637Y-38506759D01*
X83820000Y-38274241D01*
X83975363Y-38506759D01*
X84175241Y-38706637D01*
X84410273Y-38863680D01*
X84671426Y-38971853D01*
X84948665Y-39027000D01*
X85231335Y-39027000D01*
X85508574Y-38971853D01*
X85769727Y-38863680D01*
X86004759Y-38706637D01*
X86204637Y-38506759D01*
X86360000Y-38274241D01*
X86515363Y-38506759D01*
X86715241Y-38706637D01*
X86950273Y-38863680D01*
X87211426Y-38971853D01*
X87488665Y-39027000D01*
X87771335Y-39027000D01*
X88048574Y-38971853D01*
X88309727Y-38863680D01*
X88544759Y-38706637D01*
X88744637Y-38506759D01*
X88900000Y-38274241D01*
X89055363Y-38506759D01*
X89255241Y-38706637D01*
X89490273Y-38863680D01*
X89751426Y-38971853D01*
X90028665Y-39027000D01*
X90311335Y-39027000D01*
X90588574Y-38971853D01*
X90849727Y-38863680D01*
X91084759Y-38706637D01*
X91284637Y-38506759D01*
X91440000Y-38274241D01*
X91595363Y-38506759D01*
X91795241Y-38706637D01*
X92030273Y-38863680D01*
X92291426Y-38971853D01*
X92568665Y-39027000D01*
X92851335Y-39027000D01*
X93128574Y-38971853D01*
X93389727Y-38863680D01*
X93624759Y-38706637D01*
X93824637Y-38506759D01*
X93981680Y-38271727D01*
X94089853Y-38010574D01*
X94145000Y-37733335D01*
X94145000Y-37450665D01*
X94089853Y-37173426D01*
X93981680Y-36912273D01*
X93824637Y-36677241D01*
X93624759Y-36477363D01*
X93389727Y-36320320D01*
X93128574Y-36212147D01*
X92851335Y-36157000D01*
X92568665Y-36157000D01*
X92291426Y-36212147D01*
X92030273Y-36320320D01*
X91795241Y-36477363D01*
X91595363Y-36677241D01*
X91440000Y-36909759D01*
X91284637Y-36677241D01*
X91084759Y-36477363D01*
X90849727Y-36320320D01*
X90588574Y-36212147D01*
X90311335Y-36157000D01*
X90028665Y-36157000D01*
X89751426Y-36212147D01*
X89490273Y-36320320D01*
X89255241Y-36477363D01*
X89055363Y-36677241D01*
X88900000Y-36909759D01*
X88744637Y-36677241D01*
X88544759Y-36477363D01*
X88309727Y-36320320D01*
X88048574Y-36212147D01*
X87771335Y-36157000D01*
X87488665Y-36157000D01*
X87211426Y-36212147D01*
X86950273Y-36320320D01*
X86715241Y-36477363D01*
X86515363Y-36677241D01*
X86360000Y-36909759D01*
X86204637Y-36677241D01*
X86004759Y-36477363D01*
X85769727Y-36320320D01*
X85508574Y-36212147D01*
X85231335Y-36157000D01*
X84948665Y-36157000D01*
X84671426Y-36212147D01*
X84410273Y-36320320D01*
X84175241Y-36477363D01*
X83975363Y-36677241D01*
X83820000Y-36909759D01*
X83664637Y-36677241D01*
X83464759Y-36477363D01*
X83229727Y-36320320D01*
X82968574Y-36212147D01*
X82691335Y-36157000D01*
X82408665Y-36157000D01*
X82131426Y-36212147D01*
X81870273Y-36320320D01*
X81635241Y-36477363D01*
X81435363Y-36677241D01*
X81280000Y-36909759D01*
X81124637Y-36677241D01*
X80924759Y-36477363D01*
X80689727Y-36320320D01*
X80428574Y-36212147D01*
X80151335Y-36157000D01*
X79868665Y-36157000D01*
X79591426Y-36212147D01*
X79330273Y-36320320D01*
X79095241Y-36477363D01*
X78895363Y-36677241D01*
X78740000Y-36909759D01*
X78584637Y-36677241D01*
X78384759Y-36477363D01*
X78149727Y-36320320D01*
X77888574Y-36212147D01*
X77611335Y-36157000D01*
X77328665Y-36157000D01*
X77051426Y-36212147D01*
X76790273Y-36320320D01*
X76555241Y-36477363D01*
X76355363Y-36677241D01*
X76200000Y-36909759D01*
X76044637Y-36677241D01*
X75844759Y-36477363D01*
X75609727Y-36320320D01*
X75348574Y-36212147D01*
X75071335Y-36157000D01*
X74788665Y-36157000D01*
X74511426Y-36212147D01*
X74250273Y-36320320D01*
X74015241Y-36477363D01*
X73815363Y-36677241D01*
X73660000Y-36909759D01*
X73504637Y-36677241D01*
X73304759Y-36477363D01*
X73069727Y-36320320D01*
X72808574Y-36212147D01*
X72531335Y-36157000D01*
X72248665Y-36157000D01*
X71971426Y-36212147D01*
X71710273Y-36320320D01*
X71475241Y-36477363D01*
X71275363Y-36677241D01*
X71120000Y-36909759D01*
X70964637Y-36677241D01*
X70764759Y-36477363D01*
X70529727Y-36320320D01*
X70268574Y-36212147D01*
X69991335Y-36157000D01*
X69708665Y-36157000D01*
X69431426Y-36212147D01*
X69170273Y-36320320D01*
X68935241Y-36477363D01*
X68735363Y-36677241D01*
X68580000Y-36909759D01*
X68424637Y-36677241D01*
X68224759Y-36477363D01*
X67989727Y-36320320D01*
X67728574Y-36212147D01*
X67451335Y-36157000D01*
X67168665Y-36157000D01*
X66891426Y-36212147D01*
X66630273Y-36320320D01*
X66395241Y-36477363D01*
X66195363Y-36677241D01*
X66040000Y-36909759D01*
X65884637Y-36677241D01*
X65684759Y-36477363D01*
X65449727Y-36320320D01*
X65188574Y-36212147D01*
X64911335Y-36157000D01*
X64628665Y-36157000D01*
X64351426Y-36212147D01*
X64090273Y-36320320D01*
X63855241Y-36477363D01*
X63655363Y-36677241D01*
X63500000Y-36909759D01*
X63344637Y-36677241D01*
X63144759Y-36477363D01*
X62909727Y-36320320D01*
X62648574Y-36212147D01*
X62371335Y-36157000D01*
X62088665Y-36157000D01*
X61811426Y-36212147D01*
X61550273Y-36320320D01*
X61315241Y-36477363D01*
X61115363Y-36677241D01*
X60960000Y-36909759D01*
X60804637Y-36677241D01*
X60604759Y-36477363D01*
X60369727Y-36320320D01*
X60108574Y-36212147D01*
X59831335Y-36157000D01*
X59548665Y-36157000D01*
X59271426Y-36212147D01*
X59010273Y-36320320D01*
X58775241Y-36477363D01*
X58575363Y-36677241D01*
X58420000Y-36909759D01*
X58264637Y-36677241D01*
X58064759Y-36477363D01*
X57829727Y-36320320D01*
X57568574Y-36212147D01*
X57291335Y-36157000D01*
X57008665Y-36157000D01*
X56731426Y-36212147D01*
X56470273Y-36320320D01*
X56235241Y-36477363D01*
X56035363Y-36677241D01*
X55880000Y-36909759D01*
X55724637Y-36677241D01*
X55524759Y-36477363D01*
X55289727Y-36320320D01*
X55028574Y-36212147D01*
X54751335Y-36157000D01*
X54468665Y-36157000D01*
X54191426Y-36212147D01*
X53930273Y-36320320D01*
X53695241Y-36477363D01*
X53495363Y-36677241D01*
X53340000Y-36909759D01*
X53184637Y-36677241D01*
X52984759Y-36477363D01*
X52749727Y-36320320D01*
X52488574Y-36212147D01*
X52211335Y-36157000D01*
X51928665Y-36157000D01*
X51651426Y-36212147D01*
X51390273Y-36320320D01*
X51155241Y-36477363D01*
X50955363Y-36677241D01*
X50800000Y-36909759D01*
X50644637Y-36677241D01*
X50444759Y-36477363D01*
X50209727Y-36320320D01*
X49948574Y-36212147D01*
X49671335Y-36157000D01*
X49388665Y-36157000D01*
X49111426Y-36212147D01*
X48850273Y-36320320D01*
X48615241Y-36477363D01*
X48415363Y-36677241D01*
X48260000Y-36909759D01*
X48104637Y-36677241D01*
X47904759Y-36477363D01*
X47669727Y-36320320D01*
X47408574Y-36212147D01*
X47131335Y-36157000D01*
X46848665Y-36157000D01*
X46571426Y-36212147D01*
X46310273Y-36320320D01*
X46075241Y-36477363D01*
X45875363Y-36677241D01*
X45720000Y-36909759D01*
X45564637Y-36677241D01*
X45364759Y-36477363D01*
X45129727Y-36320320D01*
X44868574Y-36212147D01*
X44591335Y-36157000D01*
X44308665Y-36157000D01*
X44031426Y-36212147D01*
X43770273Y-36320320D01*
X43535241Y-36477363D01*
X43335363Y-36677241D01*
X43180000Y-36909759D01*
X43024637Y-36677241D01*
X42824759Y-36477363D01*
X42589727Y-36320320D01*
X42328574Y-36212147D01*
X42051335Y-36157000D01*
X41768665Y-36157000D01*
X41491426Y-36212147D01*
X41230273Y-36320320D01*
X40995241Y-36477363D01*
X40795363Y-36677241D01*
X40640000Y-36909759D01*
X40484637Y-36677241D01*
X40284759Y-36477363D01*
X40049727Y-36320320D01*
X39788574Y-36212147D01*
X39511335Y-36157000D01*
X39228665Y-36157000D01*
X38951426Y-36212147D01*
X38690273Y-36320320D01*
X38455241Y-36477363D01*
X38255363Y-36677241D01*
X38098320Y-36912273D01*
X37990147Y-37173426D01*
X37935000Y-37450665D01*
X35725000Y-37450665D01*
X35669853Y-37173426D01*
X35561680Y-36912273D01*
X35404637Y-36677241D01*
X35204759Y-36477363D01*
X34969727Y-36320320D01*
X34708574Y-36212147D01*
X34431335Y-36157000D01*
X34148665Y-36157000D01*
X33871426Y-36212147D01*
X33610273Y-36320320D01*
X33375241Y-36477363D01*
X33175363Y-36677241D01*
X33018320Y-36912273D01*
X32910147Y-37173426D01*
X32855000Y-37450665D01*
X19431000Y-37450665D01*
X19431000Y-30263000D01*
X75981928Y-30263000D01*
X75981928Y-31713000D01*
X75998992Y-31886254D01*
X76049528Y-32052850D01*
X76131595Y-32206386D01*
X76242038Y-32340962D01*
X76376614Y-32451405D01*
X76530150Y-32533472D01*
X76696746Y-32584008D01*
X76870000Y-32601072D01*
X78070000Y-32601072D01*
X78243254Y-32584008D01*
X78409850Y-32533472D01*
X78563386Y-32451405D01*
X78697962Y-32340962D01*
X78808405Y-32206386D01*
X78890472Y-32052850D01*
X78941008Y-31886254D01*
X78958072Y-31713000D01*
X78958072Y-30790051D01*
X80985000Y-30790051D01*
X80985000Y-31185950D01*
X81006487Y-31404111D01*
X81091401Y-31684034D01*
X81229294Y-31942014D01*
X81414866Y-32168134D01*
X81640987Y-32353706D01*
X81898967Y-32491599D01*
X82178890Y-32576513D01*
X82470000Y-32605185D01*
X82761111Y-32576513D01*
X83041034Y-32491599D01*
X83299014Y-32353706D01*
X83525134Y-32168134D01*
X83710706Y-31942014D01*
X83720000Y-31924626D01*
X83729294Y-31942014D01*
X83914866Y-32168134D01*
X84140987Y-32353706D01*
X84398967Y-32491599D01*
X84678890Y-32576513D01*
X84970000Y-32605185D01*
X85261111Y-32576513D01*
X85541034Y-32491599D01*
X85799014Y-32353706D01*
X86025134Y-32168134D01*
X86210706Y-31942014D01*
X86220000Y-31924626D01*
X86229294Y-31942014D01*
X86414866Y-32168134D01*
X86640987Y-32353706D01*
X86898967Y-32491599D01*
X87178890Y-32576513D01*
X87470000Y-32605185D01*
X87761111Y-32576513D01*
X88041034Y-32491599D01*
X88299014Y-32353706D01*
X88525134Y-32168134D01*
X88710706Y-31942014D01*
X88720000Y-31924626D01*
X88729294Y-31942014D01*
X88914866Y-32168134D01*
X89140987Y-32353706D01*
X89398967Y-32491599D01*
X89678890Y-32576513D01*
X89970000Y-32605185D01*
X90261111Y-32576513D01*
X90541034Y-32491599D01*
X90799014Y-32353706D01*
X91025134Y-32168134D01*
X91210706Y-31942014D01*
X91220000Y-31924626D01*
X91229294Y-31942014D01*
X91414866Y-32168134D01*
X91640987Y-32353706D01*
X91898967Y-32491599D01*
X92178890Y-32576513D01*
X92470000Y-32605185D01*
X92761111Y-32576513D01*
X93041034Y-32491599D01*
X93299014Y-32353706D01*
X93525134Y-32168134D01*
X93710706Y-31942014D01*
X93848599Y-31684033D01*
X93933513Y-31404110D01*
X93955000Y-31185949D01*
X93955000Y-30790050D01*
X93933513Y-30571889D01*
X93848599Y-30291966D01*
X93710706Y-30033986D01*
X93525134Y-29807866D01*
X93299013Y-29622294D01*
X93041033Y-29484401D01*
X92761110Y-29399487D01*
X92470000Y-29370815D01*
X92178889Y-29399487D01*
X91898966Y-29484401D01*
X91640986Y-29622294D01*
X91414866Y-29807866D01*
X91229294Y-30033987D01*
X91220000Y-30051374D01*
X91210706Y-30033986D01*
X91025134Y-29807866D01*
X90799013Y-29622294D01*
X90541033Y-29484401D01*
X90261110Y-29399487D01*
X89970000Y-29370815D01*
X89678889Y-29399487D01*
X89398966Y-29484401D01*
X89140986Y-29622294D01*
X88914866Y-29807866D01*
X88729294Y-30033987D01*
X88720000Y-30051374D01*
X88710706Y-30033986D01*
X88525134Y-29807866D01*
X88299013Y-29622294D01*
X88041033Y-29484401D01*
X87761110Y-29399487D01*
X87470000Y-29370815D01*
X87178889Y-29399487D01*
X86898966Y-29484401D01*
X86640986Y-29622294D01*
X86414866Y-29807866D01*
X86229294Y-30033987D01*
X86220000Y-30051374D01*
X86210706Y-30033986D01*
X86025134Y-29807866D01*
X85799013Y-29622294D01*
X85541033Y-29484401D01*
X85261110Y-29399487D01*
X84970000Y-29370815D01*
X84678889Y-29399487D01*
X84398966Y-29484401D01*
X84140986Y-29622294D01*
X83914866Y-29807866D01*
X83729294Y-30033987D01*
X83720000Y-30051374D01*
X83710706Y-30033986D01*
X83525134Y-29807866D01*
X83299013Y-29622294D01*
X83041033Y-29484401D01*
X82761110Y-29399487D01*
X82470000Y-29370815D01*
X82178889Y-29399487D01*
X81898966Y-29484401D01*
X81640986Y-29622294D01*
X81414866Y-29807866D01*
X81229294Y-30033987D01*
X81091401Y-30291967D01*
X81006487Y-30571890D01*
X80985000Y-30790051D01*
X78958072Y-30790051D01*
X78958072Y-30263000D01*
X78941008Y-30089746D01*
X78890472Y-29923150D01*
X78808405Y-29769614D01*
X78697962Y-29635038D01*
X78563386Y-29524595D01*
X78409850Y-29442528D01*
X78243254Y-29391992D01*
X78070000Y-29374928D01*
X76870000Y-29374928D01*
X76696746Y-29391992D01*
X76530150Y-29442528D01*
X76376614Y-29524595D01*
X76242038Y-29635038D01*
X76131595Y-29769614D01*
X76049528Y-29923150D01*
X75998992Y-30089746D01*
X75981928Y-30263000D01*
X19431000Y-30263000D01*
X19431000Y-27285740D01*
X98540200Y-27285740D01*
X98540200Y-27578260D01*
X98597268Y-27865158D01*
X98709210Y-28135411D01*
X98871725Y-28378632D01*
X99078568Y-28585475D01*
X99252960Y-28702000D01*
X99078568Y-28818525D01*
X98871725Y-29025368D01*
X98709210Y-29268589D01*
X98597268Y-29538842D01*
X98540200Y-29825740D01*
X98540200Y-30118260D01*
X98597268Y-30405158D01*
X98709210Y-30675411D01*
X98871725Y-30918632D01*
X99078568Y-31125475D01*
X99321789Y-31287990D01*
X99592042Y-31399932D01*
X99878940Y-31457000D01*
X100171460Y-31457000D01*
X100458358Y-31399932D01*
X100728611Y-31287990D01*
X100971832Y-31125475D01*
X101178675Y-30918632D01*
X101295200Y-30744240D01*
X101411725Y-30918632D01*
X101618568Y-31125475D01*
X101861789Y-31287990D01*
X102132042Y-31399932D01*
X102418940Y-31457000D01*
X102711460Y-31457000D01*
X102998358Y-31399932D01*
X103268611Y-31287990D01*
X103511832Y-31125475D01*
X103718675Y-30918632D01*
X103881190Y-30675411D01*
X103993132Y-30405158D01*
X104050200Y-30118260D01*
X104050200Y-29825740D01*
X103993132Y-29538842D01*
X103881190Y-29268589D01*
X103718675Y-29025368D01*
X103511832Y-28818525D01*
X103337440Y-28702000D01*
X103511832Y-28585475D01*
X103718675Y-28378632D01*
X103881190Y-28135411D01*
X103993132Y-27865158D01*
X104050200Y-27578260D01*
X104050200Y-27285740D01*
X103993132Y-26998842D01*
X103881190Y-26728589D01*
X103718675Y-26485368D01*
X103511832Y-26278525D01*
X103268611Y-26116010D01*
X102998358Y-26004068D01*
X102711460Y-25947000D01*
X102418940Y-25947000D01*
X102132042Y-26004068D01*
X101861789Y-26116010D01*
X101618568Y-26278525D01*
X101411725Y-26485368D01*
X101295200Y-26659760D01*
X101178675Y-26485368D01*
X100971832Y-26278525D01*
X100728611Y-26116010D01*
X100458358Y-26004068D01*
X100171460Y-25947000D01*
X99878940Y-25947000D01*
X99592042Y-26004068D01*
X99321789Y-26116010D01*
X99078568Y-26278525D01*
X98871725Y-26485368D01*
X98709210Y-26728589D01*
X98597268Y-26998842D01*
X98540200Y-27285740D01*
X19431000Y-27285740D01*
X19431000Y-17653000D01*
X110617000Y-17653000D01*
X110617000Y-96901000D01*
%TA.AperFunction,Conductor*%
D19*
G36*
X110617000Y-96901000D02*
G01*
X19431000Y-96901000D01*
X19431000Y-74842000D01*
X98537128Y-74842000D01*
X98537128Y-76542000D01*
X98549388Y-76666482D01*
X98585698Y-76786180D01*
X98644663Y-76896494D01*
X98724015Y-76993185D01*
X98820706Y-77072537D01*
X98931020Y-77131502D01*
X99050718Y-77167812D01*
X99175200Y-77180072D01*
X100875200Y-77180072D01*
X100999682Y-77167812D01*
X101119380Y-77131502D01*
X101229694Y-77072537D01*
X101326385Y-76993185D01*
X101405737Y-76896494D01*
X101464702Y-76786180D01*
X101486713Y-76713620D01*
X101618568Y-76845475D01*
X101861789Y-77007990D01*
X102132042Y-77119932D01*
X102418940Y-77177000D01*
X102711460Y-77177000D01*
X102998358Y-77119932D01*
X103268611Y-77007990D01*
X103511832Y-76845475D01*
X103718675Y-76638632D01*
X103881190Y-76395411D01*
X103993132Y-76125158D01*
X104050200Y-75838260D01*
X104050200Y-75545740D01*
X103993132Y-75258842D01*
X103881190Y-74988589D01*
X103718675Y-74745368D01*
X103511832Y-74538525D01*
X103337440Y-74422000D01*
X103511832Y-74305475D01*
X103718675Y-74098632D01*
X103881190Y-73855411D01*
X103993132Y-73585158D01*
X104050200Y-73298260D01*
X104050200Y-73005740D01*
X103993132Y-72718842D01*
X103881190Y-72448589D01*
X103718675Y-72205368D01*
X103511832Y-71998525D01*
X103337440Y-71882000D01*
X103511832Y-71765475D01*
X103718675Y-71558632D01*
X103881190Y-71315411D01*
X103993132Y-71045158D01*
X104050200Y-70758260D01*
X104050200Y-70465740D01*
X103993132Y-70178842D01*
X103881190Y-69908589D01*
X103718675Y-69665368D01*
X103511832Y-69458525D01*
X103337440Y-69342000D01*
X103511832Y-69225475D01*
X103718675Y-69018632D01*
X103881190Y-68775411D01*
X103993132Y-68505158D01*
X104050200Y-68218260D01*
X104050200Y-67925740D01*
X103993132Y-67638842D01*
X103881190Y-67368589D01*
X103718675Y-67125368D01*
X103511832Y-66918525D01*
X103337440Y-66802000D01*
X103511832Y-66685475D01*
X103718675Y-66478632D01*
X103881190Y-66235411D01*
X103993132Y-65965158D01*
X104050200Y-65678260D01*
X104050200Y-65385740D01*
X103993132Y-65098842D01*
X103881190Y-64828589D01*
X103718675Y-64585368D01*
X103511832Y-64378525D01*
X103337440Y-64262000D01*
X103511832Y-64145475D01*
X103718675Y-63938632D01*
X103881190Y-63695411D01*
X103993132Y-63425158D01*
X104050200Y-63138260D01*
X104050200Y-62845740D01*
X103993132Y-62558842D01*
X103881190Y-62288589D01*
X103718675Y-62045368D01*
X103511832Y-61838525D01*
X103337440Y-61722000D01*
X103511832Y-61605475D01*
X103718675Y-61398632D01*
X103881190Y-61155411D01*
X103993132Y-60885158D01*
X104050200Y-60598260D01*
X104050200Y-60305740D01*
X103993132Y-60018842D01*
X103881190Y-59748589D01*
X103718675Y-59505368D01*
X103511832Y-59298525D01*
X103337440Y-59182000D01*
X103511832Y-59065475D01*
X103718675Y-58858632D01*
X103881190Y-58615411D01*
X103993132Y-58345158D01*
X104050200Y-58058260D01*
X104050200Y-57765740D01*
X103993132Y-57478842D01*
X103881190Y-57208589D01*
X103718675Y-56965368D01*
X103511832Y-56758525D01*
X103337440Y-56642000D01*
X103511832Y-56525475D01*
X103718675Y-56318632D01*
X103881190Y-56075411D01*
X103993132Y-55805158D01*
X104050200Y-55518260D01*
X104050200Y-55225740D01*
X103993132Y-54938842D01*
X103881190Y-54668589D01*
X103718675Y-54425368D01*
X103511832Y-54218525D01*
X103337440Y-54102000D01*
X103511832Y-53985475D01*
X103718675Y-53778632D01*
X103881190Y-53535411D01*
X103993132Y-53265158D01*
X104050200Y-52978260D01*
X104050200Y-52685740D01*
X103993132Y-52398842D01*
X103881190Y-52128589D01*
X103718675Y-51885368D01*
X103511832Y-51678525D01*
X103337440Y-51562000D01*
X103511832Y-51445475D01*
X103718675Y-51238632D01*
X103881190Y-50995411D01*
X103993132Y-50725158D01*
X104050200Y-50438260D01*
X104050200Y-50145740D01*
X103993132Y-49858842D01*
X103881190Y-49588589D01*
X103718675Y-49345368D01*
X103511832Y-49138525D01*
X103337440Y-49022000D01*
X103511832Y-48905475D01*
X103718675Y-48698632D01*
X103881190Y-48455411D01*
X103993132Y-48185158D01*
X104050200Y-47898260D01*
X104050200Y-47605740D01*
X103993132Y-47318842D01*
X103881190Y-47048589D01*
X103718675Y-46805368D01*
X103511832Y-46598525D01*
X103337440Y-46482000D01*
X103511832Y-46365475D01*
X103718675Y-46158632D01*
X103881190Y-45915411D01*
X103993132Y-45645158D01*
X104050200Y-45358260D01*
X104050200Y-45065740D01*
X103993132Y-44778842D01*
X103881190Y-44508589D01*
X103718675Y-44265368D01*
X103511832Y-44058525D01*
X103337440Y-43942000D01*
X103511832Y-43825475D01*
X103718675Y-43618632D01*
X103881190Y-43375411D01*
X103993132Y-43105158D01*
X104050200Y-42818260D01*
X104050200Y-42525740D01*
X103993132Y-42238842D01*
X103881190Y-41968589D01*
X103718675Y-41725368D01*
X103511832Y-41518525D01*
X103337440Y-41402000D01*
X103511832Y-41285475D01*
X103718675Y-41078632D01*
X103881190Y-40835411D01*
X103993132Y-40565158D01*
X104050200Y-40278260D01*
X104050200Y-39985740D01*
X103993132Y-39698842D01*
X103881190Y-39428589D01*
X103718675Y-39185368D01*
X103511832Y-38978525D01*
X103337440Y-38862000D01*
X103511832Y-38745475D01*
X103718675Y-38538632D01*
X103881190Y-38295411D01*
X103993132Y-38025158D01*
X104050200Y-37738260D01*
X104050200Y-37445740D01*
X103993132Y-37158842D01*
X103881190Y-36888589D01*
X103718675Y-36645368D01*
X103511832Y-36438525D01*
X103337440Y-36322000D01*
X103511832Y-36205475D01*
X103718675Y-35998632D01*
X103881190Y-35755411D01*
X103993132Y-35485158D01*
X104050200Y-35198260D01*
X104050200Y-34905740D01*
X103993132Y-34618842D01*
X103881190Y-34348589D01*
X103718675Y-34105368D01*
X103511832Y-33898525D01*
X103268611Y-33736010D01*
X102998358Y-33624068D01*
X102711460Y-33567000D01*
X102418940Y-33567000D01*
X102132042Y-33624068D01*
X101861789Y-33736010D01*
X101618568Y-33898525D01*
X101411725Y-34105368D01*
X101295200Y-34279760D01*
X101178675Y-34105368D01*
X100971832Y-33898525D01*
X100728611Y-33736010D01*
X100458358Y-33624068D01*
X100171460Y-33567000D01*
X99878940Y-33567000D01*
X99592042Y-33624068D01*
X99321789Y-33736010D01*
X99078568Y-33898525D01*
X98871725Y-34105368D01*
X98709210Y-34348589D01*
X98597268Y-34618842D01*
X98540200Y-34905740D01*
X98540200Y-35198260D01*
X98597268Y-35485158D01*
X98709210Y-35755411D01*
X98871725Y-35998632D01*
X99078568Y-36205475D01*
X99252960Y-36322000D01*
X99078568Y-36438525D01*
X98871725Y-36645368D01*
X98709210Y-36888589D01*
X98597268Y-37158842D01*
X98540200Y-37445740D01*
X98540200Y-37738260D01*
X98597268Y-38025158D01*
X98709210Y-38295411D01*
X98871725Y-38538632D01*
X99078568Y-38745475D01*
X99252960Y-38862000D01*
X99078568Y-38978525D01*
X98871725Y-39185368D01*
X98709210Y-39428589D01*
X98597268Y-39698842D01*
X98540200Y-39985740D01*
X98540200Y-40278260D01*
X98597268Y-40565158D01*
X98709210Y-40835411D01*
X98871725Y-41078632D01*
X99078568Y-41285475D01*
X99252960Y-41402000D01*
X99078568Y-41518525D01*
X98871725Y-41725368D01*
X98709210Y-41968589D01*
X98597268Y-42238842D01*
X98540200Y-42525740D01*
X98540200Y-42818260D01*
X98597268Y-43105158D01*
X98709210Y-43375411D01*
X98871725Y-43618632D01*
X99078568Y-43825475D01*
X99252960Y-43942000D01*
X99078568Y-44058525D01*
X98871725Y-44265368D01*
X98709210Y-44508589D01*
X98597268Y-44778842D01*
X98540200Y-45065740D01*
X98540200Y-45358260D01*
X98597268Y-45645158D01*
X98709210Y-45915411D01*
X98871725Y-46158632D01*
X99078568Y-46365475D01*
X99252960Y-46482000D01*
X99078568Y-46598525D01*
X98871725Y-46805368D01*
X98709210Y-47048589D01*
X98597268Y-47318842D01*
X98540200Y-47605740D01*
X98540200Y-47898260D01*
X98597268Y-48185158D01*
X98709210Y-48455411D01*
X98871725Y-48698632D01*
X99078568Y-48905475D01*
X99252960Y-49022000D01*
X99078568Y-49138525D01*
X98871725Y-49345368D01*
X98709210Y-49588589D01*
X98597268Y-49858842D01*
X98540200Y-50145740D01*
X98540200Y-50438260D01*
X98597268Y-50725158D01*
X98709210Y-50995411D01*
X98871725Y-51238632D01*
X99078568Y-51445475D01*
X99252960Y-51562000D01*
X99078568Y-51678525D01*
X98871725Y-51885368D01*
X98709210Y-52128589D01*
X98597268Y-52398842D01*
X98540200Y-52685740D01*
X98540200Y-52978260D01*
X98597268Y-53265158D01*
X98709210Y-53535411D01*
X98871725Y-53778632D01*
X99078568Y-53985475D01*
X99252960Y-54102000D01*
X99078568Y-54218525D01*
X98871725Y-54425368D01*
X98709210Y-54668589D01*
X98597268Y-54938842D01*
X98540200Y-55225740D01*
X98540200Y-55518260D01*
X98597268Y-55805158D01*
X98709210Y-56075411D01*
X98871725Y-56318632D01*
X99078568Y-56525475D01*
X99252960Y-56642000D01*
X99078568Y-56758525D01*
X98871725Y-56965368D01*
X98709210Y-57208589D01*
X98597268Y-57478842D01*
X98540200Y-57765740D01*
X98540200Y-58058260D01*
X98597268Y-58345158D01*
X98709210Y-58615411D01*
X98871725Y-58858632D01*
X99078568Y-59065475D01*
X99252960Y-59182000D01*
X99078568Y-59298525D01*
X98871725Y-59505368D01*
X98709210Y-59748589D01*
X98597268Y-60018842D01*
X98540200Y-60305740D01*
X98540200Y-60598260D01*
X98597268Y-60885158D01*
X98709210Y-61155411D01*
X98871725Y-61398632D01*
X99078568Y-61605475D01*
X99252960Y-61722000D01*
X99078568Y-61838525D01*
X98871725Y-62045368D01*
X98709210Y-62288589D01*
X98597268Y-62558842D01*
X98540200Y-62845740D01*
X98540200Y-63138260D01*
X98597268Y-63425158D01*
X98709210Y-63695411D01*
X98871725Y-63938632D01*
X99078568Y-64145475D01*
X99252960Y-64262000D01*
X99078568Y-64378525D01*
X98871725Y-64585368D01*
X98709210Y-64828589D01*
X98597268Y-65098842D01*
X98540200Y-65385740D01*
X98540200Y-65678260D01*
X98597268Y-65965158D01*
X98709210Y-66235411D01*
X98871725Y-66478632D01*
X99078568Y-66685475D01*
X99252960Y-66802000D01*
X99078568Y-66918525D01*
X98871725Y-67125368D01*
X98709210Y-67368589D01*
X98597268Y-67638842D01*
X98540200Y-67925740D01*
X98540200Y-68218260D01*
X98597268Y-68505158D01*
X98709210Y-68775411D01*
X98871725Y-69018632D01*
X99078568Y-69225475D01*
X99252960Y-69342000D01*
X99078568Y-69458525D01*
X98871725Y-69665368D01*
X98709210Y-69908589D01*
X98597268Y-70178842D01*
X98540200Y-70465740D01*
X98540200Y-70758260D01*
X98597268Y-71045158D01*
X98709210Y-71315411D01*
X98871725Y-71558632D01*
X99078568Y-71765475D01*
X99252960Y-71882000D01*
X99078568Y-71998525D01*
X98871725Y-72205368D01*
X98709210Y-72448589D01*
X98597268Y-72718842D01*
X98540200Y-73005740D01*
X98540200Y-73298260D01*
X98597268Y-73585158D01*
X98709210Y-73855411D01*
X98871725Y-74098632D01*
X99003580Y-74230487D01*
X98931020Y-74252498D01*
X98820706Y-74311463D01*
X98724015Y-74390815D01*
X98644663Y-74487506D01*
X98585698Y-74597820D01*
X98549388Y-74717518D01*
X98537128Y-74842000D01*
X19431000Y-74842000D01*
X19431000Y-63673561D01*
X75114200Y-63673561D01*
X75114200Y-63877439D01*
X75153974Y-64077398D01*
X75231995Y-64265756D01*
X75345263Y-64435274D01*
X75489426Y-64579437D01*
X75658944Y-64692705D01*
X75847302Y-64770726D01*
X76047261Y-64810500D01*
X76251139Y-64810500D01*
X76451098Y-64770726D01*
X76639456Y-64692705D01*
X76808974Y-64579437D01*
X76953137Y-64435274D01*
X77066405Y-64265756D01*
X77144426Y-64077398D01*
X77184200Y-63877439D01*
X77184200Y-63673561D01*
X77144426Y-63473602D01*
X77066405Y-63285244D01*
X76953137Y-63115726D01*
X76808974Y-62971563D01*
X76639456Y-62858295D01*
X76451098Y-62780274D01*
X76251139Y-62740500D01*
X76047261Y-62740500D01*
X75847302Y-62780274D01*
X75658944Y-62858295D01*
X75489426Y-62971563D01*
X75345263Y-63115726D01*
X75231995Y-63285244D01*
X75153974Y-63473602D01*
X75114200Y-63673561D01*
X19431000Y-63673561D01*
X19431000Y-57570261D01*
X69373800Y-57570261D01*
X69373800Y-57774139D01*
X69413574Y-57974098D01*
X69491595Y-58162456D01*
X69604863Y-58331974D01*
X69749026Y-58476137D01*
X69918544Y-58589405D01*
X70106902Y-58667426D01*
X70306861Y-58707200D01*
X70510739Y-58707200D01*
X70710698Y-58667426D01*
X70899056Y-58589405D01*
X71068574Y-58476137D01*
X71212737Y-58331974D01*
X71326005Y-58162456D01*
X71404026Y-57974098D01*
X71443800Y-57774139D01*
X71443800Y-57570261D01*
X71404026Y-57370302D01*
X71326005Y-57181944D01*
X71212737Y-57012426D01*
X71068574Y-56868263D01*
X70899056Y-56754995D01*
X70710698Y-56676974D01*
X70510739Y-56637200D01*
X70306861Y-56637200D01*
X70106902Y-56676974D01*
X69918544Y-56754995D01*
X69749026Y-56868263D01*
X69604863Y-57012426D01*
X69491595Y-57181944D01*
X69413574Y-57370302D01*
X69373800Y-57570261D01*
X19431000Y-57570261D01*
X19431000Y-52032000D01*
X32851928Y-52032000D01*
X32851928Y-53632000D01*
X32864188Y-53756482D01*
X32900498Y-53876180D01*
X32959463Y-53986494D01*
X33038815Y-54083185D01*
X33135506Y-54162537D01*
X33245820Y-54221502D01*
X33365518Y-54257812D01*
X33490000Y-54270072D01*
X35090000Y-54270072D01*
X35214482Y-54257812D01*
X35334180Y-54221502D01*
X35444494Y-54162537D01*
X35541185Y-54083185D01*
X35620537Y-53986494D01*
X35679502Y-53876180D01*
X35715812Y-53756482D01*
X35716643Y-53748039D01*
X35915241Y-53946637D01*
X36150273Y-54103680D01*
X36411426Y-54211853D01*
X36688665Y-54267000D01*
X36971335Y-54267000D01*
X37248574Y-54211853D01*
X37509727Y-54103680D01*
X37744759Y-53946637D01*
X37944637Y-53746759D01*
X38100000Y-53514241D01*
X38255363Y-53746759D01*
X38455241Y-53946637D01*
X38690273Y-54103680D01*
X38951426Y-54211853D01*
X39228665Y-54267000D01*
X39511335Y-54267000D01*
X39788574Y-54211853D01*
X40049727Y-54103680D01*
X40284759Y-53946637D01*
X40484637Y-53746759D01*
X40640000Y-53514241D01*
X40795363Y-53746759D01*
X40995241Y-53946637D01*
X41230273Y-54103680D01*
X41491426Y-54211853D01*
X41768665Y-54267000D01*
X42051335Y-54267000D01*
X42328574Y-54211853D01*
X42589727Y-54103680D01*
X42824759Y-53946637D01*
X43024637Y-53746759D01*
X43180000Y-53514241D01*
X43335363Y-53746759D01*
X43535241Y-53946637D01*
X43770273Y-54103680D01*
X44031426Y-54211853D01*
X44308665Y-54267000D01*
X44591335Y-54267000D01*
X44868574Y-54211853D01*
X45129727Y-54103680D01*
X45364759Y-53946637D01*
X45564637Y-53746759D01*
X45720000Y-53514241D01*
X45875363Y-53746759D01*
X46075241Y-53946637D01*
X46310273Y-54103680D01*
X46571426Y-54211853D01*
X46848665Y-54267000D01*
X47131335Y-54267000D01*
X47408574Y-54211853D01*
X47669727Y-54103680D01*
X47904759Y-53946637D01*
X48104637Y-53746759D01*
X48260000Y-53514241D01*
X48415363Y-53746759D01*
X48615241Y-53946637D01*
X48850273Y-54103680D01*
X49111426Y-54211853D01*
X49388665Y-54267000D01*
X49671335Y-54267000D01*
X49948574Y-54211853D01*
X50209727Y-54103680D01*
X50444759Y-53946637D01*
X50644637Y-53746759D01*
X50800000Y-53514241D01*
X50955363Y-53746759D01*
X51155241Y-53946637D01*
X51390273Y-54103680D01*
X51651426Y-54211853D01*
X51928665Y-54267000D01*
X52211335Y-54267000D01*
X52488574Y-54211853D01*
X52749727Y-54103680D01*
X52984759Y-53946637D01*
X53184637Y-53746759D01*
X53340000Y-53514241D01*
X53495363Y-53746759D01*
X53695241Y-53946637D01*
X53930273Y-54103680D01*
X54191426Y-54211853D01*
X54468665Y-54267000D01*
X54751335Y-54267000D01*
X55028574Y-54211853D01*
X55289727Y-54103680D01*
X55524759Y-53946637D01*
X55724637Y-53746759D01*
X55880000Y-53514241D01*
X56035363Y-53746759D01*
X56235241Y-53946637D01*
X56470273Y-54103680D01*
X56731426Y-54211853D01*
X57008665Y-54267000D01*
X57291335Y-54267000D01*
X57568574Y-54211853D01*
X57829727Y-54103680D01*
X58064759Y-53946637D01*
X58264637Y-53746759D01*
X58420000Y-53514241D01*
X58575363Y-53746759D01*
X58775241Y-53946637D01*
X59010273Y-54103680D01*
X59271426Y-54211853D01*
X59548665Y-54267000D01*
X59831335Y-54267000D01*
X60108574Y-54211853D01*
X60369727Y-54103680D01*
X60604759Y-53946637D01*
X60804637Y-53746759D01*
X60960000Y-53514241D01*
X61115363Y-53746759D01*
X61315241Y-53946637D01*
X61550273Y-54103680D01*
X61811426Y-54211853D01*
X62088665Y-54267000D01*
X62371335Y-54267000D01*
X62648574Y-54211853D01*
X62909727Y-54103680D01*
X63144759Y-53946637D01*
X63344637Y-53746759D01*
X63500000Y-53514241D01*
X63655363Y-53746759D01*
X63855241Y-53946637D01*
X64090273Y-54103680D01*
X64351426Y-54211853D01*
X64628665Y-54267000D01*
X64911335Y-54267000D01*
X65188574Y-54211853D01*
X65449727Y-54103680D01*
X65684759Y-53946637D01*
X65884637Y-53746759D01*
X66040000Y-53514241D01*
X66195363Y-53746759D01*
X66395241Y-53946637D01*
X66630273Y-54103680D01*
X66891426Y-54211853D01*
X67168665Y-54267000D01*
X67451335Y-54267000D01*
X67728574Y-54211853D01*
X67989727Y-54103680D01*
X68224759Y-53946637D01*
X68424637Y-53746759D01*
X68580000Y-53514241D01*
X68735363Y-53746759D01*
X68935241Y-53946637D01*
X69170273Y-54103680D01*
X69431426Y-54211853D01*
X69708665Y-54267000D01*
X69991335Y-54267000D01*
X70268574Y-54211853D01*
X70529727Y-54103680D01*
X70764759Y-53946637D01*
X70964637Y-53746759D01*
X71120000Y-53514241D01*
X71275363Y-53746759D01*
X71475241Y-53946637D01*
X71710273Y-54103680D01*
X71971426Y-54211853D01*
X72248665Y-54267000D01*
X72531335Y-54267000D01*
X72808574Y-54211853D01*
X73069727Y-54103680D01*
X73304759Y-53946637D01*
X73504637Y-53746759D01*
X73660000Y-53514241D01*
X73815363Y-53746759D01*
X74015241Y-53946637D01*
X74250273Y-54103680D01*
X74511426Y-54211853D01*
X74788665Y-54267000D01*
X75071335Y-54267000D01*
X75348574Y-54211853D01*
X75609727Y-54103680D01*
X75844759Y-53946637D01*
X76044637Y-53746759D01*
X76200000Y-53514241D01*
X76355363Y-53746759D01*
X76555241Y-53946637D01*
X76790273Y-54103680D01*
X77051426Y-54211853D01*
X77328665Y-54267000D01*
X77611335Y-54267000D01*
X77888574Y-54211853D01*
X78149727Y-54103680D01*
X78384759Y-53946637D01*
X78584637Y-53746759D01*
X78740000Y-53514241D01*
X78895363Y-53746759D01*
X79095241Y-53946637D01*
X79330273Y-54103680D01*
X79591426Y-54211853D01*
X79868665Y-54267000D01*
X80151335Y-54267000D01*
X80428574Y-54211853D01*
X80689727Y-54103680D01*
X80924759Y-53946637D01*
X81124637Y-53746759D01*
X81280000Y-53514241D01*
X81435363Y-53746759D01*
X81635241Y-53946637D01*
X81870273Y-54103680D01*
X82131426Y-54211853D01*
X82408665Y-54267000D01*
X82691335Y-54267000D01*
X82968574Y-54211853D01*
X83229727Y-54103680D01*
X83464759Y-53946637D01*
X83664637Y-53746759D01*
X83820000Y-53514241D01*
X83975363Y-53746759D01*
X84175241Y-53946637D01*
X84410273Y-54103680D01*
X84671426Y-54211853D01*
X84948665Y-54267000D01*
X85231335Y-54267000D01*
X85508574Y-54211853D01*
X85769727Y-54103680D01*
X86004759Y-53946637D01*
X86204637Y-53746759D01*
X86360000Y-53514241D01*
X86515363Y-53746759D01*
X86715241Y-53946637D01*
X86950273Y-54103680D01*
X87211426Y-54211853D01*
X87488665Y-54267000D01*
X87771335Y-54267000D01*
X88048574Y-54211853D01*
X88309727Y-54103680D01*
X88544759Y-53946637D01*
X88744637Y-53746759D01*
X88900000Y-53514241D01*
X89055363Y-53746759D01*
X89255241Y-53946637D01*
X89490273Y-54103680D01*
X89751426Y-54211853D01*
X90028665Y-54267000D01*
X90311335Y-54267000D01*
X90588574Y-54211853D01*
X90849727Y-54103680D01*
X91084759Y-53946637D01*
X91284637Y-53746759D01*
X91440000Y-53514241D01*
X91595363Y-53746759D01*
X91795241Y-53946637D01*
X92030273Y-54103680D01*
X92291426Y-54211853D01*
X92568665Y-54267000D01*
X92851335Y-54267000D01*
X93128574Y-54211853D01*
X93389727Y-54103680D01*
X93624759Y-53946637D01*
X93824637Y-53746759D01*
X93981680Y-53511727D01*
X94089853Y-53250574D01*
X94145000Y-52973335D01*
X94145000Y-52690665D01*
X94089853Y-52413426D01*
X93981680Y-52152273D01*
X93824637Y-51917241D01*
X93624759Y-51717363D01*
X93389727Y-51560320D01*
X93128574Y-51452147D01*
X92851335Y-51397000D01*
X92568665Y-51397000D01*
X92291426Y-51452147D01*
X92030273Y-51560320D01*
X91795241Y-51717363D01*
X91595363Y-51917241D01*
X91440000Y-52149759D01*
X91284637Y-51917241D01*
X91084759Y-51717363D01*
X90849727Y-51560320D01*
X90588574Y-51452147D01*
X90311335Y-51397000D01*
X90028665Y-51397000D01*
X89751426Y-51452147D01*
X89490273Y-51560320D01*
X89255241Y-51717363D01*
X89055363Y-51917241D01*
X88900000Y-52149759D01*
X88744637Y-51917241D01*
X88544759Y-51717363D01*
X88309727Y-51560320D01*
X88048574Y-51452147D01*
X87771335Y-51397000D01*
X87488665Y-51397000D01*
X87211426Y-51452147D01*
X86950273Y-51560320D01*
X86715241Y-51717363D01*
X86515363Y-51917241D01*
X86360000Y-52149759D01*
X86204637Y-51917241D01*
X86004759Y-51717363D01*
X85769727Y-51560320D01*
X85508574Y-51452147D01*
X85231335Y-51397000D01*
X84948665Y-51397000D01*
X84671426Y-51452147D01*
X84410273Y-51560320D01*
X84175241Y-51717363D01*
X83975363Y-51917241D01*
X83820000Y-52149759D01*
X83664637Y-51917241D01*
X83464759Y-51717363D01*
X83229727Y-51560320D01*
X82968574Y-51452147D01*
X82691335Y-51397000D01*
X82408665Y-51397000D01*
X82131426Y-51452147D01*
X81870273Y-51560320D01*
X81635241Y-51717363D01*
X81435363Y-51917241D01*
X81280000Y-52149759D01*
X81124637Y-51917241D01*
X80924759Y-51717363D01*
X80689727Y-51560320D01*
X80428574Y-51452147D01*
X80151335Y-51397000D01*
X79868665Y-51397000D01*
X79591426Y-51452147D01*
X79330273Y-51560320D01*
X79095241Y-51717363D01*
X78895363Y-51917241D01*
X78740000Y-52149759D01*
X78584637Y-51917241D01*
X78384759Y-51717363D01*
X78149727Y-51560320D01*
X77888574Y-51452147D01*
X77611335Y-51397000D01*
X77328665Y-51397000D01*
X77051426Y-51452147D01*
X76790273Y-51560320D01*
X76555241Y-51717363D01*
X76355363Y-51917241D01*
X76200000Y-52149759D01*
X76044637Y-51917241D01*
X75844759Y-51717363D01*
X75609727Y-51560320D01*
X75348574Y-51452147D01*
X75071335Y-51397000D01*
X74788665Y-51397000D01*
X74511426Y-51452147D01*
X74250273Y-51560320D01*
X74015241Y-51717363D01*
X73815363Y-51917241D01*
X73660000Y-52149759D01*
X73504637Y-51917241D01*
X73304759Y-51717363D01*
X73069727Y-51560320D01*
X72808574Y-51452147D01*
X72531335Y-51397000D01*
X72248665Y-51397000D01*
X71971426Y-51452147D01*
X71710273Y-51560320D01*
X71475241Y-51717363D01*
X71275363Y-51917241D01*
X71120000Y-52149759D01*
X70964637Y-51917241D01*
X70764759Y-51717363D01*
X70529727Y-51560320D01*
X70268574Y-51452147D01*
X69991335Y-51397000D01*
X69708665Y-51397000D01*
X69431426Y-51452147D01*
X69170273Y-51560320D01*
X68935241Y-51717363D01*
X68735363Y-51917241D01*
X68580000Y-52149759D01*
X68424637Y-51917241D01*
X68224759Y-51717363D01*
X67989727Y-51560320D01*
X67728574Y-51452147D01*
X67451335Y-51397000D01*
X67168665Y-51397000D01*
X66891426Y-51452147D01*
X66630273Y-51560320D01*
X66395241Y-51717363D01*
X66195363Y-51917241D01*
X66040000Y-52149759D01*
X65884637Y-51917241D01*
X65684759Y-51717363D01*
X65449727Y-51560320D01*
X65188574Y-51452147D01*
X64911335Y-51397000D01*
X64628665Y-51397000D01*
X64351426Y-51452147D01*
X64090273Y-51560320D01*
X63855241Y-51717363D01*
X63655363Y-51917241D01*
X63500000Y-52149759D01*
X63344637Y-51917241D01*
X63144759Y-51717363D01*
X62909727Y-51560320D01*
X62648574Y-51452147D01*
X62371335Y-51397000D01*
X62088665Y-51397000D01*
X61811426Y-51452147D01*
X61550273Y-51560320D01*
X61315241Y-51717363D01*
X61115363Y-51917241D01*
X60960000Y-52149759D01*
X60804637Y-51917241D01*
X60604759Y-51717363D01*
X60369727Y-51560320D01*
X60108574Y-51452147D01*
X59831335Y-51397000D01*
X59548665Y-51397000D01*
X59271426Y-51452147D01*
X59010273Y-51560320D01*
X58775241Y-51717363D01*
X58575363Y-51917241D01*
X58420000Y-52149759D01*
X58264637Y-51917241D01*
X58064759Y-51717363D01*
X57829727Y-51560320D01*
X57568574Y-51452147D01*
X57291335Y-51397000D01*
X57008665Y-51397000D01*
X56731426Y-51452147D01*
X56470273Y-51560320D01*
X56235241Y-51717363D01*
X56035363Y-51917241D01*
X55880000Y-52149759D01*
X55724637Y-51917241D01*
X55524759Y-51717363D01*
X55289727Y-51560320D01*
X55028574Y-51452147D01*
X54751335Y-51397000D01*
X54468665Y-51397000D01*
X54191426Y-51452147D01*
X53930273Y-51560320D01*
X53695241Y-51717363D01*
X53495363Y-51917241D01*
X53340000Y-52149759D01*
X53184637Y-51917241D01*
X52984759Y-51717363D01*
X52749727Y-51560320D01*
X52488574Y-51452147D01*
X52211335Y-51397000D01*
X51928665Y-51397000D01*
X51651426Y-51452147D01*
X51390273Y-51560320D01*
X51155241Y-51717363D01*
X50955363Y-51917241D01*
X50800000Y-52149759D01*
X50644637Y-51917241D01*
X50444759Y-51717363D01*
X50209727Y-51560320D01*
X49948574Y-51452147D01*
X49671335Y-51397000D01*
X49388665Y-51397000D01*
X49111426Y-51452147D01*
X48850273Y-51560320D01*
X48615241Y-51717363D01*
X48415363Y-51917241D01*
X48260000Y-52149759D01*
X48104637Y-51917241D01*
X47904759Y-51717363D01*
X47669727Y-51560320D01*
X47408574Y-51452147D01*
X47131335Y-51397000D01*
X46848665Y-51397000D01*
X46571426Y-51452147D01*
X46310273Y-51560320D01*
X46075241Y-51717363D01*
X45875363Y-51917241D01*
X45720000Y-52149759D01*
X45564637Y-51917241D01*
X45364759Y-51717363D01*
X45129727Y-51560320D01*
X44868574Y-51452147D01*
X44591335Y-51397000D01*
X44308665Y-51397000D01*
X44031426Y-51452147D01*
X43770273Y-51560320D01*
X43535241Y-51717363D01*
X43335363Y-51917241D01*
X43180000Y-52149759D01*
X43024637Y-51917241D01*
X42824759Y-51717363D01*
X42589727Y-51560320D01*
X42328574Y-51452147D01*
X42051335Y-51397000D01*
X41768665Y-51397000D01*
X41491426Y-51452147D01*
X41230273Y-51560320D01*
X40995241Y-51717363D01*
X40795363Y-51917241D01*
X40640000Y-52149759D01*
X40484637Y-51917241D01*
X40284759Y-51717363D01*
X40049727Y-51560320D01*
X39788574Y-51452147D01*
X39511335Y-51397000D01*
X39228665Y-51397000D01*
X38951426Y-51452147D01*
X38690273Y-51560320D01*
X38455241Y-51717363D01*
X38255363Y-51917241D01*
X38100000Y-52149759D01*
X37944637Y-51917241D01*
X37744759Y-51717363D01*
X37509727Y-51560320D01*
X37248574Y-51452147D01*
X36971335Y-51397000D01*
X36688665Y-51397000D01*
X36411426Y-51452147D01*
X36150273Y-51560320D01*
X35915241Y-51717363D01*
X35716643Y-51915961D01*
X35715812Y-51907518D01*
X35679502Y-51787820D01*
X35620537Y-51677506D01*
X35541185Y-51580815D01*
X35444494Y-51501463D01*
X35334180Y-51442498D01*
X35214482Y-51406188D01*
X35090000Y-51393928D01*
X33490000Y-51393928D01*
X33365518Y-51406188D01*
X33245820Y-51442498D01*
X33135506Y-51501463D01*
X33038815Y-51580815D01*
X32959463Y-51677506D01*
X32900498Y-51787820D01*
X32864188Y-51907518D01*
X32851928Y-52032000D01*
X19431000Y-52032000D01*
X19431000Y-45495200D01*
X26221215Y-45495200D01*
X26249887Y-45786311D01*
X26334801Y-46066234D01*
X26472694Y-46324214D01*
X26658266Y-46550334D01*
X26884386Y-46735906D01*
X26901774Y-46745200D01*
X26884386Y-46754494D01*
X26658266Y-46940066D01*
X26472694Y-47166186D01*
X26334801Y-47424166D01*
X26249887Y-47704089D01*
X26221215Y-47995200D01*
X26249887Y-48286311D01*
X26334801Y-48566234D01*
X26472694Y-48824214D01*
X26658266Y-49050334D01*
X26721737Y-49102423D01*
X26620014Y-49156795D01*
X26485438Y-49267238D01*
X26374995Y-49401814D01*
X26292928Y-49555350D01*
X26242392Y-49721946D01*
X26225328Y-49895200D01*
X26225328Y-51095200D01*
X26242392Y-51268454D01*
X26292928Y-51435050D01*
X26374995Y-51588586D01*
X26485438Y-51723162D01*
X26620014Y-51833605D01*
X26773550Y-51915672D01*
X26940146Y-51966208D01*
X27113400Y-51983272D01*
X28563400Y-51983272D01*
X28736654Y-51966208D01*
X28903250Y-51915672D01*
X29056786Y-51833605D01*
X29191362Y-51723162D01*
X29301805Y-51588586D01*
X29383872Y-51435050D01*
X29434408Y-51268454D01*
X29451472Y-51095200D01*
X29451472Y-49895200D01*
X29434408Y-49721946D01*
X29383872Y-49555350D01*
X29301805Y-49401814D01*
X29191362Y-49267238D01*
X29056786Y-49156795D01*
X28955063Y-49102423D01*
X29018534Y-49050334D01*
X29204106Y-48824214D01*
X29341999Y-48566234D01*
X29426913Y-48286311D01*
X29455585Y-47995200D01*
X29426913Y-47704089D01*
X29341999Y-47424166D01*
X29204106Y-47166186D01*
X29018534Y-46940066D01*
X28792414Y-46754494D01*
X28775026Y-46745200D01*
X28792414Y-46735906D01*
X29018534Y-46550334D01*
X29204106Y-46324214D01*
X29341999Y-46066234D01*
X29426913Y-45786311D01*
X29455585Y-45495200D01*
X29426913Y-45204089D01*
X29341999Y-44924166D01*
X29204106Y-44666186D01*
X29018534Y-44440066D01*
X28792414Y-44254494D01*
X28534434Y-44116601D01*
X28254511Y-44031687D01*
X28036350Y-44010200D01*
X27640450Y-44010200D01*
X27422289Y-44031687D01*
X27142366Y-44116601D01*
X26884386Y-44254494D01*
X26658266Y-44440066D01*
X26472694Y-44666186D01*
X26334801Y-44924166D01*
X26249887Y-45204089D01*
X26221215Y-45495200D01*
X19431000Y-45495200D01*
X19431000Y-43815439D01*
X33735000Y-43815439D01*
X33735000Y-44068561D01*
X33784381Y-44316821D01*
X33881247Y-44550676D01*
X34021875Y-44761140D01*
X34200860Y-44940125D01*
X34411324Y-45080753D01*
X34645179Y-45177619D01*
X34818027Y-45212000D01*
X34645179Y-45246381D01*
X34411324Y-45343247D01*
X34200860Y-45483875D01*
X34021875Y-45662860D01*
X33881247Y-45873324D01*
X33784381Y-46107179D01*
X33735000Y-46355439D01*
X33735000Y-46608561D01*
X33784381Y-46856821D01*
X33881247Y-47090676D01*
X34021875Y-47301140D01*
X34200860Y-47480125D01*
X34411324Y-47620753D01*
X34645179Y-47717619D01*
X34893439Y-47767000D01*
X35146561Y-47767000D01*
X35394821Y-47717619D01*
X35628676Y-47620753D01*
X35839140Y-47480125D01*
X36018125Y-47301140D01*
X36158753Y-47090676D01*
X36255619Y-46856821D01*
X36305000Y-46608561D01*
X36305000Y-46355439D01*
X36255619Y-46107179D01*
X36158753Y-45873324D01*
X36018125Y-45662860D01*
X35839140Y-45483875D01*
X35628676Y-45343247D01*
X35394821Y-45246381D01*
X35221973Y-45212000D01*
X35394821Y-45177619D01*
X35628676Y-45080753D01*
X35839140Y-44940125D01*
X36018125Y-44761140D01*
X36158753Y-44550676D01*
X36255619Y-44316821D01*
X36305000Y-44068561D01*
X36305000Y-43815439D01*
X36255619Y-43567179D01*
X36158753Y-43333324D01*
X36018125Y-43122860D01*
X35839140Y-42943875D01*
X35628676Y-42803247D01*
X35394821Y-42706381D01*
X35146561Y-42657000D01*
X34893439Y-42657000D01*
X34645179Y-42706381D01*
X34411324Y-42803247D01*
X34200860Y-42943875D01*
X34021875Y-43122860D01*
X33881247Y-43333324D01*
X33784381Y-43567179D01*
X33735000Y-43815439D01*
X19431000Y-43815439D01*
X19431000Y-39990665D01*
X35395000Y-39990665D01*
X35395000Y-40273335D01*
X35450147Y-40550574D01*
X35558320Y-40811727D01*
X35715363Y-41046759D01*
X35915241Y-41246637D01*
X36150273Y-41403680D01*
X36411426Y-41511853D01*
X36688665Y-41567000D01*
X36971335Y-41567000D01*
X37248574Y-41511853D01*
X37509727Y-41403680D01*
X37744759Y-41246637D01*
X37944637Y-41046759D01*
X38101680Y-40811727D01*
X38209853Y-40550574D01*
X38265000Y-40273335D01*
X38265000Y-39990665D01*
X38209853Y-39713426D01*
X38101680Y-39452273D01*
X37944637Y-39217241D01*
X37744759Y-39017363D01*
X37509727Y-38860320D01*
X37248574Y-38752147D01*
X36971335Y-38697000D01*
X36688665Y-38697000D01*
X36411426Y-38752147D01*
X36150273Y-38860320D01*
X35915241Y-39017363D01*
X35715363Y-39217241D01*
X35558320Y-39452273D01*
X35450147Y-39713426D01*
X35395000Y-39990665D01*
X19431000Y-39990665D01*
X19431000Y-37450665D01*
X32855000Y-37450665D01*
X32855000Y-37733335D01*
X32910147Y-38010574D01*
X33018320Y-38271727D01*
X33175363Y-38506759D01*
X33375241Y-38706637D01*
X33610273Y-38863680D01*
X33871426Y-38971853D01*
X34148665Y-39027000D01*
X34431335Y-39027000D01*
X34708574Y-38971853D01*
X34969727Y-38863680D01*
X35204759Y-38706637D01*
X35404637Y-38506759D01*
X35561680Y-38271727D01*
X35669853Y-38010574D01*
X35725000Y-37733335D01*
X35725000Y-37450665D01*
X37935000Y-37450665D01*
X37935000Y-37733335D01*
X37990147Y-38010574D01*
X38098320Y-38271727D01*
X38255363Y-38506759D01*
X38455241Y-38706637D01*
X38690273Y-38863680D01*
X38951426Y-38971853D01*
X39228665Y-39027000D01*
X39511335Y-39027000D01*
X39788574Y-38971853D01*
X40049727Y-38863680D01*
X40284759Y-38706637D01*
X40484637Y-38506759D01*
X40640000Y-38274241D01*
X40795363Y-38506759D01*
X40995241Y-38706637D01*
X41230273Y-38863680D01*
X41491426Y-38971853D01*
X41768665Y-39027000D01*
X42051335Y-39027000D01*
X42328574Y-38971853D01*
X42589727Y-38863680D01*
X42824759Y-38706637D01*
X43024637Y-38506759D01*
X43180000Y-38274241D01*
X43335363Y-38506759D01*
X43535241Y-38706637D01*
X43770273Y-38863680D01*
X44031426Y-38971853D01*
X44308665Y-39027000D01*
X44591335Y-39027000D01*
X44868574Y-38971853D01*
X45129727Y-38863680D01*
X45364759Y-38706637D01*
X45564637Y-38506759D01*
X45720000Y-38274241D01*
X45875363Y-38506759D01*
X46075241Y-38706637D01*
X46310273Y-38863680D01*
X46571426Y-38971853D01*
X46848665Y-39027000D01*
X47131335Y-39027000D01*
X47408574Y-38971853D01*
X47669727Y-38863680D01*
X47904759Y-38706637D01*
X48104637Y-38506759D01*
X48260000Y-38274241D01*
X48415363Y-38506759D01*
X48615241Y-38706637D01*
X48850273Y-38863680D01*
X49111426Y-38971853D01*
X49388665Y-39027000D01*
X49671335Y-39027000D01*
X49948574Y-38971853D01*
X50209727Y-38863680D01*
X50444759Y-38706637D01*
X50644637Y-38506759D01*
X50800000Y-38274241D01*
X50955363Y-38506759D01*
X51155241Y-38706637D01*
X51390273Y-38863680D01*
X51651426Y-38971853D01*
X51928665Y-39027000D01*
X52211335Y-39027000D01*
X52488574Y-38971853D01*
X52749727Y-38863680D01*
X52984759Y-38706637D01*
X53184637Y-38506759D01*
X53340000Y-38274241D01*
X53495363Y-38506759D01*
X53695241Y-38706637D01*
X53930273Y-38863680D01*
X54191426Y-38971853D01*
X54468665Y-39027000D01*
X54751335Y-39027000D01*
X55028574Y-38971853D01*
X55289727Y-38863680D01*
X55524759Y-38706637D01*
X55724637Y-38506759D01*
X55880000Y-38274241D01*
X56035363Y-38506759D01*
X56235241Y-38706637D01*
X56470273Y-38863680D01*
X56731426Y-38971853D01*
X57008665Y-39027000D01*
X57291335Y-39027000D01*
X57568574Y-38971853D01*
X57829727Y-38863680D01*
X58064759Y-38706637D01*
X58264637Y-38506759D01*
X58420000Y-38274241D01*
X58575363Y-38506759D01*
X58775241Y-38706637D01*
X59010273Y-38863680D01*
X59271426Y-38971853D01*
X59548665Y-39027000D01*
X59831335Y-39027000D01*
X60108574Y-38971853D01*
X60369727Y-38863680D01*
X60604759Y-38706637D01*
X60804637Y-38506759D01*
X60960000Y-38274241D01*
X61115363Y-38506759D01*
X61315241Y-38706637D01*
X61550273Y-38863680D01*
X61811426Y-38971853D01*
X62088665Y-39027000D01*
X62371335Y-39027000D01*
X62648574Y-38971853D01*
X62909727Y-38863680D01*
X63144759Y-38706637D01*
X63344637Y-38506759D01*
X63500000Y-38274241D01*
X63655363Y-38506759D01*
X63855241Y-38706637D01*
X64090273Y-38863680D01*
X64351426Y-38971853D01*
X64628665Y-39027000D01*
X64911335Y-39027000D01*
X65188574Y-38971853D01*
X65449727Y-38863680D01*
X65684759Y-38706637D01*
X65884637Y-38506759D01*
X66040000Y-38274241D01*
X66195363Y-38506759D01*
X66395241Y-38706637D01*
X66630273Y-38863680D01*
X66891426Y-38971853D01*
X67168665Y-39027000D01*
X67451335Y-39027000D01*
X67728574Y-38971853D01*
X67989727Y-38863680D01*
X68224759Y-38706637D01*
X68424637Y-38506759D01*
X68580000Y-38274241D01*
X68735363Y-38506759D01*
X68935241Y-38706637D01*
X69170273Y-38863680D01*
X69431426Y-38971853D01*
X69708665Y-39027000D01*
X69991335Y-39027000D01*
X70268574Y-38971853D01*
X70529727Y-38863680D01*
X70764759Y-38706637D01*
X70964637Y-38506759D01*
X71120000Y-38274241D01*
X71275363Y-38506759D01*
X71475241Y-38706637D01*
X71710273Y-38863680D01*
X71971426Y-38971853D01*
X72248665Y-39027000D01*
X72531335Y-39027000D01*
X72808574Y-38971853D01*
X73069727Y-38863680D01*
X73304759Y-38706637D01*
X73504637Y-38506759D01*
X73660000Y-38274241D01*
X73815363Y-38506759D01*
X74015241Y-38706637D01*
X74250273Y-38863680D01*
X74511426Y-38971853D01*
X74788665Y-39027000D01*
X75071335Y-39027000D01*
X75348574Y-38971853D01*
X75609727Y-38863680D01*
X75844759Y-38706637D01*
X76044637Y-38506759D01*
X76200000Y-38274241D01*
X76355363Y-38506759D01*
X76555241Y-38706637D01*
X76790273Y-38863680D01*
X77051426Y-38971853D01*
X77328665Y-39027000D01*
X77611335Y-39027000D01*
X77888574Y-38971853D01*
X78149727Y-38863680D01*
X78384759Y-38706637D01*
X78584637Y-38506759D01*
X78740000Y-38274241D01*
X78895363Y-38506759D01*
X79095241Y-38706637D01*
X79330273Y-38863680D01*
X79591426Y-38971853D01*
X79868665Y-39027000D01*
X80151335Y-39027000D01*
X80428574Y-38971853D01*
X80689727Y-38863680D01*
X80924759Y-38706637D01*
X81124637Y-38506759D01*
X81280000Y-38274241D01*
X81435363Y-38506759D01*
X81635241Y-38706637D01*
X81870273Y-38863680D01*
X82131426Y-38971853D01*
X82408665Y-39027000D01*
X82691335Y-39027000D01*
X82968574Y-38971853D01*
X83229727Y-38863680D01*
X83464759Y-38706637D01*
X83664637Y-38506759D01*
X83820000Y-38274241D01*
X83975363Y-38506759D01*
X84175241Y-38706637D01*
X84410273Y-38863680D01*
X84671426Y-38971853D01*
X84948665Y-39027000D01*
X85231335Y-39027000D01*
X85508574Y-38971853D01*
X85769727Y-38863680D01*
X86004759Y-38706637D01*
X86204637Y-38506759D01*
X86360000Y-38274241D01*
X86515363Y-38506759D01*
X86715241Y-38706637D01*
X86950273Y-38863680D01*
X87211426Y-38971853D01*
X87488665Y-39027000D01*
X87771335Y-39027000D01*
X88048574Y-38971853D01*
X88309727Y-38863680D01*
X88544759Y-38706637D01*
X88744637Y-38506759D01*
X88900000Y-38274241D01*
X89055363Y-38506759D01*
X89255241Y-38706637D01*
X89490273Y-38863680D01*
X89751426Y-38971853D01*
X90028665Y-39027000D01*
X90311335Y-39027000D01*
X90588574Y-38971853D01*
X90849727Y-38863680D01*
X91084759Y-38706637D01*
X91284637Y-38506759D01*
X91440000Y-38274241D01*
X91595363Y-38506759D01*
X91795241Y-38706637D01*
X92030273Y-38863680D01*
X92291426Y-38971853D01*
X92568665Y-39027000D01*
X92851335Y-39027000D01*
X93128574Y-38971853D01*
X93389727Y-38863680D01*
X93624759Y-38706637D01*
X93824637Y-38506759D01*
X93981680Y-38271727D01*
X94089853Y-38010574D01*
X94145000Y-37733335D01*
X94145000Y-37450665D01*
X94089853Y-37173426D01*
X93981680Y-36912273D01*
X93824637Y-36677241D01*
X93624759Y-36477363D01*
X93389727Y-36320320D01*
X93128574Y-36212147D01*
X92851335Y-36157000D01*
X92568665Y-36157000D01*
X92291426Y-36212147D01*
X92030273Y-36320320D01*
X91795241Y-36477363D01*
X91595363Y-36677241D01*
X91440000Y-36909759D01*
X91284637Y-36677241D01*
X91084759Y-36477363D01*
X90849727Y-36320320D01*
X90588574Y-36212147D01*
X90311335Y-36157000D01*
X90028665Y-36157000D01*
X89751426Y-36212147D01*
X89490273Y-36320320D01*
X89255241Y-36477363D01*
X89055363Y-36677241D01*
X88900000Y-36909759D01*
X88744637Y-36677241D01*
X88544759Y-36477363D01*
X88309727Y-36320320D01*
X88048574Y-36212147D01*
X87771335Y-36157000D01*
X87488665Y-36157000D01*
X87211426Y-36212147D01*
X86950273Y-36320320D01*
X86715241Y-36477363D01*
X86515363Y-36677241D01*
X86360000Y-36909759D01*
X86204637Y-36677241D01*
X86004759Y-36477363D01*
X85769727Y-36320320D01*
X85508574Y-36212147D01*
X85231335Y-36157000D01*
X84948665Y-36157000D01*
X84671426Y-36212147D01*
X84410273Y-36320320D01*
X84175241Y-36477363D01*
X83975363Y-36677241D01*
X83820000Y-36909759D01*
X83664637Y-36677241D01*
X83464759Y-36477363D01*
X83229727Y-36320320D01*
X82968574Y-36212147D01*
X82691335Y-36157000D01*
X82408665Y-36157000D01*
X82131426Y-36212147D01*
X81870273Y-36320320D01*
X81635241Y-36477363D01*
X81435363Y-36677241D01*
X81280000Y-36909759D01*
X81124637Y-36677241D01*
X80924759Y-36477363D01*
X80689727Y-36320320D01*
X80428574Y-36212147D01*
X80151335Y-36157000D01*
X79868665Y-36157000D01*
X79591426Y-36212147D01*
X79330273Y-36320320D01*
X79095241Y-36477363D01*
X78895363Y-36677241D01*
X78740000Y-36909759D01*
X78584637Y-36677241D01*
X78384759Y-36477363D01*
X78149727Y-36320320D01*
X77888574Y-36212147D01*
X77611335Y-36157000D01*
X77328665Y-36157000D01*
X77051426Y-36212147D01*
X76790273Y-36320320D01*
X76555241Y-36477363D01*
X76355363Y-36677241D01*
X76200000Y-36909759D01*
X76044637Y-36677241D01*
X75844759Y-36477363D01*
X75609727Y-36320320D01*
X75348574Y-36212147D01*
X75071335Y-36157000D01*
X74788665Y-36157000D01*
X74511426Y-36212147D01*
X74250273Y-36320320D01*
X74015241Y-36477363D01*
X73815363Y-36677241D01*
X73660000Y-36909759D01*
X73504637Y-36677241D01*
X73304759Y-36477363D01*
X73069727Y-36320320D01*
X72808574Y-36212147D01*
X72531335Y-36157000D01*
X72248665Y-36157000D01*
X71971426Y-36212147D01*
X71710273Y-36320320D01*
X71475241Y-36477363D01*
X71275363Y-36677241D01*
X71120000Y-36909759D01*
X70964637Y-36677241D01*
X70764759Y-36477363D01*
X70529727Y-36320320D01*
X70268574Y-36212147D01*
X69991335Y-36157000D01*
X69708665Y-36157000D01*
X69431426Y-36212147D01*
X69170273Y-36320320D01*
X68935241Y-36477363D01*
X68735363Y-36677241D01*
X68580000Y-36909759D01*
X68424637Y-36677241D01*
X68224759Y-36477363D01*
X67989727Y-36320320D01*
X67728574Y-36212147D01*
X67451335Y-36157000D01*
X67168665Y-36157000D01*
X66891426Y-36212147D01*
X66630273Y-36320320D01*
X66395241Y-36477363D01*
X66195363Y-36677241D01*
X66040000Y-36909759D01*
X65884637Y-36677241D01*
X65684759Y-36477363D01*
X65449727Y-36320320D01*
X65188574Y-36212147D01*
X64911335Y-36157000D01*
X64628665Y-36157000D01*
X64351426Y-36212147D01*
X64090273Y-36320320D01*
X63855241Y-36477363D01*
X63655363Y-36677241D01*
X63500000Y-36909759D01*
X63344637Y-36677241D01*
X63144759Y-36477363D01*
X62909727Y-36320320D01*
X62648574Y-36212147D01*
X62371335Y-36157000D01*
X62088665Y-36157000D01*
X61811426Y-36212147D01*
X61550273Y-36320320D01*
X61315241Y-36477363D01*
X61115363Y-36677241D01*
X60960000Y-36909759D01*
X60804637Y-36677241D01*
X60604759Y-36477363D01*
X60369727Y-36320320D01*
X60108574Y-36212147D01*
X59831335Y-36157000D01*
X59548665Y-36157000D01*
X59271426Y-36212147D01*
X59010273Y-36320320D01*
X58775241Y-36477363D01*
X58575363Y-36677241D01*
X58420000Y-36909759D01*
X58264637Y-36677241D01*
X58064759Y-36477363D01*
X57829727Y-36320320D01*
X57568574Y-36212147D01*
X57291335Y-36157000D01*
X57008665Y-36157000D01*
X56731426Y-36212147D01*
X56470273Y-36320320D01*
X56235241Y-36477363D01*
X56035363Y-36677241D01*
X55880000Y-36909759D01*
X55724637Y-36677241D01*
X55524759Y-36477363D01*
X55289727Y-36320320D01*
X55028574Y-36212147D01*
X54751335Y-36157000D01*
X54468665Y-36157000D01*
X54191426Y-36212147D01*
X53930273Y-36320320D01*
X53695241Y-36477363D01*
X53495363Y-36677241D01*
X53340000Y-36909759D01*
X53184637Y-36677241D01*
X52984759Y-36477363D01*
X52749727Y-36320320D01*
X52488574Y-36212147D01*
X52211335Y-36157000D01*
X51928665Y-36157000D01*
X51651426Y-36212147D01*
X51390273Y-36320320D01*
X51155241Y-36477363D01*
X50955363Y-36677241D01*
X50800000Y-36909759D01*
X50644637Y-36677241D01*
X50444759Y-36477363D01*
X50209727Y-36320320D01*
X49948574Y-36212147D01*
X49671335Y-36157000D01*
X49388665Y-36157000D01*
X49111426Y-36212147D01*
X48850273Y-36320320D01*
X48615241Y-36477363D01*
X48415363Y-36677241D01*
X48260000Y-36909759D01*
X48104637Y-36677241D01*
X47904759Y-36477363D01*
X47669727Y-36320320D01*
X47408574Y-36212147D01*
X47131335Y-36157000D01*
X46848665Y-36157000D01*
X46571426Y-36212147D01*
X46310273Y-36320320D01*
X46075241Y-36477363D01*
X45875363Y-36677241D01*
X45720000Y-36909759D01*
X45564637Y-36677241D01*
X45364759Y-36477363D01*
X45129727Y-36320320D01*
X44868574Y-36212147D01*
X44591335Y-36157000D01*
X44308665Y-36157000D01*
X44031426Y-36212147D01*
X43770273Y-36320320D01*
X43535241Y-36477363D01*
X43335363Y-36677241D01*
X43180000Y-36909759D01*
X43024637Y-36677241D01*
X42824759Y-36477363D01*
X42589727Y-36320320D01*
X42328574Y-36212147D01*
X42051335Y-36157000D01*
X41768665Y-36157000D01*
X41491426Y-36212147D01*
X41230273Y-36320320D01*
X40995241Y-36477363D01*
X40795363Y-36677241D01*
X40640000Y-36909759D01*
X40484637Y-36677241D01*
X40284759Y-36477363D01*
X40049727Y-36320320D01*
X39788574Y-36212147D01*
X39511335Y-36157000D01*
X39228665Y-36157000D01*
X38951426Y-36212147D01*
X38690273Y-36320320D01*
X38455241Y-36477363D01*
X38255363Y-36677241D01*
X38098320Y-36912273D01*
X37990147Y-37173426D01*
X37935000Y-37450665D01*
X35725000Y-37450665D01*
X35669853Y-37173426D01*
X35561680Y-36912273D01*
X35404637Y-36677241D01*
X35204759Y-36477363D01*
X34969727Y-36320320D01*
X34708574Y-36212147D01*
X34431335Y-36157000D01*
X34148665Y-36157000D01*
X33871426Y-36212147D01*
X33610273Y-36320320D01*
X33375241Y-36477363D01*
X33175363Y-36677241D01*
X33018320Y-36912273D01*
X32910147Y-37173426D01*
X32855000Y-37450665D01*
X19431000Y-37450665D01*
X19431000Y-30263000D01*
X75981928Y-30263000D01*
X75981928Y-31713000D01*
X75998992Y-31886254D01*
X76049528Y-32052850D01*
X76131595Y-32206386D01*
X76242038Y-32340962D01*
X76376614Y-32451405D01*
X76530150Y-32533472D01*
X76696746Y-32584008D01*
X76870000Y-32601072D01*
X78070000Y-32601072D01*
X78243254Y-32584008D01*
X78409850Y-32533472D01*
X78563386Y-32451405D01*
X78697962Y-32340962D01*
X78808405Y-32206386D01*
X78890472Y-32052850D01*
X78941008Y-31886254D01*
X78958072Y-31713000D01*
X78958072Y-30790051D01*
X80985000Y-30790051D01*
X80985000Y-31185950D01*
X81006487Y-31404111D01*
X81091401Y-31684034D01*
X81229294Y-31942014D01*
X81414866Y-32168134D01*
X81640987Y-32353706D01*
X81898967Y-32491599D01*
X82178890Y-32576513D01*
X82470000Y-32605185D01*
X82761111Y-32576513D01*
X83041034Y-32491599D01*
X83299014Y-32353706D01*
X83525134Y-32168134D01*
X83710706Y-31942014D01*
X83720000Y-31924626D01*
X83729294Y-31942014D01*
X83914866Y-32168134D01*
X84140987Y-32353706D01*
X84398967Y-32491599D01*
X84678890Y-32576513D01*
X84970000Y-32605185D01*
X85261111Y-32576513D01*
X85541034Y-32491599D01*
X85799014Y-32353706D01*
X86025134Y-32168134D01*
X86210706Y-31942014D01*
X86220000Y-31924626D01*
X86229294Y-31942014D01*
X86414866Y-32168134D01*
X86640987Y-32353706D01*
X86898967Y-32491599D01*
X87178890Y-32576513D01*
X87470000Y-32605185D01*
X87761111Y-32576513D01*
X88041034Y-32491599D01*
X88299014Y-32353706D01*
X88525134Y-32168134D01*
X88710706Y-31942014D01*
X88720000Y-31924626D01*
X88729294Y-31942014D01*
X88914866Y-32168134D01*
X89140987Y-32353706D01*
X89398967Y-32491599D01*
X89678890Y-32576513D01*
X89970000Y-32605185D01*
X90261111Y-32576513D01*
X90541034Y-32491599D01*
X90799014Y-32353706D01*
X91025134Y-32168134D01*
X91210706Y-31942014D01*
X91220000Y-31924626D01*
X91229294Y-31942014D01*
X91414866Y-32168134D01*
X91640987Y-32353706D01*
X91898967Y-32491599D01*
X92178890Y-32576513D01*
X92470000Y-32605185D01*
X92761111Y-32576513D01*
X93041034Y-32491599D01*
X93299014Y-32353706D01*
X93525134Y-32168134D01*
X93710706Y-31942014D01*
X93848599Y-31684033D01*
X93933513Y-31404110D01*
X93955000Y-31185949D01*
X93955000Y-30790050D01*
X93933513Y-30571889D01*
X93848599Y-30291966D01*
X93710706Y-30033986D01*
X93525134Y-29807866D01*
X93299013Y-29622294D01*
X93041033Y-29484401D01*
X92761110Y-29399487D01*
X92470000Y-29370815D01*
X92178889Y-29399487D01*
X91898966Y-29484401D01*
X91640986Y-29622294D01*
X91414866Y-29807866D01*
X91229294Y-30033987D01*
X91220000Y-30051374D01*
X91210706Y-30033986D01*
X91025134Y-29807866D01*
X90799013Y-29622294D01*
X90541033Y-29484401D01*
X90261110Y-29399487D01*
X89970000Y-29370815D01*
X89678889Y-29399487D01*
X89398966Y-29484401D01*
X89140986Y-29622294D01*
X88914866Y-29807866D01*
X88729294Y-30033987D01*
X88720000Y-30051374D01*
X88710706Y-30033986D01*
X88525134Y-29807866D01*
X88299013Y-29622294D01*
X88041033Y-29484401D01*
X87761110Y-29399487D01*
X87470000Y-29370815D01*
X87178889Y-29399487D01*
X86898966Y-29484401D01*
X86640986Y-29622294D01*
X86414866Y-29807866D01*
X86229294Y-30033987D01*
X86220000Y-30051374D01*
X86210706Y-30033986D01*
X86025134Y-29807866D01*
X85799013Y-29622294D01*
X85541033Y-29484401D01*
X85261110Y-29399487D01*
X84970000Y-29370815D01*
X84678889Y-29399487D01*
X84398966Y-29484401D01*
X84140986Y-29622294D01*
X83914866Y-29807866D01*
X83729294Y-30033987D01*
X83720000Y-30051374D01*
X83710706Y-30033986D01*
X83525134Y-29807866D01*
X83299013Y-29622294D01*
X83041033Y-29484401D01*
X82761110Y-29399487D01*
X82470000Y-29370815D01*
X82178889Y-29399487D01*
X81898966Y-29484401D01*
X81640986Y-29622294D01*
X81414866Y-29807866D01*
X81229294Y-30033987D01*
X81091401Y-30291967D01*
X81006487Y-30571890D01*
X80985000Y-30790051D01*
X78958072Y-30790051D01*
X78958072Y-30263000D01*
X78941008Y-30089746D01*
X78890472Y-29923150D01*
X78808405Y-29769614D01*
X78697962Y-29635038D01*
X78563386Y-29524595D01*
X78409850Y-29442528D01*
X78243254Y-29391992D01*
X78070000Y-29374928D01*
X76870000Y-29374928D01*
X76696746Y-29391992D01*
X76530150Y-29442528D01*
X76376614Y-29524595D01*
X76242038Y-29635038D01*
X76131595Y-29769614D01*
X76049528Y-29923150D01*
X75998992Y-30089746D01*
X75981928Y-30263000D01*
X19431000Y-30263000D01*
X19431000Y-27285740D01*
X98540200Y-27285740D01*
X98540200Y-27578260D01*
X98597268Y-27865158D01*
X98709210Y-28135411D01*
X98871725Y-28378632D01*
X99078568Y-28585475D01*
X99252960Y-28702000D01*
X99078568Y-28818525D01*
X98871725Y-29025368D01*
X98709210Y-29268589D01*
X98597268Y-29538842D01*
X98540200Y-29825740D01*
X98540200Y-30118260D01*
X98597268Y-30405158D01*
X98709210Y-30675411D01*
X98871725Y-30918632D01*
X99078568Y-31125475D01*
X99321789Y-31287990D01*
X99592042Y-31399932D01*
X99878940Y-31457000D01*
X100171460Y-31457000D01*
X100458358Y-31399932D01*
X100728611Y-31287990D01*
X100971832Y-31125475D01*
X101178675Y-30918632D01*
X101295200Y-30744240D01*
X101411725Y-30918632D01*
X101618568Y-31125475D01*
X101861789Y-31287990D01*
X102132042Y-31399932D01*
X102418940Y-31457000D01*
X102711460Y-31457000D01*
X102998358Y-31399932D01*
X103268611Y-31287990D01*
X103511832Y-31125475D01*
X103718675Y-30918632D01*
X103881190Y-30675411D01*
X103993132Y-30405158D01*
X104050200Y-30118260D01*
X104050200Y-29825740D01*
X103993132Y-29538842D01*
X103881190Y-29268589D01*
X103718675Y-29025368D01*
X103511832Y-28818525D01*
X103337440Y-28702000D01*
X103511832Y-28585475D01*
X103718675Y-28378632D01*
X103881190Y-28135411D01*
X103993132Y-27865158D01*
X104050200Y-27578260D01*
X104050200Y-27285740D01*
X103993132Y-26998842D01*
X103881190Y-26728589D01*
X103718675Y-26485368D01*
X103511832Y-26278525D01*
X103268611Y-26116010D01*
X102998358Y-26004068D01*
X102711460Y-25947000D01*
X102418940Y-25947000D01*
X102132042Y-26004068D01*
X101861789Y-26116010D01*
X101618568Y-26278525D01*
X101411725Y-26485368D01*
X101295200Y-26659760D01*
X101178675Y-26485368D01*
X100971832Y-26278525D01*
X100728611Y-26116010D01*
X100458358Y-26004068D01*
X100171460Y-25947000D01*
X99878940Y-25947000D01*
X99592042Y-26004068D01*
X99321789Y-26116010D01*
X99078568Y-26278525D01*
X98871725Y-26485368D01*
X98709210Y-26728589D01*
X98597268Y-26998842D01*
X98540200Y-27285740D01*
X19431000Y-27285740D01*
X19431000Y-17653000D01*
X110617000Y-17653000D01*
X110617000Y-96901000D01*
G37*
%TD.AperFunction*%
%TD*%
M02*
