G04 #@! TF.GenerationSoftware,KiCad,Pcbnew,(5.1.10)-1*
G04 #@! TF.CreationDate,2021-10-17T01:43:43+10:00*
G04 #@! TF.ProjectId,RedPyKeeb_MCU,52656450-794b-4656-9562-5f4d43552e6b,rev?*
G04 #@! TF.SameCoordinates,Original*
G04 #@! TF.FileFunction,Paste,Top*
G04 #@! TF.FilePolarity,Positive*
%FSLAX46Y46*%
G04 Gerber Fmt 4.6, Leading zero omitted, Abs format (unit mm)*
G04 Created by KiCad (PCBNEW (5.1.10)-1) date 2021-10-17 01:43:43*
%MOMM*%
%LPD*%
G01*
G04 APERTURE LIST*
%ADD10R,1.000000X3.150000*%
%ADD11R,1.300000X1.500000*%
G04 APERTURE END LIST*
D10*
X78950000Y-71075000D03*
X78950000Y-66025000D03*
X84030000Y-66025240D03*
X81490000Y-66025000D03*
X81490000Y-71075000D03*
X76410000Y-71075000D03*
X71330000Y-71075000D03*
X73870000Y-71075000D03*
X76410000Y-66025000D03*
X84030000Y-71075000D03*
X63710000Y-71075000D03*
X68790000Y-71075000D03*
X68790000Y-66025000D03*
X66250000Y-66025000D03*
X63710000Y-66025000D03*
X43390000Y-66025000D03*
X56090000Y-66025000D03*
X58630000Y-71075000D03*
X48470000Y-71075000D03*
X45930000Y-66025000D03*
X40850000Y-71075000D03*
X58630000Y-66025000D03*
X56090000Y-71075000D03*
X40850000Y-66025000D03*
X53550000Y-66025000D03*
X61170000Y-71075000D03*
X48470000Y-66025000D03*
X61170000Y-66025000D03*
X51010000Y-71075000D03*
X51010000Y-66025000D03*
X38310000Y-71075000D03*
X38310000Y-66025000D03*
X66250000Y-71075000D03*
X45930000Y-71075000D03*
X43390000Y-71075000D03*
X71330000Y-66025000D03*
X35770000Y-71075000D03*
X35770000Y-66025240D03*
X73870000Y-66025000D03*
X53550000Y-71075000D03*
D11*
X63068200Y-56794400D03*
X63068200Y-54094400D03*
G36*
G01*
X73433800Y-56567200D02*
X73733800Y-56567200D01*
G75*
G02*
X73883800Y-56717200I0J-150000D01*
G01*
X73883800Y-58367200D01*
G75*
G02*
X73733800Y-58517200I-150000J0D01*
G01*
X73433800Y-58517200D01*
G75*
G02*
X73283800Y-58367200I0J150000D01*
G01*
X73283800Y-56717200D01*
G75*
G02*
X73433800Y-56567200I150000J0D01*
G01*
G37*
G36*
G01*
X72163800Y-56567200D02*
X72463800Y-56567200D01*
G75*
G02*
X72613800Y-56717200I0J-150000D01*
G01*
X72613800Y-58367200D01*
G75*
G02*
X72463800Y-58517200I-150000J0D01*
G01*
X72163800Y-58517200D01*
G75*
G02*
X72013800Y-58367200I0J150000D01*
G01*
X72013800Y-56717200D01*
G75*
G02*
X72163800Y-56567200I150000J0D01*
G01*
G37*
G36*
G01*
X70893800Y-56567200D02*
X71193800Y-56567200D01*
G75*
G02*
X71343800Y-56717200I0J-150000D01*
G01*
X71343800Y-58367200D01*
G75*
G02*
X71193800Y-58517200I-150000J0D01*
G01*
X70893800Y-58517200D01*
G75*
G02*
X70743800Y-58367200I0J150000D01*
G01*
X70743800Y-56717200D01*
G75*
G02*
X70893800Y-56567200I150000J0D01*
G01*
G37*
G36*
G01*
X69623800Y-56567200D02*
X69923800Y-56567200D01*
G75*
G02*
X70073800Y-56717200I0J-150000D01*
G01*
X70073800Y-58367200D01*
G75*
G02*
X69923800Y-58517200I-150000J0D01*
G01*
X69623800Y-58517200D01*
G75*
G02*
X69473800Y-58367200I0J150000D01*
G01*
X69473800Y-56717200D01*
G75*
G02*
X69623800Y-56567200I150000J0D01*
G01*
G37*
G36*
G01*
X68353800Y-56567200D02*
X68653800Y-56567200D01*
G75*
G02*
X68803800Y-56717200I0J-150000D01*
G01*
X68803800Y-58367200D01*
G75*
G02*
X68653800Y-58517200I-150000J0D01*
G01*
X68353800Y-58517200D01*
G75*
G02*
X68203800Y-58367200I0J150000D01*
G01*
X68203800Y-56717200D01*
G75*
G02*
X68353800Y-56567200I150000J0D01*
G01*
G37*
G36*
G01*
X67083800Y-56567200D02*
X67383800Y-56567200D01*
G75*
G02*
X67533800Y-56717200I0J-150000D01*
G01*
X67533800Y-58367200D01*
G75*
G02*
X67383800Y-58517200I-150000J0D01*
G01*
X67083800Y-58517200D01*
G75*
G02*
X66933800Y-58367200I0J150000D01*
G01*
X66933800Y-56717200D01*
G75*
G02*
X67083800Y-56567200I150000J0D01*
G01*
G37*
G36*
G01*
X65813800Y-56567200D02*
X66113800Y-56567200D01*
G75*
G02*
X66263800Y-56717200I0J-150000D01*
G01*
X66263800Y-58367200D01*
G75*
G02*
X66113800Y-58517200I-150000J0D01*
G01*
X65813800Y-58517200D01*
G75*
G02*
X65663800Y-58367200I0J150000D01*
G01*
X65663800Y-56717200D01*
G75*
G02*
X65813800Y-56567200I150000J0D01*
G01*
G37*
G36*
G01*
X65813800Y-51617200D02*
X66113800Y-51617200D01*
G75*
G02*
X66263800Y-51767200I0J-150000D01*
G01*
X66263800Y-53417200D01*
G75*
G02*
X66113800Y-53567200I-150000J0D01*
G01*
X65813800Y-53567200D01*
G75*
G02*
X65663800Y-53417200I0J150000D01*
G01*
X65663800Y-51767200D01*
G75*
G02*
X65813800Y-51617200I150000J0D01*
G01*
G37*
G36*
G01*
X67083800Y-51617200D02*
X67383800Y-51617200D01*
G75*
G02*
X67533800Y-51767200I0J-150000D01*
G01*
X67533800Y-53417200D01*
G75*
G02*
X67383800Y-53567200I-150000J0D01*
G01*
X67083800Y-53567200D01*
G75*
G02*
X66933800Y-53417200I0J150000D01*
G01*
X66933800Y-51767200D01*
G75*
G02*
X67083800Y-51617200I150000J0D01*
G01*
G37*
G36*
G01*
X68353800Y-51617200D02*
X68653800Y-51617200D01*
G75*
G02*
X68803800Y-51767200I0J-150000D01*
G01*
X68803800Y-53417200D01*
G75*
G02*
X68653800Y-53567200I-150000J0D01*
G01*
X68353800Y-53567200D01*
G75*
G02*
X68203800Y-53417200I0J150000D01*
G01*
X68203800Y-51767200D01*
G75*
G02*
X68353800Y-51617200I150000J0D01*
G01*
G37*
G36*
G01*
X69623800Y-51617200D02*
X69923800Y-51617200D01*
G75*
G02*
X70073800Y-51767200I0J-150000D01*
G01*
X70073800Y-53417200D01*
G75*
G02*
X69923800Y-53567200I-150000J0D01*
G01*
X69623800Y-53567200D01*
G75*
G02*
X69473800Y-53417200I0J150000D01*
G01*
X69473800Y-51767200D01*
G75*
G02*
X69623800Y-51617200I150000J0D01*
G01*
G37*
G36*
G01*
X70893800Y-51617200D02*
X71193800Y-51617200D01*
G75*
G02*
X71343800Y-51767200I0J-150000D01*
G01*
X71343800Y-53417200D01*
G75*
G02*
X71193800Y-53567200I-150000J0D01*
G01*
X70893800Y-53567200D01*
G75*
G02*
X70743800Y-53417200I0J150000D01*
G01*
X70743800Y-51767200D01*
G75*
G02*
X70893800Y-51617200I150000J0D01*
G01*
G37*
G36*
G01*
X72163800Y-51617200D02*
X72463800Y-51617200D01*
G75*
G02*
X72613800Y-51767200I0J-150000D01*
G01*
X72613800Y-53417200D01*
G75*
G02*
X72463800Y-53567200I-150000J0D01*
G01*
X72163800Y-53567200D01*
G75*
G02*
X72013800Y-53417200I0J150000D01*
G01*
X72013800Y-51767200D01*
G75*
G02*
X72163800Y-51617200I150000J0D01*
G01*
G37*
G36*
G01*
X73433800Y-51617200D02*
X73733800Y-51617200D01*
G75*
G02*
X73883800Y-51767200I0J-150000D01*
G01*
X73883800Y-53417200D01*
G75*
G02*
X73733800Y-53567200I-150000J0D01*
G01*
X73433800Y-53567200D01*
G75*
G02*
X73283800Y-53417200I0J150000D01*
G01*
X73283800Y-51767200D01*
G75*
G02*
X73433800Y-51617200I150000J0D01*
G01*
G37*
G36*
G01*
X75039200Y-56033000D02*
X75989200Y-56033000D01*
G75*
G02*
X76239200Y-56283000I0J-250000D01*
G01*
X76239200Y-56958000D01*
G75*
G02*
X75989200Y-57208000I-250000J0D01*
G01*
X75039200Y-57208000D01*
G75*
G02*
X74789200Y-56958000I0J250000D01*
G01*
X74789200Y-56283000D01*
G75*
G02*
X75039200Y-56033000I250000J0D01*
G01*
G37*
G36*
G01*
X75039200Y-58108000D02*
X75989200Y-58108000D01*
G75*
G02*
X76239200Y-58358000I0J-250000D01*
G01*
X76239200Y-59033000D01*
G75*
G02*
X75989200Y-59283000I-250000J0D01*
G01*
X75039200Y-59283000D01*
G75*
G02*
X74789200Y-59033000I0J250000D01*
G01*
X74789200Y-58358000D01*
G75*
G02*
X75039200Y-58108000I250000J0D01*
G01*
G37*
G36*
G01*
X75989200Y-53296400D02*
X75039200Y-53296400D01*
G75*
G02*
X74789200Y-53046400I0J250000D01*
G01*
X74789200Y-52371400D01*
G75*
G02*
X75039200Y-52121400I250000J0D01*
G01*
X75989200Y-52121400D01*
G75*
G02*
X76239200Y-52371400I0J-250000D01*
G01*
X76239200Y-53046400D01*
G75*
G02*
X75989200Y-53296400I-250000J0D01*
G01*
G37*
G36*
G01*
X75989200Y-55371400D02*
X75039200Y-55371400D01*
G75*
G02*
X74789200Y-55121400I0J250000D01*
G01*
X74789200Y-54446400D01*
G75*
G02*
X75039200Y-54196400I250000J0D01*
G01*
X75989200Y-54196400D01*
G75*
G02*
X76239200Y-54446400I0J-250000D01*
G01*
X76239200Y-55121400D01*
G75*
G02*
X75989200Y-55371400I-250000J0D01*
G01*
G37*
M02*
