M48
; DRILL file {KiCad (5.1.10)-1} date 10/17/21 01:43:43
; FORMAT={-:-/ absolute / inch / decimal}
; #@! TF.CreationDate,2021-10-17T01:43:43+10:00
; #@! TF.GenerationSoftware,Kicad,Pcbnew,(5.1.10)-1
; #@! TF.FileFunction,Plated,1,4,PTH
FMAT,2
INCH
T1C0.0157
T2C0.0300
T3C0.0315
T4C0.0374
T5C0.0433
%
G90
G05
T1
X1.4083Y-2.5994
X1.4083Y-2.7982
X1.5083Y-2.5994
X1.5083Y-2.7982
X1.6083Y-2.5994
X1.6083Y-2.7982
X1.7083Y-2.5994
X1.7083Y-2.7982
X1.8083Y-2.5994
X1.8083Y-2.7982
X1.9083Y-2.5994
X1.9083Y-2.7982
X2.0083Y-2.5994
X2.0083Y-2.7982
X2.1083Y-2.5994
X2.1083Y-2.7982
X2.2083Y-2.5994
X2.2083Y-2.7982
X2.3083Y-2.5994
X2.3083Y-2.7982
X2.4083Y-2.5957
X2.4083Y-2.7982
X2.481Y-2.13
X2.5083Y-2.5994
X2.5083Y-2.7982
X2.597Y-2.07
X2.6083Y-2.5994
X2.6083Y-2.7982
X2.7083Y-2.5994
X2.7083Y-2.7982
X2.8083Y-2.5994
X2.8083Y-2.7982
X2.9094Y-2.5984
X2.9094Y-2.7992
X2.973Y-2.156
X2.973Y-2.3108
X3.0079Y-2.5984
X3.0079Y-2.7992
X3.3083Y-2.7982
X3.3088Y-2.5993
T2
X3.1078Y-2.8008
X3.1083Y-2.5983
X3.2083Y-2.7993
X3.2093Y-2.5963
T3
X1.3537Y-1.53
X1.3537Y-1.63
T4
X1.071Y-1.4927
X1.071Y-1.5911
X1.071Y-1.6896
X1.071Y-1.788
X1.549Y-1.013
X1.6474Y-1.013
X1.7459Y-1.013
X1.8443Y-1.013
X1.9427Y-1.013
X2.0411Y-1.013
X2.1396Y-1.013
T5
X1.325Y-1.28
X1.325Y-1.88
X1.425Y-1.28
X1.425Y-1.38
X1.425Y-1.88
X1.525Y-1.28
X1.525Y-1.88
X1.625Y-1.28
X1.625Y-1.88
X1.725Y-1.28
X1.725Y-1.88
X1.825Y-1.28
X1.825Y-1.88
X1.925Y-1.28
X1.925Y-1.88
X2.025Y-1.28
X2.025Y-1.88
X2.125Y-1.28
X2.125Y-1.88
X2.225Y-1.28
X2.225Y-1.88
X2.325Y-1.28
X2.325Y-1.88
X2.425Y-1.28
X2.425Y-1.88
X2.525Y-1.28
X2.525Y-1.88
X2.625Y-1.28
X2.625Y-1.88
X2.725Y-1.28
X2.725Y-1.88
X2.825Y-1.28
X2.825Y-1.88
X2.925Y-1.28
X2.925Y-1.88
X3.025Y-1.28
X3.025Y-1.88
X3.125Y-1.28
X3.125Y-1.88
X3.225Y-1.28
X3.225Y-1.88
X3.325Y-1.28
X3.325Y-1.88
X3.425Y-1.28
X3.425Y-1.88
X3.525Y-1.28
X3.525Y-1.88
X3.625Y-1.28
X3.625Y-1.88
T0
M30
