%TF.GenerationSoftware,KiCad,Pcbnew,(5.1.9)-1*%
%TF.CreationDate,2021-08-18T22:51:30+10:00*%
%TF.ProjectId,RedPyKeeb_MCU,52656450-794b-4656-9562-5f4d43552e6b,rev?*%
%TF.SameCoordinates,Original*%
%TF.FileFunction,Other,Fab,Bot*%
%FSLAX46Y46*%
G04 Gerber Fmt 4.6, Leading zero omitted, Abs format (unit mm)*
G04 Created by KiCad (PCBNEW (5.1.9)-1) date 2021-08-18 22:51:30*
%MOMM*%
%LPD*%
G01*
G04 APERTURE LIST*
%ADD10C,0.100000*%
%ADD11C,0.150000*%
G04 APERTURE END LIST*
D10*
%TO.C,J1*%
X98755200Y-75692000D02*
X100025200Y-76962000D01*
X98755200Y-26162000D02*
X98755200Y-75692000D01*
X103835200Y-26162000D02*
X98755200Y-26162000D01*
X103835200Y-76962000D02*
X103835200Y-26162000D01*
X100025200Y-76962000D02*
X103835200Y-76962000D01*
%TD*%
%TO.C,J1*%
D11*
X109723771Y-25459142D02*
X109771390Y-25506761D01*
X109914247Y-25554380D01*
X110009485Y-25554380D01*
X110152342Y-25506761D01*
X110247580Y-25411523D01*
X110295200Y-25316285D01*
X110342819Y-25125809D01*
X110342819Y-24982952D01*
X110295200Y-24792476D01*
X110247580Y-24697238D01*
X110152342Y-24602000D01*
X110009485Y-24554380D01*
X109914247Y-24554380D01*
X109771390Y-24602000D01*
X109723771Y-24649619D01*
X109152342Y-25554380D02*
X109247580Y-25506761D01*
X109295200Y-25459142D01*
X109342819Y-25363904D01*
X109342819Y-25078190D01*
X109295200Y-24982952D01*
X109247580Y-24935333D01*
X109152342Y-24887714D01*
X109009485Y-24887714D01*
X108914247Y-24935333D01*
X108866628Y-24982952D01*
X108819009Y-25078190D01*
X108819009Y-25363904D01*
X108866628Y-25459142D01*
X108914247Y-25506761D01*
X109009485Y-25554380D01*
X109152342Y-25554380D01*
X108390438Y-24887714D02*
X108390438Y-25554380D01*
X108390438Y-24982952D02*
X108342819Y-24935333D01*
X108247580Y-24887714D01*
X108104723Y-24887714D01*
X108009485Y-24935333D01*
X107961866Y-25030571D01*
X107961866Y-25554380D01*
X107485676Y-24887714D02*
X107485676Y-25554380D01*
X107485676Y-24982952D02*
X107438057Y-24935333D01*
X107342819Y-24887714D01*
X107199961Y-24887714D01*
X107104723Y-24935333D01*
X107057104Y-25030571D01*
X107057104Y-25554380D01*
X106819009Y-25649619D02*
X106057104Y-25649619D01*
X105628533Y-24554380D02*
X105533295Y-24554380D01*
X105438057Y-24602000D01*
X105390438Y-24649619D01*
X105342819Y-24744857D01*
X105295200Y-24935333D01*
X105295200Y-25173428D01*
X105342819Y-25363904D01*
X105390438Y-25459142D01*
X105438057Y-25506761D01*
X105533295Y-25554380D01*
X105628533Y-25554380D01*
X105723771Y-25506761D01*
X105771390Y-25459142D01*
X105819009Y-25363904D01*
X105866628Y-25173428D01*
X105866628Y-24935333D01*
X105819009Y-24744857D01*
X105771390Y-24649619D01*
X105723771Y-24602000D01*
X105628533Y-24554380D01*
X104914247Y-24649619D02*
X104866628Y-24602000D01*
X104771390Y-24554380D01*
X104533295Y-24554380D01*
X104438057Y-24602000D01*
X104390438Y-24649619D01*
X104342819Y-24744857D01*
X104342819Y-24840095D01*
X104390438Y-24982952D01*
X104961866Y-25554380D01*
X104342819Y-25554380D01*
X104009485Y-25554380D02*
X103485676Y-24887714D01*
X104009485Y-24887714D02*
X103485676Y-25554380D01*
X103152342Y-24649619D02*
X103104723Y-24602000D01*
X103009485Y-24554380D01*
X102771390Y-24554380D01*
X102676152Y-24602000D01*
X102628533Y-24649619D01*
X102580914Y-24744857D01*
X102580914Y-24840095D01*
X102628533Y-24982952D01*
X103199961Y-25554380D01*
X102580914Y-25554380D01*
X101961866Y-24554380D02*
X101866628Y-24554380D01*
X101771390Y-24602000D01*
X101723771Y-24649619D01*
X101676152Y-24744857D01*
X101628533Y-24935333D01*
X101628533Y-25173428D01*
X101676152Y-25363904D01*
X101723771Y-25459142D01*
X101771390Y-25506761D01*
X101866628Y-25554380D01*
X101961866Y-25554380D01*
X102057104Y-25506761D01*
X102104723Y-25459142D01*
X102152342Y-25363904D01*
X102199961Y-25173428D01*
X102199961Y-24935333D01*
X102152342Y-24744857D01*
X102104723Y-24649619D01*
X102057104Y-24602000D01*
X101961866Y-24554380D01*
X101438057Y-25649619D02*
X100676152Y-25649619D01*
X100580914Y-24554380D02*
X100009485Y-24554380D01*
X100295200Y-25554380D02*
X100295200Y-24554380D01*
X99533295Y-25554380D02*
X99628533Y-25506761D01*
X99676152Y-25459142D01*
X99723771Y-25363904D01*
X99723771Y-25078190D01*
X99676152Y-24982952D01*
X99628533Y-24935333D01*
X99533295Y-24887714D01*
X99390438Y-24887714D01*
X99295200Y-24935333D01*
X99247580Y-24982952D01*
X99199961Y-25078190D01*
X99199961Y-25363904D01*
X99247580Y-25459142D01*
X99295200Y-25506761D01*
X99390438Y-25554380D01*
X99533295Y-25554380D01*
X98771390Y-24887714D02*
X98771390Y-25887714D01*
X98771390Y-24935333D02*
X98676152Y-24887714D01*
X98485676Y-24887714D01*
X98390438Y-24935333D01*
X98342819Y-24982952D01*
X98295200Y-25078190D01*
X98295200Y-25363904D01*
X98342819Y-25459142D01*
X98390438Y-25506761D01*
X98485676Y-25554380D01*
X98676152Y-25554380D01*
X98771390Y-25506761D01*
X98104723Y-25649619D02*
X97342819Y-25649619D01*
X96771390Y-25030571D02*
X96628533Y-25078190D01*
X96580914Y-25125809D01*
X96533295Y-25221047D01*
X96533295Y-25363904D01*
X96580914Y-25459142D01*
X96628533Y-25506761D01*
X96723771Y-25554380D01*
X97104723Y-25554380D01*
X97104723Y-24554380D01*
X96771390Y-24554380D01*
X96676152Y-24602000D01*
X96628533Y-24649619D01*
X96580914Y-24744857D01*
X96580914Y-24840095D01*
X96628533Y-24935333D01*
X96676152Y-24982952D01*
X96771390Y-25030571D01*
X97104723Y-25030571D01*
X95961866Y-25554380D02*
X96057104Y-25506761D01*
X96104723Y-25459142D01*
X96152342Y-25363904D01*
X96152342Y-25078190D01*
X96104723Y-24982952D01*
X96057104Y-24935333D01*
X95961866Y-24887714D01*
X95819009Y-24887714D01*
X95723771Y-24935333D01*
X95676152Y-24982952D01*
X95628533Y-25078190D01*
X95628533Y-25363904D01*
X95676152Y-25459142D01*
X95723771Y-25506761D01*
X95819009Y-25554380D01*
X95961866Y-25554380D01*
X95342819Y-24887714D02*
X94961866Y-24887714D01*
X95199961Y-24554380D02*
X95199961Y-25411523D01*
X95152342Y-25506761D01*
X95057104Y-25554380D01*
X94961866Y-25554380D01*
X94771390Y-24887714D02*
X94390438Y-24887714D01*
X94628533Y-24554380D02*
X94628533Y-25411523D01*
X94580914Y-25506761D01*
X94485676Y-25554380D01*
X94390438Y-25554380D01*
X93914247Y-25554380D02*
X94009485Y-25506761D01*
X94057104Y-25459142D01*
X94104723Y-25363904D01*
X94104723Y-25078190D01*
X94057104Y-24982952D01*
X94009485Y-24935333D01*
X93914247Y-24887714D01*
X93771390Y-24887714D01*
X93676152Y-24935333D01*
X93628533Y-24982952D01*
X93580914Y-25078190D01*
X93580914Y-25363904D01*
X93628533Y-25459142D01*
X93676152Y-25506761D01*
X93771390Y-25554380D01*
X93914247Y-25554380D01*
X93152342Y-25554380D02*
X93152342Y-24887714D01*
X93152342Y-24982952D02*
X93104723Y-24935333D01*
X93009485Y-24887714D01*
X92866628Y-24887714D01*
X92771390Y-24935333D01*
X92723771Y-25030571D01*
X92723771Y-25554380D01*
X92723771Y-25030571D02*
X92676152Y-24935333D01*
X92580914Y-24887714D01*
X92438057Y-24887714D01*
X92342819Y-24935333D01*
X92295200Y-25030571D01*
X92295200Y-25554380D01*
X101842819Y-51895333D02*
X101128533Y-51895333D01*
X100985676Y-51942952D01*
X100890438Y-52038190D01*
X100842819Y-52181047D01*
X100842819Y-52276285D01*
X100842819Y-50895333D02*
X100842819Y-51466761D01*
X100842819Y-51181047D02*
X101842819Y-51181047D01*
X101699961Y-51276285D01*
X101604723Y-51371523D01*
X101557104Y-51466761D01*
%TD*%
M02*
