%TF.GenerationSoftware,KiCad,Pcbnew,(5.1.9)-1*%
%TF.CreationDate,2021-07-27T18:32:55+10:00*%
%TF.ProjectId,RedPyKeeb_MCU,52656450-794b-4656-9562-5f4d43552e6b,rev?*%
%TF.SameCoordinates,Original*%
%TF.FileFunction,Paste,Top*%
%TF.FilePolarity,Positive*%
%FSLAX46Y46*%
G04 Gerber Fmt 4.6, Leading zero omitted, Abs format (unit mm)*
G04 Created by KiCad (PCBNEW (5.1.9)-1) date 2021-07-27 18:32:55*
%MOMM*%
%LPD*%
G01*
G04 APERTURE LIST*
%ADD10R,1.300000X1.500000*%
G04 APERTURE END LIST*
D10*
%TO.C,R1*%
X63703200Y-61874400D03*
X63703200Y-59174400D03*
%TD*%
%TO.C,U1*%
G36*
G01*
X74068800Y-61647200D02*
X74368800Y-61647200D01*
G75*
G02*
X74518800Y-61797200I0J-150000D01*
G01*
X74518800Y-63447200D01*
G75*
G02*
X74368800Y-63597200I-150000J0D01*
G01*
X74068800Y-63597200D01*
G75*
G02*
X73918800Y-63447200I0J150000D01*
G01*
X73918800Y-61797200D01*
G75*
G02*
X74068800Y-61647200I150000J0D01*
G01*
G37*
G36*
G01*
X72798800Y-61647200D02*
X73098800Y-61647200D01*
G75*
G02*
X73248800Y-61797200I0J-150000D01*
G01*
X73248800Y-63447200D01*
G75*
G02*
X73098800Y-63597200I-150000J0D01*
G01*
X72798800Y-63597200D01*
G75*
G02*
X72648800Y-63447200I0J150000D01*
G01*
X72648800Y-61797200D01*
G75*
G02*
X72798800Y-61647200I150000J0D01*
G01*
G37*
G36*
G01*
X71528800Y-61647200D02*
X71828800Y-61647200D01*
G75*
G02*
X71978800Y-61797200I0J-150000D01*
G01*
X71978800Y-63447200D01*
G75*
G02*
X71828800Y-63597200I-150000J0D01*
G01*
X71528800Y-63597200D01*
G75*
G02*
X71378800Y-63447200I0J150000D01*
G01*
X71378800Y-61797200D01*
G75*
G02*
X71528800Y-61647200I150000J0D01*
G01*
G37*
G36*
G01*
X70258800Y-61647200D02*
X70558800Y-61647200D01*
G75*
G02*
X70708800Y-61797200I0J-150000D01*
G01*
X70708800Y-63447200D01*
G75*
G02*
X70558800Y-63597200I-150000J0D01*
G01*
X70258800Y-63597200D01*
G75*
G02*
X70108800Y-63447200I0J150000D01*
G01*
X70108800Y-61797200D01*
G75*
G02*
X70258800Y-61647200I150000J0D01*
G01*
G37*
G36*
G01*
X68988800Y-61647200D02*
X69288800Y-61647200D01*
G75*
G02*
X69438800Y-61797200I0J-150000D01*
G01*
X69438800Y-63447200D01*
G75*
G02*
X69288800Y-63597200I-150000J0D01*
G01*
X68988800Y-63597200D01*
G75*
G02*
X68838800Y-63447200I0J150000D01*
G01*
X68838800Y-61797200D01*
G75*
G02*
X68988800Y-61647200I150000J0D01*
G01*
G37*
G36*
G01*
X67718800Y-61647200D02*
X68018800Y-61647200D01*
G75*
G02*
X68168800Y-61797200I0J-150000D01*
G01*
X68168800Y-63447200D01*
G75*
G02*
X68018800Y-63597200I-150000J0D01*
G01*
X67718800Y-63597200D01*
G75*
G02*
X67568800Y-63447200I0J150000D01*
G01*
X67568800Y-61797200D01*
G75*
G02*
X67718800Y-61647200I150000J0D01*
G01*
G37*
G36*
G01*
X66448800Y-61647200D02*
X66748800Y-61647200D01*
G75*
G02*
X66898800Y-61797200I0J-150000D01*
G01*
X66898800Y-63447200D01*
G75*
G02*
X66748800Y-63597200I-150000J0D01*
G01*
X66448800Y-63597200D01*
G75*
G02*
X66298800Y-63447200I0J150000D01*
G01*
X66298800Y-61797200D01*
G75*
G02*
X66448800Y-61647200I150000J0D01*
G01*
G37*
G36*
G01*
X66448800Y-56697200D02*
X66748800Y-56697200D01*
G75*
G02*
X66898800Y-56847200I0J-150000D01*
G01*
X66898800Y-58497200D01*
G75*
G02*
X66748800Y-58647200I-150000J0D01*
G01*
X66448800Y-58647200D01*
G75*
G02*
X66298800Y-58497200I0J150000D01*
G01*
X66298800Y-56847200D01*
G75*
G02*
X66448800Y-56697200I150000J0D01*
G01*
G37*
G36*
G01*
X67718800Y-56697200D02*
X68018800Y-56697200D01*
G75*
G02*
X68168800Y-56847200I0J-150000D01*
G01*
X68168800Y-58497200D01*
G75*
G02*
X68018800Y-58647200I-150000J0D01*
G01*
X67718800Y-58647200D01*
G75*
G02*
X67568800Y-58497200I0J150000D01*
G01*
X67568800Y-56847200D01*
G75*
G02*
X67718800Y-56697200I150000J0D01*
G01*
G37*
G36*
G01*
X68988800Y-56697200D02*
X69288800Y-56697200D01*
G75*
G02*
X69438800Y-56847200I0J-150000D01*
G01*
X69438800Y-58497200D01*
G75*
G02*
X69288800Y-58647200I-150000J0D01*
G01*
X68988800Y-58647200D01*
G75*
G02*
X68838800Y-58497200I0J150000D01*
G01*
X68838800Y-56847200D01*
G75*
G02*
X68988800Y-56697200I150000J0D01*
G01*
G37*
G36*
G01*
X70258800Y-56697200D02*
X70558800Y-56697200D01*
G75*
G02*
X70708800Y-56847200I0J-150000D01*
G01*
X70708800Y-58497200D01*
G75*
G02*
X70558800Y-58647200I-150000J0D01*
G01*
X70258800Y-58647200D01*
G75*
G02*
X70108800Y-58497200I0J150000D01*
G01*
X70108800Y-56847200D01*
G75*
G02*
X70258800Y-56697200I150000J0D01*
G01*
G37*
G36*
G01*
X71528800Y-56697200D02*
X71828800Y-56697200D01*
G75*
G02*
X71978800Y-56847200I0J-150000D01*
G01*
X71978800Y-58497200D01*
G75*
G02*
X71828800Y-58647200I-150000J0D01*
G01*
X71528800Y-58647200D01*
G75*
G02*
X71378800Y-58497200I0J150000D01*
G01*
X71378800Y-56847200D01*
G75*
G02*
X71528800Y-56697200I150000J0D01*
G01*
G37*
G36*
G01*
X72798800Y-56697200D02*
X73098800Y-56697200D01*
G75*
G02*
X73248800Y-56847200I0J-150000D01*
G01*
X73248800Y-58497200D01*
G75*
G02*
X73098800Y-58647200I-150000J0D01*
G01*
X72798800Y-58647200D01*
G75*
G02*
X72648800Y-58497200I0J150000D01*
G01*
X72648800Y-56847200D01*
G75*
G02*
X72798800Y-56697200I150000J0D01*
G01*
G37*
G36*
G01*
X74068800Y-56697200D02*
X74368800Y-56697200D01*
G75*
G02*
X74518800Y-56847200I0J-150000D01*
G01*
X74518800Y-58497200D01*
G75*
G02*
X74368800Y-58647200I-150000J0D01*
G01*
X74068800Y-58647200D01*
G75*
G02*
X73918800Y-58497200I0J150000D01*
G01*
X73918800Y-56847200D01*
G75*
G02*
X74068800Y-56697200I150000J0D01*
G01*
G37*
%TD*%
%TO.C,C1*%
G36*
G01*
X75674200Y-61113000D02*
X76624200Y-61113000D01*
G75*
G02*
X76874200Y-61363000I0J-250000D01*
G01*
X76874200Y-62038000D01*
G75*
G02*
X76624200Y-62288000I-250000J0D01*
G01*
X75674200Y-62288000D01*
G75*
G02*
X75424200Y-62038000I0J250000D01*
G01*
X75424200Y-61363000D01*
G75*
G02*
X75674200Y-61113000I250000J0D01*
G01*
G37*
G36*
G01*
X75674200Y-63188000D02*
X76624200Y-63188000D01*
G75*
G02*
X76874200Y-63438000I0J-250000D01*
G01*
X76874200Y-64113000D01*
G75*
G02*
X76624200Y-64363000I-250000J0D01*
G01*
X75674200Y-64363000D01*
G75*
G02*
X75424200Y-64113000I0J250000D01*
G01*
X75424200Y-63438000D01*
G75*
G02*
X75674200Y-63188000I250000J0D01*
G01*
G37*
%TD*%
%TO.C,C2*%
G36*
G01*
X76624200Y-58376400D02*
X75674200Y-58376400D01*
G75*
G02*
X75424200Y-58126400I0J250000D01*
G01*
X75424200Y-57451400D01*
G75*
G02*
X75674200Y-57201400I250000J0D01*
G01*
X76624200Y-57201400D01*
G75*
G02*
X76874200Y-57451400I0J-250000D01*
G01*
X76874200Y-58126400D01*
G75*
G02*
X76624200Y-58376400I-250000J0D01*
G01*
G37*
G36*
G01*
X76624200Y-60451400D02*
X75674200Y-60451400D01*
G75*
G02*
X75424200Y-60201400I0J250000D01*
G01*
X75424200Y-59526400D01*
G75*
G02*
X75674200Y-59276400I250000J0D01*
G01*
X76624200Y-59276400D01*
G75*
G02*
X76874200Y-59526400I0J-250000D01*
G01*
X76874200Y-60201400D01*
G75*
G02*
X76624200Y-60451400I-250000J0D01*
G01*
G37*
%TD*%
M02*
