%TF.GenerationSoftware,KiCad,Pcbnew,(5.1.10)-1*%
%TF.CreationDate,2021-09-26T02:34:10+10:00*%
%TF.ProjectId,RedPyKeeb_MCU,52656450-794b-4656-9562-5f4d43552e6b,rev?*%
%TF.SameCoordinates,Original*%
%TF.FileFunction,Legend,Top*%
%TF.FilePolarity,Positive*%
%FSLAX46Y46*%
G04 Gerber Fmt 4.6, Leading zero omitted, Abs format (unit mm)*
G04 Created by KiCad (PCBNEW (5.1.10)-1) date 2021-09-26 02:34:10*
%MOMM*%
%LPD*%
G01*
G04 APERTURE LIST*
%ADD10C,0.120000*%
%ADD11C,0.150000*%
%ADD12C,0.100000*%
G04 APERTURE END LIST*
D10*
%TO.C,SW1*%
X82180000Y-26568200D02*
X82180000Y-32258200D01*
X82180000Y-32258200D02*
X70220000Y-32258200D01*
X70220000Y-32258200D02*
X70220000Y-26568200D01*
X70220000Y-26568200D02*
X78740000Y-26568200D01*
X80645000Y-27603200D02*
X79375000Y-27603200D01*
X79375000Y-27603200D02*
X79375000Y-31223200D01*
X79375000Y-31223200D02*
X80645000Y-31223200D01*
X80645000Y-31223200D02*
X80645000Y-27603200D01*
X80645000Y-29413200D02*
X79375000Y-29413200D01*
X78105000Y-27603200D02*
X76835000Y-27603200D01*
X76835000Y-27603200D02*
X76835000Y-31223200D01*
X76835000Y-31223200D02*
X78105000Y-31223200D01*
X78105000Y-31223200D02*
X78105000Y-27603200D01*
X78105000Y-29413200D02*
X76835000Y-29413200D01*
X75565000Y-27603200D02*
X74295000Y-27603200D01*
X74295000Y-27603200D02*
X74295000Y-31223200D01*
X74295000Y-31223200D02*
X75565000Y-31223200D01*
X75565000Y-31223200D02*
X75565000Y-27603200D01*
X75565000Y-29413200D02*
X74295000Y-29413200D01*
X73025000Y-27603200D02*
X71755000Y-27603200D01*
X71755000Y-27603200D02*
X71755000Y-31223200D01*
X71755000Y-31223200D02*
X73025000Y-31223200D01*
X73025000Y-31223200D02*
X73025000Y-27603200D01*
X73025000Y-29413200D02*
X71755000Y-29413200D01*
%TO.C,R1*%
X62823200Y-61124400D02*
X62823200Y-59924400D01*
X64583200Y-59924400D02*
X64583200Y-61124400D01*
%TO.C,U1*%
X74843800Y-60147200D02*
X74843800Y-56697200D01*
X74843800Y-60147200D02*
X74843800Y-62097200D01*
X65973800Y-60147200D02*
X65973800Y-58197200D01*
X65973800Y-60147200D02*
X65973800Y-62097200D01*
%TO.C,J2*%
X38589600Y-30220200D02*
X38589600Y-32420200D01*
X38589600Y-32420200D02*
X37369600Y-32420200D01*
X37369600Y-32420200D02*
X37369600Y-24000200D01*
X37369600Y-24000200D02*
X57589600Y-24000200D01*
X57589600Y-24000200D02*
X57589600Y-32420200D01*
X57589600Y-32420200D02*
X56369600Y-32420200D01*
X56369600Y-32420200D02*
X56369600Y-30220200D01*
X37369600Y-25220200D02*
X38589600Y-25220200D01*
X38589600Y-25220200D02*
X38589600Y-30220200D01*
X38589600Y-30220200D02*
X37369600Y-30220200D01*
X57589600Y-25220200D02*
X56369600Y-25220200D01*
X56369600Y-25220200D02*
X56369600Y-30220200D01*
X56369600Y-30220200D02*
X57589600Y-30220200D01*
X38589600Y-29220200D02*
X56369600Y-29220200D01*
X39979600Y-29220200D02*
X39659600Y-29220200D01*
X39659600Y-29220200D02*
X39659600Y-25800200D01*
X39659600Y-25800200D02*
X39979600Y-25720200D01*
X39979600Y-25720200D02*
X40299600Y-25800200D01*
X40299600Y-25800200D02*
X40299600Y-29220200D01*
X40299600Y-29220200D02*
X39979600Y-29220200D01*
X41149600Y-30220200D02*
X41309600Y-30220200D01*
X42479600Y-29220200D02*
X42159600Y-29220200D01*
X42159600Y-29220200D02*
X42159600Y-25800200D01*
X42159600Y-25800200D02*
X42479600Y-25720200D01*
X42479600Y-25720200D02*
X42799600Y-25800200D01*
X42799600Y-25800200D02*
X42799600Y-29220200D01*
X42799600Y-29220200D02*
X42479600Y-29220200D01*
X43649600Y-30220200D02*
X43809600Y-30220200D01*
X44979600Y-29220200D02*
X44659600Y-29220200D01*
X44659600Y-29220200D02*
X44659600Y-25800200D01*
X44659600Y-25800200D02*
X44979600Y-25720200D01*
X44979600Y-25720200D02*
X45299600Y-25800200D01*
X45299600Y-25800200D02*
X45299600Y-29220200D01*
X45299600Y-29220200D02*
X44979600Y-29220200D01*
X46149600Y-30220200D02*
X46309600Y-30220200D01*
X47479600Y-29220200D02*
X47159600Y-29220200D01*
X47159600Y-29220200D02*
X47159600Y-25800200D01*
X47159600Y-25800200D02*
X47479600Y-25720200D01*
X47479600Y-25720200D02*
X47799600Y-25800200D01*
X47799600Y-25800200D02*
X47799600Y-29220200D01*
X47799600Y-29220200D02*
X47479600Y-29220200D01*
X48649600Y-30220200D02*
X48809600Y-30220200D01*
X49979600Y-29220200D02*
X49659600Y-29220200D01*
X49659600Y-29220200D02*
X49659600Y-25800200D01*
X49659600Y-25800200D02*
X49979600Y-25720200D01*
X49979600Y-25720200D02*
X50299600Y-25800200D01*
X50299600Y-25800200D02*
X50299600Y-29220200D01*
X50299600Y-29220200D02*
X49979600Y-29220200D01*
X51149600Y-30220200D02*
X51309600Y-30220200D01*
X52479600Y-29220200D02*
X52159600Y-29220200D01*
X52159600Y-29220200D02*
X52159600Y-25800200D01*
X52159600Y-25800200D02*
X52479600Y-25720200D01*
X52479600Y-25720200D02*
X52799600Y-25800200D01*
X52799600Y-25800200D02*
X52799600Y-29220200D01*
X52799600Y-29220200D02*
X52479600Y-29220200D01*
X53649600Y-30220200D02*
X53809600Y-30220200D01*
X54979600Y-29220200D02*
X54659600Y-29220200D01*
X54659600Y-29220200D02*
X54659600Y-25800200D01*
X54659600Y-25800200D02*
X54979600Y-25720200D01*
X54979600Y-25720200D02*
X55299600Y-25800200D01*
X55299600Y-25800200D02*
X55299600Y-29220200D01*
X55299600Y-29220200D02*
X54979600Y-29220200D01*
X39979600Y-32310200D02*
X39679600Y-32910200D01*
X39679600Y-32910200D02*
X40279600Y-32910200D01*
X40279600Y-32910200D02*
X39979600Y-32310200D01*
%TO.C,J0*%
X27248400Y-51885200D02*
X29448400Y-51885200D01*
X29448400Y-51885200D02*
X29448400Y-53105200D01*
X29448400Y-53105200D02*
X21028400Y-53105200D01*
X21028400Y-53105200D02*
X21028400Y-40385200D01*
X21028400Y-40385200D02*
X29448400Y-40385200D01*
X29448400Y-40385200D02*
X29448400Y-41605200D01*
X29448400Y-41605200D02*
X27248400Y-41605200D01*
X22248400Y-53105200D02*
X22248400Y-51885200D01*
X22248400Y-51885200D02*
X27248400Y-51885200D01*
X27248400Y-51885200D02*
X27248400Y-53105200D01*
X22248400Y-40385200D02*
X22248400Y-41605200D01*
X22248400Y-41605200D02*
X27248400Y-41605200D01*
X27248400Y-41605200D02*
X27248400Y-40385200D01*
X26248400Y-51885200D02*
X26248400Y-41605200D01*
X26248400Y-50495200D02*
X26248400Y-50815200D01*
X26248400Y-50815200D02*
X22828400Y-50815200D01*
X22828400Y-50815200D02*
X22748400Y-50495200D01*
X22748400Y-50495200D02*
X22828400Y-50175200D01*
X22828400Y-50175200D02*
X26248400Y-50175200D01*
X26248400Y-50175200D02*
X26248400Y-50495200D01*
X27248400Y-49325200D02*
X27248400Y-49165200D01*
X26248400Y-47995200D02*
X26248400Y-48315200D01*
X26248400Y-48315200D02*
X22828400Y-48315200D01*
X22828400Y-48315200D02*
X22748400Y-47995200D01*
X22748400Y-47995200D02*
X22828400Y-47675200D01*
X22828400Y-47675200D02*
X26248400Y-47675200D01*
X26248400Y-47675200D02*
X26248400Y-47995200D01*
X27248400Y-46825200D02*
X27248400Y-46665200D01*
X26248400Y-45495200D02*
X26248400Y-45815200D01*
X26248400Y-45815200D02*
X22828400Y-45815200D01*
X22828400Y-45815200D02*
X22748400Y-45495200D01*
X22748400Y-45495200D02*
X22828400Y-45175200D01*
X22828400Y-45175200D02*
X26248400Y-45175200D01*
X26248400Y-45175200D02*
X26248400Y-45495200D01*
X27248400Y-44325200D02*
X27248400Y-44165200D01*
X26248400Y-42995200D02*
X26248400Y-43315200D01*
X26248400Y-43315200D02*
X22828400Y-43315200D01*
X22828400Y-43315200D02*
X22748400Y-42995200D01*
X22748400Y-42995200D02*
X22828400Y-42675200D01*
X22828400Y-42675200D02*
X26248400Y-42675200D01*
X26248400Y-42675200D02*
X26248400Y-42995200D01*
X29338400Y-50495200D02*
X29938400Y-50795200D01*
X29938400Y-50795200D02*
X29938400Y-50195200D01*
X29938400Y-50195200D02*
X29338400Y-50495200D01*
%TO.C,C1*%
X75414200Y-62476748D02*
X75414200Y-62999252D01*
X76884200Y-62476748D02*
X76884200Y-62999252D01*
%TO.C,C2*%
X75414200Y-59087652D02*
X75414200Y-58565148D01*
X76884200Y-59087652D02*
X76884200Y-58565148D01*
D11*
%TO.C,U0*%
X76463026Y-45212000D02*
G75*
G03*
X76463026Y-45212000I-898026J0D01*
G01*
X55880000Y-38862000D02*
X55880000Y-51562000D01*
X68580000Y-38862000D02*
X55880000Y-38862000D01*
X68580000Y-51562000D02*
X68580000Y-38862000D01*
X55880000Y-51562000D02*
X68580000Y-51562000D01*
X73660000Y-43942000D02*
X77470000Y-43942000D01*
X73660000Y-46482000D02*
X73660000Y-43942000D01*
X77470000Y-46482000D02*
X73660000Y-46482000D01*
X77470000Y-43942000D02*
X77470000Y-46482000D01*
X92710000Y-50292000D02*
X93980000Y-50292000D01*
X92710000Y-40132000D02*
X92710000Y-50292000D01*
X93980000Y-40132000D02*
X92710000Y-40132000D01*
X81280000Y-51562000D02*
X93980000Y-51562000D01*
X81280000Y-38862000D02*
X81280000Y-51562000D01*
X93980000Y-38862000D02*
X81280000Y-38862000D01*
X33020000Y-49022000D02*
X31750000Y-49022000D01*
X31750000Y-49022000D02*
X31750000Y-41402000D01*
X31750000Y-41402000D02*
X33020000Y-41402000D01*
X38100000Y-49022000D02*
X38100000Y-41402000D01*
X38100000Y-41402000D02*
X33020000Y-41402000D01*
X38100000Y-49022000D02*
X33020000Y-49022000D01*
X33020000Y-36322000D02*
X93980000Y-36322000D01*
X93980000Y-36322000D02*
X93980000Y-54102000D01*
X93980000Y-54102000D02*
X33020000Y-54102000D01*
X33020000Y-54102000D02*
X33020000Y-36322000D01*
D12*
G36*
X65935000Y-45667000D02*
G01*
X65681000Y-45921000D01*
X65427000Y-45540000D01*
X65681000Y-45286000D01*
X65935000Y-45667000D01*
G37*
X65935000Y-45667000D02*
X65681000Y-45921000D01*
X65427000Y-45540000D01*
X65681000Y-45286000D01*
X65935000Y-45667000D01*
G36*
X65554000Y-45159000D02*
G01*
X65300000Y-45413000D01*
X65046000Y-45032000D01*
X65300000Y-44778000D01*
X65554000Y-45159000D01*
G37*
X65554000Y-45159000D02*
X65300000Y-45413000D01*
X65046000Y-45032000D01*
X65300000Y-44778000D01*
X65554000Y-45159000D01*
G36*
X65173000Y-44651000D02*
G01*
X64919000Y-44905000D01*
X64665000Y-44524000D01*
X64919000Y-44270000D01*
X65173000Y-44651000D01*
G37*
X65173000Y-44651000D02*
X64919000Y-44905000D01*
X64665000Y-44524000D01*
X64919000Y-44270000D01*
X65173000Y-44651000D01*
G36*
X65173000Y-45540000D02*
G01*
X64919000Y-45794000D01*
X64665000Y-45413000D01*
X64919000Y-45159000D01*
X65173000Y-45540000D01*
G37*
X65173000Y-45540000D02*
X64919000Y-45794000D01*
X64665000Y-45413000D01*
X64919000Y-45159000D01*
X65173000Y-45540000D01*
G36*
X64792000Y-45032000D02*
G01*
X64538000Y-45286000D01*
X64284000Y-44905000D01*
X64538000Y-44651000D01*
X64792000Y-45032000D01*
G37*
X64792000Y-45032000D02*
X64538000Y-45286000D01*
X64284000Y-44905000D01*
X64538000Y-44651000D01*
X64792000Y-45032000D01*
G36*
X64411000Y-44524000D02*
G01*
X64157000Y-44778000D01*
X63903000Y-44397000D01*
X64157000Y-44143000D01*
X64411000Y-44524000D01*
G37*
X64411000Y-44524000D02*
X64157000Y-44778000D01*
X63903000Y-44397000D01*
X64157000Y-44143000D01*
X64411000Y-44524000D01*
G36*
X66316000Y-45286000D02*
G01*
X66062000Y-45540000D01*
X65808000Y-45159000D01*
X66062000Y-44905000D01*
X66316000Y-45286000D01*
G37*
X66316000Y-45286000D02*
X66062000Y-45540000D01*
X65808000Y-45159000D01*
X66062000Y-44905000D01*
X66316000Y-45286000D01*
G36*
X66697000Y-44905000D02*
G01*
X66443000Y-45159000D01*
X66189000Y-44778000D01*
X66443000Y-44524000D01*
X66697000Y-44905000D01*
G37*
X66697000Y-44905000D02*
X66443000Y-45159000D01*
X66189000Y-44778000D01*
X66443000Y-44524000D01*
X66697000Y-44905000D01*
%TO.C,SW1*%
D11*
X83584761Y-30746533D02*
X83632380Y-30603676D01*
X83632380Y-30365580D01*
X83584761Y-30270342D01*
X83537142Y-30222723D01*
X83441904Y-30175104D01*
X83346666Y-30175104D01*
X83251428Y-30222723D01*
X83203809Y-30270342D01*
X83156190Y-30365580D01*
X83108571Y-30556057D01*
X83060952Y-30651295D01*
X83013333Y-30698914D01*
X82918095Y-30746533D01*
X82822857Y-30746533D01*
X82727619Y-30698914D01*
X82680000Y-30651295D01*
X82632380Y-30556057D01*
X82632380Y-30317961D01*
X82680000Y-30175104D01*
X82632380Y-29841771D02*
X83632380Y-29603676D01*
X82918095Y-29413200D01*
X83632380Y-29222723D01*
X82632380Y-28984628D01*
X83632380Y-28079866D02*
X83632380Y-28651295D01*
X83632380Y-28365580D02*
X82632380Y-28365580D01*
X82775238Y-28460819D01*
X82870476Y-28556057D01*
X82918095Y-28651295D01*
%TO.C,R1*%
X65855580Y-60691066D02*
X65379390Y-61024400D01*
X65855580Y-61262495D02*
X64855580Y-61262495D01*
X64855580Y-60881542D01*
X64903200Y-60786304D01*
X64950819Y-60738685D01*
X65046057Y-60691066D01*
X65188914Y-60691066D01*
X65284152Y-60738685D01*
X65331771Y-60786304D01*
X65379390Y-60881542D01*
X65379390Y-61262495D01*
X65855580Y-59738685D02*
X65855580Y-60310114D01*
X65855580Y-60024400D02*
X64855580Y-60024400D01*
X64998438Y-60119638D01*
X65093676Y-60214876D01*
X65141295Y-60310114D01*
%TO.C,U1*%
X75141180Y-60909104D02*
X75950704Y-60909104D01*
X76045942Y-60861485D01*
X76093561Y-60813866D01*
X76141180Y-60718628D01*
X76141180Y-60528152D01*
X76093561Y-60432914D01*
X76045942Y-60385295D01*
X75950704Y-60337676D01*
X75141180Y-60337676D01*
X76141180Y-59337676D02*
X76141180Y-59909104D01*
X76141180Y-59623390D02*
X75141180Y-59623390D01*
X75284038Y-59718628D01*
X75379276Y-59813866D01*
X75426895Y-59909104D01*
%TO.C,J2*%
X47146266Y-22362580D02*
X47146266Y-23076866D01*
X47098647Y-23219723D01*
X47003409Y-23314961D01*
X46860552Y-23362580D01*
X46765314Y-23362580D01*
X47574838Y-22457819D02*
X47622457Y-22410200D01*
X47717695Y-22362580D01*
X47955790Y-22362580D01*
X48051028Y-22410200D01*
X48098647Y-22457819D01*
X48146266Y-22553057D01*
X48146266Y-22648295D01*
X48098647Y-22791152D01*
X47527219Y-23362580D01*
X48146266Y-23362580D01*
%TO.C,J0*%
X35190780Y-47078533D02*
X35905066Y-47078533D01*
X36047923Y-47126152D01*
X36143161Y-47221390D01*
X36190780Y-47364247D01*
X36190780Y-47459485D01*
X35190780Y-46411866D02*
X35190780Y-46316628D01*
X35238400Y-46221390D01*
X35286019Y-46173771D01*
X35381257Y-46126152D01*
X35571733Y-46078533D01*
X35809828Y-46078533D01*
X36000304Y-46126152D01*
X36095542Y-46173771D01*
X36143161Y-46221390D01*
X36190780Y-46316628D01*
X36190780Y-46411866D01*
X36143161Y-46507104D01*
X36095542Y-46554723D01*
X36000304Y-46602342D01*
X35809828Y-46649961D01*
X35571733Y-46649961D01*
X35381257Y-46602342D01*
X35286019Y-46554723D01*
X35238400Y-46507104D01*
X35190780Y-46411866D01*
%TO.C,C1*%
X78186342Y-62904666D02*
X78233961Y-62952285D01*
X78281580Y-63095142D01*
X78281580Y-63190380D01*
X78233961Y-63333238D01*
X78138723Y-63428476D01*
X78043485Y-63476095D01*
X77853009Y-63523714D01*
X77710152Y-63523714D01*
X77519676Y-63476095D01*
X77424438Y-63428476D01*
X77329200Y-63333238D01*
X77281580Y-63190380D01*
X77281580Y-63095142D01*
X77329200Y-62952285D01*
X77376819Y-62904666D01*
X78281580Y-61952285D02*
X78281580Y-62523714D01*
X78281580Y-62238000D02*
X77281580Y-62238000D01*
X77424438Y-62333238D01*
X77519676Y-62428476D01*
X77567295Y-62523714D01*
%TO.C,C2*%
X74826342Y-58993066D02*
X74873961Y-59040685D01*
X74921580Y-59183542D01*
X74921580Y-59278780D01*
X74873961Y-59421638D01*
X74778723Y-59516876D01*
X74683485Y-59564495D01*
X74493009Y-59612114D01*
X74350152Y-59612114D01*
X74159676Y-59564495D01*
X74064438Y-59516876D01*
X73969200Y-59421638D01*
X73921580Y-59278780D01*
X73921580Y-59183542D01*
X73969200Y-59040685D01*
X74016819Y-58993066D01*
X74016819Y-58612114D02*
X73969200Y-58564495D01*
X73921580Y-58469257D01*
X73921580Y-58231161D01*
X73969200Y-58135923D01*
X74016819Y-58088304D01*
X74112057Y-58040685D01*
X74207295Y-58040685D01*
X74350152Y-58088304D01*
X74921580Y-58659733D01*
X74921580Y-58040685D01*
%TO.C,U0*%
X62738095Y-34504380D02*
X62738095Y-35313904D01*
X62785714Y-35409142D01*
X62833333Y-35456761D01*
X62928571Y-35504380D01*
X63119047Y-35504380D01*
X63214285Y-35456761D01*
X63261904Y-35409142D01*
X63309523Y-35313904D01*
X63309523Y-34504380D01*
X63976190Y-34504380D02*
X64071428Y-34504380D01*
X64166666Y-34552000D01*
X64214285Y-34599619D01*
X64261904Y-34694857D01*
X64309523Y-34885333D01*
X64309523Y-35123428D01*
X64261904Y-35313904D01*
X64214285Y-35409142D01*
X64166666Y-35456761D01*
X64071428Y-35504380D01*
X63976190Y-35504380D01*
X63880952Y-35456761D01*
X63833333Y-35409142D01*
X63785714Y-35313904D01*
X63738095Y-35123428D01*
X63738095Y-34885333D01*
X63785714Y-34694857D01*
X63833333Y-34599619D01*
X63880952Y-34552000D01*
X63976190Y-34504380D01*
X60643333Y-43648666D02*
X61343333Y-43648666D01*
X61343333Y-43815333D01*
X61310000Y-43915333D01*
X61243333Y-43982000D01*
X61176666Y-44015333D01*
X61043333Y-44048666D01*
X60943333Y-44048666D01*
X60810000Y-44015333D01*
X60743333Y-43982000D01*
X60676666Y-43915333D01*
X60643333Y-43815333D01*
X60643333Y-43648666D01*
X61343333Y-44248666D02*
X60643333Y-44482000D01*
X61343333Y-44715333D01*
X61343333Y-45148666D02*
X60843333Y-45148666D01*
X60743333Y-45115333D01*
X60676666Y-45048666D01*
X60643333Y-44948666D01*
X60643333Y-44882000D01*
X61343333Y-45782000D02*
X61343333Y-45648666D01*
X61310000Y-45582000D01*
X61276666Y-45548666D01*
X61176666Y-45482000D01*
X61043333Y-45448666D01*
X60776666Y-45448666D01*
X60710000Y-45482000D01*
X60676666Y-45515333D01*
X60643333Y-45582000D01*
X60643333Y-45715333D01*
X60676666Y-45782000D01*
X60710000Y-45815333D01*
X60776666Y-45848666D01*
X60943333Y-45848666D01*
X61010000Y-45815333D01*
X61043333Y-45782000D01*
X61076666Y-45715333D01*
X61076666Y-45582000D01*
X61043333Y-45515333D01*
X61010000Y-45482000D01*
X60943333Y-45448666D01*
X60843333Y-46115333D02*
X60843333Y-46448666D01*
X60643333Y-46048666D02*
X61343333Y-46282000D01*
X60643333Y-46515333D01*
X61913333Y-42128666D02*
X62613333Y-42128666D01*
X62113333Y-42362000D01*
X62613333Y-42595333D01*
X61913333Y-42595333D01*
X61913333Y-42928666D02*
X62613333Y-42928666D01*
X61913333Y-43262000D02*
X62613333Y-43262000D01*
X62113333Y-43495333D01*
X62613333Y-43728666D01*
X61913333Y-43728666D01*
X62613333Y-43995333D02*
X61913333Y-44462000D01*
X62613333Y-44462000D02*
X61913333Y-43995333D01*
X61913333Y-45128666D02*
X62246666Y-44895333D01*
X61913333Y-44728666D02*
X62613333Y-44728666D01*
X62613333Y-44995333D01*
X62580000Y-45062000D01*
X62546666Y-45095333D01*
X62480000Y-45128666D01*
X62380000Y-45128666D01*
X62313333Y-45095333D01*
X62280000Y-45062000D01*
X62246666Y-44995333D01*
X62246666Y-44728666D01*
X62613333Y-45328666D02*
X62613333Y-45728666D01*
X61913333Y-45528666D02*
X62613333Y-45528666D01*
X61913333Y-46328666D02*
X61913333Y-45928666D01*
X61913333Y-46128666D02*
X62613333Y-46128666D01*
X62513333Y-46062000D01*
X62446666Y-45995333D01*
X62413333Y-45928666D01*
X62613333Y-46762000D02*
X62613333Y-46828666D01*
X62580000Y-46895333D01*
X62546666Y-46928666D01*
X62480000Y-46962000D01*
X62346666Y-46995333D01*
X62180000Y-46995333D01*
X62046666Y-46962000D01*
X61980000Y-46928666D01*
X61946666Y-46895333D01*
X61913333Y-46828666D01*
X61913333Y-46762000D01*
X61946666Y-46695333D01*
X61980000Y-46662000D01*
X62046666Y-46628666D01*
X62180000Y-46595333D01*
X62346666Y-46595333D01*
X62480000Y-46628666D01*
X62546666Y-46662000D01*
X62580000Y-46695333D01*
X62613333Y-46762000D01*
X62613333Y-47595333D02*
X62613333Y-47462000D01*
X62580000Y-47395333D01*
X62546666Y-47362000D01*
X62446666Y-47295333D01*
X62313333Y-47262000D01*
X62046666Y-47262000D01*
X61980000Y-47295333D01*
X61946666Y-47328666D01*
X61913333Y-47395333D01*
X61913333Y-47528666D01*
X61946666Y-47595333D01*
X61980000Y-47628666D01*
X62046666Y-47662000D01*
X62213333Y-47662000D01*
X62280000Y-47628666D01*
X62313333Y-47595333D01*
X62346666Y-47528666D01*
X62346666Y-47395333D01*
X62313333Y-47328666D01*
X62280000Y-47295333D01*
X62213333Y-47262000D01*
X62546666Y-47928666D02*
X62580000Y-47962000D01*
X62613333Y-48028666D01*
X62613333Y-48195333D01*
X62580000Y-48262000D01*
X62546666Y-48295333D01*
X62480000Y-48328666D01*
X62413333Y-48328666D01*
X62313333Y-48295333D01*
X61913333Y-47895333D01*
X61913333Y-48328666D01*
X84510952Y-45664380D02*
X84510952Y-44664380D01*
X84844285Y-45378666D01*
X85177619Y-44664380D01*
X85177619Y-45664380D01*
X85653809Y-45664380D02*
X85653809Y-44997714D01*
X85653809Y-44664380D02*
X85606190Y-44712000D01*
X85653809Y-44759619D01*
X85701428Y-44712000D01*
X85653809Y-44664380D01*
X85653809Y-44759619D01*
X86558571Y-45616761D02*
X86463333Y-45664380D01*
X86272857Y-45664380D01*
X86177619Y-45616761D01*
X86130000Y-45569142D01*
X86082380Y-45473904D01*
X86082380Y-45188190D01*
X86130000Y-45092952D01*
X86177619Y-45045333D01*
X86272857Y-44997714D01*
X86463333Y-44997714D01*
X86558571Y-45045333D01*
X86987142Y-45664380D02*
X86987142Y-44997714D01*
X86987142Y-45188190D02*
X87034761Y-45092952D01*
X87082380Y-45045333D01*
X87177619Y-44997714D01*
X87272857Y-44997714D01*
X87749047Y-45664380D02*
X87653809Y-45616761D01*
X87606190Y-45569142D01*
X87558571Y-45473904D01*
X87558571Y-45188190D01*
X87606190Y-45092952D01*
X87653809Y-45045333D01*
X87749047Y-44997714D01*
X87891904Y-44997714D01*
X87987142Y-45045333D01*
X88034761Y-45092952D01*
X88082380Y-45188190D01*
X88082380Y-45473904D01*
X88034761Y-45569142D01*
X87987142Y-45616761D01*
X87891904Y-45664380D01*
X87749047Y-45664380D01*
X89225238Y-45616761D02*
X89368095Y-45664380D01*
X89606190Y-45664380D01*
X89701428Y-45616761D01*
X89749047Y-45569142D01*
X89796666Y-45473904D01*
X89796666Y-45378666D01*
X89749047Y-45283428D01*
X89701428Y-45235809D01*
X89606190Y-45188190D01*
X89415714Y-45140571D01*
X89320476Y-45092952D01*
X89272857Y-45045333D01*
X89225238Y-44950095D01*
X89225238Y-44854857D01*
X89272857Y-44759619D01*
X89320476Y-44712000D01*
X89415714Y-44664380D01*
X89653809Y-44664380D01*
X89796666Y-44712000D01*
X90225238Y-45664380D02*
X90225238Y-44664380D01*
X90463333Y-44664380D01*
X90606190Y-44712000D01*
X90701428Y-44807238D01*
X90749047Y-44902476D01*
X90796666Y-45092952D01*
X90796666Y-45235809D01*
X90749047Y-45426285D01*
X90701428Y-45521523D01*
X90606190Y-45616761D01*
X90463333Y-45664380D01*
X90225238Y-45664380D01*
X36282380Y-46473904D02*
X37091904Y-46473904D01*
X37187142Y-46426285D01*
X37234761Y-46378666D01*
X37282380Y-46283428D01*
X37282380Y-46092952D01*
X37234761Y-45997714D01*
X37187142Y-45950095D01*
X37091904Y-45902476D01*
X36282380Y-45902476D01*
X37234761Y-45473904D02*
X37282380Y-45331047D01*
X37282380Y-45092952D01*
X37234761Y-44997714D01*
X37187142Y-44950095D01*
X37091904Y-44902476D01*
X36996666Y-44902476D01*
X36901428Y-44950095D01*
X36853809Y-44997714D01*
X36806190Y-45092952D01*
X36758571Y-45283428D01*
X36710952Y-45378666D01*
X36663333Y-45426285D01*
X36568095Y-45473904D01*
X36472857Y-45473904D01*
X36377619Y-45426285D01*
X36330000Y-45378666D01*
X36282380Y-45283428D01*
X36282380Y-45045333D01*
X36330000Y-44902476D01*
X36758571Y-44140571D02*
X36806190Y-43997714D01*
X36853809Y-43950095D01*
X36949047Y-43902476D01*
X37091904Y-43902476D01*
X37187142Y-43950095D01*
X37234761Y-43997714D01*
X37282380Y-44092952D01*
X37282380Y-44473904D01*
X36282380Y-44473904D01*
X36282380Y-44140571D01*
X36330000Y-44045333D01*
X36377619Y-43997714D01*
X36472857Y-43950095D01*
X36568095Y-43950095D01*
X36663333Y-43997714D01*
X36710952Y-44045333D01*
X36758571Y-44140571D01*
X36758571Y-44473904D01*
%TD*%
M02*
