%TF.GenerationSoftware,KiCad,Pcbnew,(5.1.9)-1*%
%TF.CreationDate,2021-05-20T21:26:35+10:00*%
%TF.ProjectId,RedPyKeeb_MCU,52656450-794b-4656-9562-5f4d43552e6b,rev?*%
%TF.SameCoordinates,Original*%
%TF.FileFunction,Copper,L2,Inr*%
%TF.FilePolarity,Positive*%
%FSLAX46Y46*%
G04 Gerber Fmt 4.6, Leading zero omitted, Abs format (unit mm)*
G04 Created by KiCad (PCBNEW (5.1.9)-1) date 2021-05-20 21:26:35*
%MOMM*%
%LPD*%
G01*
G04 APERTURE LIST*
%TA.AperFunction,ComponentPad*%
%ADD10O,1.700000X1.950000*%
%TD*%
%TA.AperFunction,ComponentPad*%
%ADD11O,1.950000X1.700000*%
%TD*%
%TA.AperFunction,ComponentPad*%
%ADD12R,1.350000X1.350000*%
%TD*%
%TA.AperFunction,ComponentPad*%
%ADD13O,1.350000X1.350000*%
%TD*%
%TA.AperFunction,ComponentPad*%
%ADD14C,1.600000*%
%TD*%
%TA.AperFunction,ComponentPad*%
%ADD15R,1.600000X1.600000*%
%TD*%
%TA.AperFunction,ComponentPad*%
%ADD16C,1.300000*%
%TD*%
%TA.AperFunction,ViaPad*%
%ADD17C,0.800000*%
%TD*%
%TA.AperFunction,Conductor*%
%ADD18C,1.524000*%
%TD*%
%TA.AperFunction,Conductor*%
%ADD19C,3.048000*%
%TD*%
G04 APERTURE END LIST*
D10*
%TO.N,Net-(J2-Pad7)*%
%TO.C,J2*%
X92470000Y-30988000D03*
%TO.N,Net-(J2-Pad6)*%
X89970000Y-30988000D03*
%TO.N,Net-(J2-Pad5)*%
X87470000Y-30988000D03*
%TO.N,Net-(J2-Pad4)*%
X84970000Y-30988000D03*
%TO.N,Net-(J2-Pad3)*%
X82470000Y-30988000D03*
%TO.N,GNDPWR*%
X79970000Y-30988000D03*
%TO.N,MAIN_VBUS*%
%TA.AperFunction,ComponentPad*%
G36*
G01*
X76620000Y-31713000D02*
X76620000Y-30263000D01*
G75*
G02*
X76870000Y-30013000I250000J0D01*
G01*
X78070000Y-30013000D01*
G75*
G02*
X78320000Y-30263000I0J-250000D01*
G01*
X78320000Y-31713000D01*
G75*
G02*
X78070000Y-31963000I-250000J0D01*
G01*
X76870000Y-31963000D01*
G75*
G02*
X76620000Y-31713000I0J250000D01*
G01*
G37*
%TD.AperFunction*%
%TD*%
D11*
%TO.N,GNDPWR*%
%TO.C,J0*%
X27838400Y-42995200D03*
%TO.N,USB_DN*%
X27838400Y-45495200D03*
%TO.N,USB_DP*%
X27838400Y-47995200D03*
%TO.N,MAIN_VBUS*%
%TA.AperFunction,ComponentPad*%
G36*
G01*
X28563400Y-51345200D02*
X27113400Y-51345200D01*
G75*
G02*
X26863400Y-51095200I0J250000D01*
G01*
X26863400Y-49895200D01*
G75*
G02*
X27113400Y-49645200I250000J0D01*
G01*
X28563400Y-49645200D01*
G75*
G02*
X28813400Y-49895200I0J-250000D01*
G01*
X28813400Y-51095200D01*
G75*
G02*
X28563400Y-51345200I-250000J0D01*
G01*
G37*
%TD.AperFunction*%
%TD*%
D12*
%TO.N,KEY_ROW0*%
%TO.C,J1*%
X100279200Y-94640400D03*
D13*
%TO.N,KEY_ROW1*%
X100279200Y-92640400D03*
%TO.N,KEY_ROW2*%
X100279200Y-90640400D03*
%TO.N,KEY_ROW3*%
X100279200Y-88640400D03*
%TO.N,KEY_ROW4*%
X100279200Y-86640400D03*
%TO.N,KEY_ROW5*%
X100279200Y-84640400D03*
%TO.N,KEY_ROW6*%
X100279200Y-82640400D03*
%TO.N,MAIN_VBUS*%
X100279200Y-80640400D03*
%TO.N,LED_SCL_ROW0*%
X100279200Y-78640400D03*
%TO.N,LED_SDA_ROW0*%
X100279200Y-76640400D03*
%TO.N,GNDPWR*%
X100279200Y-74640400D03*
%TO.N,KEY_COL0*%
X100279200Y-72640400D03*
%TO.N,KEY_COL1*%
X100279200Y-70640400D03*
%TO.N,KEY_COL2*%
X100279200Y-68640400D03*
%TO.N,KEY_COL3*%
X100279200Y-66640400D03*
%TO.N,KEY_COL4*%
X100279200Y-64640400D03*
%TO.N,KEY_COL5*%
X100279200Y-62640400D03*
%TO.N,KEY_COL6*%
X100279200Y-60640400D03*
%TO.N,KEY_COL7*%
X100279200Y-58640400D03*
%TO.N,KEY_COL8*%
X100279200Y-56640400D03*
%TO.N,KEY_COL9*%
X100279200Y-54640400D03*
%TO.N,KEY_COL10*%
X100279200Y-52640400D03*
%TO.N,KEY_COL11*%
X100279200Y-50640400D03*
%TO.N,KEY_COL12*%
X100279200Y-48640400D03*
%TO.N,KEY_COL13*%
X100279200Y-46640400D03*
%TO.N,KEY_COL14*%
X100279200Y-44640400D03*
%TO.N,KEY_COL15*%
X100279200Y-42640400D03*
%TO.N,KEY_COL16*%
X100279200Y-40640400D03*
%TO.N,KEY_COL17*%
X100279200Y-38640400D03*
%TO.N,KEY_COL18*%
X100279200Y-36640400D03*
%TO.N,KEY_COL19*%
X100279200Y-34640400D03*
%TO.N,KEY_COL20*%
X100279200Y-32640400D03*
%TO.N,MAIN_VBUS*%
X100279200Y-30640400D03*
%TO.N,LED_SCL_STATUS0*%
X100279200Y-28640400D03*
%TO.N,LED_SDA_STATUS0*%
X100279200Y-26640400D03*
%TO.N,GNDPWR*%
X100279200Y-24640400D03*
%TD*%
D14*
%TO.N,MAIN_VBUS*%
%TO.C,U0*%
X36830000Y-40132000D03*
%TO.N,Net-(U0-Pad48)*%
X34290000Y-37592000D03*
%TO.N,GNDPWR*%
X36830000Y-37592000D03*
%TO.N,Net-(U0-Pad46)*%
X39370000Y-37592000D03*
%TO.N,KEY_COL12*%
X41910000Y-37592000D03*
%TO.N,KEY_COL13*%
X44450000Y-37592000D03*
%TO.N,KEY_COL14*%
X46990000Y-37592000D03*
%TO.N,KEY_COL15*%
X49530000Y-37592000D03*
%TO.N,KEY_COL16*%
X52070000Y-37592000D03*
%TO.N,KEY_COL17*%
X54610000Y-37592000D03*
%TO.N,KEY_COL20*%
X57150000Y-37592000D03*
%TO.N,KEY_COL19*%
X59690000Y-37592000D03*
%TO.N,KEY_COL18*%
X62230000Y-37592000D03*
%TO.N,Net-(U0-Pad36)*%
X64770000Y-37592000D03*
%TO.N,LED_SCL_ROW0_MCU*%
X67310000Y-37592000D03*
D15*
%TO.N,Net-(U0-Pad1)*%
X34290000Y-52832000D03*
D14*
%TO.N,KEY_ROW0*%
X36830000Y-52832000D03*
%TO.N,KEY_ROW1*%
X39370000Y-52832000D03*
%TO.N,KEY_ROW2*%
X41910000Y-52832000D03*
%TO.N,KEY_ROW3*%
X44450000Y-52832000D03*
%TO.N,KEY_ROW4*%
X46990000Y-52832000D03*
%TO.N,KEY_ROW5*%
X49530000Y-52832000D03*
%TO.N,KEY_ROW6*%
X52070000Y-52832000D03*
%TO.N,KEY_COL0*%
X54610000Y-52832000D03*
%TO.N,KEY_COL1*%
X57150000Y-52832000D03*
%TO.N,KEY_COL2*%
X59690000Y-52832000D03*
%TO.N,KEY_COL3*%
X62230000Y-52832000D03*
%TO.N,LED_SDA_ROW0_MCU*%
X64770000Y-52832000D03*
%TO.N,Net-(U0-Pad34)*%
X69850000Y-37592000D03*
%TO.N,Net-(U0-Pad33)*%
X72390000Y-37592000D03*
%TO.N,Net-(U0-Pad32)*%
X74930000Y-37592000D03*
%TO.N,Net-(U0-Pad31)*%
X77470000Y-37592000D03*
%TO.N,Net-(U0-Pad30)*%
X80010000Y-37592000D03*
%TO.N,Net-(U0-Pad29)*%
X82550000Y-37592000D03*
%TO.N,Net-(U0-Pad28)*%
X85090000Y-37592000D03*
%TO.N,Net-(U0-Pad27)*%
X87630000Y-37592000D03*
%TO.N,Net-(U0-Pad26)*%
X90170000Y-37592000D03*
%TO.N,Net-(U0-Pad25)*%
X92710000Y-37592000D03*
%TO.N,KEY_COL11*%
X92710000Y-52832000D03*
%TO.N,KEY_COL10*%
X90170000Y-52832000D03*
%TO.N,KEY_COL9*%
X87630000Y-52832000D03*
%TO.N,KEY_COL8*%
X85090000Y-52832000D03*
%TO.N,KEY_COL4*%
X67310000Y-52832000D03*
%TO.N,33_REF*%
X69850000Y-52832000D03*
%TO.N,LED_SCL_STATUS0_MCU*%
X72390000Y-52832000D03*
%TO.N,KEY_COL7*%
X82550000Y-52832000D03*
%TO.N,KEY_COL6*%
X80010000Y-52832000D03*
%TO.N,KEY_COL5*%
X77470000Y-52832000D03*
%TO.N,LED_SDA_STATUS0_MCU*%
X74930000Y-52832000D03*
D16*
%TO.N,USB_DP*%
X35020000Y-46482000D03*
%TO.N,USB_DN*%
X35020000Y-43942000D03*
%TD*%
D17*
%TO.N,GNDPWR*%
X76149200Y-59842400D03*
X66598800Y-57658000D03*
%TO.N,MAIN_VBUS*%
X76149200Y-63775500D03*
%TO.N,LED_SDA_ROW0_MCU*%
X70408800Y-57672200D03*
%TD*%
D18*
%TO.N,MAIN_VBUS*%
X27838400Y-50495200D02*
X25958800Y-50495200D01*
X100279200Y-80640400D02*
X102027200Y-80640400D01*
X100279200Y-30640400D02*
X101846000Y-30640400D01*
D19*
X108212000Y-30640400D02*
X108458000Y-30886400D01*
X101846000Y-30640400D02*
X108212000Y-30640400D01*
X108458000Y-30886400D02*
X108458000Y-80772000D01*
X102027200Y-80640400D02*
X108326400Y-80640400D01*
D18*
X25901390Y-39732210D02*
X26466800Y-39166800D01*
X25901390Y-50437790D02*
X25901390Y-39732210D01*
X25958800Y-50495200D02*
X25901390Y-50437790D01*
X33680400Y-40132000D02*
X36830000Y-40132000D01*
X32715200Y-39166800D02*
X33680400Y-40132000D01*
X26466800Y-39166800D02*
X31445200Y-39166800D01*
X31445200Y-39166800D02*
X32715200Y-39166800D01*
D19*
X31445200Y-36701278D02*
X31445200Y-39166800D01*
X48994878Y-19151600D02*
X31445200Y-36701278D01*
X108458000Y-23571200D02*
X104038400Y-19151600D01*
X108458000Y-30886400D02*
X108458000Y-23571200D01*
D18*
X77470000Y-19558000D02*
X77063600Y-19151600D01*
X77470000Y-30988000D02*
X77470000Y-19558000D01*
D19*
X77063600Y-19151600D02*
X48994878Y-19151600D01*
X104038400Y-19151600D02*
X77063600Y-19151600D01*
%TD*%
M02*
