%TF.GenerationSoftware,KiCad,Pcbnew,(5.1.9)-1*%
%TF.CreationDate,2021-05-20T21:26:35+10:00*%
%TF.ProjectId,RedPyKeeb_MCU,52656450-794b-4656-9562-5f4d43552e6b,rev?*%
%TF.SameCoordinates,Original*%
%TF.FileFunction,Copper,L1,Top*%
%TF.FilePolarity,Positive*%
%FSLAX46Y46*%
G04 Gerber Fmt 4.6, Leading zero omitted, Abs format (unit mm)*
G04 Created by KiCad (PCBNEW (5.1.9)-1) date 2021-05-20 21:26:35*
%MOMM*%
%LPD*%
G01*
G04 APERTURE LIST*
%TA.AperFunction,ComponentPad*%
%ADD10O,1.700000X1.950000*%
%TD*%
%TA.AperFunction,ComponentPad*%
%ADD11O,1.950000X1.700000*%
%TD*%
%TA.AperFunction,ComponentPad*%
%ADD12R,1.350000X1.350000*%
%TD*%
%TA.AperFunction,ComponentPad*%
%ADD13O,1.350000X1.350000*%
%TD*%
%TA.AperFunction,ComponentPad*%
%ADD14C,1.600000*%
%TD*%
%TA.AperFunction,ComponentPad*%
%ADD15R,1.600000X1.600000*%
%TD*%
%TA.AperFunction,ComponentPad*%
%ADD16C,1.300000*%
%TD*%
%TA.AperFunction,ViaPad*%
%ADD17C,0.800000*%
%TD*%
%TA.AperFunction,Conductor*%
%ADD18C,1.016000*%
%TD*%
%TA.AperFunction,Conductor*%
%ADD19C,0.508000*%
%TD*%
%TA.AperFunction,Conductor*%
%ADD20C,0.254000*%
%TD*%
%TA.AperFunction,Conductor*%
%ADD21C,0.100000*%
%TD*%
G04 APERTURE END LIST*
%TO.P,U1,14*%
%TO.N,MAIN_VBUS*%
%TA.AperFunction,SMDPad,CuDef*%
G36*
G01*
X74068800Y-61647200D02*
X74368800Y-61647200D01*
G75*
G02*
X74518800Y-61797200I0J-150000D01*
G01*
X74518800Y-63447200D01*
G75*
G02*
X74368800Y-63597200I-150000J0D01*
G01*
X74068800Y-63597200D01*
G75*
G02*
X73918800Y-63447200I0J150000D01*
G01*
X73918800Y-61797200D01*
G75*
G02*
X74068800Y-61647200I150000J0D01*
G01*
G37*
%TD.AperFunction*%
%TO.P,U1,13*%
%TO.N,LED_SDA_STATUS0*%
%TA.AperFunction,SMDPad,CuDef*%
G36*
G01*
X72798800Y-61647200D02*
X73098800Y-61647200D01*
G75*
G02*
X73248800Y-61797200I0J-150000D01*
G01*
X73248800Y-63447200D01*
G75*
G02*
X73098800Y-63597200I-150000J0D01*
G01*
X72798800Y-63597200D01*
G75*
G02*
X72648800Y-63447200I0J150000D01*
G01*
X72648800Y-61797200D01*
G75*
G02*
X72798800Y-61647200I150000J0D01*
G01*
G37*
%TD.AperFunction*%
%TO.P,U1,12*%
%TO.N,LED_SCL_STATUS0*%
%TA.AperFunction,SMDPad,CuDef*%
G36*
G01*
X71528800Y-61647200D02*
X71828800Y-61647200D01*
G75*
G02*
X71978800Y-61797200I0J-150000D01*
G01*
X71978800Y-63447200D01*
G75*
G02*
X71828800Y-63597200I-150000J0D01*
G01*
X71528800Y-63597200D01*
G75*
G02*
X71378800Y-63447200I0J150000D01*
G01*
X71378800Y-61797200D01*
G75*
G02*
X71528800Y-61647200I150000J0D01*
G01*
G37*
%TD.AperFunction*%
%TO.P,U1,11*%
%TO.N,LED_SDA_ROW0*%
%TA.AperFunction,SMDPad,CuDef*%
G36*
G01*
X70258800Y-61647200D02*
X70558800Y-61647200D01*
G75*
G02*
X70708800Y-61797200I0J-150000D01*
G01*
X70708800Y-63447200D01*
G75*
G02*
X70558800Y-63597200I-150000J0D01*
G01*
X70258800Y-63597200D01*
G75*
G02*
X70108800Y-63447200I0J150000D01*
G01*
X70108800Y-61797200D01*
G75*
G02*
X70258800Y-61647200I150000J0D01*
G01*
G37*
%TD.AperFunction*%
%TO.P,U1,10*%
%TO.N,LED_SCL_ROW0*%
%TA.AperFunction,SMDPad,CuDef*%
G36*
G01*
X68988800Y-61647200D02*
X69288800Y-61647200D01*
G75*
G02*
X69438800Y-61797200I0J-150000D01*
G01*
X69438800Y-63447200D01*
G75*
G02*
X69288800Y-63597200I-150000J0D01*
G01*
X68988800Y-63597200D01*
G75*
G02*
X68838800Y-63447200I0J150000D01*
G01*
X68838800Y-61797200D01*
G75*
G02*
X68988800Y-61647200I150000J0D01*
G01*
G37*
%TD.AperFunction*%
%TO.P,U1,9*%
%TO.N,Net-(U1-Pad9)*%
%TA.AperFunction,SMDPad,CuDef*%
G36*
G01*
X67718800Y-61647200D02*
X68018800Y-61647200D01*
G75*
G02*
X68168800Y-61797200I0J-150000D01*
G01*
X68168800Y-63447200D01*
G75*
G02*
X68018800Y-63597200I-150000J0D01*
G01*
X67718800Y-63597200D01*
G75*
G02*
X67568800Y-63447200I0J150000D01*
G01*
X67568800Y-61797200D01*
G75*
G02*
X67718800Y-61647200I150000J0D01*
G01*
G37*
%TD.AperFunction*%
%TO.P,U1,8*%
%TO.N,33_REF*%
%TA.AperFunction,SMDPad,CuDef*%
G36*
G01*
X66448800Y-61647200D02*
X66748800Y-61647200D01*
G75*
G02*
X66898800Y-61797200I0J-150000D01*
G01*
X66898800Y-63447200D01*
G75*
G02*
X66748800Y-63597200I-150000J0D01*
G01*
X66448800Y-63597200D01*
G75*
G02*
X66298800Y-63447200I0J150000D01*
G01*
X66298800Y-61797200D01*
G75*
G02*
X66448800Y-61647200I150000J0D01*
G01*
G37*
%TD.AperFunction*%
%TO.P,U1,7*%
%TO.N,GNDPWR*%
%TA.AperFunction,SMDPad,CuDef*%
G36*
G01*
X66448800Y-56697200D02*
X66748800Y-56697200D01*
G75*
G02*
X66898800Y-56847200I0J-150000D01*
G01*
X66898800Y-58497200D01*
G75*
G02*
X66748800Y-58647200I-150000J0D01*
G01*
X66448800Y-58647200D01*
G75*
G02*
X66298800Y-58497200I0J150000D01*
G01*
X66298800Y-56847200D01*
G75*
G02*
X66448800Y-56697200I150000J0D01*
G01*
G37*
%TD.AperFunction*%
%TO.P,U1,6*%
%TO.N,Net-(U1-Pad6)*%
%TA.AperFunction,SMDPad,CuDef*%
G36*
G01*
X67718800Y-56697200D02*
X68018800Y-56697200D01*
G75*
G02*
X68168800Y-56847200I0J-150000D01*
G01*
X68168800Y-58497200D01*
G75*
G02*
X68018800Y-58647200I-150000J0D01*
G01*
X67718800Y-58647200D01*
G75*
G02*
X67568800Y-58497200I0J150000D01*
G01*
X67568800Y-56847200D01*
G75*
G02*
X67718800Y-56697200I150000J0D01*
G01*
G37*
%TD.AperFunction*%
%TO.P,U1,5*%
%TO.N,LED_SCL_ROW0_MCU*%
%TA.AperFunction,SMDPad,CuDef*%
G36*
G01*
X68988800Y-56697200D02*
X69288800Y-56697200D01*
G75*
G02*
X69438800Y-56847200I0J-150000D01*
G01*
X69438800Y-58497200D01*
G75*
G02*
X69288800Y-58647200I-150000J0D01*
G01*
X68988800Y-58647200D01*
G75*
G02*
X68838800Y-58497200I0J150000D01*
G01*
X68838800Y-56847200D01*
G75*
G02*
X68988800Y-56697200I150000J0D01*
G01*
G37*
%TD.AperFunction*%
%TO.P,U1,4*%
%TO.N,LED_SDA_ROW0_MCU*%
%TA.AperFunction,SMDPad,CuDef*%
G36*
G01*
X70258800Y-56697200D02*
X70558800Y-56697200D01*
G75*
G02*
X70708800Y-56847200I0J-150000D01*
G01*
X70708800Y-58497200D01*
G75*
G02*
X70558800Y-58647200I-150000J0D01*
G01*
X70258800Y-58647200D01*
G75*
G02*
X70108800Y-58497200I0J150000D01*
G01*
X70108800Y-56847200D01*
G75*
G02*
X70258800Y-56697200I150000J0D01*
G01*
G37*
%TD.AperFunction*%
%TO.P,U1,3*%
%TO.N,LED_SCL_STATUS0_MCU*%
%TA.AperFunction,SMDPad,CuDef*%
G36*
G01*
X71528800Y-56697200D02*
X71828800Y-56697200D01*
G75*
G02*
X71978800Y-56847200I0J-150000D01*
G01*
X71978800Y-58497200D01*
G75*
G02*
X71828800Y-58647200I-150000J0D01*
G01*
X71528800Y-58647200D01*
G75*
G02*
X71378800Y-58497200I0J150000D01*
G01*
X71378800Y-56847200D01*
G75*
G02*
X71528800Y-56697200I150000J0D01*
G01*
G37*
%TD.AperFunction*%
%TO.P,U1,2*%
%TO.N,LED_SDA_STATUS0_MCU*%
%TA.AperFunction,SMDPad,CuDef*%
G36*
G01*
X72798800Y-56697200D02*
X73098800Y-56697200D01*
G75*
G02*
X73248800Y-56847200I0J-150000D01*
G01*
X73248800Y-58497200D01*
G75*
G02*
X73098800Y-58647200I-150000J0D01*
G01*
X72798800Y-58647200D01*
G75*
G02*
X72648800Y-58497200I0J150000D01*
G01*
X72648800Y-56847200D01*
G75*
G02*
X72798800Y-56697200I150000J0D01*
G01*
G37*
%TD.AperFunction*%
%TO.P,U1,1*%
%TO.N,33_REF*%
%TA.AperFunction,SMDPad,CuDef*%
G36*
G01*
X74068800Y-56697200D02*
X74368800Y-56697200D01*
G75*
G02*
X74518800Y-56847200I0J-150000D01*
G01*
X74518800Y-58497200D01*
G75*
G02*
X74368800Y-58647200I-150000J0D01*
G01*
X74068800Y-58647200D01*
G75*
G02*
X73918800Y-58497200I0J150000D01*
G01*
X73918800Y-56847200D01*
G75*
G02*
X74068800Y-56697200I150000J0D01*
G01*
G37*
%TD.AperFunction*%
%TD*%
D10*
%TO.P,J2,7*%
%TO.N,Net-(J2-Pad7)*%
X92470000Y-30988000D03*
%TO.P,J2,6*%
%TO.N,Net-(J2-Pad6)*%
X89970000Y-30988000D03*
%TO.P,J2,5*%
%TO.N,Net-(J2-Pad5)*%
X87470000Y-30988000D03*
%TO.P,J2,4*%
%TO.N,Net-(J2-Pad4)*%
X84970000Y-30988000D03*
%TO.P,J2,3*%
%TO.N,Net-(J2-Pad3)*%
X82470000Y-30988000D03*
%TO.P,J2,2*%
%TO.N,GNDPWR*%
X79970000Y-30988000D03*
%TO.P,J2,1*%
%TO.N,MAIN_VBUS*%
%TA.AperFunction,ComponentPad*%
G36*
G01*
X76620000Y-31713000D02*
X76620000Y-30263000D01*
G75*
G02*
X76870000Y-30013000I250000J0D01*
G01*
X78070000Y-30013000D01*
G75*
G02*
X78320000Y-30263000I0J-250000D01*
G01*
X78320000Y-31713000D01*
G75*
G02*
X78070000Y-31963000I-250000J0D01*
G01*
X76870000Y-31963000D01*
G75*
G02*
X76620000Y-31713000I0J250000D01*
G01*
G37*
%TD.AperFunction*%
%TD*%
D11*
%TO.P,J0,4*%
%TO.N,GNDPWR*%
X27838400Y-42995200D03*
%TO.P,J0,3*%
%TO.N,USB_DN*%
X27838400Y-45495200D03*
%TO.P,J0,2*%
%TO.N,USB_DP*%
X27838400Y-47995200D03*
%TO.P,J0,1*%
%TO.N,MAIN_VBUS*%
%TA.AperFunction,ComponentPad*%
G36*
G01*
X28563400Y-51345200D02*
X27113400Y-51345200D01*
G75*
G02*
X26863400Y-51095200I0J250000D01*
G01*
X26863400Y-49895200D01*
G75*
G02*
X27113400Y-49645200I250000J0D01*
G01*
X28563400Y-49645200D01*
G75*
G02*
X28813400Y-49895200I0J-250000D01*
G01*
X28813400Y-51095200D01*
G75*
G02*
X28563400Y-51345200I-250000J0D01*
G01*
G37*
%TD.AperFunction*%
%TD*%
%TO.P,C1,1*%
%TO.N,GNDPWR*%
%TA.AperFunction,SMDPad,CuDef*%
G36*
G01*
X75674200Y-61113000D02*
X76624200Y-61113000D01*
G75*
G02*
X76874200Y-61363000I0J-250000D01*
G01*
X76874200Y-62038000D01*
G75*
G02*
X76624200Y-62288000I-250000J0D01*
G01*
X75674200Y-62288000D01*
G75*
G02*
X75424200Y-62038000I0J250000D01*
G01*
X75424200Y-61363000D01*
G75*
G02*
X75674200Y-61113000I250000J0D01*
G01*
G37*
%TD.AperFunction*%
%TO.P,C1,2*%
%TO.N,MAIN_VBUS*%
%TA.AperFunction,SMDPad,CuDef*%
G36*
G01*
X75674200Y-63188000D02*
X76624200Y-63188000D01*
G75*
G02*
X76874200Y-63438000I0J-250000D01*
G01*
X76874200Y-64113000D01*
G75*
G02*
X76624200Y-64363000I-250000J0D01*
G01*
X75674200Y-64363000D01*
G75*
G02*
X75424200Y-64113000I0J250000D01*
G01*
X75424200Y-63438000D01*
G75*
G02*
X75674200Y-63188000I250000J0D01*
G01*
G37*
%TD.AperFunction*%
%TD*%
%TO.P,C2,2*%
%TO.N,33_REF*%
%TA.AperFunction,SMDPad,CuDef*%
G36*
G01*
X76624200Y-58376400D02*
X75674200Y-58376400D01*
G75*
G02*
X75424200Y-58126400I0J250000D01*
G01*
X75424200Y-57451400D01*
G75*
G02*
X75674200Y-57201400I250000J0D01*
G01*
X76624200Y-57201400D01*
G75*
G02*
X76874200Y-57451400I0J-250000D01*
G01*
X76874200Y-58126400D01*
G75*
G02*
X76624200Y-58376400I-250000J0D01*
G01*
G37*
%TD.AperFunction*%
%TO.P,C2,1*%
%TO.N,GNDPWR*%
%TA.AperFunction,SMDPad,CuDef*%
G36*
G01*
X76624200Y-60451400D02*
X75674200Y-60451400D01*
G75*
G02*
X75424200Y-60201400I0J250000D01*
G01*
X75424200Y-59526400D01*
G75*
G02*
X75674200Y-59276400I250000J0D01*
G01*
X76624200Y-59276400D01*
G75*
G02*
X76874200Y-59526400I0J-250000D01*
G01*
X76874200Y-60201400D01*
G75*
G02*
X76624200Y-60451400I-250000J0D01*
G01*
G37*
%TD.AperFunction*%
%TD*%
D12*
%TO.P,J1,1*%
%TO.N,KEY_ROW0*%
X100279200Y-94640400D03*
D13*
%TO.P,J1,2*%
%TO.N,KEY_ROW1*%
X100279200Y-92640400D03*
%TO.P,J1,3*%
%TO.N,KEY_ROW2*%
X100279200Y-90640400D03*
%TO.P,J1,4*%
%TO.N,KEY_ROW3*%
X100279200Y-88640400D03*
%TO.P,J1,5*%
%TO.N,KEY_ROW4*%
X100279200Y-86640400D03*
%TO.P,J1,6*%
%TO.N,KEY_ROW5*%
X100279200Y-84640400D03*
%TO.P,J1,7*%
%TO.N,KEY_ROW6*%
X100279200Y-82640400D03*
%TO.P,J1,8*%
%TO.N,MAIN_VBUS*%
X100279200Y-80640400D03*
%TO.P,J1,9*%
%TO.N,LED_SCL_ROW0*%
X100279200Y-78640400D03*
%TO.P,J1,10*%
%TO.N,LED_SDA_ROW0*%
X100279200Y-76640400D03*
%TO.P,J1,11*%
%TO.N,GNDPWR*%
X100279200Y-74640400D03*
%TO.P,J1,12*%
%TO.N,KEY_COL0*%
X100279200Y-72640400D03*
%TO.P,J1,13*%
%TO.N,KEY_COL1*%
X100279200Y-70640400D03*
%TO.P,J1,14*%
%TO.N,KEY_COL2*%
X100279200Y-68640400D03*
%TO.P,J1,15*%
%TO.N,KEY_COL3*%
X100279200Y-66640400D03*
%TO.P,J1,16*%
%TO.N,KEY_COL4*%
X100279200Y-64640400D03*
%TO.P,J1,17*%
%TO.N,KEY_COL5*%
X100279200Y-62640400D03*
%TO.P,J1,18*%
%TO.N,KEY_COL6*%
X100279200Y-60640400D03*
%TO.P,J1,19*%
%TO.N,KEY_COL7*%
X100279200Y-58640400D03*
%TO.P,J1,20*%
%TO.N,KEY_COL8*%
X100279200Y-56640400D03*
%TO.P,J1,21*%
%TO.N,KEY_COL9*%
X100279200Y-54640400D03*
%TO.P,J1,22*%
%TO.N,KEY_COL10*%
X100279200Y-52640400D03*
%TO.P,J1,23*%
%TO.N,KEY_COL11*%
X100279200Y-50640400D03*
%TO.P,J1,24*%
%TO.N,KEY_COL12*%
X100279200Y-48640400D03*
%TO.P,J1,25*%
%TO.N,KEY_COL13*%
X100279200Y-46640400D03*
%TO.P,J1,26*%
%TO.N,KEY_COL14*%
X100279200Y-44640400D03*
%TO.P,J1,27*%
%TO.N,KEY_COL15*%
X100279200Y-42640400D03*
%TO.P,J1,28*%
%TO.N,KEY_COL16*%
X100279200Y-40640400D03*
%TO.P,J1,29*%
%TO.N,KEY_COL17*%
X100279200Y-38640400D03*
%TO.P,J1,30*%
%TO.N,KEY_COL18*%
X100279200Y-36640400D03*
%TO.P,J1,31*%
%TO.N,KEY_COL19*%
X100279200Y-34640400D03*
%TO.P,J1,32*%
%TO.N,KEY_COL20*%
X100279200Y-32640400D03*
%TO.P,J1,33*%
%TO.N,MAIN_VBUS*%
X100279200Y-30640400D03*
%TO.P,J1,34*%
%TO.N,LED_SCL_STATUS0*%
X100279200Y-28640400D03*
%TO.P,J1,35*%
%TO.N,LED_SDA_STATUS0*%
X100279200Y-26640400D03*
%TO.P,J1,36*%
%TO.N,GNDPWR*%
X100279200Y-24640400D03*
%TD*%
D14*
%TO.P,U0,49*%
%TO.N,MAIN_VBUS*%
X36830000Y-40132000D03*
%TO.P,U0,48*%
%TO.N,Net-(U0-Pad48)*%
X34290000Y-37592000D03*
%TO.P,U0,47*%
%TO.N,GNDPWR*%
X36830000Y-37592000D03*
%TO.P,U0,46*%
%TO.N,Net-(U0-Pad46)*%
X39370000Y-37592000D03*
%TO.P,U0,45*%
%TO.N,KEY_COL12*%
X41910000Y-37592000D03*
%TO.P,U0,44*%
%TO.N,KEY_COL13*%
X44450000Y-37592000D03*
%TO.P,U0,43*%
%TO.N,KEY_COL14*%
X46990000Y-37592000D03*
%TO.P,U0,42*%
%TO.N,KEY_COL15*%
X49530000Y-37592000D03*
%TO.P,U0,41*%
%TO.N,KEY_COL16*%
X52070000Y-37592000D03*
%TO.P,U0,40*%
%TO.N,KEY_COL17*%
X54610000Y-37592000D03*
%TO.P,U0,39*%
%TO.N,KEY_COL20*%
X57150000Y-37592000D03*
%TO.P,U0,38*%
%TO.N,KEY_COL19*%
X59690000Y-37592000D03*
%TO.P,U0,37*%
%TO.N,KEY_COL18*%
X62230000Y-37592000D03*
%TO.P,U0,36*%
%TO.N,Net-(U0-Pad36)*%
X64770000Y-37592000D03*
%TO.P,U0,35*%
%TO.N,LED_SCL_ROW0_MCU*%
X67310000Y-37592000D03*
D15*
%TO.P,U0,1*%
%TO.N,Net-(U0-Pad1)*%
X34290000Y-52832000D03*
D14*
%TO.P,U0,2*%
%TO.N,KEY_ROW0*%
X36830000Y-52832000D03*
%TO.P,U0,3*%
%TO.N,KEY_ROW1*%
X39370000Y-52832000D03*
%TO.P,U0,4*%
%TO.N,KEY_ROW2*%
X41910000Y-52832000D03*
%TO.P,U0,5*%
%TO.N,KEY_ROW3*%
X44450000Y-52832000D03*
%TO.P,U0,6*%
%TO.N,KEY_ROW4*%
X46990000Y-52832000D03*
%TO.P,U0,7*%
%TO.N,KEY_ROW5*%
X49530000Y-52832000D03*
%TO.P,U0,8*%
%TO.N,KEY_ROW6*%
X52070000Y-52832000D03*
%TO.P,U0,9*%
%TO.N,KEY_COL0*%
X54610000Y-52832000D03*
%TO.P,U0,10*%
%TO.N,KEY_COL1*%
X57150000Y-52832000D03*
%TO.P,U0,11*%
%TO.N,KEY_COL2*%
X59690000Y-52832000D03*
%TO.P,U0,12*%
%TO.N,KEY_COL3*%
X62230000Y-52832000D03*
%TO.P,U0,13*%
%TO.N,LED_SDA_ROW0_MCU*%
X64770000Y-52832000D03*
%TO.P,U0,34*%
%TO.N,Net-(U0-Pad34)*%
X69850000Y-37592000D03*
%TO.P,U0,33*%
%TO.N,Net-(U0-Pad33)*%
X72390000Y-37592000D03*
%TO.P,U0,32*%
%TO.N,Net-(U0-Pad32)*%
X74930000Y-37592000D03*
%TO.P,U0,31*%
%TO.N,Net-(U0-Pad31)*%
X77470000Y-37592000D03*
%TO.P,U0,30*%
%TO.N,Net-(U0-Pad30)*%
X80010000Y-37592000D03*
%TO.P,U0,29*%
%TO.N,Net-(U0-Pad29)*%
X82550000Y-37592000D03*
%TO.P,U0,28*%
%TO.N,Net-(U0-Pad28)*%
X85090000Y-37592000D03*
%TO.P,U0,27*%
%TO.N,Net-(U0-Pad27)*%
X87630000Y-37592000D03*
%TO.P,U0,26*%
%TO.N,Net-(U0-Pad26)*%
X90170000Y-37592000D03*
%TO.P,U0,25*%
%TO.N,Net-(U0-Pad25)*%
X92710000Y-37592000D03*
%TO.P,U0,24*%
%TO.N,KEY_COL11*%
X92710000Y-52832000D03*
%TO.P,U0,23*%
%TO.N,KEY_COL10*%
X90170000Y-52832000D03*
%TO.P,U0,22*%
%TO.N,KEY_COL9*%
X87630000Y-52832000D03*
%TO.P,U0,21*%
%TO.N,KEY_COL8*%
X85090000Y-52832000D03*
%TO.P,U0,14*%
%TO.N,KEY_COL4*%
X67310000Y-52832000D03*
%TO.P,U0,15*%
%TO.N,33_REF*%
X69850000Y-52832000D03*
%TO.P,U0,16*%
%TO.N,LED_SCL_STATUS0_MCU*%
X72390000Y-52832000D03*
%TO.P,U0,20*%
%TO.N,KEY_COL7*%
X82550000Y-52832000D03*
%TO.P,U0,19*%
%TO.N,KEY_COL6*%
X80010000Y-52832000D03*
%TO.P,U0,18*%
%TO.N,KEY_COL5*%
X77470000Y-52832000D03*
%TO.P,U0,17*%
%TO.N,LED_SDA_STATUS0_MCU*%
X74930000Y-52832000D03*
D16*
%TO.P,U0,67*%
%TO.N,USB_DP*%
X35020000Y-46482000D03*
%TO.P,U0,66*%
%TO.N,USB_DN*%
X35020000Y-43942000D03*
%TD*%
D17*
%TO.N,GNDPWR*%
X76149200Y-59842400D03*
X66598800Y-57658000D03*
%TO.N,MAIN_VBUS*%
X76149200Y-63775500D03*
%TO.N,LED_SDA_ROW0_MCU*%
X70408800Y-57672200D03*
%TD*%
D18*
%TO.N,GNDPWR*%
X76149200Y-59842400D02*
X76149200Y-61700500D01*
D19*
%TO.N,LED_SCL_ROW0*%
X100279200Y-78640400D02*
X74627200Y-78640400D01*
X69138800Y-62622200D02*
X69138800Y-65379600D01*
X69138800Y-65379600D02*
X69700790Y-65941590D01*
X69700790Y-65941590D02*
X69700790Y-73656810D01*
X74627200Y-78640400D02*
X69672200Y-73685400D01*
%TO.N,LED_SDA_ROW0*%
X76488000Y-76640400D02*
X100279200Y-76640400D01*
X70408800Y-62622200D02*
X70408800Y-73420724D01*
X73628476Y-76640400D02*
X76488000Y-76640400D01*
X70408800Y-73420724D02*
X73628476Y-76640400D01*
D18*
%TO.N,MAIN_VBUS*%
X75372100Y-63775500D02*
X76149200Y-63775500D01*
X74218800Y-62622200D02*
X75372100Y-63775500D01*
D19*
%TO.N,USB_DP*%
X32909774Y-47124200D02*
X33551974Y-46482000D01*
X29684400Y-47124200D02*
X32909774Y-47124200D01*
X33551974Y-46482000D02*
X35020000Y-46482000D01*
X28813400Y-47995200D02*
X29684400Y-47124200D01*
X27838400Y-47995200D02*
X28813400Y-47995200D01*
%TO.N,USB_DN*%
X33015986Y-45946014D02*
X35020000Y-43942000D01*
X32595800Y-46366200D02*
X33015986Y-45946014D01*
X28813400Y-45495200D02*
X29684400Y-46366200D01*
X27838400Y-45495200D02*
X28813400Y-45495200D01*
X29684400Y-46366200D02*
X32595800Y-46366200D01*
%TO.N,LED_SCL_STATUS0*%
X71678800Y-62622200D02*
X71678800Y-64668400D01*
X71678800Y-64668400D02*
X72948800Y-65938400D01*
X72948800Y-65938400D02*
X98094800Y-65938400D01*
X99150199Y-29769401D02*
X100279200Y-28640400D01*
X99150199Y-64883001D02*
X99150199Y-29769401D01*
X98094800Y-65938400D02*
X99150199Y-64883001D01*
%TO.N,LED_SDA_STATUS0*%
X72948800Y-64262000D02*
X72948800Y-62622200D01*
X73917190Y-65230390D02*
X72948800Y-64262000D01*
X97786810Y-65230390D02*
X73917190Y-65230390D01*
X98250456Y-64766744D02*
X97786810Y-65230390D01*
X98250456Y-28669144D02*
X98250456Y-64766744D01*
X100279200Y-26640400D02*
X98250456Y-28669144D01*
%TO.N,33_REF*%
X76184001Y-52230079D02*
X76184001Y-57754099D01*
X75531921Y-51577999D02*
X76184001Y-52230079D01*
X71104001Y-51577999D02*
X75531921Y-51577999D01*
X76184001Y-57754099D02*
X76149200Y-57788900D01*
X69850000Y-52832000D02*
X71104001Y-51577999D01*
X74335500Y-57788900D02*
X74218800Y-57672200D01*
X76149200Y-57788900D02*
X74335500Y-57788900D01*
X73731610Y-61142390D02*
X74218800Y-60655200D01*
X67103610Y-61142390D02*
X73731610Y-61142390D01*
X66598800Y-61647200D02*
X67103610Y-61142390D01*
X74218800Y-60655200D02*
X74218800Y-57672200D01*
X66598800Y-62622200D02*
X66598800Y-61647200D01*
%TO.N,LED_SDA_STATUS0_MCU*%
X72948800Y-54813200D02*
X74930000Y-52832000D01*
X72948800Y-57672200D02*
X72948800Y-54813200D01*
%TO.N,LED_SCL_STATUS0_MCU*%
X71678800Y-57672200D02*
X71678800Y-56543590D01*
X72240790Y-52981210D02*
X72390000Y-52832000D01*
X72240790Y-55981600D02*
X72240790Y-52981210D01*
X71678800Y-56543590D02*
X72240790Y-55981600D01*
%TO.N,LED_SCL_ROW0_MCU*%
X67310000Y-50038000D02*
X67310000Y-37592000D01*
X66055999Y-53433921D02*
X66055999Y-51292001D01*
X66055999Y-51292001D02*
X67310000Y-50038000D01*
X69138800Y-57672200D02*
X69138800Y-55676800D01*
X68034761Y-54572761D02*
X67194839Y-54572761D01*
X67194839Y-54572761D02*
X66055999Y-53433921D01*
X69138800Y-55676800D02*
X68034761Y-54572761D01*
%TD*%
D20*
%TO.N,GNDPWR*%
X110617000Y-96901000D02*
X19431000Y-96901000D01*
X19431000Y-58647200D01*
X65660728Y-58647200D01*
X65672988Y-58771682D01*
X65709298Y-58891380D01*
X65768263Y-59001694D01*
X65847615Y-59098385D01*
X65944306Y-59177737D01*
X66054620Y-59236702D01*
X66174318Y-59273012D01*
X66298800Y-59285272D01*
X66313050Y-59282200D01*
X66471800Y-59123450D01*
X66471800Y-57799200D01*
X65822550Y-57799200D01*
X65663800Y-57957950D01*
X65660728Y-58647200D01*
X19431000Y-58647200D01*
X19431000Y-56697200D01*
X65660728Y-56697200D01*
X65663800Y-57386450D01*
X65822550Y-57545200D01*
X66471800Y-57545200D01*
X66471800Y-56220950D01*
X66313050Y-56062200D01*
X66298800Y-56059128D01*
X66174318Y-56071388D01*
X66054620Y-56107698D01*
X65944306Y-56166663D01*
X65847615Y-56246015D01*
X65768263Y-56342706D01*
X65709298Y-56453020D01*
X65672988Y-56572718D01*
X65660728Y-56697200D01*
X19431000Y-56697200D01*
X19431000Y-52032000D01*
X32851928Y-52032000D01*
X32851928Y-53632000D01*
X32864188Y-53756482D01*
X32900498Y-53876180D01*
X32959463Y-53986494D01*
X33038815Y-54083185D01*
X33135506Y-54162537D01*
X33245820Y-54221502D01*
X33365518Y-54257812D01*
X33490000Y-54270072D01*
X35090000Y-54270072D01*
X35214482Y-54257812D01*
X35334180Y-54221502D01*
X35444494Y-54162537D01*
X35541185Y-54083185D01*
X35620537Y-53986494D01*
X35679502Y-53876180D01*
X35715812Y-53756482D01*
X35716643Y-53748039D01*
X35915241Y-53946637D01*
X36150273Y-54103680D01*
X36411426Y-54211853D01*
X36688665Y-54267000D01*
X36971335Y-54267000D01*
X37248574Y-54211853D01*
X37509727Y-54103680D01*
X37744759Y-53946637D01*
X37944637Y-53746759D01*
X38100000Y-53514241D01*
X38255363Y-53746759D01*
X38455241Y-53946637D01*
X38690273Y-54103680D01*
X38951426Y-54211853D01*
X39228665Y-54267000D01*
X39511335Y-54267000D01*
X39788574Y-54211853D01*
X40049727Y-54103680D01*
X40284759Y-53946637D01*
X40484637Y-53746759D01*
X40640000Y-53514241D01*
X40795363Y-53746759D01*
X40995241Y-53946637D01*
X41230273Y-54103680D01*
X41491426Y-54211853D01*
X41768665Y-54267000D01*
X42051335Y-54267000D01*
X42328574Y-54211853D01*
X42589727Y-54103680D01*
X42824759Y-53946637D01*
X43024637Y-53746759D01*
X43180000Y-53514241D01*
X43335363Y-53746759D01*
X43535241Y-53946637D01*
X43770273Y-54103680D01*
X44031426Y-54211853D01*
X44308665Y-54267000D01*
X44591335Y-54267000D01*
X44868574Y-54211853D01*
X45129727Y-54103680D01*
X45364759Y-53946637D01*
X45564637Y-53746759D01*
X45720000Y-53514241D01*
X45875363Y-53746759D01*
X46075241Y-53946637D01*
X46310273Y-54103680D01*
X46571426Y-54211853D01*
X46848665Y-54267000D01*
X47131335Y-54267000D01*
X47408574Y-54211853D01*
X47669727Y-54103680D01*
X47904759Y-53946637D01*
X48104637Y-53746759D01*
X48260000Y-53514241D01*
X48415363Y-53746759D01*
X48615241Y-53946637D01*
X48850273Y-54103680D01*
X49111426Y-54211853D01*
X49388665Y-54267000D01*
X49671335Y-54267000D01*
X49948574Y-54211853D01*
X50209727Y-54103680D01*
X50444759Y-53946637D01*
X50644637Y-53746759D01*
X50800000Y-53514241D01*
X50955363Y-53746759D01*
X51155241Y-53946637D01*
X51390273Y-54103680D01*
X51651426Y-54211853D01*
X51928665Y-54267000D01*
X52211335Y-54267000D01*
X52488574Y-54211853D01*
X52749727Y-54103680D01*
X52984759Y-53946637D01*
X53184637Y-53746759D01*
X53340000Y-53514241D01*
X53495363Y-53746759D01*
X53695241Y-53946637D01*
X53930273Y-54103680D01*
X54191426Y-54211853D01*
X54468665Y-54267000D01*
X54751335Y-54267000D01*
X55028574Y-54211853D01*
X55289727Y-54103680D01*
X55524759Y-53946637D01*
X55724637Y-53746759D01*
X55880000Y-53514241D01*
X56035363Y-53746759D01*
X56235241Y-53946637D01*
X56470273Y-54103680D01*
X56731426Y-54211853D01*
X57008665Y-54267000D01*
X57291335Y-54267000D01*
X57568574Y-54211853D01*
X57829727Y-54103680D01*
X58064759Y-53946637D01*
X58264637Y-53746759D01*
X58420000Y-53514241D01*
X58575363Y-53746759D01*
X58775241Y-53946637D01*
X59010273Y-54103680D01*
X59271426Y-54211853D01*
X59548665Y-54267000D01*
X59831335Y-54267000D01*
X60108574Y-54211853D01*
X60369727Y-54103680D01*
X60604759Y-53946637D01*
X60804637Y-53746759D01*
X60960000Y-53514241D01*
X61115363Y-53746759D01*
X61315241Y-53946637D01*
X61550273Y-54103680D01*
X61811426Y-54211853D01*
X62088665Y-54267000D01*
X62371335Y-54267000D01*
X62648574Y-54211853D01*
X62909727Y-54103680D01*
X63144759Y-53946637D01*
X63344637Y-53746759D01*
X63500000Y-53514241D01*
X63655363Y-53746759D01*
X63855241Y-53946637D01*
X64090273Y-54103680D01*
X64351426Y-54211853D01*
X64628665Y-54267000D01*
X64911335Y-54267000D01*
X65188574Y-54211853D01*
X65449727Y-54103680D01*
X65460994Y-54096151D01*
X66535343Y-55170501D01*
X66563180Y-55204420D01*
X66597097Y-55232255D01*
X66597098Y-55232256D01*
X66632023Y-55260918D01*
X66698548Y-55315514D01*
X66852988Y-55398064D01*
X66947597Y-55426763D01*
X67020564Y-55448897D01*
X67037164Y-55450532D01*
X67151172Y-55461761D01*
X67151179Y-55461761D01*
X67194839Y-55466061D01*
X67238499Y-55461761D01*
X67666526Y-55461761D01*
X68249801Y-56045037D01*
X68249801Y-56097706D01*
X68172545Y-56074271D01*
X68018800Y-56059128D01*
X67718800Y-56059128D01*
X67565055Y-56074271D01*
X67417218Y-56119116D01*
X67282864Y-56190930D01*
X67253294Y-56166663D01*
X67142980Y-56107698D01*
X67023282Y-56071388D01*
X66898800Y-56059128D01*
X66884550Y-56062200D01*
X66725800Y-56220950D01*
X66725800Y-57545200D01*
X66745800Y-57545200D01*
X66745800Y-57799200D01*
X66725800Y-57799200D01*
X66725800Y-59123450D01*
X66884550Y-59282200D01*
X66898800Y-59285272D01*
X67023282Y-59273012D01*
X67142980Y-59236702D01*
X67253294Y-59177737D01*
X67282864Y-59153470D01*
X67417218Y-59225284D01*
X67565055Y-59270129D01*
X67718800Y-59285272D01*
X68018800Y-59285272D01*
X68172545Y-59270129D01*
X68320382Y-59225284D01*
X68456629Y-59152458D01*
X68503800Y-59113746D01*
X68550971Y-59152458D01*
X68687218Y-59225284D01*
X68835055Y-59270129D01*
X68988800Y-59285272D01*
X69288800Y-59285272D01*
X69442545Y-59270129D01*
X69590382Y-59225284D01*
X69726629Y-59152458D01*
X69773800Y-59113746D01*
X69820971Y-59152458D01*
X69957218Y-59225284D01*
X70105055Y-59270129D01*
X70258800Y-59285272D01*
X70558800Y-59285272D01*
X70712545Y-59270129D01*
X70860382Y-59225284D01*
X70996629Y-59152458D01*
X71043800Y-59113746D01*
X71090971Y-59152458D01*
X71227218Y-59225284D01*
X71375055Y-59270129D01*
X71528800Y-59285272D01*
X71828800Y-59285272D01*
X71982545Y-59270129D01*
X72130382Y-59225284D01*
X72266629Y-59152458D01*
X72313800Y-59113746D01*
X72360971Y-59152458D01*
X72497218Y-59225284D01*
X72645055Y-59270129D01*
X72798800Y-59285272D01*
X73098800Y-59285272D01*
X73252545Y-59270129D01*
X73329800Y-59246694D01*
X73329800Y-60253390D01*
X67147269Y-60253390D01*
X67103609Y-60249090D01*
X67059949Y-60253390D01*
X67059943Y-60253390D01*
X66962534Y-60262984D01*
X66929334Y-60266254D01*
X66827668Y-60297094D01*
X66761759Y-60317087D01*
X66607319Y-60399637D01*
X66471951Y-60510731D01*
X66444111Y-60544654D01*
X66001059Y-60987706D01*
X65967142Y-61015541D01*
X65939307Y-61049458D01*
X65939305Y-61049460D01*
X65856048Y-61150909D01*
X65773498Y-61305348D01*
X65722664Y-61472926D01*
X65720291Y-61497019D01*
X65675871Y-61643455D01*
X65660728Y-61797200D01*
X65660728Y-63447200D01*
X65675871Y-63600945D01*
X65720716Y-63748782D01*
X65793542Y-63885029D01*
X65891549Y-64004451D01*
X66010971Y-64102458D01*
X66147218Y-64175284D01*
X66295055Y-64220129D01*
X66448800Y-64235272D01*
X66748800Y-64235272D01*
X66902545Y-64220129D01*
X67050382Y-64175284D01*
X67186629Y-64102458D01*
X67233800Y-64063746D01*
X67280971Y-64102458D01*
X67417218Y-64175284D01*
X67565055Y-64220129D01*
X67718800Y-64235272D01*
X68018800Y-64235272D01*
X68172545Y-64220129D01*
X68249801Y-64196694D01*
X68249801Y-65335930D01*
X68245500Y-65379600D01*
X68262664Y-65553874D01*
X68313498Y-65721452D01*
X68388649Y-65862049D01*
X68396048Y-65875891D01*
X68507142Y-66011259D01*
X68541059Y-66039094D01*
X68811790Y-66309825D01*
X68811791Y-73459281D01*
X68796064Y-73511126D01*
X68778900Y-73685400D01*
X68796064Y-73859674D01*
X68846898Y-74027252D01*
X68929448Y-74181691D01*
X69012705Y-74283140D01*
X73967706Y-79238142D01*
X73995541Y-79272059D01*
X74130909Y-79383153D01*
X74285349Y-79465703D01*
X74351258Y-79485696D01*
X74452924Y-79516536D01*
X74486124Y-79519806D01*
X74583533Y-79529400D01*
X74583539Y-79529400D01*
X74627199Y-79533700D01*
X74670859Y-79529400D01*
X99315579Y-79529400D01*
X99426579Y-79640400D01*
X99261656Y-79805323D01*
X99118293Y-80019882D01*
X99019542Y-80258287D01*
X98969200Y-80511376D01*
X98969200Y-80769424D01*
X99019542Y-81022513D01*
X99118293Y-81260918D01*
X99261656Y-81475477D01*
X99426579Y-81640400D01*
X99261656Y-81805323D01*
X99118293Y-82019882D01*
X99019542Y-82258287D01*
X98969200Y-82511376D01*
X98969200Y-82769424D01*
X99019542Y-83022513D01*
X99118293Y-83260918D01*
X99261656Y-83475477D01*
X99426579Y-83640400D01*
X99261656Y-83805323D01*
X99118293Y-84019882D01*
X99019542Y-84258287D01*
X98969200Y-84511376D01*
X98969200Y-84769424D01*
X99019542Y-85022513D01*
X99118293Y-85260918D01*
X99261656Y-85475477D01*
X99426579Y-85640400D01*
X99261656Y-85805323D01*
X99118293Y-86019882D01*
X99019542Y-86258287D01*
X98969200Y-86511376D01*
X98969200Y-86769424D01*
X99019542Y-87022513D01*
X99118293Y-87260918D01*
X99261656Y-87475477D01*
X99426579Y-87640400D01*
X99261656Y-87805323D01*
X99118293Y-88019882D01*
X99019542Y-88258287D01*
X98969200Y-88511376D01*
X98969200Y-88769424D01*
X99019542Y-89022513D01*
X99118293Y-89260918D01*
X99261656Y-89475477D01*
X99426579Y-89640400D01*
X99261656Y-89805323D01*
X99118293Y-90019882D01*
X99019542Y-90258287D01*
X98969200Y-90511376D01*
X98969200Y-90769424D01*
X99019542Y-91022513D01*
X99118293Y-91260918D01*
X99261656Y-91475477D01*
X99426579Y-91640400D01*
X99261656Y-91805323D01*
X99118293Y-92019882D01*
X99019542Y-92258287D01*
X98969200Y-92511376D01*
X98969200Y-92769424D01*
X99019542Y-93022513D01*
X99118293Y-93260918D01*
X99239897Y-93442913D01*
X99153015Y-93514215D01*
X99073663Y-93610906D01*
X99014698Y-93721220D01*
X98978388Y-93840918D01*
X98966128Y-93965400D01*
X98966128Y-95315400D01*
X98978388Y-95439882D01*
X99014698Y-95559580D01*
X99073663Y-95669894D01*
X99153015Y-95766585D01*
X99249706Y-95845937D01*
X99360020Y-95904902D01*
X99479718Y-95941212D01*
X99604200Y-95953472D01*
X100954200Y-95953472D01*
X101078682Y-95941212D01*
X101198380Y-95904902D01*
X101308694Y-95845937D01*
X101405385Y-95766585D01*
X101484737Y-95669894D01*
X101543702Y-95559580D01*
X101580012Y-95439882D01*
X101592272Y-95315400D01*
X101592272Y-93965400D01*
X101580012Y-93840918D01*
X101543702Y-93721220D01*
X101484737Y-93610906D01*
X101405385Y-93514215D01*
X101318503Y-93442913D01*
X101440107Y-93260918D01*
X101538858Y-93022513D01*
X101589200Y-92769424D01*
X101589200Y-92511376D01*
X101538858Y-92258287D01*
X101440107Y-92019882D01*
X101296744Y-91805323D01*
X101131821Y-91640400D01*
X101296744Y-91475477D01*
X101440107Y-91260918D01*
X101538858Y-91022513D01*
X101589200Y-90769424D01*
X101589200Y-90511376D01*
X101538858Y-90258287D01*
X101440107Y-90019882D01*
X101296744Y-89805323D01*
X101131821Y-89640400D01*
X101296744Y-89475477D01*
X101440107Y-89260918D01*
X101538858Y-89022513D01*
X101589200Y-88769424D01*
X101589200Y-88511376D01*
X101538858Y-88258287D01*
X101440107Y-88019882D01*
X101296744Y-87805323D01*
X101131821Y-87640400D01*
X101296744Y-87475477D01*
X101440107Y-87260918D01*
X101538858Y-87022513D01*
X101589200Y-86769424D01*
X101589200Y-86511376D01*
X101538858Y-86258287D01*
X101440107Y-86019882D01*
X101296744Y-85805323D01*
X101131821Y-85640400D01*
X101296744Y-85475477D01*
X101440107Y-85260918D01*
X101538858Y-85022513D01*
X101589200Y-84769424D01*
X101589200Y-84511376D01*
X101538858Y-84258287D01*
X101440107Y-84019882D01*
X101296744Y-83805323D01*
X101131821Y-83640400D01*
X101296744Y-83475477D01*
X101440107Y-83260918D01*
X101538858Y-83022513D01*
X101589200Y-82769424D01*
X101589200Y-82511376D01*
X101538858Y-82258287D01*
X101440107Y-82019882D01*
X101296744Y-81805323D01*
X101131821Y-81640400D01*
X101296744Y-81475477D01*
X101440107Y-81260918D01*
X101538858Y-81022513D01*
X101589200Y-80769424D01*
X101589200Y-80511376D01*
X101538858Y-80258287D01*
X101440107Y-80019882D01*
X101296744Y-79805323D01*
X101131821Y-79640400D01*
X101296744Y-79475477D01*
X101440107Y-79260918D01*
X101538858Y-79022513D01*
X101589200Y-78769424D01*
X101589200Y-78511376D01*
X101538858Y-78258287D01*
X101440107Y-78019882D01*
X101296744Y-77805323D01*
X101131821Y-77640400D01*
X101296744Y-77475477D01*
X101440107Y-77260918D01*
X101538858Y-77022513D01*
X101589200Y-76769424D01*
X101589200Y-76511376D01*
X101538858Y-76258287D01*
X101440107Y-76019882D01*
X101296744Y-75805323D01*
X101125140Y-75633719D01*
X101257503Y-75511627D01*
X101408673Y-75304029D01*
X101516438Y-75070928D01*
X101547110Y-74969800D01*
X101423424Y-74767400D01*
X100406200Y-74767400D01*
X100406200Y-74787400D01*
X100152200Y-74787400D01*
X100152200Y-74767400D01*
X99134976Y-74767400D01*
X99011290Y-74969800D01*
X99041962Y-75070928D01*
X99149727Y-75304029D01*
X99300897Y-75511627D01*
X99433260Y-75633719D01*
X99315579Y-75751400D01*
X73996712Y-75751400D01*
X71297800Y-73052489D01*
X71297800Y-65544635D01*
X72289306Y-66536141D01*
X72317141Y-66570059D01*
X72452509Y-66681153D01*
X72606949Y-66763703D01*
X72672858Y-66783696D01*
X72774524Y-66814536D01*
X72806914Y-66817726D01*
X72905133Y-66827400D01*
X72905139Y-66827400D01*
X72948799Y-66831700D01*
X72992459Y-66827400D01*
X98051140Y-66827400D01*
X98094800Y-66831700D01*
X98138460Y-66827400D01*
X98138467Y-66827400D01*
X98269074Y-66814536D01*
X98436651Y-66763703D01*
X98591091Y-66681153D01*
X98726459Y-66570059D01*
X98754299Y-66536136D01*
X99016412Y-66274023D01*
X98969200Y-66511376D01*
X98969200Y-66769424D01*
X99019542Y-67022513D01*
X99118293Y-67260918D01*
X99261656Y-67475477D01*
X99426579Y-67640400D01*
X99261656Y-67805323D01*
X99118293Y-68019882D01*
X99019542Y-68258287D01*
X98969200Y-68511376D01*
X98969200Y-68769424D01*
X99019542Y-69022513D01*
X99118293Y-69260918D01*
X99261656Y-69475477D01*
X99426579Y-69640400D01*
X99261656Y-69805323D01*
X99118293Y-70019882D01*
X99019542Y-70258287D01*
X98969200Y-70511376D01*
X98969200Y-70769424D01*
X99019542Y-71022513D01*
X99118293Y-71260918D01*
X99261656Y-71475477D01*
X99426579Y-71640400D01*
X99261656Y-71805323D01*
X99118293Y-72019882D01*
X99019542Y-72258287D01*
X98969200Y-72511376D01*
X98969200Y-72769424D01*
X99019542Y-73022513D01*
X99118293Y-73260918D01*
X99261656Y-73475477D01*
X99433260Y-73647081D01*
X99300897Y-73769173D01*
X99149727Y-73976771D01*
X99041962Y-74209872D01*
X99011290Y-74311000D01*
X99134976Y-74513400D01*
X100152200Y-74513400D01*
X100152200Y-74493400D01*
X100406200Y-74493400D01*
X100406200Y-74513400D01*
X101423424Y-74513400D01*
X101547110Y-74311000D01*
X101516438Y-74209872D01*
X101408673Y-73976771D01*
X101257503Y-73769173D01*
X101125140Y-73647081D01*
X101296744Y-73475477D01*
X101440107Y-73260918D01*
X101538858Y-73022513D01*
X101589200Y-72769424D01*
X101589200Y-72511376D01*
X101538858Y-72258287D01*
X101440107Y-72019882D01*
X101296744Y-71805323D01*
X101131821Y-71640400D01*
X101296744Y-71475477D01*
X101440107Y-71260918D01*
X101538858Y-71022513D01*
X101589200Y-70769424D01*
X101589200Y-70511376D01*
X101538858Y-70258287D01*
X101440107Y-70019882D01*
X101296744Y-69805323D01*
X101131821Y-69640400D01*
X101296744Y-69475477D01*
X101440107Y-69260918D01*
X101538858Y-69022513D01*
X101589200Y-68769424D01*
X101589200Y-68511376D01*
X101538858Y-68258287D01*
X101440107Y-68019882D01*
X101296744Y-67805323D01*
X101131821Y-67640400D01*
X101296744Y-67475477D01*
X101440107Y-67260918D01*
X101538858Y-67022513D01*
X101589200Y-66769424D01*
X101589200Y-66511376D01*
X101538858Y-66258287D01*
X101440107Y-66019882D01*
X101296744Y-65805323D01*
X101131821Y-65640400D01*
X101296744Y-65475477D01*
X101440107Y-65260918D01*
X101538858Y-65022513D01*
X101589200Y-64769424D01*
X101589200Y-64511376D01*
X101538858Y-64258287D01*
X101440107Y-64019882D01*
X101296744Y-63805323D01*
X101131821Y-63640400D01*
X101296744Y-63475477D01*
X101440107Y-63260918D01*
X101538858Y-63022513D01*
X101589200Y-62769424D01*
X101589200Y-62511376D01*
X101538858Y-62258287D01*
X101440107Y-62019882D01*
X101296744Y-61805323D01*
X101131821Y-61640400D01*
X101296744Y-61475477D01*
X101440107Y-61260918D01*
X101538858Y-61022513D01*
X101589200Y-60769424D01*
X101589200Y-60511376D01*
X101538858Y-60258287D01*
X101440107Y-60019882D01*
X101296744Y-59805323D01*
X101131821Y-59640400D01*
X101296744Y-59475477D01*
X101440107Y-59260918D01*
X101538858Y-59022513D01*
X101589200Y-58769424D01*
X101589200Y-58511376D01*
X101538858Y-58258287D01*
X101440107Y-58019882D01*
X101296744Y-57805323D01*
X101131821Y-57640400D01*
X101296744Y-57475477D01*
X101440107Y-57260918D01*
X101538858Y-57022513D01*
X101589200Y-56769424D01*
X101589200Y-56511376D01*
X101538858Y-56258287D01*
X101440107Y-56019882D01*
X101296744Y-55805323D01*
X101131821Y-55640400D01*
X101296744Y-55475477D01*
X101440107Y-55260918D01*
X101538858Y-55022513D01*
X101589200Y-54769424D01*
X101589200Y-54511376D01*
X101538858Y-54258287D01*
X101440107Y-54019882D01*
X101296744Y-53805323D01*
X101131821Y-53640400D01*
X101296744Y-53475477D01*
X101440107Y-53260918D01*
X101538858Y-53022513D01*
X101589200Y-52769424D01*
X101589200Y-52511376D01*
X101538858Y-52258287D01*
X101440107Y-52019882D01*
X101296744Y-51805323D01*
X101131821Y-51640400D01*
X101296744Y-51475477D01*
X101440107Y-51260918D01*
X101538858Y-51022513D01*
X101589200Y-50769424D01*
X101589200Y-50511376D01*
X101538858Y-50258287D01*
X101440107Y-50019882D01*
X101296744Y-49805323D01*
X101131821Y-49640400D01*
X101296744Y-49475477D01*
X101440107Y-49260918D01*
X101538858Y-49022513D01*
X101589200Y-48769424D01*
X101589200Y-48511376D01*
X101538858Y-48258287D01*
X101440107Y-48019882D01*
X101296744Y-47805323D01*
X101131821Y-47640400D01*
X101296744Y-47475477D01*
X101440107Y-47260918D01*
X101538858Y-47022513D01*
X101589200Y-46769424D01*
X101589200Y-46511376D01*
X101538858Y-46258287D01*
X101440107Y-46019882D01*
X101296744Y-45805323D01*
X101131821Y-45640400D01*
X101296744Y-45475477D01*
X101440107Y-45260918D01*
X101538858Y-45022513D01*
X101589200Y-44769424D01*
X101589200Y-44511376D01*
X101538858Y-44258287D01*
X101440107Y-44019882D01*
X101296744Y-43805323D01*
X101131821Y-43640400D01*
X101296744Y-43475477D01*
X101440107Y-43260918D01*
X101538858Y-43022513D01*
X101589200Y-42769424D01*
X101589200Y-42511376D01*
X101538858Y-42258287D01*
X101440107Y-42019882D01*
X101296744Y-41805323D01*
X101131821Y-41640400D01*
X101296744Y-41475477D01*
X101440107Y-41260918D01*
X101538858Y-41022513D01*
X101589200Y-40769424D01*
X101589200Y-40511376D01*
X101538858Y-40258287D01*
X101440107Y-40019882D01*
X101296744Y-39805323D01*
X101131821Y-39640400D01*
X101296744Y-39475477D01*
X101440107Y-39260918D01*
X101538858Y-39022513D01*
X101589200Y-38769424D01*
X101589200Y-38511376D01*
X101538858Y-38258287D01*
X101440107Y-38019882D01*
X101296744Y-37805323D01*
X101131821Y-37640400D01*
X101296744Y-37475477D01*
X101440107Y-37260918D01*
X101538858Y-37022513D01*
X101589200Y-36769424D01*
X101589200Y-36511376D01*
X101538858Y-36258287D01*
X101440107Y-36019882D01*
X101296744Y-35805323D01*
X101131821Y-35640400D01*
X101296744Y-35475477D01*
X101440107Y-35260918D01*
X101538858Y-35022513D01*
X101589200Y-34769424D01*
X101589200Y-34511376D01*
X101538858Y-34258287D01*
X101440107Y-34019882D01*
X101296744Y-33805323D01*
X101131821Y-33640400D01*
X101296744Y-33475477D01*
X101440107Y-33260918D01*
X101538858Y-33022513D01*
X101589200Y-32769424D01*
X101589200Y-32511376D01*
X101538858Y-32258287D01*
X101440107Y-32019882D01*
X101296744Y-31805323D01*
X101131821Y-31640400D01*
X101296744Y-31475477D01*
X101440107Y-31260918D01*
X101538858Y-31022513D01*
X101589200Y-30769424D01*
X101589200Y-30511376D01*
X101538858Y-30258287D01*
X101440107Y-30019882D01*
X101296744Y-29805323D01*
X101131821Y-29640400D01*
X101296744Y-29475477D01*
X101440107Y-29260918D01*
X101538858Y-29022513D01*
X101589200Y-28769424D01*
X101589200Y-28511376D01*
X101538858Y-28258287D01*
X101440107Y-28019882D01*
X101296744Y-27805323D01*
X101131821Y-27640400D01*
X101296744Y-27475477D01*
X101440107Y-27260918D01*
X101538858Y-27022513D01*
X101589200Y-26769424D01*
X101589200Y-26511376D01*
X101538858Y-26258287D01*
X101440107Y-26019882D01*
X101296744Y-25805323D01*
X101125140Y-25633719D01*
X101257503Y-25511627D01*
X101408673Y-25304029D01*
X101516438Y-25070928D01*
X101547110Y-24969800D01*
X101423424Y-24767400D01*
X100406200Y-24767400D01*
X100406200Y-24787400D01*
X100152200Y-24787400D01*
X100152200Y-24767400D01*
X99134976Y-24767400D01*
X99011290Y-24969800D01*
X99041962Y-25070928D01*
X99149727Y-25304029D01*
X99300897Y-25511627D01*
X99433260Y-25633719D01*
X99261656Y-25805323D01*
X99118293Y-26019882D01*
X99019542Y-26258287D01*
X98969200Y-26511376D01*
X98969200Y-26693165D01*
X97652720Y-28009645D01*
X97618797Y-28037485D01*
X97507703Y-28172854D01*
X97425153Y-28327294D01*
X97374320Y-28494871D01*
X97361456Y-28625478D01*
X97361456Y-28625484D01*
X97357156Y-28669144D01*
X97361456Y-28712804D01*
X97361457Y-64341390D01*
X77478483Y-64341390D01*
X77495208Y-64286254D01*
X77512272Y-64113000D01*
X77512272Y-63438000D01*
X77495208Y-63264746D01*
X77444672Y-63098150D01*
X77362605Y-62944614D01*
X77252162Y-62810038D01*
X77245606Y-62804658D01*
X77325385Y-62739185D01*
X77404737Y-62642494D01*
X77463702Y-62532180D01*
X77500012Y-62412482D01*
X77512272Y-62288000D01*
X77509200Y-61986250D01*
X77350450Y-61827500D01*
X76276200Y-61827500D01*
X76276200Y-61847500D01*
X76022200Y-61847500D01*
X76022200Y-61827500D01*
X76002200Y-61827500D01*
X76002200Y-61573500D01*
X76022200Y-61573500D01*
X76022200Y-59990900D01*
X76276200Y-59990900D01*
X76276200Y-61573500D01*
X77350450Y-61573500D01*
X77509200Y-61414750D01*
X77512272Y-61113000D01*
X77500012Y-60988518D01*
X77463702Y-60868820D01*
X77417402Y-60782200D01*
X77463702Y-60695580D01*
X77500012Y-60575882D01*
X77512272Y-60451400D01*
X77509200Y-60149650D01*
X77350450Y-59990900D01*
X76276200Y-59990900D01*
X76022200Y-59990900D01*
X76002200Y-59990900D01*
X76002200Y-59736900D01*
X76022200Y-59736900D01*
X76022200Y-59716900D01*
X76276200Y-59716900D01*
X76276200Y-59736900D01*
X77350450Y-59736900D01*
X77509200Y-59578150D01*
X77512272Y-59276400D01*
X77500012Y-59151918D01*
X77463702Y-59032220D01*
X77404737Y-58921906D01*
X77325385Y-58825215D01*
X77245606Y-58759742D01*
X77252162Y-58754362D01*
X77362605Y-58619786D01*
X77444672Y-58466250D01*
X77495208Y-58299654D01*
X77512272Y-58126400D01*
X77512272Y-57451400D01*
X77495208Y-57278146D01*
X77444672Y-57111550D01*
X77362605Y-56958014D01*
X77252162Y-56823438D01*
X77117586Y-56712995D01*
X77073001Y-56689164D01*
X77073001Y-54216145D01*
X77328665Y-54267000D01*
X77611335Y-54267000D01*
X77888574Y-54211853D01*
X78149727Y-54103680D01*
X78384759Y-53946637D01*
X78584637Y-53746759D01*
X78740000Y-53514241D01*
X78895363Y-53746759D01*
X79095241Y-53946637D01*
X79330273Y-54103680D01*
X79591426Y-54211853D01*
X79868665Y-54267000D01*
X80151335Y-54267000D01*
X80428574Y-54211853D01*
X80689727Y-54103680D01*
X80924759Y-53946637D01*
X81124637Y-53746759D01*
X81280000Y-53514241D01*
X81435363Y-53746759D01*
X81635241Y-53946637D01*
X81870273Y-54103680D01*
X82131426Y-54211853D01*
X82408665Y-54267000D01*
X82691335Y-54267000D01*
X82968574Y-54211853D01*
X83229727Y-54103680D01*
X83464759Y-53946637D01*
X83664637Y-53746759D01*
X83820000Y-53514241D01*
X83975363Y-53746759D01*
X84175241Y-53946637D01*
X84410273Y-54103680D01*
X84671426Y-54211853D01*
X84948665Y-54267000D01*
X85231335Y-54267000D01*
X85508574Y-54211853D01*
X85769727Y-54103680D01*
X86004759Y-53946637D01*
X86204637Y-53746759D01*
X86360000Y-53514241D01*
X86515363Y-53746759D01*
X86715241Y-53946637D01*
X86950273Y-54103680D01*
X87211426Y-54211853D01*
X87488665Y-54267000D01*
X87771335Y-54267000D01*
X88048574Y-54211853D01*
X88309727Y-54103680D01*
X88544759Y-53946637D01*
X88744637Y-53746759D01*
X88900000Y-53514241D01*
X89055363Y-53746759D01*
X89255241Y-53946637D01*
X89490273Y-54103680D01*
X89751426Y-54211853D01*
X90028665Y-54267000D01*
X90311335Y-54267000D01*
X90588574Y-54211853D01*
X90849727Y-54103680D01*
X91084759Y-53946637D01*
X91284637Y-53746759D01*
X91440000Y-53514241D01*
X91595363Y-53746759D01*
X91795241Y-53946637D01*
X92030273Y-54103680D01*
X92291426Y-54211853D01*
X92568665Y-54267000D01*
X92851335Y-54267000D01*
X93128574Y-54211853D01*
X93389727Y-54103680D01*
X93624759Y-53946637D01*
X93824637Y-53746759D01*
X93981680Y-53511727D01*
X94089853Y-53250574D01*
X94145000Y-52973335D01*
X94145000Y-52690665D01*
X94089853Y-52413426D01*
X93981680Y-52152273D01*
X93824637Y-51917241D01*
X93624759Y-51717363D01*
X93389727Y-51560320D01*
X93128574Y-51452147D01*
X92851335Y-51397000D01*
X92568665Y-51397000D01*
X92291426Y-51452147D01*
X92030273Y-51560320D01*
X91795241Y-51717363D01*
X91595363Y-51917241D01*
X91440000Y-52149759D01*
X91284637Y-51917241D01*
X91084759Y-51717363D01*
X90849727Y-51560320D01*
X90588574Y-51452147D01*
X90311335Y-51397000D01*
X90028665Y-51397000D01*
X89751426Y-51452147D01*
X89490273Y-51560320D01*
X89255241Y-51717363D01*
X89055363Y-51917241D01*
X88900000Y-52149759D01*
X88744637Y-51917241D01*
X88544759Y-51717363D01*
X88309727Y-51560320D01*
X88048574Y-51452147D01*
X87771335Y-51397000D01*
X87488665Y-51397000D01*
X87211426Y-51452147D01*
X86950273Y-51560320D01*
X86715241Y-51717363D01*
X86515363Y-51917241D01*
X86360000Y-52149759D01*
X86204637Y-51917241D01*
X86004759Y-51717363D01*
X85769727Y-51560320D01*
X85508574Y-51452147D01*
X85231335Y-51397000D01*
X84948665Y-51397000D01*
X84671426Y-51452147D01*
X84410273Y-51560320D01*
X84175241Y-51717363D01*
X83975363Y-51917241D01*
X83820000Y-52149759D01*
X83664637Y-51917241D01*
X83464759Y-51717363D01*
X83229727Y-51560320D01*
X82968574Y-51452147D01*
X82691335Y-51397000D01*
X82408665Y-51397000D01*
X82131426Y-51452147D01*
X81870273Y-51560320D01*
X81635241Y-51717363D01*
X81435363Y-51917241D01*
X81280000Y-52149759D01*
X81124637Y-51917241D01*
X80924759Y-51717363D01*
X80689727Y-51560320D01*
X80428574Y-51452147D01*
X80151335Y-51397000D01*
X79868665Y-51397000D01*
X79591426Y-51452147D01*
X79330273Y-51560320D01*
X79095241Y-51717363D01*
X78895363Y-51917241D01*
X78740000Y-52149759D01*
X78584637Y-51917241D01*
X78384759Y-51717363D01*
X78149727Y-51560320D01*
X77888574Y-51452147D01*
X77611335Y-51397000D01*
X77328665Y-51397000D01*
X77051426Y-51452147D01*
X76790273Y-51560320D01*
X76779006Y-51567849D01*
X76191420Y-50980263D01*
X76163580Y-50946340D01*
X76028212Y-50835246D01*
X75873772Y-50752696D01*
X75706195Y-50701863D01*
X75575588Y-50688999D01*
X75575581Y-50688999D01*
X75531921Y-50684699D01*
X75488261Y-50688999D01*
X71147660Y-50688999D01*
X71104000Y-50684699D01*
X71060340Y-50688999D01*
X71060334Y-50688999D01*
X70962925Y-50698593D01*
X70929725Y-50701863D01*
X70828059Y-50732703D01*
X70762150Y-50752696D01*
X70607710Y-50835246D01*
X70573523Y-50863303D01*
X70511583Y-50914136D01*
X70472342Y-50946340D01*
X70444507Y-50980258D01*
X70021720Y-51403044D01*
X69991335Y-51397000D01*
X69708665Y-51397000D01*
X69431426Y-51452147D01*
X69170273Y-51560320D01*
X68935241Y-51717363D01*
X68735363Y-51917241D01*
X68580000Y-52149759D01*
X68424637Y-51917241D01*
X68224759Y-51717363D01*
X67989727Y-51560320D01*
X67728574Y-51452147D01*
X67451335Y-51397000D01*
X67208235Y-51397000D01*
X67907743Y-50697493D01*
X67941659Y-50669659D01*
X68052753Y-50534291D01*
X68135303Y-50379851D01*
X68155296Y-50313942D01*
X68186136Y-50212276D01*
X68189406Y-50179076D01*
X68199000Y-50081667D01*
X68199000Y-50081661D01*
X68203300Y-50038001D01*
X68199000Y-49994341D01*
X68199000Y-38723849D01*
X68224759Y-38706637D01*
X68424637Y-38506759D01*
X68580000Y-38274241D01*
X68735363Y-38506759D01*
X68935241Y-38706637D01*
X69170273Y-38863680D01*
X69431426Y-38971853D01*
X69708665Y-39027000D01*
X69991335Y-39027000D01*
X70268574Y-38971853D01*
X70529727Y-38863680D01*
X70764759Y-38706637D01*
X70964637Y-38506759D01*
X71120000Y-38274241D01*
X71275363Y-38506759D01*
X71475241Y-38706637D01*
X71710273Y-38863680D01*
X71971426Y-38971853D01*
X72248665Y-39027000D01*
X72531335Y-39027000D01*
X72808574Y-38971853D01*
X73069727Y-38863680D01*
X73304759Y-38706637D01*
X73504637Y-38506759D01*
X73660000Y-38274241D01*
X73815363Y-38506759D01*
X74015241Y-38706637D01*
X74250273Y-38863680D01*
X74511426Y-38971853D01*
X74788665Y-39027000D01*
X75071335Y-39027000D01*
X75348574Y-38971853D01*
X75609727Y-38863680D01*
X75844759Y-38706637D01*
X76044637Y-38506759D01*
X76200000Y-38274241D01*
X76355363Y-38506759D01*
X76555241Y-38706637D01*
X76790273Y-38863680D01*
X77051426Y-38971853D01*
X77328665Y-39027000D01*
X77611335Y-39027000D01*
X77888574Y-38971853D01*
X78149727Y-38863680D01*
X78384759Y-38706637D01*
X78584637Y-38506759D01*
X78740000Y-38274241D01*
X78895363Y-38506759D01*
X79095241Y-38706637D01*
X79330273Y-38863680D01*
X79591426Y-38971853D01*
X79868665Y-39027000D01*
X80151335Y-39027000D01*
X80428574Y-38971853D01*
X80689727Y-38863680D01*
X80924759Y-38706637D01*
X81124637Y-38506759D01*
X81280000Y-38274241D01*
X81435363Y-38506759D01*
X81635241Y-38706637D01*
X81870273Y-38863680D01*
X82131426Y-38971853D01*
X82408665Y-39027000D01*
X82691335Y-39027000D01*
X82968574Y-38971853D01*
X83229727Y-38863680D01*
X83464759Y-38706637D01*
X83664637Y-38506759D01*
X83820000Y-38274241D01*
X83975363Y-38506759D01*
X84175241Y-38706637D01*
X84410273Y-38863680D01*
X84671426Y-38971853D01*
X84948665Y-39027000D01*
X85231335Y-39027000D01*
X85508574Y-38971853D01*
X85769727Y-38863680D01*
X86004759Y-38706637D01*
X86204637Y-38506759D01*
X86360000Y-38274241D01*
X86515363Y-38506759D01*
X86715241Y-38706637D01*
X86950273Y-38863680D01*
X87211426Y-38971853D01*
X87488665Y-39027000D01*
X87771335Y-39027000D01*
X88048574Y-38971853D01*
X88309727Y-38863680D01*
X88544759Y-38706637D01*
X88744637Y-38506759D01*
X88900000Y-38274241D01*
X89055363Y-38506759D01*
X89255241Y-38706637D01*
X89490273Y-38863680D01*
X89751426Y-38971853D01*
X90028665Y-39027000D01*
X90311335Y-39027000D01*
X90588574Y-38971853D01*
X90849727Y-38863680D01*
X91084759Y-38706637D01*
X91284637Y-38506759D01*
X91440000Y-38274241D01*
X91595363Y-38506759D01*
X91795241Y-38706637D01*
X92030273Y-38863680D01*
X92291426Y-38971853D01*
X92568665Y-39027000D01*
X92851335Y-39027000D01*
X93128574Y-38971853D01*
X93389727Y-38863680D01*
X93624759Y-38706637D01*
X93824637Y-38506759D01*
X93981680Y-38271727D01*
X94089853Y-38010574D01*
X94145000Y-37733335D01*
X94145000Y-37450665D01*
X94089853Y-37173426D01*
X93981680Y-36912273D01*
X93824637Y-36677241D01*
X93624759Y-36477363D01*
X93389727Y-36320320D01*
X93128574Y-36212147D01*
X92851335Y-36157000D01*
X92568665Y-36157000D01*
X92291426Y-36212147D01*
X92030273Y-36320320D01*
X91795241Y-36477363D01*
X91595363Y-36677241D01*
X91440000Y-36909759D01*
X91284637Y-36677241D01*
X91084759Y-36477363D01*
X90849727Y-36320320D01*
X90588574Y-36212147D01*
X90311335Y-36157000D01*
X90028665Y-36157000D01*
X89751426Y-36212147D01*
X89490273Y-36320320D01*
X89255241Y-36477363D01*
X89055363Y-36677241D01*
X88900000Y-36909759D01*
X88744637Y-36677241D01*
X88544759Y-36477363D01*
X88309727Y-36320320D01*
X88048574Y-36212147D01*
X87771335Y-36157000D01*
X87488665Y-36157000D01*
X87211426Y-36212147D01*
X86950273Y-36320320D01*
X86715241Y-36477363D01*
X86515363Y-36677241D01*
X86360000Y-36909759D01*
X86204637Y-36677241D01*
X86004759Y-36477363D01*
X85769727Y-36320320D01*
X85508574Y-36212147D01*
X85231335Y-36157000D01*
X84948665Y-36157000D01*
X84671426Y-36212147D01*
X84410273Y-36320320D01*
X84175241Y-36477363D01*
X83975363Y-36677241D01*
X83820000Y-36909759D01*
X83664637Y-36677241D01*
X83464759Y-36477363D01*
X83229727Y-36320320D01*
X82968574Y-36212147D01*
X82691335Y-36157000D01*
X82408665Y-36157000D01*
X82131426Y-36212147D01*
X81870273Y-36320320D01*
X81635241Y-36477363D01*
X81435363Y-36677241D01*
X81280000Y-36909759D01*
X81124637Y-36677241D01*
X80924759Y-36477363D01*
X80689727Y-36320320D01*
X80428574Y-36212147D01*
X80151335Y-36157000D01*
X79868665Y-36157000D01*
X79591426Y-36212147D01*
X79330273Y-36320320D01*
X79095241Y-36477363D01*
X78895363Y-36677241D01*
X78740000Y-36909759D01*
X78584637Y-36677241D01*
X78384759Y-36477363D01*
X78149727Y-36320320D01*
X77888574Y-36212147D01*
X77611335Y-36157000D01*
X77328665Y-36157000D01*
X77051426Y-36212147D01*
X76790273Y-36320320D01*
X76555241Y-36477363D01*
X76355363Y-36677241D01*
X76200000Y-36909759D01*
X76044637Y-36677241D01*
X75844759Y-36477363D01*
X75609727Y-36320320D01*
X75348574Y-36212147D01*
X75071335Y-36157000D01*
X74788665Y-36157000D01*
X74511426Y-36212147D01*
X74250273Y-36320320D01*
X74015241Y-36477363D01*
X73815363Y-36677241D01*
X73660000Y-36909759D01*
X73504637Y-36677241D01*
X73304759Y-36477363D01*
X73069727Y-36320320D01*
X72808574Y-36212147D01*
X72531335Y-36157000D01*
X72248665Y-36157000D01*
X71971426Y-36212147D01*
X71710273Y-36320320D01*
X71475241Y-36477363D01*
X71275363Y-36677241D01*
X71120000Y-36909759D01*
X70964637Y-36677241D01*
X70764759Y-36477363D01*
X70529727Y-36320320D01*
X70268574Y-36212147D01*
X69991335Y-36157000D01*
X69708665Y-36157000D01*
X69431426Y-36212147D01*
X69170273Y-36320320D01*
X68935241Y-36477363D01*
X68735363Y-36677241D01*
X68580000Y-36909759D01*
X68424637Y-36677241D01*
X68224759Y-36477363D01*
X67989727Y-36320320D01*
X67728574Y-36212147D01*
X67451335Y-36157000D01*
X67168665Y-36157000D01*
X66891426Y-36212147D01*
X66630273Y-36320320D01*
X66395241Y-36477363D01*
X66195363Y-36677241D01*
X66040000Y-36909759D01*
X65884637Y-36677241D01*
X65684759Y-36477363D01*
X65449727Y-36320320D01*
X65188574Y-36212147D01*
X64911335Y-36157000D01*
X64628665Y-36157000D01*
X64351426Y-36212147D01*
X64090273Y-36320320D01*
X63855241Y-36477363D01*
X63655363Y-36677241D01*
X63500000Y-36909759D01*
X63344637Y-36677241D01*
X63144759Y-36477363D01*
X62909727Y-36320320D01*
X62648574Y-36212147D01*
X62371335Y-36157000D01*
X62088665Y-36157000D01*
X61811426Y-36212147D01*
X61550273Y-36320320D01*
X61315241Y-36477363D01*
X61115363Y-36677241D01*
X60960000Y-36909759D01*
X60804637Y-36677241D01*
X60604759Y-36477363D01*
X60369727Y-36320320D01*
X60108574Y-36212147D01*
X59831335Y-36157000D01*
X59548665Y-36157000D01*
X59271426Y-36212147D01*
X59010273Y-36320320D01*
X58775241Y-36477363D01*
X58575363Y-36677241D01*
X58420000Y-36909759D01*
X58264637Y-36677241D01*
X58064759Y-36477363D01*
X57829727Y-36320320D01*
X57568574Y-36212147D01*
X57291335Y-36157000D01*
X57008665Y-36157000D01*
X56731426Y-36212147D01*
X56470273Y-36320320D01*
X56235241Y-36477363D01*
X56035363Y-36677241D01*
X55880000Y-36909759D01*
X55724637Y-36677241D01*
X55524759Y-36477363D01*
X55289727Y-36320320D01*
X55028574Y-36212147D01*
X54751335Y-36157000D01*
X54468665Y-36157000D01*
X54191426Y-36212147D01*
X53930273Y-36320320D01*
X53695241Y-36477363D01*
X53495363Y-36677241D01*
X53340000Y-36909759D01*
X53184637Y-36677241D01*
X52984759Y-36477363D01*
X52749727Y-36320320D01*
X52488574Y-36212147D01*
X52211335Y-36157000D01*
X51928665Y-36157000D01*
X51651426Y-36212147D01*
X51390273Y-36320320D01*
X51155241Y-36477363D01*
X50955363Y-36677241D01*
X50800000Y-36909759D01*
X50644637Y-36677241D01*
X50444759Y-36477363D01*
X50209727Y-36320320D01*
X49948574Y-36212147D01*
X49671335Y-36157000D01*
X49388665Y-36157000D01*
X49111426Y-36212147D01*
X48850273Y-36320320D01*
X48615241Y-36477363D01*
X48415363Y-36677241D01*
X48260000Y-36909759D01*
X48104637Y-36677241D01*
X47904759Y-36477363D01*
X47669727Y-36320320D01*
X47408574Y-36212147D01*
X47131335Y-36157000D01*
X46848665Y-36157000D01*
X46571426Y-36212147D01*
X46310273Y-36320320D01*
X46075241Y-36477363D01*
X45875363Y-36677241D01*
X45720000Y-36909759D01*
X45564637Y-36677241D01*
X45364759Y-36477363D01*
X45129727Y-36320320D01*
X44868574Y-36212147D01*
X44591335Y-36157000D01*
X44308665Y-36157000D01*
X44031426Y-36212147D01*
X43770273Y-36320320D01*
X43535241Y-36477363D01*
X43335363Y-36677241D01*
X43180000Y-36909759D01*
X43024637Y-36677241D01*
X42824759Y-36477363D01*
X42589727Y-36320320D01*
X42328574Y-36212147D01*
X42051335Y-36157000D01*
X41768665Y-36157000D01*
X41491426Y-36212147D01*
X41230273Y-36320320D01*
X40995241Y-36477363D01*
X40795363Y-36677241D01*
X40640000Y-36909759D01*
X40484637Y-36677241D01*
X40284759Y-36477363D01*
X40049727Y-36320320D01*
X39788574Y-36212147D01*
X39511335Y-36157000D01*
X39228665Y-36157000D01*
X38951426Y-36212147D01*
X38690273Y-36320320D01*
X38455241Y-36477363D01*
X38255363Y-36677241D01*
X38099085Y-36911128D01*
X38066671Y-36850486D01*
X37822702Y-36778903D01*
X37009605Y-37592000D01*
X37822702Y-38405097D01*
X38066671Y-38333514D01*
X38097194Y-38269008D01*
X38098320Y-38271727D01*
X38255363Y-38506759D01*
X38455241Y-38706637D01*
X38690273Y-38863680D01*
X38951426Y-38971853D01*
X39228665Y-39027000D01*
X39511335Y-39027000D01*
X39788574Y-38971853D01*
X40049727Y-38863680D01*
X40284759Y-38706637D01*
X40484637Y-38506759D01*
X40640000Y-38274241D01*
X40795363Y-38506759D01*
X40995241Y-38706637D01*
X41230273Y-38863680D01*
X41491426Y-38971853D01*
X41768665Y-39027000D01*
X42051335Y-39027000D01*
X42328574Y-38971853D01*
X42589727Y-38863680D01*
X42824759Y-38706637D01*
X43024637Y-38506759D01*
X43180000Y-38274241D01*
X43335363Y-38506759D01*
X43535241Y-38706637D01*
X43770273Y-38863680D01*
X44031426Y-38971853D01*
X44308665Y-39027000D01*
X44591335Y-39027000D01*
X44868574Y-38971853D01*
X45129727Y-38863680D01*
X45364759Y-38706637D01*
X45564637Y-38506759D01*
X45720000Y-38274241D01*
X45875363Y-38506759D01*
X46075241Y-38706637D01*
X46310273Y-38863680D01*
X46571426Y-38971853D01*
X46848665Y-39027000D01*
X47131335Y-39027000D01*
X47408574Y-38971853D01*
X47669727Y-38863680D01*
X47904759Y-38706637D01*
X48104637Y-38506759D01*
X48260000Y-38274241D01*
X48415363Y-38506759D01*
X48615241Y-38706637D01*
X48850273Y-38863680D01*
X49111426Y-38971853D01*
X49388665Y-39027000D01*
X49671335Y-39027000D01*
X49948574Y-38971853D01*
X50209727Y-38863680D01*
X50444759Y-38706637D01*
X50644637Y-38506759D01*
X50800000Y-38274241D01*
X50955363Y-38506759D01*
X51155241Y-38706637D01*
X51390273Y-38863680D01*
X51651426Y-38971853D01*
X51928665Y-39027000D01*
X52211335Y-39027000D01*
X52488574Y-38971853D01*
X52749727Y-38863680D01*
X52984759Y-38706637D01*
X53184637Y-38506759D01*
X53340000Y-38274241D01*
X53495363Y-38506759D01*
X53695241Y-38706637D01*
X53930273Y-38863680D01*
X54191426Y-38971853D01*
X54468665Y-39027000D01*
X54751335Y-39027000D01*
X55028574Y-38971853D01*
X55289727Y-38863680D01*
X55524759Y-38706637D01*
X55724637Y-38506759D01*
X55880000Y-38274241D01*
X56035363Y-38506759D01*
X56235241Y-38706637D01*
X56470273Y-38863680D01*
X56731426Y-38971853D01*
X57008665Y-39027000D01*
X57291335Y-39027000D01*
X57568574Y-38971853D01*
X57829727Y-38863680D01*
X58064759Y-38706637D01*
X58264637Y-38506759D01*
X58420000Y-38274241D01*
X58575363Y-38506759D01*
X58775241Y-38706637D01*
X59010273Y-38863680D01*
X59271426Y-38971853D01*
X59548665Y-39027000D01*
X59831335Y-39027000D01*
X60108574Y-38971853D01*
X60369727Y-38863680D01*
X60604759Y-38706637D01*
X60804637Y-38506759D01*
X60960000Y-38274241D01*
X61115363Y-38506759D01*
X61315241Y-38706637D01*
X61550273Y-38863680D01*
X61811426Y-38971853D01*
X62088665Y-39027000D01*
X62371335Y-39027000D01*
X62648574Y-38971853D01*
X62909727Y-38863680D01*
X63144759Y-38706637D01*
X63344637Y-38506759D01*
X63500000Y-38274241D01*
X63655363Y-38506759D01*
X63855241Y-38706637D01*
X64090273Y-38863680D01*
X64351426Y-38971853D01*
X64628665Y-39027000D01*
X64911335Y-39027000D01*
X65188574Y-38971853D01*
X65449727Y-38863680D01*
X65684759Y-38706637D01*
X65884637Y-38506759D01*
X66040000Y-38274241D01*
X66195363Y-38506759D01*
X66395241Y-38706637D01*
X66421001Y-38723849D01*
X66421000Y-49669764D01*
X65458258Y-50632507D01*
X65424341Y-50660342D01*
X65396506Y-50694259D01*
X65396504Y-50694261D01*
X65313247Y-50795710D01*
X65230697Y-50950149D01*
X65179863Y-51117727D01*
X65162699Y-51292001D01*
X65167000Y-51335671D01*
X65167000Y-51447856D01*
X64911335Y-51397000D01*
X64628665Y-51397000D01*
X64351426Y-51452147D01*
X64090273Y-51560320D01*
X63855241Y-51717363D01*
X63655363Y-51917241D01*
X63500000Y-52149759D01*
X63344637Y-51917241D01*
X63144759Y-51717363D01*
X62909727Y-51560320D01*
X62648574Y-51452147D01*
X62371335Y-51397000D01*
X62088665Y-51397000D01*
X61811426Y-51452147D01*
X61550273Y-51560320D01*
X61315241Y-51717363D01*
X61115363Y-51917241D01*
X60960000Y-52149759D01*
X60804637Y-51917241D01*
X60604759Y-51717363D01*
X60369727Y-51560320D01*
X60108574Y-51452147D01*
X59831335Y-51397000D01*
X59548665Y-51397000D01*
X59271426Y-51452147D01*
X59010273Y-51560320D01*
X58775241Y-51717363D01*
X58575363Y-51917241D01*
X58420000Y-52149759D01*
X58264637Y-51917241D01*
X58064759Y-51717363D01*
X57829727Y-51560320D01*
X57568574Y-51452147D01*
X57291335Y-51397000D01*
X57008665Y-51397000D01*
X56731426Y-51452147D01*
X56470273Y-51560320D01*
X56235241Y-51717363D01*
X56035363Y-51917241D01*
X55880000Y-52149759D01*
X55724637Y-51917241D01*
X55524759Y-51717363D01*
X55289727Y-51560320D01*
X55028574Y-51452147D01*
X54751335Y-51397000D01*
X54468665Y-51397000D01*
X54191426Y-51452147D01*
X53930273Y-51560320D01*
X53695241Y-51717363D01*
X53495363Y-51917241D01*
X53340000Y-52149759D01*
X53184637Y-51917241D01*
X52984759Y-51717363D01*
X52749727Y-51560320D01*
X52488574Y-51452147D01*
X52211335Y-51397000D01*
X51928665Y-51397000D01*
X51651426Y-51452147D01*
X51390273Y-51560320D01*
X51155241Y-51717363D01*
X50955363Y-51917241D01*
X50800000Y-52149759D01*
X50644637Y-51917241D01*
X50444759Y-51717363D01*
X50209727Y-51560320D01*
X49948574Y-51452147D01*
X49671335Y-51397000D01*
X49388665Y-51397000D01*
X49111426Y-51452147D01*
X48850273Y-51560320D01*
X48615241Y-51717363D01*
X48415363Y-51917241D01*
X48260000Y-52149759D01*
X48104637Y-51917241D01*
X47904759Y-51717363D01*
X47669727Y-51560320D01*
X47408574Y-51452147D01*
X47131335Y-51397000D01*
X46848665Y-51397000D01*
X46571426Y-51452147D01*
X46310273Y-51560320D01*
X46075241Y-51717363D01*
X45875363Y-51917241D01*
X45720000Y-52149759D01*
X45564637Y-51917241D01*
X45364759Y-51717363D01*
X45129727Y-51560320D01*
X44868574Y-51452147D01*
X44591335Y-51397000D01*
X44308665Y-51397000D01*
X44031426Y-51452147D01*
X43770273Y-51560320D01*
X43535241Y-51717363D01*
X43335363Y-51917241D01*
X43180000Y-52149759D01*
X43024637Y-51917241D01*
X42824759Y-51717363D01*
X42589727Y-51560320D01*
X42328574Y-51452147D01*
X42051335Y-51397000D01*
X41768665Y-51397000D01*
X41491426Y-51452147D01*
X41230273Y-51560320D01*
X40995241Y-51717363D01*
X40795363Y-51917241D01*
X40640000Y-52149759D01*
X40484637Y-51917241D01*
X40284759Y-51717363D01*
X40049727Y-51560320D01*
X39788574Y-51452147D01*
X39511335Y-51397000D01*
X39228665Y-51397000D01*
X38951426Y-51452147D01*
X38690273Y-51560320D01*
X38455241Y-51717363D01*
X38255363Y-51917241D01*
X38100000Y-52149759D01*
X37944637Y-51917241D01*
X37744759Y-51717363D01*
X37509727Y-51560320D01*
X37248574Y-51452147D01*
X36971335Y-51397000D01*
X36688665Y-51397000D01*
X36411426Y-51452147D01*
X36150273Y-51560320D01*
X35915241Y-51717363D01*
X35716643Y-51915961D01*
X35715812Y-51907518D01*
X35679502Y-51787820D01*
X35620537Y-51677506D01*
X35541185Y-51580815D01*
X35444494Y-51501463D01*
X35334180Y-51442498D01*
X35214482Y-51406188D01*
X35090000Y-51393928D01*
X33490000Y-51393928D01*
X33365518Y-51406188D01*
X33245820Y-51442498D01*
X33135506Y-51501463D01*
X33038815Y-51580815D01*
X32959463Y-51677506D01*
X32900498Y-51787820D01*
X32864188Y-51907518D01*
X32851928Y-52032000D01*
X19431000Y-52032000D01*
X19431000Y-45495200D01*
X26221215Y-45495200D01*
X26249887Y-45786311D01*
X26334801Y-46066234D01*
X26472694Y-46324214D01*
X26658266Y-46550334D01*
X26884386Y-46735906D01*
X26901774Y-46745200D01*
X26884386Y-46754494D01*
X26658266Y-46940066D01*
X26472694Y-47166186D01*
X26334801Y-47424166D01*
X26249887Y-47704089D01*
X26221215Y-47995200D01*
X26249887Y-48286311D01*
X26334801Y-48566234D01*
X26472694Y-48824214D01*
X26658266Y-49050334D01*
X26721737Y-49102423D01*
X26620014Y-49156795D01*
X26485438Y-49267238D01*
X26374995Y-49401814D01*
X26292928Y-49555350D01*
X26242392Y-49721946D01*
X26225328Y-49895200D01*
X26225328Y-51095200D01*
X26242392Y-51268454D01*
X26292928Y-51435050D01*
X26374995Y-51588586D01*
X26485438Y-51723162D01*
X26620014Y-51833605D01*
X26773550Y-51915672D01*
X26940146Y-51966208D01*
X27113400Y-51983272D01*
X28563400Y-51983272D01*
X28736654Y-51966208D01*
X28903250Y-51915672D01*
X29056786Y-51833605D01*
X29191362Y-51723162D01*
X29301805Y-51588586D01*
X29383872Y-51435050D01*
X29434408Y-51268454D01*
X29451472Y-51095200D01*
X29451472Y-49895200D01*
X29434408Y-49721946D01*
X29383872Y-49555350D01*
X29301805Y-49401814D01*
X29191362Y-49267238D01*
X29056786Y-49156795D01*
X28955063Y-49102423D01*
X29018534Y-49050334D01*
X29204106Y-48824214D01*
X29226424Y-48782460D01*
X29309691Y-48737953D01*
X29445059Y-48626859D01*
X29472899Y-48592937D01*
X30052636Y-48013200D01*
X32866114Y-48013200D01*
X32909774Y-48017500D01*
X32953434Y-48013200D01*
X32953441Y-48013200D01*
X33084048Y-48000336D01*
X33251625Y-47949503D01*
X33406065Y-47866953D01*
X33541433Y-47755859D01*
X33569272Y-47721937D01*
X33920210Y-47371000D01*
X34091735Y-47371000D01*
X34200860Y-47480125D01*
X34411324Y-47620753D01*
X34645179Y-47717619D01*
X34893439Y-47767000D01*
X35146561Y-47767000D01*
X35394821Y-47717619D01*
X35628676Y-47620753D01*
X35839140Y-47480125D01*
X36018125Y-47301140D01*
X36158753Y-47090676D01*
X36255619Y-46856821D01*
X36305000Y-46608561D01*
X36305000Y-46355439D01*
X36255619Y-46107179D01*
X36158753Y-45873324D01*
X36018125Y-45662860D01*
X35839140Y-45483875D01*
X35628676Y-45343247D01*
X35394821Y-45246381D01*
X35221973Y-45212000D01*
X35394821Y-45177619D01*
X35628676Y-45080753D01*
X35839140Y-44940125D01*
X36018125Y-44761140D01*
X36158753Y-44550676D01*
X36255619Y-44316821D01*
X36305000Y-44068561D01*
X36305000Y-43815439D01*
X36255619Y-43567179D01*
X36158753Y-43333324D01*
X36018125Y-43122860D01*
X35839140Y-42943875D01*
X35628676Y-42803247D01*
X35394821Y-42706381D01*
X35146561Y-42657000D01*
X34893439Y-42657000D01*
X34645179Y-42706381D01*
X34411324Y-42803247D01*
X34200860Y-42943875D01*
X34021875Y-43122860D01*
X33881247Y-43333324D01*
X33784381Y-43567179D01*
X33735000Y-43815439D01*
X33735000Y-43969764D01*
X32418246Y-45286519D01*
X32227565Y-45477200D01*
X30052636Y-45477200D01*
X29472899Y-44897463D01*
X29445059Y-44863541D01*
X29309691Y-44752447D01*
X29226424Y-44707940D01*
X29204106Y-44666186D01*
X29018534Y-44440066D01*
X28792414Y-44254494D01*
X28766678Y-44240738D01*
X28972829Y-44084249D01*
X29165896Y-43866393D01*
X29312752Y-43615058D01*
X29404876Y-43352090D01*
X29283555Y-43122200D01*
X27965400Y-43122200D01*
X27965400Y-43142200D01*
X27711400Y-43142200D01*
X27711400Y-43122200D01*
X26393245Y-43122200D01*
X26271924Y-43352090D01*
X26364048Y-43615058D01*
X26510904Y-43866393D01*
X26703971Y-44084249D01*
X26910122Y-44240738D01*
X26884386Y-44254494D01*
X26658266Y-44440066D01*
X26472694Y-44666186D01*
X26334801Y-44924166D01*
X26249887Y-45204089D01*
X26221215Y-45495200D01*
X19431000Y-45495200D01*
X19431000Y-42638310D01*
X26271924Y-42638310D01*
X26393245Y-42868200D01*
X27711400Y-42868200D01*
X27711400Y-41669035D01*
X27965400Y-41669035D01*
X27965400Y-42868200D01*
X29283555Y-42868200D01*
X29404876Y-42638310D01*
X29312752Y-42375342D01*
X29165896Y-42124007D01*
X28972829Y-41906151D01*
X28740970Y-41730147D01*
X28479230Y-41602758D01*
X28197667Y-41528880D01*
X27965400Y-41669035D01*
X27711400Y-41669035D01*
X27479133Y-41528880D01*
X27197570Y-41602758D01*
X26935830Y-41730147D01*
X26703971Y-41906151D01*
X26510904Y-42124007D01*
X26364048Y-42375342D01*
X26271924Y-42638310D01*
X19431000Y-42638310D01*
X19431000Y-39990665D01*
X35395000Y-39990665D01*
X35395000Y-40273335D01*
X35450147Y-40550574D01*
X35558320Y-40811727D01*
X35715363Y-41046759D01*
X35915241Y-41246637D01*
X36150273Y-41403680D01*
X36411426Y-41511853D01*
X36688665Y-41567000D01*
X36971335Y-41567000D01*
X37248574Y-41511853D01*
X37509727Y-41403680D01*
X37744759Y-41246637D01*
X37944637Y-41046759D01*
X38101680Y-40811727D01*
X38209853Y-40550574D01*
X38265000Y-40273335D01*
X38265000Y-39990665D01*
X38209853Y-39713426D01*
X38101680Y-39452273D01*
X37944637Y-39217241D01*
X37744759Y-39017363D01*
X37510872Y-38861085D01*
X37571514Y-38828671D01*
X37643097Y-38584702D01*
X36830000Y-37771605D01*
X36016903Y-38584702D01*
X36088486Y-38828671D01*
X36152992Y-38859194D01*
X36150273Y-38860320D01*
X35915241Y-39017363D01*
X35715363Y-39217241D01*
X35558320Y-39452273D01*
X35450147Y-39713426D01*
X35395000Y-39990665D01*
X19431000Y-39990665D01*
X19431000Y-37450665D01*
X32855000Y-37450665D01*
X32855000Y-37733335D01*
X32910147Y-38010574D01*
X33018320Y-38271727D01*
X33175363Y-38506759D01*
X33375241Y-38706637D01*
X33610273Y-38863680D01*
X33871426Y-38971853D01*
X34148665Y-39027000D01*
X34431335Y-39027000D01*
X34708574Y-38971853D01*
X34969727Y-38863680D01*
X35204759Y-38706637D01*
X35404637Y-38506759D01*
X35560915Y-38272872D01*
X35593329Y-38333514D01*
X35837298Y-38405097D01*
X36650395Y-37592000D01*
X35837298Y-36778903D01*
X35593329Y-36850486D01*
X35562806Y-36914992D01*
X35561680Y-36912273D01*
X35404637Y-36677241D01*
X35326694Y-36599298D01*
X36016903Y-36599298D01*
X36830000Y-37412395D01*
X37643097Y-36599298D01*
X37571514Y-36355329D01*
X37316004Y-36234429D01*
X37041816Y-36165700D01*
X36759488Y-36151783D01*
X36479870Y-36193213D01*
X36213708Y-36288397D01*
X36088486Y-36355329D01*
X36016903Y-36599298D01*
X35326694Y-36599298D01*
X35204759Y-36477363D01*
X34969727Y-36320320D01*
X34708574Y-36212147D01*
X34431335Y-36157000D01*
X34148665Y-36157000D01*
X33871426Y-36212147D01*
X33610273Y-36320320D01*
X33375241Y-36477363D01*
X33175363Y-36677241D01*
X33018320Y-36912273D01*
X32910147Y-37173426D01*
X32855000Y-37450665D01*
X19431000Y-37450665D01*
X19431000Y-30263000D01*
X75981928Y-30263000D01*
X75981928Y-31713000D01*
X75998992Y-31886254D01*
X76049528Y-32052850D01*
X76131595Y-32206386D01*
X76242038Y-32340962D01*
X76376614Y-32451405D01*
X76530150Y-32533472D01*
X76696746Y-32584008D01*
X76870000Y-32601072D01*
X78070000Y-32601072D01*
X78243254Y-32584008D01*
X78409850Y-32533472D01*
X78563386Y-32451405D01*
X78697962Y-32340962D01*
X78808405Y-32206386D01*
X78864714Y-32101039D01*
X78880951Y-32122429D01*
X79098807Y-32315496D01*
X79350142Y-32462352D01*
X79613110Y-32554476D01*
X79843000Y-32433155D01*
X79843000Y-31115000D01*
X79823000Y-31115000D01*
X79823000Y-30861000D01*
X79843000Y-30861000D01*
X79843000Y-29542845D01*
X80097000Y-29542845D01*
X80097000Y-30861000D01*
X80117000Y-30861000D01*
X80117000Y-31115000D01*
X80097000Y-31115000D01*
X80097000Y-32433155D01*
X80326890Y-32554476D01*
X80589858Y-32462352D01*
X80841193Y-32315496D01*
X81059049Y-32122429D01*
X81215538Y-31916278D01*
X81229294Y-31942014D01*
X81414866Y-32168134D01*
X81640987Y-32353706D01*
X81898967Y-32491599D01*
X82178890Y-32576513D01*
X82470000Y-32605185D01*
X82761111Y-32576513D01*
X83041034Y-32491599D01*
X83299014Y-32353706D01*
X83525134Y-32168134D01*
X83710706Y-31942014D01*
X83720000Y-31924626D01*
X83729294Y-31942014D01*
X83914866Y-32168134D01*
X84140987Y-32353706D01*
X84398967Y-32491599D01*
X84678890Y-32576513D01*
X84970000Y-32605185D01*
X85261111Y-32576513D01*
X85541034Y-32491599D01*
X85799014Y-32353706D01*
X86025134Y-32168134D01*
X86210706Y-31942014D01*
X86220000Y-31924626D01*
X86229294Y-31942014D01*
X86414866Y-32168134D01*
X86640987Y-32353706D01*
X86898967Y-32491599D01*
X87178890Y-32576513D01*
X87470000Y-32605185D01*
X87761111Y-32576513D01*
X88041034Y-32491599D01*
X88299014Y-32353706D01*
X88525134Y-32168134D01*
X88710706Y-31942014D01*
X88720000Y-31924626D01*
X88729294Y-31942014D01*
X88914866Y-32168134D01*
X89140987Y-32353706D01*
X89398967Y-32491599D01*
X89678890Y-32576513D01*
X89970000Y-32605185D01*
X90261111Y-32576513D01*
X90541034Y-32491599D01*
X90799014Y-32353706D01*
X91025134Y-32168134D01*
X91210706Y-31942014D01*
X91220000Y-31924626D01*
X91229294Y-31942014D01*
X91414866Y-32168134D01*
X91640987Y-32353706D01*
X91898967Y-32491599D01*
X92178890Y-32576513D01*
X92470000Y-32605185D01*
X92761111Y-32576513D01*
X93041034Y-32491599D01*
X93299014Y-32353706D01*
X93525134Y-32168134D01*
X93710706Y-31942014D01*
X93848599Y-31684033D01*
X93933513Y-31404110D01*
X93955000Y-31185949D01*
X93955000Y-30790050D01*
X93933513Y-30571889D01*
X93848599Y-30291966D01*
X93710706Y-30033986D01*
X93525134Y-29807866D01*
X93299013Y-29622294D01*
X93041033Y-29484401D01*
X92761110Y-29399487D01*
X92470000Y-29370815D01*
X92178889Y-29399487D01*
X91898966Y-29484401D01*
X91640986Y-29622294D01*
X91414866Y-29807866D01*
X91229294Y-30033987D01*
X91220000Y-30051374D01*
X91210706Y-30033986D01*
X91025134Y-29807866D01*
X90799013Y-29622294D01*
X90541033Y-29484401D01*
X90261110Y-29399487D01*
X89970000Y-29370815D01*
X89678889Y-29399487D01*
X89398966Y-29484401D01*
X89140986Y-29622294D01*
X88914866Y-29807866D01*
X88729294Y-30033987D01*
X88720000Y-30051374D01*
X88710706Y-30033986D01*
X88525134Y-29807866D01*
X88299013Y-29622294D01*
X88041033Y-29484401D01*
X87761110Y-29399487D01*
X87470000Y-29370815D01*
X87178889Y-29399487D01*
X86898966Y-29484401D01*
X86640986Y-29622294D01*
X86414866Y-29807866D01*
X86229294Y-30033987D01*
X86220000Y-30051374D01*
X86210706Y-30033986D01*
X86025134Y-29807866D01*
X85799013Y-29622294D01*
X85541033Y-29484401D01*
X85261110Y-29399487D01*
X84970000Y-29370815D01*
X84678889Y-29399487D01*
X84398966Y-29484401D01*
X84140986Y-29622294D01*
X83914866Y-29807866D01*
X83729294Y-30033987D01*
X83720000Y-30051374D01*
X83710706Y-30033986D01*
X83525134Y-29807866D01*
X83299013Y-29622294D01*
X83041033Y-29484401D01*
X82761110Y-29399487D01*
X82470000Y-29370815D01*
X82178889Y-29399487D01*
X81898966Y-29484401D01*
X81640986Y-29622294D01*
X81414866Y-29807866D01*
X81229294Y-30033987D01*
X81215538Y-30059722D01*
X81059049Y-29853571D01*
X80841193Y-29660504D01*
X80589858Y-29513648D01*
X80326890Y-29421524D01*
X80097000Y-29542845D01*
X79843000Y-29542845D01*
X79613110Y-29421524D01*
X79350142Y-29513648D01*
X79098807Y-29660504D01*
X78880951Y-29853571D01*
X78864714Y-29874961D01*
X78808405Y-29769614D01*
X78697962Y-29635038D01*
X78563386Y-29524595D01*
X78409850Y-29442528D01*
X78243254Y-29391992D01*
X78070000Y-29374928D01*
X76870000Y-29374928D01*
X76696746Y-29391992D01*
X76530150Y-29442528D01*
X76376614Y-29524595D01*
X76242038Y-29635038D01*
X76131595Y-29769614D01*
X76049528Y-29923150D01*
X75998992Y-30089746D01*
X75981928Y-30263000D01*
X19431000Y-30263000D01*
X19431000Y-24311000D01*
X99011290Y-24311000D01*
X99134976Y-24513400D01*
X100152200Y-24513400D01*
X100152200Y-23495315D01*
X100406200Y-23495315D01*
X100406200Y-24513400D01*
X101423424Y-24513400D01*
X101547110Y-24311000D01*
X101516438Y-24209872D01*
X101408673Y-23976771D01*
X101257503Y-23769173D01*
X101068737Y-23595056D01*
X100849630Y-23461111D01*
X100608601Y-23372485D01*
X100406200Y-23495315D01*
X100152200Y-23495315D01*
X99949799Y-23372485D01*
X99708770Y-23461111D01*
X99489663Y-23595056D01*
X99300897Y-23769173D01*
X99149727Y-23976771D01*
X99041962Y-24209872D01*
X99011290Y-24311000D01*
X19431000Y-24311000D01*
X19431000Y-17700639D01*
X19440516Y-17702803D01*
X19456471Y-17703800D01*
X110617000Y-17653071D01*
X110617000Y-96901000D01*
%TA.AperFunction,Conductor*%
D21*
G36*
X110617000Y-96901000D02*
G01*
X19431000Y-96901000D01*
X19431000Y-58647200D01*
X65660728Y-58647200D01*
X65672988Y-58771682D01*
X65709298Y-58891380D01*
X65768263Y-59001694D01*
X65847615Y-59098385D01*
X65944306Y-59177737D01*
X66054620Y-59236702D01*
X66174318Y-59273012D01*
X66298800Y-59285272D01*
X66313050Y-59282200D01*
X66471800Y-59123450D01*
X66471800Y-57799200D01*
X65822550Y-57799200D01*
X65663800Y-57957950D01*
X65660728Y-58647200D01*
X19431000Y-58647200D01*
X19431000Y-56697200D01*
X65660728Y-56697200D01*
X65663800Y-57386450D01*
X65822550Y-57545200D01*
X66471800Y-57545200D01*
X66471800Y-56220950D01*
X66313050Y-56062200D01*
X66298800Y-56059128D01*
X66174318Y-56071388D01*
X66054620Y-56107698D01*
X65944306Y-56166663D01*
X65847615Y-56246015D01*
X65768263Y-56342706D01*
X65709298Y-56453020D01*
X65672988Y-56572718D01*
X65660728Y-56697200D01*
X19431000Y-56697200D01*
X19431000Y-52032000D01*
X32851928Y-52032000D01*
X32851928Y-53632000D01*
X32864188Y-53756482D01*
X32900498Y-53876180D01*
X32959463Y-53986494D01*
X33038815Y-54083185D01*
X33135506Y-54162537D01*
X33245820Y-54221502D01*
X33365518Y-54257812D01*
X33490000Y-54270072D01*
X35090000Y-54270072D01*
X35214482Y-54257812D01*
X35334180Y-54221502D01*
X35444494Y-54162537D01*
X35541185Y-54083185D01*
X35620537Y-53986494D01*
X35679502Y-53876180D01*
X35715812Y-53756482D01*
X35716643Y-53748039D01*
X35915241Y-53946637D01*
X36150273Y-54103680D01*
X36411426Y-54211853D01*
X36688665Y-54267000D01*
X36971335Y-54267000D01*
X37248574Y-54211853D01*
X37509727Y-54103680D01*
X37744759Y-53946637D01*
X37944637Y-53746759D01*
X38100000Y-53514241D01*
X38255363Y-53746759D01*
X38455241Y-53946637D01*
X38690273Y-54103680D01*
X38951426Y-54211853D01*
X39228665Y-54267000D01*
X39511335Y-54267000D01*
X39788574Y-54211853D01*
X40049727Y-54103680D01*
X40284759Y-53946637D01*
X40484637Y-53746759D01*
X40640000Y-53514241D01*
X40795363Y-53746759D01*
X40995241Y-53946637D01*
X41230273Y-54103680D01*
X41491426Y-54211853D01*
X41768665Y-54267000D01*
X42051335Y-54267000D01*
X42328574Y-54211853D01*
X42589727Y-54103680D01*
X42824759Y-53946637D01*
X43024637Y-53746759D01*
X43180000Y-53514241D01*
X43335363Y-53746759D01*
X43535241Y-53946637D01*
X43770273Y-54103680D01*
X44031426Y-54211853D01*
X44308665Y-54267000D01*
X44591335Y-54267000D01*
X44868574Y-54211853D01*
X45129727Y-54103680D01*
X45364759Y-53946637D01*
X45564637Y-53746759D01*
X45720000Y-53514241D01*
X45875363Y-53746759D01*
X46075241Y-53946637D01*
X46310273Y-54103680D01*
X46571426Y-54211853D01*
X46848665Y-54267000D01*
X47131335Y-54267000D01*
X47408574Y-54211853D01*
X47669727Y-54103680D01*
X47904759Y-53946637D01*
X48104637Y-53746759D01*
X48260000Y-53514241D01*
X48415363Y-53746759D01*
X48615241Y-53946637D01*
X48850273Y-54103680D01*
X49111426Y-54211853D01*
X49388665Y-54267000D01*
X49671335Y-54267000D01*
X49948574Y-54211853D01*
X50209727Y-54103680D01*
X50444759Y-53946637D01*
X50644637Y-53746759D01*
X50800000Y-53514241D01*
X50955363Y-53746759D01*
X51155241Y-53946637D01*
X51390273Y-54103680D01*
X51651426Y-54211853D01*
X51928665Y-54267000D01*
X52211335Y-54267000D01*
X52488574Y-54211853D01*
X52749727Y-54103680D01*
X52984759Y-53946637D01*
X53184637Y-53746759D01*
X53340000Y-53514241D01*
X53495363Y-53746759D01*
X53695241Y-53946637D01*
X53930273Y-54103680D01*
X54191426Y-54211853D01*
X54468665Y-54267000D01*
X54751335Y-54267000D01*
X55028574Y-54211853D01*
X55289727Y-54103680D01*
X55524759Y-53946637D01*
X55724637Y-53746759D01*
X55880000Y-53514241D01*
X56035363Y-53746759D01*
X56235241Y-53946637D01*
X56470273Y-54103680D01*
X56731426Y-54211853D01*
X57008665Y-54267000D01*
X57291335Y-54267000D01*
X57568574Y-54211853D01*
X57829727Y-54103680D01*
X58064759Y-53946637D01*
X58264637Y-53746759D01*
X58420000Y-53514241D01*
X58575363Y-53746759D01*
X58775241Y-53946637D01*
X59010273Y-54103680D01*
X59271426Y-54211853D01*
X59548665Y-54267000D01*
X59831335Y-54267000D01*
X60108574Y-54211853D01*
X60369727Y-54103680D01*
X60604759Y-53946637D01*
X60804637Y-53746759D01*
X60960000Y-53514241D01*
X61115363Y-53746759D01*
X61315241Y-53946637D01*
X61550273Y-54103680D01*
X61811426Y-54211853D01*
X62088665Y-54267000D01*
X62371335Y-54267000D01*
X62648574Y-54211853D01*
X62909727Y-54103680D01*
X63144759Y-53946637D01*
X63344637Y-53746759D01*
X63500000Y-53514241D01*
X63655363Y-53746759D01*
X63855241Y-53946637D01*
X64090273Y-54103680D01*
X64351426Y-54211853D01*
X64628665Y-54267000D01*
X64911335Y-54267000D01*
X65188574Y-54211853D01*
X65449727Y-54103680D01*
X65460994Y-54096151D01*
X66535343Y-55170501D01*
X66563180Y-55204420D01*
X66597097Y-55232255D01*
X66597098Y-55232256D01*
X66632023Y-55260918D01*
X66698548Y-55315514D01*
X66852988Y-55398064D01*
X66947597Y-55426763D01*
X67020564Y-55448897D01*
X67037164Y-55450532D01*
X67151172Y-55461761D01*
X67151179Y-55461761D01*
X67194839Y-55466061D01*
X67238499Y-55461761D01*
X67666526Y-55461761D01*
X68249801Y-56045037D01*
X68249801Y-56097706D01*
X68172545Y-56074271D01*
X68018800Y-56059128D01*
X67718800Y-56059128D01*
X67565055Y-56074271D01*
X67417218Y-56119116D01*
X67282864Y-56190930D01*
X67253294Y-56166663D01*
X67142980Y-56107698D01*
X67023282Y-56071388D01*
X66898800Y-56059128D01*
X66884550Y-56062200D01*
X66725800Y-56220950D01*
X66725800Y-57545200D01*
X66745800Y-57545200D01*
X66745800Y-57799200D01*
X66725800Y-57799200D01*
X66725800Y-59123450D01*
X66884550Y-59282200D01*
X66898800Y-59285272D01*
X67023282Y-59273012D01*
X67142980Y-59236702D01*
X67253294Y-59177737D01*
X67282864Y-59153470D01*
X67417218Y-59225284D01*
X67565055Y-59270129D01*
X67718800Y-59285272D01*
X68018800Y-59285272D01*
X68172545Y-59270129D01*
X68320382Y-59225284D01*
X68456629Y-59152458D01*
X68503800Y-59113746D01*
X68550971Y-59152458D01*
X68687218Y-59225284D01*
X68835055Y-59270129D01*
X68988800Y-59285272D01*
X69288800Y-59285272D01*
X69442545Y-59270129D01*
X69590382Y-59225284D01*
X69726629Y-59152458D01*
X69773800Y-59113746D01*
X69820971Y-59152458D01*
X69957218Y-59225284D01*
X70105055Y-59270129D01*
X70258800Y-59285272D01*
X70558800Y-59285272D01*
X70712545Y-59270129D01*
X70860382Y-59225284D01*
X70996629Y-59152458D01*
X71043800Y-59113746D01*
X71090971Y-59152458D01*
X71227218Y-59225284D01*
X71375055Y-59270129D01*
X71528800Y-59285272D01*
X71828800Y-59285272D01*
X71982545Y-59270129D01*
X72130382Y-59225284D01*
X72266629Y-59152458D01*
X72313800Y-59113746D01*
X72360971Y-59152458D01*
X72497218Y-59225284D01*
X72645055Y-59270129D01*
X72798800Y-59285272D01*
X73098800Y-59285272D01*
X73252545Y-59270129D01*
X73329800Y-59246694D01*
X73329800Y-60253390D01*
X67147269Y-60253390D01*
X67103609Y-60249090D01*
X67059949Y-60253390D01*
X67059943Y-60253390D01*
X66962534Y-60262984D01*
X66929334Y-60266254D01*
X66827668Y-60297094D01*
X66761759Y-60317087D01*
X66607319Y-60399637D01*
X66471951Y-60510731D01*
X66444111Y-60544654D01*
X66001059Y-60987706D01*
X65967142Y-61015541D01*
X65939307Y-61049458D01*
X65939305Y-61049460D01*
X65856048Y-61150909D01*
X65773498Y-61305348D01*
X65722664Y-61472926D01*
X65720291Y-61497019D01*
X65675871Y-61643455D01*
X65660728Y-61797200D01*
X65660728Y-63447200D01*
X65675871Y-63600945D01*
X65720716Y-63748782D01*
X65793542Y-63885029D01*
X65891549Y-64004451D01*
X66010971Y-64102458D01*
X66147218Y-64175284D01*
X66295055Y-64220129D01*
X66448800Y-64235272D01*
X66748800Y-64235272D01*
X66902545Y-64220129D01*
X67050382Y-64175284D01*
X67186629Y-64102458D01*
X67233800Y-64063746D01*
X67280971Y-64102458D01*
X67417218Y-64175284D01*
X67565055Y-64220129D01*
X67718800Y-64235272D01*
X68018800Y-64235272D01*
X68172545Y-64220129D01*
X68249801Y-64196694D01*
X68249801Y-65335930D01*
X68245500Y-65379600D01*
X68262664Y-65553874D01*
X68313498Y-65721452D01*
X68388649Y-65862049D01*
X68396048Y-65875891D01*
X68507142Y-66011259D01*
X68541059Y-66039094D01*
X68811790Y-66309825D01*
X68811791Y-73459281D01*
X68796064Y-73511126D01*
X68778900Y-73685400D01*
X68796064Y-73859674D01*
X68846898Y-74027252D01*
X68929448Y-74181691D01*
X69012705Y-74283140D01*
X73967706Y-79238142D01*
X73995541Y-79272059D01*
X74130909Y-79383153D01*
X74285349Y-79465703D01*
X74351258Y-79485696D01*
X74452924Y-79516536D01*
X74486124Y-79519806D01*
X74583533Y-79529400D01*
X74583539Y-79529400D01*
X74627199Y-79533700D01*
X74670859Y-79529400D01*
X99315579Y-79529400D01*
X99426579Y-79640400D01*
X99261656Y-79805323D01*
X99118293Y-80019882D01*
X99019542Y-80258287D01*
X98969200Y-80511376D01*
X98969200Y-80769424D01*
X99019542Y-81022513D01*
X99118293Y-81260918D01*
X99261656Y-81475477D01*
X99426579Y-81640400D01*
X99261656Y-81805323D01*
X99118293Y-82019882D01*
X99019542Y-82258287D01*
X98969200Y-82511376D01*
X98969200Y-82769424D01*
X99019542Y-83022513D01*
X99118293Y-83260918D01*
X99261656Y-83475477D01*
X99426579Y-83640400D01*
X99261656Y-83805323D01*
X99118293Y-84019882D01*
X99019542Y-84258287D01*
X98969200Y-84511376D01*
X98969200Y-84769424D01*
X99019542Y-85022513D01*
X99118293Y-85260918D01*
X99261656Y-85475477D01*
X99426579Y-85640400D01*
X99261656Y-85805323D01*
X99118293Y-86019882D01*
X99019542Y-86258287D01*
X98969200Y-86511376D01*
X98969200Y-86769424D01*
X99019542Y-87022513D01*
X99118293Y-87260918D01*
X99261656Y-87475477D01*
X99426579Y-87640400D01*
X99261656Y-87805323D01*
X99118293Y-88019882D01*
X99019542Y-88258287D01*
X98969200Y-88511376D01*
X98969200Y-88769424D01*
X99019542Y-89022513D01*
X99118293Y-89260918D01*
X99261656Y-89475477D01*
X99426579Y-89640400D01*
X99261656Y-89805323D01*
X99118293Y-90019882D01*
X99019542Y-90258287D01*
X98969200Y-90511376D01*
X98969200Y-90769424D01*
X99019542Y-91022513D01*
X99118293Y-91260918D01*
X99261656Y-91475477D01*
X99426579Y-91640400D01*
X99261656Y-91805323D01*
X99118293Y-92019882D01*
X99019542Y-92258287D01*
X98969200Y-92511376D01*
X98969200Y-92769424D01*
X99019542Y-93022513D01*
X99118293Y-93260918D01*
X99239897Y-93442913D01*
X99153015Y-93514215D01*
X99073663Y-93610906D01*
X99014698Y-93721220D01*
X98978388Y-93840918D01*
X98966128Y-93965400D01*
X98966128Y-95315400D01*
X98978388Y-95439882D01*
X99014698Y-95559580D01*
X99073663Y-95669894D01*
X99153015Y-95766585D01*
X99249706Y-95845937D01*
X99360020Y-95904902D01*
X99479718Y-95941212D01*
X99604200Y-95953472D01*
X100954200Y-95953472D01*
X101078682Y-95941212D01*
X101198380Y-95904902D01*
X101308694Y-95845937D01*
X101405385Y-95766585D01*
X101484737Y-95669894D01*
X101543702Y-95559580D01*
X101580012Y-95439882D01*
X101592272Y-95315400D01*
X101592272Y-93965400D01*
X101580012Y-93840918D01*
X101543702Y-93721220D01*
X101484737Y-93610906D01*
X101405385Y-93514215D01*
X101318503Y-93442913D01*
X101440107Y-93260918D01*
X101538858Y-93022513D01*
X101589200Y-92769424D01*
X101589200Y-92511376D01*
X101538858Y-92258287D01*
X101440107Y-92019882D01*
X101296744Y-91805323D01*
X101131821Y-91640400D01*
X101296744Y-91475477D01*
X101440107Y-91260918D01*
X101538858Y-91022513D01*
X101589200Y-90769424D01*
X101589200Y-90511376D01*
X101538858Y-90258287D01*
X101440107Y-90019882D01*
X101296744Y-89805323D01*
X101131821Y-89640400D01*
X101296744Y-89475477D01*
X101440107Y-89260918D01*
X101538858Y-89022513D01*
X101589200Y-88769424D01*
X101589200Y-88511376D01*
X101538858Y-88258287D01*
X101440107Y-88019882D01*
X101296744Y-87805323D01*
X101131821Y-87640400D01*
X101296744Y-87475477D01*
X101440107Y-87260918D01*
X101538858Y-87022513D01*
X101589200Y-86769424D01*
X101589200Y-86511376D01*
X101538858Y-86258287D01*
X101440107Y-86019882D01*
X101296744Y-85805323D01*
X101131821Y-85640400D01*
X101296744Y-85475477D01*
X101440107Y-85260918D01*
X101538858Y-85022513D01*
X101589200Y-84769424D01*
X101589200Y-84511376D01*
X101538858Y-84258287D01*
X101440107Y-84019882D01*
X101296744Y-83805323D01*
X101131821Y-83640400D01*
X101296744Y-83475477D01*
X101440107Y-83260918D01*
X101538858Y-83022513D01*
X101589200Y-82769424D01*
X101589200Y-82511376D01*
X101538858Y-82258287D01*
X101440107Y-82019882D01*
X101296744Y-81805323D01*
X101131821Y-81640400D01*
X101296744Y-81475477D01*
X101440107Y-81260918D01*
X101538858Y-81022513D01*
X101589200Y-80769424D01*
X101589200Y-80511376D01*
X101538858Y-80258287D01*
X101440107Y-80019882D01*
X101296744Y-79805323D01*
X101131821Y-79640400D01*
X101296744Y-79475477D01*
X101440107Y-79260918D01*
X101538858Y-79022513D01*
X101589200Y-78769424D01*
X101589200Y-78511376D01*
X101538858Y-78258287D01*
X101440107Y-78019882D01*
X101296744Y-77805323D01*
X101131821Y-77640400D01*
X101296744Y-77475477D01*
X101440107Y-77260918D01*
X101538858Y-77022513D01*
X101589200Y-76769424D01*
X101589200Y-76511376D01*
X101538858Y-76258287D01*
X101440107Y-76019882D01*
X101296744Y-75805323D01*
X101125140Y-75633719D01*
X101257503Y-75511627D01*
X101408673Y-75304029D01*
X101516438Y-75070928D01*
X101547110Y-74969800D01*
X101423424Y-74767400D01*
X100406200Y-74767400D01*
X100406200Y-74787400D01*
X100152200Y-74787400D01*
X100152200Y-74767400D01*
X99134976Y-74767400D01*
X99011290Y-74969800D01*
X99041962Y-75070928D01*
X99149727Y-75304029D01*
X99300897Y-75511627D01*
X99433260Y-75633719D01*
X99315579Y-75751400D01*
X73996712Y-75751400D01*
X71297800Y-73052489D01*
X71297800Y-65544635D01*
X72289306Y-66536141D01*
X72317141Y-66570059D01*
X72452509Y-66681153D01*
X72606949Y-66763703D01*
X72672858Y-66783696D01*
X72774524Y-66814536D01*
X72806914Y-66817726D01*
X72905133Y-66827400D01*
X72905139Y-66827400D01*
X72948799Y-66831700D01*
X72992459Y-66827400D01*
X98051140Y-66827400D01*
X98094800Y-66831700D01*
X98138460Y-66827400D01*
X98138467Y-66827400D01*
X98269074Y-66814536D01*
X98436651Y-66763703D01*
X98591091Y-66681153D01*
X98726459Y-66570059D01*
X98754299Y-66536136D01*
X99016412Y-66274023D01*
X98969200Y-66511376D01*
X98969200Y-66769424D01*
X99019542Y-67022513D01*
X99118293Y-67260918D01*
X99261656Y-67475477D01*
X99426579Y-67640400D01*
X99261656Y-67805323D01*
X99118293Y-68019882D01*
X99019542Y-68258287D01*
X98969200Y-68511376D01*
X98969200Y-68769424D01*
X99019542Y-69022513D01*
X99118293Y-69260918D01*
X99261656Y-69475477D01*
X99426579Y-69640400D01*
X99261656Y-69805323D01*
X99118293Y-70019882D01*
X99019542Y-70258287D01*
X98969200Y-70511376D01*
X98969200Y-70769424D01*
X99019542Y-71022513D01*
X99118293Y-71260918D01*
X99261656Y-71475477D01*
X99426579Y-71640400D01*
X99261656Y-71805323D01*
X99118293Y-72019882D01*
X99019542Y-72258287D01*
X98969200Y-72511376D01*
X98969200Y-72769424D01*
X99019542Y-73022513D01*
X99118293Y-73260918D01*
X99261656Y-73475477D01*
X99433260Y-73647081D01*
X99300897Y-73769173D01*
X99149727Y-73976771D01*
X99041962Y-74209872D01*
X99011290Y-74311000D01*
X99134976Y-74513400D01*
X100152200Y-74513400D01*
X100152200Y-74493400D01*
X100406200Y-74493400D01*
X100406200Y-74513400D01*
X101423424Y-74513400D01*
X101547110Y-74311000D01*
X101516438Y-74209872D01*
X101408673Y-73976771D01*
X101257503Y-73769173D01*
X101125140Y-73647081D01*
X101296744Y-73475477D01*
X101440107Y-73260918D01*
X101538858Y-73022513D01*
X101589200Y-72769424D01*
X101589200Y-72511376D01*
X101538858Y-72258287D01*
X101440107Y-72019882D01*
X101296744Y-71805323D01*
X101131821Y-71640400D01*
X101296744Y-71475477D01*
X101440107Y-71260918D01*
X101538858Y-71022513D01*
X101589200Y-70769424D01*
X101589200Y-70511376D01*
X101538858Y-70258287D01*
X101440107Y-70019882D01*
X101296744Y-69805323D01*
X101131821Y-69640400D01*
X101296744Y-69475477D01*
X101440107Y-69260918D01*
X101538858Y-69022513D01*
X101589200Y-68769424D01*
X101589200Y-68511376D01*
X101538858Y-68258287D01*
X101440107Y-68019882D01*
X101296744Y-67805323D01*
X101131821Y-67640400D01*
X101296744Y-67475477D01*
X101440107Y-67260918D01*
X101538858Y-67022513D01*
X101589200Y-66769424D01*
X101589200Y-66511376D01*
X101538858Y-66258287D01*
X101440107Y-66019882D01*
X101296744Y-65805323D01*
X101131821Y-65640400D01*
X101296744Y-65475477D01*
X101440107Y-65260918D01*
X101538858Y-65022513D01*
X101589200Y-64769424D01*
X101589200Y-64511376D01*
X101538858Y-64258287D01*
X101440107Y-64019882D01*
X101296744Y-63805323D01*
X101131821Y-63640400D01*
X101296744Y-63475477D01*
X101440107Y-63260918D01*
X101538858Y-63022513D01*
X101589200Y-62769424D01*
X101589200Y-62511376D01*
X101538858Y-62258287D01*
X101440107Y-62019882D01*
X101296744Y-61805323D01*
X101131821Y-61640400D01*
X101296744Y-61475477D01*
X101440107Y-61260918D01*
X101538858Y-61022513D01*
X101589200Y-60769424D01*
X101589200Y-60511376D01*
X101538858Y-60258287D01*
X101440107Y-60019882D01*
X101296744Y-59805323D01*
X101131821Y-59640400D01*
X101296744Y-59475477D01*
X101440107Y-59260918D01*
X101538858Y-59022513D01*
X101589200Y-58769424D01*
X101589200Y-58511376D01*
X101538858Y-58258287D01*
X101440107Y-58019882D01*
X101296744Y-57805323D01*
X101131821Y-57640400D01*
X101296744Y-57475477D01*
X101440107Y-57260918D01*
X101538858Y-57022513D01*
X101589200Y-56769424D01*
X101589200Y-56511376D01*
X101538858Y-56258287D01*
X101440107Y-56019882D01*
X101296744Y-55805323D01*
X101131821Y-55640400D01*
X101296744Y-55475477D01*
X101440107Y-55260918D01*
X101538858Y-55022513D01*
X101589200Y-54769424D01*
X101589200Y-54511376D01*
X101538858Y-54258287D01*
X101440107Y-54019882D01*
X101296744Y-53805323D01*
X101131821Y-53640400D01*
X101296744Y-53475477D01*
X101440107Y-53260918D01*
X101538858Y-53022513D01*
X101589200Y-52769424D01*
X101589200Y-52511376D01*
X101538858Y-52258287D01*
X101440107Y-52019882D01*
X101296744Y-51805323D01*
X101131821Y-51640400D01*
X101296744Y-51475477D01*
X101440107Y-51260918D01*
X101538858Y-51022513D01*
X101589200Y-50769424D01*
X101589200Y-50511376D01*
X101538858Y-50258287D01*
X101440107Y-50019882D01*
X101296744Y-49805323D01*
X101131821Y-49640400D01*
X101296744Y-49475477D01*
X101440107Y-49260918D01*
X101538858Y-49022513D01*
X101589200Y-48769424D01*
X101589200Y-48511376D01*
X101538858Y-48258287D01*
X101440107Y-48019882D01*
X101296744Y-47805323D01*
X101131821Y-47640400D01*
X101296744Y-47475477D01*
X101440107Y-47260918D01*
X101538858Y-47022513D01*
X101589200Y-46769424D01*
X101589200Y-46511376D01*
X101538858Y-46258287D01*
X101440107Y-46019882D01*
X101296744Y-45805323D01*
X101131821Y-45640400D01*
X101296744Y-45475477D01*
X101440107Y-45260918D01*
X101538858Y-45022513D01*
X101589200Y-44769424D01*
X101589200Y-44511376D01*
X101538858Y-44258287D01*
X101440107Y-44019882D01*
X101296744Y-43805323D01*
X101131821Y-43640400D01*
X101296744Y-43475477D01*
X101440107Y-43260918D01*
X101538858Y-43022513D01*
X101589200Y-42769424D01*
X101589200Y-42511376D01*
X101538858Y-42258287D01*
X101440107Y-42019882D01*
X101296744Y-41805323D01*
X101131821Y-41640400D01*
X101296744Y-41475477D01*
X101440107Y-41260918D01*
X101538858Y-41022513D01*
X101589200Y-40769424D01*
X101589200Y-40511376D01*
X101538858Y-40258287D01*
X101440107Y-40019882D01*
X101296744Y-39805323D01*
X101131821Y-39640400D01*
X101296744Y-39475477D01*
X101440107Y-39260918D01*
X101538858Y-39022513D01*
X101589200Y-38769424D01*
X101589200Y-38511376D01*
X101538858Y-38258287D01*
X101440107Y-38019882D01*
X101296744Y-37805323D01*
X101131821Y-37640400D01*
X101296744Y-37475477D01*
X101440107Y-37260918D01*
X101538858Y-37022513D01*
X101589200Y-36769424D01*
X101589200Y-36511376D01*
X101538858Y-36258287D01*
X101440107Y-36019882D01*
X101296744Y-35805323D01*
X101131821Y-35640400D01*
X101296744Y-35475477D01*
X101440107Y-35260918D01*
X101538858Y-35022513D01*
X101589200Y-34769424D01*
X101589200Y-34511376D01*
X101538858Y-34258287D01*
X101440107Y-34019882D01*
X101296744Y-33805323D01*
X101131821Y-33640400D01*
X101296744Y-33475477D01*
X101440107Y-33260918D01*
X101538858Y-33022513D01*
X101589200Y-32769424D01*
X101589200Y-32511376D01*
X101538858Y-32258287D01*
X101440107Y-32019882D01*
X101296744Y-31805323D01*
X101131821Y-31640400D01*
X101296744Y-31475477D01*
X101440107Y-31260918D01*
X101538858Y-31022513D01*
X101589200Y-30769424D01*
X101589200Y-30511376D01*
X101538858Y-30258287D01*
X101440107Y-30019882D01*
X101296744Y-29805323D01*
X101131821Y-29640400D01*
X101296744Y-29475477D01*
X101440107Y-29260918D01*
X101538858Y-29022513D01*
X101589200Y-28769424D01*
X101589200Y-28511376D01*
X101538858Y-28258287D01*
X101440107Y-28019882D01*
X101296744Y-27805323D01*
X101131821Y-27640400D01*
X101296744Y-27475477D01*
X101440107Y-27260918D01*
X101538858Y-27022513D01*
X101589200Y-26769424D01*
X101589200Y-26511376D01*
X101538858Y-26258287D01*
X101440107Y-26019882D01*
X101296744Y-25805323D01*
X101125140Y-25633719D01*
X101257503Y-25511627D01*
X101408673Y-25304029D01*
X101516438Y-25070928D01*
X101547110Y-24969800D01*
X101423424Y-24767400D01*
X100406200Y-24767400D01*
X100406200Y-24787400D01*
X100152200Y-24787400D01*
X100152200Y-24767400D01*
X99134976Y-24767400D01*
X99011290Y-24969800D01*
X99041962Y-25070928D01*
X99149727Y-25304029D01*
X99300897Y-25511627D01*
X99433260Y-25633719D01*
X99261656Y-25805323D01*
X99118293Y-26019882D01*
X99019542Y-26258287D01*
X98969200Y-26511376D01*
X98969200Y-26693165D01*
X97652720Y-28009645D01*
X97618797Y-28037485D01*
X97507703Y-28172854D01*
X97425153Y-28327294D01*
X97374320Y-28494871D01*
X97361456Y-28625478D01*
X97361456Y-28625484D01*
X97357156Y-28669144D01*
X97361456Y-28712804D01*
X97361457Y-64341390D01*
X77478483Y-64341390D01*
X77495208Y-64286254D01*
X77512272Y-64113000D01*
X77512272Y-63438000D01*
X77495208Y-63264746D01*
X77444672Y-63098150D01*
X77362605Y-62944614D01*
X77252162Y-62810038D01*
X77245606Y-62804658D01*
X77325385Y-62739185D01*
X77404737Y-62642494D01*
X77463702Y-62532180D01*
X77500012Y-62412482D01*
X77512272Y-62288000D01*
X77509200Y-61986250D01*
X77350450Y-61827500D01*
X76276200Y-61827500D01*
X76276200Y-61847500D01*
X76022200Y-61847500D01*
X76022200Y-61827500D01*
X76002200Y-61827500D01*
X76002200Y-61573500D01*
X76022200Y-61573500D01*
X76022200Y-59990900D01*
X76276200Y-59990900D01*
X76276200Y-61573500D01*
X77350450Y-61573500D01*
X77509200Y-61414750D01*
X77512272Y-61113000D01*
X77500012Y-60988518D01*
X77463702Y-60868820D01*
X77417402Y-60782200D01*
X77463702Y-60695580D01*
X77500012Y-60575882D01*
X77512272Y-60451400D01*
X77509200Y-60149650D01*
X77350450Y-59990900D01*
X76276200Y-59990900D01*
X76022200Y-59990900D01*
X76002200Y-59990900D01*
X76002200Y-59736900D01*
X76022200Y-59736900D01*
X76022200Y-59716900D01*
X76276200Y-59716900D01*
X76276200Y-59736900D01*
X77350450Y-59736900D01*
X77509200Y-59578150D01*
X77512272Y-59276400D01*
X77500012Y-59151918D01*
X77463702Y-59032220D01*
X77404737Y-58921906D01*
X77325385Y-58825215D01*
X77245606Y-58759742D01*
X77252162Y-58754362D01*
X77362605Y-58619786D01*
X77444672Y-58466250D01*
X77495208Y-58299654D01*
X77512272Y-58126400D01*
X77512272Y-57451400D01*
X77495208Y-57278146D01*
X77444672Y-57111550D01*
X77362605Y-56958014D01*
X77252162Y-56823438D01*
X77117586Y-56712995D01*
X77073001Y-56689164D01*
X77073001Y-54216145D01*
X77328665Y-54267000D01*
X77611335Y-54267000D01*
X77888574Y-54211853D01*
X78149727Y-54103680D01*
X78384759Y-53946637D01*
X78584637Y-53746759D01*
X78740000Y-53514241D01*
X78895363Y-53746759D01*
X79095241Y-53946637D01*
X79330273Y-54103680D01*
X79591426Y-54211853D01*
X79868665Y-54267000D01*
X80151335Y-54267000D01*
X80428574Y-54211853D01*
X80689727Y-54103680D01*
X80924759Y-53946637D01*
X81124637Y-53746759D01*
X81280000Y-53514241D01*
X81435363Y-53746759D01*
X81635241Y-53946637D01*
X81870273Y-54103680D01*
X82131426Y-54211853D01*
X82408665Y-54267000D01*
X82691335Y-54267000D01*
X82968574Y-54211853D01*
X83229727Y-54103680D01*
X83464759Y-53946637D01*
X83664637Y-53746759D01*
X83820000Y-53514241D01*
X83975363Y-53746759D01*
X84175241Y-53946637D01*
X84410273Y-54103680D01*
X84671426Y-54211853D01*
X84948665Y-54267000D01*
X85231335Y-54267000D01*
X85508574Y-54211853D01*
X85769727Y-54103680D01*
X86004759Y-53946637D01*
X86204637Y-53746759D01*
X86360000Y-53514241D01*
X86515363Y-53746759D01*
X86715241Y-53946637D01*
X86950273Y-54103680D01*
X87211426Y-54211853D01*
X87488665Y-54267000D01*
X87771335Y-54267000D01*
X88048574Y-54211853D01*
X88309727Y-54103680D01*
X88544759Y-53946637D01*
X88744637Y-53746759D01*
X88900000Y-53514241D01*
X89055363Y-53746759D01*
X89255241Y-53946637D01*
X89490273Y-54103680D01*
X89751426Y-54211853D01*
X90028665Y-54267000D01*
X90311335Y-54267000D01*
X90588574Y-54211853D01*
X90849727Y-54103680D01*
X91084759Y-53946637D01*
X91284637Y-53746759D01*
X91440000Y-53514241D01*
X91595363Y-53746759D01*
X91795241Y-53946637D01*
X92030273Y-54103680D01*
X92291426Y-54211853D01*
X92568665Y-54267000D01*
X92851335Y-54267000D01*
X93128574Y-54211853D01*
X93389727Y-54103680D01*
X93624759Y-53946637D01*
X93824637Y-53746759D01*
X93981680Y-53511727D01*
X94089853Y-53250574D01*
X94145000Y-52973335D01*
X94145000Y-52690665D01*
X94089853Y-52413426D01*
X93981680Y-52152273D01*
X93824637Y-51917241D01*
X93624759Y-51717363D01*
X93389727Y-51560320D01*
X93128574Y-51452147D01*
X92851335Y-51397000D01*
X92568665Y-51397000D01*
X92291426Y-51452147D01*
X92030273Y-51560320D01*
X91795241Y-51717363D01*
X91595363Y-51917241D01*
X91440000Y-52149759D01*
X91284637Y-51917241D01*
X91084759Y-51717363D01*
X90849727Y-51560320D01*
X90588574Y-51452147D01*
X90311335Y-51397000D01*
X90028665Y-51397000D01*
X89751426Y-51452147D01*
X89490273Y-51560320D01*
X89255241Y-51717363D01*
X89055363Y-51917241D01*
X88900000Y-52149759D01*
X88744637Y-51917241D01*
X88544759Y-51717363D01*
X88309727Y-51560320D01*
X88048574Y-51452147D01*
X87771335Y-51397000D01*
X87488665Y-51397000D01*
X87211426Y-51452147D01*
X86950273Y-51560320D01*
X86715241Y-51717363D01*
X86515363Y-51917241D01*
X86360000Y-52149759D01*
X86204637Y-51917241D01*
X86004759Y-51717363D01*
X85769727Y-51560320D01*
X85508574Y-51452147D01*
X85231335Y-51397000D01*
X84948665Y-51397000D01*
X84671426Y-51452147D01*
X84410273Y-51560320D01*
X84175241Y-51717363D01*
X83975363Y-51917241D01*
X83820000Y-52149759D01*
X83664637Y-51917241D01*
X83464759Y-51717363D01*
X83229727Y-51560320D01*
X82968574Y-51452147D01*
X82691335Y-51397000D01*
X82408665Y-51397000D01*
X82131426Y-51452147D01*
X81870273Y-51560320D01*
X81635241Y-51717363D01*
X81435363Y-51917241D01*
X81280000Y-52149759D01*
X81124637Y-51917241D01*
X80924759Y-51717363D01*
X80689727Y-51560320D01*
X80428574Y-51452147D01*
X80151335Y-51397000D01*
X79868665Y-51397000D01*
X79591426Y-51452147D01*
X79330273Y-51560320D01*
X79095241Y-51717363D01*
X78895363Y-51917241D01*
X78740000Y-52149759D01*
X78584637Y-51917241D01*
X78384759Y-51717363D01*
X78149727Y-51560320D01*
X77888574Y-51452147D01*
X77611335Y-51397000D01*
X77328665Y-51397000D01*
X77051426Y-51452147D01*
X76790273Y-51560320D01*
X76779006Y-51567849D01*
X76191420Y-50980263D01*
X76163580Y-50946340D01*
X76028212Y-50835246D01*
X75873772Y-50752696D01*
X75706195Y-50701863D01*
X75575588Y-50688999D01*
X75575581Y-50688999D01*
X75531921Y-50684699D01*
X75488261Y-50688999D01*
X71147660Y-50688999D01*
X71104000Y-50684699D01*
X71060340Y-50688999D01*
X71060334Y-50688999D01*
X70962925Y-50698593D01*
X70929725Y-50701863D01*
X70828059Y-50732703D01*
X70762150Y-50752696D01*
X70607710Y-50835246D01*
X70573523Y-50863303D01*
X70511583Y-50914136D01*
X70472342Y-50946340D01*
X70444507Y-50980258D01*
X70021720Y-51403044D01*
X69991335Y-51397000D01*
X69708665Y-51397000D01*
X69431426Y-51452147D01*
X69170273Y-51560320D01*
X68935241Y-51717363D01*
X68735363Y-51917241D01*
X68580000Y-52149759D01*
X68424637Y-51917241D01*
X68224759Y-51717363D01*
X67989727Y-51560320D01*
X67728574Y-51452147D01*
X67451335Y-51397000D01*
X67208235Y-51397000D01*
X67907743Y-50697493D01*
X67941659Y-50669659D01*
X68052753Y-50534291D01*
X68135303Y-50379851D01*
X68155296Y-50313942D01*
X68186136Y-50212276D01*
X68189406Y-50179076D01*
X68199000Y-50081667D01*
X68199000Y-50081661D01*
X68203300Y-50038001D01*
X68199000Y-49994341D01*
X68199000Y-38723849D01*
X68224759Y-38706637D01*
X68424637Y-38506759D01*
X68580000Y-38274241D01*
X68735363Y-38506759D01*
X68935241Y-38706637D01*
X69170273Y-38863680D01*
X69431426Y-38971853D01*
X69708665Y-39027000D01*
X69991335Y-39027000D01*
X70268574Y-38971853D01*
X70529727Y-38863680D01*
X70764759Y-38706637D01*
X70964637Y-38506759D01*
X71120000Y-38274241D01*
X71275363Y-38506759D01*
X71475241Y-38706637D01*
X71710273Y-38863680D01*
X71971426Y-38971853D01*
X72248665Y-39027000D01*
X72531335Y-39027000D01*
X72808574Y-38971853D01*
X73069727Y-38863680D01*
X73304759Y-38706637D01*
X73504637Y-38506759D01*
X73660000Y-38274241D01*
X73815363Y-38506759D01*
X74015241Y-38706637D01*
X74250273Y-38863680D01*
X74511426Y-38971853D01*
X74788665Y-39027000D01*
X75071335Y-39027000D01*
X75348574Y-38971853D01*
X75609727Y-38863680D01*
X75844759Y-38706637D01*
X76044637Y-38506759D01*
X76200000Y-38274241D01*
X76355363Y-38506759D01*
X76555241Y-38706637D01*
X76790273Y-38863680D01*
X77051426Y-38971853D01*
X77328665Y-39027000D01*
X77611335Y-39027000D01*
X77888574Y-38971853D01*
X78149727Y-38863680D01*
X78384759Y-38706637D01*
X78584637Y-38506759D01*
X78740000Y-38274241D01*
X78895363Y-38506759D01*
X79095241Y-38706637D01*
X79330273Y-38863680D01*
X79591426Y-38971853D01*
X79868665Y-39027000D01*
X80151335Y-39027000D01*
X80428574Y-38971853D01*
X80689727Y-38863680D01*
X80924759Y-38706637D01*
X81124637Y-38506759D01*
X81280000Y-38274241D01*
X81435363Y-38506759D01*
X81635241Y-38706637D01*
X81870273Y-38863680D01*
X82131426Y-38971853D01*
X82408665Y-39027000D01*
X82691335Y-39027000D01*
X82968574Y-38971853D01*
X83229727Y-38863680D01*
X83464759Y-38706637D01*
X83664637Y-38506759D01*
X83820000Y-38274241D01*
X83975363Y-38506759D01*
X84175241Y-38706637D01*
X84410273Y-38863680D01*
X84671426Y-38971853D01*
X84948665Y-39027000D01*
X85231335Y-39027000D01*
X85508574Y-38971853D01*
X85769727Y-38863680D01*
X86004759Y-38706637D01*
X86204637Y-38506759D01*
X86360000Y-38274241D01*
X86515363Y-38506759D01*
X86715241Y-38706637D01*
X86950273Y-38863680D01*
X87211426Y-38971853D01*
X87488665Y-39027000D01*
X87771335Y-39027000D01*
X88048574Y-38971853D01*
X88309727Y-38863680D01*
X88544759Y-38706637D01*
X88744637Y-38506759D01*
X88900000Y-38274241D01*
X89055363Y-38506759D01*
X89255241Y-38706637D01*
X89490273Y-38863680D01*
X89751426Y-38971853D01*
X90028665Y-39027000D01*
X90311335Y-39027000D01*
X90588574Y-38971853D01*
X90849727Y-38863680D01*
X91084759Y-38706637D01*
X91284637Y-38506759D01*
X91440000Y-38274241D01*
X91595363Y-38506759D01*
X91795241Y-38706637D01*
X92030273Y-38863680D01*
X92291426Y-38971853D01*
X92568665Y-39027000D01*
X92851335Y-39027000D01*
X93128574Y-38971853D01*
X93389727Y-38863680D01*
X93624759Y-38706637D01*
X93824637Y-38506759D01*
X93981680Y-38271727D01*
X94089853Y-38010574D01*
X94145000Y-37733335D01*
X94145000Y-37450665D01*
X94089853Y-37173426D01*
X93981680Y-36912273D01*
X93824637Y-36677241D01*
X93624759Y-36477363D01*
X93389727Y-36320320D01*
X93128574Y-36212147D01*
X92851335Y-36157000D01*
X92568665Y-36157000D01*
X92291426Y-36212147D01*
X92030273Y-36320320D01*
X91795241Y-36477363D01*
X91595363Y-36677241D01*
X91440000Y-36909759D01*
X91284637Y-36677241D01*
X91084759Y-36477363D01*
X90849727Y-36320320D01*
X90588574Y-36212147D01*
X90311335Y-36157000D01*
X90028665Y-36157000D01*
X89751426Y-36212147D01*
X89490273Y-36320320D01*
X89255241Y-36477363D01*
X89055363Y-36677241D01*
X88900000Y-36909759D01*
X88744637Y-36677241D01*
X88544759Y-36477363D01*
X88309727Y-36320320D01*
X88048574Y-36212147D01*
X87771335Y-36157000D01*
X87488665Y-36157000D01*
X87211426Y-36212147D01*
X86950273Y-36320320D01*
X86715241Y-36477363D01*
X86515363Y-36677241D01*
X86360000Y-36909759D01*
X86204637Y-36677241D01*
X86004759Y-36477363D01*
X85769727Y-36320320D01*
X85508574Y-36212147D01*
X85231335Y-36157000D01*
X84948665Y-36157000D01*
X84671426Y-36212147D01*
X84410273Y-36320320D01*
X84175241Y-36477363D01*
X83975363Y-36677241D01*
X83820000Y-36909759D01*
X83664637Y-36677241D01*
X83464759Y-36477363D01*
X83229727Y-36320320D01*
X82968574Y-36212147D01*
X82691335Y-36157000D01*
X82408665Y-36157000D01*
X82131426Y-36212147D01*
X81870273Y-36320320D01*
X81635241Y-36477363D01*
X81435363Y-36677241D01*
X81280000Y-36909759D01*
X81124637Y-36677241D01*
X80924759Y-36477363D01*
X80689727Y-36320320D01*
X80428574Y-36212147D01*
X80151335Y-36157000D01*
X79868665Y-36157000D01*
X79591426Y-36212147D01*
X79330273Y-36320320D01*
X79095241Y-36477363D01*
X78895363Y-36677241D01*
X78740000Y-36909759D01*
X78584637Y-36677241D01*
X78384759Y-36477363D01*
X78149727Y-36320320D01*
X77888574Y-36212147D01*
X77611335Y-36157000D01*
X77328665Y-36157000D01*
X77051426Y-36212147D01*
X76790273Y-36320320D01*
X76555241Y-36477363D01*
X76355363Y-36677241D01*
X76200000Y-36909759D01*
X76044637Y-36677241D01*
X75844759Y-36477363D01*
X75609727Y-36320320D01*
X75348574Y-36212147D01*
X75071335Y-36157000D01*
X74788665Y-36157000D01*
X74511426Y-36212147D01*
X74250273Y-36320320D01*
X74015241Y-36477363D01*
X73815363Y-36677241D01*
X73660000Y-36909759D01*
X73504637Y-36677241D01*
X73304759Y-36477363D01*
X73069727Y-36320320D01*
X72808574Y-36212147D01*
X72531335Y-36157000D01*
X72248665Y-36157000D01*
X71971426Y-36212147D01*
X71710273Y-36320320D01*
X71475241Y-36477363D01*
X71275363Y-36677241D01*
X71120000Y-36909759D01*
X70964637Y-36677241D01*
X70764759Y-36477363D01*
X70529727Y-36320320D01*
X70268574Y-36212147D01*
X69991335Y-36157000D01*
X69708665Y-36157000D01*
X69431426Y-36212147D01*
X69170273Y-36320320D01*
X68935241Y-36477363D01*
X68735363Y-36677241D01*
X68580000Y-36909759D01*
X68424637Y-36677241D01*
X68224759Y-36477363D01*
X67989727Y-36320320D01*
X67728574Y-36212147D01*
X67451335Y-36157000D01*
X67168665Y-36157000D01*
X66891426Y-36212147D01*
X66630273Y-36320320D01*
X66395241Y-36477363D01*
X66195363Y-36677241D01*
X66040000Y-36909759D01*
X65884637Y-36677241D01*
X65684759Y-36477363D01*
X65449727Y-36320320D01*
X65188574Y-36212147D01*
X64911335Y-36157000D01*
X64628665Y-36157000D01*
X64351426Y-36212147D01*
X64090273Y-36320320D01*
X63855241Y-36477363D01*
X63655363Y-36677241D01*
X63500000Y-36909759D01*
X63344637Y-36677241D01*
X63144759Y-36477363D01*
X62909727Y-36320320D01*
X62648574Y-36212147D01*
X62371335Y-36157000D01*
X62088665Y-36157000D01*
X61811426Y-36212147D01*
X61550273Y-36320320D01*
X61315241Y-36477363D01*
X61115363Y-36677241D01*
X60960000Y-36909759D01*
X60804637Y-36677241D01*
X60604759Y-36477363D01*
X60369727Y-36320320D01*
X60108574Y-36212147D01*
X59831335Y-36157000D01*
X59548665Y-36157000D01*
X59271426Y-36212147D01*
X59010273Y-36320320D01*
X58775241Y-36477363D01*
X58575363Y-36677241D01*
X58420000Y-36909759D01*
X58264637Y-36677241D01*
X58064759Y-36477363D01*
X57829727Y-36320320D01*
X57568574Y-36212147D01*
X57291335Y-36157000D01*
X57008665Y-36157000D01*
X56731426Y-36212147D01*
X56470273Y-36320320D01*
X56235241Y-36477363D01*
X56035363Y-36677241D01*
X55880000Y-36909759D01*
X55724637Y-36677241D01*
X55524759Y-36477363D01*
X55289727Y-36320320D01*
X55028574Y-36212147D01*
X54751335Y-36157000D01*
X54468665Y-36157000D01*
X54191426Y-36212147D01*
X53930273Y-36320320D01*
X53695241Y-36477363D01*
X53495363Y-36677241D01*
X53340000Y-36909759D01*
X53184637Y-36677241D01*
X52984759Y-36477363D01*
X52749727Y-36320320D01*
X52488574Y-36212147D01*
X52211335Y-36157000D01*
X51928665Y-36157000D01*
X51651426Y-36212147D01*
X51390273Y-36320320D01*
X51155241Y-36477363D01*
X50955363Y-36677241D01*
X50800000Y-36909759D01*
X50644637Y-36677241D01*
X50444759Y-36477363D01*
X50209727Y-36320320D01*
X49948574Y-36212147D01*
X49671335Y-36157000D01*
X49388665Y-36157000D01*
X49111426Y-36212147D01*
X48850273Y-36320320D01*
X48615241Y-36477363D01*
X48415363Y-36677241D01*
X48260000Y-36909759D01*
X48104637Y-36677241D01*
X47904759Y-36477363D01*
X47669727Y-36320320D01*
X47408574Y-36212147D01*
X47131335Y-36157000D01*
X46848665Y-36157000D01*
X46571426Y-36212147D01*
X46310273Y-36320320D01*
X46075241Y-36477363D01*
X45875363Y-36677241D01*
X45720000Y-36909759D01*
X45564637Y-36677241D01*
X45364759Y-36477363D01*
X45129727Y-36320320D01*
X44868574Y-36212147D01*
X44591335Y-36157000D01*
X44308665Y-36157000D01*
X44031426Y-36212147D01*
X43770273Y-36320320D01*
X43535241Y-36477363D01*
X43335363Y-36677241D01*
X43180000Y-36909759D01*
X43024637Y-36677241D01*
X42824759Y-36477363D01*
X42589727Y-36320320D01*
X42328574Y-36212147D01*
X42051335Y-36157000D01*
X41768665Y-36157000D01*
X41491426Y-36212147D01*
X41230273Y-36320320D01*
X40995241Y-36477363D01*
X40795363Y-36677241D01*
X40640000Y-36909759D01*
X40484637Y-36677241D01*
X40284759Y-36477363D01*
X40049727Y-36320320D01*
X39788574Y-36212147D01*
X39511335Y-36157000D01*
X39228665Y-36157000D01*
X38951426Y-36212147D01*
X38690273Y-36320320D01*
X38455241Y-36477363D01*
X38255363Y-36677241D01*
X38099085Y-36911128D01*
X38066671Y-36850486D01*
X37822702Y-36778903D01*
X37009605Y-37592000D01*
X37822702Y-38405097D01*
X38066671Y-38333514D01*
X38097194Y-38269008D01*
X38098320Y-38271727D01*
X38255363Y-38506759D01*
X38455241Y-38706637D01*
X38690273Y-38863680D01*
X38951426Y-38971853D01*
X39228665Y-39027000D01*
X39511335Y-39027000D01*
X39788574Y-38971853D01*
X40049727Y-38863680D01*
X40284759Y-38706637D01*
X40484637Y-38506759D01*
X40640000Y-38274241D01*
X40795363Y-38506759D01*
X40995241Y-38706637D01*
X41230273Y-38863680D01*
X41491426Y-38971853D01*
X41768665Y-39027000D01*
X42051335Y-39027000D01*
X42328574Y-38971853D01*
X42589727Y-38863680D01*
X42824759Y-38706637D01*
X43024637Y-38506759D01*
X43180000Y-38274241D01*
X43335363Y-38506759D01*
X43535241Y-38706637D01*
X43770273Y-38863680D01*
X44031426Y-38971853D01*
X44308665Y-39027000D01*
X44591335Y-39027000D01*
X44868574Y-38971853D01*
X45129727Y-38863680D01*
X45364759Y-38706637D01*
X45564637Y-38506759D01*
X45720000Y-38274241D01*
X45875363Y-38506759D01*
X46075241Y-38706637D01*
X46310273Y-38863680D01*
X46571426Y-38971853D01*
X46848665Y-39027000D01*
X47131335Y-39027000D01*
X47408574Y-38971853D01*
X47669727Y-38863680D01*
X47904759Y-38706637D01*
X48104637Y-38506759D01*
X48260000Y-38274241D01*
X48415363Y-38506759D01*
X48615241Y-38706637D01*
X48850273Y-38863680D01*
X49111426Y-38971853D01*
X49388665Y-39027000D01*
X49671335Y-39027000D01*
X49948574Y-38971853D01*
X50209727Y-38863680D01*
X50444759Y-38706637D01*
X50644637Y-38506759D01*
X50800000Y-38274241D01*
X50955363Y-38506759D01*
X51155241Y-38706637D01*
X51390273Y-38863680D01*
X51651426Y-38971853D01*
X51928665Y-39027000D01*
X52211335Y-39027000D01*
X52488574Y-38971853D01*
X52749727Y-38863680D01*
X52984759Y-38706637D01*
X53184637Y-38506759D01*
X53340000Y-38274241D01*
X53495363Y-38506759D01*
X53695241Y-38706637D01*
X53930273Y-38863680D01*
X54191426Y-38971853D01*
X54468665Y-39027000D01*
X54751335Y-39027000D01*
X55028574Y-38971853D01*
X55289727Y-38863680D01*
X55524759Y-38706637D01*
X55724637Y-38506759D01*
X55880000Y-38274241D01*
X56035363Y-38506759D01*
X56235241Y-38706637D01*
X56470273Y-38863680D01*
X56731426Y-38971853D01*
X57008665Y-39027000D01*
X57291335Y-39027000D01*
X57568574Y-38971853D01*
X57829727Y-38863680D01*
X58064759Y-38706637D01*
X58264637Y-38506759D01*
X58420000Y-38274241D01*
X58575363Y-38506759D01*
X58775241Y-38706637D01*
X59010273Y-38863680D01*
X59271426Y-38971853D01*
X59548665Y-39027000D01*
X59831335Y-39027000D01*
X60108574Y-38971853D01*
X60369727Y-38863680D01*
X60604759Y-38706637D01*
X60804637Y-38506759D01*
X60960000Y-38274241D01*
X61115363Y-38506759D01*
X61315241Y-38706637D01*
X61550273Y-38863680D01*
X61811426Y-38971853D01*
X62088665Y-39027000D01*
X62371335Y-39027000D01*
X62648574Y-38971853D01*
X62909727Y-38863680D01*
X63144759Y-38706637D01*
X63344637Y-38506759D01*
X63500000Y-38274241D01*
X63655363Y-38506759D01*
X63855241Y-38706637D01*
X64090273Y-38863680D01*
X64351426Y-38971853D01*
X64628665Y-39027000D01*
X64911335Y-39027000D01*
X65188574Y-38971853D01*
X65449727Y-38863680D01*
X65684759Y-38706637D01*
X65884637Y-38506759D01*
X66040000Y-38274241D01*
X66195363Y-38506759D01*
X66395241Y-38706637D01*
X66421001Y-38723849D01*
X66421000Y-49669764D01*
X65458258Y-50632507D01*
X65424341Y-50660342D01*
X65396506Y-50694259D01*
X65396504Y-50694261D01*
X65313247Y-50795710D01*
X65230697Y-50950149D01*
X65179863Y-51117727D01*
X65162699Y-51292001D01*
X65167000Y-51335671D01*
X65167000Y-51447856D01*
X64911335Y-51397000D01*
X64628665Y-51397000D01*
X64351426Y-51452147D01*
X64090273Y-51560320D01*
X63855241Y-51717363D01*
X63655363Y-51917241D01*
X63500000Y-52149759D01*
X63344637Y-51917241D01*
X63144759Y-51717363D01*
X62909727Y-51560320D01*
X62648574Y-51452147D01*
X62371335Y-51397000D01*
X62088665Y-51397000D01*
X61811426Y-51452147D01*
X61550273Y-51560320D01*
X61315241Y-51717363D01*
X61115363Y-51917241D01*
X60960000Y-52149759D01*
X60804637Y-51917241D01*
X60604759Y-51717363D01*
X60369727Y-51560320D01*
X60108574Y-51452147D01*
X59831335Y-51397000D01*
X59548665Y-51397000D01*
X59271426Y-51452147D01*
X59010273Y-51560320D01*
X58775241Y-51717363D01*
X58575363Y-51917241D01*
X58420000Y-52149759D01*
X58264637Y-51917241D01*
X58064759Y-51717363D01*
X57829727Y-51560320D01*
X57568574Y-51452147D01*
X57291335Y-51397000D01*
X57008665Y-51397000D01*
X56731426Y-51452147D01*
X56470273Y-51560320D01*
X56235241Y-51717363D01*
X56035363Y-51917241D01*
X55880000Y-52149759D01*
X55724637Y-51917241D01*
X55524759Y-51717363D01*
X55289727Y-51560320D01*
X55028574Y-51452147D01*
X54751335Y-51397000D01*
X54468665Y-51397000D01*
X54191426Y-51452147D01*
X53930273Y-51560320D01*
X53695241Y-51717363D01*
X53495363Y-51917241D01*
X53340000Y-52149759D01*
X53184637Y-51917241D01*
X52984759Y-51717363D01*
X52749727Y-51560320D01*
X52488574Y-51452147D01*
X52211335Y-51397000D01*
X51928665Y-51397000D01*
X51651426Y-51452147D01*
X51390273Y-51560320D01*
X51155241Y-51717363D01*
X50955363Y-51917241D01*
X50800000Y-52149759D01*
X50644637Y-51917241D01*
X50444759Y-51717363D01*
X50209727Y-51560320D01*
X49948574Y-51452147D01*
X49671335Y-51397000D01*
X49388665Y-51397000D01*
X49111426Y-51452147D01*
X48850273Y-51560320D01*
X48615241Y-51717363D01*
X48415363Y-51917241D01*
X48260000Y-52149759D01*
X48104637Y-51917241D01*
X47904759Y-51717363D01*
X47669727Y-51560320D01*
X47408574Y-51452147D01*
X47131335Y-51397000D01*
X46848665Y-51397000D01*
X46571426Y-51452147D01*
X46310273Y-51560320D01*
X46075241Y-51717363D01*
X45875363Y-51917241D01*
X45720000Y-52149759D01*
X45564637Y-51917241D01*
X45364759Y-51717363D01*
X45129727Y-51560320D01*
X44868574Y-51452147D01*
X44591335Y-51397000D01*
X44308665Y-51397000D01*
X44031426Y-51452147D01*
X43770273Y-51560320D01*
X43535241Y-51717363D01*
X43335363Y-51917241D01*
X43180000Y-52149759D01*
X43024637Y-51917241D01*
X42824759Y-51717363D01*
X42589727Y-51560320D01*
X42328574Y-51452147D01*
X42051335Y-51397000D01*
X41768665Y-51397000D01*
X41491426Y-51452147D01*
X41230273Y-51560320D01*
X40995241Y-51717363D01*
X40795363Y-51917241D01*
X40640000Y-52149759D01*
X40484637Y-51917241D01*
X40284759Y-51717363D01*
X40049727Y-51560320D01*
X39788574Y-51452147D01*
X39511335Y-51397000D01*
X39228665Y-51397000D01*
X38951426Y-51452147D01*
X38690273Y-51560320D01*
X38455241Y-51717363D01*
X38255363Y-51917241D01*
X38100000Y-52149759D01*
X37944637Y-51917241D01*
X37744759Y-51717363D01*
X37509727Y-51560320D01*
X37248574Y-51452147D01*
X36971335Y-51397000D01*
X36688665Y-51397000D01*
X36411426Y-51452147D01*
X36150273Y-51560320D01*
X35915241Y-51717363D01*
X35716643Y-51915961D01*
X35715812Y-51907518D01*
X35679502Y-51787820D01*
X35620537Y-51677506D01*
X35541185Y-51580815D01*
X35444494Y-51501463D01*
X35334180Y-51442498D01*
X35214482Y-51406188D01*
X35090000Y-51393928D01*
X33490000Y-51393928D01*
X33365518Y-51406188D01*
X33245820Y-51442498D01*
X33135506Y-51501463D01*
X33038815Y-51580815D01*
X32959463Y-51677506D01*
X32900498Y-51787820D01*
X32864188Y-51907518D01*
X32851928Y-52032000D01*
X19431000Y-52032000D01*
X19431000Y-45495200D01*
X26221215Y-45495200D01*
X26249887Y-45786311D01*
X26334801Y-46066234D01*
X26472694Y-46324214D01*
X26658266Y-46550334D01*
X26884386Y-46735906D01*
X26901774Y-46745200D01*
X26884386Y-46754494D01*
X26658266Y-46940066D01*
X26472694Y-47166186D01*
X26334801Y-47424166D01*
X26249887Y-47704089D01*
X26221215Y-47995200D01*
X26249887Y-48286311D01*
X26334801Y-48566234D01*
X26472694Y-48824214D01*
X26658266Y-49050334D01*
X26721737Y-49102423D01*
X26620014Y-49156795D01*
X26485438Y-49267238D01*
X26374995Y-49401814D01*
X26292928Y-49555350D01*
X26242392Y-49721946D01*
X26225328Y-49895200D01*
X26225328Y-51095200D01*
X26242392Y-51268454D01*
X26292928Y-51435050D01*
X26374995Y-51588586D01*
X26485438Y-51723162D01*
X26620014Y-51833605D01*
X26773550Y-51915672D01*
X26940146Y-51966208D01*
X27113400Y-51983272D01*
X28563400Y-51983272D01*
X28736654Y-51966208D01*
X28903250Y-51915672D01*
X29056786Y-51833605D01*
X29191362Y-51723162D01*
X29301805Y-51588586D01*
X29383872Y-51435050D01*
X29434408Y-51268454D01*
X29451472Y-51095200D01*
X29451472Y-49895200D01*
X29434408Y-49721946D01*
X29383872Y-49555350D01*
X29301805Y-49401814D01*
X29191362Y-49267238D01*
X29056786Y-49156795D01*
X28955063Y-49102423D01*
X29018534Y-49050334D01*
X29204106Y-48824214D01*
X29226424Y-48782460D01*
X29309691Y-48737953D01*
X29445059Y-48626859D01*
X29472899Y-48592937D01*
X30052636Y-48013200D01*
X32866114Y-48013200D01*
X32909774Y-48017500D01*
X32953434Y-48013200D01*
X32953441Y-48013200D01*
X33084048Y-48000336D01*
X33251625Y-47949503D01*
X33406065Y-47866953D01*
X33541433Y-47755859D01*
X33569272Y-47721937D01*
X33920210Y-47371000D01*
X34091735Y-47371000D01*
X34200860Y-47480125D01*
X34411324Y-47620753D01*
X34645179Y-47717619D01*
X34893439Y-47767000D01*
X35146561Y-47767000D01*
X35394821Y-47717619D01*
X35628676Y-47620753D01*
X35839140Y-47480125D01*
X36018125Y-47301140D01*
X36158753Y-47090676D01*
X36255619Y-46856821D01*
X36305000Y-46608561D01*
X36305000Y-46355439D01*
X36255619Y-46107179D01*
X36158753Y-45873324D01*
X36018125Y-45662860D01*
X35839140Y-45483875D01*
X35628676Y-45343247D01*
X35394821Y-45246381D01*
X35221973Y-45212000D01*
X35394821Y-45177619D01*
X35628676Y-45080753D01*
X35839140Y-44940125D01*
X36018125Y-44761140D01*
X36158753Y-44550676D01*
X36255619Y-44316821D01*
X36305000Y-44068561D01*
X36305000Y-43815439D01*
X36255619Y-43567179D01*
X36158753Y-43333324D01*
X36018125Y-43122860D01*
X35839140Y-42943875D01*
X35628676Y-42803247D01*
X35394821Y-42706381D01*
X35146561Y-42657000D01*
X34893439Y-42657000D01*
X34645179Y-42706381D01*
X34411324Y-42803247D01*
X34200860Y-42943875D01*
X34021875Y-43122860D01*
X33881247Y-43333324D01*
X33784381Y-43567179D01*
X33735000Y-43815439D01*
X33735000Y-43969764D01*
X32418246Y-45286519D01*
X32227565Y-45477200D01*
X30052636Y-45477200D01*
X29472899Y-44897463D01*
X29445059Y-44863541D01*
X29309691Y-44752447D01*
X29226424Y-44707940D01*
X29204106Y-44666186D01*
X29018534Y-44440066D01*
X28792414Y-44254494D01*
X28766678Y-44240738D01*
X28972829Y-44084249D01*
X29165896Y-43866393D01*
X29312752Y-43615058D01*
X29404876Y-43352090D01*
X29283555Y-43122200D01*
X27965400Y-43122200D01*
X27965400Y-43142200D01*
X27711400Y-43142200D01*
X27711400Y-43122200D01*
X26393245Y-43122200D01*
X26271924Y-43352090D01*
X26364048Y-43615058D01*
X26510904Y-43866393D01*
X26703971Y-44084249D01*
X26910122Y-44240738D01*
X26884386Y-44254494D01*
X26658266Y-44440066D01*
X26472694Y-44666186D01*
X26334801Y-44924166D01*
X26249887Y-45204089D01*
X26221215Y-45495200D01*
X19431000Y-45495200D01*
X19431000Y-42638310D01*
X26271924Y-42638310D01*
X26393245Y-42868200D01*
X27711400Y-42868200D01*
X27711400Y-41669035D01*
X27965400Y-41669035D01*
X27965400Y-42868200D01*
X29283555Y-42868200D01*
X29404876Y-42638310D01*
X29312752Y-42375342D01*
X29165896Y-42124007D01*
X28972829Y-41906151D01*
X28740970Y-41730147D01*
X28479230Y-41602758D01*
X28197667Y-41528880D01*
X27965400Y-41669035D01*
X27711400Y-41669035D01*
X27479133Y-41528880D01*
X27197570Y-41602758D01*
X26935830Y-41730147D01*
X26703971Y-41906151D01*
X26510904Y-42124007D01*
X26364048Y-42375342D01*
X26271924Y-42638310D01*
X19431000Y-42638310D01*
X19431000Y-39990665D01*
X35395000Y-39990665D01*
X35395000Y-40273335D01*
X35450147Y-40550574D01*
X35558320Y-40811727D01*
X35715363Y-41046759D01*
X35915241Y-41246637D01*
X36150273Y-41403680D01*
X36411426Y-41511853D01*
X36688665Y-41567000D01*
X36971335Y-41567000D01*
X37248574Y-41511853D01*
X37509727Y-41403680D01*
X37744759Y-41246637D01*
X37944637Y-41046759D01*
X38101680Y-40811727D01*
X38209853Y-40550574D01*
X38265000Y-40273335D01*
X38265000Y-39990665D01*
X38209853Y-39713426D01*
X38101680Y-39452273D01*
X37944637Y-39217241D01*
X37744759Y-39017363D01*
X37510872Y-38861085D01*
X37571514Y-38828671D01*
X37643097Y-38584702D01*
X36830000Y-37771605D01*
X36016903Y-38584702D01*
X36088486Y-38828671D01*
X36152992Y-38859194D01*
X36150273Y-38860320D01*
X35915241Y-39017363D01*
X35715363Y-39217241D01*
X35558320Y-39452273D01*
X35450147Y-39713426D01*
X35395000Y-39990665D01*
X19431000Y-39990665D01*
X19431000Y-37450665D01*
X32855000Y-37450665D01*
X32855000Y-37733335D01*
X32910147Y-38010574D01*
X33018320Y-38271727D01*
X33175363Y-38506759D01*
X33375241Y-38706637D01*
X33610273Y-38863680D01*
X33871426Y-38971853D01*
X34148665Y-39027000D01*
X34431335Y-39027000D01*
X34708574Y-38971853D01*
X34969727Y-38863680D01*
X35204759Y-38706637D01*
X35404637Y-38506759D01*
X35560915Y-38272872D01*
X35593329Y-38333514D01*
X35837298Y-38405097D01*
X36650395Y-37592000D01*
X35837298Y-36778903D01*
X35593329Y-36850486D01*
X35562806Y-36914992D01*
X35561680Y-36912273D01*
X35404637Y-36677241D01*
X35326694Y-36599298D01*
X36016903Y-36599298D01*
X36830000Y-37412395D01*
X37643097Y-36599298D01*
X37571514Y-36355329D01*
X37316004Y-36234429D01*
X37041816Y-36165700D01*
X36759488Y-36151783D01*
X36479870Y-36193213D01*
X36213708Y-36288397D01*
X36088486Y-36355329D01*
X36016903Y-36599298D01*
X35326694Y-36599298D01*
X35204759Y-36477363D01*
X34969727Y-36320320D01*
X34708574Y-36212147D01*
X34431335Y-36157000D01*
X34148665Y-36157000D01*
X33871426Y-36212147D01*
X33610273Y-36320320D01*
X33375241Y-36477363D01*
X33175363Y-36677241D01*
X33018320Y-36912273D01*
X32910147Y-37173426D01*
X32855000Y-37450665D01*
X19431000Y-37450665D01*
X19431000Y-30263000D01*
X75981928Y-30263000D01*
X75981928Y-31713000D01*
X75998992Y-31886254D01*
X76049528Y-32052850D01*
X76131595Y-32206386D01*
X76242038Y-32340962D01*
X76376614Y-32451405D01*
X76530150Y-32533472D01*
X76696746Y-32584008D01*
X76870000Y-32601072D01*
X78070000Y-32601072D01*
X78243254Y-32584008D01*
X78409850Y-32533472D01*
X78563386Y-32451405D01*
X78697962Y-32340962D01*
X78808405Y-32206386D01*
X78864714Y-32101039D01*
X78880951Y-32122429D01*
X79098807Y-32315496D01*
X79350142Y-32462352D01*
X79613110Y-32554476D01*
X79843000Y-32433155D01*
X79843000Y-31115000D01*
X79823000Y-31115000D01*
X79823000Y-30861000D01*
X79843000Y-30861000D01*
X79843000Y-29542845D01*
X80097000Y-29542845D01*
X80097000Y-30861000D01*
X80117000Y-30861000D01*
X80117000Y-31115000D01*
X80097000Y-31115000D01*
X80097000Y-32433155D01*
X80326890Y-32554476D01*
X80589858Y-32462352D01*
X80841193Y-32315496D01*
X81059049Y-32122429D01*
X81215538Y-31916278D01*
X81229294Y-31942014D01*
X81414866Y-32168134D01*
X81640987Y-32353706D01*
X81898967Y-32491599D01*
X82178890Y-32576513D01*
X82470000Y-32605185D01*
X82761111Y-32576513D01*
X83041034Y-32491599D01*
X83299014Y-32353706D01*
X83525134Y-32168134D01*
X83710706Y-31942014D01*
X83720000Y-31924626D01*
X83729294Y-31942014D01*
X83914866Y-32168134D01*
X84140987Y-32353706D01*
X84398967Y-32491599D01*
X84678890Y-32576513D01*
X84970000Y-32605185D01*
X85261111Y-32576513D01*
X85541034Y-32491599D01*
X85799014Y-32353706D01*
X86025134Y-32168134D01*
X86210706Y-31942014D01*
X86220000Y-31924626D01*
X86229294Y-31942014D01*
X86414866Y-32168134D01*
X86640987Y-32353706D01*
X86898967Y-32491599D01*
X87178890Y-32576513D01*
X87470000Y-32605185D01*
X87761111Y-32576513D01*
X88041034Y-32491599D01*
X88299014Y-32353706D01*
X88525134Y-32168134D01*
X88710706Y-31942014D01*
X88720000Y-31924626D01*
X88729294Y-31942014D01*
X88914866Y-32168134D01*
X89140987Y-32353706D01*
X89398967Y-32491599D01*
X89678890Y-32576513D01*
X89970000Y-32605185D01*
X90261111Y-32576513D01*
X90541034Y-32491599D01*
X90799014Y-32353706D01*
X91025134Y-32168134D01*
X91210706Y-31942014D01*
X91220000Y-31924626D01*
X91229294Y-31942014D01*
X91414866Y-32168134D01*
X91640987Y-32353706D01*
X91898967Y-32491599D01*
X92178890Y-32576513D01*
X92470000Y-32605185D01*
X92761111Y-32576513D01*
X93041034Y-32491599D01*
X93299014Y-32353706D01*
X93525134Y-32168134D01*
X93710706Y-31942014D01*
X93848599Y-31684033D01*
X93933513Y-31404110D01*
X93955000Y-31185949D01*
X93955000Y-30790050D01*
X93933513Y-30571889D01*
X93848599Y-30291966D01*
X93710706Y-30033986D01*
X93525134Y-29807866D01*
X93299013Y-29622294D01*
X93041033Y-29484401D01*
X92761110Y-29399487D01*
X92470000Y-29370815D01*
X92178889Y-29399487D01*
X91898966Y-29484401D01*
X91640986Y-29622294D01*
X91414866Y-29807866D01*
X91229294Y-30033987D01*
X91220000Y-30051374D01*
X91210706Y-30033986D01*
X91025134Y-29807866D01*
X90799013Y-29622294D01*
X90541033Y-29484401D01*
X90261110Y-29399487D01*
X89970000Y-29370815D01*
X89678889Y-29399487D01*
X89398966Y-29484401D01*
X89140986Y-29622294D01*
X88914866Y-29807866D01*
X88729294Y-30033987D01*
X88720000Y-30051374D01*
X88710706Y-30033986D01*
X88525134Y-29807866D01*
X88299013Y-29622294D01*
X88041033Y-29484401D01*
X87761110Y-29399487D01*
X87470000Y-29370815D01*
X87178889Y-29399487D01*
X86898966Y-29484401D01*
X86640986Y-29622294D01*
X86414866Y-29807866D01*
X86229294Y-30033987D01*
X86220000Y-30051374D01*
X86210706Y-30033986D01*
X86025134Y-29807866D01*
X85799013Y-29622294D01*
X85541033Y-29484401D01*
X85261110Y-29399487D01*
X84970000Y-29370815D01*
X84678889Y-29399487D01*
X84398966Y-29484401D01*
X84140986Y-29622294D01*
X83914866Y-29807866D01*
X83729294Y-30033987D01*
X83720000Y-30051374D01*
X83710706Y-30033986D01*
X83525134Y-29807866D01*
X83299013Y-29622294D01*
X83041033Y-29484401D01*
X82761110Y-29399487D01*
X82470000Y-29370815D01*
X82178889Y-29399487D01*
X81898966Y-29484401D01*
X81640986Y-29622294D01*
X81414866Y-29807866D01*
X81229294Y-30033987D01*
X81215538Y-30059722D01*
X81059049Y-29853571D01*
X80841193Y-29660504D01*
X80589858Y-29513648D01*
X80326890Y-29421524D01*
X80097000Y-29542845D01*
X79843000Y-29542845D01*
X79613110Y-29421524D01*
X79350142Y-29513648D01*
X79098807Y-29660504D01*
X78880951Y-29853571D01*
X78864714Y-29874961D01*
X78808405Y-29769614D01*
X78697962Y-29635038D01*
X78563386Y-29524595D01*
X78409850Y-29442528D01*
X78243254Y-29391992D01*
X78070000Y-29374928D01*
X76870000Y-29374928D01*
X76696746Y-29391992D01*
X76530150Y-29442528D01*
X76376614Y-29524595D01*
X76242038Y-29635038D01*
X76131595Y-29769614D01*
X76049528Y-29923150D01*
X75998992Y-30089746D01*
X75981928Y-30263000D01*
X19431000Y-30263000D01*
X19431000Y-24311000D01*
X99011290Y-24311000D01*
X99134976Y-24513400D01*
X100152200Y-24513400D01*
X100152200Y-23495315D01*
X100406200Y-23495315D01*
X100406200Y-24513400D01*
X101423424Y-24513400D01*
X101547110Y-24311000D01*
X101516438Y-24209872D01*
X101408673Y-23976771D01*
X101257503Y-23769173D01*
X101068737Y-23595056D01*
X100849630Y-23461111D01*
X100608601Y-23372485D01*
X100406200Y-23495315D01*
X100152200Y-23495315D01*
X99949799Y-23372485D01*
X99708770Y-23461111D01*
X99489663Y-23595056D01*
X99300897Y-23769173D01*
X99149727Y-23976771D01*
X99041962Y-24209872D01*
X99011290Y-24311000D01*
X19431000Y-24311000D01*
X19431000Y-17700639D01*
X19440516Y-17702803D01*
X19456471Y-17703800D01*
X110617000Y-17653071D01*
X110617000Y-96901000D01*
G37*
%TD.AperFunction*%
%TD*%
M02*
