%TF.GenerationSoftware,KiCad,Pcbnew,(5.1.9)-1*%
%TF.CreationDate,2021-07-27T18:32:56+10:00*%
%TF.ProjectId,RedPyKeeb_MCU,52656450-794b-4656-9562-5f4d43552e6b,rev?*%
%TF.SameCoordinates,Original*%
%TF.FileFunction,Other,User*%
%FSLAX46Y46*%
G04 Gerber Fmt 4.6, Leading zero omitted, Abs format (unit mm)*
G04 Created by KiCad (PCBNEW (5.1.9)-1) date 2021-07-27 18:32:56*
%MOMM*%
%LPD*%
G01*
G04 APERTURE LIST*
%ADD10C,0.050000*%
G04 APERTURE END LIST*
D10*
%TO.C,R1*%
X62803200Y-62874400D02*
X62803200Y-58174400D01*
X62803200Y-62874400D02*
X64603200Y-62874400D01*
X64603200Y-58174400D02*
X62803200Y-58174400D01*
X64603200Y-58174400D02*
X64603200Y-62874400D01*
%TO.C,U1*%
X74988800Y-56447200D02*
X65828800Y-56447200D01*
X65828800Y-56447200D02*
X65828800Y-63847200D01*
X65828800Y-63847200D02*
X74988800Y-63847200D01*
X74988800Y-63847200D02*
X74988800Y-56447200D01*
%TO.C,J2*%
X95470000Y-23788000D02*
X74470000Y-23788000D01*
X95470000Y-32988000D02*
X95470000Y-23788000D01*
X74470000Y-32988000D02*
X95470000Y-32988000D01*
X74470000Y-23788000D02*
X74470000Y-32988000D01*
%TO.C,J0*%
X20638400Y-39995200D02*
X20638400Y-53495200D01*
X29838400Y-39995200D02*
X20638400Y-39995200D01*
X29838400Y-53495200D02*
X29838400Y-39995200D01*
X20638400Y-53495200D02*
X29838400Y-53495200D01*
%TO.C,C1*%
X75169200Y-60858000D02*
X77129200Y-60858000D01*
X77129200Y-60858000D02*
X77129200Y-64618000D01*
X77129200Y-64618000D02*
X75169200Y-64618000D01*
X75169200Y-64618000D02*
X75169200Y-60858000D01*
%TO.C,C2*%
X77129200Y-56946400D02*
X77129200Y-60706400D01*
X75169200Y-56946400D02*
X77129200Y-56946400D01*
X75169200Y-60706400D02*
X75169200Y-56946400D01*
X77129200Y-60706400D02*
X75169200Y-60706400D01*
%TD*%
M02*
