%TF.GenerationSoftware,KiCad,Pcbnew,(5.1.9)-1*%
%TF.CreationDate,2021-05-12T01:56:05+10:00*%
%TF.ProjectId,RedPyKeeb_MCU,52656450-794b-4656-9562-5f4d43552e6b,rev?*%
%TF.SameCoordinates,Original*%
%TF.FileFunction,Copper,L1,Top*%
%TF.FilePolarity,Positive*%
%FSLAX46Y46*%
G04 Gerber Fmt 4.6, Leading zero omitted, Abs format (unit mm)*
G04 Created by KiCad (PCBNEW (5.1.9)-1) date 2021-05-12 01:56:05*
%MOMM*%
%LPD*%
G01*
G04 APERTURE LIST*
%TA.AperFunction,ComponentPad*%
%ADD10C,1.300000*%
%TD*%
%TA.AperFunction,ComponentPad*%
%ADD11C,1.600000*%
%TD*%
%TA.AperFunction,ComponentPad*%
%ADD12R,1.300000X1.300000*%
%TD*%
%TA.AperFunction,ComponentPad*%
%ADD13R,1.600000X1.600000*%
%TD*%
%TA.AperFunction,ComponentPad*%
%ADD14O,1.700000X1.950000*%
%TD*%
%TA.AperFunction,ComponentPad*%
%ADD15O,1.950000X1.700000*%
%TD*%
%TA.AperFunction,ComponentPad*%
%ADD16R,1.350000X1.350000*%
%TD*%
%TA.AperFunction,ComponentPad*%
%ADD17O,1.350000X1.350000*%
%TD*%
%TA.AperFunction,ViaPad*%
%ADD18C,0.800000*%
%TD*%
%TA.AperFunction,Conductor*%
%ADD19C,0.508000*%
%TD*%
G04 APERTURE END LIST*
%TO.P,U1,14*%
%TO.N,MAIN_VBUS*%
%TA.AperFunction,SMDPad,CuDef*%
G36*
G01*
X72646400Y-55043200D02*
X72946400Y-55043200D01*
G75*
G02*
X73096400Y-55193200I0J-150000D01*
G01*
X73096400Y-56843200D01*
G75*
G02*
X72946400Y-56993200I-150000J0D01*
G01*
X72646400Y-56993200D01*
G75*
G02*
X72496400Y-56843200I0J150000D01*
G01*
X72496400Y-55193200D01*
G75*
G02*
X72646400Y-55043200I150000J0D01*
G01*
G37*
%TD.AperFunction*%
%TO.P,U1,13*%
%TO.N,LED_SDA_STATUS0*%
%TA.AperFunction,SMDPad,CuDef*%
G36*
G01*
X71376400Y-55043200D02*
X71676400Y-55043200D01*
G75*
G02*
X71826400Y-55193200I0J-150000D01*
G01*
X71826400Y-56843200D01*
G75*
G02*
X71676400Y-56993200I-150000J0D01*
G01*
X71376400Y-56993200D01*
G75*
G02*
X71226400Y-56843200I0J150000D01*
G01*
X71226400Y-55193200D01*
G75*
G02*
X71376400Y-55043200I150000J0D01*
G01*
G37*
%TD.AperFunction*%
%TO.P,U1,12*%
%TO.N,LED_SCL_STATUS0*%
%TA.AperFunction,SMDPad,CuDef*%
G36*
G01*
X70106400Y-55043200D02*
X70406400Y-55043200D01*
G75*
G02*
X70556400Y-55193200I0J-150000D01*
G01*
X70556400Y-56843200D01*
G75*
G02*
X70406400Y-56993200I-150000J0D01*
G01*
X70106400Y-56993200D01*
G75*
G02*
X69956400Y-56843200I0J150000D01*
G01*
X69956400Y-55193200D01*
G75*
G02*
X70106400Y-55043200I150000J0D01*
G01*
G37*
%TD.AperFunction*%
%TO.P,U1,11*%
%TO.N,LED_SDA_ROW0*%
%TA.AperFunction,SMDPad,CuDef*%
G36*
G01*
X68836400Y-55043200D02*
X69136400Y-55043200D01*
G75*
G02*
X69286400Y-55193200I0J-150000D01*
G01*
X69286400Y-56843200D01*
G75*
G02*
X69136400Y-56993200I-150000J0D01*
G01*
X68836400Y-56993200D01*
G75*
G02*
X68686400Y-56843200I0J150000D01*
G01*
X68686400Y-55193200D01*
G75*
G02*
X68836400Y-55043200I150000J0D01*
G01*
G37*
%TD.AperFunction*%
%TO.P,U1,10*%
%TO.N,LED_SCL_ROW0*%
%TA.AperFunction,SMDPad,CuDef*%
G36*
G01*
X67566400Y-55043200D02*
X67866400Y-55043200D01*
G75*
G02*
X68016400Y-55193200I0J-150000D01*
G01*
X68016400Y-56843200D01*
G75*
G02*
X67866400Y-56993200I-150000J0D01*
G01*
X67566400Y-56993200D01*
G75*
G02*
X67416400Y-56843200I0J150000D01*
G01*
X67416400Y-55193200D01*
G75*
G02*
X67566400Y-55043200I150000J0D01*
G01*
G37*
%TD.AperFunction*%
%TO.P,U1,9*%
%TO.N,N/C*%
%TA.AperFunction,SMDPad,CuDef*%
G36*
G01*
X66296400Y-55043200D02*
X66596400Y-55043200D01*
G75*
G02*
X66746400Y-55193200I0J-150000D01*
G01*
X66746400Y-56843200D01*
G75*
G02*
X66596400Y-56993200I-150000J0D01*
G01*
X66296400Y-56993200D01*
G75*
G02*
X66146400Y-56843200I0J150000D01*
G01*
X66146400Y-55193200D01*
G75*
G02*
X66296400Y-55043200I150000J0D01*
G01*
G37*
%TD.AperFunction*%
%TO.P,U1,8*%
%TO.N,33_REF*%
%TA.AperFunction,SMDPad,CuDef*%
G36*
G01*
X65026400Y-55043200D02*
X65326400Y-55043200D01*
G75*
G02*
X65476400Y-55193200I0J-150000D01*
G01*
X65476400Y-56843200D01*
G75*
G02*
X65326400Y-56993200I-150000J0D01*
G01*
X65026400Y-56993200D01*
G75*
G02*
X64876400Y-56843200I0J150000D01*
G01*
X64876400Y-55193200D01*
G75*
G02*
X65026400Y-55043200I150000J0D01*
G01*
G37*
%TD.AperFunction*%
%TO.P,U1,7*%
%TO.N,GNDPWR*%
%TA.AperFunction,SMDPad,CuDef*%
G36*
G01*
X65026400Y-50093200D02*
X65326400Y-50093200D01*
G75*
G02*
X65476400Y-50243200I0J-150000D01*
G01*
X65476400Y-51893200D01*
G75*
G02*
X65326400Y-52043200I-150000J0D01*
G01*
X65026400Y-52043200D01*
G75*
G02*
X64876400Y-51893200I0J150000D01*
G01*
X64876400Y-50243200D01*
G75*
G02*
X65026400Y-50093200I150000J0D01*
G01*
G37*
%TD.AperFunction*%
%TO.P,U1,6*%
%TO.N,N/C*%
%TA.AperFunction,SMDPad,CuDef*%
G36*
G01*
X66296400Y-50093200D02*
X66596400Y-50093200D01*
G75*
G02*
X66746400Y-50243200I0J-150000D01*
G01*
X66746400Y-51893200D01*
G75*
G02*
X66596400Y-52043200I-150000J0D01*
G01*
X66296400Y-52043200D01*
G75*
G02*
X66146400Y-51893200I0J150000D01*
G01*
X66146400Y-50243200D01*
G75*
G02*
X66296400Y-50093200I150000J0D01*
G01*
G37*
%TD.AperFunction*%
%TO.P,U1,5*%
%TO.N,LED_SCL_ROW0_MCU*%
%TA.AperFunction,SMDPad,CuDef*%
G36*
G01*
X67566400Y-50093200D02*
X67866400Y-50093200D01*
G75*
G02*
X68016400Y-50243200I0J-150000D01*
G01*
X68016400Y-51893200D01*
G75*
G02*
X67866400Y-52043200I-150000J0D01*
G01*
X67566400Y-52043200D01*
G75*
G02*
X67416400Y-51893200I0J150000D01*
G01*
X67416400Y-50243200D01*
G75*
G02*
X67566400Y-50093200I150000J0D01*
G01*
G37*
%TD.AperFunction*%
%TO.P,U1,4*%
%TO.N,LED_SDA_ROW0_MCU*%
%TA.AperFunction,SMDPad,CuDef*%
G36*
G01*
X68836400Y-50093200D02*
X69136400Y-50093200D01*
G75*
G02*
X69286400Y-50243200I0J-150000D01*
G01*
X69286400Y-51893200D01*
G75*
G02*
X69136400Y-52043200I-150000J0D01*
G01*
X68836400Y-52043200D01*
G75*
G02*
X68686400Y-51893200I0J150000D01*
G01*
X68686400Y-50243200D01*
G75*
G02*
X68836400Y-50093200I150000J0D01*
G01*
G37*
%TD.AperFunction*%
%TO.P,U1,3*%
%TO.N,LED_SCL_STATUS0_MCU*%
%TA.AperFunction,SMDPad,CuDef*%
G36*
G01*
X70106400Y-50093200D02*
X70406400Y-50093200D01*
G75*
G02*
X70556400Y-50243200I0J-150000D01*
G01*
X70556400Y-51893200D01*
G75*
G02*
X70406400Y-52043200I-150000J0D01*
G01*
X70106400Y-52043200D01*
G75*
G02*
X69956400Y-51893200I0J150000D01*
G01*
X69956400Y-50243200D01*
G75*
G02*
X70106400Y-50093200I150000J0D01*
G01*
G37*
%TD.AperFunction*%
%TO.P,U1,2*%
%TO.N,LED_SDA_STATUS0_MCU*%
%TA.AperFunction,SMDPad,CuDef*%
G36*
G01*
X71376400Y-50093200D02*
X71676400Y-50093200D01*
G75*
G02*
X71826400Y-50243200I0J-150000D01*
G01*
X71826400Y-51893200D01*
G75*
G02*
X71676400Y-52043200I-150000J0D01*
G01*
X71376400Y-52043200D01*
G75*
G02*
X71226400Y-51893200I0J150000D01*
G01*
X71226400Y-50243200D01*
G75*
G02*
X71376400Y-50093200I150000J0D01*
G01*
G37*
%TD.AperFunction*%
%TO.P,U1,1*%
%TO.N,33_REF*%
%TA.AperFunction,SMDPad,CuDef*%
G36*
G01*
X72646400Y-50093200D02*
X72946400Y-50093200D01*
G75*
G02*
X73096400Y-50243200I0J-150000D01*
G01*
X73096400Y-51893200D01*
G75*
G02*
X72946400Y-52043200I-150000J0D01*
G01*
X72646400Y-52043200D01*
G75*
G02*
X72496400Y-51893200I0J150000D01*
G01*
X72496400Y-50243200D01*
G75*
G02*
X72646400Y-50093200I150000J0D01*
G01*
G37*
%TD.AperFunction*%
%TD*%
D10*
%TO.P,U0,66*%
%TO.N,USB_DN*%
X33597600Y-37338000D03*
%TO.P,U0,67*%
%TO.N,USB_DP*%
X33597600Y-39878000D03*
D11*
%TO.P,U0,54*%
%TO.N,N/C*%
X78587600Y-33528000D03*
%TO.P,U0,53*%
X78587600Y-36068000D03*
%TO.P,U0,52*%
X78587600Y-38608000D03*
%TO.P,U0,51*%
X78587600Y-41148000D03*
%TO.P,U0,50*%
X78587600Y-43688000D03*
D10*
%TO.P,U0,62*%
X45837600Y-37426400D03*
%TO.P,U0,63*%
X47837600Y-37426400D03*
%TO.P,U0,64*%
X47837600Y-35426400D03*
%TO.P,U0,61*%
X45837600Y-35426400D03*
%TO.P,U0,65*%
X47837600Y-33426400D03*
D12*
%TO.P,U0,60*%
X45837600Y-33426400D03*
D11*
%TO.P,U0,17*%
%TO.N,LED_SDA_STATUS0_MCU*%
X73507600Y-46228000D03*
%TO.P,U0,18*%
%TO.N,KEY_COL14*%
X76047600Y-46228000D03*
%TO.P,U0,19*%
%TO.N,KEY_COL15*%
X78587600Y-46228000D03*
%TO.P,U0,20*%
%TO.N,KEY_COL16*%
X81127600Y-46228000D03*
%TO.P,U0,16*%
%TO.N,LED_SCL_STATUS0_MCU*%
X70967600Y-46228000D03*
%TO.P,U0,15*%
%TO.N,33_REF*%
X68427600Y-46228000D03*
%TO.P,U0,14*%
%TO.N,N/C*%
X65887600Y-46228000D03*
%TO.P,U0,21*%
%TO.N,KEY_COL17*%
X83667600Y-46228000D03*
%TO.P,U0,22*%
%TO.N,KEY_COL18*%
X86207600Y-46228000D03*
%TO.P,U0,23*%
%TO.N,KEY_COL19*%
X88747600Y-46228000D03*
%TO.P,U0,24*%
%TO.N,KEY_COL20*%
X91287600Y-46228000D03*
%TO.P,U0,25*%
%TO.N,N/C*%
X91287600Y-30988000D03*
%TO.P,U0,26*%
X88747600Y-30988000D03*
%TO.P,U0,27*%
X86207600Y-30988000D03*
%TO.P,U0,28*%
X83667600Y-30988000D03*
%TO.P,U0,29*%
X81127600Y-30988000D03*
%TO.P,U0,30*%
X78587600Y-30988000D03*
%TO.P,U0,31*%
X76047600Y-30988000D03*
%TO.P,U0,32*%
X73507600Y-30988000D03*
%TO.P,U0,33*%
X70967600Y-30988000D03*
%TO.P,U0,34*%
X68427600Y-30988000D03*
%TO.P,U0,13*%
%TO.N,LED_SDA_ROW0_MCU*%
X63347600Y-46228000D03*
%TO.P,U0,12*%
%TO.N,KEY_COL3*%
X60807600Y-46228000D03*
%TO.P,U0,11*%
%TO.N,KEY_COL2*%
X58267600Y-46228000D03*
%TO.P,U0,10*%
%TO.N,KEY_COL1*%
X55727600Y-46228000D03*
%TO.P,U0,9*%
%TO.N,KEY_COL0*%
X53187600Y-46228000D03*
%TO.P,U0,8*%
%TO.N,KEY_ROW6*%
X50647600Y-46228000D03*
%TO.P,U0,7*%
%TO.N,KEY_ROW5*%
X48107600Y-46228000D03*
%TO.P,U0,6*%
%TO.N,KEY_ROW4*%
X45567600Y-46228000D03*
%TO.P,U0,5*%
%TO.N,KEY_ROW3*%
X43027600Y-46228000D03*
%TO.P,U0,4*%
%TO.N,KEY_ROW2*%
X40487600Y-46228000D03*
%TO.P,U0,3*%
%TO.N,KEY_ROW1*%
X37947600Y-46228000D03*
%TO.P,U0,2*%
%TO.N,KEY_ROW0*%
X35407600Y-46228000D03*
D13*
%TO.P,U0,1*%
%TO.N,N/C*%
X32867600Y-46228000D03*
D11*
%TO.P,U0,35*%
%TO.N,LED_SCL_ROW0_MCU*%
X65887600Y-30988000D03*
%TO.P,U0,36*%
%TO.N,KEY_COL13*%
X63347600Y-30988000D03*
%TO.P,U0,37*%
%TO.N,KEY_COL12*%
X60807600Y-30988000D03*
%TO.P,U0,38*%
%TO.N,KEY_COL11*%
X58267600Y-30988000D03*
%TO.P,U0,39*%
%TO.N,KEY_COL10*%
X55727600Y-30988000D03*
%TO.P,U0,40*%
%TO.N,KEY_COL9*%
X53187600Y-30988000D03*
%TO.P,U0,41*%
%TO.N,KEY_COL8*%
X50647600Y-30988000D03*
%TO.P,U0,42*%
%TO.N,KEY_COL7*%
X48107600Y-30988000D03*
%TO.P,U0,43*%
%TO.N,KEY_COL6*%
X45567600Y-30988000D03*
%TO.P,U0,44*%
%TO.N,KEY_COL5*%
X43027600Y-30988000D03*
%TO.P,U0,45*%
%TO.N,KEY_COL4*%
X40487600Y-30988000D03*
%TO.P,U0,46*%
%TO.N,N/C*%
X37947600Y-30988000D03*
%TO.P,U0,47*%
%TO.N,GNDPWR*%
X35407600Y-30988000D03*
%TO.P,U0,48*%
%TO.N,MAIN_VBUS*%
X32867600Y-30988000D03*
D13*
%TO.P,U0,55*%
%TO.N,N/C*%
X39166800Y-43177200D03*
D11*
%TO.P,U0,56*%
X41706800Y-43177200D03*
%TO.P,U0,57*%
X44246800Y-43177200D03*
%TO.P,U0,58*%
X46786800Y-43177200D03*
%TO.P,U0,59*%
X49326800Y-43177200D03*
%TO.P,U0,49*%
X35407600Y-33528000D03*
%TD*%
D14*
%TO.P,J2,7*%
%TO.N,N/C*%
X89371200Y-23622000D03*
%TO.P,J2,6*%
X86871200Y-23622000D03*
%TO.P,J2,5*%
X84371200Y-23622000D03*
%TO.P,J2,4*%
X81871200Y-23622000D03*
%TO.P,J2,3*%
X79371200Y-23622000D03*
%TO.P,J2,2*%
X76871200Y-23622000D03*
%TO.P,J2,1*%
%TA.AperFunction,ComponentPad*%
G36*
G01*
X73521200Y-24347000D02*
X73521200Y-22897000D01*
G75*
G02*
X73771200Y-22647000I250000J0D01*
G01*
X74971200Y-22647000D01*
G75*
G02*
X75221200Y-22897000I0J-250000D01*
G01*
X75221200Y-24347000D01*
G75*
G02*
X74971200Y-24597000I-250000J0D01*
G01*
X73771200Y-24597000D01*
G75*
G02*
X73521200Y-24347000I0J250000D01*
G01*
G37*
%TD.AperFunction*%
%TD*%
D15*
%TO.P,J0,4*%
%TO.N,GNDPWR*%
X26416000Y-36391200D03*
%TO.P,J0,3*%
%TO.N,USB_DN*%
X26416000Y-38891200D03*
%TO.P,J0,2*%
%TO.N,USB_DP*%
X26416000Y-41391200D03*
%TO.P,J0,1*%
%TO.N,MAIN_VBUS*%
%TA.AperFunction,ComponentPad*%
G36*
G01*
X27141000Y-44741200D02*
X25691000Y-44741200D01*
G75*
G02*
X25441000Y-44491200I0J250000D01*
G01*
X25441000Y-43291200D01*
G75*
G02*
X25691000Y-43041200I250000J0D01*
G01*
X27141000Y-43041200D01*
G75*
G02*
X27391000Y-43291200I0J-250000D01*
G01*
X27391000Y-44491200D01*
G75*
G02*
X27141000Y-44741200I-250000J0D01*
G01*
G37*
%TD.AperFunction*%
%TD*%
%TO.P,C1,1*%
%TO.N,GNDPWR*%
%TA.AperFunction,SMDPad,CuDef*%
G36*
G01*
X74251800Y-54509000D02*
X75201800Y-54509000D01*
G75*
G02*
X75451800Y-54759000I0J-250000D01*
G01*
X75451800Y-55434000D01*
G75*
G02*
X75201800Y-55684000I-250000J0D01*
G01*
X74251800Y-55684000D01*
G75*
G02*
X74001800Y-55434000I0J250000D01*
G01*
X74001800Y-54759000D01*
G75*
G02*
X74251800Y-54509000I250000J0D01*
G01*
G37*
%TD.AperFunction*%
%TO.P,C1,2*%
%TO.N,MAIN_VBUS*%
%TA.AperFunction,SMDPad,CuDef*%
G36*
G01*
X74251800Y-56584000D02*
X75201800Y-56584000D01*
G75*
G02*
X75451800Y-56834000I0J-250000D01*
G01*
X75451800Y-57509000D01*
G75*
G02*
X75201800Y-57759000I-250000J0D01*
G01*
X74251800Y-57759000D01*
G75*
G02*
X74001800Y-57509000I0J250000D01*
G01*
X74001800Y-56834000D01*
G75*
G02*
X74251800Y-56584000I250000J0D01*
G01*
G37*
%TD.AperFunction*%
%TD*%
%TO.P,C2,2*%
%TO.N,33_REF*%
%TA.AperFunction,SMDPad,CuDef*%
G36*
G01*
X75201800Y-51772400D02*
X74251800Y-51772400D01*
G75*
G02*
X74001800Y-51522400I0J250000D01*
G01*
X74001800Y-50847400D01*
G75*
G02*
X74251800Y-50597400I250000J0D01*
G01*
X75201800Y-50597400D01*
G75*
G02*
X75451800Y-50847400I0J-250000D01*
G01*
X75451800Y-51522400D01*
G75*
G02*
X75201800Y-51772400I-250000J0D01*
G01*
G37*
%TD.AperFunction*%
%TO.P,C2,1*%
%TO.N,GNDPWR*%
%TA.AperFunction,SMDPad,CuDef*%
G36*
G01*
X75201800Y-53847400D02*
X74251800Y-53847400D01*
G75*
G02*
X74001800Y-53597400I0J250000D01*
G01*
X74001800Y-52922400D01*
G75*
G02*
X74251800Y-52672400I250000J0D01*
G01*
X75201800Y-52672400D01*
G75*
G02*
X75451800Y-52922400I0J-250000D01*
G01*
X75451800Y-53597400D01*
G75*
G02*
X75201800Y-53847400I-250000J0D01*
G01*
G37*
%TD.AperFunction*%
%TD*%
D16*
%TO.P,J1,1*%
%TO.N,KEY_ROW0*%
X28295600Y-65074800D03*
D17*
%TO.P,J1,2*%
%TO.N,KEY_ROW1*%
X30295600Y-65074800D03*
%TO.P,J1,3*%
%TO.N,KEY_ROW2*%
X32295600Y-65074800D03*
%TO.P,J1,4*%
%TO.N,KEY_ROW3*%
X34295600Y-65074800D03*
%TO.P,J1,5*%
%TO.N,KEY_ROW4*%
X36295600Y-65074800D03*
%TO.P,J1,6*%
%TO.N,KEY_ROW5*%
X38295600Y-65074800D03*
%TO.P,J1,7*%
%TO.N,KEY_ROW6*%
X40295600Y-65074800D03*
%TO.P,J1,8*%
%TO.N,MAIN_VBUS*%
X42295600Y-65074800D03*
%TO.P,J1,9*%
%TO.N,LED_SCL_ROW0*%
X44295600Y-65074800D03*
%TO.P,J1,10*%
%TO.N,LED_SDA_ROW0*%
X46295600Y-65074800D03*
%TO.P,J1,11*%
%TO.N,GNDPWR*%
X48295600Y-65074800D03*
%TO.P,J1,12*%
%TO.N,KEY_COL0*%
X50295600Y-65074800D03*
%TO.P,J1,13*%
%TO.N,KEY_COL1*%
X52295600Y-65074800D03*
%TO.P,J1,14*%
%TO.N,KEY_COL2*%
X54295600Y-65074800D03*
%TO.P,J1,15*%
%TO.N,KEY_COL3*%
X56295600Y-65074800D03*
%TO.P,J1,16*%
%TO.N,KEY_COL4*%
X58295600Y-65074800D03*
%TO.P,J1,17*%
%TO.N,KEY_COL5*%
X60295600Y-65074800D03*
%TO.P,J1,18*%
%TO.N,KEY_COL6*%
X62295600Y-65074800D03*
%TO.P,J1,19*%
%TO.N,KEY_COL7*%
X64295600Y-65074800D03*
%TO.P,J1,20*%
%TO.N,KEY_COL8*%
X66295600Y-65074800D03*
%TO.P,J1,21*%
%TO.N,KEY_COL9*%
X68295600Y-65074800D03*
%TO.P,J1,22*%
%TO.N,KEY_COL10*%
X70295600Y-65074800D03*
%TO.P,J1,23*%
%TO.N,KEY_COL11*%
X72295600Y-65074800D03*
%TO.P,J1,24*%
%TO.N,KEY_COL12*%
X74295600Y-65074800D03*
%TO.P,J1,25*%
%TO.N,KEY_COL13*%
X76295600Y-65074800D03*
%TO.P,J1,26*%
%TO.N,KEY_COL14*%
X78295600Y-65074800D03*
%TO.P,J1,27*%
%TO.N,KEY_COL15*%
X80295600Y-65074800D03*
%TO.P,J1,28*%
%TO.N,KEY_COL16*%
X82295600Y-65074800D03*
%TO.P,J1,29*%
%TO.N,KEY_COL17*%
X84295600Y-65074800D03*
%TO.P,J1,30*%
%TO.N,KEY_COL18*%
X86295600Y-65074800D03*
%TO.P,J1,31*%
%TO.N,KEY_COL19*%
X88295600Y-65074800D03*
%TO.P,J1,32*%
%TO.N,KEY_COL20*%
X90295600Y-65074800D03*
%TO.P,J1,33*%
%TO.N,MAIN_VBUS*%
X92295600Y-65074800D03*
%TO.P,J1,34*%
%TO.N,LED_SCL_STATUS0*%
X94295600Y-65074800D03*
%TO.P,J1,35*%
%TO.N,LED_SDA_STATUS0*%
X96295600Y-65074800D03*
%TO.P,J1,36*%
%TO.N,GNDPWR*%
X98295600Y-65074800D03*
%TD*%
D18*
%TO.N,MAIN_VBUS*%
X74726800Y-57200800D03*
X72796400Y-56032400D03*
%TO.N,33_REF*%
X65176400Y-56032400D03*
X72796400Y-51054000D03*
%TO.N,GNDPWR*%
X74726800Y-53238400D03*
X65176400Y-51054000D03*
X74726800Y-55118000D03*
%TO.N,KEY_COL6*%
X57353200Y-55473600D03*
%TO.N,KEY_COL5*%
X57404000Y-56489600D03*
%TO.N,KEY_COL4*%
X57353200Y-57505600D03*
%TO.N,KEY_COL7*%
X57454800Y-54457600D03*
%TO.N,KEY_COL8*%
X58775600Y-53949600D03*
%TO.N,KEY_COL9*%
X59283600Y-52679600D03*
%TO.N,KEY_COL10*%
X60350400Y-52120800D03*
%TO.N,KEY_COL11*%
X61025523Y-51054000D03*
%TO.N,KEY_COL12*%
X61823600Y-49987200D03*
%TO.N,KEY_COL13*%
X62788800Y-49479200D03*
%TO.N,33_REF*%
X74701400Y-51231800D03*
%TD*%
D19*
%TO.N,KEY_COL6*%
X41773599Y-45626079D02*
X41773599Y-46829921D01*
X42992799Y-44406879D02*
X41773599Y-45626079D01*
X42992799Y-33562801D02*
X42992799Y-44406879D01*
X45567600Y-30988000D02*
X42992799Y-33562801D01*
X48322639Y-53378961D02*
X48588478Y-53644800D01*
X41773599Y-46829921D02*
X48322639Y-53378961D01*
X48588478Y-53644800D02*
X53187600Y-53644800D01*
X57353200Y-55524400D02*
X57353200Y-55524400D01*
X57302400Y-55524400D02*
X57353200Y-55473600D01*
X55016400Y-55473600D02*
X54711600Y-55168800D01*
X57353200Y-55473600D02*
X55016400Y-55473600D01*
X53187600Y-53644800D02*
X54711600Y-55168800D01*
%TO.N,KEY_COL5*%
X39233599Y-45626079D02*
X39233599Y-46829921D01*
X40452799Y-33562801D02*
X40452799Y-44406879D01*
X40452799Y-44406879D02*
X39233599Y-45626079D01*
X43027600Y-30988000D02*
X40452799Y-33562801D01*
X47078039Y-54674361D02*
X52845561Y-54674361D01*
X39233599Y-46829921D02*
X47078039Y-54674361D01*
X52845561Y-54674361D02*
X54660800Y-56489600D01*
X54660800Y-56489600D02*
X57404000Y-56489600D01*
X57404000Y-56489600D02*
X57404000Y-56489600D01*
%TO.N,KEY_COL4*%
X36693599Y-46829921D02*
X46353278Y-56489600D01*
X36693599Y-34782001D02*
X36693599Y-46829921D01*
X40487600Y-30988000D02*
X36693599Y-34782001D01*
X46353278Y-56489600D02*
X47369278Y-57505600D01*
X47369278Y-57505600D02*
X57353200Y-57505600D01*
X57353200Y-57505600D02*
X57353200Y-57505600D01*
%TO.N,KEY_COL7*%
X45532799Y-44406879D02*
X44313599Y-45626079D01*
X45532799Y-42575279D02*
X45532799Y-44406879D01*
X44313599Y-45626079D02*
X44313599Y-46829921D01*
X48941601Y-39166477D02*
X45532799Y-42575279D01*
X48941601Y-31822001D02*
X48941601Y-39166477D01*
X48107600Y-30988000D02*
X48941601Y-31822001D01*
X49440239Y-51956561D02*
X50264878Y-52781200D01*
X44313599Y-46829921D02*
X49440239Y-51956561D01*
X53342326Y-52781200D02*
X55018726Y-54457600D01*
X50264878Y-52781200D02*
X53342326Y-52781200D01*
X55018726Y-54457600D02*
X57454800Y-54457600D01*
X57454800Y-54457600D02*
X57454800Y-54457600D01*
%TO.N,KEY_COL8*%
X46853599Y-45626079D02*
X46853599Y-46829921D01*
X48040801Y-42607277D02*
X48040801Y-44438877D01*
X49847601Y-40800477D02*
X48040801Y-42607277D01*
X48040801Y-44438877D02*
X46853599Y-45626079D01*
X49847601Y-31787999D02*
X49847601Y-40800477D01*
X50647600Y-30988000D02*
X49847601Y-31787999D01*
X53417363Y-51854961D02*
X54953202Y-53390800D01*
X51878639Y-51854961D02*
X53417363Y-51854961D01*
X46853599Y-46829921D02*
X51878639Y-51854961D01*
X58115200Y-53390800D02*
X58216800Y-53390800D01*
X54953202Y-53390800D02*
X58115200Y-53390800D01*
X58216800Y-53390800D02*
X58775600Y-53949600D01*
X58775600Y-53949600D02*
X58775600Y-53949600D01*
%TO.N,KEY_COL9*%
X51225589Y-43794089D02*
X49393599Y-45626079D01*
X51225589Y-32950011D02*
X51225589Y-43794089D01*
X49393599Y-45626079D02*
X49393599Y-46829921D01*
X53187600Y-30988000D02*
X51225589Y-32950011D01*
X54190039Y-51626361D02*
X58230361Y-51626361D01*
X49393599Y-46829921D02*
X54190039Y-51626361D01*
X58230361Y-51626361D02*
X59283600Y-52679600D01*
X59283600Y-52679600D02*
X59283600Y-52679600D01*
%TO.N,KEY_COL10*%
X51933599Y-34782001D02*
X51933599Y-46829921D01*
X55727600Y-30988000D02*
X51933599Y-34782001D01*
X54240839Y-49137161D02*
X55903678Y-50800000D01*
X51933599Y-46829921D02*
X54240839Y-49137161D01*
X55903678Y-50800000D02*
X59029600Y-50800000D01*
X59029600Y-50800000D02*
X60045600Y-51816000D01*
X60045600Y-51816000D02*
X60350400Y-52120800D01*
X60350400Y-52120800D02*
X60350400Y-52120800D01*
%TO.N,KEY_COL11*%
X54473599Y-34782001D02*
X54473599Y-47615599D01*
X58267600Y-30988000D02*
X54473599Y-34782001D01*
X56540400Y-49682400D02*
X59653923Y-49682400D01*
X59653923Y-49682400D02*
X61025523Y-51054000D01*
X54473599Y-47615599D02*
X56540400Y-49682400D01*
X61025523Y-51054000D02*
X61025523Y-51054000D01*
%TO.N,KEY_COL12*%
X60807600Y-30988000D02*
X57013599Y-34782001D01*
X57013599Y-34782001D02*
X57013599Y-47278801D01*
X57013599Y-47278801D02*
X57893198Y-48158400D01*
X57893198Y-48158400D02*
X59131200Y-48158400D01*
X60114438Y-49141638D02*
X60230762Y-49141638D01*
X59131200Y-48158400D02*
X60114438Y-49141638D01*
X60230762Y-49141638D02*
X61282838Y-49141638D01*
X61333638Y-49141638D02*
X61823600Y-49631600D01*
X61282838Y-49141638D02*
X61333638Y-49141638D01*
X61823600Y-49631600D02*
X61823600Y-49987200D01*
X61823600Y-49987200D02*
X61823600Y-49987200D01*
%TO.N,KEY_COL13*%
X63347600Y-30988000D02*
X59553599Y-34782001D01*
X61128399Y-47818799D02*
X62788800Y-49479200D01*
X60467999Y-47818799D02*
X61128399Y-47818799D01*
X59553599Y-46904399D02*
X60467999Y-47818799D01*
X59553599Y-34782001D02*
X59553599Y-46904399D01*
X62788800Y-49479200D02*
X62788800Y-49479200D01*
%TO.N,LED_SCL_ROW0*%
X44295600Y-60657200D02*
X44295600Y-65074800D01*
X46326410Y-58626390D02*
X44295600Y-60657200D01*
X66083210Y-58626390D02*
X46326410Y-58626390D01*
X67716400Y-56993200D02*
X66083210Y-58626390D01*
X67716400Y-56018200D02*
X67716400Y-56993200D01*
%TO.N,LED_SDA_ROW0*%
X68986400Y-56018200D02*
X68986400Y-56993200D01*
X68986400Y-56993200D02*
X66645200Y-59334400D01*
X47023600Y-59334400D02*
X46295600Y-60062400D01*
X66645200Y-59334400D02*
X47023600Y-59334400D01*
X46295600Y-60062400D02*
X46295600Y-65074800D01*
%TO.N,LED_SCL_STATUS0*%
X70256400Y-56018200D02*
X70256400Y-56993200D01*
X70256400Y-56993200D02*
X73105600Y-59842400D01*
X73105600Y-59842400D02*
X94030800Y-59842400D01*
X94295600Y-60107200D02*
X94295600Y-65074800D01*
X94030800Y-59842400D02*
X94295600Y-60107200D01*
%TO.N,LED_SDA_STATUS0*%
X71526400Y-56018200D02*
X71526400Y-56993200D01*
X71526400Y-56993200D02*
X73461200Y-58928000D01*
X73461200Y-58928000D02*
X94538800Y-58928000D01*
X96295600Y-60684800D02*
X96295600Y-65074800D01*
X94538800Y-58928000D02*
X96295600Y-60684800D01*
%TO.N,LED_SDA_STATUS0_MCU*%
X73507600Y-46228000D02*
X73507600Y-47447200D01*
X71526400Y-49428400D02*
X71526400Y-51068200D01*
X73507600Y-47447200D02*
X71526400Y-49428400D01*
%TO.N,LED_SCL_STATUS0_MCU*%
X70967600Y-46228000D02*
X70967600Y-48056800D01*
X70256400Y-48768000D02*
X70256400Y-51068200D01*
X70967600Y-48056800D02*
X70256400Y-48768000D01*
%TO.N,LED_SDA_ROW0_MCU*%
X68986400Y-51068200D02*
X68986400Y-49479200D01*
X68986400Y-49479200D02*
X68122800Y-48615600D01*
X65735200Y-48615600D02*
X63347600Y-46228000D01*
X68122800Y-48615600D02*
X65735200Y-48615600D01*
%TO.N,LED_SCL_ROW0_MCU*%
X65887600Y-30988000D02*
X62077600Y-34798000D01*
X62093599Y-45939199D02*
X62093599Y-47005999D01*
X62077600Y-45923200D02*
X62093599Y-45939199D01*
X62077600Y-34798000D02*
X62077600Y-45923200D01*
X62093599Y-47005999D02*
X64465200Y-49377600D01*
X64465200Y-49377600D02*
X67564000Y-49377600D01*
X67716400Y-49530000D02*
X67716400Y-51068200D01*
X67564000Y-49377600D02*
X67716400Y-49530000D01*
%TD*%
M02*
