M48
; DRILL file {KiCad (5.1.9)-1} date 05/12/21 01:56:08
; FORMAT={-:-/ absolute / inch / decimal}
; #@! TF.CreationDate,2021-05-12T01:56:08+10:00
; #@! TF.GenerationSoftware,Kicad,Pcbnew,(5.1.9)-1
; #@! TF.FileFunction,Plated,1,4,PTH
FMAT,2
INCH
T1C0.0157
T2C0.0315
T3C0.0374
T4C0.0433
%
G90
G05
T1
X2.258Y-2.184
X2.258Y-2.264
X2.26Y-2.224
X2.262Y-2.144
X2.314Y-2.124
X2.334Y-2.074
X2.376Y-2.052
X2.4026Y-2.01
X2.434Y-1.968
X2.472Y-1.948
X2.566Y-2.01
X2.566Y-2.206
X2.866Y-2.01
X2.866Y-2.206
X2.941Y-2.017
X2.942Y-2.096
X2.942Y-2.17
X2.942Y-2.252
T2
X1.114Y-2.562
X1.1927Y-2.562
X1.2715Y-2.562
X1.3227Y-1.47
X1.3227Y-1.57
X1.3502Y-2.562
X1.429Y-2.562
X1.5077Y-2.562
X1.5864Y-2.562
X1.6652Y-2.562
X1.7439Y-2.562
X1.8046Y-1.316
X1.8046Y-1.3947
X1.8046Y-1.4735
X1.8227Y-2.562
X1.8834Y-1.316
X1.8834Y-1.3947
X1.8834Y-1.4735
X1.9014Y-2.562
X1.9801Y-2.562
X2.0589Y-2.562
X2.1376Y-2.562
X2.2164Y-2.562
X2.2951Y-2.562
X2.3738Y-2.562
X2.4526Y-2.562
X2.5313Y-2.562
X2.6101Y-2.562
X2.6888Y-2.562
X2.7675Y-2.562
X2.8463Y-2.562
X2.925Y-2.562
X3.0038Y-2.562
X3.0825Y-2.562
X3.1612Y-2.562
X3.24Y-2.562
X3.3187Y-2.562
X3.3975Y-2.562
X3.4762Y-2.562
X3.5549Y-2.562
X3.6337Y-2.562
X3.7124Y-2.562
X3.7912Y-2.562
X3.8699Y-2.562
T3
X1.04Y-1.4327
X1.04Y-1.5311
X1.04Y-1.6296
X1.04Y-1.728
X2.928Y-0.93
X3.0264Y-0.93
X3.1249Y-0.93
X3.2233Y-0.93
X3.3217Y-0.93
X3.4201Y-0.93
X3.5186Y-0.93
T4
X1.294Y-1.22
X1.294Y-1.82
X1.394Y-1.22
X1.394Y-1.32
X1.394Y-1.82
X1.494Y-1.22
X1.494Y-1.82
X1.542Y-1.6999
X1.594Y-1.22
X1.594Y-1.82
X1.642Y-1.6999
X1.694Y-1.22
X1.694Y-1.82
X1.742Y-1.6999
X1.794Y-1.22
X1.794Y-1.82
X1.842Y-1.6999
X1.894Y-1.22
X1.894Y-1.82
X1.942Y-1.6999
X1.994Y-1.22
X1.994Y-1.82
X2.094Y-1.22
X2.094Y-1.82
X2.194Y-1.22
X2.194Y-1.82
X2.294Y-1.22
X2.294Y-1.82
X2.394Y-1.22
X2.394Y-1.82
X2.494Y-1.22
X2.494Y-1.82
X2.594Y-1.22
X2.594Y-1.82
X2.694Y-1.22
X2.694Y-1.82
X2.794Y-1.22
X2.794Y-1.82
X2.894Y-1.22
X2.894Y-1.82
X2.994Y-1.22
X2.994Y-1.82
X3.094Y-1.22
X3.094Y-1.32
X3.094Y-1.42
X3.094Y-1.52
X3.094Y-1.62
X3.094Y-1.72
X3.094Y-1.82
X3.194Y-1.22
X3.194Y-1.82
X3.294Y-1.22
X3.294Y-1.82
X3.394Y-1.22
X3.394Y-1.82
X3.494Y-1.22
X3.494Y-1.82
X3.594Y-1.22
X3.594Y-1.82
T0
M30
