%TF.GenerationSoftware,KiCad,Pcbnew,(5.1.9)-1*%
%TF.CreationDate,2021-05-20T21:26:35+10:00*%
%TF.ProjectId,RedPyKeeb_MCU,52656450-794b-4656-9562-5f4d43552e6b,rev?*%
%TF.SameCoordinates,Original*%
%TF.FileFunction,Soldermask,Top*%
%TF.FilePolarity,Negative*%
%FSLAX46Y46*%
G04 Gerber Fmt 4.6, Leading zero omitted, Abs format (unit mm)*
G04 Created by KiCad (PCBNEW (5.1.9)-1) date 2021-05-20 21:26:35*
%MOMM*%
%LPD*%
G01*
G04 APERTURE LIST*
%ADD10O,1.700000X1.950000*%
%ADD11O,1.950000X1.700000*%
%ADD12R,1.350000X1.350000*%
%ADD13O,1.350000X1.350000*%
%ADD14C,1.600000*%
%ADD15R,1.600000X1.600000*%
%ADD16C,1.300000*%
G04 APERTURE END LIST*
%TO.C,U1*%
G36*
G01*
X74068800Y-61647200D02*
X74368800Y-61647200D01*
G75*
G02*
X74518800Y-61797200I0J-150000D01*
G01*
X74518800Y-63447200D01*
G75*
G02*
X74368800Y-63597200I-150000J0D01*
G01*
X74068800Y-63597200D01*
G75*
G02*
X73918800Y-63447200I0J150000D01*
G01*
X73918800Y-61797200D01*
G75*
G02*
X74068800Y-61647200I150000J0D01*
G01*
G37*
G36*
G01*
X72798800Y-61647200D02*
X73098800Y-61647200D01*
G75*
G02*
X73248800Y-61797200I0J-150000D01*
G01*
X73248800Y-63447200D01*
G75*
G02*
X73098800Y-63597200I-150000J0D01*
G01*
X72798800Y-63597200D01*
G75*
G02*
X72648800Y-63447200I0J150000D01*
G01*
X72648800Y-61797200D01*
G75*
G02*
X72798800Y-61647200I150000J0D01*
G01*
G37*
G36*
G01*
X71528800Y-61647200D02*
X71828800Y-61647200D01*
G75*
G02*
X71978800Y-61797200I0J-150000D01*
G01*
X71978800Y-63447200D01*
G75*
G02*
X71828800Y-63597200I-150000J0D01*
G01*
X71528800Y-63597200D01*
G75*
G02*
X71378800Y-63447200I0J150000D01*
G01*
X71378800Y-61797200D01*
G75*
G02*
X71528800Y-61647200I150000J0D01*
G01*
G37*
G36*
G01*
X70258800Y-61647200D02*
X70558800Y-61647200D01*
G75*
G02*
X70708800Y-61797200I0J-150000D01*
G01*
X70708800Y-63447200D01*
G75*
G02*
X70558800Y-63597200I-150000J0D01*
G01*
X70258800Y-63597200D01*
G75*
G02*
X70108800Y-63447200I0J150000D01*
G01*
X70108800Y-61797200D01*
G75*
G02*
X70258800Y-61647200I150000J0D01*
G01*
G37*
G36*
G01*
X68988800Y-61647200D02*
X69288800Y-61647200D01*
G75*
G02*
X69438800Y-61797200I0J-150000D01*
G01*
X69438800Y-63447200D01*
G75*
G02*
X69288800Y-63597200I-150000J0D01*
G01*
X68988800Y-63597200D01*
G75*
G02*
X68838800Y-63447200I0J150000D01*
G01*
X68838800Y-61797200D01*
G75*
G02*
X68988800Y-61647200I150000J0D01*
G01*
G37*
G36*
G01*
X67718800Y-61647200D02*
X68018800Y-61647200D01*
G75*
G02*
X68168800Y-61797200I0J-150000D01*
G01*
X68168800Y-63447200D01*
G75*
G02*
X68018800Y-63597200I-150000J0D01*
G01*
X67718800Y-63597200D01*
G75*
G02*
X67568800Y-63447200I0J150000D01*
G01*
X67568800Y-61797200D01*
G75*
G02*
X67718800Y-61647200I150000J0D01*
G01*
G37*
G36*
G01*
X66448800Y-61647200D02*
X66748800Y-61647200D01*
G75*
G02*
X66898800Y-61797200I0J-150000D01*
G01*
X66898800Y-63447200D01*
G75*
G02*
X66748800Y-63597200I-150000J0D01*
G01*
X66448800Y-63597200D01*
G75*
G02*
X66298800Y-63447200I0J150000D01*
G01*
X66298800Y-61797200D01*
G75*
G02*
X66448800Y-61647200I150000J0D01*
G01*
G37*
G36*
G01*
X66448800Y-56697200D02*
X66748800Y-56697200D01*
G75*
G02*
X66898800Y-56847200I0J-150000D01*
G01*
X66898800Y-58497200D01*
G75*
G02*
X66748800Y-58647200I-150000J0D01*
G01*
X66448800Y-58647200D01*
G75*
G02*
X66298800Y-58497200I0J150000D01*
G01*
X66298800Y-56847200D01*
G75*
G02*
X66448800Y-56697200I150000J0D01*
G01*
G37*
G36*
G01*
X67718800Y-56697200D02*
X68018800Y-56697200D01*
G75*
G02*
X68168800Y-56847200I0J-150000D01*
G01*
X68168800Y-58497200D01*
G75*
G02*
X68018800Y-58647200I-150000J0D01*
G01*
X67718800Y-58647200D01*
G75*
G02*
X67568800Y-58497200I0J150000D01*
G01*
X67568800Y-56847200D01*
G75*
G02*
X67718800Y-56697200I150000J0D01*
G01*
G37*
G36*
G01*
X68988800Y-56697200D02*
X69288800Y-56697200D01*
G75*
G02*
X69438800Y-56847200I0J-150000D01*
G01*
X69438800Y-58497200D01*
G75*
G02*
X69288800Y-58647200I-150000J0D01*
G01*
X68988800Y-58647200D01*
G75*
G02*
X68838800Y-58497200I0J150000D01*
G01*
X68838800Y-56847200D01*
G75*
G02*
X68988800Y-56697200I150000J0D01*
G01*
G37*
G36*
G01*
X70258800Y-56697200D02*
X70558800Y-56697200D01*
G75*
G02*
X70708800Y-56847200I0J-150000D01*
G01*
X70708800Y-58497200D01*
G75*
G02*
X70558800Y-58647200I-150000J0D01*
G01*
X70258800Y-58647200D01*
G75*
G02*
X70108800Y-58497200I0J150000D01*
G01*
X70108800Y-56847200D01*
G75*
G02*
X70258800Y-56697200I150000J0D01*
G01*
G37*
G36*
G01*
X71528800Y-56697200D02*
X71828800Y-56697200D01*
G75*
G02*
X71978800Y-56847200I0J-150000D01*
G01*
X71978800Y-58497200D01*
G75*
G02*
X71828800Y-58647200I-150000J0D01*
G01*
X71528800Y-58647200D01*
G75*
G02*
X71378800Y-58497200I0J150000D01*
G01*
X71378800Y-56847200D01*
G75*
G02*
X71528800Y-56697200I150000J0D01*
G01*
G37*
G36*
G01*
X72798800Y-56697200D02*
X73098800Y-56697200D01*
G75*
G02*
X73248800Y-56847200I0J-150000D01*
G01*
X73248800Y-58497200D01*
G75*
G02*
X73098800Y-58647200I-150000J0D01*
G01*
X72798800Y-58647200D01*
G75*
G02*
X72648800Y-58497200I0J150000D01*
G01*
X72648800Y-56847200D01*
G75*
G02*
X72798800Y-56697200I150000J0D01*
G01*
G37*
G36*
G01*
X74068800Y-56697200D02*
X74368800Y-56697200D01*
G75*
G02*
X74518800Y-56847200I0J-150000D01*
G01*
X74518800Y-58497200D01*
G75*
G02*
X74368800Y-58647200I-150000J0D01*
G01*
X74068800Y-58647200D01*
G75*
G02*
X73918800Y-58497200I0J150000D01*
G01*
X73918800Y-56847200D01*
G75*
G02*
X74068800Y-56697200I150000J0D01*
G01*
G37*
%TD*%
D10*
%TO.C,J2*%
X92470000Y-30988000D03*
X89970000Y-30988000D03*
X87470000Y-30988000D03*
X84970000Y-30988000D03*
X82470000Y-30988000D03*
X79970000Y-30988000D03*
G36*
G01*
X76620000Y-31713000D02*
X76620000Y-30263000D01*
G75*
G02*
X76870000Y-30013000I250000J0D01*
G01*
X78070000Y-30013000D01*
G75*
G02*
X78320000Y-30263000I0J-250000D01*
G01*
X78320000Y-31713000D01*
G75*
G02*
X78070000Y-31963000I-250000J0D01*
G01*
X76870000Y-31963000D01*
G75*
G02*
X76620000Y-31713000I0J250000D01*
G01*
G37*
%TD*%
D11*
%TO.C,J0*%
X27838400Y-42995200D03*
X27838400Y-45495200D03*
X27838400Y-47995200D03*
G36*
G01*
X28563400Y-51345200D02*
X27113400Y-51345200D01*
G75*
G02*
X26863400Y-51095200I0J250000D01*
G01*
X26863400Y-49895200D01*
G75*
G02*
X27113400Y-49645200I250000J0D01*
G01*
X28563400Y-49645200D01*
G75*
G02*
X28813400Y-49895200I0J-250000D01*
G01*
X28813400Y-51095200D01*
G75*
G02*
X28563400Y-51345200I-250000J0D01*
G01*
G37*
%TD*%
%TO.C,C1*%
G36*
G01*
X75674200Y-61113000D02*
X76624200Y-61113000D01*
G75*
G02*
X76874200Y-61363000I0J-250000D01*
G01*
X76874200Y-62038000D01*
G75*
G02*
X76624200Y-62288000I-250000J0D01*
G01*
X75674200Y-62288000D01*
G75*
G02*
X75424200Y-62038000I0J250000D01*
G01*
X75424200Y-61363000D01*
G75*
G02*
X75674200Y-61113000I250000J0D01*
G01*
G37*
G36*
G01*
X75674200Y-63188000D02*
X76624200Y-63188000D01*
G75*
G02*
X76874200Y-63438000I0J-250000D01*
G01*
X76874200Y-64113000D01*
G75*
G02*
X76624200Y-64363000I-250000J0D01*
G01*
X75674200Y-64363000D01*
G75*
G02*
X75424200Y-64113000I0J250000D01*
G01*
X75424200Y-63438000D01*
G75*
G02*
X75674200Y-63188000I250000J0D01*
G01*
G37*
%TD*%
%TO.C,C2*%
G36*
G01*
X76624200Y-58376400D02*
X75674200Y-58376400D01*
G75*
G02*
X75424200Y-58126400I0J250000D01*
G01*
X75424200Y-57451400D01*
G75*
G02*
X75674200Y-57201400I250000J0D01*
G01*
X76624200Y-57201400D01*
G75*
G02*
X76874200Y-57451400I0J-250000D01*
G01*
X76874200Y-58126400D01*
G75*
G02*
X76624200Y-58376400I-250000J0D01*
G01*
G37*
G36*
G01*
X76624200Y-60451400D02*
X75674200Y-60451400D01*
G75*
G02*
X75424200Y-60201400I0J250000D01*
G01*
X75424200Y-59526400D01*
G75*
G02*
X75674200Y-59276400I250000J0D01*
G01*
X76624200Y-59276400D01*
G75*
G02*
X76874200Y-59526400I0J-250000D01*
G01*
X76874200Y-60201400D01*
G75*
G02*
X76624200Y-60451400I-250000J0D01*
G01*
G37*
%TD*%
D12*
%TO.C,J1*%
X100279200Y-94640400D03*
D13*
X100279200Y-92640400D03*
X100279200Y-90640400D03*
X100279200Y-88640400D03*
X100279200Y-86640400D03*
X100279200Y-84640400D03*
X100279200Y-82640400D03*
X100279200Y-80640400D03*
X100279200Y-78640400D03*
X100279200Y-76640400D03*
X100279200Y-74640400D03*
X100279200Y-72640400D03*
X100279200Y-70640400D03*
X100279200Y-68640400D03*
X100279200Y-66640400D03*
X100279200Y-64640400D03*
X100279200Y-62640400D03*
X100279200Y-60640400D03*
X100279200Y-58640400D03*
X100279200Y-56640400D03*
X100279200Y-54640400D03*
X100279200Y-52640400D03*
X100279200Y-50640400D03*
X100279200Y-48640400D03*
X100279200Y-46640400D03*
X100279200Y-44640400D03*
X100279200Y-42640400D03*
X100279200Y-40640400D03*
X100279200Y-38640400D03*
X100279200Y-36640400D03*
X100279200Y-34640400D03*
X100279200Y-32640400D03*
X100279200Y-30640400D03*
X100279200Y-28640400D03*
X100279200Y-26640400D03*
X100279200Y-24640400D03*
%TD*%
D14*
%TO.C,U0*%
X36830000Y-40132000D03*
X34290000Y-37592000D03*
X36830000Y-37592000D03*
X39370000Y-37592000D03*
X41910000Y-37592000D03*
X44450000Y-37592000D03*
X46990000Y-37592000D03*
X49530000Y-37592000D03*
X52070000Y-37592000D03*
X54610000Y-37592000D03*
X57150000Y-37592000D03*
X59690000Y-37592000D03*
X62230000Y-37592000D03*
X64770000Y-37592000D03*
X67310000Y-37592000D03*
D15*
X34290000Y-52832000D03*
D14*
X36830000Y-52832000D03*
X39370000Y-52832000D03*
X41910000Y-52832000D03*
X44450000Y-52832000D03*
X46990000Y-52832000D03*
X49530000Y-52832000D03*
X52070000Y-52832000D03*
X54610000Y-52832000D03*
X57150000Y-52832000D03*
X59690000Y-52832000D03*
X62230000Y-52832000D03*
X64770000Y-52832000D03*
X69850000Y-37592000D03*
X72390000Y-37592000D03*
X74930000Y-37592000D03*
X77470000Y-37592000D03*
X80010000Y-37592000D03*
X82550000Y-37592000D03*
X85090000Y-37592000D03*
X87630000Y-37592000D03*
X90170000Y-37592000D03*
X92710000Y-37592000D03*
X92710000Y-52832000D03*
X90170000Y-52832000D03*
X87630000Y-52832000D03*
X85090000Y-52832000D03*
X67310000Y-52832000D03*
X69850000Y-52832000D03*
X72390000Y-52832000D03*
X82550000Y-52832000D03*
X80010000Y-52832000D03*
X77470000Y-52832000D03*
X74930000Y-52832000D03*
D16*
X35020000Y-46482000D03*
X35020000Y-43942000D03*
%TD*%
M02*
