%TF.GenerationSoftware,KiCad,Pcbnew,(5.1.9)-1*%
%TF.CreationDate,2021-05-12T01:56:06+10:00*%
%TF.ProjectId,RedPyKeeb_MCU,52656450-794b-4656-9562-5f4d43552e6b,rev?*%
%TF.SameCoordinates,Original*%
%TF.FileFunction,Paste,Top*%
%TF.FilePolarity,Positive*%
%FSLAX46Y46*%
G04 Gerber Fmt 4.6, Leading zero omitted, Abs format (unit mm)*
G04 Created by KiCad (PCBNEW (5.1.9)-1) date 2021-05-12 01:56:06*
%MOMM*%
%LPD*%
G01*
G04 APERTURE LIST*
G04 APERTURE END LIST*
%TO.C,U1*%
G36*
G01*
X72646400Y-55043200D02*
X72946400Y-55043200D01*
G75*
G02*
X73096400Y-55193200I0J-150000D01*
G01*
X73096400Y-56843200D01*
G75*
G02*
X72946400Y-56993200I-150000J0D01*
G01*
X72646400Y-56993200D01*
G75*
G02*
X72496400Y-56843200I0J150000D01*
G01*
X72496400Y-55193200D01*
G75*
G02*
X72646400Y-55043200I150000J0D01*
G01*
G37*
G36*
G01*
X71376400Y-55043200D02*
X71676400Y-55043200D01*
G75*
G02*
X71826400Y-55193200I0J-150000D01*
G01*
X71826400Y-56843200D01*
G75*
G02*
X71676400Y-56993200I-150000J0D01*
G01*
X71376400Y-56993200D01*
G75*
G02*
X71226400Y-56843200I0J150000D01*
G01*
X71226400Y-55193200D01*
G75*
G02*
X71376400Y-55043200I150000J0D01*
G01*
G37*
G36*
G01*
X70106400Y-55043200D02*
X70406400Y-55043200D01*
G75*
G02*
X70556400Y-55193200I0J-150000D01*
G01*
X70556400Y-56843200D01*
G75*
G02*
X70406400Y-56993200I-150000J0D01*
G01*
X70106400Y-56993200D01*
G75*
G02*
X69956400Y-56843200I0J150000D01*
G01*
X69956400Y-55193200D01*
G75*
G02*
X70106400Y-55043200I150000J0D01*
G01*
G37*
G36*
G01*
X68836400Y-55043200D02*
X69136400Y-55043200D01*
G75*
G02*
X69286400Y-55193200I0J-150000D01*
G01*
X69286400Y-56843200D01*
G75*
G02*
X69136400Y-56993200I-150000J0D01*
G01*
X68836400Y-56993200D01*
G75*
G02*
X68686400Y-56843200I0J150000D01*
G01*
X68686400Y-55193200D01*
G75*
G02*
X68836400Y-55043200I150000J0D01*
G01*
G37*
G36*
G01*
X67566400Y-55043200D02*
X67866400Y-55043200D01*
G75*
G02*
X68016400Y-55193200I0J-150000D01*
G01*
X68016400Y-56843200D01*
G75*
G02*
X67866400Y-56993200I-150000J0D01*
G01*
X67566400Y-56993200D01*
G75*
G02*
X67416400Y-56843200I0J150000D01*
G01*
X67416400Y-55193200D01*
G75*
G02*
X67566400Y-55043200I150000J0D01*
G01*
G37*
G36*
G01*
X66296400Y-55043200D02*
X66596400Y-55043200D01*
G75*
G02*
X66746400Y-55193200I0J-150000D01*
G01*
X66746400Y-56843200D01*
G75*
G02*
X66596400Y-56993200I-150000J0D01*
G01*
X66296400Y-56993200D01*
G75*
G02*
X66146400Y-56843200I0J150000D01*
G01*
X66146400Y-55193200D01*
G75*
G02*
X66296400Y-55043200I150000J0D01*
G01*
G37*
G36*
G01*
X65026400Y-55043200D02*
X65326400Y-55043200D01*
G75*
G02*
X65476400Y-55193200I0J-150000D01*
G01*
X65476400Y-56843200D01*
G75*
G02*
X65326400Y-56993200I-150000J0D01*
G01*
X65026400Y-56993200D01*
G75*
G02*
X64876400Y-56843200I0J150000D01*
G01*
X64876400Y-55193200D01*
G75*
G02*
X65026400Y-55043200I150000J0D01*
G01*
G37*
G36*
G01*
X65026400Y-50093200D02*
X65326400Y-50093200D01*
G75*
G02*
X65476400Y-50243200I0J-150000D01*
G01*
X65476400Y-51893200D01*
G75*
G02*
X65326400Y-52043200I-150000J0D01*
G01*
X65026400Y-52043200D01*
G75*
G02*
X64876400Y-51893200I0J150000D01*
G01*
X64876400Y-50243200D01*
G75*
G02*
X65026400Y-50093200I150000J0D01*
G01*
G37*
G36*
G01*
X66296400Y-50093200D02*
X66596400Y-50093200D01*
G75*
G02*
X66746400Y-50243200I0J-150000D01*
G01*
X66746400Y-51893200D01*
G75*
G02*
X66596400Y-52043200I-150000J0D01*
G01*
X66296400Y-52043200D01*
G75*
G02*
X66146400Y-51893200I0J150000D01*
G01*
X66146400Y-50243200D01*
G75*
G02*
X66296400Y-50093200I150000J0D01*
G01*
G37*
G36*
G01*
X67566400Y-50093200D02*
X67866400Y-50093200D01*
G75*
G02*
X68016400Y-50243200I0J-150000D01*
G01*
X68016400Y-51893200D01*
G75*
G02*
X67866400Y-52043200I-150000J0D01*
G01*
X67566400Y-52043200D01*
G75*
G02*
X67416400Y-51893200I0J150000D01*
G01*
X67416400Y-50243200D01*
G75*
G02*
X67566400Y-50093200I150000J0D01*
G01*
G37*
G36*
G01*
X68836400Y-50093200D02*
X69136400Y-50093200D01*
G75*
G02*
X69286400Y-50243200I0J-150000D01*
G01*
X69286400Y-51893200D01*
G75*
G02*
X69136400Y-52043200I-150000J0D01*
G01*
X68836400Y-52043200D01*
G75*
G02*
X68686400Y-51893200I0J150000D01*
G01*
X68686400Y-50243200D01*
G75*
G02*
X68836400Y-50093200I150000J0D01*
G01*
G37*
G36*
G01*
X70106400Y-50093200D02*
X70406400Y-50093200D01*
G75*
G02*
X70556400Y-50243200I0J-150000D01*
G01*
X70556400Y-51893200D01*
G75*
G02*
X70406400Y-52043200I-150000J0D01*
G01*
X70106400Y-52043200D01*
G75*
G02*
X69956400Y-51893200I0J150000D01*
G01*
X69956400Y-50243200D01*
G75*
G02*
X70106400Y-50093200I150000J0D01*
G01*
G37*
G36*
G01*
X71376400Y-50093200D02*
X71676400Y-50093200D01*
G75*
G02*
X71826400Y-50243200I0J-150000D01*
G01*
X71826400Y-51893200D01*
G75*
G02*
X71676400Y-52043200I-150000J0D01*
G01*
X71376400Y-52043200D01*
G75*
G02*
X71226400Y-51893200I0J150000D01*
G01*
X71226400Y-50243200D01*
G75*
G02*
X71376400Y-50093200I150000J0D01*
G01*
G37*
G36*
G01*
X72646400Y-50093200D02*
X72946400Y-50093200D01*
G75*
G02*
X73096400Y-50243200I0J-150000D01*
G01*
X73096400Y-51893200D01*
G75*
G02*
X72946400Y-52043200I-150000J0D01*
G01*
X72646400Y-52043200D01*
G75*
G02*
X72496400Y-51893200I0J150000D01*
G01*
X72496400Y-50243200D01*
G75*
G02*
X72646400Y-50093200I150000J0D01*
G01*
G37*
%TD*%
%TO.C,C1*%
G36*
G01*
X74251800Y-54509000D02*
X75201800Y-54509000D01*
G75*
G02*
X75451800Y-54759000I0J-250000D01*
G01*
X75451800Y-55434000D01*
G75*
G02*
X75201800Y-55684000I-250000J0D01*
G01*
X74251800Y-55684000D01*
G75*
G02*
X74001800Y-55434000I0J250000D01*
G01*
X74001800Y-54759000D01*
G75*
G02*
X74251800Y-54509000I250000J0D01*
G01*
G37*
G36*
G01*
X74251800Y-56584000D02*
X75201800Y-56584000D01*
G75*
G02*
X75451800Y-56834000I0J-250000D01*
G01*
X75451800Y-57509000D01*
G75*
G02*
X75201800Y-57759000I-250000J0D01*
G01*
X74251800Y-57759000D01*
G75*
G02*
X74001800Y-57509000I0J250000D01*
G01*
X74001800Y-56834000D01*
G75*
G02*
X74251800Y-56584000I250000J0D01*
G01*
G37*
%TD*%
%TO.C,C2*%
G36*
G01*
X75201800Y-51772400D02*
X74251800Y-51772400D01*
G75*
G02*
X74001800Y-51522400I0J250000D01*
G01*
X74001800Y-50847400D01*
G75*
G02*
X74251800Y-50597400I250000J0D01*
G01*
X75201800Y-50597400D01*
G75*
G02*
X75451800Y-50847400I0J-250000D01*
G01*
X75451800Y-51522400D01*
G75*
G02*
X75201800Y-51772400I-250000J0D01*
G01*
G37*
G36*
G01*
X75201800Y-53847400D02*
X74251800Y-53847400D01*
G75*
G02*
X74001800Y-53597400I0J250000D01*
G01*
X74001800Y-52922400D01*
G75*
G02*
X74251800Y-52672400I250000J0D01*
G01*
X75201800Y-52672400D01*
G75*
G02*
X75451800Y-52922400I0J-250000D01*
G01*
X75451800Y-53597400D01*
G75*
G02*
X75201800Y-53847400I-250000J0D01*
G01*
G37*
%TD*%
M02*
