G04 #@! TF.GenerationSoftware,KiCad,Pcbnew,(5.1.10)-1*
G04 #@! TF.CreationDate,2022-01-18T01:08:43+10:00*
G04 #@! TF.ProjectId,RedPyKeeb_MCU,52656450-794b-4656-9562-5f4d43552e6b,rev?*
G04 #@! TF.SameCoordinates,Original*
G04 #@! TF.FileFunction,Copper,L4,Bot*
G04 #@! TF.FilePolarity,Positive*
%FSLAX46Y46*%
G04 Gerber Fmt 4.6, Leading zero omitted, Abs format (unit mm)*
G04 Created by KiCad (PCBNEW (5.1.10)-1) date 2022-01-18 01:08:43*
%MOMM*%
%LPD*%
G01*
G04 APERTURE LIST*
G04 #@! TA.AperFunction,SMDPad,CuDef*
%ADD10R,1.000000X3.150000*%
G04 #@! TD*
G04 #@! TA.AperFunction,ComponentPad*
%ADD11C,1.600000*%
G04 #@! TD*
G04 #@! TA.AperFunction,ComponentPad*
%ADD12R,1.600000X1.600000*%
G04 #@! TD*
G04 #@! TA.AperFunction,ComponentPad*
%ADD13C,1.300000*%
G04 #@! TD*
G04 #@! TA.AperFunction,ComponentPad*
%ADD14O,1.700000X1.950000*%
G04 #@! TD*
G04 #@! TA.AperFunction,ComponentPad*
%ADD15O,1.950000X1.700000*%
G04 #@! TD*
G04 #@! TA.AperFunction,ComponentPad*
%ADD16O,1.700000X1.700000*%
G04 #@! TD*
G04 #@! TA.AperFunction,SMDPad,CuDef*
%ADD17R,3.500000X1.700000*%
G04 #@! TD*
G04 #@! TA.AperFunction,ComponentPad*
%ADD18R,1.700000X1.700000*%
G04 #@! TD*
G04 #@! TA.AperFunction,SMDPad,CuDef*
%ADD19R,1.700000X3.500000*%
G04 #@! TD*
G04 #@! TA.AperFunction,SMDPad,CuDef*
%ADD20C,0.100000*%
G04 #@! TD*
G04 #@! TA.AperFunction,SMDPad,CuDef*
%ADD21R,1.120000X2.440000*%
G04 #@! TD*
G04 #@! TA.AperFunction,ViaPad*
%ADD22C,0.800000*%
G04 #@! TD*
G04 #@! TA.AperFunction,ViaPad*
%ADD23C,1.524000*%
G04 #@! TD*
G04 #@! TA.AperFunction,Conductor*
%ADD24C,0.381000*%
G04 #@! TD*
G04 #@! TA.AperFunction,Conductor*
%ADD25C,0.508000*%
G04 #@! TD*
G04 #@! TA.AperFunction,Conductor*
%ADD26C,0.254000*%
G04 #@! TD*
G04 APERTURE END LIST*
D10*
X71070000Y-82225240D03*
X50750000Y-87275000D03*
X81230000Y-87275000D03*
X81230000Y-82225000D03*
X78690000Y-87275000D03*
X78690000Y-82225000D03*
X76150000Y-87275000D03*
X76150000Y-82225000D03*
X73610000Y-87275000D03*
X73610000Y-82225000D03*
X71070000Y-87275000D03*
X68530000Y-87275000D03*
X68530000Y-82225000D03*
X65990000Y-87275000D03*
X65990000Y-82225000D03*
X63450000Y-87275000D03*
X63450000Y-82225000D03*
X60910000Y-87275000D03*
X60910000Y-82225000D03*
X58370000Y-87275000D03*
X58370000Y-82225000D03*
X55830000Y-87275000D03*
X55830000Y-82225000D03*
X53290000Y-87275000D03*
X53290000Y-82225000D03*
X50750000Y-82225000D03*
X48210000Y-87275000D03*
X48210000Y-82225000D03*
X45670000Y-87275000D03*
X45670000Y-82225000D03*
X43130000Y-87275000D03*
X43130000Y-82225000D03*
X40590000Y-87275000D03*
X40590000Y-82225000D03*
X38050000Y-87275000D03*
X38050000Y-82225000D03*
X35510000Y-87275000D03*
X35510000Y-82225000D03*
X32970000Y-87275000D03*
X32970000Y-82225000D03*
D11*
X33395000Y-51252000D03*
X30855000Y-48712000D03*
X33395000Y-48712000D03*
X35935000Y-48712000D03*
X38475000Y-48712000D03*
X41015000Y-48712000D03*
X43555000Y-48712000D03*
X46095000Y-48712000D03*
X48635000Y-48712000D03*
X51175000Y-48712000D03*
X53715000Y-48712000D03*
X56255000Y-48712000D03*
X58795000Y-48712000D03*
X61335000Y-48712000D03*
X63875000Y-48712000D03*
D12*
X30855000Y-63952000D03*
D11*
X33395000Y-63952000D03*
X35935000Y-63952000D03*
X38475000Y-63952000D03*
X41015000Y-63952000D03*
X43555000Y-63952000D03*
X46095000Y-63952000D03*
X48635000Y-63952000D03*
X51175000Y-63952000D03*
X53715000Y-63952000D03*
X56255000Y-63952000D03*
X58795000Y-63952000D03*
X61335000Y-63952000D03*
X66415000Y-48712000D03*
X68955000Y-48712000D03*
X71495000Y-48712000D03*
X74035000Y-48712000D03*
X76575000Y-48712000D03*
X79115000Y-48712000D03*
X81655000Y-48712000D03*
X84195000Y-48712000D03*
X86735000Y-48712000D03*
X89275000Y-48712000D03*
X89275000Y-63952000D03*
X86735000Y-63952000D03*
X84195000Y-63952000D03*
X81655000Y-63952000D03*
X63875000Y-63952000D03*
X66415000Y-63952000D03*
X68955000Y-63952000D03*
X79115000Y-63952000D03*
X76575000Y-63952000D03*
X74035000Y-63952000D03*
X71495000Y-63952000D03*
D13*
X31585000Y-57602000D03*
X31585000Y-55062000D03*
D14*
X70200000Y-28600000D03*
X67700000Y-28600000D03*
X65200000Y-28600000D03*
X62700000Y-28600000D03*
X60200000Y-28600000D03*
X57700000Y-28600000D03*
G04 #@! TA.AperFunction,ComponentPad*
G36*
G01*
X54350000Y-29325000D02*
X54350000Y-27875000D01*
G75*
G02*
X54600000Y-27625000I250000J0D01*
G01*
X55800000Y-27625000D01*
G75*
G02*
X56050000Y-27875000I0J-250000D01*
G01*
X56050000Y-29325000D01*
G75*
G02*
X55800000Y-29575000I-250000J0D01*
G01*
X54600000Y-29575000D01*
G75*
G02*
X54350000Y-29325000I0J250000D01*
G01*
G37*
G04 #@! TD.AperFunction*
D15*
X24403400Y-54115200D03*
X24403400Y-56615200D03*
X24403400Y-59115200D03*
G04 #@! TA.AperFunction,ComponentPad*
G36*
G01*
X25128400Y-62465200D02*
X23678400Y-62465200D01*
G75*
G02*
X23428400Y-62215200I0J250000D01*
G01*
X23428400Y-61015200D01*
G75*
G02*
X23678400Y-60765200I250000J0D01*
G01*
X25128400Y-60765200D01*
G75*
G02*
X25378400Y-61015200I0J-250000D01*
G01*
X25378400Y-62215200D01*
G75*
G02*
X25128400Y-62465200I-250000J0D01*
G01*
G37*
G04 #@! TD.AperFunction*
D16*
X83200000Y-33440000D03*
D17*
X84100000Y-33440000D03*
D18*
X83200000Y-30900000D03*
D17*
X84100000Y-30900000D03*
D16*
X83200000Y-28360000D03*
D17*
X84100000Y-28360000D03*
D19*
X83430000Y-40690000D03*
X80890000Y-40690000D03*
X78350000Y-40690000D03*
X75810000Y-40690000D03*
X73270000Y-40690000D03*
X70730000Y-40690000D03*
X68190000Y-40690000D03*
X65650000Y-40690000D03*
X63110000Y-40690000D03*
X60570000Y-40690000D03*
X58030000Y-40690000D03*
X55490000Y-40690000D03*
X52950000Y-40690000D03*
X50410000Y-40690000D03*
X47870000Y-40690000D03*
X45330000Y-40690000D03*
X42790000Y-40690000D03*
X40250000Y-40690000D03*
X37710000Y-40690000D03*
X35170000Y-40690000D03*
X83430000Y-21110000D03*
X80890000Y-21110000D03*
X78350000Y-21110000D03*
X75810000Y-21110000D03*
X73270000Y-21110000D03*
X70730000Y-21110000D03*
X68190000Y-21110000D03*
X65650000Y-21110000D03*
X63110000Y-21110000D03*
X60570000Y-21110000D03*
X58030000Y-21110000D03*
X55490000Y-21110000D03*
X52950000Y-21110000D03*
X50410000Y-21110000D03*
X47870000Y-21110000D03*
X45330000Y-21110000D03*
X42790000Y-21110000D03*
X40250000Y-21110000D03*
X37710000Y-21110000D03*
X35170000Y-21110000D03*
D16*
X35170000Y-39790000D03*
X37710000Y-39790000D03*
D18*
X40250000Y-39790000D03*
D16*
X42790000Y-39790000D03*
X45330000Y-39790000D03*
X47870000Y-39790000D03*
X50410000Y-39790000D03*
D18*
X52950000Y-39790000D03*
D16*
X55490000Y-39790000D03*
X58030000Y-39790000D03*
X60570000Y-39790000D03*
X63110000Y-39790000D03*
D18*
X65650000Y-39790000D03*
D16*
X68190000Y-39790000D03*
X70730000Y-39790000D03*
X73270000Y-39790000D03*
X75810000Y-39790000D03*
D18*
X78350000Y-39790000D03*
D16*
X80890000Y-39790000D03*
X83430000Y-39790000D03*
X83430000Y-22010000D03*
X80890000Y-22010000D03*
D18*
X78350000Y-22010000D03*
D16*
X75810000Y-22010000D03*
X73270000Y-22010000D03*
X70730000Y-22010000D03*
X68190000Y-22010000D03*
D18*
X65650000Y-22010000D03*
D16*
X63110000Y-22010000D03*
X60570000Y-22010000D03*
X58030000Y-22010000D03*
X55490000Y-22010000D03*
D18*
X52950000Y-22010000D03*
D16*
X50410000Y-22010000D03*
X47870000Y-22010000D03*
X45330000Y-22010000D03*
X42790000Y-22010000D03*
D18*
X40250000Y-22010000D03*
D16*
X37710000Y-22010000D03*
X35170000Y-22010000D03*
G04 #@! TA.AperFunction,SMDPad,CuDef*
D20*
G36*
X34750961Y-29390245D02*
G01*
X34753806Y-29380866D01*
X34758427Y-29372221D01*
X34764645Y-29364645D01*
X34772221Y-29358427D01*
X34780866Y-29353806D01*
X34790245Y-29350961D01*
X34800000Y-29350000D01*
X35800000Y-29350000D01*
X35809755Y-29350961D01*
X35819134Y-29353806D01*
X35827779Y-29358427D01*
X35835355Y-29364645D01*
X35841573Y-29372221D01*
X35846194Y-29380866D01*
X35849039Y-29390245D01*
X35850000Y-29400000D01*
X35850000Y-30400000D01*
X35849039Y-30409755D01*
X35846194Y-30419134D01*
X35841573Y-30427779D01*
X35835355Y-30435355D01*
X35827779Y-30441573D01*
X35819134Y-30446194D01*
X35809755Y-30449039D01*
X35800000Y-30450000D01*
X34800000Y-30450000D01*
X34790245Y-30449039D01*
X34780866Y-30446194D01*
X34772221Y-30441573D01*
X34764645Y-30435355D01*
X34758427Y-30427779D01*
X34753806Y-30419134D01*
X34750961Y-30409755D01*
X34750000Y-30400000D01*
X34750000Y-29400000D01*
X34750961Y-29390245D01*
G37*
G04 #@! TD.AperFunction*
G04 #@! TA.AperFunction,SMDPad,CuDef*
G36*
X34750961Y-31390245D02*
G01*
X34753806Y-31380866D01*
X34758427Y-31372221D01*
X34764645Y-31364645D01*
X34772221Y-31358427D01*
X34780866Y-31353806D01*
X34790245Y-31350961D01*
X34800000Y-31350000D01*
X35800000Y-31350000D01*
X35809755Y-31350961D01*
X35819134Y-31353806D01*
X35827779Y-31358427D01*
X35835355Y-31364645D01*
X35841573Y-31372221D01*
X35846194Y-31380866D01*
X35849039Y-31390245D01*
X35850000Y-31400000D01*
X35850000Y-32400000D01*
X35849039Y-32409755D01*
X35846194Y-32419134D01*
X35841573Y-32427779D01*
X35835355Y-32435355D01*
X35827779Y-32441573D01*
X35819134Y-32446194D01*
X35809755Y-32449039D01*
X35800000Y-32450000D01*
X34800000Y-32450000D01*
X34790245Y-32449039D01*
X34780866Y-32446194D01*
X34772221Y-32441573D01*
X34764645Y-32435355D01*
X34758427Y-32427779D01*
X34753806Y-32419134D01*
X34750961Y-32409755D01*
X34750000Y-32400000D01*
X34750000Y-31400000D01*
X34750961Y-31390245D01*
G37*
G04 #@! TD.AperFunction*
G04 #@! TA.AperFunction,SMDPad,CuDef*
G36*
X37046247Y-30788191D02*
G01*
X37060836Y-30714849D01*
X37082543Y-30643290D01*
X37111160Y-30574203D01*
X37146411Y-30508254D01*
X37187956Y-30446077D01*
X37235395Y-30388272D01*
X37288272Y-30335395D01*
X37346077Y-30287956D01*
X37408254Y-30246411D01*
X37474203Y-30211160D01*
X37543290Y-30182543D01*
X37614849Y-30160836D01*
X37688191Y-30146247D01*
X37762610Y-30138918D01*
X37837390Y-30138918D01*
X37911809Y-30146247D01*
X37985151Y-30160836D01*
X38056710Y-30182543D01*
X38125797Y-30211160D01*
X38191746Y-30246411D01*
X38253923Y-30287956D01*
X38311728Y-30335395D01*
X38364605Y-30388272D01*
X38412044Y-30446077D01*
X38453589Y-30508254D01*
X38488840Y-30574203D01*
X38517457Y-30643290D01*
X38539164Y-30714849D01*
X38553753Y-30788191D01*
X38561082Y-30862610D01*
X38561082Y-30937390D01*
X38553753Y-31011809D01*
X38539164Y-31085151D01*
X38517457Y-31156710D01*
X38488840Y-31225797D01*
X38453589Y-31291746D01*
X38412044Y-31353923D01*
X38364605Y-31411728D01*
X38311728Y-31464605D01*
X38253923Y-31512044D01*
X38191746Y-31553589D01*
X38125797Y-31588840D01*
X38056710Y-31617457D01*
X37985151Y-31639164D01*
X37911809Y-31653753D01*
X37837390Y-31661082D01*
X37762610Y-31661082D01*
X37688191Y-31653753D01*
X37614849Y-31639164D01*
X37543290Y-31617457D01*
X37474203Y-31588840D01*
X37408254Y-31553589D01*
X37346077Y-31512044D01*
X37288272Y-31464605D01*
X37235395Y-31411728D01*
X37187956Y-31353923D01*
X37146411Y-31291746D01*
X37111160Y-31225797D01*
X37082543Y-31156710D01*
X37060836Y-31085151D01*
X37046247Y-31011809D01*
X37038918Y-30937390D01*
X37038918Y-30862610D01*
X37046247Y-30788191D01*
G37*
G04 #@! TD.AperFunction*
D21*
X71495000Y-36228200D03*
X76575000Y-36228200D03*
X74035000Y-36228200D03*
X71495000Y-44838200D03*
X76575000Y-44838200D03*
X68955000Y-44838200D03*
X68955000Y-36228200D03*
X74035000Y-44838200D03*
D22*
X40590000Y-82225000D03*
X60217400Y-70302000D03*
X72714200Y-70962400D03*
X63163800Y-68778000D03*
D23*
X76137300Y-87340800D03*
X76150000Y-82197300D03*
D22*
X48210000Y-87275000D03*
X48210000Y-82225000D03*
X45670000Y-87275000D03*
X45670000Y-82225000D03*
X43130000Y-87275000D03*
X43130000Y-82225000D03*
X40590000Y-87275000D03*
X50750000Y-82225000D03*
X50750000Y-87275000D03*
X53290000Y-82225000D03*
X53290000Y-87275000D03*
X55830000Y-82225000D03*
X55830000Y-87275000D03*
X60910000Y-82225000D03*
X68530000Y-82225000D03*
X65990000Y-87275000D03*
X65990000Y-82225000D03*
X63450000Y-87275000D03*
X63450000Y-82225000D03*
X60910000Y-87275000D03*
X58370000Y-87275000D03*
X58370000Y-82130000D03*
X72714200Y-74895500D03*
D23*
X78715400Y-82146500D03*
X78690000Y-87302700D03*
D22*
X38050000Y-87275000D03*
X38050000Y-82225000D03*
X35510000Y-87275000D03*
X35510000Y-82225000D03*
X32970000Y-87275000D03*
X32970000Y-82225000D03*
X68530000Y-87275000D03*
X81230000Y-87275000D03*
X81242700Y-82222700D03*
X74400000Y-56000000D03*
X66800000Y-56000000D03*
X71100000Y-82200000D03*
X71100000Y-87300000D03*
X73600000Y-82200000D03*
X73600000Y-87300000D03*
X68971800Y-36228200D03*
X71495000Y-36228200D03*
X74035000Y-36228200D03*
X76575000Y-36228200D03*
X74035000Y-44838200D03*
X76575000Y-44838200D03*
X71495000Y-44838200D03*
X68955000Y-44838200D03*
X60600000Y-65400000D03*
X60200000Y-62600000D03*
D24*
X40590000Y-71997000D02*
X48635000Y-63952000D01*
X40590000Y-82225000D02*
X40590000Y-71997000D01*
X74045990Y-66481010D02*
X76575000Y-63952000D01*
X63462334Y-66481010D02*
X74045990Y-66481010D01*
X60075490Y-67724510D02*
X62218835Y-67724509D01*
X49600000Y-78200000D02*
X60075490Y-67724510D01*
X49600000Y-86893000D02*
X49600000Y-78200000D01*
X49218000Y-87275000D02*
X49600000Y-86893000D01*
X62218835Y-67724509D02*
X63462334Y-66481010D01*
X48210000Y-87275000D02*
X49218000Y-87275000D01*
X48210000Y-78590000D02*
X48210000Y-82225000D01*
X59656500Y-67143500D02*
X48210000Y-78590000D01*
X61978172Y-67143500D02*
X59656500Y-67143500D01*
X63221672Y-65900000D02*
X61978172Y-67143500D01*
X72087000Y-65900000D02*
X63221672Y-65900000D01*
X74035000Y-63952000D02*
X72087000Y-65900000D01*
X58800000Y-66500000D02*
X46825000Y-78475000D01*
X46825000Y-78475000D02*
X46825000Y-86825000D01*
X46825000Y-86825000D02*
X46375000Y-87275000D01*
X46375000Y-87275000D02*
X45670000Y-87275000D01*
X58800000Y-66500000D02*
X61800000Y-66500000D01*
X63875000Y-64425000D02*
X63875000Y-63952000D01*
X61800000Y-66500000D02*
X63875000Y-64425000D01*
X45670000Y-77077000D02*
X58795000Y-63952000D01*
X48073500Y-74673500D02*
X58795000Y-63952000D01*
X45670000Y-82225000D02*
X45670000Y-77077000D01*
X44300000Y-75907000D02*
X56255000Y-63952000D01*
X44300000Y-87000000D02*
X44300000Y-75907000D01*
X44025000Y-87275000D02*
X44300000Y-87000000D01*
X43130000Y-87275000D02*
X44025000Y-87275000D01*
X43130000Y-74537000D02*
X53715000Y-63952000D01*
X43130000Y-82225000D02*
X43130000Y-74537000D01*
X51175000Y-63952000D02*
X41725000Y-73402000D01*
X41725000Y-73402000D02*
X41725000Y-86875000D01*
X41725000Y-86875000D02*
X41325000Y-87275000D01*
X41325000Y-87275000D02*
X40590000Y-87275000D01*
X79115000Y-65585000D02*
X79115000Y-63952000D01*
X77637980Y-67062020D02*
X79115000Y-65585000D01*
X60494482Y-68305518D02*
X62466340Y-68305518D01*
X63709838Y-67062020D02*
X77637980Y-67062020D01*
X50750000Y-78050000D02*
X60494482Y-68305518D01*
X62466340Y-68305518D02*
X63709838Y-67062020D01*
X50750000Y-82225000D02*
X50750000Y-78050000D01*
X81655000Y-65245000D02*
X81655000Y-63952000D01*
X79256970Y-67643030D02*
X81655000Y-65245000D01*
X70456970Y-67643030D02*
X79256970Y-67643030D01*
X66800000Y-71300000D02*
X70456970Y-67643030D01*
X59000000Y-71300000D02*
X66800000Y-71300000D01*
X52000000Y-78300000D02*
X59000000Y-71300000D01*
X52000000Y-86999499D02*
X52000000Y-78300000D01*
X51724499Y-87275000D02*
X52000000Y-86999499D01*
X50750000Y-87275000D02*
X51724499Y-87275000D01*
X84195000Y-65905000D02*
X84195000Y-63952000D01*
X81875960Y-68224040D02*
X84195000Y-65905000D01*
X70697632Y-68224040D02*
X81875960Y-68224040D01*
X67040663Y-71881009D02*
X70697632Y-68224040D01*
X59318990Y-71881010D02*
X67040663Y-71881009D01*
X53290000Y-77910000D02*
X59318990Y-71881010D01*
X53290000Y-82225000D02*
X53290000Y-77910000D01*
X84394950Y-68805050D02*
X86735000Y-66465000D01*
X70938294Y-68805050D02*
X84394950Y-68805050D01*
X67281326Y-72462018D02*
X70938294Y-68805050D01*
X59637982Y-72462018D02*
X67281326Y-72462018D01*
X54500000Y-77600000D02*
X59637982Y-72462018D01*
X86735000Y-66465000D02*
X86735000Y-63952000D01*
X54500000Y-86900000D02*
X54500000Y-77600000D01*
X54125000Y-87275000D02*
X54500000Y-86900000D01*
X53290000Y-87275000D02*
X54125000Y-87275000D01*
X71178956Y-69386060D02*
X86513940Y-69386060D01*
X67521989Y-73043027D02*
X71178956Y-69386060D01*
X89275000Y-66625000D02*
X89275000Y-63952000D01*
X59878644Y-73043028D02*
X67521989Y-73043027D01*
X86513940Y-69386060D02*
X89275000Y-66625000D01*
X55830000Y-77091672D02*
X59878644Y-73043028D01*
X55830000Y-82225000D02*
X55830000Y-77091672D01*
X88032930Y-69967070D02*
X90900000Y-67100000D01*
X71419618Y-69967070D02*
X88032930Y-69967070D01*
X89900000Y-61700000D02*
X41200000Y-61700000D01*
X90900000Y-67100000D02*
X90900000Y-62700000D01*
X67762652Y-73624036D02*
X71419618Y-69967070D01*
X57060336Y-76683008D02*
X60119308Y-73624036D01*
X38475000Y-58975000D02*
X38475000Y-48712000D01*
X57060336Y-86839664D02*
X57060336Y-76683008D01*
X41200000Y-61700000D02*
X38475000Y-58975000D01*
X56625000Y-87275000D02*
X57060336Y-86839664D01*
X90900000Y-62700000D02*
X89900000Y-61700000D01*
X60119308Y-73624036D02*
X67762652Y-73624036D01*
X55830000Y-87275000D02*
X56625000Y-87275000D01*
X41015000Y-59515000D02*
X41015000Y-48712000D01*
X91500000Y-62478328D02*
X90140663Y-61118991D01*
X91500000Y-67321672D02*
X91500000Y-62478328D01*
X88273592Y-70548080D02*
X91500000Y-67321672D01*
X73000000Y-71800000D02*
X74251920Y-70548080D01*
X90140663Y-61118991D02*
X42618990Y-61118990D01*
X70408360Y-71800000D02*
X73000000Y-71800000D01*
X68003315Y-74205045D02*
X70408360Y-71800000D01*
X63900000Y-74205046D02*
X68003315Y-74205045D01*
X42618990Y-61118990D02*
X41015000Y-59515000D01*
X60910000Y-77195046D02*
X63900000Y-74205046D01*
X74251920Y-70548080D02*
X88273592Y-70548080D01*
X60910000Y-82225000D02*
X60910000Y-77195046D01*
X70295097Y-76848019D02*
X73574967Y-76848019D01*
X68530000Y-78613116D02*
X70295097Y-76848019D01*
X73574967Y-76848019D02*
X76388848Y-74034138D01*
X89717589Y-74034138D02*
X94986056Y-68765641D01*
X76388848Y-74034138D02*
X89717589Y-74034138D01*
X94986056Y-61034352D02*
X91584637Y-57632933D01*
X94986056Y-68765641D02*
X94986056Y-61034352D01*
X91584637Y-57632933D02*
X57432933Y-57632933D01*
X56255000Y-56455000D02*
X56255000Y-48712000D01*
X57432933Y-57632933D02*
X56255000Y-56455000D01*
X68530000Y-82225000D02*
X68530000Y-78613116D01*
X53715000Y-57515000D02*
X53715000Y-48712000D01*
X54413943Y-58213943D02*
X53715000Y-57515000D01*
X76148186Y-73453128D02*
X89476904Y-73453128D01*
X89476904Y-73453128D02*
X94405046Y-68524982D01*
X73334304Y-76267010D02*
X76148186Y-73453128D01*
X70054433Y-76267011D02*
X73334304Y-76267010D01*
X94405047Y-61275015D02*
X91343975Y-58213943D01*
X67200000Y-87000000D02*
X67200000Y-79121444D01*
X94405046Y-68524982D02*
X94405047Y-61275015D01*
X66925000Y-87275000D02*
X67200000Y-87000000D01*
X91343975Y-58213943D02*
X54413943Y-58213943D01*
X67200000Y-79121444D02*
X70054433Y-76267011D01*
X65990000Y-87275000D02*
X66925000Y-87275000D01*
X65990000Y-79509772D02*
X65990000Y-82225000D01*
X69813771Y-75686001D02*
X65990000Y-79509772D01*
X73093641Y-75686001D02*
X69813771Y-75686001D01*
X75907522Y-72872120D02*
X73093641Y-75686001D01*
X91103313Y-58794953D02*
X93824038Y-61515678D01*
X93824038Y-61515678D02*
X93824037Y-68284321D01*
X52194953Y-58794953D02*
X91103313Y-58794953D01*
X51175000Y-57775000D02*
X52194953Y-58794953D01*
X89236241Y-72872119D02*
X75907522Y-72872120D01*
X93824037Y-68284321D02*
X89236241Y-72872119D01*
X51175000Y-48712000D02*
X51175000Y-57775000D01*
X64325000Y-87275000D02*
X63450000Y-87275000D01*
X64600000Y-87000000D02*
X64325000Y-87275000D01*
X48635000Y-48712000D02*
X48635000Y-58035000D01*
X75130562Y-72291110D02*
X73878643Y-73543029D01*
X48635000Y-58035000D02*
X49975963Y-59375963D01*
X64600000Y-80073376D02*
X64600000Y-87000000D01*
X49975963Y-59375963D02*
X90862651Y-59375963D01*
X69434326Y-75239050D02*
X64600000Y-80073376D01*
X90862651Y-59375963D02*
X93243029Y-61756341D01*
X93243028Y-68043660D02*
X88995578Y-72291110D01*
X93243029Y-61756341D02*
X93243028Y-68043660D01*
X69439050Y-75239050D02*
X69434326Y-75239050D01*
X88995578Y-72291110D02*
X75130562Y-72291110D01*
X71135070Y-73543030D02*
X69439050Y-75239050D01*
X73878643Y-73543029D02*
X71135070Y-73543030D01*
X73637980Y-72962020D02*
X70889684Y-72962020D01*
X74889900Y-71710100D02*
X73637980Y-72962020D01*
X63450000Y-80401704D02*
X63450000Y-82225000D01*
X88754916Y-71710100D02*
X74889900Y-71710100D01*
X92662019Y-67802997D02*
X88754916Y-71710100D01*
X92662019Y-61997003D02*
X92662019Y-67802997D01*
X90621989Y-59956973D02*
X92662019Y-61997003D01*
X47143027Y-59956973D02*
X90621989Y-59956973D01*
X70889684Y-72962020D02*
X63450000Y-80401704D01*
X46095000Y-58908946D02*
X47143027Y-59956973D01*
X46095000Y-48712000D02*
X46095000Y-58908946D01*
X90381326Y-60537982D02*
X92081010Y-62237666D01*
X43555000Y-59055000D02*
X45037982Y-60537982D01*
X43555000Y-48712000D02*
X43555000Y-59055000D01*
X45037982Y-60537982D02*
X90381326Y-60537982D01*
X92081010Y-66418990D02*
X92081010Y-66881010D01*
X92081010Y-62237666D02*
X92081010Y-66418990D01*
X61725000Y-87275000D02*
X60910000Y-87275000D01*
X62048549Y-86951451D02*
X61725000Y-87275000D01*
X62048549Y-80981483D02*
X62048549Y-86951451D01*
X70649022Y-72381010D02*
X62048549Y-80981483D01*
X74492582Y-71129090D02*
X73240663Y-72381009D01*
X73240663Y-72381009D02*
X70649022Y-72381010D01*
X88514254Y-71129090D02*
X74492582Y-71129090D01*
X92081010Y-67562334D02*
X88514254Y-71129090D01*
X92081010Y-66418990D02*
X92081010Y-67562334D01*
X46095000Y-63952000D02*
X39223500Y-70823500D01*
X39223500Y-70823500D02*
X39223500Y-86776500D01*
X39223500Y-86776500D02*
X38725000Y-87275000D01*
X38725000Y-87275000D02*
X38050000Y-87275000D01*
X38050000Y-69457000D02*
X43555000Y-63952000D01*
X38050000Y-82225000D02*
X38050000Y-69457000D01*
X36600000Y-68367000D02*
X41015000Y-63952000D01*
X36600000Y-87000000D02*
X36600000Y-68367000D01*
X36325000Y-87275000D02*
X36600000Y-87000000D01*
X35510000Y-87275000D02*
X36325000Y-87275000D01*
X35500000Y-66927000D02*
X35500000Y-82215000D01*
X35500000Y-82215000D02*
X35510000Y-82225000D01*
X38475000Y-63952000D02*
X35500000Y-66927000D01*
X35935000Y-65215000D02*
X35935000Y-63952000D01*
X34250000Y-66900000D02*
X35935000Y-65215000D01*
X34250000Y-86850000D02*
X34250000Y-66900000D01*
X33825000Y-87275000D02*
X34250000Y-86850000D01*
X32970000Y-87275000D02*
X33825000Y-87275000D01*
X33395000Y-65395000D02*
X33395000Y-63952000D01*
X31345000Y-67445000D02*
X33395000Y-65395000D01*
X31345000Y-81745000D02*
X31345000Y-67445000D01*
X31825000Y-82225000D02*
X31345000Y-81745000D01*
X32970000Y-82225000D02*
X31825000Y-82225000D01*
X69325000Y-87275000D02*
X69800000Y-86800000D01*
X69800000Y-86800000D02*
X69800000Y-78429029D01*
X70800000Y-77429029D02*
X73815630Y-77429028D01*
X69800000Y-78429029D02*
X70800000Y-77429029D01*
X89476929Y-74615148D02*
X89958253Y-74615146D01*
X76629510Y-74615148D02*
X89476929Y-74615148D01*
X73815630Y-77429028D02*
X76629510Y-74615148D01*
X95567065Y-60793689D02*
X91825299Y-57051923D01*
X95567066Y-69006303D02*
X95567065Y-60793689D01*
X89958253Y-74615146D02*
X95567066Y-69006303D01*
X91825299Y-57051923D02*
X60051923Y-57051923D01*
X58795000Y-55795000D02*
X58795000Y-48712000D01*
X60051923Y-57051923D02*
X58795000Y-55795000D01*
X68530000Y-87275000D02*
X69325000Y-87275000D01*
X74400000Y-56000000D02*
X66800000Y-56000000D01*
D25*
X68955000Y-36228200D02*
X68971800Y-36228200D01*
X71495000Y-36228200D02*
X74035000Y-36228200D01*
X58515300Y-36228200D02*
X68955000Y-36228200D01*
X37611400Y-45194100D02*
X55480300Y-45194100D01*
X35935000Y-46870500D02*
X37611400Y-45194100D01*
X35935000Y-48712000D02*
X35935000Y-46870500D01*
X68971800Y-36228200D02*
X71495000Y-36228200D01*
X74035000Y-36228200D02*
X76575000Y-36228200D01*
D24*
X56789499Y-43861699D02*
X56801100Y-43873300D01*
X56789499Y-39194559D02*
X56789499Y-43861699D01*
X56801100Y-39182958D02*
X56789499Y-39194559D01*
X56801100Y-37942400D02*
X56801100Y-39182958D01*
X56789499Y-37954001D02*
X58515300Y-36228200D01*
X56789499Y-43884901D02*
X56789499Y-37954001D01*
X55480300Y-45194100D02*
X56789499Y-43884901D01*
X65065501Y-63380559D02*
X64446441Y-62761499D01*
X65065501Y-64364443D02*
X65065501Y-63380559D01*
X65843559Y-65142501D02*
X65065501Y-64364443D01*
X67764499Y-65142501D02*
X65843559Y-65142501D01*
X68955000Y-63952000D02*
X67764499Y-65142501D01*
X63303559Y-62761499D02*
X62525501Y-63539557D01*
X62525501Y-63539557D02*
X62525501Y-64523441D01*
X64238501Y-62761499D02*
X63303559Y-62761499D01*
X64446441Y-62761499D02*
X64238501Y-62761499D01*
X62525501Y-64523441D02*
X61648942Y-65400000D01*
X61648942Y-65400000D02*
X60600000Y-65400000D01*
X71495000Y-63952000D02*
X69824010Y-62281010D01*
X69824010Y-62281010D02*
X64787624Y-62281010D01*
X60200000Y-62600000D02*
X62643386Y-62600000D01*
X62643386Y-62600000D02*
X62962376Y-62281010D01*
D26*
X64750603Y-62243989D02*
X64787624Y-62281010D01*
X63089200Y-62243989D02*
X64750603Y-62243989D01*
X63052179Y-62281010D02*
X63089200Y-62243989D01*
X62962376Y-62281010D02*
X63052179Y-62281010D01*
M02*
