G04 #@! TF.GenerationSoftware,KiCad,Pcbnew,(5.1.10)-1*
G04 #@! TF.CreationDate,2021-10-18T05:05:42+10:00*
G04 #@! TF.ProjectId,RedPyKeeb_MCU,52656450-794b-4656-9562-5f4d43552e6b,rev?*
G04 #@! TF.SameCoordinates,Original*
G04 #@! TF.FileFunction,Soldermask,Top*
G04 #@! TF.FilePolarity,Negative*
%FSLAX46Y46*%
G04 Gerber Fmt 4.6, Leading zero omitted, Abs format (unit mm)*
G04 Created by KiCad (PCBNEW (5.1.10)-1) date 2021-10-18 05:05:42*
%MOMM*%
%LPD*%
G01*
G04 APERTURE LIST*
%ADD10R,1.000000X3.150000*%
%ADD11C,1.600000*%
%ADD12R,1.600000X1.600000*%
%ADD13C,1.300000*%
%ADD14R,1.300000X1.500000*%
%ADD15O,1.700000X1.950000*%
%ADD16O,1.950000X1.700000*%
%ADD17O,1.700000X1.700000*%
%ADD18R,1.700000X1.700000*%
%ADD19O,1.500000X1.500000*%
%ADD20O,1.800000X1.800000*%
%ADD21C,0.100000*%
%ADD22R,1.120000X2.440000*%
%ADD23R,0.970000X1.270000*%
%ADD24R,1.270000X0.970000*%
G04 APERTURE END LIST*
D10*
X76150000Y-87275000D03*
X76150000Y-82225000D03*
X81230000Y-82225240D03*
X78690000Y-82225000D03*
X78690000Y-87275000D03*
X73610000Y-87275000D03*
X68530000Y-87275000D03*
X71070000Y-87275000D03*
X73610000Y-82225000D03*
X81230000Y-87275000D03*
X60910000Y-87275000D03*
X65990000Y-87275000D03*
X65990000Y-82225000D03*
X63450000Y-82225000D03*
X60910000Y-82225000D03*
X40590000Y-82225000D03*
X53290000Y-82225000D03*
X55830000Y-87275000D03*
X45670000Y-87275000D03*
X43130000Y-82225000D03*
X38050000Y-87275000D03*
X55830000Y-82225000D03*
X53290000Y-87275000D03*
X38050000Y-82225000D03*
X50750000Y-82225000D03*
X58370000Y-87275000D03*
X45670000Y-82225000D03*
X58370000Y-82225000D03*
X48210000Y-87275000D03*
X48210000Y-82225000D03*
X35510000Y-87275000D03*
X35510000Y-82225000D03*
X63450000Y-87275000D03*
X43130000Y-87275000D03*
X40590000Y-87275000D03*
X68530000Y-82225000D03*
X32970000Y-87275000D03*
X32970000Y-82225240D03*
X71070000Y-82225000D03*
X50750000Y-87275000D03*
D11*
X33395000Y-51252000D03*
X30855000Y-48712000D03*
X33395000Y-48712000D03*
X35935000Y-48712000D03*
X38475000Y-48712000D03*
X41015000Y-48712000D03*
X43555000Y-48712000D03*
X46095000Y-48712000D03*
X48635000Y-48712000D03*
X51175000Y-48712000D03*
X53715000Y-48712000D03*
X56255000Y-48712000D03*
X58795000Y-48712000D03*
X61335000Y-48712000D03*
X63875000Y-48712000D03*
D12*
X30855000Y-63952000D03*
D11*
X33395000Y-63952000D03*
X35935000Y-63952000D03*
X38475000Y-63952000D03*
X41015000Y-63952000D03*
X43555000Y-63952000D03*
X46095000Y-63952000D03*
X48635000Y-63952000D03*
X51175000Y-63952000D03*
X53715000Y-63952000D03*
X56255000Y-63952000D03*
X58795000Y-63952000D03*
X61335000Y-63952000D03*
X66415000Y-48712000D03*
X68955000Y-48712000D03*
X71495000Y-48712000D03*
X74035000Y-48712000D03*
X76575000Y-48712000D03*
X79115000Y-48712000D03*
X81655000Y-48712000D03*
X84195000Y-48712000D03*
X86735000Y-48712000D03*
X89275000Y-48712000D03*
X89275000Y-63952000D03*
X86735000Y-63952000D03*
X84195000Y-63952000D03*
X81655000Y-63952000D03*
X63875000Y-63952000D03*
X66415000Y-63952000D03*
X68955000Y-63952000D03*
X79115000Y-63952000D03*
X76575000Y-63952000D03*
X74035000Y-63952000D03*
X71495000Y-63952000D03*
D13*
X31585000Y-57602000D03*
X31585000Y-55062000D03*
D14*
X60268200Y-72994400D03*
X60268200Y-70294400D03*
G36*
G01*
X70633800Y-72767200D02*
X70933800Y-72767200D01*
G75*
G02*
X71083800Y-72917200I0J-150000D01*
G01*
X71083800Y-74567200D01*
G75*
G02*
X70933800Y-74717200I-150000J0D01*
G01*
X70633800Y-74717200D01*
G75*
G02*
X70483800Y-74567200I0J150000D01*
G01*
X70483800Y-72917200D01*
G75*
G02*
X70633800Y-72767200I150000J0D01*
G01*
G37*
G36*
G01*
X69363800Y-72767200D02*
X69663800Y-72767200D01*
G75*
G02*
X69813800Y-72917200I0J-150000D01*
G01*
X69813800Y-74567200D01*
G75*
G02*
X69663800Y-74717200I-150000J0D01*
G01*
X69363800Y-74717200D01*
G75*
G02*
X69213800Y-74567200I0J150000D01*
G01*
X69213800Y-72917200D01*
G75*
G02*
X69363800Y-72767200I150000J0D01*
G01*
G37*
G36*
G01*
X68093800Y-72767200D02*
X68393800Y-72767200D01*
G75*
G02*
X68543800Y-72917200I0J-150000D01*
G01*
X68543800Y-74567200D01*
G75*
G02*
X68393800Y-74717200I-150000J0D01*
G01*
X68093800Y-74717200D01*
G75*
G02*
X67943800Y-74567200I0J150000D01*
G01*
X67943800Y-72917200D01*
G75*
G02*
X68093800Y-72767200I150000J0D01*
G01*
G37*
G36*
G01*
X66823800Y-72767200D02*
X67123800Y-72767200D01*
G75*
G02*
X67273800Y-72917200I0J-150000D01*
G01*
X67273800Y-74567200D01*
G75*
G02*
X67123800Y-74717200I-150000J0D01*
G01*
X66823800Y-74717200D01*
G75*
G02*
X66673800Y-74567200I0J150000D01*
G01*
X66673800Y-72917200D01*
G75*
G02*
X66823800Y-72767200I150000J0D01*
G01*
G37*
G36*
G01*
X65553800Y-72767200D02*
X65853800Y-72767200D01*
G75*
G02*
X66003800Y-72917200I0J-150000D01*
G01*
X66003800Y-74567200D01*
G75*
G02*
X65853800Y-74717200I-150000J0D01*
G01*
X65553800Y-74717200D01*
G75*
G02*
X65403800Y-74567200I0J150000D01*
G01*
X65403800Y-72917200D01*
G75*
G02*
X65553800Y-72767200I150000J0D01*
G01*
G37*
G36*
G01*
X64283800Y-72767200D02*
X64583800Y-72767200D01*
G75*
G02*
X64733800Y-72917200I0J-150000D01*
G01*
X64733800Y-74567200D01*
G75*
G02*
X64583800Y-74717200I-150000J0D01*
G01*
X64283800Y-74717200D01*
G75*
G02*
X64133800Y-74567200I0J150000D01*
G01*
X64133800Y-72917200D01*
G75*
G02*
X64283800Y-72767200I150000J0D01*
G01*
G37*
G36*
G01*
X63013800Y-72767200D02*
X63313800Y-72767200D01*
G75*
G02*
X63463800Y-72917200I0J-150000D01*
G01*
X63463800Y-74567200D01*
G75*
G02*
X63313800Y-74717200I-150000J0D01*
G01*
X63013800Y-74717200D01*
G75*
G02*
X62863800Y-74567200I0J150000D01*
G01*
X62863800Y-72917200D01*
G75*
G02*
X63013800Y-72767200I150000J0D01*
G01*
G37*
G36*
G01*
X63013800Y-67817200D02*
X63313800Y-67817200D01*
G75*
G02*
X63463800Y-67967200I0J-150000D01*
G01*
X63463800Y-69617200D01*
G75*
G02*
X63313800Y-69767200I-150000J0D01*
G01*
X63013800Y-69767200D01*
G75*
G02*
X62863800Y-69617200I0J150000D01*
G01*
X62863800Y-67967200D01*
G75*
G02*
X63013800Y-67817200I150000J0D01*
G01*
G37*
G36*
G01*
X64283800Y-67817200D02*
X64583800Y-67817200D01*
G75*
G02*
X64733800Y-67967200I0J-150000D01*
G01*
X64733800Y-69617200D01*
G75*
G02*
X64583800Y-69767200I-150000J0D01*
G01*
X64283800Y-69767200D01*
G75*
G02*
X64133800Y-69617200I0J150000D01*
G01*
X64133800Y-67967200D01*
G75*
G02*
X64283800Y-67817200I150000J0D01*
G01*
G37*
G36*
G01*
X65553800Y-67817200D02*
X65853800Y-67817200D01*
G75*
G02*
X66003800Y-67967200I0J-150000D01*
G01*
X66003800Y-69617200D01*
G75*
G02*
X65853800Y-69767200I-150000J0D01*
G01*
X65553800Y-69767200D01*
G75*
G02*
X65403800Y-69617200I0J150000D01*
G01*
X65403800Y-67967200D01*
G75*
G02*
X65553800Y-67817200I150000J0D01*
G01*
G37*
G36*
G01*
X66823800Y-67817200D02*
X67123800Y-67817200D01*
G75*
G02*
X67273800Y-67967200I0J-150000D01*
G01*
X67273800Y-69617200D01*
G75*
G02*
X67123800Y-69767200I-150000J0D01*
G01*
X66823800Y-69767200D01*
G75*
G02*
X66673800Y-69617200I0J150000D01*
G01*
X66673800Y-67967200D01*
G75*
G02*
X66823800Y-67817200I150000J0D01*
G01*
G37*
G36*
G01*
X68093800Y-67817200D02*
X68393800Y-67817200D01*
G75*
G02*
X68543800Y-67967200I0J-150000D01*
G01*
X68543800Y-69617200D01*
G75*
G02*
X68393800Y-69767200I-150000J0D01*
G01*
X68093800Y-69767200D01*
G75*
G02*
X67943800Y-69617200I0J150000D01*
G01*
X67943800Y-67967200D01*
G75*
G02*
X68093800Y-67817200I150000J0D01*
G01*
G37*
G36*
G01*
X69363800Y-67817200D02*
X69663800Y-67817200D01*
G75*
G02*
X69813800Y-67967200I0J-150000D01*
G01*
X69813800Y-69617200D01*
G75*
G02*
X69663800Y-69767200I-150000J0D01*
G01*
X69363800Y-69767200D01*
G75*
G02*
X69213800Y-69617200I0J150000D01*
G01*
X69213800Y-67967200D01*
G75*
G02*
X69363800Y-67817200I150000J0D01*
G01*
G37*
G36*
G01*
X70633800Y-67817200D02*
X70933800Y-67817200D01*
G75*
G02*
X71083800Y-67967200I0J-150000D01*
G01*
X71083800Y-69617200D01*
G75*
G02*
X70933800Y-69767200I-150000J0D01*
G01*
X70633800Y-69767200D01*
G75*
G02*
X70483800Y-69617200I0J150000D01*
G01*
X70483800Y-67967200D01*
G75*
G02*
X70633800Y-67817200I150000J0D01*
G01*
G37*
D15*
X70200000Y-28600000D03*
X67700000Y-28600000D03*
X65200000Y-28600000D03*
X62700000Y-28600000D03*
X60200000Y-28600000D03*
X57700000Y-28600000D03*
G36*
G01*
X54350000Y-29325000D02*
X54350000Y-27875000D01*
G75*
G02*
X54600000Y-27625000I250000J0D01*
G01*
X55800000Y-27625000D01*
G75*
G02*
X56050000Y-27875000I0J-250000D01*
G01*
X56050000Y-29325000D01*
G75*
G02*
X55800000Y-29575000I-250000J0D01*
G01*
X54600000Y-29575000D01*
G75*
G02*
X54350000Y-29325000I0J250000D01*
G01*
G37*
D16*
X24403400Y-54115200D03*
X24403400Y-56615200D03*
X24403400Y-59115200D03*
G36*
G01*
X25128400Y-62465200D02*
X23678400Y-62465200D01*
G75*
G02*
X23428400Y-62215200I0J250000D01*
G01*
X23428400Y-61015200D01*
G75*
G02*
X23678400Y-60765200I250000J0D01*
G01*
X25128400Y-60765200D01*
G75*
G02*
X25378400Y-61015200I0J-250000D01*
G01*
X25378400Y-62215200D01*
G75*
G02*
X25128400Y-62465200I-250000J0D01*
G01*
G37*
G36*
G01*
X72239200Y-72233000D02*
X73189200Y-72233000D01*
G75*
G02*
X73439200Y-72483000I0J-250000D01*
G01*
X73439200Y-73158000D01*
G75*
G02*
X73189200Y-73408000I-250000J0D01*
G01*
X72239200Y-73408000D01*
G75*
G02*
X71989200Y-73158000I0J250000D01*
G01*
X71989200Y-72483000D01*
G75*
G02*
X72239200Y-72233000I250000J0D01*
G01*
G37*
G36*
G01*
X72239200Y-74308000D02*
X73189200Y-74308000D01*
G75*
G02*
X73439200Y-74558000I0J-250000D01*
G01*
X73439200Y-75233000D01*
G75*
G02*
X73189200Y-75483000I-250000J0D01*
G01*
X72239200Y-75483000D01*
G75*
G02*
X71989200Y-75233000I0J250000D01*
G01*
X71989200Y-74558000D01*
G75*
G02*
X72239200Y-74308000I250000J0D01*
G01*
G37*
G36*
G01*
X73189200Y-69496400D02*
X72239200Y-69496400D01*
G75*
G02*
X71989200Y-69246400I0J250000D01*
G01*
X71989200Y-68571400D01*
G75*
G02*
X72239200Y-68321400I250000J0D01*
G01*
X73189200Y-68321400D01*
G75*
G02*
X73439200Y-68571400I0J-250000D01*
G01*
X73439200Y-69246400D01*
G75*
G02*
X73189200Y-69496400I-250000J0D01*
G01*
G37*
G36*
G01*
X73189200Y-71571400D02*
X72239200Y-71571400D01*
G75*
G02*
X71989200Y-71321400I0J250000D01*
G01*
X71989200Y-70646400D01*
G75*
G02*
X72239200Y-70396400I250000J0D01*
G01*
X73189200Y-70396400D01*
G75*
G02*
X73439200Y-70646400I0J-250000D01*
G01*
X73439200Y-71321400D01*
G75*
G02*
X73189200Y-71571400I-250000J0D01*
G01*
G37*
D17*
X83200000Y-33440000D03*
D18*
X83200000Y-30900000D03*
D17*
X83200000Y-28360000D03*
D19*
X38330000Y-33325000D03*
X38330000Y-28475000D03*
D20*
X35300000Y-33625000D03*
X35300000Y-28175000D03*
D17*
X35170000Y-39790000D03*
X37710000Y-39790000D03*
D18*
X40250000Y-39790000D03*
D17*
X42790000Y-39790000D03*
X45330000Y-39790000D03*
X47870000Y-39790000D03*
X50410000Y-39790000D03*
D18*
X52950000Y-39790000D03*
D17*
X55490000Y-39790000D03*
X58030000Y-39790000D03*
X60570000Y-39790000D03*
X63110000Y-39790000D03*
D18*
X65650000Y-39790000D03*
D17*
X68190000Y-39790000D03*
X70730000Y-39790000D03*
X73270000Y-39790000D03*
X75810000Y-39790000D03*
D18*
X78350000Y-39790000D03*
D17*
X80890000Y-39790000D03*
X83430000Y-39790000D03*
X83430000Y-22010000D03*
X80890000Y-22010000D03*
D18*
X78350000Y-22010000D03*
D17*
X75810000Y-22010000D03*
X73270000Y-22010000D03*
X70730000Y-22010000D03*
X68190000Y-22010000D03*
D18*
X65650000Y-22010000D03*
D17*
X63110000Y-22010000D03*
X60570000Y-22010000D03*
X58030000Y-22010000D03*
X55490000Y-22010000D03*
D18*
X52950000Y-22010000D03*
D17*
X50410000Y-22010000D03*
X47870000Y-22010000D03*
X45330000Y-22010000D03*
X42790000Y-22010000D03*
D18*
X40250000Y-22010000D03*
D17*
X37710000Y-22010000D03*
X35170000Y-22010000D03*
D21*
G36*
X34750961Y-29390245D02*
G01*
X34753806Y-29380866D01*
X34758427Y-29372221D01*
X34764645Y-29364645D01*
X34772221Y-29358427D01*
X34780866Y-29353806D01*
X34790245Y-29350961D01*
X34800000Y-29350000D01*
X35800000Y-29350000D01*
X35809755Y-29350961D01*
X35819134Y-29353806D01*
X35827779Y-29358427D01*
X35835355Y-29364645D01*
X35841573Y-29372221D01*
X35846194Y-29380866D01*
X35849039Y-29390245D01*
X35850000Y-29400000D01*
X35850000Y-30400000D01*
X35849039Y-30409755D01*
X35846194Y-30419134D01*
X35841573Y-30427779D01*
X35835355Y-30435355D01*
X35827779Y-30441573D01*
X35819134Y-30446194D01*
X35809755Y-30449039D01*
X35800000Y-30450000D01*
X34800000Y-30450000D01*
X34790245Y-30449039D01*
X34780866Y-30446194D01*
X34772221Y-30441573D01*
X34764645Y-30435355D01*
X34758427Y-30427779D01*
X34753806Y-30419134D01*
X34750961Y-30409755D01*
X34750000Y-30400000D01*
X34750000Y-29400000D01*
X34750961Y-29390245D01*
G37*
G36*
X34750961Y-31390245D02*
G01*
X34753806Y-31380866D01*
X34758427Y-31372221D01*
X34764645Y-31364645D01*
X34772221Y-31358427D01*
X34780866Y-31353806D01*
X34790245Y-31350961D01*
X34800000Y-31350000D01*
X35800000Y-31350000D01*
X35809755Y-31350961D01*
X35819134Y-31353806D01*
X35827779Y-31358427D01*
X35835355Y-31364645D01*
X35841573Y-31372221D01*
X35846194Y-31380866D01*
X35849039Y-31390245D01*
X35850000Y-31400000D01*
X35850000Y-32400000D01*
X35849039Y-32409755D01*
X35846194Y-32419134D01*
X35841573Y-32427779D01*
X35835355Y-32435355D01*
X35827779Y-32441573D01*
X35819134Y-32446194D01*
X35809755Y-32449039D01*
X35800000Y-32450000D01*
X34800000Y-32450000D01*
X34790245Y-32449039D01*
X34780866Y-32446194D01*
X34772221Y-32441573D01*
X34764645Y-32435355D01*
X34758427Y-32427779D01*
X34753806Y-32419134D01*
X34750961Y-32409755D01*
X34750000Y-32400000D01*
X34750000Y-31400000D01*
X34750961Y-31390245D01*
G37*
G36*
X37046247Y-30788191D02*
G01*
X37060836Y-30714849D01*
X37082543Y-30643290D01*
X37111160Y-30574203D01*
X37146411Y-30508254D01*
X37187956Y-30446077D01*
X37235395Y-30388272D01*
X37288272Y-30335395D01*
X37346077Y-30287956D01*
X37408254Y-30246411D01*
X37474203Y-30211160D01*
X37543290Y-30182543D01*
X37614849Y-30160836D01*
X37688191Y-30146247D01*
X37762610Y-30138918D01*
X37837390Y-30138918D01*
X37911809Y-30146247D01*
X37985151Y-30160836D01*
X38056710Y-30182543D01*
X38125797Y-30211160D01*
X38191746Y-30246411D01*
X38253923Y-30287956D01*
X38311728Y-30335395D01*
X38364605Y-30388272D01*
X38412044Y-30446077D01*
X38453589Y-30508254D01*
X38488840Y-30574203D01*
X38517457Y-30643290D01*
X38539164Y-30714849D01*
X38553753Y-30788191D01*
X38561082Y-30862610D01*
X38561082Y-30937390D01*
X38553753Y-31011809D01*
X38539164Y-31085151D01*
X38517457Y-31156710D01*
X38488840Y-31225797D01*
X38453589Y-31291746D01*
X38412044Y-31353923D01*
X38364605Y-31411728D01*
X38311728Y-31464605D01*
X38253923Y-31512044D01*
X38191746Y-31553589D01*
X38125797Y-31588840D01*
X38056710Y-31617457D01*
X37985151Y-31639164D01*
X37911809Y-31653753D01*
X37837390Y-31661082D01*
X37762610Y-31661082D01*
X37688191Y-31653753D01*
X37614849Y-31639164D01*
X37543290Y-31617457D01*
X37474203Y-31588840D01*
X37408254Y-31553589D01*
X37346077Y-31512044D01*
X37288272Y-31464605D01*
X37235395Y-31411728D01*
X37187956Y-31353923D01*
X37146411Y-31291746D01*
X37111160Y-31225797D01*
X37082543Y-31156710D01*
X37060836Y-31085151D01*
X37046247Y-31011809D01*
X37038918Y-30937390D01*
X37038918Y-30862610D01*
X37046247Y-30788191D01*
G37*
D22*
X76575000Y-44838200D03*
X68955000Y-36228200D03*
X74035000Y-44838200D03*
X71495000Y-36228200D03*
X71495000Y-44838200D03*
X74035000Y-36228200D03*
X68955000Y-44838200D03*
X76575000Y-36228200D03*
D23*
X56560000Y-66200000D03*
X57840000Y-66200000D03*
X57840000Y-68400000D03*
X56560000Y-68400000D03*
D24*
X75800000Y-67520000D03*
X75800000Y-68800000D03*
M02*
