%TF.GenerationSoftware,KiCad,Pcbnew,(5.1.10)-1*%
%TF.CreationDate,2021-09-26T01:53:07+10:00*%
%TF.ProjectId,RedPyKeeb_MCU,52656450-794b-4656-9562-5f4d43552e6b,rev?*%
%TF.SameCoordinates,Original*%
%TF.FileFunction,Legend,Bot*%
%TF.FilePolarity,Positive*%
%FSLAX46Y46*%
G04 Gerber Fmt 4.6, Leading zero omitted, Abs format (unit mm)*
G04 Created by KiCad (PCBNEW (5.1.10)-1) date 2021-09-26 01:53:07*
%MOMM*%
%LPD*%
G01*
G04 APERTURE LIST*
%ADD10C,0.120000*%
%ADD11C,0.150000*%
G04 APERTURE END LIST*
D10*
%TO.C,J1*%
X98847600Y-77072800D02*
X104047600Y-77072800D01*
X104047600Y-77072800D02*
X104047600Y-76502800D01*
X104047600Y-74982800D02*
X104047600Y-73962800D01*
X104047600Y-72442800D02*
X104047600Y-71422800D01*
X104047600Y-69902800D02*
X104047600Y-68882800D01*
X104047600Y-67362800D02*
X104047600Y-66342800D01*
X104047600Y-64822800D02*
X104047600Y-63802800D01*
X104047600Y-62282800D02*
X104047600Y-61262800D01*
X104047600Y-59742800D02*
X104047600Y-58722800D01*
X104047600Y-57202800D02*
X104047600Y-56182800D01*
X104047600Y-54662800D02*
X104047600Y-53642800D01*
X104047600Y-52122800D02*
X104047600Y-51102800D01*
X104047600Y-49582800D02*
X104047600Y-48562800D01*
X104047600Y-47042800D02*
X104047600Y-46022800D01*
X104047600Y-44502800D02*
X104047600Y-43482800D01*
X104047600Y-41962800D02*
X104047600Y-40942800D01*
X104047600Y-39422800D02*
X104047600Y-38402800D01*
X104047600Y-36882800D02*
X104047600Y-35862800D01*
X104047600Y-34342800D02*
X104047600Y-33322800D01*
X104047600Y-31802800D02*
X104047600Y-30782800D01*
X104047600Y-29262800D02*
X104047600Y-28242800D01*
X104047600Y-26722800D02*
X104047600Y-26152800D01*
X98847600Y-26152800D02*
X104047600Y-26152800D01*
X98847600Y-77072800D02*
X98847600Y-76502800D01*
X98847600Y-74982800D02*
X98847600Y-73962800D01*
X98847600Y-72442800D02*
X98847600Y-71422800D01*
X98847600Y-69902800D02*
X98847600Y-68882800D01*
X98847600Y-67362800D02*
X98847600Y-66342800D01*
X98847600Y-64822800D02*
X98847600Y-63802800D01*
X98847600Y-62282800D02*
X98847600Y-61262800D01*
X98847600Y-59742800D02*
X98847600Y-58722800D01*
X98847600Y-57202800D02*
X98847600Y-56182800D01*
X98847600Y-54662800D02*
X98847600Y-53642800D01*
X98847600Y-52122800D02*
X98847600Y-51102800D01*
X98847600Y-49582800D02*
X98847600Y-48562800D01*
X98847600Y-47042800D02*
X98847600Y-46022800D01*
X98847600Y-44502800D02*
X98847600Y-43482800D01*
X98847600Y-41962800D02*
X98847600Y-40942800D01*
X98847600Y-39422800D02*
X98847600Y-38402800D01*
X98847600Y-36882800D02*
X98847600Y-35862800D01*
X98847600Y-34342800D02*
X98847600Y-33322800D01*
X98847600Y-31802800D02*
X98847600Y-30782800D01*
X98847600Y-29262800D02*
X98847600Y-28242800D01*
X98847600Y-26722800D02*
X98847600Y-26152800D01*
X104047600Y-76502800D02*
X105407600Y-76502800D01*
D11*
X101780933Y-77965180D02*
X101780933Y-78679466D01*
X101828552Y-78822323D01*
X101923790Y-78917561D01*
X102066647Y-78965180D01*
X102161885Y-78965180D01*
X100780933Y-78965180D02*
X101352361Y-78965180D01*
X101066647Y-78965180D02*
X101066647Y-77965180D01*
X101161885Y-78108038D01*
X101257123Y-78203276D01*
X101352361Y-78250895D01*
%TD*%
M02*
