%TF.GenerationSoftware,KiCad,Pcbnew,(5.1.10)-1*%
%TF.CreationDate,2021-09-27T00:46:17+10:00*%
%TF.ProjectId,RedPyKeeb_MCU,52656450-794b-4656-9562-5f4d43552e6b,rev?*%
%TF.SameCoordinates,Original*%
%TF.FileFunction,Other,Fab,Top*%
%FSLAX46Y46*%
G04 Gerber Fmt 4.6, Leading zero omitted, Abs format (unit mm)*
G04 Created by KiCad (PCBNEW (5.1.10)-1) date 2021-09-27 00:46:17*
%MOMM*%
%LPD*%
G01*
G04 APERTURE LIST*
%ADD10C,0.100000*%
%ADD11C,0.150000*%
%ADD12C,0.075000*%
%ADD13C,0.080000*%
G04 APERTURE END LIST*
D10*
%TO.C,SW1*%
X72390000Y-24333200D02*
X71120000Y-24333200D01*
X72390000Y-26143200D02*
X72390000Y-22523200D01*
X71120000Y-26143200D02*
X72390000Y-26143200D01*
X71120000Y-22523200D02*
X71120000Y-26143200D01*
X72390000Y-22523200D02*
X71120000Y-22523200D01*
X74930000Y-24333200D02*
X73660000Y-24333200D01*
X74930000Y-26143200D02*
X74930000Y-22523200D01*
X73660000Y-26143200D02*
X74930000Y-26143200D01*
X73660000Y-22523200D02*
X73660000Y-26143200D01*
X74930000Y-22523200D02*
X73660000Y-22523200D01*
X77470000Y-24333200D02*
X76200000Y-24333200D01*
X77470000Y-26143200D02*
X77470000Y-22523200D01*
X76200000Y-26143200D02*
X77470000Y-26143200D01*
X76200000Y-22523200D02*
X76200000Y-26143200D01*
X77470000Y-22523200D02*
X76200000Y-22523200D01*
X80010000Y-24333200D02*
X78740000Y-24333200D01*
X80010000Y-26143200D02*
X80010000Y-22523200D01*
X78740000Y-26143200D02*
X80010000Y-26143200D01*
X78740000Y-22523200D02*
X78740000Y-26143200D01*
X80010000Y-22523200D02*
X78740000Y-22523200D01*
X80425000Y-20993200D02*
X81425000Y-21993200D01*
X69705000Y-20993200D02*
X80425000Y-20993200D01*
X69705000Y-27673200D02*
X69705000Y-20993200D01*
X81425000Y-27673200D02*
X69705000Y-27673200D01*
X81425000Y-21993200D02*
X81425000Y-27673200D01*
%TO.C,R1*%
X63688200Y-54444400D02*
X63688200Y-56444400D01*
X63688200Y-56444400D02*
X62448200Y-56444400D01*
X62448200Y-56444400D02*
X62448200Y-54444400D01*
X62448200Y-54444400D02*
X63688200Y-54444400D01*
%TO.C,U1*%
X74098800Y-54092200D02*
X74098800Y-57017200D01*
X74098800Y-57017200D02*
X65448800Y-57017200D01*
X65448800Y-57017200D02*
X65448800Y-53117200D01*
X65448800Y-53117200D02*
X73123800Y-53117200D01*
X73123800Y-53117200D02*
X74098800Y-54092200D01*
%TO.C,J2*%
X39344600Y-24323093D02*
X39844600Y-25030200D01*
X38844600Y-25030200D02*
X39344600Y-24323093D01*
X55844600Y-25030200D02*
X37844600Y-25030200D01*
X55844600Y-27230200D02*
X55844600Y-25030200D01*
X56844600Y-27230200D02*
X55844600Y-27230200D01*
X56844600Y-19030200D02*
X56844600Y-27230200D01*
X36844600Y-19030200D02*
X56844600Y-19030200D01*
X36844600Y-27230200D02*
X36844600Y-19030200D01*
X37844600Y-27230200D02*
X36844600Y-27230200D01*
X37844600Y-25030200D02*
X37844600Y-27230200D01*
%TO.C,J0*%
X25796293Y-45415200D02*
X26503400Y-44915200D01*
X26503400Y-45915200D02*
X25796293Y-45415200D01*
X26503400Y-36415200D02*
X26503400Y-46915200D01*
X28703400Y-36415200D02*
X26503400Y-36415200D01*
X28703400Y-35415200D02*
X28703400Y-36415200D01*
X20503400Y-35415200D02*
X28703400Y-35415200D01*
X20503400Y-47915200D02*
X20503400Y-35415200D01*
X28703400Y-47915200D02*
X20503400Y-47915200D01*
X28703400Y-46915200D02*
X28703400Y-47915200D01*
X26503400Y-46915200D02*
X28703400Y-46915200D01*
%TO.C,C1*%
X74889200Y-56658000D02*
X76139200Y-56658000D01*
X76139200Y-56658000D02*
X76139200Y-58658000D01*
X76139200Y-58658000D02*
X74889200Y-58658000D01*
X74889200Y-58658000D02*
X74889200Y-56658000D01*
%TO.C,C2*%
X76139200Y-52746400D02*
X76139200Y-54746400D01*
X74889200Y-52746400D02*
X76139200Y-52746400D01*
X74889200Y-54746400D02*
X74889200Y-52746400D01*
X76139200Y-54746400D02*
X74889200Y-54746400D01*
%TD*%
%TO.C,U0*%
D11*
X59293571Y-49744380D02*
X59865000Y-49744380D01*
X59579285Y-50744380D02*
X59579285Y-49744380D01*
X60579285Y-50696761D02*
X60484047Y-50744380D01*
X60293571Y-50744380D01*
X60198333Y-50696761D01*
X60150714Y-50601523D01*
X60150714Y-50220571D01*
X60198333Y-50125333D01*
X60293571Y-50077714D01*
X60484047Y-50077714D01*
X60579285Y-50125333D01*
X60626904Y-50220571D01*
X60626904Y-50315809D01*
X60150714Y-50411047D01*
X61436428Y-50696761D02*
X61341190Y-50744380D01*
X61150714Y-50744380D01*
X61055476Y-50696761D01*
X61007857Y-50601523D01*
X61007857Y-50220571D01*
X61055476Y-50125333D01*
X61150714Y-50077714D01*
X61341190Y-50077714D01*
X61436428Y-50125333D01*
X61484047Y-50220571D01*
X61484047Y-50315809D01*
X61007857Y-50411047D01*
X61912619Y-50077714D02*
X61912619Y-50744380D01*
X61912619Y-50172952D02*
X61960238Y-50125333D01*
X62055476Y-50077714D01*
X62198333Y-50077714D01*
X62293571Y-50125333D01*
X62341190Y-50220571D01*
X62341190Y-50744380D01*
X62769761Y-50696761D02*
X62865000Y-50744380D01*
X63055476Y-50744380D01*
X63150714Y-50696761D01*
X63198333Y-50601523D01*
X63198333Y-50553904D01*
X63150714Y-50458666D01*
X63055476Y-50411047D01*
X62912619Y-50411047D01*
X62817380Y-50363428D01*
X62769761Y-50268190D01*
X62769761Y-50220571D01*
X62817380Y-50125333D01*
X62912619Y-50077714D01*
X63055476Y-50077714D01*
X63150714Y-50125333D01*
X63531666Y-50077714D02*
X63769761Y-50744380D01*
X64007857Y-50077714D02*
X63769761Y-50744380D01*
X63674523Y-50982476D01*
X63626904Y-51030095D01*
X63531666Y-51077714D01*
X64817380Y-50077714D02*
X64817380Y-50744380D01*
X64579285Y-49696761D02*
X64341190Y-50411047D01*
X64960238Y-50411047D01*
X65341190Y-50649142D02*
X65388809Y-50696761D01*
X65341190Y-50744380D01*
X65293571Y-50696761D01*
X65341190Y-50649142D01*
X65341190Y-50744380D01*
X66341190Y-50744380D02*
X65769761Y-50744380D01*
X66055476Y-50744380D02*
X66055476Y-49744380D01*
X65960238Y-49887238D01*
X65865000Y-49982476D01*
X65769761Y-50030095D01*
%TO.C,SW1*%
X68989761Y-28547485D02*
X69037380Y-28404628D01*
X69037380Y-28166533D01*
X68989761Y-28071295D01*
X68942142Y-28023676D01*
X68846904Y-27976057D01*
X68751666Y-27976057D01*
X68656428Y-28023676D01*
X68608809Y-28071295D01*
X68561190Y-28166533D01*
X68513571Y-28357009D01*
X68465952Y-28452247D01*
X68418333Y-28499866D01*
X68323095Y-28547485D01*
X68227857Y-28547485D01*
X68132619Y-28499866D01*
X68085000Y-28452247D01*
X68037380Y-28357009D01*
X68037380Y-28118914D01*
X68085000Y-27976057D01*
X68037380Y-27642723D02*
X69037380Y-27404628D01*
X68323095Y-27214152D01*
X69037380Y-27023676D01*
X68037380Y-26785580D01*
X69132619Y-26642723D02*
X69132619Y-25880819D01*
X69037380Y-25642723D02*
X68037380Y-25642723D01*
X68037380Y-25404628D01*
X68085000Y-25261771D01*
X68180238Y-25166533D01*
X68275476Y-25118914D01*
X68465952Y-25071295D01*
X68608809Y-25071295D01*
X68799285Y-25118914D01*
X68894523Y-25166533D01*
X68989761Y-25261771D01*
X69037380Y-25404628D01*
X69037380Y-25642723D01*
X69037380Y-24642723D02*
X68037380Y-24642723D01*
X69037380Y-24166533D02*
X68037380Y-24166533D01*
X68037380Y-23785580D01*
X68085000Y-23690342D01*
X68132619Y-23642723D01*
X68227857Y-23595104D01*
X68370714Y-23595104D01*
X68465952Y-23642723D01*
X68513571Y-23690342D01*
X68561190Y-23785580D01*
X68561190Y-24166533D01*
X69132619Y-23404628D02*
X69132619Y-22642723D01*
X69037380Y-22499866D02*
X68370714Y-21976057D01*
X68370714Y-22499866D02*
X69037380Y-21976057D01*
X68037380Y-21404628D02*
X68037380Y-21309390D01*
X68085000Y-21214152D01*
X68132619Y-21166533D01*
X68227857Y-21118914D01*
X68418333Y-21071295D01*
X68656428Y-21071295D01*
X68846904Y-21118914D01*
X68942142Y-21166533D01*
X68989761Y-21214152D01*
X69037380Y-21309390D01*
X69037380Y-21404628D01*
X68989761Y-21499866D01*
X68942142Y-21547485D01*
X68846904Y-21595104D01*
X68656428Y-21642723D01*
X68418333Y-21642723D01*
X68227857Y-21595104D01*
X68132619Y-21547485D01*
X68085000Y-21499866D01*
X68037380Y-21404628D01*
X68370714Y-20214152D02*
X69037380Y-20214152D01*
X67989761Y-20452247D02*
X68704047Y-20690342D01*
X68704047Y-20071295D01*
%TO.C,R1*%
X61246771Y-61420590D02*
X61246771Y-61087257D01*
X61770580Y-60944400D02*
X61770580Y-61420590D01*
X60770580Y-61420590D01*
X60770580Y-60944400D01*
X61770580Y-59944400D02*
X61294390Y-60277733D01*
X61770580Y-60515828D02*
X60770580Y-60515828D01*
X60770580Y-60134876D01*
X60818200Y-60039638D01*
X60865819Y-59992019D01*
X60961057Y-59944400D01*
X61103914Y-59944400D01*
X61199152Y-59992019D01*
X61246771Y-60039638D01*
X61294390Y-60134876D01*
X61294390Y-60515828D01*
X60770580Y-59230114D02*
X61484866Y-59230114D01*
X61627723Y-59277733D01*
X61722961Y-59372971D01*
X61770580Y-59515828D01*
X61770580Y-59611066D01*
X61389628Y-58753923D02*
X61389628Y-57992019D01*
X60770580Y-57087257D02*
X60770580Y-57277733D01*
X60818200Y-57372971D01*
X60865819Y-57420590D01*
X61008676Y-57515828D01*
X61199152Y-57563447D01*
X61580104Y-57563447D01*
X61675342Y-57515828D01*
X61722961Y-57468209D01*
X61770580Y-57372971D01*
X61770580Y-57182495D01*
X61722961Y-57087257D01*
X61675342Y-57039638D01*
X61580104Y-56992019D01*
X61342009Y-56992019D01*
X61246771Y-57039638D01*
X61199152Y-57087257D01*
X61151533Y-57182495D01*
X61151533Y-57372971D01*
X61199152Y-57468209D01*
X61246771Y-57515828D01*
X61342009Y-57563447D01*
X61770580Y-55992019D02*
X61294390Y-56325352D01*
X61770580Y-56563447D02*
X60770580Y-56563447D01*
X60770580Y-56182495D01*
X60818200Y-56087257D01*
X60865819Y-56039638D01*
X60961057Y-55992019D01*
X61103914Y-55992019D01*
X61199152Y-56039638D01*
X61246771Y-56087257D01*
X61294390Y-56182495D01*
X61294390Y-56563447D01*
X61246771Y-55563447D02*
X61246771Y-55230114D01*
X61770580Y-55087257D02*
X61770580Y-55563447D01*
X60770580Y-55563447D01*
X60770580Y-55087257D01*
X61770580Y-54658685D02*
X60770580Y-54658685D01*
X60770580Y-54420590D01*
X60818200Y-54277733D01*
X60913438Y-54182495D01*
X61008676Y-54134876D01*
X61199152Y-54087257D01*
X61342009Y-54087257D01*
X61532485Y-54134876D01*
X61627723Y-54182495D01*
X61722961Y-54277733D01*
X61770580Y-54420590D01*
X61770580Y-54658685D01*
X60865819Y-53706304D02*
X60818200Y-53658685D01*
X60770580Y-53563447D01*
X60770580Y-53325352D01*
X60818200Y-53230114D01*
X60865819Y-53182495D01*
X60961057Y-53134876D01*
X61056295Y-53134876D01*
X61199152Y-53182495D01*
X61770580Y-53753923D01*
X61770580Y-53134876D01*
X60770580Y-52515828D02*
X60770580Y-52420590D01*
X60818200Y-52325352D01*
X60865819Y-52277733D01*
X60961057Y-52230114D01*
X61151533Y-52182495D01*
X61389628Y-52182495D01*
X61580104Y-52230114D01*
X61675342Y-52277733D01*
X61722961Y-52325352D01*
X61770580Y-52420590D01*
X61770580Y-52515828D01*
X61722961Y-52611066D01*
X61675342Y-52658685D01*
X61580104Y-52706304D01*
X61389628Y-52753923D01*
X61151533Y-52753923D01*
X60961057Y-52706304D01*
X60865819Y-52658685D01*
X60818200Y-52611066D01*
X60770580Y-52515828D01*
X60770580Y-51563447D02*
X60770580Y-51468209D01*
X60818200Y-51372971D01*
X60865819Y-51325352D01*
X60961057Y-51277733D01*
X61151533Y-51230114D01*
X61389628Y-51230114D01*
X61580104Y-51277733D01*
X61675342Y-51325352D01*
X61722961Y-51372971D01*
X61770580Y-51468209D01*
X61770580Y-51563447D01*
X61722961Y-51658685D01*
X61675342Y-51706304D01*
X61580104Y-51753923D01*
X61389628Y-51801542D01*
X61151533Y-51801542D01*
X60961057Y-51753923D01*
X60865819Y-51706304D01*
X60818200Y-51658685D01*
X60770580Y-51563447D01*
X60770580Y-50896780D02*
X60770580Y-50277733D01*
X61151533Y-50611066D01*
X61151533Y-50468209D01*
X61199152Y-50372971D01*
X61246771Y-50325352D01*
X61342009Y-50277733D01*
X61580104Y-50277733D01*
X61675342Y-50325352D01*
X61722961Y-50372971D01*
X61770580Y-50468209D01*
X61770580Y-50753923D01*
X61722961Y-50849161D01*
X61675342Y-50896780D01*
X60770580Y-49992019D02*
X61770580Y-49658685D01*
X60770580Y-49325352D01*
D12*
X63294390Y-55527733D02*
X63056295Y-55694400D01*
X63294390Y-55813447D02*
X62794390Y-55813447D01*
X62794390Y-55622971D01*
X62818200Y-55575352D01*
X62842009Y-55551542D01*
X62889628Y-55527733D01*
X62961057Y-55527733D01*
X63008676Y-55551542D01*
X63032485Y-55575352D01*
X63056295Y-55622971D01*
X63056295Y-55813447D01*
X63294390Y-55051542D02*
X63294390Y-55337257D01*
X63294390Y-55194400D02*
X62794390Y-55194400D01*
X62865819Y-55242019D01*
X62913438Y-55289638D01*
X62937247Y-55337257D01*
%TO.C,U1*%
D11*
X63946180Y-59162438D02*
X63946180Y-58591009D01*
X64946180Y-58876723D02*
X63946180Y-58876723D01*
X63946180Y-58352914D02*
X64946180Y-57686247D01*
X63946180Y-57686247D02*
X64946180Y-58352914D01*
X64898561Y-57352914D02*
X64946180Y-57210057D01*
X64946180Y-56971961D01*
X64898561Y-56876723D01*
X64850942Y-56829104D01*
X64755704Y-56781485D01*
X64660466Y-56781485D01*
X64565228Y-56829104D01*
X64517609Y-56876723D01*
X64469990Y-56971961D01*
X64422371Y-57162438D01*
X64374752Y-57257676D01*
X64327133Y-57305295D01*
X64231895Y-57352914D01*
X64136657Y-57352914D01*
X64041419Y-57305295D01*
X63993800Y-57257676D01*
X63946180Y-57162438D01*
X63946180Y-56924342D01*
X63993800Y-56781485D01*
X63946180Y-56162438D02*
X63946180Y-56067200D01*
X63993800Y-55971961D01*
X64041419Y-55924342D01*
X64136657Y-55876723D01*
X64327133Y-55829104D01*
X64565228Y-55829104D01*
X64755704Y-55876723D01*
X64850942Y-55924342D01*
X64898561Y-55971961D01*
X64946180Y-56067200D01*
X64946180Y-56162438D01*
X64898561Y-56257676D01*
X64850942Y-56305295D01*
X64755704Y-56352914D01*
X64565228Y-56400533D01*
X64327133Y-56400533D01*
X64136657Y-56352914D01*
X64041419Y-56305295D01*
X63993800Y-56257676D01*
X63946180Y-56162438D01*
X64946180Y-54876723D02*
X64946180Y-55448152D01*
X64946180Y-55162438D02*
X63946180Y-55162438D01*
X64089038Y-55257676D01*
X64184276Y-55352914D01*
X64231895Y-55448152D01*
X63946180Y-54257676D02*
X63946180Y-54162438D01*
X63993800Y-54067200D01*
X64041419Y-54019580D01*
X64136657Y-53971961D01*
X64327133Y-53924342D01*
X64565228Y-53924342D01*
X64755704Y-53971961D01*
X64850942Y-54019580D01*
X64898561Y-54067200D01*
X64946180Y-54162438D01*
X64946180Y-54257676D01*
X64898561Y-54352914D01*
X64850942Y-54400533D01*
X64755704Y-54448152D01*
X64565228Y-54495771D01*
X64327133Y-54495771D01*
X64136657Y-54448152D01*
X64041419Y-54400533D01*
X63993800Y-54352914D01*
X63946180Y-54257676D01*
X64279514Y-53067200D02*
X64946180Y-53067200D01*
X63898561Y-53305295D02*
X64612847Y-53543390D01*
X64612847Y-52924342D01*
X64422371Y-52543390D02*
X64422371Y-52210057D01*
X64946180Y-52067200D02*
X64946180Y-52543390D01*
X63946180Y-52543390D01*
X63946180Y-52067200D01*
X64946180Y-51638628D02*
X63946180Y-51638628D01*
X63946180Y-51400533D01*
X63993800Y-51257676D01*
X64089038Y-51162438D01*
X64184276Y-51114819D01*
X64374752Y-51067200D01*
X64517609Y-51067200D01*
X64708085Y-51114819D01*
X64803323Y-51162438D01*
X64898561Y-51257676D01*
X64946180Y-51400533D01*
X64946180Y-51638628D01*
X69237133Y-55813866D02*
X70030466Y-55813866D01*
X70123800Y-55767200D01*
X70170466Y-55720533D01*
X70217133Y-55627200D01*
X70217133Y-55440533D01*
X70170466Y-55347200D01*
X70123800Y-55300533D01*
X70030466Y-55253866D01*
X69237133Y-55253866D01*
X70217133Y-54273866D02*
X70217133Y-54833866D01*
X70217133Y-54553866D02*
X69237133Y-54553866D01*
X69377133Y-54647200D01*
X69470466Y-54740533D01*
X69517133Y-54833866D01*
%TO.C,J2*%
X43106504Y-28787342D02*
X43058885Y-28834961D01*
X42916028Y-28882580D01*
X42820790Y-28882580D01*
X42677933Y-28834961D01*
X42582695Y-28739723D01*
X42535076Y-28644485D01*
X42487457Y-28454009D01*
X42487457Y-28311152D01*
X42535076Y-28120676D01*
X42582695Y-28025438D01*
X42677933Y-27930200D01*
X42820790Y-27882580D01*
X42916028Y-27882580D01*
X43058885Y-27930200D01*
X43106504Y-27977819D01*
X43677933Y-28882580D02*
X43582695Y-28834961D01*
X43535076Y-28787342D01*
X43487457Y-28692104D01*
X43487457Y-28406390D01*
X43535076Y-28311152D01*
X43582695Y-28263533D01*
X43677933Y-28215914D01*
X43820790Y-28215914D01*
X43916028Y-28263533D01*
X43963647Y-28311152D01*
X44011266Y-28406390D01*
X44011266Y-28692104D01*
X43963647Y-28787342D01*
X43916028Y-28834961D01*
X43820790Y-28882580D01*
X43677933Y-28882580D01*
X44439838Y-28215914D02*
X44439838Y-28882580D01*
X44439838Y-28311152D02*
X44487457Y-28263533D01*
X44582695Y-28215914D01*
X44725552Y-28215914D01*
X44820790Y-28263533D01*
X44868409Y-28358771D01*
X44868409Y-28882580D01*
X45344600Y-28215914D02*
X45344600Y-28882580D01*
X45344600Y-28311152D02*
X45392219Y-28263533D01*
X45487457Y-28215914D01*
X45630314Y-28215914D01*
X45725552Y-28263533D01*
X45773171Y-28358771D01*
X45773171Y-28882580D01*
X46011266Y-28977819D02*
X46773171Y-28977819D01*
X47201742Y-27882580D02*
X47296980Y-27882580D01*
X47392219Y-27930200D01*
X47439838Y-27977819D01*
X47487457Y-28073057D01*
X47535076Y-28263533D01*
X47535076Y-28501628D01*
X47487457Y-28692104D01*
X47439838Y-28787342D01*
X47392219Y-28834961D01*
X47296980Y-28882580D01*
X47201742Y-28882580D01*
X47106504Y-28834961D01*
X47058885Y-28787342D01*
X47011266Y-28692104D01*
X46963647Y-28501628D01*
X46963647Y-28263533D01*
X47011266Y-28073057D01*
X47058885Y-27977819D01*
X47106504Y-27930200D01*
X47201742Y-27882580D01*
X48487457Y-28882580D02*
X47916028Y-28882580D01*
X48201742Y-28882580D02*
X48201742Y-27882580D01*
X48106504Y-28025438D01*
X48011266Y-28120676D01*
X47916028Y-28168295D01*
X48820790Y-28882580D02*
X49344600Y-28215914D01*
X48820790Y-28215914D02*
X49344600Y-28882580D01*
X49916028Y-27882580D02*
X50011266Y-27882580D01*
X50106504Y-27930200D01*
X50154123Y-27977819D01*
X50201742Y-28073057D01*
X50249361Y-28263533D01*
X50249361Y-28501628D01*
X50201742Y-28692104D01*
X50154123Y-28787342D01*
X50106504Y-28834961D01*
X50011266Y-28882580D01*
X49916028Y-28882580D01*
X49820790Y-28834961D01*
X49773171Y-28787342D01*
X49725552Y-28692104D01*
X49677933Y-28501628D01*
X49677933Y-28263533D01*
X49725552Y-28073057D01*
X49773171Y-27977819D01*
X49820790Y-27930200D01*
X49916028Y-27882580D01*
X51106504Y-28215914D02*
X51106504Y-28882580D01*
X50868409Y-27834961D02*
X50630314Y-28549247D01*
X51249361Y-28549247D01*
X46511266Y-22582580D02*
X46511266Y-23296866D01*
X46463647Y-23439723D01*
X46368409Y-23534961D01*
X46225552Y-23582580D01*
X46130314Y-23582580D01*
X46939838Y-22677819D02*
X46987457Y-22630200D01*
X47082695Y-22582580D01*
X47320790Y-22582580D01*
X47416028Y-22630200D01*
X47463647Y-22677819D01*
X47511266Y-22773057D01*
X47511266Y-22868295D01*
X47463647Y-23011152D01*
X46892219Y-23582580D01*
X47511266Y-23582580D01*
%TO.C,J0*%
X24860542Y-45403295D02*
X24908161Y-45450914D01*
X24955780Y-45593771D01*
X24955780Y-45689009D01*
X24908161Y-45831866D01*
X24812923Y-45927104D01*
X24717685Y-45974723D01*
X24527209Y-46022342D01*
X24384352Y-46022342D01*
X24193876Y-45974723D01*
X24098638Y-45927104D01*
X24003400Y-45831866D01*
X23955780Y-45689009D01*
X23955780Y-45593771D01*
X24003400Y-45450914D01*
X24051019Y-45403295D01*
X24955780Y-44831866D02*
X24908161Y-44927104D01*
X24860542Y-44974723D01*
X24765304Y-45022342D01*
X24479590Y-45022342D01*
X24384352Y-44974723D01*
X24336733Y-44927104D01*
X24289114Y-44831866D01*
X24289114Y-44689009D01*
X24336733Y-44593771D01*
X24384352Y-44546152D01*
X24479590Y-44498533D01*
X24765304Y-44498533D01*
X24860542Y-44546152D01*
X24908161Y-44593771D01*
X24955780Y-44689009D01*
X24955780Y-44831866D01*
X24289114Y-44069961D02*
X24955780Y-44069961D01*
X24384352Y-44069961D02*
X24336733Y-44022342D01*
X24289114Y-43927104D01*
X24289114Y-43784247D01*
X24336733Y-43689009D01*
X24431971Y-43641390D01*
X24955780Y-43641390D01*
X24289114Y-43165200D02*
X24955780Y-43165200D01*
X24384352Y-43165200D02*
X24336733Y-43117580D01*
X24289114Y-43022342D01*
X24289114Y-42879485D01*
X24336733Y-42784247D01*
X24431971Y-42736628D01*
X24955780Y-42736628D01*
X25051019Y-42498533D02*
X25051019Y-41736628D01*
X23955780Y-41308057D02*
X23955780Y-41212819D01*
X24003400Y-41117580D01*
X24051019Y-41069961D01*
X24146257Y-41022342D01*
X24336733Y-40974723D01*
X24574828Y-40974723D01*
X24765304Y-41022342D01*
X24860542Y-41069961D01*
X24908161Y-41117580D01*
X24955780Y-41212819D01*
X24955780Y-41308057D01*
X24908161Y-41403295D01*
X24860542Y-41450914D01*
X24765304Y-41498533D01*
X24574828Y-41546152D01*
X24336733Y-41546152D01*
X24146257Y-41498533D01*
X24051019Y-41450914D01*
X24003400Y-41403295D01*
X23955780Y-41308057D01*
X24955780Y-40022342D02*
X24955780Y-40593771D01*
X24955780Y-40308057D02*
X23955780Y-40308057D01*
X24098638Y-40403295D01*
X24193876Y-40498533D01*
X24241495Y-40593771D01*
X24955780Y-39689009D02*
X24289114Y-39165200D01*
X24289114Y-39689009D02*
X24955780Y-39165200D01*
X23955780Y-38593771D02*
X23955780Y-38498533D01*
X24003400Y-38403295D01*
X24051019Y-38355676D01*
X24146257Y-38308057D01*
X24336733Y-38260438D01*
X24574828Y-38260438D01*
X24765304Y-38308057D01*
X24860542Y-38355676D01*
X24908161Y-38403295D01*
X24955780Y-38498533D01*
X24955780Y-38593771D01*
X24908161Y-38689009D01*
X24860542Y-38736628D01*
X24765304Y-38784247D01*
X24574828Y-38831866D01*
X24336733Y-38831866D01*
X24146257Y-38784247D01*
X24051019Y-38736628D01*
X24003400Y-38689009D01*
X23955780Y-38593771D01*
X24289114Y-37403295D02*
X24955780Y-37403295D01*
X23908161Y-37641390D02*
X24622447Y-37879485D01*
X24622447Y-37260438D01*
X29255780Y-41998533D02*
X29970066Y-41998533D01*
X30112923Y-42046152D01*
X30208161Y-42141390D01*
X30255780Y-42284247D01*
X30255780Y-42379485D01*
X29255780Y-41331866D02*
X29255780Y-41236628D01*
X29303400Y-41141390D01*
X29351019Y-41093771D01*
X29446257Y-41046152D01*
X29636733Y-40998533D01*
X29874828Y-40998533D01*
X30065304Y-41046152D01*
X30160542Y-41093771D01*
X30208161Y-41141390D01*
X30255780Y-41236628D01*
X30255780Y-41331866D01*
X30208161Y-41427104D01*
X30160542Y-41474723D01*
X30065304Y-41522342D01*
X29874828Y-41569961D01*
X29636733Y-41569961D01*
X29446257Y-41522342D01*
X29351019Y-41474723D01*
X29303400Y-41427104D01*
X29255780Y-41331866D01*
%TO.C,C1*%
X73286580Y-63872285D02*
X73286580Y-63777047D01*
X73334200Y-63681809D01*
X73381819Y-63634190D01*
X73477057Y-63586571D01*
X73667533Y-63538952D01*
X73905628Y-63538952D01*
X74096104Y-63586571D01*
X74191342Y-63634190D01*
X74238961Y-63681809D01*
X74286580Y-63777047D01*
X74286580Y-63872285D01*
X74238961Y-63967523D01*
X74191342Y-64015142D01*
X74096104Y-64062761D01*
X73905628Y-64110380D01*
X73667533Y-64110380D01*
X73477057Y-64062761D01*
X73381819Y-64015142D01*
X73334200Y-63967523D01*
X73286580Y-63872285D01*
X73715152Y-62967523D02*
X73667533Y-63062761D01*
X73619914Y-63110380D01*
X73524676Y-63158000D01*
X73477057Y-63158000D01*
X73381819Y-63110380D01*
X73334200Y-63062761D01*
X73286580Y-62967523D01*
X73286580Y-62777047D01*
X73334200Y-62681809D01*
X73381819Y-62634190D01*
X73477057Y-62586571D01*
X73524676Y-62586571D01*
X73619914Y-62634190D01*
X73667533Y-62681809D01*
X73715152Y-62777047D01*
X73715152Y-62967523D01*
X73762771Y-63062761D01*
X73810390Y-63110380D01*
X73905628Y-63158000D01*
X74096104Y-63158000D01*
X74191342Y-63110380D01*
X74238961Y-63062761D01*
X74286580Y-62967523D01*
X74286580Y-62777047D01*
X74238961Y-62681809D01*
X74191342Y-62634190D01*
X74096104Y-62586571D01*
X73905628Y-62586571D01*
X73810390Y-62634190D01*
X73762771Y-62681809D01*
X73715152Y-62777047D01*
X73286580Y-61967523D02*
X73286580Y-61872285D01*
X73334200Y-61777047D01*
X73381819Y-61729428D01*
X73477057Y-61681809D01*
X73667533Y-61634190D01*
X73905628Y-61634190D01*
X74096104Y-61681809D01*
X74191342Y-61729428D01*
X74238961Y-61777047D01*
X74286580Y-61872285D01*
X74286580Y-61967523D01*
X74238961Y-62062761D01*
X74191342Y-62110380D01*
X74096104Y-62158000D01*
X73905628Y-62205619D01*
X73667533Y-62205619D01*
X73477057Y-62158000D01*
X73381819Y-62110380D01*
X73334200Y-62062761D01*
X73286580Y-61967523D01*
X73286580Y-60729428D02*
X73286580Y-61205619D01*
X73762771Y-61253238D01*
X73715152Y-61205619D01*
X73667533Y-61110380D01*
X73667533Y-60872285D01*
X73715152Y-60777047D01*
X73762771Y-60729428D01*
X73858009Y-60681809D01*
X74096104Y-60681809D01*
X74191342Y-60729428D01*
X74238961Y-60777047D01*
X74286580Y-60872285D01*
X74286580Y-61110380D01*
X74238961Y-61205619D01*
X74191342Y-61253238D01*
X73762771Y-59919904D02*
X73810390Y-59777047D01*
X73858009Y-59729428D01*
X73953247Y-59681809D01*
X74096104Y-59681809D01*
X74191342Y-59729428D01*
X74238961Y-59777047D01*
X74286580Y-59872285D01*
X74286580Y-60253238D01*
X73286580Y-60253238D01*
X73286580Y-59919904D01*
X73334200Y-59824666D01*
X73381819Y-59777047D01*
X73477057Y-59729428D01*
X73572295Y-59729428D01*
X73667533Y-59777047D01*
X73715152Y-59824666D01*
X73762771Y-59919904D01*
X73762771Y-60253238D01*
X74286580Y-58729428D02*
X74286580Y-59300857D01*
X74286580Y-59015142D02*
X73286580Y-59015142D01*
X73429438Y-59110380D01*
X73524676Y-59205619D01*
X73572295Y-59300857D01*
X73286580Y-58110380D02*
X73286580Y-58015142D01*
X73334200Y-57919904D01*
X73381819Y-57872285D01*
X73477057Y-57824666D01*
X73667533Y-57777047D01*
X73905628Y-57777047D01*
X74096104Y-57824666D01*
X74191342Y-57872285D01*
X74238961Y-57919904D01*
X74286580Y-58015142D01*
X74286580Y-58110380D01*
X74238961Y-58205619D01*
X74191342Y-58253238D01*
X74096104Y-58300857D01*
X73905628Y-58348476D01*
X73667533Y-58348476D01*
X73477057Y-58300857D01*
X73381819Y-58253238D01*
X73334200Y-58205619D01*
X73286580Y-58110380D01*
X74286580Y-56824666D02*
X74286580Y-57396095D01*
X74286580Y-57110380D02*
X73286580Y-57110380D01*
X73429438Y-57205619D01*
X73524676Y-57300857D01*
X73572295Y-57396095D01*
X74286580Y-56396095D02*
X73286580Y-56396095D01*
X74286580Y-55824666D02*
X73715152Y-56253238D01*
X73286580Y-55824666D02*
X73858009Y-56396095D01*
X74286580Y-54872285D02*
X74286580Y-55443714D01*
X74286580Y-55158000D02*
X73286580Y-55158000D01*
X73429438Y-55253238D01*
X73524676Y-55348476D01*
X73572295Y-55443714D01*
X73286580Y-54253238D02*
X73286580Y-54158000D01*
X73334200Y-54062761D01*
X73381819Y-54015142D01*
X73477057Y-53967523D01*
X73667533Y-53919904D01*
X73905628Y-53919904D01*
X74096104Y-53967523D01*
X74191342Y-54015142D01*
X74238961Y-54062761D01*
X74286580Y-54158000D01*
X74286580Y-54253238D01*
X74238961Y-54348476D01*
X74191342Y-54396095D01*
X74096104Y-54443714D01*
X73905628Y-54491333D01*
X73667533Y-54491333D01*
X73477057Y-54443714D01*
X73381819Y-54396095D01*
X73334200Y-54348476D01*
X73286580Y-54253238D01*
X73286580Y-53300857D02*
X73286580Y-53205619D01*
X73334200Y-53110380D01*
X73381819Y-53062761D01*
X73477057Y-53015142D01*
X73667533Y-52967523D01*
X73905628Y-52967523D01*
X74096104Y-53015142D01*
X74191342Y-53062761D01*
X74238961Y-53110380D01*
X74286580Y-53205619D01*
X74286580Y-53300857D01*
X74238961Y-53396095D01*
X74191342Y-53443714D01*
X74096104Y-53491333D01*
X73905628Y-53538952D01*
X73667533Y-53538952D01*
X73477057Y-53491333D01*
X73381819Y-53443714D01*
X73334200Y-53396095D01*
X73286580Y-53300857D01*
X74191342Y-51967523D02*
X74238961Y-52015142D01*
X74286580Y-52158000D01*
X74286580Y-52253238D01*
X74238961Y-52396095D01*
X74143723Y-52491333D01*
X74048485Y-52538952D01*
X73858009Y-52586571D01*
X73715152Y-52586571D01*
X73524676Y-52538952D01*
X73429438Y-52491333D01*
X73334200Y-52396095D01*
X73286580Y-52253238D01*
X73286580Y-52158000D01*
X73334200Y-52015142D01*
X73381819Y-51967523D01*
X73286580Y-51681809D02*
X73286580Y-51110380D01*
X74286580Y-51396095D02*
X73286580Y-51396095D01*
D13*
X75692771Y-57741333D02*
X75716580Y-57765142D01*
X75740390Y-57836571D01*
X75740390Y-57884190D01*
X75716580Y-57955619D01*
X75668961Y-58003238D01*
X75621342Y-58027047D01*
X75526104Y-58050857D01*
X75454676Y-58050857D01*
X75359438Y-58027047D01*
X75311819Y-58003238D01*
X75264200Y-57955619D01*
X75240390Y-57884190D01*
X75240390Y-57836571D01*
X75264200Y-57765142D01*
X75288009Y-57741333D01*
X75740390Y-57265142D02*
X75740390Y-57550857D01*
X75740390Y-57408000D02*
X75240390Y-57408000D01*
X75311819Y-57455619D01*
X75359438Y-57503238D01*
X75383247Y-57550857D01*
%TO.C,C2*%
D11*
X76646580Y-59960685D02*
X76646580Y-59865447D01*
X76694200Y-59770209D01*
X76741819Y-59722590D01*
X76837057Y-59674971D01*
X77027533Y-59627352D01*
X77265628Y-59627352D01*
X77456104Y-59674971D01*
X77551342Y-59722590D01*
X77598961Y-59770209D01*
X77646580Y-59865447D01*
X77646580Y-59960685D01*
X77598961Y-60055923D01*
X77551342Y-60103542D01*
X77456104Y-60151161D01*
X77265628Y-60198780D01*
X77027533Y-60198780D01*
X76837057Y-60151161D01*
X76741819Y-60103542D01*
X76694200Y-60055923D01*
X76646580Y-59960685D01*
X77075152Y-59055923D02*
X77027533Y-59151161D01*
X76979914Y-59198780D01*
X76884676Y-59246400D01*
X76837057Y-59246400D01*
X76741819Y-59198780D01*
X76694200Y-59151161D01*
X76646580Y-59055923D01*
X76646580Y-58865447D01*
X76694200Y-58770209D01*
X76741819Y-58722590D01*
X76837057Y-58674971D01*
X76884676Y-58674971D01*
X76979914Y-58722590D01*
X77027533Y-58770209D01*
X77075152Y-58865447D01*
X77075152Y-59055923D01*
X77122771Y-59151161D01*
X77170390Y-59198780D01*
X77265628Y-59246400D01*
X77456104Y-59246400D01*
X77551342Y-59198780D01*
X77598961Y-59151161D01*
X77646580Y-59055923D01*
X77646580Y-58865447D01*
X77598961Y-58770209D01*
X77551342Y-58722590D01*
X77456104Y-58674971D01*
X77265628Y-58674971D01*
X77170390Y-58722590D01*
X77122771Y-58770209D01*
X77075152Y-58865447D01*
X76646580Y-58055923D02*
X76646580Y-57960685D01*
X76694200Y-57865447D01*
X76741819Y-57817828D01*
X76837057Y-57770209D01*
X77027533Y-57722590D01*
X77265628Y-57722590D01*
X77456104Y-57770209D01*
X77551342Y-57817828D01*
X77598961Y-57865447D01*
X77646580Y-57960685D01*
X77646580Y-58055923D01*
X77598961Y-58151161D01*
X77551342Y-58198780D01*
X77456104Y-58246400D01*
X77265628Y-58294019D01*
X77027533Y-58294019D01*
X76837057Y-58246400D01*
X76741819Y-58198780D01*
X76694200Y-58151161D01*
X76646580Y-58055923D01*
X76646580Y-56817828D02*
X76646580Y-57294019D01*
X77122771Y-57341638D01*
X77075152Y-57294019D01*
X77027533Y-57198780D01*
X77027533Y-56960685D01*
X77075152Y-56865447D01*
X77122771Y-56817828D01*
X77218009Y-56770209D01*
X77456104Y-56770209D01*
X77551342Y-56817828D01*
X77598961Y-56865447D01*
X77646580Y-56960685D01*
X77646580Y-57198780D01*
X77598961Y-57294019D01*
X77551342Y-57341638D01*
X77122771Y-56008304D02*
X77170390Y-55865447D01*
X77218009Y-55817828D01*
X77313247Y-55770209D01*
X77456104Y-55770209D01*
X77551342Y-55817828D01*
X77598961Y-55865447D01*
X77646580Y-55960685D01*
X77646580Y-56341638D01*
X76646580Y-56341638D01*
X76646580Y-56008304D01*
X76694200Y-55913066D01*
X76741819Y-55865447D01*
X76837057Y-55817828D01*
X76932295Y-55817828D01*
X77027533Y-55865447D01*
X77075152Y-55913066D01*
X77122771Y-56008304D01*
X77122771Y-56341638D01*
X77646580Y-54817828D02*
X77646580Y-55389257D01*
X77646580Y-55103542D02*
X76646580Y-55103542D01*
X76789438Y-55198780D01*
X76884676Y-55294019D01*
X76932295Y-55389257D01*
X76646580Y-54198780D02*
X76646580Y-54103542D01*
X76694200Y-54008304D01*
X76741819Y-53960685D01*
X76837057Y-53913066D01*
X77027533Y-53865447D01*
X77265628Y-53865447D01*
X77456104Y-53913066D01*
X77551342Y-53960685D01*
X77598961Y-54008304D01*
X77646580Y-54103542D01*
X77646580Y-54198780D01*
X77598961Y-54294019D01*
X77551342Y-54341638D01*
X77456104Y-54389257D01*
X77265628Y-54436876D01*
X77027533Y-54436876D01*
X76837057Y-54389257D01*
X76741819Y-54341638D01*
X76694200Y-54294019D01*
X76646580Y-54198780D01*
X77646580Y-52913066D02*
X77646580Y-53484495D01*
X77646580Y-53198780D02*
X76646580Y-53198780D01*
X76789438Y-53294019D01*
X76884676Y-53389257D01*
X76932295Y-53484495D01*
X77646580Y-52484495D02*
X76646580Y-52484495D01*
X77646580Y-51913066D02*
X77075152Y-52341638D01*
X76646580Y-51913066D02*
X77218009Y-52484495D01*
X77646580Y-50960685D02*
X77646580Y-51532114D01*
X77646580Y-51246400D02*
X76646580Y-51246400D01*
X76789438Y-51341638D01*
X76884676Y-51436876D01*
X76932295Y-51532114D01*
X76646580Y-50341638D02*
X76646580Y-50246400D01*
X76694200Y-50151161D01*
X76741819Y-50103542D01*
X76837057Y-50055923D01*
X77027533Y-50008304D01*
X77265628Y-50008304D01*
X77456104Y-50055923D01*
X77551342Y-50103542D01*
X77598961Y-50151161D01*
X77646580Y-50246400D01*
X77646580Y-50341638D01*
X77598961Y-50436876D01*
X77551342Y-50484495D01*
X77456104Y-50532114D01*
X77265628Y-50579733D01*
X77027533Y-50579733D01*
X76837057Y-50532114D01*
X76741819Y-50484495D01*
X76694200Y-50436876D01*
X76646580Y-50341638D01*
X76646580Y-49389257D02*
X76646580Y-49294019D01*
X76694200Y-49198780D01*
X76741819Y-49151161D01*
X76837057Y-49103542D01*
X77027533Y-49055923D01*
X77265628Y-49055923D01*
X77456104Y-49103542D01*
X77551342Y-49151161D01*
X77598961Y-49198780D01*
X77646580Y-49294019D01*
X77646580Y-49389257D01*
X77598961Y-49484495D01*
X77551342Y-49532114D01*
X77456104Y-49579733D01*
X77265628Y-49627352D01*
X77027533Y-49627352D01*
X76837057Y-49579733D01*
X76741819Y-49532114D01*
X76694200Y-49484495D01*
X76646580Y-49389257D01*
X77551342Y-48055923D02*
X77598961Y-48103542D01*
X77646580Y-48246400D01*
X77646580Y-48341638D01*
X77598961Y-48484495D01*
X77503723Y-48579733D01*
X77408485Y-48627352D01*
X77218009Y-48674971D01*
X77075152Y-48674971D01*
X76884676Y-48627352D01*
X76789438Y-48579733D01*
X76694200Y-48484495D01*
X76646580Y-48341638D01*
X76646580Y-48246400D01*
X76694200Y-48103542D01*
X76741819Y-48055923D01*
X76646580Y-47770209D02*
X76646580Y-47198780D01*
X77646580Y-47484495D02*
X76646580Y-47484495D01*
D13*
X75692771Y-53829733D02*
X75716580Y-53853542D01*
X75740390Y-53924971D01*
X75740390Y-53972590D01*
X75716580Y-54044019D01*
X75668961Y-54091638D01*
X75621342Y-54115447D01*
X75526104Y-54139257D01*
X75454676Y-54139257D01*
X75359438Y-54115447D01*
X75311819Y-54091638D01*
X75264200Y-54044019D01*
X75240390Y-53972590D01*
X75240390Y-53924971D01*
X75264200Y-53853542D01*
X75288009Y-53829733D01*
X75288009Y-53639257D02*
X75264200Y-53615447D01*
X75240390Y-53567828D01*
X75240390Y-53448780D01*
X75264200Y-53401161D01*
X75288009Y-53377352D01*
X75335628Y-53353542D01*
X75383247Y-53353542D01*
X75454676Y-53377352D01*
X75740390Y-53663066D01*
X75740390Y-53353542D01*
%TD*%
M02*
