%TF.GenerationSoftware,KiCad,Pcbnew,(5.1.9)-1*%
%TF.CreationDate,2021-05-20T21:26:35+10:00*%
%TF.ProjectId,RedPyKeeb_MCU,52656450-794b-4656-9562-5f4d43552e6b,rev?*%
%TF.SameCoordinates,Original*%
%TF.FileFunction,Copper,L3,Inr*%
%TF.FilePolarity,Positive*%
%FSLAX46Y46*%
G04 Gerber Fmt 4.6, Leading zero omitted, Abs format (unit mm)*
G04 Created by KiCad (PCBNEW (5.1.9)-1) date 2021-05-20 21:26:35*
%MOMM*%
%LPD*%
G01*
G04 APERTURE LIST*
%TA.AperFunction,ComponentPad*%
%ADD10O,1.700000X1.950000*%
%TD*%
%TA.AperFunction,ComponentPad*%
%ADD11O,1.950000X1.700000*%
%TD*%
%TA.AperFunction,ComponentPad*%
%ADD12R,1.350000X1.350000*%
%TD*%
%TA.AperFunction,ComponentPad*%
%ADD13O,1.350000X1.350000*%
%TD*%
%TA.AperFunction,ComponentPad*%
%ADD14C,1.600000*%
%TD*%
%TA.AperFunction,ComponentPad*%
%ADD15R,1.600000X1.600000*%
%TD*%
%TA.AperFunction,ComponentPad*%
%ADD16C,1.300000*%
%TD*%
%TA.AperFunction,ViaPad*%
%ADD17C,0.800000*%
%TD*%
%TA.AperFunction,Conductor*%
%ADD18C,1.524000*%
%TD*%
%TA.AperFunction,Conductor*%
%ADD19C,3.048000*%
%TD*%
%TA.AperFunction,Conductor*%
%ADD20C,1.016000*%
%TD*%
%TA.AperFunction,Conductor*%
%ADD21C,0.254000*%
%TD*%
%TA.AperFunction,Conductor*%
%ADD22C,0.100000*%
%TD*%
G04 APERTURE END LIST*
D10*
%TO.N,Net-(J2-Pad7)*%
%TO.C,J2*%
X92470000Y-30988000D03*
%TO.N,Net-(J2-Pad6)*%
X89970000Y-30988000D03*
%TO.N,Net-(J2-Pad5)*%
X87470000Y-30988000D03*
%TO.N,Net-(J2-Pad4)*%
X84970000Y-30988000D03*
%TO.N,Net-(J2-Pad3)*%
X82470000Y-30988000D03*
%TO.N,GNDPWR*%
X79970000Y-30988000D03*
%TO.N,MAIN_VBUS*%
%TA.AperFunction,ComponentPad*%
G36*
G01*
X76620000Y-31713000D02*
X76620000Y-30263000D01*
G75*
G02*
X76870000Y-30013000I250000J0D01*
G01*
X78070000Y-30013000D01*
G75*
G02*
X78320000Y-30263000I0J-250000D01*
G01*
X78320000Y-31713000D01*
G75*
G02*
X78070000Y-31963000I-250000J0D01*
G01*
X76870000Y-31963000D01*
G75*
G02*
X76620000Y-31713000I0J250000D01*
G01*
G37*
%TD.AperFunction*%
%TD*%
D11*
%TO.N,GNDPWR*%
%TO.C,J0*%
X27838400Y-42995200D03*
%TO.N,USB_DN*%
X27838400Y-45495200D03*
%TO.N,USB_DP*%
X27838400Y-47995200D03*
%TO.N,MAIN_VBUS*%
%TA.AperFunction,ComponentPad*%
G36*
G01*
X28563400Y-51345200D02*
X27113400Y-51345200D01*
G75*
G02*
X26863400Y-51095200I0J250000D01*
G01*
X26863400Y-49895200D01*
G75*
G02*
X27113400Y-49645200I250000J0D01*
G01*
X28563400Y-49645200D01*
G75*
G02*
X28813400Y-49895200I0J-250000D01*
G01*
X28813400Y-51095200D01*
G75*
G02*
X28563400Y-51345200I-250000J0D01*
G01*
G37*
%TD.AperFunction*%
%TD*%
D12*
%TO.N,KEY_ROW0*%
%TO.C,J1*%
X100279200Y-94640400D03*
D13*
%TO.N,KEY_ROW1*%
X100279200Y-92640400D03*
%TO.N,KEY_ROW2*%
X100279200Y-90640400D03*
%TO.N,KEY_ROW3*%
X100279200Y-88640400D03*
%TO.N,KEY_ROW4*%
X100279200Y-86640400D03*
%TO.N,KEY_ROW5*%
X100279200Y-84640400D03*
%TO.N,KEY_ROW6*%
X100279200Y-82640400D03*
%TO.N,MAIN_VBUS*%
X100279200Y-80640400D03*
%TO.N,LED_SCL_ROW0*%
X100279200Y-78640400D03*
%TO.N,LED_SDA_ROW0*%
X100279200Y-76640400D03*
%TO.N,GNDPWR*%
X100279200Y-74640400D03*
%TO.N,KEY_COL0*%
X100279200Y-72640400D03*
%TO.N,KEY_COL1*%
X100279200Y-70640400D03*
%TO.N,KEY_COL2*%
X100279200Y-68640400D03*
%TO.N,KEY_COL3*%
X100279200Y-66640400D03*
%TO.N,KEY_COL4*%
X100279200Y-64640400D03*
%TO.N,KEY_COL5*%
X100279200Y-62640400D03*
%TO.N,KEY_COL6*%
X100279200Y-60640400D03*
%TO.N,KEY_COL7*%
X100279200Y-58640400D03*
%TO.N,KEY_COL8*%
X100279200Y-56640400D03*
%TO.N,KEY_COL9*%
X100279200Y-54640400D03*
%TO.N,KEY_COL10*%
X100279200Y-52640400D03*
%TO.N,KEY_COL11*%
X100279200Y-50640400D03*
%TO.N,KEY_COL12*%
X100279200Y-48640400D03*
%TO.N,KEY_COL13*%
X100279200Y-46640400D03*
%TO.N,KEY_COL14*%
X100279200Y-44640400D03*
%TO.N,KEY_COL15*%
X100279200Y-42640400D03*
%TO.N,KEY_COL16*%
X100279200Y-40640400D03*
%TO.N,KEY_COL17*%
X100279200Y-38640400D03*
%TO.N,KEY_COL18*%
X100279200Y-36640400D03*
%TO.N,KEY_COL19*%
X100279200Y-34640400D03*
%TO.N,KEY_COL20*%
X100279200Y-32640400D03*
%TO.N,MAIN_VBUS*%
X100279200Y-30640400D03*
%TO.N,LED_SCL_STATUS0*%
X100279200Y-28640400D03*
%TO.N,LED_SDA_STATUS0*%
X100279200Y-26640400D03*
%TO.N,GNDPWR*%
X100279200Y-24640400D03*
%TD*%
D14*
%TO.N,MAIN_VBUS*%
%TO.C,U0*%
X36830000Y-40132000D03*
%TO.N,Net-(U0-Pad48)*%
X34290000Y-37592000D03*
%TO.N,GNDPWR*%
X36830000Y-37592000D03*
%TO.N,Net-(U0-Pad46)*%
X39370000Y-37592000D03*
%TO.N,KEY_COL12*%
X41910000Y-37592000D03*
%TO.N,KEY_COL13*%
X44450000Y-37592000D03*
%TO.N,KEY_COL14*%
X46990000Y-37592000D03*
%TO.N,KEY_COL15*%
X49530000Y-37592000D03*
%TO.N,KEY_COL16*%
X52070000Y-37592000D03*
%TO.N,KEY_COL17*%
X54610000Y-37592000D03*
%TO.N,KEY_COL20*%
X57150000Y-37592000D03*
%TO.N,KEY_COL19*%
X59690000Y-37592000D03*
%TO.N,KEY_COL18*%
X62230000Y-37592000D03*
%TO.N,Net-(U0-Pad36)*%
X64770000Y-37592000D03*
%TO.N,LED_SCL_ROW0_MCU*%
X67310000Y-37592000D03*
D15*
%TO.N,Net-(U0-Pad1)*%
X34290000Y-52832000D03*
D14*
%TO.N,KEY_ROW0*%
X36830000Y-52832000D03*
%TO.N,KEY_ROW1*%
X39370000Y-52832000D03*
%TO.N,KEY_ROW2*%
X41910000Y-52832000D03*
%TO.N,KEY_ROW3*%
X44450000Y-52832000D03*
%TO.N,KEY_ROW4*%
X46990000Y-52832000D03*
%TO.N,KEY_ROW5*%
X49530000Y-52832000D03*
%TO.N,KEY_ROW6*%
X52070000Y-52832000D03*
%TO.N,KEY_COL0*%
X54610000Y-52832000D03*
%TO.N,KEY_COL1*%
X57150000Y-52832000D03*
%TO.N,KEY_COL2*%
X59690000Y-52832000D03*
%TO.N,KEY_COL3*%
X62230000Y-52832000D03*
%TO.N,LED_SDA_ROW0_MCU*%
X64770000Y-52832000D03*
%TO.N,Net-(U0-Pad34)*%
X69850000Y-37592000D03*
%TO.N,Net-(U0-Pad33)*%
X72390000Y-37592000D03*
%TO.N,Net-(U0-Pad32)*%
X74930000Y-37592000D03*
%TO.N,Net-(U0-Pad31)*%
X77470000Y-37592000D03*
%TO.N,Net-(U0-Pad30)*%
X80010000Y-37592000D03*
%TO.N,Net-(U0-Pad29)*%
X82550000Y-37592000D03*
%TO.N,Net-(U0-Pad28)*%
X85090000Y-37592000D03*
%TO.N,Net-(U0-Pad27)*%
X87630000Y-37592000D03*
%TO.N,Net-(U0-Pad26)*%
X90170000Y-37592000D03*
%TO.N,Net-(U0-Pad25)*%
X92710000Y-37592000D03*
%TO.N,KEY_COL11*%
X92710000Y-52832000D03*
%TO.N,KEY_COL10*%
X90170000Y-52832000D03*
%TO.N,KEY_COL9*%
X87630000Y-52832000D03*
%TO.N,KEY_COL8*%
X85090000Y-52832000D03*
%TO.N,KEY_COL4*%
X67310000Y-52832000D03*
%TO.N,33_REF*%
X69850000Y-52832000D03*
%TO.N,LED_SCL_STATUS0_MCU*%
X72390000Y-52832000D03*
%TO.N,KEY_COL7*%
X82550000Y-52832000D03*
%TO.N,KEY_COL6*%
X80010000Y-52832000D03*
%TO.N,KEY_COL5*%
X77470000Y-52832000D03*
%TO.N,LED_SDA_STATUS0_MCU*%
X74930000Y-52832000D03*
D16*
%TO.N,USB_DP*%
X35020000Y-46482000D03*
%TO.N,USB_DN*%
X35020000Y-43942000D03*
%TD*%
D17*
%TO.N,GNDPWR*%
X76149200Y-59842400D03*
X66598800Y-57658000D03*
%TO.N,MAIN_VBUS*%
X76149200Y-63775500D03*
%TO.N,LED_SDA_ROW0_MCU*%
X70408800Y-57672200D03*
%TD*%
D18*
%TO.N,GNDPWR*%
X27838400Y-37642800D02*
X27838400Y-42995200D01*
X29651201Y-35829999D02*
X27838400Y-37642800D01*
X36185599Y-35829999D02*
X29651201Y-35829999D01*
X36830000Y-36474400D02*
X36185599Y-35829999D01*
X36830000Y-37592000D02*
X36830000Y-36474400D01*
D19*
X102362000Y-21590000D02*
X105156000Y-24384000D01*
X105156000Y-24384000D02*
X105156000Y-74726800D01*
D18*
X100279200Y-74640400D02*
X101462800Y-74640400D01*
D19*
X101916122Y-74726800D02*
X101829722Y-74640400D01*
X105156000Y-74726800D02*
X101916122Y-74726800D01*
D18*
X100279200Y-24640400D02*
X100279200Y-21844000D01*
X100279200Y-21844000D02*
X100533200Y-21590000D01*
D19*
X100533200Y-21590000D02*
X102362000Y-21590000D01*
D20*
X66598800Y-57658000D02*
X66598800Y-58877200D01*
X67564000Y-59842400D02*
X76149200Y-59842400D01*
X66598800Y-58877200D02*
X67564000Y-59842400D01*
X100279200Y-74640400D02*
X89372400Y-74640400D01*
X76149200Y-59842400D02*
X79197200Y-59842400D01*
X79197200Y-59842400D02*
X82397600Y-63042800D01*
X82397600Y-63042800D02*
X82397600Y-73609200D01*
X83428800Y-74640400D02*
X89372400Y-74640400D01*
X82397600Y-73609200D02*
X83428800Y-74640400D01*
D19*
X51636478Y-21590000D02*
X54610000Y-21590000D01*
X36830000Y-36396478D02*
X51636478Y-21590000D01*
X36830000Y-36474400D02*
X36830000Y-36396478D01*
D18*
X79970000Y-21884000D02*
X80264000Y-21590000D01*
X79970000Y-30988000D02*
X79970000Y-21884000D01*
D19*
X80264000Y-21590000D02*
X100533200Y-21590000D01*
X54610000Y-21590000D02*
X80264000Y-21590000D01*
D20*
%TO.N,MAIN_VBUS*%
X76149200Y-63775500D02*
X79726700Y-63775500D01*
X79726700Y-63775500D02*
X80264000Y-64312800D01*
X80264000Y-64312800D02*
X80264000Y-79857600D01*
X81046800Y-80640400D02*
X100279200Y-80640400D01*
X80264000Y-79857600D02*
X81046800Y-80640400D01*
%TD*%
D21*
%TO.N,GNDPWR*%
X110617000Y-96901000D02*
X19431000Y-96901000D01*
X19431000Y-63775500D01*
X75000670Y-63775500D01*
X75022739Y-63999567D01*
X75088097Y-64215023D01*
X75194232Y-64413589D01*
X75337067Y-64587633D01*
X75511111Y-64730468D01*
X75709677Y-64836603D01*
X75925133Y-64901961D01*
X76093054Y-64918500D01*
X79121000Y-64918500D01*
X79121001Y-79801451D01*
X79115471Y-79857600D01*
X79137539Y-80081667D01*
X79173702Y-80200877D01*
X79202898Y-80297123D01*
X79309033Y-80495689D01*
X79451868Y-80669733D01*
X79495477Y-80705522D01*
X80198881Y-81408928D01*
X80234667Y-81452533D01*
X80278271Y-81488318D01*
X80278277Y-81488324D01*
X80388917Y-81579123D01*
X80408711Y-81595368D01*
X80607277Y-81701503D01*
X80757374Y-81747035D01*
X80822732Y-81766861D01*
X80845400Y-81769094D01*
X80990654Y-81783400D01*
X80990660Y-81783400D01*
X81046799Y-81788929D01*
X81102938Y-81783400D01*
X99283579Y-81783400D01*
X99261656Y-81805323D01*
X99118293Y-82019882D01*
X99019542Y-82258287D01*
X98969200Y-82511376D01*
X98969200Y-82769424D01*
X99019542Y-83022513D01*
X99118293Y-83260918D01*
X99261656Y-83475477D01*
X99426579Y-83640400D01*
X99261656Y-83805323D01*
X99118293Y-84019882D01*
X99019542Y-84258287D01*
X98969200Y-84511376D01*
X98969200Y-84769424D01*
X99019542Y-85022513D01*
X99118293Y-85260918D01*
X99261656Y-85475477D01*
X99426579Y-85640400D01*
X99261656Y-85805323D01*
X99118293Y-86019882D01*
X99019542Y-86258287D01*
X98969200Y-86511376D01*
X98969200Y-86769424D01*
X99019542Y-87022513D01*
X99118293Y-87260918D01*
X99261656Y-87475477D01*
X99426579Y-87640400D01*
X99261656Y-87805323D01*
X99118293Y-88019882D01*
X99019542Y-88258287D01*
X98969200Y-88511376D01*
X98969200Y-88769424D01*
X99019542Y-89022513D01*
X99118293Y-89260918D01*
X99261656Y-89475477D01*
X99426579Y-89640400D01*
X99261656Y-89805323D01*
X99118293Y-90019882D01*
X99019542Y-90258287D01*
X98969200Y-90511376D01*
X98969200Y-90769424D01*
X99019542Y-91022513D01*
X99118293Y-91260918D01*
X99261656Y-91475477D01*
X99426579Y-91640400D01*
X99261656Y-91805323D01*
X99118293Y-92019882D01*
X99019542Y-92258287D01*
X98969200Y-92511376D01*
X98969200Y-92769424D01*
X99019542Y-93022513D01*
X99118293Y-93260918D01*
X99239897Y-93442913D01*
X99153015Y-93514215D01*
X99073663Y-93610906D01*
X99014698Y-93721220D01*
X98978388Y-93840918D01*
X98966128Y-93965400D01*
X98966128Y-95315400D01*
X98978388Y-95439882D01*
X99014698Y-95559580D01*
X99073663Y-95669894D01*
X99153015Y-95766585D01*
X99249706Y-95845937D01*
X99360020Y-95904902D01*
X99479718Y-95941212D01*
X99604200Y-95953472D01*
X100954200Y-95953472D01*
X101078682Y-95941212D01*
X101198380Y-95904902D01*
X101308694Y-95845937D01*
X101405385Y-95766585D01*
X101484737Y-95669894D01*
X101543702Y-95559580D01*
X101580012Y-95439882D01*
X101592272Y-95315400D01*
X101592272Y-93965400D01*
X101580012Y-93840918D01*
X101543702Y-93721220D01*
X101484737Y-93610906D01*
X101405385Y-93514215D01*
X101318503Y-93442913D01*
X101440107Y-93260918D01*
X101538858Y-93022513D01*
X101589200Y-92769424D01*
X101589200Y-92511376D01*
X101538858Y-92258287D01*
X101440107Y-92019882D01*
X101296744Y-91805323D01*
X101131821Y-91640400D01*
X101296744Y-91475477D01*
X101440107Y-91260918D01*
X101538858Y-91022513D01*
X101589200Y-90769424D01*
X101589200Y-90511376D01*
X101538858Y-90258287D01*
X101440107Y-90019882D01*
X101296744Y-89805323D01*
X101131821Y-89640400D01*
X101296744Y-89475477D01*
X101440107Y-89260918D01*
X101538858Y-89022513D01*
X101589200Y-88769424D01*
X101589200Y-88511376D01*
X101538858Y-88258287D01*
X101440107Y-88019882D01*
X101296744Y-87805323D01*
X101131821Y-87640400D01*
X101296744Y-87475477D01*
X101440107Y-87260918D01*
X101538858Y-87022513D01*
X101589200Y-86769424D01*
X101589200Y-86511376D01*
X101538858Y-86258287D01*
X101440107Y-86019882D01*
X101296744Y-85805323D01*
X101131821Y-85640400D01*
X101296744Y-85475477D01*
X101440107Y-85260918D01*
X101538858Y-85022513D01*
X101589200Y-84769424D01*
X101589200Y-84511376D01*
X101538858Y-84258287D01*
X101440107Y-84019882D01*
X101296744Y-83805323D01*
X101131821Y-83640400D01*
X101296744Y-83475477D01*
X101440107Y-83260918D01*
X101538858Y-83022513D01*
X101589200Y-82769424D01*
X101589200Y-82511376D01*
X101538858Y-82258287D01*
X101440107Y-82019882D01*
X101296744Y-81805323D01*
X101131821Y-81640400D01*
X101296744Y-81475477D01*
X101440107Y-81260918D01*
X101538858Y-81022513D01*
X101589200Y-80769424D01*
X101589200Y-80511376D01*
X101538858Y-80258287D01*
X101440107Y-80019882D01*
X101296744Y-79805323D01*
X101131821Y-79640400D01*
X101296744Y-79475477D01*
X101440107Y-79260918D01*
X101538858Y-79022513D01*
X101589200Y-78769424D01*
X101589200Y-78511376D01*
X101538858Y-78258287D01*
X101440107Y-78019882D01*
X101296744Y-77805323D01*
X101131821Y-77640400D01*
X101296744Y-77475477D01*
X101440107Y-77260918D01*
X101538858Y-77022513D01*
X101589200Y-76769424D01*
X101589200Y-76511376D01*
X101538858Y-76258287D01*
X101440107Y-76019882D01*
X101296744Y-75805323D01*
X101125140Y-75633719D01*
X101257503Y-75511627D01*
X101408673Y-75304029D01*
X101516438Y-75070928D01*
X101547110Y-74969800D01*
X101423424Y-74767400D01*
X100406200Y-74767400D01*
X100406200Y-74787400D01*
X100152200Y-74787400D01*
X100152200Y-74767400D01*
X99134976Y-74767400D01*
X99011290Y-74969800D01*
X99041962Y-75070928D01*
X99149727Y-75304029D01*
X99300897Y-75511627D01*
X99433260Y-75633719D01*
X99261656Y-75805323D01*
X99118293Y-76019882D01*
X99019542Y-76258287D01*
X98969200Y-76511376D01*
X98969200Y-76769424D01*
X99019542Y-77022513D01*
X99118293Y-77260918D01*
X99261656Y-77475477D01*
X99426579Y-77640400D01*
X99261656Y-77805323D01*
X99118293Y-78019882D01*
X99019542Y-78258287D01*
X98969200Y-78511376D01*
X98969200Y-78769424D01*
X99019542Y-79022513D01*
X99118293Y-79260918D01*
X99261656Y-79475477D01*
X99283579Y-79497400D01*
X81520246Y-79497400D01*
X81407000Y-79384154D01*
X81407000Y-64368939D01*
X81412529Y-64312800D01*
X81407000Y-64256661D01*
X81407000Y-64256654D01*
X81390461Y-64088733D01*
X81325103Y-63873277D01*
X81218968Y-63674711D01*
X81076133Y-63500667D01*
X81032519Y-63464874D01*
X80574628Y-63006983D01*
X80538833Y-62963367D01*
X80364789Y-62820532D01*
X80166223Y-62714397D01*
X79950767Y-62649039D01*
X79782846Y-62632500D01*
X79782839Y-62632500D01*
X79726700Y-62626971D01*
X79670561Y-62632500D01*
X76093054Y-62632500D01*
X75925133Y-62649039D01*
X75709677Y-62714397D01*
X75511111Y-62820532D01*
X75337067Y-62963367D01*
X75194232Y-63137411D01*
X75088097Y-63335977D01*
X75022739Y-63551433D01*
X75000670Y-63775500D01*
X19431000Y-63775500D01*
X19431000Y-57570261D01*
X69373800Y-57570261D01*
X69373800Y-57774139D01*
X69413574Y-57974098D01*
X69491595Y-58162456D01*
X69604863Y-58331974D01*
X69749026Y-58476137D01*
X69918544Y-58589405D01*
X70106902Y-58667426D01*
X70306861Y-58707200D01*
X70510739Y-58707200D01*
X70710698Y-58667426D01*
X70899056Y-58589405D01*
X71068574Y-58476137D01*
X71212737Y-58331974D01*
X71326005Y-58162456D01*
X71404026Y-57974098D01*
X71443800Y-57774139D01*
X71443800Y-57570261D01*
X71404026Y-57370302D01*
X71326005Y-57181944D01*
X71212737Y-57012426D01*
X71068574Y-56868263D01*
X70899056Y-56754995D01*
X70710698Y-56676974D01*
X70510739Y-56637200D01*
X70306861Y-56637200D01*
X70106902Y-56676974D01*
X69918544Y-56754995D01*
X69749026Y-56868263D01*
X69604863Y-57012426D01*
X69491595Y-57181944D01*
X69413574Y-57370302D01*
X69373800Y-57570261D01*
X19431000Y-57570261D01*
X19431000Y-52032000D01*
X32851928Y-52032000D01*
X32851928Y-53632000D01*
X32864188Y-53756482D01*
X32900498Y-53876180D01*
X32959463Y-53986494D01*
X33038815Y-54083185D01*
X33135506Y-54162537D01*
X33245820Y-54221502D01*
X33365518Y-54257812D01*
X33490000Y-54270072D01*
X35090000Y-54270072D01*
X35214482Y-54257812D01*
X35334180Y-54221502D01*
X35444494Y-54162537D01*
X35541185Y-54083185D01*
X35620537Y-53986494D01*
X35679502Y-53876180D01*
X35715812Y-53756482D01*
X35716643Y-53748039D01*
X35915241Y-53946637D01*
X36150273Y-54103680D01*
X36411426Y-54211853D01*
X36688665Y-54267000D01*
X36971335Y-54267000D01*
X37248574Y-54211853D01*
X37509727Y-54103680D01*
X37744759Y-53946637D01*
X37944637Y-53746759D01*
X38100000Y-53514241D01*
X38255363Y-53746759D01*
X38455241Y-53946637D01*
X38690273Y-54103680D01*
X38951426Y-54211853D01*
X39228665Y-54267000D01*
X39511335Y-54267000D01*
X39788574Y-54211853D01*
X40049727Y-54103680D01*
X40284759Y-53946637D01*
X40484637Y-53746759D01*
X40640000Y-53514241D01*
X40795363Y-53746759D01*
X40995241Y-53946637D01*
X41230273Y-54103680D01*
X41491426Y-54211853D01*
X41768665Y-54267000D01*
X42051335Y-54267000D01*
X42328574Y-54211853D01*
X42589727Y-54103680D01*
X42824759Y-53946637D01*
X43024637Y-53746759D01*
X43180000Y-53514241D01*
X43335363Y-53746759D01*
X43535241Y-53946637D01*
X43770273Y-54103680D01*
X44031426Y-54211853D01*
X44308665Y-54267000D01*
X44591335Y-54267000D01*
X44868574Y-54211853D01*
X45129727Y-54103680D01*
X45364759Y-53946637D01*
X45564637Y-53746759D01*
X45720000Y-53514241D01*
X45875363Y-53746759D01*
X46075241Y-53946637D01*
X46310273Y-54103680D01*
X46571426Y-54211853D01*
X46848665Y-54267000D01*
X47131335Y-54267000D01*
X47408574Y-54211853D01*
X47669727Y-54103680D01*
X47904759Y-53946637D01*
X48104637Y-53746759D01*
X48260000Y-53514241D01*
X48415363Y-53746759D01*
X48615241Y-53946637D01*
X48850273Y-54103680D01*
X49111426Y-54211853D01*
X49388665Y-54267000D01*
X49671335Y-54267000D01*
X49948574Y-54211853D01*
X50209727Y-54103680D01*
X50444759Y-53946637D01*
X50644637Y-53746759D01*
X50800000Y-53514241D01*
X50955363Y-53746759D01*
X51155241Y-53946637D01*
X51390273Y-54103680D01*
X51651426Y-54211853D01*
X51928665Y-54267000D01*
X52211335Y-54267000D01*
X52488574Y-54211853D01*
X52749727Y-54103680D01*
X52984759Y-53946637D01*
X53184637Y-53746759D01*
X53340000Y-53514241D01*
X53495363Y-53746759D01*
X53695241Y-53946637D01*
X53930273Y-54103680D01*
X54191426Y-54211853D01*
X54468665Y-54267000D01*
X54751335Y-54267000D01*
X55028574Y-54211853D01*
X55289727Y-54103680D01*
X55524759Y-53946637D01*
X55724637Y-53746759D01*
X55880000Y-53514241D01*
X56035363Y-53746759D01*
X56235241Y-53946637D01*
X56470273Y-54103680D01*
X56731426Y-54211853D01*
X57008665Y-54267000D01*
X57291335Y-54267000D01*
X57568574Y-54211853D01*
X57829727Y-54103680D01*
X58064759Y-53946637D01*
X58264637Y-53746759D01*
X58420000Y-53514241D01*
X58575363Y-53746759D01*
X58775241Y-53946637D01*
X59010273Y-54103680D01*
X59271426Y-54211853D01*
X59548665Y-54267000D01*
X59831335Y-54267000D01*
X60108574Y-54211853D01*
X60369727Y-54103680D01*
X60604759Y-53946637D01*
X60804637Y-53746759D01*
X60960000Y-53514241D01*
X61115363Y-53746759D01*
X61315241Y-53946637D01*
X61550273Y-54103680D01*
X61811426Y-54211853D01*
X62088665Y-54267000D01*
X62371335Y-54267000D01*
X62648574Y-54211853D01*
X62909727Y-54103680D01*
X63144759Y-53946637D01*
X63344637Y-53746759D01*
X63500000Y-53514241D01*
X63655363Y-53746759D01*
X63855241Y-53946637D01*
X64090273Y-54103680D01*
X64351426Y-54211853D01*
X64628665Y-54267000D01*
X64911335Y-54267000D01*
X65188574Y-54211853D01*
X65449727Y-54103680D01*
X65684759Y-53946637D01*
X65884637Y-53746759D01*
X66040000Y-53514241D01*
X66195363Y-53746759D01*
X66395241Y-53946637D01*
X66630273Y-54103680D01*
X66891426Y-54211853D01*
X67168665Y-54267000D01*
X67451335Y-54267000D01*
X67728574Y-54211853D01*
X67989727Y-54103680D01*
X68224759Y-53946637D01*
X68424637Y-53746759D01*
X68580000Y-53514241D01*
X68735363Y-53746759D01*
X68935241Y-53946637D01*
X69170273Y-54103680D01*
X69431426Y-54211853D01*
X69708665Y-54267000D01*
X69991335Y-54267000D01*
X70268574Y-54211853D01*
X70529727Y-54103680D01*
X70764759Y-53946637D01*
X70964637Y-53746759D01*
X71120000Y-53514241D01*
X71275363Y-53746759D01*
X71475241Y-53946637D01*
X71710273Y-54103680D01*
X71971426Y-54211853D01*
X72248665Y-54267000D01*
X72531335Y-54267000D01*
X72808574Y-54211853D01*
X73069727Y-54103680D01*
X73304759Y-53946637D01*
X73504637Y-53746759D01*
X73660000Y-53514241D01*
X73815363Y-53746759D01*
X74015241Y-53946637D01*
X74250273Y-54103680D01*
X74511426Y-54211853D01*
X74788665Y-54267000D01*
X75071335Y-54267000D01*
X75348574Y-54211853D01*
X75609727Y-54103680D01*
X75844759Y-53946637D01*
X76044637Y-53746759D01*
X76200000Y-53514241D01*
X76355363Y-53746759D01*
X76555241Y-53946637D01*
X76790273Y-54103680D01*
X77051426Y-54211853D01*
X77328665Y-54267000D01*
X77611335Y-54267000D01*
X77888574Y-54211853D01*
X78149727Y-54103680D01*
X78384759Y-53946637D01*
X78584637Y-53746759D01*
X78740000Y-53514241D01*
X78895363Y-53746759D01*
X79095241Y-53946637D01*
X79330273Y-54103680D01*
X79591426Y-54211853D01*
X79868665Y-54267000D01*
X80151335Y-54267000D01*
X80428574Y-54211853D01*
X80689727Y-54103680D01*
X80924759Y-53946637D01*
X81124637Y-53746759D01*
X81280000Y-53514241D01*
X81435363Y-53746759D01*
X81635241Y-53946637D01*
X81870273Y-54103680D01*
X82131426Y-54211853D01*
X82408665Y-54267000D01*
X82691335Y-54267000D01*
X82968574Y-54211853D01*
X83229727Y-54103680D01*
X83464759Y-53946637D01*
X83664637Y-53746759D01*
X83820000Y-53514241D01*
X83975363Y-53746759D01*
X84175241Y-53946637D01*
X84410273Y-54103680D01*
X84671426Y-54211853D01*
X84948665Y-54267000D01*
X85231335Y-54267000D01*
X85508574Y-54211853D01*
X85769727Y-54103680D01*
X86004759Y-53946637D01*
X86204637Y-53746759D01*
X86360000Y-53514241D01*
X86515363Y-53746759D01*
X86715241Y-53946637D01*
X86950273Y-54103680D01*
X87211426Y-54211853D01*
X87488665Y-54267000D01*
X87771335Y-54267000D01*
X88048574Y-54211853D01*
X88309727Y-54103680D01*
X88544759Y-53946637D01*
X88744637Y-53746759D01*
X88900000Y-53514241D01*
X89055363Y-53746759D01*
X89255241Y-53946637D01*
X89490273Y-54103680D01*
X89751426Y-54211853D01*
X90028665Y-54267000D01*
X90311335Y-54267000D01*
X90588574Y-54211853D01*
X90849727Y-54103680D01*
X91084759Y-53946637D01*
X91284637Y-53746759D01*
X91440000Y-53514241D01*
X91595363Y-53746759D01*
X91795241Y-53946637D01*
X92030273Y-54103680D01*
X92291426Y-54211853D01*
X92568665Y-54267000D01*
X92851335Y-54267000D01*
X93128574Y-54211853D01*
X93389727Y-54103680D01*
X93624759Y-53946637D01*
X93824637Y-53746759D01*
X93981680Y-53511727D01*
X94089853Y-53250574D01*
X94145000Y-52973335D01*
X94145000Y-52690665D01*
X94089853Y-52413426D01*
X93981680Y-52152273D01*
X93824637Y-51917241D01*
X93624759Y-51717363D01*
X93389727Y-51560320D01*
X93128574Y-51452147D01*
X92851335Y-51397000D01*
X92568665Y-51397000D01*
X92291426Y-51452147D01*
X92030273Y-51560320D01*
X91795241Y-51717363D01*
X91595363Y-51917241D01*
X91440000Y-52149759D01*
X91284637Y-51917241D01*
X91084759Y-51717363D01*
X90849727Y-51560320D01*
X90588574Y-51452147D01*
X90311335Y-51397000D01*
X90028665Y-51397000D01*
X89751426Y-51452147D01*
X89490273Y-51560320D01*
X89255241Y-51717363D01*
X89055363Y-51917241D01*
X88900000Y-52149759D01*
X88744637Y-51917241D01*
X88544759Y-51717363D01*
X88309727Y-51560320D01*
X88048574Y-51452147D01*
X87771335Y-51397000D01*
X87488665Y-51397000D01*
X87211426Y-51452147D01*
X86950273Y-51560320D01*
X86715241Y-51717363D01*
X86515363Y-51917241D01*
X86360000Y-52149759D01*
X86204637Y-51917241D01*
X86004759Y-51717363D01*
X85769727Y-51560320D01*
X85508574Y-51452147D01*
X85231335Y-51397000D01*
X84948665Y-51397000D01*
X84671426Y-51452147D01*
X84410273Y-51560320D01*
X84175241Y-51717363D01*
X83975363Y-51917241D01*
X83820000Y-52149759D01*
X83664637Y-51917241D01*
X83464759Y-51717363D01*
X83229727Y-51560320D01*
X82968574Y-51452147D01*
X82691335Y-51397000D01*
X82408665Y-51397000D01*
X82131426Y-51452147D01*
X81870273Y-51560320D01*
X81635241Y-51717363D01*
X81435363Y-51917241D01*
X81280000Y-52149759D01*
X81124637Y-51917241D01*
X80924759Y-51717363D01*
X80689727Y-51560320D01*
X80428574Y-51452147D01*
X80151335Y-51397000D01*
X79868665Y-51397000D01*
X79591426Y-51452147D01*
X79330273Y-51560320D01*
X79095241Y-51717363D01*
X78895363Y-51917241D01*
X78740000Y-52149759D01*
X78584637Y-51917241D01*
X78384759Y-51717363D01*
X78149727Y-51560320D01*
X77888574Y-51452147D01*
X77611335Y-51397000D01*
X77328665Y-51397000D01*
X77051426Y-51452147D01*
X76790273Y-51560320D01*
X76555241Y-51717363D01*
X76355363Y-51917241D01*
X76200000Y-52149759D01*
X76044637Y-51917241D01*
X75844759Y-51717363D01*
X75609727Y-51560320D01*
X75348574Y-51452147D01*
X75071335Y-51397000D01*
X74788665Y-51397000D01*
X74511426Y-51452147D01*
X74250273Y-51560320D01*
X74015241Y-51717363D01*
X73815363Y-51917241D01*
X73660000Y-52149759D01*
X73504637Y-51917241D01*
X73304759Y-51717363D01*
X73069727Y-51560320D01*
X72808574Y-51452147D01*
X72531335Y-51397000D01*
X72248665Y-51397000D01*
X71971426Y-51452147D01*
X71710273Y-51560320D01*
X71475241Y-51717363D01*
X71275363Y-51917241D01*
X71120000Y-52149759D01*
X70964637Y-51917241D01*
X70764759Y-51717363D01*
X70529727Y-51560320D01*
X70268574Y-51452147D01*
X69991335Y-51397000D01*
X69708665Y-51397000D01*
X69431426Y-51452147D01*
X69170273Y-51560320D01*
X68935241Y-51717363D01*
X68735363Y-51917241D01*
X68580000Y-52149759D01*
X68424637Y-51917241D01*
X68224759Y-51717363D01*
X67989727Y-51560320D01*
X67728574Y-51452147D01*
X67451335Y-51397000D01*
X67168665Y-51397000D01*
X66891426Y-51452147D01*
X66630273Y-51560320D01*
X66395241Y-51717363D01*
X66195363Y-51917241D01*
X66040000Y-52149759D01*
X65884637Y-51917241D01*
X65684759Y-51717363D01*
X65449727Y-51560320D01*
X65188574Y-51452147D01*
X64911335Y-51397000D01*
X64628665Y-51397000D01*
X64351426Y-51452147D01*
X64090273Y-51560320D01*
X63855241Y-51717363D01*
X63655363Y-51917241D01*
X63500000Y-52149759D01*
X63344637Y-51917241D01*
X63144759Y-51717363D01*
X62909727Y-51560320D01*
X62648574Y-51452147D01*
X62371335Y-51397000D01*
X62088665Y-51397000D01*
X61811426Y-51452147D01*
X61550273Y-51560320D01*
X61315241Y-51717363D01*
X61115363Y-51917241D01*
X60960000Y-52149759D01*
X60804637Y-51917241D01*
X60604759Y-51717363D01*
X60369727Y-51560320D01*
X60108574Y-51452147D01*
X59831335Y-51397000D01*
X59548665Y-51397000D01*
X59271426Y-51452147D01*
X59010273Y-51560320D01*
X58775241Y-51717363D01*
X58575363Y-51917241D01*
X58420000Y-52149759D01*
X58264637Y-51917241D01*
X58064759Y-51717363D01*
X57829727Y-51560320D01*
X57568574Y-51452147D01*
X57291335Y-51397000D01*
X57008665Y-51397000D01*
X56731426Y-51452147D01*
X56470273Y-51560320D01*
X56235241Y-51717363D01*
X56035363Y-51917241D01*
X55880000Y-52149759D01*
X55724637Y-51917241D01*
X55524759Y-51717363D01*
X55289727Y-51560320D01*
X55028574Y-51452147D01*
X54751335Y-51397000D01*
X54468665Y-51397000D01*
X54191426Y-51452147D01*
X53930273Y-51560320D01*
X53695241Y-51717363D01*
X53495363Y-51917241D01*
X53340000Y-52149759D01*
X53184637Y-51917241D01*
X52984759Y-51717363D01*
X52749727Y-51560320D01*
X52488574Y-51452147D01*
X52211335Y-51397000D01*
X51928665Y-51397000D01*
X51651426Y-51452147D01*
X51390273Y-51560320D01*
X51155241Y-51717363D01*
X50955363Y-51917241D01*
X50800000Y-52149759D01*
X50644637Y-51917241D01*
X50444759Y-51717363D01*
X50209727Y-51560320D01*
X49948574Y-51452147D01*
X49671335Y-51397000D01*
X49388665Y-51397000D01*
X49111426Y-51452147D01*
X48850273Y-51560320D01*
X48615241Y-51717363D01*
X48415363Y-51917241D01*
X48260000Y-52149759D01*
X48104637Y-51917241D01*
X47904759Y-51717363D01*
X47669727Y-51560320D01*
X47408574Y-51452147D01*
X47131335Y-51397000D01*
X46848665Y-51397000D01*
X46571426Y-51452147D01*
X46310273Y-51560320D01*
X46075241Y-51717363D01*
X45875363Y-51917241D01*
X45720000Y-52149759D01*
X45564637Y-51917241D01*
X45364759Y-51717363D01*
X45129727Y-51560320D01*
X44868574Y-51452147D01*
X44591335Y-51397000D01*
X44308665Y-51397000D01*
X44031426Y-51452147D01*
X43770273Y-51560320D01*
X43535241Y-51717363D01*
X43335363Y-51917241D01*
X43180000Y-52149759D01*
X43024637Y-51917241D01*
X42824759Y-51717363D01*
X42589727Y-51560320D01*
X42328574Y-51452147D01*
X42051335Y-51397000D01*
X41768665Y-51397000D01*
X41491426Y-51452147D01*
X41230273Y-51560320D01*
X40995241Y-51717363D01*
X40795363Y-51917241D01*
X40640000Y-52149759D01*
X40484637Y-51917241D01*
X40284759Y-51717363D01*
X40049727Y-51560320D01*
X39788574Y-51452147D01*
X39511335Y-51397000D01*
X39228665Y-51397000D01*
X38951426Y-51452147D01*
X38690273Y-51560320D01*
X38455241Y-51717363D01*
X38255363Y-51917241D01*
X38100000Y-52149759D01*
X37944637Y-51917241D01*
X37744759Y-51717363D01*
X37509727Y-51560320D01*
X37248574Y-51452147D01*
X36971335Y-51397000D01*
X36688665Y-51397000D01*
X36411426Y-51452147D01*
X36150273Y-51560320D01*
X35915241Y-51717363D01*
X35716643Y-51915961D01*
X35715812Y-51907518D01*
X35679502Y-51787820D01*
X35620537Y-51677506D01*
X35541185Y-51580815D01*
X35444494Y-51501463D01*
X35334180Y-51442498D01*
X35214482Y-51406188D01*
X35090000Y-51393928D01*
X33490000Y-51393928D01*
X33365518Y-51406188D01*
X33245820Y-51442498D01*
X33135506Y-51501463D01*
X33038815Y-51580815D01*
X32959463Y-51677506D01*
X32900498Y-51787820D01*
X32864188Y-51907518D01*
X32851928Y-52032000D01*
X19431000Y-52032000D01*
X19431000Y-45495200D01*
X26221215Y-45495200D01*
X26249887Y-45786311D01*
X26334801Y-46066234D01*
X26472694Y-46324214D01*
X26658266Y-46550334D01*
X26884386Y-46735906D01*
X26901774Y-46745200D01*
X26884386Y-46754494D01*
X26658266Y-46940066D01*
X26472694Y-47166186D01*
X26334801Y-47424166D01*
X26249887Y-47704089D01*
X26221215Y-47995200D01*
X26249887Y-48286311D01*
X26334801Y-48566234D01*
X26472694Y-48824214D01*
X26658266Y-49050334D01*
X26721737Y-49102423D01*
X26620014Y-49156795D01*
X26485438Y-49267238D01*
X26374995Y-49401814D01*
X26292928Y-49555350D01*
X26242392Y-49721946D01*
X26225328Y-49895200D01*
X26225328Y-51095200D01*
X26242392Y-51268454D01*
X26292928Y-51435050D01*
X26374995Y-51588586D01*
X26485438Y-51723162D01*
X26620014Y-51833605D01*
X26773550Y-51915672D01*
X26940146Y-51966208D01*
X27113400Y-51983272D01*
X28563400Y-51983272D01*
X28736654Y-51966208D01*
X28903250Y-51915672D01*
X29056786Y-51833605D01*
X29191362Y-51723162D01*
X29301805Y-51588586D01*
X29383872Y-51435050D01*
X29434408Y-51268454D01*
X29451472Y-51095200D01*
X29451472Y-49895200D01*
X29434408Y-49721946D01*
X29383872Y-49555350D01*
X29301805Y-49401814D01*
X29191362Y-49267238D01*
X29056786Y-49156795D01*
X28955063Y-49102423D01*
X29018534Y-49050334D01*
X29204106Y-48824214D01*
X29341999Y-48566234D01*
X29426913Y-48286311D01*
X29455585Y-47995200D01*
X29426913Y-47704089D01*
X29341999Y-47424166D01*
X29204106Y-47166186D01*
X29018534Y-46940066D01*
X28792414Y-46754494D01*
X28775026Y-46745200D01*
X28792414Y-46735906D01*
X29018534Y-46550334D01*
X29204106Y-46324214D01*
X29341999Y-46066234D01*
X29426913Y-45786311D01*
X29455585Y-45495200D01*
X29426913Y-45204089D01*
X29341999Y-44924166D01*
X29204106Y-44666186D01*
X29018534Y-44440066D01*
X28792414Y-44254494D01*
X28766678Y-44240738D01*
X28972829Y-44084249D01*
X29165896Y-43866393D01*
X29195668Y-43815439D01*
X33735000Y-43815439D01*
X33735000Y-44068561D01*
X33784381Y-44316821D01*
X33881247Y-44550676D01*
X34021875Y-44761140D01*
X34200860Y-44940125D01*
X34411324Y-45080753D01*
X34645179Y-45177619D01*
X34818027Y-45212000D01*
X34645179Y-45246381D01*
X34411324Y-45343247D01*
X34200860Y-45483875D01*
X34021875Y-45662860D01*
X33881247Y-45873324D01*
X33784381Y-46107179D01*
X33735000Y-46355439D01*
X33735000Y-46608561D01*
X33784381Y-46856821D01*
X33881247Y-47090676D01*
X34021875Y-47301140D01*
X34200860Y-47480125D01*
X34411324Y-47620753D01*
X34645179Y-47717619D01*
X34893439Y-47767000D01*
X35146561Y-47767000D01*
X35394821Y-47717619D01*
X35628676Y-47620753D01*
X35839140Y-47480125D01*
X36018125Y-47301140D01*
X36158753Y-47090676D01*
X36255619Y-46856821D01*
X36305000Y-46608561D01*
X36305000Y-46355439D01*
X36255619Y-46107179D01*
X36158753Y-45873324D01*
X36018125Y-45662860D01*
X35839140Y-45483875D01*
X35628676Y-45343247D01*
X35394821Y-45246381D01*
X35221973Y-45212000D01*
X35394821Y-45177619D01*
X35628676Y-45080753D01*
X35839140Y-44940125D01*
X36018125Y-44761140D01*
X36158753Y-44550676D01*
X36255619Y-44316821D01*
X36305000Y-44068561D01*
X36305000Y-43815439D01*
X36255619Y-43567179D01*
X36158753Y-43333324D01*
X36018125Y-43122860D01*
X35839140Y-42943875D01*
X35628676Y-42803247D01*
X35394821Y-42706381D01*
X35146561Y-42657000D01*
X34893439Y-42657000D01*
X34645179Y-42706381D01*
X34411324Y-42803247D01*
X34200860Y-42943875D01*
X34021875Y-43122860D01*
X33881247Y-43333324D01*
X33784381Y-43567179D01*
X33735000Y-43815439D01*
X29195668Y-43815439D01*
X29312752Y-43615058D01*
X29404876Y-43352090D01*
X29283555Y-43122200D01*
X27965400Y-43122200D01*
X27965400Y-43142200D01*
X27711400Y-43142200D01*
X27711400Y-43122200D01*
X26393245Y-43122200D01*
X26271924Y-43352090D01*
X26364048Y-43615058D01*
X26510904Y-43866393D01*
X26703971Y-44084249D01*
X26910122Y-44240738D01*
X26884386Y-44254494D01*
X26658266Y-44440066D01*
X26472694Y-44666186D01*
X26334801Y-44924166D01*
X26249887Y-45204089D01*
X26221215Y-45495200D01*
X19431000Y-45495200D01*
X19431000Y-42638310D01*
X26271924Y-42638310D01*
X26393245Y-42868200D01*
X27711400Y-42868200D01*
X27711400Y-41669035D01*
X27965400Y-41669035D01*
X27965400Y-42868200D01*
X29283555Y-42868200D01*
X29404876Y-42638310D01*
X29312752Y-42375342D01*
X29165896Y-42124007D01*
X28972829Y-41906151D01*
X28740970Y-41730147D01*
X28479230Y-41602758D01*
X28197667Y-41528880D01*
X27965400Y-41669035D01*
X27711400Y-41669035D01*
X27479133Y-41528880D01*
X27197570Y-41602758D01*
X26935830Y-41730147D01*
X26703971Y-41906151D01*
X26510904Y-42124007D01*
X26364048Y-42375342D01*
X26271924Y-42638310D01*
X19431000Y-42638310D01*
X19431000Y-39990665D01*
X35395000Y-39990665D01*
X35395000Y-40273335D01*
X35450147Y-40550574D01*
X35558320Y-40811727D01*
X35715363Y-41046759D01*
X35915241Y-41246637D01*
X36150273Y-41403680D01*
X36411426Y-41511853D01*
X36688665Y-41567000D01*
X36971335Y-41567000D01*
X37248574Y-41511853D01*
X37509727Y-41403680D01*
X37744759Y-41246637D01*
X37944637Y-41046759D01*
X38101680Y-40811727D01*
X38209853Y-40550574D01*
X38265000Y-40273335D01*
X38265000Y-39990665D01*
X38209853Y-39713426D01*
X38101680Y-39452273D01*
X37944637Y-39217241D01*
X37744759Y-39017363D01*
X37510872Y-38861085D01*
X37571514Y-38828671D01*
X37643097Y-38584702D01*
X36830000Y-37771605D01*
X36016903Y-38584702D01*
X36088486Y-38828671D01*
X36152992Y-38859194D01*
X36150273Y-38860320D01*
X35915241Y-39017363D01*
X35715363Y-39217241D01*
X35558320Y-39452273D01*
X35450147Y-39713426D01*
X35395000Y-39990665D01*
X19431000Y-39990665D01*
X19431000Y-37450665D01*
X32855000Y-37450665D01*
X32855000Y-37733335D01*
X32910147Y-38010574D01*
X33018320Y-38271727D01*
X33175363Y-38506759D01*
X33375241Y-38706637D01*
X33610273Y-38863680D01*
X33871426Y-38971853D01*
X34148665Y-39027000D01*
X34431335Y-39027000D01*
X34708574Y-38971853D01*
X34969727Y-38863680D01*
X35204759Y-38706637D01*
X35404637Y-38506759D01*
X35560915Y-38272872D01*
X35593329Y-38333514D01*
X35837298Y-38405097D01*
X36650395Y-37592000D01*
X37009605Y-37592000D01*
X37822702Y-38405097D01*
X38066671Y-38333514D01*
X38097194Y-38269008D01*
X38098320Y-38271727D01*
X38255363Y-38506759D01*
X38455241Y-38706637D01*
X38690273Y-38863680D01*
X38951426Y-38971853D01*
X39228665Y-39027000D01*
X39511335Y-39027000D01*
X39788574Y-38971853D01*
X40049727Y-38863680D01*
X40284759Y-38706637D01*
X40484637Y-38506759D01*
X40640000Y-38274241D01*
X40795363Y-38506759D01*
X40995241Y-38706637D01*
X41230273Y-38863680D01*
X41491426Y-38971853D01*
X41768665Y-39027000D01*
X42051335Y-39027000D01*
X42328574Y-38971853D01*
X42589727Y-38863680D01*
X42824759Y-38706637D01*
X43024637Y-38506759D01*
X43180000Y-38274241D01*
X43335363Y-38506759D01*
X43535241Y-38706637D01*
X43770273Y-38863680D01*
X44031426Y-38971853D01*
X44308665Y-39027000D01*
X44591335Y-39027000D01*
X44868574Y-38971853D01*
X45129727Y-38863680D01*
X45364759Y-38706637D01*
X45564637Y-38506759D01*
X45720000Y-38274241D01*
X45875363Y-38506759D01*
X46075241Y-38706637D01*
X46310273Y-38863680D01*
X46571426Y-38971853D01*
X46848665Y-39027000D01*
X47131335Y-39027000D01*
X47408574Y-38971853D01*
X47669727Y-38863680D01*
X47904759Y-38706637D01*
X48104637Y-38506759D01*
X48260000Y-38274241D01*
X48415363Y-38506759D01*
X48615241Y-38706637D01*
X48850273Y-38863680D01*
X49111426Y-38971853D01*
X49388665Y-39027000D01*
X49671335Y-39027000D01*
X49948574Y-38971853D01*
X50209727Y-38863680D01*
X50444759Y-38706637D01*
X50644637Y-38506759D01*
X50800000Y-38274241D01*
X50955363Y-38506759D01*
X51155241Y-38706637D01*
X51390273Y-38863680D01*
X51651426Y-38971853D01*
X51928665Y-39027000D01*
X52211335Y-39027000D01*
X52488574Y-38971853D01*
X52749727Y-38863680D01*
X52984759Y-38706637D01*
X53184637Y-38506759D01*
X53340000Y-38274241D01*
X53495363Y-38506759D01*
X53695241Y-38706637D01*
X53930273Y-38863680D01*
X54191426Y-38971853D01*
X54468665Y-39027000D01*
X54751335Y-39027000D01*
X55028574Y-38971853D01*
X55289727Y-38863680D01*
X55524759Y-38706637D01*
X55724637Y-38506759D01*
X55880000Y-38274241D01*
X56035363Y-38506759D01*
X56235241Y-38706637D01*
X56470273Y-38863680D01*
X56731426Y-38971853D01*
X57008665Y-39027000D01*
X57291335Y-39027000D01*
X57568574Y-38971853D01*
X57829727Y-38863680D01*
X58064759Y-38706637D01*
X58264637Y-38506759D01*
X58420000Y-38274241D01*
X58575363Y-38506759D01*
X58775241Y-38706637D01*
X59010273Y-38863680D01*
X59271426Y-38971853D01*
X59548665Y-39027000D01*
X59831335Y-39027000D01*
X60108574Y-38971853D01*
X60369727Y-38863680D01*
X60604759Y-38706637D01*
X60804637Y-38506759D01*
X60960000Y-38274241D01*
X61115363Y-38506759D01*
X61315241Y-38706637D01*
X61550273Y-38863680D01*
X61811426Y-38971853D01*
X62088665Y-39027000D01*
X62371335Y-39027000D01*
X62648574Y-38971853D01*
X62909727Y-38863680D01*
X63144759Y-38706637D01*
X63344637Y-38506759D01*
X63500000Y-38274241D01*
X63655363Y-38506759D01*
X63855241Y-38706637D01*
X64090273Y-38863680D01*
X64351426Y-38971853D01*
X64628665Y-39027000D01*
X64911335Y-39027000D01*
X65188574Y-38971853D01*
X65449727Y-38863680D01*
X65684759Y-38706637D01*
X65884637Y-38506759D01*
X66040000Y-38274241D01*
X66195363Y-38506759D01*
X66395241Y-38706637D01*
X66630273Y-38863680D01*
X66891426Y-38971853D01*
X67168665Y-39027000D01*
X67451335Y-39027000D01*
X67728574Y-38971853D01*
X67989727Y-38863680D01*
X68224759Y-38706637D01*
X68424637Y-38506759D01*
X68580000Y-38274241D01*
X68735363Y-38506759D01*
X68935241Y-38706637D01*
X69170273Y-38863680D01*
X69431426Y-38971853D01*
X69708665Y-39027000D01*
X69991335Y-39027000D01*
X70268574Y-38971853D01*
X70529727Y-38863680D01*
X70764759Y-38706637D01*
X70964637Y-38506759D01*
X71120000Y-38274241D01*
X71275363Y-38506759D01*
X71475241Y-38706637D01*
X71710273Y-38863680D01*
X71971426Y-38971853D01*
X72248665Y-39027000D01*
X72531335Y-39027000D01*
X72808574Y-38971853D01*
X73069727Y-38863680D01*
X73304759Y-38706637D01*
X73504637Y-38506759D01*
X73660000Y-38274241D01*
X73815363Y-38506759D01*
X74015241Y-38706637D01*
X74250273Y-38863680D01*
X74511426Y-38971853D01*
X74788665Y-39027000D01*
X75071335Y-39027000D01*
X75348574Y-38971853D01*
X75609727Y-38863680D01*
X75844759Y-38706637D01*
X76044637Y-38506759D01*
X76200000Y-38274241D01*
X76355363Y-38506759D01*
X76555241Y-38706637D01*
X76790273Y-38863680D01*
X77051426Y-38971853D01*
X77328665Y-39027000D01*
X77611335Y-39027000D01*
X77888574Y-38971853D01*
X78149727Y-38863680D01*
X78384759Y-38706637D01*
X78584637Y-38506759D01*
X78740000Y-38274241D01*
X78895363Y-38506759D01*
X79095241Y-38706637D01*
X79330273Y-38863680D01*
X79591426Y-38971853D01*
X79868665Y-39027000D01*
X80151335Y-39027000D01*
X80428574Y-38971853D01*
X80689727Y-38863680D01*
X80924759Y-38706637D01*
X81124637Y-38506759D01*
X81280000Y-38274241D01*
X81435363Y-38506759D01*
X81635241Y-38706637D01*
X81870273Y-38863680D01*
X82131426Y-38971853D01*
X82408665Y-39027000D01*
X82691335Y-39027000D01*
X82968574Y-38971853D01*
X83229727Y-38863680D01*
X83464759Y-38706637D01*
X83664637Y-38506759D01*
X83820000Y-38274241D01*
X83975363Y-38506759D01*
X84175241Y-38706637D01*
X84410273Y-38863680D01*
X84671426Y-38971853D01*
X84948665Y-39027000D01*
X85231335Y-39027000D01*
X85508574Y-38971853D01*
X85769727Y-38863680D01*
X86004759Y-38706637D01*
X86204637Y-38506759D01*
X86360000Y-38274241D01*
X86515363Y-38506759D01*
X86715241Y-38706637D01*
X86950273Y-38863680D01*
X87211426Y-38971853D01*
X87488665Y-39027000D01*
X87771335Y-39027000D01*
X88048574Y-38971853D01*
X88309727Y-38863680D01*
X88544759Y-38706637D01*
X88744637Y-38506759D01*
X88900000Y-38274241D01*
X89055363Y-38506759D01*
X89255241Y-38706637D01*
X89490273Y-38863680D01*
X89751426Y-38971853D01*
X90028665Y-39027000D01*
X90311335Y-39027000D01*
X90588574Y-38971853D01*
X90849727Y-38863680D01*
X91084759Y-38706637D01*
X91284637Y-38506759D01*
X91440000Y-38274241D01*
X91595363Y-38506759D01*
X91795241Y-38706637D01*
X92030273Y-38863680D01*
X92291426Y-38971853D01*
X92568665Y-39027000D01*
X92851335Y-39027000D01*
X93128574Y-38971853D01*
X93389727Y-38863680D01*
X93624759Y-38706637D01*
X93824637Y-38506759D01*
X93981680Y-38271727D01*
X94089853Y-38010574D01*
X94145000Y-37733335D01*
X94145000Y-37450665D01*
X94089853Y-37173426D01*
X93981680Y-36912273D01*
X93824637Y-36677241D01*
X93624759Y-36477363D01*
X93389727Y-36320320D01*
X93128574Y-36212147D01*
X92851335Y-36157000D01*
X92568665Y-36157000D01*
X92291426Y-36212147D01*
X92030273Y-36320320D01*
X91795241Y-36477363D01*
X91595363Y-36677241D01*
X91440000Y-36909759D01*
X91284637Y-36677241D01*
X91084759Y-36477363D01*
X90849727Y-36320320D01*
X90588574Y-36212147D01*
X90311335Y-36157000D01*
X90028665Y-36157000D01*
X89751426Y-36212147D01*
X89490273Y-36320320D01*
X89255241Y-36477363D01*
X89055363Y-36677241D01*
X88900000Y-36909759D01*
X88744637Y-36677241D01*
X88544759Y-36477363D01*
X88309727Y-36320320D01*
X88048574Y-36212147D01*
X87771335Y-36157000D01*
X87488665Y-36157000D01*
X87211426Y-36212147D01*
X86950273Y-36320320D01*
X86715241Y-36477363D01*
X86515363Y-36677241D01*
X86360000Y-36909759D01*
X86204637Y-36677241D01*
X86004759Y-36477363D01*
X85769727Y-36320320D01*
X85508574Y-36212147D01*
X85231335Y-36157000D01*
X84948665Y-36157000D01*
X84671426Y-36212147D01*
X84410273Y-36320320D01*
X84175241Y-36477363D01*
X83975363Y-36677241D01*
X83820000Y-36909759D01*
X83664637Y-36677241D01*
X83464759Y-36477363D01*
X83229727Y-36320320D01*
X82968574Y-36212147D01*
X82691335Y-36157000D01*
X82408665Y-36157000D01*
X82131426Y-36212147D01*
X81870273Y-36320320D01*
X81635241Y-36477363D01*
X81435363Y-36677241D01*
X81280000Y-36909759D01*
X81124637Y-36677241D01*
X80924759Y-36477363D01*
X80689727Y-36320320D01*
X80428574Y-36212147D01*
X80151335Y-36157000D01*
X79868665Y-36157000D01*
X79591426Y-36212147D01*
X79330273Y-36320320D01*
X79095241Y-36477363D01*
X78895363Y-36677241D01*
X78740000Y-36909759D01*
X78584637Y-36677241D01*
X78384759Y-36477363D01*
X78149727Y-36320320D01*
X77888574Y-36212147D01*
X77611335Y-36157000D01*
X77328665Y-36157000D01*
X77051426Y-36212147D01*
X76790273Y-36320320D01*
X76555241Y-36477363D01*
X76355363Y-36677241D01*
X76200000Y-36909759D01*
X76044637Y-36677241D01*
X75844759Y-36477363D01*
X75609727Y-36320320D01*
X75348574Y-36212147D01*
X75071335Y-36157000D01*
X74788665Y-36157000D01*
X74511426Y-36212147D01*
X74250273Y-36320320D01*
X74015241Y-36477363D01*
X73815363Y-36677241D01*
X73660000Y-36909759D01*
X73504637Y-36677241D01*
X73304759Y-36477363D01*
X73069727Y-36320320D01*
X72808574Y-36212147D01*
X72531335Y-36157000D01*
X72248665Y-36157000D01*
X71971426Y-36212147D01*
X71710273Y-36320320D01*
X71475241Y-36477363D01*
X71275363Y-36677241D01*
X71120000Y-36909759D01*
X70964637Y-36677241D01*
X70764759Y-36477363D01*
X70529727Y-36320320D01*
X70268574Y-36212147D01*
X69991335Y-36157000D01*
X69708665Y-36157000D01*
X69431426Y-36212147D01*
X69170273Y-36320320D01*
X68935241Y-36477363D01*
X68735363Y-36677241D01*
X68580000Y-36909759D01*
X68424637Y-36677241D01*
X68224759Y-36477363D01*
X67989727Y-36320320D01*
X67728574Y-36212147D01*
X67451335Y-36157000D01*
X67168665Y-36157000D01*
X66891426Y-36212147D01*
X66630273Y-36320320D01*
X66395241Y-36477363D01*
X66195363Y-36677241D01*
X66040000Y-36909759D01*
X65884637Y-36677241D01*
X65684759Y-36477363D01*
X65449727Y-36320320D01*
X65188574Y-36212147D01*
X64911335Y-36157000D01*
X64628665Y-36157000D01*
X64351426Y-36212147D01*
X64090273Y-36320320D01*
X63855241Y-36477363D01*
X63655363Y-36677241D01*
X63500000Y-36909759D01*
X63344637Y-36677241D01*
X63144759Y-36477363D01*
X62909727Y-36320320D01*
X62648574Y-36212147D01*
X62371335Y-36157000D01*
X62088665Y-36157000D01*
X61811426Y-36212147D01*
X61550273Y-36320320D01*
X61315241Y-36477363D01*
X61115363Y-36677241D01*
X60960000Y-36909759D01*
X60804637Y-36677241D01*
X60604759Y-36477363D01*
X60369727Y-36320320D01*
X60108574Y-36212147D01*
X59831335Y-36157000D01*
X59548665Y-36157000D01*
X59271426Y-36212147D01*
X59010273Y-36320320D01*
X58775241Y-36477363D01*
X58575363Y-36677241D01*
X58420000Y-36909759D01*
X58264637Y-36677241D01*
X58064759Y-36477363D01*
X57829727Y-36320320D01*
X57568574Y-36212147D01*
X57291335Y-36157000D01*
X57008665Y-36157000D01*
X56731426Y-36212147D01*
X56470273Y-36320320D01*
X56235241Y-36477363D01*
X56035363Y-36677241D01*
X55880000Y-36909759D01*
X55724637Y-36677241D01*
X55524759Y-36477363D01*
X55289727Y-36320320D01*
X55028574Y-36212147D01*
X54751335Y-36157000D01*
X54468665Y-36157000D01*
X54191426Y-36212147D01*
X53930273Y-36320320D01*
X53695241Y-36477363D01*
X53495363Y-36677241D01*
X53340000Y-36909759D01*
X53184637Y-36677241D01*
X52984759Y-36477363D01*
X52749727Y-36320320D01*
X52488574Y-36212147D01*
X52211335Y-36157000D01*
X51928665Y-36157000D01*
X51651426Y-36212147D01*
X51390273Y-36320320D01*
X51155241Y-36477363D01*
X50955363Y-36677241D01*
X50800000Y-36909759D01*
X50644637Y-36677241D01*
X50444759Y-36477363D01*
X50209727Y-36320320D01*
X49948574Y-36212147D01*
X49671335Y-36157000D01*
X49388665Y-36157000D01*
X49111426Y-36212147D01*
X48850273Y-36320320D01*
X48615241Y-36477363D01*
X48415363Y-36677241D01*
X48260000Y-36909759D01*
X48104637Y-36677241D01*
X47904759Y-36477363D01*
X47669727Y-36320320D01*
X47408574Y-36212147D01*
X47131335Y-36157000D01*
X46848665Y-36157000D01*
X46571426Y-36212147D01*
X46310273Y-36320320D01*
X46075241Y-36477363D01*
X45875363Y-36677241D01*
X45720000Y-36909759D01*
X45564637Y-36677241D01*
X45364759Y-36477363D01*
X45129727Y-36320320D01*
X44868574Y-36212147D01*
X44591335Y-36157000D01*
X44308665Y-36157000D01*
X44031426Y-36212147D01*
X43770273Y-36320320D01*
X43535241Y-36477363D01*
X43335363Y-36677241D01*
X43180000Y-36909759D01*
X43024637Y-36677241D01*
X42824759Y-36477363D01*
X42589727Y-36320320D01*
X42328574Y-36212147D01*
X42051335Y-36157000D01*
X41768665Y-36157000D01*
X41491426Y-36212147D01*
X41230273Y-36320320D01*
X40995241Y-36477363D01*
X40795363Y-36677241D01*
X40640000Y-36909759D01*
X40484637Y-36677241D01*
X40284759Y-36477363D01*
X40049727Y-36320320D01*
X39788574Y-36212147D01*
X39511335Y-36157000D01*
X39228665Y-36157000D01*
X38951426Y-36212147D01*
X38690273Y-36320320D01*
X38455241Y-36477363D01*
X38255363Y-36677241D01*
X38099085Y-36911128D01*
X38066671Y-36850486D01*
X37822702Y-36778903D01*
X37009605Y-37592000D01*
X36650395Y-37592000D01*
X35837298Y-36778903D01*
X35593329Y-36850486D01*
X35562806Y-36914992D01*
X35561680Y-36912273D01*
X35404637Y-36677241D01*
X35326694Y-36599298D01*
X36016903Y-36599298D01*
X36830000Y-37412395D01*
X37643097Y-36599298D01*
X37571514Y-36355329D01*
X37316004Y-36234429D01*
X37041816Y-36165700D01*
X36759488Y-36151783D01*
X36479870Y-36193213D01*
X36213708Y-36288397D01*
X36088486Y-36355329D01*
X36016903Y-36599298D01*
X35326694Y-36599298D01*
X35204759Y-36477363D01*
X34969727Y-36320320D01*
X34708574Y-36212147D01*
X34431335Y-36157000D01*
X34148665Y-36157000D01*
X33871426Y-36212147D01*
X33610273Y-36320320D01*
X33375241Y-36477363D01*
X33175363Y-36677241D01*
X33018320Y-36912273D01*
X32910147Y-37173426D01*
X32855000Y-37450665D01*
X19431000Y-37450665D01*
X19431000Y-30263000D01*
X75981928Y-30263000D01*
X75981928Y-31713000D01*
X75998992Y-31886254D01*
X76049528Y-32052850D01*
X76131595Y-32206386D01*
X76242038Y-32340962D01*
X76376614Y-32451405D01*
X76530150Y-32533472D01*
X76696746Y-32584008D01*
X76870000Y-32601072D01*
X78070000Y-32601072D01*
X78243254Y-32584008D01*
X78409850Y-32533472D01*
X78563386Y-32451405D01*
X78697962Y-32340962D01*
X78808405Y-32206386D01*
X78864714Y-32101039D01*
X78880951Y-32122429D01*
X79098807Y-32315496D01*
X79350142Y-32462352D01*
X79613110Y-32554476D01*
X79843000Y-32433155D01*
X79843000Y-31115000D01*
X79823000Y-31115000D01*
X79823000Y-30861000D01*
X79843000Y-30861000D01*
X79843000Y-29542845D01*
X80097000Y-29542845D01*
X80097000Y-30861000D01*
X80117000Y-30861000D01*
X80117000Y-31115000D01*
X80097000Y-31115000D01*
X80097000Y-32433155D01*
X80326890Y-32554476D01*
X80589858Y-32462352D01*
X80841193Y-32315496D01*
X81059049Y-32122429D01*
X81215538Y-31916278D01*
X81229294Y-31942014D01*
X81414866Y-32168134D01*
X81640987Y-32353706D01*
X81898967Y-32491599D01*
X82178890Y-32576513D01*
X82470000Y-32605185D01*
X82761111Y-32576513D01*
X83041034Y-32491599D01*
X83299014Y-32353706D01*
X83525134Y-32168134D01*
X83710706Y-31942014D01*
X83720000Y-31924626D01*
X83729294Y-31942014D01*
X83914866Y-32168134D01*
X84140987Y-32353706D01*
X84398967Y-32491599D01*
X84678890Y-32576513D01*
X84970000Y-32605185D01*
X85261111Y-32576513D01*
X85541034Y-32491599D01*
X85799014Y-32353706D01*
X86025134Y-32168134D01*
X86210706Y-31942014D01*
X86220000Y-31924626D01*
X86229294Y-31942014D01*
X86414866Y-32168134D01*
X86640987Y-32353706D01*
X86898967Y-32491599D01*
X87178890Y-32576513D01*
X87470000Y-32605185D01*
X87761111Y-32576513D01*
X88041034Y-32491599D01*
X88299014Y-32353706D01*
X88525134Y-32168134D01*
X88710706Y-31942014D01*
X88720000Y-31924626D01*
X88729294Y-31942014D01*
X88914866Y-32168134D01*
X89140987Y-32353706D01*
X89398967Y-32491599D01*
X89678890Y-32576513D01*
X89970000Y-32605185D01*
X90261111Y-32576513D01*
X90541034Y-32491599D01*
X90799014Y-32353706D01*
X91025134Y-32168134D01*
X91210706Y-31942014D01*
X91220000Y-31924626D01*
X91229294Y-31942014D01*
X91414866Y-32168134D01*
X91640987Y-32353706D01*
X91898967Y-32491599D01*
X92178890Y-32576513D01*
X92470000Y-32605185D01*
X92761111Y-32576513D01*
X93041034Y-32491599D01*
X93299014Y-32353706D01*
X93525134Y-32168134D01*
X93710706Y-31942014D01*
X93848599Y-31684033D01*
X93933513Y-31404110D01*
X93955000Y-31185949D01*
X93955000Y-30790050D01*
X93933513Y-30571889D01*
X93848599Y-30291966D01*
X93710706Y-30033986D01*
X93525134Y-29807866D01*
X93299013Y-29622294D01*
X93041033Y-29484401D01*
X92761110Y-29399487D01*
X92470000Y-29370815D01*
X92178889Y-29399487D01*
X91898966Y-29484401D01*
X91640986Y-29622294D01*
X91414866Y-29807866D01*
X91229294Y-30033987D01*
X91220000Y-30051374D01*
X91210706Y-30033986D01*
X91025134Y-29807866D01*
X90799013Y-29622294D01*
X90541033Y-29484401D01*
X90261110Y-29399487D01*
X89970000Y-29370815D01*
X89678889Y-29399487D01*
X89398966Y-29484401D01*
X89140986Y-29622294D01*
X88914866Y-29807866D01*
X88729294Y-30033987D01*
X88720000Y-30051374D01*
X88710706Y-30033986D01*
X88525134Y-29807866D01*
X88299013Y-29622294D01*
X88041033Y-29484401D01*
X87761110Y-29399487D01*
X87470000Y-29370815D01*
X87178889Y-29399487D01*
X86898966Y-29484401D01*
X86640986Y-29622294D01*
X86414866Y-29807866D01*
X86229294Y-30033987D01*
X86220000Y-30051374D01*
X86210706Y-30033986D01*
X86025134Y-29807866D01*
X85799013Y-29622294D01*
X85541033Y-29484401D01*
X85261110Y-29399487D01*
X84970000Y-29370815D01*
X84678889Y-29399487D01*
X84398966Y-29484401D01*
X84140986Y-29622294D01*
X83914866Y-29807866D01*
X83729294Y-30033987D01*
X83720000Y-30051374D01*
X83710706Y-30033986D01*
X83525134Y-29807866D01*
X83299013Y-29622294D01*
X83041033Y-29484401D01*
X82761110Y-29399487D01*
X82470000Y-29370815D01*
X82178889Y-29399487D01*
X81898966Y-29484401D01*
X81640986Y-29622294D01*
X81414866Y-29807866D01*
X81229294Y-30033987D01*
X81215538Y-30059722D01*
X81059049Y-29853571D01*
X80841193Y-29660504D01*
X80589858Y-29513648D01*
X80326890Y-29421524D01*
X80097000Y-29542845D01*
X79843000Y-29542845D01*
X79613110Y-29421524D01*
X79350142Y-29513648D01*
X79098807Y-29660504D01*
X78880951Y-29853571D01*
X78864714Y-29874961D01*
X78808405Y-29769614D01*
X78697962Y-29635038D01*
X78563386Y-29524595D01*
X78409850Y-29442528D01*
X78243254Y-29391992D01*
X78070000Y-29374928D01*
X76870000Y-29374928D01*
X76696746Y-29391992D01*
X76530150Y-29442528D01*
X76376614Y-29524595D01*
X76242038Y-29635038D01*
X76131595Y-29769614D01*
X76049528Y-29923150D01*
X75998992Y-30089746D01*
X75981928Y-30263000D01*
X19431000Y-30263000D01*
X19431000Y-26511376D01*
X98969200Y-26511376D01*
X98969200Y-26769424D01*
X99019542Y-27022513D01*
X99118293Y-27260918D01*
X99261656Y-27475477D01*
X99426579Y-27640400D01*
X99261656Y-27805323D01*
X99118293Y-28019882D01*
X99019542Y-28258287D01*
X98969200Y-28511376D01*
X98969200Y-28769424D01*
X99019542Y-29022513D01*
X99118293Y-29260918D01*
X99261656Y-29475477D01*
X99426579Y-29640400D01*
X99261656Y-29805323D01*
X99118293Y-30019882D01*
X99019542Y-30258287D01*
X98969200Y-30511376D01*
X98969200Y-30769424D01*
X99019542Y-31022513D01*
X99118293Y-31260918D01*
X99261656Y-31475477D01*
X99426579Y-31640400D01*
X99261656Y-31805323D01*
X99118293Y-32019882D01*
X99019542Y-32258287D01*
X98969200Y-32511376D01*
X98969200Y-32769424D01*
X99019542Y-33022513D01*
X99118293Y-33260918D01*
X99261656Y-33475477D01*
X99426579Y-33640400D01*
X99261656Y-33805323D01*
X99118293Y-34019882D01*
X99019542Y-34258287D01*
X98969200Y-34511376D01*
X98969200Y-34769424D01*
X99019542Y-35022513D01*
X99118293Y-35260918D01*
X99261656Y-35475477D01*
X99426579Y-35640400D01*
X99261656Y-35805323D01*
X99118293Y-36019882D01*
X99019542Y-36258287D01*
X98969200Y-36511376D01*
X98969200Y-36769424D01*
X99019542Y-37022513D01*
X99118293Y-37260918D01*
X99261656Y-37475477D01*
X99426579Y-37640400D01*
X99261656Y-37805323D01*
X99118293Y-38019882D01*
X99019542Y-38258287D01*
X98969200Y-38511376D01*
X98969200Y-38769424D01*
X99019542Y-39022513D01*
X99118293Y-39260918D01*
X99261656Y-39475477D01*
X99426579Y-39640400D01*
X99261656Y-39805323D01*
X99118293Y-40019882D01*
X99019542Y-40258287D01*
X98969200Y-40511376D01*
X98969200Y-40769424D01*
X99019542Y-41022513D01*
X99118293Y-41260918D01*
X99261656Y-41475477D01*
X99426579Y-41640400D01*
X99261656Y-41805323D01*
X99118293Y-42019882D01*
X99019542Y-42258287D01*
X98969200Y-42511376D01*
X98969200Y-42769424D01*
X99019542Y-43022513D01*
X99118293Y-43260918D01*
X99261656Y-43475477D01*
X99426579Y-43640400D01*
X99261656Y-43805323D01*
X99118293Y-44019882D01*
X99019542Y-44258287D01*
X98969200Y-44511376D01*
X98969200Y-44769424D01*
X99019542Y-45022513D01*
X99118293Y-45260918D01*
X99261656Y-45475477D01*
X99426579Y-45640400D01*
X99261656Y-45805323D01*
X99118293Y-46019882D01*
X99019542Y-46258287D01*
X98969200Y-46511376D01*
X98969200Y-46769424D01*
X99019542Y-47022513D01*
X99118293Y-47260918D01*
X99261656Y-47475477D01*
X99426579Y-47640400D01*
X99261656Y-47805323D01*
X99118293Y-48019882D01*
X99019542Y-48258287D01*
X98969200Y-48511376D01*
X98969200Y-48769424D01*
X99019542Y-49022513D01*
X99118293Y-49260918D01*
X99261656Y-49475477D01*
X99426579Y-49640400D01*
X99261656Y-49805323D01*
X99118293Y-50019882D01*
X99019542Y-50258287D01*
X98969200Y-50511376D01*
X98969200Y-50769424D01*
X99019542Y-51022513D01*
X99118293Y-51260918D01*
X99261656Y-51475477D01*
X99426579Y-51640400D01*
X99261656Y-51805323D01*
X99118293Y-52019882D01*
X99019542Y-52258287D01*
X98969200Y-52511376D01*
X98969200Y-52769424D01*
X99019542Y-53022513D01*
X99118293Y-53260918D01*
X99261656Y-53475477D01*
X99426579Y-53640400D01*
X99261656Y-53805323D01*
X99118293Y-54019882D01*
X99019542Y-54258287D01*
X98969200Y-54511376D01*
X98969200Y-54769424D01*
X99019542Y-55022513D01*
X99118293Y-55260918D01*
X99261656Y-55475477D01*
X99426579Y-55640400D01*
X99261656Y-55805323D01*
X99118293Y-56019882D01*
X99019542Y-56258287D01*
X98969200Y-56511376D01*
X98969200Y-56769424D01*
X99019542Y-57022513D01*
X99118293Y-57260918D01*
X99261656Y-57475477D01*
X99426579Y-57640400D01*
X99261656Y-57805323D01*
X99118293Y-58019882D01*
X99019542Y-58258287D01*
X98969200Y-58511376D01*
X98969200Y-58769424D01*
X99019542Y-59022513D01*
X99118293Y-59260918D01*
X99261656Y-59475477D01*
X99426579Y-59640400D01*
X99261656Y-59805323D01*
X99118293Y-60019882D01*
X99019542Y-60258287D01*
X98969200Y-60511376D01*
X98969200Y-60769424D01*
X99019542Y-61022513D01*
X99118293Y-61260918D01*
X99261656Y-61475477D01*
X99426579Y-61640400D01*
X99261656Y-61805323D01*
X99118293Y-62019882D01*
X99019542Y-62258287D01*
X98969200Y-62511376D01*
X98969200Y-62769424D01*
X99019542Y-63022513D01*
X99118293Y-63260918D01*
X99261656Y-63475477D01*
X99426579Y-63640400D01*
X99261656Y-63805323D01*
X99118293Y-64019882D01*
X99019542Y-64258287D01*
X98969200Y-64511376D01*
X98969200Y-64769424D01*
X99019542Y-65022513D01*
X99118293Y-65260918D01*
X99261656Y-65475477D01*
X99426579Y-65640400D01*
X99261656Y-65805323D01*
X99118293Y-66019882D01*
X99019542Y-66258287D01*
X98969200Y-66511376D01*
X98969200Y-66769424D01*
X99019542Y-67022513D01*
X99118293Y-67260918D01*
X99261656Y-67475477D01*
X99426579Y-67640400D01*
X99261656Y-67805323D01*
X99118293Y-68019882D01*
X99019542Y-68258287D01*
X98969200Y-68511376D01*
X98969200Y-68769424D01*
X99019542Y-69022513D01*
X99118293Y-69260918D01*
X99261656Y-69475477D01*
X99426579Y-69640400D01*
X99261656Y-69805323D01*
X99118293Y-70019882D01*
X99019542Y-70258287D01*
X98969200Y-70511376D01*
X98969200Y-70769424D01*
X99019542Y-71022513D01*
X99118293Y-71260918D01*
X99261656Y-71475477D01*
X99426579Y-71640400D01*
X99261656Y-71805323D01*
X99118293Y-72019882D01*
X99019542Y-72258287D01*
X98969200Y-72511376D01*
X98969200Y-72769424D01*
X99019542Y-73022513D01*
X99118293Y-73260918D01*
X99261656Y-73475477D01*
X99433260Y-73647081D01*
X99300897Y-73769173D01*
X99149727Y-73976771D01*
X99041962Y-74209872D01*
X99011290Y-74311000D01*
X99134976Y-74513400D01*
X100152200Y-74513400D01*
X100152200Y-74493400D01*
X100406200Y-74493400D01*
X100406200Y-74513400D01*
X101423424Y-74513400D01*
X101547110Y-74311000D01*
X101516438Y-74209872D01*
X101408673Y-73976771D01*
X101257503Y-73769173D01*
X101125140Y-73647081D01*
X101296744Y-73475477D01*
X101440107Y-73260918D01*
X101538858Y-73022513D01*
X101589200Y-72769424D01*
X101589200Y-72511376D01*
X101538858Y-72258287D01*
X101440107Y-72019882D01*
X101296744Y-71805323D01*
X101131821Y-71640400D01*
X101296744Y-71475477D01*
X101440107Y-71260918D01*
X101538858Y-71022513D01*
X101589200Y-70769424D01*
X101589200Y-70511376D01*
X101538858Y-70258287D01*
X101440107Y-70019882D01*
X101296744Y-69805323D01*
X101131821Y-69640400D01*
X101296744Y-69475477D01*
X101440107Y-69260918D01*
X101538858Y-69022513D01*
X101589200Y-68769424D01*
X101589200Y-68511376D01*
X101538858Y-68258287D01*
X101440107Y-68019882D01*
X101296744Y-67805323D01*
X101131821Y-67640400D01*
X101296744Y-67475477D01*
X101440107Y-67260918D01*
X101538858Y-67022513D01*
X101589200Y-66769424D01*
X101589200Y-66511376D01*
X101538858Y-66258287D01*
X101440107Y-66019882D01*
X101296744Y-65805323D01*
X101131821Y-65640400D01*
X101296744Y-65475477D01*
X101440107Y-65260918D01*
X101538858Y-65022513D01*
X101589200Y-64769424D01*
X101589200Y-64511376D01*
X101538858Y-64258287D01*
X101440107Y-64019882D01*
X101296744Y-63805323D01*
X101131821Y-63640400D01*
X101296744Y-63475477D01*
X101440107Y-63260918D01*
X101538858Y-63022513D01*
X101589200Y-62769424D01*
X101589200Y-62511376D01*
X101538858Y-62258287D01*
X101440107Y-62019882D01*
X101296744Y-61805323D01*
X101131821Y-61640400D01*
X101296744Y-61475477D01*
X101440107Y-61260918D01*
X101538858Y-61022513D01*
X101589200Y-60769424D01*
X101589200Y-60511376D01*
X101538858Y-60258287D01*
X101440107Y-60019882D01*
X101296744Y-59805323D01*
X101131821Y-59640400D01*
X101296744Y-59475477D01*
X101440107Y-59260918D01*
X101538858Y-59022513D01*
X101589200Y-58769424D01*
X101589200Y-58511376D01*
X101538858Y-58258287D01*
X101440107Y-58019882D01*
X101296744Y-57805323D01*
X101131821Y-57640400D01*
X101296744Y-57475477D01*
X101440107Y-57260918D01*
X101538858Y-57022513D01*
X101589200Y-56769424D01*
X101589200Y-56511376D01*
X101538858Y-56258287D01*
X101440107Y-56019882D01*
X101296744Y-55805323D01*
X101131821Y-55640400D01*
X101296744Y-55475477D01*
X101440107Y-55260918D01*
X101538858Y-55022513D01*
X101589200Y-54769424D01*
X101589200Y-54511376D01*
X101538858Y-54258287D01*
X101440107Y-54019882D01*
X101296744Y-53805323D01*
X101131821Y-53640400D01*
X101296744Y-53475477D01*
X101440107Y-53260918D01*
X101538858Y-53022513D01*
X101589200Y-52769424D01*
X101589200Y-52511376D01*
X101538858Y-52258287D01*
X101440107Y-52019882D01*
X101296744Y-51805323D01*
X101131821Y-51640400D01*
X101296744Y-51475477D01*
X101440107Y-51260918D01*
X101538858Y-51022513D01*
X101589200Y-50769424D01*
X101589200Y-50511376D01*
X101538858Y-50258287D01*
X101440107Y-50019882D01*
X101296744Y-49805323D01*
X101131821Y-49640400D01*
X101296744Y-49475477D01*
X101440107Y-49260918D01*
X101538858Y-49022513D01*
X101589200Y-48769424D01*
X101589200Y-48511376D01*
X101538858Y-48258287D01*
X101440107Y-48019882D01*
X101296744Y-47805323D01*
X101131821Y-47640400D01*
X101296744Y-47475477D01*
X101440107Y-47260918D01*
X101538858Y-47022513D01*
X101589200Y-46769424D01*
X101589200Y-46511376D01*
X101538858Y-46258287D01*
X101440107Y-46019882D01*
X101296744Y-45805323D01*
X101131821Y-45640400D01*
X101296744Y-45475477D01*
X101440107Y-45260918D01*
X101538858Y-45022513D01*
X101589200Y-44769424D01*
X101589200Y-44511376D01*
X101538858Y-44258287D01*
X101440107Y-44019882D01*
X101296744Y-43805323D01*
X101131821Y-43640400D01*
X101296744Y-43475477D01*
X101440107Y-43260918D01*
X101538858Y-43022513D01*
X101589200Y-42769424D01*
X101589200Y-42511376D01*
X101538858Y-42258287D01*
X101440107Y-42019882D01*
X101296744Y-41805323D01*
X101131821Y-41640400D01*
X101296744Y-41475477D01*
X101440107Y-41260918D01*
X101538858Y-41022513D01*
X101589200Y-40769424D01*
X101589200Y-40511376D01*
X101538858Y-40258287D01*
X101440107Y-40019882D01*
X101296744Y-39805323D01*
X101131821Y-39640400D01*
X101296744Y-39475477D01*
X101440107Y-39260918D01*
X101538858Y-39022513D01*
X101589200Y-38769424D01*
X101589200Y-38511376D01*
X101538858Y-38258287D01*
X101440107Y-38019882D01*
X101296744Y-37805323D01*
X101131821Y-37640400D01*
X101296744Y-37475477D01*
X101440107Y-37260918D01*
X101538858Y-37022513D01*
X101589200Y-36769424D01*
X101589200Y-36511376D01*
X101538858Y-36258287D01*
X101440107Y-36019882D01*
X101296744Y-35805323D01*
X101131821Y-35640400D01*
X101296744Y-35475477D01*
X101440107Y-35260918D01*
X101538858Y-35022513D01*
X101589200Y-34769424D01*
X101589200Y-34511376D01*
X101538858Y-34258287D01*
X101440107Y-34019882D01*
X101296744Y-33805323D01*
X101131821Y-33640400D01*
X101296744Y-33475477D01*
X101440107Y-33260918D01*
X101538858Y-33022513D01*
X101589200Y-32769424D01*
X101589200Y-32511376D01*
X101538858Y-32258287D01*
X101440107Y-32019882D01*
X101296744Y-31805323D01*
X101131821Y-31640400D01*
X101296744Y-31475477D01*
X101440107Y-31260918D01*
X101538858Y-31022513D01*
X101589200Y-30769424D01*
X101589200Y-30511376D01*
X101538858Y-30258287D01*
X101440107Y-30019882D01*
X101296744Y-29805323D01*
X101131821Y-29640400D01*
X101296744Y-29475477D01*
X101440107Y-29260918D01*
X101538858Y-29022513D01*
X101589200Y-28769424D01*
X101589200Y-28511376D01*
X101538858Y-28258287D01*
X101440107Y-28019882D01*
X101296744Y-27805323D01*
X101131821Y-27640400D01*
X101296744Y-27475477D01*
X101440107Y-27260918D01*
X101538858Y-27022513D01*
X101589200Y-26769424D01*
X101589200Y-26511376D01*
X101538858Y-26258287D01*
X101440107Y-26019882D01*
X101296744Y-25805323D01*
X101125140Y-25633719D01*
X101257503Y-25511627D01*
X101408673Y-25304029D01*
X101516438Y-25070928D01*
X101547110Y-24969800D01*
X101423424Y-24767400D01*
X100406200Y-24767400D01*
X100406200Y-24787400D01*
X100152200Y-24787400D01*
X100152200Y-24767400D01*
X99134976Y-24767400D01*
X99011290Y-24969800D01*
X99041962Y-25070928D01*
X99149727Y-25304029D01*
X99300897Y-25511627D01*
X99433260Y-25633719D01*
X99261656Y-25805323D01*
X99118293Y-26019882D01*
X99019542Y-26258287D01*
X98969200Y-26511376D01*
X19431000Y-26511376D01*
X19431000Y-24311000D01*
X99011290Y-24311000D01*
X99134976Y-24513400D01*
X100152200Y-24513400D01*
X100152200Y-23495315D01*
X100406200Y-23495315D01*
X100406200Y-24513400D01*
X101423424Y-24513400D01*
X101547110Y-24311000D01*
X101516438Y-24209872D01*
X101408673Y-23976771D01*
X101257503Y-23769173D01*
X101068737Y-23595056D01*
X100849630Y-23461111D01*
X100608601Y-23372485D01*
X100406200Y-23495315D01*
X100152200Y-23495315D01*
X99949799Y-23372485D01*
X99708770Y-23461111D01*
X99489663Y-23595056D01*
X99300897Y-23769173D01*
X99149727Y-23976771D01*
X99041962Y-24209872D01*
X99011290Y-24311000D01*
X19431000Y-24311000D01*
X19431000Y-17653000D01*
X110617000Y-17653000D01*
X110617000Y-96901000D01*
%TA.AperFunction,Conductor*%
D22*
G36*
X110617000Y-96901000D02*
G01*
X19431000Y-96901000D01*
X19431000Y-63775500D01*
X75000670Y-63775500D01*
X75022739Y-63999567D01*
X75088097Y-64215023D01*
X75194232Y-64413589D01*
X75337067Y-64587633D01*
X75511111Y-64730468D01*
X75709677Y-64836603D01*
X75925133Y-64901961D01*
X76093054Y-64918500D01*
X79121000Y-64918500D01*
X79121001Y-79801451D01*
X79115471Y-79857600D01*
X79137539Y-80081667D01*
X79173702Y-80200877D01*
X79202898Y-80297123D01*
X79309033Y-80495689D01*
X79451868Y-80669733D01*
X79495477Y-80705522D01*
X80198881Y-81408928D01*
X80234667Y-81452533D01*
X80278271Y-81488318D01*
X80278277Y-81488324D01*
X80388917Y-81579123D01*
X80408711Y-81595368D01*
X80607277Y-81701503D01*
X80757374Y-81747035D01*
X80822732Y-81766861D01*
X80845400Y-81769094D01*
X80990654Y-81783400D01*
X80990660Y-81783400D01*
X81046799Y-81788929D01*
X81102938Y-81783400D01*
X99283579Y-81783400D01*
X99261656Y-81805323D01*
X99118293Y-82019882D01*
X99019542Y-82258287D01*
X98969200Y-82511376D01*
X98969200Y-82769424D01*
X99019542Y-83022513D01*
X99118293Y-83260918D01*
X99261656Y-83475477D01*
X99426579Y-83640400D01*
X99261656Y-83805323D01*
X99118293Y-84019882D01*
X99019542Y-84258287D01*
X98969200Y-84511376D01*
X98969200Y-84769424D01*
X99019542Y-85022513D01*
X99118293Y-85260918D01*
X99261656Y-85475477D01*
X99426579Y-85640400D01*
X99261656Y-85805323D01*
X99118293Y-86019882D01*
X99019542Y-86258287D01*
X98969200Y-86511376D01*
X98969200Y-86769424D01*
X99019542Y-87022513D01*
X99118293Y-87260918D01*
X99261656Y-87475477D01*
X99426579Y-87640400D01*
X99261656Y-87805323D01*
X99118293Y-88019882D01*
X99019542Y-88258287D01*
X98969200Y-88511376D01*
X98969200Y-88769424D01*
X99019542Y-89022513D01*
X99118293Y-89260918D01*
X99261656Y-89475477D01*
X99426579Y-89640400D01*
X99261656Y-89805323D01*
X99118293Y-90019882D01*
X99019542Y-90258287D01*
X98969200Y-90511376D01*
X98969200Y-90769424D01*
X99019542Y-91022513D01*
X99118293Y-91260918D01*
X99261656Y-91475477D01*
X99426579Y-91640400D01*
X99261656Y-91805323D01*
X99118293Y-92019882D01*
X99019542Y-92258287D01*
X98969200Y-92511376D01*
X98969200Y-92769424D01*
X99019542Y-93022513D01*
X99118293Y-93260918D01*
X99239897Y-93442913D01*
X99153015Y-93514215D01*
X99073663Y-93610906D01*
X99014698Y-93721220D01*
X98978388Y-93840918D01*
X98966128Y-93965400D01*
X98966128Y-95315400D01*
X98978388Y-95439882D01*
X99014698Y-95559580D01*
X99073663Y-95669894D01*
X99153015Y-95766585D01*
X99249706Y-95845937D01*
X99360020Y-95904902D01*
X99479718Y-95941212D01*
X99604200Y-95953472D01*
X100954200Y-95953472D01*
X101078682Y-95941212D01*
X101198380Y-95904902D01*
X101308694Y-95845937D01*
X101405385Y-95766585D01*
X101484737Y-95669894D01*
X101543702Y-95559580D01*
X101580012Y-95439882D01*
X101592272Y-95315400D01*
X101592272Y-93965400D01*
X101580012Y-93840918D01*
X101543702Y-93721220D01*
X101484737Y-93610906D01*
X101405385Y-93514215D01*
X101318503Y-93442913D01*
X101440107Y-93260918D01*
X101538858Y-93022513D01*
X101589200Y-92769424D01*
X101589200Y-92511376D01*
X101538858Y-92258287D01*
X101440107Y-92019882D01*
X101296744Y-91805323D01*
X101131821Y-91640400D01*
X101296744Y-91475477D01*
X101440107Y-91260918D01*
X101538858Y-91022513D01*
X101589200Y-90769424D01*
X101589200Y-90511376D01*
X101538858Y-90258287D01*
X101440107Y-90019882D01*
X101296744Y-89805323D01*
X101131821Y-89640400D01*
X101296744Y-89475477D01*
X101440107Y-89260918D01*
X101538858Y-89022513D01*
X101589200Y-88769424D01*
X101589200Y-88511376D01*
X101538858Y-88258287D01*
X101440107Y-88019882D01*
X101296744Y-87805323D01*
X101131821Y-87640400D01*
X101296744Y-87475477D01*
X101440107Y-87260918D01*
X101538858Y-87022513D01*
X101589200Y-86769424D01*
X101589200Y-86511376D01*
X101538858Y-86258287D01*
X101440107Y-86019882D01*
X101296744Y-85805323D01*
X101131821Y-85640400D01*
X101296744Y-85475477D01*
X101440107Y-85260918D01*
X101538858Y-85022513D01*
X101589200Y-84769424D01*
X101589200Y-84511376D01*
X101538858Y-84258287D01*
X101440107Y-84019882D01*
X101296744Y-83805323D01*
X101131821Y-83640400D01*
X101296744Y-83475477D01*
X101440107Y-83260918D01*
X101538858Y-83022513D01*
X101589200Y-82769424D01*
X101589200Y-82511376D01*
X101538858Y-82258287D01*
X101440107Y-82019882D01*
X101296744Y-81805323D01*
X101131821Y-81640400D01*
X101296744Y-81475477D01*
X101440107Y-81260918D01*
X101538858Y-81022513D01*
X101589200Y-80769424D01*
X101589200Y-80511376D01*
X101538858Y-80258287D01*
X101440107Y-80019882D01*
X101296744Y-79805323D01*
X101131821Y-79640400D01*
X101296744Y-79475477D01*
X101440107Y-79260918D01*
X101538858Y-79022513D01*
X101589200Y-78769424D01*
X101589200Y-78511376D01*
X101538858Y-78258287D01*
X101440107Y-78019882D01*
X101296744Y-77805323D01*
X101131821Y-77640400D01*
X101296744Y-77475477D01*
X101440107Y-77260918D01*
X101538858Y-77022513D01*
X101589200Y-76769424D01*
X101589200Y-76511376D01*
X101538858Y-76258287D01*
X101440107Y-76019882D01*
X101296744Y-75805323D01*
X101125140Y-75633719D01*
X101257503Y-75511627D01*
X101408673Y-75304029D01*
X101516438Y-75070928D01*
X101547110Y-74969800D01*
X101423424Y-74767400D01*
X100406200Y-74767400D01*
X100406200Y-74787400D01*
X100152200Y-74787400D01*
X100152200Y-74767400D01*
X99134976Y-74767400D01*
X99011290Y-74969800D01*
X99041962Y-75070928D01*
X99149727Y-75304029D01*
X99300897Y-75511627D01*
X99433260Y-75633719D01*
X99261656Y-75805323D01*
X99118293Y-76019882D01*
X99019542Y-76258287D01*
X98969200Y-76511376D01*
X98969200Y-76769424D01*
X99019542Y-77022513D01*
X99118293Y-77260918D01*
X99261656Y-77475477D01*
X99426579Y-77640400D01*
X99261656Y-77805323D01*
X99118293Y-78019882D01*
X99019542Y-78258287D01*
X98969200Y-78511376D01*
X98969200Y-78769424D01*
X99019542Y-79022513D01*
X99118293Y-79260918D01*
X99261656Y-79475477D01*
X99283579Y-79497400D01*
X81520246Y-79497400D01*
X81407000Y-79384154D01*
X81407000Y-64368939D01*
X81412529Y-64312800D01*
X81407000Y-64256661D01*
X81407000Y-64256654D01*
X81390461Y-64088733D01*
X81325103Y-63873277D01*
X81218968Y-63674711D01*
X81076133Y-63500667D01*
X81032519Y-63464874D01*
X80574628Y-63006983D01*
X80538833Y-62963367D01*
X80364789Y-62820532D01*
X80166223Y-62714397D01*
X79950767Y-62649039D01*
X79782846Y-62632500D01*
X79782839Y-62632500D01*
X79726700Y-62626971D01*
X79670561Y-62632500D01*
X76093054Y-62632500D01*
X75925133Y-62649039D01*
X75709677Y-62714397D01*
X75511111Y-62820532D01*
X75337067Y-62963367D01*
X75194232Y-63137411D01*
X75088097Y-63335977D01*
X75022739Y-63551433D01*
X75000670Y-63775500D01*
X19431000Y-63775500D01*
X19431000Y-57570261D01*
X69373800Y-57570261D01*
X69373800Y-57774139D01*
X69413574Y-57974098D01*
X69491595Y-58162456D01*
X69604863Y-58331974D01*
X69749026Y-58476137D01*
X69918544Y-58589405D01*
X70106902Y-58667426D01*
X70306861Y-58707200D01*
X70510739Y-58707200D01*
X70710698Y-58667426D01*
X70899056Y-58589405D01*
X71068574Y-58476137D01*
X71212737Y-58331974D01*
X71326005Y-58162456D01*
X71404026Y-57974098D01*
X71443800Y-57774139D01*
X71443800Y-57570261D01*
X71404026Y-57370302D01*
X71326005Y-57181944D01*
X71212737Y-57012426D01*
X71068574Y-56868263D01*
X70899056Y-56754995D01*
X70710698Y-56676974D01*
X70510739Y-56637200D01*
X70306861Y-56637200D01*
X70106902Y-56676974D01*
X69918544Y-56754995D01*
X69749026Y-56868263D01*
X69604863Y-57012426D01*
X69491595Y-57181944D01*
X69413574Y-57370302D01*
X69373800Y-57570261D01*
X19431000Y-57570261D01*
X19431000Y-52032000D01*
X32851928Y-52032000D01*
X32851928Y-53632000D01*
X32864188Y-53756482D01*
X32900498Y-53876180D01*
X32959463Y-53986494D01*
X33038815Y-54083185D01*
X33135506Y-54162537D01*
X33245820Y-54221502D01*
X33365518Y-54257812D01*
X33490000Y-54270072D01*
X35090000Y-54270072D01*
X35214482Y-54257812D01*
X35334180Y-54221502D01*
X35444494Y-54162537D01*
X35541185Y-54083185D01*
X35620537Y-53986494D01*
X35679502Y-53876180D01*
X35715812Y-53756482D01*
X35716643Y-53748039D01*
X35915241Y-53946637D01*
X36150273Y-54103680D01*
X36411426Y-54211853D01*
X36688665Y-54267000D01*
X36971335Y-54267000D01*
X37248574Y-54211853D01*
X37509727Y-54103680D01*
X37744759Y-53946637D01*
X37944637Y-53746759D01*
X38100000Y-53514241D01*
X38255363Y-53746759D01*
X38455241Y-53946637D01*
X38690273Y-54103680D01*
X38951426Y-54211853D01*
X39228665Y-54267000D01*
X39511335Y-54267000D01*
X39788574Y-54211853D01*
X40049727Y-54103680D01*
X40284759Y-53946637D01*
X40484637Y-53746759D01*
X40640000Y-53514241D01*
X40795363Y-53746759D01*
X40995241Y-53946637D01*
X41230273Y-54103680D01*
X41491426Y-54211853D01*
X41768665Y-54267000D01*
X42051335Y-54267000D01*
X42328574Y-54211853D01*
X42589727Y-54103680D01*
X42824759Y-53946637D01*
X43024637Y-53746759D01*
X43180000Y-53514241D01*
X43335363Y-53746759D01*
X43535241Y-53946637D01*
X43770273Y-54103680D01*
X44031426Y-54211853D01*
X44308665Y-54267000D01*
X44591335Y-54267000D01*
X44868574Y-54211853D01*
X45129727Y-54103680D01*
X45364759Y-53946637D01*
X45564637Y-53746759D01*
X45720000Y-53514241D01*
X45875363Y-53746759D01*
X46075241Y-53946637D01*
X46310273Y-54103680D01*
X46571426Y-54211853D01*
X46848665Y-54267000D01*
X47131335Y-54267000D01*
X47408574Y-54211853D01*
X47669727Y-54103680D01*
X47904759Y-53946637D01*
X48104637Y-53746759D01*
X48260000Y-53514241D01*
X48415363Y-53746759D01*
X48615241Y-53946637D01*
X48850273Y-54103680D01*
X49111426Y-54211853D01*
X49388665Y-54267000D01*
X49671335Y-54267000D01*
X49948574Y-54211853D01*
X50209727Y-54103680D01*
X50444759Y-53946637D01*
X50644637Y-53746759D01*
X50800000Y-53514241D01*
X50955363Y-53746759D01*
X51155241Y-53946637D01*
X51390273Y-54103680D01*
X51651426Y-54211853D01*
X51928665Y-54267000D01*
X52211335Y-54267000D01*
X52488574Y-54211853D01*
X52749727Y-54103680D01*
X52984759Y-53946637D01*
X53184637Y-53746759D01*
X53340000Y-53514241D01*
X53495363Y-53746759D01*
X53695241Y-53946637D01*
X53930273Y-54103680D01*
X54191426Y-54211853D01*
X54468665Y-54267000D01*
X54751335Y-54267000D01*
X55028574Y-54211853D01*
X55289727Y-54103680D01*
X55524759Y-53946637D01*
X55724637Y-53746759D01*
X55880000Y-53514241D01*
X56035363Y-53746759D01*
X56235241Y-53946637D01*
X56470273Y-54103680D01*
X56731426Y-54211853D01*
X57008665Y-54267000D01*
X57291335Y-54267000D01*
X57568574Y-54211853D01*
X57829727Y-54103680D01*
X58064759Y-53946637D01*
X58264637Y-53746759D01*
X58420000Y-53514241D01*
X58575363Y-53746759D01*
X58775241Y-53946637D01*
X59010273Y-54103680D01*
X59271426Y-54211853D01*
X59548665Y-54267000D01*
X59831335Y-54267000D01*
X60108574Y-54211853D01*
X60369727Y-54103680D01*
X60604759Y-53946637D01*
X60804637Y-53746759D01*
X60960000Y-53514241D01*
X61115363Y-53746759D01*
X61315241Y-53946637D01*
X61550273Y-54103680D01*
X61811426Y-54211853D01*
X62088665Y-54267000D01*
X62371335Y-54267000D01*
X62648574Y-54211853D01*
X62909727Y-54103680D01*
X63144759Y-53946637D01*
X63344637Y-53746759D01*
X63500000Y-53514241D01*
X63655363Y-53746759D01*
X63855241Y-53946637D01*
X64090273Y-54103680D01*
X64351426Y-54211853D01*
X64628665Y-54267000D01*
X64911335Y-54267000D01*
X65188574Y-54211853D01*
X65449727Y-54103680D01*
X65684759Y-53946637D01*
X65884637Y-53746759D01*
X66040000Y-53514241D01*
X66195363Y-53746759D01*
X66395241Y-53946637D01*
X66630273Y-54103680D01*
X66891426Y-54211853D01*
X67168665Y-54267000D01*
X67451335Y-54267000D01*
X67728574Y-54211853D01*
X67989727Y-54103680D01*
X68224759Y-53946637D01*
X68424637Y-53746759D01*
X68580000Y-53514241D01*
X68735363Y-53746759D01*
X68935241Y-53946637D01*
X69170273Y-54103680D01*
X69431426Y-54211853D01*
X69708665Y-54267000D01*
X69991335Y-54267000D01*
X70268574Y-54211853D01*
X70529727Y-54103680D01*
X70764759Y-53946637D01*
X70964637Y-53746759D01*
X71120000Y-53514241D01*
X71275363Y-53746759D01*
X71475241Y-53946637D01*
X71710273Y-54103680D01*
X71971426Y-54211853D01*
X72248665Y-54267000D01*
X72531335Y-54267000D01*
X72808574Y-54211853D01*
X73069727Y-54103680D01*
X73304759Y-53946637D01*
X73504637Y-53746759D01*
X73660000Y-53514241D01*
X73815363Y-53746759D01*
X74015241Y-53946637D01*
X74250273Y-54103680D01*
X74511426Y-54211853D01*
X74788665Y-54267000D01*
X75071335Y-54267000D01*
X75348574Y-54211853D01*
X75609727Y-54103680D01*
X75844759Y-53946637D01*
X76044637Y-53746759D01*
X76200000Y-53514241D01*
X76355363Y-53746759D01*
X76555241Y-53946637D01*
X76790273Y-54103680D01*
X77051426Y-54211853D01*
X77328665Y-54267000D01*
X77611335Y-54267000D01*
X77888574Y-54211853D01*
X78149727Y-54103680D01*
X78384759Y-53946637D01*
X78584637Y-53746759D01*
X78740000Y-53514241D01*
X78895363Y-53746759D01*
X79095241Y-53946637D01*
X79330273Y-54103680D01*
X79591426Y-54211853D01*
X79868665Y-54267000D01*
X80151335Y-54267000D01*
X80428574Y-54211853D01*
X80689727Y-54103680D01*
X80924759Y-53946637D01*
X81124637Y-53746759D01*
X81280000Y-53514241D01*
X81435363Y-53746759D01*
X81635241Y-53946637D01*
X81870273Y-54103680D01*
X82131426Y-54211853D01*
X82408665Y-54267000D01*
X82691335Y-54267000D01*
X82968574Y-54211853D01*
X83229727Y-54103680D01*
X83464759Y-53946637D01*
X83664637Y-53746759D01*
X83820000Y-53514241D01*
X83975363Y-53746759D01*
X84175241Y-53946637D01*
X84410273Y-54103680D01*
X84671426Y-54211853D01*
X84948665Y-54267000D01*
X85231335Y-54267000D01*
X85508574Y-54211853D01*
X85769727Y-54103680D01*
X86004759Y-53946637D01*
X86204637Y-53746759D01*
X86360000Y-53514241D01*
X86515363Y-53746759D01*
X86715241Y-53946637D01*
X86950273Y-54103680D01*
X87211426Y-54211853D01*
X87488665Y-54267000D01*
X87771335Y-54267000D01*
X88048574Y-54211853D01*
X88309727Y-54103680D01*
X88544759Y-53946637D01*
X88744637Y-53746759D01*
X88900000Y-53514241D01*
X89055363Y-53746759D01*
X89255241Y-53946637D01*
X89490273Y-54103680D01*
X89751426Y-54211853D01*
X90028665Y-54267000D01*
X90311335Y-54267000D01*
X90588574Y-54211853D01*
X90849727Y-54103680D01*
X91084759Y-53946637D01*
X91284637Y-53746759D01*
X91440000Y-53514241D01*
X91595363Y-53746759D01*
X91795241Y-53946637D01*
X92030273Y-54103680D01*
X92291426Y-54211853D01*
X92568665Y-54267000D01*
X92851335Y-54267000D01*
X93128574Y-54211853D01*
X93389727Y-54103680D01*
X93624759Y-53946637D01*
X93824637Y-53746759D01*
X93981680Y-53511727D01*
X94089853Y-53250574D01*
X94145000Y-52973335D01*
X94145000Y-52690665D01*
X94089853Y-52413426D01*
X93981680Y-52152273D01*
X93824637Y-51917241D01*
X93624759Y-51717363D01*
X93389727Y-51560320D01*
X93128574Y-51452147D01*
X92851335Y-51397000D01*
X92568665Y-51397000D01*
X92291426Y-51452147D01*
X92030273Y-51560320D01*
X91795241Y-51717363D01*
X91595363Y-51917241D01*
X91440000Y-52149759D01*
X91284637Y-51917241D01*
X91084759Y-51717363D01*
X90849727Y-51560320D01*
X90588574Y-51452147D01*
X90311335Y-51397000D01*
X90028665Y-51397000D01*
X89751426Y-51452147D01*
X89490273Y-51560320D01*
X89255241Y-51717363D01*
X89055363Y-51917241D01*
X88900000Y-52149759D01*
X88744637Y-51917241D01*
X88544759Y-51717363D01*
X88309727Y-51560320D01*
X88048574Y-51452147D01*
X87771335Y-51397000D01*
X87488665Y-51397000D01*
X87211426Y-51452147D01*
X86950273Y-51560320D01*
X86715241Y-51717363D01*
X86515363Y-51917241D01*
X86360000Y-52149759D01*
X86204637Y-51917241D01*
X86004759Y-51717363D01*
X85769727Y-51560320D01*
X85508574Y-51452147D01*
X85231335Y-51397000D01*
X84948665Y-51397000D01*
X84671426Y-51452147D01*
X84410273Y-51560320D01*
X84175241Y-51717363D01*
X83975363Y-51917241D01*
X83820000Y-52149759D01*
X83664637Y-51917241D01*
X83464759Y-51717363D01*
X83229727Y-51560320D01*
X82968574Y-51452147D01*
X82691335Y-51397000D01*
X82408665Y-51397000D01*
X82131426Y-51452147D01*
X81870273Y-51560320D01*
X81635241Y-51717363D01*
X81435363Y-51917241D01*
X81280000Y-52149759D01*
X81124637Y-51917241D01*
X80924759Y-51717363D01*
X80689727Y-51560320D01*
X80428574Y-51452147D01*
X80151335Y-51397000D01*
X79868665Y-51397000D01*
X79591426Y-51452147D01*
X79330273Y-51560320D01*
X79095241Y-51717363D01*
X78895363Y-51917241D01*
X78740000Y-52149759D01*
X78584637Y-51917241D01*
X78384759Y-51717363D01*
X78149727Y-51560320D01*
X77888574Y-51452147D01*
X77611335Y-51397000D01*
X77328665Y-51397000D01*
X77051426Y-51452147D01*
X76790273Y-51560320D01*
X76555241Y-51717363D01*
X76355363Y-51917241D01*
X76200000Y-52149759D01*
X76044637Y-51917241D01*
X75844759Y-51717363D01*
X75609727Y-51560320D01*
X75348574Y-51452147D01*
X75071335Y-51397000D01*
X74788665Y-51397000D01*
X74511426Y-51452147D01*
X74250273Y-51560320D01*
X74015241Y-51717363D01*
X73815363Y-51917241D01*
X73660000Y-52149759D01*
X73504637Y-51917241D01*
X73304759Y-51717363D01*
X73069727Y-51560320D01*
X72808574Y-51452147D01*
X72531335Y-51397000D01*
X72248665Y-51397000D01*
X71971426Y-51452147D01*
X71710273Y-51560320D01*
X71475241Y-51717363D01*
X71275363Y-51917241D01*
X71120000Y-52149759D01*
X70964637Y-51917241D01*
X70764759Y-51717363D01*
X70529727Y-51560320D01*
X70268574Y-51452147D01*
X69991335Y-51397000D01*
X69708665Y-51397000D01*
X69431426Y-51452147D01*
X69170273Y-51560320D01*
X68935241Y-51717363D01*
X68735363Y-51917241D01*
X68580000Y-52149759D01*
X68424637Y-51917241D01*
X68224759Y-51717363D01*
X67989727Y-51560320D01*
X67728574Y-51452147D01*
X67451335Y-51397000D01*
X67168665Y-51397000D01*
X66891426Y-51452147D01*
X66630273Y-51560320D01*
X66395241Y-51717363D01*
X66195363Y-51917241D01*
X66040000Y-52149759D01*
X65884637Y-51917241D01*
X65684759Y-51717363D01*
X65449727Y-51560320D01*
X65188574Y-51452147D01*
X64911335Y-51397000D01*
X64628665Y-51397000D01*
X64351426Y-51452147D01*
X64090273Y-51560320D01*
X63855241Y-51717363D01*
X63655363Y-51917241D01*
X63500000Y-52149759D01*
X63344637Y-51917241D01*
X63144759Y-51717363D01*
X62909727Y-51560320D01*
X62648574Y-51452147D01*
X62371335Y-51397000D01*
X62088665Y-51397000D01*
X61811426Y-51452147D01*
X61550273Y-51560320D01*
X61315241Y-51717363D01*
X61115363Y-51917241D01*
X60960000Y-52149759D01*
X60804637Y-51917241D01*
X60604759Y-51717363D01*
X60369727Y-51560320D01*
X60108574Y-51452147D01*
X59831335Y-51397000D01*
X59548665Y-51397000D01*
X59271426Y-51452147D01*
X59010273Y-51560320D01*
X58775241Y-51717363D01*
X58575363Y-51917241D01*
X58420000Y-52149759D01*
X58264637Y-51917241D01*
X58064759Y-51717363D01*
X57829727Y-51560320D01*
X57568574Y-51452147D01*
X57291335Y-51397000D01*
X57008665Y-51397000D01*
X56731426Y-51452147D01*
X56470273Y-51560320D01*
X56235241Y-51717363D01*
X56035363Y-51917241D01*
X55880000Y-52149759D01*
X55724637Y-51917241D01*
X55524759Y-51717363D01*
X55289727Y-51560320D01*
X55028574Y-51452147D01*
X54751335Y-51397000D01*
X54468665Y-51397000D01*
X54191426Y-51452147D01*
X53930273Y-51560320D01*
X53695241Y-51717363D01*
X53495363Y-51917241D01*
X53340000Y-52149759D01*
X53184637Y-51917241D01*
X52984759Y-51717363D01*
X52749727Y-51560320D01*
X52488574Y-51452147D01*
X52211335Y-51397000D01*
X51928665Y-51397000D01*
X51651426Y-51452147D01*
X51390273Y-51560320D01*
X51155241Y-51717363D01*
X50955363Y-51917241D01*
X50800000Y-52149759D01*
X50644637Y-51917241D01*
X50444759Y-51717363D01*
X50209727Y-51560320D01*
X49948574Y-51452147D01*
X49671335Y-51397000D01*
X49388665Y-51397000D01*
X49111426Y-51452147D01*
X48850273Y-51560320D01*
X48615241Y-51717363D01*
X48415363Y-51917241D01*
X48260000Y-52149759D01*
X48104637Y-51917241D01*
X47904759Y-51717363D01*
X47669727Y-51560320D01*
X47408574Y-51452147D01*
X47131335Y-51397000D01*
X46848665Y-51397000D01*
X46571426Y-51452147D01*
X46310273Y-51560320D01*
X46075241Y-51717363D01*
X45875363Y-51917241D01*
X45720000Y-52149759D01*
X45564637Y-51917241D01*
X45364759Y-51717363D01*
X45129727Y-51560320D01*
X44868574Y-51452147D01*
X44591335Y-51397000D01*
X44308665Y-51397000D01*
X44031426Y-51452147D01*
X43770273Y-51560320D01*
X43535241Y-51717363D01*
X43335363Y-51917241D01*
X43180000Y-52149759D01*
X43024637Y-51917241D01*
X42824759Y-51717363D01*
X42589727Y-51560320D01*
X42328574Y-51452147D01*
X42051335Y-51397000D01*
X41768665Y-51397000D01*
X41491426Y-51452147D01*
X41230273Y-51560320D01*
X40995241Y-51717363D01*
X40795363Y-51917241D01*
X40640000Y-52149759D01*
X40484637Y-51917241D01*
X40284759Y-51717363D01*
X40049727Y-51560320D01*
X39788574Y-51452147D01*
X39511335Y-51397000D01*
X39228665Y-51397000D01*
X38951426Y-51452147D01*
X38690273Y-51560320D01*
X38455241Y-51717363D01*
X38255363Y-51917241D01*
X38100000Y-52149759D01*
X37944637Y-51917241D01*
X37744759Y-51717363D01*
X37509727Y-51560320D01*
X37248574Y-51452147D01*
X36971335Y-51397000D01*
X36688665Y-51397000D01*
X36411426Y-51452147D01*
X36150273Y-51560320D01*
X35915241Y-51717363D01*
X35716643Y-51915961D01*
X35715812Y-51907518D01*
X35679502Y-51787820D01*
X35620537Y-51677506D01*
X35541185Y-51580815D01*
X35444494Y-51501463D01*
X35334180Y-51442498D01*
X35214482Y-51406188D01*
X35090000Y-51393928D01*
X33490000Y-51393928D01*
X33365518Y-51406188D01*
X33245820Y-51442498D01*
X33135506Y-51501463D01*
X33038815Y-51580815D01*
X32959463Y-51677506D01*
X32900498Y-51787820D01*
X32864188Y-51907518D01*
X32851928Y-52032000D01*
X19431000Y-52032000D01*
X19431000Y-45495200D01*
X26221215Y-45495200D01*
X26249887Y-45786311D01*
X26334801Y-46066234D01*
X26472694Y-46324214D01*
X26658266Y-46550334D01*
X26884386Y-46735906D01*
X26901774Y-46745200D01*
X26884386Y-46754494D01*
X26658266Y-46940066D01*
X26472694Y-47166186D01*
X26334801Y-47424166D01*
X26249887Y-47704089D01*
X26221215Y-47995200D01*
X26249887Y-48286311D01*
X26334801Y-48566234D01*
X26472694Y-48824214D01*
X26658266Y-49050334D01*
X26721737Y-49102423D01*
X26620014Y-49156795D01*
X26485438Y-49267238D01*
X26374995Y-49401814D01*
X26292928Y-49555350D01*
X26242392Y-49721946D01*
X26225328Y-49895200D01*
X26225328Y-51095200D01*
X26242392Y-51268454D01*
X26292928Y-51435050D01*
X26374995Y-51588586D01*
X26485438Y-51723162D01*
X26620014Y-51833605D01*
X26773550Y-51915672D01*
X26940146Y-51966208D01*
X27113400Y-51983272D01*
X28563400Y-51983272D01*
X28736654Y-51966208D01*
X28903250Y-51915672D01*
X29056786Y-51833605D01*
X29191362Y-51723162D01*
X29301805Y-51588586D01*
X29383872Y-51435050D01*
X29434408Y-51268454D01*
X29451472Y-51095200D01*
X29451472Y-49895200D01*
X29434408Y-49721946D01*
X29383872Y-49555350D01*
X29301805Y-49401814D01*
X29191362Y-49267238D01*
X29056786Y-49156795D01*
X28955063Y-49102423D01*
X29018534Y-49050334D01*
X29204106Y-48824214D01*
X29341999Y-48566234D01*
X29426913Y-48286311D01*
X29455585Y-47995200D01*
X29426913Y-47704089D01*
X29341999Y-47424166D01*
X29204106Y-47166186D01*
X29018534Y-46940066D01*
X28792414Y-46754494D01*
X28775026Y-46745200D01*
X28792414Y-46735906D01*
X29018534Y-46550334D01*
X29204106Y-46324214D01*
X29341999Y-46066234D01*
X29426913Y-45786311D01*
X29455585Y-45495200D01*
X29426913Y-45204089D01*
X29341999Y-44924166D01*
X29204106Y-44666186D01*
X29018534Y-44440066D01*
X28792414Y-44254494D01*
X28766678Y-44240738D01*
X28972829Y-44084249D01*
X29165896Y-43866393D01*
X29195668Y-43815439D01*
X33735000Y-43815439D01*
X33735000Y-44068561D01*
X33784381Y-44316821D01*
X33881247Y-44550676D01*
X34021875Y-44761140D01*
X34200860Y-44940125D01*
X34411324Y-45080753D01*
X34645179Y-45177619D01*
X34818027Y-45212000D01*
X34645179Y-45246381D01*
X34411324Y-45343247D01*
X34200860Y-45483875D01*
X34021875Y-45662860D01*
X33881247Y-45873324D01*
X33784381Y-46107179D01*
X33735000Y-46355439D01*
X33735000Y-46608561D01*
X33784381Y-46856821D01*
X33881247Y-47090676D01*
X34021875Y-47301140D01*
X34200860Y-47480125D01*
X34411324Y-47620753D01*
X34645179Y-47717619D01*
X34893439Y-47767000D01*
X35146561Y-47767000D01*
X35394821Y-47717619D01*
X35628676Y-47620753D01*
X35839140Y-47480125D01*
X36018125Y-47301140D01*
X36158753Y-47090676D01*
X36255619Y-46856821D01*
X36305000Y-46608561D01*
X36305000Y-46355439D01*
X36255619Y-46107179D01*
X36158753Y-45873324D01*
X36018125Y-45662860D01*
X35839140Y-45483875D01*
X35628676Y-45343247D01*
X35394821Y-45246381D01*
X35221973Y-45212000D01*
X35394821Y-45177619D01*
X35628676Y-45080753D01*
X35839140Y-44940125D01*
X36018125Y-44761140D01*
X36158753Y-44550676D01*
X36255619Y-44316821D01*
X36305000Y-44068561D01*
X36305000Y-43815439D01*
X36255619Y-43567179D01*
X36158753Y-43333324D01*
X36018125Y-43122860D01*
X35839140Y-42943875D01*
X35628676Y-42803247D01*
X35394821Y-42706381D01*
X35146561Y-42657000D01*
X34893439Y-42657000D01*
X34645179Y-42706381D01*
X34411324Y-42803247D01*
X34200860Y-42943875D01*
X34021875Y-43122860D01*
X33881247Y-43333324D01*
X33784381Y-43567179D01*
X33735000Y-43815439D01*
X29195668Y-43815439D01*
X29312752Y-43615058D01*
X29404876Y-43352090D01*
X29283555Y-43122200D01*
X27965400Y-43122200D01*
X27965400Y-43142200D01*
X27711400Y-43142200D01*
X27711400Y-43122200D01*
X26393245Y-43122200D01*
X26271924Y-43352090D01*
X26364048Y-43615058D01*
X26510904Y-43866393D01*
X26703971Y-44084249D01*
X26910122Y-44240738D01*
X26884386Y-44254494D01*
X26658266Y-44440066D01*
X26472694Y-44666186D01*
X26334801Y-44924166D01*
X26249887Y-45204089D01*
X26221215Y-45495200D01*
X19431000Y-45495200D01*
X19431000Y-42638310D01*
X26271924Y-42638310D01*
X26393245Y-42868200D01*
X27711400Y-42868200D01*
X27711400Y-41669035D01*
X27965400Y-41669035D01*
X27965400Y-42868200D01*
X29283555Y-42868200D01*
X29404876Y-42638310D01*
X29312752Y-42375342D01*
X29165896Y-42124007D01*
X28972829Y-41906151D01*
X28740970Y-41730147D01*
X28479230Y-41602758D01*
X28197667Y-41528880D01*
X27965400Y-41669035D01*
X27711400Y-41669035D01*
X27479133Y-41528880D01*
X27197570Y-41602758D01*
X26935830Y-41730147D01*
X26703971Y-41906151D01*
X26510904Y-42124007D01*
X26364048Y-42375342D01*
X26271924Y-42638310D01*
X19431000Y-42638310D01*
X19431000Y-39990665D01*
X35395000Y-39990665D01*
X35395000Y-40273335D01*
X35450147Y-40550574D01*
X35558320Y-40811727D01*
X35715363Y-41046759D01*
X35915241Y-41246637D01*
X36150273Y-41403680D01*
X36411426Y-41511853D01*
X36688665Y-41567000D01*
X36971335Y-41567000D01*
X37248574Y-41511853D01*
X37509727Y-41403680D01*
X37744759Y-41246637D01*
X37944637Y-41046759D01*
X38101680Y-40811727D01*
X38209853Y-40550574D01*
X38265000Y-40273335D01*
X38265000Y-39990665D01*
X38209853Y-39713426D01*
X38101680Y-39452273D01*
X37944637Y-39217241D01*
X37744759Y-39017363D01*
X37510872Y-38861085D01*
X37571514Y-38828671D01*
X37643097Y-38584702D01*
X36830000Y-37771605D01*
X36016903Y-38584702D01*
X36088486Y-38828671D01*
X36152992Y-38859194D01*
X36150273Y-38860320D01*
X35915241Y-39017363D01*
X35715363Y-39217241D01*
X35558320Y-39452273D01*
X35450147Y-39713426D01*
X35395000Y-39990665D01*
X19431000Y-39990665D01*
X19431000Y-37450665D01*
X32855000Y-37450665D01*
X32855000Y-37733335D01*
X32910147Y-38010574D01*
X33018320Y-38271727D01*
X33175363Y-38506759D01*
X33375241Y-38706637D01*
X33610273Y-38863680D01*
X33871426Y-38971853D01*
X34148665Y-39027000D01*
X34431335Y-39027000D01*
X34708574Y-38971853D01*
X34969727Y-38863680D01*
X35204759Y-38706637D01*
X35404637Y-38506759D01*
X35560915Y-38272872D01*
X35593329Y-38333514D01*
X35837298Y-38405097D01*
X36650395Y-37592000D01*
X37009605Y-37592000D01*
X37822702Y-38405097D01*
X38066671Y-38333514D01*
X38097194Y-38269008D01*
X38098320Y-38271727D01*
X38255363Y-38506759D01*
X38455241Y-38706637D01*
X38690273Y-38863680D01*
X38951426Y-38971853D01*
X39228665Y-39027000D01*
X39511335Y-39027000D01*
X39788574Y-38971853D01*
X40049727Y-38863680D01*
X40284759Y-38706637D01*
X40484637Y-38506759D01*
X40640000Y-38274241D01*
X40795363Y-38506759D01*
X40995241Y-38706637D01*
X41230273Y-38863680D01*
X41491426Y-38971853D01*
X41768665Y-39027000D01*
X42051335Y-39027000D01*
X42328574Y-38971853D01*
X42589727Y-38863680D01*
X42824759Y-38706637D01*
X43024637Y-38506759D01*
X43180000Y-38274241D01*
X43335363Y-38506759D01*
X43535241Y-38706637D01*
X43770273Y-38863680D01*
X44031426Y-38971853D01*
X44308665Y-39027000D01*
X44591335Y-39027000D01*
X44868574Y-38971853D01*
X45129727Y-38863680D01*
X45364759Y-38706637D01*
X45564637Y-38506759D01*
X45720000Y-38274241D01*
X45875363Y-38506759D01*
X46075241Y-38706637D01*
X46310273Y-38863680D01*
X46571426Y-38971853D01*
X46848665Y-39027000D01*
X47131335Y-39027000D01*
X47408574Y-38971853D01*
X47669727Y-38863680D01*
X47904759Y-38706637D01*
X48104637Y-38506759D01*
X48260000Y-38274241D01*
X48415363Y-38506759D01*
X48615241Y-38706637D01*
X48850273Y-38863680D01*
X49111426Y-38971853D01*
X49388665Y-39027000D01*
X49671335Y-39027000D01*
X49948574Y-38971853D01*
X50209727Y-38863680D01*
X50444759Y-38706637D01*
X50644637Y-38506759D01*
X50800000Y-38274241D01*
X50955363Y-38506759D01*
X51155241Y-38706637D01*
X51390273Y-38863680D01*
X51651426Y-38971853D01*
X51928665Y-39027000D01*
X52211335Y-39027000D01*
X52488574Y-38971853D01*
X52749727Y-38863680D01*
X52984759Y-38706637D01*
X53184637Y-38506759D01*
X53340000Y-38274241D01*
X53495363Y-38506759D01*
X53695241Y-38706637D01*
X53930273Y-38863680D01*
X54191426Y-38971853D01*
X54468665Y-39027000D01*
X54751335Y-39027000D01*
X55028574Y-38971853D01*
X55289727Y-38863680D01*
X55524759Y-38706637D01*
X55724637Y-38506759D01*
X55880000Y-38274241D01*
X56035363Y-38506759D01*
X56235241Y-38706637D01*
X56470273Y-38863680D01*
X56731426Y-38971853D01*
X57008665Y-39027000D01*
X57291335Y-39027000D01*
X57568574Y-38971853D01*
X57829727Y-38863680D01*
X58064759Y-38706637D01*
X58264637Y-38506759D01*
X58420000Y-38274241D01*
X58575363Y-38506759D01*
X58775241Y-38706637D01*
X59010273Y-38863680D01*
X59271426Y-38971853D01*
X59548665Y-39027000D01*
X59831335Y-39027000D01*
X60108574Y-38971853D01*
X60369727Y-38863680D01*
X60604759Y-38706637D01*
X60804637Y-38506759D01*
X60960000Y-38274241D01*
X61115363Y-38506759D01*
X61315241Y-38706637D01*
X61550273Y-38863680D01*
X61811426Y-38971853D01*
X62088665Y-39027000D01*
X62371335Y-39027000D01*
X62648574Y-38971853D01*
X62909727Y-38863680D01*
X63144759Y-38706637D01*
X63344637Y-38506759D01*
X63500000Y-38274241D01*
X63655363Y-38506759D01*
X63855241Y-38706637D01*
X64090273Y-38863680D01*
X64351426Y-38971853D01*
X64628665Y-39027000D01*
X64911335Y-39027000D01*
X65188574Y-38971853D01*
X65449727Y-38863680D01*
X65684759Y-38706637D01*
X65884637Y-38506759D01*
X66040000Y-38274241D01*
X66195363Y-38506759D01*
X66395241Y-38706637D01*
X66630273Y-38863680D01*
X66891426Y-38971853D01*
X67168665Y-39027000D01*
X67451335Y-39027000D01*
X67728574Y-38971853D01*
X67989727Y-38863680D01*
X68224759Y-38706637D01*
X68424637Y-38506759D01*
X68580000Y-38274241D01*
X68735363Y-38506759D01*
X68935241Y-38706637D01*
X69170273Y-38863680D01*
X69431426Y-38971853D01*
X69708665Y-39027000D01*
X69991335Y-39027000D01*
X70268574Y-38971853D01*
X70529727Y-38863680D01*
X70764759Y-38706637D01*
X70964637Y-38506759D01*
X71120000Y-38274241D01*
X71275363Y-38506759D01*
X71475241Y-38706637D01*
X71710273Y-38863680D01*
X71971426Y-38971853D01*
X72248665Y-39027000D01*
X72531335Y-39027000D01*
X72808574Y-38971853D01*
X73069727Y-38863680D01*
X73304759Y-38706637D01*
X73504637Y-38506759D01*
X73660000Y-38274241D01*
X73815363Y-38506759D01*
X74015241Y-38706637D01*
X74250273Y-38863680D01*
X74511426Y-38971853D01*
X74788665Y-39027000D01*
X75071335Y-39027000D01*
X75348574Y-38971853D01*
X75609727Y-38863680D01*
X75844759Y-38706637D01*
X76044637Y-38506759D01*
X76200000Y-38274241D01*
X76355363Y-38506759D01*
X76555241Y-38706637D01*
X76790273Y-38863680D01*
X77051426Y-38971853D01*
X77328665Y-39027000D01*
X77611335Y-39027000D01*
X77888574Y-38971853D01*
X78149727Y-38863680D01*
X78384759Y-38706637D01*
X78584637Y-38506759D01*
X78740000Y-38274241D01*
X78895363Y-38506759D01*
X79095241Y-38706637D01*
X79330273Y-38863680D01*
X79591426Y-38971853D01*
X79868665Y-39027000D01*
X80151335Y-39027000D01*
X80428574Y-38971853D01*
X80689727Y-38863680D01*
X80924759Y-38706637D01*
X81124637Y-38506759D01*
X81280000Y-38274241D01*
X81435363Y-38506759D01*
X81635241Y-38706637D01*
X81870273Y-38863680D01*
X82131426Y-38971853D01*
X82408665Y-39027000D01*
X82691335Y-39027000D01*
X82968574Y-38971853D01*
X83229727Y-38863680D01*
X83464759Y-38706637D01*
X83664637Y-38506759D01*
X83820000Y-38274241D01*
X83975363Y-38506759D01*
X84175241Y-38706637D01*
X84410273Y-38863680D01*
X84671426Y-38971853D01*
X84948665Y-39027000D01*
X85231335Y-39027000D01*
X85508574Y-38971853D01*
X85769727Y-38863680D01*
X86004759Y-38706637D01*
X86204637Y-38506759D01*
X86360000Y-38274241D01*
X86515363Y-38506759D01*
X86715241Y-38706637D01*
X86950273Y-38863680D01*
X87211426Y-38971853D01*
X87488665Y-39027000D01*
X87771335Y-39027000D01*
X88048574Y-38971853D01*
X88309727Y-38863680D01*
X88544759Y-38706637D01*
X88744637Y-38506759D01*
X88900000Y-38274241D01*
X89055363Y-38506759D01*
X89255241Y-38706637D01*
X89490273Y-38863680D01*
X89751426Y-38971853D01*
X90028665Y-39027000D01*
X90311335Y-39027000D01*
X90588574Y-38971853D01*
X90849727Y-38863680D01*
X91084759Y-38706637D01*
X91284637Y-38506759D01*
X91440000Y-38274241D01*
X91595363Y-38506759D01*
X91795241Y-38706637D01*
X92030273Y-38863680D01*
X92291426Y-38971853D01*
X92568665Y-39027000D01*
X92851335Y-39027000D01*
X93128574Y-38971853D01*
X93389727Y-38863680D01*
X93624759Y-38706637D01*
X93824637Y-38506759D01*
X93981680Y-38271727D01*
X94089853Y-38010574D01*
X94145000Y-37733335D01*
X94145000Y-37450665D01*
X94089853Y-37173426D01*
X93981680Y-36912273D01*
X93824637Y-36677241D01*
X93624759Y-36477363D01*
X93389727Y-36320320D01*
X93128574Y-36212147D01*
X92851335Y-36157000D01*
X92568665Y-36157000D01*
X92291426Y-36212147D01*
X92030273Y-36320320D01*
X91795241Y-36477363D01*
X91595363Y-36677241D01*
X91440000Y-36909759D01*
X91284637Y-36677241D01*
X91084759Y-36477363D01*
X90849727Y-36320320D01*
X90588574Y-36212147D01*
X90311335Y-36157000D01*
X90028665Y-36157000D01*
X89751426Y-36212147D01*
X89490273Y-36320320D01*
X89255241Y-36477363D01*
X89055363Y-36677241D01*
X88900000Y-36909759D01*
X88744637Y-36677241D01*
X88544759Y-36477363D01*
X88309727Y-36320320D01*
X88048574Y-36212147D01*
X87771335Y-36157000D01*
X87488665Y-36157000D01*
X87211426Y-36212147D01*
X86950273Y-36320320D01*
X86715241Y-36477363D01*
X86515363Y-36677241D01*
X86360000Y-36909759D01*
X86204637Y-36677241D01*
X86004759Y-36477363D01*
X85769727Y-36320320D01*
X85508574Y-36212147D01*
X85231335Y-36157000D01*
X84948665Y-36157000D01*
X84671426Y-36212147D01*
X84410273Y-36320320D01*
X84175241Y-36477363D01*
X83975363Y-36677241D01*
X83820000Y-36909759D01*
X83664637Y-36677241D01*
X83464759Y-36477363D01*
X83229727Y-36320320D01*
X82968574Y-36212147D01*
X82691335Y-36157000D01*
X82408665Y-36157000D01*
X82131426Y-36212147D01*
X81870273Y-36320320D01*
X81635241Y-36477363D01*
X81435363Y-36677241D01*
X81280000Y-36909759D01*
X81124637Y-36677241D01*
X80924759Y-36477363D01*
X80689727Y-36320320D01*
X80428574Y-36212147D01*
X80151335Y-36157000D01*
X79868665Y-36157000D01*
X79591426Y-36212147D01*
X79330273Y-36320320D01*
X79095241Y-36477363D01*
X78895363Y-36677241D01*
X78740000Y-36909759D01*
X78584637Y-36677241D01*
X78384759Y-36477363D01*
X78149727Y-36320320D01*
X77888574Y-36212147D01*
X77611335Y-36157000D01*
X77328665Y-36157000D01*
X77051426Y-36212147D01*
X76790273Y-36320320D01*
X76555241Y-36477363D01*
X76355363Y-36677241D01*
X76200000Y-36909759D01*
X76044637Y-36677241D01*
X75844759Y-36477363D01*
X75609727Y-36320320D01*
X75348574Y-36212147D01*
X75071335Y-36157000D01*
X74788665Y-36157000D01*
X74511426Y-36212147D01*
X74250273Y-36320320D01*
X74015241Y-36477363D01*
X73815363Y-36677241D01*
X73660000Y-36909759D01*
X73504637Y-36677241D01*
X73304759Y-36477363D01*
X73069727Y-36320320D01*
X72808574Y-36212147D01*
X72531335Y-36157000D01*
X72248665Y-36157000D01*
X71971426Y-36212147D01*
X71710273Y-36320320D01*
X71475241Y-36477363D01*
X71275363Y-36677241D01*
X71120000Y-36909759D01*
X70964637Y-36677241D01*
X70764759Y-36477363D01*
X70529727Y-36320320D01*
X70268574Y-36212147D01*
X69991335Y-36157000D01*
X69708665Y-36157000D01*
X69431426Y-36212147D01*
X69170273Y-36320320D01*
X68935241Y-36477363D01*
X68735363Y-36677241D01*
X68580000Y-36909759D01*
X68424637Y-36677241D01*
X68224759Y-36477363D01*
X67989727Y-36320320D01*
X67728574Y-36212147D01*
X67451335Y-36157000D01*
X67168665Y-36157000D01*
X66891426Y-36212147D01*
X66630273Y-36320320D01*
X66395241Y-36477363D01*
X66195363Y-36677241D01*
X66040000Y-36909759D01*
X65884637Y-36677241D01*
X65684759Y-36477363D01*
X65449727Y-36320320D01*
X65188574Y-36212147D01*
X64911335Y-36157000D01*
X64628665Y-36157000D01*
X64351426Y-36212147D01*
X64090273Y-36320320D01*
X63855241Y-36477363D01*
X63655363Y-36677241D01*
X63500000Y-36909759D01*
X63344637Y-36677241D01*
X63144759Y-36477363D01*
X62909727Y-36320320D01*
X62648574Y-36212147D01*
X62371335Y-36157000D01*
X62088665Y-36157000D01*
X61811426Y-36212147D01*
X61550273Y-36320320D01*
X61315241Y-36477363D01*
X61115363Y-36677241D01*
X60960000Y-36909759D01*
X60804637Y-36677241D01*
X60604759Y-36477363D01*
X60369727Y-36320320D01*
X60108574Y-36212147D01*
X59831335Y-36157000D01*
X59548665Y-36157000D01*
X59271426Y-36212147D01*
X59010273Y-36320320D01*
X58775241Y-36477363D01*
X58575363Y-36677241D01*
X58420000Y-36909759D01*
X58264637Y-36677241D01*
X58064759Y-36477363D01*
X57829727Y-36320320D01*
X57568574Y-36212147D01*
X57291335Y-36157000D01*
X57008665Y-36157000D01*
X56731426Y-36212147D01*
X56470273Y-36320320D01*
X56235241Y-36477363D01*
X56035363Y-36677241D01*
X55880000Y-36909759D01*
X55724637Y-36677241D01*
X55524759Y-36477363D01*
X55289727Y-36320320D01*
X55028574Y-36212147D01*
X54751335Y-36157000D01*
X54468665Y-36157000D01*
X54191426Y-36212147D01*
X53930273Y-36320320D01*
X53695241Y-36477363D01*
X53495363Y-36677241D01*
X53340000Y-36909759D01*
X53184637Y-36677241D01*
X52984759Y-36477363D01*
X52749727Y-36320320D01*
X52488574Y-36212147D01*
X52211335Y-36157000D01*
X51928665Y-36157000D01*
X51651426Y-36212147D01*
X51390273Y-36320320D01*
X51155241Y-36477363D01*
X50955363Y-36677241D01*
X50800000Y-36909759D01*
X50644637Y-36677241D01*
X50444759Y-36477363D01*
X50209727Y-36320320D01*
X49948574Y-36212147D01*
X49671335Y-36157000D01*
X49388665Y-36157000D01*
X49111426Y-36212147D01*
X48850273Y-36320320D01*
X48615241Y-36477363D01*
X48415363Y-36677241D01*
X48260000Y-36909759D01*
X48104637Y-36677241D01*
X47904759Y-36477363D01*
X47669727Y-36320320D01*
X47408574Y-36212147D01*
X47131335Y-36157000D01*
X46848665Y-36157000D01*
X46571426Y-36212147D01*
X46310273Y-36320320D01*
X46075241Y-36477363D01*
X45875363Y-36677241D01*
X45720000Y-36909759D01*
X45564637Y-36677241D01*
X45364759Y-36477363D01*
X45129727Y-36320320D01*
X44868574Y-36212147D01*
X44591335Y-36157000D01*
X44308665Y-36157000D01*
X44031426Y-36212147D01*
X43770273Y-36320320D01*
X43535241Y-36477363D01*
X43335363Y-36677241D01*
X43180000Y-36909759D01*
X43024637Y-36677241D01*
X42824759Y-36477363D01*
X42589727Y-36320320D01*
X42328574Y-36212147D01*
X42051335Y-36157000D01*
X41768665Y-36157000D01*
X41491426Y-36212147D01*
X41230273Y-36320320D01*
X40995241Y-36477363D01*
X40795363Y-36677241D01*
X40640000Y-36909759D01*
X40484637Y-36677241D01*
X40284759Y-36477363D01*
X40049727Y-36320320D01*
X39788574Y-36212147D01*
X39511335Y-36157000D01*
X39228665Y-36157000D01*
X38951426Y-36212147D01*
X38690273Y-36320320D01*
X38455241Y-36477363D01*
X38255363Y-36677241D01*
X38099085Y-36911128D01*
X38066671Y-36850486D01*
X37822702Y-36778903D01*
X37009605Y-37592000D01*
X36650395Y-37592000D01*
X35837298Y-36778903D01*
X35593329Y-36850486D01*
X35562806Y-36914992D01*
X35561680Y-36912273D01*
X35404637Y-36677241D01*
X35326694Y-36599298D01*
X36016903Y-36599298D01*
X36830000Y-37412395D01*
X37643097Y-36599298D01*
X37571514Y-36355329D01*
X37316004Y-36234429D01*
X37041816Y-36165700D01*
X36759488Y-36151783D01*
X36479870Y-36193213D01*
X36213708Y-36288397D01*
X36088486Y-36355329D01*
X36016903Y-36599298D01*
X35326694Y-36599298D01*
X35204759Y-36477363D01*
X34969727Y-36320320D01*
X34708574Y-36212147D01*
X34431335Y-36157000D01*
X34148665Y-36157000D01*
X33871426Y-36212147D01*
X33610273Y-36320320D01*
X33375241Y-36477363D01*
X33175363Y-36677241D01*
X33018320Y-36912273D01*
X32910147Y-37173426D01*
X32855000Y-37450665D01*
X19431000Y-37450665D01*
X19431000Y-30263000D01*
X75981928Y-30263000D01*
X75981928Y-31713000D01*
X75998992Y-31886254D01*
X76049528Y-32052850D01*
X76131595Y-32206386D01*
X76242038Y-32340962D01*
X76376614Y-32451405D01*
X76530150Y-32533472D01*
X76696746Y-32584008D01*
X76870000Y-32601072D01*
X78070000Y-32601072D01*
X78243254Y-32584008D01*
X78409850Y-32533472D01*
X78563386Y-32451405D01*
X78697962Y-32340962D01*
X78808405Y-32206386D01*
X78864714Y-32101039D01*
X78880951Y-32122429D01*
X79098807Y-32315496D01*
X79350142Y-32462352D01*
X79613110Y-32554476D01*
X79843000Y-32433155D01*
X79843000Y-31115000D01*
X79823000Y-31115000D01*
X79823000Y-30861000D01*
X79843000Y-30861000D01*
X79843000Y-29542845D01*
X80097000Y-29542845D01*
X80097000Y-30861000D01*
X80117000Y-30861000D01*
X80117000Y-31115000D01*
X80097000Y-31115000D01*
X80097000Y-32433155D01*
X80326890Y-32554476D01*
X80589858Y-32462352D01*
X80841193Y-32315496D01*
X81059049Y-32122429D01*
X81215538Y-31916278D01*
X81229294Y-31942014D01*
X81414866Y-32168134D01*
X81640987Y-32353706D01*
X81898967Y-32491599D01*
X82178890Y-32576513D01*
X82470000Y-32605185D01*
X82761111Y-32576513D01*
X83041034Y-32491599D01*
X83299014Y-32353706D01*
X83525134Y-32168134D01*
X83710706Y-31942014D01*
X83720000Y-31924626D01*
X83729294Y-31942014D01*
X83914866Y-32168134D01*
X84140987Y-32353706D01*
X84398967Y-32491599D01*
X84678890Y-32576513D01*
X84970000Y-32605185D01*
X85261111Y-32576513D01*
X85541034Y-32491599D01*
X85799014Y-32353706D01*
X86025134Y-32168134D01*
X86210706Y-31942014D01*
X86220000Y-31924626D01*
X86229294Y-31942014D01*
X86414866Y-32168134D01*
X86640987Y-32353706D01*
X86898967Y-32491599D01*
X87178890Y-32576513D01*
X87470000Y-32605185D01*
X87761111Y-32576513D01*
X88041034Y-32491599D01*
X88299014Y-32353706D01*
X88525134Y-32168134D01*
X88710706Y-31942014D01*
X88720000Y-31924626D01*
X88729294Y-31942014D01*
X88914866Y-32168134D01*
X89140987Y-32353706D01*
X89398967Y-32491599D01*
X89678890Y-32576513D01*
X89970000Y-32605185D01*
X90261111Y-32576513D01*
X90541034Y-32491599D01*
X90799014Y-32353706D01*
X91025134Y-32168134D01*
X91210706Y-31942014D01*
X91220000Y-31924626D01*
X91229294Y-31942014D01*
X91414866Y-32168134D01*
X91640987Y-32353706D01*
X91898967Y-32491599D01*
X92178890Y-32576513D01*
X92470000Y-32605185D01*
X92761111Y-32576513D01*
X93041034Y-32491599D01*
X93299014Y-32353706D01*
X93525134Y-32168134D01*
X93710706Y-31942014D01*
X93848599Y-31684033D01*
X93933513Y-31404110D01*
X93955000Y-31185949D01*
X93955000Y-30790050D01*
X93933513Y-30571889D01*
X93848599Y-30291966D01*
X93710706Y-30033986D01*
X93525134Y-29807866D01*
X93299013Y-29622294D01*
X93041033Y-29484401D01*
X92761110Y-29399487D01*
X92470000Y-29370815D01*
X92178889Y-29399487D01*
X91898966Y-29484401D01*
X91640986Y-29622294D01*
X91414866Y-29807866D01*
X91229294Y-30033987D01*
X91220000Y-30051374D01*
X91210706Y-30033986D01*
X91025134Y-29807866D01*
X90799013Y-29622294D01*
X90541033Y-29484401D01*
X90261110Y-29399487D01*
X89970000Y-29370815D01*
X89678889Y-29399487D01*
X89398966Y-29484401D01*
X89140986Y-29622294D01*
X88914866Y-29807866D01*
X88729294Y-30033987D01*
X88720000Y-30051374D01*
X88710706Y-30033986D01*
X88525134Y-29807866D01*
X88299013Y-29622294D01*
X88041033Y-29484401D01*
X87761110Y-29399487D01*
X87470000Y-29370815D01*
X87178889Y-29399487D01*
X86898966Y-29484401D01*
X86640986Y-29622294D01*
X86414866Y-29807866D01*
X86229294Y-30033987D01*
X86220000Y-30051374D01*
X86210706Y-30033986D01*
X86025134Y-29807866D01*
X85799013Y-29622294D01*
X85541033Y-29484401D01*
X85261110Y-29399487D01*
X84970000Y-29370815D01*
X84678889Y-29399487D01*
X84398966Y-29484401D01*
X84140986Y-29622294D01*
X83914866Y-29807866D01*
X83729294Y-30033987D01*
X83720000Y-30051374D01*
X83710706Y-30033986D01*
X83525134Y-29807866D01*
X83299013Y-29622294D01*
X83041033Y-29484401D01*
X82761110Y-29399487D01*
X82470000Y-29370815D01*
X82178889Y-29399487D01*
X81898966Y-29484401D01*
X81640986Y-29622294D01*
X81414866Y-29807866D01*
X81229294Y-30033987D01*
X81215538Y-30059722D01*
X81059049Y-29853571D01*
X80841193Y-29660504D01*
X80589858Y-29513648D01*
X80326890Y-29421524D01*
X80097000Y-29542845D01*
X79843000Y-29542845D01*
X79613110Y-29421524D01*
X79350142Y-29513648D01*
X79098807Y-29660504D01*
X78880951Y-29853571D01*
X78864714Y-29874961D01*
X78808405Y-29769614D01*
X78697962Y-29635038D01*
X78563386Y-29524595D01*
X78409850Y-29442528D01*
X78243254Y-29391992D01*
X78070000Y-29374928D01*
X76870000Y-29374928D01*
X76696746Y-29391992D01*
X76530150Y-29442528D01*
X76376614Y-29524595D01*
X76242038Y-29635038D01*
X76131595Y-29769614D01*
X76049528Y-29923150D01*
X75998992Y-30089746D01*
X75981928Y-30263000D01*
X19431000Y-30263000D01*
X19431000Y-26511376D01*
X98969200Y-26511376D01*
X98969200Y-26769424D01*
X99019542Y-27022513D01*
X99118293Y-27260918D01*
X99261656Y-27475477D01*
X99426579Y-27640400D01*
X99261656Y-27805323D01*
X99118293Y-28019882D01*
X99019542Y-28258287D01*
X98969200Y-28511376D01*
X98969200Y-28769424D01*
X99019542Y-29022513D01*
X99118293Y-29260918D01*
X99261656Y-29475477D01*
X99426579Y-29640400D01*
X99261656Y-29805323D01*
X99118293Y-30019882D01*
X99019542Y-30258287D01*
X98969200Y-30511376D01*
X98969200Y-30769424D01*
X99019542Y-31022513D01*
X99118293Y-31260918D01*
X99261656Y-31475477D01*
X99426579Y-31640400D01*
X99261656Y-31805323D01*
X99118293Y-32019882D01*
X99019542Y-32258287D01*
X98969200Y-32511376D01*
X98969200Y-32769424D01*
X99019542Y-33022513D01*
X99118293Y-33260918D01*
X99261656Y-33475477D01*
X99426579Y-33640400D01*
X99261656Y-33805323D01*
X99118293Y-34019882D01*
X99019542Y-34258287D01*
X98969200Y-34511376D01*
X98969200Y-34769424D01*
X99019542Y-35022513D01*
X99118293Y-35260918D01*
X99261656Y-35475477D01*
X99426579Y-35640400D01*
X99261656Y-35805323D01*
X99118293Y-36019882D01*
X99019542Y-36258287D01*
X98969200Y-36511376D01*
X98969200Y-36769424D01*
X99019542Y-37022513D01*
X99118293Y-37260918D01*
X99261656Y-37475477D01*
X99426579Y-37640400D01*
X99261656Y-37805323D01*
X99118293Y-38019882D01*
X99019542Y-38258287D01*
X98969200Y-38511376D01*
X98969200Y-38769424D01*
X99019542Y-39022513D01*
X99118293Y-39260918D01*
X99261656Y-39475477D01*
X99426579Y-39640400D01*
X99261656Y-39805323D01*
X99118293Y-40019882D01*
X99019542Y-40258287D01*
X98969200Y-40511376D01*
X98969200Y-40769424D01*
X99019542Y-41022513D01*
X99118293Y-41260918D01*
X99261656Y-41475477D01*
X99426579Y-41640400D01*
X99261656Y-41805323D01*
X99118293Y-42019882D01*
X99019542Y-42258287D01*
X98969200Y-42511376D01*
X98969200Y-42769424D01*
X99019542Y-43022513D01*
X99118293Y-43260918D01*
X99261656Y-43475477D01*
X99426579Y-43640400D01*
X99261656Y-43805323D01*
X99118293Y-44019882D01*
X99019542Y-44258287D01*
X98969200Y-44511376D01*
X98969200Y-44769424D01*
X99019542Y-45022513D01*
X99118293Y-45260918D01*
X99261656Y-45475477D01*
X99426579Y-45640400D01*
X99261656Y-45805323D01*
X99118293Y-46019882D01*
X99019542Y-46258287D01*
X98969200Y-46511376D01*
X98969200Y-46769424D01*
X99019542Y-47022513D01*
X99118293Y-47260918D01*
X99261656Y-47475477D01*
X99426579Y-47640400D01*
X99261656Y-47805323D01*
X99118293Y-48019882D01*
X99019542Y-48258287D01*
X98969200Y-48511376D01*
X98969200Y-48769424D01*
X99019542Y-49022513D01*
X99118293Y-49260918D01*
X99261656Y-49475477D01*
X99426579Y-49640400D01*
X99261656Y-49805323D01*
X99118293Y-50019882D01*
X99019542Y-50258287D01*
X98969200Y-50511376D01*
X98969200Y-50769424D01*
X99019542Y-51022513D01*
X99118293Y-51260918D01*
X99261656Y-51475477D01*
X99426579Y-51640400D01*
X99261656Y-51805323D01*
X99118293Y-52019882D01*
X99019542Y-52258287D01*
X98969200Y-52511376D01*
X98969200Y-52769424D01*
X99019542Y-53022513D01*
X99118293Y-53260918D01*
X99261656Y-53475477D01*
X99426579Y-53640400D01*
X99261656Y-53805323D01*
X99118293Y-54019882D01*
X99019542Y-54258287D01*
X98969200Y-54511376D01*
X98969200Y-54769424D01*
X99019542Y-55022513D01*
X99118293Y-55260918D01*
X99261656Y-55475477D01*
X99426579Y-55640400D01*
X99261656Y-55805323D01*
X99118293Y-56019882D01*
X99019542Y-56258287D01*
X98969200Y-56511376D01*
X98969200Y-56769424D01*
X99019542Y-57022513D01*
X99118293Y-57260918D01*
X99261656Y-57475477D01*
X99426579Y-57640400D01*
X99261656Y-57805323D01*
X99118293Y-58019882D01*
X99019542Y-58258287D01*
X98969200Y-58511376D01*
X98969200Y-58769424D01*
X99019542Y-59022513D01*
X99118293Y-59260918D01*
X99261656Y-59475477D01*
X99426579Y-59640400D01*
X99261656Y-59805323D01*
X99118293Y-60019882D01*
X99019542Y-60258287D01*
X98969200Y-60511376D01*
X98969200Y-60769424D01*
X99019542Y-61022513D01*
X99118293Y-61260918D01*
X99261656Y-61475477D01*
X99426579Y-61640400D01*
X99261656Y-61805323D01*
X99118293Y-62019882D01*
X99019542Y-62258287D01*
X98969200Y-62511376D01*
X98969200Y-62769424D01*
X99019542Y-63022513D01*
X99118293Y-63260918D01*
X99261656Y-63475477D01*
X99426579Y-63640400D01*
X99261656Y-63805323D01*
X99118293Y-64019882D01*
X99019542Y-64258287D01*
X98969200Y-64511376D01*
X98969200Y-64769424D01*
X99019542Y-65022513D01*
X99118293Y-65260918D01*
X99261656Y-65475477D01*
X99426579Y-65640400D01*
X99261656Y-65805323D01*
X99118293Y-66019882D01*
X99019542Y-66258287D01*
X98969200Y-66511376D01*
X98969200Y-66769424D01*
X99019542Y-67022513D01*
X99118293Y-67260918D01*
X99261656Y-67475477D01*
X99426579Y-67640400D01*
X99261656Y-67805323D01*
X99118293Y-68019882D01*
X99019542Y-68258287D01*
X98969200Y-68511376D01*
X98969200Y-68769424D01*
X99019542Y-69022513D01*
X99118293Y-69260918D01*
X99261656Y-69475477D01*
X99426579Y-69640400D01*
X99261656Y-69805323D01*
X99118293Y-70019882D01*
X99019542Y-70258287D01*
X98969200Y-70511376D01*
X98969200Y-70769424D01*
X99019542Y-71022513D01*
X99118293Y-71260918D01*
X99261656Y-71475477D01*
X99426579Y-71640400D01*
X99261656Y-71805323D01*
X99118293Y-72019882D01*
X99019542Y-72258287D01*
X98969200Y-72511376D01*
X98969200Y-72769424D01*
X99019542Y-73022513D01*
X99118293Y-73260918D01*
X99261656Y-73475477D01*
X99433260Y-73647081D01*
X99300897Y-73769173D01*
X99149727Y-73976771D01*
X99041962Y-74209872D01*
X99011290Y-74311000D01*
X99134976Y-74513400D01*
X100152200Y-74513400D01*
X100152200Y-74493400D01*
X100406200Y-74493400D01*
X100406200Y-74513400D01*
X101423424Y-74513400D01*
X101547110Y-74311000D01*
X101516438Y-74209872D01*
X101408673Y-73976771D01*
X101257503Y-73769173D01*
X101125140Y-73647081D01*
X101296744Y-73475477D01*
X101440107Y-73260918D01*
X101538858Y-73022513D01*
X101589200Y-72769424D01*
X101589200Y-72511376D01*
X101538858Y-72258287D01*
X101440107Y-72019882D01*
X101296744Y-71805323D01*
X101131821Y-71640400D01*
X101296744Y-71475477D01*
X101440107Y-71260918D01*
X101538858Y-71022513D01*
X101589200Y-70769424D01*
X101589200Y-70511376D01*
X101538858Y-70258287D01*
X101440107Y-70019882D01*
X101296744Y-69805323D01*
X101131821Y-69640400D01*
X101296744Y-69475477D01*
X101440107Y-69260918D01*
X101538858Y-69022513D01*
X101589200Y-68769424D01*
X101589200Y-68511376D01*
X101538858Y-68258287D01*
X101440107Y-68019882D01*
X101296744Y-67805323D01*
X101131821Y-67640400D01*
X101296744Y-67475477D01*
X101440107Y-67260918D01*
X101538858Y-67022513D01*
X101589200Y-66769424D01*
X101589200Y-66511376D01*
X101538858Y-66258287D01*
X101440107Y-66019882D01*
X101296744Y-65805323D01*
X101131821Y-65640400D01*
X101296744Y-65475477D01*
X101440107Y-65260918D01*
X101538858Y-65022513D01*
X101589200Y-64769424D01*
X101589200Y-64511376D01*
X101538858Y-64258287D01*
X101440107Y-64019882D01*
X101296744Y-63805323D01*
X101131821Y-63640400D01*
X101296744Y-63475477D01*
X101440107Y-63260918D01*
X101538858Y-63022513D01*
X101589200Y-62769424D01*
X101589200Y-62511376D01*
X101538858Y-62258287D01*
X101440107Y-62019882D01*
X101296744Y-61805323D01*
X101131821Y-61640400D01*
X101296744Y-61475477D01*
X101440107Y-61260918D01*
X101538858Y-61022513D01*
X101589200Y-60769424D01*
X101589200Y-60511376D01*
X101538858Y-60258287D01*
X101440107Y-60019882D01*
X101296744Y-59805323D01*
X101131821Y-59640400D01*
X101296744Y-59475477D01*
X101440107Y-59260918D01*
X101538858Y-59022513D01*
X101589200Y-58769424D01*
X101589200Y-58511376D01*
X101538858Y-58258287D01*
X101440107Y-58019882D01*
X101296744Y-57805323D01*
X101131821Y-57640400D01*
X101296744Y-57475477D01*
X101440107Y-57260918D01*
X101538858Y-57022513D01*
X101589200Y-56769424D01*
X101589200Y-56511376D01*
X101538858Y-56258287D01*
X101440107Y-56019882D01*
X101296744Y-55805323D01*
X101131821Y-55640400D01*
X101296744Y-55475477D01*
X101440107Y-55260918D01*
X101538858Y-55022513D01*
X101589200Y-54769424D01*
X101589200Y-54511376D01*
X101538858Y-54258287D01*
X101440107Y-54019882D01*
X101296744Y-53805323D01*
X101131821Y-53640400D01*
X101296744Y-53475477D01*
X101440107Y-53260918D01*
X101538858Y-53022513D01*
X101589200Y-52769424D01*
X101589200Y-52511376D01*
X101538858Y-52258287D01*
X101440107Y-52019882D01*
X101296744Y-51805323D01*
X101131821Y-51640400D01*
X101296744Y-51475477D01*
X101440107Y-51260918D01*
X101538858Y-51022513D01*
X101589200Y-50769424D01*
X101589200Y-50511376D01*
X101538858Y-50258287D01*
X101440107Y-50019882D01*
X101296744Y-49805323D01*
X101131821Y-49640400D01*
X101296744Y-49475477D01*
X101440107Y-49260918D01*
X101538858Y-49022513D01*
X101589200Y-48769424D01*
X101589200Y-48511376D01*
X101538858Y-48258287D01*
X101440107Y-48019882D01*
X101296744Y-47805323D01*
X101131821Y-47640400D01*
X101296744Y-47475477D01*
X101440107Y-47260918D01*
X101538858Y-47022513D01*
X101589200Y-46769424D01*
X101589200Y-46511376D01*
X101538858Y-46258287D01*
X101440107Y-46019882D01*
X101296744Y-45805323D01*
X101131821Y-45640400D01*
X101296744Y-45475477D01*
X101440107Y-45260918D01*
X101538858Y-45022513D01*
X101589200Y-44769424D01*
X101589200Y-44511376D01*
X101538858Y-44258287D01*
X101440107Y-44019882D01*
X101296744Y-43805323D01*
X101131821Y-43640400D01*
X101296744Y-43475477D01*
X101440107Y-43260918D01*
X101538858Y-43022513D01*
X101589200Y-42769424D01*
X101589200Y-42511376D01*
X101538858Y-42258287D01*
X101440107Y-42019882D01*
X101296744Y-41805323D01*
X101131821Y-41640400D01*
X101296744Y-41475477D01*
X101440107Y-41260918D01*
X101538858Y-41022513D01*
X101589200Y-40769424D01*
X101589200Y-40511376D01*
X101538858Y-40258287D01*
X101440107Y-40019882D01*
X101296744Y-39805323D01*
X101131821Y-39640400D01*
X101296744Y-39475477D01*
X101440107Y-39260918D01*
X101538858Y-39022513D01*
X101589200Y-38769424D01*
X101589200Y-38511376D01*
X101538858Y-38258287D01*
X101440107Y-38019882D01*
X101296744Y-37805323D01*
X101131821Y-37640400D01*
X101296744Y-37475477D01*
X101440107Y-37260918D01*
X101538858Y-37022513D01*
X101589200Y-36769424D01*
X101589200Y-36511376D01*
X101538858Y-36258287D01*
X101440107Y-36019882D01*
X101296744Y-35805323D01*
X101131821Y-35640400D01*
X101296744Y-35475477D01*
X101440107Y-35260918D01*
X101538858Y-35022513D01*
X101589200Y-34769424D01*
X101589200Y-34511376D01*
X101538858Y-34258287D01*
X101440107Y-34019882D01*
X101296744Y-33805323D01*
X101131821Y-33640400D01*
X101296744Y-33475477D01*
X101440107Y-33260918D01*
X101538858Y-33022513D01*
X101589200Y-32769424D01*
X101589200Y-32511376D01*
X101538858Y-32258287D01*
X101440107Y-32019882D01*
X101296744Y-31805323D01*
X101131821Y-31640400D01*
X101296744Y-31475477D01*
X101440107Y-31260918D01*
X101538858Y-31022513D01*
X101589200Y-30769424D01*
X101589200Y-30511376D01*
X101538858Y-30258287D01*
X101440107Y-30019882D01*
X101296744Y-29805323D01*
X101131821Y-29640400D01*
X101296744Y-29475477D01*
X101440107Y-29260918D01*
X101538858Y-29022513D01*
X101589200Y-28769424D01*
X101589200Y-28511376D01*
X101538858Y-28258287D01*
X101440107Y-28019882D01*
X101296744Y-27805323D01*
X101131821Y-27640400D01*
X101296744Y-27475477D01*
X101440107Y-27260918D01*
X101538858Y-27022513D01*
X101589200Y-26769424D01*
X101589200Y-26511376D01*
X101538858Y-26258287D01*
X101440107Y-26019882D01*
X101296744Y-25805323D01*
X101125140Y-25633719D01*
X101257503Y-25511627D01*
X101408673Y-25304029D01*
X101516438Y-25070928D01*
X101547110Y-24969800D01*
X101423424Y-24767400D01*
X100406200Y-24767400D01*
X100406200Y-24787400D01*
X100152200Y-24787400D01*
X100152200Y-24767400D01*
X99134976Y-24767400D01*
X99011290Y-24969800D01*
X99041962Y-25070928D01*
X99149727Y-25304029D01*
X99300897Y-25511627D01*
X99433260Y-25633719D01*
X99261656Y-25805323D01*
X99118293Y-26019882D01*
X99019542Y-26258287D01*
X98969200Y-26511376D01*
X19431000Y-26511376D01*
X19431000Y-24311000D01*
X99011290Y-24311000D01*
X99134976Y-24513400D01*
X100152200Y-24513400D01*
X100152200Y-23495315D01*
X100406200Y-23495315D01*
X100406200Y-24513400D01*
X101423424Y-24513400D01*
X101547110Y-24311000D01*
X101516438Y-24209872D01*
X101408673Y-23976771D01*
X101257503Y-23769173D01*
X101068737Y-23595056D01*
X100849630Y-23461111D01*
X100608601Y-23372485D01*
X100406200Y-23495315D01*
X100152200Y-23495315D01*
X99949799Y-23372485D01*
X99708770Y-23461111D01*
X99489663Y-23595056D01*
X99300897Y-23769173D01*
X99149727Y-23976771D01*
X99041962Y-24209872D01*
X99011290Y-24311000D01*
X19431000Y-24311000D01*
X19431000Y-17653000D01*
X110617000Y-17653000D01*
X110617000Y-96901000D01*
G37*
%TD.AperFunction*%
%TD*%
M02*
