G04 #@! TF.GenerationSoftware,KiCad,Pcbnew,(6.0.1)*
G04 #@! TF.CreationDate,2022-01-19T01:46:26+10:00*
G04 #@! TF.ProjectId,RedPyKeeb_MCU,52656450-794b-4656-9562-5f4d43552e6b,rev?*
G04 #@! TF.SameCoordinates,Original*
G04 #@! TF.FileFunction,Soldermask,Bot*
G04 #@! TF.FilePolarity,Negative*
%FSLAX46Y46*%
G04 Gerber Fmt 4.6, Leading zero omitted, Abs format (unit mm)*
G04 Created by KiCad (PCBNEW (6.0.1)) date 2022-01-19 01:46:26*
%MOMM*%
%LPD*%
G01*
G04 APERTURE LIST*
G04 Aperture macros list*
%AMRoundRect*
0 Rectangle with rounded corners*
0 $1 Rounding radius*
0 $2 $3 $4 $5 $6 $7 $8 $9 X,Y pos of 4 corners*
0 Add a 4 corners polygon primitive as box body*
4,1,4,$2,$3,$4,$5,$6,$7,$8,$9,$2,$3,0*
0 Add four circle primitives for the rounded corners*
1,1,$1+$1,$2,$3*
1,1,$1+$1,$4,$5*
1,1,$1+$1,$6,$7*
1,1,$1+$1,$8,$9*
0 Add four rect primitives between the rounded corners*
20,1,$1+$1,$2,$3,$4,$5,0*
20,1,$1+$1,$4,$5,$6,$7,0*
20,1,$1+$1,$6,$7,$8,$9,0*
20,1,$1+$1,$8,$9,$2,$3,0*%
G04 Aperture macros list end*
%ADD10RoundRect,0.250000X0.725000X-0.600000X0.725000X0.600000X-0.725000X0.600000X-0.725000X-0.600000X0*%
%ADD11O,1.950000X1.700000*%
%ADD12RoundRect,0.250000X-0.600000X-0.725000X0.600000X-0.725000X0.600000X0.725000X-0.600000X0.725000X0*%
%ADD13O,1.700000X1.950000*%
%ADD14R,1.600000X1.600000*%
%ADD15C,1.600000*%
%ADD16C,1.300000*%
%ADD17R,1.120000X2.440000*%
%ADD18R,1.000000X3.150000*%
%ADD19O,1.500000X1.500000*%
%ADD20O,1.800000X1.800000*%
%ADD21O,1.700000X1.700000*%
%ADD22R,1.700000X3.500000*%
%ADD23R,1.700000X1.700000*%
%ADD24R,3.500000X1.700000*%
G04 APERTURE END LIST*
D10*
X24403400Y-61615200D03*
D11*
X24403400Y-59115200D03*
X24403400Y-56615200D03*
X24403400Y-54115200D03*
D12*
X55200000Y-28600000D03*
D13*
X57700000Y-28600000D03*
X60200000Y-28600000D03*
X62700000Y-28600000D03*
X65200000Y-28600000D03*
X67700000Y-28600000D03*
X70200000Y-28600000D03*
D14*
X30855000Y-63952000D03*
D15*
X33395000Y-63952000D03*
X35935000Y-63952000D03*
X38475000Y-63952000D03*
X41015000Y-63952000D03*
X43555000Y-63952000D03*
X46095000Y-63952000D03*
X48635000Y-63952000D03*
X51175000Y-63952000D03*
X53715000Y-63952000D03*
X56255000Y-63952000D03*
X58795000Y-63952000D03*
X61335000Y-63952000D03*
X63875000Y-63952000D03*
X66415000Y-63952000D03*
X68955000Y-63952000D03*
X71495000Y-63952000D03*
X74035000Y-63952000D03*
X76575000Y-63952000D03*
X79115000Y-63952000D03*
X81655000Y-63952000D03*
X84195000Y-63952000D03*
X86735000Y-63952000D03*
X89275000Y-63952000D03*
X89275000Y-48712000D03*
X86735000Y-48712000D03*
X84195000Y-48712000D03*
X81655000Y-48712000D03*
X79115000Y-48712000D03*
X76575000Y-48712000D03*
X74035000Y-48712000D03*
X71495000Y-48712000D03*
X68955000Y-48712000D03*
X66415000Y-48712000D03*
X63875000Y-48712000D03*
X61335000Y-48712000D03*
X58795000Y-48712000D03*
X56255000Y-48712000D03*
X53715000Y-48712000D03*
X51175000Y-48712000D03*
X48635000Y-48712000D03*
X46095000Y-48712000D03*
X43555000Y-48712000D03*
X41015000Y-48712000D03*
X38475000Y-48712000D03*
X35935000Y-48712000D03*
X33395000Y-48712000D03*
X30855000Y-48712000D03*
X33395000Y-51252000D03*
D16*
X31585000Y-55062000D03*
X31585000Y-57602000D03*
D17*
X76575000Y-36228200D03*
X74035000Y-36228200D03*
X71495000Y-36228200D03*
X68955000Y-36228200D03*
X68955000Y-44838200D03*
X71495000Y-44838200D03*
X74035000Y-44838200D03*
X76575000Y-44838200D03*
D18*
X32970000Y-82225000D03*
X32970000Y-87275000D03*
X35510000Y-82225000D03*
X35510000Y-87275000D03*
X38050000Y-82225000D03*
X38050000Y-87275000D03*
X40590000Y-82225000D03*
X40590000Y-87275000D03*
X43130000Y-82225000D03*
X43130000Y-87275000D03*
X45670000Y-82225000D03*
X45670000Y-87275000D03*
X48210000Y-82225000D03*
X48210000Y-87275000D03*
X50750000Y-82225000D03*
X50750000Y-87275000D03*
X53290000Y-82225000D03*
X53290000Y-87275000D03*
X55830000Y-82225000D03*
X55830000Y-87275000D03*
X58370000Y-82225000D03*
X58370000Y-87275000D03*
X60910000Y-82225000D03*
X60910000Y-87275000D03*
X63450000Y-82225000D03*
X63450000Y-87275000D03*
X65990000Y-82225000D03*
X65990000Y-87275000D03*
X68530000Y-82225000D03*
X68530000Y-87275000D03*
X71070000Y-82225240D03*
X71070000Y-87275000D03*
X73610000Y-82225000D03*
X73610000Y-87275000D03*
X76150000Y-82225000D03*
X76150000Y-87275000D03*
X78690000Y-82225000D03*
X78690000Y-87275000D03*
X81230000Y-82225000D03*
X81230000Y-87275000D03*
D19*
X38330000Y-28475000D03*
D20*
X35300000Y-33625000D03*
X35300000Y-28175000D03*
D19*
X38330000Y-33325000D03*
D21*
X35170000Y-22010000D03*
D22*
X35170000Y-21110000D03*
D21*
X37710000Y-22010000D03*
D22*
X37710000Y-21110000D03*
X40250000Y-21110000D03*
D23*
X40250000Y-22010000D03*
D22*
X42790000Y-21110000D03*
D21*
X42790000Y-22010000D03*
D22*
X45330000Y-21110000D03*
D21*
X45330000Y-22010000D03*
X47870000Y-22010000D03*
D22*
X47870000Y-21110000D03*
X50410000Y-21110000D03*
D21*
X50410000Y-22010000D03*
D22*
X52950000Y-21110000D03*
D23*
X52950000Y-22010000D03*
D22*
X55490000Y-21110000D03*
D21*
X55490000Y-22010000D03*
D22*
X58030000Y-21110000D03*
D21*
X58030000Y-22010000D03*
D22*
X60570000Y-21110000D03*
D21*
X60570000Y-22010000D03*
X63110000Y-22010000D03*
D22*
X63110000Y-21110000D03*
D23*
X65650000Y-22010000D03*
D22*
X65650000Y-21110000D03*
D21*
X68190000Y-22010000D03*
D22*
X68190000Y-21110000D03*
X70730000Y-21110000D03*
D21*
X70730000Y-22010000D03*
D22*
X73270000Y-21110000D03*
D21*
X73270000Y-22010000D03*
X75810000Y-22010000D03*
D22*
X75810000Y-21110000D03*
X78350000Y-21110000D03*
D23*
X78350000Y-22010000D03*
D21*
X80890000Y-22010000D03*
D22*
X80890000Y-21110000D03*
D21*
X83430000Y-22010000D03*
D22*
X83430000Y-21110000D03*
D21*
X83430000Y-39790000D03*
D22*
X83430000Y-40690000D03*
D21*
X80890000Y-39790000D03*
D22*
X80890000Y-40690000D03*
D23*
X78350000Y-39790000D03*
D22*
X78350000Y-40690000D03*
X75810000Y-40690000D03*
D21*
X75810000Y-39790000D03*
D22*
X73270000Y-40690000D03*
D21*
X73270000Y-39790000D03*
X70730000Y-39790000D03*
D22*
X70730000Y-40690000D03*
D21*
X68190000Y-39790000D03*
D22*
X68190000Y-40690000D03*
X65650000Y-40690000D03*
D23*
X65650000Y-39790000D03*
D22*
X63110000Y-40690000D03*
D21*
X63110000Y-39790000D03*
D22*
X60570000Y-40690000D03*
D21*
X60570000Y-39790000D03*
X58030000Y-39790000D03*
D22*
X58030000Y-40690000D03*
X55490000Y-40690000D03*
D21*
X55490000Y-39790000D03*
D23*
X52950000Y-39790000D03*
D22*
X52950000Y-40690000D03*
D21*
X50410000Y-39790000D03*
D22*
X50410000Y-40690000D03*
X47870000Y-40690000D03*
D21*
X47870000Y-39790000D03*
D22*
X45330000Y-40690000D03*
D21*
X45330000Y-39790000D03*
D22*
X42790000Y-40690000D03*
D21*
X42790000Y-39790000D03*
D23*
X40250000Y-39790000D03*
D22*
X40250000Y-40690000D03*
X37710000Y-40690000D03*
D21*
X37710000Y-39790000D03*
D22*
X35170000Y-40690000D03*
D21*
X35170000Y-39790000D03*
X83200000Y-28360000D03*
D24*
X84100000Y-28360000D03*
X84100000Y-30900000D03*
D23*
X83200000Y-30900000D03*
D21*
X83200000Y-33440000D03*
D24*
X84100000Y-33440000D03*
M02*
