M48
; DRILL file {KiCad (5.1.9)-1} date 08/18/21 22:51:28
; FORMAT={-:-/ absolute / inch / decimal}
; #@! TF.CreationDate,2021-08-18T22:51:28+10:00
; #@! TF.GenerationSoftware,Kicad,Pcbnew,(5.1.9)-1
; #@! TF.FileFunction,Plated,1,4,PTH
FMAT,2
INCH
T1C0.0157
T2C0.0315
T3C0.0374
T4C0.0394
T5C0.0433
%
G90
G05
T1
X2.506Y-2.33
X2.622Y-2.27
X2.772Y-2.2706
X2.998Y-2.356
X2.998Y-2.5108
T2
X1.3787Y-1.73
X1.3787Y-1.83
T3
X1.096Y-1.6927
X1.096Y-1.7911
X1.096Y-1.8896
X1.096Y-1.988
X3.05Y-1.22
X3.1484Y-1.22
X3.2469Y-1.22
X3.3453Y-1.22
X3.4437Y-1.22
X3.5421Y-1.22
X3.6406Y-1.22
T4
X3.938Y-1.08
X3.938Y-1.18
X3.938Y-1.28
X3.938Y-1.38
X3.938Y-1.48
X3.938Y-1.58
X3.938Y-1.68
X3.938Y-1.78
X3.938Y-1.88
X3.938Y-1.98
X3.938Y-2.08
X3.938Y-2.18
X3.938Y-2.28
X3.938Y-2.38
X3.938Y-2.48
X3.938Y-2.58
X3.938Y-2.68
X3.938Y-2.78
X3.938Y-2.88
X3.938Y-2.98
X4.038Y-1.08
X4.038Y-1.18
X4.038Y-1.28
X4.038Y-1.38
X4.038Y-1.48
X4.038Y-1.58
X4.038Y-1.68
X4.038Y-1.78
X4.038Y-1.88
X4.038Y-1.98
X4.038Y-2.08
X4.038Y-2.18
X4.038Y-2.28
X4.038Y-2.38
X4.038Y-2.48
X4.038Y-2.58
X4.038Y-2.68
X4.038Y-2.78
X4.038Y-2.88
X4.038Y-2.98
T5
X1.35Y-1.48
X1.35Y-2.08
X1.45Y-1.48
X1.45Y-1.58
X1.45Y-2.08
X1.55Y-1.48
X1.55Y-2.08
X1.65Y-1.48
X1.65Y-2.08
X1.75Y-1.48
X1.75Y-2.08
X1.85Y-1.48
X1.85Y-2.08
X1.95Y-1.48
X1.95Y-2.08
X2.05Y-1.48
X2.05Y-2.08
X2.15Y-1.48
X2.15Y-2.08
X2.25Y-1.48
X2.25Y-2.08
X2.35Y-1.48
X2.35Y-2.08
X2.45Y-1.48
X2.45Y-2.08
X2.55Y-1.48
X2.55Y-2.08
X2.65Y-1.48
X2.65Y-2.08
X2.75Y-1.48
X2.75Y-2.08
X2.85Y-1.48
X2.85Y-2.08
X2.95Y-1.48
X2.95Y-2.08
X3.05Y-1.48
X3.05Y-2.08
X3.15Y-1.48
X3.15Y-2.08
X3.25Y-1.48
X3.25Y-2.08
X3.35Y-1.48
X3.35Y-2.08
X3.45Y-1.48
X3.45Y-2.08
X3.55Y-1.48
X3.55Y-2.08
X3.65Y-1.48
X3.65Y-2.08
T0
M30
