G04 #@! TF.GenerationSoftware,KiCad,Pcbnew,(5.1.10)-1*
G04 #@! TF.CreationDate,2021-10-17T01:43:43+10:00*
G04 #@! TF.ProjectId,RedPyKeeb_MCU,52656450-794b-4656-9562-5f4d43552e6b,rev?*
G04 #@! TF.SameCoordinates,Original*
G04 #@! TF.FileFunction,Legend,Bot*
G04 #@! TF.FilePolarity,Positive*
%FSLAX46Y46*%
G04 Gerber Fmt 4.6, Leading zero omitted, Abs format (unit mm)*
G04 Created by KiCad (PCBNEW (5.1.10)-1) date 2021-10-17 01:43:43*
%MOMM*%
%LPD*%
G01*
G04 APERTURE LIST*
%ADD10C,0.120000*%
%ADD11C,0.150000*%
%ADD12R,1.000000X3.150000*%
%ADD13C,1.600000*%
%ADD14R,1.600000X1.600000*%
%ADD15C,1.300000*%
%ADD16O,1.700000X1.950000*%
%ADD17O,1.950000X1.700000*%
G04 APERTURE END LIST*
D10*
X79710000Y-65950000D02*
X80730000Y-65950000D01*
X54310000Y-71150000D02*
X55330000Y-71150000D01*
X64470000Y-65950000D02*
X65490000Y-65950000D01*
X74630000Y-65950000D02*
X75650000Y-65950000D01*
X72090000Y-65950000D02*
X73110000Y-65950000D01*
X74630000Y-71150000D02*
X75650000Y-71150000D01*
X77170000Y-71150000D02*
X78190000Y-71150000D01*
X44150000Y-65950000D02*
X45170000Y-65950000D01*
X39070000Y-71150000D02*
X40090000Y-71150000D01*
X51770000Y-71150000D02*
X52790000Y-71150000D01*
X46690000Y-71150000D02*
X47710000Y-71150000D01*
X54310000Y-65950000D02*
X55330000Y-65950000D01*
X41610000Y-71150000D02*
X42630000Y-71150000D01*
X59390000Y-71150000D02*
X60410000Y-71150000D01*
X44150000Y-71150000D02*
X45170000Y-71150000D01*
X49230000Y-71150000D02*
X50250000Y-71150000D01*
X61930000Y-71150000D02*
X62950000Y-71150000D01*
X79710000Y-71150000D02*
X80730000Y-71150000D01*
X46690000Y-65950000D02*
X47710000Y-65950000D01*
X59390000Y-65950000D02*
X60410000Y-65950000D01*
X69550000Y-71150000D02*
X70570000Y-71150000D01*
X77170000Y-65950000D02*
X78190000Y-65950000D01*
X67010000Y-65950000D02*
X68030000Y-65950000D01*
X41610000Y-65950000D02*
X42630000Y-65950000D01*
X69550000Y-65950000D02*
X70570000Y-65950000D01*
X82250000Y-65950000D02*
X83270000Y-65950000D01*
X56850000Y-71150000D02*
X57870000Y-71150000D01*
X56850000Y-65950000D02*
X57870000Y-65950000D01*
X51770000Y-65950000D02*
X52790000Y-65950000D01*
X72090000Y-71150000D02*
X73110000Y-71150000D01*
X64470000Y-71150000D02*
X65490000Y-71150000D01*
X67010000Y-71150000D02*
X68030000Y-71150000D01*
X61930000Y-65950000D02*
X62950000Y-65950000D01*
X82250000Y-71150000D02*
X83270000Y-71150000D01*
X39070000Y-65950000D02*
X40090000Y-65950000D01*
X49230000Y-65950000D02*
X50250000Y-65950000D01*
X34440000Y-65950000D02*
X34440000Y-71150000D01*
X85360000Y-65950000D02*
X85360000Y-71150000D01*
X35010000Y-64510000D02*
X35010000Y-65950000D01*
X34440000Y-65950000D02*
X35010000Y-65950000D01*
X34440000Y-71150000D02*
X35010000Y-71150000D01*
X84790000Y-65950000D02*
X85360000Y-65950000D01*
X84790000Y-71150000D02*
X85360000Y-71150000D01*
X36530000Y-65950000D02*
X37550000Y-65950000D01*
X36530000Y-71150000D02*
X37550000Y-71150000D01*
X39070000Y-65950000D02*
X40090000Y-65950000D01*
X39070000Y-71150000D02*
X40090000Y-71150000D01*
X41610000Y-65950000D02*
X42630000Y-65950000D01*
X41610000Y-71150000D02*
X42630000Y-71150000D01*
X44150000Y-65950000D02*
X45170000Y-65950000D01*
X44150000Y-71150000D02*
X45170000Y-71150000D01*
X46690000Y-65950000D02*
X47710000Y-65950000D01*
X46690000Y-71150000D02*
X47710000Y-71150000D01*
X49230000Y-65950000D02*
X50250000Y-65950000D01*
X49230000Y-71150000D02*
X50250000Y-71150000D01*
X51770000Y-65950000D02*
X52790000Y-65950000D01*
X51770000Y-71150000D02*
X52790000Y-71150000D01*
X54310000Y-65950000D02*
X55330000Y-65950000D01*
X54310000Y-71150000D02*
X55330000Y-71150000D01*
X56850000Y-65950000D02*
X57870000Y-65950000D01*
X56850000Y-71150000D02*
X57870000Y-71150000D01*
X59390000Y-65950000D02*
X60410000Y-65950000D01*
X59390000Y-71150000D02*
X60410000Y-71150000D01*
X61930000Y-65950000D02*
X62950000Y-65950000D01*
X61930000Y-71150000D02*
X62950000Y-71150000D01*
X64470000Y-65950000D02*
X65490000Y-65950000D01*
X64470000Y-71150000D02*
X65490000Y-71150000D01*
X67010000Y-65950000D02*
X68030000Y-65950000D01*
X67010000Y-71150000D02*
X68030000Y-71150000D01*
X69550000Y-65950000D02*
X70570000Y-65950000D01*
X69550000Y-71150000D02*
X70570000Y-71150000D01*
X72090000Y-65950000D02*
X73110000Y-65950000D01*
X72090000Y-71150000D02*
X73110000Y-71150000D01*
X74630000Y-65950000D02*
X75650000Y-65950000D01*
X74630000Y-71150000D02*
X75650000Y-71150000D01*
X77170000Y-65950000D02*
X78190000Y-65950000D01*
X77170000Y-71150000D02*
X78190000Y-71150000D01*
X79710000Y-65950000D02*
X80730000Y-65950000D01*
X79710000Y-71150000D02*
X80730000Y-71150000D01*
X82250000Y-65950000D02*
X83270000Y-65950000D01*
X82250000Y-71150000D02*
X83270000Y-71150000D01*
D11*
X32892380Y-68216666D02*
X33606666Y-68216666D01*
X33749523Y-68169047D01*
X33844761Y-68073809D01*
X33892380Y-67930952D01*
X33892380Y-67835714D01*
X33892380Y-69216666D02*
X33892380Y-68645238D01*
X33892380Y-68930952D02*
X32892380Y-68930952D01*
X33035238Y-68835714D01*
X33130476Y-68740476D01*
X33178095Y-68645238D01*
%LPC*%
D12*
X73870000Y-66025240D03*
X53550000Y-71075000D03*
X84030000Y-71075000D03*
X84030000Y-66025000D03*
X81490000Y-71075000D03*
X81490000Y-66025000D03*
X78950000Y-71075000D03*
X78950000Y-66025000D03*
X76410000Y-71075000D03*
X76410000Y-66025000D03*
X73870000Y-71075000D03*
X71330000Y-71075000D03*
X71330000Y-66025000D03*
X68790000Y-71075000D03*
X68790000Y-66025000D03*
X66250000Y-71075000D03*
X66250000Y-66025000D03*
X63710000Y-71075000D03*
X63710000Y-66025000D03*
X61170000Y-71075000D03*
X61170000Y-66025000D03*
X58630000Y-71075000D03*
X58630000Y-66025000D03*
X56090000Y-71075000D03*
X56090000Y-66025000D03*
X53550000Y-66025000D03*
X51010000Y-71075000D03*
X51010000Y-66025000D03*
X48470000Y-71075000D03*
X48470000Y-66025000D03*
X45930000Y-71075000D03*
X45930000Y-66025000D03*
X43390000Y-71075000D03*
X43390000Y-66025000D03*
X40850000Y-71075000D03*
X40850000Y-66025000D03*
X38310000Y-71075000D03*
X38310000Y-66025000D03*
X35770000Y-71075000D03*
X35770000Y-66025000D03*
D13*
X36195000Y-35052000D03*
X33655000Y-32512000D03*
X36195000Y-32512000D03*
X38735000Y-32512000D03*
X41275000Y-32512000D03*
X43815000Y-32512000D03*
X46355000Y-32512000D03*
X48895000Y-32512000D03*
X51435000Y-32512000D03*
X53975000Y-32512000D03*
X56515000Y-32512000D03*
X59055000Y-32512000D03*
X61595000Y-32512000D03*
X64135000Y-32512000D03*
X66675000Y-32512000D03*
D14*
X33655000Y-47752000D03*
D13*
X36195000Y-47752000D03*
X38735000Y-47752000D03*
X41275000Y-47752000D03*
X43815000Y-47752000D03*
X46355000Y-47752000D03*
X48895000Y-47752000D03*
X51435000Y-47752000D03*
X53975000Y-47752000D03*
X56515000Y-47752000D03*
X59055000Y-47752000D03*
X61595000Y-47752000D03*
X64135000Y-47752000D03*
X69215000Y-32512000D03*
X71755000Y-32512000D03*
X74295000Y-32512000D03*
X76835000Y-32512000D03*
X79375000Y-32512000D03*
X81915000Y-32512000D03*
X84455000Y-32512000D03*
X86995000Y-32512000D03*
X89535000Y-32512000D03*
X92075000Y-32512000D03*
X92075000Y-47752000D03*
X89535000Y-47752000D03*
X86995000Y-47752000D03*
X84455000Y-47752000D03*
X66675000Y-47752000D03*
X69215000Y-47752000D03*
X71755000Y-47752000D03*
X81915000Y-47752000D03*
X79375000Y-47752000D03*
X76835000Y-47752000D03*
X74295000Y-47752000D03*
D15*
X34385000Y-41402000D03*
X34385000Y-38862000D03*
D16*
X54344600Y-25730200D03*
X51844600Y-25730200D03*
X49344600Y-25730200D03*
X46844600Y-25730200D03*
X44344600Y-25730200D03*
X41844600Y-25730200D03*
G36*
G01*
X38494600Y-26455200D02*
X38494600Y-25005200D01*
G75*
G02*
X38744600Y-24755200I250000J0D01*
G01*
X39944600Y-24755200D01*
G75*
G02*
X40194600Y-25005200I0J-250000D01*
G01*
X40194600Y-26455200D01*
G75*
G02*
X39944600Y-26705200I-250000J0D01*
G01*
X38744600Y-26705200D01*
G75*
G02*
X38494600Y-26455200I0J250000D01*
G01*
G37*
D17*
X27203400Y-37915200D03*
X27203400Y-40415200D03*
X27203400Y-42915200D03*
G36*
G01*
X27928400Y-46265200D02*
X26478400Y-46265200D01*
G75*
G02*
X26228400Y-46015200I0J250000D01*
G01*
X26228400Y-44815200D01*
G75*
G02*
X26478400Y-44565200I250000J0D01*
G01*
X27928400Y-44565200D01*
G75*
G02*
X28178400Y-44815200I0J-250000D01*
G01*
X28178400Y-46015200D01*
G75*
G02*
X27928400Y-46265200I-250000J0D01*
G01*
G37*
M02*
