M48
; DRILL file {KiCad (5.1.10)-1} date 09/26/21 02:34:12
; FORMAT={-:-/ absolute / inch / decimal}
; #@! TF.CreationDate,2021-09-26T02:34:12+10:00
; #@! TF.GenerationSoftware,Kicad,Pcbnew,(5.1.10)-1
; #@! TF.FileFunction,Plated,1,4,PTH
FMAT,2
INCH
T1C0.0157
T2C0.0300
T3C0.0315
T4C0.0374
T5C0.0433
%
G90
G05
T1
X2.506Y-2.33
X2.622Y-2.27
X2.772Y-2.2706
X2.998Y-2.356
X2.998Y-2.5108
X3.8945Y-1.0815
X3.8948Y-2.0348
X4.093Y-1.0825
X4.0935Y-1.982
T2
X3.8915Y-1.181
X3.8935Y-1.282
X4.0945Y-1.182
X4.096Y-1.2825
T3
X1.3787Y-1.73
X1.3787Y-1.83
T4
X1.096Y-1.6927
X1.096Y-1.7911
X1.096Y-1.8896
X1.096Y-1.988
X1.574Y-1.213
X1.6724Y-1.213
X1.7709Y-1.213
X1.8693Y-1.213
X1.9677Y-1.213
X2.0661Y-1.213
X2.1646Y-1.213
T5
X1.35Y-1.48
X1.35Y-2.08
X1.45Y-1.48
X1.45Y-1.58
X1.45Y-2.08
X1.55Y-1.48
X1.55Y-2.08
X1.65Y-1.48
X1.65Y-2.08
X1.75Y-1.48
X1.75Y-2.08
X1.85Y-1.48
X1.85Y-2.08
X1.95Y-1.48
X1.95Y-2.08
X2.05Y-1.48
X2.05Y-2.08
X2.15Y-1.48
X2.15Y-2.08
X2.25Y-1.48
X2.25Y-2.08
X2.35Y-1.48
X2.35Y-2.08
X2.45Y-1.48
X2.45Y-2.08
X2.55Y-1.48
X2.55Y-2.08
X2.65Y-1.48
X2.65Y-2.08
X2.75Y-1.48
X2.75Y-2.08
X2.85Y-1.48
X2.85Y-2.08
X2.95Y-1.48
X2.95Y-2.08
X3.05Y-1.48
X3.05Y-2.08
X3.15Y-1.48
X3.15Y-2.08
X3.25Y-1.48
X3.25Y-2.08
X3.35Y-1.48
X3.35Y-2.08
X3.45Y-1.48
X3.45Y-2.08
X3.55Y-1.48
X3.55Y-2.08
X3.65Y-1.48
X3.65Y-2.08
T0
M30
