%TF.GenerationSoftware,KiCad,Pcbnew,(5.1.9)-1*%
%TF.CreationDate,2021-05-12T01:56:06+10:00*%
%TF.ProjectId,RedPyKeeb_MCU,52656450-794b-4656-9562-5f4d43552e6b,rev?*%
%TF.SameCoordinates,Original*%
%TF.FileFunction,Soldermask,Top*%
%TF.FilePolarity,Negative*%
%FSLAX46Y46*%
G04 Gerber Fmt 4.6, Leading zero omitted, Abs format (unit mm)*
G04 Created by KiCad (PCBNEW (5.1.9)-1) date 2021-05-12 01:56:06*
%MOMM*%
%LPD*%
G01*
G04 APERTURE LIST*
%ADD10C,1.300000*%
%ADD11C,1.600000*%
%ADD12R,1.300000X1.300000*%
%ADD13R,1.600000X1.600000*%
%ADD14O,1.700000X1.950000*%
%ADD15O,1.950000X1.700000*%
%ADD16R,1.350000X1.350000*%
%ADD17O,1.350000X1.350000*%
G04 APERTURE END LIST*
%TO.C,U1*%
G36*
G01*
X72646400Y-55043200D02*
X72946400Y-55043200D01*
G75*
G02*
X73096400Y-55193200I0J-150000D01*
G01*
X73096400Y-56843200D01*
G75*
G02*
X72946400Y-56993200I-150000J0D01*
G01*
X72646400Y-56993200D01*
G75*
G02*
X72496400Y-56843200I0J150000D01*
G01*
X72496400Y-55193200D01*
G75*
G02*
X72646400Y-55043200I150000J0D01*
G01*
G37*
G36*
G01*
X71376400Y-55043200D02*
X71676400Y-55043200D01*
G75*
G02*
X71826400Y-55193200I0J-150000D01*
G01*
X71826400Y-56843200D01*
G75*
G02*
X71676400Y-56993200I-150000J0D01*
G01*
X71376400Y-56993200D01*
G75*
G02*
X71226400Y-56843200I0J150000D01*
G01*
X71226400Y-55193200D01*
G75*
G02*
X71376400Y-55043200I150000J0D01*
G01*
G37*
G36*
G01*
X70106400Y-55043200D02*
X70406400Y-55043200D01*
G75*
G02*
X70556400Y-55193200I0J-150000D01*
G01*
X70556400Y-56843200D01*
G75*
G02*
X70406400Y-56993200I-150000J0D01*
G01*
X70106400Y-56993200D01*
G75*
G02*
X69956400Y-56843200I0J150000D01*
G01*
X69956400Y-55193200D01*
G75*
G02*
X70106400Y-55043200I150000J0D01*
G01*
G37*
G36*
G01*
X68836400Y-55043200D02*
X69136400Y-55043200D01*
G75*
G02*
X69286400Y-55193200I0J-150000D01*
G01*
X69286400Y-56843200D01*
G75*
G02*
X69136400Y-56993200I-150000J0D01*
G01*
X68836400Y-56993200D01*
G75*
G02*
X68686400Y-56843200I0J150000D01*
G01*
X68686400Y-55193200D01*
G75*
G02*
X68836400Y-55043200I150000J0D01*
G01*
G37*
G36*
G01*
X67566400Y-55043200D02*
X67866400Y-55043200D01*
G75*
G02*
X68016400Y-55193200I0J-150000D01*
G01*
X68016400Y-56843200D01*
G75*
G02*
X67866400Y-56993200I-150000J0D01*
G01*
X67566400Y-56993200D01*
G75*
G02*
X67416400Y-56843200I0J150000D01*
G01*
X67416400Y-55193200D01*
G75*
G02*
X67566400Y-55043200I150000J0D01*
G01*
G37*
G36*
G01*
X66296400Y-55043200D02*
X66596400Y-55043200D01*
G75*
G02*
X66746400Y-55193200I0J-150000D01*
G01*
X66746400Y-56843200D01*
G75*
G02*
X66596400Y-56993200I-150000J0D01*
G01*
X66296400Y-56993200D01*
G75*
G02*
X66146400Y-56843200I0J150000D01*
G01*
X66146400Y-55193200D01*
G75*
G02*
X66296400Y-55043200I150000J0D01*
G01*
G37*
G36*
G01*
X65026400Y-55043200D02*
X65326400Y-55043200D01*
G75*
G02*
X65476400Y-55193200I0J-150000D01*
G01*
X65476400Y-56843200D01*
G75*
G02*
X65326400Y-56993200I-150000J0D01*
G01*
X65026400Y-56993200D01*
G75*
G02*
X64876400Y-56843200I0J150000D01*
G01*
X64876400Y-55193200D01*
G75*
G02*
X65026400Y-55043200I150000J0D01*
G01*
G37*
G36*
G01*
X65026400Y-50093200D02*
X65326400Y-50093200D01*
G75*
G02*
X65476400Y-50243200I0J-150000D01*
G01*
X65476400Y-51893200D01*
G75*
G02*
X65326400Y-52043200I-150000J0D01*
G01*
X65026400Y-52043200D01*
G75*
G02*
X64876400Y-51893200I0J150000D01*
G01*
X64876400Y-50243200D01*
G75*
G02*
X65026400Y-50093200I150000J0D01*
G01*
G37*
G36*
G01*
X66296400Y-50093200D02*
X66596400Y-50093200D01*
G75*
G02*
X66746400Y-50243200I0J-150000D01*
G01*
X66746400Y-51893200D01*
G75*
G02*
X66596400Y-52043200I-150000J0D01*
G01*
X66296400Y-52043200D01*
G75*
G02*
X66146400Y-51893200I0J150000D01*
G01*
X66146400Y-50243200D01*
G75*
G02*
X66296400Y-50093200I150000J0D01*
G01*
G37*
G36*
G01*
X67566400Y-50093200D02*
X67866400Y-50093200D01*
G75*
G02*
X68016400Y-50243200I0J-150000D01*
G01*
X68016400Y-51893200D01*
G75*
G02*
X67866400Y-52043200I-150000J0D01*
G01*
X67566400Y-52043200D01*
G75*
G02*
X67416400Y-51893200I0J150000D01*
G01*
X67416400Y-50243200D01*
G75*
G02*
X67566400Y-50093200I150000J0D01*
G01*
G37*
G36*
G01*
X68836400Y-50093200D02*
X69136400Y-50093200D01*
G75*
G02*
X69286400Y-50243200I0J-150000D01*
G01*
X69286400Y-51893200D01*
G75*
G02*
X69136400Y-52043200I-150000J0D01*
G01*
X68836400Y-52043200D01*
G75*
G02*
X68686400Y-51893200I0J150000D01*
G01*
X68686400Y-50243200D01*
G75*
G02*
X68836400Y-50093200I150000J0D01*
G01*
G37*
G36*
G01*
X70106400Y-50093200D02*
X70406400Y-50093200D01*
G75*
G02*
X70556400Y-50243200I0J-150000D01*
G01*
X70556400Y-51893200D01*
G75*
G02*
X70406400Y-52043200I-150000J0D01*
G01*
X70106400Y-52043200D01*
G75*
G02*
X69956400Y-51893200I0J150000D01*
G01*
X69956400Y-50243200D01*
G75*
G02*
X70106400Y-50093200I150000J0D01*
G01*
G37*
G36*
G01*
X71376400Y-50093200D02*
X71676400Y-50093200D01*
G75*
G02*
X71826400Y-50243200I0J-150000D01*
G01*
X71826400Y-51893200D01*
G75*
G02*
X71676400Y-52043200I-150000J0D01*
G01*
X71376400Y-52043200D01*
G75*
G02*
X71226400Y-51893200I0J150000D01*
G01*
X71226400Y-50243200D01*
G75*
G02*
X71376400Y-50093200I150000J0D01*
G01*
G37*
G36*
G01*
X72646400Y-50093200D02*
X72946400Y-50093200D01*
G75*
G02*
X73096400Y-50243200I0J-150000D01*
G01*
X73096400Y-51893200D01*
G75*
G02*
X72946400Y-52043200I-150000J0D01*
G01*
X72646400Y-52043200D01*
G75*
G02*
X72496400Y-51893200I0J150000D01*
G01*
X72496400Y-50243200D01*
G75*
G02*
X72646400Y-50093200I150000J0D01*
G01*
G37*
%TD*%
D10*
%TO.C,U0*%
X33597600Y-37338000D03*
X33597600Y-39878000D03*
D11*
X78587600Y-33528000D03*
X78587600Y-36068000D03*
X78587600Y-38608000D03*
X78587600Y-41148000D03*
X78587600Y-43688000D03*
D10*
X45837600Y-37426400D03*
X47837600Y-37426400D03*
X47837600Y-35426400D03*
X45837600Y-35426400D03*
X47837600Y-33426400D03*
D12*
X45837600Y-33426400D03*
D11*
X73507600Y-46228000D03*
X76047600Y-46228000D03*
X78587600Y-46228000D03*
X81127600Y-46228000D03*
X70967600Y-46228000D03*
X68427600Y-46228000D03*
X65887600Y-46228000D03*
X83667600Y-46228000D03*
X86207600Y-46228000D03*
X88747600Y-46228000D03*
X91287600Y-46228000D03*
X91287600Y-30988000D03*
X88747600Y-30988000D03*
X86207600Y-30988000D03*
X83667600Y-30988000D03*
X81127600Y-30988000D03*
X78587600Y-30988000D03*
X76047600Y-30988000D03*
X73507600Y-30988000D03*
X70967600Y-30988000D03*
X68427600Y-30988000D03*
X63347600Y-46228000D03*
X60807600Y-46228000D03*
X58267600Y-46228000D03*
X55727600Y-46228000D03*
X53187600Y-46228000D03*
X50647600Y-46228000D03*
X48107600Y-46228000D03*
X45567600Y-46228000D03*
X43027600Y-46228000D03*
X40487600Y-46228000D03*
X37947600Y-46228000D03*
X35407600Y-46228000D03*
D13*
X32867600Y-46228000D03*
D11*
X65887600Y-30988000D03*
X63347600Y-30988000D03*
X60807600Y-30988000D03*
X58267600Y-30988000D03*
X55727600Y-30988000D03*
X53187600Y-30988000D03*
X50647600Y-30988000D03*
X48107600Y-30988000D03*
X45567600Y-30988000D03*
X43027600Y-30988000D03*
X40487600Y-30988000D03*
X37947600Y-30988000D03*
X35407600Y-30988000D03*
X32867600Y-30988000D03*
D13*
X39166800Y-43177200D03*
D11*
X41706800Y-43177200D03*
X44246800Y-43177200D03*
X46786800Y-43177200D03*
X49326800Y-43177200D03*
X35407600Y-33528000D03*
%TD*%
D14*
%TO.C,J2*%
X89371200Y-23622000D03*
X86871200Y-23622000D03*
X84371200Y-23622000D03*
X81871200Y-23622000D03*
X79371200Y-23622000D03*
X76871200Y-23622000D03*
G36*
G01*
X73521200Y-24347000D02*
X73521200Y-22897000D01*
G75*
G02*
X73771200Y-22647000I250000J0D01*
G01*
X74971200Y-22647000D01*
G75*
G02*
X75221200Y-22897000I0J-250000D01*
G01*
X75221200Y-24347000D01*
G75*
G02*
X74971200Y-24597000I-250000J0D01*
G01*
X73771200Y-24597000D01*
G75*
G02*
X73521200Y-24347000I0J250000D01*
G01*
G37*
%TD*%
D15*
%TO.C,J0*%
X26416000Y-36391200D03*
X26416000Y-38891200D03*
X26416000Y-41391200D03*
G36*
G01*
X27141000Y-44741200D02*
X25691000Y-44741200D01*
G75*
G02*
X25441000Y-44491200I0J250000D01*
G01*
X25441000Y-43291200D01*
G75*
G02*
X25691000Y-43041200I250000J0D01*
G01*
X27141000Y-43041200D01*
G75*
G02*
X27391000Y-43291200I0J-250000D01*
G01*
X27391000Y-44491200D01*
G75*
G02*
X27141000Y-44741200I-250000J0D01*
G01*
G37*
%TD*%
%TO.C,C1*%
G36*
G01*
X74251800Y-54509000D02*
X75201800Y-54509000D01*
G75*
G02*
X75451800Y-54759000I0J-250000D01*
G01*
X75451800Y-55434000D01*
G75*
G02*
X75201800Y-55684000I-250000J0D01*
G01*
X74251800Y-55684000D01*
G75*
G02*
X74001800Y-55434000I0J250000D01*
G01*
X74001800Y-54759000D01*
G75*
G02*
X74251800Y-54509000I250000J0D01*
G01*
G37*
G36*
G01*
X74251800Y-56584000D02*
X75201800Y-56584000D01*
G75*
G02*
X75451800Y-56834000I0J-250000D01*
G01*
X75451800Y-57509000D01*
G75*
G02*
X75201800Y-57759000I-250000J0D01*
G01*
X74251800Y-57759000D01*
G75*
G02*
X74001800Y-57509000I0J250000D01*
G01*
X74001800Y-56834000D01*
G75*
G02*
X74251800Y-56584000I250000J0D01*
G01*
G37*
%TD*%
%TO.C,C2*%
G36*
G01*
X75201800Y-51772400D02*
X74251800Y-51772400D01*
G75*
G02*
X74001800Y-51522400I0J250000D01*
G01*
X74001800Y-50847400D01*
G75*
G02*
X74251800Y-50597400I250000J0D01*
G01*
X75201800Y-50597400D01*
G75*
G02*
X75451800Y-50847400I0J-250000D01*
G01*
X75451800Y-51522400D01*
G75*
G02*
X75201800Y-51772400I-250000J0D01*
G01*
G37*
G36*
G01*
X75201800Y-53847400D02*
X74251800Y-53847400D01*
G75*
G02*
X74001800Y-53597400I0J250000D01*
G01*
X74001800Y-52922400D01*
G75*
G02*
X74251800Y-52672400I250000J0D01*
G01*
X75201800Y-52672400D01*
G75*
G02*
X75451800Y-52922400I0J-250000D01*
G01*
X75451800Y-53597400D01*
G75*
G02*
X75201800Y-53847400I-250000J0D01*
G01*
G37*
%TD*%
D16*
%TO.C,J1*%
X28295600Y-65074800D03*
D17*
X30295600Y-65074800D03*
X32295600Y-65074800D03*
X34295600Y-65074800D03*
X36295600Y-65074800D03*
X38295600Y-65074800D03*
X40295600Y-65074800D03*
X42295600Y-65074800D03*
X44295600Y-65074800D03*
X46295600Y-65074800D03*
X48295600Y-65074800D03*
X50295600Y-65074800D03*
X52295600Y-65074800D03*
X54295600Y-65074800D03*
X56295600Y-65074800D03*
X58295600Y-65074800D03*
X60295600Y-65074800D03*
X62295600Y-65074800D03*
X64295600Y-65074800D03*
X66295600Y-65074800D03*
X68295600Y-65074800D03*
X70295600Y-65074800D03*
X72295600Y-65074800D03*
X74295600Y-65074800D03*
X76295600Y-65074800D03*
X78295600Y-65074800D03*
X80295600Y-65074800D03*
X82295600Y-65074800D03*
X84295600Y-65074800D03*
X86295600Y-65074800D03*
X88295600Y-65074800D03*
X90295600Y-65074800D03*
X92295600Y-65074800D03*
X94295600Y-65074800D03*
X96295600Y-65074800D03*
X98295600Y-65074800D03*
%TD*%
M02*
