M48
; DRILL file {KiCad (5.1.10)-1} date 10/18/21 05:05:42
; FORMAT={-:-/ absolute / inch / decimal}
; #@! TF.CreationDate,2021-10-18T05:05:42+10:00
; #@! TF.GenerationSoftware,Kicad,Pcbnew,(5.1.10)-1
; #@! TF.FileFunction,Plated,1,4,PTH
FMAT,2
INCH
T1C0.0157
T2C0.0300
T3C0.0315
T4C0.0374
T5C0.0402
T6C0.0433
%
G90
G05
T1
X1.298Y-3.2372
X1.298Y-3.436
X1.398Y-3.2372
X1.398Y-3.436
X1.498Y-3.2372
X1.498Y-3.436
X1.598Y-3.2372
X1.598Y-3.436
X1.698Y-3.2372
X1.698Y-3.436
X1.798Y-3.2372
X1.798Y-3.436
X1.898Y-3.2372
X1.898Y-3.436
X1.998Y-3.2372
X1.998Y-3.436
X2.098Y-3.2372
X2.098Y-3.436
X2.198Y-3.2372
X2.198Y-3.436
X2.298Y-3.2335
X2.298Y-3.436
X2.3701Y-2.4646
X2.3708Y-2.7678
X2.3858Y-2.5748
X2.398Y-3.2372
X2.398Y-3.436
X2.4868Y-2.7078
X2.498Y-3.2372
X2.498Y-3.436
X2.598Y-3.2372
X2.598Y-3.436
X2.6299Y-2.2047
X2.698Y-3.2372
X2.698Y-3.436
X2.7148Y-1.7653
X2.7154Y-1.4263
X2.7992Y-3.2362
X2.7992Y-3.437
X2.8148Y-1.4263
X2.8148Y-1.7653
X2.8628Y-2.7938
X2.8628Y-2.9486
X2.8976Y-3.2362
X2.8976Y-3.437
X2.9148Y-1.4263
X2.9148Y-1.7653
X2.9291Y-2.2047
X3.0148Y-1.4263
X3.0148Y-1.7653
X3.198Y-3.436
X3.1985Y-3.2371
T2
X2.9975Y-3.4386
X2.998Y-3.2361
X3.098Y-3.4371
X3.099Y-3.2341
T3
X1.2435Y-2.1678
X1.2435Y-2.2678
T4
X0.9608Y-2.1305
X0.9608Y-2.2289
X0.9608Y-2.3274
X0.9608Y-2.4258
X2.1732Y-1.126
X2.2717Y-1.126
X2.3701Y-1.126
X2.4685Y-1.126
X2.5669Y-1.126
X2.6654Y-1.126
X2.7638Y-1.126
T5
X1.3846Y-0.8665
X1.3846Y-1.5665
X1.4846Y-0.8665
X1.4846Y-1.5665
X1.5846Y-0.8665
X1.5846Y-1.5665
X1.6846Y-0.8665
X1.6846Y-1.5665
X1.7846Y-0.8665
X1.7846Y-1.5665
X1.8846Y-0.8665
X1.8846Y-1.5665
X1.9846Y-0.8665
X1.9846Y-1.5665
X2.0846Y-0.8665
X2.0846Y-1.5665
X2.1846Y-0.8665
X2.1846Y-1.5665
X2.2846Y-0.8665
X2.2846Y-1.5665
X2.3846Y-0.8665
X2.3846Y-1.5665
X2.4846Y-0.8665
X2.4846Y-1.5665
X2.5846Y-0.8665
X2.5846Y-1.5665
X2.6846Y-0.8665
X2.6846Y-1.5665
X2.7846Y-0.8665
X2.7846Y-1.5665
X2.8846Y-0.8665
X2.8846Y-1.5665
X2.9846Y-0.8665
X2.9846Y-1.5665
X3.0846Y-0.8665
X3.0846Y-1.5665
X3.1846Y-0.8665
X3.1846Y-1.5665
X3.2756Y-1.1165
X3.2756Y-1.2165
X3.2756Y-1.3165
X3.2846Y-0.8665
X3.2846Y-1.5665
T6
X1.2148Y-1.9178
X1.2148Y-2.5178
X1.3148Y-1.9178
X1.3148Y-2.0178
X1.3148Y-2.5178
X1.4148Y-1.9178
X1.4148Y-2.5178
X1.5148Y-1.9178
X1.5148Y-2.5178
X1.6148Y-1.9178
X1.6148Y-2.5178
X1.7148Y-1.9178
X1.7148Y-2.5178
X1.8148Y-1.9178
X1.8148Y-2.5178
X1.9148Y-1.9178
X1.9148Y-2.5178
X2.0148Y-1.9178
X2.0148Y-2.5178
X2.1148Y-1.9178
X2.1148Y-2.5178
X2.2148Y-1.9178
X2.2148Y-2.5178
X2.3148Y-1.9178
X2.3148Y-2.5178
X2.4148Y-1.9178
X2.4148Y-2.5178
X2.5148Y-1.9178
X2.5148Y-2.5178
X2.6148Y-1.9178
X2.6148Y-2.5178
X2.7148Y-1.9178
X2.7148Y-2.5178
X2.8148Y-1.9178
X2.8148Y-2.5178
X2.9148Y-1.9178
X2.9148Y-2.5178
X3.0148Y-1.9178
X3.0148Y-2.5178
X3.1148Y-1.9178
X3.1148Y-2.5178
X3.2148Y-1.9178
X3.2148Y-2.5178
X3.3148Y-1.9178
X3.3148Y-2.5178
X3.4148Y-1.9178
X3.4148Y-2.5178
X3.5148Y-1.9178
X3.5148Y-2.5178
T0
M30
